<svg version="1.0" width="22" height="22" xmlns="http://www.w3.org/2000/svg"><path class="error" d="M9.004 3v1.012c-.772.016-1.398.076-1.936.373a1.879 1.88 0 0 0-.838.998c-.164.437-.224.96-.224 1.617v7H6v1c0 .658.06 1.18.225 1.617.164.44.462.79.837.996.753.415 1.673.372 2.93.387h2.01c1.257-.015 2.177.028 2.93-.387a1.87 1.87 0 0 0 .837-.996c.165-.438.225-.959.225-1.617H16V7c0-.657-.06-1.18-.225-1.617a1.879 1.88 0 0 0-.838-.998c-.538-.297-1.164-.357-1.935-.373V3H9.004zm1 2h1.998c1.26.015 2.085.06 2.451.262.184.1.289.212.387.472.097.26.16.674.16 1.266v7h-.006v1c0 .592-.063 1.006-.16 1.266-.098.259-.201.372-.385.472-.365.202-1.195.247-2.453.262H9.998c-1.258-.015-2.088-.06-2.453-.262-.184-.1-.287-.213-.385-.472C7.063 16.006 7 15.592 7 15v-1h.006V7c0-.592.063-1.006.16-1.266.098-.26.203-.371.387-.472.366-.202 1.192-.247 2.45-.262zm.287 1v2.662c0 .793.03 1.516.086 2.168.057.642.128 1.284.213 1.926h.82c.085-.642.156-1.284.213-1.926.057-.651.086-1.375.086-2.168V6H10.29zM11 14.102c-.293 0-.523.094-.693.283a.965.965 0 0 0-.256.666c0 .255.086.477.256.666.17.189.4.283.693.283.293 0 .523-.094.693-.283a.965.965 0 0 0 .256-.666.965.965 0 0 0-.256-.666c-.17-.19-.4-.283-.693-.283z" fill="#da1636"/></svg>