<svg version="1.0" width="22" height="22" xmlns="http://www.w3.org/2000/svg"><path d="M7.28 3c-1.349.017-2.335-.032-3.142.413a2.014 2.014 0 0 0-.897 1.07C3.064 4.951 3 5.51 3 6.214v8.571c0 .705.064 1.263.241 1.732.176.47.494.846.897 1.068.807.445 1.793.398 3.141.414h6.433c1.348-.015 2.334.031 3.141-.414a2.01 2.01 0 0 0 .898-1.068c.175-.469.24-1.028.24-1.732v-8.57c0-.705-.064-1.263-.241-1.733a2.014 2.014 0 0 0-.898-1.069c-.806-.446-1.792-.396-3.14-.412zm3.22 2.143a3.22 3.22 0 0 1 3.214 3.215V10.5h1.071v5.357h-8.57V10.5h1.07V8.358A3.22 3.22 0 0 1 10.5 5.143zm0 1.072a2.126 2.126 0 0 0-2.143 2.143V10.5h4.286V8.358A2.126 2.126 0 0 0 10.5 6.215zm1.071 5.357H9.428v3.214h2.143z" fill="#333" style="font-variant-ligatures:normal;font-variant-position:normal;font-variant-caps:normal;font-variant-numeric:normal;font-variant-alternates:normal;font-feature-settings:normal;text-indent:0;text-decoration-line:none;text-decoration-style:solid;text-decoration-color:#000;text-transform:none;text-orientation:mixed;white-space:normal;shape-padding:0;isolation:auto;mix-blend-mode:normal;stroke-width:1.0714"/></svg>