<?xml version="1.0" encoding="UTF-8" standalone="no"?>
<svg
   xmlns:dc="http://purl.org/dc/elements/1.1/"
   xmlns:cc="http://creativecommons.org/ns#"
   xmlns:rdf="http://www.w3.org/1999/02/22-rdf-syntax-ns#"
   xmlns:svg="http://www.w3.org/2000/svg"
   xmlns="http://www.w3.org/2000/svg"
   xmlns:sodipodi="http://sodipodi.sourceforge.net/DTD/sodipodi-0.dtd"
   xmlns:inkscape="http://www.inkscape.org/namespaces/inkscape"
   height="16"
   width="16"
   version="1.1"
   id="svg4"
   sodipodi:docname="audio-volume-muted-symbolic.svg">
  <metadata
     id="metadata10">
    <rdf:RDF>
      <cc:Work
         rdf:about="">
        <dc:format>image/svg+xml</dc:format>
        <dc:type
           rdf:resource="http://purl.org/dc/dcmitype/StillImage" />
      </cc:Work>
    </rdf:RDF>
  </metadata>
  <defs
     id="defs8" />
  <sodipodi:namedview
     pagecolor="#ffffff"
     bordercolor="#666666"
     borderopacity="1"
     objecttolerance="10"
     gridtolerance="10"
     guidetolerance="10"
     inkscape:pageopacity="0"
     inkscape:pageshadow="2"
     inkscape:window-width="640"
     inkscape:window-height="480"
     id="namedview6" />
  <path
     d="M14.266 1.264l-13 13 .47.472 3.239-3.238L8 14.666V8.473l2.312-2.313c.467.542.737 1.227.737 1.947 0 .796-.316 1.559-.88 2.122l-.353.353.707.707.354-.353a4 4 0 0 0 1.172-2.829c0-.985-.377-1.923-1.03-2.654l1.422-1.422a5.994 5.994 0 0 1 1.608 4.076 5.999 5.999 0 0 1-1.758 4.243l-.354.353.707.707.354-.353a7 7 0 0 0 2.05-4.95 6.994 6.994 0 0 0-1.9-4.783l1.588-1.588zM8 1.334L4.5 5H1.871S1 5.894 1 8.002C1 10.11 1.871 11 1.871 11h1.422L8 6.293z"
     opacity=".5"
     fill="gray"
     id="path2" />
</svg>
