<?xml version="1.0" encoding="UTF-8" standalone="no"?>
<svg
   version="1.1"
   viewBox="0 0 16 16"
   id="svg6"
   sodipodi:docname="bluetooth-hardware-disabled-symbolic.svg"
   inkscape:version="1.1.1 (3bf5ae0d25, 2021-09-20)"
   xmlns:inkscape="http://www.inkscape.org/namespaces/inkscape"
   xmlns:sodipodi="http://sodipodi.sourceforge.net/DTD/sodipodi-0.dtd"
   xmlns="http://www.w3.org/2000/svg"
   xmlns:svg="http://www.w3.org/2000/svg">
  <defs
     id="defs10" />
  <sodipodi:namedview
     id="namedview8"
     pagecolor="#ffffff"
     bordercolor="#666666"
     borderopacity="1.0"
     inkscape:pageshadow="2"
     inkscape:pageopacity="0.0"
     inkscape:pagecheckerboard="0"
     showgrid="true"
     inkscape:zoom="33.25"
     inkscape:cx="8"
     inkscape:cy="8.0150376"
     inkscape:window-width="1366"
     inkscape:window-height="704"
     inkscape:window-x="0"
     inkscape:window-y="27"
     inkscape:window-maximized="1"
     inkscape:current-layer="svg6">
    <inkscape:grid
       type="xygrid"
       id="grid846" />
  </sodipodi:namedview>
  <path
     d="M 4.6621,0 C 3.8241,0.01 3.212,-0.020188 2.709,0.25781 c -0.25,0.138 -0.45055,0.37106 -0.56055,0.66406 -0.11,0.292 -0.14844,0.64012 -0.14844,1.0781 v 4 h 2.3535 L 3.92773,5.64255 4.57226,4.87693 l 1.3379,1.123 h 1.0898 v -4.6973 l 4.2402,4.2383 -0.54688,0.45898 h 2.3086 v -4 c 0,-0.438 -0.04039,-0.78612 -0.15039,-1.0781 A 1.253,1.253 0 0 0 12.29094,0.25775 c -0.502,-0.277 -1.1141,-0.24781 -1.9531,-0.25781 h -5.6738 -0.00195 z M 8,3.7168 V 6 H 9.1367 L 9.75975,5.47656 7.99995,3.71676 Z M 2,9 v 5 c 0,0.438 0.038438,0.78612 0.14844,1.0781 0.11,0.293 0.31055,0.52802 0.56055,0.66602 0.502,0.277 1.1151,0.24586 1.9531,0.25586 h 5.6758 c 0.839,-0.01 1.4511,0.02114 1.9531,-0.25586 a 1.25,1.25 0 0 0 0.56055,-0.66602 c 0.11,-0.292 0.15039,-0.64012 0.15039,-1.0781 V 9 h -3.5215 l 1.7598,1.4785 -4.2383,4.2383 V 9.1035 L 4.57223,11.1426 3.9277,10.37698 5.5664,8.99998 H 2 Z m 6,0.0625 v 3.2402 L 9.7598,10.5429 8,9.0624 Z"
     fill="#808080"
     opacity="0.5"
     style="text-indent:0;text-decoration-line:none;text-decoration-style:solid;text-decoration-color:#000000;text-transform:none;shape-padding:0;isolation:auto;mix-blend-mode:normal"
     id="path2" />
  <rect
     x="0"
     y="7"
     width="15"
     height="1"
     fill="#808080"
     fill-rule="evenodd"
     stroke-linecap="round"
     stroke-width="2"
     id="rect4" />
</svg>
