<?xml version="1.0" encoding="UTF-8" standalone="no"?>
<svg
   xmlns:dc="http://purl.org/dc/elements/1.1/"
   xmlns:cc="http://creativecommons.org/ns#"
   xmlns:rdf="http://www.w3.org/1999/02/22-rdf-syntax-ns#"
   xmlns:svg="http://www.w3.org/2000/svg"
   xmlns="http://www.w3.org/2000/svg"
   xmlns:sodipodi="http://sodipodi.sourceforge.net/DTD/sodipodi-0.dtd"
   xmlns:inkscape="http://www.inkscape.org/namespaces/inkscape"
   viewBox="0 0 16 16"
   version="1.1"
   id="svg10"
   sodipodi:docname="computer-fail-symbolic.svg"
   inkscape:version="1.0.2 (e86c870879, 2021-01-15)">
  <metadata
     id="metadata16">
    <rdf:RDF>
      <cc:Work
         rdf:about="">
        <dc:format>image/svg+xml</dc:format>
        <dc:type
           rdf:resource="http://purl.org/dc/dcmitype/StillImage" />
        <dc:title></dc:title>
      </cc:Work>
    </rdf:RDF>
  </metadata>
  <defs
     id="defs14" />
  <sodipodi:namedview
     pagecolor="#ffffff"
     bordercolor="#666666"
     borderopacity="1"
     objecttolerance="10"
     gridtolerance="10"
     guidetolerance="10"
     inkscape:pageopacity="0"
     inkscape:pageshadow="2"
     inkscape:window-width="1920"
     inkscape:window-height="1016"
     id="namedview12"
     showgrid="true"
     inkscape:zoom="19.843184"
     inkscape:cx="6.0662547"
     inkscape:cy="6.9075972"
     inkscape:window-x="0"
     inkscape:window-y="27"
     inkscape:window-maximized="1"
     inkscape:current-layer="svg10">
    <inkscape:grid
       type="xygrid"
       id="grid841" />
  </sodipodi:namedview>
  <g
     transform="translate(-312 -120)"
     fill="gray"
     id="g8">
    <path
       d="M315.994 120c-1.258.015-2.179-.03-2.932.385a1.88 1.88 0 0 0-.837.998c-.165.438-.225.96-.225 1.617v6c0 .658.06 1.179.225 1.617.164.439.461.79.837.998.753.416 1.674.37 2.932.385H324.006c1.258-.015 2.179.03 2.932-.385a1.88 1.88 0 0 0 .838-.998c.164-.438.224-.96.224-1.617v-6c0-.658-.06-1.179-.225-1.617a1.88 1.88 0 0 0-.837-.998c-.753-.416-1.674-.37-2.932-.385h-8.008zm.006 1h8c1.259.015 2.087.06 2.453.262.184.1.29.212.387.472.097.26.16.674.16 1.266v6c0 .592-.063 1.006-.16 1.266-.098.26-.203.371-.387.472-.366.202-1.194.247-2.453.262h-8c-1.259-.015-2.09-.06-2.455-.262-.183-.1-.287-.212-.385-.472-.097-.26-.16-.674-.16-1.266v-6c0-.592.063-1.006.16-1.266.098-.26.202-.371.385-.472.366-.202 1.196-.247 2.455-.262z"
       font-family="sans-serif"
       font-weight="400"
       overflow="visible"
       style="font-feature-settings:normal;font-variant-alternates:normal;font-variant-caps:normal;font-variant-ligatures:normal;font-variant-numeric:normal;font-variant-position:normal;isolation:auto;mix-blend-mode:normal;shape-padding:0;text-decoration-color:#000;text-decoration-line:none;text-decoration-style:solid;text-indent:0;text-orientation:mixed;text-transform:none"
       white-space="normal"
       id="path2" />
    <rect
       x="318"
       y="132"
       width="4"
       height="1"
       id="rect4" />
    <path
       d="m312 135 3-1h10l3 1v1h-16z"
       id="path6" />
  </g>
  <path
     id="path987"
     style="display:inline;fill:#808080;fill-opacity:1;stroke:none;stroke-width:1"
     d="m 3.5000039,9.9740579 v -0.6250001 c 0,-0.08624 0.035161,-0.245677 0.089844,-0.429688 1.8112356,-1.2058108 6.7618551,-1.2249888 8.7167971,-0.06055 0.102272,0.270148 0.159008,0.491793 0.166015,0.583984 l 0.02734,0.5312501 c -1.83404,-1.3034501 -7.2056069,-1.3034501 -8.9999999,0 z" />
  <path
     style="display:inline;fill:#808080;fill-opacity:1;stroke:none"
     d="m 10.500025,3 c 0.55833,0 1,0.4729198 1,1.0312498 v 0.96875 c 0,0.55833 -0.44167,1 -1,1 -0.5583301,0 -1.0000001,-0.44167 -1.0000001,-1 v -0.96875 c 0,-0.55833 0.44167,-1.0312498 1.0000001,-1.0312498 z"
     id="path985" />
  <path
     style="display:inline;fill:#808080;fill-opacity:1;stroke:none"
     d="m 5.4687539,2.984375 c 0.55833,0 1.03125,0.4729198 1.03125,1.0312498 v 0.96875 c 0,0.55833 -0.47292,1 -1.03125,1 -0.55833,0 -1,-0.44167 -1,-1 v -0.96875 c 0,-0.55833 0.44167,-1.0312498 1,-1.0312498 z"
     id="path983" />
</svg>
