<?xml version="1.0" encoding="UTF-8" standalone="no"?>
<svg
   xmlns:dc="http://purl.org/dc/elements/1.1/"
   xmlns:cc="http://creativecommons.org/ns#"
   xmlns:rdf="http://www.w3.org/1999/02/22-rdf-syntax-ns#"
   xmlns:svg="http://www.w3.org/2000/svg"
   xmlns="http://www.w3.org/2000/svg"
   xmlns:sodipodi="http://sodipodi.sourceforge.net/DTD/sodipodi-0.dtd"
   xmlns:inkscape="http://www.inkscape.org/namespaces/inkscape"
   height="16.002"
   width="16.002"
   version="1.1"
   id="svg4"
   sodipodi:docname="dialog-warning-symbolic.svg">
  <metadata
     id="metadata10">
    <rdf:RDF>
      <cc:Work
         rdf:about="">
        <dc:format>image/svg+xml</dc:format>
        <dc:type
           rdf:resource="http://purl.org/dc/dcmitype/StillImage" />
      </cc:Work>
    </rdf:RDF>
  </metadata>
  <defs
     id="defs8" />
  <sodipodi:namedview
     pagecolor="#ffffff"
     bordercolor="#666666"
     borderopacity="1"
     objecttolerance="10"
     gridtolerance="10"
     guidetolerance="10"
     inkscape:pageopacity="0"
     inkscape:pageshadow="2"
     inkscape:window-width="640"
     inkscape:window-height="480"
     id="namedview6" />
  <path
     color="#000"
     d="M7.963 0a1.499 1.499 0 0 0-1.277.785l-6.502 12A1.5 1.5 0 0 0 1.5 15.002h13a1.5 1.5 0 0 0 1.317-2.217l-6.498-12A1.496 1.496 0 0 0 7.963 0zm.025 1a.494.494 0 0 1 .451.262l6.498 12c.203.374-.016.74-.437.74h-13c-.422 0-.64-.366-.438-.74l6.502-12A.493.493 0 0 1 7.988 1zm-.695 2.002v2.662c0 .793.03 1.517.086 2.168.057.642.128 1.284.213 1.926h.82c.085-.642.157-1.284.213-1.926.057-.651.086-1.375.086-2.168V3.002zm.71 8a1 1 0 0 0-1 1c0 .282.118.535.306.717.17.189.4.283.693.283.293 0 .524-.094.694-.283a.994.994 0 0 0 .306-.717 1 1 0 0 0-1-1z"
     fill="gray"
     font-family="sans-serif"
     font-weight="400"
     overflow="visible"
     style="line-height:normal;font-variant-ligatures:normal;font-variant-position:normal;font-variant-caps:normal;font-variant-numeric:normal;font-variant-alternates:normal;font-feature-settings:normal;text-indent:0;text-align:start;text-decoration-line:none;text-decoration-style:solid;text-decoration-color:#000;text-transform:none;text-orientation:mixed;shape-padding:0;isolation:auto;mix-blend-mode:normal"
     white-space="normal"
     id="path2" />
</svg>
