<?xml version="1.0" encoding="UTF-8" standalone="no"?>
<svg
   xmlns:dc="http://purl.org/dc/elements/1.1/"
   xmlns:cc="http://creativecommons.org/ns#"
   xmlns:rdf="http://www.w3.org/1999/02/22-rdf-syntax-ns#"
   xmlns:svg="http://www.w3.org/2000/svg"
   xmlns="http://www.w3.org/2000/svg"
   xmlns:sodipodi="http://sodipodi.sourceforge.net/DTD/sodipodi-0.dtd"
   xmlns:inkscape="http://www.inkscape.org/namespaces/inkscape"
   height="16"
   width="16"
   version="1.1"
   id="svg4"
   sodipodi:docname="location-services-disabled-symbolic.svg"
   inkscape:version="1.0.2 (e86c870879, 2021-01-15)">
  <metadata
     id="metadata10">
    <rdf:RDF>
      <cc:Work
         rdf:about="">
        <dc:format>image/svg+xml</dc:format>
        <dc:type
           rdf:resource="http://purl.org/dc/dcmitype/StillImage" />
        <dc:title></dc:title>
      </cc:Work>
    </rdf:RDF>
  </metadata>
  <defs
     id="defs8" />
  <sodipodi:namedview
     pagecolor="#ffffff"
     bordercolor="#666666"
     borderopacity="1"
     objecttolerance="10"
     gridtolerance="10"
     guidetolerance="10"
     inkscape:pageopacity="0"
     inkscape:pageshadow="2"
     inkscape:window-width="1920"
     inkscape:window-height="1043"
     id="namedview6"
     showgrid="true"
     inkscape:zoom="39.686368"
     inkscape:cx="6.5165804"
     inkscape:cy="8.7011187"
     inkscape:window-x="1920"
     inkscape:window-y="0"
     inkscape:window-maximized="1"
     inkscape:current-layer="svg4">
    <inkscape:grid
       type="xygrid"
       id="grid835" />
  </sodipodi:namedview>
  <path
     id="path2"
     style="marker:none;fill:#808080;fill-opacity:1"
     d="M 8 1 A 4 4 0 0 0 4 5 A 4 4 0 0 0 4.2265625 6.3203125 C 4.5131548 7.1780402 4.9325801 8.3502963 5.3984375 9.6015625 L 1 14 L 3 14 L 5.9433594 11.056641 L 9.2949219 7.7050781 L 10.707031 6.2929688 L 12 5 L 15 2 L 13 2 L 11.646484 3.3535156 A 4 4 0 0 0 8 1 z M 7.9472656 2 A 3 3 0 0 1 7.9492188 2 A 3 3 0 0 1 8 2 A 3 3 0 0 1 10.869141 4.1308594 L 7.1289062 7.8710938 A 3 3 0 0 1 5 5 A 3 3 0 0 1 7.9472656 2 z M 11.298828 7.7011719 L 6.5195312 12.480469 C 6.9897464 13.615035 7.481546 14.742618 8 15.769531 C 9.3030222 13.188607 10.495307 10.005459 11.298828 7.7011719 z " />
</svg>
