<?xml version="1.0" encoding="UTF-8" standalone="no"?>
<svg
   xmlns:dc="http://purl.org/dc/elements/1.1/"
   xmlns:cc="http://creativecommons.org/ns#"
   xmlns:rdf="http://www.w3.org/1999/02/22-rdf-syntax-ns#"
   xmlns:svg="http://www.w3.org/2000/svg"
   xmlns="http://www.w3.org/2000/svg"
   xmlns:sodipodi="http://sodipodi.sourceforge.net/DTD/sodipodi-0.dtd"
   xmlns:inkscape="http://www.inkscape.org/namespaces/inkscape"
   height="16"
   width="16"
   version="1.1"
   id="svg8"
   sodipodi:docname="network-cellular-acquiring-symbolic.svg">
  <metadata
     id="metadata14">
    <rdf:RDF>
      <cc:Work
         rdf:about="">
        <dc:format>image/svg+xml</dc:format>
        <dc:type
           rdf:resource="http://purl.org/dc/dcmitype/StillImage" />
      </cc:Work>
    </rdf:RDF>
  </metadata>
  <defs
     id="defs12" />
  <sodipodi:namedview
     pagecolor="#ffffff"
     bordercolor="#666666"
     borderopacity="1"
     objecttolerance="10"
     gridtolerance="10"
     guidetolerance="10"
     inkscape:pageopacity="0"
     inkscape:pageshadow="2"
     inkscape:window-width="640"
     inkscape:window-height="480"
     id="namedview10" />
  <g
     color="#000"
     fill="gray"
     id="g6">
    <path
       d="M15 .293L10.293 5h1.414L14 2.707V14H2.707l4-4H5.293l-4.146 4.146L.293 15H15z"
       font-family="sans-serif"
       font-weight="400"
       opacity=".5"
       overflow="visible"
       style="line-height:normal;font-variant-ligatures:normal;font-variant-position:normal;font-variant-caps:normal;font-variant-numeric:normal;font-variant-alternates:normal;font-feature-settings:normal;text-indent:0;text-align:start;text-decoration-line:none;text-decoration-style:solid;text-decoration-color:#000;text-transform:none;text-orientation:mixed;shape-padding:0;isolation:auto;mix-blend-mode:normal;marker:none"
       white-space="normal"
       id="path2" />
    <path
       d="M3.5 6c-.829 0-1.496.667-1.496 1.496v.016c0 .829.667 1.496 1.496 1.496h.016c.83 0 1.496-.667 1.496-1.496v-.016C5.012 6.667 4.345 6 3.516 6zm4 0c-.829 0-1.496.667-1.496 1.496v.016c0 .829.667 1.496 1.496 1.496h.016c.83 0 1.496-.667 1.496-1.496v-.016C9.012 6.667 8.345 6 7.516 6zm4 0c-.829 0-1.496.667-1.496 1.496v.016c0 .829.667 1.496 1.496 1.496h.016c.83 0 1.496-.667 1.496-1.496v-.016c0-.829-.667-1.496-1.496-1.496z"
       display="block"
       overflow="visible"
       style="isolation:auto;mix-blend-mode:normal;marker:none"
       id="path4" />
  </g>
</svg>
