<?xml version="1.0" encoding="UTF-8" standalone="no"?>
<svg
   height="16"
   width="16"
   version="1.1"
   id="svg4"
   sodipodi:docname="network-vpn-disconnected-symbolic.svg"
   inkscape:version="1.1.1 (eb90963e84, 2021-10-02)"
   xmlns:inkscape="http://www.inkscape.org/namespaces/inkscape"
   xmlns:sodipodi="http://sodipodi.sourceforge.net/DTD/sodipodi-0.dtd"
   xmlns="http://www.w3.org/2000/svg"
   xmlns:svg="http://www.w3.org/2000/svg">
  <defs
     id="defs8" />
  <sodipodi:namedview
     id="namedview6"
     pagecolor="#ffffff"
     bordercolor="#666666"
     borderopacity="1.0"
     inkscape:pageshadow="2"
     inkscape:pageopacity="0.0"
     inkscape:pagecheckerboard="0"
     showgrid="true"
     inkscape:zoom="1.75"
     inkscape:cx="182.57143"
     inkscape:cy="-56"
     inkscape:window-width="1920"
     inkscape:window-height="1043"
     inkscape:window-x="1920"
     inkscape:window-y="0"
     inkscape:window-maximized="1"
     inkscape:current-layer="svg4">
    <inkscape:grid
       type="xygrid"
       id="grid825" />
  </sodipodi:namedview>
  <path
     id="path2"
     style="line-height:125%;-inkscape-font-specification:Ubuntu;text-align:center;fill:#808080;fill-opacity:1;opacity:0.5"
     d="M 2.7128906 2 C 1.6548906 1.987 0.94507812 2.2241094 0.58007812 2.6621094 C 0.19707813 3.1181094 -7.4014868e-17 3.86625 0 4.90625 L 0 7 L 1 7 L 1 5 L 2 5 L 2 7 L 4 7 L 4 5 L 5 5 L 5 7 L 6 7 L 6 6 L 6 5 L 8 5 C 9.099 5 10 5.901 10 7 L 11 7 L 11 6 L 11 5 L 13 5 C 14.099 5 15 5.901 15 7 L 16 7 L 16 4.90625 C 16 3.86625 15.804875 3.1181094 15.421875 2.6621094 C 15.056875 2.2241094 14.345109 2 13.287109 2 L 2.7128906 2 z M 7 6 L 7 7 L 9 7 C 9 6.442 8.558 6 8 6 L 7 6 z M 12 6 L 12 7 L 14 7 C 14 6.442 13.558 6 13 6 L 12 6 z M 0 10 L 0 11.09375 C 0 12.13375 0.19707813 12.881891 0.58007812 13.337891 C 0.94507812 13.775891 1.6548906 14 2.7128906 14 L 13.287109 14 C 14.345109 14 15.056875 13.775891 15.421875 13.337891 C 15.804875 12.881891 16 12.13375 16 11.09375 L 16 10 L 15 10 L 15 11 L 14 11 L 14 10 L 12 10 L 12 11 L 11 11 L 11 10 L 7 10 L 7 11 L 6 11 L 6 10 L 4.2265625 10 C 3.6763491 10.611633 2.8825221 11 2 11 L 1 11 L 1 10 L 0 10 z " />
  <rect
     style="opacity:1;fill:#808080;fill-rule:evenodd;stroke:none;stroke-width:2;stroke-linecap:round;stroke-linejoin:round"
     id="rect849"
     width="16"
     height="1"
     x="0"
     y="8" />
</svg>
