<?xml version="1.0" encoding="UTF-8" standalone="no"?>
<svg
   xmlns:dc="http://purl.org/dc/elements/1.1/"
   xmlns:cc="http://creativecommons.org/ns#"
   xmlns:rdf="http://www.w3.org/1999/02/22-rdf-syntax-ns#"
   xmlns:svg="http://www.w3.org/2000/svg"
   xmlns="http://www.w3.org/2000/svg"
   xmlns:sodipodi="http://sodipodi.sourceforge.net/DTD/sodipodi-0.dtd"
   xmlns:inkscape="http://www.inkscape.org/namespaces/inkscape"
   height="16"
   width="16"
   version="1.1"
   id="svg10"
   sodipodi:docname="network-wireless-hotspot-symbolic.svg">
  <metadata
     id="metadata16">
    <rdf:RDF>
      <cc:Work
         rdf:about="">
        <dc:format>image/svg+xml</dc:format>
        <dc:type
           rdf:resource="http://purl.org/dc/dcmitype/StillImage" />
      </cc:Work>
    </rdf:RDF>
  </metadata>
  <defs
     id="defs14" />
  <sodipodi:namedview
     pagecolor="#ffffff"
     bordercolor="#666666"
     borderopacity="1"
     objecttolerance="10"
     gridtolerance="10"
     guidetolerance="10"
     inkscape:pageopacity="0"
     inkscape:pageshadow="2"
     inkscape:window-width="640"
     inkscape:window-height="480"
     id="namedview12" />
  <g
     transform="translate(-1173 267)"
     id="g8">
    <path
       color="#000"
       d="M1180.5-266.012a7.48 7.48 0 0 0-5.305 2.196c-2.926 2.925-2.926 7.683 0 10.609l.707-.707a6.494 6.494 0 0 1 0-9.195 6.497 6.497 0 0 1 9.198 0 6.494 6.494 0 0 1 0 9.195l.707.707c2.926-2.926 2.926-7.684 0-10.61a7.484 7.484 0 0 0-5.307-2.195z"
       fill="gray"
       font-family="sans-serif"
       font-weight="400"
       overflow="visible"
       style="line-height:normal;font-variant-ligatures:normal;font-variant-position:normal;font-variant-caps:normal;font-variant-numeric:normal;font-variant-alternates:normal;font-feature-settings:normal;text-indent:0;text-align:start;text-decoration-line:none;text-decoration-style:solid;text-decoration-color:#000;text-transform:none;text-orientation:mixed;shape-padding:0;isolation:auto;mix-blend-mode:normal"
       white-space="normal"
       id="path2" />
    <path
       color="#000"
       d="M1180.5-263.008a4.51 4.51 0 0 0-3.184 1.305 4.45 4.45 0 0 0 0 6.32l.705-.71a3.43 3.43 0 0 1 0-4.9 3.523 3.523 0 0 1 4.957 0 3.43 3.43 0 0 1 0 4.9l.706.71a4.45 4.45 0 0 0 0-6.32 4.51 4.51 0 0 0-3.184-1.305z"
       fill="gray"
       font-family="sans-serif"
       font-weight="400"
       overflow="visible"
       style="line-height:normal;font-variant-ligatures:normal;font-variant-position:normal;font-variant-caps:normal;font-variant-numeric:normal;font-variant-alternates:normal;font-feature-settings:normal;text-indent:0;text-align:start;text-decoration-line:none;text-decoration-style:solid;text-decoration-color:#000;text-transform:none;text-orientation:mixed;shape-padding:0;isolation:auto;mix-blend-mode:normal"
       white-space="normal"
       id="path4" />
    <path
       d="M1180.5-260a1.5 1.5 0 0 0-1.5 1.5 1.5 1.5 0 0 0 1 1.412V-251h1v-6.088a1.5 1.5 0 0 0 1-1.412 1.5 1.5 0 0 0-1.5-1.5z"
       fill="gray"
       id="path6" />
  </g>
</svg>
