<?xml version="1.0" encoding="UTF-8" standalone="no"?>
<svg
   xmlns:dc="http://purl.org/dc/elements/1.1/"
   xmlns:cc="http://creativecommons.org/ns#"
   xmlns:rdf="http://www.w3.org/1999/02/22-rdf-syntax-ns#"
   xmlns:svg="http://www.w3.org/2000/svg"
   xmlns="http://www.w3.org/2000/svg"
   xmlns:sodipodi="http://sodipodi.sourceforge.net/DTD/sodipodi-0.dtd"
   xmlns:inkscape="http://www.inkscape.org/namespaces/inkscape"
   height="16"
   width="16"
   version="1.1"
   id="svg4"
   sodipodi:docname="night-light-symbolic.svg">
  <metadata
     id="metadata10">
    <rdf:RDF>
      <cc:Work
         rdf:about="">
        <dc:format>image/svg+xml</dc:format>
        <dc:type
           rdf:resource="http://purl.org/dc/dcmitype/StillImage" />
      </cc:Work>
    </rdf:RDF>
  </metadata>
  <defs
     id="defs8" />
  <sodipodi:namedview
     pagecolor="#ffffff"
     bordercolor="#666666"
     borderopacity="1"
     objecttolerance="10"
     gridtolerance="10"
     guidetolerance="10"
     inkscape:pageopacity="0"
     inkscape:pageshadow="2"
     inkscape:window-width="640"
     inkscape:window-height="480"
     id="namedview6" />
  <path
     d="M8 3a5 5 0 1 0 0 10A5 5 0 0 0 8 3zM6.951 4a3.589 3.589 0 0 0-.691 3.195 3.596 3.596 0 0 0 4.402 2.543c.49-.133.946-.37 1.338-.691a4.084 4.084 0 0 1-2.861 2.814A4.081 4.081 0 0 1 6.951 4zM8.5 0h-1v2h1zm4.803 1.99l-1.414 1.414.707.707 1.415-1.414zm-10.606 0l-.707.707 1.414 1.414.707-.707zM16 7.5h-2v1h2zm-14 0H0v1h2zm10.596 4.389l-.707.707 1.414 1.414.707-.707zm-9.192 0L1.99 13.303l.707.707 1.414-1.414zm5.096 2.11h-1v2h1z"
     fill="gray"
     id="path2" />
</svg>
