<?xml version="1.0" encoding="UTF-8" standalone="no"?>
<svg
   xmlns:dc="http://purl.org/dc/elements/1.1/"
   xmlns:cc="http://creativecommons.org/ns#"
   xmlns:rdf="http://www.w3.org/1999/02/22-rdf-syntax-ns#"
   xmlns:svg="http://www.w3.org/2000/svg"
   xmlns="http://www.w3.org/2000/svg"
   xmlns:sodipodi="http://sodipodi.sourceforge.net/DTD/sodipodi-0.dtd"
   xmlns:inkscape="http://www.inkscape.org/namespaces/inkscape"
   height="16"
   width="16"
   version="1.1"
   id="svg4"
   sodipodi:docname="semi-starred-symbolic.svg">
  <metadata
     id="metadata10">
    <rdf:RDF>
      <cc:Work
         rdf:about="">
        <dc:format>image/svg+xml</dc:format>
        <dc:type
           rdf:resource="http://purl.org/dc/dcmitype/StillImage" />
      </cc:Work>
    </rdf:RDF>
  </metadata>
  <defs
     id="defs8" />
  <sodipodi:namedview
     pagecolor="#ffffff"
     bordercolor="#666666"
     borderopacity="1"
     objecttolerance="10"
     gridtolerance="10"
     guidetolerance="10"
     inkscape:pageopacity="0"
     inkscape:pageshadow="2"
     inkscape:window-width="640"
     inkscape:window-height="480"
     id="namedview6" />
  <path
     d="M8.004 1.002l.002.002.002.002C8.85 2.816 9.503 4.66 9.873 5.79c1.22.001 3.227.047 5.14.295l-.001.002v.002l-.002.002v.002c-1.461 1.361-3.014 2.55-3.975 3.252.376 1.16.954 3.084 1.309 4.98h-.008c-1.747-.968-3.358-2.078-4.323-2.775-.986.716-2.64 1.86-4.333 2.783v-.006l-.002-.002c.381-1.96.94-3.836 1.304-4.968C3.996 8.64 2.4 7.423.998 6.098L1 6.096h.002l.002-.002v-.002C2.986 5.849 4.94 5.8 6.13 5.797 6.508 4.637 7.175 2.744 8 1.002zm-.002 2.742L8 3.75v6.574l.012-.008.586.424c.476.344 1.396.887 2.13 1.367-.232-.854-.458-1.879-.644-2.453l-.223-.687.584-.428c.475-.347 1.276-1.054 1.96-1.604-.885-.042-1.93-.144-2.534-.144l-.723-.002-.226-.688c-.183-.558-.608-1.537-.92-2.357z"
     style="marker:none"
     color="#000"
     overflow="visible"
     fill="gray"
     id="path2" />
</svg>
