<svg version="1.1" viewBox="0 0 16 16" xmlns="http://www.w3.org/2000/svg">
 <path d="m13.01 0.63672-0.73828 0.73438a9.367 9.367 0 0 1 2.2988 9.502l0.66992 1.1816a10.382 10.382 0 0 0 0.81641-4.0527 10.382 10.382 0 0 0-3.0469-7.3652zm-2.1289 2.0586-0.73633 0.73633a6.45 6.45 0 0 1 1.8398 5.4004c0.14626-0.057883 0.30229-0.093962 0.46484-0.10156 0.20176-0.00932 0.39841 0.024358 0.58008 0.09375a7.475 7.475 0 0 0 0.044922-0.82422c0-1.92-0.73036-3.8417-2.1934-5.3047zm-2.1426 2.0645-0.73828 0.73438a3.533 3.533 0 0 1 0 5.0098l0.73828 0.73633a4.566 4.566 0 0 0 1.3379-3.2402 4.566 4.566 0 0 0-1.3379-3.2402z" fill="#808080"/>
 <path d="m7 1-3.5 4h-2.63s-0.87 0.893-0.87 3.001c0 2.109 0.87 2.999 0.87 2.999h2.63l3.5 4z" fill="#808080"/>
 <path class="warning" d="m12.481 9.7285c-0.1497 7e-3 -0.2866 0.0909-0.3614 0.2207l-3.0605 5.3965c-0.1666 0.29121 0.043 0.65406 0.3789 0.6543h6.125c0.3355-2.4e-4 0.5455-0.36309 0.3789-0.6543l-3.0586-5.3965c-0.082-0.14267-0.238-0.22829-0.4023-0.2207zm-0.4805 1.2715h1v0.16797c0 0.34851-0.016 0.6673-0.047 0.95703s-0.069 0.58107-0.1152 0.875h-0.666c-0.052-0.29393-0.094-0.58527-0.125-0.875-0.031-0.29393-0.047-0.61271-0.047-0.95703zm0.5 3c0.2761 0 0.5 0.22386 0.5 0.5s-0.2239 0.5-0.5 0.5-0.5-0.22386-0.5-0.5 0.2239-0.5 0.5-0.5z" color="#000000" fill="#fdc92b" fill-rule="evenodd" style="isolation:auto;mix-blend-mode:normal;text-decoration-color:#000000;text-decoration-line:none;text-decoration-style:solid;text-indent:0;text-transform:none;white-space:normal"/>
</svg>
