<?xml version="1.0" encoding="UTF-8" standalone="no"?>
<svg
   xmlns:dc="http://purl.org/dc/elements/1.1/"
   xmlns:cc="http://creativecommons.org/ns#"
   xmlns:rdf="http://www.w3.org/1999/02/22-rdf-syntax-ns#"
   xmlns:svg="http://www.w3.org/2000/svg"
   xmlns="http://www.w3.org/2000/svg"
   xmlns:sodipodi="http://sodipodi.sourceforge.net/DTD/sodipodi-0.dtd"
   xmlns:inkscape="http://www.inkscape.org/namespaces/inkscape"
   height="16"
   width="16"
   version="1.1"
   id="svg8"
   sodipodi:docname="weather-snow-symbolic.svg">
  <metadata
     id="metadata14">
    <rdf:RDF>
      <cc:Work
         rdf:about="">
        <dc:format>image/svg+xml</dc:format>
        <dc:type
           rdf:resource="http://purl.org/dc/dcmitype/StillImage" />
      </cc:Work>
    </rdf:RDF>
  </metadata>
  <defs
     id="defs12" />
  <sodipodi:namedview
     pagecolor="#ffffff"
     bordercolor="#666666"
     borderopacity="1"
     objecttolerance="10"
     gridtolerance="10"
     guidetolerance="10"
     inkscape:pageopacity="0"
     inkscape:pageshadow="2"
     inkscape:window-width="640"
     inkscape:window-height="480"
     id="namedview10" />
  <g
     color="#000"
     fill="gray"
     id="g6">
    <path
       d="M8.56.084C6.672.085 5.068 1.249 4.301 2.912l-.055.113-.121.01C2.38 3.162 1 4.672 1 6.508 1 8.427 2.5 10 4.357 10h8.125C13.874 10 15 8.818 15 7.385c0-1.087-.653-2-1.578-2.393l-.121-.05-.01-.13C13.172 2.194 11.115.086 8.562.084zm0 1c2.004.001 3.635 1.652 3.731 3.773v.016l.06.748.677.291v.002c.57.242.973.785.973 1.47 0 .91-.692 1.616-1.518 1.616H4.36C3.069 9 2 7.905 2 6.508c0-1.334.988-2.388 2.198-2.477l.705-.049.305-.648v-.002c.618-1.343 1.872-2.247 3.351-2.248z"
       font-family="sans-serif"
       font-weight="400"
       overflow="visible"
       style="line-height:normal;-inkscape-font-specification:sans-serif;text-indent:0;text-align:start;text-decoration-line:none;text-transform:none;marker:none"
       id="path2" />
    <path
       d="M9 11.5l-1 .2v1.234l-1.155-.667-.5.866L7.5 13.8l-1.155.667.5.866L8 14.666V16h1v-1.334l1.155.667.5-.866L9.5 13.8l1.155-.667-.5-.866L9 12.934zm-4.516-.599l-.688.138v.85L3 11.429l-.344.597.795.46-.795.458.344.597.796-.46V14h.688v-.919l.796.46.344-.597-.795-.459.795-.46-.344-.596-.796.46zm9.016-.458l-.79.158v.975l-.914-.527-.395.685.913.527-.913.527.395.685.914-.528V14h.79v-1.055l.913.528.396-.685-.914-.527.914-.527-.396-.685-.913.527z"
       overflow="visible"
       style="marker:none"
       id="path4" />
  </g>
</svg>
