<svg version="1.1" viewBox="0 0 16 16" xmlns="http://www.w3.org/2000/svg">
 <path d="m11.414 0.0058594-0.07422 0.023438c-0.35902 0.11466-0.56573 0.41846-0.63281 0.71875-0.06708 0.30029-0.0092 0.66366 0.26758 0.91992l2.5352 2.4902 2e-3 0.00391c0.27933 0.26545 0.70341 0.29755 1.002 0.1543 0.29854-0.14326 0.52491-0.45154 0.53906-0.82227v-0.72266c0.0028-0.53795 0.01463-0.94691-2e-3 -1.291-0.01661-0.34462-0.05277-0.65329-0.25391-0.93359-0.20114-0.28031-0.53048-0.4124-0.85352-0.4668-0.32304-0.054395-0.69312-0.062991-1.1875-0.074219h-0.0059zm-6.8066 0.035156c-0.69193-4.461e-5 -1.2488 0.017284-1.7266 0.10156-0.47781 0.084279-0.89979 0.24929-1.2129 0.56641-0.3131 0.31712-0.47739 0.7424-0.56445 1.2402-0.087065 0.49783-0.10716 1.09-0.10352 1.8359v8.4746c-0.003589 0.74823 0.024335 1.3422 0.125 1.8438 0.10077 0.5021 0.28895 0.93136 0.61719 1.2422 0.65647 0.62165 1.6025 0.6543 2.9863 0.6543h6.5449c1.3741 0 2.3131-0.03331 2.9688-0.64453 0.32782-0.30561 0.5173-0.72838 0.62109-1.2227 0.1038-0.49428 0.13495-1.0791 0.13672-1.8145v-5.7695c-0.0048-0.9391-0.72314-1.5579-1.1934-1.9824l-3.2891-3.332c-0.75777-0.76779-1.5115-1.1934-2.6328-1.1934zm7.1211 0.96484h1.0059c0.4906 0.011142 0.84074 0.02454 1.043 0.058594 0.20223 0.034053 0.20123 0.056366 0.20703 0.064453 0.0058 0.00809 0.05498 0.12281 0.06836 0.40039s0.0028 0.6895 0 1.2402v0.52148zm-7.1211 0.035156h3.2773c0.91632 3e-7 1.2388 0.20237 1.9219 0.89453l3.3223 3.3672 0.0078 0.00586v0.00195c0.44744 0.40416 0.86145 0.88176 0.86328 1.2422v5.7656c-0.0018 0.7047-0.03707 1.2371-0.11523 1.6094-0.07826 0.3727-0.18509 0.56561-0.32422 0.69531-0.27825 0.2594-0.94987 0.37695-2.2871 0.37695h-6.5449c-1.3471 0-2.0203-0.11714-2.2988-0.38086-0.13925-0.13186-0.24775-0.32993-0.32422-0.71094-0.076469-0.38101-0.10898-0.92624-0.10547-1.6465v-8.4824c-0.00353-0.72369 0.020506-1.2729 0.087891-1.6582 0.067384-0.3853 0.16897-0.58535 0.29297-0.71094 0.124-0.12559 0.31086-0.21918 0.67383-0.2832 0.36297-0.064023 0.87919-0.085981 1.5527-0.085937z" color="#000000" fill="#808080" style="-inkscape-stroke:none"/>
 <path d="m5 6.002c-0.552 0-1 0.448-1 1v5c0 0.552 0.448 1 1 1h6c0.552 0 1-0.448 1-1v-5c0-0.552-0.448-1-1-1zm0 1.5c0-0.276 0.224-0.5 0.5-0.5h1.5v1h-2zm3-0.5h2.5c0.276 0 0.5 0.224 0.5 0.5v0.5h-3zm-3 2h2v1h-2zm3 0h3v1h-3zm-3 2h2v1h-1.5c-0.276 0-0.5-0.224-0.5-0.5zm3 0h3v0.5c0 0.276-0.224 0.5-0.5 0.5h-2.5z" clip-rule="evenodd" fill="#808080"/>
</svg>
