<svg version="1.1" viewBox="0 0 16 16" xmlns="http://www.w3.org/2000/svg">
 <g fill="#808080">
  <path d="m8.8848 0c-0.99446 3.1867e-4 0.30162-1.5748e-4 -2.2891 0-0.56259 3.4199e-5 -1.2201 0-1.9883 0-0.69193-4.461e-5 -1.2488 0.017286-1.7266 0.10156-0.47781 0.084279-0.89978 0.24929-1.2129 0.56641-0.3131 0.31712-0.47739 0.74243-0.56445 1.2402-0.087065 0.49783-0.10716 1.09-0.10352 1.8359v2.7344c6.705e-4 -0.034153 0.00331-0.068269 0.00586-0.10156-0.0032199 0.042214-0.0056372 0.085307-0.00586 0.12891v5.8105c0.00177 0.7354 0.032919 1.3202 0.13672 1.8145 0.10379 0.49432 0.29327 0.91705 0.62109 1.2227 0.6557 0.61122 1.5946 0.64453 2.9688 0.64453h6.5449c0.73208 0 1.3406-0.0087 1.8496-0.10938 0.08415-0.01669 0.16734-0.03652 0.24609-0.05859 0.14347-0.04032 0.2798-0.09061 0.40625-0.15234l2e-3 -2e-3c0.05831-0.02862 0.117-0.05986 0.17188-0.09375 0.10447-0.06486 0.20221-0.14014 0.29492-0.22656 0.32782-0.30561 0.5173-0.72834 0.62109-1.2227 0.10271-0.48925 0.13438-1.068 0.13672-1.793-4.5e-5 -0.02735 1.34e-4 -0.05426 0-0.08203v-6.1406zm-0.77148 0.99805h0.00195l5.8848 5.8848v5.377c0.0035 0.72026-0.029 1.2655-0.10547 1.6465-0.1299 0.64724-0.35714 0.85689-0.94922 0.97852h-2e-3c-0.37915 0.078278-0.91971 0.11523-1.6699 0.11523h-6.5449c-1.3471 0-2.0203-0.11714-2.2988-0.38086-0.13925-0.13186-0.24775-0.32993-0.32422-0.71094-0.072188-0.35968-0.10495-0.86588-0.10547-1.5273-1.191e-4 -0.02136 5.54e-5 -0.04276 0-0.06445v-5.8066c3.34e-5 -0.00659-3.064e-4 -0.012867 0-0.019531v-2.752c-0.00353-0.72369 0.020506-1.2729 0.087891-1.6582 0.1203-0.68785 0.35225-0.88575 0.9668-0.99414 0.36297-0.064023 0.87922-0.085982 1.5527-0.085938h1.0723c0.81118 0.00144 2.4336-0.001953 2.4336-0.001953z"/>
  <path d="m7 1.998c-0.42138 9.259e-4 -0.91915 0.0026669-1.3223 0.0019531h-1.0703c-1.6074 0-1.6074 0-1.6074 1.7344v8.5821c5.73e-5 0.02729-6.58e-5 0.04679 0 0.05859v0.0059c0 1.6188 0 1.6191 1.7285 1.6191h6.5449c1.8234 0.0035 1.6908 0.11534 1.7266-1.7363v-4.6094l-5.6562-5.6562c-0.10533 2.137e-4 -0.22132-2.69e-4 -0.34375 0z" fill="#808080" stop-color="#000000"/>
  <path d="m10.65 0 4.3496 4.3477v-2.7393c0-1.6084 0-1.6084-1.6084-1.6084z" fill="#808080" fill-rule="evenodd"/>
 </g>
</svg>
