<svg version="1.1" viewBox="0 0 16 16" xmlns="http://www.w3.org/2000/svg" xmlns:osb="http://www.openswatchbook.org/uri/2009/osb">
 <g transform="translate(-492 -360)">
  <path d="m495.99 360c-1.2581 0.0151-2.1789-0.0284-2.9316 0.38672-0.37636 0.20757-0.67321 0.55748-0.83789 0.99609-0.16471 0.43861-0.22461 0.95958-0.22461 1.6172v4h0.01c-0.0277 0.33193 0.0306 0.67768 0.17968 1.0059 0.20293 0.44699 0.544 0.87805 1.0312 1.3652l5.4082 5.4082c0.48725 0.48718 0.9184 0.82805 1.3652 1.0312 0.44702 0.20294 0.9286 0.24413 1.3613 0.11914 0.58606-0.16926 1.0986-0.59971 1.6445-1.1152v-1.4492c-0.89671 0.8727-1.5297 1.4388-1.9375 1.5566-0.21086 0.0607-0.36988 0.0558-0.63477-0.0645-0.26483-0.12026-0.6177-0.37949-1.0566-0.81836l-5.4102-5.4102c-0.43893-0.43887-0.69797-0.79013-0.81836-1.0547-0.10791-0.23698-0.14276-0.57418-0.14281-0.57418v-1-0.80273-2.1973c0-0.59239 0.0629-1.0058 0.16016-1.2656 0.0975-0.25981 0.20134-0.3715 0.38476-0.47266 0.36598-0.20182 1.1965-0.24652 2.4551-0.26172h1.1953 1.8047s0.33521 0.0351 0.57227 0.14258c0.26484 0.12026 0.6177 0.38143 1.0566 0.82031l4.0391 4.0371h1.4824l-4.7793-4.7793c-0.48725-0.48718-0.9182-0.82826-1.3652-1.0312-0.22351-0.10144-0.45544-0.16174-0.68555-0.18164-0.1072-9e-3 -0.21467-8e-3 -0.32031 0v-0.00781h-3.0039zm-0.97461 2a1 1 0 0 0-0.0703 2e-3 1 1 0 0 0-0.94727 1.0488 1 1 0 0 0 1.0488 0.94727 1 1 0 0 0 0.94727-1.0488 1 1 0 0 0-0.97853-0.94927zm10.48 6c-0.277 0-0.5 0.223-0.5 0.5v1c0 0.277 0.223 0.5 0.5 0.5h1c0.277 0 0.5-0.223 0.5-0.5v-1c0-0.277-0.223-0.5-0.5-0.5zm0 3c-0.277 0-0.5 0.223-0.5 0.5v1c0 0.277 0.223 0.5 0.5 0.5h1c0.277 0 0.5-0.223 0.5-0.5v-1c0-0.277-0.223-0.5-0.5-0.5zm0 3c-0.277 0-0.5 0.223-0.5 0.5v1c0 0.277 0.223 0.5 0.5 0.5h1c0.277 0 0.5-0.223 0.5-0.5v-1c0-0.277-0.223-0.5-0.5-0.5z" color="#000000" color-rendering="auto" dominant-baseline="auto" fill="#808080" image-rendering="auto" shape-rendering="auto" solid-color="#000000" style="font-feature-settings:normal;font-variant-alternates:normal;font-variant-caps:normal;font-variant-ligatures:normal;font-variant-numeric:normal;font-variant-position:normal;isolation:auto;mix-blend-mode:normal;shape-padding:0;text-decoration-color:#000000;text-decoration-line:none;text-decoration-style:solid;text-indent:0;text-orientation:mixed;text-transform:none;white-space:normal"/>
 </g>
</svg>
