<svg height="16" width="16" xmlns="http://www.w3.org/2000/svg"><path style="color:#000;font-style:normal;font-variant:normal;font-weight:400;font-stretch:normal;font-size:medium;line-height:normal;font-family:sans-serif;font-variant-ligatures:normal;font-variant-position:normal;font-variant-caps:normal;font-variant-numeric:normal;font-variant-alternates:normal;font-feature-settings:normal;text-indent:0;text-align:start;text-decoration:none;text-decoration-line:none;text-decoration-style:solid;text-decoration-color:#000;letter-spacing:normal;word-spacing:normal;text-transform:none;writing-mode:lr-tb;direction:ltr;text-orientation:mixed;dominant-baseline:auto;baseline-shift:baseline;text-anchor:start;white-space:normal;shape-padding:0;clip-rule:nonzero;display:inline;overflow:visible;visibility:visible;isolation:auto;mix-blend-mode:normal;color-interpolation:sRGB;color-interpolation-filters:linearRGB;solid-color:#000;solid-opacity:1;vector-effect:none;fill:gray;fill-opacity:1;fill-rule:nonzero;stroke:none;stroke-width:1;stroke-linecap:butt;stroke-linejoin:miter;stroke-miterlimit:4;stroke-dasharray:none;stroke-dashoffset:0;stroke-opacity:1;marker:none;color-rendering:auto;image-rendering:auto;shape-rendering:auto;text-rendering:auto;enable-background:accumulate" d="M4.994 0c-1.258.015-2.18-.03-2.931.385a1.88 1.88 0 0 0-.838.998C1.06 1.82 1 2.343 1 3v10c0 .658.06 1.18.225 1.617.164.44.462.79.837.996.754.415 1.674.372 2.932.387h5.012c1.258-.015 2.18.03 2.931-.385a1.88 1.88 0 0 0 .838-.998c.165-.438.225-.96.225-1.617V7h-1v6c0 .592-.063 1.006-.16 1.266-.098.26-.202.371-.385.472-.366.202-1.196.247-2.455.262H5c-1.259-.015-2.09-.06-2.455-.262-.183-.1-.287-.213-.385-.472C2.063 14.006 2 13.592 2 13V3h7l3-3c-1 0-1.212.01-1.994 0H4.994zM13.5 0 5.879 7.621l-1 3.5 3.5-1L16 2.5 13.5 0zM6.379 8.121l1.5 1.5-2 .5.5-2z"/></svg>