<svg version="1.1" viewBox="0 0 16 16" xmlns="http://www.w3.org/2000/svg">
 <g transform="translate(-592 -299)">
  <path transform="translate(592 299)" d="m7.5 0c-1.6389 0-2.604 0.74109-3.0547 1.4922s-0.44531 1.5078-0.44531 1.5078h-0.0058594c-1.2582 0.0145-2.1789-0.030604-2.9316 0.38477-0.37637 0.20766-0.67323 0.55939-0.83789 0.99805-0.16467 0.43867-0.22461 0.95958-0.22461 1.6172v7c0 0.65761 0.059899 1.1786 0.22461 1.6172 0.16468 0.43861 0.46153 0.78852 0.83789 0.99609 0.75272 0.41513 0.67354 0.37165 1.9316 0.38672h8.0118c1.2582-0.0145 2.1789 0.030604 2.9316-0.38477 0.37637-0.20766 0.67322-0.55939 0.83789-0.99805 0.16454-0.43867 0.22461-0.95958 0.22461-1.6172v-7c0-0.65761-0.059899-1.1786-0.22461-1.6172-0.16468-0.43861-0.46153-0.78852-0.83789-0.99609-0.75272-0.41513-1.6736-0.37165-2.9316-0.38672h-0.005859s0.005299-0.75671-0.44531-1.5078c-0.45066-0.7511-1.4158-1.4922-3.0547-1.4922zm0 1c1.3611 0 1.896 0.50891 2.1953 1.0078 0.29934 0.4989 0.30469 0.99219 0.30469 0.99219h-5s0.00535-0.49329 0.30469-0.99219 0.8342-1.0078 2.1953-1.0078zm-3.5 3h7c1.2586 0.0152 2.0891 0.059899 2.4551 0.26172 0.18342 0.10116 0.28723 0.21287 0.38477 0.47266 0.0974 0.25979 0.16016 0.67324 0.16016 1.2656v7c0 0.59239-0.062596 1.0057-0.16016 1.2656-0.0976 0.25991-0.20136 0.37147-0.38477 0.47266-0.36596 0.20192-1.1966 0.24701-2.4551 0.26172h-7c-1.2586-0.0152-2.0891-0.059899-2.4551-0.26172-0.18342-0.10116-0.28723-0.21286-0.38477-0.47266-0.0976-0.25979-0.16016-0.67324-0.16016-1.2656v-7c0-0.59239 0.062596-1.0057 0.16016-1.2656 0.0976-0.25991 0.20331-0.37147 0.38672-0.47266 0.36594-0.20191 1.1946-0.24702 2.4531-0.26172zm3.5 2a1.5 1.5 0 0 0-1.5 1.5 1.5 1.5 0 0 0 1.5 1.5 1.5 1.5 0 0 0 1.5-1.5 1.5 1.5 0 0 0-1.5-1.5zm-3 4a1.5 1.5 0 0 0-1.5 1.5 1.5 1.5 0 0 0 1.5 1.5 1.5 1.5 0 0 0 1.5-1.5 1.5 1.5 0 0 0-1.5-1.5zm6 0a1.5 1.5 0 0 0-1.5 1.5 1.5 1.5 0 0 0 1.5 1.5 1.5 1.5 0 0 0 1.5-1.5 1.5 1.5 0 0 0-1.5-1.5z" color="#000000" color-rendering="auto" dominant-baseline="auto" fill="#808080" image-rendering="auto" shape-rendering="auto" solid-color="#000000" style="font-feature-settings:normal;font-variant-alternates:normal;font-variant-caps:normal;font-variant-ligatures:normal;font-variant-numeric:normal;font-variant-position:normal;isolation:auto;mix-blend-mode:normal;shape-padding:0;text-decoration-color:#000000;text-decoration-line:none;text-decoration-style:solid;text-indent:0;text-orientation:mixed;text-transform:none;white-space:normal"/>
 </g>
</svg>
