<svg viewBox="0 0 16 16" xmlns="http://www.w3.org/2000/svg">
 <path d="M5.535 0c-.732 0-1.312.017-1.808.102-.495.084-.925.247-1.252.558-.653.622-.753 1.568-.858 3.055l-.6 8.5c-.052.756-.052 1.363.047 1.879.1.516.316.957.674 1.263.716.614 1.735.643 3.198.643h6.16c1.464 0 2.446-.03 3.134-.646.344-.31.547-.743.655-1.249.107-.507.136-1.105.133-1.857v-.016l-.604-8.52v-.001c-.108-1.391-.213-2.33-.85-2.97C12.927.098 11.971 0 10.496 0h-4.96zm0 1h4.961c1.418 0 2.064.15 2.36.447.294.297.455.984.56 2.342l.6 8.48c.003.713-.032 1.253-.112 1.63-.08.378-.19.573-.341.708-.303.271-1.037.393-2.465.393h-6.16c-1.43 0-2.226-.126-2.55-.402-.16-.14-.268-.324-.34-.694-.07-.37-.082-.905-.032-1.619l.6-8.5c.102-1.453.267-2.132.548-2.4.14-.134.347-.232.73-.297C4.28 1.022 4.823 1 5.536 1zm4.908 1.002a.498.498 0 0 0-.44.55s.062.65-.163 1.262c-.225.614-.608 1.188-1.84 1.188-1.232 0-1.615-.575-1.84-1.188a3.275 3.275 0 0 1-.164-1.261.498.498 0 0 0-.44-.55.495.495 0 0 0-.54.444s-.1.84.22 1.715C5.557 5.037 6.424 6 8 6c1.576 0 2.443-.963 2.764-1.838.32-.875.22-1.715.22-1.715a.495.495 0 0 0-.54-.445zM7.993 8a1 1 0 0 0-.415.094 1 1 0 0 0-.484 1.33 1 1 0 0 0 1.328.482 1 1 0 0 0 .484-1.328A1 1 0 0 0 7.992 8zm-2 3a1 1 0 0 0-.415.094 1 1 0 0 0-.484 1.328 1 1 0 0 0 1.328.484 1 1 0 0 0 .484-1.33A1 1 0 0 0 5.992 11zm4 0a1 1 0 0 0-.415.094 1 1 0 0 0-.484 1.328 1 1 0 0 0 1.328.484 1 1 0 0 0 .484-1.328A1 1 0 0 0 9.992 11z" fill="gray"/>
</svg>
