<svg version="1.1" viewBox="0 0 16 16" xmlns="http://www.w3.org/2000/svg" xmlns:osb="http://www.openswatchbook.org/uri/2009/osb">
 <g fill="#808080">
  <path d="m4.9941 0c-1.2581 0.015067-2.1789-0.028414-2.9316 0.38672-0.18718 0.10323-0.35473 0.24115-0.49609 0.4082-0.14245 0.1686-0.2592 0.3679-0.3418 0.58789-0.16468 0.43861-0.22461 0.95958-0.22461 1.6172v8.5273 2e-3 1.4707c0 0.65761 0.059935 1.1785 0.22461 1.6172 0.026476 0.07053 0.056752 0.13928 0.089844 0.20508 0.024418 0.04845 0.052278 0.09692 0.080078 0.14258 0.055983 0.09176 0.11891 0.17852 0.1875 0.25781 0.068985 0.07961 0.14434 0.1533 0.22461 0.21875 0.080266 0.06527 0.16576 0.12218 0.25586 0.17188 0.37634 0.20755 0.79388 0.30084 1.2754 0.34375 0.4815 0.04246 1.0272 0.0357 1.6562 0.04297h0.00195 0.00195 5.0039 2e-3 2e-3c1.258-0.01506 2.179 0.02839 2.9316-0.38672 0.17968-0.0991 0.34276-0.23052 0.48047-0.38867 0.15031-0.17289 0.27154-0.37868 0.35742-0.60742 0.16459-0.43861 0.22452-0.95958 0.22452-1.6172v-1.4707-2e-3 -8.5273c0-0.65761-0.059945-1.1785-0.22461-1.6172-0.082399-0.21951-0.1998-0.41713-0.3418-0.58594-0.03539-0.042004-0.0708-0.08279-0.10938-0.12109-0.11572-0.11458-0.24602-0.21147-0.38672-0.28906-0.37636-0.20757-0.79383-0.30085-1.2754-0.34375-0.48154-0.042459-1.0272-0.035702-1.6562-0.042969h-2e-3 -2e-3 -5.0039-0.00195zm0.0058594 1h5c1.2585 0.014701 2.0891 0.059805 2.4551 0.26172 0.18341 0.1012 0.2872 0.21275 0.38477 0.47266 0.097563 0.25991 0.16016 0.67323 0.16016 1.2656v7 3c0 0.22742-0.0085 0.42937-0.02539 0.60547-0.0271 0.28262-0.07467 0.50009-0.13476 0.66016-0.09755 0.2598-0.20134 0.3715-0.38477 0.47266-0.03537 0.0194-0.07714 0.03809-0.12109 0.05469-0.41222 0.15502-1.1997 0.1933-2.334 0.20703h-0.005859-4.9941c-1.1358-0.01327-1.9206-0.05131-2.332-0.20703-0.043724-0.01663-0.0859-0.03527-0.12109-0.05469h-0.00195c-0.045133-0.02489-0.08451-0.04991-0.12109-0.07813-0.018381-0.01411-0.036058-0.02922-0.052734-0.04492-0.049695-0.04712-0.091791-0.10308-0.13086-0.17383-0.027912-0.05019-0.054536-0.10773-0.080078-0.17578-0.060113-0.16012-0.10767-0.37756-0.13477-0.66015-0.016888-0.17609-0.025391-0.37804-0.025391-0.60547v-3-7c0-0.59239 0.06261-1.0058 0.16016-1.2656s0.20134-0.3715 0.38477-0.47266c0.36598-0.20184 1.1965-0.24648 2.4551-0.26172z"/>
  <path transform="translate(0,1)" d="m1 9.6322v0.24667c1.155e-4 -0.28211 0.017498-0.46982 0.017578-0.4707-8.81e-5 9.791e-4 -0.021438 0.24343-0.015625 0.5918 0.00106 0.06378 0.00264 0.13112 0.00586 0.20117 0.048492 1.0556 0.27064 1.7714 0.72656 2.2344 0.45592 0.46296 1.0713 0.56445 1.6367 0.56445 1.0741 0 1.8207-0.52258 2.168-1.2168 0.20241-0.40466 0.30432-0.84398 0.3692-1.287 0.040001-0.27315 0.28435-0.49619 0.56049-0.49619h0.078125c0.27614 0 0.52049 0.22308 0.56051 0.49629 0.06488 0.443 0.16678 0.88228 0.36918 1.2869 0.34725 0.69422 1.0938 1.2168 2.168 1.2168 0.56546 0 1.1808-0.10149 1.6367-0.56445s0.67807-1.1788 0.72656-2.2344c0.02426-0.52821 0.0036-0.18366-0.0047-0.70513-0.004391-0.27393-0.22697-0.49604-0.50311-0.49604h-9.8678a0.63223 0.63223 135 0 0-0.63223 0.63223zm1.202 0.36777h2.4551c0.16569 0 0.28447 0.13344 0.26042 0.29737-0.060602 0.41302-0.14145 0.77573-0.27292 1.0386-0.21622 0.43226-0.46612 0.66406-1.2734 0.66406-0.4571 0-0.72648-0.06527-0.92383-0.26562-0.32267-0.32765-0.41339-1.0707-0.43792-1.5347-0.0058258-0.1102 0.082148-0.19968 0.1926-0.19968zm6.1566 0h2.4551c0.11046 0 0.19851 0.08956 0.19268 0.19986-0.02402 0.45506-0.1138 1.2053-0.43804 1.5345-0.19731 0.20036-0.46668 0.26562-0.92379 0.26562-0.80732 0-1.0572-0.2318-1.2734-0.66406-0.13156-0.26302-0.21243-0.62604-0.27304-1.0394-0.02397-0.16346 0.094856-0.29653 0.26054-0.29653z" stroke-dashoffset="2.06" stroke-width="2.0881"/>
  <rect x="3" y="3" width="5" height="1"/>
  <rect x="3" y="5" width="5" height="1"/>
 </g>
</svg>
