<svg version="1.1" viewBox="0 0 16 16" xmlns="http://www.w3.org/2000/svg" xmlns:osb="http://www.openswatchbook.org/uri/2009/osb">
 <g transform="translate(-512 -200)">
  <path d="m518.76 201c-0.48485 1.0101-0.95009 2.0333-1.3945 3.0703-0.44445 1.0236-0.89561 2.1011-1.3535 3.2324-0.2098 0.53405-0.4328 1.1333-0.64843 1.6973h-0.85938c-0.831 0-1.5 0.669-1.5 1.5 0 0.74119 0.53361 1.349 1.2383 1.4727-0.36109 0.96894-0.72149 1.9338-1.1191 3.0273h2.6582l1.0684-3h6.1543c0.36116 1.012 0.86169 2.0833 1.1999 3h2.6146c-0.41034-1.0809-0.77559-2.0494-1.1406-3.0176 0.74736-0.0867 1.3262-0.71105 1.3262-1.4824 0-0.831-0.669-1.5-1.5-1.5h-0.9707c-0.21556-0.55206-0.43194-1.1177-0.64453-1.6367-0.44445-1.1313-1.334-3.252-1.334-3.252s-0.91574-2.0743-1.4141-3.1113h-1.1973zm1.2441 2.5 2 5.5h-4.0859l2.086-5.5zm-5.5 6.5h11.066c0.24027 0 0.43359 0.19332 0.43359 0.43359v0.13282c0 0.24027-0.19332 0.43359-0.43359 0.43359h-11.066c-0.277 0-0.5-0.223-0.5-0.5s0.223-0.5 0.5-0.5z" fill="#808080"/>
 </g>
</svg>
