<svg version="1.1" viewBox="0 0 16 16" xmlns="http://www.w3.org/2000/svg">
 <g transform="translate(0 -892.36)">
  <g transform="matrix(.11111 0 0 .11111 -.88889 792.32)">
   <path transform="matrix(9 0 0 9 8 900.36)" d="m8 0c-4.4183 0-8 3.5816-8 8 0 4.4181 3.5817 8 8 8 4.4182 0 8-3.5819 8-8 0-4.4184-3.5818-8-8-8zm1 2 3.4453 2-3.4453 2v-4zm-1 1.1074c0.10232 0 0.20041 0.014647 0.30078 0.021484v0.67773c-0.10051-0.007507-0.19813-0.025391-0.30078-0.025391-1.777 0-3.2965 1.0888-3.9199 2.6387l-0.57617-0.33984c0.74846-1.7448 2.4815-2.9727 4.4961-2.9727zm0 1.6641c0.10309 0 0.20017 0.023054 0.30078 0.033203v0.68164c-0.10071-0.012177-0.1966-0.039062-0.30078-0.039062-1.167 0-2.1407 0.777-2.4473 1.8418l-0.59766-0.35547c0.44178-1.257 1.6417-2.1621 3.0449-2.1621zm3.9238 0.30859c0.60851 0.81581 0.96875 1.8272 0.96875 2.9199 0 1.1097-0.37402 2.1368-1 2.959l-0.58008-0.34375c0.56739-0.71827 0.90625-1.6256 0.90625-2.6152 0-0.97103-0.32668-1.8644-0.875-2.5762l0.58008-0.34375zm-1.4473 0.85742c0.46882 0.56074 0.75195 1.2792 0.75195 2.0625 0 0.801-0.29534 1.5373-0.7832 2.1035l-0.59375-0.34961c0.43402-0.45581 0.70117-1.0704 0.70117-1.7539 0-0.66412-0.25206-1.2657-0.66406-1.7188l0.58789-0.34375zm-8.4766 0.0625 3.4453 2-3.4453 2v-4zm3.5527 2.7109c0.30658 1.064 1.2803 1.8379 2.4473 1.8379 0.1042 0 0.20008-0.026755 0.30078-0.039062v0.68555c-0.10061 0.01015-0.1977 0.033204-0.30078 0.033204-1.4043 0-2.6041-0.90748-3.0449-2.166l0.59766-0.35156zm-1.4727 0.86914c0.62341 1.5498 2.1429 2.6387 3.9199 2.6387 0.10252 0 0.20031-0.016091 0.30078-0.023438v0.67578c-0.10051 0.006994-0.1988 0.021484-0.30078 0.021484-2.0146 0-3.7476-1.2279-4.4961-2.9727l0.57617-0.33984zm4.9199 0.41992 3.4414 2.0547-3.4414 1.9453v-3.5996-0.40039z" fill="#808080" stroke-width=".11111"/>
  </g>
 </g>
</svg>
