<svg height="16" width="16" xmlns="http://www.w3.org/2000/svg">
    <g fill="gray">
        <path color="#000" d="M6 0v1h-.994c-.438 0-.786.007-1.078.117-.293.11-.528.308-.666.559-.277.502-.252 1.116-.262 1.955v8.707c.01.839-.015 1.451.262 1.953.138.251.373.45.666.56.292.11.64.15 1.078.15h2.65a2.184 2.184 0 0 1-.699-.257 1.931 1.931 0 0 1-.174-.107 1.724 1.724 0 0 1-.183-.158c-.027-.026-.06-.047-.084-.075A2.005 2.005 0 0 1 6.244 14H5.006c-.378 0-.604-.04-.727-.086a.262.262 0 0 1-.142-.105c-.098-.178-.126-.62-.137-1.485V3.522l-.43-.664.487-.34c.02-.147.04-.294.076-.36a.266.266 0 0 1 .142-.105c.042-.016.27-.028.5-.037l.303-.211.062-.031a6.885 6.885 0 0 1 1.365-.522 5.51 5.51 0 0 1 .746-.133 9.38 9.38 0 0 1 .78-.054l.094-.028h.158c.355 0 .688.026 1.002.08.322.056.624.14.908.264v.002c0 .002.016 0 .016.002a1 1 0 0 1 .09.045l.492.219v.117c.14.081.283.157.41.25.228.01.474.02.518.037.086.032.125.077.14.106.063.113.092.404.11.792.094.187.178.38.233.58.12.395.19.792.19 1.184 0 .4-.085.784-.22 1.149v.07l-.07.135c-.01.017-.01.037-.018.054a1 1 0 0 1-.01.022c-.024.049-.056.094-.082.142v6.051c-.01.855-.038 1.299-.133 1.47-.016.03-.055.074-.14.106-.123.046-.349.086-.727.086H9.756c0 .008-.01.015-.016.023-.062.115-.132.22-.213.319-.016.02-.026.044-.043.062-.086.096-.188.18-.297.254-.024.017-.05.031-.076.047a2.02 2.02 0 0 1-.2.107 2.208 2.208 0 0 1-.565.188h2.646c.439 0 .786-.039 1.078-.148.293-.11.526-.31.664-.561.277-.502.248-1.114.258-1.953V3.631c-.01-.84.02-1.454-.258-1.955a1.25 1.25 0 0 0-.664-.559c-.292-.11-.64-.117-1.078-.117h-1V0z" font-family="sans-serif" font-weight="400" opacity=".5" overflow="visible" style="line-height:normal;font-variant-ligatures:none;font-variant-position:normal;font-variant-caps:normal;font-variant-numeric:normal;font-variant-alternates:normal;font-feature-settings:normal;text-indent:0;text-align:start;text-decoration-line:none;text-decoration-style:solid;text-decoration-color:#000;text-transform:none;shape-padding:0;isolation:auto;mix-blend-mode:normal;marker:none" white-space="normal"/>
        <path d="M8.271 2.037c-.533 0-1.037.061-1.512.183a5.853 5.853 0 0 0-1.167.446l-.658.458L5.5 4l.452-.336c.688-.35 1.394-.54 2.116-.54.607 0 1.09.16 1.421.491.327.316.493.737.493 1.236 0 .311-.073.603-.217.868-.13.258-.299.503-.508.736-.205.227-.42.455-.648.682v.001a6.392 6.392 0 0 0-.633.7l-.001.002a3.66 3.66 0 0 0-.492.786 2.378 2.378 0 0 0-.177.935c0 .208.024.403.056.594H8.45c-.001-.023-.01-.044-.01-.068V9.9c0-.387.077-.74.232-1.05.15-.314.336-.599.557-.855l.002-.002c.218-.264.458-.515.721-.755a7.23 7.23 0 0 0 .7-.734c.21-.253.384-.522.527-.807.138-.288.209-.613.209-.982a3.06 3.06 0 0 0-.147-.914l-.001-.002v-.002a2.04 2.04 0 0 0-.482-.867c-.234-.255-.552-.466-.957-.63v-.002c-.385-.172-.895-.261-1.528-.261zM8.001 12c-.326 0-.562.1-.743.3a1.025 1.025 0 0 0-.275.718c0 .279.089.512.275.718.18.2.417.3.742.3s.562-.099.743-.3c.186-.206.275-.44.275-.718 0-.28-.089-.512-.275-.718-.18-.2-.418-.3-.743-.3z" font-family="Ubuntu" font-size="72.036" font-weight="500" letter-spacing="0" style="line-height:125%;-inkscape-font-specification:'Ubuntu Medium';text-align:center" text-anchor="middle" word-spacing="0"/>
    </g>
</svg>
