<svg height="16" width="16" xmlns="http://www.w3.org/2000/svg">
    <path d="M11 0v2h1.006c1.258.015 2.179-.03 2.932.385.376.207.673.56.838.998.164.438.224.96.224 1.617v6c0 .658-.06 1.179-.225 1.617a1.88 1.88 0 0 1-.837.998c-.753.416-1.674.37-2.932.385H3.994c-1.258-.015-2.179.03-2.932-.385a1.88 1.88 0 0 1-.837-.998C.06 12.18 0 11.657 0 11V5c0-.658.06-1.179.225-1.617a1.88 1.88 0 0 1 .838-.998c.752-.416 1.673-.37 2.931-.385H5v1H4c-1.258.015-2.09.06-2.455.262-.183.1-.287.212-.385.472C1.063 3.994 1 4.408 1 5v6c0 .592.063 1.006.16 1.266.098.26.202.371.385.472.366.202 1.197.247 2.455.262h8c1.259-.015 2.087-.06 2.453-.262.184-.1.29-.212.387-.472.097-.26.16-.674.16-1.266V5c0-.592-.063-1.006-.16-1.266-.098-.26-.203-.371-.387-.472C14.087 3.06 13.26 3.015 12 3h-1.002v2a36.954 36.954 0 0 1-2.322-1.166c-.781-.43-1.533-.876-2.258-1.334.725-.45 1.477-.89 2.258-1.32C9.464.75 10.239.357 11 0z" style="line-height:normal;font-variant-ligatures:normal;font-variant-position:normal;font-variant-caps:normal;font-variant-numeric:normal;font-variant-alternates:normal;font-feature-settings:normal;text-indent:0;text-align:start;text-decoration-line:none;text-decoration-style:solid;text-decoration-color:#000;text-transform:none;text-orientation:mixed;shape-padding:0;isolation:auto;mix-blend-mode:normal;marker:none" color="#000" font-weight="400" font-family="sans-serif" white-space="normal" overflow="visible" opacity=".5" fill="gray"/>
</svg>
