<svg height="16" width="16.003" xmlns="http://www.w3.org/2000/svg">
    <g color="#000" fill="gray">
        <path d="M13.003 9c-1.108 0-2 .911-2 2.031v.97h-1v4h6v-4h-1v-.97c0-1.12-.892-2.03-2-2.03zm0 1c.554 0 1 .443 1 1v1h-2v-1c0-.557.446-1 1-1z" style="line-height:normal;font-variant-ligatures:none;font-variant-position:normal;font-variant-caps:normal;font-variant-numeric:normal;font-variant-alternates:normal;font-feature-settings:normal;text-indent:0;text-align:start;text-decoration-line:none;text-decoration-style:solid;text-decoration-color:#000;text-transform:none;shape-padding:0;isolation:auto;mix-blend-mode:normal;marker:none" font-weight="400" font-family="sans-serif" white-space="normal" overflow="visible"/>
        <path d="M8.003 2A10.382 10.382 0 0 0 .638 5.047l.736.738a9.367 9.367 0 0 1 13.258 0l.736-.738A10.382 10.382 0 0 0 8.003 2z" style="marker:none" overflow="visible" opacity=".5"/>
        <path d="M8.003 4.983c-1.92 0-3.84.73-5.303 2.193l.736.736a6.45 6.45 0 0 1 9.133 0l.737-.736a7.475 7.475 0 0 0-5.303-2.193zm0 2.998a4.566 4.566 0 0 0-3.24 1.337l.736.739a3.52 3.52 0 0 1 4.758-.203 3.07 3.07 0 0 1 .568-.875 4.562 4.562 0 0 0-2.822-.998zm0 3.02a2 2 0 1 0 0 4c.366 0 .705-.107 1-.278v-3.446a1.982 1.982 0 0 0-1-.277z" style="marker:none" overflow="visible"/>
    </g>
</svg>
