<svg height="16" width="16" xmlns="http://www.w3.org/2000/svg">
    <g color="#000" fill="gray">
        <path d="M8.003 2A10.382 10.382 0 0 0 .638 5.047l.365.365V5h1.275a9.355 9.355 0 0 1 11.45 0h.775v.668c.042.04.087.076.129.117l.736-.738A10.382 10.382 0 0 0 8.003 2zm0 2.983c-.12 0-.24.011-.36.017h.72c-.12-.006-.24-.017-.36-.017zM5.443 10l.056.057c.021-.022.047-.036.068-.057zm4.995 0c.022.02.047.035.07.057l.056-.057zm-2.435 1a2 2 0 0 0-2 2 2 2 0 0 0 2 2 2 2 0 0 0 2-2 2 2 0 0 0-2-2z" style="marker:none" overflow="visible" opacity=".5"/>
        <path d="M11.497 6c.829 0 1.496.667 1.496 1.496v.016c0 .829-.667 1.496-1.496 1.496h-.016a1.493 1.493 0 0 1-1.496-1.496v-.016c0-.829.667-1.496 1.496-1.496zm-4 0c.829 0 1.496.667 1.496 1.496v.016c0 .829-.667 1.496-1.496 1.496h-.016a1.493 1.493 0 0 1-1.496-1.496v-.016C5.985 6.667 6.652 6 7.48 6zm-4 0c.829 0 1.496.667 1.496 1.496v.016c0 .829-.667 1.496-1.496 1.496h-.016a1.493 1.493 0 0 1-1.496-1.496v-.016C1.985 6.667 2.652 6 3.48 6z" style="isolation:auto;mix-blend-mode:normal;marker:none" display="block" overflow="visible"/>
    </g>
</svg>
