<svg height="16" width="16" xmlns="http://www.w3.org/2000/svg">
    <g fill="gray">
        <path d="M11.839 2.733c.154.25.285.515.361.798.058.188.1.376.133.565a9.397 9.397 0 0 1 2.299 1.69l.736-.739a10.357 10.357 0 0 0-3.53-2.314zm-1.65.164v.01c0 .002.01 0 .01.002zm-6.544.066A10.35 10.35 0 0 0 .638 5.047l.736.738a9.353 9.353 0 0 1 2.842-1.941zm4.358 2.02c-1.92 0-3.84.73-5.303 2.193l.736.736a6.432 6.432 0 0 1 4.856-1.88c.077-.082.159-.165.232-.247a2.32 2.32 0 0 0 .358-.513l.01-.016.01-.014a.753.753 0 0 0 .072-.19 7.551 7.551 0 0 0-.97-.07zm2.656 1.185c0 .007-.014.013-.014.02v.01l.016-.03zm1.397.004a5.27 5.27 0 0 1-.565.875c.381.246.744.531 1.078.865l.737-.736a7.489 7.489 0 0 0-1.25-1.004zm-5.48 2.055a4.512 4.512 0 0 0-1.813 1.092l.736.738c.248-.248.53-.436.822-.596.011-.426.085-.842.246-1.222zm2.22.191c-.011.014-.022.023-.033.037l.027-.027.01-.01zm1.314.098c-.034.039-.077.074-.11.113l.023-.043-.135.16.041-.039.055-.058a2.86 2.86 0 0 0-.412.634v.012c-.013.027-.02.062-.031.09.347.169.678.383.967.672l.736-.738a4.507 4.507 0 0 0-1.133-.803zm-2.877 2.639a2 2 0 0 0-.47.279c.256-.153.575-.219.879-.28zm1.135 0c.304.06.622.125.879.279a2 2 0 0 0-.48-.28zm-.365 1.814c-.043.047-.018-.017-.018.049s-.024.003.018.048v-.004c.029-.027.016.016.016-.044 0-.061.013-.018-.016-.045v-.004z" style="marker:none" color="#000" overflow="visible" opacity=".5"/>
        <path d="M8.274 2.037c-.533 0-1.037.062-1.513.183a5.853 5.853 0 0 0-1.167.446l-.657.458.566.876.452-.336c.688-.35 1.394-.54 2.116-.54.607 0 1.089.16 1.42.491.328.316.494.737.494 1.236 0 .312-.073.603-.218.868-.129.258-.298.504-.507.736-.205.227-.421.455-.648.682l-.001.001v.001c-.222.21-.432.443-.632.699l-.001.002a3.66 3.66 0 0 0-.492.786 2.378 2.378 0 0 0-.177.935c0 .208.024.404.056.594h1.087c0-.023-.01-.044-.01-.068V9.9c0-.387.077-.74.232-1.05.151-.314.337-.599.558-.854v-.001l.002-.002c.217-.264.458-.515.72-.755a7.23 7.23 0 0 0 .701-.734c.209-.253.384-.522.527-.807.138-.287.208-.613.208-.982 0-.292-.048-.597-.147-.914v-.002l-.001-.002a2.04 2.04 0 0 0-.481-.866c-.235-.256-.552-.467-.957-.631v-.002c-.386-.171-.895-.261-1.528-.261zM8.003 12c-.325 0-.562.1-.743.3a1.025 1.025 0 0 0-.274.718c0 .279.089.512.274.718.181.201.418.3.743.3s.562-.099.743-.3c.186-.206.275-.44.275-.718 0-.279-.09-.511-.275-.718-.181-.2-.418-.3-.743-.3z" style="line-height:125%;-inkscape-font-specification:'Ubuntu Medium';text-align:center" font-weight="500" font-size="72.036" font-family="Ubuntu" letter-spacing="0" word-spacing="0" text-anchor="middle"/>
    </g>
</svg>
