<svg height="16" width="16" xmlns="http://www.w3.org/2000/svg">
    <g fill="gray" font-weight="400">
        <path color="#000" d="M3.994 1c-1.258.015-2.178-.03-2.931.385a1.88 1.88 0 0 0-.838.998C.06 2.821 0 3.343 0 4v6c0 .658.06 1.179.225 1.617.165.439.461.79.838.998.753.416 1.673.37 2.931.385h8.004c1.258-.015 2.18.03 2.932-.385a1.88 1.88 0 0 0 .838-.998c.164-.438.224-.96.224-1.617V4c0-.658-.06-1.179-.224-1.617a1.88 1.88 0 0 0-.838-.998c-.753-.416-1.674-.37-2.932-.385H3.994zm.01 1h8c1.259.015 2.088.06 2.454.262.183.1.289.212.386.472.097.26.16.674.16 1.266v6c0 .592-.063 1.006-.16 1.266-.098.26-.203.371-.387.472-.366.202-1.194.247-2.453.262H4c-1.258-.015-2.089-.06-2.455-.262-.183-.1-.287-.212-.385-.472C1.062 11.006 1 10.592 1 10V4c0-.592.063-1.006.16-1.266.098-.26.202-.371.385-.472C1.911 2.06 2.742 2.015 4 2z" font-family="sans-serif" overflow="visible" style="line-height:normal;font-variant-ligatures:normal;font-variant-position:normal;font-variant-caps:normal;font-variant-numeric:normal;font-variant-alternates:normal;font-feature-settings:normal;text-indent:0;text-align:start;text-decoration-line:none;text-decoration-style:solid;text-decoration-color:#000;text-transform:none;text-orientation:mixed;shape-padding:0;isolation:auto;mix-blend-mode:normal;marker:none" white-space="normal"/>
        <path d="M7 15l3.5-2.5-.5-.5H4l-.5.5z" font-family="Ubuntu" font-size="15" letter-spacing="0" style="line-height:125%;-inkscape-font-specification:Ubuntu;text-align:center" text-anchor="middle" word-spacing="0"/>
    </g>
</svg>
