<svg version="1.0" viewBox="0 0 16 16" xmlns="http://www.w3.org/2000/svg"><path d="M8.049 0a5.725 5.725 0 0 1 1.1 5.096 5.729 5.729 0 0 1-7.016 4.05A5.728 5.728 0 0 1 0 8.047a6.507 6.507 0 0 0 4.56 4.484c.089.024.177.037.265.057.067-.337.188-.655.35-.947-.119-.024-.237-.043-.354-.075a5.506 5.506 0 0 1-2.395-1.365c3.399.611 6.78-1.452 7.69-4.845v-.002a6.708 6.708 0 0 0 .1-2.897 5.472 5.472 0 0 1 1.527 4.127 5.56 5.56 0 0 1-.18 1.09c-.01.036-.023.07-.033.105.343.022.673.083.99.18 0-.009.01-.018.01-.027A6.507 6.507 0 0 0 8.05 0zm3.203 8.754a3.5 3.5 0 0 0-3.16 2.006 2.5 2.5 0 0 0 .16 4.994h5.5a2 2 0 0 0 .992-3.734 3.5 3.5 0 0 0-3.492-3.266zm0 1a2.486 2.486 0 0 1 2.492 2.332l.037.535.465.268a.996.996 0 0 1 .504.867.985.985 0 0 1-1 .998h-5.5c-.84 0-1.5-.66-1.5-1.5 0-.8.605-1.445 1.404-1.496l.588-.037.252-.533a2.497 2.497 0 0 1 2.256-1.434z" color="#000" fill="#3D3D3D" overflow="visible"/></svg>