<svg version="1.0" viewBox="0 0 16 16" xmlns="http://www.w3.org/2000/svg"><path d="M7.5 0v2h1V0zM4.434.822l-.868.5 1.002 1.733.866-.5zm7.132 0-1 1.733.868.5 1-1.733zM8 3a5 5 0 0 0-5 5c0 1.648.808 3.097 2.037 4.008a3.5 3.5 0 0 1 .31-1.02A4 4 0 0 1 4 8a4 4 0 0 1 4-4 4 4 0 0 1 3.873 3.018 4.5 4.5 0 0 1 1.065.224A4.997 4.997 0 0 0 8 3zm-6.678.566-.5.868 1.733 1 .5-.868zm13.355 0-1.732 1 .5.868 1.732-1zM0 7.5v1h2v-1zm14 0v.262a4.5 4.5 0 0 1 .848.738H16v-1zm-2.5.5a3.5 3.5 0 0 0-3.16 2.006A2.5 2.5 0 0 0 6 12.5 2.5 2.5 0 0 0 8.5 15H14a2 2 0 0 0 2-2 2 2 0 0 0-1.008-1.734A3.5 3.5 0 0 0 11.5 8zm0 1a2.486 2.486 0 0 1 2.492 2.332l.038.535.464.268a.996.996 0 0 1 .504.867.985.985 0 0 1-1 .998h-5.5c-.84 0-1.5-.66-1.5-1.5 0-.8.606-1.445 1.405-1.496l.587-.037.252-.533A2.497 2.497 0 0 1 11.497 9zm-8.941 1.566-1.732 1 .5.868 1.732-1.002zm2.012 2.38-1 1.732.867.5.81-1.403a3.5 3.5 0 0 1-.162-.533zm2.933 2.905V16h1a3.5 3.5 0 0 1-1-.149z" fill="#3D3D3D"/></svg>