<svg version="1.1" viewBox="0 0 16 16" xmlns="http://www.w3.org/2000/svg">
 <g fill="#808080">
  <path d="m5 0c-1.1043 0-1.9996 1.0964-2 2.4492v0.55078l2.8574 5-2.8574 5v0.55078c3.5e-4 1.3528 0.89568 2.4492 2 2.4492h5c1.1043 0 1.9996-1.0964 2-2.4492v-0.55078l-2.8398-5 2.8398-5v-0.55078c-4e-4 -1.3528-0.8957-2.4492-2-2.4492zm2.5254 1.0117c0.61758-6.25e-5 1.239 0.014025 2.6016 0.046875 0.67682 0.17 0.86793 1.018 0.83203 1.6367-0.82389 1.8216-2.959 5.3047-2.959 5.3047s2.1351 3.4831 2.959 5.3047c0.0359 0.61876-0.15521 1.4667-0.83203 1.6367-2.7251 0.0657-2.4861 0.05352-5.1797 0.01172-0.72645-0.13044-0.95348-1.0129-0.92578-1.6504 0.96305-1.7934 2.9785-5.3027 2.9785-5.3027s-2.0155-3.5093-2.9785-5.3027c-0.0277-0.6375 0.19933-1.5199 0.92578-1.6504 1.3468-0.0209 1.9605-0.035094 2.5781-0.035156z"/>
  <path d="m7.5143 2c0.41718-4.65e-5 0.83695 0.00948 1.7573 0.031687 0.45719 0.11483 0.58628 0.51127 0.56203 0.92924-0.55653 1.2305-1.9988 3.5833-1.9988 3.5833h-0.67549s-1.3614-2.3705-2.012-3.582c-0.018679-0.43062 0.13465-0.85035 0.62536-0.93847 0.90975-0.014124 1.3243-0.023697 1.7415-0.02379z" opacity=".5" stroke-width=".67549"/>
  <path d="m5.5 13h4c0.277 0 0.5 0.223 0.5 0.5s-0.223 0.5-0.5 0.5h-4c-0.277 0-0.5-0.223-0.5-0.5s0.223-0.5 0.5-0.5z" fill-rule="evenodd" opacity=".5" stop-color="#000000" stroke-linecap="round" stroke-linejoin="round" stroke-width="3" style="paint-order:stroke fill markers"/>
 </g>
</svg>
