<svg version="1.1" viewBox="0 0 16 16" xmlns="http://www.w3.org/2000/svg">
 <g transform="translate(-112,-540)">
  <path transform="translate(112,540)" d="m5 0c-1.1043 0-1.9996 1.0964-2 2.4492v0.55078l2.8574 5-2.8574 5v0.55078c3.5e-4 1.3528 0.89568 2.4492 2 2.4492h5c1.1043 0 1.9996-1.0964 2-2.4492v-0.55078l-2.8398-5 2.8398-5v-0.55078c-3.5e-4 -1.3528-0.89568-2.4492-2-2.4492h-5zm2.0254 1.0117c1.3676-6e-5 1.739 0.013975 3.1016 0.046875 0.43943 0.1104 0.67269 0.50775 0.77344 0.94141h-6.8047c0.11503-0.45365 0.37297-0.86719 0.85156-0.95312 1.3468-0.0209 0.71054-0.035056 2.0781-0.035156zm-0.025391 6.9883h1s2.1351 3.4831 2.959 5.3047c0.0359 0.61876-0.15521 1.4667-0.83203 1.6367-2.7251 0.0657-2.4861 0.053519-5.1797 0.011719-0.72645-0.13044-0.95348-1.0129-0.92578-1.6504 0.96305-1.7934 2.9785-5.3027 2.9785-5.3027z" fill="#808080"/>
 </g>
</svg>
