<svg version="1.1" viewBox="0 0 16 16.001" xmlns="http://www.w3.org/2000/svg">
 <g fill="#808080">
  <circle cx="7.5" cy="7.5" r="1.5" stroke-dasharray="1.5, 1" stroke-dashoffset="1.86"/>
  <path d="m7.4434 0 0.011719 1h0.044922l0.16797 0.00195 0.16602 0.00586 0.16602 0.011721 0.16602 0.013672 0.16211 0.019531 0.16211 0.021484 0.16016 0.027344 0.16016 0.03125 0.1582 0.033203 0.11328 0.029297a6.5 6.5 0 0 1 1.5566 0.61328l0.0957 0.052734 0.13477 0.080078 0.13476 0.082031 0.13086 0.085937 0.12695 0.089844 0.12695 0.091797 0.125 0.095703 0.12109 0.097656 0.11914 0.099609 0.11719 0.10547 0.11328 0.10547 0.08008 0.078125a6.5 6.5 0 0 1 0.93555 1.1602 6.5 6.5 0 0 1 2e-3 0.00391l0.05664 0.09375 0.08008 0.13477 0.05273 0.095703a6.5 6.5 0 0 1 0.78906 2.6367v0.0019495l0.01172 0.16602 0.0059 0.16602 0.001867 0.16797v0.00586a6.5 6.5 0 0 1-0.42188 2.2969l-0.0293 0.080078-0.05859 0.14648-0.06445 0.14453-0.06641 0.14453-0.07031 0.14062-0.03125 0.05859a6.5 6.5 0 0 1-0.88477 1.2832l-0.0625 0.07031-0.10547 0.11328-0.10938 0.11133-0.11133 0.10938-0.11328 0.10547-0.11719 0.10547-0.11914 0.09961-0.12109 0.09766-0.125 0.0957-0.12695 0.0918-0.0625 0.04297a6.5 6.5 0 0 1-0.10547 0.07422 6.5 6.5 0 0 1-0.01563 0.0098l-0.01953 0.01172a6.5 6.5 0 0 1-2.7676 1.0117 6.5 6.5 0 0 1-0.79102 0.048828 6.5 6.5 0 0 1-0.87109-0.058594l-0.11914-0.015625-0.16016-0.027343-0.16016-0.03125-0.1582-0.033204-0.15625-0.039062-0.1543-0.041016-0.1543-0.046875-0.15039-0.048828-0.14258-0.050781h-0.00195l-0.00586-2e-3 -0.14844-0.05664-0.0625-0.02539a6.5 6.5 0 0 1-1.4102-0.79097l-0.021484-0.01563-0.011719-0.0078-0.125-0.0957-0.12109-0.097667-0.11914-0.099609-0.11719-0.10547-0.11328-0.10547-0.11133-0.10938-0.10938-0.11133-0.10547-0.11328-0.10547-0.11719-0.099609-0.11914-0.097656-0.12109-0.00195-2e-3 -0.058594-0.07813-0.79102 0.60742a7.5 7.5 0 0 0 0.31641 0.39258l0.097656 0.10938 0.12109 0.13086 0.12695 0.12891 0.12891 0.12695 0.13086 0.12109 0.10742 0.0957a7.5 7.5 0 0 0 0.49023 0.39453 7.5 7.5 0 0 0 1.3867 0.80664 7.5 7.5 0 0 0 0.0625 0.02734 7.5 7.5 0 0 0 1.9531 0.55273l0.033203 0.0039a7.5 7.5 0 0 0 1.0098 0.068425 7.5 7.5 0 0 0 0.59961-0.023437l0.16602-0.01563 0.14844-0.01758a7.5 7.5 0 0 0 1.7637-0.4375 7.5 7.5 0 0 0 1.4297-0.73047l0.08594-0.05664 0.0293-0.02148a7.5 7.5 0 0 0 0.95117-0.76758l0.12891-0.12695 0.12695-0.12891a7.5 7.5 0 0 0 0.21094-0.23242l0.03125-0.0332 0.03906-0.04687a7.5 7.5 0 0 0 0.90234-1.3242 7.5 7.5 0 0 0 0.72852-2 7.5 7.5 0 0 0 0.1582-1.5371 7.5 7.5 0 0 0 0-0.00586l-2e-3 -0.1875-0.0078-0.19141-0.01172-0.19141-2e-3 -0.015625a7.5 7.5 0 0 0-0.29484-1.5684 7.5 7.5 0 0 0-0.90039-1.9395 7.5 7.5 0 0 0-1.0215-1.2383 7.5 7.5 0 0 0-0.085938-0.091797l-0.13086-0.12109-0.10742-0.095703a7.5 7.5 0 0 0-0.47656-0.38477l-0.11719-0.083984-0.12891-0.089844a7.5 7.5 0 0 0-0.66797-0.4043 7.5 7.5 0 0 0-1.4785-0.59961 7.5 7.5 0 0 0-1.1543-0.23438l-0.14648-0.017578h-0.00195l-0.1875-0.017578-0.19141-0.011719-0.19141-0.0078125-0.19336-0.0019531zm-1.5879 0.18164a7.5 7.5 0 0 0-2 0.76367l0.48828 0.87109 0.058594-0.03125 0.13867-0.074219 0.14062-0.070312 0.14453-0.066406 0.14453-0.064453 0.14648-0.058594 0.14844-0.056641 0.15039-0.052734 0.15039-0.048828 0.1543-0.046875 0.1543-0.041016 0.15625-0.039062 0.037109-0.0078125zm-3.3027 1.6992a7.5 7.5 0 0 0-0.22656 0.18945l-0.12891 0.12695-0.12695 0.12891-0.12109 0.13086-0.095703 0.10742a7.5 7.5 0 0 0-0.38477 0.47656l-0.083984 0.11719-0.10352 0.14844-0.099609 0.15039-0.023437 0.037109 0.84766 0.5293 0.017578-0.027344 0.085937-0.13086 0.089844-0.12695 0.091797-0.12695 0.095703-0.125 0.097656-0.12109 0.099609-0.11914 0.10547-0.11719 0.10547-0.11328 0.10938-0.11133 0.11133-0.10938 0.11328-0.10547 0.080078-0.072266zm-2.1016 3.0566a7.5 7.5 0 0 0-0.39453 1.6504l-0.017578 0.14648v0.00195l-0.017578 0.1875-0.0058594 0.097656 0.99805 0.064453 0.0058593-0.085938 0.013672-0.16602 0.019531-0.16211 0.021484-0.16211 0.027344-0.16016 0.03125-0.16016 0.033203-0.1582 0.039062-0.15625 0.041016-0.1543 0.046875-0.1543 0.048828-0.15039 0.050781-0.14648zm0.62305 3.543-0.99023 0.13867a7.5 7.5 0 0 0 0.61914 2.0508l0.9043-0.42383-0.033203-0.072266-0.064453-0.14453-0.058594-0.14648-0.056641-0.14844-0.052734-0.15039-0.048828-0.15039-0.046875-0.1543-0.041016-0.1543-0.039062-0.15625-0.033203-0.1582-0.03125-0.16016-0.027344-0.16016z" stop-color="#000000" stroke-dasharray="2, 1.5" stroke-dashoffset="2.06"/>
  <rect transform="matrix(.70711 .70711 .70711 -.70711 0 0)" x="10.107" y="-5.5" width="1" height="5.5" rx=".0012838"/>
 </g>
</svg>
