<svg version="1.1" viewBox="0 0 16 16" xmlns="http://www.w3.org/2000/svg">
 <g fill="#808080">
  <path d="m12.547 1.002a0.50005 0.50005 0 0 0-0.34766 0.097656c-2.008 1.506-2.8484 2.2144-3.8574 2.5508-0.78999 0.26333-1.8091 0.32781-3.6406 0.34375l0.99023 0.99023c1.3036-0.030548 2.1739-0.12048 2.9668-0.38477 1.0011-0.3337 2.0299-1.1817 3.3418-2.1777v8.8711l1 1v-10.793a0.50005 0.50005 0 0 0-0.27734-0.44727 0.50005 0.50005 0 0 0-0.17578-0.050781zm-9.2559 2.9961c-0.10689 5.24e-5 -0.1796 0.0019531-0.29102 0.0019531-0.91666 0-1.5297 0.55096-1.7715 1.1152-0.24183 0.56428-0.22852 1.1348-0.22852 1.3848v2c0 0.53197 0.034124 1.1174 0.32227 1.6367 0.28574 0.51495 0.89873 0.88589 1.6777 0.86328 3 0 4.3327 0.013261 5.3418 0.34961 1.009 0.33635 1.8494 1.0448 3.8574 2.5508a0.50005 0.50005 0 0 0 0.76562-0.22852l-1.5059-1.5059c-1.0568-0.80889-1.9444-1.4802-2.8008-1.7656-1.2409-0.41365-2.6582-0.40039-5.6582-0.40039a0.50005 0.50005 0 0 0-0.019531 0c-0.51981 0.01945-0.64839-0.10665-0.7832-0.34961-0.13482-0.24296-0.19727-0.68236-0.19727-1.1504v-2c0-0.25 0.013318-0.67951 0.14648-0.99023 0.13317-0.31072 0.27018-0.50977 0.85352-0.50977 0.49035 0 0.87909-7.394e-4 1.291-0.0019531l-1-1z" color="#000000" stroke-linejoin="round" style="-inkscape-stroke:none"/>
  <path d="m5 6v3h1v-2.293l-0.70703-0.70703h-0.29297z" fill-rule="evenodd" opacity=".5" stop-color="#000000" style="paint-order:stroke fill markers"/>
  <path d="m14 6.0001 2 0.7v1.6l-2 0.7z"/>
  <path d="m4.9279 12 1.0938 3.6445a0.5 0.5 0 0 0 0.62305 0.33398 0.5 0.5 0 0 0 0.33398-0.62305l-1.0059-3.3555z" color="#000000" stroke-linecap="round" style="-inkscape-stroke:none"/>
  <path d="m1.1465 1.8535-0.70703 0.70703 13 13 0.70703-0.70703z" color="#000000" style="-inkscape-stroke:none"/>
 </g>
</svg>
