<svg version="1.1" viewBox="0 0 16 16" xmlns="http://www.w3.org/2000/svg">
 <g fill="#e95420">
  <path d="m7 7h3v-1.5371c0-0.81627-0.64077-1.457-1.457-1.457h-0.085938c-0.81627 0-1.457 0.64077-1.457 1.457z" enable-background="new" stroke-opacity=".25098"/>
  <path d="m8.5 0c-4.155 0-7.5 3.345-7.5 7.5s3.345 7.5 7.5 7.5 7.5-3.345 7.5-7.5-3.345-7.5-7.5-7.5zm-0.042969 3.0059h0.085937c1.353 0 2.457 1.1041 2.457 2.457v1.5371h1v5h-7v-5h1v-1.5371c0-1.353 1.1041-2.457 2.457-2.457z" enable-background="new" stroke-opacity=".25098"/>
  <path d="m8 9v0.025391 1.0273 0.94727h1v-0.94727-1.0273-0.025391z" stroke-width="4.899" style="font-variant-ligatures:none"/>
 </g>
</svg>
