<svg version="1.1" viewBox="0 0 16 16" xmlns="http://www.w3.org/2000/svg">
 <path d="m12.5 1c1.3764 0 2.5 1.1236 2.5 2.5v9c0 1.3764-1.1236 2.5-2.5 2.5h-9c-1.3764 0-2.5-1.1236-2.5-2.5v-9c0-1.3764 1.1236-2.5 2.5-2.5zm0 1h-9c-0.83965 0-1.5 0.66035-1.5 1.5v9c0 0.83965 0.66035 1.5 1.5 1.5h9c0.83965 0 1.5-0.66035 1.5-1.5v-9c0-0.83965-0.66035-1.5-1.5-1.5z" color="#000000" fill="#808080" fill-rule="evenodd" stroke-linecap="round" stroke-linejoin="round" style="-inkscape-stroke:none;paint-order:stroke fill markers"/>
 <path d="m5 4a1 1 0 0 1 1 1 1 1 0 0 1-1 1 1 1 0 0 1-1-1 1 1 0 0 1 1-1zm3 3a1 1 0 0 1 1 1 1 1 0 0 1-1 1 1 1 0 0 1-1-1 1 1 0 0 1 1-1zm3 3a1 1 0 0 1 1 1 1 1 0 0 1-1 1 1 1 0 0 1-1-1 1 1 0 0 1 1-1z" fill="#808080" fill-rule="evenodd" stop-color="#000000" style="paint-order:stroke fill markers"/>
</svg>
