<svg version="1.1" viewBox="0 0 16 16" xmlns="http://www.w3.org/2000/svg">
 <path d="m5 1v4h1v-2.293l2.8438 2.8438c-0.52741 0.67775-0.84375 1.5272-0.84375 2.4492-0.92198 0-1.7715 0.31634-2.4492 0.84375l-2.8438-2.8438h2.293v-1h-4v4h1v-2.293l2.8438 2.8438c-0.52741 0.67775-0.84375 1.5272-0.84375 2.4492 0 2.2032 1.7968 4 4 4 2.2032 0 4-1.7968 4-4 2.2032 0 4-1.7968 4-4 0-2.2032-1.7968-4-4-4-0.92198 0-1.7715 0.31634-2.4492 0.84375l-2.8438-2.8438h2.293v-1h-4zm7 4c1.6628 0 3 1.3372 3 3s-1.3372 3-3 3c-0.043416 0-0.085952-0.002101-0.12891-0.003906-0.36378-1.3992-1.468-2.5034-2.8672-2.8672-0.0018053-0.042954-0.0039062-0.08549-0.0039062-0.12891 0-1.6628 1.3372-3 3-3zm-4 4c0.043416 0 0.085952 0.0021009 0.12891 0.0039062 0.36378 1.3992 1.468 2.5034 2.8672 2.8672 0.001805 0.042954 0.003906 0.08549 0.003906 0.12891 0 1.6628-1.3372 3-3 3s-3-1.3372-3-3 1.3372-3 3-3zm1.2891 0.28906c0.62297 0.29537 1.1265 0.79891 1.4219 1.4219-0.62297-0.29537-1.1265-0.79891-1.4219-1.4219z" color="#000000" fill="#808080" fill-rule="evenodd" stroke-linecap="round" stroke-linejoin="round" style="-inkscape-stroke:none;paint-order:stroke fill markers"/>
</svg>
