<?xml version="1.0" encoding="UTF-8" standalone="no"?>
<svg
   xmlns:osb="http://www.openswatchbook.org/uri/2009/osb"
   xmlns:dc="http://purl.org/dc/elements/1.1/"
   xmlns:cc="http://creativecommons.org/ns#"
   xmlns:rdf="http://www.w3.org/1999/02/22-rdf-syntax-ns#"
   xmlns:svg="http://www.w3.org/2000/svg"
   xmlns="http://www.w3.org/2000/svg"
   xmlns:sodipodi="http://sodipodi.sourceforge.net/DTD/sodipodi-0.dtd"
   xmlns:inkscape="http://www.inkscape.org/namespaces/inkscape"
   height="16.000004"
   id="svg7384"
   version="1.1"
   width="16"
   sodipodi:docname="x-office-spreadsheet-symbolic.svg"
   inkscape:version="1.0.2 (e86c870879, 2021-01-15)">
  <sodipodi:namedview
     pagecolor="#ffffff"
     bordercolor="#666666"
     borderopacity="1"
     objecttolerance="10"
     gridtolerance="10"
     guidetolerance="10"
     inkscape:pageopacity="0"
     inkscape:pageshadow="2"
     inkscape:window-width="1366"
     inkscape:window-height="704"
     id="namedview21"
     showgrid="true"
     inkscape:zoom="10.783376"
     inkscape:cx="16.730163"
     inkscape:cy="8.0000019"
     inkscape:window-x="0"
     inkscape:window-y="0"
     inkscape:window-maximized="1"
     inkscape:current-layer="svg7384">
    <inkscape:grid
       type="xygrid"
       id="grid874" />
  </sodipodi:namedview>
  <metadata
     id="metadata20854">
    <rdf:RDF>
      <cc:Work
         rdf:about="">
        <dc:title></dc:title>
        <dc:format>image/svg+xml</dc:format>
        <dc:type
           rdf:resource="http://purl.org/dc/dcmitype/StillImage" />
      </cc:Work>
    </rdf:RDF>
  </metadata>
  <defs
     id="defs7386">
    <linearGradient
       id="linearGradient5606"
       osb:paint="solid">
      <stop
         id="stop5608"
         offset="0"
         style="stop-color:#000000;stop-opacity:1;" />
    </linearGradient>
    <linearGradient
       id="linearGradient4526"
       osb:paint="solid">
      <stop
         id="stop4528"
         offset="0"
         style="stop-color:#ffffff;stop-opacity:1;" />
    </linearGradient>
    <linearGradient
       id="linearGradient3600-4"
       osb:paint="gradient">
      <stop
         id="stop3602-7"
         offset="0"
         style="stop-color:#f4f4f4;stop-opacity:1" />
      <stop
         id="stop3604-6"
         offset="1"
         style="stop-color:#dbdbdb;stop-opacity:1" />
    </linearGradient>
  </defs>
  <g
     id="g1086">
    <g
       id="layer9"
       label="status"
       style="display:inline"
       transform="translate(-653.0002,207)" />
    <g
       id="layer2"
       style="display:inline"
       transform="translate(-412,-160)" />
    <g
       id="layer4"
       style="display:inline"
       transform="translate(-412,-160)">
      <path
         id="path5289-0-9"
         style="color:#000000;display:inline;overflow:visible;visibility:visible;fill:#808080;fill-opacity:1;fill-rule:nonzero;stroke:none;stroke-width:4;marker:none;enable-background:accumulate"
         transform="translate(412,160)"
         d="M 4.9941406,0 C 3.7360406,0.01507 2.81522,-0.02842125 2.0625,0.38671875 1.68614,0.59428875 1.3892894,0.9442025 1.2246094,1.3828125 1.0598994,1.8214225 1,2.34239 1,3 v 10 c 0,0.65761 0.059939,1.178517 0.2246094,1.617188 C 1.3892694,15.055846 1.68613,15.407574 2.0625,15.615234 2.81525,16.030604 3.7359406,15.9855 4.9941406,16 h 0.00391 6.0058591 0.002 c 1.25809,-0.01507 2.178921,0.02841 2.931641,-0.386719 0.37636,-0.20757 0.673211,-0.557483 0.837891,-0.996093 C 14.939948,14.178577 15,13.65761 15,13 V 5 4.25 L 10.75,0 H 10 4.9960938 Z M 5,1 H 5.0058594 10 v 4 h 2 2 v 8 c 0,0.59239 -0.06261,1.005835 -0.160156,1.265625 -0.09754,0.2598 -0.201346,0.371496 -0.384766,0.472656 C 13.089098,14.940101 12.25862,14.9848 11,15 H 5 C 3.74147,14.9853 2.9108819,14.940201 2.5449219,14.738281 2.3615119,14.637091 2.2577562,14.525535 2.1601562,14.265625 2.0625965,14.005725 2,13.59239 2,13 V 3 C 2,2.40761 2.0625563,1.994175 2.1601562,1.734375 2.2576962,1.474585 2.3615019,1.3628784 2.5449219,1.2617188 2.9109019,1.0598988 3.74137,1.0152 5,1 Z" />
    </g>
    <g
       id="g1812"
       style="display:inline"
       transform="translate(-412,-160)" />
    <g
       id="g6217"
       style="display:inline"
       transform="translate(-412,-160)" />
    <g
       id="layer3"
       style="display:inline"
       transform="translate(-412,-160)" />
    <g
       id="g1833"
       style="display:inline"
       transform="translate(-412,-160)" />
    <g
       id="layer1"
       style="display:inline"
       transform="translate(-412,-160)" />
    <rect
       style="fill:#808080;fill-rule:evenodd;stroke-width:0.667"
       id="rect943"
       width="2"
       height="1"
       x="4"
       y="4" />
    <rect
       style="fill:#808080;fill-rule:evenodd;stroke-width:0.667"
       id="rect945"
       width="2"
       height="1"
       x="4"
       y="6" />
    <rect
       style="fill:#808080;fill-rule:evenodd;stroke-width:0.667"
       id="rect947"
       width="2"
       height="1"
       x="4"
       y="8" />
    <rect
       style="fill:#808080;fill-rule:evenodd;stroke-width:0.667"
       id="rect949"
       width="2"
       height="1"
       x="4"
       y="10" />
    <rect
       style="fill:#808080;fill-rule:evenodd;stroke-width:0.667"
       id="rect951"
       width="2"
       height="1"
       x="4"
       y="12" />
    <rect
       style="fill:#808080;fill-rule:evenodd;stroke-width:0.667"
       id="rect943-3"
       width="2"
       height="1"
       x="7"
       y="4" />
    <rect
       style="fill:#808080;fill-rule:evenodd;stroke-width:0.667"
       id="rect943-6"
       width="2"
       height="1"
       x="7"
       y="6" />
    <rect
       style="fill:#808080;fill-rule:evenodd;stroke-width:0.667"
       id="rect943-7"
       width="2"
       height="1"
       x="7"
       y="8" />
    <rect
       style="fill:#808080;fill-rule:evenodd;stroke-width:0.667"
       id="rect943-5"
       width="2"
       height="1"
       x="7"
       y="10" />
    <rect
       style="fill:#808080;fill-rule:evenodd;stroke-width:0.667"
       id="rect943-35"
       width="2"
       height="1"
       x="7"
       y="12" />
    <rect
       style="fill:#808080;fill-rule:evenodd;stroke-width:0.667"
       id="rect943-62"
       width="2"
       height="1"
       x="10"
       y="12" />
    <rect
       style="fill:#808080;fill-rule:evenodd;stroke-width:0.667"
       id="rect943-9"
       width="2"
       height="1"
       x="10"
       y="10" />
    <rect
       style="fill:#808080;fill-rule:evenodd;stroke-width:0.667"
       id="rect943-1"
       width="2"
       height="1"
       x="10"
       y="8" />
    <rect
       style="fill:#808080;fill-rule:evenodd;stroke-width:0.667"
       id="rect943-2"
       width="2"
       height="1"
       x="10"
       y="6" />
  </g>
</svg>
