<svg version="1.1" viewBox="0 0 32 84" xmlns="http://www.w3.org/2000/svg">
 <defs>
  <clipPath id="a">
   <rect transform="scale(1,-1)" x="-5.5" y="-18" width="43" height="24.5" rx="1.5" ry="1.5" fill="#5294e2"/>
  </clipPath>
 </defs>
 <rect x="4.5" y="4.5" width="23" height="74" rx="2" ry="2" fill="none" opacity=".1" stroke="#000"/>
 <rect x="5" y="5" width="22" height="21" rx="1.5" ry="1.5" clip-path="url(#a)" fill="#f5f6f7"/>
 <rect x=".5" y=".5" width="31" height="83" rx="8" ry="8" opacity=".0075" fill="none" stroke="#000"/>
 <rect x="1.5" y="1.5" width="29" height="81" rx="7" ry="7" opacity=".015" fill="none" stroke="#000"/>
 <rect x="2.5" y="2.5" width="27" height="79" rx="6" ry="6" opacity=".03" fill="none" stroke="#000"/>
 <rect x="3.5" y="3.5" width="25" height="77" rx="5" ry="5" opacity=".045" fill="none" stroke="#000"/>
 <path d="m5.6485 78.304c0.72475 0.7369 1.7315 1.1953 2.8516 1.1953h15c1.12 0 2.1268-0.4584 2.8516-1.1953-0.2591 0.1222-0.5451 0.1953-0.85156 0.1953h-19c-0.30646 0-0.59246-0.073-0.85156-0.1953z" opacity="0.075" fill="none" stroke="#000"/>
</svg>
