<?xml version="1.0" encoding="UTF-8" standalone="no"?>
<svg
   xmlns:dc="http://purl.org/dc/elements/1.1/"
   xmlns:cc="http://creativecommons.org/ns#"
   xmlns:rdf="http://www.w3.org/1999/02/22-rdf-syntax-ns#"
   xmlns:svg="http://www.w3.org/2000/svg"
   xmlns="http://www.w3.org/2000/svg"
   xmlns:sodipodi="http://sodipodi.sourceforge.net/DTD/sodipodi-0.dtd"
   xmlns:inkscape="http://www.inkscape.org/namespaces/inkscape"
   viewBox="0 0 16 16"
   version="1.1"
   id="svg4"
   sodipodi:docname="preferences-color-symbolic.svg"
   inkscape:version="1.0.2 (e86c870879, 2021-01-15)">
  <metadata
     id="metadata10">
    <rdf:RDF>
      <cc:Work
         rdf:about="">
        <dc:format>image/svg+xml</dc:format>
        <dc:type
           rdf:resource="http://purl.org/dc/dcmitype/StillImage" />
      </cc:Work>
    </rdf:RDF>
  </metadata>
  <defs
     id="defs8" />
  <sodipodi:namedview
     pagecolor="#ffffff"
     bordercolor="#666666"
     borderopacity="1"
     objecttolerance="10"
     gridtolerance="10"
     guidetolerance="10"
     inkscape:pageopacity="0"
     inkscape:pageshadow="2"
     inkscape:window-width="1920"
     inkscape:window-height="1043"
     id="namedview6"
     showgrid="true"
     inkscape:zoom="27.5"
     inkscape:cx="4.8490361"
     inkscape:cy="7.2026127"
     inkscape:window-x="1920"
     inkscape:window-y="0"
     inkscape:window-maximized="1"
     inkscape:current-layer="svg4">
    <inkscape:grid
       type="xygrid"
       id="grid835" />
  </sodipodi:namedview>
  <path
     id="path837"
     style="fill:#808080;fill-rule:evenodd;stroke-width:1;stroke-linecap:square;fill-opacity:1"
     d="M 5.5 5 A 5.5 5.5 0 0 0 0 10.5 A 5.5 5.5 0 0 0 5.5 16 A 5.5 5.5 0 0 0 11 10.5 A 5.5 5.5 0 0 0 5.5 5 z M 5.5 6 A 4.5 4.5 0 0 1 10 10.5 A 4.5 4.5 0 0 1 5.5 15 A 4.5 4.5 0 0 1 1 10.5 A 4.5 4.5 0 0 1 5.5 6 z " />
  <path
     id="circle841"
     style="fill:#808080;fill-rule:evenodd;stroke-width:1;stroke-linecap:square;fill-opacity:1"
     d="m 10.5,5 a 5.5,5.5 0 0 0 -5.5,5.5 5.5,5.5 0 0 0 5.5,5.5 5.5,5.5 0 0 0 5.5,-5.5 5.5,5.5 0 0 0 -5.5,-5.5 z m 0,1 a 4.5,4.5 0 0 1 4.5,4.5 4.5,4.5 0 0 1 -4.5,4.5 4.5,4.5 0 0 1 -4.5,-4.5 4.5,4.5 0 0 1 4.5,-4.5 z" />
  <path
     id="circle843"
     style="fill:#808080;fill-rule:evenodd;stroke-width:1;stroke-linecap:square;fill-opacity:1"
     d="m 8,0 a 5.5,5.5 0 0 0 -5.5,5.5 5.5,5.5 0 0 0 5.5,5.5 5.5,5.5 0 0 0 5.5,-5.5 5.5,5.5 0 0 0 -5.5,-5.5 z m 0,1 a 4.5,4.5 0 0 1 4.5,4.5 4.5,4.5 0 0 1 -4.5,4.5 4.5,4.5 0 0 1 -4.5,-4.5 4.5,4.5 0 0 1 4.5,-4.5 z" />
  <path
     id="path863"
     style="fill:#808080;fill-opacity:1;fill-rule:evenodd;stroke-width:1;stroke-linecap:square;opacity:0.5"
     d="M 10.5 6 C 8.3353558 6 6.53001 7.5299022 6.0996094 9.5664062 C 6.6785919 9.8376562 7.3183645 10 8 10 C 10.164644 10 11.96999 8.4700978 12.400391 6.4335938 C 11.821408 6.1623438 11.181635 6 10.5 6 z " />
  <path
     id="path867"
     style="opacity:0.5;fill:#808080;fill-opacity:1;fill-rule:evenodd;stroke-width:1;stroke-linecap:square"
     d="M 8 6.7597656 C 6.7948773 7.567166 6 8.9404553 6 10.5 C 6 12.059544 6.7948773 13.432834 8 14.240234 C 9.2051228 13.432834 10 12.059544 10 10.5 C 10 8.9404553 9.2051228 7.567166 8 6.7597656 z " />
  <path
     id="path869"
     style="opacity:0.5;fill:#808080;fill-opacity:1;fill-rule:evenodd;stroke-width:1;stroke-linecap:square"
     d="M 5.5 6 C 4.8183645 6 4.1785919 6.1623438 3.5996094 6.4335938 C 4.03001 8.4700978 5.8353558 10 8 10 C 8.6816353 10 9.3214081 9.8376562 9.9003906 9.5664062 C 9.4699899 7.5299022 7.6646438 6 5.5 6 z " />
  <path
     id="path874"
     style="fill:#808080;fill-opacity:1;fill-rule:evenodd;stroke-width:1;stroke-linecap:square;opacity:1"
     d="M 8 6.7597656 C 7.0426465 7.4011672 6.3459439 8.4008382 6.0996094 9.5664062 C 6.6785919 9.8376562 7.3183645 10 8 10 C 8.6816353 10 9.3214081 9.8376562 9.9003906 9.5664062 C 9.6540561 8.4008382 8.9573535 7.4011672 8 6.7597656 z " />
</svg>
