<?xml version="1.0" encoding="UTF-8" standalone="no"?>
<svg
   version="1.1"
   viewBox="0 0 16 16"
   id="svg1005"
   sodipodi:docname="preferences-system-network-proxy-symbolic.svg"
   inkscape:version="1.2 (1:1.2.1+202207142221+cd75a1ee6d)"
   xmlns:inkscape="http://www.inkscape.org/namespaces/inkscape"
   xmlns:sodipodi="http://sodipodi.sourceforge.net/DTD/sodipodi-0.dtd"
   xmlns="http://www.w3.org/2000/svg"
   xmlns:svg="http://www.w3.org/2000/svg">
  <defs
     id="defs1009" />
  <sodipodi:namedview
     id="namedview1007"
     pagecolor="#ffffff"
     bordercolor="#666666"
     borderopacity="1.0"
     inkscape:showpageshadow="2"
     inkscape:pageopacity="0.0"
     inkscape:pagecheckerboard="0"
     inkscape:deskcolor="#d1d1d1"
     showgrid="true"
     inkscape:zoom="41.7193"
     inkscape:cx="8.0658113"
     inkscape:cy="8.3414631"
     inkscape:window-width="1920"
     inkscape:window-height="1043"
     inkscape:window-x="0"
     inkscape:window-y="0"
     inkscape:window-maximized="1"
     inkscape:current-layer="svg1005">
    <inkscape:grid
       type="xygrid"
       id="grid1205" />
  </sodipodi:namedview>
  <path
     d="m 3.9854,2 c -0.6604,-4.819e-4 -1.1835,0.05961 -1.6231,0.22461 -0.42347,0.15138 -0.77872,0.44854 -1.0017,0.83789 -0.29221,0.52631 -0.34285,1.1878 -0.36068,1.9375 0.017835,0.74966 0.068478,1.4112 0.36068,1.9375 0.22296,0.38935 0.57821,0.68651 1.0017,0.83789 0.4396,0.165 0.96268,0.22413 1.6231,0.22461 l 8.0291,0.0059 c 0.65939,4.82e-4 1.1835,-0.06061 1.6231,-0.22461 0.42347,-0.15138 0.77872,-0.44854 1.0017,-0.83789 0.2921,-0.52819 0.34277,-1.1919 0.36068,-1.9434 -0.01831,-0.74631 -0.07006,-1.4062 -0.36068,-1.9316 -0.22296,-0.38935 -0.57821,-0.68651 -1.0017,-0.83789 -0.4396,-0.16404 -0.96368,-0.22413 -1.6231,-0.22461 z m 0,1 8.0291,0.0059 c 0.59416,4.34e-4 1.0093,0.06316 1.2702,0.16016 0.26095,0.098 0.37497,0.20372 0.47634,0.38672 0.13748,0.24819 0.18986,0.78378 0.22151,1.4473 -0.03146,0.6694 -0.08327,1.2094 -0.22151,1.459 -0.10137,0.183 -0.21539,0.28872 -0.47634,0.38672 -0.26095,0.097 -0.67608,0.16059 -1.2702,0.16016 l -8.0291,-0.0059 c -0.59416,-4.34e-4 -1.0093,-0.06316 -1.2702,-0.16016 -0.26095,-0.097 -0.37597,-0.20272 -0.47634,-0.38672 -0.13786,-0.24885 -0.18995,-0.78669 -0.22151,-1.4531 0.031554,-0.66644 0.083653,-1.2042 0.22151,-1.4531 0.10036,-0.184 0.21539,-0.28972 0.47634,-0.38672 0.26095,-0.097 0.67608,-0.16059 1.2702,-0.16016 z"
     solid-color="#000000"
     stroke-width="1.0018"
     style="text-indent:0;text-decoration-line:none;text-decoration-style:solid;text-decoration-color:#000000;text-transform:none;white-space:normal;isolation:auto;mix-blend-mode:normal;fill:#808080"
     id="path991" />
  <rect
     x="11"
     y="5"
     width="2"
     height="1"
     id="rect997"
     style="fill:#808080" />
  <rect
     x="2"
     y="10"
     width="12"
     height="1"
     fill-rule="evenodd"
     stroke-linecap="square"
     id="rect999"
     style="fill:#808080" />
  <rect
     x="7"
     y="8"
     width="2"
     height="1"
     fill-rule="evenodd"
     id="rect1001"
     style="fill:#808080" />
  <rect
     style="fill:#808080;fill-rule:evenodd;stroke-width:2;stroke-linecap:square;stroke-linejoin:round;stroke-dasharray:4, 8"
     id="rect1213"
     width="1"
     height="1"
     x="13"
     y="11" />
  <path
     id="rect1215"
     style="fill:#808080;fill-rule:evenodd;stroke-width:2;stroke-linecap:square;stroke-linejoin:round;stroke-dasharray:4, 8"
     d="m 12,12 v 3 h 3 v -3 z m 1,1 h 1 v 1 h -1 z"
     sodipodi:nodetypes="cccccccccc" />
  <rect
     style="fill:#808080;fill-rule:evenodd;stroke-width:2;stroke-linecap:square;stroke-linejoin:round;stroke-dasharray:4, 8"
     id="rect1217"
     width="1"
     height="1"
     x="2"
     y="11" />
  <path
     id="rect1219"
     style="fill:#808080;fill-rule:evenodd;stroke-width:2;stroke-linecap:square;stroke-linejoin:round;stroke-dasharray:4, 8"
     d="m 1,12 v 3 h 3 v -3 z m 1,1 h 1 v 1 h -1 z"
     sodipodi:nodetypes="cccccccccc" />
</svg>
