<svg xmlns="http://www.w3.org/2000/svg" width="16" height="16"><g style="display:inline"><path d="M640 220a8.162 8.162 0 0 0-.7.035c-.12.013-.24.027-.359.045a7.462 7.462 0 0 0-.416.063 7.97 7.97 0 0 0-.37.082 7.166 7.166 0 0 0-.42.107c-.11.034-.218.07-.325.107a8 8 0 0 0-.433.16 7.927 7.927 0 0 0-.319.143c-.132.06-.263.123-.392.19A8 8 0 0 0 632 228a8 8 0 0 0 4.129 7h.018a8 8 0 0 0 3.673.992l.18.008a7.18 7.18 0 0 0 1.059-.08 8.34 8.34 0 0 0 .416-.062c.117-.024.235-.05.351-.079a5.57 5.57 0 0 0 .719-.205c.163-.053.324-.112.482-.175.098-.041.195-.084.291-.13a8 8 0 0 0 3.682-3.398v-.017a8 8 0 0 0 .992-3.674L648 228a8.162 8.162 0 0 0-.035-.699 8.036 8.036 0 0 0-.045-.36 7.992 7.992 0 0 0-.062-.415 8.1 8.1 0 0 0-.082-.372 7.96 7.96 0 0 0-.108-.42 7.986 7.986 0 0 0-.107-.324 8 8 0 0 0-.16-.433 8.071 8.071 0 0 0-.143-.319 8.025 8.025 0 0 0-.19-.392 8 8 0 0 0-3.158-3.24l-.015-.002a8 8 0 0 0-2.236-.846 8.028 8.028 0 0 0-.692-.113l-.098-.016h-.011a7.772 7.772 0 0 0-.506-.031A7.296 7.296 0 0 0 640 220zm0 1a7 7 0 0 1 7 7 7 7 0 0 1-7 7 7 7 0 0 1-7-7 7 7 0 0 1 7-7zm3.578 3.988a.469.469 0 0 0-.334.086l-3.36 2.002a1.002 1.002 0 0 0-.782.008l-2.346-.992c-.206-.152-.487-.094-.592.047l-.086.113c-.126.17-.106.496.1.648l2.33.983a1 1 0 0 0 .492.98v2.637c0 .277.209.5.469.5h.062c.26 0 .469-.223.469-.5v-2.635a1 1 0 0 0 .49-1l3.332-1.982c.206-.152.226-.479.1-.649l-.086-.113a.377.377 0 0 0-.258-.133z" style="color:#000;font-style:normal;font-variant:normal;font-weight:400;font-stretch:normal;font-size:medium;line-height:normal;font-family:sans-serif;font-variant-ligatures:normal;font-variant-position:normal;font-variant-caps:normal;font-variant-numeric:normal;font-variant-alternates:normal;font-feature-settings:normal;text-indent:0;text-align:start;text-decoration:none;text-decoration-line:none;text-decoration-style:solid;text-decoration-color:#000;letter-spacing:normal;word-spacing:normal;text-transform:none;writing-mode:lr-tb;direction:ltr;text-orientation:mixed;dominant-baseline:auto;baseline-shift:baseline;text-anchor:start;white-space:normal;shape-padding:0;clip-rule:nonzero;display:inline;overflow:visible;visibility:visible;opacity:1;isolation:auto;mix-blend-mode:normal;color-interpolation:sRGB;color-interpolation-filters:linearRGB;solid-color:#000;solid-opacity:1;vector-effect:none;fill:gray;fill-opacity:1;fill-rule:nonzero;stroke:none;stroke-width:1.00000012;stroke-linecap:butt;stroke-linejoin:miter;stroke-miterlimit:4;stroke-dasharray:none;stroke-dashoffset:0;stroke-opacity:1;marker:none;color-rendering:auto;image-rendering:auto;shape-rendering:auto;text-rendering:auto;enable-background:accumulate" transform="translate(-632 -220)"/></g></svg>