<svg xmlns="http://www.w3.org/2000/svg" width="16" height="16"><g fill="gray"><path d="M1180.5-266.012a7.48 7.48 0 0 0-5.305 2.196c-2.926 2.925-2.926 7.683 0 10.609l.707-.707a6.494 6.494 0 0 1 0-9.195 6.497 6.497 0 0 1 9.198 0 6.494 6.494 0 0 1 0 9.195l.707.707c2.926-2.926 2.926-7.684 0-10.61a7.484 7.484 0 0 0-5.307-2.195z" color="#000" font-family="sans-serif" font-weight="400" overflow="visible" style="line-height:normal;font-variant-ligatures:normal;font-variant-position:normal;font-variant-caps:normal;font-variant-numeric:normal;font-variant-alternates:normal;font-feature-settings:normal;text-indent:0;text-align:start;text-decoration:none;text-decoration-line:none;text-decoration-style:solid;text-decoration-color:#000;text-transform:none;text-orientation:mixed;shape-padding:0;isolation:auto;mix-blend-mode:normal" transform="translate(-1173 266.012)"/><path d="M1180.5-263.008a4.51 4.51 0 0 0-3.184 1.305 4.45 4.45 0 0 0 0 6.32l.705-.71a3.43 3.43 0 0 1 0-4.9 3.523 3.523 0 0 1 4.957 0 3.43 3.43 0 0 1 0 4.9l.706.71a4.45 4.45 0 0 0 0-6.32 4.51 4.51 0 0 0-3.184-1.305z" color="#000" font-family="sans-serif" font-weight="400" overflow="visible" style="line-height:normal;font-variant-ligatures:normal;font-variant-position:normal;font-variant-caps:normal;font-variant-numeric:normal;font-variant-alternates:normal;font-feature-settings:normal;text-indent:0;text-align:start;text-decoration:none;text-decoration-line:none;text-decoration-style:solid;text-decoration-color:#000;text-transform:none;text-orientation:mixed;shape-padding:0;isolation:auto;mix-blend-mode:normal" transform="translate(-1173 266.012)"/><path d="M7.5 6.012a1.5 1.5 0 0 0-1.5 1.5 1.5 1.5 0 0 0 1 1.412v6.088h1V8.924a1.5 1.5 0 0 0 1-1.412 1.5 1.5 0 0 0-1.5-1.5z"/></g></svg>