<svg xmlns="http://www.w3.org/2000/svg" viewBox="0 0 16.015 16"><g fill="gray" color="#000"><path d="M200.18 81.004a6.99 6.99 0 0 0-6.248 3.492c-1.928 3.343-.776 7.63 2.57 9.563 3.346 1.933 7.635.792 9.563-2.551 1.928-3.343.775-7.633-2.57-9.566a6.98 6.98 0 0 0-3.315-.938zm-.182.996a6 6 0 0 1 6 6 6 6 0 0 1-6 6 6 6 0 0 1-6-6 6 6 0 0 1 6-6z" style="font-feature-settings:normal;font-variant-alternates:normal;font-variant-caps:normal;font-variant-ligatures:none;font-variant-numeric:normal;font-variant-position:normal;isolation:auto;mix-blend-mode:normal;shape-padding:0;text-decoration-color:#000;text-decoration-line:none;text-decoration-style:solid;text-indent:0;text-transform:none;white-space:normal" transform="translate(-192 -80)"/><path d="M6.69.122v1.545a6.485 6.485 0 0 1 2.632.005V.122zm-2.754.99L1.931 2.815l.988 1.178a6.466 6.466 0 0 1 2.017-1.691zm8.13.012-.994 1.183.17.09a6.5 6.5 0 0 1 1.845 1.604l1.006-1.198zM.455 5.34.014 7.936l1.515.267a6.477 6.477 0 0 1 .455-2.592zm15.085.003-1.523.268a6.49 6.49 0 0 1 .464 2.591l1.533-.27zM1.86 10.038l-1.351.78 1.33 2.272 1.338-.773a6.497 6.497 0 0 1-1.317-2.279zm12.301.003c-.136.422-.315.83-.535 1.215-.22.382-.48.74-.774 1.07l1.34.772 1.3-2.288zm-9.557 3.472-.535 1.469 2.48.884.526-1.445a6.495 6.495 0 0 1-2.304-.8 6.462 6.462 0 0 1-.167-.108zm6.813.015a6.473 6.473 0 0 1-2.474.898l.53 1.456 2.468-.916z"/><path d="M199.65 83.014a4.988 4.988 0 0 0-3.982 2.482 5.013 5.013 0 0 0 1.835 6.834 5.002 5.002 0 0 0 6.83-1.826 5.01 5.01 0 0 0-1.835-6.832 4.976 4.976 0 0 0-2.848-.658zm.352.986a4 4 0 0 1 4 4 4 4 0 0 1-4 4 4 4 0 0 1-4-4 4 4 0 0 1 4-4z" style="font-feature-settings:normal;font-variant-alternates:normal;font-variant-caps:normal;font-variant-ligatures:none;font-variant-numeric:normal;font-variant-position:normal;isolation:auto;mix-blend-mode:normal;shape-padding:0;text-decoration-color:#000;text-decoration-line:none;text-decoration-style:solid;text-indent:0;text-transform:none;white-space:normal" transform="translate(-192 -80)"/></g></svg>