<svg xmlns="http://www.w3.org/2000/svg" width="16" height="16"><path d="M4 1c-.658 0-1.18.06-1.617.225a1.88 1.88 0 0 0-.998.837c-.416.752-.37 1.674-.385 2.932v.94a2.884 2.884 0 0 1 1-.637V5c.015-1.26.058-2.087.26-2.453.1-.184.214-.29.474-.387C2.994 2.063 3.408 2 4 2l8 .006c.592 0 1.006.063 1.266.16.26.098.373.204.474.387.202.366.245 1.193.26 2.453V5.3c.378.14.714.36 1 .636V5c-.015-1.258.03-2.179-.385-2.932a1.88 1.88 0 0 0-.998-.838c-.438-.164-.96-.224-1.617-.224L4 1zm7 3v1h2V4h-2zM3.986 6c-.66 0-1.183.06-1.623.225a1.886 1.886 0 0 0-1.002.838C1.07 7.589 1.018 8.25 1 9c.018.75.07 1.411.361 1.938.223.389.579.686 1.002.837.44.165.963.225 1.623.225L7 12.002V13h2v-.996l3.014.002c.66 0 1.183-.06 1.623-.225a1.886 1.886 0 0 0 1.002-.838c.292-.528.343-1.191.361-1.943-.018-.746-.07-1.406-.361-1.932a1.886 1.886 0 0 0-1.002-.838c-.44-.164-.964-.224-1.623-.224L3.986 6zm0 1 8.028.006c.594 0 1.01.063 1.271.16.261.098.375.204.477.387.137.248.189.784.22 1.447-.031.67-.082 1.21-.22 1.459-.102.183-.216.289-.477.387-.26.097-.677.16-1.271.16L3.986 11c-.594 0-1.01-.063-1.271-.16-.261-.097-.376-.203-.477-.387-.138-.249-.189-.787-.22-1.453.031-.666.082-1.204.22-1.453.1-.184.216-.29.477-.387.26-.097.677-.16 1.271-.16zM11 9v1h2V9h-2zM1 14v1h14v-1H1z" style="line-height:normal;text-indent:0;text-align:start;text-decoration:none;text-decoration-line:none;text-decoration-style:solid;text-decoration-color:#000;text-transform:none;white-space:normal;isolation:auto;mix-blend-mode:normal;solid-color:#000;solid-opacity:1;fill:gray;stroke-width:1.00182;marker:none"/></svg>