<?xml version='1.0' encoding='UTF-8'?>
<!-- Created with Inkscape (http://www.inkscape.org/) and export_objects.py -->
<svg xmlns:cc="http://creativecommons.org/ns#" xmlns:dc="http://purl.org/dc/elements/1.1/" xmlns:inkscape="http://www.inkscape.org/namespaces/inkscape" xmlns:rdf="http://www.w3.org/1999/02/22-rdf-syntax-ns#" xmlns:sodipodi="http://sodipodi.sourceforge.net/DTD/sodipodi-0.dtd" xmlns:xlink="http://www.w3.org/1999/xlink" xmlns="http://www.w3.org/2000/svg" version="1.1" id="svg1" width="16" height="16" viewBox="0 0 16 16">

<sodipodi:namedview 
    objecttolerance="10" 
    gridtolerance="10" 
    guidetolerance="10" 
    id="namedview" 
    showgrid="true" 
    inkscape:zoom="27.166187"
    inkscape:cx="7.4837792"
    inkscape:cy="8.9906751"
    inkscape:window-x="0" 
    inkscape:window-y="27"> 
    <inkscape:grid type="xygrid" id="grid"/>
  </sodipodi:namedview>
  
<metadata
     id="metadata1906">
    <rdf:RDF>
      <cc:Work
         rdf:about="">
        <dc:format>image/svg+xml</dc:format>
        <dc:type
           rdf:resource="http://purl.org/dc/dcmitype/StillImage" />
        <cc:license
           rdf:resource="http://creativecommons.org/publicdomain/zero/1.0/" />
        <dc:title>LiveEffect Icons proposal</dc:title>
        <dc:date>13 Jan 2019</dc:date>
        <dc:creator>
          <cc:Agent>
            <dc:title>Ramón Miranda</dc:title>
          </cc:Agent>
        </dc:creator>
        <dc:rights>
          <cc:Agent>
            <dc:title>see the license tab</dc:title>
          </cc:Agent>
        </dc:rights>
        <dc:subject>
          <rdf:Bag>
            <rdf:li>icon ui</rdf:li>
          </rdf:Bag>
        </dc:subject>
        <dc:description>This is a contribution with Inkscape Project from
Ramon Miranda www.ramonmiranda.com (design and SVG file)
Jabiertxo (SVG stuff to integrate them in UI)</dc:description>
        <dc:publisher>
          <cc:Agent>
            <dc:title></dc:title>
          </cc:Agent>
        </dc:publisher>
        <dc:identifier></dc:identifier>
        <dc:source />
        <dc:relation />
        <dc:language>-</dc:language>
        <dc:coverage />
        <dc:contributor>
          <cc:Agent>
            <dc:title>Ramon Miranda
Jabier Arraiza</dc:title>
          </cc:Agent>
        </dc:contributor>
      </cc:Work>
      <cc:License
         rdf:about="http://creativecommons.org/publicdomain/zero/1.0/">
        <cc:permits
           rdf:resource="http://creativecommons.org/ns#Reproduction" />
        <cc:permits
           rdf:resource="http://creativecommons.org/ns#Distribution" />
        <cc:permits
           rdf:resource="http://creativecommons.org/ns#DerivativeWorks" />
      </cc:License>
    </rdf:RDF>
  </metadata>
  <g inkscape:groupmode="layer"
     id="layercompo"
     inkscape:label="attach-path">
        <path 
            id="rect22048" 
            d="M 0,0 H 16 V 16 H 0 Z" 
            style="opacity:0;fill:none" />
        <path
           id="path9609"
           d="m 7.784499,2.476286 c -0.693345,0 -1.258745,0.564914 -1.258745,1.258238 0,0.06805 0.0075,0.134542 0.01746,0.199715 C 6.282085,4.245193 6.114859,4.623814 6.043571,5.020318 5.898002,5.828439 6.021125,6.733794 6.165987,7.674511 6.38987,9.12453 6.639939,10.63054 6.413272,11.72616 c -0.01995,0 -0.04115,-0.003 -0.06194,-0.003 -0.318324,0 -0.606719,0.12305 -0.828814,0.31924 C 4.271593,11.55897 3.650284,11.06483 3.415802,10.65437 3.100264,10.10182 3.27227,9.530944 3.605225,8.798977 3.938139,8.066916 4.461972,7.291214 4.405066,6.374473 4.376384,5.916063 4.150216,5.442751 3.728098,5.078861 3.306272,4.714868 2.708657,4.43124 1.865461,4.184612 L 1.582636,5.151168 c 0.761599,0.222731 1.232516,0.47024 1.487408,0.690127 0.25485,0.219938 0.31583,0.381465 0.329173,0.594681 0.0266,0.426623 -0.345301,1.143574 -0.710471,1.946379 -0.36517,0.802781 -0.695091,1.809785 -0.146567,2.770285 0.402705,0.70475 1.199512,1.2901 2.55141,1.81112 0,0.006 0,0.0121 0,0.0181 0,0.69323 0.56565,1.25872 1.258745,1.25872 0.693304,0 1.260242,-0.56549 1.260242,-1.25872 0,-0.28557 -0.09951,-0.54642 -0.261168,-0.758 C 7.802456,10.76935 7.394472,9.021604 7.162525,7.520487 7.020489,6.600799 6.933821,5.763165 7.035578,5.198804 7.062597,5.047499 7.097057,4.920793 7.141367,4.809708 c 0.189132,0.113957 0.408234,0.183491 0.644462,0.183491 0.367207,0 0.69534,-0.16151 0.925541,-0.413679 0.606177,0.291737 0.869091,0.569574 0.977914,0.800285 0.165189,0.350289 0.05915,0.805951 -0.01,1.461404 -0.06647,0.655527 0.01247,1.525853 0.773156,2.266096 0.75981,0.74025 2.09035,1.388425 4.5141,2.037875 l 0.26213,-0.97441 C 12.88204,9.541863 11.69205,8.908956 11.15537,8.3862 10.61894,7.863444 10.62576,7.489208 10.68142,6.94351 10.73658,6.397713 10.94836,5.693324 10.59778,4.950385 10.35374,4.433527 9.867941,4.002293 9.037882,3.623294 8.981226,2.981796 8.440766,2.476215 7.785206,2.476215 Z m 0,0.503689 c 0.422824,0 0.754491,0.331551 0.754491,0.754549 0,0.422924 -0.331667,0.755056 -0.754491,0.755056 -0.423115,0 -0.755031,-0.332132 -0.755031,-0.755056 0,-0.422998 0.331916,-0.754549 0.755031,-0.754549 z M 6.351004,12.2269 c 0.422824,0 0.756528,0.33203 0.756528,0.75506 0,0.42289 -0.333704,0.75454 -0.756528,0.75454 -0.422866,0 -0.755031,-0.33165 -0.755031,-0.75454 0,-0.42303 0.332165,-0.75506 0.755031,-0.75506 z"
           style="opacity:1;" />
    </g>
</svg>
