<?xml version="1.0" encoding="UTF-8" standalone="no"?>
<svg
   xmlns:dc="http://purl.org/dc/elements/1.1/"
   xmlns:cc="http://creativecommons.org/ns#"
   xmlns:rdf="http://www.w3.org/1999/02/22-rdf-syntax-ns#"
   xmlns:svg="http://www.w3.org/2000/svg"
   xmlns="http://www.w3.org/2000/svg"
   xmlns:sodipodi="http://sodipodi.sourceforge.net/DTD/sodipodi-0.dtd"
   xmlns:inkscape="http://www.inkscape.org/namespaces/inkscape"
   inkscape:version="1.0alpha2 (e9298ea62f, 2019-07-05, custom)"
   sodipodi:docname="boundingbox_bottom_left-symbolic.svg"
   viewBox="0 0 16 16"
   height="16"
   width="16"
   id="svg1"
   version="1.1">


  
<metadata
     id="metadata1510">
    <rdf:RDF>
      <cc:Work
         rdf:about="">
        <dc:format>image/svg+xml</dc:format>
        <dc:type
           rdf:resource="http://purl.org/dc/dcmitype/StillImage" />
      </cc:Work>
    </rdf:RDF>
  </metadata>
  <defs
     id="defs1508" />
  <sodipodi:namedview
     inkscape:current-layer="svg1"
     inkscape:window-maximized="1"
     inkscape:window-y="27"
     inkscape:window-x="0"
     inkscape:window-height="704"
     inkscape:window-width="1360"
     inkscape:cy="8"
     inkscape:cx="8"
     inkscape:zoom="31.5625"
     showgrid="true"
     id="namedview"
     guidetolerance="10"
     gridtolerance="10"
     objecttolerance="10">
    <inkscape:grid
       id="grid"
       type="xygrid" />
  </sodipodi:namedview>
  <g
     inkscape:label="00356"
     id="boundingbox_bottom_left">
    <title
       id="title40612">boundingbox_bottom_left</title>
    <g
       transform="rotate(-90,8,8)"
       id="g40614">
      <path
         style="opacity:0;fill:none"
         d="M 0,0 H 16 V 16 H 0 Z"
         id="rect40616"
         inkscape:connector-curvature="0" />
      <path
         style="opacity:1"
         inkscape:connector-curvature="0"
         id="path40620"
         d="M 4,14 V 4 H 14 V 6 H 6 v 8 z" />
      <path
         
         style="stroke-linecap:butt;"
         d="M 5,0 C 2.2444986,0 0,2.2444986 0,5 0,7.7555014 2.2444986,10 5,10 7.7555014,10 10,7.7555014 10,5 10,2.2444986 7.7555014,0 5,0 Z M 5,1 C 7.2150613,1 9,2.7849387 9,5 9,7.2150613 7.2150613,9 5,9 2.7849387,9 1,7.2150613 1,5 1,2.7849387 2.7849387,1 5,1 Z"
         id="circle40618"
         inkscape:connector-curvature="0" />
    </g>
  </g>
</svg>
