<svg version="1.1" viewBox="0 0 16 16" xmlns="http://www.w3.org/2000/svg">
 <path d="m3.4462 5.3231c.2051.00383.41334.028554.61914.0686.055368.010795.11004.022983.16541.035867-.20267.18665-.39071.38897-.56343.60626-.41508-.045618-.78142.006268-1.0896.17516-.3719.20406-.69575.59129-.91827 1.3253a.34826.34826 0 11-.66615-.20232c.25908-.8542.69471-1.4288 1.2505-1.7335.34753-.19048.7264-.27127 1.1154-.27545.029251-.0003483.057805-.0003483.087056 0zm9.4292.2939c.27928-.00139.55368.036912.8184.12606.70599.23888 1.2825.86012 1.5931 1.8849a.34826.34826 0 11-.66594.20232c-.26698-.88101-.668-1.2637-1.1503-1.4267-.315-.10621-.69074-.11039-1.0992-.034822-.15252-.21277-.31967-.41334-.49831-.60069.33499-.09228.67242-.14974 1.0022-.15113zm-10.446 2.9348c.019152 0 .037608.0006964.056761.00104-.0491.20685-.10795.43981-.14904.69889-.18038.00557-.34857.033778-.50284.085663-.48229.16297-.8831.54707-1.1502 1.4277a.34826.34826 0 11-.66615-.20232c.31062-1.0248.88728-1.6461 1.5931-1.8846.265-.089494.5394-.12745.81833-.12641zm11.142.29599c.27907-.00104.55361.036912.81833.12641.70599.23853 1.2836.85977 1.5942 1.8846a.34854.34854 0 11-.66706.20232c-.26698-.88066-.668-1.2648-1.1503-1.4277-.20855-.070341-.44423-.09611-.69753-.083574-.01229-.2361-.03716-.46871-.07508-.69645.0592-.00383.11854-.00522.17735-.00557zm-11.134 3.1274c.053278.22913.11944.45304.1971.67033-.45095.1762-.82564.56308-1.0795 1.4006a.34826.34826 0 11-.66615-.20232c.304-1.0029.86325-1.6189 1.5486-1.8686zm10.76.18526c.13254.02055.2634.05119.39182.09437.70599.23888 1.2825.86012 1.5931 1.8849a.34826.34826 0 11-.66595.20232c-.26698-.88101-.668-1.2637-1.1503-1.4267-.1186-.04005-.24675-.06477-.38082-.07696.08357-.21973.15426-.44608.21207-.678z" color="#000000" stroke-width=".034822" style="text-indent:0;text-transform:none"/>
 <path d="m7.6211 4.6211c-2.4206.0243-4.0845 1.7316-4.6152 3.9746-.09712.41879-.23085.92547-.20508 1.4121l-.0097656.71094c.053 2.534 1.7497 4.623 3.959 5.0215l.74805-.73828c-.15907-.1662-.47948-.9696-.072266-4.8457l.082031-.70312c.16032-1.4792.43215-3.198.68555-4.7988-.16952-.028036-.37189-.027403-.57227-.033203zm1.2383.11133c-.25302 1.5979-.50257 3.2491-.66211 4.7266l-.070312.71484c-.41261 3.9015-.085725 4.6924.072266 4.8516.32382.21518.63047.47771.93945.7207 1.9981-.42309 3.5245-2.2339 3.748-4.4824l.091797-.71875c.02374-.21152.037109-.42596.037109-.64453 0-2.663-1.8168-4.8555-4.1562-5.168zm-2.918 1.9102a1 1 0 011 1 1 1 0 01-1 1 1 1 0 01-1-1 1 1 0 011-1zm4.582.46484a1 1 0 011 1 1 1 0 01-1 1 1 1 0 01-1-1 1 1 0 011-1zm-5.3203 4.1406a1 1 0 011 1 1 1 0 01-1 1 1 1 0 01-1-1 1 1 0 011-1zm4.7734.029297a1 1 0 011 1 1 1 0 01-1 1 1 1 0 01-1-1 1 1 0 011-1z" stroke="#000" stroke-width=".5"/>
 <path d="m8.3819 1.9585c1.5899 0 2.8805.96103 2.8805 2.1449 0 .30132-.05045.61991-.23505.84772-.01287.015887-.0274.031043-.04135.046794-.61086-.41265-1.3086-.68983-2.0589-.79005-.38723-.073764-.86419-.10301-1.2797-.11426h-.01415c-.76539.0077522-1.4634.17687-2.0817.4701-.039022-.14717-.050061-.30579-.050061-.46032 0-1.1838 1.2906-2.1449 2.8805-2.1449z" stroke="#000" stroke-linejoin="round" stroke-width=".020915"/>
 <g fill="none" stroke="#000" stroke-linecap="round" stroke-width=".52234">
  <path d="m9.2824 3.8699s1.3125-4.7209 4.4904-2.9073"/>
  <path d="m7.5866 3.6488s-1.3821-4.6861-4.56-2.8725"/>
 </g>
</svg>
