<?xml version='1.0' encoding='UTF-8'?>
<!-- Created with Inkscape (http://www.inkscape.org/) and export_objects.py -->
<svg xmlns:cc="http://creativecommons.org/ns#" xmlns:dc="http://purl.org/dc/elements/1.1/" xmlns:inkscape="http://www.inkscape.org/namespaces/inkscape" xmlns:rdf="http://www.w3.org/1999/02/22-rdf-syntax-ns#" xmlns:sodipodi="http://sodipodi.sourceforge.net/DTD/sodipodi-0.dtd" xmlns:xlink="http://www.w3.org/1999/xlink" xmlns="http://www.w3.org/2000/svg" version="1.1" id="svg1" width="16" height="16" viewBox="0 0 16 16" sodipodi:docname="color-fill-symbolic.svg">
<sodipodi:namedview objecttolerance="10" gridtolerance="10" guidetolerance="10" id="namedview" showgrid="true" inkscape:zoom="0.6002936" inkscape:cx="732.67439" inkscape:cy="-567.94603" inkscape:window-width="1920" inkscape:window-height="1016" inkscape:window-x="0" inkscape:window-y="27" inkscape:window-maximized="1" inkscape:current-layer="layer1">
    <inkscape:grid type="xygrid" id="grid"/>
  </sodipodi:namedview>
  <g transform="matrix(0.666667,0,0,0.666667,-190,-640.24145)" id="color-fill" inkscape:label="00149">
      <path inkscape:connector-curvature="0" id="rect26190" d="m 285,960.36218 h 24 v 24 h -24 z" style="opacity:0;fill:none"/>
      <path style="opacity:1" d="m 297,966.3622 -3.7188,1.4687 c 0.014,-0.018 -0.029,-0.042 -0.4062,0.031 -6,1.1662 -6.375,2.4859 -6.375,4.5 v 7.5 c 0,0.831 0.669,1.5 1.5,1.5 0.831,0 2,-0.169 2,-1 v -10 c 7,11 0,0.016 7.1875,11.625 0.5755,0.8523 1.5948,1.1547 2.2812,0.6562 l 7.4688,-5.4062 c 0.6864,-0.4985 0.763,-1.5852 0.1875,-2.4375 L 303,968.7056 v 2.1563 1.5 c 0,0.554 -0.446,1 -1,1 h -4 c -0.554,0 -1,-0.446 -1,-1 v -0.5 -4.5 -1 z" id="path26192" inkscape:connector-curvature="0"/>
      <path inkscape:connector-curvature="0" id="rect26194" d="m 299,960.36218 h 2 c 0.554,0 1,0.446 1,1 v 10 c 0,0.554 -0.446,1 -1,1 h -2 c -0.554,0 -1,-0.446 -1,-1 v -10 c 0,-0.554 0.446,-1 1,-1 z" style="opacity:1"/>
    </g>
    </svg>
