<?xml version="1.0" encoding="UTF-8" standalone="no"?>
<!-- Created with Inkscape (http://www.inkscape.org/) -->

<svg
   width="16"
   height="16"
   viewBox="0 0 16 16"
   version="1.1"
   id="svg1"
   inkscape:version="1.3-dev (ea6d774a84, 2023-01-31, custom)"
   xml:space="preserve"
   sodipodi:docname="color-palette-symbolic.svg"
   xmlns:inkscape="http://www.inkscape.org/namespaces/inkscape"
   xmlns:sodipodi="http://sodipodi.sourceforge.net/DTD/sodipodi-0.dtd"
   xmlns="http://www.w3.org/2000/svg"
   xmlns:svg="http://www.w3.org/2000/svg"><sodipodi:namedview
     id="namedview1"
     pagecolor="#ffffff"
     bordercolor="#000000"
     borderopacity="0.25"
     inkscape:showpageshadow="2"
     inkscape:pageopacity="0.0"
     inkscape:pagecheckerboard="true"
     inkscape:deskcolor="#d1d1d1"
     inkscape:document-units="px"
     inkscape:zoom="28.113794"
     showgrid="false"
     inkscape:cx="12.965166"
     inkscape:cy="8.9102169"
     inkscape:current-layer="layer1"><inkscape:grid
       id="grid1"
       visible="false"
       spacingx="1"
       spacingy="1"
       originx="0"
       originy="0" /></sodipodi:namedview><defs
     id="defs1" /><g
     inkscape:label="Layer 1"
     inkscape:groupmode="layer"
     id="layer1"><path
       id="path1"
       style="color:#000000;fill:#000000;stroke-miterlimit:7;-inkscape-stroke:none"
       d="M 8,0.5 C 3.8655717,0.5 0.5,3.8655717 0.5,8 c -1.1e-7,4.134429 3.3655717,7.5 7.5,7.5 0.6702466,0 1.2247478,-0.179741 1.609375,-0.525391 0.3846272,-0.345648 0.552415,-0.827279 0.556641,-1.257812 0.0071,-0.721558 -0.4839412,-1.215569 -0.7500004,-1.4375 -0.1330294,-0.110966 -0.2096496,-0.186708 -0.2421875,-0.226563 -0.193281,-0.236744 0.099752,-0.437158 0.2109375,-0.492187 0.205724,-0.10182 0.5996687,-0.134766 0.9453124,-0.134766 1.53623,0 2.821598,-0.411238 3.738281,-1.164062 C 14.985043,9.5088936 15.5,8.4067283 15.5,7.1992188 15.5,3.213505 11.823856,0.49999989 8,0.5 Z m 0,1.3007812 c 3.216884,0 6.199219,2.2180931 6.199219,5.3984376 0,0.8547836 -0.323995,1.5387131 -0.957031,2.0585937 C 12.60915,9.7776931 11.635383,10.125 10.330078,10.125 c -0.4168982,0 -0.9426964,0.01824 -1.4589842,0.240234 -0.516288,0.221997 -1.0234311,0.796749 -1.0332032,1.527344 -0.00471,0.35217 0.1140871,0.682358 0.2773438,0.91211 0.1632565,0.22975 0.3421298,0.368989 0.46875,0.474609 0.2532401,0.211239 0.2888002,0.273856 0.28125,0.425781 -0.00132,0.134084 -0.032836,0.21991 -0.125,0.302734 C 8.6480699,14.090636 8.4474606,14.199219 8,14.199219 4.5681423,14.199219 1.8007812,11.431859 1.8007812,8 1.8007812,4.5681424 4.5681424,1.8007813 8,1.8007812 Z M 8.2109375,2.6679688 C 7.5081626,2.6673951 6.9380051,3.2366781 6.9375,3.9394531 6.9369257,4.642991 7.5073996,5.2134649 8.2109375,5.2128906 8.9137125,5.2123856 9.4829956,4.6422281 9.4824219,3.9394531 9.4819173,3.2374408 8.9129498,2.6684733 8.2109375,2.6679688 Z M 4.9746094,4.2050781 C 4.2710715,4.2045038 3.7005976,4.7749777 3.7011719,5.4785156 3.7016769,6.1812906 4.2718344,6.7505737 4.9746094,6.75 5.6766218,6.7494955 6.2455893,6.180528 6.2460938,5.4785156 6.2466675,4.7757406 5.6773844,4.2055831 4.9746094,4.2050781 Z m 6.3105466,0.09375 c -0.702775,5.053e-4 -1.272058,0.5706627 -1.271484,1.2734375 5.05e-4,0.7020122 0.569472,1.2709796 1.271484,1.2714844 0.702775,5.739e-4 1.272933,-0.5687092 1.273438,-1.2714844 5.74e-4,-0.7035381 -0.5699,-1.2740121 -1.273438,-1.2734375 z M 4.1230469,7.5332031 C 3.4202719,7.5337081 2.8509888,8.1038656 2.8515625,8.8066406 2.852067,9.508653 3.4210345,10.07762 4.1230469,10.078125 4.8258219,10.078699 5.3959794,9.5094156 5.3964844,8.8066406 5.3970587,8.1031027 4.8265848,7.5326288 4.1230469,7.5332031 Z"
       sodipodi:nodetypes="sssscssssssssssscssscsssscccccccccccccccccccc" /></g></svg>
