<?xml version='1.0' encoding='UTF-8'?>
<!-- Created with Inkscape (http://www.inkscape.org/) and export_objects.py -->
<svg xmlns:cc="http://creativecommons.org/ns#" xmlns:dc="http://purl.org/dc/elements/1.1/" xmlns:inkscape="http://www.inkscape.org/namespaces/inkscape" xmlns:rdf="http://www.w3.org/1999/02/22-rdf-syntax-ns#" xmlns:sodipodi="http://sodipodi.sourceforge.net/DTD/sodipodi-0.dtd" xmlns:xlink="http://www.w3.org/1999/xlink" xmlns="http://www.w3.org/2000/svg" version="1.1" id="svg1" width="16" height="16" viewBox="0 0 16 16" sodipodi:docname="connector-avoid-symbolic.svg">
<sodipodi:namedview objecttolerance="10" gridtolerance="10" guidetolerance="10" id="namedview" showgrid="true" inkscape:zoom="0.6002936" inkscape:cx="732.67439" inkscape:cy="-567.94603" inkscape:window-width="1920" inkscape:window-height="1016" inkscape:window-x="0" inkscape:window-y="27" inkscape:window-maximized="1" inkscape:current-layer="layer1">
    <inkscape:grid type="xygrid" id="grid"/>
  </sodipodi:namedview>
  <g transform="translate(-409,-867.36218)" id="connector-avoid" inkscape:label="00192">
      <path inkscape:connector-curvature="0" id="rect16120" d="m 409,867.36218 h 16 v 16 h -16 z" style="opacity:0;fill:none"/>
      <path inkscape:connector-curvature="0" id="rect16122" d="m 410,868.36218 h 4 c 0.554,0 1,0.446 1,1 v 1 c 0,0.554 -0.446,1 -1,1 h -4 c -0.554,0 -1,-0.446 -1,-1 v -1 c 0,-0.554 0.446,-1 1,-1 z" style="opacity:1"/>
      <path inkscape:connector-curvature="0" id="rect16124" d="m 420,879.36218 h 4 c 0.554,0 1,0.446 1,1 v 1 c 0,0.554 -0.446,1 -1,1 h -4 c -0.554,0 -1,-0.446 -1,-1 v -1 c 0,-0.554 0.446,-1 1,-1 z" style="opacity:1"/>
      <path inkscape:connector-curvature="0" id="path16128" d="m 411,873.3622 v 4 h 9 v -4 z m 1,1 h 7 v 2 h -7 z" style="opacity:1"/>
      <path inkscape:connector-curvature="0" style="opacity:1" d="m 415,357 v 1 h 7 v 9 h 1 v -10 h -1 z" transform="translate(0,512.3622)" id="rect16135"/>
    </g>
    </svg>
