<?xml version='1.0' encoding='UTF-8'?>
<!-- Created with Inkscape (http://www.inkscape.org/) and export_objects.py -->
<svg xmlns:cc="http://creativecommons.org/ns#" xmlns:dc="http://purl.org/dc/elements/1.1/" xmlns:inkscape="http://www.inkscape.org/namespaces/inkscape" xmlns:rdf="http://www.w3.org/1999/02/22-rdf-syntax-ns#" xmlns:sodipodi="http://sodipodi.sourceforge.net/DTD/sodipodi-0.dtd" xmlns:xlink="http://www.w3.org/1999/xlink" xmlns="http://www.w3.org/2000/svg" version="1.1" id="svg1" width="16" height="16" viewBox="0 0 16 16" sodipodi:docname="connector-ignore-symbolic.svg">
<sodipodi:namedview objecttolerance="10" gridtolerance="10" guidetolerance="10" id="namedview" showgrid="true" inkscape:zoom="0.6002936" inkscape:cx="732.67439" inkscape:cy="-567.94603" inkscape:window-width="1920" inkscape:window-height="1016" inkscape:window-x="0" inkscape:window-y="27" inkscape:window-maximized="1" inkscape:current-layer="layer1">
    <inkscape:grid type="xygrid" id="grid"/>
  </sodipodi:namedview>
  <g transform="translate(-379,-867.3622)" id="connector-ignore" inkscape:label="00191">
      <path inkscape:connector-curvature="0" id="rect16079" d="m 379,355 h 16 v 16 h -16 z" style="opacity:0;fill:none" transform="translate(0,512.3622)"/>
      <path inkscape:connector-curvature="0" id="rect16081" d="m 380,868.36218 h 4 c 0.554,0 1,0.446 1,1 v 1 c 0,0.554 -0.446,1 -1,1 h -4 c -0.554,0 -1,-0.446 -1,-1 v -1 c 0,-0.554 0.446,-1 1,-1 z" style="opacity:1"/>
      <path inkscape:connector-curvature="0" id="rect16083" d="m 390,879.36218 h 4 c 0.554,0 1,0.446 1,1 v 1 c 0,0.554 -0.446,1 -1,1 h -4 c -0.554,0 -1,-0.446 -1,-1 v -1 c 0,-0.554 0.446,-1 1,-1 z" style="opacity:1"/>
      <path inkscape:connector-curvature="0" id="rect16085" d="m 949.60941,102.7297 h 13.42234 c 0.55024,0 0.9932,0.32137 0.9932,0.72056 0,0.39919 -0.44296,0.72056 -0.9932,0.72056 h -13.42234 c -0.55023,0 -0.9932,-0.32137 -0.9932,-0.72056 0,-0.39919 0.44297,-0.72056 0.9932,-0.72056 z" style="opacity:1" transform="matrix(0.5011377,0.8653675,-0.8868833,0.4619935,0,0)"/>
      <path inkscape:connector-curvature="0" style="opacity:1" d="m 382,361 v 4 h 10 v -4 z m 1,1 h 8 v 2 h -8 z" transform="translate(0,512.3622)" id="rect16087"/>
    </g>
    </svg>
