<?xml version='1.0' encoding='UTF-8'?>
<!-- Created with Inkscape (http://www.inkscape.org/) and export_objects.py -->
<svg xmlns:cc="http://creativecommons.org/ns#" xmlns:dc="http://purl.org/dc/elements/1.1/" xmlns:inkscape="http://www.inkscape.org/namespaces/inkscape" xmlns:rdf="http://www.w3.org/1999/02/22-rdf-syntax-ns#" xmlns:sodipodi="http://sodipodi.sourceforge.net/DTD/sodipodi-0.dtd" xmlns:xlink="http://www.w3.org/1999/xlink" xmlns="http://www.w3.org/2000/svg" version="1.1" id="svg1" width="16" height="16" viewBox="0 0 16 16">

<sodipodi:namedview 
    objecttolerance="10" 
    gridtolerance="10" 
    guidetolerance="10" 
    id="namedview" 
    showgrid="true" 
    inkscape:zoom="27.166187"
    inkscape:cx="7.4837792"
    inkscape:cy="8.9906751"
    inkscape:window-x="0" 
    inkscape:window-y="27"> 
    <inkscape:grid type="xygrid" id="grid"/>
  </sodipodi:namedview>
  
<metadata
     id="metadata1906">
    <rdf:RDF>
      <cc:Work
         rdf:about="">
        <dc:format>image/svg+xml</dc:format>
        <dc:type
           rdf:resource="http://purl.org/dc/dcmitype/StillImage" />
        <cc:license
           rdf:resource="http://creativecommons.org/publicdomain/zero/1.0/" />
        <dc:title>LiveEffect Icons proposal</dc:title>
        <dc:date>13 Jan 2019</dc:date>
        <dc:creator>
          <cc:Agent>
            <dc:title>Ramón Miranda</dc:title>
          </cc:Agent>
        </dc:creator>
        <dc:rights>
          <cc:Agent>
            <dc:title>see the license tab</dc:title>
          </cc:Agent>
        </dc:rights>
        <dc:subject>
          <rdf:Bag>
            <rdf:li>icon ui</rdf:li>
          </rdf:Bag>
        </dc:subject>
        <dc:description>This is a contribution with Inkscape Project from
Ramon Miranda www.ramonmiranda.com (design and SVG file)
Jabiertxo (SVG stuff to integrate them in UI)</dc:description>
        <dc:publisher>
          <cc:Agent>
            <dc:title></dc:title>
          </cc:Agent>
        </dc:publisher>
        <dc:identifier></dc:identifier>
        <dc:source />
        <dc:relation />
        <dc:language>-</dc:language>
        <dc:coverage />
        <dc:contributor>
          <cc:Agent>
            <dc:title>Ramon Miranda
Jabier Arraiza</dc:title>
          </cc:Agent>
        </dc:contributor>
      </cc:Work>
      <cc:License
         rdf:about="http://creativecommons.org/publicdomain/zero/1.0/">
        <cc:permits
           rdf:resource="http://creativecommons.org/ns#Reproduction" />
        <cc:permits
           rdf:resource="http://creativecommons.org/ns#Distribution" />
        <cc:permits
           rdf:resource="http://creativecommons.org/ns#DerivativeWorks" />
      </cc:License>
    </rdf:RDF>
  </metadata>
  <g inkscape:groupmode="layer"
     id="layercompo"
     inkscape:label="copy-rotate">
        <path 
            id="rect22048" 
            d="M 0,0 H 16 V 16 H 0 Z" 
            style="opacity:0;fill:none" />
        <path
           id="path9609"
           d="M 9.667969 1.205078 L 5.998047 1.228516 L 6.580078 4.804688 L 6.8125 4.804688 L 9.134766 4.787109 L 9.667969 1.205078 z M 9.039062 1.75 L 8.667969 4.25 L 7.039062 4.261719 L 6.632812 1.765625 L 9.039062 1.75 z M 12.86133 2.880859 L 10.05469 5.173828 L 10.17188 5.373047 L 11.34766 7.376953 L 14.71875 6.046875 L 12.86133 2.880859 z M 2.949219 3.15625 L 1.136719 6.347656 L 4.523438 7.630859 L 4.638672 7.429688 L 5.787109 5.410156 L 2.949219 3.15625 z M 12.71484 3.699219 L 13.93164 5.775391 L 11.58008 6.703125 L 10.75586 5.298828 L 12.71484 3.699219 z M 3.107422 3.972656 L 5.087891 5.544922 L 4.283203 6.960938 L 1.919922 6.064453 L 3.107422 3.972656 z M 8 6.882812 L 6.882812 8 L 7.041016 8.158203 L 8 9.117188 L 9.117188 8 L 8 6.882812 z M 8 7.521484 L 8.478516 8 L 8 8.478516 L 7.521484 8 L 8 7.521484 z M 11.47461 8.365234 L 11.35938 8.568359 L 10.21289 10.58789 L 13.04883 12.8418 L 14.86328 9.650391 L 11.47461 8.365234 z M 4.650391 8.621094 L 1.28125 9.951172 L 3.138672 13.11719 L 5.943359 10.82422 L 5.826172 10.625 L 4.650391 8.621094 z M 11.71484 9.037109 L 14.08008 9.933594 L 12.89062 12.02344 L 10.91211 10.45312 L 11.71484 9.037109 z M 4.417969 9.294922 L 5.242188 10.69922 L 3.285156 12.29883 L 2.068359 10.22266 L 4.417969 9.294922 z M 9.417969 11.19141 L 9.1875 11.19531 L 6.863281 11.21289 L 6.330078 14.79492 L 10.00195 14.76953 L 9.417969 11.19141 z M 8.958984 11.73633 L 9.365234 14.23047 L 6.958984 14.24805 L 7.330078 11.74805 L 8.958984 11.73633 z"
           style="opacity:1;" />
    </g>
</svg>
