<?xml version="1.0" encoding="UTF-8" standalone="no"?>
<svg
   xmlns:dc="http://purl.org/dc/elements/1.1/"
   xmlns:cc="http://creativecommons.org/ns#"
   xmlns:rdf="http://www.w3.org/1999/02/22-rdf-syntax-ns#"
   xmlns:svg="http://www.w3.org/2000/svg"
   xmlns="http://www.w3.org/2000/svg"
   xmlns:sodipodi="http://sodipodi.sourceforge.net/DTD/sodipodi-0.dtd"
   xmlns:inkscape="http://www.inkscape.org/namespaces/inkscape"
   version="1.1"
   id="svg1"
   width="16"
   height="16"
   viewBox="0 0 16 16"
   sodipodi:docname="curvestitching-symbolic.svg"
   inkscape:version="1.0alpha (b90687801a, 2019-05-08, custom)">

  <defs
     id="defs1055">
    <inkscape:path-effect
       effect="bspline"
       id="path-effect1920"
       is_visible="true"
       weight="33.333333"
       steps="2"
       helper_size="0"
       apply_no_weight="true"
       apply_with_weight="true"
       only_selected="false" />
    <inkscape:path-effect
       only_selected="false"
       apply_with_weight="true"
       apply_no_weight="true"
       helper_size="0"
       steps="2"
       weight="33.333333"
       is_visible="true"
       id="path-effect1916"
       effect="bspline" />
    <inkscape:path-effect
       effect="bspline"
       id="path-effect1912"
       is_visible="true"
       weight="33.333333"
       steps="2"
       helper_size="0"
       apply_no_weight="true"
       apply_with_weight="true"
       only_selected="false" />
    <inkscape:path-effect
       only_selected="false"
       apply_with_weight="true"
       apply_no_weight="true"
       helper_size="0"
       steps="2"
       weight="33.333333"
       is_visible="true"
       id="path-effect1908"
       effect="bspline" />
    <inkscape:path-effect
       effect="bspline"
       id="path-effect1904"
       is_visible="true"
       weight="33.333333"
       steps="2"
       helper_size="0"
       apply_no_weight="true"
       apply_with_weight="true"
       only_selected="false" />
    <inkscape:path-effect
       effect="bspline"
       id="path-effect1900"
       is_visible="true"
       weight="33.333333"
       steps="2"
       helper_size="0"
       apply_no_weight="true"
       apply_with_weight="true"
       only_selected="false" />
    <inkscape:path-effect
       effect="dashed_stroke"
       id="path-effect1061"
       is_visible="true"
       numberdashes="8"
       holefactor="0"
       splitsegments="false"
       halfextreme="false"
       unifysegment="false"
       message="Añadir &lt;b&gt;«Rellenar entre muchos efectos»&lt;/b&gt; para añadir relleno." />
    <inkscape:path-effect
       effect="bspline"
       id="path-effect1059"
       is_visible="true"
       weight="33.333333"
       steps="2"
       helper_size="0"
       apply_no_weight="true"
       apply_with_weight="true"
       only_selected="false" />
  </defs>
  <sodipodi:namedview
     objecttolerance="10"
     gridtolerance="10"
     guidetolerance="10"
     id="namedview"
     showgrid="true"
     inkscape:zoom="27.166188"
     inkscape:cx="5.6693469"
     inkscape:cy="8.5050966"
     inkscape:window-x="0"
     inkscape:window-y="27"
     inkscape:snap-global="false"
     inkscape:window-width="1920"
     inkscape:window-height="1016"
     inkscape:window-maximized="1"
     inkscape:current-layer="layercompo">
    <inkscape:grid
       type="xygrid"
       id="grid" />
  </sodipodi:namedview>
  
<metadata
     id="metadata1906">
    <rdf:RDF>
      <cc:Work
         rdf:about="">
        <dc:format>image/svg+xml</dc:format>
        <dc:type
           rdf:resource="http://purl.org/dc/dcmitype/StillImage" />
        <cc:license
           rdf:resource="http://creativecommons.org/publicdomain/zero/1.0/" />
        <dc:title>LiveEffect Icons proposal</dc:title>
        <dc:date>13 Jan 2019</dc:date>
        <dc:creator>
          <cc:Agent>
            <dc:title>Ramón Miranda</dc:title>
          </cc:Agent>
        </dc:creator>
        <dc:rights>
          <cc:Agent>
            <dc:title>see the license tab</dc:title>
          </cc:Agent>
        </dc:rights>
        <dc:subject>
          <rdf:Bag>
            <rdf:li>icon ui</rdf:li>
          </rdf:Bag>
        </dc:subject>
        <dc:description>This is a contribution with Inkscape Project from
Ramon Miranda www.ramonmiranda.com (design and SVG file)
Jabiertxo (SVG stuff to integrate them in UI)</dc:description>
        <dc:publisher>
          <cc:Agent>
            <dc:title />
          </cc:Agent>
        </dc:publisher>
        <dc:identifier />
        <dc:source />
        <dc:relation />
        <dc:language>-</dc:language>
        <dc:coverage />
        <dc:contributor>
          <cc:Agent>
            <dc:title>Ramon Miranda
Jabier Arraiza</dc:title>
          </cc:Agent>
        </dc:contributor>
      </cc:Work>
      <cc:License
         rdf:about="http://creativecommons.org/publicdomain/zero/1.0/">
        <cc:permits
           rdf:resource="http://creativecommons.org/ns#Reproduction" />
        <cc:permits
           rdf:resource="http://creativecommons.org/ns#Distribution" />
        <cc:permits
           rdf:resource="http://creativecommons.org/ns#DerivativeWorks" />
      </cc:License>
    </rdf:RDF>
  </metadata>
  <g
     inkscape:groupmode="layer"
     id="layercompo"
     inkscape:label="curvestitching">
    <path
       id="rect22048"
       d="M 0,0 H 16 V 16 H 0 Z"
       style="opacity:0;fill:none" />
    <path
       inkscape:connector-curvature="0"
       id="path1888"
       d="m 7.5461455,0 c 0.2343588,0.07876763 0.4686507,0.15751279 0.6996078,0.24062839 m 0.6883963,0.27068838 c 0.2284445,0.0998035 0.4497774,0.2090464 0.6603817,0.33259094 M 10.198729,1.2692583 c 0.02499,0.021271 0.04971,0.042893 0.07417,0.064877 0.157391,0.1414948 0.303571,0.2979694 0.439336,0.466246 m 0.419889,0.6083816 c 0.124829,0.2101718 0.238107,0.4303237 0.340897,0.6562093 m 0.276349,0.686058 c 0.02965,0.083253 0.05809,0.1666997 0.08538,0.2501461 0.04969,0.1519459 0.09555,0.3038914 0.140177,0.4543788 m 0.215986,0.7075305 c 0.08038,0.2415115 0.169118,0.4720416 0.278891,0.6844251 m 0.428636,0.5993336 c 0.0488,0.048456 0.100513,0.09474 0.155438,0.1386751 0.132615,0.10608 0.283946,0.1984986 0.450589,0.2797345 m 0.692492,0.2577585 c 0.227486,0.065031 0.469304,0.1195845 0.720421,0.1673257 m 0.730021,0.1198168 c 0.241853,0.034936 0.487529,0.067054 0.733166,0.099167"
       style="color:#000000;font-style:normal;font-variant:normal;font-weight:normal;font-stretch:normal;font-size:medium;line-height:normal;font-family:sans-serif;font-variant-ligatures:normal;font-variant-position:normal;font-variant-caps:normal;font-variant-numeric:normal;font-variant-alternates:normal;font-variant-east-asian:normal;font-feature-settings:normal;font-variation-settings:normal;text-indent:0;text-align:start;text-decoration:none;text-decoration-line:none;text-decoration-style:solid;text-decoration-color:#000000;letter-spacing:normal;word-spacing:normal;text-transform:none;writing-mode:lr-tb;direction:ltr;text-orientation:mixed;dominant-baseline:auto;baseline-shift:baseline;text-anchor:start;white-space:normal;shape-padding:0;shape-margin:0;inline-size:0;clip-rule:nonzero;display:inline;overflow:visible;visibility:visible;opacity:1;isolation:auto;mix-blend-mode:normal;color-interpolation:sRGB;color-interpolation-filters:linearRGB;solid-color:#000000;solid-opacity:1;vector-effect:none;fill:#b3b3b3;fill-opacity:1;fill-rule:nonzero;stroke:none;stroke-width:0.8;stroke-linecap:butt;stroke-linejoin:miter;stroke-miterlimit:4;stroke-dasharray:none;stroke-dashoffset:0;stroke-opacity:1;color-rendering:auto;image-rendering:auto;shape-rendering:auto;text-rendering:auto;enable-background:accumulate;stop-color:#000000;stop-opacity:1" />
    <path
       inkscape:connector-curvature="0"
       id="path1890"
       d="M 0.8632811,6.3320313 0.6074218,7.0898438 C 0.8417805,7.1686118 1.0732289,7.2469377 1.298828,7.3281251 L 1.5703124,6.576172 C 1.3339973,6.4911282 1.0976399,6.410799 0.8632811,6.3320313 Z M 2.283203,6.8554688 1.9628905,7.5878907 c 0.2171749,0.09488 0.4252707,0.1987722 0.6191406,0.3125 L 2.986328,7.2089845 C 2.7589893,7.0756232 2.5229171,6.9601959 2.283203,6.8554688 Z M 3.646484,7.6757813 3.1289061,8.2851564 c 0.022253,0.018941 0.044618,0.037058 0.066406,0.056641 0.13993,0.1257972 0.270783,0.2665393 0.394532,0.4199218 L 4.212891,8.2597661 C 4.065109,8.0765955 3.905321,7.9052398 3.730469,7.7480474 3.703339,7.7236624 3.674209,7.6993823 3.646479,7.6757817 Z m 1.019531,1.2402344 -0.6875,0.4082031 C 4.094973,9.5202956 4.201343,9.7271796 4.298828,9.941406 L 5.027344,9.6093751 C 4.919248,9.3718306 4.799216,9.1402826 4.666015,8.9160157 Z M 5.316406,10.328125 4.5625,10.595703 c 0.02843,0.07983 0.05577,0.159943 0.08203,0.240235 0.0478,0.146174 0.09246,0.294122 0.136719,0.443359 l 0.767578,-0.226562 c -0.045,-0.151738 -0.09295,-0.307127 -0.144531,-0.464844 -0.02832,-0.0866 -0.05702,-0.173088 -0.08789,-0.259766 z M 5.759765,11.748047 5,12 c 0.08415,0.252842 0.181077,0.503032 0.304687,0.742188 L 6.013672,12.375 C 5.917736,12.189389 5.836375,11.978228 5.759765,11.748047 Z m 0.609376,1.125 -0.5625,0.568359 c 0.05869,0.05828 0.121204,0.114938 0.1875,0.167969 0.160032,0.128012 0.337075,0.234371 0.52539,0.326172 l 0.34961,-0.71875 c -0.144971,-0.07067 -0.269803,-0.148273 -0.375,-0.232422 -0.04356,-0.03484 -0.08609,-0.07269 -0.125,-0.111328 z m 1.126953,0.576172 -0.21875,0.769531 c 0.242671,0.06937 0.49415,0.126398 0.753906,0.175781 l 0.150391,-0.787109 c -0.242479,-0.0461 -0.473247,-0.09751 -0.685547,-0.158203 z m 1.398437,0.275391 -0.115234,0.792968 c 0.245455,0.03546 0.492644,0.0675 0.738281,0.09961 L 9.621094,13.824219 C 9.375457,13.792109 9.132781,13.759029 8.894531,13.72461 Z"
       style="opacity:0.4" />
    <path
       style="opacity:0.4"
       d="M 5.8359371,0.7226562 5.5800778,1.4804687 C 5.8144365,1.5592367 6.0458849,1.6375626 6.271484,1.71875 L 6.5429684,0.9667969 C 6.3066533,0.8817531 6.0702959,0.8014239 5.8359371,0.7226562 Z M 7.255859,1.2460937 6.9355465,1.9785156 c 0.2171749,0.09488 0.4252707,0.1987722 0.6191406,0.3125 L 7.958984,1.5996094 C 7.7316453,1.4662481 7.4955731,1.3508208 7.255859,1.2460937 Z M 8.61914,2.0664062 8.1015621,2.6757813 c 0.022253,0.018941 0.044618,0.037058 0.066406,0.056641 0.13993,0.1257972 0.270783,0.2665393 0.394532,0.4199218 L 9.185547,2.650391 C 9.037765,2.4672204 8.877977,2.2958647 8.703125,2.1386723 8.675995,2.1142873 8.646865,2.0900072 8.619135,2.0664066 Z m 1.019531,1.2402344 -0.6875,0.4082031 C 9.067629,3.9109205 9.173999,4.1178045 9.271484,4.3320309 L 10,4 C 9.891904,3.7624555 9.771872,3.5309075 9.638671,3.3066406 Z m 0.650391,1.4121093 -0.753906,0.267578 c 0.02843,0.07983 0.05577,0.159943 0.08203,0.240235 0.0478,0.146174 0.09246,0.294122 0.136719,0.443359 l 0.767578,-0.226562 c -0.045,-0.151738 -0.09295,-0.307127 -0.144531,-0.464844 -0.02832,-0.0866 -0.05702,-0.173088 -0.08789,-0.259766 z m 0.443359,1.419922 -0.759765,0.251953 c 0.08415,0.252842 0.181077,0.503032 0.304687,0.742188 l 0.708985,-0.367188 c -0.09594,-0.185611 -0.177297,-0.396772 -0.253907,-0.626953 z m 0.609376,1.125 -0.5625,0.568359 c 0.05869,0.05828 0.121204,0.114938 0.1875,0.167969 0.160032,0.128012 0.337075,0.234371 0.52539,0.326172 l 0.34961,-0.71875 c -0.144971,-0.07067 -0.269803,-0.148273 -0.375,-0.232422 -0.04356,-0.03484 -0.08609,-0.07269 -0.125,-0.111328 z M 12.46875,7.8398439 12.25,8.6093749 c 0.242671,0.06937 0.49415,0.126398 0.753906,0.175781 l 0.150391,-0.787109 c -0.242479,-0.0461 -0.473247,-0.09751 -0.685547,-0.158203 z m 1.398437,0.275391 -0.115234,0.792968 c 0.245455,0.03546 0.492644,0.0675 0.738281,0.09961 l 0.103516,-0.792969 c -0.245637,-0.03211 -0.488313,-0.06519 -0.726563,-0.099609 z"
       id="path1896"
       inkscape:connector-curvature="0" />
    <path
       d="M 7.0859375,3.1308594 C 6.6695305,3.9255529 6.2624548,4.6956716 5.7167969,5.2929688 5.1711205,5.8902861 4.446975,6.3598352 3.6972656,6.8417969 L 4.0332031,7.3671875 C 4.7829125,6.8852258 5.5561054,6.3912105 6.1757812,5.7128906 6.7954756,5.0345505 7.2222649,4.2146154 7.6386719,3.4199219 Z M 4.7939641,2.517158 C 4.56279,3.1581319 4.3480138,3.7497201 3.9066738,4.3202233 3.4653161,4.8907496 2.7546874,5.4791144 2.0313739,6.072312 L 2.3575131,6.6292799 C 3.0808265,6.0360823 3.8162635,5.4395798 4.3287362,4.7771258 4.8412268,4.1146489 5.0887693,3.4243436 5.3199434,2.7833697 Z M 3.6649721,0.7713866 C 3.27312,1.5663878 2.8872731,2.3421673 2.4403517,2.9199608 1.9934292,3.4977557 1.4538302,3.9215104 0.89119095,4.3605251 l 0.31654685,0.56452 C 1.7703769,4.4860303 2.3555102,4.0322039 2.8624141,3.3768633 3.3693191,2.7215212 3.7671248,1.9081207 4.158977,1.1131194 Z M 2.8546318,-1.1576777 C 2.4627889,-0.41015676 2.0787016,0.31984014 1.6268139,0.90404731 1.1749239,1.4882577 0.62905078,1.962021 0.06646211,2.448453 L 0.40539099,2.9940928 C 0.96797966,2.5076607 1.5468803,2.0099378 2.0488763,1.3609497 2.550875,0.71195826 2.9503988,-0.05331976 3.3422417,-0.80084073 Z M 2.0744224,-2.8713526 C 1.652456,-2.1001342 1.2361341,-1.3430329 0.78265575,-0.75676282 0.32917629,-0.17049123 -0.18448957,0.27773414 -0.71694472,0.74044225 L -0.37801584,1.286082 C 0.15443931,0.8233738 0.70590019,0.34709297 1.2063168,-0.29986034 1.7067346,-0.94681519 2.133671,-1.731969 2.5556375,-2.5031874 Z M 0.49586463,-3.8680763 c -0.3617293,0.7871221 -0.71546967,1.5485013 -1.17506006,2.1523503 -0.45931467,0.6034868 -1.06316927,1.09771333 -1.67705847,1.5953825 l 0.3229416,0.55885587 c 0.6138892,-0.49766917 1.25967943,-1.01618882 1.78097544,-1.70111197 0.52102032,-0.6845609 0.89006937,-1.4973901 1.25179867,-2.2845122 z"
       transform="matrix(1.2216796,0,0,1.0344796,4.6813217,5.8354304)"
       style="opacity:1"
       id="path1518" />
  </g>
</svg>
