<?xml version='1.0' encoding='UTF-8'?>
<!-- Created with Inkscape (http://www.inkscape.org/) and export_objects.py -->
<svg xmlns:cc="http://creativecommons.org/ns#" xmlns:dc="http://purl.org/dc/elements/1.1/" xmlns:inkscape="http://www.inkscape.org/namespaces/inkscape" xmlns:rdf="http://www.w3.org/1999/02/22-rdf-syntax-ns#" xmlns:sodipodi="http://sodipodi.sourceforge.net/DTD/sodipodi-0.dtd" xmlns:xlink="http://www.w3.org/1999/xlink" xmlns="http://www.w3.org/2000/svg" version="1.1" id="svg1" width="16" height="16" viewBox="0 0 16 16" sodipodi:docname="dialog-object-properties-symbolic.svg">
<sodipodi:namedview objecttolerance="10" gridtolerance="10" guidetolerance="10" id="namedview" showgrid="true" inkscape:zoom="0.6002936" inkscape:cx="732.67439" inkscape:cy="-567.94603" inkscape:window-width="1920" inkscape:window-height="1016" inkscape:window-x="0" inkscape:window-y="27" inkscape:window-maximized="1" inkscape:current-layer="layer1">
    <inkscape:grid type="xygrid" id="grid"/>
  </sodipodi:namedview>
  <g transform="matrix(1,0,0,0.999999,-135,-567.36136)" inkscape:label="00057" id="dialog-object-properties">
      <path style="opacity:1" d="m 136.4709,570.0736 c -0.1143,0.3458 -0.2173,0.7278 -0.218,1.0913 -0.003,1.7398 1.4116,2.8801 3.158,2.5585 0.3649,-0.0672 0.721,-0.2169 1.0474,-0.3902 0.0231,-0.0124 1.1294,0.8618 1.4266,1.0983 0.041,0.0327 0.1941,0.1548 0.1941,0.1548 0.3368,0.2694 2.754,2.203 2.7456,2.2296 -0.1058,0.3493 -0.1819,0.7223 -0.1741,1.0868 0.0376,1.7447 1.4644,2.8711 3.1975,2.5108 0.3621,-0.0752 0.7216,-0.2525 1.0428,-0.4334 l -1.742,-1.3499 c -0.3586,-0.2809 -0.3197,-0.8196 0.024,-1.2461 l 0.6304,-0.7623 c 0.3492,-0.4222 0.8292,-0.5975 1.1884,-0.3173 l 1.7663,1.3692 c 0.1058,-0.3492 0.1819,-0.7223 0.1741,-1.0868 -0.0376,-1.7447 -1.4841,-2.8472 -3.2172,-2.487 -0.3621,0.0752 -0.7065,0.1856 -1.0277,0.3664 l -0.5821,-0.4644 -3.105,-2.4766 -0.5822,-0.4644 c 0.1144,-0.3458 0.1537,-0.6995 0.1544,-1.063 0.003,-1.7397 -1.3919,-2.9039 -3.1383,-2.5823 -0.3649,0.0672 -0.7211,0.217 -1.0474,0.3903 l 1.7268,1.4169 c 0.3529,0.2878 0.2767,0.7852 -0.0725,1.2074 l -0.6304,0.7624 c -0.3546,0.4178 -0.8837,0.566 -1.2369,0.2786 l -1.7025,-1.3976 z" id="path3908-6" inkscape:connector-curvature="0"/>
      <path inkscape:connector-curvature="0" id="rect2999-6" d="m 135,567.36218 h 16 v 16 h -16 z" style="opacity:0;fill:none"/>
      <path style="opacity:1" d="m 135,576.3622 v 7 h 7 v -7 z" id="rect52746" inkscape:connector-curvature="0"/>
    </g>
    </svg>
