<?xml version='1.0' encoding='UTF-8'?>
<!-- Created with Inkscape (http://www.inkscape.org/) and export_objects.py -->
<svg xmlns:cc="http://creativecommons.org/ns#" xmlns:dc="http://purl.org/dc/elements/1.1/" xmlns:inkscape="http://www.inkscape.org/namespaces/inkscape" xmlns:rdf="http://www.w3.org/1999/02/22-rdf-syntax-ns#" xmlns:sodipodi="http://sodipodi.sourceforge.net/DTD/sodipodi-0.dtd" xmlns:xlink="http://www.w3.org/1999/xlink" xmlns="http://www.w3.org/2000/svg" version="1.1" id="svg1" width="16" height="16" viewBox="0 0 16 16" sodipodi:docname="dialog-filters-symbolic.svg">
<sodipodi:namedview objecttolerance="10" gridtolerance="10" guidetolerance="10" id="namedview" showgrid="true" inkscape:zoom="0.6002936" inkscape:cx="732.67439" inkscape:cy="-567.94603" inkscape:window-width="1920" inkscape:window-height="1016" inkscape:window-x="0" inkscape:window-y="27" inkscape:window-maximized="1" inkscape:current-layer="layer1">
    <inkscape:grid type="xygrid" id="grid"/>
  </sodipodi:namedview>
  <g id="dialog-filters" inkscape:label="00098">
      <title id="title44223">stock-reshow-filter</title>
      <path inkscape:connector-curvature="0" id="rect44225" d="M 0,0 H 16 V 16 H 0 Z" style="opacity:0;fill:none"/>
      <path inkscape:connector-curvature="0" id="path44227" d="M 8,1 C 7.77935,1 7.55919,1.0113 7.34375,1.0312 L 6.9375,3.12495 C 6.60304,3.19825 6.27445,3.30084 5.96875,3.43745 L 4.4375,1.9687 C 4.04887,2.19881 3.71055,2.48278 3.375,2.7812 L 4.28125,4.68745 C 4.05883,4.93644 3.857,5.20995 3.6875,5.49995 L 1.59375,5.2187 C 1.41603,5.62747 1.28503,6.05507 1.1875,6.49995 l 1.84375,1 C 3.01415,7.66809 3,7.8274 3,8 H 5 C 5,6.34315 6.34315,5 8,5 c 1.65685,0 3,1.34315 3,3 h 2 C 13,7.8274 12.9857,7.66809 12.9688,7.5 l 1.84375,-1 C 14.715,6.05512 14.58397,5.62752 14.40625,5.21875 L 12.3125,5.5 C 12.143,5.21 11.94117,4.93649 11.71875,4.6875 L 12.625,2.78125 C 12.28945,2.48283 11.95113,2.19886 11.5625,1.96875 L 10.03125,3.4375 C 9.72555,3.30089 9.39696,3.19834 9.0625,3.125 L 8.65625,1.03125 C 8.44081,1.01125 8.22065,1 8,1 Z" style="opacity:1"/>
      <path inkscape:connector-curvature="0" id="path44229" d="m 1,9 v 7 H 15 V 9 Z m 3,1 h 1 v 5 H 4 v -4 l -1,1 v -1 z m 3.5,0 C 8.331,10 9,10.669 9,11.5 v 2 C 9,14.331 8.331,15 7.5,15 6.669,15 6,14.331 6,13.5 v -2 C 6,10.669 6.669,10 7.5,10 Z m 4.5,0 2,2 H 10 Z M 7.5,11 C 7.223,11 7,11.223 7,11.5 v 2 C 7,13.777 7.223,14 7.5,14 7.777,14 8,13.777 8,13.5 v -2 C 8,11.223 7.777,11 7.5,11 Z m 2.5,2 h 4 l -2,2 z" style="opacity:1"/>
    </g>
    </svg>
