<?xml version="1.0" encoding="UTF-8" standalone="no"?>
<!-- Uploaded to: SVG Repo, www.svgrepo.com, Generator: SVG Repo Mixer Tools -->

<svg
   fill="#000000"
   version="1.1"
   id="puzzle"
   width="16"
   height="16"
   viewBox="0 0 16 16"
   xml:space="preserve"
   sodipodi:docname="dialog-extensions-symbolic.svg"
   inkscape:version="1.2.2 (b0a84865, 2022-12-01)"
   xmlns:inkscape="http://www.inkscape.org/namespaces/inkscape"
   xmlns:sodipodi="http://sodipodi.sourceforge.net/DTD/sodipodi-0.dtd"
   xmlns="http://www.w3.org/2000/svg"
   xmlns:svg="http://www.w3.org/2000/svg"><defs
   id="defs141">
	

		
	</defs><sodipodi:namedview
   id="namedview139"
   pagecolor="#ffffff"
   bordercolor="#000000"
   borderopacity="0.25"
   inkscape:showpageshadow="2"
   inkscape:pageopacity="0.0"
   inkscape:pagecheckerboard="0"
   inkscape:deskcolor="#d1d1d1"
   showgrid="true"
   inkscape:zoom="24.394095"
   inkscape:cx="6.4564805"
   inkscape:cy="5.9030679"
   inkscape:window-width="1269"
   inkscape:window-height="813"
   inkscape:window-x="0"
   inkscape:window-y="38"
   inkscape:window-maximized="0"
   inkscape:current-layer="puzzle"><inkscape:grid
     type="xygrid"
     id="grid445"
     originx="0"
     originy="0"
     spacingy="1"
     spacingx="1"
     units="px" /></sodipodi:namedview>
<path
   d="m 4.5040476,14.832196 v -3.266079 c 0,-0.133107 -0.071866,-0.255851 -0.1878438,-0.321118 -0.1159815,-0.06521 -0.2583278,-0.06293 -0.3720407,0.0064 C 3.6419637,11.435632 3.2870919,11.541674 2.9058554,11.541674 1.7947949,11.541984 0.8944493,10.641375 0.8944493,9.5304704 0.8944188,8.4196605 1.7947949,7.5189016 2.9057935,7.519056 v -4.46e-5 c 0.3813299,-6.29e-5 0.7361083,0.1059779 1.0383696,0.2902493 0.1137129,0.069341 0.2561201,0.071885 0.3722236,0.00663 0.1161044,-0.065271 0.1876609,-0.188139 0.1876609,-0.3213405 V 5.1666277 c 0,-0.3686943 0.3099257,-0.6652283 0.6787461,-0.6652283 h 2.5410314 c 0.1303591,0 0.2510308,-0.068915 0.3172832,-0.1811464 0.066252,-0.1122594 0.068369,-0.2512537 0.00529,-0.3653232 C 7.8863617,3.6658757 7.7953064,3.3327396 7.7953064,2.9794311 c 0,-1.1107467 0.9005598,-2.01184304 2.0117126,-2.01184304 1.110814,0 2.011222,0.90140224 2.011222,2.01218044 0,0.3532487 -0.09105,0.6862303 -0.251,0.9751928 -0.06319,0.1141294 -0.06129,0.2531552 0.005,0.3655062 0.06629,0.112354 0.187057,0.1809319 0.317478,0.1809319 h 2.935388 c 0.368882,0 0.674884,0.296534 0.674884,0.6652283 v 2.269032 c 0,0.1297042 -0.06825,0.2498473 -0.179629,0.3163061 -0.111381,0.066462 -0.249651,0.06959 -0.36373,0.00788 -0.284113,-0.1536476 -0.609368,-0.2408938 -0.955041,-0.2408024 -1.11103,-1.23e-4 -2.011561,0.900576 -2.011561,2.011387 0,1.1109036 0.900531,2.0115076 2.011561,2.0112016 0.345704,0 0.670959,-0.08728 0.95507,-0.240863 0.114203,-0.06175 0.252441,-0.05886 0.363947,0.0077 0.111473,0.06654 0.179413,0.186778 0.179413,0.316542 v 3.207185 c -10e-6,0.368879 -0.305982,0.667804 -0.674001,0.669279 l -2.905816,0.0015 c -0.129704,6.7e-5 -0.249847,-0.06825 -0.316306,-0.179629 -0.06646,-0.111381 -0.06959,-0.249651 -0.0079,-0.36373 0.153648,-0.284113 0.240894,-0.609368 0.240802,-0.955041 1.23e-4,-1.11103 -0.900576,-2.011561 -2.0113855,-2.011561 -1.110904,0 -2.011508,0.900531 -2.011202,2.011561 0,0.345704 0.08728,0.670959 0.240863,0.95507 0.06175,0.114203 0.05886,0.252441 -0.0077,0.363947 -0.06654,0.111473 -0.186778,0.179413 -0.316542,0.179413 l -2.5489971,-0.0015 C 4.8140657,15.5 4.5040476,15.201075 4.5040476,14.832196 Z"
   id="path132"
   style="opacity:0.25423729;fill:#000000;fill-opacity:1;stroke:none;stroke-width:1;stroke-linejoin:bevel"
   sodipodi:nodetypes="ssccccccccssssccssscssssssccsccssccssccsccsscs" />
<path
   style="stroke:none;stroke-linejoin:bevel"
   d="m 9.8066406,0.46679688 c -1.3814703,0 -2.5117187,1.13071682 -2.5117187,2.51171872 0,0.368795 0.11959,0.705803 0.2636718,1.0234375 H 5.1835938 c -0.6368221,0 -1.1796875,0.5151684 -1.1796875,1.1640625 V 7.3261719 C 3.667362,7.1577021 3.3068605,7.0194652 2.90625,7.0195312 1.5249599,7.0193393 0.394494,8.1502481 0.3945312,9.53125 c 0,1.381057 1.1303897,2.510151 2.5117188,2.509766 0.4005093,0 0.7611231,-0.138184 1.0976563,-0.306641 v 3.097656 c -10e-8,0.649023 0.5382254,1.167322 1.1757812,1.169922 h 0.00195 l 2.5488281,0.002 c 0.3042854,0 0.5895114,-0.161509 0.7460938,-0.423828 0.1565129,-0.262201 0.1627244,-0.588982 0.017578,-0.857422 -0.1153535,-0.213389 -0.1796875,-0.457203 -0.1796875,-0.71875 -2.315e-4,-0.840754 0.6710253,-1.511718 1.5117188,-1.511718 0.8405763,0 1.5098583,0.670948 1.5097653,1.511718 7e-5,0.261458 -0.06432,0.505423 -0.179687,0.71875 -0.145466,0.269 -0.138643,0.59561 0.01758,0.857422 0.156227,0.261821 0.440659,0.423986 0.746094,0.423828 l 2.90625,-0.002 h 0.0019 C 15.465778,15.999397 15.999983,15.47739 16,14.832031 V 11.625 c 0,-0.304286 -0.161507,-0.58951 -0.423828,-0.746094 -0.262201,-0.156513 -0.588983,-0.162724 -0.857422,-0.01758 -0.21339,0.115353 -0.45525,0.179688 -0.716797,0.179688 -0.840754,2.31e-4 -1.511719,-0.669073 -1.511719,-1.509766 0,-0.8405779 0.670949,-1.5118118 1.511719,-1.5117187 0.261458,-6.92e-5 0.50347,0.064321 0.716797,0.1796875 0.26901,0.1455184 0.595604,0.1386505 0.857422,-0.017578 C 15.83807,8.0253688 16,7.7406499 16,7.4355469 V 5.1660156 C 16,4.5206682 15.461057,4.0019531 14.824219,4.0019531 h -2.769531 c 0.143931,-0.3174407 0.263671,-0.6528381 0.263671,-1.0214843 0,-1.3809802 -1.130413,-2.51367192 -2.5117184,-2.51367192 z m 0,1.00000002 c 0.8403204,0 1.5117184,0.6730978 1.5117184,1.5136719 0,0.2673316 -0.06939,0.5155118 -0.189453,0.7324218 -0.148594,0.2683802 -0.142229,0.5971002 0.01367,0.8613281 0.156096,0.2645647 0.442353,0.4277344 0.748047,0.4277344 h 2.933594 C 14.925143,5.0019531 15,5.0739752 15,5.1660156 V 7.2714844 C 14.689273,7.1341912 14.361517,7.0194362 14.001953,7.0195312 12.620665,7.0193783 11.490234,8.1502081 11.490234,9.53125 c 0,1.381112 1.130415,2.510146 2.511719,2.509766 0.359541,0 0.687379,-0.11472 0.998047,-0.251953 v 3.042968 c -3e-6,0.0924 -0.0774,0.169528 -0.175781,0.169922 l -2.740235,0.002 c 0.137771,-0.311175 0.252049,-0.639775 0.251954,-1 1.52e-4,-1.381288 -1.128725,-2.511718 -2.5097661,-2.511718 -1.3811123,0 -2.5120992,1.130414 -2.5117188,2.511718 0,0.360203 0.1142424,0.688884 0.2519531,1 l -2.3828124,-0.002 h -0.00195 c -0.097235,-0.0013 -0.1777343,-0.0817 -0.1777343,-0.169922 v -3.265625 c 0,-0.313087 -0.1708303,-0.60444 -0.4433594,-0.757812 C 4.2878879,10.655292 3.9515018,10.660879 3.683597,10.824224 3.4571307,10.96228 3.1947692,11.041016 2.90625,11.041016 2.0654613,11.04125 1.3945313,10.372 1.3945312,9.53125 1.3945085,8.6906343 2.0655443,8.0194144 2.90625,8.0195313 3.1948335,8.0194836 3.4570153,8.0981963 3.6835938,8.2363281 3.9510901,8.3994446 4.2873742,8.4054869 4.5605469,8.2519531 4.833802,8.0983354 5.0039063,7.8064114 5.0039063,7.4941406 v -2.328125 c 0,-0.088494 0.078868,-0.1640625 0.1796875,-0.1640625 h 2.5410156 c 0.3065772,0 0.5922331,-0.1637847 0.7480469,-0.4277344 C 8.6283474,4.310403 8.6329637,3.9816307 8.4843753,3.7128906 8.364264,3.4959478 8.2949222,3.2459159 8.2949222,2.9785156 c 0,-0.8404892 0.6708853,-1.5117187 1.5117184,-1.5117187 z"
   id="path1" /></svg>
