<?xml version='1.0' encoding='UTF-8'?>
<!-- Created with Inkscape (http://www.inkscape.org/) and export_objects.py -->
<svg xmlns:cc="http://creativecommons.org/ns#" xmlns:dc="http://purl.org/dc/elements/1.1/" xmlns:inkscape="http://www.inkscape.org/namespaces/inkscape" xmlns:rdf="http://www.w3.org/1999/02/22-rdf-syntax-ns#" xmlns:sodipodi="http://sodipodi.sourceforge.net/DTD/sodipodi-0.dtd" xmlns:xlink="http://www.w3.org/1999/xlink" xmlns="http://www.w3.org/2000/svg" version="1.1" id="svg1" width="16" height="16" viewBox="0 0 16 16" sodipodi:docname="dialog-icon-preview-symbolic.svg">
<sodipodi:namedview objecttolerance="10" gridtolerance="10" guidetolerance="10" id="namedview" showgrid="true" inkscape:zoom="0.6002936" inkscape:cx="732.67439" inkscape:cy="-567.94603" inkscape:window-width="1920" inkscape:window-height="1016" inkscape:window-x="0" inkscape:window-y="27" inkscape:window-maximized="1" inkscape:current-layer="layer1">
    <inkscape:grid type="xygrid" id="grid"/>
  </sodipodi:namedview>
  <g transform="translate(-74.997057,-887.36218)" inkscape:label="00041" id="dialog-icon-preview">
      <g id="g17869" transform="matrix(0.9985297,0,0,1,60.04264,280)">
        <path inkscape:connector-curvature="0" id="rect17871" d="m 14.97644,607.36218 h 16 v 16 h -16 z" style="opacity:0;fill:none"/>
        <path style="opacity:1" d="m 17,609.3622 h 12 v 2 H 17 Z" id="path17873" inkscape:connector-curvature="0"/>
        <path inkscape:connector-curvature="0" id="rect17875" d="m 15,607.36218 h 1 v 16 h -1 z" style="opacity:1"/>
        <path inkscape:connector-curvature="0" id="rect17877" d="m 15,607.36218 h 16 v 1 H 15 Z" style="opacity:1"/>
        <path inkscape:connector-curvature="0" id="rect17879" d="m 30,607.36218 h 1 v 16 h -1 z" style="opacity:1"/>
        <path inkscape:connector-curvature="0" id="rect17881" d="m 15,622.36218 h 16 v 1 H 15 Z" style="opacity:1"/>
      </g>
      <path inkscape:connector-curvature="0" style="opacity:1" d="m 83,381 c -3.31371,0 -4,2 -6,3.5 2,1.5 2.68629,3.5 6,3.5 3.31371,0 4,-2 6,-3.5 C 87,383 86.31371,381 83,381 Z m 0,1 c 1.65685,0 3,1.1193 3,2.5 0,1.3807 -1.34315,2.5 -3,2.5 -1.65685,0 -3,-1.1193 -3,-2.5 0,-1.3807 1.34315,-2.5 3,-2.5 z" transform="translate(0,512.3622)" id="path23473"/>
      <path inkscape:connector-curvature="0" id="path23477" d="m 84,385 a 1,1 0 0 1 -1,1 1,1 0 0 1 -1,-1 1,1 0 0 1 1,-1 1,1 0 0 1 1,1 z" style="opacity:1" transform="matrix(1.21875,0,0,1.5,-18.125,319.3622)"/>
    </g>
    </svg>
