<?xml version="1.0" encoding="UTF-8" standalone="no"?>
<!-- Created with Inkscape (http://www.inkscape.org/) -->

<svg
   width="16"
   height="16"
   viewBox="0 0 16 16"
   version="1.1"
   id="svg689"
   inkscape:version="1.3-dev (ceec590a8a, 2022-07-12, custom)"
   sodipodi:docname="display-outline-overlay-symbolic.svg"
   xmlns:inkscape="http://www.inkscape.org/namespaces/inkscape"
   xmlns:sodipodi="http://sodipodi.sourceforge.net/DTD/sodipodi-0.dtd"
   xmlns="http://www.w3.org/2000/svg"
   xmlns:svg="http://www.w3.org/2000/svg">
  <sodipodi:namedview
     id="namedview691"
     pagecolor="#ffffff"
     bordercolor="#000000"
     borderopacity="0.25"
     inkscape:pageshadow="2"
     inkscape:pageopacity="0.0"
     inkscape:pagecheckerboard="0"
     inkscape:blackoutopacity="0.0"
     inkscape:document-units="px"
     showgrid="true"
     borderlayer="false"
     inkscape:deskcolor="#d1d1d1"
     inkscape:zoom="31.55464"
     inkscape:cx="7.1780252"
     inkscape:cy="7.9703017"
     inkscape:window-width="1446"
     inkscape:window-height="1916"
     inkscape:window-x="0"
     inkscape:window-y="38"
     inkscape:window-maximized="1"
     inkscape:current-layer="layer1"
     inkscape:showpageshadow="2">
    <inkscape:grid
       type="xygrid"
       id="grid1" />
  </sodipodi:namedview>
  <defs
     id="defs686" />
  <g
     inkscape:label="Layer 1"
     inkscape:groupmode="layer"
     id="layer1">
    <circle
       style="opacity:0.45248869;fill:#000000;stroke:none;stroke-width:1;stroke-linecap:square;stroke-linejoin:round;stroke-miterlimit:10;stroke-opacity:0.978836"
       id="path1"
       cx="8"
       cy="7"
       r="2.5" />
    <path
       id="path2"
       style="color:#000000;fill:#000000;fill-opacity:0.978836;stroke-linecap:square;stroke-miterlimit:10;-inkscape-stroke:none"
       d="M 2.4882813,2 C 1.6659315,2 0.9882812,2.6776502 0.9882812,3.5 v 7 c 0,0.82235 0.6776503,1.5 1.5000001,1.5 h 3.5 v 1 h -2 v 1 h 7.9999997 v -1 h -2 v -1 h 3.5 c 0.82235,0 1.5,-0.67765 1.5,-1.5 v -7 c 0,-0.8223498 -0.67765,-1.5 -1.5,-1.5 z m 0,1 H 13.488281 c 0.285648,0 0.5,0.214352 0.5,0.5 v 7 c 0,0.285648 -0.214352,0.5 -0.5,0.5 H 2.4882813 C 2.2026332,11 1.9882812,10.785648 1.9882812,10.5 v -7 c 0,-0.285648 0.214352,-0.5 0.5000001,-0.5 z m 5.5,1 c -1.6509286,0 -3,1.3490714 -3,3 0,1.6509286 1.3490714,3 3,3 1.6509287,0 2.9999997,-1.3490714 2.9999997,-3 0,-1.6509286 -1.349071,-3 -2.9999997,-3 z m 0,1 C 9.098771,5 9.988281,5.8895104 9.988281,7 c 0,1.1104896 -0.88951,2 -1.9999997,2 -1.1104896,0 -2,-0.8895104 -2,-2 0,-1.1104896 0.8895104,-2 2,-2 z" />
  </g>
</svg>
