<?xml version="1.0" encoding="UTF-8" standalone="no"?>
<!-- Created with Inkscape (http://www.inkscape.org/) and export_objects.py -->

<svg
   version="1.1"
   id="svg1"
   width="16"
   height="16"
   viewBox="0 0 16 16"
   sodipodi:docname="dnd-symbolic.svg"
   inkscape:version="1.3-dev (31fcc74c49, 2022-10-10)"
   xmlns:inkscape="http://www.inkscape.org/namespaces/inkscape"
   xmlns:sodipodi="http://sodipodi.sourceforge.net/DTD/sodipodi-0.dtd"
   xmlns="http://www.w3.org/2000/svg"
   xmlns:svg="http://www.w3.org/2000/svg">
  <defs
     id="defs1" />
  <sodipodi:namedview
     objecttolerance="10"
     gridtolerance="10"
     guidetolerance="10"
     id="namedview"
     showgrid="true"
     inkscape:zoom="22.627417"
     inkscape:cx="-1.1490485"
     inkscape:cy="3.2040776"
     inkscape:window-width="2560"
     inkscape:window-height="1371"
     inkscape:window-x="0"
     inkscape:window-y="32"
     inkscape:window-maximized="1"
     inkscape:current-layer="svg1"
     pagecolor="#ffffff"
     bordercolor="#000000"
     borderopacity="0.25"
     inkscape:showpageshadow="2"
     inkscape:pageopacity="0.0"
     inkscape:pagecheckerboard="0"
     inkscape:deskcolor="#d1d1d1">
    <inkscape:grid
       type="xygrid"
       id="grid" />
  </sodipodi:namedview>
  <path
     id="path1"
     style="opacity:1"
     d="m 9.893106,11.700842 a 1.5886805,1.5886805 0 0 1 -1.58868,-1.588681 1.5886805,1.5886805 0 0 1 1.58868,-1.5886808 1.5886805,1.5886805 0 0 1 1.588679,1.5886808 1.5886805,1.5886805 0 0 1 -1.588679,1.588681 z m -3.786212,0 a 1.5886805,1.5886805 0 0 1 -1.58868,-1.588681 1.5886805,1.5886805 0 0 1 1.58868,-1.588681 1.5886805,1.5886805 0 0 1 1.58868,1.588681 1.5886805,1.5886805 0 0 1 -1.58868,1.588681 z m -3.786212,0 A 1.5886805,1.5886805 0 0 1 0.73200207,10.112161 1.5886805,1.5886805 0 0 1 2.320682,8.5234803 a 1.5886805,1.5886805 0 0 1 1.58868,1.5886807 1.5886805,1.5886805 0 0 1 -1.58868,1.588681 z m 11.358636,0 a 1.5886805,1.5886805 0 0 1 -1.58868,-1.588681 1.5886805,1.5886805 0 0 1 1.58868,-1.588681 1.5886805,1.5886805 0 0 1 1.58868,1.588681 1.5886805,1.5886805 0 0 1 -1.58868,1.588681 z M 9.893107,7.4765193 A 1.5886805,1.5886805 0 0 1 8.304427,5.8878389 1.5886805,1.5886805 0 0 1 9.893107,4.2991584 1.5886805,1.5886805 0 0 1 11.481786,5.8878389 1.5886805,1.5886805 0 0 1 9.893107,7.4765193 Z m -3.786213,0 a 1.5886805,1.5886805 0 0 1 -1.58868,-1.5886804 1.5886805,1.5886805 0 0 1 1.58868,-1.5886805 1.5886805,1.5886805 0 0 1 1.58868,1.5886805 1.5886805,1.5886805 0 0 1 -1.58868,1.5886804 z m -3.786212,0 A 1.5886805,1.5886805 0 0 1 0.73200207,5.8878389 1.5886805,1.5886805 0 0 1 2.320682,4.2991584 1.5886805,1.5886805 0 0 1 3.909362,5.8878389 1.5886805,1.5886805 0 0 1 2.320682,7.4765193 Z m 11.358636,0 a 1.5886805,1.5886805 0 0 1 -1.58868,-1.5886804 1.5886805,1.5886805 0 0 1 1.58868,-1.5886805 1.5886805,1.5886805 0 0 1 1.58868,1.5886805 1.5886805,1.5886805 0 0 1 -1.58868,1.5886804 z" />
</svg>
