<?xml version="1.0" encoding="UTF-8" standalone="no"?>
<svg
   xmlns:dc="http://purl.org/dc/elements/1.1/"
   xmlns:cc="http://creativecommons.org/ns#"
   xmlns:rdf="http://www.w3.org/1999/02/22-rdf-syntax-ns#"
   xmlns:svg="http://www.w3.org/2000/svg"
   xmlns="http://www.w3.org/2000/svg"
   xmlns:sodipodi="http://sodipodi.sourceforge.net/DTD/sodipodi-0.dtd"
   xmlns:inkscape="http://www.inkscape.org/namespaces/inkscape"
   inkscape:version="1.0alpha2 (e9bc48ab64, 2019-07-09)"
   sodipodi:docname="document-import-symbolic.svg"
   viewBox="0 0 16 16"
   height="16"
   width="16"
   id="svg1"
   version="1.1">


  
<metadata
     id="metadata1675">
    <rdf:RDF>
      <cc:Work
         rdf:about="">
        <dc:format>image/svg+xml</dc:format>
        <dc:type
           rdf:resource="http://purl.org/dc/dcmitype/StillImage" />
      </cc:Work>
    </rdf:RDF>
  </metadata>
  <defs
     id="defs1673" />
  <sodipodi:namedview
     inkscape:current-layer="svg1"
     inkscape:window-maximized="1"
     inkscape:window-y="27"
     inkscape:window-x="0"
     inkscape:window-height="704"
     inkscape:window-width="1360"
     inkscape:cy="8"
     inkscape:cx="8"
     inkscape:zoom="31.5625"
     showgrid="true"
     id="namedview"
     guidetolerance="10"
     gridtolerance="10"
     objecttolerance="10">
    <inkscape:grid
       id="grid"
       type="xygrid" />
  </sodipodi:namedview>
  <g
     id="document-import"
     inkscape:label="00002"
     transform="matrix(1,0,0,0.999954,-15,-547.33648)">
    <path
       style="opacity:0;fill:none"
       d="m 15,547.36218 h 16 v 16 H 15 Z"
       id="rect29018"
       inkscape:connector-curvature="0" />
    <path
       inkscape:connector-curvature="0"
       id="path29020"
       d="m 18.8125,547.3622 c -0.4584,0.087 -0.82072,0.5334 -0.8125,1 v 1 11 1 c 5e-5,0.5236 0.47642,0.9999 1,1 h 10 c 0.52358,-10e-5 0.99995,-0.4764 1,-1 v -9.4375 c 0.006,-0.2641 -0.0975,-0.529 -0.28125,-0.7188 l -3.5625,-3.5625 c -0.18978,-0.1837 -0.45469,-0.2873 -0.71875,-0.2812 H 19 c -0.0312,-10e-4 -0.0625,-10e-4 -0.0937,0 -0.0312,-10e-4 -0.0625,-10e-4 -0.0937,0 z m 1.1875,2 h 5 v 3 h 3 v 8 h -8 z"
       style="opacity:1" />
    <path
       
       inkscape:connector-curvature="0"
       id="path4685"
       d="m 16,554.3622 h 6 v -2 l 3,3 -3,3 v -2 h -6 z"
       style="opacity:1" />
  </g>
</svg>
