<?xml version="1.0" encoding="UTF-8" standalone="no"?>
<svg
   inkscape:version="1.2-alpha1 (ae5399be7c, 2022-03-29, custom)"
   sodipodi:docname="document-import-web-symbolic.svg"
   viewBox="0 0 16 16"
   height="16"
   width="16"
   id="svg1"
   version="1.1"
   xmlns:inkscape="http://www.inkscape.org/namespaces/inkscape"
   xmlns:sodipodi="http://sodipodi.sourceforge.net/DTD/sodipodi-0.dtd"
   xmlns="http://www.w3.org/2000/svg"
   xmlns:svg="http://www.w3.org/2000/svg"
   xmlns:rdf="http://www.w3.org/1999/02/22-rdf-syntax-ns#"
   xmlns:cc="http://creativecommons.org/ns#"
   xmlns:dc="http://purl.org/dc/elements/1.1/">
  <metadata
     id="metadata1675">
    <rdf:RDF>
      <cc:Work
         rdf:about="">
        <dc:format>image/svg+xml</dc:format>
        <dc:type
           rdf:resource="http://purl.org/dc/dcmitype/StillImage" />
      </cc:Work>
    </rdf:RDF>
  </metadata>
  <defs
     id="defs1673" />
  <sodipodi:namedview
     inkscape:current-layer="svg1"
     inkscape:window-maximized="1"
     inkscape:window-y="32"
     inkscape:window-x="0"
     inkscape:window-height="1295"
     inkscape:window-width="2560"
     inkscape:cy="7.9841584"
     inkscape:cx="7.9841584"
     inkscape:zoom="31.5625"
     showgrid="true"
     id="namedview"
     guidetolerance="10"
     gridtolerance="10"
     objecttolerance="10"
     pagecolor="#ffffff"
     bordercolor="#000000"
     borderopacity="0.25"
     inkscape:pageshadow="2"
     inkscape:pageopacity="0.0"
     inkscape:pagecheckerboard="0"
     inkscape:deskcolor="#d1d1d1">
    <inkscape:grid
       id="grid"
       type="xygrid" />
  </sodipodi:namedview>
  <g
     id="document-import"
     inkscape:label="00002"
     transform="matrix(1,0,0,0.999954,-15,-547.33648)">
    <path
       style="opacity:0;fill:none"
       d="m 15,547.36218 h 16 v 16 H 15 Z"
       id="rect29018"
       inkscape:connector-curvature="0" />
    <path
       inkscape:connector-curvature="0"
       id="path29020"
       d="m 18.8125,547.3622 c -0.4584,0.087 -0.82072,0.5334 -0.8125,1 v 1 11 1 c 5e-5,0.5236 0.47642,0.9999 1,1 h 10 c 0.52358,-10e-5 0.99995,-0.4764 1,-1 v -9.4375 c 0.006,-0.2641 -0.0975,-0.529 -0.28125,-0.7188 l -3.5625,-3.5625 c -0.18978,-0.1837 -0.45469,-0.2873 -0.71875,-0.2812 H 19 c -0.0312,-10e-4 -0.0625,-10e-4 -0.0937,0 -0.0312,-10e-4 -0.0625,-10e-4 -0.0937,0 z m 1.1875,2 h 5 v 3 h 3 v 8 h -8 z"
       style="opacity:1" />
  </g>
  <path
     style="color:#000000;fill:#000000;fill-rule:evenodd;-inkscape-stroke:none"
     d="M 6,12 C 8.1972922,12 10,10.197292 10,8 10,5.8027078 8.1972922,4 6,4 m 0,2 c 1.116413,0 2,0.883587 2,2 0,1.116413 -0.883587,2 -2,2"
     id="circle2345"
     sodipodi:nodetypes="csccsc" />
</svg>
