<?xml version="1.0" encoding="UTF-8" standalone="no"?>
<svg
   inkscape:version="1.4 (1:1.4+202410161351+e7c3feb100)"
   sodipodi:docname="document-import-symbolic.svg"
   viewBox="0 0 16 16"
   height="16"
   width="16"
   id="svg1"
   version="1.1"
   xmlns:inkscape="http://www.inkscape.org/namespaces/inkscape"
   xmlns:sodipodi="http://sodipodi.sourceforge.net/DTD/sodipodi-0.dtd"
   xmlns="http://www.w3.org/2000/svg"
   xmlns:svg="http://www.w3.org/2000/svg"
   xmlns:rdf="http://www.w3.org/1999/02/22-rdf-syntax-ns#"
   xmlns:cc="http://creativecommons.org/ns#"
   xmlns:dc="http://purl.org/dc/elements/1.1/">
  <metadata
     id="metadata1675">
    <rdf:RDF>
      <cc:Work
         rdf:about="">
        <dc:format>image/svg+xml</dc:format>
        <dc:type
           rdf:resource="http://purl.org/dc/dcmitype/StillImage" />
      </cc:Work>
    </rdf:RDF>
  </metadata>
  <defs
     id="defs1673" />
  <sodipodi:namedview
     inkscape:current-layer="svg1"
     inkscape:window-maximized="1"
     inkscape:window-y="0"
     inkscape:window-x="0"
     inkscape:window-height="1011"
     inkscape:window-width="1860"
     inkscape:cy="4.2960447"
     inkscape:cx="7.0050156"
     inkscape:zoom="18.272622"
     showgrid="true"
     id="namedview"
     guidetolerance="10"
     gridtolerance="10"
     objecttolerance="10"
     pagecolor="#ffffff"
     bordercolor="#000000"
     borderopacity="0.25"
     inkscape:showpageshadow="2"
     inkscape:pageopacity="0.0"
     inkscape:pagecheckerboard="0"
     inkscape:deskcolor="#d1d1d1">
    <inkscape:grid
       id="grid"
       type="xygrid"
       originx="0"
       originy="0"
       spacingy="1"
       spacingx="1"
       units="px" />
  </sodipodi:namedview>
  <path
     id="path4"
     style="color:#000000;fill:#808080;fill-opacity:1;stroke-width:0.999996;marker:none"
     d="M 5.001953,6.999997 V 8.999999 H 1.001912 V 10 H 5 v 2.000002 C 6.581419,11.146575 7.501304,10.573348 9.00194,9.4675708 7.490118,8.4235915 6.503556,7.8159652 5.001953,6.999997 Z"
     sodipodi:nodetypes="cccccccc" />
  <path
     d="M 6.9902344,0 C 5.7321337,0.0150994 4.811313,-0.02839505 4.0585937,0.38671875 3.6822331,0.59429065 3.3853836,0.9442096 3.2207031,1.3828125 3.0559936,1.8214254 2.9960938,2.3423857 2.9960938,3 v 10 c 0,0.657604 0.05994,1.178514 0.2246093,1.617188 0.1646605,0.438653 0.4615201,0.790384 0.8378906,0.998046 C 4.811343,16.030608 5.7320337,15.9855 6.9902344,16 H 6.9941406 13 h 0.002 c 1.258091,-0.0151 1.178921,0.0284 1.931641,-0.386719 0.37636,-0.207572 0.67321,-0.55749 0.83789,-0.996093 0.16471,-0.438613 0.22461,-0.959584 0.22461,-1.617188 H 16 V 6 h -0.0039 V 5 4.25 l -4.25,-4.25 h -0.75 -4.0039065 z m 0.00586,1 h 0.00586 3.9941409 v 4 h 2 2 v 1 c 0.0014,7.43e-4 0.0025,0.00121 0.0039,0.00195 v 6.9941409 c -0.0014,7.52e-4 -0.0025,0.0012 -0.0039,0.002 V 13 c 0,0.592387 -0.06261,1.005835 -0.160156,1.265625 -0.09754,0.259799 -0.201346,0.3715 -0.384766,0.472656 C 14.085191,14.940103 13.254714,14.9848 11.996094,15 H 6.9960937 C 5.7375639,14.9853 4.9069753,14.940201 4.5410156,14.738281 4.3576052,14.637095 4.2538501,14.525534 4.15625,14.265625 4.0586908,14.005725 3.9960937,13.592387 3.9960938,13 V 11 H 3.0019531 V 10 H 3.9960938 V 9 H 3.0019531 V 8 H 3.9960938 V 3 c 0,-0.5923969 0.062559,-1.0058252 0.1601562,-1.265625 C 4.253789,1.4745851 4.3575952,1.3628749 4.5410156,1.2617187 4.9069953,1.0598966 5.7374634,1.0151994 6.9960937,1 Z"
     style="fill:#808080;stroke-width:3"
     id="path2" />
</svg>
