<?xml version='1.0' encoding='UTF-8'?>
<!-- Created with Inkscape (http://www.inkscape.org/) and export_objects.py -->
<svg xmlns:cc="http://creativecommons.org/ns#" xmlns:dc="http://purl.org/dc/elements/1.1/" xmlns:inkscape="http://www.inkscape.org/namespaces/inkscape" xmlns:rdf="http://www.w3.org/1999/02/22-rdf-syntax-ns#" xmlns:sodipodi="http://sodipodi.sourceforge.net/DTD/sodipodi-0.dtd" xmlns:xlink="http://www.w3.org/1999/xlink" xmlns="http://www.w3.org/2000/svg" version="1.1" id="svg1" width="16" height="16" viewBox="0 0 16 16" sodipodi:docname="document-revert-symbolic.svg">
<sodipodi:namedview objecttolerance="10" gridtolerance="10" guidetolerance="10" id="namedview" showgrid="true" inkscape:zoom="0.6002936" inkscape:cx="732.67439" inkscape:cy="-567.94603" inkscape:window-width="1920" inkscape:window-height="1016" inkscape:window-x="0" inkscape:window-y="27" inkscape:window-maximized="1" inkscape:current-layer="layer1">
    <inkscape:grid type="xygrid" id="grid"/>
  </sodipodi:namedview>
  <g id="document-revert" inkscape:label="00380">
      <title id="title43138">document-revert</title>
      <path inkscape:connector-curvature="0" id="rect43140" d="M 0,0 H 16 V 16 H 0 Z" style="opacity:0;fill:none"/>
      <path inkscape:connector-curvature="0" style="opacity:1" d="m 2.937498,0.9631152 c -0.6325,0.0456 -1.02766,0.7217098 -0.9375,1.3146498 l 0.0312,12.770875 c 0.057,0.62588 0.69233,1.02817 1.28125,0.93903 l 9.750002,-0.0312 c 0.62425,-0.057 1.02639,-0.69287 0.9375,-1.28334 l -0.0312,-9.797265 c -0.0941,-0.59933 -0.66512,-0.91524 -1.03125,-1.34595 l -2.375,-2.37889 C 10.07204,0.8473953 9.451728,1.005185 8.906248,0.9632152 Z m 4.0625,3.0049098 h 1 v 1.00164 c 0,0.25731 -0.12983,0.52932 -0.3125,0.71993 l -1.28125,1.28334 h 3.125 c 1.921842,0 3.500002,1.58211 3.500002,3.505735 0,1.10215 -0.51808,2.08192 -1.32206,2.71773 l -1.1452,-1.63392 C 10.8361,11.29103 11,10.90858 11,10.47867 11,9.636335 10.4708,8.976215 9.531248,8.976215 h -3.125 l 1.28125,1.283345 c 0.18267,0.1906 0.3125,0.46262 0.3125,0.71993 v 1.00164 h -1 c -0.30945,0 -0.55232,-0.0905 -0.75,-0.28171 l -3.65625,-3.724845 3.65625,-3.72484 c 0.19768,-0.19131 0.44055,-0.28171 0.75,-0.28171 z" id="path43142"/>
    </g>
    </svg>
