<?xml version='1.0' encoding='UTF-8'?>
<!-- Created with Inkscape (http://www.inkscape.org/) and export_objects.py -->
<svg xmlns:cc="http://creativecommons.org/ns#" xmlns:dc="http://purl.org/dc/elements/1.1/" xmlns:inkscape="http://www.inkscape.org/namespaces/inkscape" xmlns:rdf="http://www.w3.org/1999/02/22-rdf-syntax-ns#" xmlns:sodipodi="http://sodipodi.sourceforge.net/DTD/sodipodi-0.dtd" xmlns:xlink="http://www.w3.org/1999/xlink" xmlns="http://www.w3.org/2000/svg" version="1.1" id="svg1" width="16" height="16" viewBox="0 0 16 16" sodipodi:docname="draw-geometry-inactive-symbolic.svg">
<sodipodi:namedview objecttolerance="10" gridtolerance="10" guidetolerance="10" id="namedview" showgrid="true" inkscape:zoom="0.6002936" inkscape:cx="732.67439" inkscape:cy="-567.94603" inkscape:window-width="1920" inkscape:window-height="1016" inkscape:window-x="0" inkscape:window-y="27" inkscape:window-maximized="1" inkscape:current-layer="layer1">
    <inkscape:grid type="xygrid" id="grid"/>
  </sodipodi:namedview>
  <g transform="translate(-468,-589.36218)" inkscape:label="00220" id="draw-geometry-inactive">
      <path inkscape:connector-curvature="0" id="rect5112" d="m 468,589.36218 h 16 v 16 h -16 z" style="opacity:0;fill:none"/>
      <path inkscape:connector-curvature="0" id="path6027" d="m 480.81445,590.3418 a 2.0033355,2.0033355 0 0 0 -1.3789,0.60156 l -10.06836,9.99414 a 2.0033355,2.0033355 0 1 0 2.82226,2.84375 l 10.06836,-9.99414 a 2.0033355,2.0033355 0 0 0 -1.44336,-3.44531 z" style="opacity:1;stroke-linecap:round"/>
      <path inkscape:connector-curvature="0" id="path6027-1" d="m 470.54102,590.48828 a 2.0033355,2.0033355 0 0 0 -1.28125,3.48438 l 10.36914,9.70312 a 2.0033355,2.0033355 0 1 0 2.73632,-2.92383 l -10.36914,-9.70507 a 2.0033355,2.0033355 0 0 0 -1.45507,-0.5586 z" style="opacity:1;stroke-linecap:round"/>
    </g>
    </svg>
