<?xml version="1.0" encoding="UTF-8" standalone="no"?>
<!-- Created with Inkscape (http://www.inkscape.org/) and export_objects.py -->

<svg
   xmlns:dc="http://purl.org/dc/elements/1.1/"
   xmlns:cc="http://creativecommons.org/ns#"
   xmlns:rdf="http://www.w3.org/1999/02/22-rdf-syntax-ns#"
   xmlns:svg="http://www.w3.org/2000/svg"
   xmlns="http://www.w3.org/2000/svg"
   xmlns:sodipodi="http://sodipodi.sourceforge.net/DTD/sodipodi-0.dtd"
   xmlns:inkscape="http://www.inkscape.org/namespaces/inkscape"
   version="1.1"
   id="svg1"
   width="16"
   height="16"
   viewBox="0 0 16 16"
   sodipodi:docname="draw-star-outline-symbolic.svg"
   inkscape:version="0.92.4 (5da689c313, 2019-01-14)">

  
<metadata
     id="metadata10">
    <rdf:RDF>
      <cc:Work
         rdf:about="">
        <dc:format>image/svg+xml</dc:format>
        <dc:type
           rdf:resource="http://purl.org/dc/dcmitype/StillImage" />
      </cc:Work>
    </rdf:RDF>
  </metadata>
  <defs
     id="defs8" />
  <sodipodi:namedview
     objecttolerance="10"
     gridtolerance="10"
     guidetolerance="10"
     id="namedview"
     showgrid="true"
     inkscape:zoom="27.166187"
     inkscape:cx="9.3879532"
     inkscape:cy="7.3166036"
     inkscape:window-width="1280"
     inkscape:window-height="960"
     inkscape:window-x="0"
     inkscape:window-y="27"
     inkscape:window-maximized="1"
     inkscape:current-layer="svg1"
     inkscape:snap-global="false">
    <inkscape:grid
       type="xygrid"
       id="grid" />
  </sodipodi:namedview>
  <g
     transform="matrix(1.000006,0,0,1.002537,-348.99376,-684.09339)"
     id="draw-star-outline"
     inkscape:label="00174">
    <path
       inkscape:connector-curvature="0"
       id="rect19962"
       d="m 349,682.36218 h 15.97919 v 15.9375 H 349 Z"
       style="opacity:0;fill:none" />
    <path
       style="opacity:1;stroke-width:0.98073399"
       d="M 7.9609375 0 L 5.7460938 5.4824219 L 0.37695312 6.1855469 L 4.3945312 10.181641 L 3.3417969 16.054688 L 8.0449219 13.064453 L 12.785156 15.990234 L 12.669922 15.380859 L 11.658203 10.130859 L 15.625 6.078125 L 10.244141 5.4511719 L 7.9609375 0 z M 7.9726562 2.5019531 L 9.578125 6.328125 L 13.402344 6.7714844 L 10.580078 9.65625 L 11.376953 13.787109 L 8.0351562 11.724609 L 4.7207031 13.833984 L 5.4628906 9.6914062 L 2.6015625 6.8476562 L 6.421875 6.3496094 L 7.9726562 2.5019531 z "
       transform="matrix(0.999994,0,0,0.99746942,348.99167,682.36224)"
       id="path822" />
  </g>
</svg>
