<?xml version='1.0' encoding='UTF-8'?>
<!-- Created with Inkscape (http://www.inkscape.org/) and export_objects.py -->
<svg xmlns:cc="http://creativecommons.org/ns#" xmlns:dc="http://purl.org/dc/elements/1.1/" xmlns:inkscape="http://www.inkscape.org/namespaces/inkscape" xmlns:rdf="http://www.w3.org/1999/02/22-rdf-syntax-ns#" xmlns:sodipodi="http://sodipodi.sourceforge.net/DTD/sodipodi-0.dtd" xmlns:xlink="http://www.w3.org/1999/xlink" xmlns="http://www.w3.org/2000/svg" version="1.1" id="svg1" width="16" height="16" viewBox="0 0 16 16" sodipodi:docname="draw-geometry-symbolic.svg">
<sodipodi:namedview objecttolerance="10" gridtolerance="10" guidetolerance="10" id="namedview" showgrid="true" inkscape:zoom="0.6002936" inkscape:cx="732.67439" inkscape:cy="-567.94603" inkscape:window-width="1920" inkscape:window-height="1016" inkscape:window-x="0" inkscape:window-y="27" inkscape:window-maximized="1" inkscape:current-layer="layer1">
    <inkscape:grid type="xygrid" id="grid"/>
  </sodipodi:namedview>
  <g transform="matrix(0.666667,0,0,0.666667,-272,-392.90813)" inkscape:label="00218" id="draw-geometry">
      <g inkscape:label="stock-tool-measure" id="g25148" transform="matrix(1.5,0,0,1.5,316.4997,233.8622)">
        <path inkscape:connector-curvature="0" id="rect25150" d="m -180,20 h 16 v 16 h -16 z" style="opacity:0;fill:none" transform="translate(241.0002,217)"/>
        <path inkscape:connector-curvature="0" id="rect25152" d="m 62.415583,247 h 13.12086 c 0.230123,0 0.415385,0.14867 0.415385,0.33333 v 0.33334 c 0,0.18467 -0.185262,0.33334 -0.415385,0.33334 h -13.12086 c -0.230123,0 -0.415385,-0.14867 -0.415385,-0.33334 v -0.33334 c 0,-0.18466 0.185262,-0.33333 0.415385,-0.33333 z" style="opacity:1"/>
        <path inkscape:connector-curvature="0" style="opacity:1" d="M 73.23901,243.5489 70.52619,242 l -0.77509,0.7745 1.55018,1.9362 0.7751,4.6468 L 73.0002,251 v 2 l 1,-1 0.0139,-3.8042 z" id="path25154"/>
        <path inkscape:connector-curvature="0" style="opacity:1" d="M 64.76397,243.5489 67.43716,242 l 0.76376,0.7745 -1.52753,1.9362 -0.76377,4.6468 L 65.0002,251 v 2 l -1,-1 v -3.8042 z" id="path25156"/>
        <path inkscape:connector-curvature="0" id="rect25158" d="m 68.500198,237.00369 h 1 c 0.277,0 0.5,0.1784 0.5,0.4 v 1.19633 c 0,0.2216 -0.223,0.4 -0.5,0.4 h -1 c -0.277,0 -0.5,-0.1784 -0.5,-0.4 v -1.19633 c 0,-0.2216 0.223,-0.4 0.5,-0.4 z" style="opacity:1"/>
        <path inkscape:connector-curvature="0" id="rect25160" d="m 68.703921,246 h 0.592553 c 0.389862,0 0.703722,0.32888 0.703722,0.73739 v 1.52522 c 0,0.40852 -0.31386,0.7374 -0.703722,0.7374 h -0.592553 c -0.389862,0 -0.703723,-0.32888 -0.703723,-0.7374 v -1.52522 c 0,-0.40851 0.313861,-0.73739 0.703723,-0.73739 z" style="opacity:1"/>
        <path style="opacity:1" d="m -172,21 c -1.6568,0 -3,1.34315 -3,3 0,1.65685 1.3432,3 3,3 1.6569,0 3,-1.34315 3,-3 0,-1.65685 -1.3431,-3 -3,-3 z m 0,1.46875 c 0.8452,0 1.5313,0.68607 1.5313,1.53125 0,0.84518 -0.6861,1.53125 -1.5313,1.53125 -0.8452,0 -1.5312,-0.68607 -1.5312,-1.53125 0,-0.84518 0.686,-1.53125 1.5312,-1.53125 z" transform="translate(241.0002,217)" id="path25162" inkscape:connector-curvature="0"/>
      </g>
    </g>
    </svg>
