<?xml version='1.0' encoding='UTF-8'?>
<!-- Created with Inkscape (http://www.inkscape.org/) and export_objects.py -->
<svg xmlns:cc="http://creativecommons.org/ns#" xmlns:dc="http://purl.org/dc/elements/1.1/" xmlns:inkscape="http://www.inkscape.org/namespaces/inkscape" xmlns:rdf="http://www.w3.org/1999/02/22-rdf-syntax-ns#" xmlns:sodipodi="http://sodipodi.sourceforge.net/DTD/sodipodi-0.dtd" xmlns:xlink="http://www.w3.org/1999/xlink" xmlns="http://www.w3.org/2000/svg" version="1.1" id="svg1" width="16" height="16" viewBox="0 0 16 16" sodipodi:docname="draw-connector-symbolic.svg">
<sodipodi:namedview objecttolerance="10" gridtolerance="10" guidetolerance="10" id="namedview" showgrid="true" inkscape:zoom="0.6002936" inkscape:cx="732.67439" inkscape:cy="-567.94603" inkscape:window-width="1920" inkscape:window-height="1016" inkscape:window-x="0" inkscape:window-y="27" inkscape:window-maximized="1" inkscape:current-layer="layer1">
    <inkscape:grid type="xygrid" id="grid"/>
  </sodipodi:namedview>
  <g transform="matrix(0.666667,0,0,0.666666,-190,-578.24126)" inkscape:label="00143" id="draw-connector">
      <path style="opacity:1" d="m 300.4588,870.364 a 0.4981283,0.4997142 0 0 0 -0.249,0.9056 l 4.794,3.8412 v 7.7448 a 0.4981283,0.4997142 0 1 0 0.9961,0 v -7.9947 a 0.4981283,0.4997142 0 0 0 -0.1867,-0.3747 l -4.9808,-3.9973 a 0.4981283,0.4997142 0 0 0 -0.3736,-0.1249 z" id="path18392" inkscape:connector-curvature="0"/>
      <path style="opacity:1" d="m 293.4826,876.3625 a 0.5014023,0.4705905 20.55043 0 0 -0.4573,0.2735 L 290,882.6619 a 0.50574956,0.47467061 20.55043 1 0 0.9093,0.4417 l 3.0253,-6.0259 a 0.5014023,0.4705905 20.55043 0 0 -0.452,-0.7152 z" id="path5856" inkscape:connector-curvature="0"/>
      <g id="g5746" transform="translate(280.4917,662.8525)">
        <path inkscape:connector-curvature="0" id="rect5710" d="m 10.5083,205.5097 h 7.99868 v 6.99913 H 10.5083 Z" style="opacity:1"/>
      </g>
      <use style="opacity:1" x="0" y="0" id="use5750" transform="translate(-4.99868,15.99998)" width="1250" height="1250" xlink:href="#g5746"/>
      <use style="opacity:1" x="0" y="0" id="use5757" transform="translate(15,8.780086e-4)" width="1250" height="1250" xlink:href="#use5750"/>
      <path inkscape:connector-curvature="0" id="rect18379" d="m 285,867.36218 h 24 v 24 h -24 z" style="opacity:0;fill:none"/>
    </g>
    </svg>
