<?xml version='1.0' encoding='UTF-8'?>
<!-- Created with Inkscape (http://www.inkscape.org/) and export_objects.py -->
<svg xmlns:cc="http://creativecommons.org/ns#" xmlns:dc="http://purl.org/dc/elements/1.1/" xmlns:inkscape="http://www.inkscape.org/namespaces/inkscape" xmlns:rdf="http://www.w3.org/1999/02/22-rdf-syntax-ns#" xmlns:sodipodi="http://sodipodi.sourceforge.net/DTD/sodipodi-0.dtd" xmlns:xlink="http://www.w3.org/1999/xlink" xmlns="http://www.w3.org/2000/svg" version="1.1" id="svg1" width="16" height="16" viewBox="0 0 16 16" sodipodi:docname="draw-spiral-symbolic.svg">
<sodipodi:namedview objecttolerance="10" gridtolerance="10" guidetolerance="10" id="namedview" showgrid="true" inkscape:zoom="0.6002936" inkscape:cx="732.67439" inkscape:cy="-567.94603" inkscape:window-width="1920" inkscape:window-height="1016" inkscape:window-x="0" inkscape:window-y="27" inkscape:window-maximized="1" inkscape:current-layer="layer1">
    <inkscape:grid type="xygrid" id="grid"/>
  </sodipodi:namedview>
  <g transform="matrix(0.666667,0,0,0.666666,-190,-474.90772)" inkscape:label="00133" id="draw-spiral">
      <path inkscape:connector-curvature="0" id="rect14479" d="m 285,712.36218 h 24 v 24.00002 h -24 z" style="opacity:0;fill:none"/>
      <path inkscape:connector-curvature="0" id="path225" d="m 298.24805,713.9668 c -4.41918,-0.64126 -9.06491,1.39688 -11.38086,5.73437 -2.67088,5.00245 -1.29439,11.70232 3.61719,14.59375 4.16364,2.45101 9.7888,1.06281 12.06835,-3.51758 1.87772,-3.77285 0.79581,-8.77796 -3.0039,-10.80078 -3.01479,-1.60484 -7.05533,-0.51497 -8.50195,2.88477 -0.54027,1.26988 -0.59942,2.69957 -0.20313,3.98828 0.39629,1.2887 1.29332,2.46691 2.66406,3.01758 0.93748,0.37654 1.9858,0.36557 2.91602,-0.0234 0.93022,-0.38901 1.75207,-1.23019 1.99609,-2.38477 0.14447,-0.68359 0.0472,-1.35985 -0.29101,-2.0039 -0.1691,-0.32203 -0.41697,-0.64329 -0.79688,-0.8711 -0.37991,-0.2278 -0.90008,-0.31557 -1.37109,-0.20507 a 1.0001,1.0001 0 0 0 0.37109,1.96289 c 0.0114,0.0132 0.004,0.002 0.0254,0.043 0.0866,0.16499 0.1284,0.55164 0.10547,0.66015 -0.10608,0.50192 -0.38749,0.77816 -0.81055,0.95508 -0.42305,0.17692 -0.97951,0.17998 -1.39843,0.0117 -0.74386,-0.29883 -1.24471,-0.92616 -1.49805,-1.75 -0.25334,-0.82385 -0.21138,-1.81277 0.13086,-2.61719 0.98338,-2.31106 3.67924,-2.9901 5.72266,-1.90234 2.69549,1.43498 3.57418,5.29158 2.15429,8.14453 -1.76964,3.55581 -6.05567,4.57514 -9.26562,2.68555 -3.86543,-2.27557 -5.04831,-7.84258 -2.86719,-11.92774 2.55686,-4.78867 8.44487,-6.13795 12.8125,-3.42969 5.02495,3.11571 6.50945,10.39923 3.55664,15.71289 -0.009,0.0166 -0.0182,0.0349 -0.0293,0.0547 a 1.0001,1.0001 0 1 0 1.7461,0.97461 c 0.01,-0.0178 0.0194,-0.0373 0.0312,-0.0586 3.46198,-6.22994 1.78869,-14.63732 -4.25196,-18.38282 -1.32819,-0.82358 -2.77499,-1.33507 -4.24804,-1.54882 z" style="opacity:1;stroke-linecap:round"/>
    </g>
    </svg>
