<?xml version='1.0' encoding='UTF-8'?>
<!-- Created with Inkscape (http://www.inkscape.org/) and export_objects.py -->
<svg xmlns:cc="http://creativecommons.org/ns#" xmlns:dc="http://purl.org/dc/elements/1.1/" xmlns:inkscape="http://www.inkscape.org/namespaces/inkscape" xmlns:rdf="http://www.w3.org/1999/02/22-rdf-syntax-ns#" xmlns:sodipodi="http://sodipodi.sourceforge.net/DTD/sodipodi-0.dtd" xmlns:xlink="http://www.w3.org/1999/xlink" xmlns="http://www.w3.org/2000/svg" version="1.1" id="svg1" width="16" height="16" viewBox="0 0 16 16" sodipodi:docname="draw-eraser-symbolic.svg">
<sodipodi:namedview objecttolerance="10" gridtolerance="10" guidetolerance="10" id="namedview" showgrid="true" inkscape:zoom="0.6002936" inkscape:cx="732.67439" inkscape:cy="-567.94603" inkscape:window-width="1920" inkscape:window-height="1016" inkscape:window-x="0" inkscape:window-y="27" inkscape:window-maximized="1" inkscape:current-layer="layer1">
    <inkscape:grid type="xygrid" id="grid"/>
  </sodipodi:namedview>
  <g transform="matrix(0.666667,0,0,0.666666,-190,-660.90757)" inkscape:label="00151" id="draw-eraser">
      <path inkscape:connector-curvature="0" id="rect29999" d="m 285,991.36218 h 24 v 24.00002 h -24 z" style="opacity:0;fill:none"/>
      <path inkscape:connector-curvature="0" style="opacity:1" d="m 301.7344,992.8622 c -0.1183,0.0242 -0.2393,0.1044 -0.3282,0.1875 l -6.4218,6 6.0468,6.5153 6.2344,-5.8122 c 0.3555,-0.3322 0.2676,-1.0242 -0.1875,-1.5469 l -4.1719,-4.8281 c -0.3413,-0.392 -0.817,-0.5881 -1.1718,-0.5156 z" id="path30001"/>
      <path inkscape:connector-curvature="0" style="opacity:1" d="m 293.25,1000.69 -3.5156,3.282 c -0.3555,0.332 -0.3145,1.024 0.1406,1.546 l 4.2187,4.829 c 0.4551,0.522 1.0977,0.66 1.4532,0.328 l 3.7031,-3.469 z" id="path30003"/>
      <path inkscape:connector-curvature="0" id="path30005" d="m 298.05,1012.362 c -0.5817,0 -1.05,0.446 -1.05,1 0,0.554 0.4683,1 1.05,1 h 2.1 6.3 1.05 v -1 -1 h -1.05 -6.3 z" style="opacity:1"/>
      <path style="opacity:1" d="m 290.7167,1012.362 c 0.7109,0 1.2833,0.446 1.2833,1 0,0.554 -0.5724,1 -1.2833,1 -3.85,0 -3.6667,0 -4.2167,0 v -1 -1 c 0,0 0.3667,0 4.2167,0 z" id="path30007" inkscape:connector-curvature="0"/>
    </g>
    </svg>
