<?xml version='1.0' encoding='UTF-8'?>
<!-- Created with Inkscape (http://www.inkscape.org/) and export_objects.py -->
<svg xmlns:cc="http://creativecommons.org/ns#" xmlns:dc="http://purl.org/dc/elements/1.1/" xmlns:inkscape="http://www.inkscape.org/namespaces/inkscape" xmlns:rdf="http://www.w3.org/1999/02/22-rdf-syntax-ns#" xmlns:sodipodi="http://sodipodi.sourceforge.net/DTD/sodipodi-0.dtd" xmlns:xlink="http://www.w3.org/1999/xlink" xmlns="http://www.w3.org/2000/svg" version="1.1" id="svg1" width="16" height="16" viewBox="0 0 16 16" sodipodi:docname="draw-geometry-angle-bisector-symbolic.svg">
<sodipodi:namedview objecttolerance="10" gridtolerance="10" guidetolerance="10" id="namedview" showgrid="true" inkscape:zoom="0.6002936" inkscape:cx="732.67439" inkscape:cy="-567.94603" inkscape:window-width="1920" inkscape:window-height="1016" inkscape:window-x="0" inkscape:window-y="27" inkscape:window-maximized="1" inkscape:current-layer="layer1">
    <inkscape:grid type="xygrid" id="grid"/>
  </sodipodi:namedview>
  <g transform="matrix(0.995615,0,0,0.998661,-646.09631,-588.55169)" inkscape:label="00226" id="draw-geometry-angle-bisector">
      <path inkscape:connector-curvature="0" id="rect14611" d="m 649,77 h 16 v 16 h -16 z" style="opacity:0;fill:none" transform="translate(0,512.3622)"/>
      <path inkscape:connector-curvature="0" id="path4418-8-1" d="m 649.49609,589.3418 a 0.58990589,0.58990589 0 0 0 -0.39257,0.99414 l 13.64843,14.81445 a 0.58990589,0.58990589 0 1 0 0.86719,-0.79883 L 649.9707,589.53711 a 0.58990589,0.58990589 0 0 0 -0.47461,-0.19531 z" style="opacity:1;stroke-linecap:round"/>
      <path inkscape:connector-curvature="0" id="path4418-8-1-0" d="m 652.28906,592.17188 a 0.58990589,0.58990589 0 0 0 -0.57422,0.7539 L 655,604.26367 a 0.58990589,0.58990589 0 1 0 1.13281,-0.32812 l -2.93359,-10.12891 10.9668,4.80274 a 0.58990589,0.58990589 0 1 0 0.47265,-1.08008 l -12.11914,-5.3086 a 0.58990589,0.58990589 0 0 0 -0.23047,-0.0488 z" style="opacity:1;stroke-linecap:round"/>
    </g>
    </svg>
