<?xml version='1.0' encoding='UTF-8'?>
<!-- Created with Inkscape (http://www.inkscape.org/) and export_objects.py -->
<svg xmlns:cc="http://creativecommons.org/ns#" xmlns:dc="http://purl.org/dc/elements/1.1/" xmlns:inkscape="http://www.inkscape.org/namespaces/inkscape" xmlns:rdf="http://www.w3.org/1999/02/22-rdf-syntax-ns#" xmlns:sodipodi="http://sodipodi.sourceforge.net/DTD/sodipodi-0.dtd" xmlns:xlink="http://www.w3.org/1999/xlink" xmlns="http://www.w3.org/2000/svg" version="1.1" id="svg1" width="16" height="16" viewBox="0 0 16 16" sodipodi:docname="draw-ellipse-whole-symbolic.svg">
<sodipodi:namedview objecttolerance="10" gridtolerance="10" guidetolerance="10" id="namedview" showgrid="true" inkscape:zoom="0.6002936" inkscape:cx="732.67439" inkscape:cy="-567.94603" inkscape:window-width="1920" inkscape:window-height="1016" inkscape:window-x="0" inkscape:window-y="27" inkscape:window-maximized="1" inkscape:current-layer="layer1">
    <inkscape:grid type="xygrid" id="grid"/>
  </sodipodi:namedview>
  <g transform="translate(-349,-651.36218)" inkscape:label="00173" id="draw-ellipse-whole">
      <path inkscape:connector-curvature="0" id="rect19849" d="m 349,651.36218 h 16 v 16 h -16 z" style="opacity:0;fill:none"/>
      <path inkscape:connector-curvature="0" style="opacity:1" d="m 357,141 c -3.3137,0 -6,2.6863 -6,6 0,3.3137 2.6863,6 6,6 2.6234,0 4.8409,-1.6856 5.6562,-4.0313 -0.5887,-0.1043 -1.1385,-0.4606 -1.4375,-1.0312 -0.5125,-0.9782 -0.1345,-2.2062 0.8438,-2.7188 0.2005,-0.105 0.4128,-0.1547 0.625,-0.1875 -0.3464,-1.0024 -0.9665,-1.8811 -1.75,-2.5625 -0.1314,0.5389 -0.4701,1.0349 -1,1.3125 -0.9783,0.5126 -2.2062,0.1346 -2.7188,-0.8437 -0.3312,-0.6323 -0.2717,-1.3629 0.062,-1.9375 -0.092,0 -0.1882,0 -0.2812,0 z" transform="translate(0,512.3622)" id="path19864"/>
      <path inkscape:connector-curvature="0" id="path19915" d="m 359.88578,141.53589 a 1,1 0 0 1 -0.41663,1.34723 1,1 0 0 1 -1.34958,-0.40894 1,1 0 0 1 0.40123,-1.35189 1,1 0 0 1 1.35416,0.39352 L 359,142 Z" style="opacity:1" transform="translate(0,512.3622)"/>
      <path inkscape:connector-curvature="0" id="path19917" d="m 363.88578,146.53589 a 1,1 0 0 1 -0.41663,1.34723 1,1 0 0 1 -1.34958,-0.40894 1,1 0 0 1 0.40123,-1.35189 1,1 0 0 1 1.35416,0.39352 L 363,147 Z" style="opacity:1" transform="translate(0,512.3622)"/>
    </g>
    </svg>
