<?xml version='1.0' encoding='UTF-8'?>
<!-- Created with Inkscape (http://www.inkscape.org/) and export_objects.py -->
<svg xmlns:cc="http://creativecommons.org/ns#" xmlns:dc="http://purl.org/dc/elements/1.1/" xmlns:inkscape="http://www.inkscape.org/namespaces/inkscape" xmlns:rdf="http://www.w3.org/1999/02/22-rdf-syntax-ns#" xmlns:sodipodi="http://sodipodi.sourceforge.net/DTD/sodipodi-0.dtd" xmlns:xlink="http://www.w3.org/1999/xlink" xmlns="http://www.w3.org/2000/svg" version="1.1" id="svg1" width="16" height="16" viewBox="0 0 16 16" sodipodi:docname="edit-paste-in-place-symbolic.svg">
<sodipodi:namedview objecttolerance="10" gridtolerance="10" guidetolerance="10" id="namedview" showgrid="true" inkscape:zoom="0.6002936" inkscape:cx="732.67439" inkscape:cy="-567.94603" inkscape:window-width="1920" inkscape:window-height="1016" inkscape:window-x="0" inkscape:window-y="27" inkscape:window-maximized="1" inkscape:current-layer="layer1">
    <inkscape:grid type="xygrid" id="grid"/>
  </sodipodi:namedview>
  <g transform="matrix(1,0,0,0.999997,-45.070339,-547.42325)" inkscape:label="00010" id="edit-paste-in-place">
      <path inkscape:connector-curvature="0" id="rect14038" d="m 45.070339,547.48248 h 16 v 15.93773 h -16 z" style="opacity:0;fill:none"/>
      <path inkscape:connector-curvature="0" id="rect6874" d="m 50.53033,547.42468 h 4.93934 c 0.293803,0 0.53033,0.23653 0.53033,0.53033 v 1.92767 c 0,0.2938 -0.236527,0.53033 -0.53033,0.53033 H 50.53033 C 50.236527,550.41301 50,550.17648 50,549.88268 v -1.92767 c 0,-0.2938 0.236527,-0.53033 0.53033,-0.53033 z" style="opacity:1"/>
      <path style="opacity:1" d="m 49,552.4052 v 7.9689 h 6 l 2,-1.9922 v -5.9767 z m 3,0.9961 h 2 v 2.9884 h 2 l -3,2.9883 -3,-2.9883 h 2 z" id="path6973" inkscape:connector-curvature="0"/>
      <path style="opacity:1" d="m 46.53125,548.4208 c -0.0426,0 -0.08527,0.0217 -0.125,0.0311 -0.23426,0.0554 -0.40751,0.2478 -0.40625,0.4981 l 0.03125,6.9727 L 46,562.8955 c -0.0013,0.2502 0.17199,0.4426 0.40625,0.498 0.06346,0.0267 0.11405,0.0316 0.1875,0.0312 H 49 l 10.46875,-0.0624 C 59.76255,563.361 60,563.1259 60,562.8332 v -5.3852 -3.0505 -5.3853 c 0,-0.2926 -0.23745,-0.5281 -0.53125,-0.5291 H 57 v 0.9961 h 1.46875 C 58.76255,549.4807 59,549.7157 59,550.0083 v 4.3891 3.0506 4.3891 c 0,0.2927 -0.23745,0.5276 -0.53125,0.5292 L 49,562.4286 h -1.40625 c -0.02382,1e-4 -0.03954,0.003 -0.0625,0 -0.0426,0 -0.08526,-0.0217 -0.125,-0.0311 -0.19032,-0.08 -0.34246,-0.2786 -0.34375,-0.4981 l -0.03125,-5.9766 0.03125,-5.9767 c 0.0013,-0.2195 0.15343,-0.4181 0.34375,-0.498 0.03974,-0.009 0.0824,-0.0311 0.125,-0.0311 H 49 v -0.9961 h -2.46875 z" id="path6977" inkscape:connector-curvature="0"/>
    </g>
    </svg>
