<?xml version='1.0' encoding='UTF-8'?>
<!-- Created with Inkscape (http://www.inkscape.org/) and export_objects.py -->
<svg xmlns:cc="http://creativecommons.org/ns#" xmlns:dc="http://purl.org/dc/elements/1.1/" xmlns:inkscape="http://www.inkscape.org/namespaces/inkscape" xmlns:rdf="http://www.w3.org/1999/02/22-rdf-syntax-ns#" xmlns:sodipodi="http://sodipodi.sourceforge.net/DTD/sodipodi-0.dtd" xmlns:xlink="http://www.w3.org/1999/xlink" xmlns="http://www.w3.org/2000/svg" version="1.1" id="svg1" width="16" height="16" viewBox="0 0 16 16" sodipodi:docname="edit-select-all-layers-symbolic.svg">
<sodipodi:namedview objecttolerance="10" gridtolerance="10" guidetolerance="10" id="namedview" showgrid="true" inkscape:zoom="0.6002936" inkscape:cx="732.67439" inkscape:cy="-567.94603" inkscape:window-width="1920" inkscape:window-height="1016" inkscape:window-x="0" inkscape:window-y="27" inkscape:window-maximized="1" inkscape:current-layer="layer1">
    <inkscape:grid type="xygrid" id="grid"/>
  </sodipodi:namedview>
  <g transform="translate(-45,-687.36218)" inkscape:label="00017" id="edit-select-all-layers">
      <path inkscape:connector-curvature="0" id="rect11958" d="m 45,687.36218 h 16 v 16 H 45 Z" style="opacity:0;fill:none"/>
      <path style="opacity:1" d="m 47,692.3622 3,-3 h 8 l -3,3 z" id="path11964" inkscape:connector-curvature="0"/>
      <path inkscape:connector-curvature="0" id="rect55305" d="m 45,175 h 1 v 1 h -1 z" style="opacity:1;stroke-linecap:round" transform="translate(0,512.3622)"/>
      <path inkscape:connector-curvature="0" id="rect55307" d="m 47,175 h 1 v 1 h -1 z" style="opacity:1" transform="translate(0,512.3622)"/>
      <path inkscape:connector-curvature="0" id="rect55309" d="m 49,175 h 1 v 1 h -1 z" style="opacity:1" transform="translate(0,512.3622)"/>
      <path inkscape:connector-curvature="0" id="rect55311" d="m 51,175 h 1 v 1 h -1 z" style="opacity:1" transform="translate(0,512.3622)"/>
      <path inkscape:connector-curvature="0" id="rect55313" d="m 53,175 h 1 v 1 h -1 z" style="opacity:1" transform="translate(0,512.3622)"/>
      <path inkscape:connector-curvature="0" id="rect55315" d="m 55,175 h 1 v 1 h -1 z" style="opacity:1" transform="translate(0,512.3622)"/>
      <path inkscape:connector-curvature="0" id="rect55317" d="m 57,175 h 1 v 1 h -1 z" style="opacity:1" transform="translate(0,512.3622)"/>
      <path inkscape:connector-curvature="0" id="rect55319" d="m 59,175 h 1 v 1 h -1 z" style="opacity:1" transform="translate(0,512.3622)"/>
      <path inkscape:connector-curvature="0" id="rect55321" d="m 45,177 h 1 v 1 h -1 z" style="opacity:1" transform="translate(0,512.3622)"/>
      <path inkscape:connector-curvature="0" id="rect55323" d="m 45,179 h 1 v 1 h -1 z" style="opacity:1" transform="translate(0,512.3622)"/>
      <path inkscape:connector-curvature="0" id="rect55325" d="m 45,181 h 1 v 1 h -1 z" style="opacity:1" transform="translate(0,512.3622)"/>
      <path inkscape:connector-curvature="0" id="rect55327" d="m 45,183 h 1 v 1 h -1 z" style="opacity:1" transform="translate(0,512.3622)"/>
      <path inkscape:connector-curvature="0" id="rect55329" d="m 45,697.36218 h 1 v 1 h -1 z" style="opacity:1"/>
      <path inkscape:connector-curvature="0" id="rect55331" d="m 45,187 h 1 v 1 h -1 z" style="opacity:1" transform="translate(0,512.3622)"/>
      <path inkscape:connector-curvature="0" id="rect55333" d="m 45,189 h 1 v 1 h -1 z" style="opacity:1" transform="translate(0,512.3622)"/>
      <path inkscape:connector-curvature="0" id="path55339" d="m 47,696.3622 3,-3 h 8 l -3,3 z" style="opacity:1"/>
      <path style="opacity:1" d="m 47,700.3622 3,-3 h 8 l -3,3 z" id="path55341" inkscape:connector-curvature="0"/>
      <path inkscape:connector-curvature="0" id="rect55343" d="m 59,177 h 1 v 1 h -1 z" style="opacity:1" transform="translate(0,512.3622)"/>
      <path inkscape:connector-curvature="0" id="rect55345" d="m 59,179 h 1 v 1 h -1 z" style="opacity:1" transform="translate(0,512.3622)"/>
      <path inkscape:connector-curvature="0" id="rect55347" d="m 59,181 h 1 v 1 h -1 z" style="opacity:1" transform="translate(0,512.3622)"/>
      <path inkscape:connector-curvature="0" id="rect55349" d="m 59,183 h 1 v 1 h -1 z" style="opacity:1" transform="translate(0,512.3622)"/>
      <path inkscape:connector-curvature="0" id="rect55351" d="m 59,185 h 1 v 1 h -1 z" style="opacity:1" transform="translate(0,512.3622)"/>
      <path inkscape:connector-curvature="0" id="rect55353" d="m 59,187 h 1 v 1 h -1 z" style="opacity:1" transform="translate(0,512.3622)"/>
      <path inkscape:connector-curvature="0" id="rect55355" d="m 59,189 h 1 v 1 h -1 z" style="opacity:1" transform="translate(0,512.3622)"/>
      <path inkscape:connector-curvature="0" id="rect55357" d="m 47,189 h 1 v 1 h -1 z" style="opacity:1" transform="translate(0,512.3622)"/>
      <path inkscape:connector-curvature="0" id="rect55359" d="m 49,189 h 1 v 1 h -1 z" style="opacity:1" transform="translate(0,512.3622)"/>
      <path inkscape:connector-curvature="0" id="rect55361" d="m 51,189 h 1 v 1 h -1 z" style="opacity:1" transform="translate(0,512.3622)"/>
      <path inkscape:connector-curvature="0" id="rect55363" d="m 53,189 h 1 v 1 h -1 z" style="opacity:1" transform="translate(0,512.3622)"/>
      <path inkscape:connector-curvature="0" id="rect55365" d="m 55,189 h 1 v 1 h -1 z" style="opacity:1" transform="translate(0,512.3622)"/>
      <path inkscape:connector-curvature="0" id="rect55367" d="m 57,189 h 1 v 1 h -1 z" style="opacity:1" transform="translate(0,512.3622)"/>
    </g>
    </svg>
