<?xml version='1.0' encoding='UTF-8'?>
<!-- Created with Inkscape (http://www.inkscape.org/) and export_objects.py -->
<svg xmlns:cc="http://creativecommons.org/ns#" xmlns:dc="http://purl.org/dc/elements/1.1/" xmlns:inkscape="http://www.inkscape.org/namespaces/inkscape" xmlns:rdf="http://www.w3.org/1999/02/22-rdf-syntax-ns#" xmlns:sodipodi="http://sodipodi.sourceforge.net/DTD/sodipodi-0.dtd" xmlns:xlink="http://www.w3.org/1999/xlink" xmlns="http://www.w3.org/2000/svg" version="1.1" id="svg1" width="16" height="16" viewBox="0 0 16 16" sodipodi:docname="edit-select-original-symbolic.svg">
<sodipodi:namedview objecttolerance="10" gridtolerance="10" guidetolerance="10" id="namedview" showgrid="true" inkscape:zoom="0.6002936" inkscape:cx="732.67439" inkscape:cy="-567.94603" inkscape:window-width="1920" inkscape:window-height="1016" inkscape:window-x="0" inkscape:window-y="27" inkscape:window-maximized="1" inkscape:current-layer="layer1">
    <inkscape:grid type="xygrid" id="grid"/>
  </sodipodi:namedview>
  <g transform="translate(-45,-787.3622)" id="edit-select-original" inkscape:label="00022">
      <path inkscape:connector-curvature="0" id="path56050" d="m 45,787.3622 v 16 h 16 v -16 z" style="opacity:0;fill:none"/>
      <path inkscape:connector-curvature="0" style="opacity:1" d="m 55,280 v 2.0937 C 55.14783,282.0436 55.30201,282 55.46875,282 h 1 C 57.32017,282 58,282.7099 58,283.5625 V 285 h 0.46875 c 0.27497,0 0.5,0.2493 0.5,0.5625 v 0.3125 3.0937 H 53 V 286 h -2 v 5 h 10 v -11 z m 0.5,3.0312 c -0.25742,0 -0.46875,0.1981 -0.46875,0.5313 V 285 H 57 v -1.4375 c 0,-0.3332 -0.24258,-0.5313 -0.5,-0.5313 z" transform="translate(0,512.3622)" id="path56059"/>
      <path style="opacity:1" d="m 49,797.3622 v 0 h 5 v -5 0 -4 h -9 v 9 z" id="path56048" inkscape:connector-curvature="0"/>
    </g>
    </svg>
