<?xml version='1.0' encoding='UTF-8'?>
<!-- Created with Inkscape (http://www.inkscape.org/) and export_objects.py -->
<svg xmlns:cc="http://creativecommons.org/ns#" xmlns:dc="http://purl.org/dc/elements/1.1/" xmlns:inkscape="http://www.inkscape.org/namespaces/inkscape" xmlns:rdf="http://www.w3.org/1999/02/22-rdf-syntax-ns#" xmlns:sodipodi="http://sodipodi.sourceforge.net/DTD/sodipodi-0.dtd" xmlns:xlink="http://www.w3.org/1999/xlink" xmlns="http://www.w3.org/2000/svg" version="1.1" id="svg1" width="16" height="16" viewBox="0 0 16 16" sodipodi:docname="edit-cut-symbolic.svg">
<sodipodi:namedview objecttolerance="10" gridtolerance="10" guidetolerance="10" id="namedview" showgrid="true" inkscape:zoom="0.6002936" inkscape:cx="732.67439" inkscape:cy="-567.94603" inkscape:window-width="1920" inkscape:window-height="1016" inkscape:window-x="0" inkscape:window-y="27" inkscape:window-maximized="1" inkscape:current-layer="layer1">
    <inkscape:grid type="xygrid" id="grid"/>
  </sodipodi:namedview>
  <g transform="matrix(1,0,0,0.999994,-441,-1132.3549)" id="edit-cut" inkscape:label="00377">
      <path inkscape:connector-curvature="0" id="gtk-edit" d="m 441,1132.3621 h 16 v 16 h -16 z" style="opacity:0;fill:none"/>
      <path inkscape:connector-curvature="0" style="opacity:1" d="m 444.3591,1132.362 c -1.0384,0.472 -1.3774,1.498 -0.7778,2.315 l 4.3289,6.201 -1.7101,2.016 1.3848,1.776 1.5766,-2.116 1.5461,2.116 1.3721,-1.701 -1.6668,-2.091 4.3289,-6.201 c 0.5995,-0.817 0.2606,-1.843 -0.7779,-2.315 l -4.8024,6.813 z" id="path12477"/>
      <path style="opacity:1" d="m 453.5,1141.362 c -1.933,0 -3.5,1.567 -3.5,3.5 0,1.933 1.567,3.5 3.5,3.5 1.933,0 3.5,-1.567 3.5,-3.5 0,-1.933 -1.567,-3.5 -3.5,-3.5 z m 0,2 c 0.8284,0 1.5,0.672 1.5,1.5 0,0.829 -0.6716,1.5 -1.5,1.5 -0.8284,0 -1.5,-0.671 -1.5,-1.5 0,-0.828 0.6716,-1.5 1.5,-1.5 z" id="path61250" inkscape:connector-curvature="0"/>
      <path id="path61253" d="m 444.5,1141.362 c -1.933,0 -3.5,1.567 -3.5,3.5 0,1.933 1.567,3.5 3.5,3.5 1.933,0 3.5,-1.567 3.5,-3.5 0,-1.933 -1.567,-3.5 -3.5,-3.5 z m 0,2 c 0.8284,0 1.5,0.672 1.5,1.5 0,0.829 -0.6716,1.5 -1.5,1.5 -0.8284,0 -1.5,-0.671 -1.5,-1.5 0,-0.828 0.6716,-1.5 1.5,-1.5 z" style="opacity:1" inkscape:connector-curvature="0"/>
    </g>
    </svg>
