<?xml version="1.0" encoding="UTF-8" standalone="no"?>
<svg
   xmlns:dc="http://purl.org/dc/elements/1.1/"
   xmlns:cc="http://creativecommons.org/ns#"
   xmlns:rdf="http://www.w3.org/1999/02/22-rdf-syntax-ns#"
   xmlns:svg="http://www.w3.org/2000/svg"
   xmlns="http://www.w3.org/2000/svg"
   xmlns:sodipodi="http://sodipodi.sourceforge.net/DTD/sodipodi-0.dtd"
   xmlns:inkscape="http://www.inkscape.org/namespaces/inkscape"
   inkscape:version="1.0alpha (634dba98d9, 2019-03-28)"
   sodipodi:docname="ellipse-5pts-symbolic.svg"
   viewBox="0 0 16 16"
   height="16"
   width="16"
   id="svg1"
   version="1.1">

  
  <defs
     id="defs913">
    <inkscape:path-effect
       effect="pts2ellipse"
       id="path-effect1415"
       is_visible="true"
       method="steiner_ellipse"
       gen_arc="false"
       arc_other="false"
       slice_arc="false"
       gen_isometric_frame="false"
       draw_axes="false"
       gen_perspective_frame="false"
       draw_perspective_axes="false"
       rot_axes="0"
       draw_ori_path="false" />
  </defs>
  <sodipodi:namedview
     inkscape:snap-global="false"
     inkscape:current-layer="layercompo"
     inkscape:window-maximized="1"
     inkscape:window-height="1376"
     inkscape:window-width="2560"
     inkscape:window-y="27"
     inkscape:window-x="0"
     inkscape:cy="10.902898"
     inkscape:cx="16.306885"
     inkscape:zoom="19.209395"
     showgrid="true"
     id="namedview"
     guidetolerance="10"
     gridtolerance="10"
     objecttolerance="10">
    <inkscape:grid
       id="grid"
       type="xygrid" />
  </sodipodi:namedview>
  
<metadata
     id="metadata1906">
    <rdf:RDF>
      <cc:Work
         rdf:about="">
        <dc:format>image/svg+xml</dc:format>
        <dc:type
           rdf:resource="http://purl.org/dc/dcmitype/StillImage" />
        <cc:license
           rdf:resource="http://creativecommons.org/publicdomain/zero/1.0/" />
        <dc:title>LiveEffect Icons proposal</dc:title>
        <dc:date>13 Jan 2019</dc:date>
        <dc:creator>
          <cc:Agent>
            <dc:title>Ramón Miranda</dc:title>
          </cc:Agent>
        </dc:creator>
        <dc:rights>
          <cc:Agent>
            <dc:title>see the license tab</dc:title>
          </cc:Agent>
        </dc:rights>
        <dc:subject>
          <rdf:Bag>
            <rdf:li>icon ui</rdf:li>
          </rdf:Bag>
        </dc:subject>
        <dc:description>This is a contribution with Inkscape Project from
Ramon Miranda www.ramonmiranda.com (design and SVG file)
Jabiertxo (SVG stuff to integrate them in UI)</dc:description>
        <dc:publisher>
          <cc:Agent>
            <dc:title />
          </cc:Agent>
        </dc:publisher>
        <dc:identifier />
        <dc:source />
        <dc:relation />
        <dc:language>-</dc:language>
        <dc:coverage />
        <dc:contributor>
          <cc:Agent>
            <dc:title>Ramon Miranda
Jabier Arraiza</dc:title>
          </cc:Agent>
        </dc:contributor>
      </cc:Work>
      <cc:License
         rdf:about="http://creativecommons.org/publicdomain/zero/1.0/">
        <cc:permits
           rdf:resource="http://creativecommons.org/ns#Reproduction" />
        <cc:permits
           rdf:resource="http://creativecommons.org/ns#Distribution" />
        <cc:permits
           rdf:resource="http://creativecommons.org/ns#DerivativeWorks" />
      </cc:License>
    </rdf:RDF>
  </metadata>
  <g
     inkscape:label="ellipse-5pts"
     id="layercompo"
     inkscape:groupmode="layer">
    <path
       style="opacity:0;fill:none"
       d="M 0,0 H 16 V 16 H 0 Z"
       id="rect22048" />
    <path
       d="M 4.9648438 1.3359375 A 1.5 1.5 0 0 0 3.515625 2.4492188 C 2.9190471 2.5678906 2.4131187 2.8344305 2.0546875 3.2851562 C 1.3274199 4.1996924 1.4721129 5.5348008 2.1171875 6.8964844 A 1.5 1.5 0 0 0 1.7050781 7.9296875 A 1.5 1.5 0 0 0 3.2050781 9.4296875 A 1.5 1.5 0 0 0 3.7695312 9.3183594 C 4.3166912 9.9381245 4.9384067 10.547889 5.6542969 11.117188 C 6.1429625 11.50579 6.6408674 11.840714 7.1386719 12.148438 A 1.5 1.5 0 0 0 7.109375 12.443359 A 1.5 1.5 0 0 0 8.609375 13.943359 A 1.5 1.5 0 0 0 9.7734375 13.386719 C 10.013346 13.4636 10.257188 13.550449 10.488281 13.603516 C 11.991402 13.948683 13.357452 13.792133 14.097656 12.861328 C 14.585552 12.247802 14.678508 11.443579 14.496094 10.570312 A 1.5 1.5 0 0 0 15.265625 9.2597656 A 1.5 1.5 0 0 0 13.765625 7.7597656 A 1.5 1.5 0 0 0 13.208984 7.8691406 C 12.684274 7.1260843 12.020742 6.3875896 11.242188 5.6835938 A 1.5 1.5 0 0 0 11.486328 4.8652344 A 1.5 1.5 0 0 0 9.9863281 3.3652344 A 1.5 1.5 0 0 0 8.8398438 3.9003906 C 8.0312228 3.4155971 7.2319678 3.0397874 6.4628906 2.7851562 A 1.5 1.5 0 0 0 4.9648438 1.3359375 z M 3.53125 3.2734375 A 1.5 1.5 0 0 0 4.9648438 4.3359375 A 1.5 1.5 0 0 0 6.2753906 3.5644531 C 6.9850123 3.8064728 7.7387388 4.1650916 8.5058594 4.6308594 A 1.5 1.5 0 0 0 8.4863281 4.8652344 A 1.5 1.5 0 0 0 9.9863281 6.3652344 A 1.5 1.5 0 0 0 10.636719 6.2167969 C 11.411645 6.9102123 12.066174 7.6370696 12.570312 8.3535156 A 1.5 1.5 0 0 0 12.265625 9.2597656 A 1.5 1.5 0 0 0 13.699219 10.757812 C 13.831633 11.432234 13.764663 11.995581 13.470703 12.365234 C 13.011833 12.942261 12.014769 13.133938 10.666016 12.824219 C 10.484432 12.782521 10.286504 12.709766 10.095703 12.650391 C 10.09552 12.650334 10.095886 12.648494 10.095703 12.648438 A 1.5 1.5 0 0 0 10.109375 12.443359 A 1.5 1.5 0 0 0 8.609375 10.943359 A 1.5 1.5 0 0 0 7.5019531 11.433594 C 7.0503361 11.151778 6.5994809 10.844259 6.1542969 10.490234 C 5.4895555 9.9616113 4.9132036 9.3977331 4.40625 8.828125 A 1.5 1.5 0 0 0 4.7050781 7.9296875 A 1.5 1.5 0 0 0 3.2050781 6.4296875 A 1.5 1.5 0 0 0 2.8105469 6.4824219 C 2.2703273 5.3032395 2.2384674 4.3380357 2.6796875 3.7832031 C 2.8719099 3.5414842 3.1639915 3.3716359 3.53125 3.2734375 z "
       style="opacity:1"
       id="path2099" />
  </g>
</svg>
