<?xml version="1.0" encoding="UTF-8" standalone="no"?>
<svg
   id="svg8"
   version="1.1"
   viewBox="0 0 10 22"
   height="22"
   width="10"
   sodipodi:docname="entries-unlinked-symbolic.svg"
   inkscape:version="1.2-dev (29ad559b95, 2021-07-07, custom)"
   xmlns:inkscape="http://www.inkscape.org/namespaces/inkscape"
   xmlns:sodipodi="http://sodipodi.sourceforge.net/DTD/sodipodi-0.dtd"
   xmlns="http://www.w3.org/2000/svg"
   xmlns:svg="http://www.w3.org/2000/svg"
   xmlns:rdf="http://www.w3.org/1999/02/22-rdf-syntax-ns#"
   xmlns:cc="http://creativecommons.org/ns#"
   xmlns:dc="http://purl.org/dc/elements/1.1/">
  <sodipodi:namedview
     id="namedview19"
     pagecolor="#505050"
     bordercolor="#eeeeee"
     borderopacity="1"
     inkscape:pageshadow="0"
     inkscape:pageopacity="0"
     inkscape:pagecheckerboard="0"
     showgrid="false"
     inkscape:zoom="21.496046"
     inkscape:cx="4.1402963"
     inkscape:cy="6.9547674"
     inkscape:window-width="1500"
     inkscape:window-height="934"
     inkscape:window-x="0"
     inkscape:window-y="0"
     inkscape:window-maximized="1"
     inkscape:current-layer="svg8">
    <inkscape:grid
       type="xygrid"
       id="grid861" />
  </sodipodi:namedview>
  <defs
     id="defs2" />
  <metadata
     id="metadata5">
    <rdf:RDF>
      <cc:Work
         rdf:about="">
        <dc:format>image/svg+xml</dc:format>
        <dc:type
           rdf:resource="http://purl.org/dc/dcmitype/StillImage" />
      </cc:Work>
    </rdf:RDF>
  </metadata>
  <path
     id="path847"
     style="color:#000000;fill-rule:evenodd;stroke-linecap:round;stroke-linejoin:round;-inkscape-stroke:none"
     d="M 5,2 C 3.346652,2 2,3.346652 2,5 V 7.3710938 C 2.286667,7.0448118 2.623499,6.7652859 3,6.5449219 V 5 C 3,3.883351 3.883351,3 5,3 6.116649,3 7,3.883351 7,5 V 7.3828125 C 7.363342,7.5489923 7.6992999,7.7645544 8,8.0214844 V 5 C 8,3.346652 6.653348,2 5,2 Z" />
  <g
     id="layer1-3"
     transform="matrix(0.04643223,-0.04643223,0.04643223,0.04643223,-32.225954,-17.159863)"
     style="stroke-width:15.2287" />
  <path
     style="color:#000000;fill:#000000;stroke-linecap:round;stroke-linejoin:round;-inkscape-stroke:none"
     d="M 4.5,0 V 4 C 4.5,4.2761424 4.7238576,4.5 5,4.5 5.2761424,4.5 5.5,4.2761424 5.5,4 V 0 Z"
     id="path926"
     sodipodi:nodetypes="cssscc" />
  <path
     id="path1523"
     style="color:#000000;fill-rule:evenodd;stroke-linecap:round;stroke-linejoin:round;-inkscape-stroke:none"
     d="m 5,20.021484 c 1.653348,0 3,-1.346652 3,-3 v -2.371093 c -0.286667,0.326282 -0.623499,0.605808 -1,0.826172 v 1.544921 c 0,1.116649 -0.883351,2 -2,2 -1.116649,0 -2,-0.883351 -2,-2 V 14.638672 C 2.636658,14.472492 2.3007001,14.25693 2,14 v 3.021484 c 0,1.653348 1.346652,3 3,3 z" />
  <path
     style="color:#000000;fill:#000000;stroke-linecap:round;stroke-linejoin:round;-inkscape-stroke:none"
     d="m 5.5,22.021484 v -4 c 0,-0.276142 -0.2238576,-0.5 -0.5,-0.5 -0.2761424,0 -0.5,0.223858 -0.5,0.5 v 4 z"
     id="path1525"
     sodipodi:nodetypes="cssscc" />
</svg>
