<?xml version="1.0" encoding="UTF-8" standalone="no"?>
<!-- Created with Inkscape (http://www.inkscape.org/) and export_objects.py -->

<svg
   version="1.1"
   id="svg1"
   width="16"
   height="16"
   viewBox="0 0 16 16"
   sodipodi:docname="experimental-outline-symbolic.svg"
   inkscape:version="1.3-dev (5a8b50ba77, 2022-07-12, custom)"
   xmlns:inkscape="http://www.inkscape.org/namespaces/inkscape"
   xmlns:sodipodi="http://sodipodi.sourceforge.net/DTD/sodipodi-0.dtd"
   xmlns="http://www.w3.org/2000/svg"
   xmlns:svg="http://www.w3.org/2000/svg"
   xmlns:rdf="http://www.w3.org/1999/02/22-rdf-syntax-ns#"
   xmlns:cc="http://creativecommons.org/ns#"
   xmlns:dc="http://purl.org/dc/elements/1.1/">
  <defs
     id="defs1">
    <inkscape:path-effect
       effect="bspline"
       id="path-effect7"
       is_visible="true"
       lpeversion="1"
       weight="33.333333"
       steps="2"
       helper_size="0"
       apply_no_weight="true"
       apply_with_weight="true"
       only_selected="false" />
    <inkscape:path-effect
       effect="bspline"
       id="path-effect5"
       is_visible="true"
       lpeversion="1"
       weight="33.333333"
       steps="2"
       helper_size="0"
       apply_no_weight="true"
       apply_with_weight="true"
       only_selected="false" />
    <inkscape:path-effect
       effect="bspline"
       id="path-effect3"
       is_visible="true"
       lpeversion="1"
       weight="33.333333"
       steps="2"
       helper_size="0"
       apply_no_weight="true"
       apply_with_weight="true"
       only_selected="false" />
    <inkscape:path-effect
       effect="offset"
       id="path-effect2"
       is_visible="true"
       lpeversion="1.2"
       linejoin_type="miter"
       unit="mm"
       offset="0.075070206"
       miter_limit="4"
       attempt_force_join="false"
       update_on_knot_move="true" />
    <inkscape:path-effect
       effect="offset"
       id="path-effect1"
       is_visible="true"
       lpeversion="1.2"
       linejoin_type="miter"
       unit="mm"
       offset="0.12677978"
       miter_limit="4"
       attempt_force_join="false"
       update_on_knot_move="true" />
  </defs>
  <sodipodi:namedview
     objecttolerance="10"
     gridtolerance="10"
     guidetolerance="10"
     id="namedview"
     showgrid="true"
     inkscape:zoom="108.66475"
     inkscape:cx="9.5937275"
     inkscape:cy="4.9141971"
     inkscape:window-x="0"
     inkscape:window-y="32"
     pagecolor="#ffffff"
     bordercolor="#000000"
     borderopacity="0.25"
     inkscape:showpageshadow="2"
     inkscape:pageopacity="0.0"
     inkscape:pagecheckerboard="0"
     inkscape:deskcolor="#d1d1d1"
     inkscape:window-width="1920"
     inkscape:window-height="1011"
     inkscape:window-maximized="1"
     inkscape:current-layer="layercompo">
    <inkscape:grid
       type="xygrid"
       id="grid" />
  </sodipodi:namedview>
  <metadata
     id="metadata1906">
    <rdf:RDF>
      <cc:Work
         rdf:about="">
        <dc:format>image/svg+xml</dc:format>
        <dc:type
           rdf:resource="http://purl.org/dc/dcmitype/StillImage" />
        <cc:license
           rdf:resource="http://creativecommons.org/publicdomain/zero/1.0/" />
        <dc:date>13 Jan 2019</dc:date>
        <dc:creator>
          <cc:Agent>
            <dc:title>Ramón Miranda</dc:title>
          </cc:Agent>
        </dc:creator>
        <dc:rights>
          <cc:Agent>
            <dc:title>see the license tab</dc:title>
          </cc:Agent>
        </dc:rights>
        <dc:subject>
          <rdf:Bag>
            <rdf:li>icon ui</rdf:li>
          </rdf:Bag>
        </dc:subject>
        <dc:description>This is a contribution with Inkscape Project from
Ramon Miranda www.ramonmiranda.com (design and SVG file)
Jabiertxo (SVG stuff to integrate them in UI)</dc:description>
        <dc:publisher>
          <cc:Agent>
            <dc:title />
          </cc:Agent>
        </dc:publisher>
        <dc:identifier />
        <dc:source />
        <dc:relation />
        <dc:language>-</dc:language>
        <dc:coverage />
        <dc:contributor>
          <cc:Agent>
            <dc:title>Ramon Miranda
Jabier Arraiza</dc:title>
          </cc:Agent>
        </dc:contributor>
      </cc:Work>
      <cc:License
         rdf:about="http://creativecommons.org/publicdomain/zero/1.0/">
        <cc:permits
           rdf:resource="http://creativecommons.org/ns#Reproduction" />
        <cc:permits
           rdf:resource="http://creativecommons.org/ns#Distribution" />
        <cc:permits
           rdf:resource="http://creativecommons.org/ns#DerivativeWorks" />
      </cc:License>
    </rdf:RDF>
  </metadata>
  <g
     inkscape:groupmode="layer"
     id="layercompo"
     inkscape:label="experimental">
    <path
       id="path1"
       d="M 11.8125 2.3046875 C 11.668226 2.3077025 11.529035 2.3232232 11.392578 2.34375 L 12.085938 4.2207031 C 12.213098 4.2330556 12.363601 4.2697371 12.544922 4.3320312 C 12.651026 3.6970249 12.757071 3.0616576 12.863281 2.4257812 C 12.499783 2.3411611 12.146232 2.2977133 11.8125 2.3046875 z M 10.978516 2.4335938 C 10.563069 2.56168 10.203027 2.7891518 9.9179688 3.1132812 L 11.660156 4.2773438 L 10.978516 2.4335938 z M 13.267578 2.5371094 C 13.159232 3.1879415 13.051549 3.8383885 12.943359 4.4882812 C 13.05633 4.5362717 13.173668 4.5870166 13.306641 4.6484375 C 13.566651 4.0323802 13.857009 3.3878386 14.089844 2.8632812 C 13.813573 2.7298699 13.539013 2.623228 13.267578 2.5371094 z M 8.7988281 3.0703125 L 8.1972656 3.9492188 C 5.8700811 3.2921606 3.3567963 4.0936367 1.9609375 6.1347656 C 0.18399758 8.7400909 0.85550573 12.28436 3.4609375 14.060547 C 6.0660878 15.837365 9.6083783 15.166271 11.384766 12.560547 C 12.770225 10.52543 12.575578 7.8658018 11.130859 5.9394531 L 11.824219 4.9980469 C 11.118025 4.3710909 10.433685 3.8139904 9.6191406 3.3730469 C 9.6145382 3.3705554 9.6100795 3.3677184 9.6054688 3.3652344 C 9.3481821 3.2385301 9.0870608 3.1715479 8.7988281 3.0703125 z M 9.1113281 4.4453125 C 9.3570001 4.5360934 9.6008998 4.6258698 9.8066406 4.7558594 C 10.018413 4.8896603 10.188703 5.0799587 10.347656 5.2851562 L 9.8925781 5.9824219 L 10.046875 6.1445312 C 11.555856 7.7330429 11.752336 10.159724 10.519531 11.970703 C 9.0719088 14.093786 6.1740949 14.642636 4.0507812 13.195312 C 1.9265464 11.747598 1.3778013 8.8479674 2.8261719 6.7246094 C 4.0669457 4.9104813 6.4089358 4.2104274 8.4414062 5.046875 L 8.6582031 5.1367188 L 9.1113281 4.4453125 z " />
    <path
       id="rect22048"
       d="M 0,0 H 16 V 16 H 0 Z"
       style="opacity:0;fill:none" />
    <g
       id="path2">
      <path
         style="color:#000000;fill:#333333;stroke-width:0.41888;-inkscape-stroke:none"
         d="M 13.178449,1.8027643 C 12.99119,2.9268626 12.804157,4.0495676 12.617359,5.1708785 M 11.171405,2.3493064 c 0.394804,1.0690152 0.789119,2.1367054 1.182944,3.2030699 M 9.4471627,3.0516976 c 0.9478363,0.6326691 1.8944983,1.264554 2.8399843,1.8956541"
         id="path7" />
    </g>
  </g>
</svg>
