<?xml version='1.0' encoding='UTF-8'?>
<!-- Created with Inkscape (http://www.inkscape.org/) and export_objects.py -->
<svg xmlns:cc="http://creativecommons.org/ns#" xmlns:dc="http://purl.org/dc/elements/1.1/" xmlns:inkscape="http://www.inkscape.org/namespaces/inkscape" xmlns:rdf="http://www.w3.org/1999/02/22-rdf-syntax-ns#" xmlns:sodipodi="http://sodipodi.sourceforge.net/DTD/sodipodi-0.dtd" xmlns:xlink="http://www.w3.org/1999/xlink" xmlns="http://www.w3.org/2000/svg" version="1.1" id="svg1" width="16" height="16" viewBox="0 0 16 16">

<sodipodi:namedview 
    objecttolerance="10" 
    gridtolerance="10" 
    guidetolerance="10" 
    id="namedview" 
    showgrid="true" 
    inkscape:zoom="27.166187"
    inkscape:cx="7.4837792"
    inkscape:cy="8.9906751"
    inkscape:window-x="0" 
    inkscape:window-y="27"> 
    <inkscape:grid type="xygrid" id="grid"/>
  </sodipodi:namedview>
  
<metadata
     id="metadata1906">
    <rdf:RDF>
      <cc:Work
         rdf:about="">
        <dc:format>image/svg+xml</dc:format>
        <dc:type
           rdf:resource="http://purl.org/dc/dcmitype/StillImage" />
        <cc:license
           rdf:resource="http://creativecommons.org/publicdomain/zero/1.0/" />
        <dc:title>fe Editor new Icons proposal</dc:title>
        <dc:date>13 Nov 2018</dc:date>
        <dc:creator>
          <cc:Agent>
            <dc:title>Ramón Miranda</dc:title>
          </cc:Agent>
        </dc:creator>
        <dc:rights>
          <cc:Agent>
            <dc:title>see the license tab</dc:title>
          </cc:Agent>
        </dc:rights>
        <dc:subject>
          <rdf:Bag>
            <rdf:li>icon ui</rdf:li>
          </rdf:Bag>
        </dc:subject>
        <dc:description>This is a little contribution with Inkscape Project
Ramon Miranda  www.ramonmiranda.com (design and SVG file)
Jabiertxo (SVG stuff to integrate them in UI)</dc:description>
        <dc:publisher>
          <cc:Agent>
            <dc:title></dc:title>
          </cc:Agent>
        </dc:publisher>
        <dc:identifier></dc:identifier>
        <dc:source />
        <dc:relation />
        <dc:language>-</dc:language>
        <dc:coverage />
        <dc:contributor>
          <cc:Agent>
            <dc:title>Ramon Miranda
Jabier Arraiza</dc:title>
          </cc:Agent>
        </dc:contributor>
      </cc:Work>
      <cc:License
         rdf:about="http://creativecommons.org/publicdomain/zero/1.0/">
        <cc:permits
           rdf:resource="http://creativecommons.org/ns#Reproduction" />
        <cc:permits
           rdf:resource="http://creativecommons.org/ns#Distribution" />
        <cc:permits
           rdf:resource="http://creativecommons.org/ns#DerivativeWorks" />
      </cc:License>
    </rdf:RDF>
  </metadata>
  <g inkscape:groupmode="layer"
     id="layer"
     inkscape:label="feDiffuseLighting">
    <path 
       id="rect22048" 
       d="M 0,0 H 16 V 16 H 0 Z" 
       style="opacity:0;fill:none" />
    <path
       d="M 4.7993646,6.1024597 C 4.3150445,5.9375033 3.9833658,5.5499312 3.9066444,5.0592899 3.8270365,4.5501676 4.0977606,4.006618 4.5626589,3.7421823 4.9350454,3.530369 5.4327032,3.5228539 5.8284364,3.7230811 6.506481,4.0661348 6.7368902,4.9553552 6.3124375,5.590975 5.9868425,6.0785579 5.3556548,6.291925 4.7993646,6.1024609 Z"
       style="opacity:0.2;fill:#000000"
       id="path8373" />
    <path
       d="M 6.2098753,10.068477 C 5.7611439,10.006115 5.3714618,9.8875004 4.9668396,9.6901043 3.8410117,9.1408714 3.0791804,8.1627455 2.8160451,6.9286561 2.7434536,6.5882108 2.7502084,5.6966843 2.8278544,5.3702226 3.0101226,4.6038856 3.3584017,3.9718308 3.8939456,3.4354939 4.4426224,2.8860236 5.116963,2.5211606 5.9131724,2.3429813 c 0.2210048,-0.049458 0.3352606,-0.05757 0.8070038,-0.057276 0.5088769,0 0.5728085,0.00573 0.863592,0.073565 1.5499533,0.3614206 2.6889798,1.5067026 3.0273558,3.0439646 0.07763,0.3526624 0.084,1.1646789 0.01177,1.4992527 -0.180665,0.8368517 -0.499906,1.4287875 -1.0877778,2.016929 -0.586547,0.5868328 -1.2131882,0.9277942 -2.0224816,1.1004374 -0.2790732,0.05954 -1.0241324,0.08734 -1.302756,0.04862 z M 5.5574424,6.1275564 C 6.1591912,5.9489109 6.5239074,5.4759984 6.5239074,4.8743724 6.5239074,4.273425 6.136883,3.7726273 5.5522088,3.6170097 5.3678392,3.5679366 5.0556554,3.5689424 4.8625603,3.6192062 4.2401796,3.781317 3.8084982,4.4316236 3.9066444,5.059254 3.9416031,5.2828103 4.0735307,5.5671009 4.2173483,5.7288105 4.5379548,6.089299 5.1114421,6.2599223 5.5574424,6.1275206 Z"
       style="opacity:0.5;fill:#000000"
       id="path8371" />
    <path
       d="M 6.8510232,11.690294 C 5.2153126,11.547654 3.7221602,10.600169 2.9088679,9.1887916 2.4452288,8.3841919 2.2331701,7.5225136 2.2658064,6.5757564 2.2884829,5.9179674 2.4160923,5.3425499 2.6657021,4.7725952 3.6552112,2.5131628 6.1762497,1.3141058 8.604367,1.9480577 c 1.3897478,0.362835 2.589271,1.3454912 3.220762,2.6384506 0.729253,1.493136 0.654673,3.2543877 -0.197821,4.6717511 C 11.057181,10.206153 10.21243,10.928553 9.1968101,11.336723 8.475997,11.626412 7.6119469,11.756646 6.8510232,11.690294 Z m 0.6616081,-1.67044 C 8.3219247,9.8472108 8.9485658,9.5062498 9.5351128,8.9194169 10.122985,8.3312754 10.442226,7.7393397 10.622891,6.902488 10.695123,6.5679141 10.688753,5.7558977 10.611124,5.4032353 10.384641,4.3742943 9.8011117,3.5135154 8.9445685,2.9448607 8.5084876,2.6553449 8.100439,2.4797497 7.5837687,2.3592707 7.2929853,2.2914631 7.2290537,2.2860168 6.7201768,2.2857061 c -0.4717432,0 -0.585999,0.00785 -0.8070038,0.057276 C 5.1169636,2.5211606 4.442623,2.8860236 3.8939462,3.4354939 3.3584023,3.9718308 3.0101231,4.6038856 2.827855,5.3702226 2.750209,5.6966843 2.743455,6.5882108 2.816046,6.9286561 c 0.3579124,1.6786096 1.6798691,2.9016188 3.3938301,3.1398209 0.2786236,0.03872 1.0236827,0.01091 1.3027561,-0.04863 z"
       style="opacity:0.7;fill:#000000"
       id="path8369" />
    <path
       id="path8367"
       d="M 7.2566512,14.72344 C 6.4107062,14.636439 5.6306555,14.409734 4.8359917,14.019946 3.4340753,13.332301 2.310431,12.213817 1.64233,10.840964 1.3271123,10.193233 1.1253409,9.5530986 1.0113059,8.8390159 0.93672713,8.3720075 0.9433263,7.2490091 1.0233666,6.7847321 1.1494309,6.0535418 1.3290577,5.4932857 1.6442428,4.8482043 2.6546454,2.7802153 4.6472296,1.3484349 7.0000981,0.9997141 7.3914318,0.94171926 8.1964893,0.92223244 8.6183989,0.96055202 10.324264,1.1154827 11.832185,1.8179864 13.028061,3.0149175 c 0.594177,0.5947078 0.977611,1.1290741 1.334248,1.8594549 0.312388,0.6397741 0.523744,1.3322602 0.630967,2.0673676 0.06344,0.4349606 0.06344,1.3707273 0,1.8056881 -0.434813,2.9809399 -2.688244,5.3263429 -5.6561738,5.8870319 -0.5886731,0.111206 -1.489669,0.149747 -2.080451,0.08898 z M 8.1202351,11.63633 C 9.6079578,11.386582 10.856325,10.540089 11.627308,9.2582594 12.803468,7.3027762 12.465713,4.7922948 10.81211,3.1989437 9.4440239,1.8806995 7.4832988,1.4383709 5.6734075,2.0396946 3.9308007,2.6186606 2.6450702,4.103791 2.3244308,5.9080561 2.226718,6.4579187 2.2440789,7.2169289 2.3675345,7.7917899 2.6336054,9.0308188 3.4189472,10.163238 4.5088757,10.87952 c 1.0498508,0.689943 2.3663121,0.965827 3.6113594,0.75681 z"
       style="opacity:1;fill:#000000" />
   </g>
</svg>
