<?xml version="1.0" encoding="UTF-8" standalone="no"?>
<svg
   xmlns:dc="http://purl.org/dc/elements/1.1/"
   xmlns:cc="http://creativecommons.org/ns#"
   xmlns:rdf="http://www.w3.org/1999/02/22-rdf-syntax-ns#"
   xmlns:svg="http://www.w3.org/2000/svg"
   xmlns="http://www.w3.org/2000/svg"
   xmlns:sodipodi="http://sodipodi.sourceforge.net/DTD/sodipodi-0.dtd"
   xmlns:inkscape="http://www.inkscape.org/namespaces/inkscape"
   inkscape:version="1.0alpha (c523de1, 2019-03-31)"
   sodipodi:docname="feFlood-icon-symbolic.svg"
   viewBox="0 0 16 16"
   height="16"
   width="16"
   id="svg1"
   version="1.1">

  
  <defs
     id="defs250" />
  <sodipodi:namedview
     inkscape:current-layer="layercompo"
     inkscape:window-maximized="1"
     inkscape:window-height="745"
     inkscape:window-width="1366"
     inkscape:window-y="-8"
     inkscape:window-x="-8"
     inkscape:cy="8.9906751"
     inkscape:cx="7.4837792"
     inkscape:zoom="27.166187"
     showgrid="true"
     id="namedview"
     guidetolerance="10"
     gridtolerance="10"
     objecttolerance="10">
    <inkscape:grid
       id="grid"
       type="xygrid" />
  </sodipodi:namedview>
  
<metadata
     id="metadata1906">
    <rdf:RDF>
      <cc:Work
         rdf:about="">
        <dc:format>image/svg+xml</dc:format>
        <dc:type
           rdf:resource="http://purl.org/dc/dcmitype/StillImage" />
        <cc:license
           rdf:resource="http://creativecommons.org/publicdomain/zero/1.0/" />
        <dc:title>fe Editor new Icons proposal</dc:title>
        <dc:date>13 Nov 2018</dc:date>
        <dc:creator>
          <cc:Agent>
            <dc:title>Ramón Miranda</dc:title>
          </cc:Agent>
        </dc:creator>
        <dc:rights>
          <cc:Agent>
            <dc:title>see the license tab</dc:title>
          </cc:Agent>
        </dc:rights>
        <dc:subject>
          <rdf:Bag>
            <rdf:li>icon ui</rdf:li>
          </rdf:Bag>
        </dc:subject>
        <dc:description>This is a little contribution with Inkscape Project
Ramon Miranda  www.ramonmiranda.com (design and SVG file)
Jabiertxo (SVG stuff to integrate them in UI)</dc:description>
        <dc:publisher>
          <cc:Agent>
            <dc:title />
          </cc:Agent>
        </dc:publisher>
        <dc:identifier />
        <dc:source />
        <dc:relation />
        <dc:language>-</dc:language>
        <dc:coverage />
        <dc:contributor>
          <cc:Agent>
            <dc:title>Ramon Miranda
Jabier Arraiza</dc:title>
          </cc:Agent>
        </dc:contributor>
      </cc:Work>
      <cc:License
         rdf:about="http://creativecommons.org/publicdomain/zero/1.0/">
        <cc:permits
           rdf:resource="http://creativecommons.org/ns#Reproduction" />
        <cc:permits
           rdf:resource="http://creativecommons.org/ns#Distribution" />
        <cc:permits
           rdf:resource="http://creativecommons.org/ns#DerivativeWorks" />
      </cc:License>
    </rdf:RDF>
  </metadata>
  <g
     inkscape:label="feFlood"
     id="layercompo"
     inkscape:groupmode="layer">
    <path
       style="opacity:0;fill:none"
       d="M 0,0 H 16 V 16 H 0 Z"
       id="rect22048" />
    <path
       id="path9363"
       d="m 3.603577,14.9898 c 4.46e-4,-0.01108 0.0027,-0.01334 0.00576,-0.0058 0.00273,0.0069 0.00241,0.01508 -7.434e-4,0.01824 -0.00316,0.0032 -0.00541,-0.0025 -0.005,-0.0125 z m 0.73362,-0.01349 c 0,-0.01308 0.00217,-0.01844 0.0048,-0.01189 0.00265,0.0066 0.00265,0.01725 0,0.02379 -0.00265,0.0066 -0.0048,0.0012 -0.0048,-0.0119 z m 1.4657322,0 c 0,-0.01308 0.00217,-0.01844 0.0048,-0.01189 0.00265,0.0066 0.00265,0.01725 0,0.02379 -0.00265,0.0066 -0.0048,0.0012 -0.0048,-0.0119 z m -3.6658368,-0.0145 c 0,-0.01278 -0.042892,-0.01419 -0.3613112,-0.01189 l -0.3613113,0.0026 -0.00274,-0.418779 -0.00274,-0.418781 -0.027077,-0.05518 C 1.3278491,13.949585 1.2133241,13.866049 1.1025909,13.856015 l -0.055267,-0.005 0.00259,-0.364143 0.00259,-0.36414 0.046027,-0.0044 c 0.1089252,-0.01049 0.2316671,-0.09924 0.283642,-0.205104 l 0.02681,-0.05461 v -0.466371 -0.46637 L 1.384136,11.873517 C 1.3319084,11.763464 1.2331154,11.687431 1.1115482,11.663732 l -0.059487,-0.0116 v -0.35934 -0.359339 l 0.05215,-0.0065 c 0.1126544,-0.0141 0.2270545,-0.101156 0.2792583,-0.212535 l 0.025507,-0.05442 V 10.198193 9.7363818 l -0.03116,-0.063297 C 1.3231116,9.5619653 1.2168392,9.4855242 1.0935621,9.4686294 l -0.041501,-0.00569 V 9.1034496 8.7439613 l 0.048287,-0.00664 c 0.068221,-0.00938 0.170244,-0.063184 0.2179394,-0.1149264 0.022028,-0.023896 0.051442,-0.067752 0.065369,-0.097461 l 0.02532,-0.054015 V 8.0045537 7.5381834 L 1.3790328,7.4809205 C 1.3236975,7.3751155 1.2092766,7.2924113 1.1003872,7.2795164 l -0.048326,-0.00573 V 6.9141428 c 0,-0.3348613 -0.00116,-0.3598897 -0.016654,-0.3631164 -0.00916,-0.0019 0.00741,-0.00421 0.036811,-0.00513 0.144059,-0.00445 0.2855691,-0.1144833 0.3278283,-0.254905 0.020615,-0.068504 0.020032,-0.8837693 -6.84e-4,-0.9535251 C 1.3589739,5.2014608 1.2156229,5.0911826 1.0721649,5.0857552 c -0.024002,-8.922e-4 -0.038348,-0.00342 -0.031874,-0.00557 0.00907,-0.00302 0.011771,-0.086378 0.011771,-0.3635955 V 4.356917 l 0.046244,-0.00445 C 1.2071711,4.3420117 1.3265316,4.2555366 1.3812603,4.1474799 L 1.4089771,4.092754 V 3.6263873 3.1600171 l -0.024841,-0.05235 C 1.3319084,2.9976152 1.2331154,2.9215815 1.1115482,2.8978824 L 1.0520613,2.8862842 V 2.5269447 2.1676051 l 0.05215,-0.00651 C 1.216866,2.1470138 1.3312661,2.0599588 1.3834699,1.9485772 c 0.025254,-0.053884 0.025537,-0.056798 0.028344,-0.2942765 l 0.00282,-0.2398511 0.2303495,-0.00285 c 0.2296056,-0.00283 0.2305424,-0.00295 0.2874629,-0.0295 0.1117236,-0.052129 0.20158,-0.1719659 0.2115634,-0.2821519 l 0.00479,-0.052879 0.3640294,0.00259 0.3640323,0.00259 0.0057,0.048106 c 0.013291,0.1122172 0.095629,0.2236345 0.2050922,0.2775245 l 0.062666,0.030848 h 0.4620106 0.4620106 l 0.062666,-0.030848 C 4.2464692,1.3239835 4.3288076,1.2125663 4.3420979,1.100349 l 0.0057,-0.048106 0.3640323,-0.00259 0.3640294,-0.00259 0.00479,0.052879 c 0.00998,0.1101861 0.09984,0.2300224 0.2115634,0.2821519 l 0.057108,0.026643 H 5.810929 6.272541 L 6.326964,1.3832299 C 6.438342,1.3310316 6.5254,1.2166316 6.5394754,1.1039772 l 0.00651,-0.05215 H 6.905867 c 0.3350785,0 0.3601187,-0.00116 0.3633454,-0.016654 0.0019,-0.00916 0.00421,0.00753 0.00513,0.037099 0.0044,0.1422923 0.1129398,0.2815423 0.254679,0.3267366 0.041483,0.013228 0.1062515,0.014858 0.4951428,0.012476 l 0.4474205,-0.00274 0.063404,-0.031223 C 8.6409981,1.3253188 8.7130945,1.2289465 8.7358954,1.1089615 l 0.010858,-0.057129 h 0.3582599 0.3582571 l 0.010858,0.054729 c 0.024469,0.1233515 0.098112,0.2214189 0.2059755,0.2742949 l 0.056899,0.027892 h 0.4663701 0.46637 l 0.0535,-0.026272 c 0.112279,-0.055139 0.188839,-0.1549284 0.209689,-0.2733046 l 0.0101,-0.05734 h 0.359765 0.359761 l 0.0067,0.048287 c 0.0096,0.069982 0.0639,0.1720194 0.115795,0.2177015 0.02398,0.021109 0.06768,0.050202 0.0971,0.064656 l 0.0535,0.026271 0.447198,0.00274 c 0.499134,0.00306 0.49699,0.00329 0.593564,-0.062238 0.09457,-0.064159 0.154396,-0.1722693 0.156694,-0.2831423 6.55e-4,-0.031407 0.0026,-0.047469 0.0046,-0.035693 l 0.0034,0.021415 h 0.358836 0.358835 l 0.01085,0.057129 c 0.0228,0.1199702 0.09489,0.2163514 0.20089,0.2685642 l 0.06338,0.031223 0.380949,0.00586 c 0.209523,0.00323 0.392727,0.00908 0.407124,0.013008 l 0.02617,0.00714 V 1.793992 2.1532304 l -0.04988,0.00591 c -0.112274,0.013283 -0.229401,0.102143 -0.281629,0.2135751 l -0.02551,0.054423 V 2.8889497 3.350761 l 0.03123,0.063424 c 0.0522,0.1060286 0.148565,0.1781248 0.268565,0.2009287 l 0.05713,0.010858 v 0.3586047 0.358602 l -0.04829,0.00664 c -0.06822,0.00938 -0.170243,0.063184 -0.217939,0.1149265 -0.02203,0.023896 -0.05144,0.067752 -0.06537,0.097461 l -0.02532,0.054015 v 0.4663706 0.4663703 l 0.02995,0.057259 c 0.05533,0.1058084 0.169753,0.1885097 0.278645,0.2014045 l 0.04832,0.00573 v 0.3596518 c 0,0.3349119 0.0011,0.3598779 0.01665,0.3629796 0.0092,0.00182 -0.0069,0.00394 -0.03569,0.00469 -0.06596,0.0017 -0.146893,0.031678 -0.20467,0.075793 -0.05616,0.04288 -0.114575,0.1322138 -0.128579,0.1966255 -0.0073,0.03381 -0.0098,0.1870555 -0.0077,0.487143 l 0.003,0.4378179 0.02708,0.055178 c 0.05407,0.110183 0.168593,0.1937229 0.279329,0.2037568 l 0.05526,0.00501 -0.0026,0.3641395 -0.0026,0.3641424 -0.04603,0.00442 c -0.108649,0.010438 -0.228054,0.097003 -0.282738,0.2049702 l -0.02772,0.054726 v 0.4663702 0.4663704 l 0.02484,0.052348 c 0.05223,0.1100514 0.151021,0.1860884 0.272585,0.2097874 l 0.05948,0.01159 v 0.359343 0.359339 l -0.05215,0.0065 c -0.112658,0.01408 -0.227057,0.101134 -0.279259,0.212513 l -0.02551,0.05442 v 0.461811 0.461811 l 0.03116,0.0633 c 0.0547,0.11112 0.160977,0.187558 0.284254,0.204455 l 0.0415,0.0057 v 0.359491 0.359485 l -0.04828,0.0067 c -0.06823,0.0094 -0.170244,0.06318 -0.21794,0.114924 -0.02203,0.02389 -0.05144,0.06775 -0.06537,0.09746 l -0.02532,0.05401 v 0.46637 0.466371 l 0.03014,0.05711 c 0.05728,0.108557 0.167641,0.188439 0.278455,0.201562 l 0.04832,0.0058 v 0.184272 0.184269 H 14.77319 14.598437 l -0.0059,-0.04988 c -0.01328,-0.112166 -0.102141,-0.229293 -0.213574,-0.281521 l -0.05442,-0.02551 H 13.86295 13.401338 l -0.0581,0.02686 c -0.108972,0.05036 -0.200551,0.17369 -0.211188,0.284406 l -0.0044,0.04565 h -0.364012 -0.364011 l -0.0046,-0.04736 c -0.01045,-0.109094 -0.10322,-0.23183 -0.21467,-0.284067 l -0.05442,-0.02551 H 11.66412 11.202302 l -0.06265,0.03085 c -0.109461,0.05389 -0.191799,0.165309 -0.205089,0.277524 l -0.0057,0.04811 -0.36403,0.0026 -0.364032,0.0026 -0.0048,-0.0531 c -0.01028,-0.113413 -0.09307,-0.225202 -0.2067846,-0.279199 l -0.061867,-0.02938 H 9.4657652 9.0041532 l -0.054423,0.02551 c -0.1097905,0.05145 -0.187097,0.152017 -0.2101597,0.273376 L 8.728544,14.94767 H 8.3697428 c -0.3340465,0 -0.3590362,0.0012 -0.3622629,0.01666 -0.0019,0.0092 -0.00421,-0.0075 -0.00513,-0.0371 -0.0044,-0.142289 -0.1129398,-0.281539 -0.254679,-0.326733 -0.04148,-0.01323 -0.1062308,-0.01486 -0.4949227,-0.01248 l -0.4471975,0.0027 -0.05235,0.02484 c -0.110647,0.0525 -0.1982105,0.168593 -0.2140526,0.283785 l -0.00664,0.04829 H 6.1729688 5.8134241 l -0.01164,-0.05917 c -0.023515,-0.11947 -0.097788,-0.217144 -0.2051933,-0.269797 l -0.056899,-0.02789 H 5.073321 4.6069507 l -0.056897,0.02789 c -0.1074054,0.05265 -0.1816786,0.150327 -0.2051932,0.269855 l -0.01164,0.05917 H 3.9736762 3.6141343 L 3.6074943,14.8994 C 3.5916486,14.784243 3.5040881,14.668157 3.3934381,14.61565 L 3.3410911,14.59081 2.892139,14.58811 c -0.426178,-0.0026 -0.4516585,-0.0018 -0.502298,0.01601 -0.1391965,0.04892 -0.2427477,0.18448 -0.2459655,0.321993 -6.543e-4,0.0276 -0.00244,0.05018 -0.00398,0.05018 -0.00154,0 -0.0028,-0.0065 -0.0028,-0.0145 z m 4.8159815,-0.889512 c 1.5323565,-0.09517 2.7778623,-0.522048 3.3235101,-1.139067 0.215772,-0.243994 0.321789,-0.500698 0.321789,-0.779151 0,-0.76941 -0.8519874,-1.411324 -2.2986896,-1.731905 -0.4310968,-0.09553 -0.8837723,-0.155865 -1.394198,-0.185836 -0.226751,-0.01331 -0.8297186,-0.01331 -1.0564696,0 -1.6906127,0.09927 -3.0053689,0.58483 -3.4881492,1.288229 -0.1430863,0.208476 -0.2082861,0.409447 -0.207391,0.639246 0.00131,0.336634 0.1712046,0.659344 0.4919756,0.934499 0.3756246,0.322213 0.9275094,0.574908 1.6378943,0.749958 0.5553108,0.136835 1.0832706,0.206841 1.7893374,0.237255 0.1324754,0.0057 0.7169364,-0.0031 0.880391,-0.01323 z m 3.6881291,-3.914927 c 0.06645,-0.03098 0.0523,-0.0171 1.968143,-1.9289686 0.975645,-0.9736198 1.230523,-1.2329203 1.249119,-1.2707989 0.05106,-0.1040003 0.05092,-0.2144748 -3.86e-4,-0.3265642 -0.02051,-0.044803 -0.06761,-0.096608 -0.28349,-0.3117998 C 12.26167,5.0105033 11.273901,4.0308821 11.250344,4.0141778 l -0.02856,-0.020247 0.220765,-0.2218382 c 0.267389,-0.2686917 0.274206,-0.2795315 0.27408,-0.4359855 0,-0.093675 -0.0019,-0.1035156 -0.03014,-0.1570429 -0.03866,-0.073464 -0.107043,-0.1395742 -0.179175,-0.1732298 -0.0506,-0.02361 -0.06797,-0.026644 -0.152508,-0.026644 -0.175577,0 -0.02297,-0.137204 -1.6492874,1.482793 -0.7835908,0.780553 -1.6294309,1.6228364 -1.8796432,1.871746 -0.4216725,0.4194808 -0.4574218,0.4575764 -0.4890255,0.5211495 -0.074877,0.1506133 -0.04159,0.3225256 0.084507,0.4364439 0.042366,0.038277 0.1168505,0.075519 0.170455,0.085226 0.032659,0.00591 0.035157,0.00912 0.050598,0.064897 0.00893,0.032273 0.028821,0.078347 0.044198,0.1023914 0.021867,0.034197 2.5016141,2.5105098 2.5851121,2.5815348 0.01124,0.0096 0.04543,0.02787 0.07599,0.04066 0.04801,0.02012 0.06784,0.02292 0.145974,0.02062 0.07558,-0.0022 0.09979,-0.007 0.147523,-0.02928 z M 9.5132971,5.695756 10.717243,4.4968063 l 0.01831,0.026409 c 0.01007,0.014521 0.525399,0.5313828 1.145179,1.1485778 L 13.0076,6.793965 12.957335,6.8448539 12.90708,6.8957464 10.608218,6.8952408 8.3093554,6.8947353 9.513298,5.6957859 Z M 7.1672245,9.7564526 C 7.2702197,9.7292414 7.3773783,9.6694957 7.4475237,9.6001741 7.5793806,9.4698666 7.6441343,9.2953937 7.6547362,9.0418567 7.6729722,8.6058202 7.484525,8.0579828 7.1669628,7.6238527 7.1003683,7.5328155 6.960919,7.3697625 6.9449373,7.3642488 6.9346803,7.3607129 6.7921025,7.524783 6.7176985,7.6257441 6.3883656,8.0726114 6.1877551,8.6774972 6.2289525,9.0994255 6.2502872,9.3179061 6.311294,9.4623991 6.4339109,9.5848584 6.5382443,9.689058 6.6519366,9.745583 6.8055504,9.76963 c 0.08084,0.012654 0.2931852,0.00492 0.3616741,-0.013177 z m 7.8170495,3.3574014 c 0.0069,-0.0027 0.01507,-0.0024 0.01824,7.44e-4 0.0032,0.0032 -0.0025,0.0054 -0.01249,0.005 -0.01109,-4.46e-4 -0.01334,-0.0027 -0.0058,-0.0058 z M 1.0116192,11.657838 c 0.00654,-0.0026 0.017249,-0.0026 0.023794,0 0.00654,0.0026 0.00119,0.0048 -0.011899,0.0048 -0.013085,0 -0.018441,-0.0022 -0.011895,-0.0048 z M 14.964644,10.192103 c 0.0066,-0.0026 0.01725,-0.0026 0.02379,0 0.0066,0.0026 0.0012,0.0048 -0.0119,0.0048 -0.01308,0 -0.01844,-0.0022 -0.0119,-0.0048 z M 0.99317803,9.4685551 c 0.00687,-0.00273 0.0150777,-0.00241 0.0182419,7.435e-4 0.00316,0.00316 -0.00247,0.00541 -0.0124933,0.005 -0.0110867,-4.461e-4 -0.0133409,-0.0027 -0.005748,-0.00576 z M 1.002694,8.7356875 c 0.00687,-0.00273 0.015081,-0.00241 0.018242,7.435e-4 0.00316,0.00316 -0.00247,0.00541 -0.01249,0.005 -0.0110897,-4.461e-4 -0.0133439,-0.0027 -0.00575,-0.00575 z m 13.98158,-4.3876833 c 0.0069,-0.00277 0.01507,-0.00241 0.01824,7.435e-4 0.0032,0.00316 -0.0025,0.00541 -0.01249,0.005 -0.01109,-4.461e-4 -0.01334,-0.0027 -0.0058,-0.00575 z m 0.0095,-0.7328671 c 0.0069,-0.00273 0.01508,-0.00241 0.01824,7.434e-4 0.0032,0.00316 -0.0025,0.00541 -0.01249,0.005 -0.01109,-4.461e-4 -0.01335,-0.0027 -0.0058,-0.00576 z M 1.0116192,2.8919852 c 0.00654,-0.00265 0.017249,-0.00265 0.023794,0 0.00654,0.00265 0.00119,0.00481 -0.011899,0.00481 -0.013085,0 -0.018441,-0.00217 -0.011895,-0.00481 z M 14.964644,1.426253 c 0.0066,-0.00265 0.01725,-0.00265 0.02379,0 0.0066,0.00265 0.0012,0.0048 -0.0119,0.0048 -0.01308,0 -0.01844,-0.00217 -0.0119,-0.0048 z M 9.4665117,1.0272595 c 4.461e-4,-0.01109 0.0027,-0.013344 0.00576,-0.00575 0.00273,0.00687 0.00241,0.015081 -7.434e-4,0.018242 -0.00316,0.00316 -0.00541,-0.00247 -0.005,-0.01249 z M 10.932246,1.01774 c 4.47e-4,-0.011087 0.0027,-0.013341 0.0058,-0.00575 0.0027,0.00687 0.0024,0.015078 -7.44e-4,0.018242 -0.0032,0.00316 -0.0054,-0.00247 -0.005,-0.012493 z m 0.732869,-0.00952 c 4.46e-4,-0.0110897 0.0027,-0.0133439 0.0058,-0.00575 0.0027,0.00687 0.0024,0.015081 -7.43e-4,0.018242 -0.0032,0.00316 -0.0054,-0.00247 -0.005,-0.01249 z"
       style="opacity:0.1;fill:#000000" />
    <path
       id="path9353"
       d="M 0.95621838,15.297037 C 0.8591978,15.269514 0.76577267,15.191335 0.72095002,15.100168 l -0.0257986,-0.05247 v -0.46637 -0.46637 l 0.0280826,-0.05547 c 0.0730569,-0.144309 0.2396727,-0.22801 0.39145768,-0.196649 0.1493226,0.03085 0.2572573,0.136974 0.2883495,0.28352 0.014623,0.06892 0.014623,0.80102 0,0.869937 -0.034729,0.163674 -0.1678768,0.279348 -0.3326131,0.288953 -0.042066,0.0025 -0.0883278,-8.62e-4 -0.11420968,-0.0082 z m 1.44685092,-0.0014 C 2.2989768,15.257315 2.2212151,15.187473 2.177026,15.092641 c -0.021517,-0.04618 -0.025374,-0.0674 -0.02546,-0.140086 0,-0.07655 0.00311,-0.09244 0.030063,-0.149435 0.052932,-0.111908 0.1467322,-0.184189 0.2691649,-0.207406 0.069429,-0.01316 0.7802894,-0.01253 0.8528526,7.43e-4 0.031063,0.0057 0.081113,0.02342 0.1112239,0.03941 0.2730995,0.144971 0.2393842,0.551986 -0.054274,0.655198 -0.048929,0.01719 -0.080783,0.01835 -0.4880203,0.01772 -0.3341685,-5.05e-4 -0.4435574,-0.0036 -0.4695077,-0.01314 z m 2.1811429,-0.0051 c -0.1745264,-0.06339 -0.2756033,-0.258198 -0.2251094,-0.433854 0.039966,-0.139036 0.1442728,-0.234034 0.28567,-0.260172 0.075332,-0.01392 0.7817615,-0.01392 0.8570934,0 0.1413971,0.02614 0.2457038,0.121136 0.2856701,0.260172 0.046616,0.162173 -0.037665,0.344755 -0.1947877,0.421973 l -0.05306,0.02607 -0.4520926,0.0022 c -0.428117,0.0021 -0.4548137,0.0012 -0.5033834,-0.01642 z m 2.1996585,3.27e-4 c -0.097431,-0.03533 -0.1782884,-0.113404 -0.2180732,-0.210565 -0.012464,-0.03044 -0.017228,-0.06708 -0.017228,-0.132489 0,-0.07802 0.00347,-0.09782 0.025322,-0.144434 0.050298,-0.107296 0.1519248,-0.185432 0.2690965,-0.206894 0.072566,-0.01329 0.7834268,-0.01392 0.8528556,-7.44e-4 0.1626041,0.03083 0.2838352,0.160011 0.3005871,0.320283 0.01547,0.148027 -0.070951,0.297855 -0.2084378,0.361359 l -0.059222,0.02735 -0.4473343,0.0022 c -0.419912,0.002 -0.4504124,0.0011 -0.4975666,-0.01604 z m 2.2012436,0.0016 c -0.096283,-0.03388 -0.1732388,-0.104496 -0.2166666,-0.198871 -0.017371,-0.03775 -0.021162,-0.06301 -0.021213,-0.14129 0,-0.08854 0.00217,-0.09984 0.03116,-0.1588 0.052056,-0.105832 0.1447904,-0.175157 0.2637108,-0.197139 0.072168,-0.01335 0.7827816,-0.01392 0.8530337,-6.85e-4 0.3450378,0.06495 0.4099078,0.523169 0.095953,0.677776 l -0.063274,0.03116 -0.4475538,0.0023 c -0.4060179,0.002 -0.4519737,7.15e-4 -0.4951458,-0.01446 z m 2.2060827,0.0034 c -0.09772,-0.03098 -0.176062,-0.100175 -0.220343,-0.19462 -0.02211,-0.04715 -0.02508,-0.06534 -0.02508,-0.153427 0,-0.09084 0.0025,-0.104702 0.02679,-0.152285 0.05551,-0.108458 0.156864,-0.182422 0.275246,-0.200851 0.03742,-0.0058 0.221006,-0.0085 0.46067,-0.0066 0.391071,0.003 0.399481,0.0035 0.453517,0.02518 0.07073,0.02838 0.159844,0.110111 0.192232,0.176316 0.08955,0.183033 0.01136,0.402831 -0.174238,0.48984 l -0.05401,0.02533 -0.447335,0.0019 c -0.351149,0.0016 -0.455958,-8.03e-4 -0.487443,-0.01079 z m 2.198602,0 c -0.132216,-0.04191 -0.22439,-0.148682 -0.249924,-0.289493 -0.03393,-0.187152 0.09978,-0.37407 0.293709,-0.410578 0.06583,-0.01239 0.776994,-0.01262 0.852391,-2.97e-4 0.113191,0.01854 0.214493,0.09392 0.268788,0.200016 0.02436,0.0476 0.02679,0.06144 0.02679,0.152433 0,0.0939 -0.0019,0.104015 -0.03128,0.16368 -0.03627,0.07373 -0.09566,0.131379 -0.173348,0.168246 l -0.05235,0.02484 -0.447335,0.0019 c -0.351149,0.0016 -0.455958,-8.03e-4 -0.48744,-0.01079 z m 1.497755,-0.729224 c -0.09643,-0.01618 -0.197613,-0.08744 -0.249359,-0.175612 -0.0481,-0.08196 -0.05188,-0.121255 -0.05188,-0.538451 0,-0.212813 0.0041,-0.408611 0.0091,-0.435115 0.05001,-0.263702 0.355869,-0.383919 0.572393,-0.224973 0.05995,0.04401 0.117865,0.130382 0.132386,0.197438 0.0073,0.03364 0.0097,0.187058 0.0077,0.482384 l -0.003,0.433057 -0.02532,0.05401 c -0.05148,0.109818 -0.154729,0.18763 -0.274809,0.207115 -0.03385,0.0055 -0.06369,0.0095 -0.06631,0.009 -0.0027,-5.95e-4 -0.02553,-0.0046 -0.05091,-0.0088 z M 6.0465096,14.075331 c 0.00654,-0.0026 0.017252,-0.0026 0.023794,0 0.00654,0.0026 0.00119,0.0048 -0.011899,0.0048 -0.013085,0 -0.018438,-0.0022 -0.011896,-0.0048 z m 0.633111,-2.97e-4 c 0.00926,-0.0024 0.022111,-0.0023 0.028553,3.56e-4 0.00644,0.0026 -0.00113,0.0046 -0.016835,0.0044 -0.015705,-2.97e-4 -0.020978,-0.0023 -0.011718,-0.0047 z m 0.2240805,-0.0094 c 0.00687,-0.0027 0.01508,-0.0024 0.018242,7.44e-4 0.00316,0.0032 -0.00247,0.0054 -0.01249,0.005 -0.01109,-4.47e-4 -0.013344,-0.0027 -0.00576,-0.0058 z M 0.97640225,13.109949 C 0.87403161,13.089878 0.77651738,13.013134 0.72212768,12.909832 l -0.0269763,-0.05123 v -0.46637 -0.46637 l 0.0267235,-0.05442 c 0.0963515,-0.196212 0.33931332,-0.265296 0.52266622,-0.148615 0.060144,0.03827 0.09934,0.08469 0.1349141,0.159752 l 0.029528,0.06231 0.00305,0.409263 c 0.00325,0.436307 -3.866e-4,0.48593 -0.041557,0.56717 -0.04733,0.0934 -0.1509196,0.168782 -0.2602194,0.189358 -0.058291,0.01097 -0.074574,0.01088 -0.1338524,-7.43e-4 z m 1.61187865,-0.06813 -0.018132,-0.02141 0.021415,0.01813 c 0.020124,0.01704 0.025748,0.02469 0.018132,0.02469 -0.00182,0 -0.011443,-0.0096 -0.021415,-0.02141 z m 7.6099511,-0.03807 c 0.03944,-0.04202 0.04799,-0.04958 0.04799,-0.04243 0,0.0016 -0.02035,0.02187 -0.04521,0.04521 l -0.04521,0.04244 z m -7.7051279,-0.05711 -0.018132,-0.02141 0.021415,0.01813 c 0.01178,0.01 0.021415,0.0196 0.021415,0.02141 0,0.0076 -0.00766,0.002 -0.024698,-0.01813 z M 14.846015,12.364692 c -0.102008,-0.03327 -0.194496,-0.117909 -0.233017,-0.213247 -0.0218,-0.05395 -0.02193,-0.05686 -0.02193,-0.496841 0,-0.441662 0,-0.442688 0.02222,-0.497631 0.03114,-0.07716 0.108548,-0.15828 0.184486,-0.193349 0.05339,-0.02466 0.07,-0.02761 0.155194,-0.02761 0.0884,0 0.100009,0.0023 0.158208,0.03093 0.07447,0.03667 0.13296,0.09643 0.168403,0.172031 l 0.02531,0.05401 v 0.461612 0.461609 l -0.02559,0.05459 c -0.03284,0.07009 -0.107378,0.144404 -0.176802,0.176297 -0.06595,0.03029 -0.191204,0.03888 -0.256501,0.01759 z m -4.255657,-0.167576 c 0,-0.01308 0.0022,-0.01844 0.0048,-0.01189 0.0026,0.0066 0.0026,0.01725 0,0.02379 -0.0026,0.0066 -0.0048,0.0012 -0.0048,-0.01189 z m 0,-0.08566 c 0,-0.01308 0.0022,-0.01844 0.0048,-0.01189 0.0026,0.0066 0.0026,0.01725 0,0.02379 -0.0026,0.0066 -0.0048,0.0012 -0.0048,-0.0119 z M 2.4321421,11.432103 c 0,-0.002 0.0075,-0.0095 0.016657,-0.01665 0.015096,-0.01184 0.015431,-0.0115 0.00359,0.0036 -0.012434,0.01585 -0.020249,0.02089 -0.020249,0.01306 z m 0.1094544,-0.12014 c 0.020446,-0.02094 0.039319,-0.03807 0.041935,-0.03807 0.00261,0 -0.01197,0.01713 -0.032418,0.03807 -0.020446,0.02094 -0.039315,0.03807 -0.041932,0.03807 -0.00261,0 0.01197,-0.01713 0.032415,-0.03807 z M 0.91494657,10.898717 C 0.81563307,10.856927 0.74670995,10.786005 0.70996145,10.68779 0.69039615,10.6355 0.68993225,10.62207 0.69250765,10.18542 l 0.002647,-0.4486428 0.0255874,-0.054592 c 0.0326891,-0.06975 0.10705155,-0.1441124 0.17680145,-0.1768015 0.0478679,-0.022436 0.0663358,-0.025585 0.1499709,-0.025585 0.088515,0 0.099929,0.00223 0.1586755,0.03116 0.07841,0.038601 0.1498787,0.1138053 0.1807092,0.1901572 0.022004,0.054488 0.022087,0.056373 0.022087,0.4972721 0,0.440899 0,0.442782 -0.022087,0.497269 -0.029466,0.07297 -0.1037595,0.152927 -0.1769442,0.190431 -0.05053,0.0259 -0.069521,0.03012 -0.148365,0.03299 -0.0793348,0.0029 -0.0973121,3.86e-4 -0.14664016,-0.02036 z m 4.97035673,-0.65924 c 0.00687,-0.0027 0.015078,-0.0024 0.018242,7.43e-4 0.00316,0.0032 -0.00247,0.0054 -0.012493,0.005 -0.011087,-4.46e-4 -0.013341,-0.0027 -0.00575,-0.0058 z m 0.2468666,-0.0093 c 0.00654,-0.0027 0.017248,-0.0027 0.023794,0 0.00654,0.0026 0.00119,0.0048 -0.011898,0.0048 -0.013085,0 -0.018442,-0.0022 -0.011896,-0.0048 z m 0.4617904,-2.98e-4 c 0.00926,-0.0024 0.022111,-0.0023 0.028556,3.57e-4 0.00644,0.0026 -0.00113,0.0046 -0.016838,0.0044 -0.015705,-2.97e-4 -0.020978,-0.0023 -0.011718,-0.0047 z m 8.2484647,-0.05848 c -0.103932,-0.03435 -0.17179,-0.09594 -0.221939,-0.2014253 l -0.02942,-0.061858 -0.0029,-0.4164121 c -0.0025,-0.3566808 -7.44e-4,-0.424911 0.01225,-0.4756548 0.02786,-0.1087704 0.09523,-0.1943623 0.18903,-0.2401811 0.18302,-0.089402 0.390813,-0.018233 0.488505,0.1673116 l 0.02697,0.051232 v 0.4663703 0.4663699 l -0.02672,0.054413 C 15.199108,10.14256 15.007606,10.22599 14.842423,10.171383 Z M 11.459731,9.3608225 c 0.209341,-0.2093895 0.382762,-0.38071 0.385379,-0.38071 0.0026,0 -0.166521,0.1713205 -0.375863,0.38071 -0.209338,0.2093925 -0.382762,0.38071 -0.385379,0.38071 -0.0026,0 0.166521,-0.1713175 0.375863,-0.38071 z M 6.428879,9.5821106 6.405805,9.5559376 6.431978,9.5790116 c 0.014397,0.01269 0.026173,0.024469 0.026173,0.026173 0,0.00746 -0.0077,0.0014 -0.029272,-0.023074 z M 8.7376084,8.5970234 8.3569429,8.2139343 8.7400321,8.5945997 c 0.2107009,0.2093656 0.3830891,0.3817568 0.3830891,0.3830891 0,0.00671 -0.031705,-0.024606 -0.3855128,-0.3806654 z M 0.93599287,8.7148524 C 0.82326117,8.6776459 0.72317747,8.570972 0.69982639,8.4631324 0.69254331,8.4294946 0.69009876,8.2760769 0.69214778,7.9807477 L 0.69515142,7.547691 0.72047419,7.493676 C 0.84460784,7.2288798 1.2143322,7.2106379 1.3618586,7.4620307 c 0.048097,0.081964 0.051886,0.121258 0.051886,0.5384547 0,0.2128094 -0.00411,0.4086112 -0.00914,0.4351117 -0.021391,0.112803 -0.095141,0.2102905 -0.197024,0.2604453 -0.07995,0.039362 -0.186877,0.046768 -0.27158773,0.01881 z M 14.867085,7.9869601 c -0.14027,-0.036484 -0.240381,-0.140392 -0.270072,-0.280314 -0.0069,-0.032591 -0.0107,-0.1865083 -0.0107,-0.4349689 0,-0.2484635 0.0037,-0.4023808 0.0107,-0.4349688 0.02457,-0.115774 0.08996,-0.1998522 0.196331,-0.2524248 0.06801,-0.033608 0.07839,-0.035957 0.159109,-0.035957 0.07788,0 0.09241,0.00298 0.148119,0.030408 0.0757,0.037269 0.143982,0.1038011 0.178419,0.1738603 l 0.02591,0.052712 v 0.4663703 0.4663703 l -0.02808,0.055466 c -0.03716,0.073398 -0.120993,0.1507708 -0.192251,0.1774319 -0.06846,0.025611 -0.155838,0.032046 -0.217487,0.016014 z M 6.9078527,7.404914 6.9435337,7.367196 6.9744777,7.40012 7.0054237,7.433044 6.9744447,7.405265 6.9434687,7.377483 6.9078197,7.410057 6.8721747,7.442633 Z M 13.634537,7.1955334 c 0.0915,-0.091608 0.168498,-0.1665593 0.171114,-0.1665593 0.0027,0 -0.0701,0.074952 -0.161595,0.1665593 -0.0915,0.091608 -0.168499,0.1665624 -0.171115,0.1665624 -0.0027,0 0.0701,-0.074954 0.161596,-0.1665624 z M 0.95475819,6.5301021 C 0.85802311,6.5021593 0.75828735,6.4172752 0.71626612,6.3271244 0.69536256,6.2822839 0.69515142,6.2771717 0.69515142,5.8154615 V 5.3490913 l 0.0280826,-0.05547 c 0.0367574,-0.072608 0.12072257,-0.1503694 0.19287835,-0.1786304 0.041593,-0.016291 0.074862,-0.021623 0.13606193,-0.021804 0.071136,-2.974e-4 0.088762,0.00339 0.1446744,0.029554 0.1083095,0.050684 0.1817322,0.1424647 0.2061925,0.257751 0.014501,0.068337 0.014626,0.8007439 2.974e-4,0.8699377 -0.034022,0.1626219 -0.1695392,0.2797966 -0.3340495,0.2888432 -0.041849,0.00229 -0.0872751,-0.00133 -0.11438218,-0.00917 z M 13.244309,6.005815 c -0.211958,-0.2120065 -0.38324,-0.3854682 -0.38062,-0.3854682 0.0026,0 0.178179,0.1734617 0.390137,0.3854682 0.21196,0.2120096 0.383241,0.3854683 0.380624,0.3854683 -0.0026,0 -0.178181,-0.1734587 -0.390141,-0.3854683 z M 8.1856253,5.9820209 c 0.209339,-0.2093895 0.382762,-0.38071 0.3853791,-0.38071 0.00261,0 -0.1665206,0.1713205 -0.3758625,0.38071 -0.2093419,0.2093895 -0.3827621,0.38071 -0.3853791,0.38071 -0.00261,0 0.1665207,-0.1713205 0.3758625,-0.38071 z M 14.890882,5.7996671 c -0.101347,-0.016134 -0.19951,-0.083947 -0.252687,-0.1745621 -0.0481,-0.08196 -0.05188,-0.1212578 -0.05188,-0.5384546 0,-0.2128098 0.0041,-0.4086115 0.0091,-0.4351119 0.0409,-0.2156942 0.254203,-0.3441935 0.463485,-0.2792257 0.03582,0.011119 0.0857,0.035419 0.110841,0.054001 0.05661,0.041831 0.116285,0.1322761 0.130453,0.1976901 0.0073,0.033638 0.0097,0.1870554 0.0077,0.482385 l -0.003,0.4330566 -0.02532,0.054015 c -0.04837,0.1031943 -0.157427,0.189723 -0.256035,0.203165 -0.02324,0.00317 -0.05081,0.00703 -0.06128,0.00857 -0.01047,0.00154 -0.04259,-9.501e-4 -0.07138,-0.00553 z M 11.350277,5.1396988 c -0.21196,-0.2120067 -0.383239,-0.3854685 -0.380621,-0.3854685 0.0026,0 0.178178,0.1734618 0.39014,0.3854685 0.211959,0.2120095 0.383238,0.3854712 0.38062,0.3854712 -0.0026,0 -0.178181,-0.1734617 -0.390139,-0.3854712 z m -1.270621,-0.023794 c 0.209342,-0.2093898 0.382761,-0.3807103 0.385379,-0.3807103 0.0026,0 -0.16652,0.1713205 -0.37586,0.3807103 -0.2093418,0.2093925 -0.3827616,0.3807101 -0.3853787,0.3807101 -0.00261,0 0.1665211,-0.1713176 0.3758597,-0.3807101 z M 0.97592642,4.3418512 C 0.86071746,4.3158028 0.77023649,4.243421 0.72066155,4.1376512 L 0.69515142,4.0832288 V 3.6216171 3.1600081 l 0.0267235,-0.054419 c 0.0367842,-0.074907 0.0990012,-0.1358717 0.1757695,-0.1722395 0.0584105,-0.027672 0.071909,-0.030271 0.15442278,-0.029757 0.076834,4.758e-4 0.098668,0.00435 0.1453198,0.025727 0.06683,0.030629 0.1472914,0.1089936 0.1767746,0.1721651 0.037278,0.079876 0.040668,0.130135 0.037486,0.5557777 -0.00271,0.3610105 -0.00493,0.4117631 -0.01977,0.4497606 -0.067841,0.1736911 -0.244711,0.2735428 -0.41595118,0.2348282 z M 10.574579,3.6025842 c 0.209341,-0.2093924 0.382762,-0.38071 0.385382,-0.38071 0.0026,0 -0.166521,0.1713176 -0.375863,0.38071 -0.209342,0.2093891 -0.382762,0.3807096 -0.385379,0.3807096 -0.0026,0 0.166521,-0.1713205 0.37586,-0.3807096 z m 4.271436,-0.00375 c -0.131762,-0.04297 -0.225719,-0.1498371 -0.250739,-0.2851883 -0.0064,-0.034699 -0.009,-0.2022194 -0.007,-0.4609904 0.003,-0.3988657 0.0035,-0.4075078 0.02502,-0.4611778 0.02908,-0.072388 0.103423,-0.1526743 0.176828,-0.1909483 0.05433,-0.028324 0.0642,-0.030218 0.15803,-0.030292 0.09375,0 0.104063,0.00187 0.16297,0.030854 0.07455,0.036668 0.133001,0.09636 0.168477,0.1720313 l 0.02532,0.054015 V 2.888754 3.350363 l -0.02559,0.054592 c -0.03256,0.06947 -0.101719,0.1387474 -0.17364,0.1739346 -0.04626,0.022638 -0.07066,0.027993 -0.137885,0.030269 -0.05084,0.00173 -0.09681,-0.00217 -0.121778,-0.01032 z m -3.239974,-0.517349 c -0.01184,-0.015096 -0.0115,-0.015431 0.0036,-0.00359 0.01585,0.012434 0.02089,0.020249 0.01306,0.020249 -0.0019,0 -0.0095,-0.00749 -0.01665,-0.016657 z M 11.329456,2.9774283 c 0.0069,-0.00273 0.01508,-0.00241 0.01824,7.435e-4 0.0032,0.00316 -0.0025,0.00541 -0.01249,0.005 -0.01109,-4.461e-4 -0.01335,-0.0027 -0.0058,-0.00575 z m 0.03807,0 c 0.0069,-0.00273 0.01508,-0.00241 0.01824,7.435e-4 0.0032,0.00316 -0.0025,0.00541 -0.01249,0.005 -0.01109,-4.461e-4 -0.01335,-0.0027 -0.0058,-0.00575 z M 0.93119299,2.1386125 C 0.83504971,2.1045138 0.76328648,2.0394091 0.71990915,1.9469297 L 0.69515142,1.8941459 V 1.4230174 0.95188889 l 0.0255875,-0.0545919 C 0.753428,0.82754707 0.82779042,0.75318465 0.89754031,0.72049552 l 0.0545919,-0.0255874 H 1.4137442 1.8753533 l 0.054425,0.0255101 c 0.1488291,0.0697558 0.236229,0.23139634 0.2079859,0.38465338 -0.028439,0.1543098 -0.1427027,0.270176 -0.2946423,0.298776 -0.028196,0.00531 -0.1359519,0.00965 -0.2394586,0.00965 H 1.4154721 l -0.00375,0.2308045 C 1.4073321,1.9140648 1.3995081,1.9465368 1.3171521,2.036649 1.2464831,2.113971 1.1670354,2.1503741 1.0618307,2.1536424 1.0020557,2.1554824 0.9676532,2.1515324 0.93119609,2.1386094 Z M 14.529205,1.4142652 c -0.299879,-0.00491 -0.373623,-0.00873 -0.406018,-0.021008 -0.104654,-0.039675 -0.177327,-0.1046664 -0.220866,-0.1975235 -0.02186,-0.046616 -0.02508,-0.06572 -0.02508,-0.1486684 0,-0.0860498 0.0026,-0.10064276 0.02798,-0.15216264 0.03564,-0.072584 0.09943,-0.1363772 0.172017,-0.17201347 l 0.05699,-0.0279814 h 0.45685 0.456854 l 0.0546,0.0255875 c 0.06974,0.0326891 0.144113,0.10705154 0.176802,0.17680143 0.02291,0.0488821 0.02559,0.0655418 0.02559,0.15928818 0,0.095468 -0.0024,0.1094901 -0.02672,0.1591127 -0.03651,0.074348 -0.09911,0.1359995 -0.173397,0.1707614 -0.07575,0.035449 -0.08415,0.035853 -0.575578,0.027806 z M 3.1749574,1.4033748 C 3.0712396,1.382379 2.9577317,1.2924096 2.9160287,1.1981339 2.8366314,1.0186381 2.9177238,0.80413652 3.096717,0.72023084 l 0.054015,-0.0253228 h 0.461612 0.4616121 l 0.054015,0.0253228 C 4.3124243,0.80670004 4.3895108,1.0238157 4.3016797,1.2094823 4.2701807,1.2760623 4.1819444,1.3575023 4.109976,1.3864176 4.055527,1.4082966 4.050305,1.4085586 3.6361382,1.4102476 3.4058094,1.4111995 3.1982787,1.4081076 3.174957,1.4033776 Z M 5.3735601,1.4030774 C 5.2286925,1.3746796 5.1133289,1.2539541 5.0867244,1.1029155 5.0596945,0.94945921 5.1465058,0.78994803 5.2949094,0.72039143 l 0.054425,-0.0255101 h 0.4616091 0.461612 l 0.054592,0.0255875 c 0.06975,0.0326891 0.1441124,0.10705154 0.1768014,0.17680144 0.022424,0.0478441 0.025585,0.0663537 0.025585,0.14976873 0,0.083347 -0.00317,0.1019453 -0.025507,0.1496021 C 6.4525609,1.3064465 6.3492947,1.3852043 6.2314777,1.404502 6.1638277,1.415583 5.4311471,1.414362 5.3735604,1.403072 Z M 7.573406,1.4033748 C 7.4589137,1.3808445 7.362943,1.3049892 7.3117532,1.1965607 7.2850624,1.1400239 7.2817138,1.123605 7.2822402,1.0518863 7.2833365,0.90401798 7.3538216,0.79032869 7.4842395,0.72613107 l 0.063305,-0.0311605 h 0.4618053 0.4618054 l 0.056986,0.0279785 c 0.07259,0.0356392 0.1365734,0.0996227 0.1720997,0.17209971 0.025189,0.051389 0.027892,0.0661187 0.027892,0.15207642 3e-6,0.083177 -0.00319,0.10199 -0.02532,0.1491947 C 8.6525161,1.3036152 8.5508919,1.3817486 8.4337172,1.4032142 8.36662,1.4155053 7.635739,1.4156421 7.573406,1.4035116 Z m 2.199492,2.974e-4 C 9.6757168,1.3844935 9.5844923,1.3238556 9.534391,1.2451364 9.4064419,1.0441036 9.501226,0.78093711 9.7286582,0.70575092 c 0.043529,-0.0143877 0.096515,-0.0158212 0.4949228,-0.0133736 l 0.446177,0.002736 0.05441,0.0267175 c 0.07489,0.0367753 0.13588,0.0990042 0.172248,0.17577544 0.02759,0.0582409 0.03029,0.0721498 0.02997,0.15442284 -2.97e-4,0.078615 -0.0037,0.09741 -0.02629,0.1439487 -0.05392,0.1112002 -0.150336,0.1858689 -0.267781,0.2073821 -0.06662,0.012202 -0.7978266,0.01247 -0.8594192,3.271e-4 z m 2.186513,-0.00271 C 11.800516,1.3654696 11.686119,1.234163 11.675943,1.0755886 c -0.01063,-0.16550064 0.08594,-0.31262849 0.240936,-0.36710443 0.05031,-0.0176828 0.07661,-0.0185304 0.497539,-0.0160204 l 0.444424,0.002647 0.05922,0.0273569 c 0.07274,0.0335991 0.145938,0.10802699 0.181339,0.18439084 0.0211,0.0455097 0.02543,0.0684057 0.02566,0.13565159 5.66e-4,0.1628449 -0.0808,0.283963 -0.231459,0.3445741 -0.05279,0.02124 -0.06156,0.021683 -0.46782,0.02361 -0.29905,0.00143 -0.428558,-0.00128 -0.466372,-0.00973 z"
       style="opacity:1;fill:#000000" />
    <path
       id="path9351"
       d="M 6.0155751,14.075959 C 5.3765728,14.043793 4.9135897,13.984746 4.4078331,13.870914 3.8012047,13.734382 3.270494,13.524859 2.8842347,13.269404 2.159013,12.789769 1.9615341,12.122822 2.3684709,11.527501 2.776068,10.931218 3.8267,10.475036 5.1875307,10.303469 c 0.6589721,-0.08308 1.4078452,-0.09502 2.0748706,-0.0331 1.7611774,0.163496 3.0309467,0.773009 3.2815377,1.575195 0.03602,0.115304 0.047,0.189235 0.04655,0.313499 -0.0011,0.298114 -0.120258,0.56224 -0.369388,0.818528 -0.5744749,0.590989 -1.7397805,0.98203 -3.2347194,1.085478 -0.1428514,0.0099 -0.8452573,0.01921 -0.9708124,0.01289 z M 10.420811,10.178976 C 10.302972,10.155663 10.355497,10.203942 9.2373369,9.0912323 7.6277005,7.4894472 7.7021105,7.5649812 7.6734897,7.5037516 c -0.013745,-0.029412 -0.027744,-0.070669 -0.031104,-0.091682 -0.00571,-0.035693 -0.00851,-0.03853 -0.0425,-0.043089 -0.100732,-0.01351 -0.2111559,-0.098716 -0.2619175,-0.2021004 -0.025296,-0.05152 -0.027978,-0.06611 -0.027976,-0.1521627 3e-6,-0.1665147 -0.13332,-0.01983 1.4695002,-1.6167766 2.4115106,-2.4026748 2.3682466,-2.3601777 2.4280186,-2.3851882 0.266334,-0.1114499 0.553304,0.1080656 0.503591,0.3852185 -0.01879,0.1047467 -0.04906,0.1452602 -0.283992,0.3800196 l -0.217791,0.217636 0.04766,0.035812 c 0.02621,0.019696 0.614722,0.602114 1.307799,1.2942573 1.427768,1.4258521 1.322296,1.3089212 1.321569,1.4651254 -2.97e-4,0.060341 -0.0058,0.095763 -0.02188,0.1382359 -0.02084,0.055342 -0.07002,0.1054873 -1.589071,1.6202889 -1.668214,1.6635407 -1.605812,1.6045327 -1.722701,1.6289897 -0.05649,0.01182 -0.07494,0.0119 -0.131886,6.25e-4 z m 2.540857,-3.3289327 0.05464,-0.055219 -1.122172,-1.1199536 C 11.276946,5.0588947 10.759181,4.5389703 10.743547,4.5194854 l -0.02842,-0.035431 -1.2124031,1.2103338 -1.2124033,1.2103304 2.3083554,2.974e-4 2.308351,2.975e-4 0.05464,-0.055217 z M 6.7991804,9.7603692 C 6.6504942,9.7352784 6.5378309,9.6790597 6.4380506,9.5801716 6.3783287,9.520979 6.3580467,9.4924891 6.3225859,9.4179512 6.2989254,9.3682216 6.2727849,9.3018352 6.2644996,9.2704249 6.1428194,8.8092797 6.3685773,8.0673269 6.7886795,7.5477118 c 0.042322,-0.052347 0.094882,-0.1123094 0.1168,-0.1332486 l 0.039853,-0.038071 0.069815,0.074556 C 7.3303306,7.7875314 7.5815569,8.3317436 7.63898,8.80231 7.655084,8.9342888 7.64562,9.1617893 7.6197,9.2656677 7.552561,9.5347523 7.3850859,9.7020819 7.1291519,9.7557965 c -0.070832,0.014864 -0.2539415,0.017404 -0.3299723,0.00458 z"
       style="opacity:1;fill:#000000" />
  </g>
</svg>
