<?xml version='1.0' encoding='UTF-8'?>
<!-- Created with Inkscape (http://www.inkscape.org/) and export_objects.py -->
<svg xmlns:cc="http://creativecommons.org/ns#" xmlns:dc="http://purl.org/dc/elements/1.1/" xmlns:inkscape="http://www.inkscape.org/namespaces/inkscape" xmlns:rdf="http://www.w3.org/1999/02/22-rdf-syntax-ns#" xmlns:sodipodi="http://sodipodi.sourceforge.net/DTD/sodipodi-0.dtd" xmlns:xlink="http://www.w3.org/1999/xlink" xmlns="http://www.w3.org/2000/svg" version="1.1" id="svg1" width="16" height="16" viewBox="0 0 16 16">

<sodipodi:namedview 
    objecttolerance="10" 
    gridtolerance="10" 
    guidetolerance="10" 
    id="namedview" 
    showgrid="true" 
    inkscape:zoom="27.166187"
    inkscape:cx="7.4837792"
    inkscape:cy="8.9906751"
    inkscape:window-x="0" 
    inkscape:window-y="27"> 
    <inkscape:grid type="xygrid" id="grid"/>
  </sodipodi:namedview>
  
<metadata
     id="metadata1906">
    <rdf:RDF>
      <cc:Work
         rdf:about="">
        <dc:format>image/svg+xml</dc:format>
        <dc:type
           rdf:resource="http://purl.org/dc/dcmitype/StillImage" />
        <cc:license
           rdf:resource="http://creativecommons.org/publicdomain/zero/1.0/" />
        <dc:title>fe Editor new Icons proposal</dc:title>
        <dc:date>13 Nov 2018</dc:date>
        <dc:creator>
          <cc:Agent>
            <dc:title>Ramón Miranda</dc:title>
          </cc:Agent>
        </dc:creator>
        <dc:rights>
          <cc:Agent>
            <dc:title>see the license tab</dc:title>
          </cc:Agent>
        </dc:rights>
        <dc:subject>
          <rdf:Bag>
            <rdf:li>icon ui</rdf:li>
          </rdf:Bag>
        </dc:subject>
        <dc:description>This is a little contribution with Inkscape Project
Ramon Miranda  www.ramonmiranda.com (design and SVG file)
Jabiertxo (SVG stuff to integrate them in UI)</dc:description>
        <dc:publisher>
          <cc:Agent>
            <dc:title></dc:title>
          </cc:Agent>
        </dc:publisher>
        <dc:identifier></dc:identifier>
        <dc:source />
        <dc:relation />
        <dc:language>-</dc:language>
        <dc:coverage />
        <dc:contributor>
          <cc:Agent>
            <dc:title>Ramon Miranda
Jabier Arraiza</dc:title>
          </cc:Agent>
        </dc:contributor>
      </cc:Work>
      <cc:License
         rdf:about="http://creativecommons.org/publicdomain/zero/1.0/">
        <cc:permits
           rdf:resource="http://creativecommons.org/ns#Reproduction" />
        <cc:permits
           rdf:resource="http://creativecommons.org/ns#Distribution" />
        <cc:permits
           rdf:resource="http://creativecommons.org/ns#DerivativeWorks" />
      </cc:License>
    </rdf:RDF>
  </metadata>
  <g inkscape:groupmode="layer"
     id="layer"
     inkscape:label="feImage">
        <path 
            id="rect22048" 
            d="M 0,0 H 16 V 16 H 0 Z" 
            style="opacity:0;fill:none" />
        <path
           style="opacity:1;fill:#000000"
           d="M 0.83695682,14.531707 C 0.79021815,14.519341 0.72180293,14.474719 0.66455271,14.419249 0.55661189,14.314674 0.51500762,14.20175 0.53509095,14.067844 0.55346901,13.945302 5.8652486,5.2019212 5.993783,5.0826535 6.1511136,4.9366558 6.3772393,4.9259016 6.5566759,5.0558862 c 0.06071,0.043976 0.4234865,0.6279039 1.916,3.0839809 1.0126112,1.6663551 1.8474791,3.0232449 1.8552571,3.0153109 0.0078,-0.0079 0.320306,-0.507349 0.694496,-1.109805 0.374195,-0.6024553 0.703166,-1.12558 0.731053,-1.1625041 0.0287,-0.038001 0.09804,-0.088804 0.159777,-0.1170645 0.143881,-0.065876 0.302904,-0.055495 0.439754,0.028703 0.08744,0.053802 0.181353,0.1993768 1.64245,2.5459756 0.852344,1.368902 1.566879,2.52476 1.587858,2.568573 0.07199,0.150354 0.0386,0.324352 -0.0862,0.449159 -4.734292,0.146506 -8.4250603,0.163854 -14.66015632,0.173492 z M 9.2724301,12.863473 C 9.5553515,12.408894 9.78462,12.023048 9.7819252,12.006039 9.7763862,11.970963 7.2535246,7.8071138 7.2369949,7.8057322 7.2310825,7.8051099 7.1892543,7.8608478 7.1439968,7.9293128 7.0009054,8.145767 6.796251,8.3039191 6.5648537,8.3768589 c -0.092077,0.029027 -0.1046423,0.039002 -0.093558,0.074302 0.026649,0.084889 0.03342,0.3468744 0.011601,0.4486227 C 6.4323985,9.1352577 6.2644317,9.3578297 6.0761015,9.4388475 5.9965276,9.4730832 5.9477103,9.4802028 5.8352822,9.4739669 5.6641969,9.4644822 5.5664752,9.4207122 5.4439339,9.2986687 5.1416262,8.9975995 5.1369709,8.4445523 5.4340758,8.1269284 L 5.5251945,8.0295053 5.4381709,7.8997323 5.3511473,7.7699532 3.5560087,10.723906 c -0.9873187,1.624675 -1.7951322,2.95895 -1.7951322,2.965055 0,0.0062 1.5743589,0.0089 3.4985796,0.0061 l 3.498581,-0.0049 z m 5.1118109,0.780088 c -0.0036,-0.0092 -0.399881,-0.648815 -0.880504,-1.421577 l -0.873864,-1.40503 -0.06949,0.138896 c -0.229039,0.457815 -0.715115,0.605749 -1.116023,0.339644 -0.06044,-0.04013 -0.113554,-0.06299 -0.122964,-0.05294 -0.02243,0.02396 -1.4945857,2.395722 -1.4945857,2.407907 0,0.0053 1.0269117,0.0097 2.2820297,0.0097 1.255117,0 2.279043,-0.0075 2.275395,-0.01656 z M 11.124869,4.9164667 C 10.711713,4.8082334 10.385053,4.5236316 10.245453,4.1502698 c -0.0956,-0.2556687 -0.06993,-0.5984418 0.06399,-0.8543285 0.09501,-0.1815713 0.345835,-0.4239092 0.533083,-0.515059 0.544477,-0.2650474 1.174068,-0.1730327 1.582922,0.2313534 0.353466,0.3495881 0.439543,0.8313139 0.226493,1.2674897 -0.08687,0.1778372 -0.334987,0.4238344 -0.528812,0.5242822 -0.293807,0.1522647 -0.680151,0.1957859 -0.998261,0.1124591 z"
           id="path7446"/> 
   </g>
</svg>
