<?xml version='1.0' encoding='UTF-8'?>
<!-- Created with Inkscape (http://www.inkscape.org/) and export_objects.py -->
<svg xmlns:cc="http://creativecommons.org/ns#" xmlns:dc="http://purl.org/dc/elements/1.1/" xmlns:inkscape="http://www.inkscape.org/namespaces/inkscape" xmlns:rdf="http://www.w3.org/1999/02/22-rdf-syntax-ns#" xmlns:sodipodi="http://sodipodi.sourceforge.net/DTD/sodipodi-0.dtd" xmlns:xlink="http://www.w3.org/1999/xlink" xmlns="http://www.w3.org/2000/svg" version="1.1" id="svg1" width="16" height="16" viewBox="0 0 16 16">

<sodipodi:namedview 
    objecttolerance="10" 
    gridtolerance="10" 
    guidetolerance="10" 
    id="namedview" 
    showgrid="true" 
    inkscape:zoom="27.166187"
    inkscape:cx="7.4837792"
    inkscape:cy="8.9906751"
    inkscape:window-x="0" 
    inkscape:window-y="27"> 
    <inkscape:grid type="xygrid" id="grid"/>
  </sodipodi:namedview>
  
<metadata
     id="metadata1906">
    <rdf:RDF>
      <cc:Work
         rdf:about="">
        <dc:format>image/svg+xml</dc:format>
        <dc:type
           rdf:resource="http://purl.org/dc/dcmitype/StillImage" />
        <cc:license
           rdf:resource="http://creativecommons.org/publicdomain/zero/1.0/" />
        <dc:title>fe Editor new Icons proposal</dc:title>
        <dc:date>13 Nov 2018</dc:date>
        <dc:creator>
          <cc:Agent>
            <dc:title>Ramón Miranda</dc:title>
          </cc:Agent>
        </dc:creator>
        <dc:rights>
          <cc:Agent>
            <dc:title>see the license tab</dc:title>
          </cc:Agent>
        </dc:rights>
        <dc:subject>
          <rdf:Bag>
            <rdf:li>icon ui</rdf:li>
          </rdf:Bag>
        </dc:subject>
        <dc:description>This is a little contribution with Inkscape Project
Ramon Miranda  www.ramonmiranda.com (design and SVG file)
Jabiertxo (SVG stuff to integrate them in UI)</dc:description>
        <dc:publisher>
          <cc:Agent>
            <dc:title></dc:title>
          </cc:Agent>
        </dc:publisher>
        <dc:identifier></dc:identifier>
        <dc:source />
        <dc:relation />
        <dc:language>-</dc:language>
        <dc:coverage />
        <dc:contributor>
          <cc:Agent>
            <dc:title>Ramon Miranda
Jabier Arraiza</dc:title>
          </cc:Agent>
        </dc:contributor>
      </cc:Work>
      <cc:License
         rdf:about="http://creativecommons.org/publicdomain/zero/1.0/">
        <cc:permits
           rdf:resource="http://creativecommons.org/ns#Reproduction" />
        <cc:permits
           rdf:resource="http://creativecommons.org/ns#Distribution" />
        <cc:permits
           rdf:resource="http://creativecommons.org/ns#DerivativeWorks" />
      </cc:License>
    </rdf:RDF>
  </metadata>
  <g inkscape:groupmode="layer"
     id="layercompo"
     inkscape:label="feComponentTurbulence">
        <path 
            id="rect22048" 
            d="M 0,0 H 16 V 16 H 0 Z" 
            style="opacity:0;fill:none" />
        <path
           id="path9609"
           d="M 3.0990136,15.115367 C 3.0250456,14.969761 2.948698,14.687518 2.9254358,14.473722 2.8805108,14.060775 2.9632753,13.64904 3.1795628,13.209487 3.4203513,12.720142 3.8005095,12.305292 4.3667518,11.91395 4.6217966,11.737683 4.8559977,11.605237 5.5166847,11.263635 6.1823009,10.919485 6.4822378,10.747386 6.7483204,10.556946 7.2549948,10.194304 7.5938857,9.7626056 7.7407538,9.2927187 7.7827817,9.1582544 7.7898737,9.092187 7.7892248,8.8411871 7.7885039,8.564711 7.7843745,8.5352626 7.7197268,8.3476533 7.5942855,7.9835524 7.3696081,7.6933484 7.0532781,7.4868487 6.7600006,7.2953921 6.4677719,7.2108369 6.0993726,7.2108369 c -0.4949812,0 -0.9116418,0.1660026 -1.2659357,0.5043651 -0.4629883,0.4421716 -0.6181611,0.8578235 -0.7297722,1.954804 -0.052135,0.512386 -0.076295,0.701349 -0.1169138,0.914301 -0.2186996,1.146735 -0.8488097,1.831871 -1.941272,2.110802 -0.2410311,0.06154 -0.550695,0.101274 -0.9187141,0.11788 l -0.31975797,0.01443 v -0.34092 -0.340921 l 0.0586306,0.01288 c 0.0940449,0.02065 0.68057367,-0.02632 0.90841037,-0.07274 0.7614831,-0.155187 1.2372528,-0.546031 1.4592755,-1.1988 C 3.3328675,10.594247 3.3803291,10.317327 3.452567,9.6077411 3.5592687,8.5595823 3.7127832,8.0655981 4.0855347,7.5709185 4.477524,7.0507026 5.0608475,6.6933287 5.7003437,6.5815956 6.052586,6.5200505 6.52479,6.5583532 6.8721427,6.676644 7.4971271,6.8894852 8.0436665,7.3977783 8.2848877,7.9905359 8.414904,8.3100231 8.4398179,8.4491313 8.4391296,8.8516891 8.4384742,9.1612029 8.4314241,9.244733 8.3936474,9.380885 8.1744891,10.170918 7.6471218,10.793244 6.7218006,11.353772 6.6047033,11.424705 6.2348292,11.624117 5.8998581,11.796911 5.2146636,12.150365 4.8400635,12.366499 4.596378,12.54898 c -0.7299623,0.546636 -1.0919579,1.212429 -1.0169278,1.870334 0.032491,0.284857 0.1012287,0.448179 0.3062227,0.727556 l 0.034668,0.04725 H 3.5296818 3.1390231 Z m 2.2791077,-0.0105 c 0.2250248,-0.244477 0.3837304,-0.577868 0.6373528,-1.338842 0.2888531,-0.866688 0.4797286,-1.232146 0.8260063,-1.581517 0.7696373,-0.776504 1.9071165,-0.899417 2.6076619,-0.281778 0.1226228,0.108112 0.2722505,0.322333 0.3423449,0.490135 0.1019433,0.244034 0.1088252,0.563366 0.01756,0.814797 -0.1459499,0.402082 -0.4199176,0.654335 -1.105499,1.01787 -0.5724298,0.303538 -0.7505239,0.508756 -0.7316402,0.843085 l 0.00709,0.125582 -0.3307696,-4.1e-5 -0.3307762,-3.5e-5 v -0.1636 c 0,-0.325354 0.1243992,-0.628206 0.359872,-0.876093 0.1829248,-0.192573 0.3633589,-0.317325 0.7742056,-0.535276 0.179038,-0.09498 0.3699659,-0.205222 0.4242835,-0.244984 0.15748,-0.115274 0.2854514,-0.271147 0.3210623,-0.391051 0.039491,-0.132996 0.039544,-0.170149 6.555e-4,-0.301921 -0.06451,-0.217231 -0.2471661,-0.389564 -0.4990188,-0.470821 -0.1220132,-0.03936 -0.174725,-0.04433 -0.3780279,-0.03558 -0.1973056,0.0085 -0.2653682,0.02101 -0.4129901,0.07595 -0.4584197,0.170614 -0.8055497,0.525525 -1.0353593,1.058579 -0.045594,0.105759 -0.1564837,0.414803 -0.2464254,0.686765 -0.1827938,0.55276 -0.2784052,0.79589 -0.4070975,1.035242 l -0.087497,0.16274 -0.4174537,2.1e-5 -0.4174538,2.1e-5 0.082155,-0.08926 z m 4.6065163,0.08153 c 0,-0.0042 0.043958,-0.07277 0.097669,-0.15226 0.229278,-0.3393 0.383599,-0.744339 0.626511,-1.644376 0.166991,-0.618753 0.240592,-0.857787 0.346507,-1.125345 0.08526,-0.21539 0.261724,-0.554232 0.38592,-0.741052 0.629461,-0.946847 1.755949,-1.413991 2.842217,-1.178641 0.268127,0.05809 0.454029,0.125533 0.704766,0.255684 l 0.204765,0.106291 v 0.418372 0.418371 l -0.0991,-0.08723 c -0.253071,-0.222762 -0.610013,-0.402761 -0.940468,-0.474266 -0.246223,-0.05327 -0.66127,-0.05011 -0.892562,0.0068 -0.656996,0.161677 -1.138822,0.566283 -1.469133,1.233671 -0.154845,0.312866 -0.261049,0.621276 -0.423084,1.228585 -0.226637,0.849448 -0.311106,1.103799 -0.496928,1.496353 L 10.754903,15.19412 H 10.36977 c -0.211823,0 -0.3851324,-0.0035 -0.3851324,-0.0077 z M 11.782043,9.2918895 C 11.300729,9.2162269 10.933922,9.0265895 10.609524,8.6857036 10.470298,8.5394025 10.410618,8.4562513 10.334481,8.3024982 10.180114,7.9907539 10.145572,7.8320535 10.145479,7.4340911 c -5.8e-5,-0.2966594 0.0064,-0.3601181 0.05507,-0.5417104 0.163975,-0.6115422 0.463735,-1.0614862 1.157188,-1.7369461 0.877237,-0.8544727 1.177187,-1.1643018 1.311392,-1.3545654 0.368209,-0.5220193 0.582747,-1.0943483 0.637516,-1.7007472 0.03726,-0.4126059 -0.0044,-0.7780963 -0.141906,-1.24526576 l -0.01406,-0.0477854 0.342515,0.005781 0.342509,0.005781 0.0273,0.10500742 c 0.139356,0.53606314 0.144587,1.16720024 0.01453,1.75196904 -0.07314,0.3288767 -0.152525,0.5489023 -0.322623,0.8942125 -0.27345,0.5551294 -0.526076,0.8800588 -1.129161,1.4523261 -0.671817,0.6374925 -1.056387,1.0350223 -1.206244,1.246898 -0.319266,0.4513867 -0.459638,0.8694526 -0.428642,1.2766284 0.0406,0.5334597 0.371218,0.9182141 0.916256,1.0662982 0.177229,0.048151 0.580788,0.049255 0.789622,0.00216 0.390488,-0.088062 0.798261,-0.3020921 1.204769,-0.6323617 0.448653,-0.364504 1.017425,-0.9902602 1.384074,-1.5227393 L 15.192993,6.3030283 V 6.8502736 7.3975192 L 15.032589,7.583813 c -0.21742,0.2525147 -0.696127,0.7234523 -0.912329,0.8975213 -0.519778,0.4184932 -1.013742,0.6704678 -1.531441,0.7811993 -0.188661,0.040354 -0.633774,0.056545 -0.806776,0.029349 z M 1.6439265,7.750653 C 1.4929749,7.7239372 0.85906319,7.5582902 0.82338014,7.5362361 0.81437417,7.5306713 0.80700683,7.3748293 0.80700683,7.18992 V 6.8537206 l 0.0472519,0.015134 C 1.0730239,6.9389171 1.5860956,7.0738403 1.7285721,7.0987705 2.1872607,7.1790327 2.4937259,7.1010543 2.762568,6.8356788 2.994049,6.6071824 3.0952579,6.3482699 3.0958544,5.9831006 3.0965754,5.5348306 2.9100916,5.1301399 2.5305625,4.7564071 2.2204792,4.4510582 1.8818769,4.2550229 1.1692842,3.9682836 L 0.80700683,3.8225084 V 3.4681549 c 0,-0.2753697 0.005834,-0.3518936 0.026251,-0.3433156 0.0144397,0.00607 0.21053927,0.086219 0.43578027,0.1781071 0.7153456,0.2918263 0.9349826,0.3981505 1.2390882,0.599825 C 2.9634982,4.2047651 3.2955589,4.567597 3.5104044,4.9979239 3.6836547,5.3449402 3.7495478,5.62335 3.7489906,6.0059931 3.7478108,6.8302618 3.2456393,7.5206841 2.4968655,7.7275579 2.3255227,7.7748963 1.8531745,7.7876863 1.6439265,7.750653 Z M 8.2835178,5.880679 C 7.8003676,5.8002794 7.3865648,5.5868562 7.0440099,5.2413879 6.6973521,4.8917852 6.4869243,4.4844006 6.4020296,3.9985408 6.3756803,3.8477397 6.3703186,3.7286026 6.3794229,3.4963205 6.3930564,3.1484514 6.4354972,2.9225044 6.5696692,2.4834632 6.6200475,2.31861 6.7087964,2.0277944 6.7668894,1.8372066 6.8643231,1.5175359 6.9223048,1.2326424 6.9517479,0.92889399 l 0.011707,-0.12075803 h 0.3240053 0.3240119 v 0.0502781 c 0,0.13855433 -0.049658,0.51111124 -0.09567,0.71780094 C 7.4873216,1.7041136 7.3889506,2.046743 7.2971866,2.3376143 7.0639752,3.076831 7.0340273,3.2224092 7.0350171,3.6118284 c 7.865e-4,0.2996264 0.00413,0.3247724 0.06919,0.5145355 0.094904,0.2768839 0.2108931,0.4636052 0.4109583,0.6615458 0.1930778,0.191027 0.3420565,0.2860288 0.5813309,0.3707006 C 8.6659307,5.3601174 9.2556581,5.2362262 9.6958496,4.8226148 9.9576918,4.5765833 10.116154,4.2754862 10.172799,3.9163498 10.202472,3.728248 10.20004,3.5957343 10.163027,3.3834791 10.097441,3.0073978 9.9303125,2.7240138 9.436859,2.1522283 8.9573926,1.596641 8.7601067,1.3109196 8.6299658,0.98365345 8.5984711,0.90444481 8.5685037,0.8325504 8.563378,0.82388723 c -0.00511,-0.008663 0.1495358,-0.015729 0.3436952,-0.0157015 l 0.3530158,4.981e-5 0.062753,0.12070889 C 9.40714,1.0911057 9.5905173,1.3318307 9.9374764,1.7358134 c 0.1587726,0.1848663 0.3480876,0.4179788 0.4207046,0.5180277 0.176096,0.242623 0.348238,0.59483 0.417376,0.853953 0.05028,0.1884412 0.05603,0.2466889 0.05603,0.5670387 0,0.3172051 -0.006,0.3795554 -0.05405,0.5590352 C 10.567305,5.0197185 9.9460436,5.6419565 9.1745847,5.8393459 8.9116876,5.9066108 8.5423181,5.9237444 8.2835178,5.880679 Z M 3.8417181,4.0236244 C 3.4744264,3.9165268 3.1672205,3.6445225 2.9615449,3.2443034 2.8386927,3.005246 2.7844733,2.8473143 2.6587174,2.3622424 2.6003228,2.137002 2.5277376,1.8865599 2.4974096,1.8057047 2.3732595,1.4747149 2.1458096,1.1314674 1.9130176,0.92380175 L 1.7835716,0.80832473 2.237272,0.80825919 2.6909725,0.80819364 2.787187,0.95287977 C 2.9080728,1.1346772 3.0528171,1.4223807 3.1264642,1.6272502 3.1576115,1.7138805 3.2348833,1.9828399 3.2981807,2.224936 3.4195713,2.6891901 3.490767,2.884813 3.6006674,3.0560792 3.8657078,3.469108 4.3153444,3.5323851 4.5429976,3.1886938 4.6705035,2.9961908 4.7028962,2.8404845 4.7018146,2.4253046 4.7003071,1.8533879 4.5991636,1.4054017 4.3425524,0.83444533 4.3333694,0.81401081 4.4098285,0.80819364 4.6875912,0.80819364 H 5.0444283 L 5.099506,0.9567817 c 0.071229,0.1921602 0.1692913,0.5645893 0.2152519,0.8174782 0.053296,0.2932925 0.053439,0.9983553 0,1.2285844 C 5.2744674,3.1772357 5.1468434,3.4761725 5.070214,3.5756426 4.8938503,3.8045876 4.6782445,3.9603611 4.4414608,4.0299122 4.2909351,4.0741247 4.0042647,4.0711483 3.8414755,4.0236788 Z"
           style="opacity:1;fill:#000000" />
    </g>
</svg>
