<?xml version='1.0' encoding='UTF-8'?>
<!-- Created with Inkscape (http://www.inkscape.org/) and export_objects.py -->
<svg xmlns:cc="http://creativecommons.org/ns#" xmlns:dc="http://purl.org/dc/elements/1.1/" xmlns:inkscape="http://www.inkscape.org/namespaces/inkscape" xmlns:rdf="http://www.w3.org/1999/02/22-rdf-syntax-ns#" xmlns:sodipodi="http://sodipodi.sourceforge.net/DTD/sodipodi-0.dtd" xmlns:xlink="http://www.w3.org/1999/xlink" xmlns="http://www.w3.org/2000/svg" version="1.1" id="svg1" width="16" height="16" viewBox="0 0 16 16">

<sodipodi:namedview 
    objecttolerance="10" 
    gridtolerance="10" 
    guidetolerance="10" 
    id="namedview" 
    showgrid="true" 
    inkscape:zoom="27.166187"
    inkscape:cx="7.4837792"
    inkscape:cy="8.9906751"
    inkscape:window-x="0" 
    inkscape:window-y="27"> 
    <inkscape:grid type="xygrid" id="grid"/>
  </sodipodi:namedview>
  
<metadata
     id="metadata1906">
    <rdf:RDF>
      <cc:Work
         rdf:about="">
        <dc:format>image/svg+xml</dc:format>
        <dc:type
           rdf:resource="http://purl.org/dc/dcmitype/StillImage" />
        <cc:license
           rdf:resource="http://creativecommons.org/publicdomain/zero/1.0/" />
        <dc:title>LiveEffect Icons proposal</dc:title>
        <dc:date>13 Jan 2019</dc:date>
        <dc:creator>
          <cc:Agent>
            <dc:title>Ramón Miranda</dc:title>
          </cc:Agent>
        </dc:creator>
        <dc:rights>
          <cc:Agent>
            <dc:title>see the license tab</dc:title>
          </cc:Agent>
        </dc:rights>
        <dc:subject>
          <rdf:Bag>
            <rdf:li>icon ui</rdf:li>
          </rdf:Bag>
        </dc:subject>
        <dc:description>This is a contribution with Inkscape Project from
Ramon Miranda www.ramonmiranda.com (design and SVG file)
Jabiertxo (SVG stuff to integrate them in UI)</dc:description>
        <dc:publisher>
          <cc:Agent>
            <dc:title></dc:title>
          </cc:Agent>
        </dc:publisher>
        <dc:identifier></dc:identifier>
        <dc:source />
        <dc:relation />
        <dc:language>-</dc:language>
        <dc:coverage />
        <dc:contributor>
          <cc:Agent>
            <dc:title>Ramon Miranda
Jabier Arraiza</dc:title>
          </cc:Agent>
        </dc:contributor>
      </cc:Work>
      <cc:License
         rdf:about="http://creativecommons.org/publicdomain/zero/1.0/">
        <cc:permits
           rdf:resource="http://creativecommons.org/ns#Reproduction" />
        <cc:permits
           rdf:resource="http://creativecommons.org/ns#Distribution" />
        <cc:permits
           rdf:resource="http://creativecommons.org/ns#DerivativeWorks" />
      </cc:License>
    </rdf:RDF>
  </metadata>
  <g inkscape:groupmode="layer"
     id="layercompo"
     inkscape:label="fill-between-many">
        <path 
            id="rect22048" 
            d="M 0,0 H 16 V 16 H 0 Z" 
            style="opacity:0;fill:none" />
        <path
           id="path9609"
           d="M 5.083984 0.9003906 C 4.817171 0.8792553 4.532592 0.8819459 4.228516 0.9101562 L 4.318359 1.880859 C 5.340992 1.785989 5.929909 2.011979 6.443359 2.398438 C 6.95681 2.784895 7.38474 3.376678 7.908203 4.011719 C 8.431666 4.646759 9.064966 5.321577 10.01758 5.767578 C 10.97019 6.21358 12.217 6.417914 13.92578 6.212891 L 13.80859 5.244141 C 12.22962 5.43359 11.19474 5.24009 10.43164 4.882812 C 9.668537 4.525536 9.153593 3.98924 8.660156 3.390625 C 8.16672 2.79201 7.709107 2.127387 7.03125 1.617188 C 6.522857 1.234537 5.884424 0.9637966 5.083984 0.9003906 z M 2.626953 3.652344 A 0.4879077 0.4879077 0 0 0 2.488281 4.601562 C 3.409666 4.932479 3.48837 5.247541 3.423828 5.873047 C 3.359286 6.498552 2.949158 7.392776 2.568359 8.333984 C 2.187469 9.275193 1.823877 10.29443 2.041016 11.31641 C 2.258246 12.33848 3.116708 13.22185 4.78125 13.76953 A 0.4879489 0.4879489 0 0 0 5.085938 12.8418 C 3.604972 12.3546 3.132906 11.76608 2.994141 11.11328 C 2.855467 10.46048 3.108085 9.602272 3.472656 8.701172 C 3.837319 7.800071 4.300392 6.884545 4.394531 5.972656 C 4.488578 5.06086 4.013219 4.110661 2.818359 3.681641 A 0.4879077 0.4879077 0 0 0 2.626953 3.652344 z M 14.00391 8.828125 A 0.4879386 0.4879386 0 0 0 13.5293 9.314453 C 13.5293 11.1563 13.14735 11.89955 12.76562 12.16602 C 12.384 12.43257 11.76835 12.37476 11.01367 12.1875 C 10.25899 12.00033 9.456044 11.67901 8.648438 11.81445 C 8.24468 11.88176 7.832287 12.12108 7.583984 12.52539 C 7.335589 12.9297 7.225799 13.45453 7.212891 14.15039 A 0.4879335 0.4879335 0 1 0 8.189453 14.16797 C 8.200517 13.57224 8.305741 13.21654 8.416016 13.03711 C 8.526198 12.85768 8.615705 12.80971 8.808594 12.77734 C 9.194371 12.7128 9.964758 12.93516 10.77734 13.13672 C 11.58993 13.33827 12.53644 13.51493 13.32422 12.96484 C 14.11209 12.41467 14.50586 11.2888 14.50586 9.314453 A 0.4879386 0.4879386 0 0 0 14.00391 8.828125 z"
           style="opacity:1;" />
        <path
           id="path9619"
           d="m 2.431603,4.010846 2.026336,-2.735553 2.228969,0.540356 1.48598,1.722385 1.958792,1.823703 3.0395,0.6079 0.6079,-0.30395 0.33773,3.613632 -0.33773,2.701781 -0.67544,0.6079 -1.08071,0.3715 -1.48598,-0.40527 -1.5873,-0.0676 -1.080712,0.13509 -0.405267,0.77677 0.06754,0.87807 L 5.06584,13.36576 3.005732,12.28505 2.431603,10.93416 c 0,0 0.06754,-0.945623 0.202634,-1.249574 C 2.769326,9.380636 3.039504,8.232379 3.242137,7.928429 3.444771,7.624478 3.850038,6.61131 3.816266,6.239815 3.782494,5.868321 3.613632,5.024014 3.613632,5.024014 L 3.478543,4.618747 Z"
           style="opacity:0.3;" />
    </g>
</svg>
