<?xml version='1.0' encoding='UTF-8'?>
<!-- Created with Inkscape (http://www.inkscape.org/) and export_objects.py -->
<svg xmlns:cc="http://creativecommons.org/ns#" xmlns:dc="http://purl.org/dc/elements/1.1/" xmlns:inkscape="http://www.inkscape.org/namespaces/inkscape" xmlns:rdf="http://www.w3.org/1999/02/22-rdf-syntax-ns#" xmlns:sodipodi="http://sodipodi.sourceforge.net/DTD/sodipodi-0.dtd" xmlns:xlink="http://www.w3.org/1999/xlink" xmlns="http://www.w3.org/2000/svg" version="1.1" id="svg1" width="16" height="16" viewBox="0 0 16 16" sodipodi:docname="flatten-symbolic.svg">
<sodipodi:namedview objecttolerance="10" gridtolerance="10" guidetolerance="10" id="namedview" showgrid="true" inkscape:zoom="0.6002936" inkscape:cx="732.67439" inkscape:cy="-567.94603" inkscape:window-width="1920" inkscape:window-height="1016" inkscape:window-x="0" inkscape:window-y="27" inkscape:window-maximized="1" inkscape:current-layer="layer1">
    <inkscape:grid type="xygrid" id="grid"/>
  </sodipodi:namedview>
  <g transform="matrix(1.017748,0,0,1.017747,-287.59623,-546.25767)" inkscape:label="00388" id="flatten">
      <path inkscape:connector-curvature="0" id="rect13989" d="m 282.58109,536.7323 h 15.72099 v 15.721 h -15.72099 z" style="opacity:0;fill:none"/>
      <path id="path14280" transform="translate(-236.3605,335.8446)" d="m 530.5332,205.6113 a 1.9925,2.080405 0 0 0 -1.9199,1.5313 c -0.9429,0.2708 -1.9018,0.6927 -2.8145,1.3906 -0.2253,0.1726 -0.4371,0.3066 -0.6523,0.4512 a 1.9925,2.080405 0 0 0 -1.2949,-0.502 1.9925,2.080405 0 0 0 -1.9844,1.916 c -0.9221,0.1715 -1.7184,0.1531 -2.4043,0.1485 l -0.012,1.5 c 0.6891,0 1.6591,0.014 2.8164,-0.2246 a 1.9925,2.080405 0 0 0 1.584,0.8222 1.9925,2.080405 0 0 0 1.9922,-2.08 1.9925,2.080405 0 0 0 -0.016,-0.2364 c 0.2903,-0.1865 0.5815,-0.3741 0.8809,-0.6035 0.6674,-0.5104 1.36,-0.8509 2.0527,-1.0762 a 1.9925,2.080405 0 0 0 1.7715,1.125 1.9925,2.080405 0 0 0 1.9121,-1.5078 c 0.728,0.032 1.3977,0.09 1.9531,0.09 v -1.5 c -0.4631,0 -1.2081,-0.083 -2.0937,-0.1153 a 1.9925,2.080405 0 0 0 -1.7715,-1.1289 z m 0,1.1133 a 0.9260918,0.9669491 0 0 1 0.9258,0.9668 0.9260918,0.9669491 0 0 1 -0.9258,0.9668 0.9260918,0.9669491 0 0 1 -0.9277,-0.9668 0.9260918,0.9669491 0 0 1 0.9277,-0.9668 z m -6.6816,2.8711 a 0.9260918,0.9669491 0 0 1 0.9257,0.9688 0.9260918,0.9669491 0 0 1 -0.9257,0.9667 0.9260918,0.9669491 0 0 1 -0.9258,-0.9667 0.9260918,0.9669491 0 0 1 0.9258,-0.9688 z" style="opacity:1;stroke-linecap:butt" inkscape:connector-curvature="0"/>
    </g>
    </svg>
