<?xml version='1.0' encoding='UTF-8'?>
<!-- Created with Inkscape (http://www.inkscape.org/) and export_objects.py -->
<svg xmlns:cc="http://creativecommons.org/ns#" xmlns:dc="http://purl.org/dc/elements/1.1/" xmlns:inkscape="http://www.inkscape.org/namespaces/inkscape" xmlns:rdf="http://www.w3.org/1999/02/22-rdf-syntax-ns#" xmlns:sodipodi="http://sodipodi.sourceforge.net/DTD/sodipodi-0.dtd" xmlns:xlink="http://www.w3.org/1999/xlink" xmlns="http://www.w3.org/2000/svg" version="1.1" id="svg1" width="16" height="16" viewBox="0 0 16 16" sodipodi:docname="grid-axonometric-symbolic.svg">
<sodipodi:namedview objecttolerance="10" gridtolerance="10" guidetolerance="10" id="namedview" showgrid="true" inkscape:zoom="0.6002936" inkscape:cx="732.67439" inkscape:cy="-567.94603" inkscape:window-width="1920" inkscape:window-height="1016" inkscape:window-x="0" inkscape:window-y="27" inkscape:window-maximized="1" inkscape:current-layer="layer1">
    <inkscape:grid type="xygrid" id="grid"/>
  </sodipodi:namedview>
  <g transform="matrix(1,0,0,0.999999,-225,-931.36102)" inkscape:label="00105" id="grid-axonometric">
      <path inkscape:connector-curvature="0" id="rect41042" d="m 225,931.36218 h 16 v 16 h -16 z" style="opacity:0;fill:none"/>
      <path inkscape:connector-curvature="0" id="path4674" d="m 227.0067,932.3622 v 14 H 228 v -14 z" style="opacity:1"/>
      <path inkscape:connector-curvature="0" id="path5266" d="m 236.9869,932.3622 v 14 h 0.9933 v -14 z" style="opacity:1"/>
      <path inkscape:connector-curvature="0" id="path5268" d="m 232.0205,931.3622 v 16 h 0.9933 v -16 z" style="opacity:1"/>
      <path inkscape:connector-curvature="0" id="path4720" d="m 225.5473,934.3622 -0.5473,0.915 15.4849,9.085 0.5151,-0.915 z" style="opacity:1"/>
      <path inkscape:connector-curvature="0" id="path5309" d="m 225.5176,940.3622 -0.5176,0.875 11,6.125 0.5176,-0.8438 z" style="opacity:1"/>
      <path inkscape:connector-curvature="0" id="path5311" d="m 230.4522,931.4393 -0.5114,0.8574 10.5478,6.0655 L 241,937.473 Z" style="opacity:1"/>
      <path inkscape:connector-curvature="0" id="path5313" d="m 234.4737,931.3622 -9.4737,5.134 0.5263,0.866 9.4737,-5.134 z" style="opacity:1"/>
      <path inkscape:connector-curvature="0" id="path5315" d="M 240.4839,933.3622 225,942.4471 l 0.5161,0.9151 15.4839,-9.085 z" style="opacity:1"/>
      <path inkscape:connector-curvature="0" id="path5317" d="M 240.5164,939.3622 229,946.459 229.4836,947.3622 241,940.2654 Z" style="opacity:1"/>
    </g>
    </svg>
