<?xml version="1.0" encoding="UTF-8" standalone="no"?>
<!-- Created with Inkscape (http://www.inkscape.org/) and export_objects.py -->

<svg
   version="1.1"
   id="svg1"
   width="16"
   height="16"
   viewBox="0 0 16 16"
   sodipodi:docname="grid-modular-symbolic.svg"
   inkscape:version="1.2.2 (b0a84865, 2022-12-01)"
   xmlns:inkscape="http://www.inkscape.org/namespaces/inkscape"
   xmlns:sodipodi="http://sodipodi.sourceforge.net/DTD/sodipodi-0.dtd"
   xmlns="http://www.w3.org/2000/svg"
   xmlns:svg="http://www.w3.org/2000/svg">
  <path
     style="color:#000000;fill:#000000;-inkscape-stroke:none"
     d="m 12,12 v 0.5 3.5 h 4 v -4 z m 1,1 h 2 v 2 h -2 z"
     id="rect1107" />
  <defs
     id="defs150" />
  <sodipodi:namedview
     objecttolerance="10"
     gridtolerance="10"
     guidetolerance="10"
     id="namedview"
     showgrid="true"
     inkscape:zoom="29.695527"
     inkscape:cx="4.1252004"
     inkscape:cy="9.0417657"
     inkscape:window-width="1269"
     inkscape:window-height="916"
     inkscape:window-x="0"
     inkscape:window-y="38"
     inkscape:window-maximized="0"
     inkscape:current-layer="svg1"
     pagecolor="#ffffff"
     bordercolor="#000000"
     borderopacity="0.25"
     inkscape:showpageshadow="2"
     inkscape:pageopacity="0.0"
     inkscape:pagecheckerboard="0"
     inkscape:deskcolor="#d1d1d1">
    <inkscape:grid
       type="xygrid"
       id="grid" />
  </sodipodi:namedview>
  <path
     style="color:#000000;fill:#000000;-inkscape-stroke:none"
     d="M 0,0 V 0.5 4 H 4 V 0 Z M 1,1 H 3 V 3 H 1 Z"
     id="rect1087" />
  <path
     style="color:#000000;fill:#000000;-inkscape-stroke:none"
     d="M 0,6 V 6.5 10 H 4 V 6 Z M 1,7 H 3 V 9 H 1 Z"
     id="rect1093" />
  <path
     style="color:#000000;fill:#000000;-inkscape-stroke:none"
     d="m 0,12 v 0.5 3.5 h 4 v -4 z m 1,1 h 2 v 2 H 1 Z"
     id="rect1095" />
  <path
     style="color:#000000;fill:#000000;-inkscape-stroke:none"
     d="M 6,0 V 0.5 4 h 4 V 0 Z M 7,1 H 9 V 3 H 7 Z"
     id="rect1097" />
  <path
     style="color:#000000;fill:#000000;-inkscape-stroke:none"
     d="M 6,6 V 6.5 10 h 4 V 6 Z M 7,7 H 9 V 9 H 7 Z"
     id="rect1099" />
  <path
     style="color:#000000;fill:#000000;-inkscape-stroke:none"
     d="m 6,12 v 0.5 3.5 h 4 v -4 z m 1,1 h 2 v 2 H 7 Z"
     id="rect1101" />
  <path
     style="color:#000000;fill:#000000;-inkscape-stroke:none"
     d="M 12,0 V 0.5 4 h 4 V 0 Z m 1,1 h 2 v 2 h -2 z"
     id="rect1103" />
  <path
     style="color:#000000;fill:#000000;-inkscape-stroke:none"
     d="M 12,6 V 6.5 10 h 4 V 6 Z m 1,1 h 2 v 2 h -2 z"
     id="rect1105" />
</svg>
