<?xml version="1.0" encoding="UTF-8" standalone="no"?>
<svg
   xmlns:dc="http://purl.org/dc/elements/1.1/"
   xmlns:cc="http://creativecommons.org/ns#"
   xmlns:rdf="http://www.w3.org/1999/02/22-rdf-syntax-ns#"
   xmlns:svg="http://www.w3.org/2000/svg"
   xmlns="http://www.w3.org/2000/svg"
   xmlns:sodipodi="http://sodipodi.sourceforge.net/DTD/sodipodi-0.dtd"
   xmlns:inkscape="http://www.inkscape.org/namespaces/inkscape"
   version="1.1"
   id="svg1"
   width="16"
   height="16"
   viewBox="0 0 16 16"
   sodipodi:docname="info-outline-symbolic.svg"
   inkscape:version="1.0beta1 (d817da3, 2019-10-12)">
  <style
     id="style4788"></style>
  <metadata
     id="metadata2662">
    <rdf:RDF>
      <cc:Work
         rdf:about="">
        <dc:format>image/svg+xml</dc:format>
        <dc:type
           rdf:resource="http://purl.org/dc/dcmitype/StillImage" />
        <dc:title />
      </cc:Work>
    </rdf:RDF>
  </metadata>
  <defs
     id="defs2660" />
  <sodipodi:namedview
     inkscape:snap-global="false"
     objecttolerance="10"
     gridtolerance="10"
     guidetolerance="10"
     id="namedview"
     showgrid="true"
     inkscape:zoom="54.332374"
     inkscape:cx="9.6814998"
     inkscape:cy="9.9908649"
     inkscape:window-width="2560"
     inkscape:window-height="1376"
     inkscape:window-x="0"
     inkscape:window-y="0"
     inkscape:window-maximized="1"
     inkscape:current-layer="svg1">
    <inkscape:grid
       type="xygrid"
       id="grid" />
  </sodipodi:namedview>
  <g
     transform="translate(-10.48884,-199.5352)"
     id="info-outline"
     inkscape:label="00338">
    <path
       inkscape:connector-curvature="0"
       id="rect23222-9"
       d="m 10.48884,199.5352 h 16 v 16 h -16 z"
       style="opacity:0;fill:none" />
    <path
       inkscape:connector-curvature="0"
       id="ellipse10646"
       d="m 18.488281,200.51953 c -3.917552,0 -7.111325,3.14298 -7.111328,7.01563 -3e-6,3.87265 3.193772,7.01562 7.111328,7.01562 3.917557,0 7.111332,-3.14297 7.111328,-7.01562 -2e-6,-3.87265 -3.193775,-7.01563 -7.111328,-7.01563 z m 0,1 c 3.384924,0 6.111326,2.69134 6.111328,6.01563 3e-6,3.32428 -2.726401,6.01562 -6.111328,6.01562 -3.384927,0 -6.111331,-2.69134 -6.111328,-6.01562 2e-6,-3.32429 2.726405,-6.01563 6.111328,-6.01563 z"
       style="opacity:1;stroke-linecap:butt" />
  </g>
  <path
     inkscape:connector-curvature="0"
     id="path2124"
     d="M 7.8237124,6.0917386 C 7.4538372,6.1251544 6.9287158,6.2340354 6.338185,6.7229692 6.1159435,6.9071131 5.512581,7.4845984 5.4490835,7.7512894 5.4228905,7.8600294 5.5491282,7.9943941 5.6705679,7.9174027 5.8864605,7.7808821 6.267211,7.1555999 6.6672475,6.9397074 6.8648843,6.8333492 7.043145,6.8953551 6.994728,7.1437894 6.9683763,7.2795166 6.6301126,8.0597964 6.4552554,8.5201567 6.1528465,9.3162614 5.7667222,10.093751 5.6373452,10.943829 c -0.043654,0.289713 0.013974,0.634709 0.3227344,0.773614 0.3659066,0.166676 0.8656533,0.04804 1.2466406,-0.117071 C 7.8972592,11.30114 8.7745485,10.532674 8.9959975,10.01834 9.0507655,9.8913486 8.9283595,9.7016506 8.814064,9.7841996 8.5346737,9.9858086 8.1334435,10.621385 7.7715054,10.768224 7.5595863,10.852355 7.4539376,10.712399 7.5626772,10.382208 7.6571311,10.093292 8.2056002,8.6509338 8.4881655,7.879434 8.6461161,7.4436805 8.864496,6.9340962 8.6890835,6.4919926 8.5558967,6.1563358 8.1523935,6.0617281 7.8237124,6.0917386 Z"
     style="stroke-width:0.81" />
  <path
     inkscape:connector-curvature="0"
     id="path4796"
     d="m 8.8237124,3.7206639 c -0.081272,-0.010077 -0.164494,-0.009 -0.2452149,0.00158 C 8.1887795,3.7732319 7.8487607,4.0547505 7.7400209,4.435738 7.6463619,4.7659267 7.7391137,5.1588705 8.0058022,5.34857 8.3141647,5.5695282 8.76586,5.5520319 9.0989858,5.34066 9.5263265,5.0700041 9.6527683,4.5028587 9.4233026,4.0971873 9.2973986,3.8748045 9.067518,3.7508812 8.8237124,3.7206639 Z"
     style="stroke-width:0.81" />
</svg>
