<?xml version='1.0' encoding='UTF-8'?>
<!-- Created with Inkscape (http://www.inkscape.org/) and export_objects.py -->
<svg xmlns:cc="http://creativecommons.org/ns#" xmlns:dc="http://purl.org/dc/elements/1.1/" xmlns:inkscape="http://www.inkscape.org/namespaces/inkscape" xmlns:rdf="http://www.w3.org/1999/02/22-rdf-syntax-ns#" xmlns:sodipodi="http://sodipodi.sourceforge.net/DTD/sodipodi-0.dtd" xmlns:xlink="http://www.w3.org/1999/xlink" xmlns="http://www.w3.org/2000/svg" version="1.1" id="svg1" width="16" height="16" viewBox="0 0 16 16" sodipodi:docname="layer-bottom-symbolic.svg">
<sodipodi:namedview objecttolerance="10" gridtolerance="10" guidetolerance="10" id="namedview" showgrid="true" inkscape:zoom="0.6002936" inkscape:cx="732.67439" inkscape:cy="-567.94603" inkscape:window-width="1920" inkscape:window-height="1016" inkscape:window-x="0" inkscape:window-y="27" inkscape:window-maximized="1" inkscape:current-layer="layer1">
    <inkscape:grid type="xygrid" id="grid"/>
  </sodipodi:namedview>
  <g transform="matrix(1,0,0,0.999999,-105,-707.3613)" inkscape:label="00051" id="layer-bottom">
      <path inkscape:connector-curvature="0" id="rect19800" d="m 106,-723.36218 h 14 c 0.554,0 1,0.446 1,1 v 14 c 0,0.554 -0.446,1 -1,1 h -14 c -0.554,0 -1,-0.446 -1,-1 v -14 c 0,-0.554 0.446,-1 1,-1 z" style="opacity:0;fill:none" transform="scale(1,-1)"/>
      <path inkscape:connector-curvature="0" id="path19802" d="m 117,714.3622 1,-1 2,-2 h -5 v 1 1 1 z m -6,0 v -1 -1 -1 h -2 l -3,3 z" style="opacity:0.5"/>
      <path style="opacity:1" d="m 120,720.3622 -3,3 h -11 l 3,-3 z" id="path19804" inkscape:connector-curvature="0"/>
      <path inkscape:connector-curvature="0" id="path19806" d="m 112,709.3622 h 2 v 7 h 2 l -3,2.9883 -3,-2.9883 h 2 z" style="opacity:1"/>
      <path inkscape:connector-curvature="0" id="path19808" d="m 117,710.3622 3,-3 h -11 l -3,3 h 5 v -2 h 4 v 2 z" style="opacity:0.5"/>
    </g>
    </svg>
