<?xml version="1.0" encoding="UTF-8" standalone="no"?>
<svg
   xmlns:dc="http://purl.org/dc/elements/1.1/"
   xmlns:cc="http://creativecommons.org/ns#"
   xmlns:rdf="http://www.w3.org/1999/02/22-rdf-syntax-ns#"
   xmlns:svg="http://www.w3.org/2000/svg"
   xmlns="http://www.w3.org/2000/svg"
   xmlns:sodipodi="http://sodipodi.sourceforge.net/DTD/sodipodi-0.dtd"
   xmlns:inkscape="http://www.inkscape.org/namespaces/inkscape"
   version="1.1"
   id="svg1"
   width="16"
   height="16"
   viewBox="0 0 16 16"
   sodipodi:docname="measure-segments-symbolic.svg"
   inkscape:version="1.0alpha (b90687801a, 2019-05-08, custom)">

  
  <defs
     id="defs5134">
    <inkscape:path-effect
       effect="bspline"
       id="path-effect5281"
       is_visible="true"
       weight="33.333333"
       steps="2"
       helper_size="0"
       apply_no_weight="true"
       apply_with_weight="true"
       only_selected="false" />
  </defs>
  <sodipodi:namedview
     objecttolerance="10"
     gridtolerance="10"
     guidetolerance="10"
     id="namedview"
     showgrid="true"
     inkscape:zoom="38.41879"
     inkscape:cx="3.0132476"
     inkscape:cy="7.6950085"
     inkscape:window-x="0"
     inkscape:window-y="31"
     inkscape:snap-global="false"
     inkscape:window-width="1350"
     inkscape:window-height="729"
     inkscape:window-maximized="0"
     inkscape:current-layer="layercompo">
    <inkscape:grid
       type="xygrid"
       id="grid" />
  </sodipodi:namedview>
  
<metadata
     id="metadata1906">
    <rdf:RDF>
      <cc:Work
         rdf:about="">
        <dc:format>image/svg+xml</dc:format>
        <dc:type
           rdf:resource="http://purl.org/dc/dcmitype/StillImage" />
        <cc:license
           rdf:resource="http://creativecommons.org/publicdomain/zero/1.0/" />
        <dc:title />
        <dc:date>13 Jan 2019</dc:date>
        <dc:creator>
          <cc:Agent>
            <dc:title>Ramón Miranda</dc:title>
          </cc:Agent>
        </dc:creator>
        <dc:rights>
          <cc:Agent>
            <dc:title>see the license tab</dc:title>
          </cc:Agent>
        </dc:rights>
        <dc:subject>
          <rdf:Bag>
            <rdf:li>icon ui</rdf:li>
          </rdf:Bag>
        </dc:subject>
        <dc:description>This is a contribution with Inkscape Project from
Ramon Miranda www.ramonmiranda.com (design and SVG file)
Jabiertxo (SVG stuff to integrate them in UI)</dc:description>
        <dc:publisher>
          <cc:Agent>
            <dc:title />
          </cc:Agent>
        </dc:publisher>
        <dc:identifier />
        <dc:source />
        <dc:relation />
        <dc:language>-</dc:language>
        <dc:coverage />
        <dc:contributor>
          <cc:Agent>
            <dc:title>Ramon Miranda
Jabier Arraiza</dc:title>
          </cc:Agent>
        </dc:contributor>
      </cc:Work>
      <cc:License
         rdf:about="http://creativecommons.org/publicdomain/zero/1.0/">
        <cc:permits
           rdf:resource="http://creativecommons.org/ns#Reproduction" />
        <cc:permits
           rdf:resource="http://creativecommons.org/ns#Distribution" />
        <cc:permits
           rdf:resource="http://creativecommons.org/ns#DerivativeWorks" />
      </cc:License>
    </rdf:RDF>
  </metadata>
  <g
     inkscape:groupmode="layer"
     id="layercompo"
     inkscape:label="measure-segments">
    <path
       id="rect22048"
       d="M 0,0 H 16 V 16 H 0 Z"
       style="opacity:0;fill:none" />
    <g
       aria-label="3M"
       id="text5250"
       style="font-style:normal;font-weight:normal;font-size:1.99542px;font-family:sans-serif;fill:#000000;fill-opacity:1;stroke:none;stroke-width:0.0498857"
       transform="matrix(1.0997713,0,0,1.0997713,-0.38830968,-0.42742679)">
      <path
         d="m 7.4424485,2.1148623 q 0.046768,0.041896 0.076972,0.1052272 0.030204,0.063331 0.030204,0.1636868 0,0.099381 -0.03605,0.182199 -0.03605,0.082818 -0.1013299,0.1442003 -0.073074,0.068203 -0.1724557,0.1013299 -0.098407,0.032153 -0.2163004,0.032153 -0.1208165,0 -0.2377356,-0.02923 Q 6.6688336,2.786173 6.5938105,2.7520716 V 2.5484374 h 0.014615 q 0.082818,0.054562 0.1948653,0.090612 0.1120475,0.03605 0.2163004,0.03605 0.061382,0 0.1305597,-0.020461 0.069177,-0.020461 0.1120475,-0.060408 0.044819,-0.04287 0.066254,-0.09451 0.02241,-0.051639 0.02241,-0.1305597 0,-0.077946 -0.025333,-0.128611 Q 7.3011712,2.1889111 7.2573266,2.1596813 7.2134819,2.1294772 7.151125,2.1187596 7.0887681,2.1070677 7.016668,2.1070677 H 6.9289787 V 1.9453295 h 0.068203 q 0.1480976,0 0.2357869,-0.061382 0.088664,-0.062357 0.088664,-0.1812247 0,-0.052614 -0.02241,-0.091587 -0.02241,-0.039947 -0.062357,-0.06528 -0.041896,-0.025332 -0.089638,-0.035076 -0.047742,-0.00974 -0.1081502,-0.00974 -0.092561,0 -0.1968139,0.033127 -0.1042529,0.033127 -0.1968139,0.093535 h -0.00974 V 1.424065 q 0.069177,-0.034101 0.1841476,-0.062357 0.1159448,-0.02923 0.224095,-0.02923 0.1062016,0 0.1870707,0.019486 0.080869,0.019486 0.1461489,0.062357 0.070151,0.046768 0.1062015,0.1130218 0.03605,0.066254 0.03605,0.1549179 0,0.1208164 -0.085741,0.2114288 -0.084766,0.089638 -0.2007112,0.1130218 v 0.013641 q 0.046768,0.00779 0.1071759,0.033127 0.060408,0.024358 0.1023042,0.061383 z"
         style="stroke-width:0.0498857"
         id="path5274"
         inkscape:connector-curvature="0" />
      <path
         d="M 9.188441,2.8134542 H 8.9955244 V 1.5633937 L 8.5921534,2.4139804 H 8.4771829 L 8.0767348,1.5633937 V 2.8134542 H 7.8964845 V 1.3626825 H 8.1595526 L 8.54636,2.1703989 8.9205013,1.3626825 H 9.188441 Z"
         style="stroke-width:0.0498857"
         id="path5276"
         inkscape:connector-curvature="0" />
    </g>
    <g
       aria-label="2M"
       transform="matrix(0.77174378,0.7835231,-0.7835231,0.77174378,-1.7242518,-0.02259586)"
       id="text5254"
       style="font-style:normal;font-weight:normal;font-size:1.99542px;font-family:sans-serif;fill:#000000;fill-opacity:1;stroke:none;stroke-width:0.0498857">
      <path
         d="m 11.54666,-0.39113417 h -0.982121 v -0.20363417 q 0.102305,-0.0876894 0.204609,-0.17537871 0.103278,-0.0876894 0.191942,-0.17440438 0.187071,-0.18122467 0.256248,-0.28742627 0.06918,-0.1071758 0.06918,-0.2309153 0,-0.1130218 -0.07502,-0.176353 -0.07405,-0.064306 -0.207532,-0.064306 -0.08866,0 -0.191942,0.031178 -0.103278,0.031179 -0.201685,0.095484 h -0.0097 v -0.2046085 q 0.06918,-0.034101 0.184148,-0.062357 0.115945,-0.028255 0.224095,-0.028255 0.223121,0 0.349783,0.1081502 0.126663,0.1071758 0.126663,0.2913235 0,0.082818 -0.02144,0.1549178 -0.02046,0.071126 -0.06138,0.1354314 -0.038,0.060408 -0.08964,0.1188678 -0.05067,0.05846 -0.12374,0.12958536 -0.104252,0.10230424 -0.215326,0.19876253 -0.111073,0.095484 -0.207531,0.17732736 h 0.780435 z"
         style="stroke-width:0.0498857"
         id="path5269"
         inkscape:connector-curvature="0" />
      <path
         d="M 13.165016,-0.39113417 H 12.972099 V -1.6411946 l -0.403371,0.8505867 h -0.11497 L 12.05331,-1.6411946 v 1.25006043 H 11.873059 V -1.8419058 h 0.263068 l 0.386808,0.8077164 0.374141,-0.8077164 h 0.26794 z"
         style="stroke-width:0.0498857"
         id="path5271"
         inkscape:connector-curvature="0" />
    </g>
    <path
       d="M 2.9628906 1.7636719 L 2.9628906 1.9824219 L 5.8535156 1.9980469 L 5.8554688 1.7773438 L 2.9628906 1.7636719 z M 10.736328 1.7636719 L 10.736328 1.9824219 L 13.626953 1.9980469 L 13.626953 1.7773438 L 10.736328 1.7636719 z M 0.64648438 3.4882812 L 0.99023438 3.8476562 L 1.0410156 3.9003906 L 10.923828 14.232422 L 11.492188 14.753906 L 12.054688 14.753906 L 1.7128906 3.9433594 L 14.427734 3.9355469 L 14.441406 3.5195312 L 1.2167969 3.4882812 L 1.1425781 3.4882812 L 0.64648438 3.4882812 z M 4.8710938 4.6757812 L 4.7167969 4.8320312 L 6.78125 6.8574219 L 6.9355469 6.6992188 L 4.8710938 4.6757812 z M 10.107422 10.115234 L 9.953125 10.271484 L 12.017578 12.296875 L 12.171875 12.138672 L 10.107422 10.115234 z "
       style="opacity:1;"
       id="path5158" />
  </g>
</svg>
