<?xml version='1.0' encoding='UTF-8'?>
<!-- Created with Inkscape (http://www.inkscape.org/) and export_objects.py -->
<svg xmlns:cc="http://creativecommons.org/ns#" xmlns:dc="http://purl.org/dc/elements/1.1/" xmlns:inkscape="http://www.inkscape.org/namespaces/inkscape" xmlns:rdf="http://www.w3.org/1999/02/22-rdf-syntax-ns#" xmlns:sodipodi="http://sodipodi.sourceforge.net/DTD/sodipodi-0.dtd" xmlns:xlink="http://www.w3.org/1999/xlink" xmlns="http://www.w3.org/2000/svg" version="1.1" id="svg1" width="16" height="16" viewBox="0 0 16 16" sodipodi:docname="node-type-symmetric-symbolic.svg">
<sodipodi:namedview objecttolerance="10" gridtolerance="10" guidetolerance="10" id="namedview" showgrid="true" inkscape:zoom="0.6002936" inkscape:cx="732.67439" inkscape:cy="-567.94603" inkscape:window-width="1920" inkscape:window-height="1016" inkscape:window-x="0" inkscape:window-y="27" inkscape:window-maximized="1" inkscape:current-layer="layer1">
    <inkscape:grid type="xygrid" id="grid"/>
  </sodipodi:namedview>
  <g transform="matrix(0.998641,0,0,0.999601,-618.13709,-558.13324)" inkscape:label="00203" id="node-type-symmetric">
      <path inkscape:connector-curvature="0" id="rect16758" d="m 619,558.36218 h 16 v 16 h -16 z" style="opacity:0;fill:none"/>
      <path inkscape:connector-curvature="0" style="opacity:1" d="m 634.3125,46 a 0.5140439,0.5121131 0 0 0 -0.4063,0.59375 c 0.2334,1.5961 -0.0607,3.72302 -1.125,5.40625 -0.6325,1.00041 -1.5307,1.84515 -2.7812,2.375 V 55.5 c 1.6552,-0.59433 2.8607,-1.6793 3.6562,-2.9375 1.2267,-1.93994 1.518,-4.26109 1.25,-6.09375 A 0.5140439,0.5121131 0 0 0 634.3125,46 Z m -14.7188,0.125 a 0.5240784,0.52211 0 0 0 -0.5,0.4375 c -0.2977,1.82706 -0.053,4.14933 1.125,6.0625 0.7918,1.28594 2.0393,2.36999 3.7813,2.9375 V 54.5 c -1.3469,-0.50158 -2.2728,-1.37754 -2.9063,-2.40625 -1.0134,-1.64596 -1.2297,-3.74206 -0.9687,-5.34375 a 0.5240784,0.52211 0 0 0 -0.5313,-0.625 z" transform="translate(0,512.3622)" id="path16756"/>
      <path inkscape:connector-curvature="0" id="rect16760" d="m 625,566.36218 h 4 v 5 h -4 z" style="opacity:1"/>
      <path inkscape:connector-curvature="0" id="rect16762" d="m 630,569.36218 h 2 v 1 h -2 z" style="opacity:1"/>
      <path inkscape:connector-curvature="0" id="rect16764" d="m 622,569.36218 h 2 v 1 h -2 z" style="opacity:1"/>
      <path inkscape:connector-curvature="0" id="path16766" d="M 635,56.5 A 1.5,1.5 0 0 1 633.5,58 1.5,1.5 0 0 1 632,56.5 1.5,1.5 0 0 1 633.5,55 1.5,1.5 0 0 1 635,56.5 Z" style="opacity:1" transform="matrix(1,0,0,1.010417,-0.5000034,512.8205)"/>
      <path inkscape:connector-curvature="0" id="path16770" d="M 635,56.5 A 1.5,1.5 0 0 1 633.5,58 1.5,1.5 0 0 1 632,56.5 1.5,1.5 0 0 1 633.5,55 1.5,1.5 0 0 1 635,56.5 Z" style="opacity:1" transform="matrix(1,0,0,1.010417,-12.5,512.7893)"/>
    </g>
    </svg>
