<?xml version='1.0' encoding='UTF-8'?>
<!-- Created with Inkscape (http://www.inkscape.org/) and export_objects.py -->
<svg xmlns:cc="http://creativecommons.org/ns#" xmlns:dc="http://purl.org/dc/elements/1.1/" xmlns:inkscape="http://www.inkscape.org/namespaces/inkscape" xmlns:rdf="http://www.w3.org/1999/02/22-rdf-syntax-ns#" xmlns:sodipodi="http://sodipodi.sourceforge.net/DTD/sodipodi-0.dtd" xmlns:xlink="http://www.w3.org/1999/xlink" xmlns="http://www.w3.org/2000/svg" version="1.1" id="svg1" width="16" height="16" viewBox="0 0 16 16" sodipodi:docname="node-segment-curve-symbolic.svg">
<sodipodi:namedview objecttolerance="10" gridtolerance="10" guidetolerance="10" id="namedview" showgrid="true" inkscape:zoom="0.6002936" inkscape:cx="732.67439" inkscape:cy="-567.94603" inkscape:window-width="1920" inkscape:window-height="1016" inkscape:window-x="0" inkscape:window-y="27" inkscape:window-maximized="1" inkscape:current-layer="layer1">
    <inkscape:grid type="xygrid" id="grid"/>
  </sodipodi:namedview>
  <g transform="translate(-679,-558.36218)" inkscape:label="00205" id="node-segment-curve">
      <path inkscape:connector-curvature="0" id="rect10681" d="m 679,558.36218 h 16 v 16 h -16 z" style="opacity:0;fill:none"/>
      <path style="opacity:1" d="m 692.5937,560.4687 c -3.5911,0 -6.4872,0.9954 -8.4687,2.9375 -1.9815,1.9422 -3,4.8116 -3,8.4063 a 0.5000501,0.5000501 0 1 0 1,0 c 0,-3.4053 0.9311,-5.966 2.6875,-7.6875 1.7563,-1.7215 4.3724,-2.6563 7.7812,-2.6563 a 0.5000501,0.5000501 0 1 0 0,-1 z" id="path10679" inkscape:connector-curvature="0"/>
      <use transform="matrix(1,0,0,0.8000004,236,113.8722)" x="0" y="0" id="use5745" width="1250" height="1250" xlink:href="#rect4374"/>
      <use transform="matrix(1,0,0,0.7999999,246,103.8725)" x="0" y="0" id="use5747" width="1250" height="1250" xlink:href="#rect4374"/>
    </g>
    </svg>
