<?xml version='1.0' encoding='UTF-8'?>
<!-- Created with Inkscape (http://www.inkscape.org/) and export_objects.py -->
<svg xmlns:cc="http://creativecommons.org/ns#" xmlns:dc="http://purl.org/dc/elements/1.1/" xmlns:inkscape="http://www.inkscape.org/namespaces/inkscape" xmlns:rdf="http://www.w3.org/1999/02/22-rdf-syntax-ns#" xmlns:sodipodi="http://sodipodi.sourceforge.net/DTD/sodipodi-0.dtd" xmlns:xlink="http://www.w3.org/1999/xlink" xmlns="http://www.w3.org/2000/svg" version="1.1" id="svg1" width="16" height="16" viewBox="0 0 16 16" sodipodi:docname="object-tweak-rotate-symbolic.svg">
<sodipodi:namedview objecttolerance="10" gridtolerance="10" guidetolerance="10" id="namedview" showgrid="true" inkscape:zoom="0.6002936" inkscape:cx="732.67439" inkscape:cy="-567.94603" inkscape:window-width="1920" inkscape:window-height="1016" inkscape:window-x="0" inkscape:window-y="27" inkscape:window-maximized="1" inkscape:current-layer="layer1">
    <inkscape:grid type="xygrid" id="grid"/>
  </sodipodi:namedview>
  <g transform="matrix(1.206069,0,0,1.043228,-449.35233,-141.9747)" inkscape:label="00118" style="fill:url(#linearGradient19282)" id="object-tweak-rotate">
      <path inkscape:connector-curvature="0" id="rect4073" d="m 372.57599,136.09171 h 13.26624 v 15.33701 h -13.26624 z" style="opacity:0;fill:none"/>
      <g id="g4075" transform="matrix(0.8291402,0,0,0.9585631,64.23459,5.309395)">
        <use height="1250" width="1250" id="use5086-1-3" inkscape:tiled-clone-of="#path5011" y="0" x="0" transform="rotate(6.891451,378.6993,212.0572)" xlink:href="#rect5405-3"/>
        <use height="1250" width="1250" id="use5088-9-5" transform="rotate(6.742276,354.4789,240.2747)" inkscape:tiled-clone-of="#path5011" y="0" x="0" xlink:href="#rect5405-3"/>
        <use height="1250" width="1250" id="use5090-9-7" transform="rotate(13.88251,355.3094,190.0243)" inkscape:tiled-clone-of="#path5011" y="0" x="0" xlink:href="#rect5405-3"/>
        <use height="1250" width="1250" id="use5092-7-7" transform="rotate(8.166722,375.7447,159.1597)" inkscape:tiled-clone-of="#path5011" y="0" x="0" xlink:href="#rect5405-3"/>
        <use height="1250" width="1250" id="use5094-1-2" transform="translate(11.81518)" inkscape:tiled-clone-of="#path5011" y="0" x="0" xlink:href="#rect5405-3"/>
        <use height="1250" width="1250" id="use5096-08-7" transform="rotate(17.82176,354.9598,141.5001)" inkscape:tiled-clone-of="#path5011" y="0" x="0" xlink:href="#rect5405-3"/>
        <use height="1250" width="1250" id="use5098-0-4" transform="rotate(8.378837,312.2742,143.0133)" inkscape:tiled-clone-of="#path5011" y="0" x="0" xlink:href="#rect5405-3"/>
        <use height="1250" width="1250" id="use5100-2-4" transform="rotate(15.2684,377.2218,160.51)" inkscape:tiled-clone-of="#path5011" y="0" x="0" xlink:href="#rect5405-3"/>
        <use height="1250" width="1250" id="use5103-7-0" transform="rotate(9.387622,355.833,139.986)" inkscape:tiled-clone-of="#path5011" y="0" x="0" xlink:href="#rect5405-3"/>
        <use height="1250" width="1250" id="use5106-2-2" transform="rotate(44.87149,372.0792,143.563)" inkscape:tiled-clone-of="#path5011" y="0" x="0" xlink:href="#rect5405-3"/>
        <use height="1250" width="1250" id="use5108-6-5" transform="rotate(42.22786,363.9853,146.8381)" inkscape:tiled-clone-of="#path5011" y="0" x="0" xlink:href="#rect5405-3"/>
        <use height="1250" width="1250" id="use5110-65-0" transform="rotate(63.21644,374.7624,144.7858)" inkscape:tiled-clone-of="#path5011" y="0" x="0" xlink:href="#rect5405-3"/>
        <use height="1250" width="1250" id="use5112-8-3" transform="rotate(41.22188,374.6744,151.767)" inkscape:tiled-clone-of="#path5011" y="0" x="0" xlink:href="#rect5405-3"/>
        <use height="1250" width="1250" id="use5114-5-8" transform="rotate(65.03753,370.9967,143.8163)" inkscape:tiled-clone-of="#path5011" y="0" x="0" xlink:href="#rect5405-3"/>
        <use height="1250" width="1250" id="use5116-6-2" transform="rotate(59.91134,369.3427,148.139)" inkscape:tiled-clone-of="#path5011" y="0" x="0" xlink:href="#rect5405-3"/>
        <use height="1250" width="1250" id="use5118-0-4" transform="rotate(88.2,374.0981,144.5479)" inkscape:tiled-clone-of="#path5011" y="0" x="0" xlink:href="#rect5405-3"/>
        <use height="1250" width="1250" id="use5120-1-8" transform="rotate(60.38546,373.4959,149.115)" inkscape:tiled-clone-of="#path5011" y="0" x="0" xlink:href="#rect5405-3"/>
        <use height="1250" width="1250" id="use5122-0-2" transform="rotate(38.71798,365.7743,155.6236)" inkscape:tiled-clone-of="#path5011" y="0" x="0" xlink:href="#rect5405-3"/>
        <use height="1250" width="1250" id="use5124-4-5" transform="rotate(5.269124,247.1145,240.8168)" inkscape:tiled-clone-of="#path5011" y="0" x="0" xlink:href="#rect5405-3"/>
        <use x="0" y="0" inkscape:tiled-clone-of="#path5011" transform="rotate(5.910683,292.2152,257.4433)" id="use5126-7-1" width="1250" height="1250" xlink:href="#rect5405-3"/>
        <use x="0" y="0" inkscape:tiled-clone-of="#path5011" transform="translate(0,12.10946)" id="use5128-0-6" width="1250" height="1250" xlink:href="#rect5405-3"/>
        <use x="0" y="0" inkscape:tiled-clone-of="#path5011" transform="rotate(6.371765,266.9682,171.0607)" id="use5130-7-6" width="1250" height="1250" xlink:href="#rect5405-3"/>
        <use x="0" y="0" inkscape:tiled-clone-of="#path5011" transform="rotate(12.64041,322.556,171.1961)" id="use5132-5-6" width="1250" height="1250" xlink:href="#rect5405-3"/>
        <use x="0" y="0" inkscape:tiled-clone-of="#path5011" transform="translate(11.81518,12.10946)" id="use5134-1-1" width="1250" height="1250" xlink:href="#rect5405-3"/>
        <path inkscape:connector-curvature="0" id="rect5405-3" d="m 373.7597,136.95441 h 1.25795 v 3.03604 h -1.25795 z"/>
      </g>
    </g>
    </svg>
