<?xml version='1.0' encoding='UTF-8'?>
<!-- Created with Inkscape (http://www.inkscape.org/) and export_objects.py -->
<svg xmlns:cc="http://creativecommons.org/ns#" xmlns:dc="http://purl.org/dc/elements/1.1/" xmlns:inkscape="http://www.inkscape.org/namespaces/inkscape" xmlns:rdf="http://www.w3.org/1999/02/22-rdf-syntax-ns#" xmlns:sodipodi="http://sodipodi.sourceforge.net/DTD/sodipodi-0.dtd" xmlns:xlink="http://www.w3.org/1999/xlink" xmlns="http://www.w3.org/2000/svg" version="1.1" id="svg1" width="16" height="16" viewBox="0 0 16 16" sodipodi:docname="object-visible-symbolic.svg">
<sodipodi:namedview objecttolerance="10" gridtolerance="10" guidetolerance="10" id="namedview" showgrid="true" inkscape:zoom="0.6002936" inkscape:cx="732.67439" inkscape:cy="-567.94603" inkscape:window-width="1920" inkscape:window-height="1016" inkscape:window-x="0" inkscape:window-y="27" inkscape:window-maximized="1" inkscape:current-layer="layer1">
    <inkscape:grid type="xygrid" id="grid"/>
  </sodipodi:namedview>
  <g transform="matrix(1,0,0,0.969277,-165,-931.33457)" inkscape:label="00257" id="object-visible">
      <path inkscape:connector-curvature="0" id="rect11899" d="m 165,961.36218 h 16 v 16 h -16 z" style="opacity:0;fill:none"/>
      <path style="opacity:1" d="m 173,966.3622 c -1.6569,0 -3,1.3431 -3,3 0,1.6568 1.3431,3 3,3 1.6568,0 3,-1.3432 3,-3 0,-1.6569 -1.3432,-3 -3,-3 z m -0.4931,0.8256 c 0.3741,0 0.6831,0.3108 0.6831,0.6979 0,0.3872 -0.309,0.7128 -0.6831,0.7128 -0.3741,0 -0.683,-0.3256 -0.683,-0.7128 0,-0.3871 0.3089,-0.6979 0.683,-0.6979 z" id="path11920" inkscape:connector-curvature="0"/>
      <path style="opacity:1" d="m 173,963.3622 c -4.4183,0 -8,6 -8,6 0,0 3.5817,6 8,6 4.4183,0 8,-6 8,-6 0,0 -3.5817,-6 -8,-6 z m 0,2 c 3.866,0 6,4 6,4 0,0 -2.134,4 -6,4 -3.866,0 -6,-4 -6,-4 0,0 2.134,-4 6,-4 z" id="path11928" inkscape:connector-curvature="0"/>
      <path inkscape:connector-curvature="0" id="path8543-5" d="m 165.99414,965.79492 a 0.50005,0.50005 0 0 0 -0.34766,0.85742 l 1,1 a 0.50005,0.50005 0 1 0 0.70704,-0.70703 l -1,-1 a 0.50005,0.50005 0 0 0 -0.35938,-0.15039 z" style="opacity:1;stroke-linecap:round"/>
      <path inkscape:connector-curvature="0" id="path8545-3" d="m 179.99023,965.79492 a 0.50005,0.50005 0 0 0 -0.34375,0.15039 l -1,1 a 0.50005,0.50005 0 1 0 0.70704,0.70703 l 1,-1 a 0.50005,0.50005 0 0 0 -0.36329,-0.85742 z" style="opacity:1;stroke-linecap:round"/>
      <path inkscape:connector-curvature="0" id="path8547-1" d="m 166.99414,963.79492 a 0.50005,0.50005 0 0 0 -0.34766,0.85742 l 2,2 a 0.50005,0.50005 0 1 0 0.70704,-0.70703 l -2,-2 a 0.50005,0.50005 0 0 0 -0.35938,-0.15039 z" style="opacity:1;stroke-linecap:round"/>
      <path inkscape:connector-curvature="0" id="path8572-7" d="m 168.97656,961.98047 a 0.50005,0.50005 0 0 0 -0.41015,0.75781 l 1.375,2.375 a 0.50098776,0.50098776 0 1 0 0.86718,-0.50195 l -1.375,-2.375 a 0.50005,0.50005 0 0 0 -0.45703,-0.25586 z" style="opacity:1;stroke-linecap:round"/>
      <path inkscape:connector-curvature="0" id="path8574-8" d="m 171.72852,960.85547 a 0.50005,0.50005 0 0 0 -0.4668,0.61914 l 0.6875,3 a 0.50102871,0.50102871 0 1 0 0.97656,-0.22461 l -0.6875,-3 a 0.50005,0.50005 0 0 0 -0.50976,-0.39453 z" style="opacity:1;stroke-linecap:round"/>
      <path inkscape:connector-curvature="0" id="path8578-8" d="m 178.97852,963.79492 a 0.50005,0.50005 0 0 0 -0.37305,0.19727 l -1.5625,2 a 0.50028083,0.50028083 0 1 0 0.78906,0.61523 l 1.5625,-2 a 0.50005,0.50005 0 0 0 -0.41601,-0.8125 z" style="opacity:1;stroke-linecap:round"/>
      <path inkscape:connector-curvature="0" id="path8580-4" d="m 177.36523,962.20312 a 0.50005,0.50005 0 0 0 -0.39648,0.24219 l -1.33203,2.1543 a 0.50029718,0.50029718 0 1 0 0.85156,0.52539 l 1.33008,-2.1543 a 0.50005,0.50005 0 0 0 -0.45313,-0.76758 z" style="opacity:1;stroke-linecap:round"/>
      <path inkscape:connector-curvature="0" id="path8582-8" d="m 174.84961,960.85547 a 0.50005,0.50005 0 0 0 -0.46484,0.36914 l -0.86524,3 a 0.50005,0.50005 0 1 0 0.96094,0.27539 l 0.86523,-3 a 0.50005,0.50005 0 0 0 -0.49609,-0.64453 z" style="opacity:1;stroke-linecap:round"/>
    </g>
    </svg>
