<?xml version='1.0' encoding='UTF-8'?>
<!-- Created with Inkscape (http://www.inkscape.org/) and export_objects.py -->
<svg xmlns:cc="http://creativecommons.org/ns#" xmlns:dc="http://purl.org/dc/elements/1.1/" xmlns:inkscape="http://www.inkscape.org/namespaces/inkscape" xmlns:rdf="http://www.w3.org/1999/02/22-rdf-syntax-ns#" xmlns:sodipodi="http://sodipodi.sourceforge.net/DTD/sodipodi-0.dtd" xmlns:xlink="http://www.w3.org/1999/xlink" xmlns="http://www.w3.org/2000/svg" version="1.1" id="svg1" width="16" height="16" viewBox="0 0 16 16" sodipodi:docname="object-tweak-blur-symbolic.svg">
<sodipodi:namedview objecttolerance="10" gridtolerance="10" guidetolerance="10" id="namedview" showgrid="true" inkscape:zoom="0.6002936" inkscape:cx="732.67439" inkscape:cy="-567.94603" inkscape:window-width="1920" inkscape:window-height="1016" inkscape:window-x="0" inkscape:window-y="27" inkscape:window-maximized="1" inkscape:current-layer="layer1">
    <inkscape:grid type="xygrid" id="grid"/>
  </sodipodi:namedview>
  <g transform="translate(-255,-807.36218)" id="object-tweak-blur" inkscape:label="00120">
      <path inkscape:connector-curvature="0" id="rect18300" d="m 255,807.36218 h 16 v 16 h -16 z" style="opacity:0;fill:none"/>
      <path inkscape:connector-curvature="0" id="path7657" d="m 376.20595,137.9821 a 1.111868,1.111868 0 0 1 -1.11186,1.11187 1.111868,1.111868 0 0 1 -1.11187,-1.11187 1.111868,1.111868 0 0 1 1.11187,-1.11187 1.111868,1.111868 0 0 1 1.11186,1.11187 z" style="opacity:1" transform="matrix(1.20571,0,0,1.20571,-195.2234,642.9926)"/>
      <path inkscape:connector-curvature="0" id="use7660" d="m 376.20595,137.9821 a 1.111868,1.111868 0 0 1 -1.11186,1.11187 1.111868,1.111868 0 0 1 -1.11187,-1.11187 1.111868,1.111868 0 0 1 1.11187,-1.11187 1.111868,1.111868 0 0 1 1.11186,1.11187 z" style="opacity:1" transform="matrix(0.9359693,0,0,0.9359693,-85.18357,680.2121)"/>
      <path inkscape:connector-curvature="0" id="use7662" d="m 376.20595,137.9821 a 1.111868,1.111868 0 0 1 -1.11186,1.11187 1.111868,1.111868 0 0 1 -1.11187,-1.11187 1.111868,1.111868 0 0 1 1.11187,-1.11187 1.111868,1.111868 0 0 1 1.11186,1.11187 z" style="opacity:1" transform="matrix(0.9556962,0,0,0.9556962,-89.62949,680.5174)"/>
      <path inkscape:connector-curvature="0" id="use7664" d="m 376.20595,137.9821 a 1.111868,1.111868 0 0 1 -1.11186,1.11187 1.111868,1.111868 0 0 1 -1.11187,-1.11187 1.111868,1.111868 0 0 1 1.11187,-1.11187 1.111868,1.111868 0 0 1 1.11186,1.11187 z" style="opacity:1" transform="matrix(1.088184,0,0,1.088184,-139.325,665.2638)"/>
      <path inkscape:connector-curvature="0" id="use7666" d="m 376.20595,137.9821 a 1.111868,1.111868 0 0 1 -1.11186,1.11187 1.111868,1.111868 0 0 1 -1.11187,-1.11187 1.111868,1.111868 0 0 1 1.11187,-1.11187 1.111868,1.111868 0 0 1 1.11186,1.11187 z" style="opacity:1" transform="matrix(0.8516448,0,0,0.8516448,-59.46192,691.8473)"/>
      <path inkscape:connector-curvature="0" id="use7668" d="m 376.20595,137.9821 a 1.111868,1.111868 0 0 1 -1.11186,1.11187 1.111868,1.111868 0 0 1 -1.11187,-1.11187 1.111868,1.111868 0 0 1 1.11187,-1.11187 1.111868,1.111868 0 0 1 1.11186,1.11187 z" style="opacity:1" transform="matrix(1.20571,0,0,1.20571,-183.4083,642.9926)"/>
      <path inkscape:connector-curvature="0" id="use7670" d="m 376.20595,137.9821 a 1.111868,1.111868 0 0 1 -1.11186,1.11187 1.111868,1.111868 0 0 1 -1.11187,-1.11187 1.111868,1.111868 0 0 1 1.11187,-1.11187 1.111868,1.111868 0 0 1 1.11186,1.11187 z" style="opacity:1" transform="matrix(1.093412,0,0,1.093412,-153.1011,664.5425)"/>
      <path inkscape:connector-curvature="0" id="use7672" d="m 376.20595,137.9821 a 1.111868,1.111868 0 0 1 -1.11186,1.11187 1.111868,1.111868 0 0 1 -1.11187,-1.11187 1.111868,1.111868 0 0 1 1.11187,-1.11187 1.111868,1.111868 0 0 1 1.11186,1.11187 z" style="opacity:1" transform="matrix(0.9320213,0,0,0.9320213,-92.56455,689.8388)"/>
      <path inkscape:connector-curvature="0" id="use7674" d="m 376.20595,137.9821 a 1.111868,1.111868 0 0 1 -1.11186,1.11187 1.111868,1.111868 0 0 1 -1.11187,-1.11187 1.111868,1.111868 0 0 1 1.11187,-1.11187 1.111868,1.111868 0 0 1 1.11186,1.11187 z" style="opacity:1" transform="matrix(1.111722,0,0,1.111722,-154.0615,655.9613)"/>
      <path inkscape:connector-curvature="0" id="use7676" d="m 376.20595,137.9821 a 1.111868,1.111868 0 0 1 -1.11186,1.11187 1.111868,1.111868 0 0 1 -1.11187,-1.11187 1.111868,1.111868 0 0 1 1.11187,-1.11187 1.111868,1.111868 0 0 1 1.11186,1.11187 z" style="opacity:1" transform="matrix(0.9569822,0,0,0.9569822,-101.927,680.34)"/>
      <path inkscape:connector-curvature="0" id="use7696" d="m 376.20595,137.9821 a 1.111868,1.111868 0 0 1 -1.11186,1.11187 1.111868,1.111868 0 0 1 -1.11187,-1.11187 1.111868,1.111868 0 0 1 1.11187,-1.11187 1.111868,1.111868 0 0 1 1.11186,1.11187 z" style="opacity:1" transform="matrix(0.994998,0,0,0.994998,-107.3253,684.1765)"/>
      <path inkscape:connector-curvature="0" id="use7698" d="m 376.20595,137.9821 a 1.111868,1.111868 0 0 1 -1.11186,1.11187 1.111868,1.111868 0 0 1 -1.11187,-1.11187 1.111868,1.111868 0 0 1 1.11187,-1.11187 1.111868,1.111868 0 0 1 1.11186,1.11187 z" style="opacity:1" transform="matrix(0.985232,0,0,0.985232,-100.7082,682.4968)"/>
      <path inkscape:connector-curvature="0" id="use7700" d="m 376.20595,137.9821 a 1.111868,1.111868 0 0 1 -1.11186,1.11187 1.111868,1.111868 0 0 1 -1.11187,-1.11187 1.111868,1.111868 0 0 1 1.11187,-1.11187 1.111868,1.111868 0 0 1 1.11186,1.11187 z" style="opacity:1" transform="matrix(1.20571,0,0,1.20571,-195.2234,655.1021)"/>
      <path inkscape:connector-curvature="0" id="use7702" d="m 376.20595,137.9821 a 1.111868,1.111868 0 0 1 -1.11186,1.11187 1.111868,1.111868 0 0 1 -1.11187,-1.11187 1.111868,1.111868 0 0 1 1.11187,-1.11187 1.111868,1.111868 0 0 1 1.11186,1.11187 z" style="opacity:1" transform="matrix(0.9404333,0,0,0.9404333,-92.76607,691.7054)"/>
      <path inkscape:connector-curvature="0" id="use7704" d="m 376.20595,137.9821 a 1.111868,1.111868 0 0 1 -1.11186,1.11187 1.111868,1.111868 0 0 1 -1.11187,-1.11187 1.111868,1.111868 0 0 1 1.11187,-1.11187 1.111868,1.111868 0 0 1 1.11186,1.11187 z" style="opacity:1" transform="matrix(1.121575,0,0,1.121575,-157.7571,666.7113)"/>
      <path inkscape:connector-curvature="0" id="use7706" d="m 376.20595,137.9821 a 1.111868,1.111868 0 0 1 -1.11186,1.11187 1.111868,1.111868 0 0 1 -1.11187,-1.11187 1.111868,1.111868 0 0 1 1.11187,-1.11187 1.111868,1.111868 0 0 1 1.11186,1.11187 z" style="opacity:1" transform="matrix(1.20571,0,0,1.20571,-183.4083,655.1021)"/>
      <path inkscape:connector-curvature="0" id="path18244" d="m 250,293 a 1,1 0 0 1 -1,1 1,1 0 0 1 -1,-1 1,1 0 0 1 1,-1 1,1 0 0 1 1,1 z" style="opacity:1" transform="matrix(0,0,0,0,257.9388,809.1229)"/>
      <path inkscape:connector-curvature="0" id="path18274" d="m 260.07299,811.01103 c -0.81919,0 -1.48615,0.66695 -1.48615,1.48614 0,0.81919 0.66696,1.48614 1.48615,1.48614 0.81917,0 1.48614,-0.66697 1.48614,-1.48614 0,-0.81918 -0.66697,-1.48613 -1.48614,-1.48614 z m 0,0.32974 c 0.64096,0 1.15641,0.51543 1.15641,1.1564 0,0.64097 -0.51545,1.1564 -1.15641,1.15641 -0.64097,0 -1.15641,-0.51544 -1.15641,-1.15641 0,-0.64097 0.51544,-1.15641 1.15641,-1.1564 z" style="opacity:0.5;stroke-linecap:butt"/>
      <path inkscape:connector-curvature="0" id="path18276" d="m 376.20595,137.9821 a 1.111868,1.111868 0 0 1 -1.11186,1.11187 1.111868,1.111868 0 0 1 -1.11187,-1.11187 1.111868,1.111868 0 0 1 1.11187,-1.11187 1.111868,1.111868 0 0 1 1.11186,1.11187 z" style="opacity:0.5" transform="matrix(0.7868642,0,0,0.7868642,-32.12087,703.9236)"/>
      <path inkscape:connector-curvature="0" id="path18278" d="m 265.95079,810.96683 c -0.81919,0 -1.48615,0.66695 -1.48615,1.48614 0,0.81919 0.66696,1.48614 1.48615,1.48614 0.81917,0 1.48614,-0.66697 1.48614,-1.48614 0,-0.81918 -0.66697,-1.48613 -1.48614,-1.48614 z m 0,0.32974 c 0.64096,0 1.15641,0.51543 1.15641,1.1564 0,0.64097 -0.51545,1.1564 -1.15641,1.15641 -0.64097,0 -1.15641,-0.51544 -1.15641,-1.15641 0,-0.64097 0.51544,-1.15641 1.15641,-1.1564 z" style="opacity:0.5;stroke-linecap:butt"/>
      <path inkscape:connector-curvature="0" id="path18280" d="m 376.20595,137.9821 a 1.111868,1.111868 0 0 1 -1.11186,1.11187 1.111868,1.111868 0 0 1 -1.11187,-1.11187 1.111868,1.111868 0 0 1 1.11187,-1.11187 1.111868,1.111868 0 0 1 1.11186,1.11187 z" style="opacity:0.5" transform="matrix(0.7641009,0,0,0.7641009,-26.53634,710.0645)"/>
      <path inkscape:connector-curvature="0" id="path18282" d="m 263.02687,814.10754 c -0.76599,0 -1.38965,0.62365 -1.38965,1.38965 0,0.766 0.62366,1.38965 1.38965,1.38965 0.76599,0 1.38966,-0.62366 1.38966,-1.38965 0,-0.76599 -0.62367,-1.38964 -1.38966,-1.38965 z m 0,0.30834 c 0.59936,0 1.08133,0.48196 1.08133,1.08131 0,0.59935 -0.48197,1.08132 -1.08133,1.08133 -0.59935,0 -1.08132,-0.48198 -1.08132,-1.08133 0,-0.59935 0.48197,-1.08133 1.08132,-1.08131 z" style="opacity:0.5;stroke-linecap:butt"/>
      <path inkscape:connector-curvature="0" id="path18284" d="m 376.20595,137.9821 a 1.111868,1.111868 0 0 1 -1.11186,1.11187 1.111868,1.111868 0 0 1 -1.11187,-1.11187 1.111868,1.111868 0 0 1 1.11187,-1.11187 1.111868,1.111868 0 0 1 1.11186,1.11187 z" style="opacity:0.5" transform="matrix(0.7391118,0,0,0.7391118,-11.28526,713.4684)"/>
      <path inkscape:connector-curvature="0" id="path18286" d="m 260.07299,817.01103 c -0.81919,0 -1.48615,0.66695 -1.48615,1.48614 0,0.81919 0.66696,1.48614 1.48615,1.48614 0.81917,0 1.48614,-0.66697 1.48614,-1.48614 0,-0.81918 -0.66697,-1.48613 -1.48614,-1.48614 z m 0,0.32974 c 0.64096,0 1.15641,0.51543 1.15641,1.1564 0,0.64097 -0.51545,1.1564 -1.15641,1.15641 -0.64097,0 -1.15641,-0.51544 -1.15641,-1.15641 0,-0.64097 0.51544,-1.15641 1.15641,-1.1564 z" style="opacity:0.5;stroke-linecap:butt"/>
      <path inkscape:connector-curvature="0" id="path18288" d="m 376.20595,137.9821 a 1.111868,1.111868 0 0 1 -1.11186,1.11187 1.111868,1.111868 0 0 1 -1.11187,-1.11187 1.111868,1.111868 0 0 1 1.11187,-1.11187 1.111868,1.111868 0 0 1 1.11186,1.11187 z" style="opacity:0.5" transform="matrix(0.711897,0,0,0.711897,-4.00112,720.2677)"/>
      <path inkscape:connector-curvature="0" id="path18290" d="m 265.95079,816.96683 c -0.81919,0 -1.48615,0.66695 -1.48615,1.48614 0,0.81919 0.66696,1.48614 1.48615,1.48614 0.81917,0 1.48614,-0.66697 1.48614,-1.48614 0,-0.81918 -0.66697,-1.48613 -1.48614,-1.48614 z m 0,0.32974 c 0.64096,0 1.15641,0.51543 1.15641,1.1564 0,0.64097 -0.51545,1.1564 -1.15641,1.15641 -0.64097,0 -1.15641,-0.51544 -1.15641,-1.15641 0,-0.64097 0.51544,-1.15641 1.15641,-1.1564 z" style="opacity:0.5;stroke-linecap:butt"/>
      <path inkscape:connector-curvature="0" id="path18292" d="m 251,296.20309 a 0.1875,0.234375 0 0 1 -0.1875,0.23438 0.1875,0.234375 0 0 1 -0.1875,-0.23438 0.1875,0.234375 0 0 1 0.1875,-0.23437 0.1875,0.234375 0 0 1 0.1875,0.23437 z" style="opacity:1" transform="matrix(3.241379,0,0,2.666667,-552.8896,22.62291)"/>
      <path inkscape:connector-curvature="0" id="path18294" d="m 251,296.20309 a 0.1875,0.234375 0 0 1 -0.1875,0.23438 0.1875,0.234375 0 0 1 -0.1875,-0.23438 0.1875,0.234375 0 0 1 0.1875,-0.23437 0.1875,0.234375 0 0 1 0.1875,0.23437 z" style="opacity:1" transform="matrix(3.241379,0,0,2.666667,-552.9521,28.59166)"/>
      <path inkscape:connector-curvature="0" id="path18296" d="m 251,296.20309 a 0.1875,0.234375 0 0 1 -0.1875,0.23438 0.1875,0.234375 0 0 1 -0.1875,-0.23438 0.1875,0.234375 0 0 1 0.1875,-0.23437 0.1875,0.234375 0 0 1 0.1875,0.23437 z" style="opacity:1" transform="matrix(3.241379,0,0,2.666667,-547.0459,22.56041)"/>
      <path inkscape:connector-curvature="0" id="path18298" d="m 251,296.20309 a 0.1875,0.234375 0 0 1 -0.1875,0.23438 0.1875,0.234375 0 0 1 -0.1875,-0.23438 0.1875,0.234375 0 0 1 0.1875,-0.23437 0.1875,0.234375 0 0 1 0.1875,0.23437 z" style="opacity:1" transform="matrix(3.241379,0,0,2.666667,-547.0459,28.62291)"/>
    </g>
    </svg>
