<?xml version='1.0' encoding='UTF-8'?>
<!-- Created with Inkscape (http://www.inkscape.org/) and export_objects.py -->
<svg xmlns:cc="http://creativecommons.org/ns#" xmlns:dc="http://purl.org/dc/elements/1.1/" xmlns:inkscape="http://www.inkscape.org/namespaces/inkscape" xmlns:rdf="http://www.w3.org/1999/02/22-rdf-syntax-ns#" xmlns:sodipodi="http://sodipodi.sourceforge.net/DTD/sodipodi-0.dtd" xmlns:xlink="http://www.w3.org/1999/xlink" xmlns="http://www.w3.org/2000/svg" version="1.1" id="svg1" width="16" height="16" viewBox="0 0 16 16" sodipodi:docname="object-ungroup-symbolic.svg">
<sodipodi:namedview objecttolerance="10" gridtolerance="10" guidetolerance="10" id="namedview" showgrid="true" inkscape:zoom="0.6002936" inkscape:cx="732.67439" inkscape:cy="-567.94603" inkscape:window-width="1920" inkscape:window-height="1016" inkscape:window-x="0" inkscape:window-y="27" inkscape:window-maximized="1" inkscape:current-layer="layer1">
    <inkscape:grid type="xygrid" id="grid"/>
  </sodipodi:namedview>
  <g transform="translate(-135,-607.36218)" inkscape:label="00059" id="object-ungroup">
      <path inkscape:connector-curvature="0" id="rect12011" d="m 135,607.36218 h 16 v 16 h -16 z" style="opacity:0;fill:none"/>
      <path inkscape:connector-curvature="0" id="rect12013" d="m 136,608.36218 h 2 v 2 h -2 z" style="opacity:1"/>
      <path inkscape:connector-curvature="0" id="rect12015" d="m 148,610.36218 h 2 v 2 h -2 z" style="opacity:1"/>
      <path inkscape:connector-curvature="0" id="rect12019" d="m 148,620.36218 h 2 v 2.00001 h -2 z" style="opacity:1"/>
      <path inkscape:connector-curvature="0" id="path12021" d="M 144,82.5 A 3.5,3.5 0 0 1 140.5,86 3.5,3.5 0 0 1 137,82.5 3.5,3.5 0 0 1 140.5,79 3.5,3.5 0 0 1 144,82.5 Z" style="opacity:1" transform="translate(0.5,531.3622)"/>
      <path inkscape:connector-curvature="0" id="path12023" d="m 145.9375,613.3622 c 0.0187,0.1667 0.0625,0.3282 0.0625,0.5 0,2.3135 -1.7539,4.1851 -4,4.4375 v 1.0625 h 6 v -6 z" style="opacity:1"/>
      <path inkscape:connector-curvature="0" id="rect12039" d="m 144,608.36218 h 2 v 2 h -2 z" style="opacity:1"/>
      <path inkscape:connector-curvature="0" id="rect12041" d="m 136,617.36218 h 2 v 2 h -2 z" style="opacity:1"/>
      <path inkscape:connector-curvature="0" id="rect12043" d="m 140,620.36218 h 2 v 2 h -2 z" style="opacity:1"/>
    </g>
    </svg>
