<?xml version="1.0" encoding="UTF-8" standalone="no"?>
<!-- Created with Inkscape (http://www.inkscape.org/) -->

<svg
   width="16"
   height="16"
   viewBox="0 0 16 16"
   version="1.1"
   id="svg1"
   inkscape:version="1.3-alpha (277bccb962, 2023-04-14, custom)"
   sodipodi:docname="object-pick-symbolic.svg"
   xmlns:inkscape="http://www.inkscape.org/namespaces/inkscape"
   xmlns:sodipodi="http://sodipodi.sourceforge.net/DTD/sodipodi-0.dtd"
   xmlns="http://www.w3.org/2000/svg"
   xmlns:svg="http://www.w3.org/2000/svg">
  <sodipodi:namedview
     id="namedview1"
     pagecolor="#ffffff"
     bordercolor="#000000"
     borderopacity="0.25"
     inkscape:showpageshadow="2"
     inkscape:pageopacity="0.0"
     inkscape:pagecheckerboard="0"
     inkscape:deskcolor="#d1d1d1"
     inkscape:document-units="px"
     inkscape:zoom="17.873345"
     showgrid="false"
     inkscape:cx="5.3711268"
     inkscape:cy="4.7556852"
     inkscape:current-layer="layer1">
    <inkscape:grid
       id="grid1"
       visible="false"
       spacingx="1"
       spacingy="1"
       originx="0"
       originy="0" />
  </sodipodi:namedview>
  <defs
     id="defs1" />
  <g
     inkscape:label="Layer 1"
     inkscape:groupmode="layer"
     id="layer1">
    <path
       id="path8"
       style="color:#000000;fill:#000000;stroke-linecap:round;stroke-linejoin:round;stroke-miterlimit:2.8;-inkscape-stroke:none;stroke:none"
       d="M 5.0234375 0.0625 L 4.5429688 1.8496094 L 5.5097656 2.109375 L 5.9882812 0.3203125 L 5.0234375 0.0625 z M 2.75 0.46484375 L 1.8828125 0.96484375 L 2.8085938 2.5683594 L 3.6738281 2.0683594 L 2.75 0.46484375 z M 7.7539062 1.8066406 L 6.1503906 2.7324219 L 6.6503906 3.5976562 L 8.2539062 2.671875 L 7.7539062 1.8066406 z M 0.40429688 2.7285156 L 0.14453125 3.6953125 L 1.9335938 4.1738281 L 2.1914062 3.2070312 L 0.40429688 2.7285156 z M 4.4179688 2.9492188 C 4.1961037 2.9544472 3.9719257 3.0128792 3.7675781 3.1308594 C 3.113666 3.5083958 2.8861354 4.3558535 3.2636719 5.0097656 L 5.9863281 9.7226562 L 5.4648438 9.421875 C 4.7329281 8.9992954 3.787818 9.2543911 3.3652344 9.9863281 C 2.9426623 10.718245 3.1957985 11.663353 3.9277344 12.085938 A 0.40003899 0.40003899 0 0 0 3.9394531 12.09375 C 6.1034915 13.241961 7.8098204 14.099485 8.9101562 14.673828 A 0.40003899 0.40003899 0 0 0 8.9160156 14.675781 C 9.3039209 14.870894 10.10828 15.273032 10.667969 15.861328 A 0.40003899 0.40003899 0 0 0 11.158203 15.931641 L 15.664062 13.330078 A 0.40003899 0.40003899 0 0 0 15.863281 12.966797 C 15.793521 11.427172 15.686051 9.4883489 14.953125 8.046875 A 0.40003899 0.40003899 0 0 0 14.941406 8.0292969 L 12.990234 4.6503906 C 12.612699 3.9964784 11.767195 3.7689479 11.113281 4.1464844 C 10.861237 4.292003 10.736132 4.5438654 10.621094 4.7910156 C 10.190109 4.4253454 9.6125546 4.2613169 9.0976562 4.5585938 C 8.8456104 4.7041125 8.720506 4.9559746 8.6054688 5.203125 C 8.1744939 4.83783 7.5967245 4.6735448 7.0820312 4.9707031 C 6.8881686 5.0826298 6.8192766 5.2895567 6.7050781 5.4667969 L 5.6464844 3.6347656 C 5.4577162 3.3078097 5.1513359 3.0874079 4.8105469 2.9960938 C 4.6827509 2.9618509 4.5510877 2.9460816 4.4179688 2.9492188 z M 4.4160156 3.7441406 C 4.4438393 3.7417392 4.4706188 3.7423552 4.4980469 3.7441406 C 4.6809012 3.756043 4.8513397 3.858859 4.953125 4.0351562 L 6.5800781 6.8496094 L 7.8808594 9.1035156 A 0.39999899 0.39999899 0 0 0 8.4257812 9.25 A 0.39999899 0.39999899 0 0 0 8.5722656 8.703125 L 7.2714844 6.4492188 C 7.1086277 6.1671429 7.2003463 5.8269188 7.4824219 5.6640625 C 7.7644976 5.501206 8.1066748 5.5929243 8.2695312 5.875 L 8.59375 6.4375 L 9.7324219 8.4082031 A 0.39999899 0.39999899 0 0 0 10.279297 8.5546875 A 0.39999899 0.39999899 0 0 0 10.425781 8.0097656 L 9.2871094 6.0371094 C 9.1242528 5.7550338 9.2159713 5.4148097 9.4980469 5.2519531 C 9.7801226 5.0890966 10.120347 5.1808151 10.283203 5.4628906 L 10.414062 5.6875 L 10.609375 6.0253906 L 11.583984 7.7148438 A 0.39999899 0.39999899 0 0 0 12.130859 7.8613281 A 0.39999899 0.39999899 0 0 0 12.277344 7.3144531 L 11.294922 5.6113281 C 11.14251 5.3319505 11.234085 5.0001348 11.511719 4.8398438 C 11.793793 4.6769874 12.135972 4.7687063 12.298828 5.0507812 L 14.238281 8.4101562 C 14.819294 9.5528531 14.971234 11.285406 15.044922 12.765625 L 10.966797 15.117188 C 10.333561 14.564108 9.5965782 14.12249 9.2753906 13.960938 C 8.1667156 13.382313 6.4729162 12.532259 4.328125 11.394531 C 3.9680761 11.186656 3.8487561 10.744831 4.0566406 10.384766 C 4.2645136 10.024718 4.7063485 9.9073518 5.0664062 10.115234 L 6.8789062 11.162109 A 0.40003899 0.40003899 0 0 0 7.4238281 10.615234 L 3.9570312 4.609375 C 3.7941747 4.3272994 3.8858929 3.9870752 4.1679688 3.8242188 C 4.2473025 3.7784155 4.3325447 3.7513448 4.4160156 3.7441406 z M 2.1445312 5.0449219 L 0.54296875 5.9707031 L 1.0429688 6.8359375 L 2.6445312 5.9101562 L 2.1445312 5.0449219 z " />
  </g>
</svg>
