<?xml version='1.0' encoding='UTF-8'?>
<!-- Created with Inkscape (http://www.inkscape.org/) and export_objects.py -->
<svg xmlns:cc="http://creativecommons.org/ns#" xmlns:dc="http://purl.org/dc/elements/1.1/" xmlns:inkscape="http://www.inkscape.org/namespaces/inkscape" xmlns:rdf="http://www.w3.org/1999/02/22-rdf-syntax-ns#" xmlns:sodipodi="http://sodipodi.sourceforge.net/DTD/sodipodi-0.dtd" xmlns:xlink="http://www.w3.org/1999/xlink" xmlns="http://www.w3.org/2000/svg" version="1.1" id="svg1" width="16" height="16" viewBox="0 0 16 16" sodipodi:docname="object-rotate-left-symbolic.svg">
<sodipodi:namedview objecttolerance="10" gridtolerance="10" guidetolerance="10" id="namedview" showgrid="true" inkscape:zoom="0.6002936" inkscape:cx="732.67439" inkscape:cy="-567.94603" inkscape:window-width="1920" inkscape:window-height="1016" inkscape:window-x="0" inkscape:window-y="27" inkscape:window-maximized="1" inkscape:current-layer="layer1">
    <inkscape:grid type="xygrid" id="grid"/>
  </sodipodi:namedview>
  <g transform="translate(-135,-727.36218)" inkscape:label="00065" id="object-rotate-left">
      <g id="g18423" transform="matrix(-1,0,0,1,286,20)">
        <path inkscape:connector-curvature="0" id="rect18425" d="m 135,707.36218 h 16 v 16 h -16 z" style="opacity:0;fill:none"/>
        <path inkscape:connector-curvature="0" id="path18427" d="m 147,717.3622 3,-3 h -6 z" style="opacity:1"/>
        <path style="opacity:1" d="m 141.5,195 c -0.1711,0 -0.3323,0.018 -0.5,0.031 v 2.0312 c 0.1668,-0.019 0.3282,-0.062 0.5,-0.062 2.4853,0 4.5,2.0148 4.5,4.5 0,0.1718 -0.044,0.3333 -0.062,0.5 h 2.0312 c 0.013,-0.1677 0.031,-0.3289 0.031,-0.5 0,-3.5898 -2.9101,-6.5 -6.5,-6.5 z" transform="translate(0,512.3622)" id="path18429" inkscape:connector-curvature="0"/>
        <path inkscape:connector-curvature="0" id="rect18431" d="m 135,195 h 5 v 10 h -5 z" style="opacity:1" transform="translate(0,512.3622)"/>
        <path inkscape:connector-curvature="0" id="rect18433" d="m 718.36218,-151 h 5 v 10 h -5 z" style="opacity:1" transform="rotate(90)"/>
      </g>
    </g>
    </svg>
