<?xml version="1.0" encoding="UTF-8" standalone="no"?>
<!-- Created with Inkscape (http://www.inkscape.org/) -->

<svg
   width="16"
   height="16"
   viewBox="0 0 16 16"
   version="1.1"
   id="svg689"
   xmlns="http://www.w3.org/2000/svg"
   xmlns:svg="http://www.w3.org/2000/svg">
  <defs
     id="defs686" />
  <path
     id="circle54"
     style="stroke-miterlimit:10"
     d="m 4.11398,0.033898 a 2,2 0 0 0 -0.08008,0.5 2,2 0 0 0 2,2 2,2 0 0 0 2,-2 2,2 0 0 0 -0.0664,-0.5 z m 8,0 a 2,2 0 0 0 -0.08008,0.5 2,2 0 0 0 2,2 2,2 0 0 0 2,-2 2,2 0 0 0 -0.0664,-0.5 z m -10.08008,1.5 a 2,2 0 0 0 -2,2 2,2 0 0 0 2,2 2,2 0 0 0 2,-2 2,2 0 0 0 -2,-2 z m 8,0 a 2,2 0 0 0 -2,2 2,2 0 0 0 2,2 2,2 0 0 0 2,-2 2,2 0 0 0 -2,-2 z m -4,3 a 2,2 0 0 0 -2,2 2,2 0 0 0 2,2 2,2 0 0 0 2,-2 2,2 0 0 0 -2,-2 z m 8,0 a 2,2 0 0 0 -2,2 2,2 0 0 0 2,2 2,2 0 0 0 2,-2 2,2 0 0 0 -2,-2 z m -12,3 a 2,2 0 0 0 -2,2 2,2 0 0 0 2,2 2,2 0 0 0 2,-2 2,2 0 0 0 -2,-2 z m 8,0 a 2,2 0 0 0 -2,2 2,2 0 0 0 2,2 2,2 0 0 0 2,-2 2,2 0 0 0 -2,-2 z m -4,3 a 2,2 0 0 0 -2,2 2,2 0 0 0 2,2 2,2 0 0 0 2,-2 2,2 0 0 0 -2,-2 z m 8,0 a 2,2 0 0 0 -2,2 2,2 0 0 0 2,2 2,2 0 0 0 2,-2 2,2 0 0 0 -2,-2 z m -12,3 a 2,2 0 0 0 -2,2 2,2 0 0 0 0.0801,0.5 h 3.83984 a 2,2 0 0 0 0.08006,-0.5 2,2 0 0 0 -2,-2 z m 8,0 a 2,2 0 0 0 -2,2 2,2 0 0 0 0.0801,0.5 h 3.83984 a 2,2 0 0 0 0.08006,-0.5 2,2 0 0 0 -2,-2 z" />
</svg>
