<?xml version="1.0" encoding="UTF-8" standalone="no"?>
<!-- Created with Inkscape (http://www.inkscape.org/) -->

<svg
   width="16"
   height="16"
   viewBox="0 0 16 16"
   version="1.1"
   id="svg1"
   inkscape:version="1.4-dev (e8380d9036, 2023-07-04, custom)"
   sodipodi:docname="panel-left-symbolic.svg"
   xmlns:inkscape="http://www.inkscape.org/namespaces/inkscape"
   xmlns:sodipodi="http://sodipodi.sourceforge.net/DTD/sodipodi-0.dtd"
   xmlns="http://www.w3.org/2000/svg"
   xmlns:svg="http://www.w3.org/2000/svg">
  <sodipodi:namedview
     id="namedview1"
     pagecolor="#ffffff"
     bordercolor="#000000"
     borderopacity="0.25"
     inkscape:showpageshadow="2"
     inkscape:pageopacity="0.0"
     inkscape:pagecheckerboard="0"
     inkscape:deskcolor="#d1d1d1"
     inkscape:document-units="px"
     inkscape:zoom="45.254834"
     showgrid="true"
     inkscape:cx="9.0598056"
     inkscape:cy="7.0047766"
     inkscape:current-layer="layer1">
    <inkscape:grid
       id="grid1"
       units="px"
       originx="0"
       originy="0"
       spacingx="1"
       spacingy="1"
       empcolor="#0099e5"
       empopacity="0.30196078"
       color="#3f84a6"
       opacity="0.14901961"
       empspacing="5"
       dotted="false"
       gridanglex="30"
       gridanglez="30"
       visible="true" />
  </sodipodi:namedview>
  <defs
     id="defs1" />
  <g
     inkscape:label="Layer 1"
     inkscape:groupmode="layer"
     id="layer1">
    <rect
       style="opacity:0.15;fill:#000000;fill-rule:evenodd;stroke-width:0.999995;stroke-linecap:round;stroke-miterlimit:3.3"
       id="rect2"
       width="4"
       height="11"
       x="1"
       y="2" />
    <path
       id="rect1"
       style="fill-rule:evenodd;stroke-linecap:round;stroke-miterlimit:3.3"
       d="M 1.5 1 C 0.67765106 1 0 1.677651 0 2.5 L 0 12.5 C 0 13.322349 0.67765106 14 1.5 14 L 14.5 14 C 15.322349 14 16 13.322349 16 12.5 L 16 2.5 C 16 1.677651 15.322349 1 14.5 1 L 1.5 1 z M 1.5 2 L 5 2 L 5 13 L 1.5 13 C 1.2143512 13 1 12.785649 1 12.5 L 1 2.5 C 1 2.2143512 1.2143512 2 1.5 2 z M 6 2 L 14.5 2 C 14.785649 2 15 2.2143512 15 2.5 L 15 12.5 C 15 12.785649 14.785649 13 14.5 13 L 6 13 L 6 2 z " />
  </g>
</svg>
