<?xml version='1.0' encoding='UTF-8'?>
<!-- Created with Inkscape (http://www.inkscape.org/) and export_objects.py -->
<svg xmlns:cc="http://creativecommons.org/ns#" xmlns:dc="http://purl.org/dc/elements/1.1/" xmlns:inkscape="http://www.inkscape.org/namespaces/inkscape" xmlns:rdf="http://www.w3.org/1999/02/22-rdf-syntax-ns#" xmlns:sodipodi="http://sodipodi.sourceforge.net/DTD/sodipodi-0.dtd" xmlns:xlink="http://www.w3.org/1999/xlink" xmlns="http://www.w3.org/2000/svg" version="1.1" id="svg1" width="16" height="16" viewBox="0 0 16 16" sodipodi:docname="path-clip-edit-symbolic.svg">
<sodipodi:namedview objecttolerance="10" gridtolerance="10" guidetolerance="10" id="namedview" showgrid="true" inkscape:zoom="0.6002936" inkscape:cx="732.67439" inkscape:cy="-567.94603" inkscape:window-width="1920" inkscape:window-height="1016" inkscape:window-x="0" inkscape:window-y="27" inkscape:window-maximized="1" inkscape:current-layer="layer1">
    <inkscape:grid type="xygrid" id="grid"/>
  </sodipodi:namedview>
  <g transform="translate(-829,-558.36218)" id="path-clip-edit" inkscape:label="00210">
      <path inkscape:connector-curvature="0" id="rect4815" d="m 829,558.36218 h 16 v 16 h -16 z" style="opacity:0;fill:none"/>
      <path inkscape:connector-curvature="0" id="path4828" d="m 836.37695,563.45508 -0.70703,0.70703 c 1.54911,1.5491 3.12462,2.48839 4.63867,2.76367 1.51406,0.27528 2.96524,-0.16055 4.06836,-1.26367 l -0.70703,-0.70703 c -0.89688,0.89688 -1.94569,1.21104 -3.18164,0.98633 -1.23595,-0.22472 -2.66043,-1.03544 -4.11133,-2.48633 z" style="opacity:1;stroke-linecap:butt"/>
      <use height="1250" width="1250" transform="matrix(0,1,1,0,271.2151,-270.7151)" id="use4830" y="0" x="0" xlink:href="#path4828"/>
      <path inkscape:connector-curvature="0" id="path4813" d="m 842.51758,560.30664 a 0.50005012,0.50005012 0 0 0 -0.0859,0.01 c -5.57841,1.03624 -10.57145,4.7277 -11.4043,11.42968 a 0.50005012,0.50005012 0 1 0 0.99219,0.125 c 0.77875,-6.26662 5.32351,-9.59095 10.5957,-10.57031 a 0.50005012,0.50005012 0 0 0 -0.0977,-0.99414 z" style="opacity:1;stroke-linecap:round"/>
      <path inkscape:connector-curvature="0" id="path17299" d="m 843,49 a 1,1 0 0 1 -1,1 1,1 0 0 1 -1,-1 1,1 0 0 1 1,-1 1,1 0 0 1 1,1 z" style="opacity:1" transform="matrix(1.5,0,0,1.5,-420.5,487.3622)"/>
      <path inkscape:connector-curvature="0" id="path17301" d="m 843,49 a 1,1 0 0 1 -1,1 1,1 0 0 1 -1,-1 1,1 0 0 1 1,-1 1,1 0 0 1 1,1 z" style="opacity:1" transform="matrix(1.5,0,0,1.5,-431.5,498.3622)"/>
    </g>
    </svg>
