<?xml version='1.0' encoding='UTF-8'?>
<!-- Created with Inkscape (http://www.inkscape.org/) and export_objects.py -->
<svg xmlns:cc="http://creativecommons.org/ns#" xmlns:dc="http://purl.org/dc/elements/1.1/" xmlns:inkscape="http://www.inkscape.org/namespaces/inkscape" xmlns:rdf="http://www.w3.org/1999/02/22-rdf-syntax-ns#" xmlns:sodipodi="http://sodipodi.sourceforge.net/DTD/sodipodi-0.dtd" xmlns:xlink="http://www.w3.org/1999/xlink" xmlns="http://www.w3.org/2000/svg" version="1.1" id="svg1" width="16" height="16" viewBox="0 0 16 16" sodipodi:docname="path-difference-symbolic.svg">
<sodipodi:namedview objecttolerance="10" gridtolerance="10" guidetolerance="10" id="namedview" showgrid="true" inkscape:zoom="0.6002936" inkscape:cx="732.67439" inkscape:cy="-567.94603" inkscape:window-width="1920" inkscape:window-height="1016" inkscape:window-x="0" inkscape:window-y="27" inkscape:window-maximized="1" inkscape:current-layer="layer1">
    <inkscape:grid type="xygrid" id="grid"/>
  </sodipodi:namedview>
  <g transform="translate(-165,-607.3622)" inkscape:label="00077" id="path-difference">
      <path inkscape:connector-curvature="0" id="rect23149" d="m 165,95 h 16 v 16 h -16 z" style="opacity:0;fill:none" transform="translate(0,512.3622)"/>
      <path id="rect10884" d="m 180,612.3622 v 9.9375 h -10.0937 v -4.125 c 0.206,0.0234 0.3814,0.125 0.5937,0.125 3.036,0 5.5,-2.464 5.5,-5.5 0,-0.1565 -0.0809,-0.2843 -0.0937,-0.4375 z" style="opacity:1" inkscape:connector-curvature="0"/>
      <path inkscape:connector-curvature="0" id="path23142" d="m 170.5,607.3622 c -3.0376,0 -5.5,2.4624 -5.5,5.5 0,3.0375 2.4624,5.5 5.5,5.5 3.0376,0 5.5,-2.4625 5.5,-5.5 0,-3.0376 -2.4624,-5.5 -5.5,-5.5 z" style="opacity:0.5"/>
    </g>
    </svg>
