<?xml version='1.0' encoding='UTF-8'?>
<!-- Created with Inkscape (http://www.inkscape.org/) and export_objects.py -->
<svg xmlns:cc="http://creativecommons.org/ns#" xmlns:dc="http://purl.org/dc/elements/1.1/" xmlns:inkscape="http://www.inkscape.org/namespaces/inkscape" xmlns:rdf="http://www.w3.org/1999/02/22-rdf-syntax-ns#" xmlns:sodipodi="http://sodipodi.sourceforge.net/DTD/sodipodi-0.dtd" xmlns:xlink="http://www.w3.org/1999/xlink" xmlns="http://www.w3.org/2000/svg" version="1.1" id="svg1" width="16" height="16" viewBox="0 0 16 16" sodipodi:docname="path-mask-edit-symbolic.svg">
<sodipodi:namedview objecttolerance="10" gridtolerance="10" guidetolerance="10" id="namedview" showgrid="true" inkscape:zoom="0.6002936" inkscape:cx="732.67439" inkscape:cy="-567.94603" inkscape:window-width="1920" inkscape:window-height="1016" inkscape:window-x="0" inkscape:window-y="27" inkscape:window-maximized="1" inkscape:current-layer="layer1">
    <inkscape:grid type="xygrid" id="grid"/>
  </sodipodi:namedview>
  <g transform="matrix(1,0,0,0.998053,-859,-556.27674)" id="path-mask-edit" inkscape:label="00211">
      <path inkscape:connector-curvature="0" id="rect21094" d="m 859,557.36218 h 16 v 16 h -16 z" style="opacity:0;fill:none"/>
      <path inkscape:connector-curvature="0" id="path21092" d="m 871.51758,558.30664 a 0.50005012,0.50005012 0 0 0 -0.0859,0.01 c -5.57841,1.03624 -10.57145,4.7277 -11.4043,11.42968 a 0.50005012,0.50005012 0 1 0 0.99219,0.125 c 0.77875,-6.26662 5.32351,-9.59095 10.5957,-10.57031 a 0.50005012,0.50005012 0 0 0 -0.0977,-0.99414 z" style="opacity:1;stroke-linecap:round"/>
      <path inkscape:connector-curvature="0" id="path21100" d="m 843,49 a 1,1 0 0 1 -1,1 1,1 0 0 1 -1,-1 1,1 0 0 1 1,-1 1,1 0 0 1 1,1 z" style="opacity:1" transform="matrix(1.5,0,0,1.5,-391.5,485.3622)"/>
      <path inkscape:connector-curvature="0" id="path21102" d="m 843,49 a 1,1 0 0 1 -1,1 1,1 0 0 1 -1,-1 1,1 0 0 1 1,-1 1,1 0 0 1 1,1 z" style="opacity:1" transform="matrix(1.5,0,0,1.5,-402.5,496.3622)"/>
      <path style="opacity:1" d="m 866,564.3622 v 4.8437 c 0,1.7193 2,3.1563 4.4687,4.1875 2.5313,-1.0312 4.5,-2.1953 4.5,-4.125 v -4.9062 z m 1,2 h 3 v 1 1 l -2,-1 z m 4,0 h 3 l -1,1 -2,1 z m -3,3 h 5 c -2.4749,4.4894 -5,0 -5,0 z" id="path3826" inkscape:connector-curvature="0"/>
    </g>
    </svg>
