<?xml version='1.0' encoding='UTF-8'?>
<!-- Created with Inkscape (http://www.inkscape.org/) and export_objects.py -->
<svg xmlns:cc="http://creativecommons.org/ns#" xmlns:dc="http://purl.org/dc/elements/1.1/" xmlns:inkscape="http://www.inkscape.org/namespaces/inkscape" xmlns:rdf="http://www.w3.org/1999/02/22-rdf-syntax-ns#" xmlns:sodipodi="http://sodipodi.sourceforge.net/DTD/sodipodi-0.dtd" xmlns:xlink="http://www.w3.org/1999/xlink" xmlns="http://www.w3.org/2000/svg" version="1.1" id="svg1" width="16" height="16" viewBox="0 0 16 16" sodipodi:docname="path-mode-bspline-symbolic.svg">
<sodipodi:namedview objecttolerance="10" gridtolerance="10" guidetolerance="10" id="namedview" showgrid="true" inkscape:zoom="0.6002936" inkscape:cx="732.67439" inkscape:cy="-567.94603" inkscape:window-width="1920" inkscape:window-height="1016" inkscape:window-x="0" inkscape:window-y="27" inkscape:window-maximized="1" inkscape:current-layer="layer1">
    <inkscape:grid type="xygrid" id="grid"/>
  </sodipodi:namedview>
  <g transform="translate(-1009,-557.36218)" inkscape:label="00216" id="path-mode-bspline">
      <path inkscape:connector-curvature="0" id="rect48619" d="m 1009,557.36218 h 16 v 16 h -16 z" style="opacity:0;fill:none"/>
      <g id="g48628" transform="matrix(1.395066,-1.366399,1.366399,1.395066,-404.6688,1807.641)">
        <path inkscape:connector-curvature="0" id="path-mode-spiro-3-8-8" d="m 964.9707,53.113281 c -2.11237,0.294432 -3.5664,1.919922 -3.5664,1.919922 a 0.51214809,0.51214809 0 1 0 0.7539,0.693359 c 0,0 1.3011,-1.369341 2.95313,-1.599609 0.74029,-0.10318 1.52201,0.26174 2.12695,0.699219 0.60495,0.437479 0.99414,0.902344 0.99414,0.902344 a 0.51214809,0.51214809 0 1 0 0.78516,-0.65625 c 0,0 -0.46121,-0.557999 -1.17774,-1.076172 -0.71653,-0.518174 -1.72713,-1.041982 -2.86914,-0.882813 z" style="opacity:1;stroke-linecap:round"/>
        <path inkscape:connector-curvature="0" id="path6177-8-2" d="m 965.21289,49.990234 a 0.25607405,0.25607405 0 0 0 -0.17578,0.07617 l -4.50391,4.574219 A 0.25619918,0.25619918 0 1 0 960.89844,55 l 4.32422,-4.392578 4.39257,4.300781 a 0.25607405,0.25607405 0 1 0 0.35743,-0.365234 L 965.39844,50.0625 a 0.25607405,0.25607405 0 0 0 -0.18555,-0.07227 z" style="opacity:1;stroke-linecap:round"/>
      </g>
    </g>
    </svg>
