<?xml version="1.0" encoding="UTF-8" standalone="no"?>
<!-- Created with Inkscape (http://www.inkscape.org/) -->

<svg
   width="16"
   height="16"
   viewBox="0 0 16 16"
   version="1.1"
   id="svg1"
   inkscape:version="1.2.2 (b0a84865, 2022-12-01)"
   xml:space="preserve"
   sodipodi:docname="play-symbolic.svg"
   xmlns:inkscape="http://www.inkscape.org/namespaces/inkscape"
   xmlns:sodipodi="http://sodipodi.sourceforge.net/DTD/sodipodi-0.dtd"
   xmlns="http://www.w3.org/2000/svg"
   xmlns:svg="http://www.w3.org/2000/svg"><sodipodi:namedview
     id="namedview1"
     pagecolor="#ffffff"
     bordercolor="#000000"
     borderopacity="0.25"
     inkscape:showpageshadow="2"
     inkscape:pageopacity="0.0"
     inkscape:pagecheckerboard="0"
     inkscape:deskcolor="#d1d1d1"
     inkscape:document-units="px"
     inkscape:zoom="50.1875"
     showgrid="true"
     inkscape:cx="7.9900374"
     inkscape:cy="8"
     inkscape:current-layer="layer1"
     inkscape:window-width="1452"
     inkscape:window-height="916"
     inkscape:window-x="0"
     inkscape:window-y="38"
     inkscape:window-maximized="1"><inkscape:grid
       id="grid1"
       units="px"
       originx="0"
       originy="0"
       spacingx="1"
       spacingy="1"
       empcolor="#0099e5"
       empopacity="0.30196078"
       color="#3f84a6"
       opacity="0.14901961"
       empspacing="5"
       dotted="false"
       gridanglex="30"
       gridanglez="30"
       visible="true" /></sodipodi:namedview><defs
     id="defs1"><inkscape:path-effect
       effect="fillet_chamfer"
       id="path-effect2"
       is_visible="true"
       lpeversion="1"
       nodesatellites_param="F,0,0,1,0,1.1356835,0,1 @ F,0,0,1,0,1.1042742,0,1 @ F,0,0,1,0,1.0934605,0,1"
       radius="0"
       unit="px"
       method="auto"
       mode="F"
       chamfer_steps="1"
       flexible="false"
       use_knot_distance="true"
       apply_no_radius="true"
       apply_with_radius="true"
       only_selected="false"
       hide_knots="false" /></defs><g
     inkscape:label="Layer 1"
     inkscape:groupmode="layer"
     id="layer1"><path
       id="path1"
       style="color:#000000;fill-rule:evenodd;stroke-miterlimit:5.5;-inkscape-stroke:none;stroke:none"
       d="M 8 0 C 3.5876531 0 0 3.5876531 0 8 C 0 12.412347 3.5876531 16 8 16 C 12.412347 16 16 12.412347 16 8 C 16 3.5876531 12.412347 0 8 0 z M 8 1 C 11.871908 1 15 4.1280922 15 8 C 15 11.871908 11.871908 15 8 15 C 4.1280922 15 1 11.871908 1 8 C 1 4.1280922 4.1280922 1 8 1 z M 6.125 4.3164062 A 0.68532941 0.68532941 0 0 0 5.4765625 5 L 5.4765625 11 A 0.69210884 0.69210884 0 0 0 6.53125 11.589844 L 11.269531 8.6738281 A 0.78387695 0.78387695 0 0 0 11.269531 7.3378906 L 6.5214844 4.4160156 A 0.68532941 0.68532941 0 0 0 6.125 4.3164062 z " /></g></svg>
