<?xml version='1.0' encoding='UTF-8'?>
<!-- Created with Inkscape (http://www.inkscape.org/) and export_objects.py -->
<svg xmlns:cc="http://creativecommons.org/ns#" xmlns:dc="http://purl.org/dc/elements/1.1/" xmlns:inkscape="http://www.inkscape.org/namespaces/inkscape" xmlns:rdf="http://www.w3.org/1999/02/22-rdf-syntax-ns#" xmlns:sodipodi="http://sodipodi.sourceforge.net/DTD/sodipodi-0.dtd" xmlns:xlink="http://www.w3.org/1999/xlink" xmlns="http://www.w3.org/2000/svg" version="1.1" id="svg1" width="16" height="16" viewBox="0 0 16 16" sodipodi:docname="randomize-symbolic.svg">
<sodipodi:namedview objecttolerance="10" gridtolerance="10" guidetolerance="10" id="namedview" showgrid="true" inkscape:zoom="0.6002936" inkscape:cx="732.67439" inkscape:cy="-567.94603" inkscape:window-width="1920" inkscape:window-height="1016" inkscape:window-x="0" inkscape:window-y="27" inkscape:window-maximized="1" inkscape:current-layer="layer1">
    <inkscape:grid type="xygrid" id="grid"/>
  </sodipodi:namedview>
  <g transform="matrix(0.666667,0,0,0.666667,-272,-451.57479)" id="randomize" inkscape:label="00237">
      <path inkscape:connector-curvature="0" id="rect7476" d="m 408,677.36218 h 24 v 24 h -24 z" style="opacity:0;fill:none"/>
      <path inkscape:connector-curvature="0" id="path4908" d="m 408.99414,682.11133 a 0.50005,0.50005 0 0 0 -0.49414,0.5 v 12.5 a 0.50005,0.50005 0 0 0 0.27734,0.44726 l 11,5.5 a 0.50005,0.50005 0 0 0 0.44532,0 l 11,-5.5 A 0.50005,0.50005 0 0 0 431.5,695.11133 v -12.5 a 0.50005,0.50005 0 0 0 -0.68945,-0.46094 L 420,686.57227 409.18945,682.15039 a 0.50005,0.50005 0 0 0 -0.19531,-0.0391 z m 0.50586,1.24414 10.31055,4.21875 a 0.50005,0.50005 0 0 0 0.3789,0 L 430.5,683.35547 v 11.44726 l -10.5,5.25 -10.5,-5.25 z" style="opacity:1;stroke-linecap:butt"/>
      <path inkscape:connector-curvature="0" id="path4912" d="m 419.99414,677.61133 a 0.50005,0.50005 0 0 0 -0.18359,0.0391 l -11,4.5 a 0.50005,0.50005 0 0 0 0,0.92383 l 11,4.5 a 0.50005,0.50005 0 0 0 0.3789,0 l 11,-4.5 a 0.50005,0.50005 0 0 0 0,-0.92383 l -11,-4.5 a 0.50005,0.50005 0 0 0 -0.19531,-0.0391 z m 0.006,1.04101 9.68164,3.95899 -9.68164,3.96094 -9.68164,-3.96094 z" style="opacity:1;stroke-linecap:butt"/>
      <path inkscape:connector-curvature="0" id="path5699" d="m 419.5,687.11133 v 13.41797 h 1 v -13.41797 z" style="opacity:1;stroke-linecap:butt"/>
      <path inkscape:connector-curvature="0" id="use5857" d="m 843,222.75 a 0.75,1.25 0 0 1 -0.75,1.25 0.75,1.25 0 0 1 -0.75,-1.25 0.75,1.25 0 0 1 0.75,-1.25 0.75,1.25 0 0 1 0.75,1.25 z" style="opacity:1" transform="matrix(0,1.696616,-1.584405,0,769.8879,-746.3638)"/>
      <path inkscape:connector-curvature="0" id="use5859" d="m 843,222.75 a 0.75,1.25 0 0 1 -0.75,1.25 0.75,1.25 0 0 1 -0.75,-1.25 0.75,1.25 0 0 1 0.75,-1.25 0.75,1.25 0 0 1 0.75,1.25 z" style="opacity:1" transform="matrix(0,1.696616,-1.584405,0,775.9845,-746.3358)"/>
      <path inkscape:connector-curvature="0" id="path15511" d="m 414,176.5 a 1.5,1.5 0 0 1 -1.5,1.5 1.5,1.5 0 0 1 -1.5,-1.5 1.5,1.5 0 0 1 1.5,-1.5 1.5,1.5 0 0 1 1.5,1.5 z" style="opacity:1" transform="matrix(1.06292,0.0998114,-0.1122882,1.195789,7.206075,438.936)"/>
      <path inkscape:connector-curvature="0" id="path15515" d="m 414,176.5 a 1.5,1.5 0 0 1 -1.5,1.5 1.5,1.5 0 0 1 -1.5,-1.5 1.5,1.5 0 0 1 1.5,-1.5 1.5,1.5 0 0 1 1.5,1.5 z" style="opacity:1" transform="matrix(0.8847737,0.0043444,0.0064558,0.9144787,48.34253,528.1256)"/>
      <path inkscape:connector-curvature="0" id="path15519" d="m 414,176.5 a 1.5,1.5 0 0 1 -1.5,1.5 1.5,1.5 0 0 1 -1.5,-1.5 1.5,1.5 0 0 1 1.5,-1.5 1.5,1.5 0 0 1 1.5,1.5 z" style="opacity:1" transform="matrix(0.9427641,0.0044503,0.006879,0.9367757,27.03627,528.1806)"/>
      <path inkscape:connector-curvature="0" id="path15521" d="m 414,176.5 a 1.5,1.5 0 0 1 -1.5,1.5 1.5,1.5 0 0 1 -1.5,-1.5 1.5,1.5 0 0 1 1.5,-1.5 1.5,1.5 0 0 1 1.5,1.5 z" style="opacity:1" transform="matrix(0.9115641,0.0043668,0.0066513,0.9191977,34.80486,523.3811)"/>
    </g>
    </svg>
