<?xml version='1.0' encoding='UTF-8'?>
<!-- Created with Inkscape (http://www.inkscape.org/) and export_objects.py -->
<svg xmlns:cc="http://creativecommons.org/ns#" xmlns:dc="http://purl.org/dc/elements/1.1/" xmlns:inkscape="http://www.inkscape.org/namespaces/inkscape" xmlns:rdf="http://www.w3.org/1999/02/22-rdf-syntax-ns#" xmlns:sodipodi="http://sodipodi.sourceforge.net/DTD/sodipodi-0.dtd" xmlns:xlink="http://www.w3.org/1999/xlink" xmlns="http://www.w3.org/2000/svg" version="1.1" id="svg1" width="16" height="16" viewBox="0 0 16 16" sodipodi:docname="selection-move-to-layer-above-symbolic.svg">
<sodipodi:namedview objecttolerance="10" gridtolerance="10" guidetolerance="10" id="namedview" showgrid="true" inkscape:zoom="0.6002936" inkscape:cx="732.67439" inkscape:cy="-567.94603" inkscape:window-width="1920" inkscape:window-height="1016" inkscape:window-x="0" inkscape:window-y="27" inkscape:window-maximized="1" inkscape:current-layer="layer1">
    <inkscape:grid type="xygrid" id="grid"/>
  </sodipodi:namedview>
  <g transform="matrix(1,0,0,0.999999,-105,-607.3618)" inkscape:label="00046" id="selection-move-to-layer-above">
      <path inkscape:connector-curvature="0" id="rect19379" d="m 105,607.36218 h 16 v 16 h -16 z" style="opacity:0;fill:none"/>
      <path style="opacity:1" d="m 107,611.3622 2,-3 h 10 l -2,3 z" id="path19383" inkscape:connector-curvature="0"/>
      <path inkscape:connector-curvature="0" id="path19385" d="m 112,617.3622 h 2 v -2 h 2 l -3,-2.9884 -3,2.9884 h 2 z" style="opacity:1"/>
      <path inkscape:connector-curvature="0" id="rect19391" d="m 105,616.36218 h 1 v 1 h -1 z" style="opacity:1"/>
      <path inkscape:connector-curvature="0" id="rect19393" d="m 107,616.36218 h 1 v 1 h -1 z" style="opacity:1"/>
      <path inkscape:connector-curvature="0" id="rect19395" d="m 109,616.36218 h 1 v 1 h -1 z" style="opacity:1"/>
      <path inkscape:connector-curvature="0" id="path19403" d="m 107,621.3622 c 0,0 0,0 2,-3 h 9 l -2,3 z" style="opacity:1"/>
      <path inkscape:connector-curvature="0" id="rect19407" d="m 117,616.36218 h 1 v 1 h -1 z" style="opacity:1"/>
      <path inkscape:connector-curvature="0" id="rect19409" d="m 119,616.36218 h 1 v 1 h -1 z" style="opacity:1"/>
      <path inkscape:connector-curvature="0" id="rect19411" d="m 105,622.36218 h 1 v 1 h -1 z" style="opacity:1"/>
      <path inkscape:connector-curvature="0" id="rect19413" d="m 107,622.36218 h 1 v 1 h -1 z" style="opacity:1"/>
      <path inkscape:connector-curvature="0" id="rect19415" d="m 105,618.36218 h 1 v 1.00001 h -1 z" style="opacity:1"/>
      <path inkscape:connector-curvature="0" id="rect19417" d="m 105,620.36218 h 1 v 1.00001 h -1 z" style="opacity:1"/>
      <path inkscape:connector-curvature="0" id="rect19419" d="m 109,622.36218 h 1 v 1 h -1 z" style="opacity:1"/>
      <path inkscape:connector-curvature="0" id="rect19421" d="m 111,622.36218 h 1 v 1.00001 h -1 z" style="opacity:1"/>
      <path inkscape:connector-curvature="0" id="rect19423" d="m 113,622.36218 h 1 v 1.00001 h -1 z" style="opacity:1"/>
      <path inkscape:connector-curvature="0" id="rect19425" d="m 115,622.36218 h 1 v 1.00001 h -1 z" style="opacity:1"/>
      <path inkscape:connector-curvature="0" id="rect19427" d="m 117,622.36218 h 1 v 1.00001 h -1 z" style="opacity:1"/>
      <path inkscape:connector-curvature="0" id="rect19429" d="m 119,622.36218 h 1 v 1.00001 h -1 z" style="opacity:1"/>
      <path inkscape:connector-curvature="0" id="rect19431" d="m 119,620.36218 h 1 v 1.00001 h -1 z" style="opacity:1"/>
      <path inkscape:connector-curvature="0" id="rect19433" d="m 119,618.36218 h 1 v 1.00001 h -1 z" style="opacity:1"/>
    </g>
    </svg>
