<?xml version="1.0" encoding="UTF-8" standalone="no"?>
<svg
   inkscape:version="1.1 (c68e22c387, 2021-05-23)"
   sodipodi:docname="shape-clone-symbolic.svg"
   viewBox="0 0 16 16"
   height="16"
   width="16"
   id="svg1"
   version="1.1"
   xmlns:inkscape="http://www.inkscape.org/namespaces/inkscape"
   xmlns:sodipodi="http://sodipodi.sourceforge.net/DTD/sodipodi-0.dtd"
   xmlns="http://www.w3.org/2000/svg"
   xmlns:svg="http://www.w3.org/2000/svg"
   xmlns:rdf="http://www.w3.org/1999/02/22-rdf-syntax-ns#"
   xmlns:cc="http://creativecommons.org/ns#"
   xmlns:dc="http://purl.org/dc/elements/1.1/">
  <metadata
     id="metadata3245">
    <rdf:RDF>
      <cc:Work
         rdf:about="">
        <dc:format>image/svg+xml</dc:format>
        <dc:type
           rdf:resource="http://purl.org/dc/dcmitype/StillImage" />
        <dc:title />
      </cc:Work>
    </rdf:RDF>
  </metadata>
  <defs
     id="defs3243">
    <inkscape:path-effect
       effect="join_type"
       id="path-effect1149"
       is_visible="true"
       lpeversion="1"
       linecap_type="butt"
       line_width="1"
       linejoin_type="extrp_arc"
       miter_limit="100"
       attempt_force_join="true" />
    <inkscape:path-effect
       effect="join_type"
       id="path-effect967"
       is_visible="true"
       lpeversion="1"
       linecap_type="butt"
       line_width="1"
       linejoin_type="extrp_arc"
       miter_limit="100"
       attempt_force_join="true" />
    <inkscape:path-effect
       effect="join_type"
       id="path-effect121"
       is_visible="true"
       lpeversion="1"
       linecap_type="butt"
       line_width="1"
       linejoin_type="extrp_arc"
       miter_limit="100"
       attempt_force_join="true" />
    <inkscape:path-effect
       effect="offset"
       id="path-effect3872"
       is_visible="true"
       lpeversion="1"
       linejoin_type="miter"
       unit="mm"
       offset="-0.13533657"
       miter_limit="4"
       attempt_force_join="true"
       update_on_knot_move="true" />
    <inkscape:path-effect
       effect="offset"
       id="path-effect3859"
       is_visible="true"
       lpeversion="1"
       linejoin_type="miter"
       unit="px"
       offset="-0.5"
       miter_limit="4"
       attempt_force_join="true"
       update_on_knot_move="true" />
    <inkscape:path-effect
       effect="fill_between_many"
       method="bsplinespiro"
       linkedpaths="#path3870,0,1"
       id="path-effect969" />
  </defs>
  <style
     id="s0">
.base { fill:#000000; }
.success { fill:#009909; }
.warning { fill:#FF1990; }
.error { fill:#00AAFF; }
.dark { }
</style>
  <style
     id="s2">
@import '../../highlights.css';
</style>
  <sodipodi:namedview
     inkscape:document-rotation="0"
     inkscape:current-layer="edit-clone"
     inkscape:window-maximized="1"
     inkscape:window-y="-8"
     inkscape:window-x="54"
     inkscape:window-height="1177"
     inkscape:window-width="1858"
     inkscape:cy="5.46875"
     inkscape:cx="12.328125"
     inkscape:zoom="32"
     showgrid="true"
     id="namedview"
     guidetolerance="10"
     gridtolerance="10"
     objecttolerance="10"
     pagecolor="#ffffff"
     bordercolor="#666666"
     borderopacity="1.0"
     inkscape:pageshadow="2"
     inkscape:pageopacity="0.0"
     inkscape:pagecheckerboard="0">
    <inkscape:grid
       id="grid"
       type="xygrid" />
  </sodipodi:namedview>
  <g
     id="edit-clone"
     inkscape:label="00013"
     transform="translate(-45,-607.3622)">
    <path
       id="path45837"
       d="m 45,607.3622 v 16 h 16 v -16 z"
       style="opacity:0;fill:none"
       inkscape:connector-curvature="0" />
    <path
       inkscape:connector-curvature="0"
       id="path27786"
       d="m 50.011719,621.84961 v 0.5 h 0.5 c 2.992187,0 5.984375,0 8.976562,0 h 0.5 v -0.5 c 0,-2.99219 0,-5.98437 0,-8.97656 v -0.5 h -0.5 c -2.992187,0 -5.984375,0 -8.976562,0 h -0.5 v 0.5 c 0,2.99219 0,5.98437 0,8.97656 z m 9.476562,-8.47656 -0.5,-0.5 c 0,2.99219 0,5.98437 0,8.97656 l 0.5,-0.5 c -2.992187,0 -5.984375,0 -8.976562,0 l 0.5,0.5 c 0,-2.99219 0,-5.98437 0,-8.97656 l -0.5,0.5 c 2.992187,0 5.984375,0 8.976562,0 z"
       style="opacity:1;fill:#000000;fill-rule:nonzero;stroke:none"
       sodipodi:nodetypes="ccccc"
       inkscape:path-effect="#path-effect3872;#path-effect121"
       inkscape:original-d="m 50,612.3622 v 10 h 10 v -10 z" />
    <path
       style="opacity:1;fill:#000000;stroke:none;fill-rule:nonzero"
       d="m 45,615.86133 v 0.5 h 0.5 c 1,0 2,0 3,0 H 49 v -0.5 c 0,-1.66667 0,-3.33333 0,-5 l -0.5,0.5 c 2,0 4,0 6,0 H 55 v -0.5 c 0,-1 0,-2 0,-3 v -0.5 h -0.5 c -3,0 -6,0 -9,0 H 45 v 0.5 c 0,2.66667 0,5.33333 0,8 z m 9.5,-7.5 -0.5,-0.5 c 0,1 0,2 0,3 l 0.5,-0.5 c -2,0 -4,0 -6,0 H 48 v 0.5 c 0,1.66667 0,3.33333 0,5 l 0.5,-0.5 c -1,0 -2,0 -3,0 l 0.5,0.5 c 0,-2.66667 0,-5.33333 0,-8 l -0.5,0.5 c 3,0 6,0 9,0 z"
       id="path27788"
       inkscape:connector-curvature="0"
       inkscape:path-effect="#path-effect3859;#path-effect1149"
       inkscape:original-d="m 49,616.3622 v -1 -4 h 6 v 0 -4 H 45 v 9 z" />
    <path
       inkscape:connector-curvature="0"
       id="path3870"
       d="m 55.46875,614.3622 c 0.85142,0 1.53125,0.7099 1.53125,1.5625 v 1.4375 h 0.50412 c 0.274969,0 0.49588,0.1868 0.49588,0.5 v 2.5 h -6 v -2.4375 c 0,-0.3132 0.22503,-0.5625 0.5,-0.5625 H 53 v -1.44141 c 0,-0.85259 0.550918,-1.55859 1.402338,-1.55859 z m -0.96485,0.99609 C 54.246497,615.35627 54,615.5915 54,615.9247 v 1.4375 h 2 l -0.03125,-1.4375 c -0.0072,-0.33312 -0.215241,-0.55657 -0.472653,-0.55859 z"
       style="opacity:1;fill:#000000;fill-rule:nonzero;stroke:none;stroke-width:1"
       sodipodi:nodetypes="sscssccsscssssscssss"
       inkscape:linked-fill="path971" />
  </g>
</svg>
