<?xml version="1.0" encoding="UTF-8" standalone="no"?>
<svg
   xmlns:dc="http://purl.org/dc/elements/1.1/"
   xmlns:cc="http://creativecommons.org/ns#"
   xmlns:rdf="http://www.w3.org/1999/02/22-rdf-syntax-ns#"
   xmlns:svg="http://www.w3.org/2000/svg"
   xmlns="http://www.w3.org/2000/svg"
   xmlns:sodipodi="http://sodipodi.sourceforge.net/DTD/sodipodi-0.dtd"
   xmlns:inkscape="http://www.inkscape.org/namespaces/inkscape"
   inkscape:version="1.0.1 (3bc2e81, 2020-09-07)"
   sodipodi:docname="object-type-polygon-star-symbolic.svg"
   viewBox="0 0 16 16"
   height="16"
   width="16"
   id="svg1"
   version="1.1">
  <style
     id="s0">
   .base    { fill: #000000; }
   .success { fill: #009909; }
   .warning { fill: #FF1990; }
   .error   { fill: #00AAFF; }
   .dark    {  }
  </style>
  <style
     id="s2"> 
     @import '../../highlights.css'; 
  </style>
  <metadata
     id="metadata1213">
    <rdf:RDF>
      <cc:Work
         rdf:about="">
        <dc:format>image/svg+xml</dc:format>
        <dc:type
           rdf:resource="http://purl.org/dc/dcmitype/StillImage" />
        <dc:title></dc:title>
      </cc:Work>
    </rdf:RDF>
  </metadata>
  <defs
     id="defs1211">
    <inkscape:path-effect
       effect="join_type"
       id="path-effect949"
       is_visible="true"
       linecap_type="round"
       line_width="3"
       linejoin_type="round"
       miter_limit="100"
       attempt_force_join="true" />
    <inkscape:path-effect
       attempt_force_join="true"
       miter_limit="100"
       linejoin_type="round"
       line_width="1.9"
       linecap_type="round"
       is_visible="true"
       id="path-effect1916"
       effect="join_type" />
  </defs>
  <sodipodi:namedview
     inkscape:document-rotation="0"
     inkscape:current-layer="g0"
     inkscape:window-maximized="1"
     inkscape:window-y="-10"
     inkscape:window-x="115"
     inkscape:window-height="1792"
     inkscape:window-width="2611"
     inkscape:cy="13.62994"
     inkscape:cx="9.6137507"
     inkscape:zoom="31.678384"
     showgrid="true"
     id="namedview"
     guidetolerance="10"
     gridtolerance="10"
     objecttolerance="10"
     inkscape:showpageshadow="true"
     inkscape:snap-global="false">
    <inkscape:grid
       id="grid"
       type="xygrid" />
  </sodipodi:namedview>
  <g
     id="g0"
     inkscape:label="draw-poligon-star">
    <path
       inkscape:connector-curvature="0"
       style="opacity:0"
       d="M 0,0 H 16 V 16 H 0 Z"
       id="background" />
    <path
       class="base"
       inkscape:label="star out"
       inkscape:original-d="M 8,11.954725 4.0987583,13.99973 4.8475465,9.658026 1.6887995,6.5810806 6.0493791,5.9518506 8,2.0002701 l 1.9506209,3.9515805 4.3605801,0.62923 -3.152454,3.0769454 0.74249,4.341704 z"
       inkscape:path-effect="#path-effect1916"
       inkscape:connector-curvature="0"
       d="M 3.6576982,13.158323 5.0349375,14.161187 5.7837257,9.8194833 A 0.95,0.95 0 0 0 5.5104287,8.9775209 L 2.3516817,5.9005755 1.8244788,7.5213418 6.1850584,6.8921118 A 0.95,0.95 0 0 0 6.9012442,6.3723572 L 8.8518651,2.4207767 H 7.1481349 l 1.9506209,3.9515805 a 0.95,0.95 0 0 0 0.7161858,0.5197546 l 4.3605804,0.62923 -0.527881,-1.6201052 -3.152454,3.0769454 a 0.95,0.95 0 0 0 -0.272846,0.839982 l 0.74249,4.341704 1.377466,-1.001545 -3.9012365,-2.045005 a 0.95,0.95 0 0 0 -0.8821206,0 z m 7.8024788,1.682814 a 0.95,0.95 0 0 0 1.377466,-1.001545 L 12.095153,9.497888 11.822307,10.33787 14.974761,7.2609246 A 0.95,0.95 0 0 0 14.44688,5.6408194 L 10.0863,5.0115894 10.802486,5.531344 8.8518651,1.5797635 a 0.95,0.95 0 0 0 -1.7037302,0 L 5.197514,5.531344 5.9136998,5.0115894 1.5531202,5.6408194 A 0.95,0.95 0 0 0 1.0259173,7.2615857 L 4.1846643,10.338531 3.9113673,9.4965687 3.1625791,13.838273 a 0.95,0.95 0 0 0 1.3772393,1.002864 l 3.9012417,-2.045005 -0.8821206,0 z"
       id="polygon1138"
       sodipodi:nodetypes="ccccccccccc"
       style="stroke-width:0.478597" />
  </g>
</svg>
