<?xml version="1.0" encoding="UTF-8" standalone="no"?>
<svg
   xmlns:dc="http://purl.org/dc/elements/1.1/"
   xmlns:cc="http://creativecommons.org/ns#"
   xmlns:rdf="http://www.w3.org/1999/02/22-rdf-syntax-ns#"
   xmlns:svg="http://www.w3.org/2000/svg"
   xmlns="http://www.w3.org/2000/svg"
   xmlns:sodipodi="http://sodipodi.sourceforge.net/DTD/sodipodi-0.dtd"
   xmlns:inkscape="http://www.inkscape.org/namespaces/inkscape"
   inkscape:version="1.0.1 (3bc2e81, 2020-09-07)"
   sodipodi:docname="object-type-switch-symbolic.svg"
   viewBox="0 0 16 16"
   height="16"
   width="16"
   id="svg1"
   version="1.1">
  <style
     id="s0">
   .base    { fill: #000000; }
   .success { fill: #009909; }
   .warning { fill: #FF1990; }
   .error   { fill: #00AAFF; }
   .dark    {  }
  </style>
  <style
     id="s2"> 
     @import '../../highlights.css'; 
  </style>
  <metadata
     id="metadata1213">
    <rdf:RDF>
      <cc:Work
         rdf:about="">
        <dc:format>image/svg+xml</dc:format>
        <dc:type
           rdf:resource="http://purl.org/dc/dcmitype/StillImage" />
        <dc:title></dc:title>
      </cc:Work>
    </rdf:RDF>
  </metadata>
  <defs
     id="defs1211">
    <inkscape:path-effect
       attempt_force_join="true"
       miter_limit="100"
       linejoin_type="round"
       line_width="2"
       linecap_type="round"
       is_visible="true"
       id="path-effect2266"
       effect="join_type" />
    <inkscape:path-effect
       effect="join_type"
       id="path-effect847"
       is_visible="true"
       lpeversion="1"
       linecap_type="butt"
       line_width="1.5"
       linejoin_type="round"
       miter_limit="100"
       attempt_force_join="true" />
    <inkscape:path-effect
       effect="join_type"
       id="path-effect949"
       is_visible="true"
       linecap_type="round"
       line_width="3"
       linejoin_type="round"
       miter_limit="100"
       attempt_force_join="true" />
    <inkscape:path-effect
       attempt_force_join="true"
       miter_limit="100"
       linejoin_type="round"
       line_width="2"
       linecap_type="round"
       is_visible="true"
       id="path-effect1916"
       effect="join_type" />
  </defs>
  <sodipodi:namedview
     inkscape:document-rotation="0"
     inkscape:current-layer="g0"
     inkscape:window-maximized="1"
     inkscape:window-y="-11"
     inkscape:window-x="123"
     inkscape:window-height="1790"
     inkscape:window-width="2602"
     inkscape:cy="4.7435421"
     inkscape:cx="1.9004197"
     inkscape:zoom="22.4"
     showgrid="true"
     id="namedview"
     guidetolerance="10"
     gridtolerance="10"
     objecttolerance="10"
     inkscape:showpageshadow="true"
     inkscape:snap-global="true"
     inkscape:snap-nodes="true">
    <inkscape:grid
       id="grid"
       type="xygrid" />
  </sodipodi:namedview>
  <g
     id="g0"
     inkscape:label="draw-poligon-star">
    <path
       inkscape:connector-curvature="0"
       style="opacity:0"
       d="M 0,0 H 16 V 16 H 0 Z"
       id="background" />
    <path
       class="base"
       inkscape:label="star out"
       inkscape:connector-curvature="0"
       d="M 15,5 A 1,1 0 0 0 14,4 H 8 l 0.8944272,0.5527864 -1,-2 A 1,1 0 0 0 7,2 H 2 A 1,1 0 0 0 1,3 v 10 a 1,1 0 0 0 1,1 h 12 a 1,1 0 0 0 1,-1 z M 2,12 3,13 V 3 L 2,4 h 5 l -0.8944272,-0.5527864 1,2 A 1,1 0 0 0 8,6 h 6 L 13,5 v 8 l 1,-1 z"
       id="path2264"
       sodipodi:nodetypes="ccccccc"
       style="stroke-width:0.478597"
       inkscape:original-d="M 14,13 V 5 H 8 L 7,3 H 2 v 10 z"
       inkscape:path-effect="#path-effect2266" />
    <path
       class="base"
       inkscape:label="star out"
       inkscape:connector-curvature="0"
       d="M 28.268322,13 V 3 l -1,1 h 5 l -0.894427,-0.5527864 1,2 A 1,1 0 0 0 33.268322,6 h 6 l -1,-1 v 8 l 1,-1 H 31 a 1,1 0 0 0 -0.707107,1.707107 l 2,2 A 1,1 0 0 0 34,15 v -4 a 1,1 0 0 0 -1.707107,-0.707107 l -2,2 a 1,1 0 0 0 0,1.414214 l 2,2 a 1,1 0 1 0 1.414214,-1.414214 l -2,-2 v 1.414214 l 2,-2 L 32,11 v 4 l 1.707107,-0.707107 -2,-2 L 31,14 h 8.268322 a 1,1 0 0 0 1,-1 V 5 a 1,1 0 0 0 -1,-1 h -6 l 0.894427,0.5527864 -1,-2 A 1,1 0 0 0 32.268322,2 h -5 a 1,1 0 0 0 -1,1 v 10 a 1,1 0 1 0 2,0 z"
       id="polygon1138"
       sodipodi:nodetypes="ccccccccccc"
       style="stroke-width:0.478597"
       inkscape:original-d="M 27.268322,13 V 3 h 5 l 1,2 h 6 v 8 H 31 l 2,2 v -4 l -2,2 2,2"
       inkscape:path-effect="#path-effect1916" />
    <path
       style="fill:none;stroke:#000000;stroke-linecap:round;stroke-linejoin:round;stop-color:#000000"
       d="M 6.7316782,7 5.2841054,8.7576134 6.7316782,10.420526 5.2841054,8.7576134 h 3.8162288 c 0.823173,0 1.1837718,1 1.1837718,1"
       id="path2268"
       sodipodi:nodetypes="cccccc" />
  </g>
</svg>
