<?xml version="1.0" encoding="UTF-8" standalone="no"?>
<!-- Created with Inkscape (http://www.inkscape.org/) -->

<svg
   width="16"
   height="16"
   viewBox="0 0 16 16"
   version="1.1"
   id="svg5"
   inkscape:version="1.3-dev (a28eb073, 2022-09-12)"
   sodipodi:docname="shapbuilder-tool-diffrence.svg"
   xml:space="preserve"
   xmlns:inkscape="http://www.inkscape.org/namespaces/inkscape"
   xmlns:sodipodi="http://sodipodi.sourceforge.net/DTD/sodipodi-0.dtd"
   xmlns="http://www.w3.org/2000/svg"
   xmlns:svg="http://www.w3.org/2000/svg"><sodipodi:namedview
     id="namedview7"
     pagecolor="#ffffff"
     bordercolor="#000000"
     borderopacity="0.14901961"
     inkscape:showpageshadow="false"
     inkscape:pageopacity="0.0"
     inkscape:pagecheckerboard="0"
     inkscape:deskcolor="#ffffff"
     inkscape:document-units="px"
     showgrid="true"
     showborder="true"
     borderlayer="false"
     inkscape:zoom="16"
     inkscape:cx="0.8125"
     inkscape:cy="7.46875"
     inkscape:window-width="1857"
     inkscape:window-height="1177"
     inkscape:window-x="1912"
     inkscape:window-y="-8"
     inkscape:window-maximized="1"
     inkscape:current-layer="layer1"><inkscape:grid
       type="xygrid"
       id="grid374"
       originx="-26"
       originy="0" /><inkscape:page
       x="0"
       y="0"
       width="16"
       height="16"
       id="page883"
       margin="0"
       bleed="0" /></sodipodi:namedview><defs
     id="defs2"><inkscape:path-effect
       effect="join_type"
       id="path-effect2"
       is_visible="true"
       lpeversion="1"
       linecap_type="butt"
       line_width="1.1111111"
       linejoin_type="extrp_arc"
       miter_limit="100"
       attempt_force_join="true" /><inkscape:path-effect
       effect="offset"
       id="path-effect1"
       is_visible="true"
       lpeversion="1.2"
       linejoin_type="miter"
       unit="px"
       offset="-0.55555556"
       miter_limit="4"
       attempt_force_join="false"
       update_on_knot_move="true" /></defs><g
     inkscape:label="Layer 1"
     inkscape:groupmode="layer"
     id="layer1"
     transform="translate(-26)"><path
       id="rect603-6"
       style="fill:#000000;stroke:none;stroke-width:1.125"
       d="m 37.4,6 c 0,3 -2.4,6 -5.4,6 v 3 h 9 V 6 Z"
       sodipodi:nodetypes="cccccc" /><path
       id="rect872-1"
       d="m 29,5 h 5 v 2 h -5 z" /><path
       id="path817"
       d="m 35.389756,6 c 0,2.1412439 -1.748512,3.8897573 -3.889756,3.8897565 -2.141244,0 -3.889756,-1.7485126 -3.889756,-3.8897565 0,-2.1412439 1.748512,-3.8897569 3.889756,-3.8897569 2.141244,0 3.889756,1.748513 3.889756,3.8897569 z m -8.890624,0 c 0,2.7623493 2.238518,5.000868 5.000868,5.000868 C 34.26235,11.000869 36.500868,8.7623493 36.500868,6 36.500868,3.2376507 34.26235,0.99913195 31.5,0.99913195 28.73765,0.99913195 26.499132,3.2376507 26.499132,6 Z"
       style="opacity:0.5;fill:#000000;fill-rule:nonzero;stroke:none;stroke-width:1.1111111" /></g></svg>
