<?xml version="1.0" encoding="UTF-8" standalone="no"?>
<svg
   xmlns:dc="http://purl.org/dc/elements/1.1/"
   xmlns:cc="http://creativecommons.org/ns#"
   xmlns:rdf="http://www.w3.org/1999/02/22-rdf-syntax-ns#"
   xmlns:svg="http://www.w3.org/2000/svg"
   xmlns="http://www.w3.org/2000/svg"
   xmlns:sodipodi="http://sodipodi.sourceforge.net/DTD/sodipodi-0.dtd"
   xmlns:inkscape="http://www.inkscape.org/namespaces/inkscape"
   inkscape:version="1.0.1 (1.0.1+r73)"
   sodipodi:docname="shape-symbol-symbolic.svg"
   viewBox="0 0 16 16"
   height="16"
   width="16"
   id="svg1"
   version="1.1">
  <metadata
     id="metadata1918">
    <rdf:RDF>
      <cc:Work
         rdf:about="">
        <dc:format>image/svg+xml</dc:format>
        <dc:type
           rdf:resource="http://purl.org/dc/dcmitype/StillImage" />
        <dc:title />
      </cc:Work>
    </rdf:RDF>
  </metadata>
  <defs
     id="defs1916">
    <inkscape:path-effect
       effect="offset"
       id="path-effect4552"
       is_visible="true"
       lpeversion="1"
       linejoin_type="miter"
       unit="mm"
       offset="-0.12319426"
       miter_limit="4"
       attempt_force_join="true"
       update_on_knot_move="true" />
  </defs>
  <style
     id="s0">
.base { fill:#000000; }
.success { fill:#009909; }
.warning { fill:#FF1990; }
.error { fill:#00AAFF; }
.dark { }
</style>
  <style
     id="s2">
@import '../../highlights.css';
</style>
  <sodipodi:namedview
     inkscape:document-rotation="0"
     inkscape:current-layer="symbols"
     inkscape:window-maximized="1"
     inkscape:window-y="20"
     inkscape:window-x="66"
     inkscape:window-height="843"
     inkscape:window-width="1534"
     inkscape:cy="5.3570683"
     inkscape:cx="3.4192346"
     inkscape:zoom="30.09375"
     showgrid="true"
     id="namedview"
     guidetolerance="10"
     gridtolerance="10"
     objecttolerance="10">
    <inkscape:grid
       id="grid"
       type="xygrid" />
  </sodipodi:namedview>
  <g
     inkscape:label="00072"
     id="symbols"
     transform="matrix(1,0,0,0.999973,0,4.3e-4)">
    <path
       style="display:inline;opacity:0;fill:none"
       d="M 0,0 H 16 V 16 H 0 Z"
       id="rect48467"
       inkscape:connector-curvature="0" />
    <path
       sodipodi:nodetypes="ccccccccsscccccccccccsscccccccc"
       id="path4550"
       d="M 7.5381394,0.99959699 C 8.5546853,1.8519195 9.4320787,3.2497063 9.9413281,4.977515 8.820662,5.8414181 8.080224,7.2853972 7.8813824,8.874737 H 8.64428 C 8.7150769,8.5312381 8.791855,8.2650077 8.9494391,7.8807828 10.407611,4.3289497 14.605745,7.5874268 12.344394,9.3922317 12.276039,7.7788386 11.173805,7.1012399 10.208281,8.5963992 10.148471,8.6893083 10.103307,8.7857759 10.055702,8.874737 h 0.648524 c 0.639224,0 0.639224,1.0341915 0,1.0341915 H 9.7505427 C 9.7676316,10.635129 10.311059,11.221604 10.856805,11.221604 10.245267,12.91848 8.5750699,11.997163 8.5299064,9.9089285 H 7.8432985 C 7.8750345,11.111498 8.2391508,12.357742 9.0258509,13.090935 8.6586835,13.83151 8.4035706,14.689315 7.5381394,14.999975 6.8598319,14.742642 6.3197003,14.009691 6.0504279,13.090935 6.8366398,12.33127 7.1814695,11.091262 7.1948965,9.9089285 H 6.4700827 C 6.4249187,11.997163 4.7547225,12.91848 4.1433058,11.221604 c 0.5459906,0 1.0890517,-0.586475 1.1061406,-1.3126755 h -0.953561 c -0.6392239,0 -0.6392239,-1.0341915 0,-1.0341915 h 0.648402 C 4.8966825,8.7856486 4.851519,8.6893057 4.7917078,8.5963992 3.8264287,7.1012399 2.72395,7.7788386 2.6555943,9.3922317 0.39424362,7.5874268 4.5925,4.3289497 6.0504279,7.8807828 6.2082562,8.2650077 6.2849122,8.5312381 6.355587,8.874737 H 7.1184847 C 6.8951082,7.3261245 6.1364828,5.9101441 5.0968669,4.977515 5.5286059,3.5732246 6.2900388,1.9636625 7.5381394,0.99959699 Z"
       style="opacity:1;stroke-width:1.24641"
       inkscape:connector-curvature="0" />
  </g>
</svg>
