<?xml version='1.0' encoding='UTF-8'?>
<!-- Created with Inkscape (http://www.inkscape.org/) and export_objects.py -->
<svg xmlns:cc="http://creativecommons.org/ns#" xmlns:dc="http://purl.org/dc/elements/1.1/" xmlns:inkscape="http://www.inkscape.org/namespaces/inkscape" xmlns:rdf="http://www.w3.org/1999/02/22-rdf-syntax-ns#" xmlns:sodipodi="http://sodipodi.sourceforge.net/DTD/sodipodi-0.dtd" xmlns:xlink="http://www.w3.org/1999/xlink" xmlns="http://www.w3.org/2000/svg" version="1.1" id="svg1" width="16" height="16" viewBox="0 0 16 16" sodipodi:docname="show-node-handles-symbolic.svg">
<sodipodi:namedview objecttolerance="10" gridtolerance="10" guidetolerance="10" id="namedview" showgrid="true" inkscape:zoom="0.6002936" inkscape:cx="732.67439" inkscape:cy="-567.94603" inkscape:window-width="1920" inkscape:window-height="1016" inkscape:window-x="0" inkscape:window-y="27" inkscape:window-maximized="1" inkscape:current-layer="layer1">
    <inkscape:grid type="xygrid" id="grid"/>
  </sodipodi:namedview>
  <g transform="translate(-739,-558.36218)" id="show-node-handles" inkscape:label="00207">
      <path inkscape:connector-curvature="0" id="rect3742" d="m 739,558.36218 h 16 v 16 h -16 z" style="opacity:0"/>
      <path style="opacity:1" d="m 753.2341,561.2734 c -2.151,0.3304 -4.642,1.5803 -6.6549,3.424 -2.0128,1.8438 -3.5778,4.3218 -3.5778,7.0405 a 0.572514,0.6156193 0 1 0 1.1449,0 c 0,-2.2058 1.2973,-4.383 3.1485,-6.0787 1.8512,-1.6956 4.2261,-2.908 6.0824,-3.1932 a 0.572514,0.6156193 0 1 0 -0.1431,-1.1926 z" id="path4641" inkscape:connector-curvature="0"/>
      <path style="opacity:1" d="m 743.4825,560.5459 a 0.5499879,0.7684348 0 0 0 -0.4812,0.8164 v 9.2203 a 0.5499879,0.7684348 0 1 0 1.0999,0 v -9.2203 a 0.5499879,0.7684348 0 0 0 -0.6187,-0.8164 z" id="path4638" inkscape:connector-curvature="0"/>
      <path inkscape:connector-curvature="0" id="rect16999" d="m 742,568.36218 h 4 v 4 h -4 z" style="opacity:1"/>
      <path inkscape:connector-curvature="0" id="path17001" d="M 745,48.5 A 1.5,1.5 0 0 1 743.5,50 1.5,1.5 0 0 1 742,48.5 1.5,1.5 0 0 1 743.5,47 1.5,1.5 0 0 1 745,48.5 Z" style="opacity:1" transform="matrix(1.041676,0,0,1.041667,-30.98601,510.3413)"/>
    </g>
    </svg>
