<?xml version='1.0' encoding='UTF-8'?>
<!-- Created with Inkscape (http://www.inkscape.org/) and export_objects.py -->
<svg xmlns:cc="http://creativecommons.org/ns#" xmlns:dc="http://purl.org/dc/elements/1.1/" xmlns:inkscape="http://www.inkscape.org/namespaces/inkscape" xmlns:rdf="http://www.w3.org/1999/02/22-rdf-syntax-ns#" xmlns:sodipodi="http://sodipodi.sourceforge.net/DTD/sodipodi-0.dtd" xmlns:xlink="http://www.w3.org/1999/xlink" xmlns="http://www.w3.org/2000/svg" version="1.1" id="svg1" width="16" height="16" viewBox="0 0 16 16" sodipodi:docname="show-dialogs-symbolic.svg">
<sodipodi:namedview objecttolerance="10" gridtolerance="10" guidetolerance="10" id="namedview" showgrid="true" inkscape:zoom="0.6002936" inkscape:cx="732.67439" inkscape:cy="-567.94603" inkscape:window-width="1920" inkscape:window-height="1016" inkscape:window-x="0" inkscape:window-y="27" inkscape:window-maximized="1" inkscape:current-layer="layer1">
    <inkscape:grid type="xygrid" id="grid"/>
  </sodipodi:namedview>
  <g transform="matrix(1.000184,0,0,0.999999,-75.013769,-707.3613)" inkscape:label="00032" id="show-dialogs">
      <path inkscape:connector-curvature="0" id="rect11754" d="m -90.997063,707.36218 h 15.97647 v 16 h -15.97647 z" style="opacity:0;fill:none" transform="scale(-1,1)"/>
      <path inkscape:connector-curvature="0" style="opacity:1" d="m 75,195 v 16 h 15.09375 a 0.7182403,0.7182403 0 0 1 -0.3125,-0.1875 L 87.1875,208.375 c -0.63146,0.4213 -1.3783,0.6562 -2.1875,0.6562 -2.19923,0 -4,-1.8176 -4,-4.0312 0,-2.2136 1.80077,-4.0313 4,-4.0313 2.19923,0 4,1.8177 4,4.0313 0,0.87 -0.2788,1.6824 -0.75,2.3437 l 2.53125,2.4375 a 0.7182403,0.7182403 0 0 1 0.1875,0.3438 V 195 Z m 2.03125,1 H 89 v 2 H 77.03125 Z M 85,202.4375 c -1.41396,0 -2.53125,1.1393 -2.53125,2.5625 0,1.4232 1.11729,2.5625 2.53125,2.5625 1.41396,0 2.53125,-1.1393 2.53125,-2.5625 0,-1.4232 -1.11729,-2.5625 -2.53125,-2.5625 z m 5.96875,8.0937 A 0.7182403,0.7182403 0 0 1 90.4375,211 h 0.53125 z" transform="translate(0,512.3622)" id="rect11760"/>
    </g>
    </svg>
