<?xml version='1.0' encoding='UTF-8'?>
<!-- Created with Inkscape (http://www.inkscape.org/) and export_objects.py -->
<svg xmlns:cc="http://creativecommons.org/ns#" xmlns:dc="http://purl.org/dc/elements/1.1/" xmlns:inkscape="http://www.inkscape.org/namespaces/inkscape" xmlns:rdf="http://www.w3.org/1999/02/22-rdf-syntax-ns#" xmlns:sodipodi="http://sodipodi.sourceforge.net/DTD/sodipodi-0.dtd" xmlns:xlink="http://www.w3.org/1999/xlink" xmlns="http://www.w3.org/2000/svg" version="1.1" id="svg1" width="16" height="16" viewBox="0 0 16 16">

<sodipodi:namedview 
    objecttolerance="10" 
    gridtolerance="10" 
    guidetolerance="10" 
    id="namedview" 
    showgrid="true" 
    inkscape:zoom="27.166187"
    inkscape:cx="7.4837792"
    inkscape:cy="8.9906751"
    inkscape:window-x="0" 
    inkscape:window-y="27"> 
    <inkscape:grid type="xygrid" id="grid"/>
  </sodipodi:namedview>
  
<metadata
     id="metadata1906">
    <rdf:RDF>
      <cc:Work
         rdf:about="">
        <dc:format>image/svg+xml</dc:format>
        <dc:type
           rdf:resource="http://purl.org/dc/dcmitype/StillImage" />
        <cc:license
           rdf:resource="http://creativecommons.org/publicdomain/zero/1.0/" />
        <dc:title>LiveEffect Icons proposal</dc:title>
        <dc:date>13 Jan 2019</dc:date>
        <dc:creator>
          <cc:Agent>
            <dc:title>Ramón Miranda</dc:title>
          </cc:Agent>
        </dc:creator>
        <dc:rights>
          <cc:Agent>
            <dc:title>see the license tab</dc:title>
          </cc:Agent>
        </dc:rights>
        <dc:subject>
          <rdf:Bag>
            <rdf:li>icon ui</rdf:li>
          </rdf:Bag>
        </dc:subject>
        <dc:description>This is a contribution with Inkscape Project from
Ramon Miranda www.ramonmiranda.com (design and SVG file)
Jabiertxo (SVG stuff to integrate them in UI)</dc:description>
        <dc:publisher>
          <cc:Agent>
            <dc:title></dc:title>
          </cc:Agent>
        </dc:publisher>
        <dc:identifier></dc:identifier>
        <dc:source />
        <dc:relation />
        <dc:language>-</dc:language>
        <dc:coverage />
        <dc:contributor>
          <cc:Agent>
            <dc:title>Ramon Miranda
Jabier Arraiza</dc:title>
          </cc:Agent>
        </dc:contributor>
      </cc:Work>
      <cc:License
         rdf:about="http://creativecommons.org/publicdomain/zero/1.0/">
        <cc:permits
           rdf:resource="http://creativecommons.org/ns#Reproduction" />
        <cc:permits
           rdf:resource="http://creativecommons.org/ns#Distribution" />
        <cc:permits
           rdf:resource="http://creativecommons.org/ns#DerivativeWorks" />
      </cc:License>
    </rdf:RDF>
  </metadata>
  <g inkscape:groupmode="layer"
     id="layercompo"
     inkscape:label="simplify">
        <path 
            id="rect22048" 
            d="M 0,0 H 16 V 16 H 0 Z" 
            style="opacity:0;fill:none" />
        <path
           id="path9609"
           d="M 8.299461,0.8117267 V 0.8732882 1.462452 C 8.749784,1.480965 9.07479,1.775626 9.248374,2.14059 9.424128,2.510121 9.498991,2.959385 9.568206,3.423764 9.63742,3.888152 9.698507,4.366503 9.8082,4.767057 c 0.10969,0.400551 0.26767,0.709403 0.49634,0.878213 0.22019,0.162564 0.55538,0.218319 0.96527,0.199594 0.40987,-0.01872 0.87941,-0.108289 1.33752,-0.185165 0.45809,-0.07688 0.90269,-0.144145 1.3,-0.0909 0.39732,0.05324 0.77436,0.282262 0.90323,0.716133 0.13076,0.440257 -0.0515,0.847477 -0.34869,1.128788 -0.2972,0.281312 -0.7012,0.492365 -1.12158,0.701706 -0.42036,0.209334 -0.85811,0.413494 -1.20526,0.641587 -0.34714,0.228096 -0.59208,0.473972 -0.68198,0.743548 -0.0859,0.257504 -0.0309,0.594118 0.12024,0.979698 0.15111,0.38558 0.39007,0.80574 0.61417,1.21968 0.2241,0.41395 0.43631,0.8187 0.51654,1.2144 0.0401,0.19785 0.0468,0.3978 -0.013,0.59061 -0.0598,0.19282 -0.19092,0.36757 -0.37803,0.49634 -0.37447,0.2577 -0.81583,0.20619 -1.17592,0.009 C 10.77697,13.81337 10.44703,13.49282 10.11553,13.15771 9.784023,12.82258 9.453676,12.47104 9.133908,12.21264 8.864114,11.99461 8.608695,11.85364 8.38026,11.81441 c -0.02221,0.0268 -0.04201,0.0528 -0.06974,0.0818 -0.0032,0.003 -0.0078,0.007 -0.01106,0.0106 v 0.49297 0.062 H 7.617956 v -0.0375 c -0.03892,0.0211 -0.07629,0.045 -0.116391,0.063 -0.104916,0.0472 -0.225739,0.0459 -0.341955,0.0582 -0.06989,0.22212 -0.159038,0.43989 -0.307328,0.61609 -0.09821,0.11671 -0.197989,0.21701 -0.29963,0.29242 -0.05083,0.0377 -0.0996,0.0712 -0.170737,0.0947 -0.0094,0.003 -0.03014,-0.0116 -0.04184,-0.009 -0.08202,0.0541 -0.116307,0.0959 -0.116391,0.0962 -9.4e-5,3.2e-4 -0.0026,0.008 0.01635,0.0673 0.0094,0.0296 0.02572,0.0688 0.03078,0.13851 0.0051,0.0698 -0.02569,0.1894 -0.100035,0.25779 -0.101905,0.0938 -0.215714,0.0779 -0.32897,0.0818 -0.04345,0.0785 -0.08057,0.16209 -0.145248,0.22364 -0.09743,0.0927 -0.235587,0.16097 -0.381874,0.16352 -0.292572,0.005 -0.534198,-0.19326 -0.783466,-0.51991 a 0.2462709,0.2462709 0 0 1 -0.01635,-0.0255 c -0.15122,-0.25992 -0.25836,-0.3256 -0.352539,-0.50499 -0.04709,-0.0897 -0.0552,-0.26106 0,-0.3636 0.03068,-0.057 0.08052,-0.0968 0.121682,-0.13996 -0.01492,-0.26999 -0.101132,-0.49706 -0.192862,-0.67429 -0.05029,-0.0972 -0.102148,-0.16927 -0.126969,-0.30204 -0.01242,-0.0664 -0.01,-0.17444 0.05435,-0.26163 0.03124,-0.0424 0.07113,-0.0428 0.109175,-0.0635 0.189274,-0.4682 0.467361,-0.82293 0.756052,-1.00711 0.157716,-0.10062 0.31177,-0.16473 0.452574,-0.19622 0.06978,-0.0156 0.13859,0.0154 0.205367,0.0163 C 5.55505,10.3942 5.544171,10.10711 5.525343,9.767971 5.248658,9.605517 5.014267,9.429426 4.892895,9.340406 4.819109,9.286286 4.773162,9.2642 4.736586,9.257201 c -0.03657,-0.007 -0.08015,-0.0085 -0.176509,0.03078 A 0.2462709,0.2462709 0 0 1 4.221969,9.066265 C 4.218303,8.900955 4.079772,8.6251 3.907909,8.437182 3.82198,8.34322 3.728842,8.269602 3.665993,8.235184 3.634572,8.217981 3.617713,8.217368 3.616455,8.216427 A 0.2462709,0.2462709 0 0 1 3.335099,8.119276 C 3.039651,7.674897 2.855397,7.65063 2.800764,7.651792 c -0.01154,2.46e-4 -0.0185,0.0023 -0.02116,0.0029 -0.0098,0.0097 -0.01756,0.01997 -0.05146,0.03367 -0.0102,0.0041 -0.04514,0.01239 -0.04569,0.0125 -2.71e-4,5.7e-5 -0.045,0.0058 -0.04521,0.0058 -2.07e-4,10e-6 -0.08162,-0.01294 -0.08176,-0.01299 -6.4e-5,-1.7e-5 -0.06006,-0.02882 -0.06012,-0.02886 -5.5e-5,-3.9e-5 -0.06008,-0.0567 -0.06012,-0.05675 -3.9e-5,-4.7e-5 -0.03798,-0.07401 -0.03799,-0.07407 0,0 1.7e-5,-0.0018 0,-0.0019 -0.02196,-0.01302 -0.0326,-0.01931 -0.05819,-0.03463 C 2.185488,7.405529 1.974819,7.274587 1.772012,7.124673 1.569196,6.974755 1.373614,6.814405 1.248258,6.61198 1.185576,6.510766 1.136411,6.38928 1.148221,6.248381 c 0.0066,-0.07865 0.07454,-0.133958 0.120237,-0.201518 0.0052,-0.07299 0.01003,-0.138475 0.03799,-0.207288 0.03141,-0.0773 0.123448,-0.180774 0.236146,-0.201518 0.112699,-0.02076 0.183724,0.01632 0.232782,0.04136 0.04905,0.02504 0.08386,0.05034 0.118311,0.0731 0.06888,0.04554 0.129727,0.07852 0.159675,0.08513 0.02995,0.0066 0.02365,0.01625 0.07647,-0.02886 0.107755,-0.129713 0.154624,-0.210816 0.285685,-0.281839 0.03592,-0.01947 0.08933,-0.03884 0.154384,-0.03655 0.06505,0.0023 0.128787,0.03155 0.165447,0.06012 0.07333,0.05713 0.08319,0.09404 0.100036,0.120237 0.03367,0.0524 0.0531,0.08607 0.125049,0.136107 0.07194,0.05004 0.19895,0.111617 0.434777,0.149095 a 0.2462709,0.2462709 0 0 1 0.04184,0.0091 c 0.690158,0.237645 1.057109,0.694607 1.27596,0.921501 0.0809,0.08387 0.134288,0.114896 0.147171,0.125529 0.0035,-0.0022 0.0037,-0.0016 0.01106,-0.0072 0.0292,-0.02236 0.08092,-0.0785 0.145248,-0.167372 7.44e-4,-0.001 0.0012,-8.91e-4 0.0019,-0.0019 0.07996,-0.511399 0.0051,-0.529986 0.492492,-1.221613 A 0.2462709,0.2462709 0 0 1 5.689348,5.510605 C 5.878167,5.492437 5.916316,5.452436 5.92886,5.436056 5.941415,5.419676 5.958335,5.366312 5.961566,5.247045 5.968032,5.008489 5.948865,4.555957 6.332375,4.196169 6.516664,3.906081 6.668905,3.730986 6.788798,3.61999 6.895427,3.521272 6.993113,3.408113 7.114401,3.241965 c -0.0048,-0.05204 -0.0063,-0.102761 0.0014,-0.145248 0.0204,-0.111532 0.06116,-0.213811 0.109172,-0.330893 0.09054,-0.22077 0.208136,-0.485689 0.290978,-0.752686 -0.02758,-0.07689 -0.06186,-0.14338 -0.04906,-0.247207 0.0046,-0.03704 0.01596,-0.08801 0.0582,-0.14188 0.02299,-0.02933 0.05693,-0.05283 0.09282,-0.0707 V 1.493233 0.8732882 0.8117267 Z M 8.280702,1.555274 H 7.869011 c 0.01113,0.007 0.02499,0.01405 0.03415,0.01972 0.07067,0.04373 0.112497,0.08593 0.152461,0.12168 0.03996,0.03575 0.09694,0.06597 0.04377,0.04184 l -0.09811,0.216429 a 0.2462709,0.2462709 0 0 1 0.0053,0.151017 c -0.0069,0.02359 -0.01532,0.04552 -0.0226,0.06877 h 0.315502 v 0.06205 0.619944 0.06156 H 7.695868 c -0.0042,0.01014 -0.01041,0.02483 -0.01443,0.03463 -0.04063,0.09907 -0.06506,0.173256 -0.07455,0.214503 A 0.2462709,0.2462709 0 0 1 7.599679,3.42761 C 7.400453,3.730914 7.245729,3.867096 7.12354,3.980224 7.001338,4.093349 6.900783,4.18921 6.710883,4.503497 a 0.2462709,0.2462709 0 0 1 -0.04184,0.0529 C 6.427581,4.782913 6.462216,4.976302 6.454538,5.259549 6.450694,5.401163 6.441531,5.577357 6.319871,5.736169 6.232638,5.850031 6.063885,5.884717 5.901927,5.926625 5.424192,6.602478 5.584607,6.327295 5.461858,7.022709 A 0.2462709,0.2462709 0 0 1 5.418091,7.124673 C 5.336069,7.238542 5.260203,7.32705 5.170885,7.395447 5.081566,7.463842 4.969426,7.511336 4.852976,7.509913 4.620087,7.507046 4.484419,7.35904 4.35856,7.228556 4.108853,6.969673 3.841583,6.629555 3.289408,6.435471 3.015089,6.388377 2.819168,6.30875 2.680527,6.21231 2.608359,6.162118 2.592259,6.12394 2.549709,6.074277 c -0.03478,0.03469 -0.01706,0.01861 -0.07262,0.0832 a 0.2462709,0.2462709 0 0 1 -0.02741,0.02549 C 2.297996,6.312469 2.0958,6.350669 1.946115,6.317637 1.841906,6.29464 1.78514,6.250267 1.721032,6.210387 a 0.2462709,0.2462709 0 0 1 -0.06733,0.07455 c -0.01037,0.0076 -0.0101,0.0074 -0.0125,0.0091 3.54e-4,-0.0031 -0.002,0.01461 0.02501,0.0582 0.05762,0.09305 0.218007,0.244806 0.398225,0.378025 0.180221,0.133212 0.380601,0.256507 0.529045,0.345323 0.06662,0.03986 0.117802,0.0691 0.160156,0.09475 0.01507,-0.0013 0.01975,-0.01071 0.03607,-0.01106 0.239932,-0.0051 0.555475,0.205463 0.871,0.625234 0.08165,0.0127 0.175458,-0.01592 0.241434,0.0202 0.131425,0.07196 0.254248,0.176202 0.368889,0.301556 0.168717,0.184473 0.251689,0.443613 0.325604,0.69786 0.0783,-0.0112 0.159654,-0.04479 0.23278,-0.03078 0.142816,0.02734 0.257572,0.09681 0.356385,0.169293 0.197622,0.144956 0.366442,0.31673 0.692568,0.47614 a 0.2462709,0.2462709 0 0 1 0.138029,0.205367 c 0.02774,0.432812 0.03812,0.741032 0.01443,0.963342 -0.01185,0.11114 -0.01518,0.20293 -0.103406,0.31454 -0.04411,0.0558 -0.131765,0.11381 -0.221717,0.11976 -0.08995,0.006 -0.158354,-0.0268 -0.207287,-0.0577 l 0.0091,0.007 c 0.05995,0.0342 0.01166,0.003 -0.06397,0.0197 -0.07563,0.0169 -0.183633,0.0575 -0.296267,0.12937 -0.225274,0.14372 -0.475208,0.40502 -0.623309,0.84311 a 0.2462709,0.2462709 0 0 1 -0.03655,0.0673 c 0.01412,0.0313 0.01363,0.0329 0.03992,0.0837 0.105149,0.20317 0.271976,0.53594 0.267406,0.97055 a 0.2462709,0.2462709 0 0 1 -0.0784,0.17651 c -0.05529,0.0515 -0.06259,0.0619 -0.07984,0.0818 0.03007,0.0351 0.138085,0.16209 0.285682,0.40737 0.207724,0.2722 0.356661,0.32562 0.385243,0.32512 0.01429,-2.5e-4 0.02028,-3e-5 0.04905,-0.0274 0.02878,-0.0274 0.07039,-0.0861 0.107252,-0.17266 a 0.2462709,0.2462709 0 0 1 0.225567,-0.14909 c 0.08759,-4.5e-4 0.04957,0.0113 0.07407,0.006 -0.01602,-0.0691 -0.04418,-0.12851 -0.01443,-0.23278 0.04509,-0.15802 0.173722,-0.29275 0.367446,-0.40352 a 0.2462709,0.2462709 0 0 1 0.13611,-0.0327 c 0.0039,-0.003 0.0014,-6.1e-4 0.0058,-0.004 0.05236,-0.0389 0.136253,-0.1198 0.215949,-0.2145 0.159399,-0.18941 0.291101,-0.47103 0.292896,-0.51799 a 0.2462709,0.2462709 0 0 1 0.294342,-0.23277 c 0.03035,0.006 0.122359,-0.005 0.236147,-0.0563 0.100356,-0.0451 0.213863,-0.11648 0.320313,-0.19382 v -0.064 -0.062 h 0.160156 c 0.06905,-0.0589 0.132716,-0.11635 0.177952,-0.16352 0.03496,-0.0365 0.0602,-0.0673 0.0707,-0.0818 h 0.0019 c -0.0052,0.0109 -0.03799,0.0311 -0.01299,0.13803 l 0.239994,-0.0558 v -0.24577 c 0.438683,-5e-5 0.827617,0.22951 1.186984,0.51991 0.359379,0.29042 0.698643,0.65325 1.023463,0.98162 0.32482,0.32837 0.63869,0.61976 0.90707,0.76663 0.26838,0.14688 0.43876,0.17044 0.65986,0.0183 0.11046,-0.076 0.15951,-0.14722 0.18709,-0.23615 0.0276,-0.0889 0.0292,-0.20345 0,-0.34724 -0.0583,-0.28761 -0.24499,-0.67125 -0.46508,-1.07781 C 11.53498,11.5281 11.28565,11.09426 11.11494,10.65869 10.94423,10.22311 10.84338,9.772012 10.98604,9.344255 11.12973,8.913427 11.47448,8.603352 11.8657,8.346283 12.25693,8.089217 12.70772,7.879228 13.12002,7.673917 13.53231,7.468605 13.9045,7.263432 14.12376,7.055896 14.34302,6.84835 14.41772,6.694333 14.33826,6.426813 14.26145,6.16823 14.12972,6.09457 13.84193,6.056001 13.55413,6.017434 13.13706,6.069554 12.68765,6.144977 12.23824,6.2204 11.75444,6.316684 11.29145,6.337837 10.82846,6.358992 10.37266,6.308095 10.01164,6.041573 9.646251,5.77182 9.455693,5.349308 9.33206,4.897875 9.208436,4.446432 9.148888,3.951841 9.081003,3.496387 9.01312,3.040925 8.934584,2.623838 8.804939,2.351246 8.675293,2.078654 8.549192,1.96014 8.270124,1.953019 Z m 0.01876,1.982955 v 0.06204 0.619462 0.06204 H 7.617956 V 4.219735 3.600273 3.538229 Z m 0,1.363493 v 0.06156 0.619945 0.06204 H 7.617956 V 5.583228 4.963283 4.901722 Z m 0,1.363012 v 0.06204 0.619944 0.06156 H 7.617956 V 6.94672 6.326776 6.264734 Z M 2.604536,7.217495 c -0.01,0.0011 -0.02032,0.0019 -0.0202,0.0019 5.49e-4,-1.11e-4 -0.03137,0.0071 -0.03992,0.01058 -0.02011,0.0081 -0.0013,-0.0011 -0.0072,0.0019 -0.0011,0.0013 -0.004,0.0052 -0.0058,0.0072 0.01891,-0.01188 0.0513,-0.0123 0.0731,-0.02164 z m 5.694925,0.410731 v 0.06204 0.619465 0.06204 H 7.617956 V 8.309733 7.690268 7.628226 Z m -5.511684,0.0202 c -2.68e-4,2.04e-4 -0.0012,-1.87e-4 -0.0014,0 -0.0016,0.0013 -0.0029,0.0026 -0.0043,0.0038 0.001,-6.97e-4 3.24e-4,-1.2e-4 0.0058,-0.0038 z m 5.511684,1.343293 v 0.06156 0.619945 0.06204 H 7.617956 V 9.673225 9.05328 8.991719 Z m 0,1.363011 v 0.062 0.61995 0.0616 H 7.617956 v -0.0616 -0.61995 -0.062 z m -2.626465,0.17459 c -0.0045,2.9e-4 -0.0065,0.005 -0.01106,0.006 0.02175,0.007 0.0407,-0.006 0.06349,0.005 -0.01468,-0.006 -0.01962,-0.0132 -0.05242,-0.0111 z m 2.626465,2.55239 v 0.0616 0.61995 0.0616 H 7.617956 v -0.0616 -0.61995 -0.0616 z m 0,1.36302 v 0.062 0.61994 0.0616 H 7.617956 v -0.0616 -0.61994 -0.062 z"
           style="opacity:1;" />
    </g>
</svg>
