<?xml version="1.0" encoding="UTF-8" standalone="no"?>
<svg
   inkscape:version="1.1-dev (8101ba8e9d, 2020-10-10, custom)"
   sodipodi:docname="slice-symbolic.svg"
   viewBox="0 0 16 16"
   height="16"
   width="16"
   id="svg1"
   version="1.1"
   xmlns:inkscape="http://www.inkscape.org/namespaces/inkscape"
   xmlns:sodipodi="http://sodipodi.sourceforge.net/DTD/sodipodi-0.dtd"
   xmlns="http://www.w3.org/2000/svg"
   xmlns:svg="http://www.w3.org/2000/svg"
   xmlns:rdf="http://www.w3.org/1999/02/22-rdf-syntax-ns#"
   xmlns:cc="http://creativecommons.org/ns#"
   xmlns:dc="http://purl.org/dc/elements/1.1/">
  <metadata
     id="metadata1569">
    <rdf:RDF>
      <cc:Work
         rdf:about="">
        <dc:format>image/svg+xml</dc:format>
        <dc:type
           rdf:resource="http://purl.org/dc/dcmitype/StillImage" />
      </cc:Work>
    </rdf:RDF>
  </metadata>
  <defs
     id="defs1567" />
  <sodipodi:namedview
     inkscape:document-rotation="0"
     inkscape:current-layer="layercompo"
     inkscape:window-maximized="1"
     inkscape:window-y="0"
     inkscape:window-x="1280"
     inkscape:window-height="987"
     inkscape:window-width="1280"
     inkscape:cy="4.9267327"
     inkscape:cx="10.344554"
     inkscape:zoom="31.5625"
     showgrid="true"
     id="namedview"
     guidetolerance="10"
     gridtolerance="10"
     objecttolerance="10">
    <inkscape:grid
       id="grid"
       type="xygrid" />
  </sodipodi:namedview>
  <g
     inkscape:groupmode="layer"
     id="layercompo"
     inkscape:label="bend-path">
    <path
       id="rect22048"
       d="M 0,0 H 16 V 16 H 0 Z"
       style="opacity:0;fill:none" />
    <path
       id="path857"
       style="opacity:0.49640359"
       d="m 12.648911,3.2803999 -1.562146,2.1800223 0.727838,0.5201334 1.560401,-2.1800223 z M 10.566632,6.1865145 9.0062311,8.3665368 9.7323234,8.8866703 11.29447,6.7066479 Z M 8.4860976,9.0926293 6.9256975,11.272651 7.6517896,11.792785 9.2121899,9.6127627 Z M 6.4055643,12.000489 4.8451638,14.178766 5.5712561,14.6989 7.1316566,12.520623 Z" />
    <path
       id="path861"
       style="opacity:1;"
       d="M 12.844398,6.0398997 12.769344,6.1411338 8.3202832,12.218666 12.385354,14.517377 11.514391,9.6319622 14.965076,6.238877 Z" />
    <path
       d="M 8.0637073,1.3011002 7.8612393,1.704291 5.8924123,5.6052916 1.0349245,6.2563311 4.5885873,9.5970539 4.0038743,13.81572 10.123296,5.5546746 Z M 8.0549802,2.3082042 9.6031627,5.5058029 4.6863305,12.143614 5.06334,9.4294942 2.0245744,6.5739965 6.1856419,6.0172094 Z"
       style="opacity:1;"
       id="path870" />
  </g>
</svg>
