<?xml version='1.0' encoding='UTF-8'?>
<!-- Created with Inkscape (http://www.inkscape.org/) and export_objects.py -->
<svg xmlns:cc="http://creativecommons.org/ns#" xmlns:dc="http://purl.org/dc/elements/1.1/" xmlns:inkscape="http://www.inkscape.org/namespaces/inkscape" xmlns:rdf="http://www.w3.org/1999/02/22-rdf-syntax-ns#" xmlns:sodipodi="http://sodipodi.sourceforge.net/DTD/sodipodi-0.dtd" xmlns:xlink="http://www.w3.org/1999/xlink" xmlns="http://www.w3.org/2000/svg" version="1.1" id="svg1" width="16" height="16" viewBox="0 0 16 16" sodipodi:docname="snap-symbolic.svg">
<sodipodi:namedview objecttolerance="10" gridtolerance="10" guidetolerance="10" id="namedview" showgrid="true" inkscape:zoom="0.6002936" inkscape:cx="732.67439" inkscape:cy="-567.94603" inkscape:window-width="1920" inkscape:window-height="1016" inkscape:window-x="0" inkscape:window-y="27" inkscape:window-maximized="1" inkscape:current-layer="layer1">
    <inkscape:grid type="xygrid" id="grid"/>
  </sodipodi:namedview>
  <g transform="matrix(0.996066,0,0,0.998048,-556.80064,-504.35705)" id="snap" inkscape:label="00320">
      <path inkscape:connector-curvature="0" id="rect22340" d="m 559,505.36209 h 16 v 16 h -16 z" style="opacity:0;fill:none"/>
      <path inkscape:connector-curvature="0" id="rect22342" d="m 559,505.3627 h 16 v 16 h -16 z" style="opacity:0;fill:none"/>
      <path inkscape:connector-curvature="0" id="rect22373" d="m 562.5,505.36209 c 0.831,0 1.5,0.669 1.5,1.5 0,0.831 -0.669,1.5 -1.5,1.5 -0.831,0 -1.5,-0.669 -1.5,-1.5 0,-0.831 0.669,-1.5 1.5,-1.5 z" style="opacity:1"/>
      <path inkscape:connector-curvature="0" id="rect22375" d="m 562.5,518.36212 c 0.831,0 1.5,0.669 1.5,1.5 0,0.831 -0.669,1.5 -1.5,1.5 -0.831,0 -1.5,-0.669 -1.5,-1.5 0,-0.831 0.669,-1.5 1.5,-1.5 z" style="opacity:1"/>
      <path style="opacity:1" d="m 561,510.3622 -2,2 2,2 -2,2 h 2 l 2,-2 -2,-2 2,-2 z" id="path22386" inkscape:connector-curvature="0"/>
      <path style="opacity:1" d="m 565,505.3437 v 3 h 1.5312 c 3.1184,0 5.5313,2.3107 5.5313,5.0313 0,2.7206 -2.4129,5 -5.5313,5 -0.1174,0 -0.23,-0.025 -0.3437,-0.031 h -0.031 -0.031 -1.1563 v 3 h 1.0625 0.094 c 0.1425,0.01 0.2659,0.031 0.4063,0.031 4.6236,0 8.5312,-3.5331 8.5312,-8 0,-4.467 -3.9076,-8.0313 -8.5312,-8.0313 h -1.5313 z" id="path14123" inkscape:connector-curvature="0"/>
    </g>
    </svg>
