<?xml version='1.0' encoding='UTF-8'?>
<!-- Created with Inkscape (http://www.inkscape.org/) and export_objects.py -->
<svg xmlns:cc="http://creativecommons.org/ns#" xmlns:dc="http://purl.org/dc/elements/1.1/" xmlns:inkscape="http://www.inkscape.org/namespaces/inkscape" xmlns:rdf="http://www.w3.org/1999/02/22-rdf-syntax-ns#" xmlns:sodipodi="http://sodipodi.sourceforge.net/DTD/sodipodi-0.dtd" xmlns:xlink="http://www.w3.org/1999/xlink" xmlns="http://www.w3.org/2000/svg" version="1.1" id="svg1" width="16" height="16" viewBox="0 0 16 16" sodipodi:docname="snap-nodes-intersection-symbolic.svg">
<sodipodi:namedview objecttolerance="10" gridtolerance="10" guidetolerance="10" id="namedview" showgrid="true" inkscape:zoom="0.6002936" inkscape:cx="732.67439" inkscape:cy="-567.94603" inkscape:window-width="1920" inkscape:window-height="1016" inkscape:window-x="0" inkscape:window-y="27" inkscape:window-maximized="1" inkscape:current-layer="layer1">
    <inkscape:grid type="xygrid" id="grid"/>
  </sodipodi:namedview>
  <g transform="translate(-889,-506.36221)" id="snap-nodes-intersection" inkscape:label="00330">
      <path inkscape:connector-curvature="0" id="rect22819" d="m 889,506.36221 h 16 v 16 h -16 z" style="opacity:0;fill:none"/>
      <path inkscape:connector-curvature="0" id="path22821" d="m 903.9062,506.861 a 0.50005,0.50005 0 0 0 -0.25,0.1563 l -14,14 a 0.50005,0.50005 0 1 0 0.6875,0.6875 l 14,-14 a 0.50005,0.50005 0 0 0 -0.4375,-0.8438 z" style="opacity:1"/>
      <path inkscape:connector-curvature="0" id="path22823" d="m 904.2695,513.3197 a 0.5000501,0.5000501 0 0 0 -0.037,0.024 l -14.5187,1.098 a 0.5000501,0.5000501 0 1 0 0.056,0.9687 l 14.5187,-1.098 a 0.5000501,0.5000501 0 0 0 -0.019,-0.993 z" style="opacity:1"/>
      <path inkscape:connector-curvature="0" id="path22825" d="m 755.5,33 a 2,2 0 0 1 -2,2 2,2 0 0 1 -2,-2 2,2 0 0 1 2,-2 2,2 0 0 1 2,2 z" style="opacity:1" transform="matrix(1.500009,0,0,1.499983,-233.2565,464.8628)"/>
    </g>
    </svg>
