<?xml version='1.0' encoding='UTF-8'?>
<!-- Created with Inkscape (http://www.inkscape.org/) and export_objects.py -->
<svg xmlns:cc="http://creativecommons.org/ns#" xmlns:dc="http://purl.org/dc/elements/1.1/" xmlns:inkscape="http://www.inkscape.org/namespaces/inkscape" xmlns:rdf="http://www.w3.org/1999/02/22-rdf-syntax-ns#" xmlns:sodipodi="http://sodipodi.sourceforge.net/DTD/sodipodi-0.dtd" xmlns:xlink="http://www.w3.org/1999/xlink" xmlns="http://www.w3.org/2000/svg" version="1.1" id="svg1" width="16" height="16" viewBox="0 0 16 16" sodipodi:docname="snap-nodes-cusp-symbolic.svg">
<sodipodi:namedview objecttolerance="10" gridtolerance="10" guidetolerance="10" id="namedview" showgrid="true" inkscape:zoom="0.6002936" inkscape:cx="732.67439" inkscape:cy="-567.94603" inkscape:window-width="1920" inkscape:window-height="1016" inkscape:window-x="0" inkscape:window-y="27" inkscape:window-maximized="1" inkscape:current-layer="layer1">
    <inkscape:grid type="xygrid" id="grid"/>
  </sodipodi:namedview>
  <g transform="matrix(0.999999,0,0,1,-798.99887,-527.36241)" inkscape:label="00200" id="snap-nodes-cusp">
      <path inkscape:connector-curvature="0" id="rect17717" d="m 799,527.36267 h 16 v 16 h -16 z" style="opacity:0;fill:none"/>
      <path inkscape:connector-curvature="0" id="path17721" d="m 807.5529,540.8499 c 3.5935,0 5.5271,-1.3585 6.4851,-2.7886 0.958,-1.4301 0.962,-2.9183 0.962,-2.9183 a 0.4965226,0.518863 0 1 0 -0.993,0 c 0,0 0.004,1.1383 -0.7757,2.3022 -0.6813,1.0171 -2.1693,1.9234 -4.7165,2.1725 1.4171,-2.1812 2.0669,-4.0921 1.7997,-5.6745 -0.3113,-1.8434 -1.5454,-3.1972 -2.9788,-4.1505 -2.867,-1.9064 -6.6714,-2.3995 -6.6714,-2.3995 a 0.4965226,0.518863 0 1 0 -0.1241,1.0052 c 0,0 3.6426,0.5447 6.2369,2.2698 1.2972,0.8626 2.2972,1.9732 2.5444,3.4372 0.2473,1.4639 -0.2074,3.3757 -2.141,5.9014 a 0.4965226,0.518863 0 0 0 0.3724,0.8431 z" style="opacity:1"/>
      <path inkscape:connector-curvature="0" id="rect17723" d="m -190.606,-954.81677 h 4.13284 v 4.17568 h -4.13284 z" style="opacity:1" transform="rotate(135.0001)"/>
    </g>
    </svg>
