<?xml version='1.0' encoding='UTF-8'?>
<!-- Created with Inkscape (http://www.inkscape.org/) and export_objects.py -->
<svg xmlns:cc="http://creativecommons.org/ns#" xmlns:dc="http://purl.org/dc/elements/1.1/" xmlns:inkscape="http://www.inkscape.org/namespaces/inkscape" xmlns:rdf="http://www.w3.org/1999/02/22-rdf-syntax-ns#" xmlns:sodipodi="http://sodipodi.sourceforge.net/DTD/sodipodi-0.dtd" xmlns:xlink="http://www.w3.org/1999/xlink" xmlns="http://www.w3.org/2000/svg" version="1.1" id="svg1" width="16" height="16" viewBox="0 0 16 16" sodipodi:docname="snap-bounding-box-midpoints-symbolic.svg">
<sodipodi:namedview objecttolerance="10" gridtolerance="10" guidetolerance="10" id="namedview" showgrid="true" inkscape:zoom="0.6002936" inkscape:cx="732.67439" inkscape:cy="-567.94603" inkscape:window-width="1920" inkscape:window-height="1016" inkscape:window-x="0" inkscape:window-y="27" inkscape:window-maximized="1" inkscape:current-layer="layer1">
    <inkscape:grid type="xygrid" id="grid"/>
  </sodipodi:namedview>
  <g transform="translate(-679,-506.42468)" id="snap-bounding-box-midpoints" inkscape:label="00325">
      <path inkscape:connector-curvature="0" id="rect22519" d="m 679,506.48691 h 16 v 15.93774 h -16 z" style="opacity:0;fill:none"/>
      <path inkscape:connector-curvature="0" id="path22521" d="m 694.9062,506.4247 -1.9375,0.083 v 3.9641 h 2 c 0,-0.8809 -0.062,-3.1658 -0.062,-4.0467 z" style="opacity:1"/>
      <path inkscape:connector-curvature="0" id="rect22525" d="m -694.96881,-522.42468 h 2 v 3.98443 h -2 z" style="opacity:1" transform="scale(-1)"/>
      <path inkscape:connector-curvature="0" id="rect22527" d="m -522.36243,686 h 1.99222 v 3 h -1.99222 z" style="opacity:1" transform="rotate(-90)"/>
      <path inkscape:connector-curvature="0" id="rect22531" d="m -694.96881,-522.42468 h 4 v 1.99222 h -4 z" style="opacity:1" transform="scale(-1)"/>
      <path inkscape:connector-curvature="0" id="rect22541" d="m -508.4169,686 h 1.99222 v 3 h -1.99222 z" style="opacity:1" transform="rotate(-90)"/>
      <path inkscape:connector-curvature="0" id="rect22626" d="m 691,506.42471 h 4 v 1.99222 h -4 z" style="opacity:1"/>
      <path inkscape:connector-curvature="0" id="rect22628" d="m 513.39752,-688 h 1.99222 v 7 h -1.99222 z" style="opacity:1" transform="rotate(90)"/>
      <path style="opacity:1" d="m 688,511.4052 v 5.9767 l 4,-2.9884 z" id="path22632" inkscape:connector-curvature="0"/>
      <path inkscape:connector-curvature="0" id="rect22646" d="m 693,512.40143 h 2 v 3.98443 h -2 z" style="opacity:1"/>
      <path inkscape:connector-curvature="0" id="rect22650" d="m 681,510.40909 h 2 v 7.96887 h -2 z" style="opacity:1"/>
      <path inkscape:connector-curvature="0" id="path22652" d="m 685,518.378 h -6 l 3,3.9844 z" style="opacity:1"/>
      <path style="opacity:1" d="m 685,510.4091 h -6 l 3,-3.9844 z" id="path22654" inkscape:connector-curvature="0"/>
    </g>
    </svg>
