<?xml version="1.0" encoding="UTF-8" standalone="no"?>
<!-- Created with Inkscape (http://www.inkscape.org/) -->

<svg
   width="16"
   height="16"
   viewBox="0 0 16 16"
   version="1.1"
   id="svg689"
   xmlns="http://www.w3.org/2000/svg"
   xmlns:svg="http://www.w3.org/2000/svg">
  <defs
     id="defs686" />
  <g
     id="layer1">
    <path
       id="path78"
       style="color:#000000;font-weight:500;font-stretch:condensed;font-size:12.9173px;font-family:Futura;-inkscape-font-specification:'Futura, Medium Condensed';font-variant-numeric:oldstyle-nums;stroke:none;stroke-width:0.1;stroke-miterlimit:10;stroke-dasharray:none;stroke-opacity:1"
       d="m 2.45312,0.36133 -0.01,0.041 -2.30274,10.58399 h 1.4668 L 2.00953,8.93358 h 2.00195 l 0.39453,2.05274 h 1.26563 l -2.04297,4.03125 h 1.81445 l 1.39844,-2.79883 h 5.49414 l 1.31445,2.79883 h 1.84766 l -5,-10.22852 H 8.81226 L 5.84351,10.64843 3.63843,0.36132 Z M 3.02734,2.83008 C 3.15293,3.98141 3.29816,5.09245 3.48633,6.11914 L 3.79102,7.73633 H 2.22461 l 0.25,-1.29102 C 2.61101,5.71783 2.72808,5.03253 2.82812,4.38672 2.90902,3.86102 2.97022,3.34397 3.02734,2.83008 Z m 6.61328,3.70898 2.01758,4.2461 H 7.5293 l 2.02148,-4.0625 z" />
  </g>
</svg>
