<?xml version='1.0' encoding='UTF-8'?>
<!-- Created with Inkscape (http://www.inkscape.org/) and export_objects.py -->
<svg xmlns:cc="http://creativecommons.org/ns#" xmlns:dc="http://purl.org/dc/elements/1.1/" xmlns:inkscape="http://www.inkscape.org/namespaces/inkscape" xmlns:rdf="http://www.w3.org/1999/02/22-rdf-syntax-ns#" xmlns:sodipodi="http://sodipodi.sourceforge.net/DTD/sodipodi-0.dtd" xmlns:xlink="http://www.w3.org/1999/xlink" xmlns="http://www.w3.org/2000/svg" version="1.1" id="svg1" width="16" height="16" viewBox="0 0 16 16" sodipodi:docname="sticky_zoom-symbolic.svg">
<sodipodi:namedview objecttolerance="10" gridtolerance="10" guidetolerance="10" id="namedview" showgrid="true" inkscape:zoom="0.6002936" inkscape:cx="732.67439" inkscape:cy="-567.94603" inkscape:window-width="1920" inkscape:window-height="1016" inkscape:window-x="0" inkscape:window-y="27" inkscape:window-maximized="1" inkscape:current-layer="layer1">
    <inkscape:grid type="xygrid" id="grid"/>
  </sodipodi:namedview>
  <g transform="translate(-225,-961.3622)" id="sticky_zoom" inkscape:label="00261">
      <path inkscape:connector-curvature="0" id="rect31515" d="m 225,449 h 16 v 16 h -16 z" style="opacity:0;fill:none" transform="translate(0,512.3622)"/>
      <path inkscape:connector-curvature="0" id="path31464" d="m 231.5,962.3622 c -3.0424,0 -5.5,2.4892 -5.5,5.5312 0,3.0421 2.4576,5.4688 5.5,5.4688 1.0822,0 2.0862,-0.3048 2.9375,-0.8438 l 2.7702,2.5867 c 0.3805,0.3796 0.9689,0.354 1.3438,-0.031 l 0.1875,-0.1875 c 0.3748,-0.3852 0.3804,-0.9955 0,-1.375 l -2.7078,-2.5241 c 0.6165,-0.8895 1,-1.9296 1,-3.0938 0,-3.042 -2.4888,-5.5312 -5.5312,-5.5312 z m 0.031,2.0625 c 1.9417,0 3.5,1.5559 3.5,3.4687 0,1.9129 -1.5583,3.4688 -3.5,3.4688 -1.9417,0 -3.5313,-1.5559 -3.5313,-3.4688 0,-1.9128 1.5896,-3.4687 3.5313,-3.4687 z" style="opacity:1"/>
    </g>
    </svg>
