<?xml version='1.0' encoding='UTF-8'?>
<!-- Created with Inkscape (http://www.inkscape.org/) and export_objects.py -->
<svg xmlns:cc="http://creativecommons.org/ns#" xmlns:dc="http://purl.org/dc/elements/1.1/" xmlns:inkscape="http://www.inkscape.org/namespaces/inkscape" xmlns:rdf="http://www.w3.org/1999/02/22-rdf-syntax-ns#" xmlns:sodipodi="http://sodipodi.sourceforge.net/DTD/sodipodi-0.dtd" xmlns:xlink="http://www.w3.org/1999/xlink" xmlns="http://www.w3.org/2000/svg" version="1.1" id="svg1" width="16" height="16" viewBox="0 0 16 16" sodipodi:docname="stroke-join-round-symbolic.svg">
<sodipodi:namedview objecttolerance="10" gridtolerance="10" guidetolerance="10" id="namedview" showgrid="true" inkscape:zoom="0.6002936" inkscape:cx="732.67439" inkscape:cy="-567.94603" inkscape:window-width="1920" inkscape:window-height="1016" inkscape:window-x="0" inkscape:window-y="27" inkscape:window-maximized="1" inkscape:current-layer="layer1">
    <inkscape:grid type="xygrid" id="grid"/>
  </sodipodi:namedview>
  <g transform="matrix(0.666664,0,0,0.666667,-747.33022,-664.90863)" inkscape:label="00315" id="stroke-join-round">
      <path inkscape:connector-curvature="0" id="rect24312" d="m 1121,997.36212 h 24.0001 v 23.99998 H 1121 Z" style="opacity:0;fill:none"/>
      <path inkscape:connector-curvature="0" id="path24330" d="m 1123,1020.362 v -6 -8.4 c 0,-3.324 3.476,-6.5998 6.8,-6.5998 h 14.2 v 4.9998 h -12 c -4,0 -4,0 -4,3 v 8.2 4.8 z" style="opacity:1"/>
      <path inkscape:connector-curvature="0" id="path24332" d="m 1132,1008.362 h 12 v 5 h -2 -5 v 7 h -5 z" style="opacity:1"/>
      <path inkscape:connector-curvature="0" id="rect24550" d="m 1132,1005.362 h 2 v 2 h -2 z" style="opacity:1"/>
      <path inkscape:connector-curvature="0" id="rect24552" d="m 1138,1005.362 h 2 v 2 h -2 z" style="opacity:1"/>
      <path inkscape:connector-curvature="0" id="rect24554" d="m 1135,1005.362 h 2 v 2 h -2 z" style="opacity:1"/>
      <path inkscape:connector-curvature="0" id="rect24556" d="m 1129,1005.362 h 2 v 2 h -2 z" style="opacity:1"/>
      <path inkscape:connector-curvature="0" id="rect24558" d="m 1141,1005.362 h 2 v 2 h -2 z" style="opacity:1"/>
      <path inkscape:connector-curvature="0" id="rect24560" d="m 1129,1008.362 h 2 v 2 h -2 z" style="opacity:1"/>
      <path inkscape:connector-curvature="0" id="rect24562" d="m 1129,1011.362 h 2 v 2 h -2 z" style="opacity:1"/>
      <path inkscape:connector-curvature="0" id="rect24564" d="m 1129,1014.362 h 2 v 2 h -2 z" style="opacity:1"/>
      <path inkscape:connector-curvature="0" id="rect24566" d="m 1129,1017.362 h 2 v 2 h -2 z" style="opacity:1"/>
    </g>
    </svg>
