<?xml version='1.0' encoding='UTF-8'?>
<!-- Created with Inkscape (http://www.inkscape.org/) and export_objects.py -->
<svg xmlns:cc="http://creativecommons.org/ns#" xmlns:dc="http://purl.org/dc/elements/1.1/" xmlns:inkscape="http://www.inkscape.org/namespaces/inkscape" xmlns:rdf="http://www.w3.org/1999/02/22-rdf-syntax-ns#" xmlns:sodipodi="http://sodipodi.sourceforge.net/DTD/sodipodi-0.dtd" xmlns:xlink="http://www.w3.org/1999/xlink" xmlns="http://www.w3.org/2000/svg" version="1.1" id="svg1" width="16" height="16" viewBox="0 0 16 16" sodipodi:docname="stroke-join-bevel-symbolic.svg">
<sodipodi:namedview objecttolerance="10" gridtolerance="10" guidetolerance="10" id="namedview" showgrid="true" inkscape:zoom="0.6002936" inkscape:cx="732.67439" inkscape:cy="-567.94603" inkscape:window-width="1920" inkscape:window-height="1016" inkscape:window-x="0" inkscape:window-y="27" inkscape:window-maximized="1" inkscape:current-layer="layer1">
    <inkscape:grid type="xygrid" id="grid"/>
  </sodipodi:namedview>
  <g transform="matrix(0.666667,0,0,0.666666,-696,-664.90757)" inkscape:label="00313" id="stroke-join-bevel">
      <path inkscape:connector-curvature="0" id="rect24338" d="m 1044,997.36218 h 24 v 24.00002 h -24 z" style="opacity:0;fill:none"/>
      <path inkscape:connector-curvature="0" id="path24340" d="m 1052.25,998.4798 -6.25,7.7232 v 13.159 h 5 v -16 h 2.438 1.562 12 v -4.8822 z m 2.75,8.8822 v 12 h 5 v -7 h 7 v -5 z" style="opacity:1"/>
      <path inkscape:connector-curvature="0" id="rect24342" d="m 1055,1004.362 h 2 v 2 h -2 z" style="opacity:1"/>
      <path inkscape:connector-curvature="0" id="rect24344" d="m 1061,1004.362 h 2 v 2 h -2 z" style="opacity:1"/>
      <path inkscape:connector-curvature="0" id="rect24491" d="m 1058,1004.362 h 2 v 2 h -2 z" style="opacity:1"/>
      <path inkscape:connector-curvature="0" id="rect24493" d="m 1052,1004.362 h 2 v 2 h -2 z" style="opacity:1"/>
      <path inkscape:connector-curvature="0" id="rect24495" d="m 1064,1004.362 h 2 v 2 h -2 z" style="opacity:1"/>
      <path inkscape:connector-curvature="0" id="rect24497" d="m 1052,1007.362 h 2 v 2 h -2 z" style="opacity:1"/>
      <path inkscape:connector-curvature="0" id="rect24499" d="m 1052,1010.362 h 2 v 2 h -2 z" style="opacity:1"/>
      <path inkscape:connector-curvature="0" id="rect24501" d="m 1052,1013.362 h 2 v 2 h -2 z" style="opacity:1"/>
      <path inkscape:connector-curvature="0" id="rect24503" d="m 1052,1016.362 h 2 v 2 h -2 z" style="opacity:1"/>
    </g>
    </svg>
