<?xml version='1.0' encoding='UTF-8'?>
<!-- Created with Inkscape (http://www.inkscape.org/) and export_objects.py -->
<svg xmlns:cc="http://creativecommons.org/ns#" xmlns:dc="http://purl.org/dc/elements/1.1/" xmlns:inkscape="http://www.inkscape.org/namespaces/inkscape" xmlns:rdf="http://www.w3.org/1999/02/22-rdf-syntax-ns#" xmlns:sodipodi="http://sodipodi.sourceforge.net/DTD/sodipodi-0.dtd" xmlns:xlink="http://www.w3.org/1999/xlink" xmlns="http://www.w3.org/2000/svg" version="1.1" id="svg1" width="16" height="16" viewBox="0 0 16 16" sodipodi:docname="stroke-cap-round-symbolic.svg">
<sodipodi:namedview objecttolerance="10" gridtolerance="10" guidetolerance="10" id="namedview" showgrid="true" inkscape:zoom="0.6002936" inkscape:cx="732.67439" inkscape:cy="-567.94603" inkscape:window-width="1920" inkscape:window-height="1016" inkscape:window-x="0" inkscape:window-y="27" inkscape:window-maximized="1" inkscape:current-layer="layer1">
    <inkscape:grid type="xygrid" id="grid"/>
  </sodipodi:namedview>
  <g transform="matrix(0.666667,0,0,0.666667,-824.66667,-664.90868)" inkscape:label="00318" id="stroke-cap-round">
      <path inkscape:connector-curvature="0" id="rect48637" d="m 1237,997.36261 h 24 v 23.99999 h -24 z" style="opacity:0;fill:none"/>
      <path inkscape:connector-curvature="0" id="rect24687" d="m 1248,1005.363 h 2 v 2 h -2 z" style="opacity:1"/>
      <path inkscape:connector-curvature="0" id="rect24689" d="m 1248,1008.363 h 2 v 2 h -2 z" style="opacity:1"/>
      <path inkscape:connector-curvature="0" id="rect24691" d="m 1248,1011.363 h 2 v 2 h -2 z" style="opacity:1"/>
      <path inkscape:connector-curvature="0" id="rect24693" d="m 1248,1014.363 h 2 v 2 h -2 z" style="opacity:1"/>
      <path inkscape:connector-curvature="0" id="rect24695" d="m 1248,1017.363 h 2 v 2 h -2 z" style="opacity:1"/>
      <path inkscape:connector-curvature="0" style="opacity:1" d="m 1249,998.3626 c -4.432,0 -8,2.2304 -8,5.0004 v 1 15 h 5 v -15 h 6 v 15 h 5 v -16 c 0,-2.77 -3.568,-5.0004 -8,-5.0004 z" id="path24697"/>
    </g>
    </svg>
