<?xml version='1.0' encoding='UTF-8'?>
<!-- Created with Inkscape (http://www.inkscape.org/) and export_objects.py -->
<svg xmlns:cc="http://creativecommons.org/ns#" xmlns:dc="http://purl.org/dc/elements/1.1/" xmlns:inkscape="http://www.inkscape.org/namespaces/inkscape" xmlns:rdf="http://www.w3.org/1999/02/22-rdf-syntax-ns#" xmlns:sodipodi="http://sodipodi.sourceforge.net/DTD/sodipodi-0.dtd" xmlns:xlink="http://www.w3.org/1999/xlink" xmlns="http://www.w3.org/2000/svg" version="1.1" id="svg1" width="16" height="16" viewBox="0 0 16 16" sodipodi:docname="text-put-on-path-symbolic.svg">
<sodipodi:namedview objecttolerance="10" gridtolerance="10" guidetolerance="10" id="namedview" showgrid="true" inkscape:zoom="0.6002936" inkscape:cx="732.67439" inkscape:cy="-567.94603" inkscape:window-width="1920" inkscape:window-height="1016" inkscape:window-x="0" inkscape:window-y="27" inkscape:window-maximized="1" inkscape:current-layer="layer1">
    <inkscape:grid type="xygrid" id="grid"/>
  </sodipodi:namedview>
  <g transform="matrix(1,0,0,0.999999,-194.9375,-567.40877)" inkscape:label="00093" id="text-put-on-path">
      <path inkscape:connector-curvature="0" id="rect28783" d="m 194.9375,567.40948 h 16 v 16 h -16 z" style="opacity:0;fill:none"/>
      <path inkscape:connector-curvature="0" id="path28785" d="m 204,568.4587 c 0,5.0192 7e-4,2.5588 0.0313,5.4588 v 0.4294 h 0.4687 2.2813 c 1.6809,0.0674 1.6051,-4.0483 -0.0313,-3.9255 -0.0117,9e-4 -0.0195,-10e-4 -0.0313,0 H 205 v -1.9627 z m 0.9375,2.8521 h 1.8125 0.0313 0.0313 c 0.3678,-0.0375 0.4346,2.1642 0,2.1467 h -0.0313 -1.8438 c -0.006,-0.4667 0.004,-2.0025 0,-2.1467 z" style="opacity:1"/>
      <path inkscape:connector-curvature="0" id="path28787" d="m 199,569.3622 v 0.8723 h 1.75 c 0.1268,0.013 0.1972,0.0614 0.25,0.1246 0.0491,0.0588 0.118,0.1861 0.125,0.3739 5e-4,0.0142 0,0.0159 0,0.0312 v 0.6854 h -1.8438 -0.0312 c -1.6106,-0.1166 -1.6872,2.9624 -0.0313,2.8973 h 2.3125 0.4375 v -0.4362 L 202,570.7642 c 0,-0.3694 -0.1022,-0.7138 -0.3125,-0.9658 -0.2104,-0.252 -0.5292,-0.4042 -0.8438,-0.4362 h -0.0313 -1.8125 z m 0.1875,2.9596 h 0.0313 0.0313 1.8437 l -0.0313,1.1527 h -1.8437 -0.0313 c -0.468,0.0184 -0.4014,-1.1929 0,-1.1527 z" style="opacity:1"/>
      <path inkscape:connector-curvature="0" id="path28789" d="m 202.9375,576.4095 c -4.2414,0 -7.6977,3.0879 -7.9688,7 h 1 c 0.2793,-3.3523 3.287,-6 6.9688,-6 3.6818,0 6.6895,2.6477 6.9687,6 h 1 c -0.271,-3.9121 -3.7273,-7 -7.9687,-7 z" style="opacity:1"/>
    </g>
    </svg>
