<?xml version="1.0" encoding="UTF-8" standalone="no"?>
<svg
   xmlns:dc="http://purl.org/dc/elements/1.1/"
   xmlns:cc="http://creativecommons.org/ns#"
   xmlns:rdf="http://www.w3.org/1999/02/22-rdf-syntax-ns#"
   xmlns:svg="http://www.w3.org/2000/svg"
   xmlns="http://www.w3.org/2000/svg"
   xmlns:sodipodi="http://sodipodi.sourceforge.net/DTD/sodipodi-0.dtd"
   xmlns:inkscape="http://www.inkscape.org/namespaces/inkscape"
   id="svg1"
   width="28"
   height="28"
   version="1.1"
   sodipodi:docname="text_outer_style-symbolic.svg"
   inkscape:version="1.0alpha2 (7029881c03, 2019-06-24, custom)">
  <metadata
     id="metadata94">
    <rdf:RDF>
      <cc:Work
         rdf:about="">
        <dc:format>image/svg+xml</dc:format>
        <dc:type
           rdf:resource="http://purl.org/dc/dcmitype/StillImage" />
        <dc:title />
      </cc:Work>
    </rdf:RDF>
  </metadata>
  <sodipodi:namedview
     id="base"
     showgrid="true"
     inkscape:zoom="5.6"
     inkscape:cx="7.046511"
     inkscape:cy="44.985506"
     inkscape:window-width="1360"
     inkscape:window-height="704"
     inkscape:window-x="0"
     inkscape:window-y="27"
     inkscape:window-maximized="1"
     inkscape:current-layer="svg1">
    <inkscape:grid
       id="GridFromPre046Settings"
       type="xygrid"
       originx="0pt"
       originy="0pt"
       spacingx="1pt"
       spacingy="1pt"
       color="#3f3fff"
       empcolor="#3f3fff"
       opacity="0.15"
       empopacity="0.38"
       empspacing="5" />
  </sodipodi:namedview>
  <defs
     id="defs3" />
  <g
     id="text_outer_style"
     transform="translate(0,0)">
    <rect
       height="28"
       id="text_outer_style_rect"
       style="opacity:0"
       width="28"
       x="0"
       y="0" />
    <g
       aria-label="T"
       style="font-weight:bold;font-size:20px;font-family:sans-serif;text-anchor:middle;fill:#4d4d4d;stroke:#000000;stroke-width:0.75"
       id="g82" />
    <g
       aria-label="T"
       style="font-weight:bold;font-size:12px;font-family:sans-serif;text-anchor:middle;fill:#4d4d4d;stroke:#000000;stroke-width:0.75"
       id="g85" />
    <path
       id="path921"
       d="M 20,1.25 A 0.75,0.75 0 0 0 19.25,2 0.75,0.75 0 0 0 20,2.75 h 5.25 v 22.5 H 2.75 V 10 A 0.75,0.75 0 0 0 2,9.25 0.75,0.75 0 0 0 1.25,10 V 26 A 0.750075,0.750075 0 0 0 2,26.75 H 26 A 0.750075,0.750075 0 0 0 26.75,26 V 2 A 0.750075,0.750075 0 0 0 26,1.25 Z m -6.03125,12.001953 h 8.0625 v 1.705078 H 19.130859 V 22 H 16.875 V 14.957031 H 13.96875 Z M 2.28125,2.4199219 h 13.4375 V 5.2617187 H 10.884766 V 17 H 7.125 V 5.2617187 H 2.28125 Z" />
  </g>
</svg>
