<?xml version='1.0' encoding='UTF-8'?>
<!-- Created with Inkscape (http://www.inkscape.org/) and export_objects.py -->
<svg xmlns:cc="http://creativecommons.org/ns#" xmlns:dc="http://purl.org/dc/elements/1.1/" xmlns:inkscape="http://www.inkscape.org/namespaces/inkscape" xmlns:rdf="http://www.w3.org/1999/02/22-rdf-syntax-ns#" xmlns:sodipodi="http://sodipodi.sourceforge.net/DTD/sodipodi-0.dtd" xmlns:xlink="http://www.w3.org/1999/xlink" xmlns="http://www.w3.org/2000/svg" version="1.1" id="svg1" width="16" height="16" viewBox="0 0 16 16" sodipodi:docname="text_vert_kern-symbolic.svg">
<sodipodi:namedview objecttolerance="10" gridtolerance="10" guidetolerance="10" id="namedview" showgrid="true" inkscape:zoom="0.6002936" inkscape:cx="732.67439" inkscape:cy="-567.94603" inkscape:window-width="1920" inkscape:window-height="1016" inkscape:window-x="0" inkscape:window-y="27" inkscape:window-maximized="1" inkscape:current-layer="layer1">
    <inkscape:grid type="xygrid" id="grid"/>
  </sodipodi:namedview>
  <g transform="matrix(0.999457,0,0,0.999999,-438.76142,-836.36113)" inkscape:label="00181" id="text_vert_kern">
      <path inkscape:connector-curvature="0" id="rect21439" d="m 439,836.36218 h 16 v 16 h -16 z" style="opacity:0;fill:none"/>
      <path style="opacity:1" d="M 441.5031,836.3681 439,843.3577 h 1.5019 c 0.744,-1.997 -0.002,10e-4 0.7423,-1.9955 l 2.5586,0.018 0.7041,1.9775 h 1.5018 l -2.5031,-6.9896 z m 1.0013,1.4978 1.0123,2.4963 h -2.0025 z" id="path21441" inkscape:connector-curvature="0"/>
      <path inkscape:connector-curvature="0" id="path21443" d="M 450.5031,843.3681 448,850.3577 h 1.5019 c 0.744,-1.997 -0.002,10e-4 0.7423,-1.9955 l 2.5586,0.018 0.7041,1.9775 h 1.5018 l -2.5031,-6.9896 z m 1.0013,1.4978 1.0123,2.4963 h -2.0025 z" style="opacity:1"/>
      <path inkscape:connector-curvature="0" id="rect21448" d="m 439,844.36218 h 7 v 1 h -7 z" style="opacity:1"/>
      <path inkscape:connector-curvature="0" id="rect21450" d="m 447,851.36218 h 8 v 1 h -8 z" style="opacity:1"/>
      <path inkscape:connector-curvature="0" id="rect21452" d="m 446,332 h 1 v 8 h -1 z" style="opacity:1" transform="translate(0,512.3622)"/>
    </g>
    </svg>
