<?xml version='1.0' encoding='UTF-8'?>
<!-- Created with Inkscape (http://www.inkscape.org/) and export_objects.py -->
<svg xmlns:cc="http://creativecommons.org/ns#" xmlns:dc="http://purl.org/dc/elements/1.1/" xmlns:inkscape="http://www.inkscape.org/namespaces/inkscape" xmlns:rdf="http://www.w3.org/1999/02/22-rdf-syntax-ns#" xmlns:sodipodi="http://sodipodi.sourceforge.net/DTD/sodipodi-0.dtd" xmlns:xlink="http://www.w3.org/1999/xlink" xmlns="http://www.w3.org/2000/svg" version="1.1" id="svg1" width="16" height="16" viewBox="0 0 16 16" sodipodi:docname="text_word_spacing-symbolic.svg">
<sodipodi:namedview objecttolerance="10" gridtolerance="10" guidetolerance="10" id="namedview" showgrid="true" inkscape:zoom="0.6002936" inkscape:cx="732.67439" inkscape:cy="-567.94603" inkscape:window-width="1920" inkscape:window-height="1016" inkscape:window-x="0" inkscape:window-y="27" inkscape:window-maximized="1" inkscape:current-layer="layer1">
    <inkscape:grid type="xygrid" id="grid"/>
  </sodipodi:namedview>
  <g transform="translate(-409,-836.36218)" inkscape:label="00180" id="text_word_spacing">
      <path inkscape:connector-curvature="0" id="rect21014" d="m 409,836.36218 h 16 v 16 h -16 z" style="opacity:0;fill:none"/>
      <path style="opacity:1" d="m 412,842.3622 c -0.554,0 -1,0.446 -1,1 v 4 h 1 v -3 c 0,-0.554 0.446,-1 1,-1 0.554,0 1,0.446 1,1 v 3 h 1 v -4 c 0,-0.554 -0.446,-1 -1,-1 z" id="rect21366" inkscape:connector-curvature="0"/>
      <path style="opacity:1" d="m 419,326 -1,1 v 6.5 c 0,0.7683 0.5695,1.378 1.3125,1.4687 0.0599,0.0252 0.1182,0.0313 0.1875,0.0313 0.1616,0 0.3908,10e-5 0.5,0 v -1 h -0.5 c -0.277,0 -0.5,-0.223 -0.5,-0.5 v -0.5 -4 -1 c 0,-0.1488 -0.04,-1.8644 0,-2 z" transform="translate(0,512.3622)" id="rect21376" inkscape:connector-curvature="0"/>
      <path inkscape:connector-curvature="0" id="rect21387" d="m 417.5,840.36218 h 2 c 0.277,0 0.5,0.223 0.5,0.5 0,0.277 -0.223,0.5 -0.5,0.5 h -2 c -0.277,0 -0.5,-0.223 -0.5,-0.5 0,-0.277 0.223,-0.5 0.5,-0.5 z" style="opacity:1"/>
      <path inkscape:connector-curvature="0" id="rect21391" d="m 409.5,330 c 0.277,0 0.5,0.223 0.5,0.5 v 4 c 0,0.277 -0.223,0.5 -0.5,0.5 -0.277,0 -0.5,-0.223 -0.5,-0.5 v -4 c 0,-0.277 0.223,-0.5 0.5,-0.5 z" style="opacity:1" transform="translate(0,512.3622)"/>
      <path inkscape:connector-curvature="0" id="rect21393" d="m 409,328 h 1 v 1 h -1 z" style="opacity:1" transform="translate(0,512.3622)"/>
      <path inkscape:connector-curvature="0" id="path21395" d="m 422,838.3621 c -1,1 -1,1 -1,1 v 8.0001 h 1 v -2 -4 -1 c 0,-0.1489 -0.04,-1.8645 0,-2.0001 z" style="opacity:1"/>
      <path inkscape:connector-curvature="0" id="path21406" d="m 422,842.3622 c -0.554,0 -1,0.446 -1,1 v 4 h 1 v -3 c 0,-0.554 0.446,-1 1,-1 0.554,0 1,0.446 1,1 v 3 h 1 v -4 c 0,-0.554 -0.446,-1 -1,-1 z" style="opacity:1"/>
    </g>
    </svg>
