<?xml version='1.0' encoding='UTF-8'?>
<!-- Created with Inkscape (http://www.inkscape.org/) and export_objects.py -->
<svg xmlns:cc="http://creativecommons.org/ns#" xmlns:dc="http://purl.org/dc/elements/1.1/" xmlns:inkscape="http://www.inkscape.org/namespaces/inkscape" xmlns:rdf="http://www.w3.org/1999/02/22-rdf-syntax-ns#" xmlns:sodipodi="http://sodipodi.sourceforge.net/DTD/sodipodi-0.dtd" xmlns:xlink="http://www.w3.org/1999/xlink" xmlns="http://www.w3.org/2000/svg" version="1.1" id="svg1" width="16" height="16" viewBox="0 0 16 16" sodipodi:docname="tool-tweak-symbolic.svg">
<sodipodi:namedview objecttolerance="10" gridtolerance="10" guidetolerance="10" id="namedview" showgrid="true" inkscape:zoom="0.6002936" inkscape:cx="732.67439" inkscape:cy="-567.94603" inkscape:window-width="1920" inkscape:window-height="1016" inkscape:window-x="0" inkscape:window-y="27" inkscape:window-maximized="1" inkscape:current-layer="layer1">
    <inkscape:grid type="xygrid" id="grid"/>
  </sodipodi:namedview>
  <g transform="matrix(0.666667,0,0,0.666667,-190,-702.2414)" id="tool-tweak" inkscape:label="00155">
      <path inkscape:connector-curvature="0" id="rect4400" d="m 285,1053.3621 h 24 v 24 h -24 z" style="opacity:0;fill:none"/>
      <path style="opacity:1" d="m 299.1929,1056.371 c -1.0952,-0.05 -2.1049,0.13 -2.7404,0.528 -5.4824,3.44 -2.3872,12.059 -10.4395,10.501 l -0.044,9.025 h 21.0312 l 0.044,-9.025 c -5.4826,1.244 -7.7633,-0.221 -8.8391,-2.661 -0.9536,-2.163 -0.193,-4.085 1.0834,-4.316 2.5235,-0.459 2.2613,1.245 3.7602,1.673 1.4248,0.407 1.8586,-0.955 0.8603,-3.083 -0.8381,-1.786 -2.8906,-2.557 -4.716,-2.642 z" id="rect4412" inkscape:connector-curvature="0"/>
    </g>
    </svg>
