<?xml version='1.0' encoding='UTF-8'?>
<!-- Created with Inkscape (http://www.inkscape.org/) and export_objects.py -->
<svg xmlns:cc="http://creativecommons.org/ns#" xmlns:dc="http://purl.org/dc/elements/1.1/" xmlns:inkscape="http://www.inkscape.org/namespaces/inkscape" xmlns:rdf="http://www.w3.org/1999/02/22-rdf-syntax-ns#" xmlns:sodipodi="http://sodipodi.sourceforge.net/DTD/sodipodi-0.dtd" xmlns:xlink="http://www.w3.org/1999/xlink" xmlns="http://www.w3.org/2000/svg" version="1.1" id="svg1" width="16" height="16" viewBox="0 0 16 16" sodipodi:docname="tool-spray-symbolic.svg">
<sodipodi:namedview objecttolerance="10" gridtolerance="10" guidetolerance="10" id="namedview" showgrid="true" inkscape:zoom="0.6002936" inkscape:cx="732.67439" inkscape:cy="-567.94603" inkscape:window-width="1920" inkscape:window-height="1016" inkscape:window-x="0" inkscape:window-y="27" inkscape:window-maximized="1" inkscape:current-layer="layer1">
    <inkscape:grid type="xygrid" id="grid"/>
  </sodipodi:namedview>
  <g transform="matrix(0.666667,0,0,0.666667,-190,-681.57467)" id="tool-spray" inkscape:label="00153">
      <path inkscape:connector-curvature="0" style="opacity:0;fill:none" d="m 285,1022.362 h 24 v 24 h -24 z" id="path5769"/>
      <path id="path6331-0" d="m 303,1029.362 v -2 c -0.5069,-1.555 -3,-1 -3,0 v 2 z" style="opacity:1" inkscape:connector-curvature="0"/>
      <path style="opacity:1" d="M 306.9558,1035.246 306,1034.362 h -9 l -0.9712,1.413 -0.029,6.587 c 2.8952,1.823 3.7348,4.575 11,2 z" id="path6315-8" inkscape:connector-curvature="0"/>
      <path id="path5211-1" d="m 306,1033.362 -2,-3 h -5 l -2,3 z" style="opacity:1" inkscape:connector-curvature="0"/>
      <g transform="translate(-0.0829471,-0.7236201)" id="g30296">
        <path inkscape:connector-curvature="0" id="path23475" d="m 207.51497,518.42187 a 0.92537308,0.92537308 0 0 1 -0.92537,0.92538 0.92537308,0.92537308 0 0 1 -0.92537,-0.92538 0.92537308,0.92537308 0 0 1 0.92537,-0.92537 0.92537308,0.92537308 0 0 1 0.92537,0.92537 z" style="opacity:1" transform="matrix(0.4357219,0,0,0.4357219,206.8329,803.6419)"/>
        <use style="opacity:1" height="1052.3621" width="744.09448" transform="matrix(1.058646,0,0,1.058646,-18.17453,-59.24866)" id="use23477" xlink:href="#path23475" y="0" x="0"/>
        <use style="opacity:1" height="1052.3621" width="744.09448" transform="translate(0,-2.208168)" id="use23479" xlink:href="#use23477" y="0" x="0"/>
        <use style="opacity:1" height="1052.3621" width="744.09448" transform="matrix(1.376269,0,0,1.376269,-112.7939,-386.9417)" id="use23483" xlink:href="#use23477" y="0" x="0"/>
        <use style="opacity:1" height="1052.3621" width="744.09448" transform="matrix(1.376269,0,0,1.376269,-113.1257,-387.8748)" id="use23485" xlink:href="#use23479" y="0" x="0"/>
        <path inkscape:connector-curvature="0" id="use23487" d="m 207.51497,518.42187 a 0.92537308,0.92537308 0 0 1 -0.92537,0.92538 0.92537308,0.92537308 0 0 1 -0.92537,-0.92538 0.92537308,0.92537308 0 0 1 0.92537,-0.92537 0.92537308,0.92537308 0 0 1 0.92537,0.92537 z" style="opacity:1" transform="matrix(0.6348389,0,0,0.6348389,162.5891,700.4153)"/>
        <use style="opacity:1" height="1052.3621" width="744.09448" transform="matrix(1.50123,0,0,1.50123,-149.6645,-516.0387)" id="use23489" xlink:href="#use23483" y="0" x="0"/>
        <use style="opacity:1" height="1052.3621" width="744.09448" transform="matrix(1.50123,0,0,1.50123,-149.7893,-515.9651)" id="use23491" xlink:href="#use23485" y="0" x="0"/>
        <use style="opacity:1" height="1052.3621" width="744.09448" transform="matrix(1.50123,0,0,1.50123,-149.5421,-516.0307)" id="use23493" xlink:href="#use23487" y="0" x="0"/>
        <use style="opacity:1" height="1052.3621" width="744.09448" transform="matrix(1.485643,0,0,1.485643,-145.2412,-499.7435)" id="use23495" xlink:href="#use23489" y="0" x="0"/>
        <use style="opacity:1" height="1052.3621" width="744.09448" transform="matrix(1.485643,0,0,1.485643,-145.0357,-499.6811)" id="use23497" xlink:href="#use23491" y="0" x="0"/>
        <use style="opacity:1" height="1052.3621" width="744.09448" transform="matrix(1.485643,0,0,1.485643,-144.9878,-499.9836)" id="use23499" xlink:href="#use23493" y="0" x="0"/>
        <use style="opacity:1" height="1052.3621" width="744.09448" transform="translate(-4.235815,-1.303328)" id="use23501" xlink:href="#path23475" y="0" x="0"/>
        <use style="opacity:1" height="1052.3621" width="744.09448" transform="translate(0.4480189,2.688113)" id="use23503" xlink:href="#use23501" y="0" x="0"/>
        <use style="opacity:1" height="1052.3621" width="744.09448" transform="translate(-4.724563)" id="use23505" xlink:href="#use23485" y="0" x="0"/>
        <use style="opacity:1" height="1052.3621" width="744.09448" transform="translate(0.6923928,4.113628)" id="use23509" xlink:href="#use23505" y="0" x="0"/>
        <use x="0" y="0" xlink:href="#use23477" id="use30430" transform="translate(-0.734835,-1.044194)" width="744.09448" height="1052.3621" style="opacity:1"/>
      </g>
    </g>
    </svg>
