<?xml version='1.0' encoding='UTF-8'?>
<!-- Created with Inkscape (http://www.inkscape.org/) and export_objects.py -->
<svg xmlns:cc="http://creativecommons.org/ns#" xmlns:dc="http://purl.org/dc/elements/1.1/" xmlns:inkscape="http://www.inkscape.org/namespaces/inkscape" xmlns:rdf="http://www.w3.org/1999/02/22-rdf-syntax-ns#" xmlns:sodipodi="http://sodipodi.sourceforge.net/DTD/sodipodi-0.dtd" xmlns:xlink="http://www.w3.org/1999/xlink" xmlns="http://www.w3.org/2000/svg" version="1.1" id="svg1" width="16" height="16" viewBox="0 0 16 16" sodipodi:docname="transform-rotate-symbolic.svg">
<sodipodi:namedview objecttolerance="10" gridtolerance="10" guidetolerance="10" id="namedview" showgrid="true" inkscape:zoom="0.6002936" inkscape:cx="732.67439" inkscape:cy="-567.94603" inkscape:window-width="1920" inkscape:window-height="1016" inkscape:window-x="0" inkscape:window-y="27" inkscape:window-maximized="1" inkscape:current-layer="layer1">
    <inkscape:grid type="xygrid" id="grid"/>
  </sodipodi:namedview>
  <g transform="matrix(1,0,0,-0.999995,-559,728.37174)" inkscape:label="00244" id="transform-rotate">
      <path inkscape:connector-curvature="0" id="rect10072" d="m 559.46967,712.37518 h 15.06066 c 0.2602,0 0.46967,0.20948 0.46967,0.46967 v 15.04764 c 0,0.2602 -0.20947,0.46967 -0.46967,0.46967 h -15.06066 c -0.2602,0 -0.46967,-0.20947 -0.46967,-0.46967 v -15.04764 c 0,-0.26019 0.20947,-0.46967 0.46967,-0.46967 z" style="opacity:0;fill:none"/>
      <path inkscape:connector-curvature="0" style="opacity:1" d="m 559,712.3752 v 4.9959 c 0.9848,-0.005 2.1151,0.018 3,0 h 2 l -1.8125,-1.811 v -0.0313 c 0.3708,-0.7282 1.2553,-1.2802 2.375,-1.2802 1.4929,0 2.5625,1.0038 2.5625,2.0608 -0.0891,0.5414 0.3884,1.1034 0.9375,1.1034 0.5491,0 1.0266,-0.562 0.9375,-1.1034 0,-2.254 -2.0644,-3.9343 -4.4375,-3.9343 -1.5399,0 -2.9498,0.6984 -3.75,1.8111 z" id="path18623"/>
      <path style="opacity:1" d="m 568.9687,727.5816 a 0.950095,0.9493217 0 0 0 1.0938,0.7806 c 2.2558,0 3.9375,-2.0627 3.9375,-4.4339 0,-1.5386 -0.6989,-2.9474 -1.8125,-3.7469 L 574,718.3703 h -5 v 1.7486 0.0936 a 0.950095,0.9493217 0 0 0 0,0.4684 v 0.6869 1.9984 l 1.8125,-1.811 c 0.009,0.004 0.0226,-0.004 0.0313,0 0.7288,0.3705 1.2812,1.2542 1.2812,2.373 0,1.4917 -1.0046,2.5604 -2.0625,2.5604 a 0.950095,0.9493217 0 0 0 -1.0938,1.093 z" id="rect10846" inkscape:connector-curvature="0"/>
      <path inkscape:connector-curvature="0" id="rect23174" d="m 560.46967,719.36951 h 6.06066 c 0.2602,0 0.46967,0.20947 0.46967,0.46967 v 6.05496 c 0,0.2602 -0.20947,0.46967 -0.46967,0.46967 h -6.06066 c -0.2602,0 -0.46967,-0.20947 -0.46967,-0.46967 v -6.05496 c 0,-0.2602 0.20947,-0.46967 0.46967,-0.46967 z" style="opacity:1"/>
    </g>
    </svg>
