<?xml version='1.0' encoding='UTF-8'?>
<!-- Created with Inkscape (http://www.inkscape.org/) and export_objects.py -->
<svg xmlns:cc="http://creativecommons.org/ns#" xmlns:dc="http://purl.org/dc/elements/1.1/" xmlns:inkscape="http://www.inkscape.org/namespaces/inkscape" xmlns:rdf="http://www.w3.org/1999/02/22-rdf-syntax-ns#" xmlns:sodipodi="http://sodipodi.sourceforge.net/DTD/sodipodi-0.dtd" xmlns:xlink="http://www.w3.org/1999/xlink" xmlns="http://www.w3.org/2000/svg" version="1.1" id="svg1" width="16" height="16" viewBox="0 0 16 16">

<sodipodi:namedview 
    objecttolerance="10" 
    gridtolerance="10" 
    guidetolerance="10" 
    id="namedview" 
    showgrid="true" 
    inkscape:zoom="27.166187"
    inkscape:cx="7.4837792"
    inkscape:cy="8.9906751"
    inkscape:window-x="0" 
    inkscape:window-y="27"> 
    <inkscape:grid type="xygrid" id="grid"/>
  </sodipodi:namedview>
  
<metadata
     id="metadata1906">
    <rdf:RDF>
      <cc:Work
         rdf:about="">
        <dc:format>image/svg+xml</dc:format>
        <dc:type
           rdf:resource="http://purl.org/dc/dcmitype/StillImage" />
        <cc:license
           rdf:resource="http://creativecommons.org/publicdomain/zero/1.0/" />
        <dc:title>LiveEffect Icons proposal</dc:title>
        <dc:date>13 Jan 2019</dc:date>
        <dc:creator>
          <cc:Agent>
            <dc:title>Ramón Miranda</dc:title>
          </cc:Agent>
        </dc:creator>
        <dc:rights>
          <cc:Agent>
            <dc:title>see the license tab</dc:title>
          </cc:Agent>
        </dc:rights>
        <dc:subject>
          <rdf:Bag>
            <rdf:li>icon ui</rdf:li>
          </rdf:Bag>
        </dc:subject>
        <dc:description>This is a contribution with Inkscape Project from
Ramon Miranda www.ramonmiranda.com (design and SVG file)
Jabiertxo (SVG stuff to integrate them in UI)</dc:description>
        <dc:publisher>
          <cc:Agent>
            <dc:title></dc:title>
          </cc:Agent>
        </dc:publisher>
        <dc:identifier></dc:identifier>
        <dc:source />
        <dc:relation />
        <dc:language>-</dc:language>
        <dc:coverage />
        <dc:contributor>
          <cc:Agent>
            <dc:title>Ramon Miranda
Jabier Arraiza</dc:title>
          </cc:Agent>
        </dc:contributor>
      </cc:Work>
      <cc:License
         rdf:about="http://creativecommons.org/publicdomain/zero/1.0/">
        <cc:permits
           rdf:resource="http://creativecommons.org/ns#Reproduction" />
        <cc:permits
           rdf:resource="http://creativecommons.org/ns#Distribution" />
        <cc:permits
           rdf:resource="http://creativecommons.org/ns#DerivativeWorks" />
      </cc:License>
    </rdf:RDF>
  </metadata>
  <g inkscape:groupmode="layer"
     id="layercompo"
     inkscape:label="vonkoch-box">
        <path 
            id="rect22048" 
            d="M 0,0 H 16 V 16 H 0 Z" 
            style="opacity:0;fill:none" />
        <path
           id="path9609"
           d="M 10.030842,2.1816327 A 0.24548906,0.25069076 89.999999 0 0 9.8268766,2.3042047 L 8.5745091,4.4276587 A 0.24548906,0.25069076 89.999999 0 0 8.7920401,4.7958585 H 11.295806 A 0.24548906,0.25069076 89.999999 0 0 11.513818,4.4276587 L 10.26145,2.3042047 A 0.24548906,0.25069076 89.999999 0 0 10.030842,2.1816327 Z M 10.043922,2.9180345 10.8622,4.3046005 H 9.2256427 Z M 5.9854752,4.8007029 A 0.24968278,0.2464817 0 0 0 5.7824802,4.9237611 L 0.79529574,13.449064 A 0.24968278,0.2464817 0 0 0 1.0123405,13.818717 H 10.984288 A 0.24968278,0.2464817 0 0 0 11.200847,13.449064 L 6.2151156,4.9237611 A 0.24968278,0.2464817 0 0 0 5.9854752,4.8007029 Z M 5.9980713,5.5395281 10.55262,13.326006 H 1.444009 Z M 8.4703471,5.8704233 A 0.24555359,0.25062371 89.999999 0 0 8.253786,6.2386255 L 10.822472,10.598414 A 0.24555359,0.25062371 89.999999 0 0 11.256562,10.598897 L 13.825731,6.2391092 A 0.24555359,0.25062371 89.999999 0 0 13.81895,5.9823366 0.24555359,0.25062371 89.999999 0 0 13.608687,5.8709096 Z M 8.9044364,6.3616812 H 13.174598 L 11.040003,9.985068 Z M 13.722056,8.617396 A 0.24548906,0.25069076 89.999999 0 0 13.72157,8.6178797 0.24548906,0.25069076 89.999999 0 0 13.517608,8.7404517 L 12.265239,10.863422 A 0.24548906,0.25069076 89.999999 0 0 12.482768,11.231621 H 14.986534 A 0.24548906,0.25069076 89.999999 0 0 15.204549,10.863422 L 13.95218,8.7404517 A 0.24548906,0.25069076 89.999999 0 0 13.722056,8.617396 Z M 13.734166,9.3537977 14.552928,10.740849 H 12.916374 Z"
           style="opacity:1;" />
    </g>
</svg>
