<?xml version="1.0" encoding="UTF-8" standalone="no"?>
<svg
   id="svg8"
   version="1.1"
   viewBox="0 0 16 16"
   height="16"
   width="16"
   sodipodi:docname="xml-node-duplicate-symbolic.svg"
   inkscape:version="1.4 (1:1.4+202410161351+e7c3feb100)"
   xmlns:inkscape="http://www.inkscape.org/namespaces/inkscape"
   xmlns:sodipodi="http://sodipodi.sourceforge.net/DTD/sodipodi-0.dtd"
   xmlns="http://www.w3.org/2000/svg"
   xmlns:svg="http://www.w3.org/2000/svg"
   xmlns:rdf="http://www.w3.org/1999/02/22-rdf-syntax-ns#"
   xmlns:cc="http://creativecommons.org/ns#"
   xmlns:dc="http://purl.org/dc/elements/1.1/">
  <sodipodi:namedview
     id="namedview1"
     pagecolor="#ffffff"
     bordercolor="#000000"
     borderopacity="0.25"
     inkscape:showpageshadow="2"
     inkscape:pageopacity="0.0"
     inkscape:pagecheckerboard="0"
     inkscape:deskcolor="#d1d1d1"
     showgrid="true"
     inkscape:zoom="25.001483"
     inkscape:cx="5.4196784"
     inkscape:cy="4.9397069"
     inkscape:current-layer="svg8"
     inkscape:window-width="1860"
     inkscape:window-height="1011"
     inkscape:window-x="0"
     inkscape:window-y="0"
     inkscape:window-maximized="1">
    <inkscape:grid
       type="xygrid"
       id="grid1"
       originx="0"
       originy="0"
       spacingy="1"
       spacingx="1"
       units="px" />
  </sodipodi:namedview>
  <defs
     id="defs2" />
  <metadata
     id="metadata5">
    <rdf:RDF>
      <cc:Work
         rdf:about="">
        <dc:format>image/svg+xml</dc:format>
        <dc:type
           rdf:resource="http://purl.org/dc/dcmitype/StillImage" />
      </cc:Work>
    </rdf:RDF>
  </metadata>
  <path
     d="M 3,0 C 1.9007,0 1,0.90065 1,2 v 8 c 0,1.0993 0.90065,2 2,2 0,1.0993 0.90065,2 2,2 h 8 c 1.0993,0 2,-0.90065 2,-2 V 4 C 15,2.9007 14.09935,2 13,2 13,0.9007 12.09935,0 11,0 Z m 0,1 h 8 c 0.56264,0 1,0.43735 1,1 H 5 C 3.9007,2 3,2.90065 3,4 v 7 C 2.43735,11 2,10.56264 2,10 V 2 C 2,1.43735 2.43735,1 3,1 Z m 2,2 h 8 c 0.56265,0 1,0.43735 1,1 v 8 c 0,0.56265 -0.43735,1 -1,1 H 5 C 4.43735,13 4,12.56265 4,12 V 4 C 4,3.43735 4.43735,3 5,3 Z"
     fill="#808080"
     id="path1"
     sodipodi:nodetypes="ssscsssscsssscsscssssssssssss" />
  <rect
     style="fill:#808080;stroke-width:1.22474"
     id="rect1"
     width="2"
     height="6"
     x="8"
     y="5" />
  <rect
     style="fill:#808080"
     id="rect2"
     width="6"
     height="1.9998814"
     x="6"
     y="7.0001187" />
</svg>
