<?xml version="1.0" encoding="UTF-8" standalone="no"?>
<svg
   id="svg8"
   version="1.1"
   viewBox="0 0 16 16"
   height="16"
   width="16"
   sodipodi:docname="xml-node-delete-symbolic.svg"
   inkscape:version="1.3-dev (0ba34df8c1, 2022-09-24, custom)"
   xmlns:inkscape="http://www.inkscape.org/namespaces/inkscape"
   xmlns:sodipodi="http://sodipodi.sourceforge.net/DTD/sodipodi-0.dtd"
   xmlns="http://www.w3.org/2000/svg"
   xmlns:svg="http://www.w3.org/2000/svg"
   xmlns:rdf="http://www.w3.org/1999/02/22-rdf-syntax-ns#"
   xmlns:cc="http://creativecommons.org/ns#"
   xmlns:dc="http://purl.org/dc/elements/1.1/">
  <sodipodi:namedview
     id="namedview1"
     pagecolor="#ffffff"
     bordercolor="#000000"
     borderopacity="0.25"
     inkscape:showpageshadow="2"
     inkscape:pageopacity="0.0"
     inkscape:pagecheckerboard="0"
     inkscape:deskcolor="#d1d1d1"
     showgrid="true"
     inkscape:zoom="61.695067"
     inkscape:cx="8.6959951"
     inkscape:cy="7.9747057"
     inkscape:current-layer="svg8">
    <inkscape:grid
       type="xygrid"
       id="grid5" />
  </sodipodi:namedview>
  <defs
     id="defs2" />
  <metadata
     id="metadata5">
    <rdf:RDF>
      <cc:Work
         rdf:about="">
        <dc:format>image/svg+xml</dc:format>
        <dc:type
           rdf:resource="http://purl.org/dc/dcmitype/StillImage" />
      </cc:Work>
    </rdf:RDF>
  </metadata>
  <g
     id="g36648"
     transform="matrix(0.05714284,0,0,0.05671825,32.07286,-20.61457)"
     style="stroke-width:17.5655" />
  <path
     style="color:#000000;stroke:none;stroke-miterlimit:2;-inkscape-stroke:none"
     d="M 3.5,0.48046875 0,3.9804688 l 3.5,3.4999999 1,-1 L 2,3.9804688 4.5,1.4804687 Z"
     id="path1-1" />
  <path
     id="path2-7"
     style="color:#000000;stroke:none;stroke-miterlimit:2;-inkscape-stroke:none"
     d="M 12.5 0.48046875 L 11.5 1.4804688 L 14 3.9804688 L 11.980469 6 L 13.980469 6 L 16 3.9804688 L 12.5 0.48046875 z M 12.019531 7 L 12.5 7.4804688 L 12.980469 7 L 12.019531 7 z " />
  <path
     style="color:#000000;stroke:none;stroke-miterlimit:2;-inkscape-stroke:none"
     d="M 8.3164063,0 6.3164062,7.5996093 7.6835937,7.9609375 9.6835938,0.36132813 Z"
     id="path3-2" />
  <path
     style="display:inline;fill-opacity:1;stroke:none;stroke-width:1.5;stroke-opacity:1"
     d="m 9.4997832,9.7732203 0.4997829,5.2469617 c 0.047001,0.552806 0.4470899,0.99349 1.0010859,0.99349 h 2.998697 c 0.553996,0 0.948897,-0.446059 1.001086,-0.99349 l 0.499782,-5.2469617 z"
     id="path1" />
  <path
     style="display:inline;fill-opacity:1;stroke:none;stroke-width:1.5;stroke-opacity:1"
     d="m 11.722223,6.669705 c -0.215445,0 -0.388889,0.1734444 -0.388889,0.3888888 V 7.4581165 H 9.9995661 c -0.5539956,0 -0.9995658,0.4436165 -0.9995658,0.9934898 v 0.551432 H 16 V 8.4516063 C 16,7.901733 15.55443,7.4581165 15.000435,7.4581165 H 13.666667 V 7.0585938 c 0,-0.2154444 -0.173444,-0.3888888 -0.388889,-0.3888888 z"
     id="path36650" />
</svg>
