<?xml version='1.0' encoding='UTF-8'?>
<!-- Created with Inkscape (http://www.inkscape.org/) and export_objects.py -->
<svg xmlns:cc="http://creativecommons.org/ns#" xmlns:dc="http://purl.org/dc/elements/1.1/" xmlns:inkscape="http://www.inkscape.org/namespaces/inkscape" xmlns:rdf="http://www.w3.org/1999/02/22-rdf-syntax-ns#" xmlns:sodipodi="http://sodipodi.sourceforge.net/DTD/sodipodi-0.dtd" xmlns:xlink="http://www.w3.org/1999/xlink" xmlns="http://www.w3.org/2000/svg" version="1.1" id="svg1" width="16" height="16" viewBox="0 0 16 16" sodipodi:docname="zoom-double-size-symbolic.svg">
<sodipodi:namedview objecttolerance="10" gridtolerance="10" guidetolerance="10" id="namedview" showgrid="true" inkscape:zoom="0.6002936" inkscape:cx="732.67439" inkscape:cy="-567.94603" inkscape:window-width="1920" inkscape:window-height="1016" inkscape:window-x="0" inkscape:window-y="27" inkscape:window-maximized="1" inkscape:current-layer="layer1">
    <inkscape:grid type="xygrid" id="grid"/>
  </sodipodi:namedview>
  <g transform="translate(-96,-547.36218)" id="zoom-double-size" inkscape:label="00025">
      <path inkscape:connector-curvature="0" id="rect11416" d="m 96,547.36218 h 16 v 16 H 96 Z" style="opacity:0;fill:none"/>
      <path inkscape:connector-curvature="0" id="path11420" d="m 103.5,547.3622 c -4.14213,0 -7.5,3.3371 -7.5,7.4375 0,4.1004 3.35787,7.4063 7.5,7.4063 1.4733,0 2.8409,-0.4298 4,-1.1563 l 1.9688,1.9375 c 0.5179,0.5116 1.3333,0.488 1.8437,-0.031 l 0.25,-0.25 c 0.5104,-0.5192 0.518,-1.3634 0,-1.875 l -1.9062,-1.8438 c 0.8392,-1.199 1.3437,-2.6183 1.3437,-4.1875 0,-4.1004 -3.3579,-7.4375 -7.5,-7.4375 z m 2.5,4 h 1.5 0.5 v 0.5 6.5 h -1 v -6 h -1 z m -7,0 h 3 v 4 h -2 v 2 h 2 v 1 H 100.5 99 v -4 h 2 v -2 h -2 z m 5,3 h 1 v 1 h -1 z m 0,3 h 1 v 1 h -1 z" style="opacity:1"/>
    </g>
    </svg>
