<?xml version="1.0" encoding="UTF-8" standalone="no"?>
<!-- Created with Inkscape (http://www.inkscape.org/) and export_objects.py -->

<svg
   version="1.1"
   id="svg1"
   width="16"
   height="16"
   viewBox="0 0 16 16"
   sodipodi:docname="zoom-half-size-symbolic.svg"
   inkscape:version="1.4 (1:1.4+202410161351+e7c3feb100)"
   xmlns:inkscape="http://www.inkscape.org/namespaces/inkscape"
   xmlns:sodipodi="http://sodipodi.sourceforge.net/DTD/sodipodi-0.dtd"
   xmlns="http://www.w3.org/2000/svg"
   xmlns:svg="http://www.w3.org/2000/svg">
  <defs
     id="defs1" />
  <sodipodi:namedview
     objecttolerance="10"
     gridtolerance="10"
     guidetolerance="10"
     id="namedview"
     showgrid="true"
     inkscape:zoom="25.288193"
     inkscape:cx="5.4966363"
     inkscape:cy="1.6015379"
     inkscape:window-width="1860"
     inkscape:window-height="1011"
     inkscape:window-x="0"
     inkscape:window-y="0"
     inkscape:window-maximized="1"
     inkscape:current-layer="svg1"
     pagecolor="#ffffff"
     bordercolor="#000000"
     borderopacity="0.25"
     inkscape:showpageshadow="2"
     inkscape:pageopacity="0.0"
     inkscape:pagecheckerboard="0"
     inkscape:deskcolor="#d1d1d1">
    <inkscape:grid
       type="xygrid"
       id="grid"
       originx="0"
       originy="0"
       spacingy="1"
       spacingx="1"
       units="px" />
  </sodipodi:namedview>
  <path
     d="M 7.5,1 C 3.9119765,1.0044079 1.0044079,3.9119765 1,7.5 1,11.084 3.916,14 7.5,14 c 1.6122714,0 3.087348,-0.592801 4.224609,-1.568359 l 2.921875,2.921875 0.707032,-0.707032 -2.921875,-2.921875 C 13.407199,10.587348 14,9.1122714 14,7.5 14,3.916 11.084,1 7.5,1 Z m 0,1.0390625 c 3.022,0 5.460938,2.4389375 5.460938,5.4609375 0,3.022 -2.438938,5.460938 -5.460938,5.460938 C 4.482418,12.964778 2.0352217,10.517582 2.0390625,7.5 2.0390625,4.478 4.479,2.0390625 7.5,2.0390625 Z"
     style="overflow:visible;fill:#808080;fill-opacity:1"
     id="path4" />
  <path
     d="m 9,5 v 1 h 2 V 7 H 10 9 v 1 1 1 h 1 2 V 9 H 10 V 8 h 1 1 V 7 6 5 h -1 z"
     style="fill:#808080;stroke-width:2"
     id="path1" />
  <path
     d="M 3,5 V 6 H 4 V 9 H 3 v 1 H 4 5 6 V 9 H 5 V 6 5 H 4 Z"
     style="fill:#808080;stroke-width:1.63299"
     id="path2" />
  <rect
     style="fill:#808080;stroke-width:1.1547"
     id="rect1-3-27"
     width="1"
     height="1"
     x="7"
     y="6" />
  <rect
     style="fill:#808080;stroke-width:1.1547"
     id="rect1-3-27-3"
     width="1"
     height="1"
     x="7"
     y="8" />
</svg>
