<svg version="1.0" viewBox="0 0 24 24" xmlns="http://www.w3.org/2000/svg"><path d="M11.99 3A9 9 0 0 0 3 12a9 9 0 0 0 9 9 9 9 0 0 0 9-9 9 9 0 0 0-9-9 9 9 0 0 0-.01 0zM12 5a2 2 0 0 1 0 4 2 2 0 0 1 0-4zm-6 5h12v1.002h-1.207c-.447 0-.964.075-1.328.234a2.047 2.047 0 0 0-.868.655 2.407 2.407 0 0 0-.46.988 5.588 5.588 0 0 0-.127 1.225L13.986 19h-1L13 16a.998.998 0 0 0-1-1c-.552 0-.996.448-1 1l-.014 3H10l.023-4.902v-.008c-.027-.427-.04-.83-.127-1.211-.087-.38-.24-.71-.46-.986a2.046 2.046 0 0 0-.868-.657c-.365-.16-.807-.234-1.328-.234H6V10z" fill="#3D3D3D"/></svg>