<svg version="1.0" viewBox="0 0 24 24" xmlns="http://www.w3.org/2000/svg"><path class="ColorScheme-Text" d="M19 15c-1.108 0-2 .892-2 2v1h-1v4h6v-4h-1v-1c0-1.108-.892-2-2-2zm0 1c.554 0 1 .446 1 1v1h-2v-1c0-.554.446-1 1-1z" color="#31363b" fill="#3D3D3D"/><path d="M12.001 3A17.473 17.473 0 0 0 1.38 6.58L1 6.871l.291.375L11.996 21 23 6.875l-.378-.289A17.476 17.476 0 0 0 12 3zm0 .945c3.385.001 6.755 1.066 9.631 3.133l-6.414 8.236a5.955 5.898 0 0 0-6.44-.002l-6.41-8.238c2.877-2.066 6.248-3.13 9.633-3.129z" color="#000" fill="#3D3D3D" style="font-feature-settings:normal;font-variant-alternates:normal;font-variant-caps:normal;font-variant-ligatures:none;font-variant-numeric:normal;font-variant-position:normal;isolation:auto;mix-blend-mode:normal;shape-padding:0;text-decoration-color:#000;text-decoration-line:none;text-decoration-style:solid;text-indent:0;text-transform:none;white-space:normal"/></svg>