<?xml version="1.0" encoding="UTF-8"?>
<!-- Created with Inkscape (http://www.inkscape.org/) -->
<svg id="svg2511" width="48" height="48" version="1.1" xmlns="http://www.w3.org/2000/svg" xmlns:xlink="http://www.w3.org/1999/xlink">
 <defs id="defs2513">
  <linearGradient id="linearGradient10247" x1="14.125" x2="14.125" y1="79.813" y2="75.499" gradientTransform="translate(1,-42)" gradientUnits="userSpaceOnUse">
   <stop id="stop6936" style="stop-color:#babdb6" offset="0"/>
   <stop id="stop6938" style="stop-color:#babdb6;stop-opacity:0" offset="1"/>
  </linearGradient>
  <radialGradient id="radialGradient10245" cx="13.107" cy="61.48" r="18.5" gradientTransform="matrix(2.6083 0 0 2.2188 -74.941 -118.62)" gradientUnits="userSpaceOnUse" xlink:href="#linearGradient6945"/>
  <linearGradient id="linearGradient10243" x1="12.875" x2="12.875" y1="35.314" y2="15.75" gradientUnits="userSpaceOnUse">
   <stop id="stop7065" offset="0"/>
   <stop id="stop7067" style="stop-opacity:0" offset="1"/>
  </linearGradient>
  <linearGradient id="linearGradient6945">
   <stop id="stop6947" style="stop-color:#fff" offset="0"/>
   <stop id="stop6949" style="stop-color:#d3d7cf" offset="1"/>
  </linearGradient>
  <radialGradient id="radialGradient10241" cx="12.5" cy="15.928" r="18.5" gradientTransform="matrix(2.0136 0 0 1.7461 -12.669 -9.186)" gradientUnits="userSpaceOnUse" xlink:href="#linearGradient6945"/>
  <radialGradient id="radialGradient10239" cx="605.71" cy="486.65" r="117.14" gradientTransform="matrix(-2.7744 0 0 1.9697 112.76 -872.89)" gradientUnits="userSpaceOnUse" xlink:href="#linearGradient5060"/>
  <linearGradient id="linearGradient5060">
   <stop id="stop5062" offset="0"/>
   <stop id="stop5064" style="stop-opacity:0" offset="1"/>
  </linearGradient>
  <radialGradient id="radialGradient10237" cx="605.71" cy="486.65" r="117.14" gradientTransform="matrix(2.7744 0 0 1.9697 -1891.6 -872.89)" gradientUnits="userSpaceOnUse" xlink:href="#linearGradient5060"/>
  <linearGradient id="linearGradient10235" x1="302.86" x2="302.86" y1="366.65" y2="609.51" gradientTransform="matrix(2.7744 0 0 1.9697 -1892.2 -872.89)" gradientUnits="userSpaceOnUse">
   <stop id="stop5050" style="stop-opacity:0" offset="0"/>
   <stop id="stop5056" offset=".5"/>
   <stop id="stop5052" style="stop-opacity:0" offset="1"/>
  </linearGradient>
  <radialGradient id="radialGradient3868" cx="6.7027" cy="73.616" r="7.2284" gradientTransform="scale(1.9022 .5257)" gradientUnits="userSpaceOnUse">
   <stop id="stop10693" offset="0"/>
   <stop id="stop10695" style="stop-opacity:0" offset="1"/>
  </radialGradient>
  <linearGradient id="linearGradient3307" x1="29.652" x2="29.652" y1="23.952" y2="46.002" gradientUnits="userSpaceOnUse">
   <stop id="stop3303" style="stop-color:#b95858" offset="0"/>
   <stop id="stop3305" style="stop-color:#763434" offset="1"/>
  </linearGradient>
  <linearGradient id="linearGradient3299" x1="29.25" x2="29.25" y1="11.454" y2="43.727" gradientTransform="matrix(.66753 0 0 .6681 17.059 16.057)" gradientUnits="userSpaceOnUse">
   <stop id="stop3682" style="stop-color:#e86666" offset="0"/>
   <stop id="stop3684" style="stop-color:#ab2a2a" offset="1"/>
  </linearGradient>
  <linearGradient id="linearGradient3295" x1="-32.096" x2="-32.137" y1="7.4581" y2="37.814" gradientUnits="userSpaceOnUse">
   <stop id="stop3219" style="stop-color:#fff" offset="0"/>
   <stop id="stop3221" style="stop-color:#fff;stop-opacity:0" offset="1"/>
  </linearGradient>
 </defs>
 <g id="layer1">
  <g id="g8328" transform="translate(-240)">
   <g id="g11036" transform="translate(240,-1)">
    <g id="g11038" transform="matrix(.022163 0 0 .010695 44.212 36.054)" style="opacity:.7">
     <rect id="rect11040" x="-1559.3" y="-150.7" width="1339.6" height="478.36" style="color:black;fill:url(#linearGradient10235);opacity:.39196"/>
     <path id="path11042" d="m-219.62-150.68v478.33c142.87 0.90045 345.4-107.17 345.4-239.2 0-132.03-159.44-239.13-345.4-239.13z" style="color:black;fill:url(#radialGradient10237);opacity:.40206"/>
     <path id="path11044" d="m-1559.3-150.68v478.33c-142.87 0.90045-345.4-107.17-345.4-239.2 0-132.03 159.44-239.13 345.4-239.13z" style="color:black;fill:url(#radialGradient10239);opacity:.40206"/>
    </g>
    <rect id="rect11046" x="6.5" y="12.5" width="36" height="25" rx="1.5341" ry="1.5341" style="fill-rule:evenodd;fill:url(#radialGradient10241);stroke-dashoffset:.7;stroke-opacity:.99237;stroke:#888a85"/>
    <path id="path11048" d="m7.9062 12.938c-0.54928 0-0.96875 0.41947-0.96875 0.96875v1.4062l9.0938 11.594 1.125-1.25c0.46937-0.46937 0.93435-1.085 1.9688-1.5s2.5836-0.65625 5.375-0.65625c2.7801-1e-6 4.3385 0.24163 5.375 0.65625s1.498 1.0293 1.9688 1.5l1.125 1.25 9.0938-11.594v-1.4062c0-0.54928-0.41947-0.96875-0.96875-0.96875h-33.188z" style="fill-rule:evenodd;fill:url(#linearGradient10243);opacity:.23134"/>
    <path id="path11050" d="m7 37 10.156-11.344c0.46937-0.46937 0.93435-1.085 1.9688-1.5s2.5836-0.65625 5.375-0.65625c2.7801-1e-6 4.3385 0.24163 5.375 0.65625s1.498 1.0293 1.9688 1.5l10.156 11.344-10.156-10.344c-2.044-1.9696-4.5182-2.2722-7.3438-2.1562-2.6708 0.04954-5.4643-3.3e-4 -7.3438 2.1562l-10.156 10.344z" style="fill-rule:evenodd;fill:#888a85"/>
    <path id="path11052" d="m7 37.021 10.156-9.3438c1.8794-2.1566 4.6729-2.1067 7.3438-2.1562 2.8255-0.11591 5.2997 0.18666 7.3438 2.1562l10.156 9.3438-10.156-10.344c-2.044-1.9696-4.5182-2.2722-7.3438-2.1562-2.6708 0.04954-5.4643-3.3e-4 -7.3438 2.1562l-10.156 10.344z" style="fill-rule:evenodd;fill:#fff"/>
    <path id="path11054" transform="translate(50)" d="m-42.094 12.938c-0.54928 0-0.96875 0.41947-0.96875 0.96875v1.4062l10.875 10.875c0.52722 0.52722 0.81024 0.94182 1.6562 1.2812s2.2966 0.59375 5.0312 0.59375c2.7232 1e-6 4.1818-0.25397 5.0312-0.59375s1.1302-0.75521 1.6562-1.2812l10.875-10.875v-1.4062c0-0.54928-0.41947-0.96875-0.96875-0.96875h-33.188z" style="fill-rule:evenodd;fill:url(#radialGradient10245)"/>
    <path id="path11056" d="m7 15.5 10.156 11.344c0.46937 0.46937 0.93435 1.085 1.9688 1.5s2.5836 0.65625 5.375 0.65625c2.7801 1e-6 4.3385-0.24163 5.375-0.65625s1.498-1.0293 1.9688-1.5l10.156-11.344-10.156 10.344c-2.044 1.9696-4.5182 2.2722-7.3438 2.1562-2.6708-0.04954-5.4643 3.3e-4 -7.3438-2.1562l-10.156-10.344z" style="fill-rule:evenodd;fill:#888a85"/>
    <path id="path11058" d="m7 15.5 10.156 9.3438c1.8794 2.1566 4.6729 2.1067 7.3438 2.1562 2.8255 0.11591 5.2997-0.18666 7.3438-2.1562l10.156-9.3438-10.156 10.344c-2.044 1.9696-4.5182 2.2722-7.3438 2.1562-2.6708-0.04954-5.4643 3.3e-4 -7.3438-2.1562l-10.156-10.344z" style="fill-rule:evenodd;fill:#fff"/>
    <path id="path11060" transform="translate(1,-42)" d="m6.9062 55.5c-0.25653 0-0.40625 0.14972-0.40625 0.40625v22.188c0 0.25653 0.14972 0.40625 0.40625 0.40625h33.188c0.25653 0 0.40625-0.14972 0.40625-0.40625v-22.188c0-0.25653-0.14972-0.40625-0.40625-0.40625h-33.188z" style="fill:none;opacity:.7;stroke-dashoffset:.7;stroke-linejoin:round;stroke-opacity:.99237;stroke:#fff"/>
    <path id="path11062" d="m7 32.906v3.1875c0 0.52101 0.38524 0.90625 0.90625 0.90625h33.188c0.52101 0 0.90625-0.38524 0.90625-0.90625v-3.1875h-35z" style="fill-rule:evenodd;fill:url(#linearGradient10247);opacity:.55597"/>
   </g>
  </g>
  <path id="path2883" transform="matrix(1.0909 0 0 1.2121 19.091 -3.5152)" d="m26.5 38.7a13.75 3.8 0 1 1-27.5 0 13.75 3.8 0 1 1 27.5 0z" style="fill:url(#radialGradient3868);opacity:.5"/>
  <path id="path2555" d="m33.08 18.5c-7.4931 0-13.58 6.0922-13.58 13.592 0 7.4994 6.0643 13.409 13.557 13.409 7.493 0 13.443-5.9094 13.443-13.409 0-7.4994-5.9273-13.592-13.42-13.592zm0 4.3635c5.0943 0 9.2203 4.1295 9.2203 9.2281 0 2.1398-0.74079 4.0931-1.9609 5.658l-11.682-13.759c1.3125-0.71875 2.8201-1.1274 4.4224-1.1274zm-7.3846 3.7163 11.64 13.696c-1.2731 0.66383-2.72 1.0439-4.2555 1.0439-5.0943-1e-6 -9.2203-4.1295-9.2203-9.2281 0-2.0713 0.68552-3.9723 1.8357-5.5118z" style="fill:url(#linearGradient3299);stroke-linecap:round;stroke-linejoin:round;stroke-miterlimit:2;stroke-width:.99956;stroke:url(#linearGradient3307)"/>
  <path id="path3211" transform="matrix(.90182 0 0 .90258 62.271 11.55)" d="m-18.564 22.686a13.876 13.876 0 1 1-27.753 0 13.876 13.876 0 1 1 27.753 0z" style="fill:none;opacity:.5;stroke-linecap:round;stroke-linejoin:round;stroke-miterlimit:2;stroke-width:1.1079;stroke:url(#linearGradient3295)"/>
 </g>
</svg>
