<?xml version="1.0" encoding="UTF-8"?>
<!-- Created with Inkscape (http://www.inkscape.org/) -->
<svg id="svg3720" width="48" height="48" version="1.1" xmlns="http://www.w3.org/2000/svg" xmlns:xlink="http://www.w3.org/1999/xlink">
 <defs id="defs3722">
  <linearGradient id="linearGradient3678" x1="26.796" x2="26.796" y1="4" y2="7.0016" gradientUnits="userSpaceOnUse">
   <stop id="stop3674" style="stop-color:#fff" offset="0"/>
   <stop id="stop3676" style="stop-color:#fff;stop-opacity:0" offset="1"/>
  </linearGradient>
  <linearGradient id="linearGradient2884" x1="43.13" x2="7.9314" y1="15.195" y2="34.731" gradientTransform="matrix(0 -1.0046 1 0 -1.9921 51.044)" gradientUnits="userSpaceOnUse">
   <stop id="stop5115" style="stop-color:#fff" offset="0"/>
   <stop id="stop5117" style="stop-color:#fff;stop-opacity:0" offset="1"/>
  </linearGradient>
  <linearGradient id="linearGradient2887" x1="23.965" x2="23.965" y1="11.358" y2="43" gradientTransform="translate(-1.405e-5,-1.18e-5)" gradientUnits="userSpaceOnUse">
   <stop id="stop3618" style="stop-color:#f0c178" offset="0"/>
   <stop id="stop3270" style="stop-color:#e18941" offset=".5"/>
   <stop id="stop3620" style="stop-color:#ec4f18" offset="1"/>
  </linearGradient>
  <linearGradient id="linearGradient3670" x1="18.39" x2="18.39" y1="43" y2="7.9502" gradientUnits="userSpaceOnUse">
   <stop id="stop3624" style="stop-color:#bb2b12" offset="0"/>
   <stop id="stop3626" style="stop-color:#cd7233" offset="1"/>
  </linearGradient>
  <radialGradient id="radialGradient3718" cx="11.25" cy="19.031" r="8.0625" gradientTransform="matrix(2.4806 0 0 .68217 -3.907 27.517)" gradientUnits="userSpaceOnUse">
   <stop id="stop5107" offset="0"/>
   <stop id="stop5109" style="stop-opacity:0" offset="1"/>
  </radialGradient>
 </defs>
 <g id="layer1">
  <path id="path2579" d="m44 40.5a20 5.5 0 0 1-40 0 20 5.5 0 1 1 40 0z" style="fill:url(#radialGradient3718);opacity:.16292"/>
  <path id="path2581" d="m7.5 27.504 16.506-19.004 16.423 19.004h-7.8698v14.996h-17.055v-14.996h-8.0043z" style="fill:url(#linearGradient2887);stroke:url(#linearGradient3670)"/>
  <path id="path2583" d="m9.6411 26.433 14.386-16.517 14.199 16.517h-6.7384v15.067h-14.978v-15.067h-6.8689z" style="fill:none;opacity:.4;stroke:url(#linearGradient2884)"/>
  <rect id="rect4242" x="7.5" y="3.5" width="33" height="4" style="fill:#efbe75;stroke:#cc6f32"/>
  <rect id="rect6697" x="8.5" y="4.5" width="31" height="2" style="fill:#f8cd70;opacity:.4;stroke:url(#linearGradient3678)"/>
 </g>
</svg>
