<?xml version="1.0" encoding="UTF-8"?>
<!-- Created with Inkscape (http://www.inkscape.org/) -->
<svg id="svg3675" width="48" height="48" version="1.0" xmlns="http://www.w3.org/2000/svg" xmlns:cc="http://creativecommons.org/ns#" xmlns:dc="http://purl.org/dc/elements/1.1/" xmlns:rdf="http://www.w3.org/1999/02/22-rdf-syntax-ns#" xmlns:xlink="http://www.w3.org/1999/xlink">
 <metadata id="metadata29">
  <rdf:RDF>
   <cc:Work rdf:about="">
    <dc:format>image/svg+xml</dc:format>
    <dc:type rdf:resource="http://purl.org/dc/dcmitype/StillImage"/>
   </cc:Work>
  </rdf:RDF>
 </metadata>
 <defs id="defs3677">
  <linearGradient id="linearGradient2407" x1="63.397" x2="63.397" y1="-12.489" y2="5.4676" gradientTransform="matrix(2.1154 0 0 2.1153 -107.58 32.427)" gradientUnits="userSpaceOnUse">
   <stop id="stop4875" style="stop-color:#fff" offset="0"/>
   <stop id="stop4877" style="stop-color:#fff;stop-opacity:0" offset="1"/>
  </linearGradient>
  <radialGradient id="radialGradient2410" cx="23.896" cy="3.99" r="20.397" gradientTransform="matrix(0 2.2875 -3.0194 0 36.047 -50.63)" gradientUnits="userSpaceOnUse">
   <stop id="stop2778" style="stop-color:#8badea" offset="0"/>
   <stop id="stop2780" style="stop-color:#6396cd" offset=".26238"/>
   <stop id="stop2782" style="stop-color:#3b7caf" offset=".66094"/>
   <stop id="stop2784" style="stop-color:#194c70" offset="1"/>
  </radialGradient>
  <linearGradient id="linearGradient2412" x1="18.379" x2="18.379" y1="44.98" y2="3.0816" gradientTransform="matrix(.95844 0 0 .95844 .99752 1.9975)" gradientUnits="userSpaceOnUse">
   <stop id="stop2788" style="stop-color:#1f4b6a" offset="0"/>
   <stop id="stop2790" style="stop-color:#4083c2" offset="1"/>
  </linearGradient>
  <radialGradient id="radialGradient2415" cx="62.625" cy="4.625" r="10.625" gradientTransform="matrix(2.1647 0 0 .75294 -111.56 36.518)" gradientUnits="userSpaceOnUse">
   <stop id="stop8840" offset="0"/>
   <stop id="stop8842" style="stop-opacity:0" offset="1"/>
  </radialGradient>
 </defs>
 <path id="path8836" d="m47 40c0 4.4183-10.297 8-23 8s-23-3.5817-23-8 10.297-8 23-8 23 3.5817 23 8z" style="fill-rule:evenodd;fill:url(#radialGradient2415);opacity:.3"/>
 <path id="path2555" d="m24 5.5018c-10.758 0-19.498 8.7398-19.498 19.498s8.7398 19.498 19.498 19.498c10.758 0 19.498-8.7398 19.498-19.498 0-10.758-8.7398-19.498-19.498-19.498z" style="fill:url(#radialGradient2410);stroke-linecap:round;stroke-linejoin:round;stroke-width:1.0037;stroke:url(#linearGradient2412)"/>
 <path id="path8655" d="m42.5 24.999c0 10.218-8.2833 18.501-18.5 18.501-10.217 0-18.5-8.2832-18.5-18.501 0-10.217 8.2829-18.499 18.5-18.499 10.216 0 18.5 8.2822 18.5 18.499z" style="fill:none;opacity:.4;stroke:url(#linearGradient2407)"/>
 <path id="path9053" d="m24.91 30.164c-0.066079-2.3588 0.46237-4.6486 2.6909-6.2706 2.3539-1.8344 4.6208-4.1294 4.3812-6.8348-0.052311-2.6091-3.0922-4.6535-6.3675-4.9475-3.6842-0.51039-8.142 0.75174-9.3766 3.6289-0.62613 1.3994-0.045502 3.91 2.0558 3.91 1.2291 0 1.7936-0.79393 1.8863-1.5202 0.070168-0.54951-0.15543-1.0402-0.28867-1.4941-0.15181-0.51719 0.49625-1.5196 1.2021-1.928 0.5898-0.34127 1.2069-0.45571 1.2978-0.47757 2.1181-0.50904 4.2296 0.61537 5.1106 1.9839 0.88095 1.3685-0.088708 3.4444-1.4829 5.463s-2.8903 4.3114-2.8843 6.7467c0 0.92712-0.082606 1.2421-0.023912 1.6172 0.046895 0.29969 1.0392 0.26347 1.7992 0.12291zm-0.96666 3.1748c-2.0253-0.10994-3.4271 2.186-2.2104 3.6488 1.0866 1.6151 4.133 1.2164 4.6552-0.61254 0.54286-1.4222-0.76354-3.06-2.4448-3.0363l-1e-6 1e-6z" style="opacity:.2"/>
 <path id="path3298" d="m24.91 31.164c-0.066079-2.3588 0.46237-4.6486 2.6909-6.2706 2.3539-1.8344 4.6208-4.1294 4.3812-6.8348-0.052311-2.6091-3.0922-4.6535-6.3675-4.9475-3.6842-0.51039-8.142 0.75174-9.3766 3.6289-0.62613 1.3994-0.045502 3.91 2.0558 3.91 1.2291 0 1.7936-0.79393 1.8863-1.5202 0.070168-0.54951-0.15543-1.0402-0.28867-1.4941-0.15181-0.51719 0.49625-1.5196 1.2021-1.928 0.5898-0.34127 1.2069-0.45571 1.2978-0.47757 2.1181-0.50904 4.2296 0.61537 5.1106 1.9839 0.88095 1.3685-0.088708 3.4444-1.4829 5.463s-2.8903 4.3114-2.8843 6.7467c0 0.92712-0.082606 1.2421-0.023912 1.6172 0.046895 0.29969 1.0392 0.26347 1.7992 0.12291zm-0.96666 3.1748c-2.0253-0.10994-3.4271 2.186-2.2104 3.6488 1.0866 1.6151 4.133 1.2164 4.6552-0.61254 0.54286-1.4222-0.76354-3.06-2.4448-3.0363l-1e-6 1e-6z" style="fill:#fff"/>
</svg>
