<?xml version="1.0" encoding="UTF-8"?>
<!-- Created with Inkscape (http://www.inkscape.org/) -->
<svg id="svg3674" width="48" height="48" version="1.1" xmlns="http://www.w3.org/2000/svg" xmlns:xlink="http://www.w3.org/1999/xlink">
 <defs id="defs3676">
  <radialGradient id="radialGradient9565" cx="605.71" cy="486.65" r="117.14" gradientTransform="matrix(.024097 0 0 .015375 26.478 38.629)" gradientUnits="userSpaceOnUse" xlink:href="#linearGradient5060"/>
  <linearGradient id="linearGradient5060">
   <stop id="stop5062" offset="0"/>
   <stop id="stop5064" style="stop-opacity:0" offset="1"/>
  </linearGradient>
  <radialGradient id="radialGradient9563" cx="605.71" cy="486.65" r="117.14" gradientTransform="matrix(-.024097 0 0 .015375 21.522 38.629)" gradientUnits="userSpaceOnUse" xlink:href="#linearGradient5060"/>
  <linearGradient id="linearGradient9561" x1="302.86" x2="302.86" y1="366.65" y2="609.51" gradientTransform="matrix(.070414 0 0 .015375 -1.4497 38.629)" gradientUnits="userSpaceOnUse">
   <stop id="stop5050" style="stop-opacity:0" offset="0"/>
   <stop id="stop5056" offset=".5"/>
   <stop id="stop5052" style="stop-opacity:0" offset="1"/>
  </linearGradient>
  <radialGradient id="radialGradient2224" cx="24.5" cy="39.625" r="19.25" gradientTransform="matrix(1 0 0 .34416 0 25.988)" gradientUnits="userSpaceOnUse">
   <stop id="stop2220" offset="0"/>
   <stop id="stop2222" style="stop-opacity:0" offset="1"/>
  </radialGradient>
  <linearGradient id="linearGradient6025" x1="26.538" x2="29.268" y1="22.765" y2="45.015" gradientTransform="translate(0,-4)" gradientUnits="userSpaceOnUse">
   <stop id="stop2202" style="stop-color:#fff" offset="0"/>
   <stop id="stop2204" style="stop-color:#fff;stop-opacity:0" offset="1"/>
  </linearGradient>
  <linearGradient id="linearGradient6023" x1="20.909" x2="20.909" y1="42.125" y2="13.816" gradientTransform="translate(0,-4)" gradientUnits="userSpaceOnUse">
   <stop id="stop260" style="stop-color:#fafafa" offset="0"/>
   <stop id="stop261" style="stop-color:#bbb" offset="1"/>
  </linearGradient>
  <linearGradient id="linearGradient6017" x1="24.139" x2="24.139" y1="-9.8009" y2="47.273" gradientTransform="matrix(.53643 0 0 .5332 -15.688 50.169)" gradientUnits="userSpaceOnUse">
   <stop id="stop4224" style="stop-color:#fff" offset="0"/>
   <stop id="stop4226" style="stop-color:#fff;stop-opacity:0" offset="1"/>
  </linearGradient>
  <linearGradient id="linearGradient6015" x1="24.104" x2="24.104" y1="15.169" y2="32.485" gradientTransform="matrix(.89305 0 0 .88766 -24.247 42.161)" gradientUnits="userSpaceOnUse">
   <stop id="stop2266" style="stop-color:#d7e866" offset="0"/>
   <stop id="stop2268" style="stop-color:#8cab2a" offset="1"/>
  </linearGradient>
 </defs>
 <g id="layer1">
  <g id="g2877" transform="matrix(1.2013 0 0 1.2013 -4.8309 -14.135)">
   <rect id="rect2879" x="7" y="44.266" width="34" height="3.7339" style="fill:url(#linearGradient9561);opacity:.40206"/>
   <path id="path2881" d="m7 44.266v3.7337c-1.2409 7e-3 -3-0.83652-3-1.8671 0-1.0305 1.3848-1.8666 3-1.8666z" style="fill:url(#radialGradient9563);opacity:.40206"/>
   <path id="path2883" d="m41 44.266v3.7337c1.2409 7e-3 3-0.83652 3-1.8671 0-1.0305-1.3848-1.8666-3-1.8666z" style="fill:url(#radialGradient9565);opacity:.40206"/>
  </g>
  <path id="path2208" transform="matrix(1 0 0 .50943 -.5 17.439)" d="m43.75 39.625a19.25 6.625 0 1 1-38.5 0 19.25 6.625 0 1 1 38.5 0z" style="color:black;fill-rule:evenodd;fill:url(#radialGradient2224);opacity:.32955"/>
  <g id="g6019" transform="translate(0,4)">
   <path id="rect1316" d="m8.9931 10.471c-1.9204 0-3.4931 1.5991-3.4931 3.5402v15.493h-3.4375c-0.30246 0-0.53125 0.25986-0.53125 0.5625v6.8705c0 0.30265 0.22879 0.5625 0.53125 0.5625h43.875c0.30246 0 0.5625-0.25985 0.5625-0.5625v-6.8705c0-0.30265-0.26004-0.5625-0.5625-0.5625h-4.4062v-14.548c-0.04201-1.9411-1.545-4.5152-3.4439-4.5152l-29.094 0.02971z" style="fill-rule:evenodd;fill:url(#linearGradient6023);stroke-linejoin:round;stroke:#888a85"/>
   <path id="path1331" d="m8.8782 11.497c-1.1571 0-2.3632 0.96357-2.3632 2.5375l-0.059414 16.582-3.9176-0.06919 0.092597 5.9862h42.887l-0.11515-5.9268-4.9342-0.05983v-14.858c-0.04021-1.8115-1.2386-4.1623-3.0562-4.1623l-28.534-0.029712z" style="fill:none;opacity:.6;stroke-linecap:round;stroke-linejoin:round;stroke:url(#linearGradient6025)"/>
  </g>
  <g id="g5278" transform="translate(40.867 -25.532)">
   <path id="path2262" d="m-6.3336 60.032v-5.0014h6.9665v5.0014h5.0014v7h-5.0014v5h-6.9726l-0.027688-5h-4.9997v-7h5.0335z" style="fill-rule:evenodd;fill:url(#linearGradient6015);stroke-linejoin:round;stroke:#42770c"/>
   <path id="path2272" d="m-5.3671 61.032v-5h5.0014v5h4.9986v4.9259l-4.9986-0.01562v5.0897h-5.0014v-5h-5v-5h5z" style="fill:none;opacity:.6;stroke:url(#linearGradient6017)"/>
  </g>
 </g>
</svg>
