<?xml version="1.0" encoding="UTF-8"?>
<!-- Created with Inkscape (http://www.inkscape.org/) -->
<svg id="svg3027" width="48px" height="48px" version="1.1" xmlns="http://www.w3.org/2000/svg" xmlns:cc="http://creativecommons.org/ns#" xmlns:dc="http://purl.org/dc/elements/1.1/" xmlns:rdf="http://www.w3.org/1999/02/22-rdf-syntax-ns#" xmlns:xlink="http://www.w3.org/1999/xlink">
 <defs id="defs3029">
  <linearGradient id="linearGradient2865" x1="17.592" x2="17.592" y1="7" y2="-.024518" gradientTransform="matrix(2 0 0 2 -2 1.9989)" gradientUnits="userSpaceOnUse" xlink:href="#linearGradient3251"/>
  <linearGradient id="linearGradient3251">
   <stop id="stop3253" style="stop-color:#917f6e" offset="0"/>
   <stop id="stop3255" style="stop-color:#cbbaa9" offset="1"/>
  </linearGradient>
  <linearGradient id="linearGradient2979" x1="38.382" x2="38.382" y1="5.4849" y2="22.698" gradientTransform="matrix(2 0 0 2 -50 -4.0011)" gradientUnits="userSpaceOnUse">
   <stop id="stop4224-8" style="stop-color:#fff" offset="0"/>
   <stop id="stop4226-7" style="stop-color:#fff;stop-opacity:0" offset="1"/>
  </linearGradient>
  <linearGradient id="linearGradient2868" x1="40.007" x2="40.007" y1="12.911" y2="7.0925" gradientTransform="matrix(1.6599 0 0 1.6599 -35.909 -1.1011)" gradientUnits="userSpaceOnUse">
   <stop id="stop4224" style="stop-color:#fff" offset="0"/>
   <stop id="stop4226" style="stop-color:#fff;stop-opacity:0" offset="1"/>
  </linearGradient>
  <linearGradient id="linearGradient2874" x1="39.906" x2="39.906" y1="6.123" y2="24.034" gradientTransform="matrix(2 0 0 2 -49.5 -4.5)" gradientUnits="userSpaceOnUse">
   <stop id="stop3245" style="stop-color:#fff4e9" offset="0"/>
   <stop id="stop3247" style="stop-color:#e7d6c5" offset="1"/>
  </linearGradient>
  <linearGradient id="linearGradient2876" x1="32.016" x2="32.016" y1="24.011" y2="5" gradientTransform="matrix(2 0 0 2 -49.5 -4.5)" gradientUnits="userSpaceOnUse" xlink:href="#linearGradient3251"/>
  <radialGradient id="radialGradient3025" cx="10.471" cy="20.147" r="9.2147" gradientTransform="matrix(1.9534 0 0 .65114 -2.4545 24.881)" gradientUnits="userSpaceOnUse">
   <stop id="stop3285" offset="0"/>
   <stop id="stop3287" style="stop-opacity:0" offset="1"/>
  </radialGradient>
  <linearGradient id="linearGradient5530" x1="22.369" x2="22.369" y1="8.0323" y2="38.274" gradientTransform="matrix(.59882 0 0 .5952 23.605 21.219)" gradientUnits="userSpaceOnUse">
   <stop id="stop3945" style="stop-color:#fff" offset="0"/>
   <stop id="stop3947" style="stop-color:#fff;stop-opacity:0" offset="1"/>
  </linearGradient>
  <radialGradient id="radialGradient3419" cx="69.448" cy="51.695" r="31" gradientTransform="matrix(0 .67924 -.73892 0 72.903 -19.49)" gradientUnits="userSpaceOnUse">
   <stop id="stop3244-5" style="stop-color:#eef87e" offset="0"/>
   <stop id="stop3246-9" style="stop-color:#cde34f" offset=".26238"/>
   <stop id="stop3248-7" style="stop-color:#93b723" offset=".66094"/>
   <stop id="stop3250-8" style="stop-color:#5a7e0d" offset="1"/>
  </radialGradient>
  <linearGradient id="linearGradient3421" x1="72.422" x2="72.422" y1="123.19" y2="52.809" gradientTransform="matrix(.28214 0 0 .28445 12.171 9.9582)" gradientUnits="userSpaceOnUse">
   <stop id="stop2492-3" style="stop-color:#365f0e" offset="0"/>
   <stop id="stop2494-8" style="stop-color:#84a718" offset="1"/>
  </linearGradient>
 </defs>
 <metadata id="metadata3032">
  <rdf:RDF>
   <cc:Work rdf:about="">
    <dc:format>image/svg+xml</dc:format>
    <dc:type rdf:resource="http://purl.org/dc/dcmitype/StillImage"/>
    <dc:title/>
   </cc:Work>
  </rdf:RDF>
 </metadata>
 <g id="layer1">
  <path id="path3281" d="m36 37.999a18 6 0 1 1-36 0 18 6 0 1 1 36 0z" style="fill-rule:evenodd;fill:url(#radialGradient3025);opacity:.3"/>
  <path id="path2463" d="m22.5 6.5-19 19.688 16.5 16.312 19.5-19v-17h-17zm8 6c1.656 0 3 1.344 3 3s-1.344 3-3 3-3-1.344-3-3 1.344-3 3-3z" style="fill-rule:evenodd;fill:url(#linearGradient2874);stroke-width:1px;stroke:url(#linearGradient2876)"/>
  <path id="path3294" d="m30.489 11.504c2.512-0.08856 4.5832 2.5792 3.8682 4.9911-0.53091 2.3668-3.4452 3.7307-5.5982 2.6028-2.216-0.97884-2.9885-4.0952-1.4696-5.9878 0.73783-0.99843 1.9565-1.6157 3.1996-1.6061z" style="fill:none;opacity:.6;stroke-width:1px;stroke:url(#linearGradient2868)"/>
  <path id="path2935" d="m22.938 7.4688c-6.0208 6.2396-12.042 12.479-18.063 18.719 5.0417 4.9792 10.083 9.9583 15.125 14.938 6.1771-6.0208 12.354-12.042 18.531-18.062v-15.594h-15.594z" style="color:#000000;fill:none;opacity:.6;stroke-width:1px;stroke:url(#linearGradient2979)"/>
  <path id="path3298" d="m31 14.999c2.218-1.1744 5.108-1.5342 7.8537-1.5955 1.2343-0.02752 2.4819 0.2238 3.6931-0.06428 1.5415-0.36666 2.592-1.496 2.4383-2.5285-0.20628-1.3859-2.068-2.409-3.8141-3.1412-1.5488-0.64943-2.7409-1.8067-3.3709-3.0292-0.31829-0.61767 0.23757-1.2662 1.1292-1.4653 0.80999-0.18087 1.6584-0.25237 2.4826-0.068712 1.2545 0.27952 2.7354 0.62054 3.3189 1.5093" style="fill:none;stroke-width:1px;stroke:url(#linearGradient2865)"/>
  <path id="path2262" d="m33.5 31.5v-6.0274h7v6.0274h6.0073v7h-6.0073v6.0073h-7v-6.0073h-6.0073v-7h6.0073z" style="color:#000000;fill:url(#radialGradient3419);stroke-linecap:round;stroke-linejoin:round;stroke-width:.98543;stroke:url(#linearGradient3421)"/>
  <path id="path2272" d="m34.5 32.5v-6h5v6h6v5h-6v6h-5v-6h-6v-5h6z" style="fill:none;opacity:.4;stroke:url(#linearGradient5530)"/>
 </g>
</svg>
