<svg version="1.0" viewBox="0 0 22 22" xmlns="http://www.w3.org/2000/svg" xmlns:xlink="http://www.w3.org/1999/xlink"><defs><linearGradient id="b" x1="39" x2="30" y1="78.804" y2="84" gradientTransform="translate(-22.782 -76.799) scale(1.0417)" gradientUnits="userSpaceOnUse" xlink:href="#a"/><linearGradient id="a"><stop stop-color="#333" offset="0"/><stop stop-color="#c1ebfa" stop-opacity="0" offset="1"/></linearGradient><linearGradient id="c" x1="39" x2="39" y1="89.196" y2="78.804" gradientTransform="translate(-22.782 -76.799) scale(1.0417)" gradientUnits="userSpaceOnUse" xlink:href="#a"/><linearGradient id="d" x1="30" x2="39" y1="84" y2="89.196" gradientTransform="translate(-22.782 -76.799) scale(1.0417)" gradientUnits="userSpaceOnUse" xlink:href="#a"/></defs><g fill="none" stroke-dashoffset="1" stroke-linecap="round" stroke-width="2"><path d="M8.468 10.703a6.25 6.25 0 0 1 3.125-5.413 6.25 6.25 0 0 1 6.25 0" stroke="url(#b)" transform="rotate(10.909 15.861 -13.962) scale(1.0346)"/><path d="M17.843 5.29a6.25 6.25 0 0 1 3.125 5.413 6.25 6.25 0 0 1-3.125 5.413" stroke="url(#c)" transform="rotate(10.909 15.861 -13.962) scale(1.0346)"/><path d="M17.843 16.116a6.25 6.25 0 0 1-6.25 0 6.25 6.25 0 0 1-3.125-5.413" stroke="url(#d)" transform="rotate(10.909 15.861 -13.962) scale(1.0346)"/></g></svg>