<svg version="1.0" viewBox="0 0 24 24" xmlns="http://www.w3.org/2000/svg"><path class="ColorScheme-Text" d="M19 15c-1.108 0-2 .892-2 2v1h-1v4h6v-4h-1v-1c0-1.108-.892-2-2-2zm0 1c.554 0 1 .446 1 1v1h-2v-1c0-.554.446-1 1-1z" color="#31363b" fill="#333"/><path d="M12.001 3A17.472 17.472 0 0 0 1.38 6.581l-.38.29.293.375L11.997 21 23.001 6.876l-.38-.29A17.475 17.475 0 0 0 12.002 3zm0 .946c3.385.001 6.756 1.065 9.632 3.133l-9.636 12.37-9.63-12.374c2.877-2.066 6.249-3.129 9.634-3.128z" color="#000" fill="#333" style="font-feature-settings:normal;font-variant-alternates:normal;font-variant-caps:normal;font-variant-ligatures:none;font-variant-numeric:normal;font-variant-position:normal;isolation:auto;mix-blend-mode:normal;shape-padding:0;text-decoration-color:#000;text-decoration-line:none;text-decoration-style:solid;text-indent:0;text-transform:none;white-space:normal"/></svg>