<?xml version="1.0" encoding="UTF-8" standalone="no"?>
<!-- Created with Inkscape (http://www.inkscape.org/) -->

<svg
   xmlns:dc="http://purl.org/dc/elements/1.1/"
   xmlns:cc="http://creativecommons.org/ns#"
   xmlns:rdf="http://www.w3.org/1999/02/22-rdf-syntax-ns#"
   xmlns:svg="http://www.w3.org/2000/svg"
   xmlns="http://www.w3.org/2000/svg"
   xmlns:xlink="http://www.w3.org/1999/xlink"
   xmlns:sodipodi="http://sodipodi.sourceforge.net/DTD/sodipodi-0.dtd"
   xmlns:inkscape="http://www.inkscape.org/namespaces/inkscape"
   inkscape:export-ydpi="90.000000"
   inkscape:export-xdpi="90.000000"
   width="400"
   height="300"
   id="svg11300"
   sodipodi:version="0.32"
   inkscape:version="0.92.2 (5c3e80d, 2017-08-06)"
   sodipodi:docname="preferences-desktop-font.svg"
   inkscape:output_extension="org.inkscape.output.svg.inkscape"
   version="1.0"
   style="display:inline;enable-background:new"
   inkscape:export-filename="/home/sam/suru-template.png">
  <title
     id="title3004">Suru Icon Theme Template</title>
  <sodipodi:namedview
     stroke="#ef2929"
     fill="#f57900"
     id="base"
     pagecolor="#ffffff"
     bordercolor="#000000"
     borderopacity="0.25490196"
     inkscape:pageopacity="0"
     inkscape:pageshadow="2"
     inkscape:zoom="1"
     inkscape:cx="165.62695"
     inkscape:cy="169.86706"
     inkscape:current-layer="layer6"
     showgrid="false"
     inkscape:grid-bbox="true"
     inkscape:document-units="px"
     inkscape:showpageshadow="false"
     inkscape:window-width="1920"
     inkscape:window-height="1016"
     inkscape:window-x="0"
     inkscape:window-y="27"
     width="400px"
     height="300px"
     inkscape:snap-nodes="true"
     inkscape:snap-bbox="true"
     gridtolerance="10000"
     inkscape:object-nodes="true"
     inkscape:snap-grids="true"
     showguides="true"
     inkscape:guide-bbox="true"
     inkscape:window-maximized="1"
     inkscape:bbox-paths="true"
     inkscape:snap-bbox-midpoints="true"
     inkscape:snap-global="true"
     inkscape:object-paths="true"
     inkscape:snap-intersection-paths="true"
     inkscape:snap-smooth-nodes="true"
     inkscape:pagecheckerboard="false"
     showborder="false">
    <inkscape:grid
       spacingy="1"
       spacingx="1"
       id="grid5883"
       type="xygrid"
       enabled="true"
       visible="true"
       empspacing="4"
       snapvisiblegridlinesonly="true"
       originx="0"
       originy="0" />
    <inkscape:grid
       type="xygrid"
       id="grid11592"
       empspacing="2"
       visible="true"
       enabled="false"
       spacingx="0.5"
       spacingy="0.5"
       color="#ff0000"
       opacity="0.1254902"
       empcolor="#ff0000"
       empopacity="0.25098039"
       snapvisiblegridlinesonly="true"
       originx="0"
       originy="0" />
  </sodipodi:namedview>
  <defs
     id="defs3">
    <linearGradient
       inkscape:collect="always"
       id="linearGradient927">
      <stop
         style="stop-color:#ffffff;stop-opacity:1;"
         offset="0"
         id="stop923" />
      <stop
         id="stop933"
         offset="0.125"
         style="stop-color:#ffffff;stop-opacity:0.09803922" />
      <stop
         id="stop931"
         offset="0.92500001"
         style="stop-color:#ffffff;stop-opacity:0.09803922" />
      <stop
         style="stop-color:#ffffff;stop-opacity:0.49803922"
         offset="1"
         id="stop925" />
    </linearGradient>
    <clipPath
       clipPathUnits="userSpaceOnUse"
       id="clipPath9430">
      <path
         sodipodi:nodetypes="sssssssss"
         inkscape:connector-curvature="0"
         id="path9432"
         d="m 166.0625,-196 h 179.875 C 491.2348,-196 512,-175.28677 512,-30.125 v 148.25 C 512,263.28618 491.2348,284 345.9375,284 H 166.0625 C 20.7652,284 0,263.28618 0,118.125 V -30.125 C 0,-175.28677 20.7652,-196 166.0625,-196 Z"
         style="color:#000000;display:inline;overflow:visible;visibility:visible;fill:#ffffff;fill-opacity:1;fill-rule:nonzero;stroke:none;stroke-width:1;marker:none;enable-background:new" />
    </clipPath>
    <linearGradient
       inkscape:collect="always"
       xlink:href="#linearGradient927"
       id="linearGradient929"
       x1="168"
       y1="239"
       x2="168"
       y2="279"
       gradientUnits="userSpaceOnUse"
       gradientTransform="matrix(-1,0,0,1,512,-175)" />
    <linearGradient
       inkscape:collect="always"
       xlink:href="#linearGradient927"
       id="linearGradient965"
       x1="112"
       y1="255"
       x2="112"
       y2="281"
       gradientUnits="userSpaceOnUse"
       gradientTransform="matrix(-1,0,0,1,448,-120)" />
    <linearGradient
       inkscape:collect="always"
       xlink:href="#linearGradient927"
       id="linearGradient1006"
       x1="64"
       y1="263"
       x2="64"
       y2="281"
       gradientUnits="userSpaceOnUse"
       gradientTransform="matrix(-1,0,0,1,396,-72)" />
    <linearGradient
       inkscape:collect="always"
       xlink:href="#linearGradient927"
       id="linearGradient1045"
       x1="760"
       y1="254"
       x2="760"
       y2="265"
       gradientUnits="userSpaceOnUse"
       gradientTransform="translate(-432,-16)" />
    <clipPath
       clipPathUnits="userSpaceOnUse"
       id="clipPath1082">
      <path
         sodipodi:nodetypes="sssssssss"
         inkscape:connector-curvature="0"
         id="path1084"
         d="M 361.9375,-212 C 507.2348,-212 528,-191.28677 528,-46.125 V 70.125 C 528,215.28618 507.2348,236 361.9375,236 H 214.0625 C 68.7652,236 48,215.28618 48,70.125 V -46.125 C 48,-191.28677 68.7652,-212 214.0625,-212 Z"
         style="display:inline;opacity:1;fill:#8c59d9;fill-opacity:1;stroke:none;stroke-width:2;stroke-linecap:round;stroke-linejoin:round;stroke-miterlimit:4;stroke-dasharray:none;stroke-dashoffset:0;stroke-opacity:1;enable-background:new" />
    </clipPath>
    <filter
       inkscape:collect="always"
       style="color-interpolation-filters:sRGB"
       id="filter4569"
       x="-0.0116"
       width="1.0232"
       y="-0.012428571"
       height="1.024857">
      <feGaussianBlur
         inkscape:collect="always"
         stdDeviation="1.16"
         id="feGaussianBlur4571" />
    </filter>
    <filter
       inkscape:collect="always"
       style="color-interpolation-filters:sRGB"
       id="filter910"
       x="-0.0232"
       width="1.0464"
       y="-0.024857143"
       height="1.0497143">
      <feGaussianBlur
         inkscape:collect="always"
         stdDeviation="2.32"
         id="feGaussianBlur912" />
    </filter>
    <linearGradient
       inkscape:collect="always"
       xlink:href="#linearGradient1013"
       id="linearGradient1108"
       x1="296"
       y1="-212"
       x2="296"
       y2="202.40001"
       gradientUnits="userSpaceOnUse" />
    <linearGradient
       id="linearGradient1013"
       inkscape:collect="always">
      <stop
         id="stop1005"
         offset="0"
         style="stop-color:#ffffff;stop-opacity:1;" />
      <stop
         style="stop-color:#ffffff;stop-opacity:0.09803922"
         offset="0.13513513"
         id="stop1007" />
      <stop
         style="stop-color:#ffffff;stop-opacity:0"
         offset="1"
         id="stop1009" />
    </linearGradient>
    <clipPath
       clipPathUnits="userSpaceOnUse"
       id="clipPath1082-3">
      <path
         sodipodi:nodetypes="sssssssss"
         inkscape:connector-curvature="0"
         id="path1084-6"
         d="M 361.9375,-212 C 507.2348,-212 528,-191.28677 528,-46.125 V 70.125 C 528,215.28618 507.2348,236 361.9375,236 H 214.0625 C 68.7652,236 48,215.28618 48,70.125 V -46.125 C 48,-191.28677 68.7652,-212 214.0625,-212 Z"
         style="display:inline;opacity:1;fill:#8c59d9;fill-opacity:1;stroke:none;stroke-width:2;stroke-linecap:round;stroke-linejoin:round;stroke-miterlimit:4;stroke-dasharray:none;stroke-dashoffset:0;stroke-opacity:1;enable-background:new" />
    </clipPath>
  </defs>
  <metadata
     id="metadata4">
    <rdf:RDF>
      <cc:Work
         rdf:about="">
        <dc:format>image/svg+xml</dc:format>
        <dc:type
           rdf:resource="http://purl.org/dc/dcmitype/StillImage" />
        <dc:creator>
          <cc:Agent>
            <dc:title>Sam Hewitt</dc:title>
          </cc:Agent>
        </dc:creator>
        <dc:source />
        <cc:license
           rdf:resource="http://creativecommons.org/licenses/by-sa/4.0/" />
        <dc:title>Suru Icon Theme Template</dc:title>
        <dc:subject>
          <rdf:Bag />
        </dc:subject>
        <dc:date />
        <dc:rights>
          <cc:Agent>
            <dc:title />
          </cc:Agent>
        </dc:rights>
        <dc:publisher>
          <cc:Agent>
            <dc:title />
          </cc:Agent>
        </dc:publisher>
        <dc:identifier />
        <dc:relation />
        <dc:language />
        <dc:coverage />
        <dc:description />
        <dc:contributor>
          <cc:Agent>
            <dc:title />
          </cc:Agent>
        </dc:contributor>
      </cc:Work>
      <cc:Work
         rdf:about="">
        <dc:format>image/svg+xml</dc:format>
        <dc:type
           rdf:resource="http://purl.org/dc/dcmitype/StillImage" />
      </cc:Work>
      <cc:License
         rdf:about="http://creativecommons.org/licenses/by-sa/4.0/">
        <cc:permits
           rdf:resource="http://creativecommons.org/ns#Reproduction" />
        <cc:permits
           rdf:resource="http://creativecommons.org/ns#Distribution" />
        <cc:requires
           rdf:resource="http://creativecommons.org/ns#Notice" />
        <cc:requires
           rdf:resource="http://creativecommons.org/ns#Attribution" />
        <cc:permits
           rdf:resource="http://creativecommons.org/ns#DerivativeWorks" />
        <cc:requires
           rdf:resource="http://creativecommons.org/ns#ShareAlike" />
      </cc:License>
    </rdf:RDF>
  </metadata>
  <g
     style="display:inline"
     inkscape:groupmode="layer"
     inkscape:label="Icon"
     id="layer1">
    <g
       style="display:none"
       inkscape:label="Baseplate"
       id="layer7"
       inkscape:groupmode="layer">
      <text
         y="-8.2548828"
         xml:space="preserve"
         x="19.006836"
         style="font-style:normal;font-variant:normal;font-weight:normal;font-stretch:normal;line-height:0%;font-family:'DejaVu Sans';-inkscape-font-specification:'DejaVu Sans';display:inline;fill:#000000;fill-opacity:1;stroke:none;enable-background:new"
         inkscape:label="context"
         id="context"><tspan
           style="font-style:normal;font-variant:normal;font-weight:normal;font-stretch:normal;font-size:18px;line-height:1.25;font-family:'DejaVu Sans';-inkscape-font-specification:'DejaVu Sans'"
           y="-8.2548828"
           x="19.006836"
           sodipodi:role="line"
           id="tspan3933">categories</tspan></text>
      <text
         y="-8.2548828"
         xml:space="preserve"
         x="146.48828"
         style="font-style:normal;font-variant:normal;font-weight:bold;font-stretch:normal;line-height:0%;font-family:'DejaVu Sans';-inkscape-font-specification:'DejaVu Sans Bold';text-align:start;writing-mode:lr-tb;text-anchor:start;display:inline;fill:#000000;fill-opacity:1;stroke:none;enable-background:new"
         inkscape:label="icon-name"
         id="icon-name"><tspan
           style="font-style:normal;font-variant:normal;font-weight:bold;font-stretch:normal;font-size:18px;line-height:1.25;font-family:'DejaVu Sans';-inkscape-font-specification:'DejaVu Sans Bold'"
           y="-8.2548828"
           x="146.48828"
           sodipodi:role="line"
           id="tspan3937">preferences-desktop-font</tspan></text>
      <rect
         style="display:inline;overflow:visible;visibility:visible;fill:#cdcdcd;fill-opacity:1;fill-rule:nonzero;stroke:none;stroke-width:2;marker:none;enable-background:accumulate"
         id="rect16x16"
         width="16"
         height="16"
         x="320"
         y="236"
         inkscape:label="16x16" />
      <rect
         style="display:inline;overflow:visible;visibility:visible;fill:#cdcdcd;fill-opacity:1;fill-rule:nonzero;stroke:none;stroke-width:2;marker:none;enable-background:accumulate"
         id="rect24x24"
         width="24"
         height="24"
         x="320"
         y="188"
         inkscape:label="24x24" />
      <rect
         style="display:inline;overflow:visible;visibility:visible;fill:#cdcdcd;fill-opacity:1;fill-rule:nonzero;stroke:none;stroke-width:2;marker:none;enable-background:accumulate"
         id="rect32x32"
         width="32"
         height="32"
         x="320"
         y="132"
         inkscape:label="32x32" />
      <rect
         inkscape:label="48x48"
         y="60"
         x="320"
         height="48"
         width="48"
         id="rect48x48"
         style="display:inline;overflow:visible;visibility:visible;fill:#cdcdcd;fill-opacity:1;fill-rule:nonzero;stroke:none;stroke-width:2;marker:none;enable-background:accumulate" />
      <rect
         style="display:inline;overflow:visible;visibility:visible;fill:#cdcdcd;fill-opacity:1;fill-rule:nonzero;stroke:none;stroke-width:2;marker:none;enable-background:accumulate"
         id="rect3951"
         width="256"
         height="256"
         x="24"
         y="28"
         inkscape:label="48x48" />
    </g>
    <g
       inkscape:groupmode="layer"
       id="layer4"
       inkscape:label="Shadows"
       style="display:inline"
       sodipodi:insensitive="true">
      <path
         sodipodi:nodetypes="sssssssss"
         inkscape:connector-curvature="0"
         id="path890"
         d="M 188.96875,44 C 261.6174,44 272,54.356615 272,126.9375 v 58.125 C 272,257.64309 261.6174,268 188.96875,268 h -73.9375 C 42.3826,268 32,257.64309 32,185.0625 v -58.125 C 32,54.356615 42.3826,44 115.03125,44 Z"
         style="display:inline;opacity:0.2;fill:none;fill-opacity:1;stroke:#000000;stroke-width:4;stroke-linecap:round;stroke-linejoin:round;stroke-miterlimit:4;stroke-dasharray:none;stroke-dashoffset:0;stroke-opacity:1;enable-background:new" />
      <path
         style="color:#000000;font-style:normal;font-variant:normal;font-weight:normal;font-stretch:normal;font-size:medium;line-height:normal;font-family:sans-serif;font-variant-ligatures:normal;font-variant-position:normal;font-variant-caps:normal;font-variant-numeric:normal;font-variant-alternates:normal;font-feature-settings:normal;text-indent:0;text-align:start;text-decoration:none;text-decoration-line:none;text-decoration-style:solid;text-decoration-color:#000000;letter-spacing:normal;word-spacing:normal;text-transform:none;writing-mode:lr-tb;direction:ltr;text-orientation:mixed;dominant-baseline:auto;baseline-shift:baseline;text-anchor:start;white-space:normal;shape-padding:0;clip-rule:nonzero;display:inline;overflow:visible;visibility:visible;opacity:0.2;isolation:auto;mix-blend-mode:normal;color-interpolation:sRGB;color-interpolation-filters:linearRGB;solid-color:#000000;solid-opacity:1;vector-effect:none;fill:#000000;fill-opacity:1;fill-rule:nonzero;stroke:none;stroke-width:1;stroke-linecap:round;stroke-linejoin:round;stroke-miterlimit:4;stroke-dasharray:none;stroke-dashoffset:0;stroke-opacity:1;color-rendering:auto;image-rendering:auto;shape-rendering:auto;text-rendering:auto;enable-background:accumulate"
         d="m 351.93164,63 c 6.83457,0 10.87325,0.44856 13.24609,2.81836 C 367.55058,68.18816 368,72.22248 368,79.05078 v 11.89844 c 0,6.82827 -0.44942,10.86261 -2.82227,13.23242 C 362.80489,106.55145 358.76621,107 351.93164,107 h -15.86328 c -6.83457,0 -10.87325,-0.44855 -13.24609,-2.81836 C 320.44942,101.81183 320,97.77749 320,90.94922 V 79.05078 c 0,-6.8283 0.44942,-10.86262 2.82227,-13.23242 C 325.19511,63.44856 329.23379,63 336.06836,63 Z"
         id="path907"
         inkscape:connector-curvature="0"
         sodipodi:nodetypes="scsscsscsscss" />
      <path
         style="color:#000000;font-style:normal;font-variant:normal;font-weight:normal;font-stretch:normal;font-size:medium;line-height:normal;font-family:sans-serif;font-variant-ligatures:normal;font-variant-position:normal;font-variant-caps:normal;font-variant-numeric:normal;font-variant-alternates:normal;font-feature-settings:normal;text-indent:0;text-align:start;text-decoration:none;text-decoration-line:none;text-decoration-style:solid;text-decoration-color:#000000;letter-spacing:normal;word-spacing:normal;text-transform:none;writing-mode:lr-tb;direction:ltr;text-orientation:mixed;dominant-baseline:auto;baseline-shift:baseline;text-anchor:start;white-space:normal;shape-padding:0;clip-rule:nonzero;display:inline;overflow:visible;visibility:visible;opacity:0.2;isolation:auto;mix-blend-mode:normal;color-interpolation:sRGB;color-interpolation-filters:linearRGB;solid-color:#000000;solid-opacity:1;vector-effect:none;fill:#000000;fill-opacity:1;fill-rule:nonzero;stroke:none;stroke-width:1;stroke-linecap:round;stroke-linejoin:round;stroke-miterlimit:4;stroke-dasharray:none;stroke-dashoffset:0;stroke-opacity:1;color-rendering:auto;image-rendering:auto;shape-rendering:auto;text-rendering:auto;enable-background:new"
         d="m 341.12109,134 c 4.56431,0 7.30422,0.28679 8.94727,1.92773 1.64305,1.64095 1.93164,4.37931 1.93164,8.93946 v 8.26562 c 0,4.56013 -0.28859,7.29851 -1.93164,8.93946 C 348.42531,163.71321 345.6854,164 341.12109,164 h -10.24218 c -4.5643,0 -7.30422,-0.28679 -8.94727,-1.92773 C 320.28859,160.43132 320,157.69294 320,153.13281 v -8.26562 c 0,-4.56015 0.28859,-7.29851 1.93164,-8.93946 C 323.57469,134.28679 326.31461,134 330.87891,134 Z"
         id="path1011"
         inkscape:connector-curvature="0"
         sodipodi:nodetypes="scsscsscsscss" />
      <path
         style="color:#000000;font-style:normal;font-variant:normal;font-weight:normal;font-stretch:normal;font-size:medium;line-height:normal;font-family:sans-serif;font-variant-ligatures:normal;font-variant-position:normal;font-variant-caps:normal;font-variant-numeric:normal;font-variant-alternates:normal;font-feature-settings:normal;text-indent:0;text-align:start;text-decoration:none;text-decoration-line:none;text-decoration-style:solid;text-decoration-color:#000000;letter-spacing:normal;word-spacing:normal;text-transform:none;writing-mode:lr-tb;direction:ltr;text-orientation:mixed;dominant-baseline:auto;baseline-shift:baseline;text-anchor:start;white-space:normal;shape-padding:0;clip-rule:nonzero;display:inline;overflow:visible;visibility:visible;opacity:0.2;isolation:auto;mix-blend-mode:normal;color-interpolation:sRGB;color-interpolation-filters:linearRGB;solid-color:#000000;solid-opacity:1;vector-effect:none;fill:#000000;fill-opacity:1;fill-rule:nonzero;stroke:none;stroke-width:1;stroke-linecap:round;stroke-linejoin:round;stroke-miterlimit:4;stroke-dasharray:none;stroke-dashoffset:0;stroke-opacity:1;color-rendering:auto;image-rendering:auto;shape-rendering:auto;text-rendering:auto;enable-background:new"
         d="m 335.71484,190 c 3.42917,1e-5 5.52264,0.20591 6.80078,1.48242 1.27815,1.27651 1.48438,3.3669 1.48438,6.79297 v 5.44922 c 0,3.42606 -0.20623,5.51645 -1.48438,6.79297 C 341.23748,211.79409 339.14401,212 335.71484,212 h -7.42968 c -3.42917,0 -5.52263,-0.20591 -6.80079,-1.48242 C 320.20622,209.24106 320,207.15067 320,203.72461 v -5.44922 c 0,-3.42607 0.20622,-5.51646 1.48437,-6.79297 1.27816,-1.27651 3.37162,-1.48243 6.80079,-1.48242 z"
         id="path1013"
         inkscape:connector-curvature="0"
         sodipodi:nodetypes="cssscsscssscc" />
      <path
         style="color:#000000;font-style:normal;font-variant:normal;font-weight:normal;font-stretch:normal;font-size:medium;line-height:normal;font-family:sans-serif;font-variant-ligatures:normal;font-variant-position:normal;font-variant-caps:normal;font-variant-numeric:normal;font-variant-alternates:normal;font-feature-settings:normal;text-indent:0;text-align:start;text-decoration:none;text-decoration-line:none;text-decoration-style:solid;text-decoration-color:#000000;letter-spacing:normal;word-spacing:normal;text-transform:none;writing-mode:lr-tb;direction:ltr;text-orientation:mixed;dominant-baseline:auto;baseline-shift:baseline;text-anchor:start;white-space:normal;shape-padding:0;clip-rule:nonzero;display:inline;overflow:visible;visibility:visible;opacity:0.2;isolation:auto;mix-blend-mode:normal;color-interpolation:sRGB;color-interpolation-filters:linearRGB;solid-color:#000000;solid-opacity:1;vector-effect:none;fill:#000000;fill-opacity:1;fill-rule:nonzero;stroke:none;stroke-width:1;stroke-linecap:round;stroke-linejoin:round;stroke-miterlimit:4;stroke-dasharray:none;stroke-dashoffset:0;stroke-opacity:1;color-rendering:auto;image-rendering:auto;shape-rendering:auto;text-rendering:auto;enable-background:new"
         d="m 325.68945,237 c -2.29403,0 -3.73713,0.12503 -4.65039,1.03711 C 320.12581,238.94919 320,240.3916 320,242.68359 v 3.63282 c 0,2.29198 0.12581,3.7344 1.03906,4.64648 0.91325,0.91208 2.35637,1.03711 4.65039,1.03711 h 4.6211 c 2.29403,0 3.73713,-0.12503 4.65039,-1.03711 0.91325,-0.91208 1.03906,-2.3545 1.03906,-4.64648 v -3.63282 c 0,-2.29199 -0.12581,-3.7344 -1.03906,-4.64648 C 334.04768,237.12503 332.60458,237 330.31055,237 Z"
         id="path1050"
         inkscape:connector-curvature="0"
         sodipodi:nodetypes="scssssscsscss" />
      <path
         sodipodi:nodetypes="sssssssss"
         inkscape:connector-curvature="0"
         id="path4567"
         d="m 188.96876,43.999995 c 72.64865,0 83.03125,10.356615 83.03125,82.937505 v 58.125 c 0,72.58059 -10.3826,82.9375 -83.03125,82.9375 h -73.9375 C 42.382606,268 32.000006,257.64309 32.000006,185.0625 v -58.125 c 0,-72.58089 10.3826,-82.937505 83.031254,-82.937505 z"
         style="display:inline;opacity:0.1;fill:#000000;fill-opacity:1;stroke:none;stroke-width:2;stroke-linecap:round;stroke-linejoin:round;stroke-miterlimit:4;stroke-dasharray:none;stroke-dashoffset:0;stroke-opacity:1;filter:url(#filter4569);enable-background:new" />
      <path
         style="display:inline;opacity:0.2;fill:#000000;fill-opacity:1;stroke:none;stroke-width:2;stroke-linecap:round;stroke-linejoin:round;stroke-miterlimit:4;stroke-dasharray:none;stroke-dashoffset:0;stroke-opacity:1;filter:url(#filter910);enable-background:new"
         d="m 188.96876,45.999995 c 72.64865,0 83.03125,10.356615 83.03125,82.937505 v 58.125 c 0,72.58059 -10.3826,82.9375 -83.03125,82.9375 h -73.9375 C 42.382606,270 32.000006,259.64309 32.000006,187.0625 v -58.125 c 0,-72.58089 10.3826,-82.937505 83.031254,-82.937505 z"
         id="path908"
         inkscape:connector-curvature="0"
         sodipodi:nodetypes="sssssssss" />
    </g>
    <g
       inkscape:groupmode="layer"
       id="layer2"
       inkscape:label="Shape"
       style="display:inline"
       sodipodi:insensitive="true">
      <path
         style="opacity:1;fill:#f7f7f7;fill-opacity:1;stroke:none;stroke-width:2;stroke-linecap:round;stroke-linejoin:round;stroke-miterlimit:4;stroke-dasharray:none;stroke-dashoffset:0;stroke-opacity:1"
         d="M 188.96875,44 C 261.6174,44 272,54.356615 272,126.9375 v 58.125 C 272,257.64309 261.6174,268 188.96875,268 h -73.9375 C 42.3826,268 32,257.64309 32,185.0625 v -58.125 C 32,54.356615 42.3826,44 115.03125,44 Z"
         id="rect877"
         inkscape:connector-curvature="0"
         sodipodi:nodetypes="sssssssss" />
      <path
         sodipodi:nodetypes="sssssssss"
         inkscape:connector-curvature="0"
         id="path888"
         d="M 351.93164,62.5 C 365.55326,62.5 367.5,64.44187 367.5,78.05078 V 89.94922 C 367.5,103.55808 365.55326,105.5 351.93164,105.5 H 336.06836 C 322.44674,105.5 320.5,103.55808 320.5,89.94922 V 78.05078 C 320.5,64.44187 322.44674,62.5 336.06836,62.5 Z"
         style="opacity:1;fill:#f7f7f7;fill-opacity:1;stroke:none;stroke-width:2;stroke-linecap:round;stroke-linejoin:round;stroke-miterlimit:4;stroke-dasharray:none;stroke-dashoffset:0;stroke-opacity:1" />
      <path
         sodipodi:nodetypes="sssssssss"
         inkscape:connector-curvature="0"
         id="path942"
         d="m 341.12109,133.5 c 9.08109,0 10.37891,1.29458 10.37891,10.36719 v 8.26562 c 0,9.07258 -1.29782,10.36719 -10.37891,10.36719 H 330.87891 C 321.79783,162.5 320.5,161.20539 320.5,152.13281 v -8.26562 c 0,-9.07261 1.29783,-10.36719 10.37891,-10.36719 z"
         style="opacity:1;fill:#f7f7f7;fill-opacity:1;stroke:none;stroke-width:2;stroke-linecap:round;stroke-linejoin:round;stroke-miterlimit:4;stroke-dasharray:none;stroke-dashoffset:0;stroke-opacity:1" />
      <path
         style="opacity:1;fill:#f7f7f7;fill-opacity:1;stroke:none;stroke-width:2;stroke-linecap:round;stroke-linejoin:round;stroke-miterlimit:4;stroke-dasharray:none;stroke-dashoffset:0;stroke-opacity:1"
         d="m 330.31054,236.5 c 4.54055,0 5.18946,0.64729 5.18946,5.18359 v 3.63282 c 0,4.53629 -0.64891,5.18359 -5.18946,5.18359 h -4.62109 c -4.54053,0 -5.18945,-0.6473 -5.18945,-5.18359 v -3.63282 c 0,-4.5363 0.64892,-5.18359 5.18946,-5.18359 z"
         id="path946"
         inkscape:connector-curvature="0"
         sodipodi:nodetypes="sssssssss" />
      <path
         style="opacity:1;fill:#f7f7f7;fill-opacity:1;stroke:none;stroke-width:2;stroke-linecap:round;stroke-linejoin:round;stroke-miterlimit:4;stroke-dasharray:none;stroke-dashoffset:0;stroke-opacity:1"
         d="m 335.71582,189.50031 c 6.81081,10e-6 7.78418,0.97093 7.78418,7.77539 v 5.44891 c 0,6.80444 -0.97337,7.77539 -7.78418,7.77539 h -7.43164 c -6.81081,0 -7.78418,-0.97095 -7.78418,-7.77539 v -5.44892 c 0,-6.80446 0.97337,-7.7754 7.78418,-7.77539 z"
         id="path948"
         inkscape:connector-curvature="0"
         sodipodi:nodetypes="sssssssss" />
      <text
         xml:space="preserve"
         style="font-style:normal;font-weight:normal;font-size:40px;line-height:1000%;font-family:sans-serif;letter-spacing:0px;word-spacing:0px;fill:#000000;fill-opacity:1;stroke:none;stroke-width:1px;stroke-linecap:butt;stroke-linejoin:miter;stroke-opacity:1"
         x="204"
         y="202"
         id="text874"><tspan
           sodipodi:role="line"
           id="tspan872"
           x="204"
           y="412.39062" /></text>
      <path
         sodipodi:nodetypes="sssssssss"
         inkscape:connector-curvature="0"
         id="path1068"
         d="M 361.9375,-212 C 507.2348,-212 528,-191.28677 528,-46.125 V 70.125 C 528,215.28618 507.2348,236 361.9375,236 H 214.0625 C 68.7652,236 48,215.28618 48,70.125 V -46.125 C 48,-191.28677 68.7652,-212 214.0625,-212 Z"
         style="display:inline;opacity:0.5;fill:none;fill-opacity:1;stroke:url(#linearGradient1108);stroke-width:8;stroke-linecap:round;stroke-linejoin:round;stroke-miterlimit:4;stroke-dasharray:none;stroke-dashoffset:0;stroke-opacity:1;enable-background:new"
         clip-path="url(#clipPath1082-3)"
         transform="matrix(0.5,0,0,0.5,8,150)" />
    </g>
    <g
       inkscape:groupmode="layer"
       id="layer6"
       inkscape:label="Pictogram"
       style="display:inline">
      <path
         inkscape:connector-curvature="0"
         id="path953"
         d="m 121.94982,77.59784 c -4.14331,0 -7.70605,0.28877 -10.68923,0.868834 -2.90031,0.580063 -5.05508,1.201401 -6.4638,1.864331 l 1.1182,7.085251 c 1.07726,-0.414331 2.77598,-0.952033 5.09623,-1.614962 2.32026,-0.66293 5.84315,-0.995498 10.56653,-0.995498 3.31464,0 5.9653,0.53968 7.95408,1.616941 2.07166,0.994394 3.6469,2.362526 4.72416,4.102716 1.16013,1.657325 1.90495,3.563158 2.2364,5.717679 0.33148,2.071655 0.49677,4.224438 0.49677,6.461828 v 3.97803 c -0.33146,-0.16573 -0.95281,-0.33103 -1.86433,-0.49676 -0.82866,-0.2486 -1.86422,-0.45571 -3.10722,-0.62144 -1.16013,-0.2486 -2.4028,-0.41389 -3.72867,-0.49676 -1.24298,-0.16574 -2.44385,-0.24937 -3.60397,-0.24936 -3.89471,0 -7.49926,0.3724 -10.81391,1.11819 -3.31465,0.7458 -6.17439,1.94864 -8.57752,3.60596 -2.40311,1.57446 -4.26712,3.60377 -5.59299,6.08975 -1.325878,2.48599 -1.989034,5.4692 -1.989034,8.94958 0,3.64612 0.579519,6.75479 1.739674,9.32364 1.24298,2.48599 2.89989,4.55711 4.97155,6.21444 2.15452,1.57445 4.64185,2.7335 7.4593,3.47929 2.90032,0.7458 6.04882,1.12019 9.44634,1.12019 2.65172,0 5.22071,-0.12546 7.70669,-0.37406 2.56886,-0.16573 4.88892,-0.41466 6.96057,-0.74613 2.07166,-0.33146 3.89384,-0.62023 5.46831,-0.86883 1.57445,-0.33146 2.77729,-0.62221 3.60596,-0.87082 v -40.5205 c 0,-3.397517 -0.41423,-6.548005 -1.24289,-9.448324 -0.82866,-2.900317 -2.15497,-5.385671 -3.97804,-7.457324 -1.82305,-2.154522 -4.22675,-3.811425 -7.20993,-4.97155 C 129.73874,78.219178 126.176,77.59784 121.94982,77.59784 Z M 168,110 v 87.94616 h 9.43051 l 2.94097,-3.79594 c 5.87942,3.42965 11.75871,5.02103 17.76062,5.02103 17.63827,0 28.04809,-13.10583 28.04809,-30.98908 0,-17.88324 -7.22628,-30.50021 -25.3545,-30.50021 -6.98182,0 -12.73862,1.7165 -17.76063,4.28875 V 110 Z m -43.5644,1.77923 c 3.48037,0 6.21466,0.24893 8.20345,0.74612 1.98879,0.41433 3.43858,0.82856 4.35011,1.2429 v 22.62332 c -1.65733,0.33146 -3.68663,0.62024 -6.08976,0.86883 -2.32024,0.16574 -5.05453,0.24937 -8.20345,0.24937 -2.56885,0 -4.88891,-0.20711 -6.96056,-0.62145 -1.9888,-0.49719 -3.72933,-1.24399 -5.22092,-2.23838 -1.40873,-0.9944 -2.52793,-2.31872 -3.35659,-3.97605 -0.74579,-1.65733 -1.11821,-3.68861 -1.11821,-6.09174 0,-2.73458 0.57953,-4.93117 1.73965,-6.58848 1.16013,-1.65733 2.65173,-2.93985 4.47479,-3.85137 1.82306,-0.9944 3.81252,-1.61772 5.96706,-1.86631 2.15451,-0.33147 4.22564,-0.49676 6.21443,-0.49676 z m 72.71485,38.1515 c 10.53398,0 13.96468,7.59453 13.96468,19.10841 0,11.51387 -5.38917,18.25145 -15.43318,18.25145 -4.89952,0 -9.06474,-1.22414 -12.61689,-4.04137 v -30.0094 c 2.93971,-1.22488 8.69592,-3.30909 14.08539,-3.30909 z m -72.43579,16.73544 c -6.25919,0 -12.01984,0.98067 -17.28168,2.94098 -5.26185,1.96029 -9.800939,4.78088 -13.618352,8.46073 -3.783023,3.67985 -6.742127,8.18479 -8.874376,13.51542 -2.132248,5.33062 -3.198258,11.34924 -3.198258,18.0555 0,4.19572 0.654446,8.01209 1.961308,11.4512 1.306863,3.43912 3.23211,6.37917 5.777053,8.82093 2.544942,2.44178 5.691772,4.33487 9.440415,5.67613 3.74864,1.34125 8.08292,2.01078 13.00085,2.01078 2.30421,0 4.62594,-0.13652 6.96452,-0.41166 2.3386,-0.24073 4.60714,-0.56895 6.80818,-0.98164 2.20102,-0.44708 4.28186,-0.94596 6.24214,-1.49621 1.99469,-0.55026 3.80047,-1.1174 5.41685,-1.70205 l 3.1468,-16.24858 h -3.35262 l -3.71481,10.36862 c -1.06613,0.82538 -2.33891,1.61636 -3.81772,2.37296 -1.47882,0.72221 -3.11196,1.37468 -4.9003,1.95933 -1.75395,0.58465 -3.64507,1.04939 -5.67414,1.3933 -2.02908,0.34391 -4.1099,0.51655 -6.24215,0.51655 -3.67985,0 -6.82668,-0.56713 -9.4404,-1.70204 -2.61373,-1.1349 -4.762834,-2.69979 -6.447998,-4.69448 -1.685164,-2.02907 -2.923814,-4.4381 -3.714809,-7.22378 -0.756604,-2.78568 -1.136014,-5.81108 -1.136014,-9.07823 0,-6.05283 0.810018,-11.53846 2.426401,-16.45638 1.616382,-4.91794 3.850797,-9.11371 6.70528,-12.58721 2.88885,-3.47351 6.31072,-6.13852 10.26569,-7.99564 3.95498,-1.89152 8.2722,-2.83806 12.94939,-2.83806 3.30155,0 6.46544,0.41354 9.49186,1.23892 3.02642,0.791 5.60413,1.92527 7.73638,3.40409 v 8.97729 h 3.35461 l 2.32151,-15.11652 c -3.06081,-0.68782 -6.41441,-1.28909 -10.05987,-1.80496 -3.64545,-0.55026 -7.82416,-0.82529 -12.53574,-0.82529 z"
         style="font-style:normal;font-weight:normal;font-size:118.51851654px;line-height:1000%;font-family:sans-serif;letter-spacing:0px;word-spacing:0px;fill:#ffffff;fill-opacity:1;stroke:none;stroke-width:3.00239873px;stroke-linecap:butt;stroke-linejoin:miter;stroke-opacity:1" />
      <text
         id="text922"
         y="230.60927"
         x="-72.072006"
         style="font-style:normal;font-weight:normal;font-size:137.75509644px;line-height:1000%;font-family:sans-serif;letter-spacing:0px;word-spacing:0px;display:inline;fill:#ffffff;fill-opacity:1;stroke:none;stroke-width:3.44387746px;stroke-linecap:butt;stroke-linejoin:miter;stroke-opacity:1;enable-background:new;"
         xml:space="preserve"><tspan
           style="font-style:normal;font-variant:normal;font-weight:300;font-stretch:normal;font-family:Ubuntu;-inkscape-font-specification:'Ubuntu Light';text-align:center;text-anchor:middle;fill:#ffffff;stroke-width:3.44387746px;fill-opacity:1;"
           y="230.60927"
           x="-72.072006"
           id="tspan920"
           sodipodi:role="line">à</tspan></text>
      <path
         style="font-style:normal;font-weight:normal;font-size:118.51851654px;line-height:1000%;font-family:sans-serif;letter-spacing:0px;word-spacing:0px;fill:#5d5d5d;fill-opacity:1;stroke:none;stroke-width:3.00239873px;stroke-linecap:butt;stroke-linejoin:miter;stroke-opacity:1"
         d="m 121.94982,75.59784 c -4.14331,0 -7.70605,0.28877 -10.68923,0.868834 -2.90031,0.580063 -5.05508,1.201401 -6.4638,1.864331 l 1.1182,7.085251 c 1.07726,-0.414331 2.77598,-0.952033 5.09623,-1.614962 2.32026,-0.66293 5.84315,-0.995498 10.56653,-0.995498 3.31464,0 5.9653,0.53968 7.95408,1.616941 2.07166,0.994394 3.6469,2.362526 4.72416,4.102716 1.16013,1.657325 1.90495,3.563158 2.2364,5.717679 0.33148,2.071655 0.49677,4.224438 0.49677,6.461828 v 3.97803 c -0.33146,-0.16573 -0.95281,-0.33103 -1.86433,-0.49676 -0.82866,-0.2486 -1.86422,-0.45571 -3.10722,-0.62144 -1.16013,-0.2486 -2.4028,-0.41389 -3.72867,-0.49676 -1.24298,-0.16574 -2.44385,-0.24937 -3.60397,-0.24936 -3.89471,0 -7.49926,0.3724 -10.81391,1.11819 -3.31465,0.7458 -6.17439,1.94864 -8.57752,3.60596 -2.40311,1.57446 -4.26712,3.60377 -5.59299,6.08975 -1.325878,2.48599 -1.989034,5.4692 -1.989034,8.94958 0,3.64612 0.579519,6.75479 1.739674,9.32364 1.24298,2.48599 2.89989,4.55711 4.97155,6.21444 2.15452,1.57445 4.64185,2.7335 7.4593,3.47929 2.90032,0.7458 6.04882,1.12019 9.44634,1.12019 2.65172,0 5.22071,-0.12546 7.70669,-0.37406 2.56886,-0.16573 4.88892,-0.41466 6.96057,-0.74613 2.07166,-0.33146 3.89384,-0.62023 5.46831,-0.86883 1.57445,-0.33146 2.77729,-0.62221 3.60596,-0.87082 V 99.339366 c 0,-3.397513 -0.41423,-6.548001 -1.24289,-9.44832 -0.82866,-2.900317 -2.15497,-5.385671 -3.97804,-7.457324 -1.82305,-2.154522 -4.22675,-3.811425 -7.20993,-4.97155 C 129.73874,76.219178 126.176,75.59784 121.94982,75.59784 Z M 168,108 v 87.94616 h 9.43051 l 2.94097,-3.79594 c 5.87942,3.42965 11.75871,5.02103 17.76062,5.02103 17.63827,0 28.04809,-13.10583 28.04809,-30.98908 0,-17.88324 -7.22628,-30.50021 -25.3545,-30.50021 -6.98182,0 -12.73862,1.7165 -17.76063,4.28875 V 108 Z m -43.5644,1.77923 c 3.48037,0 6.21466,0.24893 8.20345,0.74612 1.98879,0.41433 3.43858,0.82856 4.35011,1.2429 v 22.62332 c -1.65733,0.33146 -3.68663,0.62024 -6.08976,0.86883 -2.32024,0.16574 -5.05453,0.24937 -8.20345,0.24937 -2.56885,0 -4.88891,-0.20711 -6.96056,-0.62145 -1.9888,-0.49719 -3.72933,-1.24399 -5.22092,-2.23838 -1.40873,-0.9944 -2.52793,-2.31872 -3.35659,-3.97605 -0.74579,-1.65733 -1.11821,-3.68861 -1.11821,-6.09174 0,-2.73458 0.57953,-4.93117 1.73965,-6.58848 1.16013,-1.65733 2.65173,-2.93985 4.47479,-3.85137 1.82306,-0.9944 3.81252,-1.61772 5.96706,-1.86631 2.15451,-0.33147 4.22564,-0.49676 6.21443,-0.49676 z m 72.71485,38.1515 c 10.53398,0 13.96468,7.59453 13.96468,19.10841 0,11.51387 -5.38917,18.25145 -15.43318,18.25145 -4.89952,0 -9.06474,-1.22414 -12.61689,-4.04137 v -30.0094 c 2.93971,-1.22488 8.69592,-3.30909 14.08539,-3.30909 z m -72.43579,16.73544 c -6.25919,0 -12.01984,0.98067 -17.28168,2.94098 -5.26185,1.96029 -9.800939,4.78088 -13.618352,8.46073 -3.783023,3.67985 -6.742127,8.18479 -8.874376,13.51542 -2.132248,5.33062 -3.198258,11.34924 -3.198258,18.0555 0,4.19572 0.654446,8.01209 1.961308,11.4512 1.306863,3.43912 3.23211,6.37917 5.777053,8.82093 2.544942,2.44178 5.691772,4.33487 9.440415,5.67613 3.74864,1.34125 8.08292,2.01078 13.00085,2.01078 2.30421,0 4.62594,-0.13652 6.96452,-0.41166 2.3386,-0.24073 4.60714,-0.56895 6.80818,-0.98164 2.20102,-0.44708 4.28186,-0.94596 6.24214,-1.49621 1.99469,-0.55026 3.80047,-1.1174 5.41685,-1.70205 l 3.1468,-16.24858 h -3.35262 l -3.71481,10.36862 c -1.06613,0.82538 -2.33891,1.61636 -3.81772,2.37296 -1.47882,0.72221 -3.11196,1.37468 -4.9003,1.95933 -1.75395,0.58465 -3.64507,1.04939 -5.67414,1.3933 -2.02908,0.34391 -4.1099,0.51655 -6.24215,0.51655 -3.67985,0 -6.82668,-0.56713 -9.4404,-1.70204 -2.61373,-1.1349 -4.762834,-2.69979 -6.447998,-4.69448 -1.685164,-2.02907 -2.923814,-4.4381 -3.714809,-7.22378 -0.756604,-2.78568 -1.136014,-5.81108 -1.136014,-9.07823 0,-6.05283 0.810018,-11.53846 2.426401,-16.45638 1.616382,-4.91794 3.850797,-9.11371 6.70528,-12.58721 2.88885,-3.47351 6.31072,-6.13852 10.26569,-7.99564 3.95498,-1.89152 8.2722,-2.83806 12.94939,-2.83806 3.30155,0 6.46544,0.41354 9.49186,1.23892 3.02642,0.791 5.60413,1.92527 7.73638,3.40409 v 8.97729 h 3.35461 l 2.32151,-15.11652 c -3.06081,-0.68782 -6.41441,-1.28909 -10.05987,-1.80496 -3.64545,-0.55026 -7.82416,-0.82529 -12.53574,-0.82529 z"
         id="text899"
         inkscape:connector-curvature="0" />
      <path
         inkscape:connector-curvature="0"
         style="font-style:normal;font-weight:normal;font-size:118.51851654px;line-height:1000%;font-family:sans-serif;letter-spacing:0px;word-spacing:0px;fill:#ffffff;fill-opacity:1;stroke:none;stroke-width:0.56294978px;stroke-linecap:butt;stroke-linejoin:miter;stroke-opacity:1"
         d="m 338.36559,69.924593 c -0.77687,0 -1.44489,0.05411 -2.00423,0.162911 -0.54381,0.10876 -0.94783,0.225257 -1.21197,0.349553 l 0.20967,1.328486 c 0.20199,-0.07768 0.52049,-0.1785 0.95555,-0.302807 0.43504,-0.124297 1.09559,-0.186654 1.98122,-0.186654 0.62149,0 1.11849,0.101143 1.49138,0.303182 0.38844,0.18645 0.6838,0.442972 0.88578,0.769254 0.21753,0.310746 0.35719,0.668089 0.41933,1.072071 0.0621,0.388436 0.0931,0.792075 0.0931,1.211593 v 0.745875 c -0.0622,-0.03107 -0.17865,-0.06203 -0.34957,-0.09311 -0.15537,-0.04661 -0.34954,-0.0855 -0.5826,-0.116518 -0.21752,-0.04661 -0.45052,-0.07757 -0.69913,-0.09311 -0.23305,-0.03107 -0.45821,-0.04671 -0.67574,-0.04671 -0.73026,0 -1.40611,0.06986 -2.02761,0.209668 -0.62149,0.139832 -1.15769,0.365368 -1.60828,0.676114 -0.45059,0.295211 -0.80009,0.675707 -1.04868,1.141832 -0.2486,0.466125 -0.37294,1.025475 -0.37294,1.67805 0,0.683636 0.10865,1.266514 0.32618,1.748175 0.23306,0.466125 0.54373,0.854464 0.93217,1.165211 0.40397,0.295211 0.87034,0.512528 1.39862,0.652361 0.5438,0.139842 1.13415,0.210042 1.77119,0.210042 0.49719,0 0.97888,-0.02357 1.445,-0.07018 0.48166,-0.03107 0.91667,-0.07779 1.30511,-0.139907 0.38843,-0.06214 0.73009,-0.116293 1.0253,-0.1629 0.29521,-0.06214 0.52075,-0.116668 0.67612,-0.163275 v -7.597597 c 0,-0.637039 -0.0777,-1.22775 -0.23304,-1.771564 -0.15538,-0.543804 -0.40406,-1.009811 -0.74588,-1.398246 -0.34182,-0.403972 -0.79252,-0.714643 -1.35187,-0.932165 -0.5438,-0.233068 -1.21182,-0.349564 -2.00422,-0.349564 z M 347,76 v 16.489907 h 1.76822 l 0.55143,-0.711739 c 1.10239,0.643061 2.20476,0.941443 3.33012,0.941443 3.30718,0 5.25902,-2.457343 5.25902,-5.810454 0,-3.35311 -1.35493,-5.718793 -4.75397,-5.718793 -1.3091,0 -2.3885,0.321847 -3.33012,0.80414 V 76 Z m -8.16833,0.3336 c 0.65257,0 1.16525,0.04671 1.53815,0.139897 0.37289,0.07768 0.64474,0.155357 0.81564,0.233046 v 4.241871 c -0.31075,0.06214 -0.69124,0.116293 -1.14182,0.162911 -0.43506,0.03107 -0.94773,0.04671 -1.53816,0.04671 -0.48166,0 -0.91667,-0.03879 -1.3051,-0.116528 -0.37289,-0.09321 -0.69925,-0.233239 -0.97892,-0.419689 -0.26413,-0.18645 -0.47398,-0.434765 -0.62936,-0.745511 -0.13983,-0.310747 -0.20967,-0.691618 -0.20967,-1.142197 0,-0.512742 0.10867,-0.9246 0.32619,-1.235346 0.21753,-0.310746 0.4972,-0.551218 0.83902,-0.722132 0.34183,-0.18645 0.71485,-0.303322 1.11883,-0.349929 0.40397,-0.06214 0.7923,-0.09311 1.1652,-0.09311 z m 13.63404,7.153414 c 1.97512,0 2.61837,1.423972 2.61837,3.582825 0,2.158843 -1.01046,3.422143 -2.89372,3.422143 -0.91865,0 -1.69964,-0.229521 -2.36566,-0.757757 v -5.626757 c 0.5512,-0.229671 1.63048,-0.620454 2.64101,-0.620454 z M 338.884,86.624907 c -1.1736,0 -2.25372,0.183868 -3.24032,0.551432 -0.9866,0.367554 -1.83767,0.896411 -2.55343,1.58639 -0.70932,0.689968 -1.26416,1.53465 -1.66395,2.534143 -0.39979,0.999482 -0.59968,2.127975 -0.59968,3.385403 0,0.786697 0.12271,1.502261 0.36775,2.1471 0.24503,0.644829 0.60602,1.196089 1.0832,1.653922 0.47717,0.457832 1.06721,0.812785 1.77007,1.064271 0.70287,0.251486 1.51555,0.377025 2.43767,0.377025 0.43203,0 0.86736,-0.02561 1.30584,-0.07714 0.43848,-0.04511 0.86384,-0.106714 1.27653,-0.184061 0.4127,-0.08378 0.80285,-0.177364 1.1704,-0.280532 0.374,-0.103178 0.71259,-0.209518 1.01566,-0.319135 l 0.59003,-3.046608 h -0.62862 l -0.69653,1.944108 c -0.19989,0.154767 -0.43854,0.303075 -0.71582,0.444932 -0.27727,0.135418 -0.58349,0.257753 -0.9188,0.367382 -0.32887,0.109618 -0.68345,0.196757 -1.06391,0.261236 -0.38045,0.0645 -0.7706,0.09686 -1.17039,0.09686 -0.68998,0 -1.28001,-0.106393 -1.77008,-0.319136 -0.49008,-0.212796 -0.89304,-0.506207 -1.209,-0.880211 -0.31596,-0.380453 -0.54822,-0.832146 -0.69652,-1.354457 -0.14187,-0.522321 -0.213,-1.089578 -0.213,-1.702168 0,-1.13491 0.15187,-2.16346 0.45495,-3.085575 0.30306,-0.922114 0.72202,-1.708821 1.25723,-2.3601 0.54166,-0.651289 1.18325,-1.150971 1.92481,-1.499185 0.74157,-0.354665 1.55104,-0.532136 2.42802,-0.532136 0.61904,0 1.21227,0.07757 1.77972,0.232296 0.56746,0.148318 1.05078,0.360986 1.45057,0.638272 v 1.683235 h 0.629 l 0.43527,-2.834346 c -0.5739,-0.128968 -1.2027,-0.241704 -1.88622,-0.338432 -0.68352,-0.103179 -1.46703,-0.154736 -2.35045,-0.154736 z"
         id="path926" />
      <path
         id="path928"
         d="m 332.27161,139 c -0.51792,0 -0.96326,0.0361 -1.33615,0.10861 -0.36255,0.0725 -0.63188,0.15017 -0.80798,0.23304 l 0.13978,0.88565 c 0.13465,-0.0517 0.34699,-0.119 0.63702,-0.20186 0.29003,-0.0828 0.7304,-0.12445 1.32082,-0.12445 0.41433,0 0.74567,0.0675 0.99426,0.20213 0.25895,0.1243 0.45586,0.29532 0.59052,0.51283 0.14501,0.20717 0.23812,0.4454 0.27955,0.71471 0.0414,0.25897 0.0621,0.52806 0.0621,0.80773 v 0.49726 c -0.0415,-0.0207 -0.1191,-0.0414 -0.23304,-0.0621 -0.10359,-0.0311 -0.23303,-0.057 -0.3884,-0.0776 -0.14501,-0.0311 -0.30035,-0.0517 -0.46609,-0.0621 -0.15537,-0.0207 -0.30548,-0.0312 -0.4505,-0.0312 -0.48683,0 -0.9374,0.0465 -1.35173,0.13978 -0.41433,0.0932 -0.77179,0.24357 -1.07218,0.45073 -0.3004,0.19681 -0.5334,0.45049 -0.69913,0.76123 -0.16574,0.31076 -0.24863,0.68366 -0.24863,1.1187 0,0.45576 0.0725,0.84435 0.21746,1.16546 0.15537,0.31074 0.36249,0.56963 0.62144,0.7768 0.26932,0.1968 0.58023,0.34169 0.93242,0.4349 0.36254,0.0932 0.7561,0.14003 1.18079,0.14003 0.33145,0 0.65258,-0.0157 0.96334,-0.0467 0.32111,-0.0207 0.61111,-0.0518 0.87007,-0.0933 0.25895,-0.0414 0.48673,-0.0774 0.68354,-0.1086 0.1968,-0.0414 0.34716,-0.0777 0.45073,-0.10884 v -5.06507 c 0,-0.4247 -0.0518,-0.8185 -0.15535,-1.18104 -0.10358,-0.36254 -0.26938,-0.67321 -0.49726,-0.93216 -0.22788,-0.26931 -0.52834,-0.47643 -0.90124,-0.62145 -0.36254,-0.15537 -0.80788,-0.23305 -1.33616,-0.23305 z m 5.75627,4.05027 v 10.99328 h 1.17881 l 0.36762,-0.4745 c 0.73494,0.4287 1.46985,0.62763 2.22008,0.62763 2.20479,0 3.50602,-1.63823 3.50602,-3.87363 0,-2.2354 -0.90329,-3.81253 -3.16932,-3.81253 -0.87272,0 -1.59232,0.21456 -2.22008,0.53609 v -3.99634 z m -5.44555,0.2224 c 0.43505,0 0.77684,0.0312 1.02544,0.0933 0.24859,0.0517 0.42981,0.10356 0.54375,0.15535 v 2.82792 c -0.20716,0.0414 -0.46083,0.0774 -0.76121,0.10861 -0.29003,0.0207 -0.63183,0.0312 -1.02543,0.0312 -0.32111,0 -0.61112,-0.0258 -0.87008,-0.0776 -0.24859,-0.0622 -0.46616,-0.15549 -0.65262,-0.27979 -0.17608,-0.1243 -0.31598,-0.28984 -0.41957,-0.49701 -0.0932,-0.20717 -0.13977,-0.46108 -0.13977,-0.76147 0,-0.34182 0.0725,-0.6164 0.21745,-0.82355 0.14502,-0.20717 0.33148,-0.36749 0.55936,-0.48143 0.22788,-0.1243 0.47656,-0.20222 0.74588,-0.23328 0.26932,-0.0415 0.5282,-0.0621 0.7768,-0.0621 z m 9.08935,4.76895 c 1.31676,0 1.7456,0.94932 1.7456,2.38854 0,1.43923 -0.67365,2.28143 -1.92916,2.28143 -0.61244,0 -1.13309,-0.15301 -1.57711,-0.50516 v -3.75118 c 0.36747,-0.1531 1.08699,-0.41363 1.76067,-0.41363 z m -9.05447,2.09193 c -0.7824,0 -1.50247,0.12258 -2.16021,0.36761 -0.65772,0.24504 -1.22512,0.59761 -1.70229,1.05759 -0.47287,0.46 -0.84276,1.0231 -1.1093,1.68944 -0.26653,0.66632 -0.39978,1.41866 -0.39978,2.25694 0,0.52446 0.0818,1.00151 0.24516,1.4314 0.16336,0.42988 0.40402,0.79739 0.72214,1.10262 0.31812,0.3052 0.71147,0.54184 1.18005,0.7095 0.46858,0.16766 1.01037,0.25135 1.6251,0.25135 0.28803,0 0.57825,-0.0171 0.87057,-0.0514 0.29233,-0.0301 0.5759,-0.0712 0.85103,-0.12271 0.27512,-0.0558 0.53522,-0.11824 0.78026,-0.18702 0.24934,-0.0687 0.47505,-0.13968 0.67711,-0.21276 l 0.39334,-2.03107 h -0.41908 l -0.46434,1.29607 c -0.13327,0.10318 -0.29237,0.20205 -0.47722,0.29663 -0.18485,0.0903 -0.38899,0.17183 -0.61254,0.24492 -0.21923,0.0731 -0.45563,0.13117 -0.70926,0.17415 -0.25364,0.043 -0.51374,0.0645 -0.78027,0.0645 -0.45999,0 -0.85333,-0.0709 -1.18005,-0.21276 -0.32672,-0.14186 -0.59535,-0.33747 -0.806,-0.5868 -0.21065,-0.25364 -0.36548,-0.55477 -0.46435,-0.90298 -0.0946,-0.34821 -0.142,-0.72638 -0.142,-1.13478 0,-0.7566 0.10125,-1.4423 0.3033,-2.05704 0.20204,-0.61475 0.48135,-1.13921 0.83816,-1.5734 0.36111,-0.4342 0.78884,-0.76731 1.28321,-0.99946 0.49437,-0.23644 1.03403,-0.35475 1.61867,-0.35475 0.41269,0 0.80818,0.0517 1.18648,0.15485 0.37831,0.0989 0.70052,0.24066 0.96705,0.42552 v 1.12216 h 0.41933 l 0.29019,-1.88957 c -0.3826,-0.086 -0.8018,-0.16113 -1.25749,-0.22562 -0.45568,-0.0687 -0.97801,-0.10315 -1.56697,-0.10315 z"
         style="font-style:normal;font-weight:normal;font-size:118.51851654px;line-height:1000%;font-family:sans-serif;letter-spacing:0px;word-spacing:0px;fill:#ffffff;fill-opacity:1;stroke:none;stroke-width:0.37529987px;stroke-linecap:butt;stroke-linejoin:miter;stroke-opacity:1"
         inkscape:connector-curvature="0" />
      <path
         inkscape:connector-curvature="0"
         style="font-style:normal;font-weight:normal;font-size:118.51851654px;line-height:1000%;font-family:sans-serif;letter-spacing:0px;word-spacing:0px;fill:#ffffff;fill-opacity:1;stroke:none;stroke-width:0.30023989px;stroke-linecap:butt;stroke-linejoin:miter;stroke-opacity:1"
         d="m 328.79888,193 c -0.41434,0 -0.77062,0.0289 -1.06893,0.0869 -0.29003,0.058 -0.5055,0.12014 -0.64638,0.18643 l 0.11182,0.70852 c 0.10773,-0.0414 0.27759,-0.0952 0.50962,-0.16149 0.23203,-0.0663 0.58432,-0.0996 1.05666,-0.0996 0.33146,0 0.59653,0.054 0.7954,0.1617 0.20717,0.0994 0.36469,0.23626 0.47242,0.41027 0.11601,0.16573 0.19049,0.35632 0.22363,0.57177 0.0332,0.20717 0.0497,0.42244 0.0497,0.64618 v 0.39781 c -0.0332,-0.0166 -0.0953,-0.0331 -0.18643,-0.0497 -0.0829,-0.0249 -0.18642,-0.0456 -0.31072,-0.0621 -0.11601,-0.0249 -0.24027,-0.0414 -0.37286,-0.0497 -0.1243,-0.0166 -0.24438,-0.0249 -0.36041,-0.0249 -0.38947,0 -0.74991,0.0372 -1.08139,0.11182 -0.33146,0.0746 -0.61743,0.19486 -0.85773,0.36059 -0.24032,0.15745 -0.42672,0.36039 -0.55931,0.60898 -0.13258,0.24861 -0.1989,0.54693 -0.1989,0.89496 0,0.36461 0.058,0.67548 0.17397,0.93237 0.12429,0.24859 0.28999,0.45571 0.49715,0.62144 0.21546,0.15744 0.46418,0.27335 0.74594,0.34792 0.29003,0.0746 0.60488,0.11203 0.94463,0.11203 0.26516,0 0.52207,-0.0126 0.77067,-0.0374 0.25689,-0.0166 0.48889,-0.0414 0.69606,-0.0746 0.20716,-0.0331 0.38938,-0.062 0.54683,-0.0869 0.15744,-0.0332 0.27773,-0.0622 0.36059,-0.0871 v -4.05205 c 0,-0.33976 -0.0415,-0.6548 -0.12429,-0.94484 -0.0829,-0.29002 -0.2155,-0.53856 -0.3978,-0.74572 -0.18231,-0.21545 -0.42268,-0.38115 -0.721,-0.49716 -0.29003,-0.1243 -0.6463,-0.18644 -1.06892,-0.18644 z m 4.60501,3.24022 v 8.79462 h 0.94305 l 0.2941,-0.3796 c 0.58794,0.34296 1.17587,0.50211 1.77606,0.50211 1.76383,0 2.80482,-1.31059 2.80482,-3.09891 0,-1.78832 -0.72264,-3.05003 -2.53546,-3.05003 -0.69818,0 -1.27386,0.17166 -1.77606,0.42888 v -3.19707 z m -4.35644,0.17792 c 0.34804,0 0.62147,0.0249 0.82035,0.0746 0.19887,0.0414 0.34385,0.0829 0.435,0.12428 v 2.26233 c -0.16573,0.0332 -0.36866,0.062 -0.60896,0.0869 -0.23203,0.0166 -0.50547,0.0249 -0.82035,0.0249 -0.25689,0 -0.4889,-0.0207 -0.69606,-0.0621 -0.19887,-0.0498 -0.37293,-0.12439 -0.52211,-0.22382 -0.14085,-0.0994 -0.25277,-0.23188 -0.33564,-0.39761 -0.0746,-0.16574 -0.11183,-0.36887 -0.11183,-0.60918 0,-0.27345 0.058,-0.49312 0.17397,-0.65884 0.11601,-0.16573 0.26517,-0.294 0.44747,-0.38516 0.18231,-0.0994 0.38126,-0.16176 0.59671,-0.18662 0.21545,-0.0332 0.42256,-0.0497 0.62144,-0.0497 z m 7.27148,3.81515 c 1.05341,0 1.39648,0.75946 1.39648,1.91084 0,1.15138 -0.53892,1.82514 -1.54334,1.82514 -0.48995,0 -0.90647,-0.1224 -1.26168,-0.40413 v -3.00094 c 0.29397,-0.12248 0.86959,-0.33091 1.40854,-0.33091 z m -7.24357,1.67355 c -0.62592,0 -1.20198,0.0981 -1.72817,0.29409 -0.52618,0.19603 -0.9801,0.47809 -1.36183,0.84607 -0.3783,0.368 -0.67422,0.81848 -0.88744,1.35155 -0.21323,0.53306 -0.31983,1.13493 -0.31983,1.80555 0,0.41957 0.0654,0.80121 0.19613,1.14512 0.13067,0.34391 0.32321,0.63791 0.57771,0.8821 0.25449,0.24416 0.56918,0.43347 0.94403,0.5676 0.37487,0.13413 0.80829,0.20108 1.30008,0.20108 0.23043,0 0.4626,-0.0137 0.69646,-0.0412 0.23387,-0.0241 0.46071,-0.057 0.68083,-0.0982 0.2201,-0.0447 0.42818,-0.0946 0.62421,-0.14962 0.19947,-0.055 0.38004,-0.11174 0.54168,-0.1702 l 0.31468,-1.62486 h -0.33526 l -0.37149,1.03686 c -0.1066,0.0825 -0.23388,0.16164 -0.38177,0.2373 -0.14788,0.0722 -0.3112,0.13746 -0.49003,0.19594 -0.17539,0.0585 -0.36451,0.10494 -0.56742,0.13932 -0.2029,0.0344 -0.41098,0.0516 -0.62421,0.0516 -0.36799,0 -0.68267,-0.0567 -0.94404,-0.17021 -0.26137,-0.11349 -0.47627,-0.26997 -0.64479,-0.46944 -0.16852,-0.20291 -0.2924,-0.44381 -0.37149,-0.72237 -0.0757,-0.27857 -0.1136,-0.58111 -0.1136,-0.90783 0,-0.60528 0.081,-1.15384 0.24264,-1.64563 0.16163,-0.49181 0.38508,-0.91137 0.67053,-1.25873 0.28888,-0.34736 0.63107,-0.61385 1.02656,-0.79956 0.3955,-0.18916 0.82723,-0.28381 1.29494,-0.28381 0.33016,0 0.64655,0.0414 0.94919,0.12389 0.30265,0.0791 0.56041,0.19253 0.77363,0.34042 v 0.89772 h 0.33547 l 0.23215,-1.51166 c -0.30608,-0.0688 -0.64144,-0.12889 -1.00599,-0.18049 -0.36454,-0.055 -0.78241,-0.0825 -1.25357,-0.0825 z"
         id="path930" />
      <path
         sodipodi:nodetypes="cccccscccsccccscccscccsccccscccccccccsssccccccccscccscccccsssccs"
         id="path932"
         d="m 324.88673,240.15757 c -0.32252,0 -0.59986,0.0225 -0.83207,0.0677 -0.22575,0.0452 -0.39348,0.0935 -0.50313,0.14512 l 0.087,0.55151 c 0.0838,-0.0322 0.21607,-0.0741 0.39668,-0.12571 0.18061,-0.0516 0.45483,-0.0776 0.82251,-0.0776 0.258,0 0.46434,0.042 0.61914,0.12587 0.16126,0.0774 0.28387,0.1839 0.36772,0.31935 0.0903,0.129 0.14829,0.27736 0.17408,0.44506 0.0259,0.16126 0.0387,0.32883 0.0387,0.50299 v 0.30965 c -0.0258,-0.0129 -0.0742,-0.0258 -0.14511,-0.0387 -0.0645,-0.0194 -0.14511,-0.0355 -0.24187,-0.0483 -0.0903,-0.0194 -0.18702,-0.0322 -0.29023,-0.0387 -0.0968,-0.0129 -0.19022,-0.0194 -0.28055,-0.0194 -0.30316,0 -0.58372,0.029 -0.84174,0.0871 -0.25801,0.0581 -0.48062,0.15167 -0.66766,0.28068 -0.18706,0.12256 -0.33216,0.28053 -0.43536,0.47403 -0.10321,0.19351 -0.15483,0.42573 -0.15483,0.69663 0,0.28382 0.0452,0.5258 0.13541,0.72576 0.0967,0.1935 0.22573,0.35472 0.38698,0.48373 0.16771,0.12255 0.36131,0.21277 0.58064,0.27082 0.22576,0.0581 0.47083,0.0872 0.7353,0.0872 0.20641,0 0.40639,-0.01 0.59989,-0.0291 0.19996,-0.0129 0.38056,-0.0322 0.54182,-0.0581 0.16125,-0.0258 0.30308,-0.0483 0.42563,-0.0676 0.12257,-0.0259 0.21619,-0.0484 0.28069,-0.0678 v -3.15411 c 0,-0.26447 -0.0323,-0.5097 -0.0967,-0.73546 -0.0645,-0.22575 -0.16775,-0.41922 -0.30964,-0.58047 -0.14191,-0.1677 -0.32903,-0.29668 -0.56124,-0.38699 -0.22575,-0.0968 -0.50308,-0.14512 -0.83204,-0.14512 z m 3.58452,1.74378 v 6.84572 h 0.73407 l 0.22892,-0.29549 c 0.45766,0.26697 0.91529,0.39085 1.38248,0.39085 1.37296,0 2.18327,-1.02016 2.18327,-2.41219 0,-1.39202 -0.5625,-2.37414 -1.9736,-2.37414 -0.54346,0 -0.99157,0.13363 -1.38248,0.33385 v -2.4886 z m -3.39105,0.91689 c 0.27091,0 0.48375,0.0194 0.63856,0.0581 0.1548,0.0322 0.26765,0.0645 0.3386,0.0967 v 1.761 c -0.129,0.0259 -0.28696,0.0483 -0.47401,0.0677 -0.18061,0.0129 -0.39346,0.0194 -0.63856,0.0194 -0.19997,0 -0.38056,-0.0162 -0.54181,-0.0484 -0.1548,-0.0387 -0.29029,-0.0968 -0.40641,-0.17422 -0.10964,-0.0774 -0.19676,-0.1805 -0.26126,-0.3095 -0.0581,-0.12901 -0.0871,-0.28713 -0.0871,-0.47417 0,-0.21287 0.0452,-0.38385 0.13542,-0.51284 0.0903,-0.12901 0.2064,-0.22885 0.3483,-0.29981 0.14192,-0.0774 0.29677,-0.12593 0.46449,-0.14527 0.1677,-0.0259 0.32891,-0.0386 0.48372,-0.0386 z m 5.66011,2.19132 c 0.81997,0 1.08701,0.59116 1.08701,1.48738 0,0.89624 -0.41949,1.42069 -1.20133,1.42069 -0.38138,0 -0.70558,-0.0953 -0.98208,-0.31457 v -2.33593 c 0.22882,-0.0953 0.67688,-0.25758 1.0964,-0.25757 z"
         style="font-style:normal;font-weight:normal;font-size:118.51851654px;line-height:1000%;font-family:sans-serif;letter-spacing:0px;word-spacing:0px;fill:#ffffff;fill-opacity:1;stroke:none;stroke-width:0.23370615px;stroke-linecap:butt;stroke-linejoin:miter;stroke-opacity:1"
         inkscape:connector-curvature="0" />
      <path
         id="path912"
         d="m 338.36559,68.924593 c -0.77687,0 -1.44489,0.05411 -2.00423,0.162911 -0.54381,0.10876 -0.94783,0.225257 -1.21197,0.349553 l 0.20967,1.328486 c 0.20199,-0.07768 0.52049,-0.1785 0.95555,-0.302807 0.43504,-0.124297 1.09559,-0.186654 1.98122,-0.186654 0.62149,0 1.11849,0.101143 1.49138,0.303182 0.38844,0.18645 0.6838,0.442972 0.88578,0.769254 0.21753,0.310746 0.35719,0.668089 0.41933,1.072071 0.0621,0.388436 0.0931,0.792075 0.0931,1.211593 v 0.745875 c -0.0622,-0.03107 -0.17865,-0.06203 -0.34957,-0.09311 -0.15537,-0.04661 -0.34954,-0.0855 -0.5826,-0.116518 -0.21752,-0.04661 -0.45052,-0.07757 -0.69913,-0.09311 -0.23305,-0.03107 -0.45821,-0.04671 -0.67574,-0.04671 -0.73026,0 -1.40611,0.06986 -2.02761,0.209668 -0.62149,0.139832 -1.15769,0.365368 -1.60828,0.676114 -0.45059,0.295211 -0.80009,0.675707 -1.04868,1.141832 -0.2486,0.466125 -0.37294,1.025475 -0.37294,1.67805 0,0.683636 0.10865,1.266514 0.32618,1.748175 0.23306,0.466125 0.54373,0.854464 0.93217,1.165211 0.40397,0.295211 0.87034,0.512528 1.39862,0.652361 0.5438,0.139842 1.13415,0.210042 1.77119,0.210042 0.49719,0 0.97888,-0.02357 1.445,-0.07018 0.48166,-0.03107 0.91667,-0.07779 1.30511,-0.139907 0.38843,-0.06214 0.73009,-0.116293 1.0253,-0.1629 0.29521,-0.06214 0.52075,-0.116668 0.67612,-0.163275 v -7.597597 c 0,-0.637039 -0.0777,-1.22775 -0.23304,-1.771564 -0.15538,-0.543804 -0.40406,-1.009811 -0.74588,-1.398246 -0.34182,-0.403972 -0.79252,-0.714643 -1.35187,-0.932165 -0.5438,-0.233068 -1.21182,-0.349564 -2.00422,-0.349564 z M 347,75 v 16.489907 h 1.76822 l 0.55143,-0.711739 c 1.10239,0.643061 2.20476,0.941443 3.33012,0.941443 3.30718,0 5.25902,-2.457343 5.25902,-5.810454 0,-3.35311 -1.35493,-5.718793 -4.75397,-5.718793 -1.3091,0 -2.3885,0.321847 -3.33012,0.80414 V 75 Z m -8.16833,0.3336 c 0.65257,0 1.16525,0.04671 1.53815,0.139897 0.37289,0.07768 0.64474,0.155357 0.81564,0.233046 v 4.241871 c -0.31075,0.06214 -0.69124,0.116293 -1.14182,0.162911 -0.43506,0.03107 -0.94773,0.04671 -1.53816,0.04671 -0.48166,0 -0.91667,-0.03879 -1.3051,-0.116528 -0.37289,-0.09321 -0.69925,-0.233239 -0.97892,-0.419689 -0.26413,-0.18645 -0.47398,-0.434765 -0.62936,-0.745511 -0.13983,-0.310747 -0.20967,-0.691618 -0.20967,-1.142197 0,-0.512742 0.10867,-0.9246 0.32619,-1.235346 0.21753,-0.310746 0.4972,-0.551218 0.83902,-0.722132 0.34183,-0.18645 0.71485,-0.303322 1.11883,-0.349929 0.40397,-0.06214 0.7923,-0.09311 1.1652,-0.09311 z m 13.63404,7.153414 c 1.97512,0 2.61837,1.423972 2.61837,3.582825 0,2.158843 -1.01046,3.422143 -2.89372,3.422143 -0.91865,0 -1.69964,-0.229521 -2.36566,-0.757757 v -5.626757 c 0.5512,-0.229671 1.63048,-0.620454 2.64101,-0.620454 z M 338.884,85.624907 c -1.1736,0 -2.25372,0.183868 -3.24032,0.551432 -0.9866,0.367554 -1.83767,0.896411 -2.55343,1.58639 -0.70932,0.689968 -1.26416,1.53465 -1.66395,2.534143 -0.39979,0.999482 -0.59968,2.127975 -0.59968,3.385403 0,0.786697 0.12271,1.502261 0.36775,2.1471 0.24503,0.644829 0.60602,1.196089 1.0832,1.653922 0.47717,0.457832 1.06721,0.812785 1.77007,1.064271 0.70287,0.251486 1.51555,0.377025 2.43767,0.377025 0.43203,0 0.86736,-0.02561 1.30584,-0.07714 0.43848,-0.04511 0.86384,-0.106714 1.27653,-0.184061 0.4127,-0.08378 0.80285,-0.177364 1.1704,-0.280532 0.374,-0.103178 0.71259,-0.209518 1.01566,-0.319135 l 0.59003,-3.046608 h -0.62862 l -0.69653,1.944108 c -0.19989,0.154767 -0.43854,0.303075 -0.71582,0.444932 -0.27727,0.135418 -0.58349,0.257753 -0.9188,0.367382 -0.32887,0.109618 -0.68345,0.196757 -1.06391,0.261236 -0.38045,0.0645 -0.7706,0.09686 -1.17039,0.09686 -0.68998,0 -1.28001,-0.106393 -1.77008,-0.319136 -0.49008,-0.212796 -0.89304,-0.506207 -1.209,-0.880211 -0.31596,-0.380453 -0.54822,-0.832146 -0.69652,-1.354457 -0.14187,-0.522321 -0.213,-1.089578 -0.213,-1.702168 0,-1.13491 0.15187,-2.16346 0.45495,-3.085575 0.30306,-0.922114 0.72202,-1.708821 1.25723,-2.3601 0.54166,-0.651289 1.18325,-1.150971 1.92481,-1.499185 0.74157,-0.354665 1.55104,-0.532136 2.42802,-0.532136 0.61904,0 1.21227,0.07757 1.77972,0.232296 0.56746,0.148318 1.05078,0.360986 1.45057,0.638272 v 1.683235 h 0.629 l 0.43527,-2.834346 c -0.5739,-0.128968 -1.2027,-0.241704 -1.88622,-0.338432 -0.68352,-0.103179 -1.46703,-0.154736 -2.35045,-0.154736 z"
         style="font-style:normal;font-weight:normal;font-size:118.51851654px;line-height:1000%;font-family:sans-serif;letter-spacing:0px;word-spacing:0px;fill:#5d5d5d;fill-opacity:1;stroke:none;stroke-width:0.56294978px;stroke-linecap:butt;stroke-linejoin:miter;stroke-opacity:1"
         inkscape:connector-curvature="0" />
      <path
         inkscape:connector-curvature="0"
         style="font-style:normal;font-weight:normal;font-size:118.51851654px;line-height:1000%;font-family:sans-serif;letter-spacing:0px;word-spacing:0px;fill:#5d5d5d;fill-opacity:1;stroke:none;stroke-width:0.37529987px;stroke-linecap:butt;stroke-linejoin:miter;stroke-opacity:1"
         d="m 332.27161,138 c -0.51792,0 -0.96326,0.0361 -1.33615,0.10861 -0.36255,0.0725 -0.63188,0.15017 -0.80798,0.23304 l 0.13978,0.88565 c 0.13465,-0.0517 0.34699,-0.119 0.63702,-0.20186 0.29003,-0.0828 0.7304,-0.12445 1.32082,-0.12445 0.41433,0 0.74567,0.0675 0.99426,0.20213 0.25895,0.1243 0.45586,0.29532 0.59052,0.51283 0.14501,0.20717 0.23812,0.4454 0.27955,0.71471 0.0414,0.25897 0.0621,0.52806 0.0621,0.80773 v 0.49726 c -0.0415,-0.0207 -0.1191,-0.0414 -0.23304,-0.0621 -0.10359,-0.0311 -0.23303,-0.057 -0.3884,-0.0776 -0.14501,-0.0311 -0.30035,-0.0517 -0.46609,-0.0621 -0.15537,-0.0207 -0.30548,-0.0312 -0.4505,-0.0312 -0.48683,0 -0.9374,0.0465 -1.35173,0.13978 -0.41433,0.0932 -0.77179,0.24357 -1.07218,0.45073 -0.3004,0.19681 -0.5334,0.45049 -0.69913,0.76123 -0.16574,0.31076 -0.24863,0.68366 -0.24863,1.1187 0,0.45576 0.0725,0.84435 0.21746,1.16546 0.15537,0.31074 0.36249,0.56963 0.62144,0.7768 0.26932,0.1968 0.58023,0.34169 0.93242,0.4349 0.36254,0.0932 0.7561,0.14003 1.18079,0.14003 0.33145,0 0.65258,-0.0157 0.96334,-0.0467 0.32111,-0.0207 0.61111,-0.0518 0.87007,-0.0933 0.25895,-0.0414 0.48673,-0.0774 0.68354,-0.1086 0.1968,-0.0414 0.34716,-0.0777 0.45073,-0.10884 v -5.06507 c 0,-0.4247 -0.0518,-0.8185 -0.15535,-1.18104 -0.10358,-0.36254 -0.26938,-0.67321 -0.49726,-0.93216 -0.22788,-0.26931 -0.52834,-0.47643 -0.90124,-0.62145 -0.36254,-0.15537 -0.80788,-0.23305 -1.33616,-0.23305 z m 5.75627,4.05027 v 10.99328 h 1.17881 l 0.36762,-0.4745 c 0.73494,0.4287 1.46985,0.62763 2.22008,0.62763 2.20479,0 3.50602,-1.63823 3.50602,-3.87363 0,-2.2354 -0.90329,-3.81253 -3.16932,-3.81253 -0.87272,0 -1.59232,0.21456 -2.22008,0.53609 v -3.99634 z m -5.44555,0.2224 c 0.43505,0 0.77684,0.0312 1.02544,0.0933 0.24859,0.0517 0.42981,0.10356 0.54375,0.15535 v 2.82792 c -0.20716,0.0414 -0.46083,0.0774 -0.76121,0.10861 -0.29003,0.0207 -0.63183,0.0312 -1.02543,0.0312 -0.32111,0 -0.61112,-0.0258 -0.87008,-0.0776 -0.24859,-0.0622 -0.46616,-0.15549 -0.65262,-0.27979 -0.17608,-0.1243 -0.31598,-0.28984 -0.41957,-0.49701 -0.0932,-0.20717 -0.13977,-0.46108 -0.13977,-0.76147 0,-0.34182 0.0725,-0.6164 0.21745,-0.82355 0.14502,-0.20717 0.33148,-0.36749 0.55936,-0.48143 0.22788,-0.1243 0.47656,-0.20222 0.74588,-0.23328 0.26932,-0.0415 0.5282,-0.0621 0.7768,-0.0621 z m 9.08935,4.76895 c 1.31676,0 1.7456,0.94932 1.7456,2.38854 0,1.43923 -0.67365,2.28143 -1.92916,2.28143 -0.61244,0 -1.13309,-0.15301 -1.57711,-0.50516 v -3.75118 c 0.36747,-0.1531 1.08699,-0.41363 1.76067,-0.41363 z m -9.05447,2.09193 c -0.7824,0 -1.50247,0.12258 -2.16021,0.36761 -0.65772,0.24504 -1.22512,0.59761 -1.70229,1.05759 -0.47287,0.46 -0.84276,1.0231 -1.1093,1.68944 -0.26653,0.66632 -0.39978,1.41866 -0.39978,2.25694 0,0.52446 0.0818,1.00151 0.24516,1.4314 0.16336,0.42988 0.40402,0.79739 0.72214,1.10262 0.31812,0.3052 0.71147,0.54184 1.18005,0.7095 0.46858,0.16766 1.01037,0.25135 1.6251,0.25135 0.28803,0 0.57825,-0.0171 0.87057,-0.0514 0.29233,-0.0301 0.5759,-0.0712 0.85103,-0.12271 0.27512,-0.0558 0.53522,-0.11824 0.78026,-0.18702 0.24934,-0.0687 0.47505,-0.13968 0.67711,-0.21276 l 0.39334,-2.03107 h -0.41908 l -0.46434,1.29607 c -0.13327,0.10318 -0.29237,0.20205 -0.47722,0.29663 -0.18485,0.0903 -0.38899,0.17183 -0.61254,0.24492 -0.21923,0.0731 -0.45563,0.13117 -0.70926,0.17415 -0.25364,0.043 -0.51374,0.0645 -0.78027,0.0645 -0.45999,0 -0.85333,-0.0709 -1.18005,-0.21276 -0.32672,-0.14186 -0.59535,-0.33747 -0.806,-0.5868 -0.21065,-0.25364 -0.36548,-0.55477 -0.46435,-0.90298 -0.0946,-0.34821 -0.142,-0.72638 -0.142,-1.13478 0,-0.7566 0.10125,-1.4423 0.3033,-2.05704 0.20204,-0.61475 0.48135,-1.13921 0.83816,-1.5734 0.36111,-0.4342 0.78884,-0.76731 1.28321,-0.99946 0.49437,-0.23644 1.03403,-0.35475 1.61867,-0.35475 0.41269,0 0.80818,0.0517 1.18648,0.15485 0.37831,0.0989 0.70052,0.24066 0.96705,0.42552 v 1.12216 h 0.41933 l 0.29019,-1.88957 c -0.3826,-0.086 -0.8018,-0.16113 -1.25749,-0.22562 -0.45568,-0.0687 -0.97801,-0.10315 -1.56697,-0.10315 z"
         id="path914" />
      <path
         id="path916"
         d="m 328.79888,192 c -0.41434,0 -0.77062,0.0289 -1.06893,0.0869 -0.29003,0.058 -0.5055,0.12014 -0.64638,0.18643 l 0.11182,0.70852 c 0.10773,-0.0414 0.27759,-0.0952 0.50962,-0.16149 0.23203,-0.0663 0.58432,-0.0996 1.05666,-0.0996 0.33146,0 0.59653,0.054 0.7954,0.1617 0.20717,0.0994 0.36469,0.23626 0.47242,0.41027 0.11601,0.16573 0.19049,0.35632 0.22363,0.57177 0.0332,0.20717 0.0497,0.42244 0.0497,0.64618 v 0.39781 c -0.0332,-0.0166 -0.0953,-0.0331 -0.18643,-0.0497 -0.0829,-0.0249 -0.18642,-0.0456 -0.31072,-0.0621 -0.11601,-0.0249 -0.24027,-0.0414 -0.37286,-0.0497 -0.1243,-0.0166 -0.24438,-0.0249 -0.36041,-0.0249 -0.38947,0 -0.74991,0.0372 -1.08139,0.11182 -0.33146,0.0746 -0.61743,0.19486 -0.85773,0.36059 -0.24032,0.15745 -0.42672,0.36039 -0.55931,0.60898 -0.13258,0.24861 -0.1989,0.54693 -0.1989,0.89496 0,0.36461 0.058,0.67548 0.17397,0.93237 0.12429,0.24859 0.28999,0.45571 0.49715,0.62144 0.21546,0.15744 0.46418,0.27335 0.74594,0.34792 0.29003,0.0746 0.60488,0.11203 0.94463,0.11203 0.26516,0 0.52207,-0.0126 0.77067,-0.0374 0.25689,-0.0166 0.48889,-0.0414 0.69606,-0.0746 0.20716,-0.0331 0.38938,-0.062 0.54683,-0.0869 0.15744,-0.0332 0.27773,-0.0622 0.36059,-0.0871 v -4.05205 c 0,-0.33976 -0.0415,-0.6548 -0.12429,-0.94484 -0.0829,-0.29002 -0.2155,-0.53856 -0.3978,-0.74572 -0.18231,-0.21545 -0.42268,-0.38115 -0.721,-0.49716 -0.29003,-0.1243 -0.6463,-0.18644 -1.06892,-0.18644 z m 4.60501,3.24022 v 8.79462 h 0.94305 l 0.2941,-0.3796 c 0.58794,0.34296 1.17587,0.50211 1.77606,0.50211 1.76383,0 2.80482,-1.31059 2.80482,-3.09891 0,-1.78832 -0.72264,-3.05003 -2.53546,-3.05003 -0.69818,0 -1.27386,0.17166 -1.77606,0.42888 v -3.19707 z m -4.35644,0.17792 c 0.34804,0 0.62147,0.0249 0.82035,0.0746 0.19887,0.0414 0.34385,0.0829 0.435,0.12428 v 2.26233 c -0.16573,0.0332 -0.36866,0.062 -0.60896,0.0869 -0.23203,0.0166 -0.50547,0.0249 -0.82035,0.0249 -0.25689,0 -0.4889,-0.0207 -0.69606,-0.0621 -0.19887,-0.0498 -0.37293,-0.12439 -0.52211,-0.22382 -0.14085,-0.0994 -0.25277,-0.23188 -0.33564,-0.39761 -0.0746,-0.16574 -0.11183,-0.36887 -0.11183,-0.60918 0,-0.27345 0.058,-0.49312 0.17397,-0.65884 0.11601,-0.16573 0.26517,-0.294 0.44747,-0.38516 0.18231,-0.0994 0.38126,-0.16176 0.59671,-0.18662 0.21545,-0.0332 0.42256,-0.0497 0.62144,-0.0497 z m 7.27148,3.81515 c 1.05341,0 1.39648,0.75946 1.39648,1.91084 0,1.15138 -0.53892,1.82514 -1.54334,1.82514 -0.48995,0 -0.90647,-0.1224 -1.26168,-0.40413 v -3.00094 c 0.29397,-0.12248 0.86959,-0.33091 1.40854,-0.33091 z m -7.24357,1.67355 c -0.62592,0 -1.20198,0.0981 -1.72817,0.29409 -0.52618,0.19603 -0.9801,0.47809 -1.36183,0.84607 -0.3783,0.368 -0.67422,0.81848 -0.88744,1.35155 -0.21323,0.53306 -0.31983,1.13493 -0.31983,1.80555 0,0.41957 0.0654,0.80121 0.19613,1.14512 0.13067,0.34391 0.32321,0.63791 0.57771,0.8821 0.25449,0.24416 0.56918,0.43347 0.94403,0.5676 0.37487,0.13413 0.80829,0.20108 1.30008,0.20108 0.23043,0 0.4626,-0.0137 0.69646,-0.0412 0.23387,-0.0241 0.46071,-0.057 0.68083,-0.0982 0.2201,-0.0447 0.42818,-0.0946 0.62421,-0.14962 0.19947,-0.055 0.38004,-0.11174 0.54168,-0.1702 l 0.31468,-1.62486 h -0.33526 l -0.37149,1.03686 c -0.1066,0.0825 -0.23388,0.16164 -0.38177,0.2373 -0.14788,0.0722 -0.3112,0.13746 -0.49003,0.19594 -0.17539,0.0585 -0.36451,0.10494 -0.56742,0.13932 -0.2029,0.0344 -0.41098,0.0516 -0.62421,0.0516 -0.36799,0 -0.68267,-0.0567 -0.94404,-0.17021 -0.26137,-0.11349 -0.47627,-0.26997 -0.64479,-0.46944 -0.16852,-0.20291 -0.2924,-0.44381 -0.37149,-0.72237 -0.0757,-0.27857 -0.1136,-0.58111 -0.1136,-0.90783 0,-0.60528 0.081,-1.15384 0.24264,-1.64563 0.16163,-0.49181 0.38508,-0.91137 0.67053,-1.25873 0.28888,-0.34736 0.63107,-0.61385 1.02656,-0.79956 0.3955,-0.18916 0.82723,-0.28381 1.29494,-0.28381 0.33016,0 0.64655,0.0414 0.94919,0.12389 0.30265,0.0791 0.56041,0.19253 0.77363,0.34042 v 0.89772 h 0.33547 l 0.23215,-1.51166 c -0.30608,-0.0688 -0.64144,-0.12889 -1.00599,-0.18049 -0.36454,-0.055 -0.78241,-0.0825 -1.25357,-0.0825 z"
         style="font-style:normal;font-weight:normal;font-size:118.51851654px;line-height:1000%;font-family:sans-serif;letter-spacing:0px;word-spacing:0px;fill:#5d5d5d;fill-opacity:1;stroke:none;stroke-width:0.30023989px;stroke-linecap:butt;stroke-linejoin:miter;stroke-opacity:1"
         inkscape:connector-curvature="0" />
      <path
         inkscape:connector-curvature="0"
         style="font-style:normal;font-weight:normal;font-size:118.51851654px;line-height:1000%;font-family:sans-serif;letter-spacing:0px;word-spacing:0px;fill:#5d5d5d;fill-opacity:1;stroke:none;stroke-width:0.23370615px;stroke-linecap:butt;stroke-linejoin:miter;stroke-opacity:1"
         d="m 324.88673,239.15757 c -0.32252,0 -0.59986,0.0225 -0.83207,0.0677 -0.22575,0.0452 -0.39348,0.0935 -0.50313,0.14512 l 0.087,0.55151 c 0.0838,-0.0322 0.21607,-0.0741 0.39668,-0.12571 0.18061,-0.0516 0.45483,-0.0776 0.82251,-0.0776 0.258,0 0.46434,0.042 0.61914,0.12587 0.16126,0.0774 0.28387,0.1839 0.36772,0.31935 0.0903,0.129 0.14829,0.27736 0.17408,0.44506 0.0259,0.16126 0.0387,0.32883 0.0387,0.50299 v 0.30965 c -0.0258,-0.0129 -0.0742,-0.0258 -0.14511,-0.0387 -0.0645,-0.0194 -0.14511,-0.0355 -0.24187,-0.0483 -0.0903,-0.0194 -0.18702,-0.0322 -0.29023,-0.0387 -0.0968,-0.0129 -0.19022,-0.0194 -0.28055,-0.0194 -0.30316,0 -0.58372,0.029 -0.84174,0.0871 -0.25801,0.0581 -0.48062,0.15167 -0.66766,0.28068 -0.18706,0.12256 -0.33216,0.28053 -0.43536,0.47403 -0.10321,0.19351 -0.15483,0.42573 -0.15483,0.69663 0,0.28382 0.0452,0.5258 0.13541,0.72576 0.0967,0.1935 0.22573,0.35472 0.38698,0.48373 0.16771,0.12255 0.36131,0.21277 0.58064,0.27082 0.22576,0.0581 0.47083,0.0872 0.7353,0.0872 0.20641,0 0.40639,-0.01 0.59989,-0.0291 0.19996,-0.0129 0.38056,-0.0322 0.54182,-0.0581 0.16125,-0.0258 0.30308,-0.0483 0.42563,-0.0676 0.12257,-0.0259 0.21619,-0.0484 0.28069,-0.0678 v -3.15411 c 0,-0.26447 -0.0323,-0.5097 -0.0967,-0.73546 -0.0645,-0.22575 -0.16775,-0.41922 -0.30964,-0.58047 -0.14191,-0.1677 -0.32903,-0.29668 -0.56124,-0.38699 -0.22575,-0.0968 -0.50308,-0.14512 -0.83204,-0.14512 z m 3.58452,1.74378 v 6.84572 h 0.73407 l 0.22892,-0.29549 c 0.45766,0.26697 0.91529,0.39085 1.38248,0.39085 1.37296,0 2.18327,-1.02016 2.18327,-2.41219 0,-1.39202 -0.5625,-2.37414 -1.9736,-2.37414 -0.54346,0 -0.99157,0.13363 -1.38248,0.33385 v -2.4886 z m -3.39105,0.91689 c 0.27091,0 0.48375,0.0194 0.63856,0.0581 0.1548,0.0322 0.26765,0.0645 0.3386,0.0967 v 1.761 c -0.129,0.0259 -0.28696,0.0483 -0.47401,0.0677 -0.18061,0.0129 -0.39346,0.0194 -0.63856,0.0194 -0.19997,0 -0.38056,-0.0162 -0.54181,-0.0484 -0.1548,-0.0387 -0.29029,-0.0968 -0.40641,-0.17422 -0.10964,-0.0774 -0.19676,-0.1805 -0.26126,-0.3095 -0.0581,-0.12901 -0.0871,-0.28713 -0.0871,-0.47417 0,-0.21287 0.0452,-0.38385 0.13542,-0.51284 0.0903,-0.12901 0.2064,-0.22885 0.3483,-0.29981 0.14192,-0.0774 0.29677,-0.12593 0.46449,-0.14527 0.1677,-0.0259 0.32891,-0.0386 0.48372,-0.0386 z m 5.66011,2.19132 c 0.81997,0 1.08701,0.59116 1.08701,1.48738 0,0.89624 -0.41949,1.42069 -1.20133,1.42069 -0.38138,0 -0.70558,-0.0953 -0.98208,-0.31457 v -2.33593 c 0.22882,-0.0953 0.67688,-0.25758 1.0964,-0.25757 z"
         id="path918"
         sodipodi:nodetypes="cccccscccsccccscccscccsccccscccccccccsssccccccccscccscccccsssccs" />
    </g>
    <g
       inkscape:groupmode="layer"
       id="layer5"
       inkscape:label="Border"
       style="display:inline"
       sodipodi:insensitive="true">
      <path
         style="display:inline;opacity:0.4;fill:none;fill-opacity:1;stroke:#000000;stroke-width:1;stroke-linecap:round;stroke-linejoin:round;stroke-miterlimit:4;stroke-dasharray:none;stroke-dashoffset:0;stroke-opacity:1;enable-background:new"
         d="m 341.12109,133.5 c 9.08109,0 10.37891,1.29458 10.37891,10.36719 v 8.26562 c 0,9.07258 -1.29782,10.36719 -10.37891,10.36719 H 330.87891 C 321.79783,162.5 320.5,161.20539 320.5,152.13281 v -8.26562 c 0,-9.07261 1.29783,-10.36719 10.37891,-10.36719 z"
         id="path950"
         inkscape:connector-curvature="0"
         sodipodi:nodetypes="sssssssss" />
      <path
         style="display:inline;opacity:0.4;fill:none;fill-opacity:1;stroke:#000000;stroke-width:1;stroke-linecap:round;stroke-linejoin:round;stroke-miterlimit:4;stroke-dasharray:none;stroke-dashoffset:0;stroke-opacity:1;enable-background:new"
         d="M 351.93164,62.5 C 365.55326,62.5 367.5,64.44187 367.5,78.05078 V 89.94922 C 367.5,103.55808 365.55326,105.5 351.93164,105.5 H 336.06836 C 322.44674,105.5 320.5,103.55808 320.5,89.94922 V 78.05078 C 320.5,64.44187 322.44674,62.5 336.06836,62.5 Z"
         id="path892"
         inkscape:connector-curvature="0"
         sodipodi:nodetypes="sssssssss" />
      <path
         sodipodi:nodetypes="sssssssss"
         inkscape:connector-curvature="0"
         id="path970"
         d="m 335.71582,189.50031 c 6.81081,10e-6 7.78418,0.97093 7.78418,7.77539 v 5.44891 c 0,6.80444 -0.97337,7.77539 -7.78418,7.77539 h -7.43164 c -6.81081,0 -7.78418,-0.97095 -7.78418,-7.77539 v -5.44892 c 0,-6.80446 0.97337,-7.7754 7.78418,-7.77539 z"
         style="display:inline;opacity:0.4;fill:none;fill-opacity:1;stroke:#000000;stroke-width:1;stroke-linecap:round;stroke-linejoin:round;stroke-miterlimit:4;stroke-dasharray:none;stroke-dashoffset:0;stroke-opacity:1;enable-background:new" />
      <path
         sodipodi:nodetypes="sssssssss"
         inkscape:connector-curvature="0"
         id="path1025"
         d="m 330.31054,236.5 c 4.54055,0 5.18946,0.64729 5.18946,5.18359 v 3.63282 c 0,4.53629 -0.64891,5.18359 -5.18946,5.18359 h -4.62109 c -4.54053,0 -5.18945,-0.6473 -5.18945,-5.18359 v -3.63282 c 0,-4.5363 0.64892,-5.18359 5.18946,-5.18359 z"
         style="display:inline;opacity:0.4;fill:none;fill-opacity:1;stroke:#000000;stroke-width:1;stroke-linecap:round;stroke-linejoin:round;stroke-miterlimit:4;stroke-dasharray:none;stroke-dashoffset:0;stroke-opacity:1;enable-background:new" />
    </g>
    <g
       inkscape:groupmode="layer"
       id="layer3"
       inkscape:label="Highlights"
       style="display:inline"
       sodipodi:insensitive="true">
      <path
         style="color:#000000;font-style:normal;font-variant:normal;font-weight:normal;font-stretch:normal;font-size:medium;line-height:normal;font-family:sans-serif;font-variant-ligatures:normal;font-variant-position:normal;font-variant-caps:normal;font-variant-numeric:normal;font-variant-alternates:normal;font-feature-settings:normal;text-indent:0;text-align:start;text-decoration:none;text-decoration-line:none;text-decoration-style:solid;text-decoration-color:#000000;letter-spacing:normal;word-spacing:normal;text-transform:none;writing-mode:lr-tb;direction:ltr;text-orientation:mixed;dominant-baseline:auto;baseline-shift:baseline;text-anchor:start;white-space:normal;shape-padding:0;clip-rule:nonzero;display:inline;overflow:visible;visibility:visible;opacity:0.5;isolation:auto;mix-blend-mode:normal;color-interpolation:sRGB;color-interpolation-filters:linearRGB;solid-color:#000000;solid-opacity:1;vector-effect:none;fill:none;fill-opacity:1;fill-rule:nonzero;stroke:url(#linearGradient929);stroke-width:1;stroke-linecap:round;stroke-linejoin:round;stroke-miterlimit:4;stroke-dasharray:none;stroke-dashoffset:0;stroke-opacity:1;color-rendering:auto;image-rendering:auto;shape-rendering:auto;text-rendering:auto;enable-background:accumulate"
         d="m 351.93164,63.5 h -15.86328 c -6.76329,0 -10.36307,0.55877 -12.18555,2.37891 -1.82247,1.82013 -2.38281,5.4151 -2.38281,12.17187 v 11.89844 c 0,6.75675 0.56034,10.35173 2.38281,12.17187 1.82248,1.82015 5.42226,2.37891 12.18555,2.37891 h 15.86328 c 6.76329,0 10.36307,-0.55876 12.18555,-2.37891 C 365.93966,100.30095 366.5,96.70597 366.5,89.94922 V 78.05078 c 0,-6.75677 -0.56034,-10.35174 -2.38281,-12.17187 C 362.29471,64.05877 358.69493,63.5 351.93164,63.5 Z"
         id="path911"
         inkscape:connector-curvature="0"
         sodipodi:nodetypes="sssssssssssss" />
      <path
         style="color:#000000;font-style:normal;font-variant:normal;font-weight:normal;font-stretch:normal;font-size:medium;line-height:normal;font-family:sans-serif;font-variant-ligatures:normal;font-variant-position:normal;font-variant-caps:normal;font-variant-numeric:normal;font-variant-alternates:normal;font-feature-settings:normal;text-indent:0;text-align:start;text-decoration:none;text-decoration-line:none;text-decoration-style:solid;text-decoration-color:#000000;letter-spacing:normal;word-spacing:normal;text-transform:none;writing-mode:lr-tb;direction:ltr;text-orientation:mixed;dominant-baseline:auto;baseline-shift:baseline;text-anchor:start;white-space:normal;shape-padding:0;clip-rule:nonzero;display:inline;overflow:visible;visibility:visible;opacity:0.5;isolation:auto;mix-blend-mode:normal;color-interpolation:sRGB;color-interpolation-filters:linearRGB;solid-color:#000000;solid-opacity:1;vector-effect:none;fill:none;fill-opacity:1;fill-rule:nonzero;stroke:url(#linearGradient965);stroke-width:1;stroke-linecap:round;stroke-linejoin:round;stroke-miterlimit:4;stroke-dasharray:none;stroke-dashoffset:0;stroke-opacity:1;color-rendering:auto;image-rendering:auto;shape-rendering:auto;text-rendering:auto;enable-background:accumulate"
         d="m 341.12109,134.5 h -10.24218 c -4.49302,0 -6.796,0.397 -7.88868,1.48828 -1.09267,1.09128 -1.49023,3.39029 -1.49023,7.87891 v 8.26562 c 0,4.48861 0.39755,6.78763 1.49023,7.87891 1.09268,1.09128 3.39566,1.48828 7.88868,1.48828 h 10.24218 c 4.49303,0 6.796,-0.397 7.88868,-1.48828 1.09268,-1.09128 1.49023,-3.3903 1.49023,-7.87891 v -8.26562 c 0,-4.48862 -0.39756,-6.78763 -1.49023,-7.87891 C 347.91709,134.897 345.61412,134.5 341.12109,134.5 Z"
         id="path955"
         inkscape:connector-curvature="0"
         sodipodi:nodetypes="sscssssscssss" />
      <path
         style="color:#000000;font-style:normal;font-variant:normal;font-weight:normal;font-stretch:normal;font-size:medium;line-height:normal;font-family:sans-serif;font-variant-ligatures:normal;font-variant-position:normal;font-variant-caps:normal;font-variant-numeric:normal;font-variant-alternates:normal;font-feature-settings:normal;text-indent:0;text-align:start;text-decoration:none;text-decoration-line:none;text-decoration-style:solid;text-decoration-color:#000000;letter-spacing:normal;word-spacing:normal;text-transform:none;writing-mode:lr-tb;direction:ltr;text-orientation:mixed;dominant-baseline:auto;baseline-shift:baseline;text-anchor:start;white-space:normal;shape-padding:0;clip-rule:nonzero;display:inline;overflow:visible;visibility:visible;opacity:0.5;isolation:auto;mix-blend-mode:normal;color-interpolation:sRGB;color-interpolation-filters:linearRGB;solid-color:#000000;solid-opacity:1;vector-effect:none;fill:none;fill-opacity:1;fill-rule:nonzero;stroke:url(#linearGradient1006);stroke-width:1;stroke-linecap:round;stroke-linejoin:round;stroke-miterlimit:4;stroke-dasharray:none;stroke-dashoffset:0;stroke-opacity:1;color-rendering:auto;image-rendering:auto;shape-rendering:auto;text-rendering:auto;enable-background:accumulate"
         d="m 335.71484,190.5 h -7.43164 c -3.35788,0 -5.0105,0.31612 -5.73828,1.04297 -0.72778,0.72685 -1.04492,2.37787 -1.04492,5.73242 v 5.44922 c 0,3.35454 0.31714,5.00557 1.04492,5.73242 0.72778,0.72685 2.38235,1.04297 5.74024,1.04297 h 7.42968 c 3.35789,0 5.01246,-0.31612 5.74024,-1.04297 0.72778,-0.72685 1.04492,-2.37788 1.04492,-5.73242 v -5.44922 c 0,-3.35455 -0.31714,-5.00558 -1.04492,-5.73242 C 340.7273,190.81612 339.07273,190.5 335.71484,190.5 Z"
         id="path974"
         inkscape:connector-curvature="0"
         sodipodi:nodetypes="ssssssssssscs" />
      <path
         style="color:#000000;font-style:normal;font-variant:normal;font-weight:normal;font-stretch:normal;font-size:medium;line-height:normal;font-family:sans-serif;font-variant-ligatures:normal;font-variant-position:normal;font-variant-caps:normal;font-variant-numeric:normal;font-variant-alternates:normal;font-feature-settings:normal;text-indent:0;text-align:start;text-decoration:none;text-decoration-line:none;text-decoration-style:solid;text-decoration-color:#000000;letter-spacing:normal;word-spacing:normal;text-transform:none;writing-mode:lr-tb;direction:ltr;text-orientation:mixed;dominant-baseline:auto;baseline-shift:baseline;text-anchor:start;white-space:normal;shape-padding:0;clip-rule:nonzero;display:inline;overflow:visible;visibility:visible;opacity:0.5;isolation:auto;mix-blend-mode:normal;color-interpolation:sRGB;color-interpolation-filters:linearRGB;solid-color:#000000;solid-opacity:1;vector-effect:none;fill:none;fill-opacity:1;fill-rule:nonzero;stroke:url(#linearGradient1045);stroke-width:1;stroke-linecap:round;stroke-linejoin:round;stroke-miterlimit:4;stroke-dasharray:none;stroke-dashoffset:0;stroke-opacity:1;color-rendering:auto;image-rendering:auto;shape-rendering:auto;text-rendering:auto;enable-background:accumulate"
         d="m 325.68945,237.5 h 4.6211 c 2.22275,0 3.22696,0.23524 3.58984,0.59766 0.36288,0.36241 0.59961,1.36547 0.59961,3.58593 v 3.63282 c 0,2.22046 -0.23673,3.22352 -0.59961,3.58593 -0.36288,0.36242 -1.36709,0.59766 -3.58984,0.59766 h -4.6211 c -2.22274,0 -3.22696,-0.23524 -3.58984,-0.59766 -0.36288,-0.36242 -0.59961,-1.36547 -0.59961,-3.58593 v -3.63282 c 0,-2.22046 0.23673,-3.22352 0.59961,-3.58593 0.36288,-0.36242 1.36709,-0.59766 3.58984,-0.59766 z"
         id="path1035"
         inkscape:connector-curvature="0"
         sodipodi:nodetypes="sscsscssssscs" />
    </g>
  </g>
</svg>
