<svg version="1.1" viewBox="0 0 16 16" xmlns="http://www.w3.org/2000/svg">
 <path d="m2.25 14.5 2.5-6h-1.5v-5l-2.5 6h1.5z" fill="#808080"/>
 <g transform="translate(3,1)" color="#000000" fill="#808080">
  <path d="m5 13v-10h6v10z" overflow="visible"/>
  <path d="m3 12.338c0.01 0.839-0.015 1.451 0.262 1.953 0.138 0.251 0.373 0.45 0.666 0.56 0.292 0.11 0.64 0.149 1.078 0.149h5.994c0.438 0 0.786-0.039 1.078-0.148 0.293-0.11 0.526-0.31 0.664-0.56 0.277-0.503 0.248-1.115 0.258-1.954v-8.707c-0.01-0.839 0.019-1.453-0.258-1.955a1.25 1.25 0 0 0-0.664-0.559c-0.292-0.11-0.64-0.117-1.078-0.117h-1v-1h-4v1h-0.994c-0.438 0-0.786 7e-3 -1.078 0.117-0.293 0.11-0.528 0.308-0.666 0.559-0.277 0.502-0.252 1.116-0.262 1.955v8.705zm1-0.014v-8.691c0.01-0.853 0.04-1.298 0.137-1.475a0.266 0.266 0 0 1 0.142-0.105c0.062-0.023 0.3-0.053 0.727-0.053h5.994c0.427 0 0.664 0.03 0.727 0.053a0.259 0.259 0 0 1 0.14 0.105c0.095 0.173 0.123 0.618 0.133 1.475v8.705c-0.01 0.854-0.038 1.298-0.133 1.47-0.016 0.03-0.055 0.074-0.14 0.106-0.123 0.046-0.349 0.086-0.727 0.086h-5.994c-0.378 0-0.604-0.04-0.727-0.086a0.266 0.266 0 0 1-0.142-0.105c-0.098-0.178-0.127-0.62-0.137-1.485z" font-family="sans-serif" font-weight="400" overflow="visible" style="font-feature-settings:normal;font-variant-alternates:normal;font-variant-caps:normal;font-variant-ligatures:none;font-variant-numeric:normal;font-variant-position:normal;isolation:auto;mix-blend-mode:normal;shape-padding:0;text-decoration-color:#000000;text-decoration-line:none;text-decoration-style:solid;text-indent:0;text-transform:none" white-space="normal"/>
 </g>
</svg>
