<svg height="16" width="16" xmlns="http://www.w3.org/2000/svg">
    <g color="#000" fill="gray">
        <path d="M5 13V3h6v10z" overflow="visible" style="marker:none"/>
        <path d="M3 12.338c.01.839-.015 1.451.262 1.953.138.251.373.45.666.56.292.11.64.149 1.078.149H11c.438 0 .786-.039 1.078-.148.293-.11.526-.31.664-.56.277-.503.248-1.115.258-1.954V3.631c-.01-.839.019-1.453-.258-1.955a1.25 1.25 0 0 0-.664-.559C11.786 1.007 11.438 1 11 1h-1V0H6v1h-.994c-.438 0-.786.007-1.078.117-.293.11-.528.308-.666.559-.277.502-.252 1.116-.262 1.955v8.705zm1-.014V3.633c.01-.853.04-1.298.137-1.475a.266.266 0 0 1 .142-.105c.062-.023.3-.053.727-.053H11c.427 0 .664.03.727.053a.259.259 0 0 1 .14.105c.095.173.123.618.133 1.475v8.705c-.01.854-.038 1.298-.133 1.47-.016.03-.055.074-.14.106-.123.046-.349.086-.727.086H5.006c-.378 0-.604-.04-.727-.086a.266.266 0 0 1-.142-.105c-.098-.178-.127-.62-.137-1.485z" font-family="sans-serif" font-weight="400" overflow="visible" style="line-height:normal;font-variant-ligatures:none;font-variant-position:normal;font-variant-caps:normal;font-variant-numeric:normal;font-variant-alternates:normal;font-feature-settings:normal;text-indent:0;text-align:start;text-decoration-line:none;text-decoration-style:solid;text-decoration-color:#000;text-transform:none;shape-padding:0;isolation:auto;mix-blend-mode:normal;marker:none" white-space="normal"/>
    </g>
</svg>
