<svg version="1.1" viewBox="0 0 16 16" xmlns="http://www.w3.org/2000/svg">
 <g fill="#808080" font-family="sans-serif" font-weight="400" white-space="normal">
  <path d="M4.994 1c-1.258.015-2.179-.03-2.931.385a1.88 1.88 0 0 0-.84.998C1.06 2.822 1 3.343 1 4v8c0 .657.06 1.178.224 1.617.164.439.462.79.839.997.752.415 1.673.371 2.931.386H11.006c1.258-.015 2.178.03 2.931-.386.377-.208.675-.558.84-.997.164-.439.223-.96.223-1.617V4c0-.658-.06-1.178-.224-1.617a1.88 1.88 0 0 0-.839-.998c-.753-.415-1.673-.37-2.931-.385H4.997zm.011 1H11c1.26.014 2.088.059 2.454.261.183.101.288.213.385.473.098.26.16.673.16 1.266v8c0 .592-.062 1.005-.16 1.265-.097.26-.202.372-.385.474-.366.202-1.195.246-2.454.26H5c-1.26-.014-2.088-.058-2.454-.26-.183-.102-.288-.214-.385-.474C2.063 13.005 2 12.592 2 12V4c0-.593.062-1.006.16-1.266.097-.26.202-.372.385-.473.367-.202 1.196-.247 2.46-.261z" fill="#808080" overflow="visible" style="font-feature-settings:normal;font-variant-alternates:normal;font-variant-caps:normal;font-variant-ligatures:normal;font-variant-numeric:normal;font-variant-position:normal;isolation:auto;mix-blend-mode:normal;shape-padding:0;text-decoration-color:#000;text-decoration-line:none;text-decoration-style:solid;text-indent:0;text-orientation:mixed;text-transform:none"/>
 </g>
 <path d="m7.995 4c-1.0809 2.1905-1.8274 4.6341-1.8776 4.8015-0.0048 0.01993-0.01712 0.04079-0.01712 0.06072a1.9945 1.9945 0 0 0 1.8932 2.6187 1.9945 1.9945 0 0 0 1.8885-2.6187s-0.73272-2.4677-1.887-4.8591z" fill="#808080" stroke-width=".79714"/>
</svg>
