<?xml version="1.0" encoding="UTF-8" standalone="no"?>
<svg
   xmlns:dc="http://purl.org/dc/elements/1.1/"
   xmlns:cc="http://creativecommons.org/ns#"
   xmlns:rdf="http://www.w3.org/1999/02/22-rdf-syntax-ns#"
   xmlns:svg="http://www.w3.org/2000/svg"
   xmlns="http://www.w3.org/2000/svg"
   xmlns:sodipodi="http://sodipodi.sourceforge.net/DTD/sodipodi-0.dtd"
   xmlns:inkscape="http://www.inkscape.org/namespaces/inkscape"
   height="16"
   width="16"
   version="1.1"
   id="svg10"
   sodipodi:docname="drive-harddisk-system-symbolic.svg">
  <metadata
     id="metadata16">
    <rdf:RDF>
      <cc:Work
         rdf:about="">
        <dc:format>image/svg+xml</dc:format>
        <dc:type
           rdf:resource="http://purl.org/dc/dcmitype/StillImage" />
      </cc:Work>
    </rdf:RDF>
  </metadata>
  <defs
     id="defs14" />
  <sodipodi:namedview
     pagecolor="#ffffff"
     bordercolor="#666666"
     borderopacity="1"
     objecttolerance="10"
     gridtolerance="10"
     guidetolerance="10"
     inkscape:pageopacity="0"
     inkscape:pageshadow="2"
     inkscape:window-width="640"
     inkscape:window-height="480"
     id="namedview12" />
  <g
     fill="gray"
     id="g8">
    <path
       d="M4.994 0C3.736.015 2.815-.03 2.063.385a1.88 1.88 0 00-.838.998C1.06 1.822 1 2.343 1 3v10c0 .658.06 1.179.225 1.617.164.439.461.79.838.998.752.416 1.673.37 2.931.385h5.012c1.258-.014 2.179.03 2.932-.385a1.88 1.88 0 00.838-.998c.164-.438.224-.96.224-1.617V3c0-.658-.06-1.178-.225-1.617a1.88 1.88 0 00-.837-.998C12.185-.03 11.264.015 10.006 0H4.998zM5 1h5c1.259.015 2.087.06 2.453.262.184.101.29.213.387.472.097.26.16.674.16 1.266v10c0 .592-.063 1.006-.16 1.266-.098.26-.203.371-.387.472-.366.202-1.194.247-2.453.262H5c-1.258-.015-2.09-.06-2.455-.262-.183-.1-.287-.212-.385-.472C2.063 14.006 2 13.592 2 13V3c0-.592.063-1.006.16-1.266.098-.26.202-.371.385-.472C2.91 1.06 3.74 1.015 5 1z"
       style="line-height:normal;font-variant-ligatures:normal;font-variant-position:normal;font-variant-caps:normal;font-variant-numeric:normal;font-variant-alternates:normal;font-feature-settings:normal;text-indent:0;text-align:start;text-decoration-line:none;text-decoration-style:solid;text-decoration-color:#000;text-transform:none;text-orientation:mixed;shape-padding:0;isolation:auto;mix-blend-mode:normal;marker:none"
       color="#000"
       font-weight="400"
       font-family="sans-serif"
       overflow="visible"
       id="path2" />
    <path
       d="M7.795 5.012a4.487 4.487 0 00-3.033.918 4.506 4.506 0 00-1.16 5.82 4.508 4.508 0 005.62 1.908 4.51 4.51 0 002.628-5.324l-.131-.482-.967.26.13.482a3.494 3.494 0 01-2.042 4.139 3.494 3.494 0 01-4.371-1.483 3.494 3.494 0 015.12-4.547l-.644.645.707.707.676-.676h.002l.354-.355.353-.352-.353-.353a4.494 4.494 0 00-2.889-1.307z"
       style="line-height:normal;font-variant-ligatures:normal;font-variant-position:normal;font-variant-caps:normal;font-variant-numeric:normal;font-variant-alternates:normal;font-feature-settings:normal;text-indent:0;text-align:start;text-decoration-line:none;text-decoration-style:solid;text-decoration-color:#000;text-transform:none;text-orientation:mixed;shape-padding:0;isolation:auto;mix-blend-mode:normal"
       color="#000"
       font-weight="400"
       font-family="sans-serif"
       overflow="visible"
       id="path4" />
    <path
       d="M7.5 8A1.5 1.5 0 006 9.5 1.5 1.5 0 007.5 11 1.5 1.5 0 009 9.5 1.5 1.5 0 007.5 8zm0 1a.5.5 0 01.5.5.5.5 0 01-.5.5.5.5 0 01-.5-.5.5.5 0 01.5-.5z"
       id="path6" />
  </g>
</svg>
