<?xml version="1.0" encoding="UTF-8" standalone="no"?>
<svg
   xmlns:dc="http://purl.org/dc/elements/1.1/"
   xmlns:cc="http://creativecommons.org/ns#"
   xmlns:rdf="http://www.w3.org/1999/02/22-rdf-syntax-ns#"
   xmlns:svg="http://www.w3.org/2000/svg"
   xmlns="http://www.w3.org/2000/svg"
   xmlns:sodipodi="http://sodipodi.sourceforge.net/DTD/sodipodi-0.dtd"
   xmlns:inkscape="http://www.inkscape.org/namespaces/inkscape"
   height="16"
   width="16"
   version="1.1"
   id="svg4"
   sodipodi:docname="input-mouse-symbolic.svg">
  <metadata
     id="metadata10">
    <rdf:RDF>
      <cc:Work
         rdf:about="">
        <dc:format>image/svg+xml</dc:format>
        <dc:type
           rdf:resource="http://purl.org/dc/dcmitype/StillImage" />
      </cc:Work>
    </rdf:RDF>
  </metadata>
  <defs
     id="defs8" />
  <sodipodi:namedview
     pagecolor="#ffffff"
     bordercolor="#666666"
     borderopacity="1"
     objecttolerance="10"
     gridtolerance="10"
     guidetolerance="10"
     inkscape:pageopacity="0"
     inkscape:pageshadow="2"
     inkscape:window-width="640"
     inkscape:window-height="480"
     id="namedview6" />
  <path
     d="M7.44 1c-1.295 0-2.59.228-3.805.672l-.172.062-1.09 5.448c-.186.927-.37 1.883-.373 2.867-.003.985.179 1.985.613 2.889A5.455 5.455 0 004.58 15.17a5.344 5.344 0 005.719 0 5.45 5.45 0 001.965-2.232c.434-.904.616-1.904.613-2.89-.003-.983-.185-1.939-.371-2.866l-1.092-5.448-.172-.062A11.12 11.12 0 007.44 1zM7 2.022V5h1V2.027c.87.062 1.728.253 2.559.524l.966 4.828c.185.922.35 1.81.352 2.672.003.86-.157 1.711-.514 2.453a4.47 4.47 0 01-1.603 1.822A4.353 4.353 0 017.44 15a4.36 4.36 0 01-2.323-.674 4.47 4.47 0 01-1.603-1.822c-.357-.742-.517-1.593-.514-2.453.003-.862.169-1.75.354-2.672l.966-4.828c.87-.283 1.77-.478 2.68-.53z"
     style="line-height:normal;font-variant-ligatures:normal;font-variant-position:normal;font-variant-caps:normal;font-variant-numeric:normal;font-variant-alternates:normal;font-feature-settings:normal;text-indent:0;text-align:start;text-decoration-line:none;text-decoration-style:solid;text-decoration-color:#000;text-transform:none;text-orientation:mixed;shape-padding:0;isolation:auto;mix-blend-mode:normal;marker:none"
     color="#000"
     font-weight="400"
     font-family="sans-serif"
     overflow="visible"
     fill="gray"
     id="path2" />
</svg>
