<svg viewBox="0 0 16 16" xmlns="http://www.w3.org/2000/svg">
 <g fill="gray" font-family="sans-serif" font-weight="400" white-space="normal">
  <path d="M3.994 3c-1.258.015-2.179-.03-2.931.385a1.88 1.88 0 0 0-.838.998C.06 4.822 0 5.343 0 6v5c0 .658.06 1.179.225 1.617.164.439.461.79.838.998.752.416 1.673.37 2.931.385H11.006c1.258-.014 2.179.03 2.932-.385a1.88 1.88 0 0 0 .838-.998c.164-.438.224-.96.224-1.617V6c0-.658-.06-1.178-.225-1.617a1.88 1.88 0 0 0-.837-.998c-.753-.416-1.674-.37-2.932-.385H3.998zM4 4h7c1.259.015 2.087.06 2.453.262.184.101.29.213.387.472.097.26.16.674.16 1.266v5c0 .592-.063 1.006-.16 1.266-.098.26-.203.371-.387.472-.366.202-1.194.247-2.453.262H4c-1.258-.015-2.087-.06-2.453-.262-.183-.1-.29-.212-.387-.472C1.063 12.006 1 11.592 1 11V6c0-.592.063-1.006.16-1.266.098-.26.204-.371.387-.472C1.913 4.06 2.742 4.015 4 4z" overflow="visible" style="font-feature-settings:normal;font-variant-alternates:normal;font-variant-caps:normal;font-variant-ligatures:normal;font-variant-numeric:normal;font-variant-position:normal;isolation:auto;mix-blend-mode:normal;shape-padding:0;text-decoration-color:#000;text-decoration-line:none;text-decoration-style:solid;text-indent:0;text-orientation:mixed;text-transform:none"/>
  <path d="M3 6v1h1V6zm2 0v1h1V6zm2 0v1h1V6zm2 0v1h1V6zm2 0v1h1V6zM3.998 8l.004 1H5V8zM6 8v1h1V8zm2 0v1h1V8zm2 0v1h1V8zm-7 2v1h1v-1zm2 0v1h5v-1zm6 0l.012 1h.994l-.012-1z" fill-rule="evenodd" overflow="visible" style="font-feature-settings:normal;font-variant-alternates:normal;font-variant-caps:normal;font-variant-ligatures:normal;font-variant-numeric:normal;font-variant-position:normal;isolation:auto;mix-blend-mode:normal;shape-padding:0;text-decoration-color:#000;text-decoration-line:none;text-decoration-style:solid;text-indent:0;text-orientation:mixed;text-transform:none"/>
 </g>
</svg>
