<?xml version="1.0" encoding="UTF-8" standalone="no"?>
<svg
   xmlns:dc="http://purl.org/dc/elements/1.1/"
   xmlns:cc="http://creativecommons.org/ns#"
   xmlns:rdf="http://www.w3.org/1999/02/22-rdf-syntax-ns#"
   xmlns:svg="http://www.w3.org/2000/svg"
   xmlns="http://www.w3.org/2000/svg"
   xmlns:sodipodi="http://sodipodi.sourceforge.net/DTD/sodipodi-0.dtd"
   xmlns:inkscape="http://www.inkscape.org/namespaces/inkscape"
   height="16"
   width="16"
   version="1.1"
   id="svg4"
   sodipodi:docname="input-dialpad-symbolic.svg">
  <metadata
     id="metadata10">
    <rdf:RDF>
      <cc:Work
         rdf:about="">
        <dc:format>image/svg+xml</dc:format>
        <dc:type
           rdf:resource="http://purl.org/dc/dcmitype/StillImage" />
      </cc:Work>
    </rdf:RDF>
  </metadata>
  <defs
     id="defs8" />
  <sodipodi:namedview
     pagecolor="#ffffff"
     bordercolor="#666666"
     borderopacity="1"
     objecttolerance="10"
     gridtolerance="10"
     guidetolerance="10"
     inkscape:pageopacity="0"
     inkscape:pageshadow="2"
     inkscape:window-width="640"
     inkscape:window-height="480"
     id="namedview6" />
  <path
     d="M2.246 11.01c-.268.002-.472-.029-.758.084a.801.801 0 00-.39.346.93.93 0 00-.098.453v2.224a.93.93 0 00.098.453c.083.16.248.29.39.346.286.113.49.082.758.084h1.508c.268-.002.472.029.758-.084a.801.801 0 00.39-.346.93.93 0 00.098-.453v-2.224a.93.93 0 00-.098-.453.801.801 0 00-.39-.346c-.286-.113-.49-.082-.758-.084H2.248zm.004 1h1.5c.17.002.19.003.25.008v1.974c-.06.004-.08.006-.25.008h-1.5a2.88 2.88 0 01-.25-.008v-1.974c.06-.004.08-.006.25-.008zm-.004-6c-.268.002-.472-.029-.758.084a.801.801 0 00-.39.346.93.93 0 00-.098.453v2.224a.93.93 0 00.098.453c.083.16.248.29.39.346.286.113.49.082.758.084h1.508c.268-.002.472.029.758-.084a.801.801 0 00.39-.346A.93.93 0 005 9.117V6.893a.93.93 0 00-.098-.453.801.801 0 00-.39-.346c-.286-.113-.49-.082-.758-.084H2.248zm.004 1h1.5c.17.002.19.003.25.008v1.974c-.06.004-.08.006-.25.008h-1.5A2.88 2.88 0 012 8.992V7.018c.06-.004.08-.006.25-.008zm-.004-6c-.268.002-.472-.029-.758.084a.801.801 0 00-.39.346.93.93 0 00-.098.453v2.224a.93.93 0 00.098.453c.083.16.248.29.39.346.286.113.49.082.758.084h1.508c.268-.002.472.029.758-.084a.801.801 0 00.39-.346A.93.93 0 005 4.117V1.893a.93.93 0 00-.098-.453.801.801 0 00-.39-.346c-.286-.113-.49-.082-.758-.084H2.248zm.004 1h1.5c.17.002.19.003.25.008v1.974c-.06.004-.08.006-.25.008h-1.5A2.88 2.88 0 012 3.992V2.018c.06-.004.08-.006.25-.008zm4.996 9c-.268.002-.472-.029-.758.084a.801.801 0 00-.39.346.93.93 0 00-.098.453v2.224a.93.93 0 00.098.453c.083.16.248.29.39.346.286.113.49.082.758.084h1.508c.268-.002.472.029.758-.084a.801.801 0 00.39-.346.93.93 0 00.098-.453v-2.224a.93.93 0 00-.098-.453.801.801 0 00-.39-.346c-.286-.113-.49-.082-.758-.084H7.248zm.004 1h1.5c.17.002.19.003.25.008v1.974c-.06.004-.08.006-.25.008h-1.5a2.88 2.88 0 01-.25-.008v-1.974c.06-.004.08-.006.25-.008zm-.004-6c-.268.002-.472-.029-.758.084a.801.801 0 00-.39.346.93.93 0 00-.098.453v2.224a.93.93 0 00.098.453c.083.16.248.29.39.346.286.113.49.082.758.084h1.508c.268-.002.472.029.758-.084a.801.801 0 00.39-.346.93.93 0 00.098-.453V6.893a.93.93 0 00-.098-.453.801.801 0 00-.39-.346c-.286-.113-.49-.082-.758-.084H7.248zm.004 1h1.5c.17.002.19.003.25.008v1.974c-.06.004-.08.006-.25.008h-1.5A2.88 2.88 0 017 8.992V7.018c.06-.004.08-.006.25-.008zm-.004-6c-.268.002-.472-.029-.758.084a.801.801 0 00-.39.346.93.93 0 00-.098.453v2.224a.93.93 0 00.098.453c.083.16.248.29.39.346.286.113.49.082.758.084h1.508c.268-.002.472.029.758-.084a.801.801 0 00.39-.346.93.93 0 00.098-.453V1.893a.93.93 0 00-.098-.453.801.801 0 00-.39-.346c-.286-.113-.49-.082-.758-.084H7.248zm.004 1h1.5c.17.002.19.003.25.008v1.974c-.06.004-.08.006-.25.008h-1.5A2.88 2.88 0 017 3.992V2.018c.06-.004.08-.006.25-.008zm4.996 9c-.268.002-.472-.029-.758.084a.801.801 0 00-.39.346.93.93 0 00-.098.453v2.224a.93.93 0 00.098.453c.083.16.248.29.39.346.286.113.49.082.758.084h1.508c.268-.002.472.029.758-.084a.801.801 0 00.39-.346.93.93 0 00.098-.453v-2.224a.93.93 0 00-.098-.453.801.801 0 00-.39-.346c-.286-.113-.49-.082-.758-.084h-1.506zm.004 1h1.5c.17.002.19.003.25.008v1.974c-.06.004-.08.006-.25.008h-1.5a2.88 2.88 0 01-.25-.008v-1.974c.06-.004.08-.006.25-.008zm-.004-6c-.268.002-.472-.029-.758.084a.801.801 0 00-.39.346.93.93 0 00-.098.453v2.224a.93.93 0 00.098.453c.083.16.248.29.39.346.286.113.49.082.758.084h1.508c.268-.002.472.029.758-.084a.801.801 0 00.39-.346.93.93 0 00.098-.453V6.893a.93.93 0 00-.098-.453.801.801 0 00-.39-.346c-.286-.113-.49-.082-.758-.084h-1.506zm.004 1h1.5c.17.002.19.003.25.008v1.974c-.06.004-.08.006-.25.008h-1.5a2.88 2.88 0 01-.25-.008V7.018c.06-.004.08-.006.25-.008zm-.004-6c-.268.002-.472-.029-.758.084a.801.801 0 00-.39.346.93.93 0 00-.098.453v2.224a.93.93 0 00.098.453c.083.16.248.29.39.346.286.113.49.082.758.084h1.508c.268-.002.472.029.758-.084a.801.801 0 00.39-.346.93.93 0 00.098-.453V1.893a.93.93 0 00-.098-.453.801.801 0 00-.39-.346c-.286-.113-.49-.082-.758-.084h-1.506zm.004 1h1.5c.17.002.19.003.25.008v1.974c-.06.004-.08.006-.25.008h-1.5a2.88 2.88 0 01-.25-.008V2.018c.06-.004.08-.006.25-.008z"
     style="line-height:normal;font-variant-ligatures:normal;font-variant-position:normal;font-variant-caps:normal;font-variant-numeric:normal;font-variant-alternates:normal;font-feature-settings:normal;text-indent:0;text-align:start;text-decoration-line:none;text-decoration-style:solid;text-decoration-color:#000;text-transform:none;text-orientation:mixed;shape-padding:0;isolation:auto;mix-blend-mode:normal;marker:none"
     overflow="visible"
     color="#000"
     font-weight="400"
     font-family="sans-serif"
     fill="gray"
     id="path2" />
</svg>
