<svg height="16" width="16" xmlns="http://www.w3.org/2000/svg">
    <g fill="gray">
        <path d="M5 2c-.658 0-1.178.06-1.617.225a1.88 1.88 0 0 0-.998.838c-.416.752-.37 1.673-.385 2.931V11.006c.015 1.258-.03 2.179.385 2.932.207.376.56.673.998.838.438.164.96.224 1.617.224h4c.658 0 1.179-.06 1.617-.225.439-.164.789-.461.996-.837.416-.753.372-1.674.387-2.932V7.348l-1.023-1.536c-.01-1.141.028-2.043-.362-2.75a1.88 1.88 0 0 0-.998-.837C9.18 2.06 8.657 2 8 2zm0 1h3c.592 0 1.006.063 1.266.16.26.098.371.204.472.387.203.367.247 1.195.262 2.459l.002.148L11 7.652v3.342c-.015 1.264-.06 2.092-.262 2.46-.1.183-.212.288-.472.386-.26.097-.674.16-1.266.16H5c-.592 0-1.006-.063-1.266-.16-.26-.098-.371-.203-.472-.387C3.06 13.087 3.015 12.26 3 11V6c.015-1.258.06-2.087.262-2.453.1-.183.213-.29.472-.387C3.994 3.063 4.408 3 5 3z" style="line-height:normal;font-variant-ligatures:normal;font-variant-position:normal;font-variant-caps:normal;font-variant-numeric:normal;font-variant-alternates:normal;font-feature-settings:normal;text-indent:0;text-align:start;text-decoration-line:none;text-decoration-style:solid;text-decoration-color:#000;text-transform:none;text-orientation:mixed;shape-padding:0;isolation:auto;mix-blend-mode:normal;marker:none" color="#000" font-weight="400" font-family="sans-serif" white-space="normal" overflow="visible"/>
        <path d="M4 4v2h1V4zm2 0v2h1V4zm2 0v2h1V4z"/>
    </g>
</svg>
