<svg version="1.1" viewBox="0 0 16 16" xmlns="http://www.w3.org/2000/svg">
 <g fill="#808080">
  <path d="m2.6977 1c-0.83604 0.01-1.4459-0.015-1.9461 0.262-0.25012 0.138-0.44842 0.374-0.55803 0.666-0.10961 0.292-0.14567 0.64001-0.14848 1.078l-0.044473 6.9523c-2.6694e-4 0.04173-0.018455 0.04173 0.26781 0.04173h0.45028c0.62144 0 1.143-0.01 1.979 0h9.676c0.83604-0.01 1.1087 0 1.76 0h0.85376c0.0092-0.35447 0.0182-1.5398 8e-3 -2v-1-3-0.994c0-0.438-7e-3 -0.786-0.11659-1.078-0.10964-0.292-0.30694-0.528-0.55706-0.666-0.50023-0.277-1.1121-0.252-1.9481-0.262h-9.674zm0.013951 1h9.6601c0.85 0.01 1.2934 0.04 1.4698 0.137 0.0279 0.016 0.07274 0.057 0.10463 0.143 0.02292 0.06 0.05281 0.298 0.05281 0.726v4.994c0 0.428-0.02989 0.664-0.05281 0.727-0.03189 0.085-0.07673 0.125-0.10463 0.14-0.17239 0.095-0.61582 0.123-1.4698 0.133h-9.674c-0.85099-0.01-1.2934-0.038-1.4648-0.133-0.029894-0.015-0.073739-0.055-0.10563-0.14-0.045838-0.123-0.085697-0.349-0.085697-0.727v-4.994c0-0.378 0.039859-0.604 0.085697-0.726 0.031887-0.086 0.076729-0.127 0.10463-0.143 0.17737-0.098 0.61782-0.126 1.4798-0.137z" color="#000000" font-family="sans-serif" font-weight="400" overflow="visible" stroke-width=".99824" style="font-feature-settings:normal;font-variant-alternates:normal;font-variant-caps:normal;font-variant-ligatures:none;font-variant-numeric:normal;font-variant-position:normal;isolation:auto;mix-blend-mode:normal;shape-padding:0;text-decoration-color:#000000;text-decoration-line:none;text-decoration-style:solid;text-indent:0;text-transform:none" white-space="normal"/>
  <path d="m3.2015e-4 8.0128 5e-7 4c5.488e-8 0.439 0.03944 0.78417 0.14844 1.0762 0.11 0.293 0.30859 0.52606 0.55859 0.66406 0.503 0.277 1.1161 0.24977 1.9551 0.25977h9.7067c0.839-0.01 1.4531 0.01823 1.9551-0.25977 0.25966-0.14746 0.45755-0.38306 0.55859-0.66406 0.11-0.292 0.06319-0.64117 0.11719-1.0762v-4c-0.20439 0.0069-0.23414 0.00641-0.43848 0.011214-0.0817 0.0019-0.19816-0.020409-0.27988-0.020309-0.0475 9.99e-5 -0.23413 0.00903-0.28165 0.00909v4c0 0.428-0.02974 0.66356-0.05273 0.72656-0.032 0.085-0.07747 0.12367-0.10547 0.13867-0.173 0.095-0.61761 0.12477-1.4746 0.13477h-9.7048c-0.854-0.01-1.2987-0.03977-1.4707-0.13477-0.03-0.015-0.07347-0.05367-0.10547-0.13867-0.046-0.123-0.08594-0.34856-0.08594-0.72656l-2.5e-6 -4c-0.16061 0-0.34371-0.013654-0.46743-0.012754-0.34659 0.0025-0.29349 0.012754-0.53257 0.012754z" style="font-feature-settings:normal;font-variant-alternates:normal;font-variant-caps:normal;font-variant-ligatures:none;font-variant-numeric:normal;font-variant-position:normal;isolation:auto;mix-blend-mode:normal;shape-padding:0;text-decoration-color:#000000;text-decoration-line:none;text-decoration-style:solid;text-indent:0;text-transform:none"/>
  <g>
   <rect x="5" y="11" width="1" height="1" color="#000000"/>
   <rect x="7" y="11" width="1" height="1" color="#000000"/>
   <rect x="9" y="11" width="1" height="1" color="#000000"/>
   <rect x="11" y="11" width="1" height="1" color="#000000"/>
   <rect x="2" y="3" width="11" height="5" color="#000000"/>
   <rect x="3" y="11" width="1" height="1" color="#000000"/>
  </g>
 </g>
</svg>
