<?xml version="1.0" encoding="UTF-8" standalone="no"?>
<svg
   inkscape:export-ydpi="90.000000"
   inkscape:export-xdpi="90.000000"
   width="400"
   height="300"
   id="svg11300"
   sodipodi:version="0.32"
   inkscape:version="1.1.2 (76b9e6a115, 2022-02-25)"
   sodipodi:docname="start-here.svg"
   inkscape:output_extension="org.inkscape.output.svg.inkscape"
   version="1.0"
   style="display:inline;enable-background:new"
   inkscape:export-filename="/home/sam/suru-template.png"
   xmlns:inkscape="http://www.inkscape.org/namespaces/inkscape"
   xmlns:sodipodi="http://sodipodi.sourceforge.net/DTD/sodipodi-0.dtd"
   xmlns="http://www.w3.org/2000/svg"
   xmlns:svg="http://www.w3.org/2000/svg"
   xmlns:rdf="http://www.w3.org/1999/02/22-rdf-syntax-ns#"
   xmlns:cc="http://creativecommons.org/ns#"
   xmlns:dc="http://purl.org/dc/elements/1.1/">
  <title
     id="title3004">Suru Icon Theme Template</title>
  <sodipodi:namedview
     stroke="#ef2929"
     fill="#f57900"
     id="base"
     pagecolor="#ffffff"
     bordercolor="#000000"
     borderopacity="0.25490196"
     inkscape:pageopacity="0"
     inkscape:pageshadow="2"
     inkscape:zoom="1.3406061"
     inkscape:cx="317.39375"
     inkscape:cy="176.78571"
     inkscape:current-layer="layer6"
     showgrid="false"
     inkscape:grid-bbox="true"
     inkscape:document-units="px"
     inkscape:showpageshadow="false"
     inkscape:window-width="1920"
     inkscape:window-height="1043"
     inkscape:window-x="1920"
     inkscape:window-y="0"
     width="400px"
     height="300px"
     inkscape:snap-nodes="true"
     inkscape:snap-bbox="true"
     gridtolerance="10000"
     inkscape:object-nodes="true"
     inkscape:snap-grids="true"
     showguides="true"
     inkscape:guide-bbox="true"
     inkscape:window-maximized="1"
     inkscape:bbox-paths="true"
     inkscape:snap-bbox-midpoints="true"
     inkscape:snap-global="true"
     inkscape:object-paths="true"
     inkscape:snap-intersection-paths="true"
     inkscape:snap-smooth-nodes="true"
     inkscape:pagecheckerboard="false"
     showborder="false"
     inkscape:bbox-nodes="true"
     inkscape:document-rotation="0">
    <inkscape:grid
       spacingy="1"
       spacingx="1"
       id="grid5883"
       type="xygrid"
       enabled="true"
       visible="true"
       empspacing="4"
       snapvisiblegridlinesonly="true"
       originx="0"
       originy="0" />
    <inkscape:grid
       type="xygrid"
       id="grid11592"
       empspacing="2"
       visible="true"
       enabled="false"
       spacingx="0.5"
       spacingy="0.5"
       color="#ff0000"
       opacity="0.1254902"
       empcolor="#ff0000"
       empopacity="0.25098039"
       snapvisiblegridlinesonly="true"
       originx="0"
       originy="0" />
  </sodipodi:namedview>
  <defs
     id="defs3">
    <clipPath
       clipPathUnits="userSpaceOnUse"
       id="clipPath994">
      <path
         style="color:#000000;display:inline;overflow:visible;visibility:visible;fill:#cdcdcd;fill-opacity:1;fill-rule:nonzero;stroke:none;stroke-width:2;stroke-miterlimit:4;stroke-dasharray:none;stroke-opacity:1;marker:none;enable-background:accumulate"
         d="m 335.73108,62 c -8.82418,0 -9.77365,0.90635 -9.7304,9.74838 V 84 96.25162 c -0.0433,8.84203 0.90622,9.74838 9.7304,9.74838 h 16.53919 c 8.82418,0 9.7304,-0.90625 9.7304,-9.74838 V 84 71.74838 C 362.00067,62.90625 361.09445,62 352.27027,62 Z"
         id="path996"
         inkscape:connector-curvature="0"
         sodipodi:nodetypes="scccssscsss" />
    </clipPath>
    <clipPath
       clipPathUnits="userSpaceOnUse"
       id="clipPath959">
      <path
         style="color:#000000;display:inline;overflow:visible;visibility:visible;opacity:1;fill:#46a926;fill-opacity:1;fill-rule:nonzero;stroke:none;stroke-width:2;stroke-miterlimit:4;stroke-dasharray:none;stroke-opacity:1;marker:none;enable-background:accumulate"
         d="m 330.1929,133.99999 c -5.61538,0 -6.21958,0.57678 -6.19206,6.20352 v 7.79648 7.79648 c -0.0276,5.62673 0.57668,6.20351 6.19206,6.20351 h 11.615 c 5.6154,0 6.19208,-0.5767 6.19208,-6.20351 v -7.79648 -7.79648 c 0,-5.6268 -0.5767,-6.20352 -6.19208,-6.20352 z"
         id="path961"
         inkscape:connector-curvature="0"
         sodipodi:nodetypes="scccssscsss" />
    </clipPath>
    <clipPath
       clipPathUnits="userSpaceOnUse"
       id="clipPath971">
      <path
         style="color:#000000;display:inline;overflow:visible;visibility:visible;opacity:1;fill:#46a926;fill-opacity:1;fill-rule:nonzero;stroke:none;stroke-width:2;stroke-miterlimit:4;stroke-dasharray:none;stroke-opacity:1;marker:none;enable-background:accumulate"
         d="m 327.8652,189 c -4.41209,0 -4.88682,0.45318 -4.8652,4.87419 V 200 206.12581 C 322.9783,210.54682 323.45311,211 327.8652,211 h 8.2696 C 340.54689,211 341,210.54688 341,206.12581 V 200 193.87419 C 341,189.45313 340.54688,189 336.13479,189 Z"
         id="path973"
         inkscape:connector-curvature="0"
         sodipodi:nodetypes="scccssscsss" />
    </clipPath>
    <clipPath
       clipPathUnits="userSpaceOnUse"
       id="clipPath983">
      <path
         sodipodi:nodetypes="scccssscsss"
         inkscape:connector-curvature="0"
         id="path985"
         d="m 325.09646,237 c -2.80769,0 -3.10979,0.28839 -3.09603,3.10176 V 244 v 3.89824 c -0.0138,2.81337 0.28834,3.10176 3.09603,3.10176 h 5.8075 C 333.71166,251 334,250.71165 334,247.89824 V 244 240.10176 C 334,237.28836 333.71165,237 330.90396,237 Z"
         style="color:#000000;display:inline;overflow:visible;visibility:visible;opacity:1;fill:#46a926;fill-opacity:1;fill-rule:nonzero;stroke:none;stroke-width:2;stroke-miterlimit:4;stroke-dasharray:none;stroke-opacity:1;marker:none;enable-background:accumulate" />
    </clipPath>
  </defs>
  <metadata
     id="metadata4">
    <rdf:RDF>
      <cc:Work
         rdf:about="">
        <dc:format>image/svg+xml</dc:format>
        <dc:type
           rdf:resource="http://purl.org/dc/dcmitype/StillImage" />
        <dc:creator>
          <cc:Agent>
            <dc:title>Sam Hewitt</dc:title>
          </cc:Agent>
        </dc:creator>
        <dc:source />
        <cc:license
           rdf:resource="http://creativecommons.org/licenses/by-sa/4.0/" />
        <dc:title>Suru Icon Theme Template</dc:title>
        <dc:subject>
          <rdf:Bag />
        </dc:subject>
        <dc:date />
        <dc:rights>
          <cc:Agent>
            <dc:title />
          </cc:Agent>
        </dc:rights>
        <dc:publisher>
          <cc:Agent>
            <dc:title />
          </cc:Agent>
        </dc:publisher>
        <dc:identifier />
        <dc:relation />
        <dc:language />
        <dc:coverage />
        <dc:description />
        <dc:contributor>
          <cc:Agent>
            <dc:title />
          </cc:Agent>
        </dc:contributor>
      </cc:Work>
      <cc:Work
         rdf:about="">
        <dc:format>image/svg+xml</dc:format>
        <dc:type
           rdf:resource="http://purl.org/dc/dcmitype/StillImage" />
      </cc:Work>
      <cc:License
         rdf:about="http://creativecommons.org/licenses/by-sa/4.0/">
        <cc:permits
           rdf:resource="http://creativecommons.org/ns#Reproduction" />
        <cc:permits
           rdf:resource="http://creativecommons.org/ns#Distribution" />
        <cc:requires
           rdf:resource="http://creativecommons.org/ns#Notice" />
        <cc:requires
           rdf:resource="http://creativecommons.org/ns#Attribution" />
        <cc:permits
           rdf:resource="http://creativecommons.org/ns#DerivativeWorks" />
        <cc:requires
           rdf:resource="http://creativecommons.org/ns#ShareAlike" />
      </cc:License>
    </rdf:RDF>
  </metadata>
  <g
     style="display:inline"
     inkscape:groupmode="layer"
     inkscape:label="Icon"
     id="layer1">
    <g
       style="display:none;opacity:1"
       inkscape:label="Baseplate"
       id="layer7"
       inkscape:groupmode="layer"
       sodipodi:insensitive="true">
      <text
         y="-8.2548828"
         xml:space="preserve"
         x="19.006836"
         style="font-style:normal;font-variant:normal;font-weight:normal;font-stretch:normal;font-size:17.3333px;line-height:0%;font-family:'DejaVu Sans';-inkscape-font-specification:'DejaVu Sans, Normal';font-variant-ligatures:normal;font-variant-caps:normal;font-variant-numeric:normal;font-variant-east-asian:normal;display:inline;fill:#000000;fill-opacity:1;stroke:none;enable-background:new"
         inkscape:label="context"
         id="context"><tspan
           sodipodi:role="line"
           id="tspan931"
           x="19.006836"
           y="-8.2548828">places</tspan></text>
      <text
         y="-8.2548828"
         xml:space="preserve"
         x="146.48828"
         style="font-style:normal;font-variant:normal;font-weight:bold;font-stretch:normal;font-size:17.3333px;line-height:0%;font-family:'DejaVu Sans';-inkscape-font-specification:'DejaVu Sans, Bold';font-variant-ligatures:normal;font-variant-caps:normal;font-variant-numeric:normal;font-variant-east-asian:normal;text-align:start;writing-mode:lr-tb;text-anchor:start;display:inline;fill:#000000;fill-opacity:1;stroke:none;enable-background:new"
         inkscape:label="icon-name"
         id="icon-name"><tspan
           sodipodi:role="line"
           id="tspan951"
           x="146.48828"
           y="-8.2548828">start-here</tspan></text>
      <rect
         style="display:inline;overflow:visible;visibility:visible;fill:#cdcdcd;fill-opacity:1;fill-rule:nonzero;stroke:none;stroke-width:2;marker:none;enable-background:accumulate"
         id="rect16x16"
         width="16"
         height="16"
         x="320"
         y="236"
         inkscape:label="16x16"
         inkscape:export-filename="/home/stuart/yaru/icons/Suru/16x16/legacy/document-export.png"
         inkscape:export-xdpi="96"
         inkscape:export-ydpi="96" />
      <rect
         style="display:inline;overflow:visible;visibility:visible;fill:#cdcdcd;fill-opacity:1;fill-rule:nonzero;stroke:none;stroke-width:2;marker:none;enable-background:accumulate"
         id="rect24x24"
         width="24"
         height="24"
         x="320"
         y="188"
         inkscape:label="24x24"
         inkscape:export-filename="/home/stuart/yaru/icons/Suru/24x24/legacy/document-export.png"
         inkscape:export-xdpi="96"
         inkscape:export-ydpi="96" />
      <rect
         style="display:inline;overflow:visible;visibility:visible;fill:#cdcdcd;fill-opacity:1;fill-rule:nonzero;stroke:none;stroke-width:2;marker:none;enable-background:accumulate"
         id="rect32x32"
         width="32"
         height="32"
         x="320"
         y="132"
         inkscape:label="32x32"
         inkscape:export-filename="/home/stuart/yaru/icons/Suru/32x32/legacy/document-export.png"
         inkscape:export-xdpi="96"
         inkscape:export-ydpi="96" />
      <rect
         inkscape:label="48x48"
         y="60"
         x="320"
         height="48"
         width="48"
         id="rect48x48"
         style="display:inline;overflow:visible;visibility:visible;fill:#cdcdcd;fill-opacity:1;fill-rule:nonzero;stroke:none;stroke-width:2;marker:none;enable-background:accumulate"
         inkscape:export-filename="/home/stuart/yaru/icons/Suru/48x48/legacy/document-export.png"
         inkscape:export-xdpi="96"
         inkscape:export-ydpi="96" />
      <rect
         style="display:inline;overflow:visible;visibility:visible;fill:#cdcdcd;fill-opacity:1;fill-rule:nonzero;stroke:none;stroke-width:2;marker:none;enable-background:accumulate"
         id="rect3951"
         width="256"
         height="256"
         x="24"
         y="28"
         inkscape:label="48x48"
         inkscape:export-filename="/home/stuart/yaru/icons/Suru/256x256/legacy/document-export.png"
         inkscape:export-xdpi="96"
         inkscape:export-ydpi="96" />
      <rect
         style="display:inline;overflow:visible;visibility:visible;fill:#cdcdcd;fill-opacity:1;fill-rule:nonzero;stroke:none;stroke-width:1.83333;marker:none;enable-background:accumulate"
         id="rect24x24-5"
         width="22"
         height="22"
         x="364"
         y="190"
         inkscape:label="24x24"
         inkscape:export-filename="/home/stuart/yaru/icons/Suru/22x22/legacy/document-export.png"
         inkscape:export-xdpi="96"
         inkscape:export-ydpi="96" />
    </g>
    <g
       inkscape:groupmode="layer"
       id="layer2"
       inkscape:label="Background"
       style="display:inline">
      <path
         id="path3171-7-3-3-8-7-0-9-6"
         d="m 336,244.00011 c 0,4.41809 -3.58181,7.99989 -8.00005,7.99989 -4.41831,0 -7.99995,-3.58175 -7.99995,-7.99989 0,-4.41842 3.58159,-8.00011 7.99989,-8.00011 4.41825,0 8.00011,3.58169 8.00011,8.00011 z"
         inkscape:connector-curvature="0"
         style="display:inline;fill:#87a556;fill-opacity:1;stroke-width:0.111111;enable-background:new" />
      <path
         id="path3171-7-3-3-8-7-0-9-6-6"
         d="m 386,201.00015 c 0,6.07486 -4.92498,10.99985 -11.00007,10.99985 -6.07517,0 -10.99993,-4.92491 -10.99993,-10.99985 0,-6.07532 4.92468,-11.00015 10.99985,-11.00015 6.07509,0 11.00015,4.92483 11.00015,11.00015 z"
         inkscape:connector-curvature="0"
         style="fill:#87a556;fill-opacity:1;stroke-width:0.152778" />
      <path
         id="path3171-7-3-3-8-7-0-9-6-2"
         d="m 344,200.00016 c 0,6.62712 -5.3727,11.99984 -12.00008,11.99984 -6.62745,0 -11.99992,-5.37263 -11.99992,-11.99984 0,-6.62762 5.37238,-12.00016 11.99984,-12.00016 6.62737,0 12.00016,5.37254 12.00016,12.00016 z"
         inkscape:connector-curvature="0"
         style="display:inline;fill:#87a556;fill-opacity:1;stroke-width:0.166667;enable-background:new" />
      <path
         id="path1196"
         d="m 352,148.00022 c 0,8.83616 -7.16361,15.99978 -16.00011,15.99978 -8.83661,0 -15.99989,-7.16351 -15.99989,-15.99978 0,-8.83684 7.16317,-16.00022 15.99978,-16.00022 8.8365,0 16.00022,7.16338 16.00022,16.00022 z"
         inkscape:connector-curvature="0"
         style="display:inline;fill:#87a556;fill-opacity:1;stroke-width:0.333333;enable-background:new" />
      <path
         id="path3171-7-3-3-8-7-0-9-6-7"
         d="m 368,84.000322 c 0,13.254244 -10.74542,23.999678 -24.00016,23.999678 -13.25492,0 -23.99984,-10.745267 -23.99984,-23.999678 0,-13.255248 10.74476,-24.000322 23.99967,-24.000322 13.25474,0 24.00033,10.745074 24.00033,24.000322 z"
         inkscape:connector-curvature="0"
         style="display:inline;fill:#87a556;fill-opacity:1;stroke-width:0.333333;enable-background:new" />
      <path
         id="path3171-7-3-3-8-7-0-9-6-8"
         d="m 264,156.00147 c 0,61.85314 -50.14528,111.99849 -112.00075,111.99849 -61.856261,0 -111.999253,-50.14457 -111.999253,-111.99849 0,-61.857826 50.142215,-112.001509 111.998483,-112.001509 61.85547,0 112.00152,50.143683 112.00152,112.001509 z"
         inkscape:connector-curvature="0"
         style="fill:#87a556;fill-opacity:1;stroke-width:0.444444" />
    </g>
    <g
       inkscape:groupmode="layer"
       id="layer6"
       inkscape:label="Pictogram"
       style="display:inline">
      <path
         id="path1663"
         style="opacity:0.8;fill:#ffffff;stroke-width:2;stroke-linecap:round;stroke-linejoin:round"
         d="m 327.94922,241 a 3,3 0 0 0 -2.94922,3 3,3 0 0 0 3,3 3,3 0 0 0 3,-3 3,3 0 0 0 -3,-3 3,3 0 0 0 -0.0508,0 z m 0.002,1 a 2,2 0 0 1 0.0488,0 2,2 0 0 1 2,2 2,2 0 0 1 -2,2 2,2 0 0 1 -2,-2 2,2 0 0 1 1.95117,-2 z" />
      <path
         id="path1672"
         style="opacity:0.8;fill:#ffffff;fill-opacity:1;stroke-width:2;stroke-linecap:round;stroke-linejoin:round"
         d="m 328,239 a 5,5 0 0 0 -5,5 5,5 0 0 0 5,5 5,5 0 0 0 5,-5 5,5 0 0 0 -5,-5 z m -0.0605,1 a 4,4 0 0 1 0.0605,0 4,4 0 0 1 4,4 4,4 0 0 1 -4,4 4,4 0 0 1 -4,-4 4,4 0 0 1 3.93945,-4 z" />
      <g
         id="g1694"
         transform="translate(320,-656.36218)">
        <path
           style="color:#000000;font-style:normal;font-variant:normal;font-weight:normal;font-stretch:normal;font-size:medium;line-height:normal;font-family:sans-serif;font-variant-ligatures:normal;font-variant-position:normal;font-variant-caps:normal;font-variant-numeric:normal;font-variant-alternates:normal;font-variant-east-asian:normal;font-feature-settings:normal;font-variation-settings:normal;text-indent:0;text-align:start;text-decoration:none;text-decoration-line:none;text-decoration-style:solid;text-decoration-color:#000000;letter-spacing:normal;word-spacing:normal;text-transform:none;writing-mode:lr-tb;direction:ltr;text-orientation:mixed;dominant-baseline:auto;baseline-shift:baseline;text-anchor:start;white-space:normal;shape-padding:0;shape-margin:0;inline-size:0;clip-rule:nonzero;display:inline;overflow:visible;visibility:visible;isolation:auto;mix-blend-mode:normal;color-interpolation:sRGB;color-interpolation-filters:linearRGB;solid-color:#000000;solid-opacity:1;vector-effect:none;fill:#87a556;fill-opacity:1;fill-rule:evenodd;stroke:none;stroke-width:2;stroke-linecap:butt;stroke-linejoin:miter;stroke-miterlimit:4;stroke-dasharray:none;stroke-dashoffset:0;stroke-opacity:1;color-rendering:auto;image-rendering:auto;shape-rendering:auto;text-rendering:auto;enable-background:new;stop-color:#000000;stop-opacity:1"
           d="m 9,894.36218 v 4 l 3,-2 z m -6,4 v 4 l 3,-2 z m 6,4 v 4 l 3,-2 z"
           id="path1696" />
        <path
           style="color:#000000;font-style:normal;font-variant:normal;font-weight:normal;font-stretch:normal;font-size:medium;line-height:normal;font-family:sans-serif;font-variant-ligatures:normal;font-variant-position:normal;font-variant-caps:normal;font-variant-numeric:normal;font-variant-alternates:normal;font-variant-east-asian:normal;font-feature-settings:normal;font-variation-settings:normal;text-indent:0;text-align:start;text-decoration:none;text-decoration-line:none;text-decoration-style:solid;text-decoration-color:#000000;letter-spacing:normal;word-spacing:normal;text-transform:none;writing-mode:lr-tb;direction:ltr;text-orientation:mixed;dominant-baseline:auto;baseline-shift:baseline;text-anchor:start;white-space:normal;shape-padding:0;shape-margin:0;inline-size:0;clip-rule:nonzero;display:inline;overflow:visible;visibility:visible;isolation:auto;mix-blend-mode:normal;color-interpolation:sRGB;color-interpolation-filters:linearRGB;solid-color:#000000;solid-opacity:1;vector-effect:none;fill:#87a556;fill-opacity:1;fill-rule:evenodd;stroke:none;stroke-width:2;stroke-linecap:butt;stroke-linejoin:miter;stroke-miterlimit:4;stroke-dasharray:none;stroke-dashoffset:0;stroke-opacity:1;color-rendering:auto;image-rendering:auto;shape-rendering:auto;text-rendering:auto;enable-background:new;stop-color:#000000;stop-opacity:1"
           d="m 8,892.49414 v 1.86719 5.86914 l 5.802734,-3.86914 z m -6,3.20044 v 1.86719 7.46841 l 5.8027344,-4.66885 z m 6,4.79956 v 1.86719 5.86914 l 5.802734,-3.86914 z m 2,3.73633 0.197266,0.13086 -0.197266,0.13086 z"
           id="path1698"
           sodipodi:nodetypes="ccccccccccccccccccc" />
      </g>
      <path
         id="path5227"
         d="m 329,238 v 4 l 3,-2 z m -6,4 v 4 l 3,-2 z m 6,4 v 4 l 3,-2 z"
         style="display:inline;fill:#ffffff;fill-opacity:1;fill-rule:evenodd;stroke:none;stroke-width:0.0972222;enable-background:new"
         sodipodi:nodetypes="cccccccccccc" />
      <path
         id="path9-4"
         d="m 332,192.66146 c -3.02182,0 -5.6221,1.84115 -6.74479,4.45833 l 0.86459,0.51042 c 0.93512,-2.32476 3.21468,-3.95833 5.8802,-3.95833 0.34288,0 0.678,0.0304 1.00521,0.0833 v -1.02083 c -0.32903,-0.0457 -0.66333,-0.0729 -1.00521,-0.0729 z m 3.00521,0.64583 -0.005,1.1198 c 0.16664,0.0895 0.32717,0.18811 0.48438,0.29166 l 0.94792,-0.55729 c -0.44047,-0.33529 -0.91703,-0.62411 -1.42709,-0.85417 z m -3.00521,1.84896 c -2.10486,0 -3.90504,1.35928 -4.5677,3.24479 l 0.89583,0.53125 c 0.45987,-1.5972 1.92136,-2.76041 3.67187,-2.76041 0.34612,0 0.68117,0.045 1,0.13021 v -1.03646 c -0.32307,-0.0686 -0.65767,-0.10938 -1,-0.10938 z m 5.88542,0.46354 -0.86979,0.51563 c 0.82248,1.06763 1.3125,2.40804 1.3125,3.86458 0,1.48442 -0.50829,2.84447 -1.35938,3.92188 l 0.8698,0.51562 c 0.93897,-1.23332 1.5,-2.7729 1.5,-4.4375 0,-1.63905 -0.54036,-3.15649 -1.45313,-4.38021 z m -2.17187,1.28646 -0.88021,0.51563 c 0.618,0.67959 0.99479,1.58194 0.99479,2.57812 0,1.0253 -0.40105,1.94649 -1.05208,2.63021 l 0.89062,0.52604 c 0.7318,-0.84937 1.17708,-1.95475 1.17708,-3.15625 0,-1.17495 -0.42698,-2.25263 -1.1302,-3.09375 z m -10.9948,2.21354 c -0.0362,0.28831 -0.0573,0.58182 -0.0573,0.88021 0,0.2972 0.0226,0.58759 0.0573,0.875 l 0.96355,-0.56771 c -0.005,-0.10171 -0.0104,-0.20419 -0.0104,-0.30729 0,-0.1031 0.006,-0.20558 0.0104,-0.30729 z m 3.60938,1.94792 -0.89583,0.52604 c 0.66126,1.88781 2.46122,3.25 4.5677,3.25 0.34233,0 0.67693,-0.0408 1,-0.10937 v -1.04167 c -0.31891,0.0837 -0.65381,0.13021 -1,0.13021 -1.75051,0 -3.212,-1.15927 -3.67187,-2.75521 z m -2.20833,1.30208 -0.86459,0.51042 c 1.12269,2.61718 3.72297,4.45833 6.74479,4.45833 0.33779,0 0.6697,-0.0277 0.9948,-0.0729 v -1.01563 c -0.32436,0.0512 -0.65525,0.0781 -0.9948,0.0781 -2.66552,0 -4.94508,-1.63358 -5.8802,-3.95834 z m 9.29687,2.95834 c -0.13438,0.0863 -0.27555,0.16868 -0.41667,0.24479 l -0.005,1.11979 c 0.48629,-0.21925 0.94634,-0.48674 1.36979,-0.80208 z"
         style="color:#000000;font-style:normal;font-variant:normal;font-weight:normal;font-stretch:normal;font-size:medium;line-height:normal;font-family:Sans;-inkscape-font-specification:Sans;text-indent:0;text-align:start;text-decoration:none;text-decoration-line:none;letter-spacing:normal;word-spacing:normal;text-transform:none;writing-mode:lr-tb;direction:ltr;baseline-shift:baseline;text-anchor:start;display:inline;overflow:visible;visibility:visible;fill:#ffffff;fill-opacity:1;stroke:none;stroke-width:0.195122;marker:none;enable-background:accumulate" />
      <path
         id="path5227-7"
         d="m 334.00521,191.24479 -0.005,5.51042 4.66667,-2.75521 z m -10.5,6 -0.005,5.51042 4.66667,-2.75521 z m 10.49479,6.08854 -0.005,5.50521 4.66666,-2.75521 z"
         style="display:inline;fill:#ffffff;fill-opacity:1;fill-rule:evenodd;stroke:none;stroke-width:0.166667;enable-background:new" />
      <path
         id="path9"
         d="m 375,194.27301 c -2.77,0 -5.15359,1.68772 -6.18272,4.0868 l 0.79253,0.46788 c 0.8572,-2.13103 2.94679,-3.62847 5.39019,-3.62847 0.31431,0 0.6215,0.0279 0.92144,0.0764 v -0.93576 c -0.30161,-0.0419 -0.60805,-0.0668 -0.92144,-0.0668 z m 2.75478,0.59201 -0.005,1.02647 c 0.15275,0.0821 0.29991,0.17244 0.44401,0.26737 l 0.86893,-0.51086 c -0.40376,-0.30735 -0.84061,-0.57209 -1.30816,-0.78298 z m -2.75478,1.69488 c -1.92945,0 -3.57962,1.24601 -4.18706,2.97439 l 0.82118,0.48698 c 0.42155,-1.4641 1.76124,-2.53038 3.36588,-2.53038 0.31728,0 0.62441,0.0412 0.91667,0.11935 v -0.95008 c -0.29615,-0.0629 -0.60287,-0.10026 -0.91667,-0.10026 z m 5.39497,0.42491 -0.79731,0.47266 c 0.75394,0.97866 1.20312,2.20737 1.20312,3.54253 0,1.36072 -0.46593,2.60743 -1.24609,3.59505 l 0.79731,0.47266 c 0.86073,-1.13055 1.375,-2.54183 1.375,-4.06771 0,-1.50246 -0.49533,-2.89345 -1.33203,-4.01519 z m -1.99089,1.17925 -0.80686,0.47266 c 0.56651,0.62296 0.9119,1.45011 0.9119,2.36328 0,0.93986 -0.36763,1.78429 -0.96441,2.41102 l 0.8164,0.48221 c 0.67082,-0.77859 1.079,-1.79185 1.079,-2.89323 0,-1.07704 -0.39141,-2.06492 -1.03603,-2.83594 z m -10.07856,2.02908 c -0.0332,0.26428 -0.0525,0.53333 -0.0525,0.80686 0,0.27244 0.0207,0.53862 0.0525,0.80208 l 0.88325,-0.5204 c -0.005,-0.0932 -0.01,-0.18717 -0.01,-0.28168 0,-0.0945 0.005,-0.18845 0.01,-0.28168 z m 3.3086,1.78559 -0.82118,0.48221 c 0.60616,1.73049 2.25612,2.97916 4.18706,2.97916 0.3138,0 0.62052,-0.0374 0.91667,-0.10026 v -0.95486 c -0.29234,0.0768 -0.59933,0.11936 -0.91667,0.11936 -1.60464,0 -2.94433,-1.06266 -3.36588,-2.52561 z m -2.02431,1.19358 -0.79253,0.46788 c 1.02913,2.39908 3.41272,4.08681 6.18272,4.08681 0.30964,0 0.61389,-0.0254 0.91189,-0.0668 v -0.93099 c -0.29732,0.0469 -0.60063,0.0716 -0.91189,0.0716 -2.4434,0 -4.53299,-1.49744 -5.39019,-3.62847 z m 8.52214,2.7118 c -0.12318,0.0791 -0.25259,0.15463 -0.38195,0.2244 l -0.005,1.02647 c 0.44577,-0.20098 0.86748,-0.44618 1.25564,-0.73524 z"
         style="color:#000000;font-style:normal;font-variant:normal;font-weight:normal;font-stretch:normal;font-size:medium;line-height:normal;font-family:Sans;-inkscape-font-specification:Sans;text-indent:0;text-align:start;text-decoration:none;text-decoration-line:none;letter-spacing:normal;word-spacing:normal;text-transform:none;writing-mode:lr-tb;direction:ltr;baseline-shift:baseline;text-anchor:start;display:inline;overflow:visible;visibility:visible;fill:#ffffff;fill-opacity:1;stroke:none;stroke-width:0.178862;marker:none;enable-background:accumulate" />
      <path
         id="path5227-9"
         d="m 376.83811,192.97439 -0.005,5.05122 4.27777,-2.52561 z m -9.625,5.5 -0.005,5.05122 4.27777,-2.52561 z m 9.62023,5.58117 -0.005,5.04644 4.27778,-2.52561 z"
         style="display:inline;fill:#ffffff;fill-opacity:1;fill-rule:evenodd;stroke:none;stroke-width:0.152778;enable-background:new" />
      <path
         id="path9-5"
         d="m 344,69.322914 c -6.04365,0 -11.24421,3.682304 -13.48959,8.916665 l 1.72917,1.020833 c 1.87024,-4.649518 6.42937,-7.916665 11.76042,-7.916665 0.68575,0 1.35599,0.06081 2.01041,0.166667 v -2.041667 c -0.65806,-0.09134 -1.32666,-0.145833 -2.01041,-0.145833 z m 6.01041,1.291666 -0.0104,2.239583 c 0.33326,0.179009 0.65433,0.376225 0.96875,0.583334 l 1.89583,-1.114584 c -0.88093,-0.670587 -1.83405,-1.248215 -2.85417,-1.708333 z m -6.01041,3.697916 c -4.20973,0 -7.81009,2.718566 -9.13542,6.489583 l 1.79167,1.062499 c 0.91974,-3.1944 3.84272,-5.520832 7.34375,-5.520832 0.69224,0 1.36234,0.08994 2,0.260417 v -2.072917 c -0.64614,-0.13725 -1.31536,-0.21875 -2,-0.21875 z m 11.77083,0.927084 -1.73958,1.031249 c 1.64495,2.135273 2.625,4.816085 2.625,7.729166 0,2.968837 -1.01658,5.688946 -2.71875,7.843748 l 1.73958,1.03125 c 1.87795,-2.466646 3,-5.54581 3,-8.874998 0,-3.278102 -1.08072,-6.312988 -2.90625,-8.760415 z m -4.34375,2.572916 -1.76042,1.03125 c 1.23602,1.359178 1.98959,3.163882 1.98959,5.156249 0,2.050601 -0.80211,3.892986 -2.10417,5.260415 l 1.78125,1.052083 c 1.4636,-1.698742 2.35417,-3.909499 2.35417,-6.312498 0,-2.349912 -0.85398,-4.505271 -2.26042,-6.187499 z m -21.98958,4.427082 c -0.0724,0.576612 -0.11459,1.163628 -0.11459,1.760417 0,0.594401 0.0451,1.175174 0.11459,1.749999 l 1.92708,-1.135416 c -0.01,-0.203428 -0.0208,-0.408381 -0.0208,-0.614583 0,-0.206202 0.011,-0.411156 0.0208,-0.614584 z m 7.21875,3.895833 -1.79167,1.052083 c 1.32253,3.775613 4.92244,6.499999 9.13542,6.499999 0.68464,0 1.35386,-0.0815 2,-0.21875 v -2.083333 c -0.63783,0.167503 -1.30763,0.260416 -2,0.260416 -3.50103,0 -6.42401,-2.318535 -7.34375,-5.510415 z m -4.41667,2.604166 -1.72917,1.020833 c 2.24538,5.234363 7.44594,8.916665 13.48959,8.916665 0.67556,0 1.3394,-0.0554 1.98958,-0.145833 v -2.03125 c -0.64871,0.10237 -1.31048,0.15625 -1.98958,0.15625 -5.33105,0 -9.89018,-3.267149 -11.76042,-7.916665 z m 18.59375,5.916666 c -0.26876,0.172506 -0.55111,0.33736 -0.83333,0.489583 l -0.0104,2.239583 c 0.97259,-0.4385 1.89269,-0.973487 2.73958,-1.604167 z"
         style="color:#000000;font-style:normal;font-variant:normal;font-weight:normal;font-stretch:normal;font-size:medium;line-height:normal;font-family:Sans;-inkscape-font-specification:Sans;text-indent:0;text-align:start;text-decoration:none;text-decoration-line:none;letter-spacing:normal;word-spacing:normal;text-transform:none;writing-mode:lr-tb;direction:ltr;baseline-shift:baseline;text-anchor:start;display:inline;overflow:visible;visibility:visible;fill:#ffffff;fill-opacity:1;stroke:none;stroke-width:0.390243;marker:none;enable-background:accumulate" />
      <path
         id="path5227-4"
         d="m 348.01041,66.489581 -0.0104,11.020831 9.33333,-5.510415 z m -21,11.999998 -0.0104,11.020831 9.33333,-5.510415 z m 20.98959,12.177081 -0.0104,11.01041 9.33333,-5.510411 z"
         style="display:inline;fill:#ffffff;fill-opacity:1;fill-rule:evenodd;stroke:none;stroke-width:0.333333;enable-background:new" />
      <path
         id="path1198"
         d="m 336,138.21527 c -4.0291,0 -7.49614,2.45487 -8.99306,5.94445 l 1.15278,0.68055 c 1.24683,-3.09968 4.28625,-5.27777 7.84028,-5.27777 0.45717,0 0.90399,0.0405 1.34028,0.11111 v -1.36111 c -0.43871,-0.0609 -0.88445,-0.0972 -1.34028,-0.0972 z m 4.00694,0.86112 -0.007,1.49305 c 0.22218,0.11934 0.43622,0.25082 0.64583,0.38889 l 1.26389,-0.74306 c -0.58729,-0.44705 -1.2227,-0.83214 -1.90278,-1.13888 z m -4.00694,2.46527 c -2.80648,0 -5.20672,1.81238 -6.09028,4.32639 l 1.19444,0.70833 c 0.61317,-2.1296 2.56182,-3.68055 4.89584,-3.68055 0.46149,0 0.90822,0.06 1.33333,0.17361 v -1.38194 c -0.43076,-0.0915 -0.8769,-0.14584 -1.33333,-0.14584 z m 7.84722,0.61806 -1.15972,0.6875 c 1.09664,1.42351 1.75,3.21072 1.75,5.15278 0,1.97922 -0.67772,3.79263 -1.8125,5.22916 l 1.15972,0.6875 c 1.25197,-1.64443 2,-3.69721 2,-5.91666 0,-2.18541 -0.72048,-4.20866 -1.9375,-5.84028 z m -2.89583,1.71528 -1.17361,0.6875 c 0.82401,0.90611 1.32639,2.10925 1.32639,3.4375 0,1.36706 -0.53474,2.59532 -1.40278,3.50694 l 1.1875,0.70139 c 0.97573,-1.1325 1.56944,-2.60633 1.56944,-4.20833 0,-1.56661 -0.56931,-3.00352 -1.50694,-4.125 z m -14.65973,2.95138 c -0.0483,0.38441 -0.0764,0.77576 -0.0764,1.17362 0,0.39626 0.0301,0.78344 0.0764,1.16666 l 1.28473,-0.75694 c -0.007,-0.13562 -0.0139,-0.27226 -0.0139,-0.40972 0,-0.13747 0.007,-0.27411 0.0139,-0.40973 z m 4.8125,2.59723 -1.19444,0.70138 c 0.88169,2.51708 3.28163,4.33334 6.09028,4.33334 0.45643,0 0.90257,-0.0543 1.33333,-0.14584 v -1.38888 c -0.42522,0.11166 -0.87175,0.17361 -1.33333,0.17361 -2.33402,0 -4.28267,-1.54569 -4.89584,-3.67361 z m -2.94444,1.73611 -1.15278,0.68055 c 1.49692,3.48958 4.96396,5.94445 8.99306,5.94445 0.45038,0 0.89293,-0.0369 1.32639,-0.0972 v -1.35416 c -0.43248,0.0682 -0.87366,0.10416 -1.32639,0.10416 -3.55403,0 -6.59345,-2.1781 -7.84028,-5.27777 z m 12.39583,3.94444 c -0.17917,0.11501 -0.3674,0.22491 -0.55555,0.32639 l -0.007,1.49306 c 0.6484,-0.29234 1.2618,-0.649 1.82639,-1.06945 z"
         style="color:#000000;font-style:normal;font-variant:normal;font-weight:normal;font-stretch:normal;font-size:medium;line-height:normal;font-family:Sans;-inkscape-font-specification:Sans;text-indent:0;text-align:start;text-decoration:none;text-decoration-line:none;letter-spacing:normal;word-spacing:normal;text-transform:none;writing-mode:lr-tb;direction:ltr;baseline-shift:baseline;text-anchor:start;display:inline;overflow:visible;visibility:visible;fill:#ffffff;fill-opacity:1;stroke:none;stroke-width:0.390242;marker:none;enable-background:accumulate" />
      <path
         id="path1200"
         d="m 338.67361,136.32639 -0.007,7.34722 6.22222,-3.67361 z m -14,7.99999 -0.007,7.34723 6.22223,-3.67361 z m 13.99306,8.11806 -0.007,7.34028 6.22222,-3.67361 z"
         style="display:inline;fill:#ffffff;fill-opacity:1;fill-rule:evenodd;stroke:none;stroke-width:0.333333;enable-background:new" />
      <path
         id="path9-1"
         d="m 152,87.506899 c -28.2037,0 -52.472957,17.184091 -62.951391,41.611101 l 8.069445,4.76389 c 8.727796,-21.69775 30.003716,-36.944437 54.881946,-36.944437 3.20018,0 6.32795,0.283773 9.38194,0.777777 v -9.527776 c -3.07094,-0.426245 -6.19109,-0.680555 -9.38194,-0.680555 z m 28.04861,6.027776 -0.0486,10.451385 c 1.55524,0.83537 3.05358,1.75572 4.52083,2.72222 l 8.84723,-5.20138 c -4.11101,-3.129412 -8.55892,-5.825011 -13.31945,-7.972225 z m -28.04861,17.256945 c -19.64538,0 -36.44705,12.68664 -42.63195,30.28471 l 8.36112,4.95834 c 4.29215,-14.90721 17.9327,-25.76389 34.27083,-25.76389 3.23046,0 6.35758,0.41972 9.33333,1.21528 v -9.67361 c -3.01532,-0.6405 -6.13832,-1.02083 -9.33333,-1.02083 z m 54.93056,4.32639 -8.11806,4.81249 c 7.67647,9.96461 12.25,22.47507 12.25,36.06944 0,13.85458 -4.74401,26.54842 -12.6875,36.60416 l 8.11806,4.8125 c 8.76378,-11.51101 14,-25.88044 14,-41.41666 0,-15.29781 -5.04336,-29.46061 -13.5625,-40.88193 z m -20.27084,12.00694 -8.21527,4.8125 c 5.76806,6.34283 9.28472,14.76478 9.28472,24.06249 0,9.56948 -3.74315,18.16727 -9.81945,24.54861 l 8.3125,4.90972 c 6.83014,-7.92746 10.98611,-18.24433 10.98611,-29.45833 0,-10.96625 -3.9852,-21.02459 -10.54861,-28.87499 z m -102.618055,20.65972 c -0.337842,2.69085 -0.534723,5.43026 -0.534723,8.21527 0,2.77388 0.210458,5.48415 0.534723,8.16667 l 8.993056,-5.29861 c -0.04578,-0.94933 -0.09722,-1.90578 -0.09722,-2.86806 0,-0.96227 0.05144,-1.91872 0.09722,-2.86805 z m 33.687505,18.18055 -8.36112,4.90972 c 6.17183,17.61953 22.97141,30.33333 42.63195,30.33333 3.19501,0 6.31801,-0.38033 9.33333,-1.02083 v -9.72222 c -2.97654,0.78168 -6.10226,1.21527 -9.33333,1.21527 -16.33813,0 -29.97868,-10.81983 -34.27083,-25.71527 z m -20.611116,12.15277 -8.069445,4.76389 c 10.478434,24.42703 34.747691,41.61111 62.951391,41.61111 3.15265,0 6.25054,-0.25855 9.28472,-0.68056 v -9.47916 c -3.02733,0.47772 -6.11558,0.72916 -9.28472,0.72916 -24.87823,0 -46.15415,-15.24669 -54.881946,-36.94444 z m 86.770836,27.61111 c -1.25421,0.80503 -2.57183,1.57435 -3.88889,2.28472 l -0.0486,10.45139 c 4.53874,-2.04633 8.83255,-4.54294 12.78472,-7.48611 z"
         style="color:#000000;font-style:normal;font-variant:normal;font-weight:normal;font-stretch:normal;font-size:medium;line-height:normal;font-family:Sans;-inkscape-font-specification:Sans;text-indent:0;text-align:start;text-decoration:none;text-decoration-line:none;letter-spacing:normal;word-spacing:normal;text-transform:none;writing-mode:lr-tb;direction:ltr;baseline-shift:baseline;text-anchor:start;display:inline;overflow:visible;visibility:visible;fill:#ffffff;fill-opacity:1;stroke:none;stroke-width:0.520324;marker:none;enable-background:accumulate" />
      <path
         id="path5227-2"
         d="m 170.71528,74.284679 -0.0486,51.430551 43.55555,-25.715278 z m -98.000004,55.999991 -0.04861,51.43055 43.555554,-25.71528 z m 97.951394,56.82638 -0.0486,51.38194 43.55555,-25.71528 z"
         style="display:inline;fill:#ffffff;fill-opacity:1;fill-rule:evenodd;stroke:none;stroke-width:0.444444;enable-background:new" />
    </g>
  </g>
</svg>
