<?xml version="1.0" encoding="UTF-8" standalone="no"?>
<svg
   xmlns:dc="http://purl.org/dc/elements/1.1/"
   xmlns:cc="http://creativecommons.org/ns#"
   xmlns:rdf="http://www.w3.org/1999/02/22-rdf-syntax-ns#"
   xmlns:svg="http://www.w3.org/2000/svg"
   xmlns="http://www.w3.org/2000/svg"
   xmlns:sodipodi="http://sodipodi.sourceforge.net/DTD/sodipodi-0.dtd"
   xmlns:inkscape="http://www.inkscape.org/namespaces/inkscape"
   version="1.1"
   viewBox="0 0 16 16"
   id="svg10"
   sodipodi:docname="gpm-primary-charged.svg"
   inkscape:version="1.0.2 (e86c870879, 2021-01-15)">
  <metadata
     id="metadata16">
    <rdf:RDF>
      <cc:Work
         rdf:about="">
        <dc:format>image/svg+xml</dc:format>
        <dc:type
           rdf:resource="http://purl.org/dc/dcmitype/StillImage" />
      </cc:Work>
    </rdf:RDF>
  </metadata>
  <defs
     id="defs14" />
  <sodipodi:namedview
     pagecolor="#ffffff"
     bordercolor="#666666"
     borderopacity="1"
     objecttolerance="10"
     gridtolerance="10"
     guidetolerance="10"
     inkscape:pageopacity="0"
     inkscape:pageshadow="2"
     inkscape:window-width="1366"
     inkscape:window-height="744"
     id="namedview12"
     showgrid="false"
     inkscape:zoom="37.25"
     inkscape:cx="8"
     inkscape:cy="8"
     inkscape:window-x="0"
     inkscape:window-y="24"
     inkscape:window-maximized="1"
     inkscape:current-layer="svg10" />
  <g
     transform="translate(-1053.5 46.996)"
     fill="#F9F9F9"
     label="status"
     id="g8">
    <path
       d="m 1061.5,-34 v -10 h 5 v 10 z"
       color="#000000"
       id="path2" />
    <path
       d="m 1059.5,-34.662 c 0.01,0.8388 -0.015,1.4513 0.2617,1.9531 0.1385,0.2509 0.3736,0.4508 0.666,0.5606 0.2925,0.1097 0.6398,0.1484 1.0782,0.1484 h 4.9941 c 0.4384,0 0.7857,-0.039 1.0781,-0.1484 0.2925,-0.1098 0.5256,-0.3097 0.6641,-0.5606 0.2769,-0.5018 0.2481,-1.1143 0.2578,-1.9531 v -8.7031 c -0.01,-0.8388 0.019,-1.4533 -0.2578,-1.9551 -0.1385,-0.2509 -0.3716,-0.4488 -0.6641,-0.5586 -0.2924,-0.1097 -0.6397,-0.1172 -1.0781,-0.1172 h -1 v -1 h -3 v 1 h -0.9941 c -0.4384,0 -0.7857,0.01 -1.0782,0.1172 -0.2924,0.1098 -0.5275,0.3077 -0.666,0.5586 -0.2769,0.5018 -0.252,1.1163 -0.2617,1.9551 z m 1,-0.014 v -8.6914 c 0.01,-0.8528 0.039,-1.2977 0.1367,-1.4746 0.016,-0.029 0.057,-0.073 0.1426,-0.1055 0.061,-0.023 0.2988,-0.053 0.7266,-0.053 h 4.9941 c 0.4274,0 0.6642,0.029 0.7266,0.053 0.086,0.032 0.1247,0.077 0.1406,0.1055 0.095,0.1724 0.1223,0.6176 0.1328,1.4746 v 8.6934 0.012 c -0.01,0.8543 -0.038,1.2983 -0.1328,1.4707 -0.016,0.029 -0.055,0.073 -0.1406,0.1054 -0.1229,0.046 -0.3484,0.086 -0.7266,0.086 h -4.9941 c -0.3782,0 -0.6039,-0.04 -0.7266,-0.086 -0.086,-0.032 -0.1268,-0.077 -0.1426,-0.1054 -0.098,-0.1779 -0.1264,-0.6201 -0.1367,-1.4844 z"
       color="#000000"
       color-rendering="auto"
       image-rendering="auto"
       shape-rendering="auto"
       solid-color="#000000"
       style="font-variant-ligatures:none;font-variant-position:normal;font-variant-caps:normal;font-variant-numeric:normal;font-variant-alternates:normal;font-feature-settings:normal;text-indent:0;text-decoration:none;text-decoration-line:none;text-decoration-style:solid;text-decoration-color:#000000;text-transform:none;white-space:normal;shape-padding:0;isolation:auto;mix-blend-mode:normal"
       id="path4" />
    <path
       d="m1055-33 2.4996-5.9995-1.4996-5e-4 -4e-4 -4.9995-2.4996 5.9995h1.5z"
       enable-background="new"
       opacity=".25"
       id="path6" />
  </g>
</svg>
