<svg viewBox="0 0 16 16" xmlns="http://www.w3.org/2000/svg"><g fill="#F9F9F9" color="#000"><path d="M5 13V7h6v6z"/><path d="M976-54.662c.01.839-.015 1.451.262 1.953.138.251.373.45.666.56s.64.15 1.078.15H984c.438 0 .786-.04 1.078-.15a1.25 1.25 0 0 0 .664-.56c.277-.502.248-1.114.258-1.953v-8.707c-.01-.839.019-1.453-.258-1.955a1.25 1.25 0 0 0-.664-.559c-.292-.11-.64-.117-1.078-.117h-1v-1h-4v1h-.994c-.439 0-.786.007-1.078.117-.293.11-.528.308-.666.559-.277.502-.252 1.116-.262 1.955v8.705zm1-.014v-8.691c.01-.853.04-1.298.137-1.475a.266.266 0 0 1 .142-.105c.062-.023.3-.053.727-.053H984c.427 0 .664.03.727.053a.259.259 0 0 1 .14.105c.095.173.123.618.133 1.475v8.705c-.01.854-.038 1.298-.133 1.47-.016.03-.055.074-.14.106-.123.046-.349.086-.727.086h-5.994c-.378 0-.604-.04-.727-.086a.266.266 0 0 1-.142-.105c-.098-.178-.127-.62-.137-1.485z" style="font-feature-settings:normal;font-variant-alternates:normal;font-variant-caps:normal;font-variant-ligatures:none;font-variant-numeric:normal;font-variant-position:normal;isolation:auto;mix-blend-mode:normal;shape-padding:0;text-decoration-color:#000;text-decoration-line:none;text-decoration-style:solid;text-indent:0;text-transform:none;white-space:normal" transform="translate(-973 67)"/></g></svg>