<svg version="1.0" viewBox="0 0 16 16" xmlns="http://www.w3.org/2000/svg">
 <path d="m8.049 0a5.725 5.725 0 0 1 1.1 5.096 5.729 5.729 0 0 1-7.016 4.05 5.728 5.728 0 0 1-2.133-1.099 6.507 6.507 0 0 0 4.56 4.484c0.089 0.024 0.177 0.037 0.265 0.057 0.067-0.337 0.188-0.655 0.35-0.947-0.119-0.024-0.237-0.043-0.354-0.075a5.506 5.506 0 0 1-2.395-1.365c3.399 0.611 6.78-1.452 7.69-4.845v-2e-3a6.708 6.708 0 0 0 0.1-2.897 5.472 5.472 0 0 1 1.527 4.127 5.56 5.56 0 0 1-0.18 1.09c-0.01 0.036-0.023 0.07-0.033 0.105 0.343 0.022 0.673 0.083 0.99 0.18 0-9e-3 0.01-0.018 0.01-0.027a6.507 6.507 0 0 0-4.48-7.932zm3.203 8.754a3.5 3.5 0 0 0-3.16 2.006 2.5 2.5 0 0 0 0.16 4.994h5.5a2 2 0 0 0 0.992-3.734 3.5 3.5 0 0 0-3.492-3.266zm0 1a2.486 2.486 0 0 1 2.492 2.332l0.037 0.535 0.465 0.268a0.996 0.996 0 0 1 0.504 0.867 0.985 0.985 0 0 1-1 0.998h-5.5c-0.84 0-1.5-0.66-1.5-1.5 0-0.8 0.605-1.445 1.404-1.496l0.588-0.037 0.252-0.533a2.497 2.497 0 0 1 2.256-1.434z" color="#000000" fill="#F9F9F9" overflow="visible"/>
</svg>
