<svg version="1.0" viewBox="0 0 16 16" xmlns="http://www.w3.org/2000/svg">
 <g transform="translate(0 -.084)" fill="#F9F9F9">
  <path d="m8.56 0.084c-1.888 1e-3 -3.492 1.165-4.259 2.828l-0.055 0.113-0.121 0.01c-1.745 0.127-3.125 1.637-3.125 3.473 0 1.919 1.5 3.492 3.357 3.492h8.125c1.392 0 2.518-1.182 2.518-2.615 0-1.087-0.653-2-1.578-2.393l-0.121-0.05-0.01-0.13c-0.119-2.618-2.176-4.726-4.729-4.728zm0 1c2.004 1e-3 3.635 1.652 3.731 3.773v0.016l0.06 0.748 0.677 0.291v2e-3c0.57 0.242 0.973 0.785 0.973 1.47 0 0.91-0.692 1.616-1.518 1.616h-8.123c-1.291 0-2.36-1.095-2.36-2.492 0-1.334 0.988-2.388 2.198-2.477l0.705-0.049 0.305-0.648v-2e-3c0.618-1.343 1.872-2.247 3.351-2.248z" color="#000000" font-weight="400" overflow="visible" style="text-decoration-line:none;text-indent:0;text-transform:none"/>
  <path d="m6.67 9-0.26 3.5h1.613l-0.38 3.5 2.767-5h-1.91l0.324-2z"/>
 </g>
</svg>
