<svg version="1.1" viewBox="0 0 24 24" xmlns="http://www.w3.org/2000/svg">
 <g fill="#333">
  <path d="m17.646 5.6582c-1.6862 1.6807-2.6378 3.961-2.6465 6.3418 9e-3 2.4468 1.0139 4.7845 2.7832 6.4746l0.70898-0.70703c-1.5825-1.5022-2.4828-3.5856-2.4922-5.7676 3.19e-4 -2.1187 0.84111-4.1508 2.3379-5.6504z" fill-rule="evenodd" opacity=".5" stroke-linecap="round" stroke-linejoin="round" stroke-width=".5"/>
  <path d="m20.012 8.0117c-1.2602 0.93934-2.0053 2.4166-2.0117 3.9883 0.0064 1.5717 0.75156 3.0489 2.0117 3.9883l0.70898-0.70898c-1.0755-0.74577-1.7182-1.9705-1.7207-3.2793 0.0025-1.3088 0.64519-2.5335 1.7207-3.2793z" fill-rule="evenodd" stroke-linecap="round" stroke-linejoin="round" stroke-width=".5"/>
  <path d="m7.5 3c-1.385 0-2.5 1.115-2.5 2.5v7c0 1.385 1.115 2.5 2.5 2.5s2.5-1.115 2.5-2.5v-7c0-1.385-1.115-2.5-2.5-2.5zm-4.5 8v2a4.5354 4.5 0 0 0 4 3.9648v3.0352c-1.7441 0.07151-3 0.48828-3 0.48828v0.5h3v0.011719h1v-0.01172h3v-0.5c0 1e-6 -1.2559-0.41677-3-0.48828v-3.0352a4.5354 4.5 0 0 0 4-3.9648v-2h-1v2h-0.01172a3.5276 3.5 0 0 1-2.9883 2.9648v-0.46484h-1v0.46484a3.5276 3.5 0 0 1-2.9883-2.9648h-0.011719v-2z" stroke-width="1.8516"/>
 </g>
</svg>
