<?xml version="1.0" encoding="UTF-8" standalone="no"?>
<svg
   viewBox="0 0 24 24"
   version="1.1"
   id="svg10"
   sodipodi:docname="audio-input-microphone-low-zero-panel.svg"
   inkscape:version="1.1.1 (3bf5ae0d25, 2021-09-20)"
   xmlns:inkscape="http://www.inkscape.org/namespaces/inkscape"
   xmlns:sodipodi="http://sodipodi.sourceforge.net/DTD/sodipodi-0.dtd"
   xmlns="http://www.w3.org/2000/svg"
   xmlns:svg="http://www.w3.org/2000/svg">
  <defs
     id="defs14" />
  <sodipodi:namedview
     id="namedview12"
     pagecolor="#3D3D3D"
     bordercolor="#666666"
     borderopacity="1.0"
     inkscape:pageshadow="2"
     inkscape:pageopacity="0.0"
     inkscape:pagecheckerboard="0"
     showgrid="true"
     inkscape:zoom="15.6742"
     inkscape:cx="12.536525"
     inkscape:cy="15.279887"
     inkscape:window-width="1298"
     inkscape:window-height="704"
     inkscape:window-x="68"
     inkscape:window-y="27"
     inkscape:window-maximized="1"
     inkscape:current-layer="svg10">
    <inkscape:grid
       type="xygrid"
       id="grid849" />
  </sodipodi:namedview>
  <path
     id="path966"
     style="fill:#3D3D3D;fill-rule:evenodd;stroke-width:0.5;stroke-linecap:round;stroke-linejoin:round;opacity:0.5"
     d="M 17.646484,5.6582031 C 15.960246,7.3388887 15.008637,9.6192376 15,12 c 0.009,2.446807 1.013916,4.784469 2.783203,6.474609 l 0.708985,-0.707031 C 16.909679,16.265366 16.009427,14.181946 16,12 16.000319,9.8812615 16.84111,7.8491755 18.337891,6.3496094 Z"
     sodipodi:nodetypes="ccccccc" />
  <path
     id="path2102"
     style="fill:#3D3D3D;fill-opacity:1;fill-rule:evenodd;stroke-width:0.5;stroke-linecap:round;stroke-linejoin:round;opacity:0.5"
     d="M 20.011719,8.0117188 C 18.751566,8.9510635 18.006449,10.428278 18.000001,12 c 0.0064,1.571722 0.751565,3.048936 2.011718,3.988281 l 0.708985,-0.708984 C 19.645192,14.533526 19.002545,13.308776 19.000001,12 c 0.0025,-1.308776 0.645191,-2.5335258 1.720703,-3.2792969 z"
     sodipodi:nodetypes="ccccccc" />
  <path
     id="rect1818"
     style="fill:#3D3D3D;stroke-width:1.85164"
     d="M 7.5,3 C 6.115,3 5,4.115 5,5.5 v 7 C 5,13.885 6.115,15 7.5,15 8.885,15 10,13.885 10,12.5 v -7 C 10,4.115 8.885,3 7.5,3 Z M 3,11 v 2 a 4.5354328,4.5 0 0 0 4,3.964844 V 19.988281 20 c -1.744098,0.07151 -3,0.488281 -3,0.488281 v 0.5 H 7 V 21 h 1 v -0.01172 h 3 v -0.5 C 11,20.488281 9.744098,20.07151 8,20 v -0.01172 -3.023437 A 4.5354328,4.5 0 0 0 12,13 v -2 h -1 v 2 h -0.01172 A 3.5275589,3.5 0 0 1 8,15.964844 V 15.5 H 7 v 0.464844 A 3.5275589,3.5 0 0 1 4.011719,13 H 4 v -2 z" />
</svg>
