<svg xmlns="http://www.w3.org/2000/svg" width="24" height="24"><path d="M7.933 1048.396c-1.372 1.33-3.534 1.262-4.888-.048-1.349-1.316-1.42-3.419-.052-4.753l11.289-10.976c1.784-1.73 4.592-1.642 6.356.068 1.759 1.717 1.848 4.446.07 6.18l-9.407 9.147a.541.541 0 0 1-.751 0 .507.507 0 0 1-.001-.73l9.406-9.148c1.355-1.319 1.3-3.375-.07-4.718-1.378-1.33-3.494-1.383-4.85-.066l-11.29 10.976c-.941.92-.906 2.349.052 3.29.97.934 2.438.966 3.385.049l9.406-9.146c.489-.475.471-1.242-.077-1.786-.557-.531-1.347-.549-1.836-.072l-8.465 8.231a.541.541 0 0 1-.753 0 .508.508 0 0 1 0-.732l8.467-8.23c.936-.908 2.419-.82 3.34.074.92.897 1.009 2.339.077 3.249l-9.408 9.146z" style="fill:#3d3d3d;fill-opacity:1;fill-rule:nonzero;stroke:none" transform="translate(0 -1028.362)"/></svg>