<svg width="24" height="24" xmlns="http://www.w3.org/2000/svg"><path d="M7.5 5.5 3 9l4.5 3L3 16l9 6 9-6-4.5-4L21 9l-4.5-3.5L12 9 7.5 5.5zM8 10h3v3h-1v-1.313c-.557.436-1 1.143-1 2.313 0 3 3 3 3 3v1s-4 0-4-4c0-1.483.558-2.413 1.25-3H8v-1zm4 0s4 0 4 4c0 1.483-.558 2.413-1.25 3H16v1h-3v-3h1v1.313c.557-.436 1-1.143 1-2.313 0-3-3-3-3-3v-1z" style="color:#000;opacity:.3"/><path d="M7.5 4.5 3 8l4.5 3L3 15l9 6 9-6-4.5-4L21 8l-4.5-3.5L12 8 7.5 4.5zM8 9h3v3h-1v-1.313c-.557.436-1 1.143-1 2.313 0 3 3 3 3 3v1s-4 0-4-4c0-1.483.558-2.413 1.25-3H8V9zm4 0s4 0 4 4c0 1.483-.558 2.413-1.25 3H16v1h-3v-3h1v1.313c.557-.436 1-1.143 1-2.313 0-3-3-3-3-3V9z" style="color:#000;fill:#3d3d3d"/></svg>