<svg version="1.0" viewBox="0 0 24 24" xmlns="http://www.w3.org/2000/svg"><path class="ColorScheme-Text" d="M19 15c-1.108 0-2 .892-2 2v1h-1v4h6v-4h-1v-1c0-1.108-.892-2-2-2zm0 1c.554 0 1 .446 1 1v1h-2v-1c0-.554.446-1 1-1z" color="#31363b" fill="#3D3D3D"/><path d="M12.001 3A17.478 17.478 0 0 0 1.378 6.58L1 6.871l.291.375L11.996 21 23 6.875l-.38-.289A17.47 17.47 0 0 0 11.999 3zm0 .945c3.385.001 6.755 1.066 9.631 3.133l-4.364 5.606A9.29 9.2 0 0 0 6.73 12.68L2.366 7.074C5.243 5.008 8.616 3.944 12 3.945z" color="#000" fill="#3D3D3D" style="font-feature-settings:normal;font-variant-alternates:normal;font-variant-caps:normal;font-variant-ligatures:none;font-variant-numeric:normal;font-variant-position:normal;isolation:auto;mix-blend-mode:normal;shape-padding:0;text-decoration-color:#000;text-decoration-line:none;text-decoration-style:solid;text-indent:0;text-transform:none;white-space:normal"/></svg>