<svg xmlns="http://www.w3.org/2000/svg" width="24" height="24"><g style="fill:#3d3d3d;fill-opacity:1"><path style="fill:#3d3d3d;fill-opacity:1" fill="#bebebe" d="M2.604 106c22.775 20.85 37.975 34.13 58.046 40.487l10.328.62c13.14 2.546 21.41 4.606 29.126 6.61-24.633-11.28-48.818-26.26-71.266-55.567-8.83 4.504-14.228.606-26.234 7.85ZM35.242 68.817c11.137 31.104 40.018 68.287 93.162 89.444l-26.028-18.591-.826-7.643c-23.634-16.27-30.751-34.315-39.248-53.501 25.154-18.737 39.84-23.72 71.473-25.408l2.272-4.957h19.624c-31.19-7.229-70.165-15.969-120.43 20.656Z" transform="matrix(.1232 0 0 .1232 -.32 -.32)"/><path style="fill:#3d3d3d;fill-opacity:1" fill="#" d="M84.198 86.169c2.988 13.62 10.402 24.021 19.418 33.257l-1.446-27.68c35.746-26.287 66.62-21.84 95.227-3.098-8.322-11.531-18.146-17.56-28.093-23.136l2.686-2.479c-26.53-3.228-53.68-3.967-87.792 23.136Z" transform="matrix(.1232 0 0 .1232 -.32 -.32)"/></g></svg>