<svg xmlns="http://www.w3.org/2000/svg" version="1" height="24" width="24"><g style="fill:#3d3d3d;fill-opacity:1"><path style="fill:#3d3d3d;fill-opacity:1;stroke:none" d="M35.652 141.098s27.123-40.32 81.28-44.49V81.98C56.945 86.834 5 138.02 5 138.02s29.422 85.69 111.932 93.535v-15.548c-60.55-7.675-81.28-74.91-81.28-74.91zm81.28 43.987v14.24c-45.762-8.22-58.465-56.147-58.465-56.147s21.972-24.524 58.465-28.5v15.624c-.025 0-.045-.008-.07-.008-19.15-2.316-34.114 15.71-34.114 15.71s8.387 30.35 34.186 39.08m0-130.084v26.98c1.762-.135 3.523-.25 5.294-.31 68.2-2.317 112.634 56.35 112.634 56.35s-51.036 62.524-104.21 62.524c-4.87 0-9.432-.456-13.72-1.22v16.683c3.667.47 7.467.745 11.43.745 49.48 0 85.26-25.46 119.91-55.59 5.743 4.635 29.26 15.91 34.096 20.847-32.944 27.787-109.72 50.187-153.247 50.187-4.195 0-8.224-.257-12.185-.64V255H305V55H116.93Zm0 59.678V96.61c1.744-.123 3.5-.218 5.294-.275 49.04-1.552 81.216 42.46 81.216 42.46s-34.752 48.624-72.012 48.624c-5.363 0-10.17-.87-14.498-2.335v-54.781c19.092 2.324 22.935 10.82 34.413 30.097l25.528-21.686s-18.635-24.624-50.048-24.624c-3.415 0-6.682.24-9.89.588" transform="matrix(.08 0 0 .08 -.4 -.4)"/></g></svg>