<svg xmlns="http://www.w3.org/2000/svg" width="24" height="24"><defs><linearGradient id="a"><stop style="stop-color:#9e9e9e;stop-opacity:.38275862" offset="0"/><stop style="stop-color:#9e9e9e;stop-opacity:0" offset="1"/></linearGradient><linearGradient id="b"><stop style="stop-color:#9e9e9e;stop-opacity:.38275862" offset="0"/><stop style="stop-color:#9e9e9e;stop-opacity:0" offset="1"/></linearGradient><linearGradient id="c"><stop style="stop-color:#9e9e9e;stop-opacity:.38275862" offset="0"/><stop style="stop-color:#9e9e9e;stop-opacity:0" offset="1"/></linearGradient><linearGradient id="d"><stop style="stop-color:#9e9e9e;stop-opacity:.38275862" offset="0"/><stop style="stop-color:#9e9e9e;stop-opacity:0" offset="1"/></linearGradient></defs><g style="display:inline"><path style="fill:none;stroke:#9e9e9e;stroke-width:1.51498854;stroke-miterlimit:4;stroke-opacity:1;stroke-dasharray:none;display:inline;opacity:1;fill-opacity:1" d="M11 5.834a5.513 5.513 0 0 0-5.513 5.512c0 1.948.854 3.577 2.55 4.652.776.491 1.943.8 2.915.802 1.054.004 2.142-.198 3.011-.837 1.377-1.012 2.55-2.675 2.55-4.617A5.513 5.513 0 0 0 11 5.834zm0 0a5.513 5.513 0 0 0-5.513 5.512 5.541 5.541 0 0 0 2.55 4.652l.758 3.066s0 1.102 2.205 1.102 2.205-1.102 2.205-1.102l.758-3.1c1.517-.983 2.55-2.676 2.55-4.618A5.513 5.513 0 0 0 11 5.834z" transform="translate(0 -2)"/></g></svg>
