<svg version="1.1" viewBox="0 0 24 24" xmlns="http://www.w3.org/2000/svg">
 <path d="m11.5 3c-1.385 0-2.5 1.115-2.5 2.5v7c0 1.385 1.115 2.5 2.5 2.5 1.385 0 2.5-1.115 2.5-2.5v-7c0-1.385-1.115-2.5-2.5-2.5zm-4.5 8v2a4.5354 4.5 0 0 0 4 3.9648v3.0352c-1.7441 0.07151-3 0.48828-3 0.48828v0.5h3v0.011719h1v-0.01172h3v-0.5c0 1e-6 -1.2559-0.41677-3-0.48828v-3.0352a4.5354 4.5 0 0 0 4-3.9648v-2h-1v2h-0.0117a3.5276 3.5 0 0 1-2.9883 2.9648v-0.46484h-1v0.46484a3.5276 3.5 0 0 1-2.9883-2.9648h-0.011722v-2z" fill="#333" opacity=".5" stroke-width="1.8516"/>
</svg>
