<?xml version="1.0" encoding="UTF-8" standalone="no"?>
<svg
   xmlns:dc="http://purl.org/dc/elements/1.1/"
   xmlns:cc="http://creativecommons.org/ns#"
   xmlns:rdf="http://www.w3.org/1999/02/22-rdf-syntax-ns#"
   xmlns:svg="http://www.w3.org/2000/svg"
   xmlns="http://www.w3.org/2000/svg"
   xmlns:xlink="http://www.w3.org/1999/xlink"
   xmlns:sodipodi="http://sodipodi.sourceforge.net/DTD/sodipodi-0.dtd"
   xmlns:inkscape="http://www.inkscape.org/namespaces/inkscape"
   viewBox="0 0 16 16"
   version="1.1"
   id="svg4"
   sodipodi:docname="sc_insertplugin.svg"
   inkscape:export-filename="/home/jupiter007/Libreoffice yaru theme fullcolor/build/cmd/sc_insertplugin.png"
   inkscape:export-xdpi="95"
   inkscape:export-ydpi="95"
   inkscape:version="0.92.5 (2060ec1f9f, 2020-04-08)"><metadata
   id="metadata10">
  <rdf:RDF>
    <cc:Work
       rdf:about="">
      <dc:format>image/svg+xml</dc:format>
      <dc:type
         rdf:resource="http://purl.org/dc/dcmitype/StillImage" />
    </cc:Work>
  </rdf:RDF>
</metadata>
<defs
   id="defs8">
  <linearGradient
     inkscape:collect="always"
     xlink:href="#linearGradient927"
     id="linearGradient1692-6"
     x1="321.00031"
     y1="244.00034"
     x2="335.00031"
     y2="244.00034"
     gradientUnits="userSpaceOnUse"
     gradientTransform="rotate(90,286.00033,-33.999989)" />
  <linearGradient
     inkscape:collect="always"
     id="linearGradient927">
    <stop
       style="stop-color:#ffffff;stop-opacity:1;"
       offset="0"
       id="stop923" />
    <stop
       id="stop933"
       offset="0.125"
       style="stop-color:#ffffff;stop-opacity:0.09803922" />
    <stop
       id="stop931"
       offset="0.92500001"
       style="stop-color:#ffffff;stop-opacity:0.09803922" />
    <stop
       style="stop-color:#ffffff;stop-opacity:0.49803922"
       offset="1"
       id="stop925" />
  </linearGradient>
  <linearGradient
     inkscape:collect="always"
     xlink:href="#linearGradient4370"
     id="linearGradient1692-4"
     x1="320.00031"
     y1="246.00034"
     x2="336.00031"
     y2="242.00034"
     gradientUnits="userSpaceOnUse"
     gradientTransform="rotate(90,286.00033,-33.999979)" />
  <linearGradient
     id="linearGradient4370"
     inkscape:collect="always">
    <stop
       style="stop-color:#28851e;stop-opacity:1"
       offset="0"
       id="stop4366" />
    <stop
       style="stop-color:#46a926;stop-opacity:1"
       offset="1"
       id="stop4368" />
  </linearGradient>
  <linearGradient
     inkscape:collect="always"
     xlink:href="#38-3"
     id="linearGradient1692"
     x1="320.00031"
     y1="246.00034"
     x2="336.00031"
     y2="242.00034"
     gradientUnits="userSpaceOnUse"
     gradientTransform="rotate(90,286.00033,-33.999989)" />
  <linearGradient
     inkscape:collect="always"
     id="38-3">
    <stop
       id="stop4342-7"
       offset="0"
       style="stop-color:#aea795;stop-opacity:1" />
    <stop
       style="stop-color:#b7b7b7;stop-opacity:1"
       offset="0.61328125"
       id="stop932" />
    <stop
       id="stop4340-0-3"
       offset="1"
       style="stop-color:#c8c4b7;stop-opacity:1" />
  </linearGradient>
</defs>
<sodipodi:namedview
   pagecolor="#ffffff"
   bordercolor="#666666"
   borderopacity="1"
   objecttolerance="10"
   gridtolerance="10"
   guidetolerance="10"
   inkscape:pageopacity="0"
   inkscape:pageshadow="2"
   inkscape:window-width="1920"
   inkscape:window-height="1011"
   id="namedview6"
   showgrid="false"
   inkscape:zoom="29.5"
   inkscape:cx="9.5296133"
   inkscape:cy="8.1280945"
   inkscape:window-x="0"
   inkscape:window-y="32"
   inkscape:window-maximized="1"
   inkscape:current-layer="svg4" />
/&gt;<path
   style="color:#000000;display:inline;overflow:visible;visibility:visible;opacity:0.1;fill:#000000;fill-opacity:1;fill-rule:nonzero;stroke:none;stroke-width:1;marker:none;enable-background:accumulate"
   d="m 4.1285882,1.0000052 c -3.74357005,0 -4.14638005,0.30899 -4.12803004894,3.3233095 v 4.17669 4.1766803 C -0.01774185,15.691015 0.38501815,16.000005 4.1285882,16.000005 h 7.7433498 c 3.7436,0 4.12805,-0.30895 4.12805,-3.32332 v -4.1766803 -4.17669 c 0,-3.0143695 -0.38446,-3.3233095 -4.12805,-3.3233095 z"
   id="path918-2"
   inkscape:connector-curvature="0"
   sodipodi:nodetypes="scccssscsss" />
<path
   style="color:#000000;display:inline;overflow:visible;visibility:visible;fill:url(#linearGradient1692);fill-opacity:1;fill-rule:nonzero;stroke:none;stroke-width:1;marker:none;enable-background:accumulate"
   d="m 4.4056082,0.50000517 c -3.47604005,0 -3.85006005,0.30899 -3.83302005,3.32330953 v 4.17669 4.1766803 c -0.017,3.01433 0.35698,3.32332 3.83302005,3.32332 h 7.1899598 c 3.47605,0 3.83303,-0.30895 3.83303,-3.32332 v -4.1766803 -4.17669 c 0,-3.01435953 -0.35699,-3.32330953 -3.83303,-3.32330953 z"
   id="path918"
   inkscape:connector-curvature="0"
   sodipodi:nodetypes="scccssscsss" />
<path
   style="display:inline;opacity:1;vector-effect:none;fill:#faf8f6;fill-opacity:1;stroke:none;stroke-width:1.15470052;stroke-linecap:round;stroke-linejoin:round;stroke-miterlimit:4;stroke-dasharray:none;stroke-dashoffset:0;stroke-opacity:1;enable-background:new"
   d="M 8.0000082,0.99999517 V 2.9999951 h -1 -1 v 0.9999996 2 h 1 1 v 5.0000003 1 h 1.9999998 v 1 H 8.0000082 v 1 1 h 1 v -1 h 1.9999998 v -1 -2 h -1 -0.9999998 v -5.0000003 -1 h -2 v -1 h 1 1 V 0.99999517 Z"
   id="rect22234"
   inkscape:connector-curvature="0"
   sodipodi:nodetypes="cccccccccccccccccccccccccccccc" />
<path
   style="display:inline;opacity:1;vector-effect:none;fill:#faf8f6;fill-opacity:1;stroke:none;stroke-width:1.15470052;stroke-linecap:round;stroke-linejoin:round;stroke-miterlimit:4;stroke-dasharray:none;stroke-dashoffset:0;stroke-opacity:1;enable-background:new"
   d="m 1.0000082,8.9999947 h 2 v 1 1.0000003 h 1 2 v -1.0000003 -1 h 4.9999998 1 v -2 h 1 v 2 h 1 1 v -1 h -1 v -2 h -1 -2 v 1 1 h -4.9999998 -1 v 2 h -1 v -1 -1 h -3 z"
   id="rect22234-4"
   inkscape:connector-curvature="0"
   sodipodi:nodetypes="cccccccccccccccccccccccccccccc" />
<path
   style="color:#000000;display:inline;overflow:visible;visibility:visible;fill:url(#linearGradient1692-4);fill-opacity:1;fill-rule:nonzero;stroke:none;stroke-width:1;marker:none;enable-background:accumulate"
   d="m 12.000008,6.9999947 v 2 h -1 -1.9999998 v 2.0000003 h 0.9999998 1 v 2 1 H 9.0000082 v 1.5 h 2.5956998 c 3.47605,0 3.83203,-0.30985 3.83203,-3.32422 V 8.9999947 h -1.42773 -1 v -2 z"
   id="path22304"
   inkscape:connector-curvature="0" />
<path
   style="color:#000000;display:inline;overflow:visible;visibility:visible;opacity:0.4;fill:none;fill-opacity:1;fill-rule:nonzero;stroke:#000000;stroke-width:1;stroke-miterlimit:4;stroke-dasharray:none;stroke-opacity:1;marker:none;enable-background:accumulate"
   d="m 11.554948,15.499995 c 3.33705,0 3.96221,-0.30212 3.94468,-3.24946 v -4.2505003 -4.25059 c 0.0175,-2.94733954 -0.60763,-3.24944953 -3.94468,-3.24944953 H 4.4446982 c -3.33622,0 -3.94469005,0.30207999 -3.94469005,3.24944953 v 4.25059 4.2505003 c 0,2.94738 0.60847005,3.24946 3.94469005,3.24946 z"
   id="path958-6-0"
   inkscape:connector-curvature="0"
   sodipodi:nodetypes="scccssscsss" />
<path
   style="color:#000000;display:inline;overflow:visible;visibility:visible;opacity:1;fill:url(#linearGradient1692-6);fill-opacity:1;fill-rule:nonzero;stroke:none;stroke-width:1;marker:none;enable-background:accumulate"
   d="m 4.4453182,0.99999517 c -1.65302,0 -2.54604,0.12548003 -2.91601,0.41406003 -0.18499,0.14429 -0.30479,0.33122 -0.39649,0.7031299 -0.09171,0.37191 -0.13281,0.91317 -0.13281,1.6328096 v 4.25 4.2500003 c 0,0.71964 0.0411,1.26082 0.13281,1.63281 0.0917,0.37191 0.2115,0.55884 0.39649,0.70313 0.36997,0.28858 1.26299,0.41406 2.91601,0.41406 h 7.1093798 c 1.65343,0 2.55203,-0.12511 2.92383,-0.41406 0.18589,-0.14448 0.30578,-0.33208 0.39648,-0.70313 0.0907,-0.37105 0.129,-0.90979 0.125,-1.6289 v -0.002 -4.2519103 -4.25195 -0.002 c 0.004,-0.7191096 -0.0343,-1.2578496 -0.125,-1.6288996 -0.0907,-0.37105 -0.21059,-0.5586499 -0.39648,-0.7031299 -0.37179,-0.2889 -1.2704,-0.41402003 -2.92383,-0.41402003 z M 9.773448,2.0468751 c 1.10767,-3.4e-4 2.21363,0.008 3.32031,0.0449 0.26616,0.0599 0.75737,-0.0208 0.79297,0.3457 0.13405,1.8443796 0.0662,3.6877396 0.10156,5.5390596 -0.0126,1.86745 0.0543,3.6703103 -0.10351,5.4980503 0.0642,0.42314 -0.43946,0.35577 -0.70313,0.42187 -3.43277,0.0703 -6.8757698,0.0589 -10.2988298,0.002 -0.22288,-0.0398 -0.55622,-3.2e-4 -0.71093,-0.1875 -0.19863,-1.12995 -0.12696,-2.26946 -0.16016,-3.41992 0.0138,-2.5564803 -0.029,-5.1072803 0.0898,-7.6562499 -0.03,-0.2727 0.10944,-0.49629 0.40039,-0.48829 1.30659,-0.161 2.63265,-0.0636 3.94727,-0.0976 1.10718,0.006 2.21655,-0.002 3.3242198,-0.002 z"
   id="path918-6"
   inkscape:connector-curvature="0" />
</svg>
