<svg version="1.1" viewBox="0 0 16 16" xmlns="http://www.w3.org/2000/svg">
 <g fill="#808080">
  <g>
   <path d="m3 9v0.625c0 0.08624 0.03516 0.24568 0.08984 0.42969 1.8112 1.2058 6.7619 1.225 8.7168 0.06055 0.10227-0.27015 0.15901-0.49179 0.16602-0.58398l0.02734-0.53125c-1.834 1.3034-7.2056 1.3034-9 0z"/>
   <path d="m10 5c0.55833 0 1 0.47292 1 1.0312v0.96875c0 0.55833-0.44167 1-1 1-0.55833 0-1-0.44167-1-1v-0.96875c0-0.55833 0.44167-1.0312 1-1.0312z"/>
   <path d="m4.9688 4.9844c0.55833 0 1.0312 0.47292 1.0312 1.0312v0.96875c0 0.55833-0.47292 1-1.0312 1s-1-0.44167-1-1v-0.96875c0-0.55833 0.44167-1.0312 1-1.0312z"/>
   <path d="m7.4629 1a7.5 7.5 0 0 0-7.4629 7.5 7.5 7.5 0 0 0 7.5 7.5 7.5 7.5 0 0 0 7.5-7.5 7.5 7.5 0 0 0-7.5-7.5 7.5 7.5 0 0 0-0.037109 0zm0.03711 1a6.5 6.5 0 0 1 6.5 6.5 6.5 6.5 0 0 1-6.5 6.5 6.5 6.5 0 0 1-6.5-6.5 6.5 6.5 0 0 1 6.5-6.5z" fill-rule="evenodd"/>
  </g>
  <path d="m9.6088 10.383c-0.0048 4.4e-5 -0.0088 2e-3 -0.01367 2e-3h-2.6895c-0.010554 0.1678 0.00862 0.33303 0.09375 0.48047l1 1.7324c0.277 0.47978 0.98426 0.58844 1.584 0.24219 0.59972-0.34625 0.85903-1.0124 0.58203-1.4922z" fill-rule="evenodd" stroke-linecap="square"/>
 </g>
</svg>
