<svg version="1.1" viewBox="0 0 16 16" xmlns="http://www.w3.org/2000/svg">
 <g transform="translate(13.662 -.88173)" fill="#808080">
  <path d="m-10.662 9.8817c1.7944 1.3034 7.166 1.3034 9 0l-0.02799 0.53125c-0.03266 0.42971-0.89719 3.375-4.486 3.4062-3.5888 0.0312-4.486-2.78-4.486-3.3125z"/>
  <path d="m-6.199 1.8817a7.5 7.5 0 0 0-7.4629 7.5 7.5 7.5 0 0 0 7.5 7.5 7.5 7.5 0 0 0 7.5-7.5 7.5 7.5 0 0 0-7.5-7.5 7.5 7.5 0 0 0-0.037109 0zm0.03711 1a6.5 6.5 0 0 1 6.5 6.5 6.5 6.5 0 0 1-6.5 6.5 6.5 6.5 0 0 1-6.5-6.5 6.5 6.5 0 0 1 6.5-6.5z" fill-rule="evenodd"/>
  <path d="m-3.1929 6.0697c0.734 0 1.469 0.446 1.531 1.312 0.125 1.733-1.5-0.338-3 0 0-0.866 0.734-1.312 1.469-1.312z"/>
  <path d="m-9.1309 6.0707c0.735 0 1.469 0.446 1.469 1.311-1.5-0.338-3.125 1.733-3 0 0.063-0.866 0.797-1.312 1.531-1.312z"/>
 </g>
</svg>
