<svg version="1.1" viewBox="0 0 16 16" xmlns="http://www.w3.org/2000/svg">
 <g fill="#808080">
  <g>
   <path d="m7.4629 1a7.5 7.5 0 0 0-7.4629 7.5 7.5 7.5 0 0 0 7.5 7.5 7.5 7.5 0 0 0 7.5-7.5 7.5 7.5 0 0 0-7.5-7.5 7.5 7.5 0 0 0-0.037109 0zm0.03711 1a6.5 6.5 0 0 1 6.5 6.5 6.5 6.5 0 0 1-6.5 6.5 6.5 6.5 0 0 1-6.5-6.5 6.5 6.5 0 0 1 6.5-6.5z" fill-rule="evenodd"/>
   <path d="m9.969 6.188c0.734 0 1.469 0.446 1.531 1.312 0.125 1.733-1.5-0.338-3 0 0-0.866 0.734-1.312 1.469-1.312z"/>
   <path d="m5.0378 6.189c0.735 0 1.469 0.446 1.469 1.311-1.5-0.338-3.125 1.733-3 0 0.063-0.866 0.797-1.312 1.531-1.312z"/>
  </g>
  <g fill-rule="evenodd">
   <rect x="6.5" y="11" width="2" height="1" rx=".5" ry=".5"/>
   <circle cx="3.5" cy="9.5" r=".75"/>
   <circle cx="11.5" cy="9.5" r=".75"/>
  </g>
 </g>
</svg>
