<svg version="1.1" viewBox="0 0 16 16" xmlns="http://www.w3.org/2000/svg">
 <g transform="translate(-632 -260)" fill="#808080">
  <path d="m634 261c-1.108 0-2 0.892-2 2v8c0 1.108 0.892 2 2 2h6.5218l2.4785 3 2-3h0.99975c1.108 0 2-0.892 2-2v-8c0-1.108-0.892-2-2-2zm0 1h12c0.554 0 1 0.446 1 1v8c0 0.554-0.446 1-1 1h-1.4338l-1.566 2.4-1.966-2.4h-7.0342c-0.554 0-1-0.446-1-1v-8c0-0.554 0.446-1 1-1z" enable-background="new"/>
  <rect x="635" y="267" width="4" height="1" rx=".25" ry=".25"/>
  <rect x="635" y="269" width="2" height="1" rx=".25" ry=".25"/>
  <rect x="638" y="269" width="4" height="1" rx=".25" ry=".25"/>
  <rect x="643" y="269" width="2" height="1" rx=".25" ry=".25"/>
  <rect x="640" y="267" width="5" height="1" rx=".25" ry=".25"/>
 </g>
</svg>
