<svg version="1.1" viewBox="0 0 16 16" xmlns="http://www.w3.org/2000/svg">
 <path d="m1.9707 1a1 1 0 0 0-0.67773 0.29297 1 1 0 0 0 0 1.4141 1 1 0 0 0 1.4141 0l3.1816 3.1816 0.70703-0.70703-3.8887-3.8887a1 1 0 0 0-0.73633-0.29297zm11.023 0c-0.17558 0.35583-0.32607 0.71396-0.48242 1.0723l0.66211-0.66211c-0.063497-0.13743-0.11336-0.26883-0.17969-0.40625v-0.0039062zm2.0762 0.070312-14.172 14.172 0.70703 0.70703 5.1445-5.1445c5.0866 4.2568 8.4163 4.1876 9.0352 3.5723l-6.3027-6.3047 1.5195-1.5195a1.9945 1.9945 0 0 0 1.9922 1.9277 1.9945 1.9945 0 0 0 1.8887-2.6191s-0.324-1.0342-0.83008-2.3594l1.7246-1.7246-0.70703-0.70703zm-7.7676 4.8184-2.8281 2.8281c0.24215 0.24215 0.47501 0.45761 0.71094 0.68164l2.8125-2.8125-0.69531-0.69727z" fill="#808080"/>
</svg>
