<?xml version="1.0" encoding="UTF-8" standalone="no"?>
<svg
   height="16px"
   viewBox="0 0 16 16"
   width="16px"
   version="1.1"
   id="svg125"
   sodipodi:docname="violence3-symbolic.svg"
   inkscape:version="1.1 (ce6663b3b7, 2021-05-25)"
   xmlns:inkscape="http://www.inkscape.org/namespaces/inkscape"
   xmlns:sodipodi="http://sodipodi.sourceforge.net/DTD/sodipodi-0.dtd"
   xmlns="http://www.w3.org/2000/svg"
   xmlns:svg="http://www.w3.org/2000/svg">
  <defs
     id="defs129" />
  <sodipodi:namedview
     id="namedview127"
     pagecolor="#ffffff"
     bordercolor="#666666"
     borderopacity="1.0"
     inkscape:pageshadow="2"
     inkscape:pageopacity="0.0"
     inkscape:pagecheckerboard="0"
     showgrid="true"
     inkscape:zoom="32"
     inkscape:cx="14.171875"
     inkscape:cy="5.0625"
     inkscape:window-width="1920"
     inkscape:window-height="1043"
     inkscape:window-x="1920"
     inkscape:window-y="0"
     inkscape:window-maximized="1"
     inkscape:current-layer="svg125">
    <inkscape:grid
       type="xygrid"
       id="grid150"
       dotted="false"
       spacingx="1" />
    <inkscape:grid
       type="xygrid"
       id="grid1043"
       dotted="true"
       spacingx="0.5"
       spacingy="0.5"
       empspacing="10" />
  </sodipodi:namedview>
  <filter
     id="a"
     height="1"
     width="1"
     x="0"
     y="0">
    <feColorMatrix
       in="SourceGraphic"
       type="matrix"
       values="0 0 0 0 1 0 0 0 0 1 0 0 0 0 1 0 0 0 1 0"
       id="feColorMatrix2" />
  </filter>
  <mask
     id="b">
    <g
       filter="url(#a)"
       id="g7">
      <path
         d="m 0 0 h 16 v 16 h -16 z"
         fill-opacity="0.3"
         id="path5" />
    </g>
  </mask>
  <clipPath
     id="c">
    <path
       d="m 0 0 h 1024 v 800 h -1024 z"
       id="path10" />
  </clipPath>
  <mask
     id="d">
    <g
       filter="url(#a)"
       id="g15">
      <path
         d="m 0 0 h 16 v 16 h -16 z"
         fill-opacity="0.05"
         id="path13" />
    </g>
  </mask>
  <clipPath
     id="e">
    <path
       d="m 0 0 h 1024 v 800 h -1024 z"
       id="path18" />
  </clipPath>
  <mask
     id="f">
    <g
       filter="url(#a)"
       id="g23">
      <path
         d="m 0 0 h 16 v 16 h -16 z"
         fill-opacity="0.05"
         id="path21" />
    </g>
  </mask>
  <clipPath
     id="g">
    <path
       d="m 0 0 h 1024 v 800 h -1024 z"
       id="path26" />
  </clipPath>
  <mask
     id="h">
    <g
       filter="url(#a)"
       id="g31">
      <path
         d="m 0 0 h 16 v 16 h -16 z"
         fill-opacity="0.05"
         id="path29" />
    </g>
  </mask>
  <clipPath
     id="i">
    <path
       d="m 0 0 h 1024 v 800 h -1024 z"
       id="path34" />
  </clipPath>
  <mask
     id="j">
    <g
       filter="url(#a)"
       id="g39">
      <path
         d="m 0 0 h 16 v 16 h -16 z"
         fill-opacity="0.05"
         id="path37" />
    </g>
  </mask>
  <clipPath
     id="k">
    <path
       d="m 0 0 h 1024 v 800 h -1024 z"
       id="path42" />
  </clipPath>
  <mask
     id="l">
    <g
       filter="url(#a)"
       id="g47">
      <path
         d="m 0 0 h 16 v 16 h -16 z"
         fill-opacity="0.05"
         id="path45" />
    </g>
  </mask>
  <clipPath
     id="m">
    <path
       d="m 0 0 h 1024 v 800 h -1024 z"
       id="path50" />
  </clipPath>
  <mask
     id="n">
    <g
       filter="url(#a)"
       id="g55">
      <path
         d="m 0 0 h 16 v 16 h -16 z"
         fill-opacity="0.05"
         id="path53" />
    </g>
  </mask>
  <clipPath
     id="o">
    <path
       d="m 0 0 h 1024 v 800 h -1024 z"
       id="path58" />
  </clipPath>
  <mask
     id="p">
    <g
       filter="url(#a)"
       id="g63">
      <path
         d="m 0 0 h 16 v 16 h -16 z"
         fill-opacity="0.3"
         id="path61" />
    </g>
  </mask>
  <clipPath
     id="q">
    <path
       d="m 0 0 h 1024 v 800 h -1024 z"
       id="path66" />
  </clipPath>
  <mask
     id="r">
    <g
       filter="url(#a)"
       id="g71">
      <path
         d="m 0 0 h 16 v 16 h -16 z"
         fill-opacity="0.5"
         id="path69" />
    </g>
  </mask>
  <clipPath
     id="s">
    <path
       d="m 0 0 h 1024 v 800 h -1024 z"
       id="path74" />
  </clipPath>
  <path
     id="path77"
     d="M 0.29296875 1 L 3.2929688 4 L 2.5 4 C 1.5 4 1 4 1 5 L 3 5 C 3.550781 5 4 5.449219 4 6 L 4 6.203125 C 3.0614428 6.7333746 0 8.7124052 0 12 C 0 12.5 -0.03670813 12.918771 0.17773438 13.347656 C 0.28495564 13.562099 0.48391786 13.758911 0.71875 13.863281 C 0.95358214 13.967651 1.2083336 14 1.5 14 L 3.5 14 C 3.7916664 14 4.0464179 13.96765 4.28125 13.863281 C 4.5160821 13.758911 4.7150444 13.562099 4.8222656 13.347656 C 5.0367081 12.918771 5 12.5 5 12 L 5 9.5 C 5 9.0833338 5.1121312 8.6706701 5.2910156 8.4023438 C 5.4699 8.134017 5.666667 8 6 8 C 6 9.5 6.5 11 8 11 C 7.9531265 10.123212 7.0906091 9.5298297 7.7128906 8.4199219 L 13.292969 14 L 14.707031 14 L 8.7050781 7.9980469 L 7.7070312 7 L 6.7070312 6 L 5 4.2929688 L 1.7070312 1 L 0.29296875 1 z M 6.5 3 C 5.9428105 3 5.5416512 3.000843 5.2949219 3.1738281 L 6.1210938 4 L 9 4 L 9 5 L 7.1210938 5 L 8.1210938 6 L 9 6 L 9 6.8789062 L 9.828125 7.7070312 C 9.9416812 7.5588964 10 7.336981 10 7 L 10 6 L 16 6 L 16 4.5 C 16 3.5 16 3 15 3 L 14 4 L 10 4 C 10 3 9.5 3 8.5 3 L 6.5 3 z M 6 6.7070312 L 6.2929688 7 L 6 7 L 6 6.7070312 z "
     style="fill:#808080;fill-opacity:1" />
</svg>
