<svg version="1.0" viewBox="0 0 16 16" xmlns="http://www.w3.org/2000/svg"><path d="M9.356 10c-.529-.007-.884.112-1.066.331-.192.228-.29.602-.29 1.122v3.094c0 .52.098.894.29 1.122.182.219.537.33 1.066.33h5.287c.53 0 .885-.111 1.068-.33.191-.228.289-.602.289-1.122v-3.094c0-.52-.098-.894-.29-1.122-.182-.219-.538-.331-1.067-.331zm.898 1.31c.19 0 .353.024.49.07.14.044.255.108.346.192.09.08.156.177.2.29a.958.958 0 0 1 .065.358.727.727 0 0 1-.107.374.711.711 0 0 1-.29.27.824.824 0 0 1 .527.794c.001.15-.024.287-.074.415a.857.857 0 0 1-.234.327c-.105.09-.24.161-.405.214-.162.05-.355.075-.579.075-.084 0-.172-.006-.266-.018a2.452 2.452 0 0 1-.27-.042 2.925 2.925 0 0 1-.238-.06 1.363 1.363 0 0 1-.168-.061l.135-.58c.08.035.184.072.308.113.128.037.284.055.47.055.216 0 .373-.04.472-.12a.4.4 0 0 0 .15-.328.37.37 0 0 0-.056-.21.367.367 0 0 0-.145-.14.598.598 0 0 0-.224-.075 1.485 1.485 0 0 0-.27-.023H9.82v-.56h.307a1 1 0 0 0 .196-.018.578.578 0 0 0 .173-.06.333.333 0 0 0 .117-.122.382.382 0 0 0 .046-.196.306.306 0 0 0-.135-.262.357.357 0 0 0-.135-.06.515.515 0 0 0-.154-.024c-.134 0-.258.02-.373.06a1.56 1.56 0 0 0-.31.15l-.246-.509a1.862 1.862 0 0 1 .653-.26 1.47 1.47 0 0 1 .294-.029zm3.38 0c.153 0 .29.012.41.034a2.044 2.044 0 0 1 .538.149c.059.028.1.05.126.065l-.21.583a1.78 1.78 0 0 0-.346-.135 1.383 1.383 0 0 0-.42-.06c-.339 0-.585.094-.737.284-.15.187-.224.443-.224.77 0 .158.019.303.056.433a.958.958 0 0 0 .168.332.785.785 0 0 0 .28.22c.112.05.242.074.392.074.08 0 .149-.002.205-.005a.97.97 0 0 0 .154-.018V12.91h.729v1.6a2.62 2.62 0 0 1-.42.108c-.193.04-.432.061-.715.061-.243 0-.463-.037-.662-.112a1.385 1.385 0 0 1-.504-.327 1.485 1.485 0 0 1-.327-.527 2.11 2.11 0 0 1-.112-.714c0-.271.042-.51.126-.72.084-.208.198-.383.345-.526a1.445 1.445 0 0 1 .514-.331c.199-.075.41-.113.635-.113z" fill="#F9F9F9" font-size="15" font-weight="400" letter-spacing="0" word-spacing="0"/></svg>