<?xml version="1.0" encoding="UTF-8" standalone="no"?>
<svg
   height="16"
   width="16"
   version="1.1"
   id="svg8"
   sodipodi:docname="edit-redo-symbolic.svg"
   inkscape:version="1.1.1 (3bf5ae0d25, 2021-09-20)"
   xmlns:inkscape="http://www.inkscape.org/namespaces/inkscape"
   xmlns:sodipodi="http://sodipodi.sourceforge.net/DTD/sodipodi-0.dtd"
   xmlns="http://www.w3.org/2000/svg"
   xmlns:svg="http://www.w3.org/2000/svg">
  <defs
     id="defs12" />
  <sodipodi:namedview
     id="namedview10"
     pagecolor="#ffffff"
     bordercolor="#666666"
     borderopacity="1.0"
     inkscape:pageshadow="2"
     inkscape:pageopacity="0.0"
     inkscape:pagecheckerboard="0"
     showgrid="true"
     inkscape:zoom="33.25"
     inkscape:cx="7.9849624"
     inkscape:cy="8.0150376"
     inkscape:window-width="1366"
     inkscape:window-height="704"
     inkscape:window-x="0"
     inkscape:window-y="27"
     inkscape:window-maximized="1"
     inkscape:current-layer="svg8">
    <inkscape:grid
       type="xygrid"
       id="grid14" />
  </sodipodi:namedview>
  <g
     color="#000000"
     fill="#808080"
     id="g6"
     transform="translate(1)">
    <path
       d="M 8,3 8.001,8 C 8.761,7.652 9.536,7.263 10.324,6.834 A 44.09,44.09 0 0 0 12.583,5.5 51.555,51.555 0 0 0 10.323,4.18 43.088,43.088 0 0 0 8,3 Z"
       overflow="visible"
       style="marker:none"
       id="path2" />
    <path
       id="path4"
       style="line-height:normal;font-variant-ligatures:normal;font-variant-position:normal;font-variant-caps:normal;font-variant-numeric:normal;font-variant-alternates:normal;font-feature-settings:normal;text-indent:0;text-align:start;text-decoration-line:none;text-decoration-style:solid;text-decoration-color:#000000;text-transform:none;text-orientation:mixed;shape-padding:0;isolation:auto;mix-blend-mode:normal"
       d="M 4.5,5 C 2.57,5 1,6.57 1,8.5 1,10.43 2.57,12 4.5,12 H 8 V 11 H 4.5 A 2.484,2.484 0 0 1 2,8.5 C 2,7.106 3.106,6 4.5,6 H 9 V 5 H 8.5 Z" />
  </g>
</svg>
