<?xml version="1.0" encoding="UTF-8" standalone="no"?>
<svg
   height="16"
   width="16"
   version="1.1"
   id="svg8"
   sodipodi:docname="edit-undo-symbolic.svg"
   inkscape:version="1.1.1 (3bf5ae0d25, 2021-09-20)"
   xmlns:inkscape="http://www.inkscape.org/namespaces/inkscape"
   xmlns:sodipodi="http://sodipodi.sourceforge.net/DTD/sodipodi-0.dtd"
   xmlns="http://www.w3.org/2000/svg"
   xmlns:svg="http://www.w3.org/2000/svg">
  <defs
     id="defs12" />
  <sodipodi:namedview
     id="namedview10"
     pagecolor="#ffffff"
     bordercolor="#666666"
     borderopacity="1.0"
     inkscape:pageshadow="2"
     inkscape:pageopacity="0.0"
     inkscape:pagecheckerboard="0"
     showgrid="true"
     inkscape:zoom="23.5113"
     inkscape:cx="11.887901"
     inkscape:cy="7.9748887"
     inkscape:window-width="1366"
     inkscape:window-height="704"
     inkscape:window-x="0"
     inkscape:window-y="27"
     inkscape:window-maximized="1"
     inkscape:current-layer="svg8">
    <inkscape:grid
       type="xygrid"
       id="grid14" />
  </sodipodi:namedview>
  <path
     d="M 6.983,3 V 8 A 36.973,36.973 0 0 1 4.659,6.834 44.09,44.09 0 0 1 2.4,5.5 52.149,52.149 0 0 1 4.66,4.18 43.18,43.18 0 0 1 6.983,3 Z"
     overflow="visible"
     style="color:#000000;fill:#808080;marker:none"
     id="path2" />
  <path
     id="path4"
     style="color:#000000;line-height:normal;font-variant-ligatures:normal;font-variant-position:normal;font-variant-caps:normal;font-variant-numeric:normal;font-variant-alternates:normal;font-feature-settings:normal;text-indent:0;text-align:start;text-decoration-line:none;text-decoration-style:solid;text-decoration-color:#000000;text-transform:none;text-orientation:mixed;shape-padding:0;isolation:auto;mix-blend-mode:normal;fill:#808080"
     d="m 5.983,5 v 1 h 4.5 c 1.394,0 2.5,1.106 2.5,2.5 0,1.394 -1.106,2.5 -2.5,2.5 h -3.5 v 1 h 3.5 c 1.93,0 3.5,-1.57 3.5,-3.5 0,-1.93 -1.57,-3.5 -3.5,-3.5 h -4 z" />
</svg>
