<svg version="1.1" viewBox="0 0 16 16" xmlns="http://www.w3.org/2000/svg">
 <g stroke-width=".67567" aria-label="J">
  <path d="m7.5 0c-0.449 0.725-0.88931 1.4778-1.3203 2.2598-0.43 0.788-0.82269 1.5613-1.1797 2.3223h2v4.2832c-0.0035832 1.8049-0.35558 3.0696-1.0547 3.9121-0.64628 0.76228-1.6284 1.1614-2.9453 1.2227h-1v1h1c1.6422-0.061764 2.8676-0.57076 3.6758-1.5137 0.34107-0.38979 0.61493-0.85986 0.82422-1.4082 0.20929 0.54835 0.48315 1.0184 0.82422 1.4082 0.80821 0.94292 2.0336 1.4519 3.6758 1.5137h1v-1h-1c-1.3169-0.061206-2.299-0.46038-2.9453-1.2227-0.69911-0.84252-1.0511-2.1072-1.0547-3.9121v-4.2832h2c-0.348-0.76-0.73702-1.5343-1.166-2.3223-0.431-0.78-0.87598-1.5348-1.334-2.2598z" fill="#808080"/>
 </g>
</svg>
