<?xml version="1.0" encoding="UTF-8" standalone="no"?>
<svg
   xmlns:dc="http://purl.org/dc/elements/1.1/"
   xmlns:cc="http://creativecommons.org/ns#"
   xmlns:rdf="http://www.w3.org/1999/02/22-rdf-syntax-ns#"
   xmlns:svg="http://www.w3.org/2000/svg"
   xmlns="http://www.w3.org/2000/svg"
   xmlns:sodipodi="http://sodipodi.sourceforge.net/DTD/sodipodi-0.dtd"
   xmlns:inkscape="http://www.inkscape.org/namespaces/inkscape"
   height="16"
   width="16"
   version="1.1"
   id="svg4"
   sodipodi:docname="go-next-symbolic-rtl.svg">
  <metadata
     id="metadata10">
    <rdf:RDF>
      <cc:Work
         rdf:about="">
        <dc:format>image/svg+xml</dc:format>
        <dc:type
           rdf:resource="http://purl.org/dc/dcmitype/StillImage" />
      </cc:Work>
    </rdf:RDF>
  </metadata>
  <defs
     id="defs8" />
  <sodipodi:namedview
     pagecolor="#ffffff"
     bordercolor="#666666"
     borderopacity="1"
     objecttolerance="10"
     gridtolerance="10"
     guidetolerance="10"
     inkscape:pageopacity="0"
     inkscape:pageshadow="2"
     inkscape:window-width="640"
     inkscape:window-height="480"
     id="namedview6" />
  <path
     d="M10 0c-.69.874-1.397 1.757-2.008 2.656-.679 1-1.287 1.972-1.825 2.912C5.67 6.436 5.297 7.342 5 8c.297.658.67 1.564 1.167 2.432a45.19 45.19 0 0 0 1.825 2.912c.61.9 1.317 1.782 2.008 2.656v-1.49c-.4-.524-.837-1.062-1.222-1.625a32.845 32.845 0 0 1-1.37-2.18 39.196 39.196 0 0 1-1.285-2.5v-.001L6.027 8l.096-.203c.334-.71.852-1.747 1.285-2.501a33.18 33.18 0 0 1 1.37-2.181c.385-.562.822-1.1 1.222-1.625V0z"
     fill="gray"
     id="path2" />
</svg>
