<?xml version="1.0" encoding="UTF-8" standalone="no"?>
<svg
   height="16"
   width="16"
   version="1.1"
   id="svg8"
   sodipodi:docname="image-auto-adjust-symbolic.svg"
   inkscape:version="1.1 (c68e22c387, 2021-05-23)"
   xmlns:inkscape="http://www.inkscape.org/namespaces/inkscape"
   xmlns:sodipodi="http://sodipodi.sourceforge.net/DTD/sodipodi-0.dtd"
   xmlns="http://www.w3.org/2000/svg"
   xmlns:svg="http://www.w3.org/2000/svg"
   xmlns:rdf="http://www.w3.org/1999/02/22-rdf-syntax-ns#"
   xmlns:cc="http://creativecommons.org/ns#"
   xmlns:dc="http://purl.org/dc/elements/1.1/">
  <metadata
     id="metadata14">
    <rdf:RDF>
      <cc:Work
         rdf:about="">
        <dc:format>image/svg+xml</dc:format>
        <dc:type
           rdf:resource="http://purl.org/dc/dcmitype/StillImage" />
      </cc:Work>
    </rdf:RDF>
  </metadata>
  <defs
     id="defs12" />
  <sodipodi:namedview
     pagecolor="#ffffff"
     bordercolor="#666666"
     borderopacity="1"
     objecttolerance="10"
     gridtolerance="10"
     guidetolerance="10"
     inkscape:pageopacity="0"
     inkscape:pageshadow="2"
     inkscape:window-width="1366"
     inkscape:window-height="704"
     id="namedview10"
     showgrid="true"
     inkscape:zoom="26.78125"
     inkscape:cx="5.6569428"
     inkscape:cy="7.7852975"
     inkscape:window-x="0"
     inkscape:window-y="27"
     inkscape:window-maximized="1"
     inkscape:current-layer="svg8"
     inkscape:document-rotation="0"
     inkscape:pagecheckerboard="0">
    <inkscape:grid
       type="xygrid"
       id="grid851"
       dotted="false"
       spacingx="1"
       spacingy="1"
       empspacing="5" />
    <inkscape:grid
       type="xygrid"
       id="grid877"
       dotted="true"
       spacingx="0.5"
       spacingy="0.5"
       empspacing="10" />
  </sodipodi:namedview>
  <path
     id="rect1101"
     style="opacity:1;fill:#808080;stroke-width:0.731823;fill-opacity:1"
     d="M 5.9492188 0 L 5.9492188 0.001953125 L 5.9472656 0.001953125 L 5.9453125 0.001953125 C 5.0013042 0.74061541 4.1506911 1.5491203 3.6445312 2.0527344 C 2.9933151 1.7203428 1.9083757 1.1986702 0.81835938 0.81054688 L 0.81835938 0.8125 L 0.81835938 0.81445312 C 1.228633 1.9400592 1.732663 2.9979293 2.0546875 3.6347656 C 1.5374966 4.1519565 0.7068419 5.0241245 0 5.9414062 L 0 5.9433594 L 0.001953125 5.9433594 L 0.00390625 5.9433594 C 1.2012091 5.9017804 2.3647437 5.7466061 3.0703125 5.6367188 C 3.4029438 6.2884049 3.975099 7.3496452 4.6289062 8.3046875 L 4.6328125 8.3007812 C 4.9624841 7.1488712 5.175781 5.9957359 5.2890625 5.2910156 C 6.0116021 5.1760371 7.1978426 4.959504 8.3085938 4.6328125 L 8.3066406 4.6308594 L 8.3046875 4.6308594 L 8.3046875 4.6289062 C 7.3114604 3.9589736 6.2796705 3.3996375 5.6445312 3.0742188 C 5.7586612 2.3516791 5.9185027 1.1569971 5.9511719 0 L 5.9492188 0 z M 6.8535156 6.1464844 L 6.1464844 6.8535156 L 15.292969 16 L 16 15.292969 L 6.8535156 6.1464844 z " />
</svg>
