<?xml version="1.0" encoding="UTF-8" standalone="no"?>
<svg
   xmlns:dc="http://purl.org/dc/elements/1.1/"
   xmlns:cc="http://creativecommons.org/ns#"
   xmlns:rdf="http://www.w3.org/1999/02/22-rdf-syntax-ns#"
   xmlns:svg="http://www.w3.org/2000/svg"
   xmlns="http://www.w3.org/2000/svg"
   xmlns:sodipodi="http://sodipodi.sourceforge.net/DTD/sodipodi-0.dtd"
   xmlns:inkscape="http://www.inkscape.org/namespaces/inkscape"
   height="16"
   width="16"
   version="1.1"
   id="svg4"
   sodipodi:docname="mail-message-new-symbolic.svg"
   inkscape:version="1.0.2 (e86c870879, 2021-01-15)">
  <metadata
     id="metadata10">
    <rdf:RDF>
      <cc:Work
         rdf:about="">
        <dc:format>image/svg+xml</dc:format>
        <dc:type
           rdf:resource="http://purl.org/dc/dcmitype/StillImage" />
      </cc:Work>
    </rdf:RDF>
  </metadata>
  <defs
     id="defs8" />
  <sodipodi:namedview
     pagecolor="#ffffff"
     bordercolor="#666666"
     borderopacity="1"
     objecttolerance="10"
     gridtolerance="10"
     guidetolerance="10"
     inkscape:pageopacity="0"
     inkscape:pageshadow="2"
     inkscape:window-width="1920"
     inkscape:window-height="1043"
     id="namedview6"
     showgrid="true"
     inkscape:zoom="27.5"
     inkscape:cx="1.7361402"
     inkscape:cy="7.2019531"
     inkscape:window-x="1920"
     inkscape:window-y="0"
     inkscape:window-maximized="1"
     inkscape:current-layer="svg4">
    <inkscape:grid
       type="xygrid"
       id="grid835" />
  </sodipodi:namedview>
  <path
     id="path2"
     style="line-height:125%;-inkscape-font-specification:Ubuntu;text-align:center;fill:#808080;fill-opacity:1"
     d="M 2 2 C 1.562 2 1.213875 2.0394375 0.921875 2.1484375 C 0.629875 2.2584375 0.3958125 2.4579844 0.2578125 2.7089844 C -0.0191875 3.2109844 0.01 3.8231094 0 4.6621094 L 0 11.337891 C 0.01 12.176891 -0.0191875 12.789016 0.2578125 13.291016 C 0.3958125 13.542016 0.629875 13.741563 0.921875 13.851562 C 1.213875 13.961562 1.562 14 2 14 L 10 14 L 10 13 L 2 13 C 1.62 13 1.3934375 12.961016 1.2734375 12.916016 A 0.257 0.257 0 0 1 1.1328125 12.808594 C 1.0368125 12.634594 1.01 12.191891 1 11.337891 L 1 4.6640625 C 1.01 3.8080625 1.0368125 3.3654062 1.1328125 3.1914062 A 0.257 0.257 0 0 1 1.2734375 3.0839844 C 1.3944375 3.0389844 1.621 3 2 3 L 14 3 C 14.38 3 14.605562 3.0389844 14.726562 3.0839844 C 14.809563 3.1149844 14.854141 3.1644062 14.869141 3.1914062 C 14.964141 3.3634063 14.989 3.8060625 15 4.6640625 L 15 10 L 16 10 L 16 4.6621094 C 15.99 3.8231094 16.021141 3.2109844 15.744141 2.7089844 A 1.258 1.258 0 0 0 15.078125 2.1484375 C 14.786125 2.0384375 14.438 2 14 2 L 2 2 z M 2.5371094 4.578125 L 2.2519531 5.015625 L 8.125 9.2363281 L 14 5 L 13.714844 4.578125 L 8.125 7.9511719 L 2.5371094 4.578125 z " />
  <path
     id="rect837"
     style="fill:#808080;fill-rule:evenodd;stroke:none;stroke-linecap:square;fill-opacity:1"
     d="M 13 11 L 13 13 L 11 13 L 11 14 L 13 14 L 13 16 L 14 16 L 14 14 L 16 14 L 16 13 L 14 13 L 14 11 L 13 11 z " />
</svg>
