<?xml version="1.0" encoding="UTF-8" standalone="no"?>
<svg
   height="16"
   width="16"
   version="1.1"
   id="svg4"
   sodipodi:docname="map-edit-unlocked.svg"
   inkscape:version="1.1 (c68e22c387, 2021-05-23)"
   xmlns:inkscape="http://www.inkscape.org/namespaces/inkscape"
   xmlns:sodipodi="http://sodipodi.sourceforge.net/DTD/sodipodi-0.dtd"
   xmlns="http://www.w3.org/2000/svg"
   xmlns:svg="http://www.w3.org/2000/svg">
  <defs
     id="defs8" />
  <sodipodi:namedview
     id="namedview6"
     pagecolor="#ffffff"
     bordercolor="#666666"
     borderopacity="1.0"
     inkscape:pageshadow="2"
     inkscape:pageopacity="0.0"
     inkscape:pagecheckerboard="0"
     showgrid="true"
     inkscape:zoom="23.5113"
     inkscape:cx="4.3808722"
     inkscape:cy="6.783972"
     inkscape:window-width="1366"
     inkscape:window-height="704"
     inkscape:window-x="0"
     inkscape:window-y="27"
     inkscape:window-maximized="1"
     inkscape:current-layer="svg4">
    <inkscape:grid
       type="xygrid"
       id="grid1130" />
  </sodipodi:namedview>
  <path
     id="path4"
     style="stroke-width:2;fill:#808080;fill-opacity:1"
     d="M 8 1 C 5.784 1 4 2.784 4 5 L 5 5 C 5 3.338 6.338 2 8 2 C 9.662 2 11 3.338 11 5 L 11 7 L 10.234375 7 L 6 7 L 5 7 L 4 7 L 2 7 L 2 13 L 14 13 L 14 7 L 12 7 L 12 5 C 12 2.784 10.216 1 8 1 z M 2 14 L 2 15 L 14 15 L 14 14 L 2 14 z " />
</svg>
