<?xml version="1.0" encoding="UTF-8" standalone="no"?>
<svg
   xmlns:dc="http://purl.org/dc/elements/1.1/"
   xmlns:cc="http://creativecommons.org/ns#"
   xmlns:rdf="http://www.w3.org/1999/02/22-rdf-syntax-ns#"
   xmlns:svg="http://www.w3.org/2000/svg"
   xmlns="http://www.w3.org/2000/svg"
   xmlns:sodipodi="http://sodipodi.sourceforge.net/DTD/sodipodi-0.dtd"
   xmlns:inkscape="http://www.inkscape.org/namespaces/inkscape"
   height="16"
   width="16"
   version="1.1"
   id="svg8"
   sodipodi:docname="view-fullscreen-symbolic.svg"
   inkscape:version="1.0.1 (3bc2e813f5, 2020-09-07)">
  <path
     id="rect906"
     style="opacity:1;fill:#808080;fill-opacity:1;fill-rule:evenodd;stroke:none;stroke-width:0.75;stroke-linecap:square;stroke-linejoin:round;stroke-opacity:1"
     d="M 5.9941406 3 C 4.7361406 3.015 3.8155 2.9697656 3.0625 3.3847656 C 2.673491 3.607066 2.3757724 3.9610361 2.2246094 4.3828125 C 2.0596094 4.8198125 2 5.343 2 6 L 2 11 C 2 11.658 2.0596094 12.179188 2.2246094 12.617188 C 2.3886094 13.056188 2.6865 13.407234 3.0625 13.615234 C 3.8155 14.031234 4.7361406 13.985 5.9941406 14 L 10 14 C 11.258 13.985 12.178641 14.030234 12.931641 13.615234 C 13.321026 13.393117 13.618117 13.039125 13.769531 12.617188 C 13.933531 12.180188 13.994141 11.657 13.994141 11 L 13.994141 6 C 13.994141 5.342 13.934531 4.8208125 13.769531 4.3828125 C 13.618368 3.9610361 13.32065 3.607066 12.931641 3.3847656 C 12.178641 2.9687656 11.258 3.015 10 3 L 5.9980469 3 L 5.9941406 3 z M 3 6 L 12.994141 6 L 12.994141 11 C 12.994141 11.592 12.930984 12.005625 12.833984 12.265625 C 12.735984 12.525625 12.632219 12.637281 12.449219 12.738281 C 12.084219 12.940281 11.254141 12.985 9.9941406 13 L 6 13 C 4.741 12.985 3.9099219 12.940281 3.5449219 12.738281 C 3.3619219 12.638281 3.2581562 12.525625 3.1601562 12.265625 C 3.0631563 12.005625 3 11.592 3 11 L 3 6 z " />
  <metadata
     id="metadata14">
    <rdf:RDF>
      <cc:Work
         rdf:about="">
        <dc:format>image/svg+xml</dc:format>
        <dc:type
           rdf:resource="http://purl.org/dc/dcmitype/StillImage" />
        <dc:title></dc:title>
      </cc:Work>
    </rdf:RDF>
  </metadata>
  <defs
     id="defs12" />
  <sodipodi:namedview
     pagecolor="#ffffff"
     bordercolor="#666666"
     borderopacity="1"
     objecttolerance="10"
     gridtolerance="10"
     guidetolerance="10"
     inkscape:pageopacity="0"
     inkscape:pageshadow="2"
     inkscape:window-width="1920"
     inkscape:window-height="1011"
     id="namedview10"
     showgrid="true"
     inkscape:zoom="32"
     inkscape:cx="9.3832267"
     inkscape:cy="5.9664951"
     inkscape:window-x="1920"
     inkscape:window-y="32"
     inkscape:window-maximized="1"
     inkscape:current-layer="svg8">
    <inkscape:grid
       type="xygrid"
       id="grid847" />
    <inkscape:grid
       type="xygrid"
       id="grid890"
       dotted="true"
       spacingx="0.5"
       spacingy="0.5"
       empspacing="10" />
  </sodipodi:namedview>
  <path
     style="color:#000000;font-style:normal;font-variant:normal;font-weight:normal;font-stretch:normal;font-size:medium;line-height:normal;font-family:sans-serif;font-variant-ligatures:normal;font-variant-position:normal;font-variant-caps:normal;font-variant-numeric:normal;font-variant-alternates:normal;font-variant-east-asian:normal;font-feature-settings:normal;font-variation-settings:normal;text-indent:0;text-align:start;text-decoration:none;text-decoration-line:none;text-decoration-style:solid;text-decoration-color:#000000;letter-spacing:normal;word-spacing:normal;text-transform:none;writing-mode:lr-tb;direction:ltr;text-orientation:mixed;dominant-baseline:auto;baseline-shift:baseline;text-anchor:start;white-space:normal;shape-padding:0;shape-margin:0;inline-size:0;clip-rule:nonzero;display:inline;overflow:visible;visibility:visible;isolation:auto;mix-blend-mode:normal;color-interpolation:sRGB;color-interpolation-filters:linearRGB;solid-color:#000000;solid-opacity:1;vector-effect:none;fill:#808080;fill-opacity:1;fill-rule:nonzero;stroke:none;stroke-width:1px;stroke-linecap:square;stroke-linejoin:round;stroke-miterlimit:4;stroke-dasharray:none;stroke-dashoffset:0;stroke-opacity:1;color-rendering:auto;image-rendering:auto;shape-rendering:auto;text-rendering:auto;enable-background:accumulate;stop-color:#000000;stop-opacity:1;opacity:1"
     d="M 2.5 1 C 1.6944444 1 1.0379057 1.130063 0.58398438 1.5839844 C 0.13006302 2.0379057 0 2.6944444 0 3.5 L 0 4.5 L 0 5 L 1 5 L 1 4.5 L 1 3.5 C 1 2.8055556 1.119937 2.4620943 1.2910156 2.2910156 C 1.4620943 2.119937 1.8055556 2 2.5 2 L 3.5 2 L 4 2 L 4 1 L 3.5 1 L 2.5 1 z "
     id="path980" />
  <path
     style="color:#000000;font-style:normal;font-variant:normal;font-weight:normal;font-stretch:normal;font-size:medium;line-height:normal;font-family:sans-serif;font-variant-ligatures:normal;font-variant-position:normal;font-variant-caps:normal;font-variant-numeric:normal;font-variant-alternates:normal;font-variant-east-asian:normal;font-feature-settings:normal;font-variation-settings:normal;text-indent:0;text-align:start;text-decoration:none;text-decoration-line:none;text-decoration-style:solid;text-decoration-color:#000000;letter-spacing:normal;word-spacing:normal;text-transform:none;writing-mode:lr-tb;direction:ltr;text-orientation:mixed;dominant-baseline:auto;baseline-shift:baseline;text-anchor:start;white-space:normal;shape-padding:0;shape-margin:0;inline-size:0;clip-rule:nonzero;display:inline;overflow:visible;visibility:visible;isolation:auto;mix-blend-mode:normal;color-interpolation:sRGB;color-interpolation-filters:linearRGB;solid-color:#000000;solid-opacity:1;vector-effect:none;fill:#808080;fill-opacity:1;fill-rule:nonzero;stroke:none;stroke-width:1px;stroke-linecap:square;stroke-linejoin:round;stroke-miterlimit:4;stroke-dasharray:none;stroke-dashoffset:0;stroke-opacity:1;color-rendering:auto;image-rendering:auto;shape-rendering:auto;text-rendering:auto;enable-background:accumulate;stop-color:#000000;stop-opacity:1;opacity:1"
     d="M 0 12 L 0 12.5 L 0 13.5 C 0 14.305556 0.13006302 14.962094 0.58398438 15.416016 C 1.0379057 15.869937 1.6944444 16 2.5 16 L 3.5 16 L 4 16 L 4 15 L 3.5 15 L 2.5 15 C 1.8055556 15 1.4620943 14.880063 1.2910156 14.708984 C 1.119937 14.537906 1 14.194444 1 13.5 L 1 12.5 L 1 12 L 0 12 z "
     id="path992" />
  <path
     style="color:#000000;font-style:normal;font-variant:normal;font-weight:normal;font-stretch:normal;font-size:medium;line-height:normal;font-family:sans-serif;font-variant-ligatures:normal;font-variant-position:normal;font-variant-caps:normal;font-variant-numeric:normal;font-variant-alternates:normal;font-variant-east-asian:normal;font-feature-settings:normal;font-variation-settings:normal;text-indent:0;text-align:start;text-decoration:none;text-decoration-line:none;text-decoration-style:solid;text-decoration-color:#000000;letter-spacing:normal;word-spacing:normal;text-transform:none;writing-mode:lr-tb;direction:ltr;text-orientation:mixed;dominant-baseline:auto;baseline-shift:baseline;text-anchor:start;white-space:normal;shape-padding:0;shape-margin:0;inline-size:0;clip-rule:nonzero;display:inline;overflow:visible;visibility:visible;isolation:auto;mix-blend-mode:normal;color-interpolation:sRGB;color-interpolation-filters:linearRGB;solid-color:#000000;solid-opacity:1;vector-effect:none;fill:#808080;fill-opacity:1;fill-rule:nonzero;stroke:none;stroke-width:1px;stroke-linecap:square;stroke-linejoin:round;stroke-miterlimit:4;stroke-dasharray:none;stroke-dashoffset:0;stroke-opacity:1;color-rendering:auto;image-rendering:auto;shape-rendering:auto;text-rendering:auto;enable-background:accumulate;stop-color:#000000;stop-opacity:1;opacity:1"
     d="M 15 12 L 15 12.5 L 15 13.5 C 15 14.194444 14.880063 14.537906 14.708984 14.708984 C 14.537906 14.880063 14.194444 15 13.5 15 L 12.5 15 L 12 15 L 12 16 L 12.5 16 L 13.5 16 C 14.305556 16 14.962094 15.869937 15.416016 15.416016 C 15.869937 14.962094 16 14.305556 16 13.5 L 16 12.5 L 16 12 L 15 12 z "
     id="path988" />
  <path
     style="color:#000000;font-style:normal;font-variant:normal;font-weight:normal;font-stretch:normal;font-size:medium;line-height:normal;font-family:sans-serif;font-variant-ligatures:normal;font-variant-position:normal;font-variant-caps:normal;font-variant-numeric:normal;font-variant-alternates:normal;font-variant-east-asian:normal;font-feature-settings:normal;font-variation-settings:normal;text-indent:0;text-align:start;text-decoration:none;text-decoration-line:none;text-decoration-style:solid;text-decoration-color:#000000;letter-spacing:normal;word-spacing:normal;text-transform:none;writing-mode:lr-tb;direction:ltr;text-orientation:mixed;dominant-baseline:auto;baseline-shift:baseline;text-anchor:start;white-space:normal;shape-padding:0;shape-margin:0;inline-size:0;clip-rule:nonzero;display:inline;overflow:visible;visibility:visible;isolation:auto;mix-blend-mode:normal;color-interpolation:sRGB;color-interpolation-filters:linearRGB;solid-color:#000000;solid-opacity:1;vector-effect:none;fill:#808080;fill-opacity:1;fill-rule:nonzero;stroke:none;stroke-width:1px;stroke-linecap:square;stroke-linejoin:round;stroke-miterlimit:4;stroke-dasharray:none;stroke-dashoffset:0;stroke-opacity:1;color-rendering:auto;image-rendering:auto;shape-rendering:auto;text-rendering:auto;enable-background:accumulate;stop-color:#000000;stop-opacity:1;opacity:1"
     d="M 12 1 L 12 2 L 12.5 2 L 13.5 2 C 14.194444 2 14.537906 2.119937 14.708984 2.2910156 C 14.880063 2.4620943 15 2.8055556 15 3.5 L 15 4.5 L 15 5 L 16 5 L 16 4.5 L 16 3.5 C 16 2.6944444 15.869937 2.0379057 15.416016 1.5839844 C 14.962094 1.130063 14.305556 1 13.5 1 L 12.5 1 L 12 1 z "
     id="path984" />
</svg>
