<svg version="1.1" viewBox="0 0 16 16" xmlns="http://www.w3.org/2000/svg">
 <path d="m15.051 1-14 14 0.70703 0.70703 2.6348-2.6348c1.0875 0.54768 2.3082 0.85661 3.5879 0.85742 3.6479-0.005001 6.8308-2.4765 7.7383-6.0098-0.39545-1.5236-1.2143-2.8495-2.3105-3.8633l2.3496-2.3496zm-7.0703 0.92969c-3.6479 5e-3 -6.8308 2.4765-7.7383 6.0098 0.40412 1.557 1.2502 2.9077 2.3828 3.9297l0.73242-0.73242c-0.94507-0.84155-1.6669-1.9343-2.0371-3.1465 0.085046-0.51891 0.3457-1.0247 0.59766-1.4941 1.1885-2.1249 3.5457-3.5312 5.9844-3.5371 1.0239-0.011618 2.0581 0.20972 2.9941 0.63867l0.76562-0.76562c-1.1104-0.57724-2.3656-0.90151-3.6816-0.90234zm-0.00586 2c-0.066753 3.256e-4 -0.13255 0.00219-0.19922 0.00586-2.2049 0.1136-3.9009 1.9922-3.7891 4.1973 0.034079 0.6678 0.23087 1.2877 0.54883 1.8262l0.74805-0.74805a3 3 0 0 1-0.29883-1.1289 3 3 0 0 1 2.8438-3.1484 3 3 0 0 1 1.4355 0.29688l0.74609-0.74609c-0.54236-0.32017-1.1657-0.51802-1.834-0.55078-0.066706-0.0030198-0.13442-0.0042262-0.20117-0.0039062zm4.6992 0.86133c0.0017 0.00159 0.0042 0.00231 0.0059 0.00391 0.93959 0.82912 1.6024 1.9359 1.9785 3.125-0.48038 1.618-1.5667 3.0464-3.0059 3.9297-1.1694 0.73635-2.5634 1.0893-3.9199 1.0449-0.8757-0.0117-1.7747-0.24392-2.5684-0.59375l0.87695-0.87695c0.63254 0.35217 1.3662 0.53935 2.1426 0.5 2.2057-0.11256 3.9028-1.9915 3.791-4.1973v-0.00195c-0.03214-0.62873-0.21149-1.2157-0.5-1.7344zm-4.7949 1.1406a2 2 0 0 0-1.8965 2.0996 2 2 0 0 0 0.074219 0.40625l2.4336-2.4336a2 2 0 0 0-0.61133-0.072266zm2.8359 0.81836a3 3 0 0 1 0.26172 1.0254v0.00195a3 3 0 0 1-2.8437 3.1484 3 3 0 0 1-1.3359-0.25781l0.78906-0.78906a2 2 0 0 0 0.49609 0.048828 2 2 0 0 0 1.8965-2.0996 2 2 0 0 0-0.052734-0.28906z" fill="#808080" style="paint-order:normal"/>
</svg>
