<svg height="16" width="16" xmlns="http://www.w3.org/2000/svg">
    <g color="#000" fill="gray">
        <path d="M13.909 1.307l-3.304 3.307c.732.273 1.5.527 2.306.764.8.231 1.592.436 2.375.612a48.514 48.514 0 0 0-.621-2.366 40.298 40.298 0 0 0-.756-2.316z" style="marker:none" overflow="visible"/>
        <path d="M8.102 1A7.003 7.003 0 0 0 1 8a7.003 7.003 0 0 0 4.895 6.676 7.005 7.005 0 0 0 7.84-2.66l.287-.41-.82-.575-.288.41a5.996 5.996 0 0 1-6.719 2.282A5.996 5.996 0 0 1 2 8a5.996 5.996 0 0 1 4.195-5.723 5.996 5.996 0 0 1 6.72 2.282l.286.41.82-.574-.287-.41A7.006 7.006 0 0 0 8.102 1z" style="line-height:normal;font-variant-ligatures:normal;font-variant-position:normal;font-variant-caps:normal;font-variant-numeric:normal;font-variant-alternates:normal;font-feature-settings:normal;text-indent:0;text-align:start;text-decoration-line:none;text-decoration-style:solid;text-decoration-color:#000;text-transform:none;text-orientation:mixed;shape-padding:0;isolation:auto;mix-blend-mode:normal" font-weight="400" font-family="sans-serif" white-space="normal" overflow="visible"/>
    </g>
</svg>
