<svg viewBox="0 0 24 24" xmlns="http://www.w3.org/2000/svg"><path d="M13 3v1.014c-.767.017-1.403.078-1.938.373a1.87 1.87 0 0 0-.837.996C10.06 5.82 10 6.342 10 7v11c0 .658.06 1.18.225 1.617.164.44.462.79.838.996.647.357 1.433.376 2.437.383V21h4v-.004c1.004-.007 1.79-.026 2.438-.383a1.87 1.87 0 0 0 .837-.996C20.94 19.18 21 18.658 21 18V7c0-.658-.06-1.18-.225-1.617a1.87 1.87 0 0 0-.837-.996c-.535-.295-1.171-.356-1.938-.373V3zM6 4l-3 9h3v7l3-9H6zm7.998 1h3.004c1.258.015 2.088.06 2.453.262.184.1.287.213.385.472.097.26.16.674.16 1.266v11c0 .592-.063 1.006-.16 1.266-.098.259-.201.372-.385.472-.365.202-1.195.247-2.453.262h-3.004c-1.258-.015-2.088-.06-2.453-.262-.184-.1-.287-.213-.385-.472-.097-.26-.16-.674-.16-1.266V7c0-.592.063-1.006.16-1.266.098-.259.201-.372.385-.472.365-.202 1.195-.247 2.453-.262z" fill="#fff"/><path d="M12 13v5c0 .554.446 1 1 1h5c.554 0 1-.446 1-1v-5z" fill="#15c931"/></svg>