<?xml version="1.0" encoding="UTF-8"?>
<!-- Created with Inkscape (http://www.inkscape.org/) -->
<svg id="svg2704" width="24" height="24" version="1.0" xmlns="http://www.w3.org/2000/svg" xmlns:xlink="http://www.w3.org/1999/xlink">
 <defs id="defs2706">
  <linearGradient id="linearGradient2883" x1="302.86" x2="302.86" y1="366.65" y2="609.51" gradientTransform="matrix(.037768 0 0 .01086 -1.6503 17.381)" gradientUnits="userSpaceOnUse">
   <stop id="stop5050" style="stop-opacity:0" offset="0"/>
   <stop id="stop5056" offset=".5"/>
   <stop id="stop5052" style="stop-opacity:0" offset="1"/>
  </linearGradient>
  <radialGradient id="radialGradient2880" cx="605.71" cy="486.65" r="117.14" gradientTransform="matrix(.022183 0 0 .01086 7.7407 17.381)" gradientUnits="userSpaceOnUse" xlink:href="#linearGradient5060"/>
  <linearGradient id="linearGradient5060">
   <stop id="stop5062" offset="0"/>
   <stop id="stop5064" style="stop-opacity:0" offset="1"/>
  </linearGradient>
  <radialGradient id="radialGradient2877" cx="605.71" cy="486.65" r="117.14" gradientTransform="matrix(-.022183 0 0 .01086 16.259 17.381)" gradientUnits="userSpaceOnUse" xlink:href="#linearGradient5060"/>
  <linearGradient id="linearGradient2872" x1="53.991" x2="53.991" y1="87.896" y2="104.28" gradientTransform="matrix(.19046 0 0 .24853 .090799 -3.4847)" gradientUnits="userSpaceOnUse">
   <stop id="stop2223-6" style="stop-color:#7a7a7a" offset="0"/>
   <stop id="stop2219-1" style="stop-color:#474747" offset="1"/>
  </linearGradient>
  <linearGradient id="linearGradient8490" x1="7.0625" x2="24.688" y1="35.281" y2="35.281" gradientTransform="matrix(.73759 0 0 .53933 -2.2092 1.4719)" gradientUnits="userSpaceOnUse">
   <stop id="stop6311" offset="0"/>
   <stop id="stop6313" style="stop-color:#bbb;stop-opacity:0" offset="1"/>
  </linearGradient>
  <linearGradient id="linearGradient8487" x1="12.277" x2="12.222" y1="37.206" y2="33.759" gradientTransform="matrix(.73759 0 0 .53933 -2.796 2.187)" gradientUnits="userSpaceOnUse">
   <stop id="stop4238-4" style="stop-color:#eee" offset="0"/>
   <stop id="stop4240-3" style="stop-color:#eee;stop-opacity:0" offset="1"/>
  </linearGradient>
  <linearGradient id="linearGradient2869" x1="9.599" x2="4.459" y1="13.499" y2="8.3495" gradientTransform="matrix(.98925 0 0 1.4696 .12903 -10.339)" gradientUnits="userSpaceOnUse">
   <stop id="stop3486-2" style="stop-color:#969696" offset="0"/>
   <stop id="stop3488-0" style="stop-color:#b4b4b4" offset="1"/>
  </linearGradient>
  <radialGradient id="radialGradient4072" cx="7.2203" cy="4.2333" r="12" gradientTransform="matrix(1.5194 .0037157 -.0030247 1.2368 -3.7373 .067833)" gradientUnits="userSpaceOnUse">
   <stop id="stop7064-4" style="stop-color:#e6e6e6" offset="0"/>
   <stop id="stop7060-2" style="stop-color:#c8c8c8" offset="1"/>
  </radialGradient>
  <radialGradient id="radialGradient3248" cx="24" cy="42" r="21" gradientTransform="matrix(.52381 0 1.4569e-8 .21429 -.57143 11.5)" gradientUnits="userSpaceOnUse">
   <stop id="stop6312-6" style="stop-color:#fff" offset="0"/>
   <stop id="stop6314-6" style="stop-color:#fff;stop-opacity:0" offset="1"/>
  </radialGradient>
  <radialGradient id="radialGradient8471" cx="141.75" cy="206.43" r="78.728" gradientTransform="matrix(.18615 -.0031402 .0013777 .18068 -15.013 -20.636)" gradientUnits="userSpaceOnUse" xlink:href="#linearGradient4035"/>
  <radialGradient id="radialGradient8464" cx="142.62" cy="191.85" r="78.728" gradientTransform="matrix(.092476 0 0 -.087162 -1.5556 24.366)" gradientUnits="userSpaceOnUse">
   <stop id="stop7611-3" style="stop-color:#fff" offset="0"/>
   <stop id="stop7677-2" style="stop-color:#e7e7e7" offset=".47026"/>
   <stop id="stop7613-4" style="stop-color:#8c8c8c" offset=".67184"/>
   <stop id="stop7617-3" style="stop-color:#ddd" offset=".83543"/>
   <stop id="stop7615-6" style="stop-color:#a8a8a8" offset="1"/>
  </radialGradient>
  <linearGradient id="linearGradient4035">
   <stop id="stop4037" style="stop-color:#f5f5f5" offset="0"/>
   <stop id="stop4039" style="stop-color:#e7e7e7" offset=".47026"/>
   <stop id="stop4041" style="stop-color:#8c8c8c" offset=".69349"/>
   <stop id="stop4043" style="stop-color:#ddd" offset=".83543"/>
   <stop id="stop4045" style="stop-color:#a8a8a8" offset="1"/>
  </linearGradient>
  <radialGradient id="radialGradient8475" cx="127.32" cy="143.83" r="78.728" gradientTransform="matrix(.10006 -.023376 .0082168 .059717 -5.2741 -.91135)" gradientUnits="userSpaceOnUse" xlink:href="#linearGradient4035"/>
  <radialGradient id="radialGradient8498" cx="113.07" cy="97.588" r="2.5631" fx="113.67" fy="98" gradientTransform="matrix(2.4957 0 0 2.4957 -223.98 -53.226)" gradientUnits="userSpaceOnUse" xlink:href="#radialGradient4241"/>
  <radialGradient id="radialGradient4241" cx="113.07" cy="97.588" r="2.5631" fx="113.67" fy="98" gradientUnits="userSpaceOnUse">
   <stop id="stop4243" style="stop-color:#eee" offset="0"/>
   <stop id="stop4245" style="stop-color:#cecece" offset=".16"/>
   <stop id="stop4247" style="stop-color:#888" offset=".4675"/>
   <stop id="stop4249" style="stop-color:#555" offset="1"/>
  </radialGradient>
  <linearGradient id="linearGradient2831" x1="8.5273" x2="57.411" y1="33.332" y2="33.332" gradientTransform="matrix(0 .39055 -.38724 0 22.223 -1.7244)" gradientUnits="userSpaceOnUse">
   <stop id="stop4224" style="stop-color:#fff" offset="0"/>
   <stop id="stop4226" style="stop-color:#fff;stop-opacity:0" offset="1"/>
  </linearGradient>
  <linearGradient id="linearGradient2834" x1="28.671" x2="1.31" y1="23.891" y2="23.891" gradientTransform="matrix(0 -.33674 -.33543 0 20.014 15.582)" gradientUnits="userSpaceOnUse">
   <stop id="stop2266" style="stop-color:#d7e866" offset="0"/>
   <stop id="stop2268" style="stop-color:#8cab2a" offset="1"/>
  </linearGradient>
  <linearGradient id="linearGradient5605" x1="21.478" x2="21.478" y1="1.6845" y2="6.5747" gradientTransform="matrix(.47644 0 0 .40577 -36.625 -.80551)" gradientUnits="userSpaceOnUse">
   <stop id="stop6453" style="stop-color:#eeeeec" offset="0"/>
   <stop id="stop6455" style="stop-color:#fff" offset="1"/>
  </linearGradient>
 </defs>
 <g id="layer1">
  <rect id="rect2723" x="2.8818" y="21.363" width="18.236" height="2.6374" style="fill:url(#linearGradient2883);opacity:.40206"/>
  <path id="path2725" d="m21.109 21.363v2.6373c1.1423 5e-3 2.7616-0.59088 2.7616-1.3188 0-0.72793-1.2748-1.3185-2.7616-1.3185z" style="fill:url(#radialGradient2880);opacity:.40206"/>
  <path id="path2727" d="m2.8907 21.363v2.6373c-1.1424 5e-3 -2.7616-0.59088-2.7616-1.3188 0-0.72793 1.2748-1.3185 2.7616-1.3185z" style="fill:url(#radialGradient2877);opacity:.40206"/>
  <path id="rect2992" d="m23.5 18.5c-0.46639 3.38-0.35138 3.9815-1.1959 3.9815-0.33079 0.04823-13.337 0-20.654 0-0.91714 0-0.68541 0.06576-1.1498-3.9786l23-0.0029v-4.9e-5z" style="fill:url(#linearGradient2872);stroke-linejoin:round;stroke:#353537"/>
  <path id="rect9146" d="m2.7 19h13.3v3h-13l-0.3-3z" style="fill-rule:evenodd;fill:url(#linearGradient8490)"/>
  <path id="path9148" d="m3 22-0.2-2.1635c1.3539 1.7146 6.3194 2.1635 9.7426 2.1635h-9.5426z" style="fill-rule:evenodd;fill:url(#linearGradient8487);opacity:.81143"/>
  <path id="rect2990" d="m2.5 2-1.9774 16.483c-0.014949 0-0.022616 0.0044-0.022616 0.01667h23c0-0.01232-0.0077-0.01667-0.02261-0.01667l-1.9774-16.483c-0.09926-0.8274-1.1667-1.5-2-1.5h-15c-0.83333 0-1.9007 0.6726-2 1.5z" style="fill:url(#radialGradient4072);stroke-linecap:round;stroke-linejoin:round;stroke:url(#linearGradient2869)"/>
  <path id="path2215" d="m1.4991 18.5h21.002" style="fill:none;opacity:.6;stroke-linecap:round;stroke-linejoin:round;stroke:#fff"/>
  <rect id="rect6300-3" x="1" y="19" width="22" height="3" style="fill:url(#radialGradient3248);opacity:.2"/>
  <path id="path8469" d="m14.531 1.8125c-0.27749 0-0.52468 0.080669-0.71875 0.21875-0.19407 0.13808-0.33544 0.35016-0.34375 0.59375-0.02564 0.74969-0.40816 1.2893-1.125 1.7812-0.71102 0.48797-1.7547 0.89986-3 1.2812-0.010197 0.00312-0.021024-0.00312-0.03125 0-0.471 0.098904-1.245 0.37608-2 0.65625-0.76572 0.28413-1.4648 0.5581-1.7812 0.78125-1.5979 1.0054-2.583 2.3417-2.7188 3.8125-0.12364 1.3391 0.47939 2.6794 1.6562 3.75 1.7217 1.5662 4.5353 2.5 7.5312 2.5 2.9959 0 5.8094-0.93383 7.5312-2.5 1.075-0.97766 1.6562-2.1551 1.6562-3.375 0-0.09948 0.0114-0.24227 0-0.375-0.11916-1.2911-0.91587-2.4834-2.1875-3.4375-0.03561-0.50437-0.34375-4.875-0.34375-4.875-0.017277-0.24368-0.17603-0.4572-0.375-0.59375s-0.44212-0.21875-0.71875-0.21875h-3.0312zm0 0.53125h3.0312c0.06724 0 0.12597 0.018412 0.15625 0.03125l0.375 5.125c-0.0035 0.020687-0.0035 0.041813 0 0.0625 0.0091 0.011612 0.01964 0.022101 0.03125 0.03125 0.01556 0.025516 0.03698 0.046944 0.0625 0.0625 1.232 0.84283 1.959 2.1272 2.0625 3.25 0.12887 1.3951-0.69926 2.5486-2.1875 3.4062s-3.6257 1.375-6.0625 1.375c-2.4368 0-4.5743-0.51734-6.0625-1.375s-2.3163-2.0111-2.1875-3.4062c0.11087-1.2006 0.95562-2.5364 2.3438-3.4062 0.011612-0.0091485 0.022102-0.019638 0.03125-0.03125 0.0045861-0.0040809 0.068685-0.04762 0.15625-0.09375s0.20815-0.095076 0.34375-0.15625c0.27119-0.12235 0.60098-0.26438 0.96875-0.40625 0.73555-0.28374 1.5684-0.54985 1.9688-0.625 0.010399 8.695e-4 0.020851 8.695e-4 0.03125 0 1.2093-0.36821 2.3581-0.8066 3.25-1.4062 0.87385-0.5875 1.5033-1.369 1.5625-2.4062 0.02028-0.00976 0.06108-0.03125 0.125-0.03125z" style="fill:url(#radialGradient8471)"/>
  <path id="path9156" d="m12 13c-1.6825 0-2.9723-0.84474-2.9995-1.9652-2.11e-4 -0.01254-4.212e-4 -0.02408-4.212e-4 -0.03587 0-0.40546 0.16905-0.79106 0.49029-1.1175 0.5434-0.55189 1.4816-0.88131 2.5098-0.88131 1.028 0 1.9662 0.32942 2.5096 0.8813 0.33072 0.33567 0.50019 0.73466 0.48986 1.1533-0.027622 1.1205-1.3174 1.9654-2.9997 1.9654v-6.3e-5 3e-6zm0.05026-2.746c-1.5809 0-2.4365 0.21014-2.4175 0.97447 0.01833 0.75242 1.0782 1.3536 2.3673 1.3536s2.349-0.60139 2.3673-1.3536c0.01876-0.76453-0.73621-0.97447-2.3171-0.97447z" style="fill:url(#radialGradient8464)"/>
  <path id="path8473" d="m4.9688 1.75c-0.067213 0.0181-0.12384 0.0634-0.15625 0.125-0.013291 0.019268-0.02381 0.040307-0.03125 0.0625l-0.0625 0.21875-0.84375 3.25-0.125 0.53125c-0.00591 0.03097-0.00591 0.06278 0 0.09375 0.00408 0.033018 0.0147 0.06489 0.03125 0.09375 0.032413 0.0616 0.089037 0.1069 0.15625 0.125 0.040995 0.010584 0.084005 0.010584 0.125 0l0.40625-0.125 6.875-2.0312h0.03125c0.01041 6.516e-4 0.02084 6.516e-4 0.03125 0 0.01041 6.516e-4 0.02084 6.516e-4 0.03125 0 0.02219-0.00744 0.04323-0.017959 0.0625-0.03125 0.46004-0.25376 0.69521-0.7426 0.75-1.1875 0.02806-0.22824 0.0084-0.4565-0.0625-0.65625-0.040252-0.1135-0.12619-0.22125-0.21875-0.3125s-0.21132-0.16107-0.375-0.15625h-0.03125-6.375-0.15625c-0.020751-0.00261-0.041749-0.00261-0.0625 0zm0.5 0.6875h5.9062c-0.01531 0.07778-0.03526 0.13056-0.0625 0.21875-0.04998 0.16184-0.14564 0.29336-0.125 0.28125l-6.25 1.8125 0.53125-2.3125z" style="fill:url(#radialGradient8475)"/>
  <g id="g9158" transform="matrix(-.097811 0 0 .10767 8.1622 -3.8183)">
   <path id="path9160" d="m48.3 190.28c0.31446 4.2476 5.0238 7.7116 10.514 7.7116 5.4879 0 9.6432-3.464 9.2763-7.7116-0.36437-4.2251-5.0712-7.6367-10.507-7.6367-5.438 2e-3 -9.5933 3.4116-9.2838 7.6367z" style="fill:#e6e6e6"/>
   <path id="path9162" d="m51.851 187.29c-0.50163 0.53906-1.0756 1.4026-1.0756 2.5506 0 0.0824 5e-3 0.16471 0.01 0.25206 0.21713 2.9274 3.8932 5.4006 8.026 5.4006 2.3534 0 4.5046-0.81109 5.7525-2.1737 0.53656-0.58149 1.148-1.5448 1.0382-2.8276-0.25206-2.9024-3.9232-5.3557-8.021-5.3557-2.3359 2e-3 -4.4797 0.8061-5.73 2.1538h-2e-5z" style="fill:url(#radialGradient8498)"/>
  </g>
  <g id="g9190" transform="matrix(.097811 0 0 .10767 15.777 -3.8183)">
   <path id="path9192" d="m48.3 190.28c0.31446 4.2476 5.0238 7.7116 10.514 7.7116 5.4879 0 9.6432-3.464 9.2763-7.7116-0.36437-4.2251-5.0712-7.6367-10.507-7.6367-5.438 2e-3 -9.5933 3.4116-9.2838 7.6367z" style="fill:#e6e6e6"/>
   <path id="path9194" d="m51.851 187.29c-0.50163 0.53906-1.0756 1.4026-1.0756 2.5506 0 0.0824 5e-3 0.16471 0.01 0.25206 0.21713 2.9274 3.8932 5.4006 8.026 5.4006 2.3534 0 4.5046-0.81109 5.7525-2.1737 0.53656-0.58149 1.148-1.5448 1.0382-2.8276-0.25206-2.9024-3.9232-5.3557-8.021-5.3557-2.3359 2e-3 -4.4797 0.8061-5.73 2.1538h-2e-5z" style="fill:url(#radialGradient8498)"/>
  </g>
  <path id="path4348" d="m18.611 7.5098-6.6112 7-6.6112-7h3.1112v-6h7v6h3.1112z" style="fill:url(#linearGradient2834);stroke-linecap:round;stroke-linejoin:round;stroke-width:.98046;stroke:#548820"/>
  <path id="path4360" d="m16.394 8.5098-4.3945 4.5863-4.348-4.5863h1.848v-6h5v6h1.8945z" style="fill:none;opacity:.354;stroke-width:.98046;stroke:url(#linearGradient2831)"/>
 </g>
 <g id="g5600" transform="translate(36.952 1.0738)">
  <rect id="rect5480" x="-34.481" y="-.60262" width="19.058" height="4.0577" rx="1.0142" ry=".86373" style="fill:url(#linearGradient5605);stroke-width:.94229;stroke:#548820"/>
  <rect id="rect6467" x="-32.952" y=".92623" width="6" height="1" style="fill:#c8cdc3"/>
  <rect id="rect6469" x="-25.952" y=".42623" width="1" height="2" style="fill:#969696"/>
 </g>
</svg>
