<?xml version="1.0" encoding="UTF-8" standalone="no"?>
<svg
   xmlns:dc="http://purl.org/dc/elements/1.1/"
   xmlns:cc="http://creativecommons.org/ns#"
   xmlns:rdf="http://www.w3.org/1999/02/22-rdf-syntax-ns#"
   xmlns:svg="http://www.w3.org/2000/svg"
   xmlns="http://www.w3.org/2000/svg"
   xmlns:xlink="http://www.w3.org/1999/xlink"
   xmlns:sodipodi="http://sodipodi.sourceforge.net/DTD/sodipodi-0.dtd"
   xmlns:inkscape="http://www.inkscape.org/namespaces/inkscape"
   width="24"
   height="24"
   viewBox="0 0 6.3499999 6.3500002"
   version="1.1"
   id="svg3971"
   inkscape:version="0.92.4 (5da689c313, 2019-01-14)"
   sodipodi:docname="zoom.svg">
  <defs
     id="defs3965">
    <linearGradient
       inkscape:collect="always"
       id="linearGradient5191">
      <stop
         style="stop-color:#c8c4b7;stop-opacity:1"
         offset="0"
         id="stop5187" />
      <stop
         style="stop-color:#faf8f6;stop-opacity:1"
         offset="1"
         id="stop5189" />
    </linearGradient>
    <linearGradient
       inkscape:collect="always"
       id="linearGradient927">
      <stop
         style="stop-color:#ffffff;stop-opacity:1;"
         offset="0"
         id="stop923" />
      <stop
         id="stop933"
         offset="0.125"
         style="stop-color:#ffffff;stop-opacity:0.09803922" />
      <stop
         id="stop931"
         offset="0.92500001"
         style="stop-color:#ffffff;stop-opacity:0.09803922" />
      <stop
         style="stop-color:#ffffff;stop-opacity:0.49803922"
         offset="1"
         id="stop925" />
    </linearGradient>
    <linearGradient
       inkscape:collect="always"
       xlink:href="#linearGradient5191"
       id="linearGradient1690"
       x1="320.99826"
       y1="195.49998"
       x2="342.50031"
       y2="204.49998"
       gradientUnits="userSpaceOnUse"
       gradientTransform="matrix(0,0.23936152,0.23941214,0,-44.707424,214.35712)" />
    <linearGradient
       inkscape:collect="always"
       xlink:href="#linearGradient927"
       id="linearGradient1690-3"
       x1="323.15634"
       y1="199.99998"
       x2="340.84229"
       y2="199.99998"
       gradientUnits="userSpaceOnUse"
       gradientTransform="matrix(0,0.90467347,0.90486479,0,-168.97294,-288.35096)" />
  </defs>
  <sodipodi:namedview
     id="base"
     pagecolor="#ffffff"
     bordercolor="#666666"
     borderopacity="1.0"
     inkscape:pageopacity="0.0"
     inkscape:pageshadow="2"
     inkscape:zoom="0.99999996"
     inkscape:cx="-13.999831"
     inkscape:cy="1.112502"
     inkscape:document-units="px"
     inkscape:current-layer="layer1"
     showgrid="false"
     units="px"
     inkscape:window-width="1294"
     inkscape:window-height="704"
     inkscape:window-x="72"
     inkscape:window-y="27"
     inkscape:window-maximized="1"
     inkscape:document-rotation="0">
    <inkscape:grid
       type="xygrid"
       id="grid4605" />
  </sodipodi:namedview>
  <metadata
     id="metadata3968">
    <rdf:RDF>
      <cc:Work
         rdf:about="">
        <dc:format>image/svg+xml</dc:format>
        <dc:type
           rdf:resource="http://purl.org/dc/dcmitype/StillImage" />
        <dc:title />
      </cc:Work>
    </rdf:RDF>
  </metadata>
  <g
     inkscape:label="Layer 1"
     inkscape:groupmode="layer"
     id="layer1"
     transform="translate(0,-290.64998)">
    <path
       sodipodi:nodetypes="scccssscsss"
       inkscape:connector-curvature="0"
       id="path914"
       d="m 4.3296379,291.31144 c 1.2321724,0 1.3647524,0.10355 1.3587142,1.11377 v 1.39976 1.39978 c 0.00606,1.01022 -0.1265418,1.11377 -1.3587142,1.11377 H 2.0201725 c -1.23217063,0 -1.35871416,-0.10354 -1.35871416,-1.11377 v -1.39978 -1.39976 c 0,-1.01023 0.12654624,-1.11377 1.35871676,-1.11377 z"
       style="color:#000000;display:inline;overflow:visible;visibility:visible;fill:url(#linearGradient1690);fill-opacity:1;fill-rule:nonzero;stroke:none;stroke-width:0.2393868;marker:none;enable-background:accumulate" />
    <g
       transform="matrix(-0.02645833,0,0,0.02645833,7.8563308,289.77588)"
       id="g982"
       style="display:inline;enable-background:new" />
    <path
       sodipodi:nodetypes="scccssscsss"
       inkscape:connector-curvature="0"
       id="path914-5"
       d="m 4.329638,291.31144 c 1.2321722,0 1.3647523,0.10355 1.358714,1.11377 v 1.39976 1.39978 c 0.00606,1.01022 -0.1265418,1.11377 -1.358714,1.11377 H 2.0201724 c -1.23217057,0 -1.35871407,-0.10354 -1.35871407,-1.11377 v -1.39978 -1.39976 c 0,-1.01023 0.1265463,-1.11377 1.35871677,-1.11377 z"
       style="color:#000000;display:inline;overflow:visible;visibility:visible;opacity:0.8;fill:none;fill-opacity:1;fill-rule:nonzero;stroke:#000000;stroke-width:0.26458335;stroke-miterlimit:4;stroke-dasharray:none;marker:none;enable-background:accumulate" />
    <path
       style="color:#000000;display:inline;overflow:visible;visibility:visible;fill:url(#linearGradient1690-3);fill-opacity:1;fill-rule:nonzero;stroke:none;stroke-width:0.90499998;marker:none;enable-background:accumulate;stroke-miterlimit:4;stroke-dasharray:none"
       d="M 7.6328125 2.9980469 C 5.3183069 2.9980469 4.1306219 3.1573469 3.6386719 3.5605469 C 3.3926968 3.7621469 3.2406709 4.033992 3.1367188 4.5410156 C 3.032765 5.0480392 2.9960938 5.7668493 2.9960938 6.7109375 L 2.9960938 11.998047 L 2.9960938 17.291016 C 2.9960938 18.235142 3.0327677 18.953913 3.1367188 19.460938 C 3.2406699 19.967961 3.3926983 20.239957 3.6386719 20.441406 C 4.1306189 20.844455 5.3183066 21.003906 7.6328125 21.003906 L 16.365234 21.003906 C 18.679743 21.003906 19.878496 20.845098 20.373047 20.441406 C 20.62032 20.239579 20.766319 19.967092 20.869141 19.460938 C 20.971966 18.954782 21.007622 18.234575 21.001953 17.291016 L 21.001953 11.998047 L 21.001953 6.7109375 L 21.001953 6.7050781 C 21.007592 5.7615191 20.971966 5.04717 20.869141 4.5410156 C 20.766314 4.0348613 20.620319 3.7623736 20.373047 3.5605469 C 19.878506 3.1567422 18.679743 2.9980469 16.365234 2.9980469 L 7.6328125 2.9980469 z M 11.917969 4.0332031 C 12.494911 4.0330118 13.071495 4.0323179 13.648438 4.0332031 C 15.551892 4.082211 17.458513 3.9328747 19.349609 4.2265625 C 19.792428 4.23816 19.863733 4.6684593 19.890625 5.0136719 C 20.011925 8.6208484 19.966431 12.241485 19.957031 15.845703 C 19.88454 17.078341 20.063577 18.348425 19.757812 19.554688 C 19.056678 20.055387 18.097951 19.825799 17.298828 19.912109 C 13.41432 19.956289 9.5404987 20.04925 5.6640625 19.908203 C 5.1857483 19.808728 4.477841 19.919159 4.1875 19.451172 C 4.0353615 16.489697 4.0677998 13.518374 4.0429688 10.558594 C 4.0759566 8.6262817 3.9719978 6.7028033 4.1542969 4.7792969 C 4.1162115 4.2767458 4.6445889 4.2355244 5.0039062 4.1640625 C 7.3054603 3.9533732 9.6092135 4.0749262 11.917969 4.0332031 z "
       transform="matrix(0.26458334,0,0,0.26458334,0,290.64998)"
       id="path914-2" />
    <path
       style="color:#000000;display:inline;overflow:visible;visibility:visible;opacity:1;fill:none;fill-opacity:0;fill-rule:nonzero;stroke:#1a1a1a;stroke-width:0.31749994;stroke-linecap:square;stroke-linejoin:miter;stroke-miterlimit:4;stroke-dasharray:none;stroke-dashoffset:0;stroke-opacity:1;marker:none;enable-background:accumulate"
       d="m 4.815417,295.46548 -0.3175007,-0.3175"
       id="path978"
       inkscape:connector-curvature="0"
       sodipodi:nodetypes="cc" />
    <path
       sodipodi:nodetypes="cc"
       inkscape:connector-curvature="0"
       id="path980"
       d="M 5.8208334,296.4709 4.7625,295.41256"
       style="color:#000000;display:inline;overflow:visible;visibility:visible;opacity:1;fill:none;fill-opacity:0;fill-rule:nonzero;stroke:#da1636;stroke-width:0.42333326;stroke-linecap:butt;stroke-linejoin:miter;stroke-miterlimit:4;stroke-dasharray:none;stroke-dashoffset:0;stroke-opacity:1;marker:none;enable-background:accumulate" />
    <circle
       r="1.7197914"
       cy="293.82507"
       cx="3.1749992"
       id="circle984"
       style="color:#000000;display:inline;overflow:visible;visibility:visible;opacity:1;fill:#ffffff;fill-opacity:0.54292345;fill-rule:nonzero;stroke:#1a1a1a;stroke-width:0.26458329;stroke-linecap:butt;stroke-linejoin:miter;stroke-miterlimit:4;stroke-dasharray:none;stroke-dashoffset:0;stroke-opacity:1;marker:none;enable-background:accumulate" />
    <circle
       style="color:#000000;display:inline;overflow:visible;visibility:visible;opacity:1;fill:#ffffff;fill-opacity:0.54292345;fill-rule:nonzero;stroke:none;stroke-width:0.20550157;stroke-linecap:butt;stroke-linejoin:miter;stroke-miterlimit:4;stroke-dasharray:none;stroke-dashoffset:0;stroke-opacity:1;marker:none;enable-background:accumulate"
       id="circle986"
       cx="2.6458335"
       cy="293.2959"
       r="0.52916658" />
  </g>
</svg>
