<svg height="16.079" width="16.015" xmlns="http://www.w3.org/2000/svg">
    <g color="#000" fill="gray">
        <path d="M8.182 1.083a6.99 6.99 0 0 0-6.248 3.493c-1.929 3.342-.776 7.629 2.57 9.562 3.346 1.934 7.634.792 9.562-2.55 1.929-3.343.776-7.634-2.57-9.567a6.98 6.98 0 0 0-3.314-.938zM8 2.08a6 6 0 0 1 6 6 6 6 0 0 1-6 6 6 6 0 0 1-6-6 6 6 0 0 1 6-6z" style="line-height:normal;font-variant-ligatures:none;font-variant-position:normal;font-variant-caps:normal;font-variant-numeric:normal;font-variant-alternates:normal;font-feature-settings:normal;text-indent:0;text-align:start;text-decoration-line:none;text-decoration-style:solid;text-decoration-color:#000;text-transform:none;shape-padding:0;isolation:auto;mix-blend-mode:normal;marker:none" font-weight="400" font-family="sans-serif" white-space="normal" overflow="visible"/>
        <path d="M9.322 0L6.69.393v1.354a6.49 6.477 43.146 0 1 2.632.005V0zM3.937 1.19L1.93 2.897l.988 1.177a6.49 6.477 43.146 0 1 2.017-1.69zm8.128.013l-.993 1.184a6.49 6.477 43.146 0 1 .17.09 6.49 6.477 43.146 0 1 1.845 1.603l1.006-1.197zM.455 5.42l-.44 2.596 1.515.267a6.49 6.477 43.146 0 1 .455-2.593zm15.086.003l-1.523.269a6.49 6.477 43.146 0 1 .464 2.59l1.533-.27zM1.858 10.118l-1.351.78 1.33 2.271 1.339-.772a6.49 6.477 43.146 0 1-1.317-2.28zm12.301.003a6.49 6.477 43.146 0 1-.534 1.215 6.49 6.477 43.146 0 1-.774 1.069l1.338.773 1.302-2.288zm-9.557 3.471l-.534 1.47 2.48.884.525-1.446a6.49 6.477 43.146 0 1-2.303-.8 6.49 6.477 43.146 0 1-.168-.108zm6.814.016a6.49 6.477 43.146 0 1-2.475.897l.53 1.457 2.468-.917z" style="marker:none" overflow="visible"/>
        <path d="M7.648 3.093a4.989 4.989 0 0 0-3.982 2.483 5.013 5.013 0 0 0 1.836 6.834 5.002 5.002 0 0 0 6.83-1.827 5.01 5.01 0 0 0-1.836-6.832 4.976 4.976 0 0 0-2.848-.658zM8 4.08a4 4 0 0 1 4 4 4 4 0 0 1-4 4 4 4 0 0 1-4-4 4 4 0 0 1 4-4z" style="line-height:normal;font-variant-ligatures:none;font-variant-position:normal;font-variant-caps:normal;font-variant-numeric:normal;font-variant-alternates:normal;font-feature-settings:normal;text-indent:0;text-align:start;text-decoration-line:none;text-decoration-style:solid;text-decoration-color:#000;text-transform:none;shape-padding:0;isolation:auto;mix-blend-mode:normal;marker:none" font-weight="400" font-family="sans-serif" white-space="normal" overflow="visible"/>
    </g>
</svg>
