<?xml version="1.0" encoding="UTF-8" standalone="no"?>
<!-- Created with Inkscape (http://www.inkscape.org/) -->

<svg
   xmlns:dc="http://purl.org/dc/elements/1.1/"
   xmlns:cc="http://creativecommons.org/ns#"
   xmlns:rdf="http://www.w3.org/1999/02/22-rdf-syntax-ns#"
   xmlns:svg="http://www.w3.org/2000/svg"
   xmlns="http://www.w3.org/2000/svg"
   xmlns:sodipodi="http://sodipodi.sourceforge.net/DTD/sodipodi-0.dtd"
   xmlns:inkscape="http://www.inkscape.org/namespaces/inkscape"
   width="124"
   height="24"
   viewBox="0 0 32.808333 6.3500002"
   version="1.1"
   id="svg8"
   inkscape:version="0.92.3 (2405546, 2018-03-11)"
   sodipodi:docname="activities.svg">
  <defs
     id="defs2" />
  <sodipodi:namedview
     id="base"
     pagecolor="#ffffff"
     bordercolor="#666666"
     borderopacity="1.0"
     inkscape:pageopacity="0.0"
     inkscape:pageshadow="2"
     inkscape:zoom="3.959798"
     inkscape:cx="-17.482682"
     inkscape:cy="-38.210267"
     inkscape:document-units="mm"
     inkscape:current-layer="layer1"
     showgrid="false"
     units="px"
     inkscape:window-width="1848"
     inkscape:window-height="1053"
     inkscape:window-x="72"
     inkscape:window-y="-10"
     inkscape:window-maximized="1" />
  <metadata
     id="metadata5">
    <rdf:RDF>
      <cc:Work
         rdf:about="">
        <dc:format>image/svg+xml</dc:format>
        <dc:type
           rdf:resource="http://purl.org/dc/dcmitype/StillImage" />
        <dc:title></dc:title>
      </cc:Work>
    </rdf:RDF>
  </metadata>
  <g
     inkscape:label="Layer 1"
     inkscape:groupmode="layer"
     id="layer1"
     transform="translate(0,-290.64997)">
    <path
       style="color:#000000;display:inline;overflow:visible;visibility:visible;opacity:1;fill:#ffffff;fill-opacity:1;fill-rule:nonzero;stroke:none;stroke-width:0.90714276;stroke-linecap:square;stroke-linejoin:miter;stroke-miterlimit:4;stroke-dasharray:none;stroke-dashoffset:0;stroke-opacity:1;marker:none;enable-background:accumulate"
       d="m 6.0854163,291.44372 a 2.38125,2.38125 0 0 0 -2.3812496,2.38125 2.38125,2.38125 0 0 0 2.3812496,2.38125 2.38125,2.38125 0 0 0 2.3812504,-2.38125 2.38125,2.38125 0 0 0 -2.3812504,-2.38125 z m 0.7565436,0.6963 c 0.058671,-0.005 0.1190718,0.008 0.1738538,0.0401 0.1461006,0.0844 0.1962189,0.27116 0.111843,0.41725 -0.084285,0.14609 -0.2711636,0.19598 -0.4172507,0.11162 -0.1459926,-0.0842 -0.1958886,-0.27102 -0.1116207,-0.41703 0.052749,-0.0913 0.145395,-0.145 0.2431746,-0.15193 z m -0.7565436,0.32513 c 0.1228176,0 0.2416977,0.0169 0.3545748,0.0481 0.019908,0.12273 0.092701,0.23594 0.2088468,0.30296 0.1159434,0.0669 0.2499579,0.0735 0.3660902,0.0297 0.2258352,0.2221 0.3728034,0.52397 0.3942171,0.86041 l -0.4351886,0.006 c -0.04014,-0.45571 -0.422478,-0.81301 -0.8885403,-0.81301 -0.1342628,0 -0.2616668,0.0299 -0.3758345,0.0831 l -0.2121687,-0.3803 c 0.1772379,-0.0878 0.3768705,-0.13731 0.5880032,-0.13731 z m -0.7361675,0.22279 0.2234637,0.37407 c -0.2293992,0.16147 -0.3793788,0.42813 -0.3793788,0.72996 0,0.30184 0.1499796,0.56837 0.3793788,0.72975 l -0.2234637,0.37406 c -0.2673297,-0.17862 -0.4660622,-0.45161 -0.5485823,-0.77138 0.096414,-0.0787 0.15813,-0.19826 0.15813,-0.33243 0,-0.13425 -0.061713,-0.2542 -0.15813,-0.33286 0.082629,-0.31968 0.2813597,-0.59255 0.5485823,-0.77117 z m -0.81944,0.7984 c 0.1686708,0 0.3054069,0.13688 0.3054069,0.30563 0,0.16867 -0.1367361,0.30541 -0.3054069,0.30541 -0.1687644,0 -0.3054078,-0.13674 -0.3054078,-0.30541 0,-0.16875 0.1366434,-0.30563 0.3054078,-0.30563 z m 2.4441478,0.3847 0.4351886,0.006 c -0.021411,0.33644 -0.1683819,0.63831 -0.3942171,0.8604 -0.1161323,-0.0438 -0.2500658,-0.0373 -0.3660902,0.0297 -0.1161198,0.0671 -0.1889406,0.18024 -0.2088468,0.30297 -0.1128645,0.0312 -0.2317572,0.0483 -0.3545748,0.0483 -0.2111471,0 -0.4107653,-0.0497 -0.5880032,-0.13754 l 0.2121687,-0.38026 c 0.1141551,0.0531 0.2415717,0.0831 0.3758345,0.0831 0.4660758,0 0.8484975,-0.35718 0.8885403,-0.81302 z m -0.089478,0.96339 c 0.097774,0.007 0.1904984,0.0607 0.2431745,0.15193 0.084375,0.14611 0.034227,0.33275 -0.111843,0.41703 -0.1460861,0.0843 -0.332747,0.0342 -0.4170284,-0.11184 -0.084384,-0.14601 -0.034245,-0.33266 0.1118421,-0.41703 0.054747,-0.0316 0.115191,-0.0442 0.1738548,-0.0401 z"
       id="circle4206"
       inkscape:connector-curvature="0" />
  </g>
</svg>
