<?xml version="1.0" encoding="UTF-8" standalone="no"?>
<!-- Created with Inkscape (http://www.inkscape.org/) -->

<svg
   xmlns:dc="http://purl.org/dc/elements/1.1/"
   xmlns:cc="http://creativecommons.org/ns#"
   xmlns:rdf="http://www.w3.org/1999/02/22-rdf-syntax-ns#"
   xmlns:svg="http://www.w3.org/2000/svg"
   xmlns="http://www.w3.org/2000/svg"
   xmlns:xlink="http://www.w3.org/1999/xlink"
   xmlns:sodipodi="http://sodipodi.sourceforge.net/DTD/sodipodi-0.dtd"
   xmlns:inkscape="http://www.inkscape.org/namespaces/inkscape"
   viewBox="0 0 48.000001 48.000001"
   style="enable-background:new"
   inkscape:export-ydpi="180"
   inkscape:export-xdpi="180"
   inkscape:export-filename="app_shape02.png"
   sodipodi:docname="ubuntu-logo-icon.svg"
   inkscape:version="0.92.2 (5c3e80d, 2017-08-06)"
   version="1.1"
   id="svg3336"
   height="48"
   width="48">
  <sodipodi:namedview
     inkscape:snap-global="false"
     fit-margin-bottom="18"
     fit-margin-right="0"
     fit-margin-left="0"
     fit-margin-top="18"
     inkscape:snap-grids="true"
     inkscape:guide-bbox="true"
     showguides="false"
     inkscape:snap-center="true"
     inkscape:snap-object-midpoints="true"
     inkscape:snap-midpoints="true"
     inkscape:snap-smooth-nodes="true"
     inkscape:snap-intersection-paths="true"
     inkscape:object-nodes="true"
     inkscape:object-paths="true"
     inkscape:snap-bbox-midpoints="true"
     inkscape:snap-bbox-edge-midpoints="true"
     inkscape:bbox-nodes="true"
     inkscape:bbox-paths="true"
     inkscape:snap-bbox="true"
     showborder="true"
     inkscape:showpageshadow="false"
     inkscape:snap-page="true"
     inkscape:window-maximized="1"
     inkscape:window-y="27"
     inkscape:window-x="1428"
     inkscape:window-height="1138"
     inkscape:window-width="1858"
     showgrid="false"
     inkscape:current-layer="g2297"
     inkscape:document-units="px"
     inkscape:cy="18.312594"
     inkscape:cx="16.271728"
     inkscape:zoom="11.215942"
     inkscape:pageshadow="2"
     inkscape:pageopacity="0"
     borderopacity="1.0"
     bordercolor="#666666"
     pagecolor="#4f4f4f"
     id="base">
    <inkscape:grid
       type="xygrid"
       id="grid811"
       originx="0"
       originy="15.999999"
       visible="true"
       enabled="true" />
    <sodipodi:guide
       orientation="1,0"
       position="104,176"
       id="guide819" />
    <sodipodi:guide
       orientation="1,0"
       position="120,160"
       id="guide821" />
    <sodipodi:guide
       orientation="1,0"
       position="392,144"
       id="guide823" />
    <sodipodi:guide
       orientation="1,0"
       position="408,144"
       id="guide825" />
    <sodipodi:guide
       orientation="0,1"
       position="328,408"
       id="guide827" />
    <sodipodi:guide
       orientation="0,1"
       position="336,392"
       id="guide829" />
    <sodipodi:guide
       orientation="0,1"
       position="176,120"
       id="guide831" />
    <sodipodi:guide
       orientation="0,1"
       position="216,104"
       id="guide833" />
    <inkscape:grid
       type="axonomgrid"
       id="grid835"
       units="px"
       empspacing="60"
       gridanglex="42.9"
       gridanglez="42.9"
       spacingy="3.522px"
       enabled="false"
       originx="0"
       originy="16.999996" />
    <sodipodi:guide
       orientation="0,1"
       position="344,376"
       id="guide4126" />
    <sodipodi:guide
       orientation="0,1"
       position="160,136"
       id="guide4128" />
    <sodipodi:guide
       orientation="1,0"
       position="136,96"
       id="guide4130" />
    <sodipodi:guide
       orientation="1,0"
       position="376,136"
       id="guide4134" />
    <sodipodi:guide
       orientation="-0.70710678,0.70710678"
       position="544,544"
       id="guide4136" />
    <sodipodi:guide
       orientation="1,0"
       position="256,-32.000001"
       id="guide4138" />
    <sodipodi:guide
       orientation="0,1"
       position="544,256"
       id="guide4140" />
    <sodipodi:guide
       orientation="0.70710678,0.70710678"
       position="544,-32.000001"
       id="guide4142" />
    <sodipodi:guide
       orientation="0,1"
       position="248,15.999999"
       id="guide4152" />
    <sodipodi:guide
       orientation="0,1"
       position="336,496"
       id="guide4154" />
    <sodipodi:guide
       position="344,96"
       orientation="1,0"
       id="guide4361" />
    <sodipodi:guide
       position="576,168"
       orientation="0,1"
       id="guide4363" />
    <sodipodi:guide
       position="168,192"
       orientation="1,0"
       id="guide4229" />
    <sodipodi:guide
       position="312,344"
       orientation="0,1"
       id="guide4233" />
    <sodipodi:guide
       position="180.48,-96"
       orientation="0,1"
       id="guide4235" />
  </sodipodi:namedview>
  <defs
     id="defs3338">
    <clipPath
       clipPathUnits="userSpaceOnUse"
       id="clipPath4755">
      <path
         style="color:#000000;display:inline;overflow:visible;visibility:visible;opacity:0.24899998;fill:#5e2c73;fill-opacity:1;fill-rule:nonzero;stroke:none;stroke-width:5;stroke-linecap:butt;stroke-linejoin:miter;stroke-miterlimit:4;stroke-dasharray:none;stroke-dashoffset:0;stroke-opacity:1;marker:none;enable-background:accumulate"
         d="M 360,50 594,284 V 215.89844 C 594,70.73665 573.2426,50 427.94531,50 Z"
         id="path4757"
         inkscape:connector-curvature="0" />
    </clipPath>
    <clipPath
       clipPathUnits="userSpaceOnUse"
       id="clipPath4767">
      <path
         style="color:#000000;display:inline;overflow:visible;visibility:visible;opacity:1;fill:#f6f6f6;fill-opacity:1;fill-rule:nonzero;stroke:none;stroke-width:5;stroke-linecap:butt;stroke-linejoin:miter;stroke-miterlimit:4;stroke-dasharray:none;stroke-dashoffset:0;stroke-opacity:1;marker:none;enable-background:accumulate"
         d="M 543.8125,454.1875 312.18945,685.81055 367.94531,681 C 512.70468,668.50896 526.55393,654.72881 539,510.10156 Z"
         id="path4769"
         inkscape:connector-curvature="0" />
    </clipPath>
    <linearGradient
       inkscape:collect="always"
       xlink:href="#linearGradient4226"
       id="linearGradient4232"
       x1="255.99998"
       y1="-255.99998"
       x2="405.35773"
       y2="-255.99998"
       gradientUnits="userSpaceOnUse"
       spreadMethod="reflect" />
    <linearGradient
       inkscape:collect="always"
       id="linearGradient4226">
      <stop
         style="stop-color:#a73812;stop-opacity:1"
         offset="0"
         id="stop4228" />
      <stop
         style="stop-color:#973310;stop-opacity:0"
         offset="1"
         id="stop4230" />
    </linearGradient>
  </defs>
  <metadata
     id="metadata3341">
    <rdf:RDF>
      <cc:Work
         rdf:about="">
        <dc:format>image/svg+xml</dc:format>
        <dc:type
           rdf:resource="http://purl.org/dc/dcmitype/StillImage" />
        <dc:title></dc:title>
      </cc:Work>
    </rdf:RDF>
  </metadata>
  <g
     inkscape:groupmode="layer"
     id="layer3"
     inkscape:label="Background"
     transform="translate(0,-463.99999)" />
  <g
     inkscape:groupmode="layer"
     id="layer1"
     inkscape:label="Pictogram"
     style="display:inline"
     transform="translate(-32,-495.99999)">
    <g
       id="g2237"
       transform="translate(-84.466498,82.466492)">
      <g
         id="g2297"
         transform="matrix(0.14593061,0,0,0.14593061,98.438482,395.21362)"
         style="stroke-width:6.85257149">
        <path
           style="color:#000000;display:inline;overflow:visible;visibility:visible;opacity:1;fill:#ffffff;fill-opacity:1;fill-rule:nonzero;stroke:none;stroke-width:7.99999905;stroke-linecap:square;stroke-linejoin:miter;stroke-miterlimit:4;stroke-dasharray:none;stroke-dashoffset:0;stroke-opacity:1;marker:none;enable-background:accumulate"
           d="M 24 3 A 21 21 0 0 0 3 24 A 21 21 0 0 0 24 45 A 21 21 0 0 0 45 24 A 21 21 0 0 0 24 3 z M 30.671875 9.140625 C 31.189258 9.1039344 31.721957 9.215415 32.205078 9.4941406 C 33.493523 10.238359 33.935506 11.885505 33.191406 13.173828 C 32.448138 14.46215 30.800044 14.902184 29.511719 14.158203 C 28.224227 13.414936 27.784196 11.76808 28.527344 10.480469 C 28.992554 9.6752674 29.809569 9.201776 30.671875 9.140625 z M 24 12.007812 C 25.083113 12.007813 26.131502 12.15692 27.126953 12.431641 C 27.302511 13.514044 27.944472 14.512438 28.96875 15.103516 C 29.991249 15.692935 31.173104 15.752168 32.197266 15.365234 C 34.18888 17.323876 35.484987 19.986103 35.673828 22.953125 L 31.835938 23.009766 C 31.481977 18.990831 28.110156 15.839844 24 15.839844 C 22.815944 15.839844 21.692386 16.103719 20.685547 16.572266 L 18.814453 13.21875 C 20.377498 12.445112 22.138035 12.007812 24 12.007812 z M 17.507812 13.972656 L 19.478516 17.271484 C 17.455465 18.695509 16.132812 21.047169 16.132812 23.708984 C 16.132812 26.370918 17.455465 28.721339 19.478516 30.144531 L 17.507812 33.443359 C 15.150254 31.868098 13.39765 29.46068 12.669922 26.640625 C 13.520184 25.946821 14.064453 24.892209 14.064453 23.708984 C 14.064453 22.525045 13.520184 21.467241 12.669922 20.773438 C 13.398599 17.954216 15.151204 15.54792 17.507812 13.972656 z M 10.28125 21.013672 C 11.768737 21.013672 12.974609 22.220785 12.974609 23.708984 C 12.974609 25.196468 11.768737 26.402344 10.28125 26.402344 C 8.7929358 26.402344 7.5878906 25.196468 7.5878906 23.708984 C 7.5878906 22.220785 8.7929358 21.013672 10.28125 21.013672 z M 31.835938 24.40625 L 35.673828 24.462891 C 35.484988 27.429914 34.188881 30.092139 32.197266 32.050781 C 31.173109 31.663846 29.991959 31.72213 28.96875 32.3125 C 27.944707 32.904647 27.302509 33.901973 27.126953 34.984375 C 26.13162 35.259928 25.083113 35.410156 24 35.410156 C 22.137914 35.410156 20.377498 34.971851 18.814453 34.197266 L 20.685547 30.84375 C 21.692267 31.31218 22.815944 31.576172 24 31.576172 C 28.110274 31.576172 31.482806 28.426256 31.835938 24.40625 z M 31.046875 32.902344 C 31.909134 32.963421 32.726864 33.437505 33.191406 34.242188 C 33.935504 35.530629 33.493284 37.176653 32.205078 37.919922 C 30.916756 38.664021 29.270612 38.221919 28.527344 36.933594 C 27.783128 35.645981 28.22535 33.999957 29.513672 33.255859 C 29.996438 32.977133 30.52952 32.865697 31.046875 32.902344 z "
           transform="matrix(6.8525719,0,0,6.8525719,123.53828,125.53828)"
           id="circle4206" />
      </g>
    </g>
  </g>
</svg>
