<?xml version="1.0" encoding="UTF-8" standalone="no"?>
<!-- Created with Inkscape (http://www.inkscape.org/) -->

<svg
   xmlns:dc="http://purl.org/dc/elements/1.1/"
   xmlns:cc="http://creativecommons.org/ns#"
   xmlns:rdf="http://www.w3.org/1999/02/22-rdf-syntax-ns#"
   xmlns:svg="http://www.w3.org/2000/svg"
   xmlns="http://www.w3.org/2000/svg"
   xmlns:sodipodi="http://sodipodi.sourceforge.net/DTD/sodipodi-0.dtd"
   xmlns:inkscape="http://www.inkscape.org/namespaces/inkscape"
   id="svg4479"
   height="96"
   viewBox="0 0 96 96"
   width="96"
   version="1.1"
   sodipodi:docname="ubuntu-launcher.svg"
   inkscape:version="0.92.1 r15371">
  <defs
     id="defs21" />
  <sodipodi:namedview
     pagecolor="#ffffff"
     bordercolor="#666666"
     borderopacity="1"
     objecttolerance="10"
     gridtolerance="10"
     guidetolerance="10"
     inkscape:pageopacity="0"
     inkscape:pageshadow="2"
     inkscape:window-width="1848"
     inkscape:window-height="1137"
     id="namedview19"
     showgrid="false"
     inkscape:zoom="1.502449"
     inkscape:cx="-99.231851"
     inkscape:cy="-37.511966"
     inkscape:window-x="1438"
     inkscape:window-y="30"
     inkscape:window-maximized="1"
     inkscape:current-layer="layer1" />
  <metadata
     id="metadata4484">
    <rdf:RDF>
      <cc:Work
         rdf:about="">
        <dc:format>image/svg+xml</dc:format>
        <dc:type
           rdf:resource="http://purl.org/dc/dcmitype/StillImage" />
        <dc:title></dc:title>
      </cc:Work>
    </rdf:RDF>
  </metadata>
  <g
     id="layer1"
     transform="translate(847.5695,-703.93)">
    <path
       id="path3"
       style="fill:#ffffff;stroke-width:1"
       d="m -799.57032,715.93081 c -19.88263,0 -35.99918,16.11655 -35.99918,35.99919 0,19.881 16.11655,35.99918 35.99918,35.99918 19.88264,0 36.00082,-16.11818 36.00082,-35.99918 0,-19.88264 -16.11818,-35.99919 -36.00082,-35.99919 z m 12.36846,9.99328 c 0.7746,0.02 1.55569,0.22865 2.27405,0.64311 2.29918,1.32799 3.08569,4.266 1.75787,6.56493 -1.32628,2.29893 -4.26429,3.08544 -6.56321,1.75786 -2.29746,-1.32627 -3.08569,-4.26387 -1.75958,-6.56149 0.91317,-1.58048 2.58676,-2.44824 4.29087,-2.40439 z m -12.36846,5.12607 c 1.93271,0 3.8025,0.26953 5.57886,0.75976 0.31326,1.93147 1.45988,3.70947 3.28762,4.76419 1.82454,1.05177 3.9348,1.15862 5.76229,0.46819 3.55393,3.4951 5.86612,8.24727 6.20304,13.54172 l -6.84793,0.10118 c -0.63162,-7.17153 -6.64961,-12.79555 -13.98355,-12.79555 -2.11287,0 -4.1166,0.47072 -5.91324,1.3068 l -3.33909,-5.98524 c 2.78919,-1.38052 5.92978,-2.1609 9.252,-2.1609 z m -11.583,3.50715 3.51401,5.88583 c -3.60998,2.54111 -5.96986,6.73707 -5.96986,11.48727 0,4.75004 2.3598,8.94764 5.96986,11.48728 l -3.51401,5.88583 c -4.20692,-2.81094 -7.33631,-7.1064 -8.63509,-12.13854 1.51724,-1.23807 2.48842,-3.12276 2.48842,-5.23416 0,-2.11262 -0.97118,-3.9978 -2.48842,-5.23587 1.30026,-5.03067 4.42972,-9.32564 8.63509,-12.13691 z m -12.89454,12.56563 c 2.65434,0 4.80534,2.15149 4.80534,4.80707 0,2.65434 -2.15108,4.80706 -4.80534,4.80706 -2.65582,0 -4.80707,-2.1528 -4.80707,-4.80706 0,-2.65558 2.15133,-4.80707 4.80707,-4.80707 z m 38.46027,6.05217 6.85137,0.0995 c -0.33697,5.29446 -2.65091,10.04809 -6.20476,13.54337 -1.82757,-0.69046 -3.93652,-0.587 -5.76229,0.46647 -1.82733,1.0566 -2.97434,2.83443 -3.28762,4.76591 -1.77611,0.49171 -3.64606,0.75974 -5.57885,0.75974 -3.3228,0 -6.46315,-0.7804 -9.252,-2.16262 l 3.33908,-5.98361 c 1.7964,0.83586 3.80037,1.30509 5.91324,1.30509 7.33451,0 13.35191,-5.62035 13.98191,-12.79391 z m -1.8693,15.15028 c 1.70395,-0.0439 3.37729,0.82317 4.28916,2.40267 1.32782,2.29917 0.53914,5.23694 -1.75959,6.56321 -2.29892,1.32783 -5.23693,0.53936 -6.56321,-1.75958 -1.32799,-2.29763 -0.53937,-5.23547 1.75959,-6.56322 0.71788,-0.41448 1.49956,-0.62315 2.27405,-0.64311 z"
       inkscape:connector-curvature="0" />
  </g>
</svg>
