<?xml version="1.0" encoding="UTF-8" standalone="no"?>
<!-- Created with Inkscape (http://www.inkscape.org/) -->

<svg
   xmlns:dc="http://purl.org/dc/elements/1.1/"
   xmlns:cc="http://creativecommons.org/ns#"
   xmlns:rdf="http://www.w3.org/1999/02/22-rdf-syntax-ns#"
   xmlns:svg="http://www.w3.org/2000/svg"
   xmlns="http://www.w3.org/2000/svg"
   xmlns:xlink="http://www.w3.org/1999/xlink"
   xmlns:sodipodi="http://sodipodi.sourceforge.net/DTD/sodipodi-0.dtd"
   xmlns:inkscape="http://www.inkscape.org/namespaces/inkscape"
   viewBox="0 0 48.000001 48.000001"
   style="enable-background:new"
   inkscape:export-ydpi="180"
   inkscape:export-xdpi="180"
   inkscape:export-filename="app_shape02.png"
   sodipodi:docname="ubuntu-appgrid-icon.svg"
   inkscape:version="0.92.3 (2405546, 2018-03-11)"
   version="1.1"
   id="svg3336"
   height="48"
   width="48">
  <sodipodi:namedview
     inkscape:snap-global="false"
     fit-margin-bottom="18"
     fit-margin-right="0"
     fit-margin-left="0"
     fit-margin-top="18"
     inkscape:snap-grids="true"
     inkscape:guide-bbox="true"
     showguides="false"
     inkscape:snap-center="true"
     inkscape:snap-object-midpoints="true"
     inkscape:snap-midpoints="true"
     inkscape:snap-smooth-nodes="true"
     inkscape:snap-intersection-paths="true"
     inkscape:object-nodes="true"
     inkscape:object-paths="true"
     inkscape:snap-bbox-midpoints="true"
     inkscape:snap-bbox-edge-midpoints="true"
     inkscape:bbox-nodes="true"
     inkscape:bbox-paths="true"
     inkscape:snap-bbox="true"
     showborder="true"
     inkscape:showpageshadow="false"
     inkscape:snap-page="true"
     inkscape:window-maximized="1"
     inkscape:window-y="27"
     inkscape:window-x="72"
     inkscape:window-height="1053"
     inkscape:window-width="1848"
     showgrid="false"
     inkscape:current-layer="g2297"
     inkscape:document-units="px"
     inkscape:cy="22.039595"
     inkscape:cx="25.038926"
     inkscape:zoom="15.861737"
     inkscape:pageshadow="2"
     inkscape:pageopacity="0"
     borderopacity="1.0"
     bordercolor="#666666"
     pagecolor="#4f4f4f"
     id="base">
    <inkscape:grid
       type="xygrid"
       id="grid811"
       originx="0"
       originy="15.999999"
       visible="true"
       enabled="true" />
    <sodipodi:guide
       orientation="1,0"
       position="104,176"
       id="guide819"
       inkscape:locked="false" />
    <sodipodi:guide
       orientation="1,0"
       position="120,160"
       id="guide821"
       inkscape:locked="false" />
    <sodipodi:guide
       orientation="1,0"
       position="392,144"
       id="guide823"
       inkscape:locked="false" />
    <sodipodi:guide
       orientation="1,0"
       position="408,144"
       id="guide825"
       inkscape:locked="false" />
    <sodipodi:guide
       orientation="0,1"
       position="328,408"
       id="guide827"
       inkscape:locked="false" />
    <sodipodi:guide
       orientation="0,1"
       position="336,392"
       id="guide829"
       inkscape:locked="false" />
    <sodipodi:guide
       orientation="0,1"
       position="176,120"
       id="guide831"
       inkscape:locked="false" />
    <sodipodi:guide
       orientation="0,1"
       position="216,104"
       id="guide833"
       inkscape:locked="false" />
    <inkscape:grid
       type="axonomgrid"
       id="grid835"
       units="px"
       empspacing="60"
       gridanglex="42.9"
       gridanglez="42.9"
       spacingy="3.522px"
       enabled="false"
       originx="0"
       originy="16.999996" />
    <sodipodi:guide
       orientation="0,1"
       position="344,376"
       id="guide4126"
       inkscape:locked="false" />
    <sodipodi:guide
       orientation="0,1"
       position="160,136"
       id="guide4128"
       inkscape:locked="false" />
    <sodipodi:guide
       orientation="1,0"
       position="136,96"
       id="guide4130"
       inkscape:locked="false" />
    <sodipodi:guide
       orientation="1,0"
       position="376,136"
       id="guide4134"
       inkscape:locked="false" />
    <sodipodi:guide
       orientation="-0.70710678,0.70710678"
       position="544,544"
       id="guide4136"
       inkscape:locked="false" />
    <sodipodi:guide
       orientation="1,0"
       position="256,-32.000001"
       id="guide4138"
       inkscape:locked="false" />
    <sodipodi:guide
       orientation="0,1"
       position="544,256"
       id="guide4140"
       inkscape:locked="false" />
    <sodipodi:guide
       orientation="0.70710678,0.70710678"
       position="544,-32.000001"
       id="guide4142"
       inkscape:locked="false" />
    <sodipodi:guide
       orientation="0,1"
       position="248,15.999999"
       id="guide4152"
       inkscape:locked="false" />
    <sodipodi:guide
       orientation="0,1"
       position="336,496"
       id="guide4154"
       inkscape:locked="false" />
    <sodipodi:guide
       position="344,96"
       orientation="1,0"
       id="guide4361"
       inkscape:locked="false" />
    <sodipodi:guide
       position="576,168"
       orientation="0,1"
       id="guide4363"
       inkscape:locked="false" />
    <sodipodi:guide
       position="168,192"
       orientation="1,0"
       id="guide4229"
       inkscape:locked="false" />
    <sodipodi:guide
       position="312,344"
       orientation="0,1"
       id="guide4233"
       inkscape:locked="false" />
    <sodipodi:guide
       position="180.48,-96"
       orientation="0,1"
       id="guide4235"
       inkscape:locked="false" />
  </sodipodi:namedview>
  <defs
     id="defs3338">
    <clipPath
       clipPathUnits="userSpaceOnUse"
       id="clipPath4755">
      <path
         style="color:#000000;display:inline;overflow:visible;visibility:visible;opacity:0.24899998;fill:#5e2c73;fill-opacity:1;fill-rule:nonzero;stroke:none;stroke-width:5;stroke-linecap:butt;stroke-linejoin:miter;stroke-miterlimit:4;stroke-dasharray:none;stroke-dashoffset:0;stroke-opacity:1;marker:none;enable-background:accumulate"
         d="M 360,50 594,284 V 215.89844 C 594,70.73665 573.2426,50 427.94531,50 Z"
         id="path4757"
         inkscape:connector-curvature="0" />
    </clipPath>
    <clipPath
       clipPathUnits="userSpaceOnUse"
       id="clipPath4767">
      <path
         style="color:#000000;display:inline;overflow:visible;visibility:visible;opacity:1;fill:#f6f6f6;fill-opacity:1;fill-rule:nonzero;stroke:none;stroke-width:5;stroke-linecap:butt;stroke-linejoin:miter;stroke-miterlimit:4;stroke-dasharray:none;stroke-dashoffset:0;stroke-opacity:1;marker:none;enable-background:accumulate"
         d="M 543.8125,454.1875 312.18945,685.81055 367.94531,681 C 512.70468,668.50896 526.55393,654.72881 539,510.10156 Z"
         id="path4769"
         inkscape:connector-curvature="0" />
    </clipPath>
    <linearGradient
       inkscape:collect="always"
       xlink:href="#linearGradient4226"
       id="linearGradient4232"
       x1="255.99998"
       y1="-255.99998"
       x2="405.35773"
       y2="-255.99998"
       gradientUnits="userSpaceOnUse"
       spreadMethod="reflect" />
    <linearGradient
       inkscape:collect="always"
       id="linearGradient4226">
      <stop
         style="stop-color:#a73812;stop-opacity:1"
         offset="0"
         id="stop4228" />
      <stop
         style="stop-color:#973310;stop-opacity:0"
         offset="1"
         id="stop4230" />
    </linearGradient>
  </defs>
  <metadata
     id="metadata3341">
    <rdf:RDF>
      <cc:Work
         rdf:about="">
        <dc:format>image/svg+xml</dc:format>
        <dc:type
           rdf:resource="http://purl.org/dc/dcmitype/StillImage" />
        <dc:title></dc:title>
      </cc:Work>
    </rdf:RDF>
  </metadata>
  <g
     inkscape:groupmode="layer"
     id="layer3"
     inkscape:label="Background"
     transform="translate(0,-463.99999)" />
  <g
     inkscape:groupmode="layer"
     id="layer1"
     inkscape:label="Pictogram"
     style="display:inline"
     transform="translate(-32,-495.99999)">
    <g
       id="g2237"
       transform="translate(-84.466498,82.466492)">
      <g
         id="g2297"
         transform="matrix(0.14593061,0,0,0.14593061,98.438482,395.21362)"
         style="stroke-width:6.85257149">
        <path
           inkscape:connector-curvature="0"
           style="color:#000000;display:inline;overflow:visible;visibility:visible;opacity:1;fill:#ffffff;fill-opacity:1;stroke:none;stroke-width:1.07071412;stroke-miterlimit:4;stroke-dasharray:none;stroke-opacity:1;marker:none;enable-background:new"
           d="m 239.8418,160.44302 c -77.78577,0 -88.89324,11.09441 -88.89324,88.80775 v 81.49848 c 0,77.71297 11.10747,88.80775 88.89324,88.80775 h 96.30217 c 77.78592,0 88.90747,-11.09478 88.90747,-88.80775 v -81.49848 c 0,-77.71334 -11.12155,-88.80775 -88.90747,-88.80775 z m -9.20421,57.8611 c 7.94386,0 14.34776,6.38958 14.34776,14.33352 0,7.94386 -6.4039,14.34767 -14.34776,14.34767 -7.94386,0 -14.33353,-6.40381 -14.33353,-14.34767 0,-7.94394 6.38967,-14.33352 14.33353,-14.33352 z m 57.36241,0 c 7.94386,0 14.33345,6.38958 14.33345,14.33352 0,7.94386 -6.38959,14.34767 -14.33345,14.34767 -7.94386,0 -14.34775,-6.40381 -14.34775,-14.34767 0,-7.94394 6.40389,-14.33352 14.34775,-14.33352 z m 57.34818,0 c 7.94386,0 14.34768,6.38958 14.34768,14.33352 0,7.94386 -6.40382,14.34767 -14.34768,14.34767 -7.94393,0 -14.33353,-6.40381 -14.33353,-14.34767 0,-7.94394 6.3896,-14.33352 14.33353,-14.33352 z m -114.71059,57.3624 c 7.94386,0 14.34776,6.3896 14.34776,14.33352 0,7.94386 -6.4039,14.33346 -14.34776,14.33346 -7.94386,0 -14.33353,-6.3896 -14.33353,-14.33346 0,-7.94392 6.38967,-14.33352 14.33353,-14.33352 z m 57.36241,0 c 7.94386,0 14.33345,6.3896 14.33345,14.33352 0,7.94386 -6.38959,14.33346 -14.33345,14.33346 -7.94386,0 -14.34775,-6.3896 -14.34775,-14.33346 0,-7.94392 6.40389,-14.33352 14.34775,-14.33352 z m 57.34818,0 c 7.94386,0 14.34768,6.3896 14.34768,14.33352 0,7.94386 -6.40382,14.33346 -14.34768,14.33346 -7.94393,0 -14.33353,-6.3896 -14.33353,-14.33346 0,-7.94392 6.3896,-14.33352 14.33353,-14.33352 z M 230.63759,333.0147 c 7.94386,0 14.34776,6.40382 14.34776,14.34775 0,7.94386 -6.4039,14.33345 -14.34776,14.33345 -7.94386,0 -14.33353,-6.38959 -14.33353,-14.33345 0,-7.94393 6.38967,-14.34775 14.33353,-14.34775 z m 57.36241,0 c 7.94386,0 14.33345,6.40382 14.33345,14.34775 0,7.94386 -6.38959,14.33345 -14.33345,14.33345 -7.94386,0 -14.34775,-6.38959 -14.34775,-14.33345 0,-7.94393 6.40389,-14.34775 14.34775,-14.34775 z m 57.34818,0 c 7.94386,0 14.34768,6.40382 14.34768,14.34775 0,7.94386 -6.40382,14.33345 -14.34768,14.33345 -7.94393,0 -14.33353,-6.38959 -14.33353,-14.33345 0,-7.94393 6.3896,-14.34775 14.33353,-14.34775 z"
           id="path3843-9" />
      </g>
    </g>
  </g>
</svg>
