<?xml version="1.0" encoding="UTF-8" standalone="no"?>
<svg
   xmlns:dc="http://purl.org/dc/elements/1.1/"
   xmlns:cc="http://creativecommons.org/ns#"
   xmlns:rdf="http://www.w3.org/1999/02/22-rdf-syntax-ns#"
   xmlns:svg="http://www.w3.org/2000/svg"
   xmlns="http://www.w3.org/2000/svg"
   xmlns:xlink="http://www.w3.org/1999/xlink"
   xmlns:sodipodi="http://sodipodi.sourceforge.net/DTD/sodipodi-0.dtd"
   xmlns:inkscape="http://www.inkscape.org/namespaces/inkscape"
   width="24"
   height="24"
   viewBox="0 0 6.3499999 6.3500002"
   version="1.1"
   id="svg3971"
   inkscape:version="0.92.4 (5da689c313, 2019-01-14)"
   sodipodi:docname="color-fill.svg">
  <defs
     id="defs3965">
    <linearGradient
       id="linearGradient3884"
       inkscape:collect="always">
      <stop
         id="stop3876"
         offset="0"
         style="stop-color:#ffffff;stop-opacity:1;" />
      <stop
         style="stop-color:#ffffff;stop-opacity:0.09803922"
         offset="0.49999997"
         id="stop3878" />
      <stop
         style="stop-color:#ffffff;stop-opacity:0.09803922"
         offset="0.71517861"
         id="stop3880" />
      <stop
         id="stop3882"
         offset="1"
         style="stop-color:#ffffff;stop-opacity:0.49803922" />
    </linearGradient>
    <linearGradient
       inkscape:collect="always"
       id="linearGradient3113">
      <stop
         style="stop-color:#2daaaa;stop-opacity:1"
         offset="0"
         id="stop3109" />
      <stop
         style="stop-color:#5bdbc1;stop-opacity:1"
         offset="1"
         id="stop3111" />
    </linearGradient>
    <linearGradient
       inkscape:collect="always"
       xlink:href="#linearGradient3113"
       id="linearGradient3115"
       x1="2.2971075"
       y1="291.27591"
       x2="4.0061202"
       y2="296.39746"
       gradientUnits="userSpaceOnUse"
       gradientTransform="matrix(0.99998595,0,0,0.94738036,2.0452162e-5,15.328647)" />
    <linearGradient
       inkscape:collect="always"
       xlink:href="#linearGradient3884"
       id="linearGradient3874"
       x1="12"
       y1="6"
       x2="12"
       y2="20"
       gradientUnits="userSpaceOnUse"
       gradientTransform="matrix(0.26457962,0,0,0.25066106,2.0452162e-5,290.68473)" />
  </defs>
  <sodipodi:namedview
     id="base"
     pagecolor="#ffffff"
     bordercolor="#666666"
     borderopacity="1.0"
     inkscape:pageopacity="0.0"
     inkscape:pageshadow="2"
     inkscape:zoom="1.4142136"
     inkscape:cx="-57.83618"
     inkscape:cy="10.128466"
     inkscape:document-units="px"
     inkscape:current-layer="layer1"
     showgrid="true"
     units="px"
     inkscape:window-width="1294"
     inkscape:window-height="704"
     inkscape:window-x="72"
     inkscape:window-y="27"
     inkscape:window-maximized="1"
     inkscape:snap-global="true"
     inkscape:document-rotation="0">
    <inkscape:grid
       type="xygrid"
       id="grid4605" />
  </sodipodi:namedview>
  <metadata
     id="metadata3968">
    <rdf:RDF>
      <cc:Work
         rdf:about="">
        <dc:format>image/svg+xml</dc:format>
        <dc:type
           rdf:resource="http://purl.org/dc/dcmitype/StillImage" />
        <dc:title />
      </cc:Work>
    </rdf:RDF>
  </metadata>
  <g
     inkscape:label="Layer 1"
     inkscape:groupmode="layer"
     id="layer1"
     transform="translate(0,-290.64998)">
    <ellipse
       style="opacity:1;vector-effect:none;fill:#2daaaa;fill-opacity:1;stroke:none;stroke-width:0.26458335;stroke-linecap:round;stroke-linejoin:round;stroke-miterlimit:4;stroke-dasharray:none;stroke-dashoffset:0;stroke-opacity:1"
       id="path3886"
       cx="3.1750002"
       cy="296.20624"
       rx="2.9104168"
       ry="0.5291667" />
    <path
       style="opacity:1;vector-effect:none;fill:url(#linearGradient3115);fill-opacity:1;stroke:none;stroke-width:0.52916664;stroke-linecap:round;stroke-linejoin:miter;stroke-miterlimit:4;stroke-dasharray:none;stroke-dashoffset:0;stroke-opacity:1"
       d="m 3.1749758,291.31139 c -0.2276827,1.12315 -1.4621102,2.07207 -1.6851983,3.07659 -0.1552983,0.69927 0.1794796,1.68597 1.6851983,1.68596 1.5057189,1e-5 1.8404967,-0.98669 1.6851984,-1.68596 -0.2230881,-1.00452 -1.4575156,-1.95344 -1.6851984,-3.07659 z"
       id="rect3075"
       inkscape:connector-curvature="0" />
    <path
       style="opacity:0.7;vector-effect:none;fill:url(#linearGradient3874);fill-opacity:1;stroke:none;stroke-width:0.52916664;stroke-linecap:round;stroke-linejoin:miter;stroke-miterlimit:4;stroke-dasharray:none;stroke-dashoffset:0;stroke-opacity:1"
       d="m 3.1760093,291.57869 c -0.1632599,0.49092 -0.4254911,0.95734 -0.7363787,1.38598 -0.3656036,0.50408 -0.7174603,0.98467 -0.8206103,1.44913 -0.071124,0.32026 -0.028753,0.70733 0.1974013,1.00656 0.2261537,0.29923 0.6372299,0.52924 1.3595877,0.52923 0.7223582,10e-6 1.1308506,-0.23 1.357004,-0.52923 0.226154,-0.29923 0.2685253,-0.6863 0.1974013,-1.00656 C 4.6272648,293.94934 4.2759248,293.46875 3.9103212,292.96467 3.5996,292.53625 3.3393502,292.0693 3.1760093,291.57869 Z m 5.292e-4,0.69323 c 0.1892054,0.3682 0.422645,0.71356 0.6624828,1.05356 0.2807986,0.42949 0.6511127,0.86704 0.6371614,1.3992 0.032467,0.41898 -0.306979,0.79951 -0.727594,0.89543 -0.4690951,0.10862 -1.0157555,0.11654 -1.4510539,-0.12729 -0.4372227,-0.24419 -0.5210315,-0.80761 -0.3472607,-1.22638 0.3142732,-0.70863 0.8721957,-1.28908 1.2200634,-1.98179 z"
       id="rect3075-97"
       inkscape:connector-curvature="0" />
    <path
       style="opacity:0.8;vector-effect:none;fill:none;fill-opacity:1;stroke:#000000;stroke-width:0.26458335;stroke-linecap:round;stroke-linejoin:round;stroke-miterlimit:4;stroke-dasharray:none;stroke-dashoffset:0;stroke-opacity:1"
       d="m 3.1749758,291.31139 c -0.2276827,1.12315 -1.4621103,2.07207 -1.6851984,3.07659 -0.1552983,0.69927 0.1794796,1.68597 1.6851984,1.68596 1.5057189,1e-5 1.8404968,-0.98669 1.6851984,-1.68596 -0.223088,-1.00452 -1.4575156,-1.95344 -1.6851984,-3.07659 z"
       id="rect3075-9"
       inkscape:connector-curvature="0" />
  </g>
</svg>
