<?xml version="1.0" encoding="UTF-8"?>
<!-- Created with Inkscape (http://www.inkscape.org/) -->
<svg id="svg2900" width="24" height="24" version="1.1" xmlns="http://www.w3.org/2000/svg" xmlns:xlink="http://www.w3.org/1999/xlink">
 <defs id="defs2902">
  <linearGradient id="linearGradient6541" x1="294.82" x2="296.45" y1="7.4534" y2="9.9225" gradientTransform="matrix(-1.6199 .6436 .87747 1.83 548.24 -170.71)" gradientUnits="userSpaceOnUse" xlink:href="#XMLID_897_"/>
  <linearGradient id="XMLID_897_" x1="292.97" x2="296.94" y1="4.7593" y2="10.711" gradientUnits="userSpaceOnUse">
   <stop id="stop45093" style="stop-color:#e8e8e5" offset="0"/>
   <stop id="stop45095" style="stop-color:#f0f0f0" offset="1"/>
  </linearGradient>
  <linearGradient id="linearGradient6538" x1="20.288" x2="24.326" y1="6.4604" y2="23.943" gradientTransform="matrix(.30002 -.15886 .15903 .44281 66.323 29.079)" gradientUnits="userSpaceOnUse" xlink:href="#linearGradient2229"/>
  <linearGradient id="linearGradient2229">
   <stop id="stop2231" style="stop-color:#e2e2e2" offset="0"/>
   <stop id="stop2233" style="stop-color:#d8d8d8" offset="1"/>
  </linearGradient>
  <linearGradient id="linearGradient6534" x1="292.97" x2="296.94" y1="4.7593" y2="10.711" gradientTransform="matrix(1.3433 -.79619 .98307 1.7345 -329.43 256.04)" gradientUnits="userSpaceOnUse" xlink:href="#XMLID_897_"/>
  <linearGradient id="linearGradient6531" x1="21.054" x2="24.948" y1="21.144" y2="27.088" gradientTransform="matrix(.32429 -.18978 .23187 .40394 63.404 30.478)" gradientUnits="userSpaceOnUse" xlink:href="#linearGradient2229"/>
  <linearGradient id="linearGradient6543" x1="22.225" x2="24.19" y1="23.843" y2="22.861" gradientTransform="matrix(.32937 -.1844 .22723 .42504 63.111 29.815)" gradientUnits="userSpaceOnUse">
   <stop id="stop695" style="stop-color:#babdb6" offset="0"/>
   <stop id="stop697" style="stop-color:#eeeeec" offset="1"/>
  </linearGradient>
 </defs>
 <g id="layer1" transform="translate(0,-8)">
  <g id="g6545" transform="matrix(.89307 .44991 -.44991 .89307 -40.089 -46.217)">
   <path id="path5602" d="m76.142 23.986c0.09772-0.0027 2.6692 1.3812 2.6826 2.5282-0.14798 3.4191-0.26729 6.8714-0.39339 10.308-0.2615 0.18126-0.53976 0.33395-0.83178 0.45934-0.61403 0.26514-1.3029 0.41523-2.0083 0.41128 0.16825-4.5705 0.33333-9.1496 0.55084-13.707z" style="fill:url(#linearGradient6541);stroke-linecap:round;stroke-linejoin:round;stroke-width:1.0434;stroke:#888a85"/>
   <path id="path5604" d="m76.693 36.496c0.02208 0.1217 0.56132 0.73637 0.84709 0.43034 0.13909-3.3502 0.16169-6.7566 0.29782-10.106 0.04116-0.2259-0.525-0.75673-0.81201-1.016 0 0-0.18361 7.069-0.33289 10.692z" style="fill:url(#linearGradient6538)"/>
   <polygon id="polygon5606" transform="matrix(1.3838 -.59951 .75772 1.5096 -342.71 195.72)" points="295.75 11.96 297.04 12.3 297.04 12.3 296.4 13.385 295.13 14.719 294.73 13.673" style="fill:#d1524c;stroke-linecap:round;stroke-linejoin:round;stroke-width:.64595;stroke:#973137"/>
   <path id="path5608" d="m67.64 28.266c-0.05269 0.06962-0.29602 2.7725 0.59766 3.4684 2.7613 1.9374 5.5338 3.9155 8.2978 5.8795 0.27759-0.08225 0.54141-0.19381 0.79092-0.33173 0.5258-0.28914 0.99998-0.70167 1.3617-1.2183-3.6759-2.6113-7.3569-5.2301-11.048-7.7978z" style="fill:url(#linearGradient6534);stroke-linecap:round;stroke-linejoin:round;stroke-width:.98887;stroke:#888a85"/>
   <path id="path5610" d="m68.971 31.046c2.6853 1.879 5.3474 3.8321 8.0302 5.7088 0.44851-0.12308 0.94196-0.15748 0.68535-0.3843-2.7865-1.915-6.1579-4.3017-8.9351-6.2308-0.03991-0.05846 0.02717 0.37111 0.21948 0.90627z" style="fill:url(#linearGradient6531)"/>
   <path id="path5612" d="m76.496 35.488c0.12349 0.23068 0.07861 0.49897-0.1002 0.59908-0.17882 0.10011-0.42379-0.0059-0.54703-0.23672-0.12348-0.23068-0.07861-0.49897 0.1002-0.59908 0.17882-0.10011 0.42379 0.0059 0.54703 0.23672z" style="fill:url(#linearGradient6543)"/>
   <path id="path5614" d="m74.812 39.14c1.6671-0.01317 3.3138 2.5643 3.4271 4.7734 0.11403 2.2101-0.82558 3.6525-2.4911 3.6688-1.6677 0.01347-3.111-1.7652-3.2243-3.9743-0.11388-2.2089 0.62417-4.4497 2.2883-4.4679zm0.0741 1.4073c-0.73944 7e-3 -0.98916 1.5611-0.91148 3.0464 0.0762 1.4861 0.96123 2.5901 1.6995 2.5825 0.7402-5e-3 1.1917-0.76321 1.1141-2.2485-0.0757-1.4864-1.1627-3.3874-1.9021-3.3804z" style="fill:#d1524c;stroke-width:.97634;stroke:#973137"/>
   <polygon id="polygon5616" transform="matrix(1.1476 -.79528 .96692 1.4549 -275.38 255.52)" points="296.96 12.3 296.96 12.3 297.6 13.385 298.87 14.719 299.27 13.673 298.25 11.96" style="fill:#d1524c;stroke-linecap:round;stroke-linejoin:round;stroke-width:.63324;stroke:#973137"/>
   <path id="path5618" d="m80.776 36.517c-0.79506 1.3393 0.03789 3.562 1.8622 4.9642 1.8247 1.4032 3.9484 1.4562 4.7454 0.12005 0.79558-1.3395-0.03741-3.5609-1.8617-4.963-1.8237-1.4024-3.9479-1.4551-4.7459-0.12119zm1.1612 0.89473c0.35364-0.59332 1.6646-0.55346 2.8903 0.39042 1.2272 0.94316 1.7493 2.3132 1.3957 2.9053-0.3523 0.59513-1.665 0.5537-2.8908-0.39018-1.2277-0.94293-1.7489-2.3122-1.3953-2.9055z" style="fill:#d1524c;stroke-width:.99574;stroke:#973137"/>
   <path id="path3611" d="m74.812 39.14c1.6671-0.01317 3.3138 2.5643 3.4271 4.7734 0.11403 2.2101-0.82558 3.6525-2.4911 3.6688-1.6677 0.01347-3.111-1.7652-3.2243-3.9743-0.11388-2.2089 0.62417-4.4497 2.2883-4.4679zm0.0741 1.4073c-0.73944 7e-3 -0.98916 1.5611-0.91148 3.0464 0.0762 1.4861 0.96123 2.5901 1.6995 2.5825 0.7402-5e-3 1.1917-0.76321 1.1141-2.2485-0.0757-1.4864-1.1627-3.3874-1.9021-3.3804z" style="fill:#d1524c"/>
   <path id="path3613" d="m80.776 36.517c-0.79506 1.3393 0.03789 3.562 1.8622 4.9642 1.8247 1.4032 3.9484 1.4562 4.7454 0.12005 0.79558-1.3395-0.03741-3.5609-1.8617-4.963-1.8237-1.4024-3.9479-1.4551-4.7459-0.12119zm1.1612 0.89473c0.35364-0.59332 1.6646-0.55346 2.8903 0.39042 1.2272 0.94316 1.7493 2.3132 1.3957 2.9053-0.3523 0.59513-1.665 0.5537-2.8908-0.39018-1.2277-0.94293-1.7489-2.3122-1.3953-2.9055z" style="fill:#d1524c"/>
  </g>
 </g>
</svg>
