<?xml version="1.0" encoding="UTF-8"?>
<!-- Created with Inkscape (http://www.inkscape.org/) -->
<svg id="svg2" width="24" height="24" version="1.0" xmlns="http://www.w3.org/2000/svg" xmlns:xlink="http://www.w3.org/1999/xlink">
 <defs id="defs4">
  <radialGradient id="radialGradient10239" cx="605.71" cy="486.65" r="117.14" gradientTransform="matrix(-2.7744 0 0 1.9697 112.76 -872.89)" gradientUnits="userSpaceOnUse" xlink:href="#linearGradient5060"/>
  <linearGradient id="linearGradient5060">
   <stop id="stop5062" offset="0"/>
   <stop id="stop5064" style="stop-opacity:0" offset="1"/>
  </linearGradient>
  <radialGradient id="radialGradient10237" cx="605.71" cy="486.65" r="117.14" gradientTransform="matrix(2.7744 0 0 1.9697 -1891.6 -872.89)" gradientUnits="userSpaceOnUse" xlink:href="#linearGradient5060"/>
  <linearGradient id="linearGradient10235" x1="302.86" x2="302.86" y1="366.65" y2="609.51" gradientTransform="matrix(2.7744 0 0 1.9697 -1892.2 -872.89)" gradientUnits="userSpaceOnUse">
   <stop id="stop5050" style="stop-opacity:0" offset="0"/>
   <stop id="stop5056" offset=".5"/>
   <stop id="stop5052" style="stop-opacity:0" offset="1"/>
  </linearGradient>
  <radialGradient id="radialGradient3797" cx="12.5" cy="15.928" r="18.5" gradientTransform="matrix(1.0627 0 0 .90795 -8.6172 -5.7767)" gradientUnits="userSpaceOnUse" xlink:href="#linearGradient6945"/>
  <linearGradient id="linearGradient6945">
   <stop id="stop6947" style="stop-color:#fff" offset="0"/>
   <stop id="stop6949" style="stop-color:#d3d7cf" offset="1"/>
  </linearGradient>
  <radialGradient id="radialGradient3803" cx="13.107" cy="61.48" r="18.5" gradientTransform="matrix(2.6083 0 0 2.2188 -74.941 -118.62)" gradientUnits="userSpaceOnUse" xlink:href="#linearGradient6945"/>
  <linearGradient id="linearGradient3785" x1="14.125" x2="14.125" y1="79.813" y2="75.499" gradientTransform="matrix(.52778 0 0 .52 -1.4028 -22.84)" gradientUnits="userSpaceOnUse">
   <stop id="stop6936" style="stop-color:#babdb6" offset="0"/>
   <stop id="stop6938" style="stop-color:#babdb6;stop-opacity:0" offset="1"/>
  </linearGradient>
  <radialGradient id="radialGradient3138" cx="23.071" cy="35.127" r="10.319" gradientTransform="matrix(.91481 .01265 -.008215 .21356 2.2539 27.189)" gradientUnits="userSpaceOnUse">
   <stop id="stop2093" offset="0"/>
   <stop id="stop2095" style="stop-opacity:0" offset="1"/>
  </radialGradient>
  <linearGradient id="linearGradient3811" x1="18.379" x2="18.379" y1="25.691" y2="90.678" gradientTransform="matrix(.17299 0 0 .17299 7.176 6.8944)" gradientUnits="userSpaceOnUse">
   <stop id="stop3402" style="stop-color:#b95858" offset="0"/>
   <stop id="stop3404" style="stop-color:#763434" offset="1"/>
  </linearGradient>
  <linearGradient id="linearGradient3809" x1="29.747" x2="29.747" y1="24.14" y2="90.697" gradientTransform="matrix(.17299 0 0 .17299 7.176 6.8944)" gradientUnits="userSpaceOnUse">
   <stop id="stop3682" style="stop-color:#e86666" offset="0"/>
   <stop id="stop3684" style="stop-color:#ab2a2a" offset="1"/>
  </linearGradient>
  <linearGradient id="linearGradient3806" x1="63.397" x2="63.397" y1="-9.3833" y2="5.9662" gradientTransform="matrix(.68607 0 0 .68605 -27.174 17.65)" gradientUnits="userSpaceOnUse">
   <stop id="stop4875" style="stop-color:#fff" offset="0"/>
   <stop id="stop4877" style="stop-color:#fff;stop-opacity:0" offset="1"/>
  </linearGradient>
 </defs>
 <g id="layer1">
  <g id="g11038" transform="matrix(.011328 0 0 .0054381 21.575 17.347)" style="opacity:.7">
   <rect id="rect11040" x="-1559.3" y="-150.7" width="1339.6" height="478.36" style="fill:url(#linearGradient10235);opacity:.39196"/>
   <path id="path11042" d="m-219.62-150.68v478.33c142.87 0.90045 345.4-107.17 345.4-239.2 0-132.03-159.44-239.13-345.4-239.13z" style="fill:url(#radialGradient10237);opacity:.40206"/>
   <path id="path11044" d="m-1559.3-150.68v478.33c-142.87 0.90045-345.4-107.17-345.4-239.2 0-132.03 159.44-239.13 345.4-239.13z" style="fill:url(#radialGradient10239);opacity:.40206"/>
  </g>
  <rect id="rect11046" x="1.5" y="5.5" width="19" height="13" rx=".80966" ry=".79772" style="fill-rule:evenodd;fill:url(#radialGradient3797);stroke-dashoffset:.7;stroke-opacity:.99237;stroke:#888a85"/>
  <path id="path11050" d="m1.7639 18.24 5.3602-5.8988c0.24772-0.24407 0.49313-0.56419 1.0391-0.78 0.54593-0.21581 1.3636-0.34125 2.8368-0.34125 1.4673-1e-6 2.2897 0.12565 2.8368 0.34125 0.54706 0.2156 0.79063 0.53523 1.0391 0.78l5.3602 5.8988-5.3602-5.3788c-1.0788-1.0242-2.3846-1.1815-3.8759-1.1212-1.4096 0.02576-2.8839-1.72e-4 -3.8759 1.1212l-5.3602 5.3788z" style="fill-rule:evenodd;fill:#888a85"/>
  <path id="path11052" d="m1.7639 18.251 5.3602-4.8588c0.99193-1.1214 2.4663-1.0955 3.8759-1.1212 1.4912-0.06027 2.7971 0.09706 3.8759 1.1212l5.3602 4.8588-5.3602-5.3788c-1.0788-1.0242-2.3846-1.1815-3.8759-1.1212-1.4096 0.025761-2.8839-1.72e-4 -3.8759 1.1212l-5.3602 5.3788z" style="fill-rule:evenodd;fill:#fff"/>
  <path id="path11054" transform="matrix(.51246 0 0 .52893 24.068 -.84298)" d="m-42.094 12.938c-0.54928 0-0.96875 0.41947-0.96875 0.96875v1.4062l10.875 10.875c0.52722 0.52722 0.81024 0.94182 1.6562 1.2812s2.2966 0.59375 5.0312 0.59375c2.7232 1e-6 4.1818-0.25397 5.0312-0.59375s1.1302-0.75521 1.6562-1.2812l10.875-10.875v-1.4062c0-0.54928-0.41947-0.96875-0.96875-0.96875h-33.188z" style="fill-rule:evenodd;fill:url(#radialGradient3803)"/>
  <path id="path11056" d="m1.7639 7.06 5.3602 5.8988c0.24772 0.24407 0.49313 0.56419 1.0391 0.78 0.54593 0.21581 1.3636 0.34125 2.8368 0.34125 1.4673 1e-6 2.2897-0.12565 2.8368-0.34125 0.54706-0.2156 0.79063-0.53523 1.0391-0.78l5.3602-5.8988-5.3602 5.3788c-1.0788 1.0242-2.3846 1.1215-3.8759 1.0612-1.4096-0.025761-2.8839 0.060173-3.8759-1.0612l-5.3602-5.3788z" style="fill-opacity:.99608;fill-rule:evenodd;fill:#888a85"/>
  <path id="path11060" transform="matrix(.5 0 0 .47826 -.75 -20.043)" d="m6.9062 55.5c-0.25653 0-0.40625 0.14972-0.40625 0.40625v22.188c0 0.25653 0.14972 0.40625 0.40625 0.40625h33.188c0.25653 0 0.40625-0.14972 0.40625-0.40625v-22.188c0-0.25653-0.14972-0.40625-0.40625-0.40625h-33.188z" style="fill:none;opacity:.7;stroke-dashoffset:.7;stroke-linejoin:round;stroke-opacity:.99237;stroke-width:2.0449;stroke:#fff"/>
  <path id="path11062" d="m1.7639 16.111v1.6575c0 0.27092 0.20332 0.47125 0.4783 0.47125h17.516c0.27498 0 0.4783-0.20033 0.4783-0.47125v-1.6575h-18.472z" style="fill-rule:evenodd;fill:url(#linearGradient3785);opacity:.55597"/>
  <path id="path2447" transform="matrix(.8237 0 0 .76844 -3.4111 -4.6325)" d="m33.278 34.941a10.319 2.3202 0 1 1-20.639 0 10.319 2.3202 0 1 1 20.639 0z" style="fill:url(#radialGradient3138);opacity:.3"/>
  <path id="path2937" d="m15.5 8.2291c-3.8624 0-7 3.1377-7 7 0 3.8624 3.1377 7 7 7 3.8624 0 7-3.1377 7-7 0-3.8624-3.1377-7-7-7zm0 2.2473c2.6259 0 4.7527 2.1268 4.7527 4.7527 0 1.1021-0.38185 2.1081-1.0108 2.914l-6.0215-7.086c0.67654-0.37017 1.4536-0.58065 2.2796-0.58065zm-3.8065 1.914 6 7.0538c-0.65624 0.34189-1.4021 0.53764-2.1936 0.53764-2.6259 0-4.7527-2.1268-4.7527-4.7527 0-1.0668 0.35336-2.0458 0.94624-2.8387z" style="fill:url(#linearGradient3809);stroke-linecap:round;stroke-linejoin:round;stroke-width:.99995;stroke:url(#linearGradient3811)"/>
  <path id="path8655" d="m21.5 15.241c0 3.3138-2.6865 6.0002-5.9999 6.0002-3.3137 0-6.0001-2.6864-6.0001-6.0002 0-3.3137 2.6863-5.9998 6.0001-5.9998 3.3134 0 5.9999 2.6861 5.9999 5.9998z" style="fill:none;opacity:.52747;stroke:url(#linearGradient3806)"/>
 </g>
</svg>
