<?xml version="1.0" encoding="UTF-8"?>
<!-- Created with Inkscape (http://www.inkscape.org/) -->
<svg id="svg3337" width="24" height="24" version="1.0" xmlns="http://www.w3.org/2000/svg" xmlns:xlink="http://www.w3.org/1999/xlink">
 <defs id="defs3339">
  <linearGradient id="linearGradient2547" x1="18.031" x2="20.055" y1="16.408" y2="24.628" gradientTransform="matrix(.44503 0 0 .40237 2.8192 3.8499)" gradientUnits="userSpaceOnUse">
   <stop id="stop2687" style="stop-color:#fff;stop-opacity:.27451" offset="0"/>
   <stop id="stop2689" style="stop-color:#fff;stop-opacity:.078431" offset="1"/>
  </linearGradient>
  <radialGradient id="radialGradient2550" cx="4.02" cy="5.5927" r="10.273" gradientTransform="matrix(-.016802 1.3943 -1.7966 -.021651 14.152 2.1566)" gradientUnits="userSpaceOnUse">
   <stop id="stop3754" style="stop-color:#fff" offset="0"/>
   <stop id="stop3760" style="stop-color:#fff" offset=".84754"/>
   <stop id="stop3756" style="stop-color:#fff;stop-opacity:0" offset="1"/>
  </radialGradient>
  <linearGradient id="linearGradient2555" x1="9.7046" x2="9.7046" y1="20.882" y2="4.303" gradientTransform="matrix(.99458 0 0 .99458 -.33927 1.7178)" gradientUnits="userSpaceOnUse">
   <stop id="stop2605" style="stop-color:#bb2b12" offset="0"/>
   <stop id="stop2607" style="stop-color:#cd7233" offset="1"/>
  </linearGradient>
  <radialGradient id="radialGradient2553" cx="7.8186" cy="8.5609" r="11.268" gradientTransform="matrix(1.69 0 0 1.0436 -5.449 .96175)" gradientUnits="userSpaceOnUse">
   <stop id="stop2612" style="stop-color:#f0c178" offset="0"/>
   <stop id="stop2614" style="stop-color:#e18941" offset=".5"/>
   <stop id="stop2616" style="stop-color:#ec4f18" offset="1"/>
  </radialGradient>
  <linearGradient id="linearGradient2560" x1="9.8764" x2="9.8764" y1="2.6015" y2="23.062" gradientUnits="userSpaceOnUse">
   <stop id="stop5159" style="stop-color:#c1c1c1" offset="0"/>
   <stop id="stop5161" style="stop-color:#909090" offset="1"/>
  </linearGradient>
  <linearGradient id="linearGradient2558" x1="-28.531" x2="-28.531" y1="17.956" y2="37.503" gradientTransform="translate(34.378 -14.501)" gradientUnits="userSpaceOnUse">
   <stop id="stop11113" style="stop-color:#fff" offset="0"/>
   <stop id="stop11115" style="stop-color:#cdcdcd" offset=".91014"/>
   <stop id="stop11117" style="stop-color:#a1a1a1" offset="1"/>
  </linearGradient>
  <radialGradient id="radialGradient2532" cx="605.71" cy="486.65" r="117.14" gradientTransform="matrix(-2.7744 0 0 1.9697 112.76 -872.89)" gradientUnits="userSpaceOnUse" xlink:href="#linearGradient5060"/>
  <linearGradient id="linearGradient5060">
   <stop id="stop5062" offset="0"/>
   <stop id="stop5064" style="stop-opacity:0" offset="1"/>
  </linearGradient>
  <radialGradient id="radialGradient2530" cx="605.71" cy="486.65" r="117.14" gradientTransform="matrix(2.7744 0 0 1.9697 -1891.6 -872.89)" gradientUnits="userSpaceOnUse" xlink:href="#linearGradient5060"/>
  <linearGradient id="linearGradient2528" x1="302.86" x2="302.86" y1="366.65" y2="609.51" gradientTransform="matrix(2.7744 0 0 1.9697 -1892.2 -872.89)" gradientUnits="userSpaceOnUse">
   <stop id="stop5050" style="stop-opacity:0" offset="0"/>
   <stop id="stop5056" offset=".5"/>
   <stop id="stop5052" style="stop-opacity:0" offset="1"/>
  </linearGradient>
  <linearGradient id="linearGradient2995" x1="24.104" x2="24.104" y1="15.169" y2="32.485" gradientTransform="matrix(.46913 0 0 .4663 7.7005 6.8085)" gradientUnits="userSpaceOnUse">
   <stop id="stop2266" style="stop-color:#d7e866" offset="0"/>
   <stop id="stop2268" style="stop-color:#8cab2a" offset="1"/>
  </linearGradient>
  <linearGradient id="linearGradient2992" x1="24.139" x2="24.139" y1="7.0775" y2="47.273" gradientTransform="matrix(.2818 0 0 .2801 12.197 11.015)" gradientUnits="userSpaceOnUse">
   <stop id="stop4224" style="stop-color:#fff" offset="0"/>
   <stop id="stop4226" style="stop-color:#fff;stop-opacity:0" offset="1"/>
  </linearGradient>
 </defs>
 <g id="layer1">
  <g id="g2589" transform="translate(.036304 -1.2166e-7)">
   <g id="g3490" transform="matrix(.54593 0 0 .51685 -1.002 -.57818)" style="stroke-width:1.8826">
    <g id="g5022" transform="matrix(.021652 0 0 .014857 43.008 42.685)" style="stroke-width:104.96">
     <rect id="rect2527" x="-1559.3" y="-150.7" width="1339.6" height="478.36" style="fill:url(#linearGradient2528);opacity:.40206"/>
     <path id="path2529" d="m-219.62-150.68v478.33c142.87 0.90045 345.4-107.17 345.4-239.2 0-132.03-159.44-239.13-345.4-239.13z" style="fill:url(#radialGradient2530);opacity:.40206"/>
     <path id="path2531" d="m-1559.3-150.68v478.33c-142.87 0.90045-345.4-107.17-345.4-239.2 0-132.03 159.44-239.13 345.4-239.13z" style="fill:url(#radialGradient2532);opacity:.40206"/>
    </g>
   </g>
   <path id="path3496" d="m0.67728 2.5695c-0.08554 0-0.15887 0.09275-0.15887 0.18854 0 5.8692-0.04308 12.244-0.04914 18.225 0.02908 0.89504 0.53724 1.5051 0.88966 1.5083 1.0127 0.009195 0.53927-0.004029 1.0485 0 6.4703-0.016099 13.579-0.078173 20.049-0.094271 0.054214 0.006918-1.4767-0.10772-1.4616-1.4455 1e-6 -4.6729-0.50205-11.187-0.50205-15.86 0-0.18688-0.01544-0.29089-0.031774-0.37708-0.012614-0.06656-0.028696-0.09887-0.063547-0.1257-0.027862-0.02445-0.054549-0.05704-0.095321-0.06285h-8.8201c-0.81532 0-1.0021-1.992-2.2137-1.992l-8.5913 0.03569-3e-6 3e-6z" style="fill:url(#linearGradient2558);stroke-linecap:round;stroke-linejoin:round;stroke-width:1.0111;stroke:url(#linearGradient2560)"/>
   <path id="path3498" d="m3.4994 6.5471c10.57 0 13.03 4.6e-4 19.994-0.02754 0 1.5704 0.25816 16.04-0.48411 16.04-0.71405 0-14.046-0.094351-21.009-0.066352 1.4717 0 1.4993-0.62275 1.4993-15.946v1e-6z" style="fill:url(#radialGradient2553);stroke-linecap:round;stroke-linejoin:round;stroke:url(#linearGradient2555)"/>
   <path id="path3211" d="m22.939 7.6088s-16.832 0.09361-18.397-0.09237c-0.08294 13.829-0.50095 14.439-0.50095 14.439" style="fill:none;opacity:.4;stroke-width:.9812;stroke:url(#radialGradient2550)"/>
   <path id="path2608" d="m4.2517 6c-0.68488 0-1.2517 0.51243-1.2517 1.1317v6.4378c0.002623 0.11517 0.066052 0.24648 0.16689 0.32692 0.10083 0.080441 0.22972 0.11438 0.3755 0.10059 0.004635 1.07e-4 0.0092723 1.07e-4 0.013907 0l20.026-2.8669c0.23221-0.03311 0.41397-0.215 0.41722-0.42751v-3.571c0-0.61922-0.56677-1.1317-1.2517-1.1317h-18.497z" style="fill-rule:evenodd;fill:url(#linearGradient2547)"/>
  </g>
  <rect id="rect2545" x="2" y="4" width="7" height="1" rx=".53846" ry=".5" style="display:block;fill:#e9a961"/>
  <path id="path2262" d="m16.5 15.5v-3h4v3h3v4h-3v3h-4v-3h-2.9895v-4h2.9895z" style="fill-rule:evenodd;fill:url(#linearGradient2995);stroke-linejoin:round;stroke:#699536"/>
  <path id="path2272" d="m17.5 16.5v-3h2v3h3v2h-3v3h-2v-3h-3v-2h3z" style="fill:none;opacity:.4;stroke:url(#linearGradient2992)"/>
 </g>
</svg>
