<?xml version="1.0" encoding="UTF-8"?>
<!-- Created with Inkscape (http://www.inkscape.org/) -->
<svg id="svg2" width="24" height="24" version="1.0" xmlns="http://www.w3.org/2000/svg" xmlns:xlink="http://www.w3.org/1999/xlink">
 <defs id="defs4">
  <radialGradient id="radialGradient2403" cx="11.25" cy="19.031" r="8.0625" gradientTransform="matrix(1.4062 0 0 .3867 -3.8197 13.523)" gradientUnits="userSpaceOnUse">
   <stop id="stop2487" style="stop-color:#0d0d0d" offset="0"/>
   <stop id="stop2489" style="stop-color:#0d0d0d;stop-opacity:0" offset="1"/>
  </radialGradient>
  <linearGradient id="linearGradient2400" x1="24.104" x2="24.104" y1="15.181" y2="34.225" gradientTransform="matrix(.89889 0 0 .89347 -9.4637 -8.566)" gradientUnits="userSpaceOnUse">
   <stop id="stop2266" style="stop-color:#d7e866" offset="0"/>
   <stop id="stop2268" style="stop-color:#8cab2a" offset="1"/>
  </linearGradient>
  <linearGradient id="linearGradient2397" x1="24.139" x2="24.139" y1="6.5317" y2="45.69" gradientTransform="matrix(.53994 0 0 .53668 -.84892 -.5062)" gradientUnits="userSpaceOnUse">
   <stop id="stop4224" style="stop-color:#fff" offset="0"/>
   <stop id="stop4226" style="stop-color:#fff;stop-opacity:0" offset="1"/>
  </linearGradient>
 </defs>
 <g id="layer1">
  <path id="path2621" d="m23.337 20.882c0 1.7219-5.0759 3.1178-11.337 3.1178-6.2615 0-11.337-1.3959-11.337-3.1178-1.4e-7 -1.7219 5.0759-3.1178 11.337-3.1178 6.2615 0 11.337 1.3959 11.337 3.1178z" style="fill:url(#radialGradient2403);opacity:.3"/>
  <path id="path2262" d="m8.5664 8.4948v-5.9948h6.9336v5.9948h6v7.0052h-6v6h-6.9397l-0.027869-6h-6.0324v-7.0052h6.0664z" style="fill-rule:evenodd;fill:url(#linearGradient2400);stroke-linejoin:round;stroke:#699536"/>
  <path id="path2272" d="m9.5 9.4948v-5.9948h5v5.9948h6v5.0052h-6v6h-5v-6h-6v-5.0052h6z" style="fill:none;opacity:.4;stroke:url(#linearGradient2397)"/>
 </g>
</svg>
