<?xml version="1.0" encoding="UTF-8"?>
<!-- Created with Inkscape (http://www.inkscape.org/) -->
<svg id="svg2562" width="24" height="24" version="1.0" xmlns="http://www.w3.org/2000/svg" xmlns:xlink="http://www.w3.org/1999/xlink">
 <defs id="defs2564">
  <radialGradient id="radialGradient2724-226-535-494" cx="605.71" cy="486.65" r="117.14" gradientTransform="matrix(-.065534 0 0 .024706 -21.829 10.577)" gradientUnits="userSpaceOnUse">
   <stop id="stop4080" style="stop-color:#1e1e1e" offset="0"/>
   <stop id="stop4082" style="stop-color:#1e1e1e;stop-opacity:0" offset="1"/>
  </radialGradient>
  <radialGradient id="radialGradient2722-303-187-273" cx="605.71" cy="486.65" r="117.14" gradientTransform="matrix(.065534 0 0 .024706 -69.175 10.577)" gradientUnits="userSpaceOnUse">
   <stop id="stop4074" style="stop-color:#1e1e1e" offset="0"/>
   <stop id="stop4076" style="stop-color:#1e1e1e;stop-opacity:0" offset="1"/>
  </radialGradient>
  <linearGradient id="linearGradient2720-766-26-906" x1="302.86" x2="302.86" y1="366.65" y2="609.51" gradientTransform="matrix(.065534 0 0 .024706 -69.188 10.577)" gradientUnits="userSpaceOnUse">
   <stop id="stop4066" style="stop-color:#1e1e1e;stop-opacity:0" offset="0"/>
   <stop id="stop4068" style="stop-color:#1e1e1e" offset=".5"/>
   <stop id="stop4070" style="stop-color:#1e1e1e;stop-opacity:0" offset="1"/>
  </linearGradient>
  <linearGradient id="linearGradient2477" x1="28.103" x2="28.103" y1="45" y2="14.038" gradientTransform="matrix(.46667 0 0 .50064 .8 -3.7786)" gradientUnits="userSpaceOnUse">
   <stop id="stop4108" style="stop-color:#727272" offset="0"/>
   <stop id="stop4110" style="stop-color:#bebebe" offset="1"/>
  </linearGradient>
  <linearGradient id="linearGradient2475" x1="20.053" x2="19.875" y1="8.1634" y2="45.6" gradientTransform="matrix(.46667 0 0 .45455 .8 -1.7273)" gradientUnits="userSpaceOnUse">
   <stop id="stop4498" style="stop-color:#fff" offset="0"/>
   <stop id="stop4502" style="stop-color:#cfcfcf" offset=".87427"/>
   <stop id="stop4504" style="stop-color:#999" offset="1"/>
  </linearGradient>
  <linearGradient id="linearGradient2472" x1="25.577" x2="25.577" y1="15" y2="44.001" gradientTransform="matrix(.44186 0 0 .46429 1.3953 -2.6964)" gradientUnits="userSpaceOnUse">
   <stop id="stop4102" style="stop-color:#fff" offset="0"/>
   <stop id="stop4104" style="stop-color:#fff;stop-opacity:0" offset="1"/>
  </linearGradient>
  <linearGradient id="linearGradient2469" x1="23.929" x2="23.929" y1="30.773" y2="45.531" gradientTransform="matrix(.46574 0 0 .48509 .82234 -3.1022)" gradientUnits="userSpaceOnUse" xlink:href="#linearGradient3495-841-851-719"/>
  <linearGradient id="linearGradient3495-841-851-719">
   <stop id="stop4120" style="stop-color:#1e1e1e" offset="0"/>
   <stop id="stop4122" style="stop-color:#1e1e1e;stop-opacity:0" offset="1"/>
  </linearGradient>
  <linearGradient id="linearGradient2466" x1="23.904" x2="23.904" y1="35.75" y2="16.007" gradientTransform="matrix(.46574 0 0 .48509 .82234 -1.4684)" gradientUnits="userSpaceOnUse" xlink:href="#linearGradient3495-841-851-719"/>
  <linearGradient id="linearGradient3706" x1="24.097" x2="23.673" y1="9.5958" y2="22.839" gradientTransform="matrix(.51158 0 0 .56818 -22.31 10.767)" gradientUnits="userSpaceOnUse">
   <stop id="stop3232" style="stop-color:#ffefa7" offset="0"/>
   <stop id="stop3234" style="stop-color:#ffc64c" offset="1"/>
  </linearGradient>
  <linearGradient id="linearGradient2877" x1="15.837" x2="15.938" y1="9.9464" y2="13.749" gradientTransform="translate(-26.089 10.376)" gradientUnits="userSpaceOnUse">
   <stop id="stop2252" style="stop-color:#ffc349" offset="0"/>
   <stop id="stop2256" style="stop-color:#ff921a" offset="1"/>
  </linearGradient>
 </defs>
 <g id="layer1">
  <g id="g3511" transform="matrix(.5004 0 0 .5 34.77 7.5821)" style="stroke-width:1.0304">
   <rect id="rect2512" x="-61.324" y="19.636" width="31.644" height="6" style="fill:url(#linearGradient2720-766-26-906);opacity:.40206"/>
   <path id="path2514" d="m-29.68 19.636v5.9997c3.3749 0.01129 8.1588-1.3442 8.1588-3.0002 0-1.656-3.7661-2.9994-8.1588-2.9994z" style="fill:url(#radialGradient2722-303-187-273);opacity:.40206"/>
   <path id="path2516" d="m-61.324 19.636v5.9997c-3.3749 0.01129-8.1588-1.3442-8.1588-3.0002 0-1.656 3.7661-2.9994 8.1588-2.9994z" style="fill:url(#radialGradient2724-226-535-494);opacity:.40206"/>
  </g>
  <rect id="rect2396" x="1.507" y="5.507" width="20.993" height="12.993" rx=".46667" ry=".45455" style="fill-rule:evenodd;fill:url(#linearGradient2475);stroke-linecap:square;stroke-linejoin:round;stroke:url(#linearGradient2477)"/>
  <rect id="rect3331" x="2.5" y="6.3592" width="19" height="11.141" rx=".036476" ry=".035005" style="fill:none;opacity:.4;stroke-linecap:square;stroke:url(#linearGradient2472)"/>
  <path id="path3341" d="m8.6224 13.013-6.5002 5.4556m13.348-5.6359 6.3414 5.6359" style="fill:none;opacity:.5;stroke:url(#linearGradient2469)"/>
  <path id="path3493" d="m1.8492 6.1459 10.151 9.1361 9.9371-9.1361" style="fill:none;opacity:.5;stroke:url(#linearGradient2466)"/>
  <g id="g2554" transform="translate(28.255 -14.876)">
   <path id="path3660" d="m-10.202 15.7c0.39035 0 1.1776 3.3771 1.4934 3.6065 0.3158 0.22944 3.7709-0.06545 3.8915 0.30579 0.12062 0.37124-2.8479 2.1635-2.9685 2.5348-0.12062 0.37124 1.2275 3.5661 0.91171 3.7955-0.3158 0.22944-2.9377-2.04-3.328-2.04-0.39035 0-3.0122 2.2694-3.328 2.04-0.3158-0.22944 1.0323-3.4243 0.91171-3.7955-0.12062-0.37124-3.0892-2.1635-2.9685-2.5348 0.12062-0.37124 3.5757-0.07635 3.8915-0.30579 0.3158-0.22944 1.103-3.6065 1.4934-3.6065z" style="fill:url(#linearGradient2877);stroke-linejoin:round;stroke:#c08607"/>
   <path id="path1322" d="m-10.117 16.383-1.2169 3.4944-3.0115 0.13152 2.2688 1.8637c1.0803-0.78479 2.5865-1.2341 3.6212 0.20322l2.7769-2.1797-3.2929 0.1099-1.1456-3.623z" style="fill:url(#linearGradient3706)"/>
  </g>
 </g>
</svg>
