<?xml version="1.0" encoding="UTF-8"?>
<!-- Created with Inkscape (http://www.inkscape.org/) -->
<svg id="svg2890" width="24" height="24" version="1.0" xmlns="http://www.w3.org/2000/svg" xmlns:xlink="http://www.w3.org/1999/xlink">
 <defs id="defs2892">
  <linearGradient id="linearGradient3134" x1="13.472" x2="57.726" y1="25.411" y2="25.411" gradientTransform="matrix(0 .3705 -.36175 0 -4.1302 3.3844)" gradientUnits="userSpaceOnUse">
   <stop id="stop4224" style="stop-color:#fff" offset="0"/>
   <stop id="stop4226" style="stop-color:#fff;stop-opacity:0" offset="1"/>
  </linearGradient>
  <linearGradient id="linearGradient3132" x1="28.315" x2=".81572" y1="20.71" y2="20.71" gradientTransform="matrix(0 -.31945 -.31335 0 -6.1523 19.802)" gradientUnits="userSpaceOnUse">
   <stop id="stop2266" style="stop-color:#d7e866" offset="0"/>
   <stop id="stop2268" style="stop-color:#8cab2a" offset="1"/>
  </linearGradient>
  <radialGradient id="radialGradient2888" cx="23.335" cy="41.636" r="22.627" gradientTransform="matrix(.48614 0 0 .15467 .65625 13.06)" gradientUnits="userSpaceOnUse">
   <stop id="stop23421" offset="0"/>
   <stop id="stop23423" style="stop-opacity:0" offset="1"/>
  </radialGradient>
  <linearGradient id="linearGradient2885" x1="-21.916" x2="-21.916" y1="3" y2="45.033" gradientTransform="matrix(.5122 0 0 .5122 25.453 -.29268)" gradientUnits="userSpaceOnUse">
   <stop id="stop3774" style="stop-color:#b4b4b4" offset="0"/>
   <stop id="stop3776" style="stop-color:#969696" offset="1"/>
  </linearGradient>
  <linearGradient id="linearGradient2883" x1="12.274" x2="35.391" y1="32.416" y2="14.203" gradientTransform="matrix(0 .60001 -.60001 0 25.86 -2.4001)" gradientUnits="userSpaceOnUse">
   <stop id="stop3265" style="stop-color:#dedbde" offset="0"/>
   <stop id="stop3267" style="stop-color:#e6e6e6" offset=".5"/>
   <stop id="stop3269" style="stop-color:#d2d2d2" offset="1"/>
  </linearGradient>
  <linearGradient id="linearGradient2879" x1="21.448" x2="21.448" y1="15.5" y2="32.509" gradientTransform="matrix(.4375 0 0 .4375 1.5 1.5)" gradientUnits="userSpaceOnUse">
   <stop id="stop3430" style="stop-color:#aaa" offset="0"/>
   <stop id="stop3432" style="stop-color:#d4d4d4" offset="1"/>
  </linearGradient>
  <linearGradient id="linearGradient2876" x1="18.776" x2="18.203" y1="4.0378" y2="45.962" gradientTransform="matrix(.2273 0 0 .2273 6.4659 6.3175)" gradientUnits="userSpaceOnUse" xlink:href="#linearGradient6036"/>
  <linearGradient id="linearGradient2488" x1="10.609" x2="9.7298" y1="17.886" y2="20.613" gradientUnits="userSpaceOnUse" spreadMethod="reflect" xlink:href="#linearGradient3519"/>
  <linearGradient id="linearGradient2486" x1="12.372" x2="14.609" y1="16.188" y2="13.462" gradientUnits="userSpaceOnUse" spreadMethod="reflect" xlink:href="#linearGradient3511"/>
  <linearGradient id="linearGradient2484" x1="14.085" x2="16.994" y1="13.046" y2="10.732" gradientUnits="userSpaceOnUse" spreadMethod="reflect" xlink:href="#linearGradient3503"/>
  <linearGradient id="linearGradient2482" x1="17.495" x2="21.047" y1="11.2" y2="9.7956" gradientUnits="userSpaceOnUse" spreadMethod="reflect" xlink:href="#linearGradient3495"/>
  <linearGradient id="linearGradient2480" x1="20.58" x2="24.274" y1="10.775" y2="9.8622" gradientUnits="userSpaceOnUse" spreadMethod="reflect" xlink:href="#linearGradient3487"/>
  <linearGradient id="linearGradient6036">
   <stop id="stop6038" style="stop-color:#fff" offset="0"/>
   <stop id="stop6040" style="stop-color:#fff;stop-opacity:0" offset="1"/>
  </linearGradient>
  <linearGradient id="linearGradient2867" x1="10.502" x2="48.799" y1="3.61" y2="54.698" gradientTransform="matrix(.48201 0 0 .48201 .26461 -.050137)" gradientUnits="userSpaceOnUse" xlink:href="#linearGradient6036"/>
  <linearGradient id="linearGradient3519">
   <stop id="stop3521" style="stop-color:#fcd9cd" offset="0"/>
   <stop id="stop3523" style="stop-color:#fcd9cd;stop-opacity:0" offset="1"/>
  </linearGradient>
  <linearGradient id="linearGradient3511">
   <stop id="stop3513" style="stop-color:#ebeec7" offset="0"/>
   <stop id="stop3515" style="stop-color:#ebeec7;stop-opacity:0" offset="1"/>
  </linearGradient>
  <linearGradient id="linearGradient3503">
   <stop id="stop3505" style="stop-color:#c4ebdd" offset="0"/>
   <stop id="stop3507" style="stop-color:#c4ebdd;stop-opacity:0" offset="1"/>
  </linearGradient>
  <linearGradient id="linearGradient3495">
   <stop id="stop3497" style="stop-color:#c1cbe4" offset="0"/>
   <stop id="stop3499" style="stop-color:#c1cbe4;stop-opacity:0" offset="1"/>
  </linearGradient>
  <linearGradient id="linearGradient3487">
   <stop id="stop3489" style="stop-color:#e6cde2" offset="0"/>
   <stop id="stop3491" style="stop-color:#e6cde2;stop-opacity:0" offset="1"/>
  </linearGradient>
 </defs>
 <g id="layer1">
  <path id="path23417" d="m23 19.5c5.66e-4 1.9329-4.9245 3.5-11 3.5s-11.001-1.5671-11-3.5c-5.665e-4 -1.9329 4.9245-3.5 11-3.5s11.001 1.5671 11 3.5z" style="fill-rule:evenodd;fill:url(#radialGradient2888);opacity:.3"/>
  <path id="path2781" d="m22.5 12c0-5.8201-4.6799-10.5-10.5-10.5-5.8201 0-10.5 4.6799-10.5 10.5-1.1e-6 5.8201 4.6799 10.5 10.5 10.5 5.8201-1e-6 10.5-4.6799 10.5-10.5zm-7 0c0 1.9711-1.57 3.5-3.5 3.5-1.9713 0-3.5-1.655-3.5-3.5 0-1.8863 1.4638-3.5 3.5-3.5 2.0775 0 3.5 1.4877 3.5 3.5z" style="fill:url(#linearGradient2883);stroke:url(#linearGradient2885)"/>
  <path id="path2474" d="m12 8.0851c-2.161 0-3.9149 1.7539-3.9149 3.9149 0 2.161 1.7539 3.9149 3.9149 3.9149 2.161 0 3.9149-1.7539 3.9149-3.9149 0-2.161-1.7539-3.9149-3.9149-3.9149zm0 1.9574c1.0805 0 1.9574 0.87694 1.9574 1.9574s-0.87694 1.9574-1.9574 1.9574-1.9574-0.87694-1.9574-1.9574 0.87694-1.9574 1.9574-1.9574z" style="fill:#fff;opacity:.5"/>
  <path id="path3418" d="m12 8.5c-1.932 0-3.5 1.568-3.5 3.5s1.568 3.5 3.5 3.5 3.5-1.568 3.5-3.5-1.568-3.5-3.5-3.5zm0 1.75c0.966 0 1.75 0.784 1.75 1.75 0 0.966-0.784 1.75-1.75 1.75-0.966 0-1.75-0.784-1.75-1.75 0-0.966 0.784-1.75 1.75-1.75z" style="fill:none;stroke-linejoin:round;stroke:url(#linearGradient2879)"/>
  <path id="path3281" d="m12 7.5c-2.4943 0-4.5 2.0057-4.5 4.5 0 2.4943 2.0057 4.5 4.5 4.5 2.4943 0 4.5-2.0057 4.5-4.5 0-2.4943-2.0057-4.5-4.5-4.5z" style="fill:none;opacity:.8;stroke:url(#linearGradient2876)"/>
  <g id="g3527" transform="matrix(.48936 0 0 .48936 .2553 .2553)">
   <path id="path3296" transform="matrix(.9996 .028243 -.028243 .9996 .69241 -.67083)" d="m15.857 5.7308 4.7681 10.613c1.0354-0.45856 2.1703-0.71875 3.375-0.71875 0.03206 0 0.06178-3.6e-4 0.09375 0l0.01426-11.62c-2.9422-0.070687-5.543 0.65729-8.2511 1.726h1e-6z" style="fill:url(#linearGradient2480);opacity:.8"/>
   <path id="path3308" d="m12.121 7.906 6.931 9.3601c0.91311-0.66976 1.9659-1.1671 3.1426-1.4252 0.03132-0.0069 0.06026-0.01359 0.09157-0.02009l-2.4295-11.395c-2.889 0.56132-5.3195 1.8556-7.7357 3.4797z" style="fill:url(#linearGradient2482);opacity:.8"/>
   <path id="path3310" d="m8.2524 11.647 9.2137 7.1558c0.70865-0.88326 1.5969-1.6361 2.6667-2.19 0.02847-0.01474 0.05469-0.02872 0.08325-0.0431l-5.3502-10.319c-2.6453 1.2899-4.7 3.2018-6.6135 5.3959z" style="fill:url(#linearGradient2484);opacity:.8"/>
   <path id="path3312" d="m5.6329 16.074c7.1748 2.2422 7.8503 7.0315 12.777 1.7541l-7.9097-8.696c-2.2213 1.9306-3.5867 4.3272-4.8671 6.9418z" style="fill:url(#linearGradient2486);opacity:.8"/>
   <path id="path3314" d="m7.1553 13.193c-1.1831 1.752-1.9077 3.6364-2.5251 5.6439l11.339 2.9754c0.21551-0.763 0.51805-1.5148 0.96875-2.2188 0.01729-0.027 0.04496-0.06702 0.0625-0.09375l-9.8447-6.3068z" style="fill:url(#linearGradient2488);opacity:.8"/>
  </g>
  <path id="path3272" d="m12 2.4574c-5.2893 0-9.5426 4.2533-9.5426 9.5426 0 5.2893 4.2533 9.5426 9.5426 9.5426 5.2893 0 9.5426-4.2533 9.5426-9.5426 0-5.2893-4.2533-9.5426-9.5426-9.5426z" style="fill:none;opacity:.5;stroke:url(#linearGradient2867)"/>
  <g id="g3297" transform="matrix(-.48936 0 0 -.48936 23.745 23.74)">
   <path id="path3299" transform="matrix(.9996 .028243 -.028243 .9996 .69241 -.67083)" d="m15.857 5.7308 4.7681 10.613c1.0354-0.45856 2.1703-0.71875 3.375-0.71875 0.03206 0 0.06178-3.6e-4 0.09375 0l0.01426-11.62c-2.9422-0.070687-5.543 0.65729-8.2511 1.726h1e-6z" style="fill:url(#linearGradient2480);opacity:.8"/>
   <path id="path3301" d="m12.121 7.906 6.931 9.3601c0.91311-0.66976 1.9659-1.1671 3.1426-1.4252 0.03132-0.0069 0.06026-0.01359 0.09157-0.02009l-2.4295-11.395c-2.889 0.56132-5.3195 1.8556-7.7357 3.4797z" style="fill:url(#linearGradient2482);opacity:.8"/>
   <path id="path3303" d="m8.2524 11.647 9.2137 7.1558c0.70865-0.88326 1.5969-1.6361 2.6667-2.19 0.02847-0.01474 0.05469-0.02872 0.08325-0.0431l-5.3502-10.319c-2.6453 1.2899-4.7 3.2018-6.6135 5.3959z" style="fill:url(#linearGradient2484);opacity:.8"/>
   <path id="path3305" d="m5.6329 16.074c7.1748 2.2422 7.8503 7.0315 12.777 1.7541l-7.9097-8.696c-2.2213 1.9306-3.5867 4.3272-4.8671 6.9418z" style="fill:url(#linearGradient2486);opacity:.8"/>
   <path id="path3307" d="m7.1553 13.193c-1.1831 1.752-1.9077 3.6364-2.5251 5.6439l11.339 2.9754c0.21551-0.763 0.51805-1.5148 0.96875-2.2188 0.01729-0.027 0.04496-0.06702 0.0625-0.09375l-9.8447-6.3068z" style="fill:url(#linearGradient2488);opacity:.8"/>
  </g>
 </g>
 <g id="g3128" transform="translate(30.639 4.2835)">
  <path id="path3288" d="m-7.4625 12.216-6.1916 7.0009-6.1605-7.0009h2.676v-6.0009h7v6.0009h2.676z" style="fill:url(#linearGradient3132);stroke-linecap:round;stroke-linejoin:round;stroke-width:.99829;stroke:#699536"/>
  <path id="path3290" d="m-9.7122 13.216-3.9264 4.5451-4.0369-4.5451h1.5369v-6h5v6h1.4264z" style="fill:none;opacity:.354;stroke-width:.99829;stroke:url(#linearGradient3134)"/>
 </g>
</svg>
