<?xml version="1.0" encoding="UTF-8"?>
<!-- Created with Inkscape (http://www.inkscape.org/) -->
<svg id="svg3301" width="24" height="24" version="1.0" xmlns="http://www.w3.org/2000/svg" xmlns:xlink="http://www.w3.org/1999/xlink">
 <defs id="defs3303">
  <linearGradient id="linearGradient3639" x1="36.46" x2="26.418" y1=".91154" y2="11.147" gradientTransform="matrix(.34464 -.34464 .33811 .33811 -.86599 20.321)" gradientUnits="userSpaceOnUse">
   <stop id="stop4875" style="stop-color:#fff" offset="0"/>
   <stop id="stop4877" style="stop-color:#fff;stop-opacity:0" offset="1"/>
  </linearGradient>
  <linearGradient id="linearGradient3288" x1="17.963" x2="17.963" y1="17.004" y2="6" gradientUnits="userSpaceOnUse">
   <stop id="stop3624" style="stop-color:#bb2b12" offset="0"/>
   <stop id="stop3626" style="stop-color:#cd7233" offset="1"/>
  </linearGradient>
  <linearGradient id="linearGradient3635" x1="12.019" x2="12.019" y1="6" y2="17" gradientTransform="translate(-1.0004)" gradientUnits="userSpaceOnUse">
   <stop id="stop3618" style="stop-color:#f0c178" offset="0"/>
   <stop id="stop3270" style="stop-color:#e18941" offset=".5"/>
   <stop id="stop3620" style="stop-color:#ec4f18" offset="1"/>
  </linearGradient>
  <radialGradient id="radialGradient3299" cx="11.25" cy="19.031" r="8.0625" gradientTransform="matrix(-1.4062 0 0 .3867 27.82 7.5227)" gradientUnits="userSpaceOnUse">
   <stop id="stop2487" style="stop-color:#0d0d0d" offset="0"/>
   <stop id="stop2489" style="stop-color:#0d0d0d;stop-opacity:0" offset="1"/>
  </radialGradient>
 </defs>
 <g id="layer1">
  <g id="g3328">
   <g id="g3369" transform="matrix(-1,0,0,1,24,0)">
    <path id="path2849" d="m17.512 9.5 0.01404-3 6.0972 5.1907-6.0972 4.8093-0.01294-3h-11.01l-0.012944 3-6.0972-4.8093 6.0972-5.1907 0.01404 3h11.008z" style="fill:url(#linearGradient3635);stroke-linejoin:round;stroke:url(#linearGradient3288)"/>
    <path id="path2851" d="m18.516 10.5v-1.9337l3.6926 3.1244-3.6926 2.7925v-1.9832h-13.017v1.9832l-3.6926-2.7925 3.6926-3.1244v1.9337h13.017z" style="fill:none;opacity:.4;stroke-width:1.0047;stroke:url(#linearGradient3639)"/>
   </g>
  </g>
  <path id="path2621" d="m0.66255 14.882c0 1.7219 5.0759 3.1178 11.337 3.1178s11.337-1.3959 11.337-3.1178c1e-6 -1.7219-5.0759-3.1178-11.337-3.1178s-11.337 1.3959-11.337 3.1178z" style="fill:url(#radialGradient3299);opacity:.16292"/>
 </g>
</svg>
