<?xml version="1.0" encoding="UTF-8"?>
<!-- Created with Inkscape (http://www.inkscape.org/) -->
<svg id="svg3273" width="24" height="24" version="1.0" xmlns="http://www.w3.org/2000/svg" xmlns:xlink="http://www.w3.org/1999/xlink">
 <defs id="defs3275">
  <radialGradient id="radialGradient2480" cx="62.625" cy="4.625" r="10.625" gradientTransform="matrix(-1.0353 0 0 .42353 77.029 17.541)" gradientUnits="userSpaceOnUse">
   <stop id="stop8840" offset="0"/>
   <stop id="stop8842" style="stop-opacity:0" offset="1"/>
  </radialGradient>
  <linearGradient id="linearGradient3258" x1="13.542" x2="13.542" y1="24" y2="-.0023745" gradientUnits="userSpaceOnUse">
   <stop id="stop3624" style="stop-color:#bb2b12" offset="0"/>
   <stop id="stop3626" style="stop-color:#cd7233" offset="1"/>
  </linearGradient>
  <linearGradient id="linearGradient2477" x1="20.137" x2="16.597" y1="4.4757" y2="17.943" gradientTransform="matrix(-.34464 -.34464 -.33811 .33811 27.882 14.321)" gradientUnits="userSpaceOnUse">
   <stop id="stop3618" style="stop-color:#f0c178" offset="0"/>
   <stop id="stop2449" style="stop-color:#e18941" offset=".5"/>
   <stop id="stop3620" style="stop-color:#ec4f18" offset="1"/>
  </linearGradient>
  <linearGradient id="linearGradient2474" x1="33.687" x2="37.04" y1="35.774" y2="29.857" gradientTransform="matrix(-.50978 .03068 .030098 .50012 22.774 .5062)" gradientUnits="userSpaceOnUse">
   <stop id="stop3269" style="stop-color:#be3918" offset="0"/>
   <stop id="stop3271" style="stop-color:#bf8407;stop-opacity:0" offset="1"/>
  </linearGradient>
  <linearGradient id="linearGradient2472" x1="31.226" x2="34.966" y1="34.601" y2="26.843" gradientTransform="matrix(-.50978 .03068 .030098 .50012 22.774 .5062)" gradientUnits="userSpaceOnUse">
   <stop id="stop3262" style="stop-color:#ec4f18" offset="0"/>
   <stop id="stop3264" style="stop-color:#cc9110;stop-opacity:0" offset="1"/>
  </linearGradient>
  <linearGradient id="linearGradient2469" x1="32.326" x2="22.245" y1="5.0201" y2="43.366" gradientTransform="matrix(-.34464 -.34464 -.33811 .33811 27.882 14.321)" gradientUnits="userSpaceOnUse">
   <stop id="stop4875" style="stop-color:#fff" offset="0"/>
   <stop id="stop4877" style="stop-color:#fff;stop-opacity:0" offset="1"/>
  </linearGradient>
  <linearGradient id="linearGradient2466" x1="28.117" x2="39.686" y1="41.674" y2="28.505" gradientTransform="matrix(-.48652 .02928 .028725 .4773 22.716 1.9626)" gradientUnits="userSpaceOnUse">
   <stop id="stop3321" style="stop-color:#fff;stop-opacity:0" offset="0"/>
   <stop id="stop3323" style="stop-color:#fff;stop-opacity:.27473" offset=".6313"/>
   <stop id="stop3325" style="stop-color:#fff;stop-opacity:0" offset="1"/>
  </linearGradient>
 </defs>
 <g id="layer1">
  <path id="path8836" d="m1.1936 19.5c0 2.4853 4.9249 4.5 11 4.5 6.0751 0 11-2.0147 11-4.5 0-2.4853-4.9249-4.5-11-4.5-6.0751 0-11 2.0147-11 4.5z" style="fill-rule:evenodd;fill:url(#radialGradient2480);opacity:.3"/>
  <path id="path3372" d="m11.698 18.817c1.1287 0.06587 2.8591-0.34313 3.9061-1.3902 1.7478-1.7478 2.1588-5.8872 0.01788-7.9626-0.86686-0.84035-2.9255-1.9309-4.1188-1.9638l-0.012944 3-6.0972-4.8093 6.0972-5.1907 0.01404 2.8226c2.6301 0.048138 5.1213 0.91964 7.119 2.8747 4.064 3.9772 4.0575 10.397 0.17503 14.368-1.9855 2.0309-4.5861 2.9992-7.1971 2.9286" style="fill:url(#linearGradient2477);stroke-linejoin:round;stroke-width:1.0047;stroke:url(#linearGradient3258)"/>
  <path id="path3453" d="m12.055 23.463c-4.743 0.33688-10.38-2.9595-10.746-9.1789l4.3688 0.57592c0.2452 2.5313 3.8792 4.3163 6.0737 4.0063" style="fill:url(#linearGradient2472);stroke-width:1.0047;stroke:url(#linearGradient2474)"/>
  <path id="path3370" d="m11.692 19.966c1.4465 0.0129 3.4846-0.70935 4.588-1.8008 2.5789-2.5544 2.4093-7.3671 0.02984-9.5594-1.0041-0.92511-2.5592-2.0487-5.8094-2.0487v1.9261l-3.6926-2.7925 3.6926-3.1244v1.8441c2.6788-0.12061 5.4776 0.551 7.4784 2.5519 3.6766 3.6766 3.47 9.5433 0.07722 12.936-2.1478 2.1478-4.4008 2.7255-6.4458 2.5723" style="fill:none;opacity:.4;stroke-width:1.0047;stroke:url(#linearGradient2469)"/>
  <path id="path2557" d="m11.154 22.344c-2.6715 0.1662-8.3784-2.0645-8.7423-8.1105l1.5343-0.28652c0.17237 2.8641 4.2799 5.9858 7.3864 6.0518" style="fill:none;stroke-linejoin:round;stroke-width:1.0047;stroke:url(#linearGradient2466)"/>
  <path id="path3347" d="m10.336 13.821c0 0.65098 0.52773 1.1787 1.1787 1.1787 0.65098 0 1.1787-0.52773 1.1787-1.1787s-0.52773-1.1787-1.1787-1.1787c-0.65098 0-1.1787 0.52773-1.1787 1.1787v0z" style="fill:#e37b37;stroke-linecap:round;stroke-linejoin:round;stroke:#c24920"/>
 </g>
</svg>
