<?xml version="1.0" encoding="UTF-8"?>
<!-- Created with Inkscape (http://www.inkscape.org/) -->
<svg id="svg2" width="24" height="24" version="1.0" xmlns="http://www.w3.org/2000/svg" xmlns:xlink="http://www.w3.org/1999/xlink">
 <defs id="defs4">
  <radialGradient id="radialGradient4536" cx="605.71" cy="486.65" r="117.14" gradientTransform="matrix(-2.7744 0 0 1.9697 112.76 -872.89)" gradientUnits="userSpaceOnUse" xlink:href="#linearGradient5060"/>
  <linearGradient id="linearGradient5060">
   <stop id="stop5062" offset="0"/>
   <stop id="stop5064" style="stop-opacity:0" offset="1"/>
  </linearGradient>
  <radialGradient id="radialGradient4534" cx="605.71" cy="486.65" r="117.14" gradientTransform="matrix(2.7744 0 0 1.9697 -1891.6 -872.89)" gradientUnits="userSpaceOnUse" xlink:href="#linearGradient5060"/>
  <linearGradient id="linearGradient4532" x1="302.86" x2="302.86" y1="366.65" y2="609.51" gradientTransform="matrix(2.7744 0 0 1.9697 -1892.2 -872.89)" gradientUnits="userSpaceOnUse">
   <stop id="stop5050" style="stop-opacity:0" offset="0"/>
   <stop id="stop5056" offset=".5"/>
   <stop id="stop5052" style="stop-opacity:0" offset="1"/>
  </linearGradient>
  <linearGradient id="linearGradient4547" x1="-51.786" x2="-51.786" y1="50.786" y2="2.9062" gradientTransform="matrix(.43837 0 0 .45754 31.224 -.77865)" gradientUnits="userSpaceOnUse">
   <stop id="stop3933" style="stop-color:#8d8f8a" offset="0"/>
   <stop id="stop3935" style="stop-color:#cbcbcb" offset="1"/>
  </linearGradient>
  <linearGradient id="linearGradient4545" x1="25.132" x2="25.132" y1="6.7287" y2="47.013" gradientTransform="matrix(.54288 0 0 .48891 -1.0291 -.23377)" gradientUnits="userSpaceOnUse">
   <stop id="stop3602" style="stop-color:#f4f4f4" offset="0"/>
   <stop id="stop3604" style="stop-color:#dbdbdb" offset="1"/>
  </linearGradient>
  <linearGradient id="linearGradient4565" x1="17.289" x2="15.18" y1="2.1849" y2="5.8215" gradientUnits="userSpaceOnUse">
   <stop id="stop4561" style="stop-color:#cacaca" offset="0"/>
   <stop id="stop4563" style="stop-color:#949492" offset="1"/>
  </linearGradient>
  <linearGradient id="linearGradient4543" x1="32.892" x2="36.358" y1="8.059" y2="5.4565" gradientTransform="matrix(.54163 0 0 .5203 -.94021 -.30186)" gradientUnits="userSpaceOnUse">
   <stop id="stop8591" style="stop-color:#fefefe" offset="0"/>
   <stop id="stop8593" style="stop-color:#cbcbcb" offset="1"/>
  </linearGradient>
  <linearGradient id="linearGradient2710" x1="-172.65" x2="-166.64" y1="99.667" y2="93.654" gradientTransform="matrix(.13658 0 0 .14121 42.855 6.039)" gradientUnits="userSpaceOnUse">
   <stop id="stop11116" style="stop-color:#242424;stop-opacity:.99216" offset="0"/>
   <stop id="stop11118" style="stop-color:#656565" offset="1"/>
  </linearGradient>
  <radialGradient id="radialGradient4193" cx="18.241" cy="21.818" r="8.3085" gradientUnits="userSpaceOnUse">
   <stop id="stop4456" style="stop-color:#a1a1a1;stop-opacity:.20784" offset="0"/>
   <stop id="stop4458" style="stop-color:#a1a1a1;stop-opacity:.67843" offset="1"/>
  </radialGradient>
  <radialGradient id="radialGradient2705" cx="15.414" cy="13.078" r="6.6562" gradientTransform="matrix(1.0388 0 0 .83463 -3.35 .21686)" gradientUnits="userSpaceOnUse">
   <stop id="stop4469" style="stop-color:#fff" offset="0"/>
   <stop id="stop4471" style="stop-color:#fff;stop-opacity:.24762" offset="1"/>
  </radialGradient>
  <linearGradient id="linearGradient2702" x1="41.542" x2="41.485" y1="68.292" y2="4.5363" gradientTransform="matrix(.13658 0 0 .14121 7.9984 8.7019)" gradientUnits="userSpaceOnUse">
   <stop id="stop11106" style="stop-color:#333" offset="0"/>
   <stop id="stop11108" style="stop-color:#333;stop-opacity:.61224" offset="1"/>
  </linearGradient>
  <linearGradient id="linearGradient2700" x1="173.1" x2="173.1" y1="75.319" y2="11.949" gradientTransform="matrix(.13658 0 0 .14121 -9.717 7.6392)" gradientUnits="userSpaceOnUse">
   <stop id="stop2302" style="stop-color:#343435;stop-opacity:.97647" offset="0"/>
   <stop id="stop2304" style="stop-color:#919295" offset="1"/>
  </linearGradient>
 </defs>
 <g id="layer1">
  <g id="g3490" transform="matrix(.54593 0 0 .51685 -.96573 -.57818)" style="stroke-width:1.8826">
   <g id="g5022" transform="matrix(.021652 0 0 .014857 43.008 42.685)" style="stroke-width:104.96">
    <rect id="rect4173" x="-1559.3" y="-150.7" width="1339.6" height="478.36" style="fill:url(#linearGradient4532);opacity:.40206"/>
    <path id="path5058" d="m-219.62-150.68v478.33c142.87 0.90045 345.4-107.17 345.4-239.2 0-132.03-159.44-239.13-345.4-239.13z" style="fill:url(#radialGradient4534);opacity:.40206"/>
    <path id="path5018" d="m-1559.3-150.68v478.33c-142.87 0.90045-345.4-107.17-345.4-239.2 0-132.03 159.44-239.13 345.4-239.13z" style="fill:url(#radialGradient4536);opacity:.40206"/>
   </g>
  </g>
  <path id="rect2594" d="m2.4996 0.49957h13.062c0.7638 0.23731 4.8672 2.9408 5.9387 4.8128v17.188h-19.001v-22.001z" style="fill:url(#linearGradient4545);stroke-linejoin:round;stroke-width:.99914;stroke:url(#linearGradient4547)"/>
  <path id="path12038" d="m15.5 0.5v5h6c0-0.83659-4.8205-4.9857-6-5z" style="fill-rule:evenodd;fill:url(#linearGradient4543);stroke-linejoin:round;stroke:url(#linearGradient4565)"/>
  <path id="path11112" d="m17.461 16.55 6.1067 5.8764-0.84647 1.1878-6.0846-6.3567 0.82435-0.70748z" style="fill-rule:evenodd;fill:url(#linearGradient2710);stroke-linecap:round;stroke-linejoin:round;stroke-width:.77201;stroke:#333"/>
  <path id="path13082" transform="matrix(.1354 -.15647 .15133 .14 -26.423 45.631)" d="m248.35 110.29a5.3124 2.6562 0 1 1-10.625 0 5.3124 2.6562 0 1 1 10.625 0z" style="fill:#3e3e3e"/>
  <path id="path4452" transform="matrix(.50364 0 0 .50807 5.2767 4.2233)" d="m25.898 18.478a8.3085 8.3085 0 1 1-16.617 0 8.3085 8.3085 0 1 1 16.617 0z" style="fill-rule:evenodd;fill:url(#radialGradient4193)"/>
  <path id="path4462" d="m13.963 9.9776c-2.0862 0-3.7756 1.5628-3.7756 3.4927 0 0.55737 0.16838 1.0702 0.41951 1.538 0.50172 0.17107 1.0347 0.28747 1.6003 0.28747 2.4722 0 4.4465-1.8017 4.5991-4.0533-0.69344-0.75808-1.6866-1.2649-2.8433-1.2649z" style="fill-rule:evenodd;fill:url(#radialGradient2705);opacity:.83422"/>
  <path id="path2298" d="m14.043 9.3962c-2.5699 0-4.6564 1.9893-4.6564 4.4393 0 2.4501 2.0865 4.4393 4.6564 4.4393 2.5699 0 4.6564-1.9893 4.6564-4.4393 0-2.4501-2.0865-4.4393-4.6564-4.4393zm0.05548 0.29125c2.3001 0 4.1698 1.7788 4.1698 3.9716 0 2.1928-1.8698 3.9716-4.1698 3.9716s-4.1656-1.7788-4.1656-3.9716c0-2.1928 1.8655-3.9716 4.1656-3.9716z" style="fill:url(#linearGradient2700);stroke-linecap:round;stroke-linejoin:round;stroke-width:.77201;stroke:url(#linearGradient2702)"/>
 </g>
</svg>
