<?xml version="1.0" encoding="UTF-8" standalone="no"?>
<!-- Created with Inkscape (http://www.inkscape.org/) -->

<svg
   xmlns:dc="http://purl.org/dc/elements/1.1/"
   xmlns:cc="http://creativecommons.org/ns#"
   xmlns:rdf="http://www.w3.org/1999/02/22-rdf-syntax-ns#"
   xmlns:svg="http://www.w3.org/2000/svg"
   xmlns="http://www.w3.org/2000/svg"
   xmlns:xlink="http://www.w3.org/1999/xlink"
   xmlns:sodipodi="http://sodipodi.sourceforge.net/DTD/sodipodi-0.dtd"
   xmlns:inkscape="http://www.inkscape.org/namespaces/inkscape"
   width="24"
   height="24"
   viewBox="0 0 6.3499999 6.3500002"
   version="1.1"
   id="svg3971"
   inkscape:version="0.92.4 (5da689c313, 2019-01-14)"
   sodipodi:docname="tool-tweak.svg">
  <defs
     id="defs3965">
    <linearGradient
       inkscape:collect="always"
       id="linearGradient8992">
      <stop
         style="stop-color:#46a926;stop-opacity:1"
         offset="0"
         id="stop8988" />
      <stop
         style="stop-color:#cbe667;stop-opacity:1"
         offset="1"
         id="stop8990" />
    </linearGradient>
    <linearGradient
       inkscape:collect="always"
       xlink:href="#linearGradient8992"
       id="linearGradient8994"
       x1="5.2921982"
       y1="291.17914"
       x2="1.5880314"
       y2="295.94165"
       gradientUnits="userSpaceOnUse"
       gradientTransform="matrix(-1,0,0,1,6.3505315,0)" />
    <linearGradient
       gradientTransform="matrix(-1,0,0,1,6.3505315,-4.8234639e-6)"
       inkscape:collect="always"
       xlink:href="#linearGradient927"
       id="linearGradient8994-8"
       x1="2.7607429"
       y1="292.11154"
       x2="1.6650393"
       y2="294.83585"
       gradientUnits="userSpaceOnUse" />
    <linearGradient
       inkscape:collect="always"
       id="linearGradient927">
      <stop
         style="stop-color:#ffffff;stop-opacity:1;"
         offset="0"
         id="stop923" />
      <stop
         id="stop933"
         offset="0.39608327"
         style="stop-color:#ffffff;stop-opacity:0.09803922" />
      <stop
         id="stop931"
         offset="0.92500001"
         style="stop-color:#ffffff;stop-opacity:0.09803922" />
      <stop
         style="stop-color:#ffffff;stop-opacity:0.49803922"
         offset="1"
         id="stop925" />
    </linearGradient>
  </defs>
  <sodipodi:namedview
     id="base"
     pagecolor="#ffffff"
     bordercolor="#666666"
     borderopacity="1.0"
     inkscape:pageopacity="0.0"
     inkscape:pageshadow="2"
     inkscape:zoom="0.99999999"
     inkscape:cx="15.243976"
     inkscape:cy="14.786647"
     inkscape:document-units="px"
     inkscape:current-layer="layer1"
     showgrid="false"
     units="px"
     inkscape:window-width="1294"
     inkscape:window-height="704"
     inkscape:window-x="72"
     inkscape:window-y="27"
     inkscape:window-maximized="1">
    <inkscape:grid
       type="xygrid"
       id="grid4605" />
  </sodipodi:namedview>
  <metadata
     id="metadata3968">
    <rdf:RDF>
      <cc:Work
         rdf:about="">
        <dc:format>image/svg+xml</dc:format>
        <dc:type
           rdf:resource="http://purl.org/dc/dcmitype/StillImage" />
        <dc:title />
      </cc:Work>
    </rdf:RDF>
  </metadata>
  <g
     inkscape:label="Layer 1"
     inkscape:groupmode="layer"
     id="layer1"
     transform="translate(0,-290.64998)">
    <g
       transform="matrix(-0.02645833,0,0,0.02645833,7.8563308,289.77588)"
       id="g982"
       style="display:inline;enable-background:new" />
    <path
       style="opacity:1;vector-effect:none;fill:url(#linearGradient8994);fill-opacity:1;stroke:none;stroke-width:0.5291667;stroke-linecap:round;stroke-linejoin:round;stroke-miterlimit:4;stroke-dasharray:none;stroke-dashoffset:0;stroke-opacity:1"
       d="m 1.8017119,291.31505 c 1.3911715,0.79777 4.0159989,0.95546 3.882454,3.04672 -0.091662,1.84844 -2.9898498,2.83062 -3.9077335,1.00528 -0.6119394,-1.11994 -2.04294169,-3.37312 -0.2228587,-4.05561 z"
       id="path8951"
       inkscape:connector-curvature="0" />
    <path
       style="opacity:0.8;vector-effect:none;fill:none;fill-opacity:1;stroke:#000000;stroke-width:0.26458335;stroke-linecap:round;stroke-linejoin:round;stroke-miterlimit:4;stroke-dasharray:none;stroke-dashoffset:0;stroke-opacity:1"
       d="m 1.8017119,291.31505 c 1.3911716,0.79777 4.0159989,0.95546 3.882454,3.04672 -0.091662,1.84844 -2.9898498,2.83062 -3.9077333,1.00528 -0.6119395,-1.11994 -2.04294189,-3.37312 -0.2228588,-4.05561 z"
       id="path8951-5"
       inkscape:connector-curvature="0" />
    <path
       style="opacity:0.6;vector-effect:none;fill:url(#linearGradient8994-8);fill-opacity:1;stroke:none;stroke-width:0.5291667;stroke-linecap:round;stroke-linejoin:round;stroke-miterlimit:4;stroke-dasharray:none;stroke-dashoffset:0;stroke-opacity:1"
       d="m 1.5906153,291.44321 0.1855184,0.004 c 0.7205184,0.40244 1.700038,0.64095 2.4804687,1.02526 0.3967023,0.19535 0.7380192,0.42655 0.9689332,0.7245 0.2309138,0.29795 0.3577012,0.66131 0.3260783,1.15652 a 0.1323049,0.1323049 0 0 0 0,0.002 c -0.042473,0.85649 -0.7428753,1.52426 -1.5487428,1.75958 -0.4029337,0.11767 -0.8273492,0.12556 -1.19941,0 -0.3720608,-0.12555 -0.6931763,-0.37955 -0.907955,-0.80667 a 0.1323049,0.1323049 0 0 0 -0.00207,-0.006 c -0.3088756,-0.56528 -0.8127785,-1.40132 -1.01182459,-2.1606 -0.099523,-0.37964 -0.12082225,-0.73492 -0.0211873,-1.02319 0.0984015,-0.2847 0.31341089,-0.51587 0.73018809,-0.67593 z m 0.095085,0.2651 c -0.1315905,0.0306 -0.2525921,0.11577 -0.3545004,0.20257 -0.33516011,0.3116 -0.2589921,0.81702 -0.1477946,1.21182 0.2080307,0.69471 0.5831554,1.33184 0.9250082,1.96112 0.1536311,0.29972 0.3820533,0.59544 0.7110677,0.7245 0.4999512,0.19812 1.0757511,0.10835 1.5384074,-0.14728 0.548966,-0.27468 0.9694029,-0.85217 0.9322429,-1.48311 0.028444,-0.49221 -0.2863784,-0.92826 -0.6748942,-1.19889 -0.6416455,-0.41686 -1.3751561,-0.62968 -2.0789431,-0.91054 -0.2920285,-0.0994 -0.5641057,-0.25126 -0.8505939,-0.36019 z"
       id="path8951-0"
       inkscape:connector-curvature="0" />
  </g>
</svg>
