<?xml version="1.0" encoding="UTF-8"?>
<!-- Created with Inkscape (http://www.inkscape.org/) -->
<svg id="svg4375" width="24" height="24" version="1.0" xmlns="http://www.w3.org/2000/svg" xmlns:xlink="http://www.w3.org/1999/xlink">
 <defs id="defs4377">
  <linearGradient id="linearGradient5060">
   <stop id="stop5062" offset="0"/>
   <stop id="stop5064" style="stop-opacity:0" offset="1"/>
  </linearGradient>
  <linearGradient id="linearGradient5533" x1="302.86" x2="302.86" y1="366.65" y2="609.51" gradientTransform="matrix(.031048 0 0 .013668 .77854 15.669)" gradientUnits="userSpaceOnUse">
   <stop id="stop5050" style="stop-opacity:0" offset="0"/>
   <stop id="stop5056" offset=".5"/>
   <stop id="stop5052" style="stop-opacity:0" offset="1"/>
  </linearGradient>
  <radialGradient id="radialGradient5535" cx="605.71" cy="486.65" r="117.14" gradientTransform="matrix(.031048 0 0 .013668 .78465 15.669)" gradientUnits="userSpaceOnUse" xlink:href="#linearGradient5060"/>
  <radialGradient id="radialGradient5537" cx="605.71" cy="486.65" r="117.14" gradientTransform="matrix(-.031048 0 0 .013668 23.215 15.669)" gradientUnits="userSpaceOnUse" xlink:href="#linearGradient5060"/>
  <linearGradient id="linearGradient5559" x1="24" x2="24" y1="13" y2="40" gradientTransform="matrix(.52632 0 0 .48148 -.63158 1.7407)" gradientUnits="userSpaceOnUse">
   <stop id="stop6459" style="stop-color:#fff;stop-opacity:.94118" offset="0"/>
   <stop id="stop6461" style="stop-color:#fff;stop-opacity:.70588" offset="1"/>
  </linearGradient>
  <linearGradient id="linearGradient5562" x1="16.034" x2="16.075" y1="9.0735" y2="15.044" gradientTransform="matrix(.61291 0 0 .58621 -3.3226 -2.069)" gradientUnits="userSpaceOnUse">
   <stop id="stop3692" style="stop-color:#fff" offset="0"/>
   <stop id="stop3694" style="stop-color:#fff;stop-opacity:.46875" offset="1"/>
  </linearGradient>
  <linearGradient id="linearGradient5565" x1="21.866" x2="21.78" y1="8.5763" y2="39.924" gradientTransform="matrix(.63636 0 0 .62295 -3.9091 -3.1066)" gradientUnits="userSpaceOnUse">
   <stop id="stop2783" style="stop-color:#505050" offset="0"/>
   <stop id="stop6301" style="stop-color:#6e6e6e" offset=".13216"/>
   <stop id="stop2785" style="stop-color:#8c8c8c" offset="1"/>
  </linearGradient>
  <linearGradient id="linearGradient6388">
   <stop id="stop6390" style="stop-color:#73a300" offset="0"/>
   <stop id="stop6392" style="stop-color:#428300;stop-opacity:0" offset="1"/>
  </linearGradient>
  <linearGradient id="linearGradient6639" x1="39.879" x2="33.25" y1="16.121" y2="22.839" gradientTransform="matrix(0 1 -1 0 25.121 -26.636)" gradientUnits="userSpaceOnUse" xlink:href="#linearGradient6388"/>
  <linearGradient id="linearGradient6643" x1="39.879" x2="33.25" y1="16.121" y2="22.839" gradientTransform="matrix(0 -1 -1 0 25.121 55.879)" gradientUnits="userSpaceOnUse" xlink:href="#linearGradient6388"/>
  <linearGradient id="linearGradient6647" x1="39.879" x2="33.25" y1="16.121" y2="22.839" gradientTransform="matrix(0 1 1 0 -1.1213 -26.879)" gradientUnits="userSpaceOnUse" xlink:href="#linearGradient6388"/>
  <linearGradient id="linearGradient6651" x1="39.879" x2="33.25" y1="16.121" y2="22.839" gradientTransform="matrix(0 -1 1 0 -1.1213 55.879)" gradientUnits="userSpaceOnUse" xlink:href="#linearGradient6388"/>
 </defs>
 <g id="g6918">
  <g id="g3217" transform="matrix(1.0562 0 0 1.205 -.67489 -5.921)">
   <rect id="rect4173" x="4.5042" y="20.681" width="14.992" height="3.3194" style="fill:url(#linearGradient5533);opacity:.23613"/>
   <path id="path5058" d="m19.496 20.681v3.3192c1.5989 0.0062 3.8653-0.74366 3.8653-1.6598 0-0.91615-1.7842-1.6594-3.8653-1.6594z" style="fill:url(#radialGradient5535);opacity:.23613"/>
   <path id="path5018" d="m4.5042 20.681v3.3192c-1.5989 0.0062-3.8653-0.74366-3.8653-1.6598 0-0.91615 1.7842-1.6594 3.8653-1.6594z" style="fill:url(#radialGradient5537);opacity:.23613"/>
  </g>
  <rect id="rect1887" x="1.5" y="2.5" width="21" height="19" rx="1" ry="1" style="fill:url(#linearGradient5565);stroke-width:.99995;stroke:#565853"/>
  <rect id="rect2779" x="2.5" y="3.5" width="19" height="17" rx=".5" ry=".5" style="fill:none;opacity:.2;stroke-width:.99994;stroke:url(#linearGradient5562)"/>
  <rect id="rect6287" x="2" y="8" width="20" height="13" rx=".50017" ry=".5" style="fill:url(#linearGradient5559)"/>
  <path id="path6293" d="m21 5c2.38e-4 0.55221-0.44755 1-1 1-0.55246 0-1.0002-0.44779-1-1-2.41e-4 -0.55221 0.44754-1 1-1 0.55245 0 1.0002 0.44779 1 1z" style="fill:#ffc24c"/>
  <path id="path6622" d="m18 5c2.38e-4 0.55221-0.44755 1-1 1-0.55246 0-1.0002-0.44779-1-1-2.41e-4 -0.55221 0.44754-1 1-1 0.55245 0 1.0002 0.44779 1 1z" style="fill:#ffc24c"/>
  <path id="path6630" d="m15 5c2.38e-4 0.55221-0.44755 1-1 1-0.55246 0-1.0002-0.44779-1-1-2.41e-4 -0.55221 0.44754-1 1-1 0.55245 0 1.0002 0.44779 1 1z" style="fill:#ffc24c"/>
  <path id="rect5590" d="m9 9-1.4142 1.4142-1.4142-1.4142-1.4142 1.4142 1.4142 1.4142-1.4142 1.4142h4.2426v-4.2426z" style="fill:url(#linearGradient6639)"/>
  <path id="path6641" d="m9 20.243-1.4142-1.4142-1.4142 1.4142-1.4142-1.4142 1.4142-1.4142-1.4142-1.4142h4.2426v4.2426z" style="fill:url(#linearGradient6643)"/>
  <path id="path6645" d="m15 8.7574 1.4142 1.4142 1.4142-1.4142 1.4142 1.4142-1.4142 1.4142 1.4142 1.4142h-4.2426v-4.2426z" style="fill:url(#linearGradient6647)"/>
  <path id="path6649" d="m15 20.243 1.4142-1.4142 1.4142 1.4142 1.4142-1.4142-1.4142-1.4142 1.4142-1.4142h-4.2426v4.2426z" style="fill:url(#linearGradient6651)"/>
 </g>
</svg>
