<svg version="1.0" width="22" height="22" xmlns="http://www.w3.org/2000/svg"><path d="M7.662 3c-.838.01-1.45-.02-1.953.258-.25.138-.45.371-.56.664C5.039 4.214 5 4.562 5 5v12c0 .438.039.786.149 1.078.11.293.31.528.56.666.502.277 1.115.246 1.953.256h5.676c.839-.01 1.451.021 1.953-.256a1.25 1.25 0 0 0 .56-.666c.11-.292.15-.64.15-1.078V5c0-.438-.04-.786-.15-1.078a1.253 1.253 0 0 0-.56-.664c-.502-.277-1.114-.248-1.953-.258H7.664zM10 4.303l4.24 4.238-2.939 2.469 2.94 2.469-4.24 4.238v-5.613l-2.429 2.039-.644-.766 2.818-2.367-2.818-2.367.644-.766L10 9.916zm1 2.414v3.24l1.76-1.48zm0 5.345v3.24l1.76-1.759z" fill="#fff" font-family="sans-serif" font-weight="400" overflow="visible" style="text-indent:0;text-decoration-line:none;text-decoration-style:solid;text-decoration-color:#000;text-transform:none;shape-padding:0;isolation:auto;mix-blend-mode:normal"/></svg>