<svg xmlns="http://www.w3.org/2000/svg" version="1.0" width="22" height="22" style="display:inline"><path style="opacity:.6;fill:#fff;fill-opacity:1;stroke:none" d="M1.031 8.738c0 6.063.063 11.5 8.438 11.5 6.974 0 8.117-3.694 8.312-8.5 2.02-.002 3.188-.06 3.188-.562V10.05c0-.604-1.343-.563-3.125-.563v-.75H1.03z"/><path d="M1.694 9.445c0 3.809-.622 9.843 7.753 9.843 6.974 0 7.322-3.275 7.517-8.08 2.02-.002 3.364.25 3.364-.253l.022-.64c0-.603-1.498-.318-3.28-.318v-.552H1.694z" style="fill:#fff;fill-opacity:1;stroke:none"/></svg>