<svg xmlns="http://www.w3.org/2000/svg" version="1.0" width="22" height="22" style="display:inline"><defs><linearGradient id="a"><stop style="stop-color:#3c3b37;stop-opacity:1" offset="0"/><stop style="stop-color:#5c5b56;stop-opacity:1" offset="1"/></linearGradient></defs><path d="M2.031 9.738c0 6.063.063 11.5 8.438 11.5 6.974 0 8.117-3.694 8.312-8.5 2.02-.002 3.188-.06 3.188-.562V11.05c0-.604-1.343-.563-3.125-.563v-.75H2.03z" style="opacity:.6;fill:#fff;fill-opacity:1;stroke:none" transform="translate(-1 -1)"/><path style="fill:#fff;fill-opacity:1;stroke:none" d="M2.694 10.445c0 3.809-.622 9.843 7.753 9.843 6.974 0 7.322-3.275 7.517-8.08 2.02-.002 3.364.25 3.364-.253l.022-.64c0-.603-1.498-.318-3.28-.318v-.552H2.694z" transform="translate(-1 -1)"/><path d="M5.75 9.073c-.031.724.281.31.75.345.469.034.906.034.875-.38-.031-.412-.688-1.48-.531-3.065C7 4.39 7.312 3.77 7.219 3.15c-.094-.62-.5-.31-.938-.31-.437 0-.906-.034-.812.31.093.345-.282 2.446-.188 3.169.094.723.375 1.378.469 2.755z" style="opacity:.6;fill:#fff;fill-opacity:1;stroke:none" transform="translate(-1 -1)"/><path style="fill:#fff;fill-opacity:1;stroke:none" d="M6.002 8.674c-.03.723.04.337.508.371.47.035.484.074.453-.34-.032-.413-.56-1.139-.404-2.723.156-1.584.367-1.83.384-2.473.016-.626-.142-.349-.58-.349-.437 0-.659-.134-.565.21.094.345-.341 1.93-.247 2.653.093.723.358 1.273.451 2.65z" transform="translate(-1 -1)"/><path style="opacity:.6;fill:#fff;fill-opacity:1;stroke:none" d="M9.507 9.073c-.032.724.28.31.75.345.468.034.906.034.875-.38-.032-.412-.688-1.48-.532-3.065.157-1.584.469-2.204.375-2.824-.093-.62-.5-.31-.937-.31-.438 0-.906-.034-.813.31.094.345-.281 2.446-.187 3.169.094.723.375 1.378.469 2.755z" transform="translate(-1 -1)"/><path d="M9.759 8.674c-.031.723.04.337.508.371.469.035.483.074.452-.34-.031-.413-.56-1.139-.404-2.723.156-1.584.368-1.83.384-2.473.017-.626-.142-.349-.58-.349-.437 0-.658-.134-.565.21.094.345-.34 1.93-.247 2.653.094.723.358 1.273.452 2.65z" style="fill:#fff;fill-opacity:1;stroke:none" transform="translate(-1 -1)"/><path d="M13.33 9.073c-.032.724.28.31.75.345.468.034.906.034.874-.38-.03-.412-.687-1.48-.53-3.065.155-1.584.468-2.204.374-2.824-.094-.62-.5-.31-.937-.31-.438 0-.907-.034-.813.31.094.345-.281 2.446-.187 3.169.093.723.375 1.378.468 2.755z" style="opacity:.6;fill:#fff;fill-opacity:1;stroke:none" transform="translate(-1 -1)"/><path style="fill:#fff;fill-opacity:1;stroke:none" d="M13.582 8.674c-.031.723.039.337.508.371.469.035.483.074.452-.34-.031-.413-.56-1.139-.404-2.723.156-1.584.367-1.83.384-2.473.017-.626-.142-.349-.58-.349-.437 0-.658-.134-.565.21.094.345-.34 1.93-.247 2.653.094.723.358 1.273.452 2.65z" transform="translate(-1 -1)"/></svg>