<svg viewBox="0 0 22 22" xmlns="http://www.w3.org/2000/svg"><path d="M12 3v1.012c-.772.016-1.4.076-1.938.373a1.88 1.88 0 0 0-.837.998C9.06 5.82 9 6.343 9 7v7h-.006v1c0 .658.06 1.18.225 1.617.164.44.462.79.838.996.753.415 1.673.372 2.931.387H15c1.258-.015 2.178.028 2.931-.387a1.87 1.87 0 0 0 .838-.996c.165-.438.225-.959.225-1.617H19V7c0-.657-.06-1.18-.225-1.617a1.88 1.88 0 0 0-.838-.998c-.538-.297-1.165-.357-1.937-.373V3zm1 2h2c1.26.015 2.087.06 2.453.262.184.1.289.212.387.472.097.26.16.674.16 1.266v7h-.006v1c0 .592-.063 1.006-.16 1.266-.098.259-.2.372-.385.472-.365.202-1.196.247-2.455.262h-2c-1.259-.015-2.09-.06-2.455-.262-.184-.1-.287-.213-.385-.472-.097-.26-.16-.674-.16-1.266v-1H10V7c0-.592.063-1.006.16-1.266.098-.26.203-.371.387-.472C10.913 5.06 11.74 5.015 13 5zM6 6l-3 6h2v5l3-6H6z" fill="#fff"/></svg>