<svg viewBox="0 0 22 22" xmlns="http://www.w3.org/2000/svg"><path d="M11 4c-1.526 0-2.544.781-3.072 1.838-.529 1.057-.675 2.353-.801 3.611s-.229 2.486-.533 3.317c-.152.415-.347.72-.588.918C5.766 13.882 5.47 14 5 14v1h12v-1c-.47 0-.765-.118-1.006-.316-.24-.199-.436-.503-.588-.918-.304-.83-.407-2.059-.533-3.317s-.272-2.554-.8-3.611C13.542 4.78 12.525 4 11 4zm0 1c1.224 0 1.769.467 2.178 1.285.409.818.575 2.022.699 3.264s.209 2.516.592 3.56c.126.346.369.61.588.891H6.943c.219-.281.461-.545.588-.89.383-1.045.468-2.32.592-3.561.124-1.242.29-2.445.7-3.264C9.23 5.467 9.776 5 11 5zM9 16a2.023 2.023 0 0 0 4.047 0z" fill="#fff" style="font-feature-settings:normal;font-variant-alternates:normal;font-variant-caps:normal;font-variant-east-asian:normal;font-variant-ligatures:normal;font-variant-numeric:normal;font-variant-position:normal;font-variation-settings:normal;inline-size:0;isolation:auto;mix-blend-mode:normal;shape-margin:0;shape-padding:0;text-decoration-color:#000;text-decoration-line:none;text-decoration-style:solid;text-indent:0;text-orientation:mixed;text-transform:none;white-space:normal"/></svg>