<svg viewBox="0 0 22 22" xmlns="http://www.w3.org/2000/svg"><path d="M9.387 2c-1.544.358-2.668 1.175-3.368 2.313C5.32 5.45 5.03 6.873 5 8.476l1 .02c.029-1.497.304-2.741.871-3.661.567-.921 1.411-1.553 2.742-1.863L9.387 2zm3.226 0-.226.973c1.274.297 2.102.89 2.668 1.75l.718-.72c-.706-.976-1.757-1.678-3.158-2.003h-.002zm-1.59 2c-1.526 0-2.544.78-3.072 1.838-.529 1.057-.675 2.353-.8 3.611s-.23 2.488-.534 3.319a2.92 2.92 0 0 1-.19.412L7.9 11.707c.114-.696.174-1.433.247-2.158.124-1.242.29-2.446.7-3.264C9.256 5.467 9.799 5 11.025 5c1.224 0 1.768.467 2.177 1.285.013.027.025.057.037.084l.744-.744C13.426 4.677 12.445 4 11.023 4zm6.028.027-12.5 12.5.707.707L7.492 15h9.532v-1c-.47 0-.765-.116-1.006-.314-.24-.2-.436-.503-.588-.918-.304-.83-.407-2.06-.533-3.319a23.902 23.902 0 0 0-.207-1.646l3.068-3.069-.707-.707zm-3.246 4.66c.036.283.066.57.095.862.124 1.242.211 2.517.594 3.56.126.346.369.61.588.891h-6.59l5.313-5.313zM9 16a2.023 2.023 0 0 0 4.047 0H9z" fill="#fff" style="font-feature-settings:normal;font-variant-alternates:normal;font-variant-caps:normal;font-variant-east-asian:normal;font-variant-ligatures:normal;font-variant-numeric:normal;font-variant-position:normal;font-variation-settings:normal;inline-size:0;isolation:auto;mix-blend-mode:normal;shape-margin:0;shape-padding:0;text-decoration-color:#000;text-decoration-line:none;text-decoration-style:solid;text-indent:0;text-orientation:mixed;text-transform:none;white-space:normal"/></svg>