<svg version="1.1" viewBox="0 0 35 200" xmlns="http://www.w3.org/2000/svg">
 <path d="m3 0c-1.662 0-3 1.338-3 3v194c0 1.662 1.338 3 3 3h33c1.662 0 3-1.338 3-3v-194c0-1.662-1.338-3-3-3h-33zm0 1h33c1.108 0 2 0.892 2 2v194c0 1.108-0.892 2-2 2h-33c-1.108 0-2-0.892-2-2v-194c0-1.108 0.892-2 2-2z" opacity=".45"/>
 <rect x="1" y="1" width="37" height="198" rx="2" ry="2" opacity=".3"/>
 <rect x="18.5" y="92" width="2" height="16" ry="1.2" fill="#bababa"/>
 <rect x="11.5" y="99" width="16" height="2" ry="1.2" fill="#bababa"/>
</svg>
