<svg height="16" width="16" xmlns="http://www.w3.org/2000/svg">
    <path d="M10 0c-.69.874-1.397 1.757-2.008 2.656-.68 1-1.288 1.972-1.826 2.912C5.67 6.436 5.296 7.342 5 8c.297.658.67 1.564 1.166 2.432a45.22 45.22 0 0 0 1.826 2.912c.61.9 1.317 1.782 2.008 2.656v-1.49c-.4-.525-.836-1.063-1.22-1.625a32.84 32.84 0 0 1-1.372-2.18 39.206 39.206 0 0 1-1.285-2.502L6.027 8l.096-.203a39.31 39.31 0 0 1 1.285-2.502c.427-.743.885-1.47 1.371-2.18.385-.562.821-1.1 1.221-1.625zM2 7a1 1 0 0 0-1 1 1 1 0 0 0 1 1 1 1 0 0 0 1-1 1 1 0 0 0-1-1z" fill="gray"/>
</svg>
