<svg viewBox="0 0 16 16" xmlns="http://www.w3.org/2000/svg">
 <path d="M8 0C3.588 0 0 3.588 0 8s3.588 8 8 8 8-3.588 8-8-3.588-8-8-8zm0 1c3.872 0 7 3.128 7 7a6.968 6.968 0 0 1-1.71 4.582L3.417 2.711A6.968 6.968 0 0 1 8 1zM2.711 3.418l9.871 9.871A6.968 6.968 0 0 1 8 15c-3.872 0-7-3.128-7-7 0-1.756.647-3.355 1.711-4.582z" fill="gray" font-family="sans-serif" font-weight="400" overflow="visible" style="font-feature-settings:normal;font-variant-alternates:normal;font-variant-caps:normal;font-variant-ligatures:normal;font-variant-numeric:normal;font-variant-position:normal;isolation:auto;mix-blend-mode:normal;shape-padding:0;text-decoration-color:#000;text-decoration-line:none;text-decoration-style:solid;text-indent:0;text-orientation:mixed;text-transform:none" white-space="normal"/>
</svg>
