<svg version="1.1" viewBox="0 0 16 16" xmlns="http://www.w3.org/2000/svg" xmlns:osb="http://www.openswatchbook.org/uri/2009/osb">
 <g transform="translate(-192 -180)">
  <path d="m198 180h-1v1h1zm0 1v1h-1v-1h-4e-3 -2e-3c-1.2582 0.0145-2.1788-0.0306-2.9316 0.38477-0.3764 0.20768-0.67518 0.55942-0.83984 0.99804-0.16437 0.43862-0.22252 0.95961-0.22252 1.6172v5 3c0 0.65759 0.058 1.1786 0.22266 1.6172 0.16466 0.43862 0.46344 0.78841 0.83984 0.99609 0.75281 0.41535 1.6734 0.37218 2.9316 0.38672h2e-3 4.0039 1v-1h-1-3.9941-0.00586c-1.2599-0.0147-2.087-0.0597-2.4531-0.26172-0.18338-0.10118-0.28915-0.21271-0.38672-0.47266-0.0976-0.25995-0.16016-0.67321-0.16016-1.2656v-3-2c0-0.59241 0.0626-1.0057 0.16016-1.2656 0.0976-0.25997 0.20334-0.37148 0.38672-0.47266 0.36675-0.20236 1.1954-0.2471 2.459-0.26172h3.9941 2c1.2596 0.0147 2.0871 0.0598 2.4531 0.26172 0.18338 0.10118 0.28914 0.21271 0.38672 0.47266 0.0976 0.25994 0.16016 1.2656 0.16016 1.2656v2 1h1v-1-5c0-0.65759-0.06-1.1786-0.22461-1.6172-0.16465-0.43862-0.46148-0.79036-0.83789-0.99804-0.75281-0.41535-1.6734-0.37023-2.9316-0.38477h-4e-3 -0.00186v1h-1v-1zm4 0h1v-1h-1zm3 10v2h-2v1h2v2h1v-2h2v-1h-2v-2z" color="#000000" color-rendering="auto" fill="#808080" image-rendering="auto" shape-rendering="auto" solid-color="#000000" style="isolation:auto;mix-blend-mode:normal;text-decoration-color:#000000;text-decoration-line:none;text-decoration-style:solid;text-indent:0;text-transform:none;white-space:normal"/>
 </g>
</svg>
