<svg version="1.1" viewBox="0 0 16 16" xmlns="http://www.w3.org/2000/svg">
 <path d="m3.9941 1c-1.258 0.015-2.1786-0.029281-2.9316 0.38672-0.38989 0.22112-0.68767 0.57449-0.83984 0.99609-0.164 0.438-0.22266 0.96019-0.22266 1.6172v8c0 0.658 0.057656 1.1792 0.22266 1.6172 0.164 0.439 0.46284 0.79005 0.83984 0.99805 0.526 0.29 1.1885 0.34138 1.9375 0.35938v-1.0137c-0.666-0.032-1.2041-0.084657-1.4531-0.22266-0.184-0.1-0.28972-0.21266-0.38672-0.47266-0.097-0.26-0.16016-0.67363-0.16016-1.2656v-8c0-0.592 0.063156-1.0056 0.16016-1.2656 0.098-0.26 0.20272-0.37166 0.38672-0.47266 0.367-0.203 1.195-0.24672 2.459-0.26172h2.5293l2.0215 2h3.4355c1.264 0.015 2.091 0.059719 2.459 0.26172 0.183 0.1 0.28872 0.21266 0.38672 0.47266s0.16211 0.67363 0.16211 1.2656v6c0 0.592-0.063156 1.0056-0.16016 1.2656-0.098 0.26-0.20272 0.37166-0.38672 0.47266-0.104 0.057-0.27312 0.092953-0.45312 0.12695v-6.8652c0-1.0993-0.90065-2-2-2h-6c-1.0993 0-2 0.90065-2 2v7c0 1.0993 0.90065 2 2 2h6c0.7635 0 1.4309-0.43467 1.7676-1.0684l0.23242-0.019532c0.34-0.053 0.6545-0.13988 0.9375-0.29688 0.38938-0.22212 0.68648-0.57611 0.83789-0.99805 0.165-0.438 0.22461-0.96019 0.22461-1.6172v-6c0-0.658-0.05961-1.1792-0.22461-1.6172-0.15116-0.42178-0.44888-0.77575-0.83789-0.99805-0.753-0.416-1.6736-0.36977-2.9316-0.38477h-3.0391l-2.0215-2h-2.9492-0.0019532zm2.0059 5h6c0.56265 0 1 0.43735 1 1v7c0 0.56265-0.43735 1-1 1h-6c-0.56265 0-1-0.43735-1-1v-7c0-0.56265 0.43735-1 1-1zm0.0078125 1v1h6.0117v-1h-6.0117zm0 2v1h6.0117v-1h-6.0117zm-0.0078125 2v1h3v-1h-3z" fill="#808080" style="font-feature-settings:normal;font-variant-alternates:normal;font-variant-caps:normal;font-variant-ligatures:none;font-variant-numeric:normal;font-variant-position:normal;isolation:auto;mix-blend-mode:normal;shape-padding:0;text-decoration-color:#000000;text-decoration-line:none;text-decoration-style:solid;text-indent:0;text-transform:none"/>
</svg>
