<svg version="1.1" viewBox="0 0 16 16" xmlns="http://www.w3.org/2000/svg">
 <path d="m3 0c-1.0993 0-2 0.90065-2 2v9c0 1.0993 0.90065 2 2 2 0 1.0993 0.90065 2 2 2h8c1.0993 0 2-0.90065 2-2v-9c0-1.0993-0.90065-2-2-2 0-1.0993-0.90065-2-2-2h-8zm0 1h8c0.56264 0 1 0.43735 1 1h-7c-1.0993 0-2 0.90065-2 2v8c-0.56265 0-1-0.43736-1-1v-9c0-0.56265 0.43735-1 1-1zm2 2h8c0.56265 0 1 0.43735 1 1v9c0 0.56265-0.43735 1-1 1h-8c-0.56265 0-1-0.43735-1-1v-9c0-0.56265 0.43735-1 1-1zm1 2v1h6.0195v-1h-6.0195zm0 2v1h6.0195v-1h-6.0195zm-0.0078125 2v1h3.0078v-1h-3.0078z" fill="#808080"/>
</svg>
