<svg version="1.1" viewBox="0 0 16 16" xmlns="http://www.w3.org/2000/svg">
 <g fill="#808080" stroke-width="5">
  <path d="m11.225 1.4688c-0.06713 7.567e-4 -0.1445 0.014906-0.23633 0.041016l-0.48242 0.13672-0.48047 0.13672c-0.36732 0.10444-0.44612 0.25713-0.34375 0.61719l1.6836 5.9238 1.5039 5.291c0.10237 0.36006 0.25182 0.44819 0.61914 0.34375l0.96094-0.27344c0.36732-0.10444 0.44612-0.25713 0.34375-0.61719l-1.5039-5.291-1.6836-5.9238c-0.07678-0.27004-0.17948-0.38704-0.38086-0.38477z"/>
  <path d="m5 4v10h1v-10z"/>
  <path d="m2.5 2c-0.38188 0-0.5 0.12567-0.5 0.5v11c0 0.37433 0.11812 0.5 0.5 0.5h1c0.38188 0 0.5-0.12567 0.5-0.5v-11c0-0.37433-0.11812-0.5-0.5-0.5h-0.5z"/>
  <path d="m7.5 3c-0.38188 0-0.5 0.12567-0.5 0.5v10c0 0.37433 0.11812 0.5 0.5 0.5h1c0.38188 0 0.5-0.12567 0.5-0.5v-10c0-0.37433-0.11812-0.5-0.5-0.5h-0.5z"/>
 </g>
</svg>
