<svg viewBox="0 0 16 16" xmlns="http://www.w3.org/2000/svg">
 <g fill="gray">
  <path d="M7 1c-.658 0-1.179.06-1.617.225a1.88 1.88 0 0 0-.998.837c-.416.753-.37 1.674-.385 2.932V9.5h1V5c.015-1.259.06-2.09.262-2.455.1-.183.212-.287.472-.385C5.994 2.063 6.408 2 7 2h2c.592 0 1.006.063 1.266.16.26.098.371.202.472.385.202.366.247 1.196.262 2.455v10h1V4.994c-.015-1.258.03-2.179-.385-2.932a1.88 1.88 0 0 0-.998-.837C10.178 1.06 9.657 1 9 1z" font-family="sans-serif" font-weight="400" overflow="visible" style="font-feature-settings:normal;font-variant-alternates:normal;font-variant-caps:normal;font-variant-ligatures:normal;font-variant-numeric:normal;font-variant-position:normal;isolation:auto;mix-blend-mode:normal;shape-padding:0;text-decoration-color:#000;text-decoration-line:none;text-decoration-style:solid;text-indent:0;text-orientation:mixed;text-transform:none" white-space="normal"/>
  <path d="M2 8l5 .001c-.348.76-.737 1.535-1.166 2.323A44.09 44.09 0 0 1 4.5 12.583c-.449-.725-.889-1.478-1.32-2.26A43.088 43.088 0 0 1 2 8z" overflow="visible"/>
 </g>
</svg>
