<svg version="1.1" viewBox="0 0 16 16" xmlns="http://www.w3.org/2000/svg">
 <path d="m2 2c-0.438 0-0.78612 0.039438-1.0781 0.14844-0.292 0.11-0.52606 0.30955-0.66406 0.56055-0.277 0.502-0.24781 1.1141-0.25781 1.9531v6.6758c0.01 0.839-0.019188 1.4511 0.25781 1.9531 0.138 0.251 0.37206 0.45055 0.66406 0.56055 0.292 0.11 0.64012 0.14844 1.0781 0.14844h8v-1h-8c-0.38 0-0.60656-0.038984-0.72656-0.083984a0.257 0.257 0 0 1-0.14062-0.10742c-0.096-0.174-0.12281-0.6167-0.13281-1.4707v-6.6738c0.01-0.856 0.036812-1.2987 0.13281-1.4727a0.257 0.257 0 0 1 0.14062-0.10742c0.121-0.045 0.34756-0.083984 0.72656-0.083984h12c0.38 0 0.60556 0.038984 0.72656 0.083984 0.083001 0.031 0.12758 0.080422 0.14258 0.10742 0.095 0.172 0.11986 0.61466 0.13086 1.4727v5.3359h1v-5.3379c-0.01-0.839 0.021141-1.4511-0.25586-1.9531a1.258 1.258 0 0 0-0.66602-0.56055c-0.292-0.11-0.64012-0.14844-1.0781-0.14844h-12zm0.53711 2.5781-0.28516 0.4375 5.873 4.2207 5.875-4.2363-0.28516-0.42188-5.5898 3.373-5.5879-3.373z" fill="#808080"/>
 <path d="m13 11v2h-2v1h2v2h1v-2h2v-1h-2v-2h-1z" fill="#808080" fill-rule="evenodd"/>
</svg>
