<svg version="1.1" viewBox="0 0 16 16" xmlns="http://www.w3.org/2000/svg">
 <path d="m15 6h-2v9h2zm-3 1h-2v8h2zm-8 0v8h2v-8zm-1 2h-2v6h2zm6 0h-2v6h2z" fill="#808080" stroke-width="3.873" style="paint-order:stroke fill markers"/>
 <path d="m15.996 0.77148c-0.16958 0.015535-0.33843 0.03719-0.50781 0.054688-0.15172 0.015673-0.30354 0.029629-0.45508 0.046875-0.54849 0.062422-1.0968 0.13381-1.6426 0.2168-0.88634 0.13926-1.736 0.30178-2.5508 0.48828l1.2168 1.5859 0.01367 0.017578-4.2012 3.2734-2.8613-2.8613-0.79492 0.61914-4.1936 3.2715 0.61328 0.78711 4.2932-3.3458 2.8633 2.8633 0.79297-0.62109 4.0957-3.1914 1.2031 1.5684c0.39896-0.77202 0.7754-1.5549 1.127-2.3496 0.22552-0.51508 0.43565-1.0243 0.63867-1.5312 0.05668-0.14154 0.11105-0.28292 0.16602-0.42383 0.06079-0.15584 0.12488-0.31367 0.18359-0.46875z" fill="#808080"/>
</svg>
