<svg version="1.1" viewBox="0 0 16 16" xmlns="http://www.w3.org/2000/svg">
 <g transform="translate(-353.05 -477.15)">
  <path d="m362.74 479.15-0.74302 0.74301 1.4142 1.4142 3.635 3.6322c0.43894 0.43888 0.69599 0.79181 0.81621 1.0565 0.1203 0.26473 0.12586 0.42584 0.0649 0.63667-0.12165 0.42066-0.70285 1.0671-1.6241 2.0108l-2.3569 2.3569 0.74302 0.74302 1.4138-1.4138 0.94603-0.94879v-3e-3c0.92101-0.94322 1.635-1.5917 1.8852-2.4569 0.12504-0.43261 0.0842-0.91204-0.11877-1.359-0.20294-0.447-0.54165-0.87871-1.0289-1.3659l-3.664-3.664zm-2.9251 0.60491c-0.234-0.234-0.55953-0.37565-0.91703-0.37566l-4.5479-1e-3c-0.715 0-1.301 0.58597-1.301 1.301v4.5492c0 0.3575 0.14205 0.68343 0.38255 0.92393l5.8516 5.8488c0.234 0.234 0.55814 0.37704 0.91564 0.37704 0.35751 0 0.68165-0.14206 0.91565-0.38256l4.5506-4.5506c0.2405-0.23399 0.38256-0.55815 0.38256-0.91565s-0.14856-0.68993-0.38256-0.92393zm-0.7665 0.62286 6.038 6.1126-4.9525 4.9525-6.0698-6.0753-0.0152-4.9898c0.40522-4e-3 0.82091-1e-3 1.2402 0 1.2578 4e-3 2.555 0.0191 3.7593 0zm-2.2926 1.2927a1 1 0 0 0-0.7071-0.29279 1 1 0 0 0-0.9999 0.99989 1 1 0 0 0 0.9999 0.9999 1 1 0 0 0 0.99989-0.9999 1 1 0 0 0-0.29279-0.7071z" color="#000000" color-rendering="auto" dominant-baseline="auto" fill="#808080" image-rendering="auto" shape-rendering="auto" solid-color="#000000" style="font-feature-settings:normal;font-variant-alternates:normal;font-variant-caps:normal;font-variant-ligatures:normal;font-variant-numeric:normal;font-variant-position:normal;isolation:auto;mix-blend-mode:normal;shape-padding:0;text-decoration-color:#000000;text-decoration-line:none;text-decoration-style:solid;text-indent:0;text-orientation:mixed;text-transform:none;white-space:normal"/>
 </g>
</svg>
