<svg version="1.1" viewBox="0 0 16 16" xmlns="http://www.w3.org/2000/svg">
 <g transform="translate(-312 -160)" fill="#808080">
  <path d="m324.5 164c-0.82843 0-1.5 0.67157-1.5 1.5s0.67157 1.5 1.5 1.5 1.5-0.67157 1.5-1.5-0.67157-1.5-1.5-1.5z" color="#000000"/>
  <path d="m315.99 161.69c-0.3573 4e-3 -0.68739 3e-3 -0.99414 0.01-0.77345 0.0162-1.3986 0.0776-1.9375 0.375-0.37637 0.20766-0.67323 0.55938-0.83789 0.99804-0.16467 0.43867-0.22461 0.95957-0.22461 1.6172v6.3123c0 0.65762 0.0599 1.1785 0.22461 1.6172 0.16466 0.43866 0.46152 0.79038 0.83789 0.99804 0.53895 0.29742 1.164 0.35883 1.9375 0.375 0.30675 6e-3 0.63684 6e-3 0.99414 0.01h8.0119c1.2582-0.0145 2.1789 0.0306 2.9316-0.38477 0.37637-0.20766 0.67323-0.55938 0.83789-0.99804 0.16471-0.4387 0.22461-0.95958 0.22461-1.6172v-6.3127c0-0.65761-0.0599-1.1785-0.22461-1.6172-0.16466-0.43866-0.46152-0.79038-0.83789-0.99804-0.75275-0.41537-1.6734-0.37027-2.9316-0.38477h-8.0079zm2.0059 1h4c2-1e-5 3.4845-0.0156 4.2266 0.22461 0.98348 0.44721 0.77344 1.7754 0.77344 2.7754-1.7e-4 0.42243-6.8e-4 0.86119-4e-3 1.3125h4e-3v1.6875h-4e-3c3e-3 0.45131 4e-3 0.89007 4e-3 1.3125 0 1 0.21004 2.3282-0.77344 2.7754-0.7421 0.24021-2.2266 0.22462-4.2266 0.22461h-4c-1.203 0-2.2194 5e-3 -3-0.043v-10.227c0.78059-0.0478 1.797-0.043 3-0.043z" style=""/>
  <path d="m319 166.5-3 5.5h8l-2.5-4.5-1 1.5z" color="#000000"/>
 </g>
</svg>
