<svg version="1.1" viewBox="0 0 16 16" xmlns="http://www.w3.org/2000/svg">
 <g transform="translate(-312 -160)" fill="#808080">
  <path d="m314 172.01c4e-3 0.3573 3e-3 0.68739 0.01 0.99414 0.0162 0.77345 0.0776 1.3986 0.375 1.9375 0.20766 0.37637 0.55938 0.67323 0.99804 0.83789 0.43867 0.16467 0.95957 0.22461 1.6172 0.22461h6.3123c0.65762 0 1.1785-0.0599 1.6172-0.22461 0.43866-0.16466 0.79038-0.46152 0.99804-0.83789 0.29742-0.53895 0.35883-1.164 0.375-1.9375 6e-3 -0.30675 6e-3 -0.63684 0.01-0.99414v-8.0119c-0.0145-1.2582 0.0306-2.1789-0.38477-2.9316-0.20766-0.37637-0.55938-0.67323-0.99804-0.83789-0.4387-0.16471-0.95958-0.22461-1.6172-0.22461h-6.3127c-0.65761 0-1.1785 0.0599-1.6172 0.22461-0.43866 0.16466-0.79038 0.46152-0.99804 0.83789-0.41537 0.75275-0.37027 1.6734-0.38477 2.9316v8.0079zm1-2.0059v-4c-1e-5 -2-0.0156-3.4845 0.22461-4.2266 0.44721-0.98348 1.7754-0.77344 2.7754-0.77344 0.42243 1.7e-4 0.86119 6.8e-4 1.3125 4e-3v-4e-3h1.6875v4e-3c0.45131-3e-3 0.89007-4e-3 1.3125-4e-3 1 0 2.3282-0.21004 2.7754 0.77344 0.24021 0.7421 0.22462 2.2266 0.22461 4.2266v4c0 1.203 5e-3 2.2194-0.043 3h-10.227c-0.0478-0.78059-0.043-1.797-0.043-3z"/>
  <path d="m320 169v2e-3c-2.9979 8e-3 -3 1.998-3 1.998-1.6e-4 0.99805 1e-3 0.4466 0 0.99805 0.5 1e-3 1.7499 2e-3 3 2e-3s2.5-3e-3 3-4e-3c-1e-3 -0.55145 1.6e-4 1e-5 0-0.99804 0 0-2e-3 -1.99-3-1.998z"/>
  <path d="m320 164c-0.2827 0-0.55149 0.055-0.79883 0.16602-0.24589 0.10564-0.46511 0.26009-0.64648 0.46093v2e-3l-2e-3 2e-3c-0.17671 0.20179-0.31228 0.44348-0.4082 0.71875-0.0977 0.2754-0.14453 0.57761-0.14453 0.90039 0 0.32721 0.0466 0.63217 0.14453 0.9082 0.0962 0.2711 0.23192 0.50964 0.4082 0.71094l2e-3 2e-3c0.18095 0.20039 0.3978 0.35832 0.64258 0.46875l2e-3 2e-3h2e-3c0.24681 0.10566 0.51657 0.1582 0.79883 0.1582 0.2822 0 0.54984-0.0525 0.79687-0.1582v-2e-3c0.24456-0.11033 0.45812-0.26764 0.63477-0.46875 0.18153-0.20133 0.32146-0.4407 0.41797-0.71289 0.0983-0.27603 0.14453-0.58101 0.14453-0.9082h6e-3c0-0.32242-0.047-0.62322-0.14453-0.89844-0.0961-0.27645-0.23607-0.52072-0.41797-0.72265-0.17708-0.20175-0.39299-0.35724-0.63867-0.46289-0.2483-0.11051-0.51617-0.16616-0.79907-0.16616z"/>
 </g>
</svg>
