<svg version="1.1" viewBox="0 0 16 16" xmlns="http://www.w3.org/2000/svg" xmlns:osb="http://www.openswatchbook.org/uri/2009/osb">
 <path d="m8 1c-0.45828 0.725-0.90319 1.397-1.334 2.1777-0.42975 0.78818-0.81836 1.5618-1.166 2.3223h1.5v4.502l2-0.001953v-4.5l1.5 0.0019531c-0.35693-0.76084-0.7497-1.5356-1.1797-2.3242-0.43078-0.78083-0.8712-1.4527-1.3203-2.1777zm-3.2129 6c-0.67694 0.00559-1.2506 0.048155-1.7598 0.30273-0.33944 0.16973-0.63001 0.46244-0.79688 0.83789-0.16687 0.37546-0.23047 0.81771-0.23047 1.3594v0.5 1 0.5c0 0.54167 0.063599 0.98392 0.23047 1.3594 0.16687 0.37545 0.45744 0.66816 0.79688 0.83789 0.67889 0.33944 1.4727 0.30273 2.4727 0.30273h5c1 0 1.7938 0.036704 2.4727-0.30273 0.33944-0.16973 0.63-0.46244 0.79688-0.83789 0.16687-0.37546 0.23249-0.81771 0.23047-1.3594v-0.5-1-0.5c2e-3 -0.54167-0.0636-0.98392-0.23047-1.3594-0.16687-0.37545-0.45744-0.66816-0.79688-0.83789-0.67889-0.33944-1.4727-0.30273-2.4727-0.30273h-0.5v1h0.5c1 0 1.7062 0.036706 2.0273 0.19727 0.16056 0.08027 0.24502 0.16256 0.32812 0.34961 0.08313 0.18704 0.14453 0.4948 0.14453 0.95312v0.5 1 0.5c0 0.45833-0.061401 0.76608-0.14453 0.95312-0.0831 0.18705-0.16756 0.26934-0.32812 0.34961-0.32111 0.16056-1.0273 0.19727-2.0273 0.19727h-5c-1 0-1.7062-0.036696-2.0273-0.19727-0.16056-0.0803-0.245-0.16256-0.32812-0.34961-0.0831-0.18704-0.14453-0.4948-0.14453-0.95312v-0.5-1-0.5c0-0.45833 0.061431-0.76609 0.14453-0.95312 0.08313-0.18705 0.16757-0.26931 0.32812-0.34961 0.32111-0.16057 1.0273-0.19727 2.0273-0.19727h0.5v-1h-0.5c-0.25 0-0.48724-0.00186-0.71289 0z" color="#000000" color-rendering="auto" dominant-baseline="auto" fill="#808080" image-rendering="auto" shape-rendering="auto" solid-color="#000000" style="font-feature-settings:normal;font-variant-alternates:normal;font-variant-caps:normal;font-variant-ligatures:normal;font-variant-numeric:normal;font-variant-position:normal;isolation:auto;mix-blend-mode:normal;shape-padding:0;text-decoration-color:#000000;text-decoration-line:none;text-decoration-style:solid;text-indent:0;text-orientation:mixed;text-transform:none;white-space:normal"/>
</svg>
