<svg width="16" height="16" version="1.1" viewBox="0 0 4.2333 4.2333" xmlns="http://www.w3.org/2000/svg">
 <path d="m1.8888 0.52917c-0.10701 0.22602-0.21123 0.45516-0.31213 0.68731-0.10089 0.23213-0.20352 0.4762-0.30747 0.73276-0.10089 0.25657-0.2046 0.52885-0.3116 0.81598-0.10701 0.2871-0.22028 0.59992-0.33951 0.93895h0.601c0.042804-0.12217 0.085355-0.24421 0.12816-0.3664 0.04586-0.12523 0.11223-0.29908 0.15503-0.42736h1.2966c0.042804 0.12828 0.10762 0.30054 0.15348 0.42272 0.04586 0.12218 0.090519 0.24581 0.13333 0.37103h0.62373c-0.11924-0.33904-0.2341-0.65185-0.34417-0.93895-0.10701-0.2871-0.21231-0.55941-0.31626-0.81598-0.10089-0.25657-0.20193-0.50064-0.30282-0.73276-0.10089-0.23213-0.2046-0.46127-0.3116-0.68731zm0.27493 0.61391c0.067262 0.15577 0.14651 0.35134 0.23823 0.58653 0.078576 0.20147 0.16077 0.42323 0.24391 0.65164h-0.9648c0.082669-0.22776 0.1639-0.44834 0.23978-0.64699 0.091723-0.23213 0.17256-0.42931 0.24288-0.59118z" fill="#808080" stroke-width=".26458" style="font-feature-settings:normal;font-variant-caps:normal;font-variant-ligatures:normal;font-variant-numeric:normal"/>
</svg>
