<svg width="16" height="16" version="1.1" viewBox="0 0 4.2333 4.2333" xmlns="http://www.w3.org/2000/svg">
 <path transform="matrix(.26458 0 0 .26458 -56.092 -127.26)" d="m218.96 481c-0.40445 0.85426-0.79836 1.7203-1.1797 2.5977-0.38133 0.87734-0.76922 1.7998-1.1621 2.7695-0.38133 0.9697-0.77328 1.9988-1.1777 3.084-0.40445 1.0851-0.83254 2.2674-1.2832 3.5488h2.2715c0.16178-0.46176 0.3226-0.92301 0.48437-1.3848 0.17333-0.4733 0.42416-1.1304 0.58594-1.6152h4.9004c0.16178 0.48485 0.40675 1.1359 0.58008 1.5977s0.34212 0.92904 0.50391 1.4023h2.3574c-0.45067-1.2814-0.88478-2.4637-1.3008-3.5488-0.40445-1.0851-0.80243-2.1143-1.1953-3.084-0.38133-0.9697-0.7632-1.8922-1.1445-2.7695-0.38133-0.87735-0.77328-1.7434-1.1777-2.5977zm1.0391 2.3203c0.25422 0.58874 0.55372 1.3279 0.90039 2.2168 0.29698 0.76146 0.60763 1.5996 0.92188 2.4629h-3.6465c0.31245-0.86082 0.61946-1.6945 0.90625-2.4453 0.34667-0.87736 0.65219-1.6226 0.91797-2.2344z" fill="#808080" style="font-feature-settings:normal;font-variant-caps:normal;font-variant-ligatures:normal;font-variant-numeric:normal"/>
 <path class="error" d="m0.79375 3.4396c-0.11024 0-0.20275 0.062844-0.2589 0.13023-0.05615 0.067381-0.09095 0.14159-0.12402 0.20774-0.033073 0.066146-0.064418 0.12422-0.090951 0.15606-0.026532 0.031837-0.033245 0.035139-0.055293 0.035139v0.26458c0.11024 0 0.20275-0.062844 0.2589-0.13023 0.05615-0.067379 0.09095-0.14159 0.12402-0.20774 0.033073-0.066146 0.064418-0.12422 0.090951-0.15606 0.026532-0.031837 0.033245-0.035139 0.055293-0.035139s0.028763 0.0033 0.055293 0.035139c0.026532 0.031837 0.057878 0.089916 0.09095 0.15606 0.033073 0.066146 0.067874 0.14036 0.12402 0.20774 0.05615 0.067381 0.14866 0.13023 0.2589 0.13023 0.11024 0 0.20275-0.062844 0.2589-0.13023 0.05615-0.067379 0.09095-0.14159 0.12402-0.20774 0.033073-0.066146 0.064418-0.12422 0.090951-0.15606 0.026532-0.031837 0.033245-0.035139 0.055293-0.035139s0.028763 0.0033 0.055293 0.035139c0.026532 0.031837 0.057878 0.089916 0.090951 0.15606 0.033073 0.066146 0.067874 0.14036 0.12402 0.20774 0.05615 0.067381 0.14866 0.13023 0.2589 0.13023 0.11024 0 0.20275-0.062844 0.2589-0.13023 0.05615-0.067379 0.090951-0.14159 0.12402-0.20774 0.033073-0.066146 0.064418-0.12422 0.09095-0.15606 0.026532-0.031837 0.033245-0.035139 0.055293-0.035139s0.028763 0.0033 0.055293 0.035139c0.026532 0.031837 0.057878 0.089916 0.090951 0.15606 0.033073 0.066146 0.067874 0.14036 0.12402 0.20774 0.05615 0.067381 0.14866 0.13023 0.2589 0.13023 0.11024 0 0.20275-0.062844 0.2589-0.13023 0.05615-0.067379 0.090951-0.14159 0.12402-0.20774 0.033073-0.066146 0.064418-0.12422 0.09095-0.15606 0.026532-0.031837 0.033245-0.035139 0.055293-0.035139v-0.26458c-0.11024 0-0.20275 0.062844-0.2589 0.13023-0.05615 0.067381-0.090951 0.14159-0.12402 0.20774-0.033073 0.066146-0.064418 0.12422-0.090951 0.15606-0.026532 0.031837-0.033245 0.035139-0.055293 0.035139s-0.028763-0.0033-0.055293-0.035139c-0.026534-0.031837-0.057879-0.089916-0.090952-0.15606-0.033073-0.066146-0.067874-0.14036-0.12402-0.20774-0.05615-0.067381-0.14866-0.13023-0.2589-0.13023s-0.20275 0.062844-0.2589 0.13023c-0.05615 0.067381-0.09095 0.14159-0.12402 0.20774-0.033073 0.066146-0.064418 0.12422-0.09095 0.15606-0.026532 0.031837-0.033245 0.035139-0.055293 0.035139s-0.028763-0.0033-0.055293-0.035139c-0.026532-0.031837-0.057877-0.089916-0.09095-0.15606-0.033073-0.066146-0.067874-0.14036-0.12402-0.20774-0.05615-0.067381-0.14866-0.13023-0.2589-0.13023s-0.20275 0.062844-0.2589 0.13023c-0.05615 0.067381-0.09095 0.14159-0.12402 0.20774-0.033073 0.066146-0.064418 0.12422-0.09095 0.15606-0.026533 0.031837-0.033245 0.035139-0.055293 0.035139s-0.028763-0.0033-0.055293-0.035139c-0.026532-0.031837-0.057877-0.089916-0.09095-0.15606-0.033073-0.066146-0.067874-0.14036-0.12402-0.20774-0.05615-0.067381-0.14866-0.13023-0.2589-0.13023z" color="#000000" fill="#e01b24" stroke-linecap="round" stroke-linejoin="round" stroke-width=".26458" style="-inkscape-stroke:none"/>
</svg>
