<svg version="1.1" viewBox="0 0 16 16" xmlns="http://www.w3.org/2000/svg" xmlns:osb="http://www.openswatchbook.org/uri/2009/osb">
 <g transform="translate(-236 -380.03)" fill="#808080">
  <path d="m244 381.99c-3.6479 5e-3 -6.8308 2.4765-7.7383 6.0098 0.91502 3.5255 4.096 5.9879 7.7383 5.9902 3.6479-5e-3 6.8308-2.4765 7.7383-6.0098-0.91502-3.5255-4.096-5.9879-7.7383-5.9902zm-0.0781 1.0293c1.7403-0.0197 3.5112 0.63214 4.7774 1.8359 0.93959 0.82912 1.6024 1.936 1.9785 3.125-0.48037 1.618-1.5667 3.0464-3.0059 3.9297-1.1694 0.73635-2.5634 1.0892-3.9199 1.0449-1.0355-0.0138-2.1048-0.33363-2.9922-0.79492-1.6174-0.85283-2.8849-2.3578-3.4199-4.1094 0.085-0.51892 0.34571-1.0247 0.59766-1.4941 1.1884-2.1249 3.5457-3.5312 5.9844-3.5371z" style="paint-order:normal"/>
  <path d="m244.2 383.99c-0.13341-6e-3 -0.26704-5e-3 -0.40039 2e-3 -2.205 0.1136-3.9009 1.9922-3.7891 4.1973 0.11256 2.2057 1.9915 3.9028 4.1973 3.791 2.2057-0.11256 3.9028-1.9915 3.791-4.1973v-2e-3c-0.10487-2.0517-1.7469-3.6904-3.7988-3.791zm-0.34765 1a3 3 0 0 1 3.1484 2.8418v2e-3a3 3 0 0 1-2.8438 3.1484 3 3 0 0 1-3.1484-2.8438 3 3 0 0 1 2.8438-3.1484z"/>
  <path d="m243.9 385.99a2 2 0 0 0-1.8965 2.0996 2 2 0 0 0 2.0996 1.8965 2 2 0 0 0 1.8965-2.0996 2 2 0 0 0-0.0879-0.48633 1 1 0 0 1-0.85938 0.58594 1 1 0 0 1-1.0488-0.94727 1 1 0 0 1 0.58203-0.96094 2 2 0 0 0-0.68554-0.0879z"/>
 </g>
</svg>
