<svg viewBox="0 0 16 16" xmlns="http://www.w3.org/2000/svg">
 <g fill="gray" font-family="sans-serif" font-weight="400" white-space="normal">
  <path d="M7.5 1A6.508 6.508 0 0 0 1 7.5C1 11.084 3.916 14 7.5 14S14 11.084 14 7.5 11.084 1 7.5 1zm0 1.04c3.022 0 5.46 2.438 5.46 5.46s-2.438 5.46-5.46 5.46A5.454 5.454 0 0 1 2.039 7.5c0-3.022 2.44-5.46 5.461-5.46z" overflow="visible" style="font-feature-settings:normal;font-variant-alternates:normal;font-variant-caps:normal;font-variant-ligatures:normal;font-variant-numeric:normal;font-variant-position:normal;isolation:auto;mix-blend-mode:normal;shape-padding:0;text-decoration-color:#000;text-decoration-line:none;text-decoration-style:solid;text-indent:0;text-orientation:mixed;text-transform:none"/>
  <path d="M11.853 11.146l-.707.708 3.5 3.5.707-.708zM5 7v1h5V7z" fill-rule="evenodd" overflow="visible" style="font-feature-settings:normal;font-variant-alternates:normal;font-variant-caps:normal;font-variant-ligatures:normal;font-variant-numeric:normal;font-variant-position:normal;isolation:auto;mix-blend-mode:normal;shape-padding:0;text-decoration-color:#000;text-decoration-line:none;text-decoration-style:solid;text-indent:0;text-orientation:mixed;text-transform:none"/>
 </g>
</svg>
