<?xml version="1.0" encoding="UTF-8" standalone="no"?>
<!-- Created with Inkscape (http://www.inkscape.org/) -->

<svg
   xmlns:dc="http://purl.org/dc/elements/1.1/"
   xmlns:cc="http://creativecommons.org/ns#"
   xmlns:rdf="http://www.w3.org/1999/02/22-rdf-syntax-ns#"
   xmlns:svg="http://www.w3.org/2000/svg"
   xmlns="http://www.w3.org/2000/svg"
   xmlns:xlink="http://www.w3.org/1999/xlink"
   xmlns:sodipodi="http://sodipodi.sourceforge.net/DTD/sodipodi-0.dtd"
   xmlns:inkscape="http://www.inkscape.org/namespaces/inkscape"
   inkscape:export-ydpi="90.000000"
   inkscape:export-xdpi="90.000000"
   width="400"
   height="300"
   id="svg11300"
   sodipodi:version="0.32"
   inkscape:version="0.92.2 (unknown)"
   sodipodi:docname="preferences-system-bluetooth.svg"
   inkscape:output_extension="org.inkscape.output.svg.inkscape"
   version="1.0"
   style="display:inline;enable-background:new"
   inkscape:export-filename="/home/sam/paper-template.png">
  <title
     id="title3004">Paper Icon Theme Template</title>
  <sodipodi:namedview
     stroke="#ef2929"
     fill="#f57900"
     id="base"
     pagecolor="#ffffff"
     bordercolor="#000000"
     borderopacity="0.25490196"
     inkscape:pageopacity="0"
     inkscape:pageshadow="2"
     inkscape:zoom="1"
     inkscape:cx="337.16777"
     inkscape:cy="45.13686"
     inkscape:current-layer="layer6"
     showgrid="false"
     inkscape:grid-bbox="true"
     inkscape:document-units="px"
     inkscape:showpageshadow="false"
     inkscape:window-width="1920"
     inkscape:window-height="1016"
     inkscape:window-x="0"
     inkscape:window-y="27"
     width="400px"
     height="300px"
     inkscape:snap-nodes="true"
     inkscape:snap-bbox="true"
     gridtolerance="10000"
     inkscape:object-nodes="true"
     inkscape:snap-grids="true"
     showguides="true"
     inkscape:guide-bbox="true"
     inkscape:window-maximized="1"
     inkscape:bbox-paths="true"
     inkscape:snap-bbox-midpoints="true"
     inkscape:snap-global="true"
     inkscape:object-paths="true"
     inkscape:snap-intersection-paths="true"
     inkscape:snap-smooth-nodes="true"
     inkscape:pagecheckerboard="false"
     showborder="false">
    <inkscape:grid
       spacingy="1"
       spacingx="1"
       id="grid5883"
       type="xygrid"
       enabled="true"
       visible="true"
       empspacing="4"
       snapvisiblegridlinesonly="true"
       originx="0"
       originy="0" />
    <inkscape:grid
       type="xygrid"
       id="grid11592"
       empspacing="2"
       visible="true"
       enabled="false"
       spacingx="0.5"
       spacingy="0.5"
       color="#ff0000"
       opacity="0.1254902"
       empcolor="#ff0000"
       empopacity="0.25098039"
       snapvisiblegridlinesonly="true"
       originx="0"
       originy="0" />
  </sodipodi:namedview>
  <defs
     id="defs3">
    <linearGradient
       inkscape:collect="always"
       id="linearGradient927">
      <stop
         style="stop-color:#ffffff;stop-opacity:1;"
         offset="0"
         id="stop923" />
      <stop
         id="stop933"
         offset="0.125"
         style="stop-color:#ffffff;stop-opacity:0.09803922" />
      <stop
         id="stop931"
         offset="0.92500001"
         style="stop-color:#ffffff;stop-opacity:0.09803922" />
      <stop
         style="stop-color:#ffffff;stop-opacity:0.49803922"
         offset="1"
         id="stop925" />
    </linearGradient>
    <clipPath
       clipPathUnits="userSpaceOnUse"
       id="clipPath9430">
      <path
         sodipodi:nodetypes="sssssssss"
         inkscape:connector-curvature="0"
         id="path9432"
         d="m 166.0625,-196 h 179.875 C 491.2348,-196 512,-175.28677 512,-30.125 v 148.25 C 512,263.28618 491.2348,284 345.9375,284 H 166.0625 C 20.7652,284 0,263.28618 0,118.125 V -30.125 C 0,-175.28677 20.7652,-196 166.0625,-196 Z"
         style="color:#000000;display:inline;overflow:visible;visibility:visible;fill:#ffffff;fill-opacity:1;fill-rule:nonzero;stroke:none;stroke-width:1;marker:none;enable-background:new" />
    </clipPath>
    <clipPath
       clipPathUnits="userSpaceOnUse"
       id="clipPath1082">
      <path
         sodipodi:nodetypes="sssssssss"
         inkscape:connector-curvature="0"
         id="path1084"
         d="M 361.9375,-212 C 507.2348,-212 528,-191.28677 528,-46.125 V 70.125 C 528,215.28618 507.2348,236 361.9375,236 H 214.0625 C 68.7652,236 48,215.28618 48,70.125 V -46.125 C 48,-191.28677 68.7652,-212 214.0625,-212 Z"
         style="display:inline;opacity:1;fill:#8c59d9;fill-opacity:1;stroke:none;stroke-width:2;stroke-linecap:round;stroke-linejoin:round;stroke-miterlimit:4;stroke-dasharray:none;stroke-dashoffset:0;stroke-opacity:1;enable-background:new" />
    </clipPath>
    <linearGradient
       inkscape:collect="always"
       xlink:href="#linearGradient927"
       id="linearGradient1108"
       x1="296"
       y1="-212"
       x2="296"
       y2="236"
       gradientUnits="userSpaceOnUse" />
    <filter
       inkscape:collect="always"
       style="color-interpolation-filters:sRGB"
       id="filter4560"
       x="-0.0232"
       width="1.0464"
       y="-0.024857143"
       height="1.0497143">
      <feGaussianBlur
         inkscape:collect="always"
         stdDeviation="2.32"
         id="feGaussianBlur4562" />
    </filter>
    <filter
       inkscape:collect="always"
       style="color-interpolation-filters:sRGB"
       id="filter4569"
       x="-0.0116"
       width="1.0232"
       y="-0.012428571"
       height="1.024857">
      <feGaussianBlur
         inkscape:collect="always"
         stdDeviation="1.16"
         id="feGaussianBlur4571" />
    </filter>
    <filter
       inkscape:collect="always"
       style="color-interpolation-filters:sRGB"
       id="filter4575"
       x="-0.058"
       width="1.116"
       y="-0.062142857"
       height="1.1242857">
      <feGaussianBlur
         inkscape:collect="always"
         stdDeviation="5.8000001"
         id="feGaussianBlur4577" />
    </filter>
    <linearGradient
       inkscape:collect="always"
       xlink:href="#linearGradient916"
       id="linearGradient878"
       x1="32"
       y1="156"
       x2="272"
       y2="156"
       gradientUnits="userSpaceOnUse"
       gradientTransform="rotate(60,152.00002,156.00001)" />
    <linearGradient
       inkscape:collect="always"
       id="linearGradient916">
      <stop
         style="stop-color:#2f5fdd;stop-opacity:1;"
         offset="0"
         id="stop912" />
      <stop
         style="stop-color:#5884f4;stop-opacity:1"
         offset="1"
         id="stop914" />
    </linearGradient>
  </defs>
  <metadata
     id="metadata4">
    <rdf:RDF>
      <cc:Work
         rdf:about="">
        <dc:format>image/svg+xml</dc:format>
        <dc:type
           rdf:resource="http://purl.org/dc/dcmitype/StillImage" />
        <dc:creator>
          <cc:Agent>
            <dc:title>Sam Hewitt</dc:title>
          </cc:Agent>
        </dc:creator>
        <dc:source />
        <cc:license
           rdf:resource="http://creativecommons.org/licenses/by-sa/4.0/" />
        <dc:title>Paper Icon Theme Template</dc:title>
        <dc:subject>
          <rdf:Bag />
        </dc:subject>
        <dc:date />
        <dc:rights>
          <cc:Agent>
            <dc:title />
          </cc:Agent>
        </dc:rights>
        <dc:publisher>
          <cc:Agent>
            <dc:title />
          </cc:Agent>
        </dc:publisher>
        <dc:identifier />
        <dc:relation />
        <dc:language />
        <dc:coverage />
        <dc:description />
        <dc:contributor>
          <cc:Agent>
            <dc:title />
          </cc:Agent>
        </dc:contributor>
      </cc:Work>
      <cc:Work
         rdf:about="">
        <dc:format>image/svg+xml</dc:format>
        <dc:type
           rdf:resource="http://purl.org/dc/dcmitype/StillImage" />
      </cc:Work>
      <cc:License
         rdf:about="http://creativecommons.org/licenses/by-sa/4.0/">
        <cc:permits
           rdf:resource="http://creativecommons.org/ns#Reproduction" />
        <cc:permits
           rdf:resource="http://creativecommons.org/ns#Distribution" />
        <cc:requires
           rdf:resource="http://creativecommons.org/ns#Notice" />
        <cc:requires
           rdf:resource="http://creativecommons.org/ns#Attribution" />
        <cc:permits
           rdf:resource="http://creativecommons.org/ns#DerivativeWorks" />
        <cc:requires
           rdf:resource="http://creativecommons.org/ns#ShareAlike" />
      </cc:License>
    </rdf:RDF>
  </metadata>
  <g
     style="display:inline"
     inkscape:groupmode="layer"
     inkscape:label="Icon"
     id="layer1">
    <g
       style="display:none"
       inkscape:label="Baseplate"
       id="layer7"
       inkscape:groupmode="layer">
      <text
         y="-8.2548828"
         xml:space="preserve"
         x="19.006836"
         style="font-style:normal;font-variant:normal;font-weight:normal;font-stretch:normal;line-height:0%;font-family:'DejaVu Sans';-inkscape-font-specification:'DejaVu Sans';display:inline;fill:#000000;fill-opacity:1;stroke:none;enable-background:new"
         inkscape:label="context"
         id="context"><tspan
           style="font-style:normal;font-variant:normal;font-weight:normal;font-stretch:normal;font-size:18px;line-height:1.25;font-family:'DejaVu Sans';-inkscape-font-specification:'DejaVu Sans'"
           y="-8.2548828"
           x="19.006836"
           sodipodi:role="line"
           id="tspan3933">categories</tspan></text>
      <text
         y="-8.2548828"
         xml:space="preserve"
         x="146.48828"
         style="font-style:normal;font-variant:normal;font-weight:bold;font-stretch:normal;line-height:0%;font-family:'DejaVu Sans';-inkscape-font-specification:'DejaVu Sans Bold';text-align:start;writing-mode:lr-tb;text-anchor:start;display:inline;fill:#000000;fill-opacity:1;stroke:none;enable-background:new"
         inkscape:label="icon-name"
         id="icon-name"><tspan
           style="font-style:normal;font-variant:normal;font-weight:bold;font-stretch:normal;font-size:18px;line-height:1.25;font-family:'DejaVu Sans';-inkscape-font-specification:'DejaVu Sans Bold'"
           y="-8.2548828"
           x="146.48828"
           sodipodi:role="line"
           id="tspan3937">preferences-system-bluetooth</tspan></text>
      <rect
         style="display:inline;overflow:visible;visibility:visible;fill:#cdcdcd;fill-opacity:1;fill-rule:nonzero;stroke:none;stroke-width:2;marker:none;enable-background:accumulate"
         id="rect16x16"
         width="16"
         height="16"
         x="320"
         y="236"
         inkscape:label="16x16" />
      <rect
         style="display:inline;overflow:visible;visibility:visible;fill:#cdcdcd;fill-opacity:1;fill-rule:nonzero;stroke:none;stroke-width:2;marker:none;enable-background:accumulate"
         id="rect24x24"
         width="24"
         height="24"
         x="320"
         y="188"
         inkscape:label="24x24" />
      <rect
         style="display:inline;overflow:visible;visibility:visible;fill:#cdcdcd;fill-opacity:1;fill-rule:nonzero;stroke:none;stroke-width:2;marker:none;enable-background:accumulate"
         id="rect32x32"
         width="32"
         height="32"
         x="320"
         y="132"
         inkscape:label="32x32" />
      <rect
         inkscape:label="48x48"
         y="60"
         x="320"
         height="48"
         width="48"
         id="rect48x48"
         style="display:inline;overflow:visible;visibility:visible;fill:#cdcdcd;fill-opacity:1;fill-rule:nonzero;stroke:none;stroke-width:2;marker:none;enable-background:accumulate" />
      <rect
         style="display:inline;overflow:visible;visibility:visible;fill:#cdcdcd;fill-opacity:1;fill-rule:nonzero;stroke:none;stroke-width:2;marker:none;enable-background:accumulate"
         id="rect3951"
         width="256"
         height="256"
         x="24"
         y="28"
         inkscape:label="48x48" />
    </g>
    <g
       inkscape:groupmode="layer"
       id="layer6"
       inkscape:label="Pictographic"
       style="display:inline">
      <g
         transform="matrix(0,-0.49980223,-0.5,0,540.68111,278.9146)"
         style="display:inline;enable-background:new;opacity:0.5"
         id="g835">
        <rect
           transform="scale(-1,1)"
           y="345.36221"
           x="-438.00244"
           height="96"
           width="96.037987"
           id="rect4782"
           style="color:#000000;display:inline;overflow:visible;visibility:visible;fill:none;stroke:none;stroke-width:4;marker:none;enable-background:accumulate" />
        <path
           inkscape:connector-curvature="0"
           id="path4092"
           d="m 423.08053,395.36222 h -4.94531 -24.47453 l 12.1044,12.10156 -2.95625,2.95703 -12.82343,-12.8164 -12.82343,12.8164 -2.95625,-2.95703 12.1044,-12.10156 h -24.47257 -4.94532 l 3.46622,-3.53516 13.39983,-13.39258 1.48105,-1.41406 1.48692,1.41406 12.82343,12.81836 h 0.87144 l 12.82538,-12.81836 1.48301,-1.41406 1.48497,1.41406 13.39592,13.39258 z m -9.96097,-4.10938 -1.06683,-1.06836 -7.32321,-7.32031 -8.39003,8.38867 z m -29.48823,0 -1.06682,-1.06836 -7.32517,-7.32031 -8.38808,8.38867 z"
           style="font-style:normal;font-variant:normal;font-weight:normal;font-stretch:normal;font-size:15px;line-height:125%;font-family:Ubuntu;-inkscape-font-specification:Ubuntu;text-align:center;letter-spacing:0px;word-spacing:0px;writing-mode:lr-tb;text-anchor:middle;opacity:1;fill:#000000;fill-opacity:1;stroke:none" />
        <path
           inkscape:connector-curvature="0"
           id="path4180"
           d="m 355.96875,363.36133 c -2.6314,0 -4.71356,0.23788 -6.46875,0.89648 -1.75519,0.6586 -3.16115,1.84985 -3.99219,3.35547 -1.66208,3.01124 -1.48476,6.6938 -1.54297,11.72656 v 0.0117 28.02149 0.0117 c 0.0582,5.03276 -0.11911,8.71532 1.54297,11.72656 0.83104,1.50562 2.237,2.69686 3.99219,3.35547 1.75519,0.6586 3.83735,0.89648 6.46875,0.89648 h 68.02734 c 2.6314,0 4.71552,-0.23788 6.47071,-0.89648 1.75519,-0.65861 3.15919,-1.84985 3.99023,-3.35547 1.66208,-3.01124 1.48672,-6.6938 1.54492,-11.72656 v -0.0117 -28.02149 -0.0117 c -0.0582,-5.03276 0.11716,-8.71532 -1.54492,-11.72656 -0.83104,-1.50562 -2.23504,-2.69687 -3.99023,-3.35547 -1.75519,-0.6586 -3.83931,-0.89648 -6.47071,-0.89648 z m 0,4.00195 h 68.02734 c 2.37058,0 4.02426,0.25031 5.06446,0.64063 1.04019,0.39031 1.48966,0.80945 1.89453,1.54297 0.80823,1.46429 0.98613,4.77814 1.04492,9.8164 v 27.97656 c -0.0584,5.05418 -0.23518,8.37086 -1.04492,9.83789 -0.40487,0.73352 -0.85434,1.15266 -1.89453,1.54297 -1.0402,0.39032 -2.69388,0.64063 -5.06446,0.64063 h -68.02734 c -2.37058,0 -4.02426,-0.25031 -5.06445,-0.64063 -1.0402,-0.39031 -1.48771,-0.80945 -1.89258,-1.54297 -0.80836,-1.46451 -0.98616,-4.77682 -1.04492,-9.8164 v -0.0215 -27.95312 -0.0234 c 0.0588,-5.03826 0.23669,-8.35211 1.04492,-9.8164 0.40487,-0.73352 0.85238,-1.15266 1.89258,-1.54297 1.04019,-0.39032 2.69387,-0.64063 5.06445,-0.64063 z"
           style="color:#000000;font-style:normal;font-variant:normal;font-weight:normal;font-stretch:normal;font-size:medium;line-height:normal;font-family:sans-serif;font-variant-ligatures:none;font-variant-position:normal;font-variant-caps:normal;font-variant-numeric:normal;font-variant-alternates:normal;font-feature-settings:normal;text-indent:0;text-align:start;text-decoration:none;text-decoration-line:none;text-decoration-style:solid;text-decoration-color:#000000;letter-spacing:normal;word-spacing:normal;text-transform:none;writing-mode:lr-tb;direction:ltr;baseline-shift:baseline;text-anchor:start;white-space:normal;shape-padding:0;clip-rule:nonzero;display:inline;overflow:visible;visibility:visible;opacity:1;isolation:auto;mix-blend-mode:normal;color-interpolation:sRGB;color-interpolation-filters:linearRGB;solid-color:#000000;solid-opacity:1;fill:#000000;fill-opacity:1;fill-rule:nonzero;stroke:none;stroke-width:4.00079155;stroke-linecap:butt;stroke-linejoin:miter;stroke-miterlimit:4;stroke-dasharray:none;stroke-dashoffset:0;stroke-opacity:1;marker:none;color-rendering:auto;image-rendering:auto;shape-rendering:auto;text-rendering:auto;enable-background:accumulate" />
      </g>
      <g
         id="g938"
         style="opacity:0.5">
        <rect
           style="color:#000000;display:inline;overflow:visible;visibility:visible;fill:none;stroke:none;stroke-width:0.99980217;marker:none;enable-background:accumulate"
           id="rect924"
           width="24"
           height="24"
           x="188"
           y="-344"
           transform="rotate(90)" />
        <path
           style="font-style:normal;font-variant:normal;font-weight:normal;font-stretch:normal;font-size:15px;line-height:125%;font-family:Ubuntu;-inkscape-font-specification:Ubuntu;text-align:center;letter-spacing:0px;word-spacing:0px;writing-mode:lr-tb;text-anchor:middle;opacity:1;fill:#000000;fill-opacity:1;stroke:none;stroke-width:0.24995054"
           d="m 331.0004,192.22891 v 1.23583 6.11622 l -3.02539,-3.02491 -0.73925,0.73877 3.2041,3.20459 -3.2041,3.20459 0.73925,0.73877 3.02539,-3.0249 v 6.11572 1.23584 l 0.88379,-0.86621 3.34815,-3.34863 0.35352,-0.37012 -0.35352,-0.37158 -3.20459,-3.20459 v -0.21777 l 3.20459,-3.20508 0.35352,-0.37061 -0.35352,-0.37109 -3.34815,-3.34766 z m 1.02735,2.48925 0.26709,0.26661 1.83008,1.83007 -2.09717,2.09668 z m 0,7.36914 0.26709,0.2666 1.83008,1.83057 -2.09717,2.09619 z"
           id="path926"
           inkscape:connector-curvature="0" />
        <path
           style="color:#000000;font-style:normal;font-variant:normal;font-weight:normal;font-stretch:normal;font-size:medium;line-height:normal;font-family:sans-serif;font-variant-ligatures:none;font-variant-position:normal;font-variant-caps:normal;font-variant-numeric:normal;font-variant-alternates:normal;font-feature-settings:normal;text-indent:0;text-align:start;text-decoration:none;text-decoration-line:none;text-decoration-style:solid;text-decoration-color:#000000;letter-spacing:normal;word-spacing:normal;text-transform:none;writing-mode:lr-tb;direction:ltr;baseline-shift:baseline;text-anchor:start;white-space:normal;shape-padding:0;clip-rule:nonzero;display:inline;overflow:visible;visibility:visible;opacity:1;isolation:auto;mix-blend-mode:normal;color-interpolation:sRGB;color-interpolation-filters:linearRGB;solid-color:#000000;solid-opacity:1;fill:#000000;fill-opacity:1;fill-rule:nonzero;stroke:none;stroke-width:1;stroke-linecap:butt;stroke-linejoin:miter;stroke-miterlimit:4;stroke-dasharray:none;stroke-dashoffset:0;stroke-opacity:1;marker:none;color-rendering:auto;image-rendering:auto;shape-rendering:auto;text-rendering:auto;enable-background:accumulate"
           d="m 339.00063,209.00021 c 0,0.65759 -0.0595,1.17793 -0.22412,1.61655 -0.16465,0.43863 -0.46247,0.78998 -0.83887,0.99765 -0.75281,0.41536 -1.67345,0.37105 -2.93164,0.38559 h -0.003 -7.00537 -0.003 c -1.25819,-0.0145 -2.17883,0.0298 -2.93164,-0.38559 -0.37641,-0.20767 -0.67422,-0.55902 -0.83887,-0.99765 C 324.05947,210.17814 324,209.6578 324,209.00021 v -17.0001 c 0,-0.65759 0.0595,-1.17842 0.22412,-1.61704 0.16465,-0.43863 0.46246,-0.78949 0.83887,-0.99716 0.75281,-0.41536 1.67345,-0.37154 2.93164,-0.38608 h 0.003 7.00537 0.003 c 1.25819,0.0145 2.17883,-0.0293 2.93164,0.38608 0.3764,0.20767 0.67422,0.55853 0.83887,0.99716 0.16465,0.43862 0.22412,0.95945 0.22412,1.61704 z m -1.00049,0 v -17.0001 c 0,-0.59241 -0.0626,-1.00567 -0.16016,-1.26562 -0.0976,-0.25994 -0.20236,-0.37227 -0.38574,-0.47344 -0.36607,-0.20198 -1.19454,-0.24644 -2.4541,-0.26113 H 328.006 c -1.26355,0.0146 -2.09272,0.0588 -2.45947,0.26113 -0.18338,0.10117 -0.28817,0.2135 -0.38575,0.47344 -0.0976,0.25995 -0.16015,0.67321 -0.16015,1.26562 v 17.0001 c 0,0.59241 0.0626,1.00567 0.16015,1.26562 0.0976,0.25994 0.20237,0.37178 0.38575,0.47295 0.36612,0.20201 1.1942,0.24645 2.4541,0.26113 h 0.005 6.98828 0.006 c 1.25957,-0.0147 2.08803,-0.0592 2.4541,-0.26113 0.18338,-0.10117 0.28817,-0.21301 0.38574,-0.47295 0.0976,-0.25995 0.16016,-0.67321 0.16016,-1.26562 z"
           id="path928"
           inkscape:connector-curvature="0" />
      </g>
      <path
         sodipodi:nodetypes="cccccc"
         style="display:inline;fill:none;fill-rule:evenodd;stroke:#000000;stroke-width:1;stroke-linecap:square;stroke-linejoin:miter;stroke-miterlimit:4;stroke-dasharray:none;stroke-opacity:1;enable-background:new;opacity:0.5"
         d="m 331.49354,152.75 8,-7.5 -4,-4 v 15.5 l 4,-4 -8,-7.5"
         id="path999"
         inkscape:connector-curvature="0" />
      <path
         style="color:#000000;font-style:normal;font-variant:normal;font-weight:normal;font-stretch:normal;font-size:medium;line-height:normal;font-family:sans-serif;font-variant-ligatures:none;font-variant-position:normal;font-variant-caps:normal;font-variant-numeric:normal;font-variant-alternates:normal;font-feature-settings:normal;text-indent:0;text-align:start;text-decoration:none;text-decoration-line:none;text-decoration-style:solid;text-decoration-color:#000000;letter-spacing:normal;word-spacing:normal;text-transform:none;writing-mode:lr-tb;direction:ltr;baseline-shift:baseline;text-anchor:start;white-space:normal;shape-padding:0;clip-rule:nonzero;display:inline;overflow:visible;visibility:visible;opacity:0.5;isolation:auto;mix-blend-mode:normal;color-interpolation:sRGB;color-interpolation-filters:linearRGB;solid-color:#000000;solid-opacity:1;fill:#111111;fill-opacity:1;fill-rule:nonzero;stroke:none;stroke-width:1;stroke-linecap:butt;stroke-linejoin:miter;stroke-miterlimit:4;stroke-dasharray:none;stroke-dashoffset:0;stroke-opacity:1;marker:none;color-rendering:auto;image-rendering:auto;shape-rendering:auto;text-rendering:auto;enable-background:accumulate"
         d="m 345.07274,159.00021 c 0,0.65759 -0.0595,1.17793 -0.22412,1.61655 -0.16465,0.43863 -0.46247,0.78998 -0.83887,0.99765 -0.75281,0.41536 -1.67345,0.37105 -2.93164,0.38559 h -0.003 -11.00537 -0.003 c -1.25819,-0.0145 -2.17883,0.0298 -2.93164,-0.38559 -0.37641,-0.20767 -0.67422,-0.55902 -0.83887,-0.99765 -0.16465,-0.43862 -0.22412,-0.95896 -0.22412,-1.61655 v -20.0001 c 0,-0.65759 0.0595,-1.17842 0.22412,-1.61704 0.16465,-0.43863 0.46246,-0.78949 0.83887,-0.99716 0.75281,-0.41536 1.67345,-0.37154 2.93164,-0.38608 h 0.003 11.00537 0.003 c 1.25819,0.0145 2.17883,-0.0293 2.93164,0.38608 0.3764,0.20767 0.67422,0.55853 0.83887,0.99716 0.16465,0.43862 0.22412,0.95945 0.22412,1.61704 z m -1.00049,0 v -20.0001 c 0,-0.59241 -0.0626,-1.00567 -0.16016,-1.26562 -0.0976,-0.25994 -0.20236,-0.37227 -0.38574,-0.47344 -0.36607,-0.20198 -1.19454,-0.24644 -2.4541,-0.26113 h -10.99414 c -1.26355,0.0146 -2.09272,0.0588 -2.45947,0.26113 -0.18338,0.10117 -0.28817,0.2135 -0.38575,0.47344 -0.0976,0.25995 -0.16015,0.67321 -0.16015,1.26562 v 20.0001 c 0,0.59241 0.0626,1.00567 0.16015,1.26562 0.0976,0.25994 0.20237,0.37178 0.38575,0.47295 0.36612,0.20201 1.1942,0.24645 2.4541,0.26113 h 0.005 10.98828 0.006 c 1.25957,-0.0147 2.08803,-0.0592 2.4541,-0.26113 0.18338,-0.10117 0.28817,-0.21301 0.38574,-0.47295 0.0976,-0.25995 0.16016,-0.67321 0.16016,-1.26562 z"
         id="path928-7"
         inkscape:connector-curvature="0"
         sodipodi:nodetypes="sccccccccssccccccccsscsccccccsscccccccccc" />
      <path
         style="color:#000000;font-style:normal;font-variant:normal;font-weight:normal;font-stretch:normal;font-size:medium;line-height:normal;font-family:sans-serif;text-indent:0;text-align:start;text-decoration:none;text-decoration-line:none;text-decoration-style:solid;text-decoration-color:#000000;letter-spacing:normal;word-spacing:normal;text-transform:none;writing-mode:lr-tb;direction:ltr;baseline-shift:baseline;text-anchor:start;white-space:normal;shape-padding:0;clip-rule:nonzero;display:inline;overflow:visible;visibility:visible;opacity:0.5;isolation:auto;mix-blend-mode:normal;color-interpolation:sRGB;color-interpolation-filters:linearRGB;solid-color:#000000;solid-opacity:1;fill:#000000;fill-opacity:1;fill-rule:nonzero;stroke:none;stroke-width:4.00000048;stroke-linecap:butt;stroke-linejoin:miter;stroke-miterlimit:4;stroke-dasharray:none;stroke-dashoffset:0;stroke-opacity:1;marker:none;color-rendering:auto;image-rendering:auto;shape-rendering:auto;text-rendering:auto;enable-background:accumulate"
         d="M 324.66211 236 C 323.82332 236.01 323.21086 235.9809 322.70898 236.25781 C 322.45805 236.39626 322.25821 236.62946 322.14844 236.92188 C 322.03867 237.21429 322 237.56161 322 238 L 322 250 C 322 250.43839 322.0387 250.78572 322.14844 251.07812 C 322.25821 251.37054 322.45805 251.60569 322.70898 251.74414 C 323.21086 252.02104 323.82332 251.9903 324.66211 252 L 324.66406 252 L 330.33594 252 L 330.33789 252 C 331.17668 251.99 331.78915 252.021 332.29102 251.74414 C 332.54196 251.60569 332.74179 251.37054 332.85156 251.07812 C 332.96123 250.78571 333 250.43839 333 250 L 333 238 C 333 237.56161 332.9613 237.21428 332.85156 236.92188 C 332.7418 236.62947 332.54195 236.39626 332.29102 236.25781 C 331.78914 235.98091 331.17668 236.0097 330.33789 236 L 330.33594 236 L 324.66406 236 L 324.66211 236 z M 324.66211 237 L 324.67383 237 L 330.33594 237 C 331.19202 237.0102 331.63482 237.0369 331.80859 237.13281 C 331.84029 237.15031 331.88509 237.19111 331.91602 237.27344 C 331.96142 237.3944 332 237.62046 332 238 L 332 250 C 332 250.37958 331.96142 250.60557 331.91602 250.72656 C 331.88462 250.81026 331.83682 250.85357 331.80859 250.86914 C 331.63679 250.96394 331.19391 250.9895 330.33594 251 L 324.67383 251 L 324.66211 251 C 323.80675 250.9898 323.36322 250.9639 323.19141 250.86914 C 323.16321 250.85354 323.11541 250.81024 323.08398 250.72656 C 323.03862 250.60563 323 250.37954 323 250 L 323 238 C 323 237.62042 323.03858 237.39429 323.08398 237.27344 C 323.11488 237.19114 323.15968 237.1503 323.19141 237.13281 C 323.36467 237.03721 323.80785 237.01052 324.66211 237 z M 327 237.30273 L 327 242.91602 L 324.57227 240.87695 L 323.92773 241.64258 L 326.74609 244.00977 L 323.92773 246.37695 L 324.57227 247.14258 L 327 245.10352 L 327 250.7168 L 331.24023 246.47852 L 328.30078 244.00977 L 331.24023 241.54102 L 327 237.30273 z M 328 239.7168 L 329.75977 241.47656 L 328 242.95703 L 328 239.7168 z M 328 245.0625 L 329.75977 246.54297 L 328 248.30273 L 328 245.0625 z "
         id="path8744" />
    </g>
    <g
       inkscape:groupmode="layer"
       id="layer8"
       inkscape:label="Fullcolor">
      <g
         inkscape:groupmode="layer"
         id="layer10"
         inkscape:label="Shadow"
         style="display:inline"
         sodipodi:insensitive="true">
        <path
           style="display:inline;opacity:0.5;fill:#000000;fill-opacity:1;stroke:none;stroke-width:2;stroke-linecap:round;stroke-linejoin:round;stroke-miterlimit:4;stroke-dasharray:none;stroke-dashoffset:0;stroke-opacity:1;filter:url(#filter4560);enable-background:new"
           d="m 188.96876,45.999995 c 72.64865,0 83.03125,10.356615 83.03125,82.937505 v 58.125 c 0,72.58059 -10.3826,82.9375 -83.03125,82.9375 h -73.9375 C 42.382606,270 32.000006,259.64309 32.000006,187.0625 v -58.125 c 0,-72.58089 10.3826,-82.937505 83.031254,-82.937505 z"
           id="path4565"
           inkscape:connector-curvature="0"
           sodipodi:nodetypes="sssssssss" />
        <path
           sodipodi:nodetypes="sssssssss"
           inkscape:connector-curvature="0"
           id="path4558"
           d="m 188.96876,43.999995 c 72.64865,0 83.03125,10.356615 83.03125,82.937505 v 58.125 c 0,72.58059 -10.3826,82.9375 -83.03125,82.9375 h -73.9375 C 42.382606,268 32.000006,257.64309 32.000006,185.0625 v -58.125 c 0,-72.58089 10.3826,-82.937505 83.031254,-82.937505 z"
           style="display:inline;opacity:0.5;fill:#000000;fill-opacity:1;stroke:#000000;stroke-width:4;stroke-linecap:round;stroke-linejoin:round;stroke-miterlimit:4;stroke-dasharray:none;stroke-dashoffset:0;stroke-opacity:1;enable-background:new" />
        <path
           sodipodi:nodetypes="sssssssss"
           inkscape:connector-curvature="0"
           id="path4567"
           d="m 188.96876,43.999995 c 72.64865,0 83.03125,10.356615 83.03125,82.937505 v 58.125 c 0,72.58059 -10.3826,82.9375 -83.03125,82.9375 h -73.9375 C 42.382606,268 32.000006,257.64309 32.000006,185.0625 v -58.125 c 0,-72.58089 10.3826,-82.937505 83.031254,-82.937505 z"
           style="display:inline;opacity:0.5;fill:#000000;fill-opacity:1;stroke:none;stroke-width:2;stroke-linecap:round;stroke-linejoin:round;stroke-miterlimit:4;stroke-dasharray:none;stroke-dashoffset:0;stroke-opacity:1;filter:url(#filter4569);enable-background:new" />
        <path
           sodipodi:nodetypes="sssssssss"
           inkscape:connector-curvature="0"
           id="path4573"
           d="m 188.96876,45.999995 c 72.64865,0 83.03125,10.356615 83.03125,82.937505 v 58.125 c 0,72.58059 -10.3826,82.9375 -83.03125,82.9375 h -73.9375 C 42.382606,270 32.000006,259.64309 32.000006,187.0625 v -58.125 c 0,-72.58089 10.3826,-82.937505 83.031254,-82.937505 z"
           style="display:inline;opacity:0.2;fill:#000000;fill-opacity:1;stroke:none;stroke-width:2;stroke-linecap:round;stroke-linejoin:round;stroke-miterlimit:4;stroke-dasharray:none;stroke-dashoffset:0;stroke-opacity:1;filter:url(#filter4575);enable-background:new" />
      </g>
      <g
         inkscape:groupmode="layer"
         id="layer11"
         inkscape:label="Background"
         style="display:inline">
        <path
           style="display:inline;opacity:1;fill:url(#linearGradient878);fill-opacity:1;stroke:none;stroke-width:2;stroke-linecap:round;stroke-linejoin:round;stroke-miterlimit:4;stroke-dasharray:none;stroke-dashoffset:0;stroke-opacity:1;enable-background:new"
           d="M 188.96875,44.000002 C 261.61739,43.999999 272,54.356621 272,126.9375 v 58.125 C 271.99999,257.64309 261.61739,268 188.96875,268 h -73.93751 c -72.648638,10e-6 -83.031239,-10.35691 -83.031236,-82.9375 L 32,126.9375 C 32.000002,54.356619 42.382604,43.999996 115.03125,44 Z"
           id="rect877-6"
           inkscape:connector-curvature="0"
           sodipodi:nodetypes="sssssssss" />
        <path
           inkscape:connector-curvature="0"
           id="path993"
           d="m 114.00981,190 76,-72 -38,-37.999997 V 228 l 38,-38 -76,-72"
           style="display:inline;fill:none;fill-rule:evenodd;stroke:#ffffff;stroke-width:8;stroke-linecap:square;stroke-linejoin:miter;stroke-miterlimit:4;stroke-dasharray:none;stroke-opacity:1;enable-background:new"
           sodipodi:nodetypes="cccccc" />
      </g>
      <g
         inkscape:groupmode="layer"
         id="layer9"
         inkscape:label="Highlights"
         style="display:inline"
         sodipodi:insensitive="true">
        <path
           sodipodi:nodetypes="sssssssss"
           inkscape:connector-curvature="0"
           id="path1068"
           d="M 361.9375,-212 C 507.2348,-212 528,-191.28677 528,-46.125 V 70.125 C 528,215.28618 507.2348,236 361.9375,236 H 214.0625 C 68.7652,236 48,215.28618 48,70.125 V -46.125 C 48,-191.28677 68.7652,-212 214.0625,-212 Z"
           style="display:inline;opacity:0.5;fill:none;fill-opacity:1;stroke:url(#linearGradient1108);stroke-width:8;stroke-linecap:round;stroke-linejoin:round;stroke-miterlimit:4;stroke-dasharray:none;stroke-dashoffset:0;stroke-opacity:1;enable-background:new"
           clip-path="url(#clipPath1082)"
           transform="matrix(0.5,0,0,0.5,8,150)" />
      </g>
    </g>
  </g>
</svg>
