<?xml version="1.0" encoding="UTF-8" standalone="no"?>
<!-- Created with Inkscape (http://www.inkscape.org/) -->

<svg
   xmlns:dc="http://purl.org/dc/elements/1.1/"
   xmlns:cc="http://creativecommons.org/ns#"
   xmlns:rdf="http://www.w3.org/1999/02/22-rdf-syntax-ns#"
   xmlns:svg="http://www.w3.org/2000/svg"
   xmlns="http://www.w3.org/2000/svg"
   xmlns:xlink="http://www.w3.org/1999/xlink"
   xmlns:sodipodi="http://sodipodi.sourceforge.net/DTD/sodipodi-0.dtd"
   xmlns:inkscape="http://www.inkscape.org/namespaces/inkscape"
   inkscape:export-ydpi="90.000000"
   inkscape:export-xdpi="90.000000"
   width="400"
   height="300"
   id="svg11300"
   sodipodi:version="0.32"
   inkscape:version="0.92.2 (unknown)"
   sodipodi:docname="preferences-system-sound.svg"
   inkscape:output_extension="org.inkscape.output.svg.inkscape"
   version="1.0"
   style="display:inline;enable-background:new"
   inkscape:export-filename="/home/sam/paper-template.png">
  <title
     id="title3004">Paper Icon Theme Template</title>
  <sodipodi:namedview
     stroke="#ef2929"
     fill="#f57900"
     id="base"
     pagecolor="#ffffff"
     bordercolor="#000000"
     borderopacity="0.25490196"
     inkscape:pageopacity="0"
     inkscape:pageshadow="2"
     inkscape:zoom="1"
     inkscape:cx="133.13182"
     inkscape:cy="97.765385"
     inkscape:current-layer="layer11"
     showgrid="false"
     inkscape:grid-bbox="true"
     inkscape:document-units="px"
     inkscape:showpageshadow="false"
     inkscape:window-width="1920"
     inkscape:window-height="1016"
     inkscape:window-x="0"
     inkscape:window-y="27"
     width="400px"
     height="300px"
     inkscape:snap-nodes="true"
     inkscape:snap-bbox="true"
     gridtolerance="10000"
     inkscape:object-nodes="true"
     inkscape:snap-grids="true"
     showguides="true"
     inkscape:guide-bbox="true"
     inkscape:window-maximized="1"
     inkscape:bbox-paths="true"
     inkscape:snap-bbox-midpoints="true"
     inkscape:snap-global="true"
     inkscape:object-paths="true"
     inkscape:snap-intersection-paths="true"
     inkscape:snap-smooth-nodes="true"
     inkscape:pagecheckerboard="false"
     showborder="false">
    <inkscape:grid
       spacingy="1"
       spacingx="1"
       id="grid5883"
       type="xygrid"
       enabled="true"
       visible="true"
       empspacing="4"
       snapvisiblegridlinesonly="true"
       originx="0"
       originy="0" />
    <inkscape:grid
       type="xygrid"
       id="grid11592"
       empspacing="2"
       visible="true"
       enabled="false"
       spacingx="0.5"
       spacingy="0.5"
       color="#ff0000"
       opacity="0.1254902"
       empcolor="#ff0000"
       empopacity="0.25098039"
       snapvisiblegridlinesonly="true"
       originx="0"
       originy="0" />
  </sodipodi:namedview>
  <defs
     id="defs3">
    <linearGradient
       inkscape:collect="always"
       id="linearGradient927">
      <stop
         style="stop-color:#ffffff;stop-opacity:1;"
         offset="0"
         id="stop923" />
      <stop
         id="stop933"
         offset="0.125"
         style="stop-color:#ffffff;stop-opacity:0.09803922" />
      <stop
         id="stop931"
         offset="0.92500001"
         style="stop-color:#ffffff;stop-opacity:0.09803922" />
      <stop
         style="stop-color:#ffffff;stop-opacity:0.49803922"
         offset="1"
         id="stop925" />
    </linearGradient>
    <clipPath
       clipPathUnits="userSpaceOnUse"
       id="clipPath9430">
      <path
         sodipodi:nodetypes="sssssssss"
         inkscape:connector-curvature="0"
         id="path9432"
         d="m 166.0625,-196 h 179.875 C 491.2348,-196 512,-175.28677 512,-30.125 v 148.25 C 512,263.28618 491.2348,284 345.9375,284 H 166.0625 C 20.7652,284 0,263.28618 0,118.125 V -30.125 C 0,-175.28677 20.7652,-196 166.0625,-196 Z"
         style="color:#000000;display:inline;overflow:visible;visibility:visible;fill:#ffffff;fill-opacity:1;fill-rule:nonzero;stroke:none;stroke-width:1;marker:none;enable-background:new" />
    </clipPath>
    <clipPath
       clipPathUnits="userSpaceOnUse"
       id="clipPath1082">
      <path
         sodipodi:nodetypes="sssssssss"
         inkscape:connector-curvature="0"
         id="path1084"
         d="M 361.9375,-212 C 507.2348,-212 528,-191.28677 528,-46.125 V 70.125 C 528,215.28618 507.2348,236 361.9375,236 H 214.0625 C 68.7652,236 48,215.28618 48,70.125 V -46.125 C 48,-191.28677 68.7652,-212 214.0625,-212 Z"
         style="display:inline;opacity:1;fill:#8c59d9;fill-opacity:1;stroke:none;stroke-width:2;stroke-linecap:round;stroke-linejoin:round;stroke-miterlimit:4;stroke-dasharray:none;stroke-dashoffset:0;stroke-opacity:1;enable-background:new" />
    </clipPath>
    <linearGradient
       inkscape:collect="always"
       xlink:href="#linearGradient927"
       id="linearGradient1108"
       x1="296"
       y1="-212"
       x2="296"
       y2="236"
       gradientUnits="userSpaceOnUse" />
    <filter
       inkscape:collect="always"
       style="color-interpolation-filters:sRGB"
       id="filter4560"
       x="-0.0232"
       width="1.0464"
       y="-0.024857143"
       height="1.0497143">
      <feGaussianBlur
         inkscape:collect="always"
         stdDeviation="2.32"
         id="feGaussianBlur4562" />
    </filter>
    <filter
       inkscape:collect="always"
       style="color-interpolation-filters:sRGB"
       id="filter4569"
       x="-0.0116"
       width="1.0232"
       y="-0.012428571"
       height="1.024857">
      <feGaussianBlur
         inkscape:collect="always"
         stdDeviation="1.16"
         id="feGaussianBlur4571" />
    </filter>
    <filter
       inkscape:collect="always"
       style="color-interpolation-filters:sRGB"
       id="filter4575"
       x="-0.058"
       width="1.116"
       y="-0.062142857"
       height="1.1242857">
      <feGaussianBlur
         inkscape:collect="always"
         stdDeviation="5.8000001"
         id="feGaussianBlur4577" />
    </filter>
    <linearGradient
       inkscape:collect="always"
       id="linearGradient4505">
      <stop
         style="stop-color:#fb7c38;stop-opacity:1"
         offset="0"
         id="stop4507" />
      <stop
         style="stop-color:#fec589;stop-opacity:1"
         offset="1"
         id="stop4509" />
    </linearGradient>
    <linearGradient
       inkscape:collect="always"
       xlink:href="#linearGradient4505"
       id="linearGradient942"
       x1="96"
       y1="28"
       x2="224"
       y2="284"
       gradientUnits="userSpaceOnUse" />
  </defs>
  <metadata
     id="metadata4">
    <rdf:RDF>
      <cc:Work
         rdf:about="">
        <dc:format>image/svg+xml</dc:format>
        <dc:type
           rdf:resource="http://purl.org/dc/dcmitype/StillImage" />
        <dc:creator>
          <cc:Agent>
            <dc:title>Sam Hewitt</dc:title>
          </cc:Agent>
        </dc:creator>
        <dc:source />
        <cc:license
           rdf:resource="http://creativecommons.org/licenses/by-sa/4.0/" />
        <dc:title>Paper Icon Theme Template</dc:title>
        <dc:subject>
          <rdf:Bag />
        </dc:subject>
        <dc:date />
        <dc:rights>
          <cc:Agent>
            <dc:title />
          </cc:Agent>
        </dc:rights>
        <dc:publisher>
          <cc:Agent>
            <dc:title />
          </cc:Agent>
        </dc:publisher>
        <dc:identifier />
        <dc:relation />
        <dc:language />
        <dc:coverage />
        <dc:description />
        <dc:contributor>
          <cc:Agent>
            <dc:title />
          </cc:Agent>
        </dc:contributor>
      </cc:Work>
      <cc:Work
         rdf:about="">
        <dc:format>image/svg+xml</dc:format>
        <dc:type
           rdf:resource="http://purl.org/dc/dcmitype/StillImage" />
      </cc:Work>
      <cc:License
         rdf:about="http://creativecommons.org/licenses/by-sa/4.0/">
        <cc:permits
           rdf:resource="http://creativecommons.org/ns#Reproduction" />
        <cc:permits
           rdf:resource="http://creativecommons.org/ns#Distribution" />
        <cc:requires
           rdf:resource="http://creativecommons.org/ns#Notice" />
        <cc:requires
           rdf:resource="http://creativecommons.org/ns#Attribution" />
        <cc:permits
           rdf:resource="http://creativecommons.org/ns#DerivativeWorks" />
        <cc:requires
           rdf:resource="http://creativecommons.org/ns#ShareAlike" />
      </cc:License>
    </rdf:RDF>
  </metadata>
  <g
     style="display:inline"
     inkscape:groupmode="layer"
     inkscape:label="Icon"
     id="layer1">
    <g
       style="display:none"
       inkscape:label="Baseplate"
       id="layer7"
       inkscape:groupmode="layer">
      <text
         y="-8.2548828"
         xml:space="preserve"
         x="19.006836"
         style="font-style:normal;font-variant:normal;font-weight:normal;font-stretch:normal;line-height:0%;font-family:'DejaVu Sans';-inkscape-font-specification:'DejaVu Sans';display:inline;fill:#000000;fill-opacity:1;stroke:none;enable-background:new"
         inkscape:label="context"
         id="context"><tspan
           style="font-style:normal;font-variant:normal;font-weight:normal;font-stretch:normal;font-size:18px;line-height:1.25;font-family:'DejaVu Sans';-inkscape-font-specification:'DejaVu Sans'"
           y="-8.2548828"
           x="19.006836"
           sodipodi:role="line"
           id="tspan3933">categories</tspan></text>
      <text
         y="-8.2548828"
         xml:space="preserve"
         x="146.48828"
         style="font-style:normal;font-variant:normal;font-weight:bold;font-stretch:normal;line-height:0%;font-family:'DejaVu Sans';-inkscape-font-specification:'DejaVu Sans Bold';text-align:start;writing-mode:lr-tb;text-anchor:start;display:inline;fill:#000000;fill-opacity:1;stroke:none;enable-background:new"
         inkscape:label="icon-name"
         id="icon-name"><tspan
           style="font-style:normal;font-variant:normal;font-weight:bold;font-stretch:normal;font-size:18px;line-height:1.25;font-family:'DejaVu Sans';-inkscape-font-specification:'DejaVu Sans Bold'"
           y="-8.2548828"
           x="146.48828"
           sodipodi:role="line"
           id="tspan3937">preferences-system-sound</tspan></text>
      <rect
         style="display:inline;overflow:visible;visibility:visible;fill:#cdcdcd;fill-opacity:1;fill-rule:nonzero;stroke:none;stroke-width:2;marker:none;enable-background:accumulate"
         id="rect16x16"
         width="16"
         height="16"
         x="320"
         y="236"
         inkscape:label="16x16" />
      <rect
         style="display:inline;overflow:visible;visibility:visible;fill:#cdcdcd;fill-opacity:1;fill-rule:nonzero;stroke:none;stroke-width:2;marker:none;enable-background:accumulate"
         id="rect24x24"
         width="24"
         height="24"
         x="320"
         y="188"
         inkscape:label="24x24" />
      <rect
         style="display:inline;overflow:visible;visibility:visible;fill:#cdcdcd;fill-opacity:1;fill-rule:nonzero;stroke:none;stroke-width:2;marker:none;enable-background:accumulate"
         id="rect32x32"
         width="32"
         height="32"
         x="320"
         y="132"
         inkscape:label="32x32" />
      <rect
         inkscape:label="48x48"
         y="60"
         x="320"
         height="48"
         width="48"
         id="rect48x48"
         style="display:inline;overflow:visible;visibility:visible;fill:#cdcdcd;fill-opacity:1;fill-rule:nonzero;stroke:none;stroke-width:2;marker:none;enable-background:accumulate" />
      <rect
         style="display:inline;overflow:visible;visibility:visible;fill:#cdcdcd;fill-opacity:1;fill-rule:nonzero;stroke:none;stroke-width:2;marker:none;enable-background:accumulate"
         id="rect3951"
         width="256"
         height="256"
         x="24"
         y="28"
         inkscape:label="48x48" />
    </g>
    <g
       inkscape:groupmode="layer"
       id="layer6"
       inkscape:label="Pictographic"
       style="display:inline">
      <g
         transform="matrix(0,-0.49980225,-0.5,0,540.68111,278.91461)"
         style="display:inline;opacity:0.5"
         id="g836">
        <path
           style="font-style:normal;font-variant:normal;font-weight:normal;font-stretch:normal;font-size:15px;line-height:125%;font-family:Ubuntu;-inkscape-font-specification:Ubuntu;text-align:center;letter-spacing:0px;word-spacing:0px;writing-mode:lr-tb;text-anchor:middle;display:inline;fill:#0a0a0a;fill-opacity:1;stroke:none;stroke-width:3.33608699;enable-background:new"
           d="m 434.94803,360.83478 c 0.0125,1.12499 -0.16349,2.62112 -0.46267,4.61114 l -5.32748,33.94069 c -1.70308,7.99492 -2.23261,7.99488 -8.98973,7.99488 h -13.23182 -42.13175 c 0.41314,0.58986 0.82896,1.17197 1.23767,1.78162 h -0.002 c 1.70285,2.54004 2.91458,5.24656 2.9146,8.88277 0,4.55464 -1.74495,7.27171 -4.04296,8.91596 -2.298,1.64421 -5.19476,2.18946 -7.43386,2.18946 -2.70005,0 -5.58147,-0.92217 -7.77745,-2.92125 -2.19598,-1.99908 -3.73443,-5.0725 -3.73449,-9.4916 0,-4.99015 1.39467,-8.50054 4.11712,-10.48487 2.14348,-1.56235 5.00648,-2.4256 8.53879,-2.73391 h 0.006 0.004 c 0.42854,-0.0432 0.86812,-0.0742 1.32161,-0.10147 0.69823,-0.0419 2.00489,-0.0332 2.00489,-0.0332 h 41.97951 c 5.99707,0 6.35516,3e-4 7.72278,-7.99684 l 3.95705,-25.9536 c 1.04913,-8.01156 0.3143,-8.01245 -4.1835,-8.01245 h -38.63347 c 0.41315,0.58987 0.82897,1.17198 1.23769,1.78163 h -0.002 c 1.70285,2.54004 2.91458,5.24655 2.91459,8.88277 0,4.55464 -1.74494,7.27171 -4.04294,8.91594 -2.29802,1.64423 -5.19477,2.18947 -7.43388,2.18947 -2.70004,0 -5.58147,-0.92217 -7.77745,-2.92125 -2.19598,-1.99909 -3.73442,-5.07248 -3.7345,-9.4916 0,-4.99014 1.39468,-8.50055 4.11714,-10.48486 2.14348,-1.56237 5.00647,-2.4256 8.53879,-2.73391 h 0.006 0.004 c 0.42856,-0.0432 0.86813,-0.0742 1.32163,-0.10148 0.69823,-0.0418 2.00488,-0.0331 2.00488,-0.0331 h 45.9775 11.97656 c 5.25982,0 7.00192,0.0341 7.03953,3.4091 z"
           id="path4393"
           inkscape:connector-curvature="0" />
        <rect
           transform="scale(-1,1)"
           y="345.36221"
           x="-438.00244"
           height="96"
           width="96.037987"
           id="rect4782"
           style="color:#000000;display:inline;overflow:visible;visibility:visible;fill:none;stroke:none;stroke-width:4;marker:none;enable-background:accumulate" />
      </g>
      <g
         id="g902"
         style="display:inline;opacity:0.5"
         transform="matrix(0,-0.24990112,-0.25,0,430.34055,297.4573)">
        <path
           inkscape:connector-curvature="0"
           id="path898"
           d="m 434.94803,360.83478 c 0.0125,1.12499 -0.16349,2.62112 -0.46267,4.61114 l -5.32748,31.94116 c -1.70308,7.99492 -2.30852,6.98525 -8.98973,7.99488 h -13.23182 -42.13175 c 0.41314,0.58986 0.82896,1.17197 1.23767,1.78162 h -0.002 c 1.70285,2.54004 2.91458,5.24656 2.9146,8.88277 0,4.55464 -1.74495,7.27171 -4.04296,8.91596 -2.298,1.64421 -5.19476,2.18946 -7.43386,2.18946 -2.70005,0 -5.58147,-0.92217 -7.77745,-2.92125 -2.19598,-1.99908 -3.73443,-5.0725 -3.73449,-9.4916 0,-4.99015 1.39467,-8.50054 4.11712,-10.48487 2.14348,-1.56235 5.00648,-2.4256 8.53879,-2.73391 h 0.006 0.004 c 0.42854,-0.0432 0.86812,-0.0742 1.32161,-0.10147 0.69823,-0.0419 2.00489,-0.0332 2.00489,-0.0332 h 41.97951 c 5.99707,0 6.35516,3e-4 7.72278,-7.99684 l 3.95705,-23.95407 c 1.04913,-8.01156 0.3143,-8.01245 -4.1835,-8.01245 h -38.63347 c 0.41315,0.58987 0.82897,1.17198 1.23769,1.78163 h -0.002 c 1.70285,2.54004 2.91458,5.24655 2.91459,8.88277 0,4.55464 -1.74494,7.27171 -4.04294,8.91594 -2.29802,1.64423 -5.19477,2.18947 -7.43388,2.18947 -2.70004,0 -5.58147,-0.92217 -7.77745,-2.92125 -2.19598,-1.99909 -3.73442,-5.07248 -3.7345,-9.4916 0,-4.99014 1.39468,-8.50055 4.11714,-10.48486 2.14348,-1.56237 5.00647,-2.4256 8.53879,-2.73391 h 0.006 0.004 c 0.42856,-0.0432 0.86813,-0.0742 1.32163,-0.10148 0.69823,-0.0418 2.00488,-0.0331 2.00488,-0.0331 h 45.9775 11.97656 c 5.25982,0 7.00192,0.0341 7.03953,3.4091 z"
           style="font-style:normal;font-variant:normal;font-weight:normal;font-stretch:normal;font-size:15px;line-height:125%;font-family:Ubuntu;-inkscape-font-specification:Ubuntu;text-align:center;letter-spacing:0px;word-spacing:0px;writing-mode:lr-tb;text-anchor:middle;display:inline;fill:#0a0a0a;fill-opacity:1;stroke:none;stroke-width:3.33608699;enable-background:new"
           sodipodi:nodetypes="cccsccccccsscccccccsccscccccscccccccccscc" />
        <rect
           style="color:#000000;display:inline;overflow:visible;visibility:visible;fill:none;stroke:none;stroke-width:4;marker:none;enable-background:accumulate"
           id="rect900"
           width="96.037987"
           height="96"
           x="-438.00244"
           y="345.36221"
           transform="scale(-1,1)" />
      </g>
      <g
         id="g1995"
         inkscape:label="folder-music"
         transform="translate(-252,204.00001)"
         style="opacity:0.5">
        <rect
           transform="rotate(90)"
           y="-588"
           x="31.999994"
           height="16"
           width="16"
           id="rect4782-37"
           style="color:#000000;display:inline;overflow:visible;visibility:visible;fill:none;stroke:none;stroke-width:3.99920893;marker:none;enable-background:accumulate" />
        <path
           inkscape:connector-curvature="0"
           id="path1954"
           d="m 585.51367,32.041016 c -0.11528,-0.0081 -0.25052,0.0017 -0.41015,0.01563 l -7.20899,1.125 c -0.81332,0.08283 -0.90176,0.462468 -0.89453,0.935547 v 9.519531 c -0.41338,-0.271558 -0.85577,-0.46484 -1.44531,-0.464844 -0.75911,0 -1.21229,0.290977 -1.48633,0.673828 -0.27403,0.382848 -0.36524,0.865245 -0.36524,1.238281 0,0.449831 0.15511,0.92907 0.48829,1.294922 0.33318,0.365852 0.84551,0.623037 1.58203,0.623047 0.83169,0 1.41537,-0.231985 1.74609,-0.685547 0.26039,-0.357106 0.40565,-0.835343 0.45703,-1.423828 0.007,-0.07139 0.0111,-0.145151 0.0156,-0.220703 0.004,-0.05987 0.003,-0.101802 0.004,-0.171875 H 578 V 36.79688 c 0.0221,-0.619382 0.58398,-0.710937 0.58398,-0.710937 L 584.4375,35.17188 C 584.99943,35.000089 585,35.695312 585,35.695312 v 6.941407 c -0.41338,-0.271558 -0.85577,-0.46484 -1.44531,-0.464844 -0.75911,0 -1.21229,0.290977 -1.48633,0.673828 -0.27403,0.382848 -0.36524,0.865245 -0.36524,1.238281 0,0.449831 0.15511,0.92907 0.48829,1.294922 0.33318,0.365852 0.84551,0.623037 1.58203,0.623047 0.83169,0 1.41537,-0.231985 1.74609,-0.685547 0.26039,-0.357106 0.40565,-0.835343 0.45703,-1.423828 0.007,-0.07139 0.0111,-0.145151 0.0156,-0.220703 0.004,-0.05987 0.003,-0.101802 0.004,-0.171875 H 586 V 32.931641 c 0.0119,-0.685638 -0.14049,-0.866189 -0.48633,-0.890625 z"
           style="color:#000000;font-style:normal;font-variant:normal;font-weight:normal;font-stretch:normal;font-size:medium;line-height:normal;font-family:sans-serif;font-variant-ligatures:normal;font-variant-position:normal;font-variant-caps:normal;font-variant-numeric:normal;font-variant-alternates:normal;font-feature-settings:normal;text-indent:0;text-align:start;text-decoration:none;text-decoration-line:none;text-decoration-style:solid;text-decoration-color:#000000;letter-spacing:normal;word-spacing:normal;text-transform:none;writing-mode:lr-tb;direction:ltr;text-orientation:mixed;dominant-baseline:auto;baseline-shift:baseline;text-anchor:start;white-space:normal;shape-padding:0;clip-rule:nonzero;display:inline;overflow:visible;visibility:visible;opacity:1;isolation:auto;mix-blend-mode:normal;color-interpolation:sRGB;color-interpolation-filters:linearRGB;solid-color:#000000;solid-opacity:1;vector-effect:none;fill:#0a0a0a;fill-opacity:1;fill-rule:evenodd;stroke:none;stroke-width:1px;stroke-linecap:butt;stroke-linejoin:round;stroke-miterlimit:4;stroke-dasharray:none;stroke-dashoffset:0;stroke-opacity:1;color-rendering:auto;image-rendering:auto;shape-rendering:auto;text-rendering:auto;enable-background:accumulate" />
      </g>
      <g
         transform="matrix(2,0,0,2,-824,68.00002)"
         inkscape:label="folder-music"
         id="g918"
         style="opacity:0.5">
        <rect
           style="color:#000000;display:inline;overflow:visible;visibility:visible;fill:none;stroke:none;stroke-width:3.99920893;marker:none;enable-background:accumulate"
           id="rect914"
           width="16"
           height="16"
           x="31.999994"
           y="-588"
           transform="rotate(90)" />
        <path
           style="color:#000000;font-style:normal;font-variant:normal;font-weight:normal;font-stretch:normal;font-size:medium;line-height:normal;font-family:sans-serif;font-variant-ligatures:normal;font-variant-position:normal;font-variant-caps:normal;font-variant-numeric:normal;font-variant-alternates:normal;font-feature-settings:normal;text-indent:0;text-align:start;text-decoration:none;text-decoration-line:none;text-decoration-style:solid;text-decoration-color:#000000;letter-spacing:normal;word-spacing:normal;text-transform:none;writing-mode:lr-tb;direction:ltr;text-orientation:mixed;dominant-baseline:auto;baseline-shift:baseline;text-anchor:start;white-space:normal;shape-padding:0;clip-rule:nonzero;display:inline;overflow:visible;visibility:visible;opacity:1;isolation:auto;mix-blend-mode:normal;color-interpolation:sRGB;color-interpolation-filters:linearRGB;solid-color:#000000;solid-opacity:1;vector-effect:none;fill:#0a0a0a;fill-opacity:1;fill-rule:evenodd;stroke:none;stroke-width:1px;stroke-linecap:butt;stroke-linejoin:round;stroke-miterlimit:4;stroke-dasharray:none;stroke-dashoffset:0;stroke-opacity:1;color-rendering:auto;image-rendering:auto;shape-rendering:auto;text-rendering:auto;enable-background:accumulate"
           d="m 585.51367,33.041016 c -0.11528,-0.0081 -0.25052,0.0017 -0.41015,0.01563 l -6.70899,1.125 c -0.81332,0.08283 -0.90176,0.462468 -0.89453,0.935547 v 8.519531 c -0.41338,-0.271558 -0.85577,-0.46484 -1.44531,-0.464844 -0.75911,0 -1.21229,0.290977 -1.48633,0.673828 -0.27403,0.382848 -0.36524,0.865245 -0.36524,1.238281 0,0.449831 0.15511,0.92907 0.48829,1.294922 0.33318,0.365852 0.84551,0.623037 1.58203,0.623047 0.83169,0 1.41537,-0.231985 1.74609,-0.685547 0.26039,-0.357106 0.40565,-0.835343 0.45703,-1.423828 0.007,-0.07139 0.0111,-0.145151 0.0156,-0.220703 0.004,-0.05987 0.003,-0.101802 0.004,-0.171875 H 578.5 V 37.79688 c 0.0221,-0.619382 0.58398,-0.710937 0.58398,-0.710937 L 584.4375,36.17188 C 584.99943,36.000089 585,36.695312 585,36.695312 v 5.941407 c -0.41338,-0.271558 -0.85577,-0.46484 -1.44531,-0.464844 -0.75911,0 -1.21229,0.290977 -1.48633,0.673828 -0.27403,0.382848 -0.36524,0.865245 -0.36524,1.238281 0,0.449831 0.15511,0.92907 0.48829,1.294922 0.33318,0.365852 0.84551,0.623037 1.58203,0.623047 0.83169,0 1.41537,-0.231985 1.74609,-0.685547 0.26039,-0.357106 0.40565,-0.835343 0.45703,-1.423828 0.007,-0.07139 0.0111,-0.145151 0.0156,-0.220703 0.004,-0.05987 0.003,-0.101802 0.004,-0.171875 H 586 v -9.568359 c 0.0119,-0.685638 -0.14049,-0.866189 -0.48633,-0.890625 z"
           id="path916"
           inkscape:connector-curvature="0"
           sodipodi:nodetypes="cccccccsscccccccccccccsscccccccc" />
      </g>
    </g>
    <g
       inkscape:groupmode="layer"
       id="layer8"
       inkscape:label="Fullcolor">
      <g
         inkscape:groupmode="layer"
         id="layer10"
         inkscape:label="Shadow"
         style="display:inline"
         sodipodi:insensitive="true">
        <path
           style="display:inline;opacity:0.5;fill:#000000;fill-opacity:1;stroke:none;stroke-width:2;stroke-linecap:round;stroke-linejoin:round;stroke-miterlimit:4;stroke-dasharray:none;stroke-dashoffset:0;stroke-opacity:1;filter:url(#filter4560);enable-background:new"
           d="m 188.96876,45.999995 c 72.64865,0 83.03125,10.356615 83.03125,82.937505 v 58.125 c 0,72.58059 -10.3826,82.9375 -83.03125,82.9375 h -73.9375 C 42.382606,270 32.000006,259.64309 32.000006,187.0625 v -58.125 c 0,-72.58089 10.3826,-82.937505 83.031254,-82.937505 z"
           id="path4565"
           inkscape:connector-curvature="0"
           sodipodi:nodetypes="sssssssss" />
        <path
           sodipodi:nodetypes="sssssssss"
           inkscape:connector-curvature="0"
           id="path4558"
           d="m 188.96876,43.999995 c 72.64865,0 83.03125,10.356615 83.03125,82.937505 v 58.125 c 0,72.58059 -10.3826,82.9375 -83.03125,82.9375 h -73.9375 C 42.382606,268 32.000006,257.64309 32.000006,185.0625 v -58.125 c 0,-72.58089 10.3826,-82.937505 83.031254,-82.937505 z"
           style="display:inline;opacity:0.5;fill:#000000;fill-opacity:1;stroke:#000000;stroke-width:4;stroke-linecap:round;stroke-linejoin:round;stroke-miterlimit:4;stroke-dasharray:none;stroke-dashoffset:0;stroke-opacity:1;enable-background:new" />
        <path
           sodipodi:nodetypes="sssssssss"
           inkscape:connector-curvature="0"
           id="path4567"
           d="m 188.96876,43.999995 c 72.64865,0 83.03125,10.356615 83.03125,82.937505 v 58.125 c 0,72.58059 -10.3826,82.9375 -83.03125,82.9375 h -73.9375 C 42.382606,268 32.000006,257.64309 32.000006,185.0625 v -58.125 c 0,-72.58089 10.3826,-82.937505 83.031254,-82.937505 z"
           style="display:inline;opacity:0.5;fill:#000000;fill-opacity:1;stroke:none;stroke-width:2;stroke-linecap:round;stroke-linejoin:round;stroke-miterlimit:4;stroke-dasharray:none;stroke-dashoffset:0;stroke-opacity:1;filter:url(#filter4569);enable-background:new" />
        <path
           sodipodi:nodetypes="sssssssss"
           inkscape:connector-curvature="0"
           id="path4573"
           d="m 188.96876,45.999995 c 72.64865,0 83.03125,10.356615 83.03125,82.937505 v 58.125 c 0,72.58059 -10.3826,82.9375 -83.03125,82.9375 h -73.9375 C 42.382606,270 32.000006,259.64309 32.000006,187.0625 v -58.125 c 0,-72.58089 10.3826,-82.937505 83.031254,-82.937505 z"
           style="display:inline;opacity:0.2;fill:#000000;fill-opacity:1;stroke:none;stroke-width:2;stroke-linecap:round;stroke-linejoin:round;stroke-miterlimit:4;stroke-dasharray:none;stroke-dashoffset:0;stroke-opacity:1;filter:url(#filter4575);enable-background:new" />
      </g>
      <g
         inkscape:groupmode="layer"
         id="layer11"
         inkscape:label="Background"
         style="display:inline">
        <path
           style="display:inline;opacity:1;fill:url(#linearGradient942);fill-opacity:1;stroke:none;stroke-width:2;stroke-linecap:round;stroke-linejoin:round;stroke-miterlimit:4;stroke-dasharray:none;stroke-dashoffset:0;stroke-opacity:1;enable-background:new"
           d="M 188.96875,44 C 261.6174,44 272,54.356615 272,126.9375 v 58.125 C 272,257.64309 261.6174,268 188.96875,268 h -73.9375 C 42.3826,268 32,257.64309 32,185.0625 v -58.125 C 32,54.356615 42.3826,44 115.03125,44 Z"
           id="rect877"
           inkscape:connector-curvature="0"
           sodipodi:nodetypes="sssssssss" />
        <path
           style="font-style:normal;font-variant:normal;font-weight:normal;font-stretch:normal;font-size:15px;line-height:125%;font-family:Ubuntu;-inkscape-font-specification:Ubuntu;text-align:center;letter-spacing:0px;word-spacing:0px;writing-mode:lr-tb;text-anchor:middle;display:inline;opacity:0.2;fill:#ffffff;fill-opacity:1;stroke:none;stroke-width:5.00314093;enable-background:new"
           d="M 190.83984 118.93164 C 189.14978 118.94418 186.89496 119.17119 183.89062 119.56445 L 144.96094 125.49609 C 132.96523 127.54671 132.96484 128.08412 132.96484 137.07617 L 132.96484 139.07617 C 132.96484 130.08412 132.96523 129.54671 144.96094 127.49609 L 183.89062 121.56445 C 195.90796 119.99138 195.91016 121.09191 195.91016 127.83594 L 195.91016 125.83594 C 195.91016 120.77792 195.91004 118.89401 190.83984 118.93164 z M 201.9043 189.14062 C 201.89971 189.76129 201.88682 190.51364 201.85547 191.03711 C 201.81455 191.71709 201.76792 192.37694 201.70312 193.01953 L 201.70312 193.02539 L 201.70312 193.0332 C 201.24065 198.32959 199.94511 202.62394 197.60156 205.83789 C 194.62509 209.91997 189.3602 212.00977 181.875 212.00977 C 175.24631 212.00965 170.63536 209.70282 167.63672 206.41016 C 164.84181 203.34117 163.46719 199.38236 163.29102 195.58008 C 163.26923 195.97915 163.25586 196.37312 163.25586 196.75 C 163.25586 200.79846 164.6381 205.11749 167.63672 208.41016 C 170.63536 211.70282 175.24631 214.00965 181.875 214.00977 C 189.3602 214.00977 194.62509 211.91997 197.60156 207.83789 C 199.94511 204.62394 201.24065 200.32959 201.70312 195.0332 L 201.70312 195.02539 L 201.70312 195.01953 C 201.76792 194.37694 201.81455 193.71709 201.85547 193.03711 C 201.91817 191.99018 201.9043 190.03125 201.9043 190.03125 L 201.9043 189.14062 z M 132.96484 201.13086 C 132.96024 201.75153 132.94742 202.50388 132.91602 203.02734 C 132.87512 203.70731 132.82847 204.36525 132.76367 205.00781 L 132.76367 205.01367 L 132.76367 205.02344 C 132.3012 210.31981 131.00563 214.61223 128.66211 217.82617 C 125.68562 221.90823 120.42077 224 112.93555 224 C 106.30689 223.99991 101.69784 221.69306 98.699219 218.40039 C 95.904524 215.33166 94.527912 211.37233 94.351562 207.57031 C 94.329782 207.96931 94.316406 208.36146 94.316406 208.73828 C 94.316406 212.78675 95.700594 217.10773 98.699219 220.40039 C 101.69784 223.69306 106.30689 225.99991 112.93555 226 C 120.42077 226 125.68562 223.90823 128.66211 219.82617 C 131.00563 216.61223 132.3012 212.31981 132.76367 207.02344 L 132.76367 207.01367 L 132.76367 207.00781 C 132.82847 206.36525 132.87512 205.70731 132.91602 205.02734 C 132.97882 203.98041 132.96484 202.02148 132.96484 202.02148 L 132.96484 201.13086 z "
           id="path1086" />
        <path
           style="font-style:normal;font-variant:normal;font-weight:normal;font-stretch:normal;font-size:15px;line-height:125%;font-family:Ubuntu;-inkscape-font-specification:Ubuntu;text-align:center;letter-spacing:0px;word-spacing:0px;writing-mode:lr-tb;text-anchor:middle;display:inline;opacity:0.5;fill:#000000;fill-opacity:1;stroke:none;stroke-width:5.00314093;enable-background:new"
           d="m 196.79115,90.579796 c -1.68749,-0.01874 -3.93168,0.245138 -6.91671,0.693731 l -50.91104,7.988059 c -11.99237,2.553614 -11.99232,3.347594 -11.99232,13.479264 v 19.83988 63.17263 c -0.88479,-0.61946 -1.75795,-1.24295 -2.67243,-1.85577 v 0.003 c -3.81005,-2.55326 -7.86984,-4.37014 -13.32415,-4.37017 -6.83196,0 -10.90756,2.61639 -13.37394,6.06204 -2.466315,3.44564 -3.28419,7.78906 -3.28419,11.14638 0,4.04847 1.383255,8.3689 4.38188,11.66156 2.99862,3.29267 7.60874,5.59943 14.2374,5.59952 7.48522,0 12.75081,-2.09118 15.7273,-6.17324 2.34352,-3.21394 3.6384,-7.50675 4.10087,-12.80312 v -0.009 -0.006 c 0.0648,-0.64256 0.1113,-1.30166 0.1522,-1.98163 0.0628,-1.04693 0.0498,-3.00615 0.0498,-3.00615 v -62.94436 c 0,-8.99205 -4.5e-4,-9.52897 11.99526,-11.57959 l 38.9304,-5.93323 c 12.01734,-1.57307 12.01868,-0.47126 12.01868,6.27277 v 57.92729 c -0.88481,-0.61948 -1.75797,-1.24296 -2.67245,-1.8558 v 0.003 c -3.81006,-2.55327 -7.86983,-4.37014 -13.32415,-4.37016 -6.83197,0 -10.90757,2.61638 -13.37391,6.06201 -2.46635,3.44567 -3.28421,7.78908 -3.28421,11.14641 0,4.04846 1.38325,8.3689 4.38187,11.66157 2.99864,3.29266 7.60872,5.59941 14.23741,5.59953 7.4852,0 12.75082,-2.09119 15.72729,-6.17327 2.34355,-3.21395 3.63839,-7.50673 4.10086,-12.80312 v -0.009 -0.006 c 0.0648,-0.64259 0.1113,-1.30168 0.15222,-1.98166 0.0627,-1.04693 0.0497,-3.00613 0.0497,-3.00613 v -68.93898 -17.95773 c 0,-7.886614 -0.0512,-10.498731 -5.11365,-10.555124 z"
           id="path947"
           inkscape:connector-curvature="0" />
        <path
           inkscape:connector-curvature="0"
           id="path961"
           d="m 196.79115,90.579796 c -1.68749,-0.01874 -3.93168,0.245138 -6.91671,0.693731 l -50.91104,7.988059 c -11.99237,2.553614 -11.99232,3.347594 -11.99232,13.479264 v 19.83988 63.17263 c -0.88479,-0.61946 -1.75795,-1.24295 -2.67243,-1.85577 v 0.003 c -3.81005,-2.55326 -7.86984,-4.37014 -13.32415,-4.37017 -6.83196,0 -10.90756,2.61639 -13.37394,6.06204 -2.466315,3.44564 -3.28419,7.78906 -3.28419,11.14638 0,4.04847 1.383255,8.3689 4.38188,11.66156 2.99862,3.29267 7.60874,5.59943 14.2374,5.59952 7.48522,0 12.75081,-2.09118 15.7273,-6.17324 2.34352,-3.21394 3.6384,-7.50675 4.10087,-12.80312 v -0.009 -0.006 c 0.0648,-0.64256 0.1113,-1.30166 0.1522,-1.98163 0.0628,-1.04693 0.0498,-3.00615 0.0498,-3.00615 v -62.94436 c 0,-8.99205 -4.5e-4,-9.52897 11.99526,-11.57959 l 38.9304,-5.93323 c 12.01734,-1.57307 12.01868,-0.47126 12.01868,6.27277 v 57.92729 c -0.88481,-0.61948 -1.75797,-1.24296 -2.67245,-1.8558 v 0.003 c -3.81006,-2.55327 -7.86983,-4.37014 -13.32415,-4.37016 -6.83197,0 -10.90757,2.61638 -13.37391,6.06201 -2.46635,3.44567 -3.28421,7.78908 -3.28421,11.14641 0,4.04846 1.38325,8.3689 4.38187,11.66157 2.99864,3.29266 7.60872,5.59941 14.23741,5.59953 7.4852,0 12.75082,-2.09119 15.72729,-6.17327 2.34355,-3.21395 3.63839,-7.50673 4.10086,-12.80312 v -0.009 -0.006 c 0.0648,-0.64259 0.1113,-1.30168 0.15222,-1.98166 0.0627,-1.04693 0.0497,-3.00613 0.0497,-3.00613 v -68.93898 -17.95773 c 0,-7.886614 -0.0512,-10.498731 -5.11365,-10.555124 z"
           style="font-style:normal;font-variant:normal;font-weight:normal;font-stretch:normal;font-size:15px;line-height:125%;font-family:Ubuntu;-inkscape-font-specification:Ubuntu;text-align:center;letter-spacing:0px;word-spacing:0px;writing-mode:lr-tb;text-anchor:middle;display:inline;opacity:0.2;fill:#fb7c38;fill-opacity:1;stroke:none;stroke-width:5.00314093;enable-background:new" />
      </g>
      <g
         inkscape:groupmode="layer"
         id="layer9"
         inkscape:label="Highlights"
         style="display:inline"
         sodipodi:insensitive="true">
        <path
           sodipodi:nodetypes="sssssssss"
           inkscape:connector-curvature="0"
           id="path1068"
           d="M 361.9375,-212 C 507.2348,-212 528,-191.28677 528,-46.125 V 70.125 C 528,215.28618 507.2348,236 361.9375,236 H 214.0625 C 68.7652,236 48,215.28618 48,70.125 V -46.125 C 48,-191.28677 68.7652,-212 214.0625,-212 Z"
           style="display:inline;opacity:0.5;fill:none;fill-opacity:1;stroke:url(#linearGradient1108);stroke-width:8;stroke-linecap:round;stroke-linejoin:round;stroke-miterlimit:4;stroke-dasharray:none;stroke-dashoffset:0;stroke-opacity:1;enable-background:new"
           clip-path="url(#clipPath1082)"
           transform="matrix(0.5,0,0,0.5,8,150)" />
      </g>
    </g>
  </g>
</svg>
