<?xml version="1.0" encoding="UTF-8" standalone="no"?>
<!-- Created with Inkscape (http://www.inkscape.org/) -->

<svg
   xmlns:dc="http://purl.org/dc/elements/1.1/"
   xmlns:cc="http://creativecommons.org/ns#"
   xmlns:rdf="http://www.w3.org/1999/02/22-rdf-syntax-ns#"
   xmlns:svg="http://www.w3.org/2000/svg"
   xmlns="http://www.w3.org/2000/svg"
   xmlns:xlink="http://www.w3.org/1999/xlink"
   xmlns:sodipodi="http://sodipodi.sourceforge.net/DTD/sodipodi-0.dtd"
   xmlns:inkscape="http://www.inkscape.org/namespaces/inkscape"
   inkscape:export-ydpi="90.000000"
   inkscape:export-xdpi="90.000000"
   width="400"
   height="300"
   id="svg11300"
   sodipodi:version="0.32"
   inkscape:version="0.92.2 (unknown)"
   sodipodi:docname="preferences-system-brightness-lock.svg"
   inkscape:output_extension="org.inkscape.output.svg.inkscape"
   version="1.0"
   style="display:inline;enable-background:new"
   inkscape:export-filename="/home/sam/paper-template.png">
  <title
     id="title3004">Paper Icon Theme Template</title>
  <sodipodi:namedview
     stroke="#ef2929"
     fill="#f57900"
     id="base"
     pagecolor="#ffffff"
     bordercolor="#000000"
     borderopacity="0.25490196"
     inkscape:pageopacity="0"
     inkscape:pageshadow="2"
     inkscape:zoom="1"
     inkscape:cx="191.44351"
     inkscape:cy="142.0259"
     inkscape:current-layer="layer11"
     showgrid="false"
     inkscape:grid-bbox="true"
     inkscape:document-units="px"
     inkscape:showpageshadow="false"
     inkscape:window-width="1920"
     inkscape:window-height="1016"
     inkscape:window-x="0"
     inkscape:window-y="27"
     width="400px"
     height="300px"
     inkscape:snap-nodes="true"
     inkscape:snap-bbox="true"
     gridtolerance="10000"
     inkscape:object-nodes="true"
     inkscape:snap-grids="true"
     showguides="true"
     inkscape:guide-bbox="true"
     inkscape:window-maximized="1"
     inkscape:bbox-paths="true"
     inkscape:snap-bbox-midpoints="true"
     inkscape:snap-global="true"
     inkscape:object-paths="true"
     inkscape:snap-intersection-paths="true"
     inkscape:snap-smooth-nodes="true"
     inkscape:pagecheckerboard="false"
     showborder="false">
    <inkscape:grid
       spacingy="1"
       spacingx="1"
       id="grid5883"
       type="xygrid"
       enabled="true"
       visible="true"
       empspacing="4"
       snapvisiblegridlinesonly="true"
       originx="0"
       originy="0" />
    <inkscape:grid
       type="xygrid"
       id="grid11592"
       empspacing="2"
       visible="true"
       enabled="false"
       spacingx="0.5"
       spacingy="0.5"
       color="#ff0000"
       opacity="0.1254902"
       empcolor="#ff0000"
       empopacity="0.25098039"
       snapvisiblegridlinesonly="true"
       originx="0"
       originy="0" />
  </sodipodi:namedview>
  <defs
     id="defs3">
    <linearGradient
       inkscape:collect="always"
       id="linearGradient927">
      <stop
         style="stop-color:#ffffff;stop-opacity:1;"
         offset="0"
         id="stop923" />
      <stop
         id="stop933"
         offset="0.125"
         style="stop-color:#ffffff;stop-opacity:0.09803922" />
      <stop
         id="stop931"
         offset="0.92500001"
         style="stop-color:#ffffff;stop-opacity:0.09803922" />
      <stop
         style="stop-color:#ffffff;stop-opacity:0.49803922"
         offset="1"
         id="stop925" />
    </linearGradient>
    <clipPath
       clipPathUnits="userSpaceOnUse"
       id="clipPath9430">
      <path
         sodipodi:nodetypes="sssssssss"
         inkscape:connector-curvature="0"
         id="path9432"
         d="m 166.0625,-196 h 179.875 C 491.2348,-196 512,-175.28677 512,-30.125 v 148.25 C 512,263.28618 491.2348,284 345.9375,284 H 166.0625 C 20.7652,284 0,263.28618 0,118.125 V -30.125 C 0,-175.28677 20.7652,-196 166.0625,-196 Z"
         style="color:#000000;display:inline;overflow:visible;visibility:visible;fill:#ffffff;fill-opacity:1;fill-rule:nonzero;stroke:none;stroke-width:1;marker:none;enable-background:new" />
    </clipPath>
    <clipPath
       clipPathUnits="userSpaceOnUse"
       id="clipPath1082">
      <path
         sodipodi:nodetypes="sssssssss"
         inkscape:connector-curvature="0"
         id="path1084"
         d="M 361.9375,-212 C 507.2348,-212 528,-191.28677 528,-46.125 V 70.125 C 528,215.28618 507.2348,236 361.9375,236 H 214.0625 C 68.7652,236 48,215.28618 48,70.125 V -46.125 C 48,-191.28677 68.7652,-212 214.0625,-212 Z"
         style="display:inline;opacity:1;fill:#8c59d9;fill-opacity:1;stroke:none;stroke-width:2;stroke-linecap:round;stroke-linejoin:round;stroke-miterlimit:4;stroke-dasharray:none;stroke-dashoffset:0;stroke-opacity:1;enable-background:new" />
    </clipPath>
    <linearGradient
       inkscape:collect="always"
       xlink:href="#linearGradient927"
       id="linearGradient1108"
       x1="296"
       y1="-212"
       x2="296"
       y2="236"
       gradientUnits="userSpaceOnUse" />
    <filter
       inkscape:collect="always"
       style="color-interpolation-filters:sRGB"
       id="filter4560"
       x="-0.0232"
       width="1.0464"
       y="-0.024857143"
       height="1.0497143">
      <feGaussianBlur
         inkscape:collect="always"
         stdDeviation="2.32"
         id="feGaussianBlur4562" />
    </filter>
    <filter
       inkscape:collect="always"
       style="color-interpolation-filters:sRGB"
       id="filter4569"
       x="-0.0116"
       width="1.0232"
       y="-0.012428571"
       height="1.024857">
      <feGaussianBlur
         inkscape:collect="always"
         stdDeviation="1.16"
         id="feGaussianBlur4571" />
    </filter>
    <filter
       inkscape:collect="always"
       style="color-interpolation-filters:sRGB"
       id="filter4575"
       x="-0.058"
       width="1.116"
       y="-0.062142857"
       height="1.1242857">
      <feGaussianBlur
         inkscape:collect="always"
         stdDeviation="5.8000001"
         id="feGaussianBlur4577" />
    </filter>
    <linearGradient
       inkscape:collect="always"
       xlink:href="#linearGradient916-6"
       id="linearGradient878-3"
       x1="5.1487508"
       y1="154.35387"
       x2="306.85126"
       y2="143.78981"
       gradientUnits="userSpaceOnUse"
       gradientTransform="rotate(60,152.00004,156.00003)" />
    <linearGradient
       inkscape:collect="always"
       id="linearGradient916-6">
      <stop
         style="stop-color:#8c59d9;stop-opacity:1"
         offset="0"
         id="stop912-7" />
      <stop
         style="stop-color:#a7a7f1;stop-opacity:1"
         offset="1"
         id="stop914-5" />
    </linearGradient>
  </defs>
  <metadata
     id="metadata4">
    <rdf:RDF>
      <cc:Work
         rdf:about="">
        <dc:format>image/svg+xml</dc:format>
        <dc:type
           rdf:resource="http://purl.org/dc/dcmitype/StillImage" />
        <dc:creator>
          <cc:Agent>
            <dc:title>Sam Hewitt</dc:title>
          </cc:Agent>
        </dc:creator>
        <dc:source />
        <cc:license
           rdf:resource="http://creativecommons.org/licenses/by-sa/4.0/" />
        <dc:title>Paper Icon Theme Template</dc:title>
        <dc:subject>
          <rdf:Bag />
        </dc:subject>
        <dc:date />
        <dc:rights>
          <cc:Agent>
            <dc:title />
          </cc:Agent>
        </dc:rights>
        <dc:publisher>
          <cc:Agent>
            <dc:title />
          </cc:Agent>
        </dc:publisher>
        <dc:identifier />
        <dc:relation />
        <dc:language />
        <dc:coverage />
        <dc:description />
        <dc:contributor>
          <cc:Agent>
            <dc:title />
          </cc:Agent>
        </dc:contributor>
      </cc:Work>
      <cc:Work
         rdf:about="">
        <dc:format>image/svg+xml</dc:format>
        <dc:type
           rdf:resource="http://purl.org/dc/dcmitype/StillImage" />
      </cc:Work>
      <cc:License
         rdf:about="http://creativecommons.org/licenses/by-sa/4.0/">
        <cc:permits
           rdf:resource="http://creativecommons.org/ns#Reproduction" />
        <cc:permits
           rdf:resource="http://creativecommons.org/ns#Distribution" />
        <cc:requires
           rdf:resource="http://creativecommons.org/ns#Notice" />
        <cc:requires
           rdf:resource="http://creativecommons.org/ns#Attribution" />
        <cc:permits
           rdf:resource="http://creativecommons.org/ns#DerivativeWorks" />
        <cc:requires
           rdf:resource="http://creativecommons.org/ns#ShareAlike" />
      </cc:License>
    </rdf:RDF>
  </metadata>
  <g
     style="display:inline"
     inkscape:groupmode="layer"
     inkscape:label="Icon"
     id="layer1">
    <g
       style="display:none"
       inkscape:label="Baseplate"
       id="layer7"
       inkscape:groupmode="layer">
      <text
         y="-8.2548828"
         xml:space="preserve"
         x="19.006836"
         style="font-style:normal;font-variant:normal;font-weight:normal;font-stretch:normal;line-height:0%;font-family:'DejaVu Sans';-inkscape-font-specification:'DejaVu Sans';display:inline;fill:#000000;fill-opacity:1;stroke:none;enable-background:new"
         inkscape:label="context"
         id="context"><tspan
           style="font-style:normal;font-variant:normal;font-weight:normal;font-stretch:normal;font-size:18px;line-height:1.25;font-family:'DejaVu Sans';-inkscape-font-specification:'DejaVu Sans'"
           y="-8.2548828"
           x="19.006836"
           sodipodi:role="line"
           id="tspan3933">categories</tspan></text>
      <text
         y="-8.2548828"
         xml:space="preserve"
         x="146.48828"
         style="font-style:normal;font-variant:normal;font-weight:bold;font-stretch:normal;line-height:0%;font-family:'DejaVu Sans';-inkscape-font-specification:'DejaVu Sans Bold';text-align:start;writing-mode:lr-tb;text-anchor:start;display:inline;fill:#000000;fill-opacity:1;stroke:none;enable-background:new"
         inkscape:label="icon-name"
         id="icon-name"><tspan
           style="font-style:normal;font-variant:normal;font-weight:bold;font-stretch:normal;font-size:18px;line-height:1.25;font-family:'DejaVu Sans';-inkscape-font-specification:'DejaVu Sans Bold'"
           y="-8.2548828"
           x="146.48828"
           sodipodi:role="line"
           id="tspan3937">preferences-system-brightness-lock</tspan></text>
      <rect
         style="display:inline;overflow:visible;visibility:visible;fill:#cdcdcd;fill-opacity:1;fill-rule:nonzero;stroke:none;stroke-width:2;marker:none;enable-background:accumulate"
         id="rect16x16"
         width="16"
         height="16"
         x="320"
         y="236"
         inkscape:label="16x16" />
      <rect
         style="display:inline;overflow:visible;visibility:visible;fill:#cdcdcd;fill-opacity:1;fill-rule:nonzero;stroke:none;stroke-width:2;marker:none;enable-background:accumulate"
         id="rect24x24"
         width="24"
         height="24"
         x="320"
         y="188"
         inkscape:label="24x24" />
      <rect
         style="display:inline;overflow:visible;visibility:visible;fill:#cdcdcd;fill-opacity:1;fill-rule:nonzero;stroke:none;stroke-width:2;marker:none;enable-background:accumulate"
         id="rect32x32"
         width="32"
         height="32"
         x="320"
         y="132"
         inkscape:label="32x32" />
      <rect
         inkscape:label="48x48"
         y="60"
         x="320"
         height="48"
         width="48"
         id="rect48x48"
         style="display:inline;overflow:visible;visibility:visible;fill:#cdcdcd;fill-opacity:1;fill-rule:nonzero;stroke:none;stroke-width:2;marker:none;enable-background:accumulate" />
      <rect
         style="display:inline;overflow:visible;visibility:visible;fill:#cdcdcd;fill-opacity:1;fill-rule:nonzero;stroke:none;stroke-width:2;marker:none;enable-background:accumulate"
         id="rect3951"
         width="256"
         height="256"
         x="24"
         y="28"
         inkscape:label="48x48" />
    </g>
    <g
       inkscape:groupmode="layer"
       id="layer6"
       inkscape:label="Pictographic"
       style="display:inline">
      <g
         transform="matrix(0,-0.49980223,-0.49999998,0,540.6811,278.9146)"
         style="display:inline;opacity:0.5"
         id="g841">
        <rect
           transform="scale(-1,1)"
           y="345.36221"
           x="-438.00244"
           height="96"
           width="96.037987"
           id="rect4782"
           style="color:#000000;display:inline;overflow:visible;visibility:visible;fill:none;stroke:none;stroke-width:4;marker:none;enable-background:accumulate" />
        <path
           inkscape:transform-center-y="0.012190639"
           sodipodi:nodetypes="cccccccccc"
           inkscape:connector-curvature="0"
           style="color:#000000;display:inline;overflow:visible;visibility:visible;fill:#000000;fill-opacity:1;fill-rule:nonzero;stroke:none;stroke-width:6;marker:none;enable-background:accumulate"
           d="m 432.98828,391.36222 -1.00039,4 h -13.99335 v -4 z m -71.0159,0 v 3.99999 l -14.01774,10e-6 v -4 z"
           id="path4123" />
        <ellipse
           ry="20.007509"
           rx="19.999594"
           transform="matrix(0,-1,-1,0,0,0)"
           cy="-389.98346"
           cx="-393.36221"
           id="path4222"
           style="color:#000000;display:inline;overflow:visible;visibility:visible;opacity:1;fill:none;fill-opacity:1;fill-rule:nonzero;stroke:#000000;stroke-width:4.00079155;stroke-linecap:butt;stroke-linejoin:miter;stroke-miterlimit:4;stroke-dasharray:none;stroke-dashoffset:0;stroke-opacity:1;marker:none;enable-background:accumulate" />
        <path
           inkscape:transform-center-x="0.0086200001"
           id="path4224"
           d="m 418.2703,362.25814 2.82955,2.82842 -9.89479,9.89088 -2.82955,-2.82842 z m -49.50844,49.48886 2.82954,2.82842 -9.91203,9.90812 -2.82955,-2.82842 z"
           style="color:#000000;display:inline;overflow:visible;visibility:visible;fill:#000000;fill-opacity:1;fill-rule:nonzero;stroke:none;stroke-width:6;marker:none;enable-background:accumulate"
           inkscape:connector-curvature="0"
           sodipodi:nodetypes="cccccccccc"
           inkscape:transform-center-y="0.0086220509" />
        <path
           sodipodi:nodetypes="cccccccccc"
           inkscape:connector-curvature="0"
           style="color:#000000;display:inline;overflow:visible;visibility:visible;fill:#000000;fill-opacity:1;fill-rule:nonzero;stroke:none;stroke-width:6;marker:none;enable-background:accumulate"
           d="m 387.98267,351.37441 4.00158,-1e-5 v 13.98782 h -4.00158 z m 0,69.98782 4.00157,-1e-5 10e-6,14.0122 h -4.00158 z"
           id="path4226"
           inkscape:transform-center-x="0.01219" />
        <path
           inkscape:transform-center-y="-0.0086265869"
           inkscape:transform-center-x="0.00862"
           id="path4228"
           d="m 358.86708,365.08657 2.82953,-2.82843 9.8948,9.89088 -2.82955,2.82842 z m 49.50844,49.48886 2.82953,-2.82843 9.91205,9.90812 -2.82955,2.82842 z"
           style="color:#000000;display:inline;overflow:visible;visibility:visible;fill:#000000;fill-opacity:1;fill-rule:nonzero;stroke:none;stroke-width:6;marker:none;enable-background:accumulate"
           inkscape:connector-curvature="0"
           sodipodi:nodetypes="cccccccccc" />
        <path
           style="color:#000000;display:inline;overflow:visible;visibility:visible;opacity:1;fill:#000000;fill-opacity:1;fill-rule:nonzero;stroke:none;stroke-width:2;stroke-linecap:butt;stroke-linejoin:miter;stroke-miterlimit:4;stroke-dasharray:none;stroke-dashoffset:0;stroke-opacity:1;marker:none;enable-background:accumulate"
           d="M 344 74 L 344 94 A 9.9997965 9.9997977 0 0 0 354 84 A 9.9997965 9.9997977 0 0 0 344 74 z "
           transform="matrix(0,-2.0000001,-2.0007914,0,558.04993,1081.3622)"
           id="ellipse885" />
      </g>
      <g
         id="g951"
         style="display:inline;opacity:0.5"
         transform="matrix(0,-0.24990112,-0.25,0,430.84055,297.9573)">
        <rect
           style="color:#000000;display:inline;overflow:visible;visibility:visible;fill:none;stroke:none;stroke-width:4;marker:none;enable-background:accumulate"
           id="rect939"
           width="96.037987"
           height="96"
           x="-436.00165"
           y="347.36221"
           transform="scale(-1,1)" />
        <path
           id="path941"
           d="m 432.98828,391.36222 -1.00039,4 h -13.99335 v -4 z m -71.0159,0 v 3.99999 l -14.01774,10e-6 v -4 z"
           style="color:#000000;display:inline;overflow:visible;visibility:visible;fill:#000000;fill-opacity:1;fill-rule:nonzero;stroke:none;stroke-width:6;marker:none;enable-background:accumulate"
           inkscape:connector-curvature="0"
           sodipodi:nodetypes="cccccccccc"
           inkscape:transform-center-y="0.012190639" />
        <ellipse
           style="color:#000000;display:inline;overflow:visible;visibility:visible;opacity:1;fill:none;fill-opacity:1;fill-rule:nonzero;stroke:#000000;stroke-width:4.00079155;stroke-linecap:butt;stroke-linejoin:miter;stroke-miterlimit:4;stroke-dasharray:none;stroke-dashoffset:0;stroke-opacity:1;marker:none;enable-background:accumulate"
           id="ellipse943"
           cx="-393.36221"
           cy="-389.98346"
           transform="matrix(0,-1,-1,0,0,0)"
           rx="19.999594"
           ry="20.007509" />
        <path
           style="color:#000000;display:inline;overflow:visible;visibility:visible;fill:#000000;fill-opacity:1;fill-rule:nonzero;stroke:none;stroke-width:1.49970329;marker:none;enable-background:accumulate"
           d="M 339.56836 192.72461 L 337.0957 195.19727 L 337.80273 195.9043 L 340.27539 193.43164 L 339.56836 192.72461 z M 332.5 195.5 L 332.5 205.5 A 4.9998964 4.9998969 0 0 0 337.5 200.5 A 4.9998964 4.9998969 0 0 0 332.5 195.5 z M 327.19727 205.0957 L 324.71875 207.57227 L 325.42773 208.28125 L 327.9043 205.80273 L 327.19727 205.0957 z "
           transform="matrix(0,-4,-4.0015827,0,1192.3008,1723.3622)"
           id="path945" />
        <path
           inkscape:transform-center-x="0.01219"
           id="path947"
           d="m 387.98267,351.37441 4.00158,-1e-5 v 13.98782 h -4.00158 z m 0,69.98782 4.00157,-1e-5 10e-6,14.0122 h -4.00158 z"
           style="color:#000000;display:inline;overflow:visible;visibility:visible;fill:#000000;fill-opacity:1;fill-rule:nonzero;stroke:none;stroke-width:6;marker:none;enable-background:accumulate"
           inkscape:connector-curvature="0"
           sodipodi:nodetypes="cccccccccc" />
        <path
           sodipodi:nodetypes="cccccccccc"
           inkscape:connector-curvature="0"
           style="color:#000000;display:inline;overflow:visible;visibility:visible;fill:#000000;fill-opacity:1;fill-rule:nonzero;stroke:none;stroke-width:6;marker:none;enable-background:accumulate"
           d="m 358.86708,365.08657 2.82953,-2.82843 9.8948,9.89088 -2.82955,2.82842 z m 49.50844,49.48886 2.82953,-2.82843 9.91205,9.90812 -2.82955,2.82842 z"
           id="path949"
           inkscape:transform-center-x="0.00862"
           inkscape:transform-center-y="-0.0086265869" />
      </g>
      <g
         style="display:inline;opacity:0.5"
         id="g3450"
         inkscape:label="display-brightness"
         transform="translate(247.99995,123.99997)">
        <rect
           transform="rotate(90,-304.0001,62.9999)"
           y="-329.00024"
           x="-254.99998"
           height="16"
           width="16"
           id="rect3390"
           style="color:#000000;display:inline;overflow:visible;visibility:visible;fill:none;stroke:none;stroke-width:3.99920893;marker:none;enable-background:accumulate" />
        <rect
           transform="rotate(90)"
           y="-88.000046"
           x="112.00002"
           height="16"
           width="16.000002"
           id="rect4782-48"
           style="color:#000000;display:inline;overflow:visible;visibility:visible;fill:none;stroke:none;stroke-width:0.99980217;marker:none;enable-background:accumulate" />
        <path
           style="color:#000000;display:inline;overflow:visible;visibility:visible;fill:#000000;fill-opacity:1;fill-rule:nonzero;stroke:none;stroke-width:1.49970341;marker:none;enable-background:accumulate"
           d="M 329 236.75 L 328 237 L 328 239 L 329 239 L 329 236.75 z M 323.54102 238.82227 L 322.83398 239.5293 L 324.24805 240.94336 L 324.95508 240.23633 L 323.54102 238.82227 z M 333.44141 238.83984 L 332.02734 240.25391 L 332.73438 240.96094 L 334.14844 239.54688 L 333.44141 238.83984 z M 328.5 240 C 326.02064 240 324 242.02064 324 244.5 C 324 246.97936 326.02064 249 328.5 249 C 330.97936 249 333 246.97936 333 244.5 C 333 242.02064 330.97936 240 328.5 240 z M 328.5 241 L 328.5 248 C 326.56108 248 325 246.43892 325 244.5 C 325 242.56108 326.56108 241 328.5 241 z M 320.98828 243.98828 L 320.98828 244.98828 L 322.98828 244.98828 L 322.98828 243.98828 L 320.98828 243.98828 z M 333.98828 243.98828 L 333.98828 244.98828 L 335.98828 244.98828 L 335.98828 243.98828 L 333.98828 243.98828 z M 332.73438 248.01562 L 332.02734 248.72266 L 333.44141 250.13672 L 334.14844 249.42969 L 332.73438 248.01562 z M 324.24805 248.03125 L 322.83398 249.44531 L 323.54102 250.15234 L 324.95508 248.73828 L 324.24805 248.03125 z M 328 250 L 328 252 L 329 252 L 329 250 L 328 250 z "
           transform="translate(-247.99995,-123.99997)"
           id="path4123-2" />
      </g>
      <g
         id="g1048"
         style="opacity:0.5"
         transform="translate(0,5e-5)">
        <rect
           style="color:#000000;display:inline;overflow:visible;visibility:visible;fill:none;stroke:none;stroke-width:7.9984169;marker:none;enable-background:accumulate"
           id="rect983"
           width="31.999996"
           height="31.999996"
           x="131.99998"
           y="-352"
           transform="rotate(90)" />
        <rect
           style="color:#000000;display:inline;overflow:visible;visibility:visible;fill:none;stroke:none;stroke-width:1.99960411;marker:none;enable-background:accumulate"
           id="rect985"
           width="32"
           height="31.999996"
           x="132"
           y="-352"
           transform="rotate(90)" />
        <path
           style="color:#000000;display:inline;overflow:visible;visibility:visible;fill:#000000;fill-opacity:1;fill-rule:nonzero;stroke:none;stroke-width:2.99940658;marker:none;enable-background:accumulate"
           d="M 337 132.5 L 335 133 L 335 137 L 337 137 L 337 132.5 z M 326.08203 136.64453 L 324.66797 138.05859 L 327.49609 140.88672 L 328.91016 139.47266 L 326.08203 136.64453 z M 345.88281 136.67969 L 343.05469 139.50781 L 344.46875 140.92188 L 347.29688 138.09375 L 345.88281 136.67969 z M 336 139 C 331.04129 139 327 143.04128 327 148 C 327 152.95872 331.04129 157 336 157 C 340.95872 157 345 152.95872 345 148 C 345 143.04128 340.95872 139 336 139 z M 336 141 L 336 155 C 332.12217 155 329 151.87784 329 148 C 329 144.12216 332.12217 141 336 141 z M 320.97656 146.97656 L 320.97656 148.97656 L 324.97656 148.97656 L 324.97656 146.97656 L 320.97656 146.97656 z M 346.97656 146.97656 L 346.97656 148.97656 L 350.97656 148.97656 L 350.97656 146.97656 L 346.97656 146.97656 z M 344.46875 155.03125 L 343.05469 156.44531 L 345.88281 159.27344 L 347.29688 157.85938 L 344.46875 155.03125 z M 327.49609 155.0625 L 324.66797 157.89062 L 326.08203 159.30469 L 328.91016 156.47656 L 327.49609 155.0625 z M 335 159 L 335 163 L 337 163 L 337 159 L 335 159 z "
           transform="translate(0,-5e-5)"
           id="path987" />
      </g>
    </g>
    <g
       inkscape:groupmode="layer"
       id="layer8"
       inkscape:label="Fullcolor">
      <g
         inkscape:groupmode="layer"
         id="layer10"
         inkscape:label="Shadow"
         style="display:inline"
         sodipodi:insensitive="true">
        <path
           style="display:inline;opacity:0.5;fill:#000000;fill-opacity:1;stroke:none;stroke-width:2;stroke-linecap:round;stroke-linejoin:round;stroke-miterlimit:4;stroke-dasharray:none;stroke-dashoffset:0;stroke-opacity:1;filter:url(#filter4560);enable-background:new"
           d="m 188.96876,45.999995 c 72.64865,0 83.03125,10.356615 83.03125,82.937505 v 58.125 c 0,72.58059 -10.3826,82.9375 -83.03125,82.9375 h -73.9375 C 42.382606,270 32.000006,259.64309 32.000006,187.0625 v -58.125 c 0,-72.58089 10.3826,-82.937505 83.031254,-82.937505 z"
           id="path4565"
           inkscape:connector-curvature="0"
           sodipodi:nodetypes="sssssssss" />
        <path
           sodipodi:nodetypes="sssssssss"
           inkscape:connector-curvature="0"
           id="path4558"
           d="m 188.96876,43.999995 c 72.64865,0 83.03125,10.356615 83.03125,82.937505 v 58.125 c 0,72.58059 -10.3826,82.9375 -83.03125,82.9375 h -73.9375 C 42.382606,268 32.000006,257.64309 32.000006,185.0625 v -58.125 c 0,-72.58089 10.3826,-82.937505 83.031254,-82.937505 z"
           style="display:inline;opacity:0.5;fill:#000000;fill-opacity:1;stroke:#000000;stroke-width:4;stroke-linecap:round;stroke-linejoin:round;stroke-miterlimit:4;stroke-dasharray:none;stroke-dashoffset:0;stroke-opacity:1;enable-background:new" />
        <path
           sodipodi:nodetypes="sssssssss"
           inkscape:connector-curvature="0"
           id="path4567"
           d="m 188.96876,43.999995 c 72.64865,0 83.03125,10.356615 83.03125,82.937505 v 58.125 c 0,72.58059 -10.3826,82.9375 -83.03125,82.9375 h -73.9375 C 42.382606,268 32.000006,257.64309 32.000006,185.0625 v -58.125 c 0,-72.58089 10.3826,-82.937505 83.031254,-82.937505 z"
           style="display:inline;opacity:0.5;fill:#000000;fill-opacity:1;stroke:none;stroke-width:2;stroke-linecap:round;stroke-linejoin:round;stroke-miterlimit:4;stroke-dasharray:none;stroke-dashoffset:0;stroke-opacity:1;filter:url(#filter4569);enable-background:new" />
        <path
           sodipodi:nodetypes="sssssssss"
           inkscape:connector-curvature="0"
           id="path4573"
           d="m 188.96876,45.999995 c 72.64865,0 83.03125,10.356615 83.03125,82.937505 v 58.125 c 0,72.58059 -10.3826,82.9375 -83.03125,82.9375 h -73.9375 C 42.382606,270 32.000006,259.64309 32.000006,187.0625 v -58.125 c 0,-72.58089 10.3826,-82.937505 83.031254,-82.937505 z"
           style="display:inline;opacity:0.2;fill:#000000;fill-opacity:1;stroke:none;stroke-width:2;stroke-linecap:round;stroke-linejoin:round;stroke-miterlimit:4;stroke-dasharray:none;stroke-dashoffset:0;stroke-opacity:1;filter:url(#filter4575);enable-background:new" />
      </g>
      <g
         inkscape:groupmode="layer"
         id="layer11"
         inkscape:label="Background"
         style="display:inline">
        <path
           style="display:inline;opacity:1;fill:url(#linearGradient878-3);fill-opacity:1;stroke:none;stroke-width:2;stroke-linecap:round;stroke-linejoin:round;stroke-miterlimit:4;stroke-dasharray:none;stroke-dashoffset:0;stroke-opacity:1;enable-background:new"
           d="M 188.96875,44.000002 C 261.61739,43.999999 272,54.356621 272,126.93749 V 185.0625 C 271.99999,257.64309 261.61739,268 188.96875,268 h -73.9375 C 42.38261,268.00001 32,257.64309 32.00001,185.0625 L 32,126.93749 C 32,54.356619 42.38261,43.999996 115.03126,44 Z"
           id="rect877-7-3"
           inkscape:connector-curvature="0"
           sodipodi:nodetypes="sssssssss" />
        <g
           id="g1027"
           style="display:inline;enable-background:new;fill:#ffffff"
           transform="matrix(0,-1.999209,-2,0,938.72443,935.65842)">
          <path
             id="path1017"
             d="m 432.98828,391.36222 -1.00039,4 h -13.99335 v -4 z m -71.0159,0 v 3.99999 l -14.01774,10e-6 v -4 z"
             style="color:#000000;display:inline;overflow:visible;visibility:visible;fill:#ffffff;fill-opacity:1;fill-rule:nonzero;stroke:none;stroke-width:6;marker:none;enable-background:accumulate"
             inkscape:connector-curvature="0"
             sodipodi:nodetypes="cccccccccc"
             inkscape:transform-center-y="0.012190639" />
          <path
             style="color:#000000;font-style:normal;font-variant:normal;font-weight:normal;font-stretch:normal;font-size:medium;line-height:normal;font-family:sans-serif;font-variant-ligatures:normal;font-variant-position:normal;font-variant-caps:normal;font-variant-numeric:normal;font-variant-alternates:normal;font-feature-settings:normal;text-indent:0;text-align:start;text-decoration:none;text-decoration-line:none;text-decoration-style:solid;text-decoration-color:#000000;letter-spacing:normal;word-spacing:normal;text-transform:none;writing-mode:lr-tb;direction:ltr;text-orientation:mixed;dominant-baseline:auto;baseline-shift:baseline;text-anchor:start;white-space:normal;shape-padding:0;clip-rule:nonzero;display:inline;overflow:visible;visibility:visible;opacity:1;isolation:auto;mix-blend-mode:normal;color-interpolation:sRGB;color-interpolation-filters:linearRGB;solid-color:#000000;solid-opacity:1;vector-effect:none;fill:#ffffff;fill-opacity:1;fill-rule:nonzero;stroke:none;stroke-width:8.00000095;stroke-linecap:butt;stroke-linejoin:miter;stroke-miterlimit:4;stroke-dasharray:none;stroke-dashoffset:0;stroke-opacity:1;marker:none;color-rendering:auto;image-rendering:auto;shape-rendering:auto;text-rendering:auto;enable-background:accumulate"
             d="M 152.00195 112 C 127.74797 112 108.00195 131.74664 108.00195 155.99805 C 108.00195 180.24947 127.74797 200 152.00195 200 C 176.25593 200 196.00195 180.24947 196.00195 155.99805 C 196.00195 131.74664 176.25593 112 152.00195 112 z M 152 120 L 152 192 C 132.07301 191.99894 116.00195 175.92787 116.00195 155.99805 C 116.00195 136.06825 132.07301 120.00106 152 120 z "
             transform="matrix(0,-0.5,-0.50019783,0,468.01431,469.36221)"
             id="ellipse1019" />
          <path
             inkscape:transform-center-y="0.0086220509"
             sodipodi:nodetypes="cccccccccc"
             inkscape:connector-curvature="0"
             style="color:#000000;display:inline;overflow:visible;visibility:visible;fill:#ffffff;fill-opacity:1;fill-rule:nonzero;stroke:none;stroke-width:6;marker:none;enable-background:accumulate"
             d="m 418.2703,362.25814 2.82955,2.82842 -9.89479,9.89088 -2.82955,-2.82842 z m -49.50844,49.48886 2.82954,2.82842 -9.91203,9.90812 -2.82955,-2.82842 z"
             id="path1021"
             inkscape:transform-center-x="0.0086200001" />
          <path
             inkscape:transform-center-x="0.01219"
             id="path1023"
             d="m 387.98267,351.37441 4.00158,-1e-5 v 13.98782 h -4.00158 z m 0,69.98782 4.00157,-1e-5 10e-6,14.0122 h -4.00158 z"
             style="color:#000000;display:inline;overflow:visible;visibility:visible;fill:#ffffff;fill-opacity:1;fill-rule:nonzero;stroke:none;stroke-width:6;marker:none;enable-background:accumulate"
             inkscape:connector-curvature="0"
             sodipodi:nodetypes="cccccccccc" />
          <path
             sodipodi:nodetypes="cccccccccc"
             inkscape:connector-curvature="0"
             style="color:#000000;display:inline;overflow:visible;visibility:visible;fill:#ffffff;fill-opacity:1;fill-rule:nonzero;stroke:none;stroke-width:6;marker:none;enable-background:accumulate"
             d="m 358.86708,365.08657 2.82953,-2.82843 9.8948,9.89088 -2.82955,2.82842 z m 49.50844,49.48886 2.82953,-2.82843 9.91205,9.90812 -2.82955,2.82842 z"
             id="path1025"
             inkscape:transform-center-x="0.00862"
             inkscape:transform-center-y="-0.0086265869" />
        </g>
        <path
           style="display:inline;opacity:0.05;fill:#000000;fill-opacity:1;stroke:none;stroke-width:2;stroke-linecap:round;stroke-linejoin:round;stroke-miterlimit:4;stroke-dasharray:none;stroke-dashoffset:0;stroke-opacity:1;enable-background:new"
           d="M 152.00002,44 V 268 H 115.03127 C 42.382632,268 32.000032,257.64309 32.000022,185.0625 v -58.125 c 0,-72.580876 10.38261,-82.937503 83.031248,-82.9375 z"
           id="path1050"
           inkscape:connector-curvature="0" />
      </g>
      <g
         inkscape:groupmode="layer"
         id="layer9"
         inkscape:label="Highlights"
         style="display:inline"
         sodipodi:insensitive="true">
        <path
           sodipodi:nodetypes="sssssssss"
           inkscape:connector-curvature="0"
           id="path1068"
           d="M 361.9375,-212 C 507.2348,-212 528,-191.28677 528,-46.125 V 70.125 C 528,215.28618 507.2348,236 361.9375,236 H 214.0625 C 68.7652,236 48,215.28618 48,70.125 V -46.125 C 48,-191.28677 68.7652,-212 214.0625,-212 Z"
           style="display:inline;opacity:0.5;fill:none;fill-opacity:1;stroke:url(#linearGradient1108);stroke-width:8;stroke-linecap:round;stroke-linejoin:round;stroke-miterlimit:4;stroke-dasharray:none;stroke-dashoffset:0;stroke-opacity:1;enable-background:new"
           clip-path="url(#clipPath1082)"
           transform="matrix(0.5,0,0,0.5,8,150)" />
      </g>
    </g>
  </g>
</svg>
