<?xml version="1.0" encoding="UTF-8" standalone="no"?>
<!-- Created with Inkscape (http://www.inkscape.org/) -->

<svg
   xmlns:dc="http://purl.org/dc/elements/1.1/"
   xmlns:cc="http://creativecommons.org/ns#"
   xmlns:rdf="http://www.w3.org/1999/02/22-rdf-syntax-ns#"
   xmlns:svg="http://www.w3.org/2000/svg"
   xmlns="http://www.w3.org/2000/svg"
   xmlns:xlink="http://www.w3.org/1999/xlink"
   xmlns:sodipodi="http://sodipodi.sourceforge.net/DTD/sodipodi-0.dtd"
   xmlns:inkscape="http://www.inkscape.org/namespaces/inkscape"
   inkscape:export-ydpi="90.000000"
   inkscape:export-xdpi="90.000000"
   width="400"
   height="300"
   id="svg11300"
   sodipodi:version="0.32"
   inkscape:version="0.92.2 (unknown)"
   sodipodi:docname="preferences-system-notifications.svg"
   inkscape:output_extension="org.inkscape.output.svg.inkscape"
   version="1.0"
   style="display:inline;enable-background:new"
   inkscape:export-filename="/home/sam/paper-template.png">
  <title
     id="title3004">Paper Icon Theme Template</title>
  <sodipodi:namedview
     stroke="#ef2929"
     fill="#f57900"
     id="base"
     pagecolor="#ffffff"
     bordercolor="#000000"
     borderopacity="0.25490196"
     inkscape:pageopacity="0"
     inkscape:pageshadow="2"
     inkscape:zoom="1"
     inkscape:cx="217.44076"
     inkscape:cy="99.630785"
     inkscape:current-layer="layer11"
     showgrid="false"
     inkscape:grid-bbox="true"
     inkscape:document-units="px"
     inkscape:showpageshadow="false"
     inkscape:window-width="1920"
     inkscape:window-height="1016"
     inkscape:window-x="0"
     inkscape:window-y="27"
     width="400px"
     height="300px"
     inkscape:snap-nodes="true"
     inkscape:snap-bbox="true"
     gridtolerance="10000"
     inkscape:object-nodes="true"
     inkscape:snap-grids="true"
     showguides="true"
     inkscape:guide-bbox="true"
     inkscape:window-maximized="1"
     inkscape:bbox-paths="true"
     inkscape:snap-bbox-midpoints="true"
     inkscape:snap-global="true"
     inkscape:object-paths="true"
     inkscape:snap-intersection-paths="true"
     inkscape:snap-smooth-nodes="true"
     inkscape:pagecheckerboard="false"
     showborder="false">
    <inkscape:grid
       spacingy="1"
       spacingx="1"
       id="grid5883"
       type="xygrid"
       enabled="true"
       visible="true"
       empspacing="4"
       snapvisiblegridlinesonly="true"
       originx="0"
       originy="0" />
    <inkscape:grid
       type="xygrid"
       id="grid11592"
       empspacing="2"
       visible="true"
       enabled="false"
       spacingx="0.5"
       spacingy="0.5"
       color="#ff0000"
       opacity="0.1254902"
       empcolor="#ff0000"
       empopacity="0.25098039"
       snapvisiblegridlinesonly="true"
       originx="0"
       originy="0" />
  </sodipodi:namedview>
  <defs
     id="defs3">
    <linearGradient
       inkscape:collect="always"
       id="linearGradient927">
      <stop
         style="stop-color:#ffffff;stop-opacity:1;"
         offset="0"
         id="stop923" />
      <stop
         id="stop933"
         offset="0.125"
         style="stop-color:#ffffff;stop-opacity:0.09803922" />
      <stop
         id="stop931"
         offset="0.92500001"
         style="stop-color:#ffffff;stop-opacity:0.09803922" />
      <stop
         style="stop-color:#ffffff;stop-opacity:0.49803922"
         offset="1"
         id="stop925" />
    </linearGradient>
    <clipPath
       clipPathUnits="userSpaceOnUse"
       id="clipPath9430">
      <path
         sodipodi:nodetypes="sssssssss"
         inkscape:connector-curvature="0"
         id="path9432"
         d="m 166.0625,-196 h 179.875 C 491.2348,-196 512,-175.28677 512,-30.125 v 148.25 C 512,263.28618 491.2348,284 345.9375,284 H 166.0625 C 20.7652,284 0,263.28618 0,118.125 V -30.125 C 0,-175.28677 20.7652,-196 166.0625,-196 Z"
         style="color:#000000;display:inline;overflow:visible;visibility:visible;fill:#ffffff;fill-opacity:1;fill-rule:nonzero;stroke:none;stroke-width:1;marker:none;enable-background:new" />
    </clipPath>
    <clipPath
       clipPathUnits="userSpaceOnUse"
       id="clipPath1082">
      <path
         sodipodi:nodetypes="sssssssss"
         inkscape:connector-curvature="0"
         id="path1084"
         d="M 361.9375,-212 C 507.2348,-212 528,-191.28677 528,-46.125 V 70.125 C 528,215.28618 507.2348,236 361.9375,236 H 214.0625 C 68.7652,236 48,215.28618 48,70.125 V -46.125 C 48,-191.28677 68.7652,-212 214.0625,-212 Z"
         style="display:inline;opacity:1;fill:#8c59d9;fill-opacity:1;stroke:none;stroke-width:2;stroke-linecap:round;stroke-linejoin:round;stroke-miterlimit:4;stroke-dasharray:none;stroke-dashoffset:0;stroke-opacity:1;enable-background:new" />
    </clipPath>
    <linearGradient
       inkscape:collect="always"
       xlink:href="#linearGradient927"
       id="linearGradient1108"
       x1="296"
       y1="-212"
       x2="296"
       y2="236"
       gradientUnits="userSpaceOnUse" />
    <filter
       inkscape:collect="always"
       style="color-interpolation-filters:sRGB"
       id="filter4560"
       x="-0.0232"
       width="1.0464"
       y="-0.024857143"
       height="1.0497143">
      <feGaussianBlur
         inkscape:collect="always"
         stdDeviation="2.32"
         id="feGaussianBlur4562" />
    </filter>
    <filter
       inkscape:collect="always"
       style="color-interpolation-filters:sRGB"
       id="filter4569"
       x="-0.0116"
       width="1.0232"
       y="-0.012428571"
       height="1.024857">
      <feGaussianBlur
         inkscape:collect="always"
         stdDeviation="1.16"
         id="feGaussianBlur4571" />
    </filter>
    <filter
       inkscape:collect="always"
       style="color-interpolation-filters:sRGB"
       id="filter4575"
       x="-0.058"
       width="1.116"
       y="-0.062142857"
       height="1.1242857">
      <feGaussianBlur
         inkscape:collect="always"
         stdDeviation="5.8000001"
         id="feGaussianBlur4577" />
    </filter>
    <linearGradient
       inkscape:collect="always"
       xlink:href="#linearGradient916"
       id="linearGradient878"
       x1="5.1487508"
       y1="154.35387"
       x2="306.85126"
       y2="143.78981"
       gradientUnits="userSpaceOnUse"
       gradientTransform="rotate(60,152.00004,156.00002)" />
    <linearGradient
       inkscape:collect="always"
       id="linearGradient916">
      <stop
         style="stop-color:#f22c42;stop-opacity:1"
         offset="0"
         id="stop912" />
      <stop
         style="stop-color:#f76363;stop-opacity:1"
         offset="1"
         id="stop914" />
    </linearGradient>
  </defs>
  <metadata
     id="metadata4">
    <rdf:RDF>
      <cc:Work
         rdf:about="">
        <dc:format>image/svg+xml</dc:format>
        <dc:type
           rdf:resource="http://purl.org/dc/dcmitype/StillImage" />
        <dc:creator>
          <cc:Agent>
            <dc:title>Sam Hewitt</dc:title>
          </cc:Agent>
        </dc:creator>
        <dc:source />
        <cc:license
           rdf:resource="http://creativecommons.org/licenses/by-sa/4.0/" />
        <dc:title>Paper Icon Theme Template</dc:title>
        <dc:subject>
          <rdf:Bag />
        </dc:subject>
        <dc:date />
        <dc:rights>
          <cc:Agent>
            <dc:title />
          </cc:Agent>
        </dc:rights>
        <dc:publisher>
          <cc:Agent>
            <dc:title />
          </cc:Agent>
        </dc:publisher>
        <dc:identifier />
        <dc:relation />
        <dc:language />
        <dc:coverage />
        <dc:description />
        <dc:contributor>
          <cc:Agent>
            <dc:title />
          </cc:Agent>
        </dc:contributor>
      </cc:Work>
      <cc:Work
         rdf:about="">
        <dc:format>image/svg+xml</dc:format>
        <dc:type
           rdf:resource="http://purl.org/dc/dcmitype/StillImage" />
      </cc:Work>
      <cc:License
         rdf:about="http://creativecommons.org/licenses/by-sa/4.0/">
        <cc:permits
           rdf:resource="http://creativecommons.org/ns#Reproduction" />
        <cc:permits
           rdf:resource="http://creativecommons.org/ns#Distribution" />
        <cc:requires
           rdf:resource="http://creativecommons.org/ns#Notice" />
        <cc:requires
           rdf:resource="http://creativecommons.org/ns#Attribution" />
        <cc:permits
           rdf:resource="http://creativecommons.org/ns#DerivativeWorks" />
        <cc:requires
           rdf:resource="http://creativecommons.org/ns#ShareAlike" />
      </cc:License>
    </rdf:RDF>
  </metadata>
  <g
     style="display:inline"
     inkscape:groupmode="layer"
     inkscape:label="Icon"
     id="layer1">
    <g
       style="display:none"
       inkscape:label="Baseplate"
       id="layer7"
       inkscape:groupmode="layer">
      <text
         y="-8.2548828"
         xml:space="preserve"
         x="19.006836"
         style="font-style:normal;font-variant:normal;font-weight:normal;font-stretch:normal;line-height:0%;font-family:'DejaVu Sans';-inkscape-font-specification:'DejaVu Sans';display:inline;fill:#000000;fill-opacity:1;stroke:none;enable-background:new"
         inkscape:label="context"
         id="context"><tspan
           style="font-style:normal;font-variant:normal;font-weight:normal;font-stretch:normal;font-size:18px;line-height:1.25;font-family:'DejaVu Sans';-inkscape-font-specification:'DejaVu Sans'"
           y="-8.2548828"
           x="19.006836"
           sodipodi:role="line"
           id="tspan3933">categories</tspan></text>
      <text
         y="-8.2548828"
         xml:space="preserve"
         x="146.48828"
         style="font-style:normal;font-variant:normal;font-weight:bold;font-stretch:normal;line-height:0%;font-family:'DejaVu Sans';-inkscape-font-specification:'DejaVu Sans Bold';text-align:start;writing-mode:lr-tb;text-anchor:start;display:inline;fill:#000000;fill-opacity:1;stroke:none;enable-background:new"
         inkscape:label="icon-name"
         id="icon-name"><tspan
           style="font-style:normal;font-variant:normal;font-weight:bold;font-stretch:normal;font-size:18px;line-height:1.25;font-family:'DejaVu Sans';-inkscape-font-specification:'DejaVu Sans Bold'"
           y="-8.2548828"
           x="146.48828"
           sodipodi:role="line"
           id="tspan3937">preferences-system-notifications</tspan></text>
      <rect
         style="display:inline;overflow:visible;visibility:visible;fill:#cdcdcd;fill-opacity:1;fill-rule:nonzero;stroke:none;stroke-width:2;marker:none;enable-background:accumulate"
         id="rect16x16"
         width="16"
         height="16"
         x="320"
         y="236"
         inkscape:label="16x16" />
      <rect
         style="display:inline;overflow:visible;visibility:visible;fill:#cdcdcd;fill-opacity:1;fill-rule:nonzero;stroke:none;stroke-width:2;marker:none;enable-background:accumulate"
         id="rect24x24"
         width="24"
         height="24"
         x="320"
         y="188"
         inkscape:label="24x24" />
      <rect
         style="display:inline;overflow:visible;visibility:visible;fill:#cdcdcd;fill-opacity:1;fill-rule:nonzero;stroke:none;stroke-width:2;marker:none;enable-background:accumulate"
         id="rect32x32"
         width="32"
         height="32"
         x="320"
         y="132"
         inkscape:label="32x32" />
      <rect
         inkscape:label="48x48"
         y="60"
         x="320"
         height="48"
         width="48"
         id="rect48x48"
         style="display:inline;overflow:visible;visibility:visible;fill:#cdcdcd;fill-opacity:1;fill-rule:nonzero;stroke:none;stroke-width:2;marker:none;enable-background:accumulate" />
      <rect
         style="display:inline;overflow:visible;visibility:visible;fill:#cdcdcd;fill-opacity:1;fill-rule:nonzero;stroke:none;stroke-width:2;marker:none;enable-background:accumulate"
         id="rect3951"
         width="256"
         height="256"
         x="24"
         y="28"
         inkscape:label="48x48" />
    </g>
    <g
       inkscape:groupmode="layer"
       id="layer6"
       inkscape:label="Pictographic"
       style="display:inline">
      <g
         transform="matrix(0,-0.49980223,-0.49999998,0,540.6811,278.9146)"
         style="display:inline;enable-background:new;opacity:0.5"
         id="g840">
        <rect
           transform="scale(-1,1)"
           y="345.36221"
           x="-438.00244"
           height="96"
           width="96.037987"
           id="rect4782"
           style="color:#000000;display:inline;overflow:visible;visibility:visible;fill:none;stroke:none;stroke-width:4;marker:none;enable-background:accumulate" />
        <path
           style="font-style:normal;font-variant:normal;font-weight:normal;font-stretch:normal;font-size:15px;line-height:125%;font-family:Ubuntu;-inkscape-font-specification:Ubuntu;text-align:center;letter-spacing:0px;word-spacing:0px;writing-mode:lr-tb;text-anchor:middle;fill:#000000;fill-opacity:1;stroke:none;stroke-width:0.5"
           d="m 343.97852,62 c -0.24329,0.0027 -0.48583,0.02749 -0.72461,0.07422 h -0.006 c -0.003,5.45e-4 -0.005,0.0014 -0.008,0.002 C 341.36048,62.43985 340.00161,64.085071 340,66 c 0.002,0.664672 0.16868,1.318485 0.48633,1.902344 -0.80017,0.16678 -1.56069,0.378677 -2.25391,0.671875 -1.62571,0.687542 -2.95955,1.620184 -4,2.798828 -1.04044,1.21138 -1.9329,2.636425 -2.45312,4.273437 -0.4877,1.637002 -0.73242,3.403801 -0.73242,5.302735 v 9.751953 c 0,1.079083 -0.10111,2.067445 -0.30469,2.96289 -0.20359,0.895848 -0.56127,1.657898 -1.07031,2.289063 -0.48864,0.651518 -1.14952,1.151914 -1.98438,1.498047 -0.81359,0.357188 -1.83494,0.534717 -3.05469,0.542969 V 98 h 6.41407 25.99218 6.44141 v -0.0059 c -1.22489,-0.0082 -2.24934,-0.186219 -3.06641,-0.544922 -0.83832,-0.347598 -1.50351,-0.847662 -1.99414,-1.501953 -0.51125,-0.633859 -0.86982,-1.403075 -1.07422,-2.302735 -0.2045,-0.899269 -0.30664,-1.890938 -0.30664,-2.974609 v -9.720703 c 0,-1.898934 -0.25906,-3.665733 -0.77929,-5.302735 -0.48769,-1.637012 -1.49344,-3.062057 -2.56641,-4.273437 -1.04054,-1.178644 -2.37623,-2.111286 -4.00195,-2.798828 -0.66689,-0.287785 -1.40384,-0.496212 -2.17969,-0.66211 C 347.83162,67.325564 347.99949,66.668147 348,66 c 0,-2.209139 -1.79086,-4 -4,-4 -0.003,-4e-6 -0.007,-4e-6 -0.01,0 h -0.004 c -0.003,0 -0.005,-6e-6 -0.008,0 z m 3.11523,7.867188 c 0.69414,0.148426 1.30739,0.328373 1.80469,0.542968 l 0.008,0.0039 0.006,0.002 c 1.39007,0.587882 2.45627,1.346779 3.28125,2.28125 h 0.002 v 0.002 c 0.96791,1.092772 1.78285,2.296966 2.14649,3.517578 l 0.006,0.01758 0.006,0.01758 c 0.45247,1.423792 0.68554,2.980235 0.68554,4.697266 v 9.720703 c 0,1.209341 0.1124,2.349102 0.35547,3.417969 0.16071,0.70737 0.57041,1.288706 0.90235,1.912109 h -24.49805 c 0.3282,-0.617101 0.73497,-1.190466 0.89453,-1.892578 0.24237,-1.066083 0.3535,-2.202232 0.35352,-3.40625 V 80.94931 c 0,-1.718515 0.22115,-3.279715 0.64453,-4.708985 0.42054,-1.316279 1.15363,-2.503576 2.04882,-3.548828 0.82478,-0.932136 1.88532,-1.689157 3.27149,-2.27539 0.52828,-0.223437 1.16609,-0.407255 1.88281,-0.556641 0,0 2.05482,-0.287303 3.10645,-0.285616 1.0476,0.0017 3.09277,0.293429 3.09277,0.293429 z"
           transform="matrix(0,-2.0000001,-2.0007914,0,558.04993,1081.3622)"
           id="path4161"
           inkscape:connector-curvature="0"
           sodipodi:nodetypes="cccccccccssccccccccccccsscccccccscccccccccccsscccccsccccsccc" />
        <path
           inkscape:connector-curvature="0"
           id="path4157"
           d="m 364.0904,368.96573 c -0.0215,-0.0161 -0.0354,-0.0404 -0.0567,-0.0566 -0.0253,-0.0201 -0.057,-0.0305 -0.0821,-0.0508 z"
           style="font-style:normal;font-variant:normal;font-weight:normal;font-stretch:normal;font-size:15px;line-height:125%;font-family:Ubuntu;-inkscape-font-specification:Ubuntu;text-align:center;letter-spacing:0px;word-spacing:0px;writing-mode:lr-tb;text-anchor:middle;fill:#000000;fill-opacity:1;stroke:none" />
        <path
           inkscape:connector-curvature="0"
           id="path4344"
           d="m 364.07673,417.80167 -0.13873,0.10742 c 0.0251,-0.0203 0.0569,-0.0307 0.0821,-0.0508 0.0214,-0.0162 0.0353,-0.0405 0.0567,-0.0566 z"
           style="font-style:normal;font-variant:normal;font-weight:normal;font-stretch:normal;font-size:15px;line-height:125%;font-family:Ubuntu;-inkscape-font-specification:Ubuntu;text-align:center;letter-spacing:0px;word-spacing:0px;writing-mode:lr-tb;text-anchor:middle;fill:#000000;fill-opacity:1;stroke:none" />
        <path
           sodipodi:nodetypes="cscc"
           inkscape:connector-curvature="0"
           id="path4608"
           transform="matrix(0,-1,-1.0003957,0,438.00245,441.36222)"
           d="m 35.84375,80 c 0.07501,6.651682 5.488524,12.004476 12.140625,12.004476 6.652101,0 12.065611,-5.352794 12.140625,-12.004476 z"
           style="font-style:normal;font-variant:normal;font-weight:normal;font-stretch:normal;font-size:15px;line-height:125%;font-family:Ubuntu;-inkscape-font-specification:Ubuntu;text-align:center;letter-spacing:0px;word-spacing:0px;writing-mode:lr-tb;text-anchor:middle;fill:#000000;fill-opacity:1;stroke:none" />
      </g>
      <g
         id="g1389"
         style="display:inline;enable-background:new;opacity:0.5"
         transform="matrix(0,-0.24990112,-0.25,0,430.34056,297.4573)">
        <rect
           style="color:#000000;display:inline;overflow:visible;visibility:visible;fill:none;stroke:none;stroke-width:4;marker:none;enable-background:accumulate"
           id="rect1379"
           width="96.037987"
           height="96"
           x="-438.00244"
           y="345.36221"
           transform="scale(-1,1)" />
        <path
           inkscape:connector-curvature="0"
           style="font-style:normal;font-variant:normal;font-weight:normal;font-stretch:normal;font-size:15px;line-height:125%;font-family:Ubuntu;-inkscape-font-specification:Ubuntu;text-align:center;letter-spacing:0px;word-spacing:0px;writing-mode:lr-tb;text-anchor:middle;fill:#000000;fill-opacity:1;stroke:none;stroke-width:0.25"
           d="m 331.98828,189 c -0.12099,0.001 -0.24257,0.0139 -0.36133,0.0371 h -0.004 c -10e-4,2.7e-4 -0.002,0.002 -0.004,0.002 -0.93971,0.18182 -1.61833,1.00348 -1.61914,1.96094 10e-4,0.33234 0.0853,0.65924 0.24414,0.95117 -0.40008,0.0834 -0.79913,0.15112 -1.12695,0.33594 -1.38883,0.783 -2.20184,1.78855 -2.72852,3.13672 -0.31077,0.7955 -0.36523,2.10131 -0.36523,3.05078 v 4.875 c 0,0.53954 -0.0506,1.0347 -0.15235,1.48242 -0.10179,0.44793 -0.28063,0.82895 -0.53515,1.14453 -0.24432,0.32576 -0.57476,0.57498 -0.99219,0.74805 -0.4068,0.17859 -0.91747,0.26736 -1.52734,0.27148 V 207 h 3.20703 5.97656 5.97656 3.20703 v -0.004 c -0.60987,-0.004 -1.12054,-0.0929 -1.52734,-0.27148 -0.41743,-0.17307 -0.74787,-0.42229 -0.99219,-0.74805 -0.25452,-0.31558 -0.43336,-0.6966 -0.53515,-1.14453 -0.10179,-0.44772 -0.15235,-0.94288 -0.15235,-1.48242 v -4.875 c 0,-0.94947 -0.0545,-2.25528 -0.36523,-3.05078 -0.52668,-1.34817 -1.33969,-2.35372 -2.72852,-3.13672 -0.32782,-0.18482 -0.72687,-0.25255 -1.12695,-0.33594 C 333.91468,191.65924 333.999,191.33234 334,191 c -8.1e-4,-0.95746 -0.67943,-1.77912 -1.61914,-1.96094 -10e-4,-2.5e-4 -0.002,-0.002 -0.004,-0.002 h -0.004 c -0.11876,-0.0232 -0.24034,-0.0356 -0.36133,-0.0371 h -0.002 -0.002 -0.002 -0.006 -0.006 -0.002 -0.002 z m 0.0625,3.77148 c 0.42958,-0.006 1.53125,0.16407 1.53125,0.16407 0.0101,0.002 0.16687,0.0328 0.36914,0.084 0.20862,0.0528 0.47874,0.15972 0.44141,0.13867 1.21521,0.68512 1.82602,1.44865 2.28711,2.62891 0.19021,0.48696 0.29687,1.7763 0.29687,2.6875 v 4.875 c 0,0.60201 0.0565,1.16978 0.17774,1.70312 0.0798,0.35126 0.28108,0.63858 0.44531,0.94727 H 332 326.40039 c 0.16423,-0.30869 0.36549,-0.59601 0.44531,-0.94727 0.12119,-0.53322 0.17774,-1.10106 0.17774,-1.70312 v -4.875 c 0,-0.91123 0.10666,-2.2006 0.29687,-2.6875 0.46109,-1.18026 1.0719,-1.94379 2.28711,-2.62891 -0.0373,0.021 0.23279,-0.0859 0.44141,-0.13867 0.19571,-0.0495 0.33788,-0.0763 0.35742,-0.0801 0.0386,-0.005 1.2896,-0.16278 1.64453,-0.16797 z m -5.91406,13.80469 -0.0215,0.0274 c 0.004,-0.005 0.004,-0.0126 0.008,-0.0176 0.003,-0.005 0.0103,-0.005 0.0137,-0.01 z m 11.72656,0 c 0.003,0.005 0.0103,0.005 0.0137,0.01 0.004,0.005 0.004,0.0126 0.008,0.0176 z"
           transform="matrix(0,-4,-4.0015827,0,1190.3,1721.3622)"
           id="path1381" />
        <path
           style="font-style:normal;font-variant:normal;font-weight:normal;font-stretch:normal;font-size:15px;line-height:125%;font-family:Ubuntu;-inkscape-font-specification:Ubuntu;text-align:center;letter-spacing:0px;word-spacing:0px;writing-mode:lr-tb;text-anchor:middle;fill:#000000;fill-opacity:1;stroke:none"
           d="m 364.0904,368.96573 c -0.0215,-0.0161 -0.0354,-0.0404 -0.0567,-0.0566 -0.0253,-0.0201 -0.057,-0.0305 -0.0821,-0.0508 z"
           id="path1383"
           inkscape:connector-curvature="0" />
        <path
           style="font-style:normal;font-variant:normal;font-weight:normal;font-stretch:normal;font-size:15px;line-height:125%;font-family:Ubuntu;-inkscape-font-specification:Ubuntu;text-align:center;letter-spacing:0px;word-spacing:0px;writing-mode:lr-tb;text-anchor:middle;fill:#000000;fill-opacity:1;stroke:none"
           d="m 364.07673,417.80167 -0.13873,0.10742 c 0.0251,-0.0203 0.0569,-0.0307 0.0821,-0.0508 0.0214,-0.0162 0.0353,-0.0405 0.0567,-0.0566 z"
           id="path1385"
           inkscape:connector-curvature="0" />
        <path
           style="font-style:normal;font-variant:normal;font-weight:normal;font-stretch:normal;font-size:15px;line-height:125%;font-family:Ubuntu;-inkscape-font-specification:Ubuntu;text-align:center;letter-spacing:0px;word-spacing:0px;writing-mode:lr-tb;text-anchor:middle;fill:#000000;fill-opacity:1;stroke:none"
           d="m 35.84375,80 c 0.07501,6.651682 5.488524,12.004476 12.140625,12.004476 6.652101,0 12.065611,-5.352794 12.140625,-12.004476 z"
           transform="matrix(0,-1,-1.0003957,0,438.00245,441.36222)"
           id="path1387"
           inkscape:connector-curvature="0"
           sodipodi:nodetypes="cscc" />
      </g>
    </g>
    <g
       inkscape:groupmode="layer"
       id="layer8"
       inkscape:label="Fullcolor">
      <g
         inkscape:groupmode="layer"
         id="layer10"
         inkscape:label="Shadow"
         style="display:inline"
         sodipodi:insensitive="true">
        <path
           style="display:inline;opacity:0.5;fill:#000000;fill-opacity:1;stroke:none;stroke-width:2;stroke-linecap:round;stroke-linejoin:round;stroke-miterlimit:4;stroke-dasharray:none;stroke-dashoffset:0;stroke-opacity:1;filter:url(#filter4560);enable-background:new"
           d="m 188.96876,45.999995 c 72.64865,0 83.03125,10.356615 83.03125,82.937505 v 58.125 c 0,72.58059 -10.3826,82.9375 -83.03125,82.9375 h -73.9375 C 42.382606,270 32.000006,259.64309 32.000006,187.0625 v -58.125 c 0,-72.58089 10.3826,-82.937505 83.031254,-82.937505 z"
           id="path4565"
           inkscape:connector-curvature="0"
           sodipodi:nodetypes="sssssssss" />
        <path
           sodipodi:nodetypes="sssssssss"
           inkscape:connector-curvature="0"
           id="path4558"
           d="m 188.96876,43.999995 c 72.64865,0 83.03125,10.356615 83.03125,82.937505 v 58.125 c 0,72.58059 -10.3826,82.9375 -83.03125,82.9375 h -73.9375 C 42.382606,268 32.000006,257.64309 32.000006,185.0625 v -58.125 c 0,-72.58089 10.3826,-82.937505 83.031254,-82.937505 z"
           style="display:inline;opacity:0.5;fill:#000000;fill-opacity:1;stroke:#000000;stroke-width:4;stroke-linecap:round;stroke-linejoin:round;stroke-miterlimit:4;stroke-dasharray:none;stroke-dashoffset:0;stroke-opacity:1;enable-background:new" />
        <path
           sodipodi:nodetypes="sssssssss"
           inkscape:connector-curvature="0"
           id="path4567"
           d="m 188.96876,43.999995 c 72.64865,0 83.03125,10.356615 83.03125,82.937505 v 58.125 c 0,72.58059 -10.3826,82.9375 -83.03125,82.9375 h -73.9375 C 42.382606,268 32.000006,257.64309 32.000006,185.0625 v -58.125 c 0,-72.58089 10.3826,-82.937505 83.031254,-82.937505 z"
           style="display:inline;opacity:0.5;fill:#000000;fill-opacity:1;stroke:none;stroke-width:2;stroke-linecap:round;stroke-linejoin:round;stroke-miterlimit:4;stroke-dasharray:none;stroke-dashoffset:0;stroke-opacity:1;filter:url(#filter4569);enable-background:new" />
        <path
           sodipodi:nodetypes="sssssssss"
           inkscape:connector-curvature="0"
           id="path4573"
           d="m 188.96876,45.999995 c 72.64865,0 83.03125,10.356615 83.03125,82.937505 v 58.125 c 0,72.58059 -10.3826,82.9375 -83.03125,82.9375 h -73.9375 C 42.382606,270 32.000006,259.64309 32.000006,187.0625 v -58.125 c 0,-72.58089 10.3826,-82.937505 83.031254,-82.937505 z"
           style="display:inline;opacity:0.2;fill:#000000;fill-opacity:1;stroke:none;stroke-width:2;stroke-linecap:round;stroke-linejoin:round;stroke-miterlimit:4;stroke-dasharray:none;stroke-dashoffset:0;stroke-opacity:1;filter:url(#filter4575);enable-background:new" />
      </g>
      <g
         inkscape:groupmode="layer"
         id="layer11"
         inkscape:label="Background"
         style="display:inline">
        <path
           style="display:inline;opacity:1;fill:url(#linearGradient878);fill-opacity:1;stroke:none;stroke-width:2;stroke-linecap:round;stroke-linejoin:round;stroke-miterlimit:4;stroke-dasharray:none;stroke-dashoffset:0;stroke-opacity:1;enable-background:new"
           d="M 188.96875,44 C 261.61739,43.999997 272,54.356619 272,126.93749 V 185.0625 C 271.99999,257.64309 261.61739,268 188.96875,268 h -73.9375 c -72.648638,10e-6 -83.031248,-10.35691 -83.031238,-82.9375 l -10e-6,-58.12501 c 0,-72.580873 10.38261,-82.937496 83.031258,-82.937492 z"
           id="rect877-7"
           inkscape:connector-curvature="0"
           sodipodi:nodetypes="sssssssss" />
        <path
           style="font-style:normal;font-variant:normal;font-weight:normal;font-stretch:normal;font-size:15px;line-height:125%;font-family:Ubuntu;-inkscape-font-specification:Ubuntu;text-align:center;letter-spacing:0px;word-spacing:0px;writing-mode:lr-tb;text-anchor:middle;fill:#ffffff;fill-opacity:1;stroke:none;stroke-width:0.25"
           d="m 152,68 a 16,16 0 0 0 -16,16 16,16 0 0 0 1.30469,6.283203 C 117.94641,96.463531 104,114.53951 104,136 v 24 27.43164 c -0.18924,2.54869 -0.52092,4.97045 -1.0332,7.22461 -0.81432,3.58344 -2.24509,6.63161 -4.28125,9.15625 -1.95456,2.60608 -4.598063,4.59982 -7.937503,5.98438 -3.2544,1.42868 -7.33979,2.13891 -12.21875,2.17187 V 212 H 104 h 96 25.4668 v -0.0312 c -4.87896,-0.032 -8.96435,-0.74327 -12.21875,-2.17187 -3.33944,-1.38456 -5.98294,-3.3783 -7.9375,-5.98438 -2.03616,-2.52464 -3.46693,-5.57281 -4.28125,-9.15625 -0.50987,-2.24263 -0.83946,-4.65135 -1.0293,-7.18555 V 144 136 C 200,114.54452 186.06022,96.47155 166.70898,90.287109 A 16,16 0 0 0 168,84 16,16 0 0 0 152,68 Z m 0,28 a 40,40 0 0 1 10.98438,1.574219 c 0.0611,0.0033 0.13843,0.0021 0.25976,0.0059 l 1.0293,0.328125 c 15.23358,4.868476 26.44662,18.509516 27.61914,35.193356 a 40,40 0 0 1 0.0137,0.22852 C 191.96331,134.21263 192,135.10141 192,136 v 8 43.76953 l 0.0215,0.29883 c 0.21316,2.84547 0.58786,5.63791 1.20704,8.36133 0.61052,2.68661 1.62388,5.19171 2.85156,7.57031 h -88.16406 c 1.22768,-2.3786 2.24104,-4.8837 2.85156,-7.57031 0.62132,-2.73394 0.9983,-5.54239 1.21094,-8.40625 L 112,187.72852 V 160 136 c 0,-1.32844 0.0709,-2.63813 0.19531,-3.92969 a 40,40 0 0 1 0.0137,-0.12304 c 0.81896,-8.23972 4.10604,-15.66756 9.11133,-21.60157 a 40,40 0 0 1 0.23633,-0.27734 c 0.70464,-0.82002 1.44232,-1.61142 2.21094,-2.37109 a 40,40 0 0 1 0.92969,-0.88868 c 0.55268,-0.51212 1.11598,-1.01162 1.69726,-1.49218 a 40,40 0 0 1 2.14844,-1.65625 c 0.0742,-0.0534 0.14804,-0.1073 0.22265,-0.16016 A 40,40 0 0 1 152,96 Z m -24.3125,124 c 0.15002,13.30337 10.97705,24.00977 24.28125,24.00977 13.3042,0 24.13122,-10.7064 24.28125,-24.00977 z"
           id="path906"
           inkscape:connector-curvature="0" />
        <path
           style="font-style:normal;font-variant:normal;font-weight:normal;font-stretch:normal;font-size:15px;line-height:125%;font-family:Ubuntu;-inkscape-font-specification:Ubuntu;text-align:center;letter-spacing:0px;word-spacing:0px;writing-mode:lr-tb;text-anchor:middle;fill:#000000;fill-opacity:1;stroke:none;stroke-width:0.24995056"
           d="m 200.79294,207.76562 c 0.0322,0.043 0.0808,0.0708 0.1132,0.11336 0.0402,0.0506 0.061,0.11395 0.1016,0.16413 z"
           id="path908"
           inkscape:connector-curvature="0" />
        <path
           style="display:inline;opacity:0.05;fill:#000000;fill-opacity:1;stroke:none;stroke-width:2;stroke-linecap:round;stroke-linejoin:round;stroke-miterlimit:4;stroke-dasharray:none;stroke-dashoffset:0;stroke-opacity:1;enable-background:new"
           d="M 152,44 V 268 H 115.03125 C 42.382612,268 32.000012,257.64309 32.000002,185.0625 v -58.125 c 0,-72.580871 10.38261,-82.937503 83.031248,-82.9375 z"
           id="path993"
           inkscape:connector-curvature="0" />
      </g>
      <g
         inkscape:groupmode="layer"
         id="layer9"
         inkscape:label="Highlights"
         style="display:inline"
         sodipodi:insensitive="true">
        <path
           sodipodi:nodetypes="sssssssss"
           inkscape:connector-curvature="0"
           id="path1068"
           d="M 361.9375,-212 C 507.2348,-212 528,-191.28677 528,-46.125 V 70.125 C 528,215.28618 507.2348,236 361.9375,236 H 214.0625 C 68.7652,236 48,215.28618 48,70.125 V -46.125 C 48,-191.28677 68.7652,-212 214.0625,-212 Z"
           style="display:inline;opacity:0.5;fill:none;fill-opacity:1;stroke:url(#linearGradient1108);stroke-width:8;stroke-linecap:round;stroke-linejoin:round;stroke-miterlimit:4;stroke-dasharray:none;stroke-dashoffset:0;stroke-opacity:1;enable-background:new"
           clip-path="url(#clipPath1082)"
           transform="matrix(0.5,0,0,0.5,8,150)" />
      </g>
    </g>
  </g>
</svg>
