<svg version="1.1" viewBox="0 0 24 24" xmlns="http://www.w3.org/2000/svg">
 <path d="m20.725 3-17.369 17.369 0.62797 0.63064 4.3276-4.3263 4.0417 4.2328v-8.2745l3.0891-3.0904c0.62396 0.72417 0.98471 1.6394 0.98471 2.6014 0 1.0635-0.42221 2.083-1.1758 2.8352l-0.47164 0.47164 0.94463 0.94463 0.47298-0.47164a5.3444 5.3444 0 0 0 1.5659-3.7798c0-1.3161-0.50371-2.5693-1.3762-3.546l1.8999-1.8999a8.0086 8.0086 0 0 1 2.1485 5.446 8.0153 8.0153 0 0 1-2.3489 5.6691l-0.47298 0.47164 0.94463 0.94463 0.47298-0.47164a9.3527 9.3527 0 0 0 2.739-6.6137 9.3447 9.3447 0 0 0-2.5386-6.3906l2.1217-2.1217zm-8.372 0.093534-4.6764 4.8982h-3.5126s-1.1637 1.1945-1.1637 4.011 1.1637 4.0056 1.1637 4.0056h1.8999l6.289-6.289z" fill="#da1636" stroke-width="1.3361"/>
</svg>
