<svg viewBox="0 0 24 24" xmlns="http://www.w3.org/2000/svg"><g fill="#F9F9F9" color="#000"><path d="m768.34-302.07.707.707-.353.354a2.999 2.999 0 0 0 0 4.242l.353.353-.707.707-.354-.353a4 4 0 0 1 0-5.656z" style="font-feature-settings:normal;font-variant-alternates:normal;font-variant-caps:normal;font-variant-ligatures:normal;font-variant-numeric:normal;font-variant-position:normal;isolation:auto;mix-blend-mode:normal;shape-padding:0;text-decoration-color:#000;text-decoration-line:none;text-decoration-style:solid;text-indent:0;text-orientation:mixed;text-transform:none;white-space:normal" transform="translate(-841.51 347.31) scale(1.1215)"/><path d="m766.22-304.2.707.707-.353.354a5.999 5.999 0 0 0 0 8.484l.353.353-.707.707-.354-.353a7 7 0 0 1 0-9.898z" style="font-feature-settings:normal;font-variant-alternates:normal;font-variant-caps:normal;font-variant-ligatures:normal;font-variant-numeric:normal;font-variant-position:normal;isolation:auto;mix-blend-mode:normal;shape-padding:0;text-decoration-color:#000;text-decoration-line:none;text-decoration-style:solid;text-indent:0;text-orientation:mixed;text-transform:none;white-space:normal" transform="translate(-841.51 347.31) scale(1.1215)"/><path d="M8.026 3.01c-1.58 0-2.8.944-2.8 2.845v6.644c0 1.9 1.22 2.847 2.8 2.847s2.797-.95 2.797-2.847V5.854c0-1.897-1.217-2.844-2.797-2.844zm0 1.119c.566 0 .96.16 1.22.405s.458.611.458 1.32v6.644c0 .71-.197 1.075-.458 1.321s-.654.408-1.22.408-.962-.16-1.222-.406c-.26-.245-.458-.61-.458-1.323V5.854c0-.71.198-1.075.458-1.32.26-.245.656-.405 1.222-.405zm-5.042 6.856v1.557c0 2.604 1.96 4.71 4.486 4.99v2.477c-.748.057-1.74.07-2.486.338v.662h6v-.662c-.748-.263-1.645-.28-2.393-.338v-2.477c2.526-.28 4.362-2.256 4.362-4.86v-1.687h-.99v1.665c0 1.983-1.467 3.49-3.372 3.763H7.47c-1.905-.273-3.49-1.764-3.49-3.746v-1.682z"/></g></svg>