<svg version="1.0" viewBox="0 0 24 24" xmlns="http://www.w3.org/2000/svg">
 <path d="m9.1262 3c-0.98467 0.01138-1.7052-0.02279-2.2943 0.30227-0.29458 0.16253-0.52765 0.43704-0.6565 0.78032-0.12886 0.34327-0.1754 0.75061-0.1754 1.2652v13.305c0 0.51464 0.04654 0.92159 0.1754 1.2649s0.36193 0.61855 0.6565 0.78108c0.58916 0.32506 1.3097 0.29012 2.2943 0.3015h0.0023 5.4825 0.0023c0.98467-0.01139 1.7052 0.02356 2.2943-0.3015 0.29458-0.16253 0.52765-0.43781 0.6565-0.78108s0.1754-0.75023 0.1754-1.2649v-13.305c0-0.51464-0.04654-0.92197-0.1754-1.2652-0.12886-0.34327-0.36193-0.61778-0.6565-0.78032-0.58917-0.32506-1.3097-0.29088-2.2943-0.30227h-0.0023-5.4825zm2.3524 2.527 0.69166 0.67867 2.6203 2.6199 0.27666 0.29042-0.27666 0.29004-2.5079 2.5083v0.17043l2.5079 2.5079 0.27666 0.2908-0.27666 0.28966-2.6203 2.6207-0.69166 0.6779v-0.96718-4.7862l-2.3677 2.3673-0.57855-0.57817 2.5076-2.5079-2.5076-2.5079 0.57855-0.57817 2.3677 2.3673v-4.7866zm0.80401 1.9481v3.2818l1.6413-1.6409-1.4322-1.4322zm0 5.7672v3.2818l1.6413-1.6405-1.4322-1.4326z" color="#000000" color-rendering="auto" fill="#F9F9F9" image-rendering="auto" shape-rendering="auto" solid-color="#000000" style="isolation:auto;mix-blend-mode:normal;shape-padding:0;text-decoration-color:#000000;text-decoration-line:none;text-decoration-style:solid;text-indent:0;text-transform:none;white-space:normal"/>
</svg>
