<svg version="1.0" viewBox="0 0 24 24" xmlns="http://www.w3.org/2000/svg">
 <path d="m11.478 5.5392v5.7537l-2.3677-2.3673-0.57855 0.57816 2.5075 2.5079-2.5075 2.5079 0.57855 0.57816 2.3677-2.3673v5.7534l0.69166-0.6779 2.6203-2.6206 0.27666-0.28965-0.27666-0.2908-2.5079-2.5079v-0.17043l2.5079-2.5083 0.27666-0.29004-0.27666-0.29042-2.6203-2.6199zm0.804 1.9481 0.20903 0.20864 1.4322 1.4322-1.6412 1.6409zm0 5.7671 0.20903 0.20864 1.4322 1.4326-1.6412 1.6405z" fill="#F9F9F9"/>
 <path d="m18 18.68c0 0.51463-0.04654 0.92185-0.1754 1.2651-0.12886 0.34327-0.36192 0.61824-0.6565 0.78077-0.58915 0.32506-1.5702 0.27494-2.5549 0.28632l0.25458 1e-6 -5.7393-1e-6h-0.0023c-0.98466-0.011416-1.7052 0.023288-2.2943-0.30176-0.29458-0.16253-0.52764-0.4375-0.6565-0.78076-0.12886-0.34327-0.1754-0.75048-0.1754-1.2651v-13.304c0-0.51463 0.046539-0.92223 0.1754-1.2655 0.12886-0.34327 0.36192-0.61785 0.6565-0.78038 0.58915-0.32506 1.3096-0.29076 2.2943-0.30214h0.0023l5.743-0.012114h0.0023c0.98466 0.01142 1.7052-0.02291 2.2943 0.30214 0.29457 0.16253 0.52764 0.43711 0.6565 0.78038 0.12884 0.34327 0.17538 0.75086 0.17538 1.2655zm-0.9682 0.0082-0.04356-13.087c-0.0015-0.46362-0.08077-0.81072-0.15713-1.0142-0.07636-0.20343-0.15837-0.29134-0.30188-0.37052-0.28649-0.15807-0.93485-0.19286-1.9206-0.20436h-5.2445c-0.98885 0.01142-1.6378 0.04599-1.9248 0.20436-0.14351 0.07918-0.22552 0.16709-0.30188 0.37052-0.076361 0.20344-0.12513 0.52685-0.12534 0.99047l-0.00545 12.87c-1.966e-4 0.46362 0.048975 0.78704 0.12534 0.99047 0.076361 0.20344 0.15837 0.29096 0.30188 0.37014 0.28653 0.15809 0.71003 0.19287 1.696 0.20436h0.22875 5.2545 0.0046c0.98574-0.01154 1.6341-0.04629 1.9206-0.20436 0.14351-0.07918 0.22552-0.1667 0.30188-0.37014 0.07636-0.20343 0.15988-0.53987 0.15988-1.0035z" color="#000000" color-rendering="auto" fill="#F9F9F9" image-rendering="auto" shape-rendering="auto" solid-color="#000000" style="font-feature-settings:normal;font-variant-alternates:normal;font-variant-caps:normal;font-variant-ligatures:none;font-variant-numeric:normal;font-variant-position:normal;isolation:auto;mix-blend-mode:normal;shape-padding:0;text-decoration-color:#000000;text-decoration-line:none;text-decoration-style:solid;text-indent:0;text-transform:none;white-space:normal"/>
</svg>
