<svg version="1.0" viewBox="0 0 24 24" xmlns="http://www.w3.org/2000/svg">
 <circle cx="18" cy="7" r="4" fill="#da1636" stroke-width="1.4129"/>
 <path d="m5.4922 7c-1.0928 0.01263-1.8911-0.024811-2.5449 0.33594-0.32692 0.18038-0.58551 0.48428-0.72852 0.86523-0.11682 0.31121-0.16362 0.68882-0.17969 1.1211l-0.039062 0.039063 0.03516 0.025391c-0.0021 0.076132-0.01194 0.13799-0.01172 0.21875l0.02344 8.7891c0.0016 0.57114 0.05231 1.0233 0.19531 1.4043 0.14301 0.38096 0.4016 0.68486 0.72852 0.86523 0.65384 0.36075 1.4541 0.32331 2.5469 0.33594h0.00195 13.012 2e-3c1.0928-0.01263 1.893 0.02481 2.5469-0.33594 0.32692-0.18037 0.58551-0.48428 0.72852-0.86523 0.143-0.38096 0.19589-0.83316 0.19531-1.4043l-0.0098-9.0273v-0.00195l0.0058-0.00391-0.0078-0.00781c-0.014349-0.45165-0.066793-0.83087-0.18747-1.1523-0.143-0.38096-0.4016-0.68486-0.72852-0.86523-0.65384-0.36075-1.4521-0.32331-2.5449-0.33594h-0.0039-13.031zm0.11523 1h12.889c1.094 0.01277 1.8129 0.051145 2.1309 0.22656 0.15927 0.08788 0.25119 0.18634 0.33594 0.41211 0.02269 0.060449 0.02857 0.15602 0.04102 0.23633l-9.0039 5.125-8.9277-5.0781c0.02008-0.1005 0.03728-0.21082 0.06445-0.2832 0.08475-0.22577 0.17667-0.32423 0.33594-0.41211 0.31854-0.17575 1.0373-0.21389 2.1348-0.22656zm-2.6094 2.0684 9.002 5.9316 9-5.9297 2e-3 8.1914c1.21e-4 0.51453-0.05391 0.87384-0.13867 1.0996-0.08475 0.22577-0.17667 0.32423-0.33594 0.41211-0.31795 0.17542-0.9178 0.2138-2.0118 0.22656h-0.125-12.795c-1.0942-0.01276-1.8148-0.05111-2.1328-0.22656-0.15927-0.08788-0.24924-0.18634-0.33398-0.41211-0.08475-0.22577-0.13916-0.58508-0.13867-1.0996z" color="#000000" color-rendering="auto" fill="#da1636" image-rendering="auto" shape-rendering="auto" solid-color="#000000" style="isolation:auto;mix-blend-mode:normal;text-decoration-color:#000000;text-decoration-line:none;text-decoration-style:solid;text-indent:0;text-transform:none;white-space:normal"/>
</svg>
