<svg version="1.0" viewBox="0 0 24 24" xmlns="http://www.w3.org/2000/svg">
 <path d="m9.9688 3.0031c-0.62307 0.0069-1.0768-0.01685-1.4492 0.18945-0.19292 0.11013-0.34039 0.28528-0.41602 0.49414-0.0831 0.21738-0.11054 0.4754-0.11133 0.80078l-0.00781 3.0176c-7.9e-4 0.32538 0.029698 0.58088 0.11133 0.79688 0.0757 0.2088 0.22319 0.38392 0.41602 0.49414 0.37246 0.20492 0.82615 0.18253 1.4492 0.18945l1.0234 0.00391v2.0098h-2c-1.2582 0.0145-2.179-0.0306-2.9316 0.38477-0.37637 0.20766-0.67323 0.55939-0.83789 0.99805-0.16439 0.43867-0.22461 0.95957-0.22461 1.6172v1c0.0498 5e-3 0.060603 0 0.22656 0h0.29883c0.18382 0 0.32503 2e-3 0.47461 0v-1c0-0.59239 0.062596-1.0057 0.16016-1.2656 0.0976-0.25991 0.2033-0.37147 0.38672-0.47266 0.36594-0.20191 1.1946-0.24702 2.4531-0.26172h5c1.2586 0.0152 2.0891 0.0599 2.4551 0.26172 0.18342 0.10116 0.28723 0.21287 0.38477 0.47266 0.0974 0.25979 0.16016 0.26562 0.16016 0.26562h1s-0.0599-0.17859-0.22461-0.61719c-0.16467-0.43861-0.46154-0.78852-0.83789-0.99609-0.75272-0.41513-1.6736-0.37165-2.9316-0.38672h-2.0118v-2.0059l1.0078 0.00391c0.62309-0.0069 1.0781 0.01686 1.4492-0.18945 0.18692-0.10246 0.33293-0.27675 0.41602-0.49414 0.0803-0.21738 0.11053-0.47149 0.11133-0.79688l0.0079-3.0176c7.81e-4 -0.32538-0.031-0.5834-0.11133-0.80078-0.0753-0.20905-0.22286-0.3843-0.41602-0.49414-0.37107-0.20769-0.82558-0.18253-1.4473-0.18945-1.0084-0.0059-2.1744-0.021409-3.0332-0.011719zm9.0312 10.996c-1.108 0-2 0.892-2 2v1h-1v4h6v-4h-1v-1c0-1.108-0.892-2-2-2zm-15.016 1c-0.62308 0.0069-1.0767-0.01685-1.4492 0.18945-0.19291 0.11013-0.34038 0.28528-0.41602 0.49414-0.0831 0.21738-0.11054 0.4754-0.11133 0.80078l-0.00781 3.0176c-7.801e-4 0.32538 0.029708 0.58088 0.11133 0.79688 0.0757 0.2088 0.22319 0.38392 0.41602 0.49414 0.37246 0.20492 0.82615 0.18253 1.4492 0.18945l3.0312 0.01172c0.62307-0.0069 1.0781 0.01686 1.4492-0.18945 0.18692-0.10246 0.33293-0.27676 0.41602-0.49414 0.0803-0.21738 0.11053-0.47149 0.11133-0.79688l0.00781-3.0176c7.8e-4 -0.32538-0.030998-0.58339-0.11133-0.80078-0.0753-0.20904-0.22287-0.3843-0.41602-0.49414-0.37107-0.20769-0.82558-0.18253-1.4473-0.18945-1.0085-0.0059-2.1744-0.02141-3.0332-0.01172zm15.016 0c0.554 0 1 0.446 1 1v1h-2v-1c0-0.554 0.446-1 1-1z" fill="#F9F9F9" stroke-width="1.3846" style="font-feature-settings:normal;font-variant-alternates:normal;font-variant-caps:normal;font-variant-ligatures:normal;font-variant-numeric:normal;font-variant-position:normal;isolation:auto;mix-blend-mode:normal;shape-padding:0;text-decoration-color:#000000;text-decoration-line:none;text-decoration-style:solid;text-indent:0;text-orientation:mixed;text-transform:none"/>
</svg>
