<svg version="1.1" viewBox="0 0 17 24" xmlns="http://www.w3.org/2000/svg">
 <g fill="#F9F9F9">
  <path d="m5 5c-1.108 0-2 0.892-2 2v12c0 1.108 0.892 2 2 2h7c1.108 0 2-0.892 2-2v-12c0-1.108-0.892-2-2-2zm0 1h7c0.554 0 1 0.446 1 1v12c0 0.554-0.446 1-1 1h-7c-0.554 0-1-0.446-1-1v-12c0-0.554 0.446-1 1-1z"/>
  <rect x="5" y="11" width="7" height="8" rx="0" ry="0" fill-rule="evenodd" stroke-width=".8165"/>
  <path d="m8 3c-1.108 0-2 0.42518-2 1.5332v0.4668h5v-0.38477c0-1.108-0.892-1.6152-2-1.6152z"/>
 </g>
</svg>
