<svg version="1.0" viewBox="0 0 24 24" xmlns="http://www.w3.org/2000/svg">
 <path d="m6.2676 5c-1.0294 0.0119-1.7825-0.023425-2.3984 0.31641-0.30796 0.16992-0.55083 0.45559-0.68555 0.81445-0.13471 0.35887-0.18363 0.7862-0.18359 1.3242v7.0898c3.8e-5 0.53802 0.04888 0.96535 0.18359 1.3242 0.13471 0.35887 0.37954 0.64454 0.6875 0.81445 0.61592 0.33982 1.369 0.30451 2.3984 0.31641h0.73052l2.3418 2.0176 2.6582-2.0176h5.7344c1.0294-0.0119 1.7825 0.02342 2.3984-0.31641 0.30796-0.16992 0.55084-0.45559 0.68555-0.81445 0.13471-0.35887 0.18359-0.7862 0.18359-1.3242v-7.3633c0-0.53802-0.05084-0.69192-0.18555-1.0508-0.1348-0.35887-0.37768-0.64454-0.68564-0.81445-0.61592-0.33983-1.369-0.30451-2.3984-0.31641h-11.461zm11.301 1c1.0305 0.012021 1.7083 0.04764 2.0078 0.21289 0.15004 0.08278 0.23658 0.17599 0.31641 0.38867 0.07983 0.21268 0.13304 0.55047 0.13086 1.0352l-0.03125 6.8965c-0.01052 0.39587-0.05278 0.69949-0.12305 0.88672-0.07983 0.21268-0.16637 0.30394-0.31641 0.38672-0.29951 0.16525-0.97923 0.18134-2.0098 0.19336h-11.23c-1.0308-0.01201-1.5657-0.047611-1.8652-0.21289-0.15003-0.08278-0.23658-0.17599-0.31641-0.38867-0.07983-0.21268-0.13011-0.55047-0.13086-1.0352l-0.0098-6.6934c-7.47e-4 -0.48469 0.05102-0.82248 0.13086-1.0352 0.07984-0.21268 0.16637-0.30394 0.31641-0.38672 0.30007-0.16556 0.97787-0.21172 2.0117-0.21484zm-10.568 3v1h5v-1zm0 3v1h10v-1z" fill="#F9F9F9" opacity=".5"/>
</svg>
