<svg xmlns="http://www.w3.org/2000/svg" height="16" width="16">
    <path d="M3.992 0c-.05 0-.096.015-.144.02.215-.003.357-.017.646-.02zm.514 0c1.258.015 1.679-.03 2.431.385.377.207.674.56.838.998C7.94 1.82 8 2.343 8 3v1h3v-.246C11 2.646 11.446 2 12 2s1 .646 1 1.754V4c1.108 0 2-1.392 2-2.5S14.108 0 13 0z" fill="gray"/>
    <path d="M4.494 0C3.236.015 2.815-.03 2.062.385a1.88 1.88 0 00-.837.998C1.06 1.82 1 2.343 1 3v10c0 .658.06 1.179.225 1.617.164.439.461.789.837.996.753.415.674.372 1.932.387h1.012c1.258-.015 1.179.028 1.932-.387.376-.207.673-.557.837-.996C7.94 14.18 8 13.657 8 13V3c0-.658-.06-1.179-.225-1.617a1.88 1.88 0 00-.838-.998C6.185-.031 5.764.015 4.506 0h-.008zM4.5 1c1.259.015 1.59.06 1.955.262.184.1.287.212.385.472.097.26.16.674.16 1.266v10c0 .592-.063 1.006-.16 1.266-.098.26-.202.371-.385.472-.366.202-.196.247-1.455.262H4c-1.259-.015-1.09-.06-1.455-.262-.184-.1-.287-.213-.385-.472C2.063 14.006 2 13.592 2 13V3c0-.592.063-1.006.16-1.266.098-.26.201-.371.385-.472C2.91 1.06 3.24 1.015 4.5 1zm0 1A1.5 1.5 0 003 3.5 1.5 1.5 0 004.5 5 1.5 1.5 0 006 3.5 1.5 1.5 0 004.5 2zm0 1a.5.5 0 01.5.5.5.5 0 01-.5.5.5.5 0 01-.5-.5.5.5 0 01.5-.5z" style="line-height:normal;font-variant-ligatures:normal;font-variant-position:normal;font-variant-caps:normal;font-variant-numeric:normal;font-variant-alternates:normal;font-feature-settings:normal;text-indent:0;text-align:start;text-decoration-line:none;text-decoration-style:solid;text-decoration-color:#000;text-transform:none;text-orientation:mixed;white-space:normal;shape-padding:0;isolation:auto;mix-blend-mode:normal;solid-color:#000;solid-opacity:1;marker:none" color="#000" font-weight="400" font-family="sans-serif" overflow="visible" fill="gray"/>
    <path d="M8 5v4c1 .5 3.105 2.35 6 3-.913-3.491-3.5-5.5-6-7zm2.5 3c.276 0 .697.477.875.688 1.255 2.24-.551.536-1.375-.188a.5.5 0 01.5-.5z" fill="gray"/>
</svg>
