<svg xmlns="http://www.w3.org/2000/svg" width="16" height="16" version="1.0">
    <defs>
        <linearGradient id="a">
            <stop offset="0" stop-color="#fff"/>
            <stop offset="1" stop-color="#fff" stop-opacity="0"/>
        </linearGradient>
    </defs>
    <path d="M14.168.502c-.323.01-.677.106-.98.266-1.054.686-3.363 2.953-3.596 3.59-.066.067-.084.323-.08.609-.442.4-.287 1.207-.287 1.935 0 .343-.728.585-1.02.653-.85.003-3.268.126-4.055 1.197-.686.935-3.43 5.414-3.6 6.383-.095.218-.157.393-.157.484 1.148 0 9.49-3.952 9.918-4.324a.835.835 0 00.26-.432l.015-.01c.286-.26.387-.688.291-1.242a3.901 3.901 0 00-.508-1.324 1.493 1.493 0 01-.14-.65c0-.527.023-.86.06-1.108.013-.014.02-.036.033-.049.036-.033.067-.08.1-.12.41.269 1.233.087 1.459-.11.87-.71 3.07-2.908 3.299-3.33.364-.533.45-1.487.086-1.86l-.301-.308c-.182-.186-.474-.26-.797-.25z" fill="gray"/>
</svg>
