<svg version="1.1" viewBox="0 0 16 16" xmlns="http://www.w3.org/2000/svg" xmlns:osb="http://www.openswatchbook.org/uri/2009/osb">
 <g transform="translate(-592,-460)" fill="#808080">
  <path d="m598 464-4 8v0.55078c3.5e-4 1.3528 0.89568 2.4492 2 2.4492h8c1.1043 0 1.9996-1.0964 2-2.4492v-0.55078l-4-8h-1l0.3418 1.0059c0.62839 1.2566 1.2564 2.5129 1.8848 3.7695 0.56784 1.1789 1.2124 2.3391 1.7324 3.5293 0.0359 0.61876-0.15521 1.4667-0.83203 1.6367-2.7251 0.0657-5.4861 0.0535-8.1797 0.0117-0.72645-0.13044-0.95349-1.0129-0.92579-1.6504 0.57553-1.297 1.2724-2.5637 1.8945-3.8496 0.57459-1.149 1.15-2.2982 1.7246-3.4473l-0.0156-6e-3 0.375-1z"/>
  <path d="m598 462v3h0.625l0.375-0.75v-2.25z"/>
  <rect x="597" y="461" width="6" height="1" rx=".5" ry=".5"/>
  <path d="m602 462v3h-0.625l-0.375-0.75v-2.25z"/>
  <path d="m597.24 470.1c-0.39616 0.81476-0.8234 1.6157-1.1814 2.4482 0.0157 0.22101 0.0951 0.42162 0.36097 0.34558 2.2487 0.0833 4.5576 0.0452 6.81 0.0165 0.22666-0.0498 0.70118 0.13229 0.68872-0.26758 4e-3 -0.40578-0.34814-0.75739-0.48025-1.1422-0.58319-1.1724-1.1663-2.3449-1.7494-3.5174h-3.396c-0.35091 0.70561-0.70182 1.4112-1.0527 2.1168z" opacity=".5"/>
 </g>
</svg>
