<svg version="1.1" viewBox="0 0 16 16" xmlns="http://www.w3.org/2000/svg">
 <g>
  <path d="m3.9941 0c-1.258 0.015-2.1796-0.028281-2.9316 0.38672-0.377 0.207-0.67389 0.55709-0.83789 0.99609-0.165 0.438-0.22461 0.95919-0.22461 1.6172v8c1.8504e-17 0.657 0.059609 1.1802 0.22461 1.6172 0.15141 0.42194 0.44851 0.77593 0.83789 0.99805 0.752 0.415 1.6736 0.36977 2.9316 0.38477h0.0039063 0.0019531v-1c-1.259-0.015-2.0891-0.059719-2.4551-0.26172-0.183-0.101-0.28677-0.21266-0.38477-0.47266-0.097-0.26-0.16016-0.67362-0.16016-1.2656v-8c0-0.592 0.063156-1.0056 0.16016-1.2656 0.098-0.259 0.20177-0.37266 0.38477-0.47266 0.365-0.202 1.1961-0.24672 2.4551-0.26172h3v4h4v4 2h1v-6.75l-4.25-4.25h-3.7559zm-0.99414 6v1h1 4 1v-1h-6zm0 2v1h1v-1h-1zm5 0v1h1v-1h-1zm-5 2v1h1v-1h-1z" fill="#808080"/>
  <path d="m14 8v7h-1v-3h-2v3h-1v-5h-2v5h-1v-7h-2v8h11v-8z" enable-background="new" fill="#808082" fill-rule="evenodd"/>
 </g>
</svg>
