<svg xmlns="http://www.w3.org/2000/svg" height="16" width="16">
    <path d="M8 0a6 6 0 00-6 6 6 6 0 006 6 6 6 0 006-6 6 6 0 00-6-6zm0 1a5 5 0 015 5 5 5 0 01-5 5 5 5 0 01-5-5 5 5 0 015-5z" fill="gray" fill-rule="evenodd"/>
    <path d="M5 11h6v2H5zM9 16H7c-2 0-2-.5-2-1.5V14h6v.5c0 1 0 1.5-2 1.5z" fill="gray" fill-rule="evenodd"/>
    <path style="line-height:normal;font-variant-ligatures:normal;font-variant-position:normal;font-variant-caps:normal;font-variant-numeric:normal;font-variant-alternates:normal;font-variant-east-asian:normal;font-feature-settings:normal;font-variation-settings:normal;text-indent:0;text-align:start;text-decoration-line:none;text-decoration-style:solid;text-decoration-color:#000;text-transform:none;text-orientation:mixed;white-space:normal;shape-padding:0;shape-margin:0;inline-size:0;isolation:auto;mix-blend-mode:normal;solid-color:#000;solid-opacity:1" d="M6.504 6a.5.5 0 00-.338.129.5.5 0 00-.037.705s.245.274.576.55C7.037 7.662 7.422 8 8 8s.963-.339 1.295-.615c.331-.277.576-.551.576-.551a.5.5 0 00-.037-.705.5.5 0 00-.705.037s-.206.226-.475.45A2.53 2.53 0 018 7a2.53 2.53 0 01-.654-.385c-.269-.223-.475-.449-.475-.449A.5.5 0 006.504 6z" color="#000" font-weight="400" font-family="sans-serif" overflow="visible" fill="gray" opacity=".6"/>
</svg>
