<?xml version="1.0" encoding="UTF-8"?>
<svg id="svg10" width="16" height="16" version="1.1" xmlns="http://www.w3.org/2000/svg" xmlns:cc="http://creativecommons.org/ns#" xmlns:dc="http://purl.org/dc/elements/1.1/" xmlns:rdf="http://www.w3.org/1999/02/22-rdf-syntax-ns#">
 <metadata id="metadata16">
  <rdf:RDF>
   <cc:Work rdf:about="">
    <dc:format>image/svg+xml</dc:format>
    <dc:type rdf:resource="http://purl.org/dc/dcmitype/StillImage"/>
    <dc:title/>
   </cc:Work>
  </rdf:RDF>
 </metadata>
 <path id="path867" d="m4.4766 1a0.50005 0.50005 0 0 0-0.33008 0.14648l-3 3a0.50005 0.50005 0 0 0 0 0.70703l3 3a0.50005 0.50005 0 0 0 0.70703 0l3-3a0.50005 0.50005 0 0 0 0-0.70703l-3-3a0.50005 0.50005 0 0 0-0.37695-0.14648zm0.023438 1.207 2.293 2.293-2.293 2.293-2.293-2.293 2.293-2.293z" color="#000000" color-rendering="auto" dominant-baseline="auto" fill="#808080" image-rendering="auto" shape-rendering="auto" solid-color="#000000" stop-color="#000000" style="font-feature-settings:normal;font-variant-alternates:normal;font-variant-caps:normal;font-variant-east-asian:normal;font-variant-ligatures:normal;font-variant-numeric:normal;font-variant-position:normal;font-variation-settings:normal;inline-size:0;isolation:auto;mix-blend-mode:normal;shape-margin:0;shape-padding:0;text-decoration-color:#000000;text-decoration-line:none;text-decoration-style:solid;text-indent:0;text-orientation:mixed;text-transform:none;white-space:normal"/>
 <path id="path871" d="m12.018 2a0.50005 0.50005 0 0 0-0.46484 0.27734l-2.5 5a0.50005 0.50005 0 0 0 0.44727 0.72266h5a0.50005 0.50005 0 0 0 0.44727-0.72266l-2.5-5a0.50005 0.50005 0 0 0-0.42969-0.27734zm-0.017578 1.6172 1.6914 3.3828h-3.3828l1.6914-3.3828z" color="#000000" color-rendering="auto" dominant-baseline="auto" fill="#808080" image-rendering="auto" shape-rendering="auto" solid-color="#000000" stop-color="#000000" style="font-feature-settings:normal;font-variant-alternates:normal;font-variant-caps:normal;font-variant-east-asian:normal;font-variant-ligatures:normal;font-variant-numeric:normal;font-variant-position:normal;font-variation-settings:normal;inline-size:0;isolation:auto;mix-blend-mode:normal;shape-margin:0;shape-padding:0;text-decoration-color:#000000;text-decoration-line:none;text-decoration-style:solid;text-indent:0;text-orientation:mixed;text-transform:none;white-space:normal"/>
 <path id="path858" d="m6.9492 9a3 3 0 0 0-2.9492 3 3 3 0 0 0 3 3 3 3 0 0 0 3-3 3 3 0 0 0-3-3 3 3 0 0 0-0.050781 0zm0.0019531 1a2 2 0 0 1 0.048828 0 2 2 0 0 1 2 2 2 2 0 0 1-2 2 2 2 0 0 1-2-2 2 2 0 0 1 1.9512-2z" fill="#808080" fill-rule="evenodd"/>
</svg>
