<?xml version="1.0" encoding="UTF-8" standalone="no"?>
<svg
   xmlns:dc="http://purl.org/dc/elements/1.1/"
   xmlns:cc="http://creativecommons.org/ns#"
   xmlns:rdf="http://www.w3.org/1999/02/22-rdf-syntax-ns#"
   xmlns:svg="http://www.w3.org/2000/svg"
   xmlns="http://www.w3.org/2000/svg"
   xmlns:sodipodi="http://sodipodi.sourceforge.net/DTD/sodipodi-0.dtd"
   xmlns:inkscape="http://www.inkscape.org/namespaces/inkscape"
   height="16"
   width="16"
   version="1.1"
   id="svg4"
   sodipodi:docname="emoji-nature-symbolic.svg">
  <metadata
     id="metadata10">
    <rdf:RDF>
      <cc:Work
         rdf:about="">
        <dc:format>image/svg+xml</dc:format>
        <dc:type
           rdf:resource="http://purl.org/dc/dcmitype/StillImage" />
      </cc:Work>
    </rdf:RDF>
  </metadata>
  <defs
     id="defs8" />
  <sodipodi:namedview
     pagecolor="#ffffff"
     bordercolor="#666666"
     borderopacity="1"
     objecttolerance="10"
     gridtolerance="10"
     guidetolerance="10"
     inkscape:pageopacity="0"
     inkscape:pageshadow="2"
     inkscape:window-width="640"
     inkscape:window-height="480"
     id="namedview6" />
  <path
     style="line-height:normal;font-variant-ligatures:normal;font-variant-position:normal;font-variant-caps:normal;font-variant-numeric:normal;font-variant-alternates:normal;font-variant-east-asian:normal;font-feature-settings:normal;font-variation-settings:normal;text-indent:0;text-align:start;text-decoration-line:none;text-decoration-style:solid;text-decoration-color:#000;text-transform:none;text-orientation:mixed;white-space:normal;shape-padding:0;shape-margin:0;inline-size:0;isolation:auto;mix-blend-mode:normal;solid-color:#000;solid-opacity:1"
     d="M6.5 1c-1.083 0-1.986.279-2.604.896C3.28 2.514 3 3.416 3 4.5v7.793l-1.854 1.853a.5.5 0 000 .708.5.5 0 00.708 0L4 12.707V4.5c0-.917.221-1.514.604-1.896C4.986 2.22 5.584 2 6.5 2H14v7.5c0 .917-.221 1.514-.604 1.896-.382.383-.98.604-1.896.604h-6a.5.5 0 00-.5.5.5.5 0 00.5.5h6c1.083 0 1.986-.279 2.604-.896.617-.618.896-1.52.896-2.604V1H6.5zm3 2a.5.5 0 00-.5.5v2.793L7.172 8.121a.5.5 0 00-.041.043L7 8.293V4.5a.5.5 0 00-.5-.5.5.5 0 00-.5.5v5a.5.5 0 00.854.354L7.707 9H12.5a.5.5 0 00.5-.5.5.5 0 00-.5-.5H8.707l1.121-1.121a.5.5 0 00.041-.043l2.985-2.982a.5.5 0 000-.708.5.5 0 00-.377-.146.5.5 0 00-.33.146L10 5.293V3.5a.5.5 0 00-.5-.5z"
     color="#000"
     font-weight="400"
     font-family="sans-serif"
     overflow="visible"
     fill="gray"
     id="path2" />
</svg>
