<?xml version="1.0" encoding="UTF-8" standalone="no"?>
<svg
   xmlns:dc="http://purl.org/dc/elements/1.1/"
   xmlns:cc="http://creativecommons.org/ns#"
   xmlns:rdf="http://www.w3.org/1999/02/22-rdf-syntax-ns#"
   xmlns:svg="http://www.w3.org/2000/svg"
   xmlns="http://www.w3.org/2000/svg"
   xmlns:sodipodi="http://sodipodi.sourceforge.net/DTD/sodipodi-0.dtd"
   xmlns:inkscape="http://www.inkscape.org/namespaces/inkscape"
   height="16"
   width="16"
   version="1.1"
   id="svg4"
   sodipodi:docname="emoji-recent-symbolic.svg">
  <metadata
     id="metadata10">
    <rdf:RDF>
      <cc:Work
         rdf:about="">
        <dc:format>image/svg+xml</dc:format>
        <dc:type
           rdf:resource="http://purl.org/dc/dcmitype/StillImage" />
      </cc:Work>
    </rdf:RDF>
  </metadata>
  <defs
     id="defs8" />
  <sodipodi:namedview
     pagecolor="#ffffff"
     bordercolor="#666666"
     borderopacity="1"
     objecttolerance="10"
     gridtolerance="10"
     guidetolerance="10"
     inkscape:pageopacity="0"
     inkscape:pageshadow="2"
     inkscape:window-width="640"
     inkscape:window-height="480"
     id="namedview6" />
  <path
     d="M7.5 1c-1.978 0-3.77.769-5.11 2.018L1.365 1.992a34.471 34.471 0 00-.646 1.983A41.553 41.553 0 00.188 6c.669-.15 1.345-.325 2.03-.523.69-.203 1.349-.421 1.975-.655L3.1 3.727A6.466 6.466 0 017.5 2C11.094 2 14 4.906 14 8.5S11.094 15 7.5 15a6.49 6.49 0 01-6.475-6h-1A7.488 7.488 0 007.5 16c4.147 0 7.5-3.353 7.5-7.5S11.647 1 7.5 1zM7 4v5.207l2.396 2.397.708-.708L8 8.793V4zm6.1 10.97l.027.036-.014-.022-.013-.013zm-12.21.005c-.003.005-.01.009-.013.013l-.014.022z"
     fill="gray"
     font-family="Ubuntu"
     font-size="15"
     font-weight="400"
     letter-spacing="0"
     style="line-height:125%;-inkscape-font-specification:Ubuntu;text-align:center"
     text-anchor="middle"
     word-spacing="0"
     id="path2" />
</svg>
