<?xml version="1.0" encoding="UTF-8" standalone="no"?>
<svg
   xmlns:dc="http://purl.org/dc/elements/1.1/"
   xmlns:cc="http://creativecommons.org/ns#"
   xmlns:rdf="http://www.w3.org/1999/02/22-rdf-syntax-ns#"
   xmlns:svg="http://www.w3.org/2000/svg"
   xmlns="http://www.w3.org/2000/svg"
   xmlns:sodipodi="http://sodipodi.sourceforge.net/DTD/sodipodi-0.dtd"
   xmlns:inkscape="http://www.inkscape.org/namespaces/inkscape"
   height="16"
   width="16"
   version="1.1"
   id="svg6"
   sodipodi:docname="emoji-people-symbolic.svg">
  <metadata
     id="metadata12">
    <rdf:RDF>
      <cc:Work
         rdf:about="">
        <dc:format>image/svg+xml</dc:format>
        <dc:type
           rdf:resource="http://purl.org/dc/dcmitype/StillImage" />
      </cc:Work>
    </rdf:RDF>
  </metadata>
  <defs
     id="defs10" />
  <sodipodi:namedview
     pagecolor="#ffffff"
     bordercolor="#666666"
     borderopacity="1"
     objecttolerance="10"
     gridtolerance="10"
     guidetolerance="10"
     inkscape:pageopacity="0"
     inkscape:pageshadow="2"
     inkscape:window-width="640"
     inkscape:window-height="480"
     id="namedview8" />
  <path
     d="M3 9c1.794 1.303 7.166 1.303 9 0l-.028.531c-.033.43-.897 3.375-4.486 3.406C3.897 12.97 3 10.158 3 9.626zM10 5c.558 0 1 .473 1 1.031V7c0 .558-.442 1-1 1s-1-.442-1-1v-.969C9 5.473 9.442 5 10 5zM4.969 4.984C5.527 4.984 6 5.457 6 6.016v.968c0 .559-.473 1-1.031 1-.559 0-1-.441-1-1v-.968c0-.559.441-1.032 1-1.032z"
     fill="gray"
     id="path2" />
  <path
     d="M7.463 1A7.5 7.5 0 000 8.5 7.5 7.5 0 007.5 16 7.5 7.5 0 0015 8.5 7.5 7.5 0 007.5 1a7.5 7.5 0 00-.037 0zM7.5 2A6.5 6.5 0 0114 8.5 6.5 6.5 0 017.5 15 6.5 6.5 0 011 8.5 6.5 6.5 0 017.5 2z"
     fill="gray"
     fill-rule="evenodd"
     id="path4" />
</svg>
