<svg version="1.1" viewBox="0 0 16 16" xmlns="http://www.w3.org/2000/svg" xmlns:osb="http://www.openswatchbook.org/uri/2009/osb">
 <g transform="translate(-672 -460)" fill="#808080">
  <path d="m676.02 475.54v-0.46457l0.64481-0.0261c1.0793-0.0437 1.2785-0.25603 1.3161-1.4033l0.0206-0.62893-2.0445-0.0369c-2.2028-0.0399-2.4234-0.0691-2.9805-0.39548-0.34239-0.2006-0.67234-0.62518-0.83594-1.0756-0.10571-0.29108-0.11612-0.63056-0.13295-4.336-0.0121-2.6485 4e-3 -4.1292 0.0481-4.3396 0.14976-0.72037 0.50838-1.2301 1.0623-1.5099 0.63247-0.31946 0.62238-0.319 6.9279-0.319 5.4433 0 5.9123 8e-3 6.2908 0.1119 0.82302 0.22521 1.2753 0.6549 1.525 1.4489 0.14117 0.44889 0.14208 0.47706 0.14208 4.3826 0 4.1995-6e-3 4.2888-0.31753 4.9056-0.28477 0.56346-0.86925 0.93767-1.6641 1.0654-0.22488 0.0361-1.2259 0.0659-2.2244 0.0662l-1.8156 5.1e-4 0.0254 0.6761c0.0433 1.1556 0.22866 1.3499 1.3254 1.3891l0.67625 0.0242v0.92948h-7.9892v-0.46456zm-1.0586-4.5252s-1.2748 0-1.9166-2e-3c-0.057 0.0569 0.12728 0.46894 0.28474 0.63652 0.15734 0.16743 0.47495 0.26364 1.0862 0.32904 0.2422 0.0259 0.54559 0.0428 0.54559 0.0428 0-0.50314-6e-3 -0.60647 0-1.0063zm10.577 0.96426c0.35547-0.0346 0.73662-0.11285 0.89889-0.18461 0.61108-0.27025 0.67483-0.8055 0.63716-5.3496-0.0284-3.4282-0.0523-3.7162-0.33561-4.0351-0.3895-0.43856-1.0865-0.49016-6.6457-0.4919l-4.1362-1e-3v1.5446c0 1.2183 0.0166 1.5348 0.0786 1.4985 0.0433-0.0254 0.24501-0.1579 0.44837-0.29452 0.51755-0.34771 1.4155-0.76088 2.0837-0.95875 0.76593-0.22683 1.8572-0.27955 2.6138-0.12628 1.4303 0.28975 2.9216 1.1378 4.1528 2.3615 0.36549 0.36329 0.70156 0.75251 0.74678 0.86493 0.12178 0.30266 5e-3 0.51828-0.62271 1.1508-1.1226 1.1311-2.5342 1.9718-3.9852 2.3735-0.29483 0.0816-0.62551 0.10661-1.3642 0.10307-0.87576-4e-3 -1.0327-0.0222-1.5409-0.17713-0.68621-0.20917-1.4448-0.55826-2.0233-0.93104-0.23672-0.15254-0.46579-0.29879-0.50905-0.32497-0.0621-0.0375-0.0786 0.27786-0.0786 1.497v1.5446l4.4822-2e-3c2.4652-8.9e-4 4.7599-0.0286 5.0993-0.0616zm-10.577-2.9768h-2.013v1.0063h2.013zm6.4629 0.33715c0.59071-0.16887 1.3524-0.53391 1.948-0.93355 0.59347-0.39822 1.6434-1.3072 1.6434-1.4227 0-0.12937-1.0121-1.0008-1.6586-1.4281-2.149-1.4202-4.0242-1.4784-6.1541-0.19066-0.5755 0.34791-1.6951 1.2539-1.8595 1.5047-0.10399 0.15867-0.10251 0.16139 0.28636 0.52681 1.0878 1.0222 2.401 1.7697 3.5669 2.0303 0.58958 0.13179 1.6007 0.0924 2.2275-0.0868zm-6.9132-1.7153c-0.17565-0.2162-0.31996-0.55661-0.33993-0.63444h-1.2228l-0.0109 1.0275h1.8929zm-0.063-1.6577 0.5025-0.53459 0.0109-0.45475h-2.013l-0.0109 1.0275zm0.51334-3.0019h-2.013v1.0063h2.013z"/>
  <path d="m679.39 468.43c-0.28592-0.1245-0.64098-0.45958-0.79385-0.74918-0.17559-0.33265-0.18839-1.0243-0.0251-1.3564 0.30403-0.61837 0.9947-0.99901 1.6377-0.90258 0.26913 0.0404 0.27065 0.042 0.20649 0.22608-0.1408 0.40389 0.19005 0.87147 0.61542 0.86977 0.13155-5.3e-4 0.28136-0.0276 0.33292-0.0602 0.12843-0.0812 0.17799 0.0633 0.18175 0.52992 5e-3 0.62276-0.3354 1.1582-0.8991 1.4143-0.30089 0.13669-0.97257 0.15181-1.2562 0.0283z"/>
 </g>
</svg>
