<?xml version="1.0" encoding="UTF-8"?>
<svg id="svg7384" width="16" height="16" version="1.1" xmlns="http://www.w3.org/2000/svg" xmlns:cc="http://creativecommons.org/ns#" xmlns:dc="http://purl.org/dc/elements/1.1/" xmlns:osb="http://www.openswatchbook.org/uri/2009/osb" xmlns:rdf="http://www.w3.org/1999/02/22-rdf-syntax-ns#">
 <metadata id="metadata20854">
  <rdf:RDF>
   <cc:Work rdf:about="">
    <dc:title/>
    <dc:format>image/svg+xml</dc:format>
    <dc:type rdf:resource="http://purl.org/dc/dcmitype/StillImage"/>
   </cc:Work>
  </rdf:RDF>
 </metadata>
 <g id="layer3" transform="translate(-512,-484)">
  <path id="path4216-6" d="m515.8 487c-0.53643 0-0.80469 1.5e-4 -0.80469 0.625v0.75c0 0.62485 0.26826 0.625 0.80469 0.625h0.39062c0.53643 0 0.80469-1.5e-4 0.80469-0.625v-0.75c0-0.60253-0.26826-0.625-0.80469-0.625zm4 0c-0.53643 0-0.80469 1.5e-4 -0.80469 0.625v0.75c0 0.62485 0.26826 0.625 0.80469 0.625h0.39062c0.53643 0 0.80469-1.5e-4 0.80469-0.625v-0.75c0-0.60253-0.26826-0.625-0.80469-0.625zm4 0c-0.53643 0-0.80469 1.5e-4 -0.80469 0.625v0.75c0 0.62485 0.26826 0.625 0.80469 0.625h0.39062c0.53643 0 0.80469-1.5e-4 0.80469-0.625v-0.75c0-0.60253-0.26826-0.625-0.80469-0.625zm-8 4c-0.53643 0-0.80469 1.5e-4 -0.80469 0.625v0.75c0 0.62485 0.26826 0.625 0.80469 0.625h0.39062c0.53643 0 0.80469-1.5e-4 0.80469-0.625v-0.75c0-0.60253-0.26826-0.625-0.80469-0.625zm4 0c-0.53643 0-0.80469 1.5e-4 -0.80469 0.625v0.75c0 0.62485 0.26826 0.625 0.80469 0.625h0.39062c0.53643 0 0.80469-1.5e-4 0.80469-0.625v-0.75c0-0.60253-0.26826-0.625-0.80469-0.625zm4 0c-0.53643 0-0.80469 1.5e-4 -0.80469 0.625v0.75c0 0.62485 0.26826 0.625 0.80469 0.625h0.39062c0.53643 0 0.80469-1.5e-4 0.80469-0.625v-0.75c0-0.60253-0.26826-0.625-0.80469-0.625zm-8 4c-0.53643 0-0.80469 1.5e-4 -0.80469 0.625v0.75c0 0.62485 0.26826 0.625 0.80469 0.625h0.39062c0.53643 0 0.80469-1.5e-4 0.80469-0.625v-0.75c0-0.60253-0.26826-0.625-0.80469-0.625zm4 0c-0.53643 0-0.80469 1.5e-4 -0.80469 0.625v0.75c0 0.62485 0.26826 0.625 0.80469 0.625h0.39062c0.53643 0 0.80469-1.5e-4 0.80469-0.625v-0.75c0-0.60253-0.26826-0.625-0.80469-0.625zm4 0c-0.53643 0-0.80469 1.5e-4 -0.80469 0.625v0.75c0 0.62485 0.26826 0.625 0.80469 0.625h0.39062c0.53643 0 0.80469-1.5e-4 0.80469-0.625v-0.75c0-0.60253-0.26826-0.625-0.80469-0.625z" color="#000000" fill="#808080"/>
 </g>
</svg>
