<?xml version="1.0" encoding="UTF-8" standalone="no"?>
<!-- Created with Inkscape (http://www.inkscape.org/) -->

<svg
   xmlns:dc="http://purl.org/dc/elements/1.1/"
   xmlns:cc="http://creativecommons.org/ns#"
   xmlns:rdf="http://www.w3.org/1999/02/22-rdf-syntax-ns#"
   xmlns:svg="http://www.w3.org/2000/svg"
   xmlns="http://www.w3.org/2000/svg"
   xmlns:xlink="http://www.w3.org/1999/xlink"
   xmlns:sodipodi="http://sodipodi.sourceforge.net/DTD/sodipodi-0.dtd"
   xmlns:inkscape="http://www.inkscape.org/namespaces/inkscape"
   width="256px"
   height="256px"
   viewBox="0 0 256 256"
   version="1.1"
   id="SVGRoot"
   inkscape:version="0.92.3 (2405546, 2018-03-11)"
   sodipodi:docname="preferences-desktop-font.svg">
  <sodipodi:namedview
     id="base"
     pagecolor="#ffffff"
     bordercolor="#666666"
     borderopacity="1.0"
     inkscape:pageopacity="0.0"
     inkscape:pageshadow="2"
     inkscape:zoom="1.4142136"
     inkscape:cx="130.33791"
     inkscape:cy="121.67842"
     inkscape:document-units="px"
     inkscape:current-layer="layer8"
     showgrid="false"
     inkscape:window-width="1299"
     inkscape:window-height="704"
     inkscape:window-x="67"
     inkscape:window-y="27"
     inkscape:window-maximized="1"
     inkscape:grid-bbox="true"
     inkscape:snap-bbox="true"
     inkscape:snap-page="true"
     inkscape:bbox-paths="true"
     inkscape:snap-bbox-edge-midpoints="true"
     inkscape:bbox-nodes="true"
     inkscape:snap-bbox-midpoints="true" />
  <defs
     id="defs848">
    <clipPath
       clipPathUnits="userSpaceOnUse"
       id="clipPath1082-3">
      <path
         sodipodi:nodetypes="sssssssss"
         inkscape:connector-curvature="0"
         id="path1084-6"
         d="M 361.9375,-212 C 507.2348,-212 528,-191.28677 528,-46.125 V 70.125 C 528,215.28618 507.2348,236 361.9375,236 H 214.0625 C 68.7652,236 48,215.28618 48,70.125 V -46.125 C 48,-191.28677 68.7652,-212 214.0625,-212 Z"
         style="display:inline;opacity:1;fill:#8c59d9;fill-opacity:1;stroke:none;stroke-width:2;stroke-linecap:round;stroke-linejoin:round;stroke-miterlimit:4;stroke-dasharray:none;stroke-dashoffset:0;stroke-opacity:1;enable-background:new" />
    </clipPath>
    <clipPath
       clipPathUnits="userSpaceOnUse"
       id="clipPath1025">
      <path
         style="opacity:1;fill:#8c59d9;fill-opacity:1;stroke:none;stroke-width:2;stroke-linecap:round;stroke-linejoin:round;stroke-miterlimit:4;stroke-dasharray:none;stroke-dashoffset:0;stroke-opacity:1"
         d="M 329.9375,32 C 475.2348,32 496,52.71323 496,197.875 v 116.25 C 496,459.28618 475.2348,480 329.9375,480 H 182.0625 C 36.7652,480 16,459.28618 16,314.125 V 197.875 C 16,52.71323 36.7652,32 182.0625,32 Z"
         id="path1027"
         inkscape:connector-curvature="0"
         sodipodi:nodetypes="sssssssss" />
    </clipPath>
    <clipPath
       clipPathUnits="userSpaceOnUse"
       id="clipPath4277-8">
      <rect
         style="color:#000000;display:inline;overflow:visible;visibility:visible;opacity:0.81999972;fill:#88b637;fill-opacity:1;fill-rule:nonzero;stroke:none;stroke-width:2;stroke-linecap:butt;stroke-linejoin:miter;stroke-miterlimit:4;stroke-dasharray:none;stroke-dashoffset:0;stroke-opacity:1;marker:none;enable-background:accumulate"
         id="rect4279-6"
         width="512"
         height="512"
         x="5.5999999e-07"
         y="0"
         ry="1" />
    </clipPath>
    <linearGradient
       id="linearGradient3650-7-9">
      <stop
         style="stop-color:#5884f4;stop-opacity:1"
         offset="0"
         id="stop4366" />
      <stop
         id="stop4368"
         offset="1"
         style="stop-color:#80a3fa;stop-opacity:1" />
    </linearGradient>
    <filter
       inkscape:collect="always"
       style="color-interpolation-filters:sRGB"
       id="filter929"
       x="-0.0232"
       width="1.0464"
       y="-0.024857143"
       height="1.0497143">
      <feGaussianBlur
         inkscape:collect="always"
         stdDeviation="2.32"
         id="feGaussianBlur931" />
    </filter>
    <filter
       inkscape:collect="always"
       style="color-interpolation-filters:sRGB"
       id="filter4569"
       x="-0.0116"
       width="1.0232"
       y="-0.012428571"
       height="1.024857">
      <feGaussianBlur
         inkscape:collect="always"
         stdDeviation="1.16"
         id="feGaussianBlur4571" />
    </filter>
    <clipPath
       clipPathUnits="userSpaceOnUse"
       id="clipPath1082-3-3">
      <path
         sodipodi:nodetypes="sssssssss"
         inkscape:connector-curvature="0"
         id="path1084-6-5"
         d="M 361.9375,-212 C 507.2348,-212 528,-191.28677 528,-46.125 V 70.125 C 528,215.28618 507.2348,236 361.9375,236 H 214.0625 C 68.7652,236 48,215.28618 48,70.125 V -46.125 C 48,-191.28677 68.7652,-212 214.0625,-212 Z"
         style="display:inline;opacity:1;fill:#8c59d9;fill-opacity:1;stroke:none;stroke-width:2;stroke-linecap:round;stroke-linejoin:round;stroke-miterlimit:4;stroke-dasharray:none;stroke-dashoffset:0;stroke-opacity:1;enable-background:new" />
    </clipPath>
    <clipPath
       clipPathUnits="userSpaceOnUse"
       id="clipPath1082-3-3-6">
      <path
         sodipodi:nodetypes="sssssssss"
         inkscape:connector-curvature="0"
         id="path1084-6-5-2"
         d="M 361.9375,-212 C 507.2348,-212 528,-191.28677 528,-46.125 V 70.125 C 528,215.28618 507.2348,236 361.9375,236 H 214.0625 C 68.7652,236 48,215.28618 48,70.125 V -46.125 C 48,-191.28677 68.7652,-212 214.0625,-212 Z"
         style="display:inline;opacity:1;fill:#8c59d9;fill-opacity:1;stroke:none;stroke-width:2;stroke-linecap:round;stroke-linejoin:round;stroke-miterlimit:4;stroke-dasharray:none;stroke-dashoffset:0;stroke-opacity:1;enable-background:new" />
    </clipPath>
    <linearGradient
       inkscape:collect="always"
       xlink:href="#linearGradient1013"
       id="linearGradient1108"
       x1="296"
       y1="-212"
       x2="296"
       y2="236"
       gradientUnits="userSpaceOnUse" />
    <linearGradient
       id="linearGradient1013"
       inkscape:collect="always">
      <stop
         id="stop1005"
         offset="0"
         style="stop-color:#ffffff;stop-opacity:1;" />
      <stop
         style="stop-color:#ffffff;stop-opacity:0.09803922"
         offset="0.125"
         id="stop1007" />
      <stop
         style="stop-color:#000000;stop-opacity:0.09803922"
         offset="0.92500001"
         id="stop1009" />
      <stop
         id="stop1011"
         offset="1"
         style="stop-color:#000000;stop-opacity:0.49803922" />
    </linearGradient>
    <clipPath
       clipPathUnits="userSpaceOnUse"
       id="clipPath1082-3-36">
      <path
         sodipodi:nodetypes="sssssssss"
         inkscape:connector-curvature="0"
         id="path1084-6-7"
         d="M 361.9375,-212 C 507.2348,-212 528,-191.28677 528,-46.125 V 70.125 C 528,215.28618 507.2348,236 361.9375,236 H 214.0625 C 68.7652,236 48,215.28618 48,70.125 V -46.125 C 48,-191.28677 68.7652,-212 214.0625,-212 Z"
         style="display:inline;opacity:1;fill:#8c59d9;fill-opacity:1;stroke:none;stroke-width:2;stroke-linecap:round;stroke-linejoin:round;stroke-miterlimit:4;stroke-dasharray:none;stroke-dashoffset:0;stroke-opacity:1;enable-background:new" />
    </clipPath>
  </defs>
  <metadata
     id="metadata851">
    <rdf:RDF>
      <cc:Work
         rdf:about="">
        <dc:format>image/svg+xml</dc:format>
        <dc:type
           rdf:resource="http://purl.org/dc/dcmitype/StillImage" />
        <dc:title></dc:title>
      </cc:Work>
    </rdf:RDF>
  </metadata>
  <g
     id="layer1"
     inkscape:groupmode="layer"
     inkscape:label="Icon">
    <g
       inkscape:groupmode="layer"
       id="layer8"
       inkscape:label="Baseplate"
       style="display:none">
      <text
         y="-36.254883"
         xml:space="preserve"
         x="-4.9931641"
         style="font-style:normal;font-variant:normal;font-weight:normal;font-stretch:normal;font-size:18.66666603px;line-height:0%;font-family:Ubuntu;-inkscape-font-specification:Ubuntu;display:inline;fill:#000000;fill-opacity:1;stroke:none;enable-background:new"
         inkscape:label="context"
         id="context"><tspan
           style="font-style:normal;font-variant:normal;font-weight:normal;font-stretch:normal;font-size:18.66666603px;line-height:1.25;font-family:Ubuntu;-inkscape-font-specification:Ubuntu"
           y="-36.254883"
           x="-4.9931641"
           sodipodi:role="line"
           id="tspan3933">categories</tspan></text>
      <text
         y="-36.254883"
         xml:space="preserve"
         x="122.48828"
         style="font-style:normal;font-variant:normal;font-weight:bold;font-stretch:normal;font-size:18.66666603px;line-height:0%;font-family:Ubuntu;-inkscape-font-specification:'Ubuntu Bold';text-align:start;writing-mode:lr-tb;text-anchor:start;display:inline;fill:#000000;fill-opacity:1;stroke:none;enable-background:new"
         inkscape:label="icon-name"
         id="icon-name"><tspan
           style="font-style:normal;font-variant:normal;font-weight:bold;font-stretch:normal;font-size:18.66666603px;line-height:1.25;font-family:Ubuntu;-inkscape-font-specification:'Ubuntu Bold'"
           y="-36.254883"
           x="122.48828"
           sodipodi:role="line"
           id="tspan3937">preferences-desktop-font</tspan></text>
      <rect
         style="display:inline;overflow:visible;visibility:visible;fill:#cdcdcd;fill-opacity:1;fill-rule:nonzero;stroke:none;stroke-width:2;marker:none;enable-background:accumulate"
         id="rect3951"
         width="256"
         height="256"
         x="0"
         y="0"
         inkscape:label="plate" />
    </g>
    <g
       inkscape:groupmode="layer"
       id="layer7"
       inkscape:label="Shadows"
       sodipodi:insensitive="true">
      <path
         style="display:inline;opacity:0.2;fill:#000000;fill-opacity:1;stroke:none;stroke-width:2;stroke-linecap:round;stroke-linejoin:round;stroke-miterlimit:4;stroke-dasharray:none;stroke-dashoffset:0;stroke-opacity:1;filter:url(#filter929);enable-background:new"
         d="m 164.96876,17.999982 c 72.64865,0 83.03125,10.356615 83.03125,82.937508 v 58.125 c 0,72.58059 -10.3826,82.9375 -83.03125,82.9375 H 91.03125 c -72.64865,0 -83.0312498,-10.35691 -83.0312498,-82.9375 v -58.125 c 0,-72.580893 10.3825998,-82.937508 83.0312498,-82.937508 z"
         id="path927"
         inkscape:connector-curvature="0"
         sodipodi:nodetypes="sssssssss" />
      <path
         sodipodi:nodetypes="sssssssss"
         inkscape:connector-curvature="0"
         id="path4567"
         d="m 164.96876,15.999982 c 72.64865,0 83.03125,10.356615 83.03125,82.937504 v 58.125004 c 0,72.58059 -10.3826,82.9375 -83.03125,82.9375 H 91.03125 c -72.64865,0 -83.0312498,-10.35691 -83.0312498,-82.9375 V 98.937486 c 0,-72.580889 10.3825998,-82.937504 83.0312498,-82.937504 z"
         style="display:inline;opacity:0.1;fill:#000000;fill-opacity:1;stroke:none;stroke-width:2;stroke-linecap:round;stroke-linejoin:round;stroke-miterlimit:4;stroke-dasharray:none;stroke-dashoffset:0;stroke-opacity:1;filter:url(#filter4569);enable-background:new" />
    </g>
    <g
       inkscape:groupmode="layer"
       id="layer6"
       inkscape:label="Shape"
       style="display:inline">
      <path
         style="display:inline;opacity:1;fill:#f7f7f7;fill-opacity:1;stroke:none;stroke-width:2;stroke-linecap:round;stroke-linejoin:round;stroke-miterlimit:4;stroke-dasharray:none;stroke-dashoffset:0;stroke-opacity:1;enable-background:new"
         d="M 164.96875,16.000002 C 237.6174,16.000002 248,26.356617 248,98.9375 v 58.125 C 248,229.64309 237.6174,240 164.96875,240 H 91.031248 C 18.3826,240 8,229.64309 8,157.0625 V 98.9375 C 8,26.356617 18.3826,16.000002 91.031248,16.000002 Z"
         id="rect877"
         inkscape:connector-curvature="0"
         sodipodi:nodetypes="sssssssss" />
    </g>
    <g
       inkscape:groupmode="layer"
       id="layer3"
       inkscape:label="Pictogram"
       style="display:inline">
      <path
         inkscape:connector-curvature="0"
         id="path953"
         d="m 97.949818,49.597842 c -4.14331,0 -7.70605,0.28877 -10.68923,0.868834 -2.90031,0.580063 -5.05508,1.201401 -6.4638,1.864331 l 1.1182,7.085251 c 1.07726,-0.414331 2.77598,-0.952033 5.09623,-1.614962 2.32026,-0.66293 5.84315,-0.995498 10.56653,-0.995498 3.314642,0 5.965302,0.53968 7.954082,1.616941 2.07166,0.994394 3.6469,2.362526 4.72416,4.102716 1.16013,1.657325 1.90495,3.563158 2.2364,5.717679 0.33148,2.071655 0.49677,4.224438 0.49677,6.461828 v 3.97803 c -0.33146,-0.16573 -0.95281,-0.33103 -1.86433,-0.49676 -0.82866,-0.2486 -1.86422,-0.45571 -3.10722,-0.62144 -1.16013,-0.2486 -2.4028,-0.41389 -3.72867,-0.49676 -1.24298,-0.16574 -2.44385,-0.24937 -3.60397,-0.24936 -3.894712,0 -7.499262,0.3724 -10.813912,1.11819 -3.31465,0.7458 -6.17439,1.948638 -8.57752,3.605958 -2.40311,1.57446 -4.26712,3.60377 -5.59299,6.08975 -1.32588,2.48599 -1.98903,5.4692 -1.98903,8.94958 0,3.64612 0.57952,6.75479 1.73967,9.32364 1.24298,2.48599 2.89989,4.55711 4.97155,6.21444 2.15452,1.57445 4.64185,2.7335 7.4593,3.47929 2.90032,0.7458 6.04882,1.12019 9.44634,1.12019 2.65172,0 5.220712,-0.12546 7.706692,-0.37406 2.56886,-0.16573 4.88892,-0.41466 6.96057,-0.74613 2.07166,-0.33146 3.89384,-0.62023 5.46831,-0.86883 1.57445,-0.33146 2.77729,-0.62221 3.60596,-0.87082 V 73.339372 c 0,-3.397517 -0.41423,-6.548005 -1.24289,-9.448324 -0.82866,-2.900317 -2.15497,-5.385671 -3.97804,-7.457324 -1.82305,-2.154522 -4.22675,-3.811425 -7.20993,-4.97155 C 105.73874,50.21918 102.176,49.597842 97.949818,49.597842 Z M 144,82 v 87.94616 h 9.43051 l 2.94097,-3.79594 c 5.87942,3.42965 11.75871,5.02103 17.76062,5.02103 17.63827,0 28.04809,-13.10583 28.04809,-30.98908 0,-17.88324 -7.22628,-30.50021 -25.3545,-30.50021 -6.98182,0 -12.73862,1.7165 -17.76063,4.28875 V 82 Z m -43.5644,1.77923 c 3.48037,0 6.21466,0.24893 8.20345,0.74612 1.98879,0.41433 3.43858,0.82856 4.35011,1.2429 v 22.62332 c -1.65733,0.33146 -3.68663,0.62024 -6.08976,0.86883 -2.32024,0.16574 -5.05453,0.24937 -8.203452,0.24937 -2.56885,0 -4.88891,-0.20711 -6.96056,-0.62145 -1.9888,-0.49719 -3.72933,-1.24399 -5.22092,-2.23838 -1.40873,-0.9944 -2.52793,-2.31872 -3.35659,-3.97605 -0.74579,-1.65733 -1.11821,-3.68861 -1.11821,-6.09174 0,-2.73458 0.57953,-4.93117 1.73965,-6.58848 1.16013,-1.65733 2.65173,-2.93985 4.47479,-3.85137 1.82306,-0.9944 3.81252,-1.61772 5.96706,-1.86631 2.15451,-0.33147 4.22564,-0.49676 6.214432,-0.49676 z m 72.71485,38.1515 c 10.53398,0 13.96468,7.59453 13.96468,19.10841 0,11.51387 -5.38917,18.25145 -15.43318,18.25145 -4.89952,0 -9.06474,-1.22414 -12.61689,-4.04137 v -30.0094 c 2.93971,-1.22488 8.69592,-3.30909 14.08539,-3.30909 z m -72.43579,16.73544 c -6.259192,0 -12.019842,0.98067 -17.281682,2.94098 -5.26185,1.96029 -9.80094,4.78088 -13.61835,8.46073 -3.78302,3.67985 -6.74213,8.18479 -8.87438,13.51542 -2.13224,5.33062 -3.19825,11.34924 -3.19825,18.0555 0,4.19572 0.65444,8.01209 1.9613,11.4512 1.30687,3.43912 3.23211,6.37917 5.77706,8.82093 2.54494,2.44178 5.69177,4.33487 9.44041,5.67613 3.74864,1.34125 8.08292,2.01078 13.00085,2.01078 2.30421,0 4.62594,-0.13652 6.96452,-0.41166 2.3386,-0.24073 4.60714,-0.56895 6.808182,-0.98164 2.20102,-0.44708 4.28186,-0.94596 6.24214,-1.49621 1.99469,-0.55026 3.80047,-1.1174 5.41685,-1.70205 l 3.1468,-16.24858 h -3.35262 l -3.71481,10.36862 c -1.06613,0.82538 -2.33891,1.61636 -3.81772,2.37296 -1.47882,0.72221 -3.11196,1.37468 -4.9003,1.95933 -1.753952,0.58465 -3.645072,1.04939 -5.674142,1.3933 -2.02908,0.34391 -4.1099,0.51655 -6.24215,0.51655 -3.67985,0 -6.82668,-0.56713 -9.4404,-1.70204 -2.61373,-1.1349 -4.76283,-2.69979 -6.448,-4.69448 -1.68516,-2.02907 -2.92381,-4.4381 -3.7148,-7.22378 -0.75661,-2.78568 -1.13602,-5.81108 -1.13602,-9.07823 0,-6.05283 0.81002,-11.53846 2.4264,-16.45638 1.61638,-4.91794 3.8508,-9.11371 6.70528,-12.58721 2.88885,-3.47351 6.31072,-6.13852 10.26569,-7.99564 3.95498,-1.89152 8.2722,-2.83806 12.949392,-2.83806 3.30155,0 6.46544,0.41354 9.49186,1.23892 3.02642,0.791 5.60413,1.92527 7.73638,3.40409 v 8.97729 h 3.35461 l 2.32151,-15.11652 c -3.06081,-0.68782 -6.41441,-1.28909 -10.05987,-1.80496 -3.64545,-0.55026 -7.82416,-0.82529 -12.53574,-0.82529 z"
         style="font-style:normal;font-weight:normal;font-size:118.51851654px;line-height:1000%;font-family:sans-serif;letter-spacing:0px;word-spacing:0px;display:inline;fill:#ffffff;fill-opacity:1;stroke:none;stroke-width:3.00239873px;stroke-linecap:butt;stroke-linejoin:miter;stroke-opacity:1;enable-background:new" />
      <path
         style="font-style:normal;font-weight:normal;font-size:118.51851654px;line-height:1000%;font-family:sans-serif;letter-spacing:0px;word-spacing:0px;display:inline;fill:#5d5d5d;fill-opacity:1;stroke:none;stroke-width:3.00239873px;stroke-linecap:butt;stroke-linejoin:miter;stroke-opacity:1;enable-background:new"
         d="m 97.949818,47.597842 c -4.14331,0 -7.70605,0.28877 -10.68923,0.868834 -2.90031,0.580063 -5.05508,1.201401 -6.4638,1.864331 l 1.1182,7.085251 c 1.07726,-0.414331 2.77598,-0.952033 5.09623,-1.614962 2.32026,-0.66293 5.84315,-0.995498 10.56653,-0.995498 3.314642,0 5.965302,0.53968 7.954082,1.616941 2.07166,0.994394 3.6469,2.362526 4.72416,4.102716 1.16013,1.657325 1.90495,3.563158 2.2364,5.717679 0.33148,2.071655 0.49677,4.224438 0.49677,6.461828 v 3.97803 c -0.33146,-0.16573 -0.95281,-0.33103 -1.86433,-0.49676 -0.82866,-0.2486 -1.86422,-0.45571 -3.10722,-0.62144 -1.16013,-0.2486 -2.4028,-0.41389 -3.72867,-0.49676 -1.24298,-0.16574 -2.44385,-0.24937 -3.60397,-0.24936 -3.894712,0 -7.499262,0.3724 -10.813912,1.11819 -3.31465,0.7458 -6.17439,1.94864 -8.57752,3.605958 -2.40311,1.57446 -4.26712,3.60377 -5.59299,6.08975 -1.32588,2.48599 -1.98903,5.4692 -1.98903,8.94958 0,3.64612 0.57952,6.75479 1.73967,9.32364 1.24298,2.48599 2.89989,4.55711 4.97155,6.21444 2.15452,1.57445 4.64185,2.7335 7.4593,3.47929 2.90032,0.7458 6.04882,1.12019 9.44634,1.12019 2.65172,0 5.220712,-0.12546 7.706692,-0.37406 2.56886,-0.16573 4.88892,-0.41466 6.96057,-0.74613 2.07166,-0.33146 3.89384,-0.62023 5.46831,-0.86883 1.57445,-0.33146 2.77729,-0.62221 3.60596,-0.87082 V 71.339368 c 0,-3.397513 -0.41423,-6.548001 -1.24289,-9.44832 -0.82866,-2.900317 -2.15497,-5.385671 -3.97804,-7.457324 -1.82305,-2.154522 -4.22675,-3.811425 -7.20993,-4.97155 C 105.73874,48.21918 102.176,47.597842 97.949818,47.597842 Z M 144,80 v 87.94616 h 9.43051 l 2.94097,-3.79594 c 5.87942,3.42965 11.75871,5.02103 17.76062,5.02103 17.63827,0 28.04809,-13.10583 28.04809,-30.98908 0,-17.88324 -7.22628,-30.50021 -25.3545,-30.50021 -6.98182,0 -12.73862,1.7165 -17.76063,4.28875 V 80 Z m -43.5644,1.77923 c 3.48037,0 6.21466,0.24893 8.20345,0.74612 1.98879,0.41433 3.43858,0.82856 4.35011,1.2429 v 22.62332 c -1.65733,0.33146 -3.68663,0.62024 -6.08976,0.86883 -2.32024,0.16574 -5.05453,0.24937 -8.203452,0.24937 -2.56885,0 -4.88891,-0.20711 -6.96056,-0.62145 -1.9888,-0.49719 -3.72933,-1.24399 -5.22092,-2.23838 -1.40873,-0.9944 -2.52793,-2.31872 -3.35659,-3.97605 -0.74579,-1.65733 -1.11821,-3.68861 -1.11821,-6.09174 0,-2.73458 0.57953,-4.93117 1.73965,-6.58848 1.16013,-1.65733 2.65173,-2.93985 4.47479,-3.85137 1.82306,-0.9944 3.81252,-1.61772 5.96706,-1.86631 2.15451,-0.33147 4.22564,-0.49676 6.214432,-0.49676 z m 72.71485,38.1515 c 10.53398,0 13.96468,7.59453 13.96468,19.10841 0,11.51387 -5.38917,18.25145 -15.43318,18.25145 -4.89952,0 -9.06474,-1.22414 -12.61689,-4.04137 v -30.0094 c 2.93971,-1.22488 8.69592,-3.30909 14.08539,-3.30909 z m -72.43579,16.73544 c -6.259192,0 -12.019842,0.98067 -17.281682,2.94098 -5.26185,1.96029 -9.80094,4.78088 -13.61835,8.46073 -3.78302,3.67985 -6.74213,8.18479 -8.87438,13.51542 -2.13224,5.33062 -3.19825,11.34924 -3.19825,18.0555 0,4.19572 0.65444,8.01209 1.9613,11.4512 1.30687,3.43912 3.23211,6.37917 5.77706,8.82093 2.54494,2.44178 5.69177,4.33487 9.44041,5.67613 3.74864,1.34125 8.08292,2.01078 13.00085,2.01078 2.30421,0 4.62594,-0.13652 6.96452,-0.41166 2.3386,-0.24073 4.60714,-0.56895 6.808182,-0.98164 2.20102,-0.44708 4.28186,-0.94596 6.24214,-1.49621 1.99469,-0.55026 3.80047,-1.1174 5.41685,-1.70205 l 3.1468,-16.24858 h -3.35262 l -3.71481,10.36862 c -1.06613,0.82538 -2.33891,1.61636 -3.81772,2.37296 -1.47882,0.72221 -3.11196,1.37468 -4.9003,1.95933 -1.753952,0.58465 -3.645072,1.04939 -5.674142,1.3933 -2.02908,0.34391 -4.1099,0.51655 -6.24215,0.51655 -3.67985,0 -6.82668,-0.56713 -9.4404,-1.70204 -2.61373,-1.1349 -4.76283,-2.69979 -6.448,-4.69448 -1.68516,-2.02907 -2.92381,-4.4381 -3.7148,-7.22378 -0.75661,-2.78568 -1.13602,-5.81108 -1.13602,-9.07823 0,-6.05283 0.81002,-11.53846 2.4264,-16.45638 1.61638,-4.91794 3.8508,-9.11371 6.70528,-12.58721 2.88885,-3.47351 6.31072,-6.13852 10.26569,-7.99564 3.95498,-1.89152 8.2722,-2.83806 12.949392,-2.83806 3.30155,0 6.46544,0.41354 9.49186,1.23892 3.02642,0.791 5.60413,1.92527 7.73638,3.40409 v 8.97729 h 3.35461 l 2.32151,-15.11652 c -3.06081,-0.68782 -6.41441,-1.28909 -10.05987,-1.80496 -3.64545,-0.55026 -7.82416,-0.82529 -12.53574,-0.82529 z"
         id="text899"
         inkscape:connector-curvature="0" />
    </g>
    <g
       inkscape:groupmode="layer"
       id="layer2"
       inkscape:label="Highlight"
       sodipodi:insensitive="true">
      <path
         sodipodi:nodetypes="sssssssss"
         inkscape:connector-curvature="0"
         id="path1068"
         d="M 361.9375,-212 C 507.2348,-212 528,-191.28677 528,-46.125 V 70.125 C 528,215.28618 507.2348,236 361.9375,236 H 214.0625 C 68.7652,236 48,215.28618 48,70.125 V -46.125 C 48,-191.28677 68.7652,-212 214.0625,-212 Z"
         style="display:inline;opacity:0.4;fill:none;fill-opacity:1;stroke:url(#linearGradient1108);stroke-width:8;stroke-linecap:round;stroke-linejoin:round;stroke-miterlimit:4;stroke-dasharray:none;stroke-dashoffset:0;stroke-opacity:1;enable-background:new"
         clip-path="url(#clipPath1082-3-36)"
         transform="matrix(0.5,0,0,0.5,-16,122)" />
    </g>
  </g>
</svg>
