<svg version="1.1" viewBox="0 0 16 16" xmlns="http://www.w3.org/2000/svg">
 <g fill="#808080" stroke-width=".29542" aria-label="ISO">
  <path d="m-1.7051e-5 12v-1.4241h1.5222v-5.1393h-1.5222l1.7051e-5 -1.4365h4.4313v1.4365h-1.5109v5.1393h1.5109v1.4241z"/>
  <path d="m7.6448 10.724q0.34954 0 0.57506-0.0743 0.23679-0.08669 0.37209-0.22291 0.13531-0.14861 0.18041-0.32198 0.056378-0.18576 0.056378-0.37152 0-0.23529-0.12403-0.42105t-0.31572-0.32198q-0.19169-0.14861-0.42847-0.26006-0.23679-0.12384-0.47358-0.22291-0.31572-0.12384-0.65398-0.28483-0.33827-0.16099-0.62016-0.40867-0.27061-0.24768-0.45102-0.60681-0.18041-0.37152-0.18041-0.91641 0-1.0774 0.63143-1.6842 0.64271-0.60681 1.759-0.60681 0.64271 0 1.1163 0.16099 0.48485 0.16099 0.81184 0.35913l-0.40592 1.1765q-0.28189-0.17337-0.63143-0.29721-0.33827-0.12384-0.78929-0.12384-1.105 0-1.105 0.87926 0 0.22291 0.11276 0.39628 0.11276 0.16099 0.28189 0.29721 0.18041 0.12384 0.39465 0.22291 0.22551 0.099071 0.43975 0.18576 0.32699 0.13622 0.67654 0.3096 0.36082 0.16099 0.65398 0.44582 0.30444 0.27245 0.49613 0.6935 0.19168 0.40867 0.19168 1.0402 0 1.0774-0.64271 1.6718-0.63143 0.58204-1.9281 0.58204-0.86822 0-1.3869-0.19814-0.51868-0.21053-0.77802-0.3839l0.40592-1.2384q0.30444 0.19814 0.72164 0.37152 0.42847 0.17338 1.0374 0.17338z"/>
  <path d="m12.381 8q0 0.55728 0.03383 1.0526 0.0451 0.48297 0.15786 0.84211 0.12403 0.35913 0.33827 0.56966t0.57506 0.21053q0.34954 0 0.56378-0.21053 0.22551-0.21053 0.33827-0.56966 0.12403-0.37152 0.15786-0.85449 0.0451-0.48297 0.0451-1.0402 0-0.55728-0.0451-1.0402-0.03383-0.49536-0.15786-0.85449-0.11276-0.35913-0.32699-0.56966-0.21424-0.21053-0.57506-0.21053t-0.57506 0.21053q-0.21424 0.21053-0.33827 0.58204-0.11276 0.35913-0.15786 0.84211-0.03383 0.48297-0.03383 1.0402zm-1.4094 0q0-1.9814 0.66526-2.9845 0.66526-1.0155 1.8492-1.0155 1.229 0 1.8718 1.0155 0.64271 1.0031 0.64271 2.9845t-0.65398 2.9969q-0.65398 1.0031-1.8492 1.0031-1.229 0-1.883-1.0031-0.64271-1.0155-0.64271-2.9969z"/>
 </g>
</svg>
