<?xml version="1.0" encoding="UTF-8" standalone="no"?>
<svg
   xmlns:dc="http://purl.org/dc/elements/1.1/"
   xmlns:cc="http://creativecommons.org/ns#"
   xmlns:rdf="http://www.w3.org/1999/02/22-rdf-syntax-ns#"
   xmlns:svg="http://www.w3.org/2000/svg"
   xmlns="http://www.w3.org/2000/svg"
   xmlns:sodipodi="http://sodipodi.sourceforge.net/DTD/sodipodi-0.dtd"
   xmlns:inkscape="http://www.inkscape.org/namespaces/inkscape"
   height="16"
   width="16"
   version="1.1"
   id="svg8"
   sodipodi:docname="ac-adapter-symbolic.svg"
   inkscape:version="1.0.2 (e86c870879, 2021-01-15)">
  <metadata
     id="metadata14">
    <rdf:RDF>
      <cc:Work
         rdf:about="">
        <dc:format>image/svg+xml</dc:format>
        <dc:type
           rdf:resource="http://purl.org/dc/dcmitype/StillImage" />
        <dc:title />
      </cc:Work>
    </rdf:RDF>
  </metadata>
  <defs
     id="defs12" />
  <sodipodi:namedview
     pagecolor="#ffffff"
     bordercolor="#666666"
     borderopacity="1"
     objecttolerance="10"
     gridtolerance="10"
     guidetolerance="10"
     inkscape:pageopacity="0"
     inkscape:pageshadow="2"
     inkscape:window-width="1920"
     inkscape:window-height="1043"
     id="namedview10"
     showgrid="true"
     inkscape:zoom="30.5"
     inkscape:cx="8"
     inkscape:cy="8"
     inkscape:window-x="1920"
     inkscape:window-y="0"
     inkscape:window-maximized="1"
     inkscape:current-layer="svg8"
     inkscape:document-rotation="0">
    <inkscape:grid
       type="xygrid"
       id="grid1980" />
  </sodipodi:namedview>
  <path
     d="m 2.25,14.5 2.5,-6 h -1.5 v -5 l -2.5,6 h 1.5 z"
     id="path6"
     style="fill:#808080" />
  <g
     color="#000000"
     fill="#808080"
     id="g837"
     transform="translate(3,1)">
    <path
       d="m 5,13 v -10 h 6 v 10 z"
       overflow="visible"
       style="marker:none"
       id="path833" />
    <path
       d="m 3,12.338 c 0.01,0.839 -0.015,1.451 0.262,1.953 0.138,0.251 0.373,0.45 0.666,0.56 0.292,0.11 0.64,0.149 1.078,0.149 h 5.994 c 0.438,0 0.786,-0.039 1.078,-0.148 0.293,-0.11 0.526,-0.31 0.664,-0.56 0.277,-0.503 0.248,-1.115 0.258,-1.954 v -8.707 c -0.01,-0.839 0.019,-1.453 -0.258,-1.955 a 1.25,1.25 0 0 0 -0.664,-0.559 c -0.292,-0.11 -0.64,-0.117 -1.078,-0.117 h -1 v -1 h -4 v 1 h -0.994 c -0.438,0 -0.786,0.007 -1.078,0.117 -0.293,0.11 -0.528,0.308 -0.666,0.559 -0.277,0.502 -0.252,1.116 -0.262,1.955 v 8.705 z m 1,-0.014 v -8.691 c 0.01,-0.853 0.04,-1.298 0.137,-1.475 a 0.266,0.266 0 0 1 0.142,-0.105 c 0.062,-0.023 0.3,-0.053 0.727,-0.053 h 5.994 c 0.427,0 0.664,0.03 0.727,0.053 a 0.259,0.259 0 0 1 0.14,0.105 c 0.095,0.173 0.123,0.618 0.133,1.475 v 8.705 c -0.01,0.854 -0.038,1.298 -0.133,1.47 -0.016,0.03 -0.055,0.074 -0.14,0.106 -0.123,0.046 -0.349,0.086 -0.727,0.086 h -5.994 c -0.378,0 -0.604,-0.04 -0.727,-0.086 a 0.266,0.266 0 0 1 -0.142,-0.105 c -0.098,-0.178 -0.127,-0.62 -0.137,-1.485 z"
       font-family="sans-serif"
       font-weight="400"
       overflow="visible"
       style="line-height:normal;font-variant-ligatures:none;font-variant-position:normal;font-variant-caps:normal;font-variant-numeric:normal;font-variant-alternates:normal;font-feature-settings:normal;text-indent:0;text-align:start;text-decoration:none;text-decoration-line:none;text-decoration-style:solid;text-decoration-color:#000000;text-transform:none;shape-padding:0;isolation:auto;mix-blend-mode:normal;marker:none"
       white-space="normal"
       id="path835" />
  </g>
</svg>
