<?xml version="1.0" encoding="UTF-8" standalone="no"?>
<svg
   xmlns:dc="http://purl.org/dc/elements/1.1/"
   xmlns:cc="http://creativecommons.org/ns#"
   xmlns:rdf="http://www.w3.org/1999/02/22-rdf-syntax-ns#"
   xmlns:svg="http://www.w3.org/2000/svg"
   xmlns="http://www.w3.org/2000/svg"
   xmlns:sodipodi="http://sodipodi.sourceforge.net/DTD/sodipodi-0.dtd"
   xmlns:inkscape="http://www.inkscape.org/namespaces/inkscape"
   height="16"
   width="16"
   version="1.1"
   id="svg8"
   sodipodi:docname="auth-smartcard-symbolic.svg"
   inkscape:version="1.0.2 (e86c870879, 2021-01-15)">
  <g
     id="g842"
     style="fill:#808080;fill-opacity:1">
    <g
       color="#000"
       font-weight="400"
       font-family="sans-serif"
       white-space="normal"
       fill="gray"
       id="g6"
       style="fill:#808080;fill-opacity:1">
      <path
         d="M 3.994,3 C 2.736,3.015 1.817,2.97 1.065,3.385 0.67561484,3.6071175 0.37841405,3.9610631 0.227,4.383 0.062,4.822 0.0022628,5.3430001 0.002,6 L 0,11 c -2.6319998e-4,0.658 0.06,1.179 0.225,1.617 0.164,0.439 0.461,0.79 0.838,0.998 0.752,0.416 1.673,0.37 2.931,0.385 h 7.012 c 1.258,-0.014 2.179,0.03 2.932,-0.385 0.389385,-0.222117 0.686586,-0.576063 0.838,-0.998 C 14.94,12.179 14.999737,11.657 15,11 L 15.002,6 C 15.002263,5.3420001 14.942,4.822 14.777,4.383 14.625837,3.9612236 14.329009,3.6073004 13.94,3.385 13.187,2.969 12.266,3.015 11.008,3 H 4 Z m 0.008,1 h 7 c 1.259,0.015 2.087,0.06 2.453,0.262 0.184,0.101 0.29,0.213 0.387,0.472 0.097,0.26 0.160237,0.674 0.16,1.266 L 14,11 c -2.37e-4,0.592 -0.063,1.006 -0.16,1.266 -0.098,0.26 -0.203,0.371 -0.387,0.472 C 13.087,12.94 12.259,12.985 11,13 H 4 C 2.742,12.985 1.913,12.94 1.547,12.738 1.364,12.638 1.257,12.526 1.16,12.266 1.063,12.006 0.9997632,11.592 1,11 L 1.002,6 C 1.0022368,5.408 1.065,4.994 1.162,4.734 1.26,4.474 1.366,4.363 1.549,4.262 1.915,4.06 2.744,4.015 4.002,4 Z"
         style="line-height:normal;font-variant-ligatures:normal;font-variant-position:normal;font-variant-caps:normal;font-variant-numeric:normal;font-variant-alternates:normal;font-feature-settings:normal;text-indent:0;text-align:start;text-decoration:none;text-decoration-line:none;text-decoration-style:solid;text-decoration-color:#000000;text-transform:none;text-orientation:mixed;shape-padding:0;isolation:auto;mix-blend-mode:normal;marker:none;fill:#808080;fill-opacity:1"
         overflow="visible"
         id="path2"
         sodipodi:nodetypes="cccssccccccsscccccccccsscccccssscsc" />
    </g>
    <path
       id="path837"
       style="color:#000000;font-style:normal;font-variant:normal;font-weight:normal;font-stretch:normal;font-size:medium;line-height:normal;font-family:sans-serif;text-indent:0;text-align:start;text-decoration:none;text-decoration-line:none;text-decoration-style:solid;text-decoration-color:#000000;letter-spacing:normal;word-spacing:normal;text-transform:none;writing-mode:lr-tb;direction:ltr;baseline-shift:baseline;text-anchor:start;white-space:normal;clip-rule:nonzero;display:inline;overflow:visible;visibility:visible;isolation:auto;mix-blend-mode:normal;color-interpolation:sRGB;color-interpolation-filters:linearRGB;solid-color:#000000;solid-opacity:1;fill:#808080;fill-opacity:1;fill-rule:nonzero;stroke:none;stroke-width:0.555557;stroke-linecap:butt;stroke-linejoin:miter;stroke-miterlimit:4;stroke-dasharray:none;stroke-dashoffset:0;stroke-opacity:1;marker:none;color-rendering:auto;image-rendering:auto;shape-rendering:auto;text-rendering:auto;enable-background:accumulate"
       d="M 3.1962937,7 C 2.8659696,7.0038375 2.6093369,6.9800137 2.3548216,7.1204426 2.227564,7.1906514 2.1215064,7.3174121 2.0683626,7.4589847 2.015225,7.6005582 2,7.7532814 2,7.9358732 v 3.1282588 c 0,0.18259 0.015213,0.335316 0.068363,0.476889 0.053138,0.141574 0.1592014,0.268328 0.286459,0.338541 C 2.6093369,12.01999 2.8659684,11.996187 3.1962937,12 h 0.00162 2.6057964 0.00162 c 0.330324,-0.0039 0.5853305,0.01999 0.8398458,-0.120438 0.1272576,-0.07021 0.2333152,-0.196969 0.2864578,-0.338541 0.05315,-0.141573 0.068363,-0.476889 0.068363,-0.476889 V 7.9358733 c 0,-0.1825918 -0.015213,-0.3353151 -0.068363,-0.4768885 C 6.8785086,7.3174122 6.7724485,7.1906571 6.6451909,7.1204427 6.3906756,6.9800152 6.1356704,7.0038166 5.8053451,7 H 5.8037201 3.1979237 Z M 3.3183688,7.8333342 H 3.6666767 V 8.6666683 H 2.8333421 V 8.1181652 c 0,-0.1097688 0.012513,-0.1798919 0.024412,-0.2115888 0.011875,-0.0317 0.011,-0.027508 0.026038,-0.035808 0.030088,-0.0166 0.1846002,-0.034548 0.4345717,-0.037435 z m 0.7649745,0 H 4.9166779 V 8.6666683 H 4.0833433 Z m 1.2500013,0 h 0.3483078 c 0.2499703,0.00288 0.4044879,0.020835 0.4345705,0.037435 0.015038,0.0083 0.014137,0.00413 0.026037,0.035808 0.011875,0.0317 0.024413,0.1018201 0.024413,0.2115884 V 9.916669 H 2.8333371 V 9.083335 H 5.3333396 V 8.6666683 Z M 2.8333421,10.333337 H 3.6666767 V 11.16667 H 3.3183688 c -0.249969,-0.0029 -0.4044879,-0.02084 -0.4345704,-0.03744 -0.015038,-0.0084 -0.014137,-0.0041 -0.026037,-0.03581 -0.011875,-0.0317 -0.024413,-0.101825 -0.024413,-0.211589 z m 1.2500012,0 H 4.9166779 V 11.16667 H 4.0833433 Z m 1.2500013,0 h 0.8333346 v 0.548503 c 0,0.109775 -0.012512,0.179892 -0.024413,0.211589 -0.011875,0.03169 -0.011,0.02751 -0.026038,0.03581 -0.030087,0.0166 -0.1846002,0.03455 -0.4345704,0.03744 H 5.3333496 Z" />
    <rect
       style="opacity:1;fill:#808080;fill-rule:evenodd;stroke-width:0.745729;fill-opacity:1"
       id="rect854"
       width="5"
       height="1"
       x="8"
       y="9" />
    <rect
       style="fill:#808080;fill-rule:evenodd;stroke-width:0.692179;fill-opacity:1"
       id="rect835"
       width="14"
       height="1"
       x="0.5"
       y="5" />
  </g>
  <metadata
     id="metadata14">
    <rdf:RDF>
      <cc:Work
         rdf:about="">
        <dc:format>image/svg+xml</dc:format>
        <dc:type
           rdf:resource="http://purl.org/dc/dcmitype/StillImage" />
        <dc:title />
      </cc:Work>
    </rdf:RDF>
  </metadata>
  <defs
     id="defs12" />
  <sodipodi:namedview
     pagecolor="#ffffff"
     bordercolor="#666666"
     borderopacity="1"
     objecttolerance="10"
     gridtolerance="10"
     guidetolerance="10"
     inkscape:pageopacity="0"
     inkscape:pageshadow="2"
     inkscape:window-width="1366"
     inkscape:window-height="704"
     id="namedview10"
     showgrid="true"
     inkscape:zoom="20.38"
     inkscape:cx="10.453283"
     inkscape:cy="7.5961936"
     inkscape:window-x="0"
     inkscape:window-y="27"
     inkscape:window-maximized="1"
     inkscape:current-layer="svg8"
     inkscape:document-rotation="0">
    <inkscape:grid
       type="xygrid"
       id="grid839" />
  </sodipodi:namedview>
</svg>
