<?xml version="1.0" encoding="UTF-8" standalone="no"?>
<svg
   xmlns:dc="http://purl.org/dc/elements/1.1/"
   xmlns:cc="http://creativecommons.org/ns#"
   xmlns:rdf="http://www.w3.org/1999/02/22-rdf-syntax-ns#"
   xmlns:svg="http://www.w3.org/2000/svg"
   xmlns="http://www.w3.org/2000/svg"
   xmlns:sodipodi="http://sodipodi.sourceforge.net/DTD/sodipodi-0.dtd"
   xmlns:inkscape="http://www.inkscape.org/namespaces/inkscape"
   height="16"
   width="16"
   version="1.1"
   id="svg8"
   sodipodi:docname="pda-symbolic.svg"
   inkscape:version="1.0.2 (e86c870879, 2021-01-15)">
  <metadata
     id="metadata14">
    <rdf:RDF>
      <cc:Work
         rdf:about="">
        <dc:format>image/svg+xml</dc:format>
        <dc:type
           rdf:resource="http://purl.org/dc/dcmitype/StillImage" />
        <dc:title />
      </cc:Work>
    </rdf:RDF>
  </metadata>
  <defs
     id="defs12" />
  <sodipodi:namedview
     pagecolor="#ffffff"
     bordercolor="#666666"
     borderopacity="1"
     objecttolerance="10"
     gridtolerance="10"
     guidetolerance="10"
     inkscape:pageopacity="0"
     inkscape:pageshadow="2"
     inkscape:window-width="1920"
     inkscape:window-height="1043"
     id="namedview10"
     showgrid="true"
     inkscape:zoom="32.000002"
     inkscape:cx="6.315919"
     inkscape:cy="12.638955"
     inkscape:window-x="1920"
     inkscape:window-y="0"
     inkscape:window-maximized="1"
     inkscape:current-layer="svg8"
     inkscape:document-rotation="0">
    <inkscape:grid
       type="xygrid"
       id="grid925" />
  </sodipodi:namedview>
  <path
     color="#000000"
     d="m 2.6977288,1 c -0.8360446,0.01 -1.4458891,-0.015 -1.94612075,0.262 -0.2501159,0.138 -0.448415,0.374 -0.5580275,0.666 -0.1096126,0.292 -0.14567341,0.640009 -0.1484752,1.078 l -0.044473,6.952268 c -2.6694269e-4,0.04173 -0.0184546,0.04173 0.2678145,0.04173 h 0.4502774 c 0.62143925,0 1.14295995,-0.01 1.97900455,0 h 9.6760102 c 0.836045,-0.01 1.108749,0 1.759997,0 h 0.853764 c 0.0092,-0.354472 0.0182,-1.5398171 0.008,-2 v -1 0 -3 0 -0.994 c 0,-0.438 -0.007,-0.786 -0.116588,-1.078 -0.10964,-0.292 -0.306943,-0.528 -0.557059,-0.666 -0.500232,-0.277 -1.112069,-0.252 -1.948114,-0.262 h -9.6740172 z m 0.013951,1 h 9.6600661 c 0.849996,0.01 1.293428,0.04 1.469805,0.137 0.0279,0.016 0.07274,0.057 0.10463,0.143 0.02292,0.06 0.05281,0.298 0.05281,0.726 v 4.994 c 0,0.428 -0.02989,0.664 -0.05281,0.727 -0.03189,0.085 -0.07673,0.125 -0.10463,0.14 -0.172391,0.095 -0.615823,0.123 -1.469805,0.133 h -9.6740171 c -0.8509919,-0.01 -1.293428,-0.038 -1.4648221,-0.133 -0.029894,-0.015 -0.073739,-0.055 -0.1056267,-0.14 -0.045838,-0.123 -0.085697,-0.349 -0.085697,-0.727 v -4.994 c 0,-0.378 0.039859,-0.604 0.085697,-0.726 0.031887,-0.086 0.076729,-0.127 0.1046302,-0.143 0.177373,-0.098 0.6178161,-0.126 1.4797696,-0.137 z"
     font-family="sans-serif"
     font-weight="400"
     overflow="visible"
     style="line-height:normal;font-variant-ligatures:none;font-variant-position:normal;font-variant-caps:normal;font-variant-numeric:normal;font-variant-alternates:normal;font-feature-settings:normal;text-indent:0;text-align:start;text-decoration:none;text-decoration-line:none;text-decoration-style:solid;text-decoration-color:#000000;text-transform:none;shape-padding:0;isolation:auto;mix-blend-mode:normal;fill:#808080;fill-opacity:1;stroke-width:0.998237;marker:none"
     white-space="normal"
     id="path4-3"
     sodipodi:nodetypes="ccssscccccccccccssccccccccssccccccssccc" />
  <path
     id="path4-3-6"
     style="line-height:normal;font-variant-ligatures:none;font-variant-position:normal;font-variant-caps:normal;font-variant-numeric:normal;font-variant-alternates:normal;font-feature-settings:normal;text-indent:0;text-align:start;text-decoration:none;text-decoration-line:none;text-decoration-style:solid;text-decoration-color:#000000;text-transform:none;shape-padding:0;isolation:auto;mix-blend-mode:normal;fill:#808080;fill-opacity:1;marker:none"
     d="m 3.2015e-4,8.0127964 5e-7,3.9999996 c 5.488e-8,0.439 0.03944,0.784172 0.148437,1.076172 0.11,0.293 0.308594,0.526062 0.558594,0.664062 0.50299995,0.277 1.11607805,0.249766 1.95507805,0.259766 h 9.7067103 c 0.839,-0.01 1.453078,0.01823 1.955078,-0.259766 0.259663,-0.147459 0.457553,-0.383064 0.558594,-0.664062 0.11,-0.292 0.06319,-0.641172 0.117188,-1.076172 v -3.9999996 c -0.204389,0.0069 -0.234141,0.00641 -0.438477,0.011214 -0.0817,0.0019 -0.198157,-0.020409 -0.279876,-0.020309 -0.0475,9.99e-5 -0.234129,0.00903 -0.281647,0.00909 v 3.9999996 c 0,0.428 -0.02974,0.663562 -0.05273,0.726562 -0.032,0.085 -0.07747,0.123672 -0.105469,0.138672 -0.173,0.095 -0.617609,0.124766 -1.474609,0.134766 h -9.7047574 c -0.854,-0.01 -1.298703,-0.03977 -1.470703,-0.134766 -0.03,-0.015 -0.07347,-0.05367 -0.105469,-0.138672 -0.046,-0.123 -0.08594,-0.348562 -0.08594,-0.726562 l -2.5e-6,-3.9999946 c -0.16061195,0 -0.34371165,-0.013654 -0.46743465,-0.012754 -0.346586,0.0025 -0.2934923,0.012754 -0.5325653,0.012754 z"
     sodipodi:nodetypes="csccccccccsscsccccccscsc" />
  <rect
     style="color:#000000;display:inline;overflow:visible;visibility:visible;fill:#808080;fill-opacity:1;fill-rule:nonzero;stroke:none;stroke-width:1.33333;stroke-linecap:butt;stroke-linejoin:miter;stroke-miterlimit:4;stroke-dasharray:none;stroke-dashoffset:0;stroke-opacity:1;marker:none;enable-background:accumulate"
     id="rect4182-9"
     width="1"
     height="1"
     x="5"
     y="11" />
  <rect
     style="color:#000000;display:inline;overflow:visible;visibility:visible;fill:#808080;fill-opacity:1;fill-rule:nonzero;stroke:none;stroke-width:1.33333;stroke-linecap:butt;stroke-linejoin:miter;stroke-miterlimit:4;stroke-dasharray:none;stroke-dashoffset:0;stroke-opacity:1;marker:none;enable-background:accumulate"
     id="rect4182-36"
     width="1"
     height="1"
     x="7"
     y="11" />
  <rect
     style="color:#000000;display:inline;overflow:visible;visibility:visible;fill:#808080;fill-opacity:1;fill-rule:nonzero;stroke:none;stroke-width:1.33333;stroke-linecap:butt;stroke-linejoin:miter;stroke-miterlimit:4;stroke-dasharray:none;stroke-dashoffset:0;stroke-opacity:1;marker:none;enable-background:accumulate"
     id="rect4182-06"
     width="1"
     height="1"
     x="9"
     y="11" />
  <rect
     style="color:#000000;display:inline;overflow:visible;visibility:visible;fill:#808080;fill-opacity:1;fill-rule:nonzero;stroke:none;stroke-width:1.33333;stroke-linecap:butt;stroke-linejoin:miter;stroke-miterlimit:4;stroke-dasharray:none;stroke-dashoffset:0;stroke-opacity:1;marker:none;enable-background:accumulate"
     id="rect4182-2"
     width="1"
     height="1"
     x="11"
     y="11" />
  <rect
     style="color:#000000;display:inline;overflow:visible;visibility:visible;fill:#808080;fill-opacity:1;fill-rule:nonzero;stroke:none;stroke-width:2.04125;stroke-linecap:butt;stroke-linejoin:miter;stroke-miterlimit:4;stroke-dasharray:none;stroke-dashoffset:0;stroke-opacity:1;marker:none;enable-background:accumulate"
     id="rect4180-1"
     width="11"
     height="5"
     x="2"
     y="3" />
  <rect
     style="color:#000000;display:inline;overflow:visible;visibility:visible;fill:#808080;fill-opacity:1;fill-rule:nonzero;stroke:none;stroke-width:1.33333;stroke-linecap:butt;stroke-linejoin:miter;stroke-miterlimit:4;stroke-dasharray:none;stroke-dashoffset:0;stroke-opacity:1;marker:none;enable-background:accumulate"
     id="rect849"
     width="1"
     height="1"
     x="3"
     y="11" />
</svg>
