<?xml version="1.0" encoding="UTF-8" standalone="no"?>
<!DOCTYPE svg PUBLIC "-//W3C//DTD SVG 1.1//EN" "http://www.w3.org/Graphics/SVG/1.1/DTD/svg11.dtd">
<svg width="100%" height="100%" viewBox="0 0 16 16" version="1.1" xmlns="http://www.w3.org/2000/svg" xmlns:xlink="http://www.w3.org/1999/xlink" xml:space="preserve" xmlns:serif="http://www.serif.com/" style="fill-rule:evenodd;clip-rule:evenodd;stroke-linecap:round;stroke-linejoin:round;stroke-miterlimit:1.5;">
    <path d="M3,3L8,5L8,8L3,3Z" style="fill:rgb(128,128,128);fill-rule:nonzero;"/>
    <path d="M7.8,9.2L4,13L6.533,7.933L7.8,9.2Z" style="fill:rgb(128,128,128);fill-rule:nonzero;"/>
    <path d="M9,6L9,8L10.429,6.571L9,6Z" style="fill:rgb(128,128,128);fill-rule:nonzero;"/>
    <path d="M9,5L12.5,5L13,6.6L9,5Z" style="fill:rgb(128,128,128);fill-rule:nonzero;"/>
    <path d="M14.5,2C14.5,1.172 13.828,0.5 13,0.5L3,0.5C2.172,0.5 1.5,1.172 1.5,2L1.5,14C1.5,14.828 2.172,15.5 3,15.5L13,15.5C13.828,15.5 14.5,14.828 14.5,14L14.5,2Z" style="fill:none;stroke:rgb(128,128,128);stroke-width:1px;"/>
</svg>
