<?xml version="1.0" encoding="UTF-8" standalone="no"?>
<svg
   xmlns:dc="http://purl.org/dc/elements/1.1/"
   xmlns:cc="http://creativecommons.org/ns#"
   xmlns:rdf="http://www.w3.org/1999/02/22-rdf-syntax-ns#"
   xmlns:svg="http://www.w3.org/2000/svg"
   xmlns="http://www.w3.org/2000/svg"
   xmlns:sodipodi="http://sodipodi.sourceforge.net/DTD/sodipodi-0.dtd"
   xmlns:inkscape="http://www.inkscape.org/namespaces/inkscape"
   height="16"
   width="16"
   version="1.1"
   id="svg4"
   sodipodi:docname="application-rss+xml-symbolic.svg"
   inkscape:version="1.0.2 (e86c870879, 2021-01-15)">
  <metadata
     id="metadata10">
    <rdf:RDF>
      <cc:Work
         rdf:about="">
        <dc:format>image/svg+xml</dc:format>
        <dc:type
           rdf:resource="http://purl.org/dc/dcmitype/StillImage" />
        <dc:title></dc:title>
      </cc:Work>
    </rdf:RDF>
  </metadata>
  <defs
     id="defs8" />
  <sodipodi:namedview
     pagecolor="#ffffff"
     bordercolor="#666666"
     borderopacity="1"
     objecttolerance="10"
     gridtolerance="10"
     guidetolerance="10"
     inkscape:pageopacity="0"
     inkscape:pageshadow="2"
     inkscape:window-width="1366"
     inkscape:window-height="704"
     id="namedview6"
     showgrid="true"
     inkscape:zoom="15.25"
     inkscape:cx="-3.8373778"
     inkscape:cy="14.155139"
     inkscape:window-x="0"
     inkscape:window-y="0"
     inkscape:window-maximized="1"
     inkscape:current-layer="svg4"
     inkscape:document-rotation="0">
    <inkscape:grid
       type="xygrid"
       id="grid886" />
  </sodipodi:namedview>
  <path
     id="path113-3-6-7-5"
     font-weight="700"
     font-size="13.59"
     d="m 1.089978,13.463261 c 0,-0.431144 0.14803,-0.793492 0.447001,-1.084458 a 1.4812016,1.4812016 0 0 1 1.087106,-0.444352 c 0.4205375,0 0.774973,0.148184 1.0659229,0.444352 0.29623,0.290966 0.4443682,0.653314 0.4443682,1.084458 A 1.4653316,1.4653316 0 0 1 3.6900079,14.537128 1.4494616,1.4494616 0 0 1 2.624085,14.973553 1.4944265,1.4944265 0 0 1 1.536979,14.537128 1.4494616,1.4494616 0 0 1 1.089978,13.463261 M 1.002648,6.5597904 V 9.104293 c 3.2480626,0 5.8851462,2.642349 5.8851462,5.895707 H 9.4375463 C 9.4375463,10.339506 5.6552135,6.5624537 1,6.5624537 Z M 1.005748,1 V 3.811638 A 11.185718,11.185718 0 0 1 12.178234,15 h 2.819581 A 14.002644,14.002644 0 0 0 1.005666,1 Z"
     style="font-weight:700;font-size:13.59px;display:inline;fill:#808080;fill-opacity:1;stroke-width:2.645;enable-background:new"
     inkscape:connector-curvature="0" />
</svg>
