<?xml version="1.0" encoding="UTF-8" standalone="no"?>
<!DOCTYPE svg PUBLIC "-//W3C//DTD SVG 1.1//EN" "http://www.w3.org/Graphics/SVG/1.1/DTD/svg11.dtd">
<svg width="100%" height="100%" viewBox="0 0 16 16" version="1.1" xmlns="http://www.w3.org/2000/svg" xmlns:xlink="http://www.w3.org/1999/xlink" xml:space="preserve" xmlns:serif="http://www.serif.com/" style="fill-rule:evenodd;clip-rule:evenodd;stroke-linecap:round;stroke-linejoin:round;stroke-miterlimit:1.5;">
    <path d="M14.5,2C14.5,1.172 13.828,0.5 13,0.5L3,0.5C2.172,0.5 1.5,1.172 1.5,2L1.5,14C1.5,14.828 2.172,15.5 3,15.5L13,15.5C13.828,15.5 14.5,14.828 14.5,14L14.5,2Z" style="fill:none;stroke:rgb(128,128,128);stroke-width:1px;"/>
    <rect id="path1082" x="4.25" y="6.563" width="4" height="1" style="fill:rgb(153,153,153);fill-rule:nonzero;"/>
    <rect id="path1078" x="4.25" y="2.563" width="8" height="1" style="fill:rgb(153,153,153);fill-rule:nonzero;"/>
    <rect id="path1080" x="4.25" y="4.563" width="8" height="1" style="fill:rgb(153,153,153);fill-rule:nonzero;"/>
    <path d="M6.754,10.951C6.575,11.26 6.371,11.579 6.146,11.88C5.494,12.749 4.656,13.438 3.75,13.438C3.543,13.438 3.375,13.269 3.375,13.063C3.375,12.856 3.543,12.688 3.75,12.688C4.445,12.688 5.046,12.096 5.546,11.429C6.379,10.319 6.899,8.931 6.899,8.931C6.966,8.753 7.155,8.653 7.34,8.698C7.524,8.744 7.646,8.92 7.622,9.109C7.479,10.251 7.457,11.05 7.558,11.532C7.579,11.629 7.603,11.71 7.636,11.773C7.645,11.791 7.663,11.814 7.671,11.825C7.687,11.821 7.733,11.808 7.765,11.792C7.836,11.756 7.913,11.703 7.996,11.635C8.384,11.318 8.866,10.713 9.438,9.854C9.535,9.709 9.72,9.65 9.884,9.712C10.047,9.775 10.146,9.942 10.121,10.116C10.005,10.929 9.998,11.511 10.085,11.903C10.137,12.139 10.201,12.289 10.341,12.324C10.47,12.356 10.622,12.305 10.792,12.223C11.158,12.049 11.57,11.712 11.985,11.297C12.131,11.151 12.369,11.151 12.515,11.297C12.662,11.444 12.662,11.681 12.515,11.828C12.03,12.313 11.542,12.696 11.116,12.9C10.758,13.071 10.43,13.119 10.159,13.051C9.854,12.975 9.594,12.764 9.435,12.347C9.344,12.107 9.288,11.78 9.28,11.352C8.876,11.858 8.525,12.205 8.238,12.385C7.937,12.574 7.672,12.609 7.459,12.548C7.233,12.483 7.029,12.307 6.903,11.965C6.818,11.734 6.766,11.397 6.754,10.951Z" style="fill:url(#_Linear1);"/>
    <defs>
        <linearGradient id="_Linear1" x1="0" y1="0" x2="1" y2="0" gradientUnits="userSpaceOnUse" gradientTransform="matrix(-10.5,1.5,-1.5,-10.5,14.25,11.5625)"><stop offset="0" style="stop-color:rgb(128,128,128);stop-opacity:1"/><stop offset="1" style="stop-color:rgb(128,128,128);stop-opacity:0.5"/></linearGradient>
    </defs>
</svg>
