<?xml version="1.0" encoding="UTF-8" standalone="no"?>
<!DOCTYPE svg PUBLIC "-//W3C//DTD SVG 1.1//EN" "http://www.w3.org/Graphics/SVG/1.1/DTD/svg11.dtd">
<svg width="100%" height="100%" viewBox="0 0 16 16" version="1.1" xmlns="http://www.w3.org/2000/svg" xmlns:xlink="http://www.w3.org/1999/xlink" xml:space="preserve" xmlns:serif="http://www.serif.com/" style="fill-rule:evenodd;clip-rule:evenodd;stroke-linecap:round;stroke-linejoin:round;stroke-miterlimit:1.5;">
    <g>
        <path d="M1.5,2C1.5,1.602 1.658,1.221 1.939,0.939C2.221,0.658 2.602,0.5 3,0.5C5.56,0.5 10.5,0.5 10.5,0.5L10.5,4.5L14.5,4.5L14.5,14C14.5,14.398 14.342,14.779 14.061,15.061C13.779,15.342 13.398,15.5 13,15.5C10.498,15.5 5.502,15.5 3,15.5C2.602,15.5 2.221,15.342 1.939,15.061C1.658,14.779 1.5,14.398 1.5,14C1.5,11.126 1.5,4.874 1.5,2Z" style="fill:none;stroke:rgb(128,128,128);stroke-width:1px;"/>
        <path d="M10.5,0.5L10.5,4.5L14.5,4.5L10.5,0.5Z" style="fill:none;stroke:rgb(128,128,128);stroke-width:1px;"/>
    </g>
    <path d="M9.5,14C9.5,14 9.5,15 9.5,12C9.5,11 8.75,10.5 8,10.5C7.25,10.5 6.5,11 6.5,12C6.5,15 6.5,14 6.5,14L6.5,8" style="fill:none;stroke:rgb(128,128,128);stroke-width:1px;stroke-linecap:butt;stroke-linejoin:bevel;"/>
</svg>
