<svg version="1.1" viewBox="0 0 16 16" xmlns="http://www.w3.org/2000/svg">
 <g transform="translate(-512 -220)" fill="#808080">
  <g shape-rendering="auto">
   <path transform="translate(512,220)" d="m4.9902 0c-1.2582 0.0145-2.1789-0.030604-2.9316 0.38477-0.37637 0.20766-0.67323 0.55939-0.83789 0.99805-0.16467 0.43867-0.22461 0.95957-0.22461 1.6172v10c0 0.65761 0.059899 1.1786 0.22461 1.6172 0.16468 0.43861 0.46153 0.78852 0.83789 0.99609 0.75272 0.41513 1.6735 0.37165 2.9316 0.38672h0.0019531 5.0059 0.0019531v-1c-0.0015672 1.9e-5 -0.0023355-1.8e-5 -0.0039062 0h-4.9941-0.0058593c-1.2586-0.0152-2.0891-0.059899-2.4551-0.26172-0.18342-0.10116-0.28723-0.21286-0.38477-0.47266-0.09755-0.25979-0.16016-0.67326-0.16016-1.2656v-10c0-0.59239 0.062596-1.0057 0.16016-1.2656 0.0976-0.25991 0.20331-0.37147 0.38672-0.47266 0.36595-0.20191 1.1946-0.24702 2.4531-0.26172h5c0.40433 0.004883 0.68915 0.023859 1.0039 0.039062v8.9609h1v-8.875c0.18546 0.035331 0.34419 0.077724 0.45117 0.13672 0.18342 0.10116 0.28722 0.21286 0.38477 0.47266 0.097408 0.25979 0.16016 0.67326 0.16016 1.2656v7h1v-7c0-0.65761-0.0599-1.1786-0.22461-1.6172-0.16468-0.43861-0.46153-0.78852-0.83789-0.99609-0.75272-0.41513-1.6736-0.37165-2.9316-0.38672h-0.001953-5.0059-0.0039062z" style="font-feature-settings:normal;font-variant-alternates:normal;font-variant-caps:normal;font-variant-ligatures:normal;font-variant-numeric:normal;font-variant-position:normal;isolation:auto;mix-blend-mode:normal;shape-padding:0;text-decoration-color:#000000;text-decoration-line:none;text-decoration-style:solid;text-indent:0;text-orientation:mixed;text-transform:none;white-space:normal"/>
   <path d="m519 224c-0.2827 0-0.55149 0.055-0.79883 0.16602-0.24589 0.10564-0.46511 0.26009-0.64648 0.46093v2e-3l-2e-3 2e-3c-0.17671 0.20179-0.31228 0.44348-0.4082 0.71875-0.0977 0.2754-0.14449 0.57752-0.14449 0.9003 0 0.32721 0.0466 0.63217 0.14453 0.9082 0.0962 0.2711 0.23192 0.50964 0.4082 0.71094l2e-3 2e-3c0.18095 0.20039 0.3978 0.35832 0.64258 0.46875l2e-3 2e-3h2e-3c0.24681 0.10566 0.51657 0.1582 0.79883 0.1582 0.2822 0 0.54985-0.0525 0.79688-0.1582v-2e-3c0.24456-0.11033 0.45811-0.26764 0.63476-0.46875 0.18153-0.20133 0.32146-0.4407 0.41797-0.71289 0.0983-0.27603 0.14453-0.58101 0.14453-0.9082h6e-3c0-0.32242-0.047-0.62322-0.14453-0.89844-0.0961-0.27645-0.23607-0.52072-0.41797-0.72265-0.17708-0.20175-0.39299-0.35724-0.63867-0.46289-0.24807-0.11037-0.51621-0.16607-0.79911-0.16607zm0 1c0.55228 0 1 0.55964 1 1.25s-0.44772 1.25-1 1.25-1-0.55964-1-1.25 0.44772-1.25 1-1.25z" color="#000000" color-rendering="auto" dominant-baseline="auto" image-rendering="auto" solid-color="#000000" style="font-feature-settings:normal;font-variant-alternates:normal;font-variant-caps:normal;font-variant-ligatures:normal;font-variant-numeric:normal;font-variant-position:normal;isolation:auto;mix-blend-mode:normal;shape-padding:0;text-decoration-color:#000000;text-decoration-line:none;text-decoration-style:solid;text-indent:0;text-orientation:mixed;text-transform:none;white-space:normal"/>
   <path d="m519 229v2e-3c-2.9979 8e-3 -3 1.998-3 1.998-1.6e-4 0.99805 1e-3 0.4466 0 0.99805 0.5 1e-3 1.7499 2e-3 3 2e-3s2.5-3e-3 3-4e-3c-1e-3 -0.55145 1.6e-4 1e-5 0-0.99804 0 0-2e-3 -1.99-3-1.998zm0 1.002c1.9972 4e-3 1.8926 0.99024 1.8926 0.99024 1e-3 2e-3 1e-3 6e-3 2e-3 8e-3h-3.7891c6.6e-4 -2e-3 9.5e-4 -4e-3 2e-3 -6e-3 0 0-0.1046-0.9863 1.8926-0.99023z" color="#000000" color-rendering="auto" dominant-baseline="auto" image-rendering="auto" solid-color="#000000" style="font-feature-settings:normal;font-variant-alternates:normal;font-variant-caps:normal;font-variant-ligatures:normal;font-variant-numeric:normal;font-variant-position:normal;isolation:auto;mix-blend-mode:normal;shape-padding:0;text-decoration-color:#000000;text-decoration-line:none;text-decoration-style:solid;text-indent:0;text-orientation:mixed;text-transform:none;white-space:normal"/>
  </g>
 </g>
 <path d="m13 11v2h-2v1h2v2h1v-2h2v-1h-2v-2h-1z" fill="#808080" fill-rule="evenodd" stroke-linejoin="round"/>
</svg>
