<?xml version="1.0" encoding="UTF-8" standalone="no"?>
<svg
   xmlns:dc="http://purl.org/dc/elements/1.1/"
   xmlns:cc="http://creativecommons.org/ns#"
   xmlns:rdf="http://www.w3.org/1999/02/22-rdf-syntax-ns#"
   xmlns:svg="http://www.w3.org/2000/svg"
   xmlns="http://www.w3.org/2000/svg"
   xmlns:sodipodi="http://sodipodi.sourceforge.net/DTD/sodipodi-0.dtd"
   xmlns:inkscape="http://www.inkscape.org/namespaces/inkscape"
   height="16"
   width="16"
   version="1.1"
   id="svg4"
   sodipodi:docname="appointment-new-symbolic.svg">
  <metadata
     id="metadata10">
    <rdf:RDF>
      <cc:Work
         rdf:about="">
        <dc:format>image/svg+xml</dc:format>
        <dc:type
           rdf:resource="http://purl.org/dc/dcmitype/StillImage" />
      </cc:Work>
    </rdf:RDF>
  </metadata>
  <defs
     id="defs8" />
  <sodipodi:namedview
     pagecolor="#ffffff"
     bordercolor="#666666"
     borderopacity="1"
     objecttolerance="10"
     gridtolerance="10"
     guidetolerance="10"
     inkscape:pageopacity="0"
     inkscape:pageshadow="2"
     inkscape:window-width="640"
     inkscape:window-height="480"
     id="namedview6" />
  <path
     d="M6 0H5v1h1zm0 1v1H5V1h-.006c-1.258.015-2.179-.03-2.931.385-.377.208-.676.56-.84.998C1.058 2.822 1 3.343 1 4v8c0 .658.058 1.179.223 1.617.165.44.463.789.84.997.753.415 1.673.372 2.931.386H10v-1H5c-1.26-.014-2.087-.06-2.453-.261-.183-.102-.29-.213-.387-.473C2.063 13.006 2 12.593 2 12V7c0-.592.063-1.005.16-1.265.098-.26.204-.372.387-.473.367-.202 1.196-.247 2.46-.262H11c1.26.015 2.087.06 2.453.262.184.101.29.213.387.473C13.938 5.995 14 7 14 7v3h1V4c0-.657-.06-1.178-.224-1.617a1.88 1.88 0 00-.838-.998c-.753-.415-1.674-.37-2.932-.385H11v1h-1V1zm4 0h1V0h-1zm3 10v2h-2v1h2v2h1v-2h2v-1h-2v-2z"
     style="line-height:normal;text-indent:0;text-align:start;text-decoration-line:none;text-decoration-style:solid;text-decoration-color:#000;text-transform:none;white-space:normal;isolation:auto;mix-blend-mode:normal;solid-color:#000;solid-opacity:1;marker:none"
     color="#000"
     font-weight="400"
     font-family="sans-serif"
     overflow="visible"
     fill="gray"
     id="path2" />
</svg>
