<svg version="1.1" viewBox="0 0 16 16" xmlns="http://www.w3.org/2000/svg" xmlns:osb="http://www.openswatchbook.org/uri/2009/osb">
 <g transform="translate(-212,-300)" fill="#808080" shape-rendering="auto">
  <path d="m215.99 307c-1.2582 0.0146-2.1789-0.0306-2.9316 0.38477-0.37637 0.20765-0.67322 0.55938-0.83789 0.99804s-0.22461 0.95958-0.22461 1.6172v2c0 0.65761 0.0599 1.1785 0.22461 1.6172 0.16467 0.43866 0.46152 0.79039 0.83789 0.99804 0.75275 0.41532 1.6734 0.3702 2.9316 0.38477h4e-3 2.0039 4e-3c1.2582-0.0146 2.1789 0.0306 2.9316-0.38477 0.37637-0.20765 0.67322-0.55938 0.83789-0.99804 0.16449-0.43866 0.22443-0.95958 0.22443-1.6172v-2c0-0.65761-0.0599-1.1785-0.22461-1.6172-0.16466-0.43866-0.46152-0.79038-0.83789-0.99804-0.75275-0.41534-1.6734-0.37025-2.9316-0.38477h-4e-3 -2.0039zm6e-3 1h6e-3 1.9939c1.2585 0.0147 2.0872 0.0598 2.4531 0.26172 0.18341 0.1012 0.28916 0.21274 0.38672 0.47266 0.09757 0.25991 0.16016 0.67323 0.16016 1.2656v2c0 0.59239-0.0626 1.0057-0.16016 1.2656-0.0976 0.25991-0.20135 0.37147-0.38476 0.47266-0.36596 0.20191-1.1966 0.24698-2.4551 0.26172h-1.9941-0.00586c-1.2585-0.0147-2.0891-0.0598-2.4551-0.26172-0.18341-0.10119-0.2872-0.21275-0.38476-0.47266-0.09757-0.2599-0.16016-0.67323-0.16016-1.2656v-2c0-0.59239 0.0626-1.0057 0.16016-1.2656 0.0976-0.25991 0.20135-0.37147 0.38476-0.47266 0.36596-0.20191 1.1966-0.24698 2.4551-0.26172z" color="#000000" color-rendering="auto" dominant-baseline="auto" image-rendering="auto" opacity=".5" solid-color="#000000" style="font-feature-settings:normal;font-variant-alternates:normal;font-variant-caps:normal;font-variant-ligatures:normal;font-variant-numeric:normal;font-variant-position:normal;isolation:auto;mix-blend-mode:normal;shape-padding:0;text-decoration-color:#000000;text-decoration-line:none;text-decoration-style:solid;text-indent:0;text-orientation:mixed;text-transform:none;white-space:normal"/>
  <path d="m218.99 302c-1.2582 0.0146-2.1789-0.0306-2.9316 0.38477-0.37637 0.20765-0.67322 0.55938-0.83789 0.99804s-0.22461 0.95958-0.22461 1.6172v1h1v-1c0-0.59239 0.0626-1.0057 0.16016-1.2656 0.0976-0.25991 0.20135-0.37147 0.38476-0.47266 0.36596-0.20191 1.1966-0.24698 2.4551-0.26172h3.5 1.5c1.2585 0.0147 2.0872 0.0598 2.4531 0.26172 0.18341 0.1012 0.28916 0.21274 0.38672 0.47266 0.09757 0.25991 0.16016 0.67323 0.16016 1.2656v4c0 0.59239-0.0626 1.0057-0.16016 1.2656-0.0976 0.25991-0.20135 0.37147-0.38476 0.47266-0.36682 0.20239-1.1974 0.24709-2.4609 0.26172h-0.99414v1h1.002 4e-3c1.2582-0.0146 2.1789 0.0306 2.9316-0.38477 0.37637-0.20765 0.67322-0.55938 0.83789-0.99804 0.16458-0.43866 0.22452-0.95958 0.22452-1.6172v-4c0-0.65761-0.0599-1.1785-0.22461-1.6172-0.16466-0.43866-0.46152-0.79038-0.83789-0.99804-0.75275-0.41534-1.6734-0.37025-2.9316-0.38477h-4e-3 -1.502-3.502z" color="#000000" color-rendering="auto" dominant-baseline="auto" image-rendering="auto" solid-color="#000000" style="font-feature-settings:normal;font-variant-alternates:normal;font-variant-caps:normal;font-variant-ligatures:normal;font-variant-numeric:normal;font-variant-position:normal;isolation:auto;mix-blend-mode:normal;shape-padding:0;text-decoration-color:#000000;text-decoration-line:none;text-decoration-style:solid;text-indent:0;text-orientation:mixed;text-transform:none;white-space:normal"/>
 </g>
</svg>
