<svg version="1.1" viewBox="0 0 16 16.003" xmlns="http://www.w3.org/2000/svg" xmlns:osb="http://www.openswatchbook.org/uri/2009/osb">
 <g transform="translate(-152 -180)">
  <path d="m157 180c-1.25 0-2.1748-0.0444-2.9297 0.375-0.37746 0.2097-0.67538 0.56341-0.84179 1.0039-0.16642 0.4405-0.22852 0.96276-0.22852 1.6211v10c0 0.65833 0.0621 1.1806 0.22852 1.6211 0.16641 0.4405 0.46433 0.79421 0.84179 1.0039 0.75493 0.4194 1.6797 0.375 2.9297 0.375h5v-1h-5c-1.25 0-2.0752-0.0444-2.4453-0.25-0.18504-0.1028-0.29337-0.21784-0.39258-0.48047-0.09921-0.26262-0.16211-0.67786-0.16211-1.2695v-10c0-0.59167 0.0629-1.0069 0.16211-1.2695 0.0992-0.26263 0.20754-0.37767 0.39258-0.48047 0.37007-0.2056 1.1953-0.25 2.4453-0.25h5v4h4v5h1v-5.75l-4.25-4.25zm8 11v2h-2v1h2v2h1v-2h2v-1h-2v-2z" color="#000000" color-rendering="auto" fill="#808080" image-rendering="auto" shape-rendering="auto" solid-color="#000000" style="isolation:auto;mix-blend-mode:normal;text-decoration-color:#000000;text-decoration-line:none;text-decoration-style:solid;text-indent:0;text-transform:none;white-space:normal"/>
 </g>
</svg>
