<?xml version="1.0" encoding="UTF-8" standalone="no"?>
<svg
   xmlns:dc="http://purl.org/dc/elements/1.1/"
   xmlns:cc="http://creativecommons.org/ns#"
   xmlns:rdf="http://www.w3.org/1999/02/22-rdf-syntax-ns#"
   xmlns:svg="http://www.w3.org/2000/svg"
   xmlns="http://www.w3.org/2000/svg"
   xmlns:sodipodi="http://sodipodi.sourceforge.net/DTD/sodipodi-0.dtd"
   xmlns:inkscape="http://www.inkscape.org/namespaces/inkscape"
   height="16.003"
   width="16"
   version="1.1"
   id="svg4"
   sodipodi:docname="document-new-symbolic.svg">
  <metadata
     id="metadata10">
    <rdf:RDF>
      <cc:Work
         rdf:about="">
        <dc:format>image/svg+xml</dc:format>
        <dc:type
           rdf:resource="http://purl.org/dc/dcmitype/StillImage" />
      </cc:Work>
    </rdf:RDF>
  </metadata>
  <defs
     id="defs8" />
  <sodipodi:namedview
     pagecolor="#ffffff"
     bordercolor="#666666"
     borderopacity="1"
     objecttolerance="10"
     gridtolerance="10"
     guidetolerance="10"
     inkscape:pageopacity="0"
     inkscape:pageshadow="2"
     inkscape:window-width="640"
     inkscape:window-height="480"
     id="namedview6" />
  <path
     d="M5 .001c-1.25 0-2.175-.044-2.93.375-.377.21-.675.564-.841 1.004C1.062 1.82 1 2.343 1 3.001v10c0 .659.062 1.181.229 1.621.166.441.464.795.841 1.004.755.42 1.68.375 2.93.375h5v-1H5c-1.25 0-2.075-.044-2.445-.25-.185-.102-.294-.217-.393-.48C2.062 14.008 2 13.593 2 13v-10c0-.591.063-1.007.162-1.27.1-.262.208-.377.393-.48.37-.205 1.195-.25 2.445-.25h5v4h4v5h1v-5.75L10.75.001zm8 11v2h-2v1h2v2h1v-2h2v-1h-2v-2z"
     style="line-height:normal;text-indent:0;text-align:start;text-decoration-line:none;text-decoration-style:solid;text-decoration-color:#000;text-transform:none;white-space:normal;isolation:auto;mix-blend-mode:normal;solid-color:#000;solid-opacity:1;marker:none"
     color="#000"
     font-weight="400"
     font-family="sans-serif"
     overflow="visible"
     fill="gray"
     id="path2" />
</svg>
