<svg viewBox="0 0 16 16" xmlns="http://www.w3.org/2000/svg">
 <path d="M7.5 1c-1.978 0-3.77.769-5.11 2.018L1.365 1.992a34.471 34.471 0 0 0-.646 1.983A41.553 41.553 0 0 0 .188 6c.669-.15 1.345-.325 2.03-.523.69-.203 1.349-.421 1.975-.655L3.1 3.727A6.466 6.466 0 0 1 7.5 2C11.094 2 14 4.906 14 8.5S11.094 15 7.5 15a6.49 6.49 0 0 1-6.475-6h-1A7.488 7.488 0 0 0 7.5 16c4.147 0 7.5-3.353 7.5-7.5S11.647 1 7.5 1zM7 4v5.207l2.396 2.397.708-.708L8 8.793V4zm6.1 10.97l.027.036-.014-.022-.013-.013zm-12.21.005c-.003.005-.01.009-.013.013l-.014.022z" fill="gray" font-family="Ubuntu" font-size="15" font-weight="400" letter-spacing="0" text-anchor="middle" word-spacing="0"/>
</svg>
