<?xml version="1.0" encoding="UTF-8" standalone="no"?>
<svg
   xmlns:dc="http://purl.org/dc/elements/1.1/"
   xmlns:cc="http://creativecommons.org/ns#"
   xmlns:rdf="http://www.w3.org/1999/02/22-rdf-syntax-ns#"
   xmlns:svg="http://www.w3.org/2000/svg"
   xmlns="http://www.w3.org/2000/svg"
   xmlns:sodipodi="http://sodipodi.sourceforge.net/DTD/sodipodi-0.dtd"
   xmlns:inkscape="http://www.inkscape.org/namespaces/inkscape"
   height="16"
   width="16"
   version="1.1"
   id="svg12"
   sodipodi:docname="edit-select-all-symbolic.svg">
  <metadata
     id="metadata18">
    <rdf:RDF>
      <cc:Work
         rdf:about="">
        <dc:format>image/svg+xml</dc:format>
        <dc:type
           rdf:resource="http://purl.org/dc/dcmitype/StillImage" />
      </cc:Work>
    </rdf:RDF>
  </metadata>
  <defs
     id="defs16" />
  <sodipodi:namedview
     pagecolor="#ffffff"
     bordercolor="#666666"
     borderopacity="1"
     objecttolerance="10"
     gridtolerance="10"
     guidetolerance="10"
     inkscape:pageopacity="0"
     inkscape:pageshadow="2"
     inkscape:window-width="640"
     inkscape:window-height="480"
     id="namedview14" />
  <g
     transform="translate(-52 -140)"
     fill="gray"
     id="g10">
    <path
       d="M56 140v1h1v-1zm2 0v1h1v-1zm-3 .025c-.736.019-1.388.07-1.908.348l.777.777c.269-.064.668-.097 1.131-.119zm-2.627 1.043a2.068 2.068 0 00-.148.315c-.165.438-.225.96-.225 1.617h1c0-.535.055-.906.137-1.168zM52 144v1h1v-1zm0 2v1h1v-1zM63 140v1h-1v-1zm-2 0v1h-1v-1zm3 .025c.736.019 1.388.07 1.908.348l-.777.777c-.269-.064-.668-.097-1.131-.119zm2.627 1.043c.057.099.107.204.148.315.165.438.225.96.225 1.617h-1c0-.535-.055-.906-.137-1.168zM67 144v1h-1v-1zm0 2v1h-1v-1zM56 155v-1h1v1zm2 0v-1h1v1zm-3-.025c-.736-.019-1.388-.07-1.908-.348l.777-.777c.269.064.668.097 1.131.119zm-2.627-1.043a2.068 2.068 0 01-.148-.315c-.165-.438-.225-.96-.225-1.617h1c0 .535.055.906.137 1.168zM52 151v-1h1v1zm0-2v-1h1v1zM63 155v-1h-1v1zm-2 0v-1h-1v1zm3-.025c.736-.019 1.388-.07 1.908-.348l-.777-.777c-.269.064-.668.097-1.131.119zm2.627-1.043c.057-.099.107-.204.148-.315.165-.438.225-.96.225-1.617h-1c0 .535-.055.906-.137 1.168zM67 151v-1h-1v1zm0-2v-1h-1v1z"
       style="line-height:normal;font-variant-ligatures:normal;font-variant-position:normal;font-variant-caps:normal;font-variant-numeric:normal;font-variant-alternates:normal;font-feature-settings:normal;text-indent:0;text-align:start;text-decoration-line:none;text-decoration-style:solid;text-decoration-color:#000;text-transform:none;text-orientation:mixed;white-space:normal;shape-padding:0;isolation:auto;mix-blend-mode:normal;solid-color:#000;solid-opacity:1;marker:none"
       color="#000"
       font-weight="400"
       font-family="sans-serif"
       overflow="visible"
       id="path2" />
    <rect
       height="5"
       rx=".5"
       ry=".5"
       width="11"
       x="54"
       y="142"
       id="rect4" />
    <rect
       height="5"
       rx=".5"
       ry=".5"
       width="5"
       x="54"
       y="148"
       id="rect6" />
    <rect
       height="5"
       rx=".5"
       ry=".5"
       width="5"
       x="60"
       y="148"
       id="rect8" />
  </g>
</svg>
