<svg viewBox="0 0 16 16" xmlns="http://www.w3.org/2000/svg">
 <g fill="gray" font-weight="400">
  <path d="M7 1C3.69 1 1 3.69 1 7c0 1.171.342 2.261.924 3.186.025-.043.098-.19.115-.217l.006-.008.088-.137.463-.469A4.998 4.998 0 0 1 2 7a5 5 0 0 1 5-5 5 5 0 0 1 2.295.563l.726-.739A5.955 5.955 0 0 0 7 1zm5.986 6.152l-1.164 1.149a5 5 0 0 1-3.593 3.54L7.06 12.995a5.951 5.951 0 0 0 3.603-1.267l2.863 2.863 1.063-1.063-2.863-2.863a5.956 5.956 0 0 0 1.26-3.512z" font-family="sans-serif" overflow="visible" style="font-feature-settings:normal;font-variant-alternates:normal;font-variant-caps:normal;font-variant-ligatures:none;font-variant-numeric:normal;font-variant-position:normal;isolation:auto;mix-blend-mode:normal;shape-padding:0;text-decoration-color:#000;text-decoration-line:none;text-decoration-style:solid;text-indent:0;text-transform:none" white-space="normal"/>
  <path d="M12.238 1l-.353.36-8.969 9.095-.03.045c-.061.099-.27.45-.583 1.088-.314.638-.7 1.51-1.012 2.492L1 15l.92-.291a18.163 18.163 0 0 0 2.492-1.012c.638-.313.987-.52 1.088-.584l.045-.029L15 3.762zm-8.347 9.89l1.218 1.22-.177.175c.007-.005-.379.227-.961.514-.214.105-.536.222-.834.338l-.274-.274c.116-.298.233-.62.338-.834.287-.582.518-.966.514-.96z" font-family="Ubuntu" font-size="15" letter-spacing="0" text-anchor="middle" word-spacing="0"/>
 </g>
</svg>
