<svg version="1.1" viewBox="0 0 16 16" xmlns="http://www.w3.org/2000/svg" xmlns:osb="http://www.openswatchbook.org/uri/2009/osb">
 <g transform="translate(-32,-100)">
  <path d="m44.238 101-0.35351 0.35938-8.9688 9.0957-0.0293 0.0449c-0.0618 0.0987-0.27016 0.45-0.58399 1.0879-0.31382 0.63789-0.70008 1.5096-1.0117 2.4922l-0.29102 0.91994 0.91992-0.29102c0.9834-0.31169 1.8544-0.69795 2.4922-1.0117 0.63783-0.31377 0.98702-0.52071 1.0879-0.58399l0.0449-0.0293 9.4551-9.3223zm-8.3477 9.8906 1.2188 1.2188-0.17774 0.17578c7e-3 -5e-3 -0.37854 0.22717-0.96094 0.51367-0.2142 0.10537-0.53547 0.22256-0.83398 0.33789l-0.27344-0.27344c0.11532-0.29849 0.23249-0.61973 0.33789-0.83398 0.28659-0.58252 0.51751-0.96589 0.51367-0.96094z" fill="#808080"/>
 </g>
</svg>
