<svg version="1.1" viewBox="0 0 16 16" xmlns="http://www.w3.org/2000/svg" xmlns:osb="http://www.openswatchbook.org/uri/2009/osb">
 <g transform="translate(-52,-140)" fill="#808080">
  <g shape-rendering="auto">
   <path d="m56 140v1h1v-1zm2 0v1h1v-1zm-3 0.0254c-0.73613 0.0186-1.3876 0.0697-1.9082 0.34766l0.77734 0.77734c0.26868-0.0647 0.66736-0.0972 1.1309-0.11914zm-2.627 1.043c-0.05745 0.0986-0.10694 0.2039-0.14844 0.31445-0.16466 0.43866-0.22461 0.95957-0.22461 1.6172h1c0-0.53531 0.05488-0.90618 0.13672-1.168zm-0.37305 2.9316v1h1v-1zm0 2v1h1v-1z" color="#000000" color-rendering="auto" dominant-baseline="auto" image-rendering="auto" solid-color="#000000" style="font-feature-settings:normal;font-variant-alternates:normal;font-variant-caps:normal;font-variant-ligatures:normal;font-variant-numeric:normal;font-variant-position:normal;isolation:auto;mix-blend-mode:normal;shape-padding:0;text-decoration-color:#000000;text-decoration-line:none;text-decoration-style:solid;text-indent:0;text-orientation:mixed;text-transform:none;white-space:normal"/>
   <path d="m63 140v1h-1v-1zm-2 0v1h-1v-1zm3 0.0254c0.73613 0.0186 1.3876 0.0697 1.9082 0.34766l-0.77734 0.77734c-0.26868-0.0647-0.66736-0.0972-1.1309-0.11914zm2.627 1.043c0.05745 0.0986 0.10694 0.2039 0.14844 0.31445 0.16466 0.43866 0.22461 0.95957 0.22461 1.6172h-1c0-0.53531-0.05488-0.90618-0.13672-1.168zm0.37305 2.9316v1h-1v-1zm0 2v1h-1v-1z" color="#000000" color-rendering="auto" dominant-baseline="auto" image-rendering="auto" solid-color="#000000" style="font-feature-settings:normal;font-variant-alternates:normal;font-variant-caps:normal;font-variant-ligatures:normal;font-variant-numeric:normal;font-variant-position:normal;isolation:auto;mix-blend-mode:normal;shape-padding:0;text-decoration-color:#000000;text-decoration-line:none;text-decoration-style:solid;text-indent:0;text-orientation:mixed;text-transform:none;white-space:normal"/>
   <path d="m56 155v-1h1v1zm2 0v-1h1v1zm-3-0.0254c-0.73613-0.0186-1.3876-0.0697-1.9082-0.34766l0.77734-0.77734c0.26868 0.0647 0.66736 0.0972 1.1309 0.11914zm-2.627-1.043c-0.05745-0.0986-0.10694-0.2039-0.14844-0.31445-0.16466-0.43866-0.22461-0.95957-0.22461-1.6172h1c0 0.53531 0.05488 0.90618 0.13672 1.168zm-0.37305-2.9316v-1h1v1zm0-2v-1h1v1z" color="#000000" color-rendering="auto" dominant-baseline="auto" image-rendering="auto" solid-color="#000000" style="font-feature-settings:normal;font-variant-alternates:normal;font-variant-caps:normal;font-variant-ligatures:normal;font-variant-numeric:normal;font-variant-position:normal;isolation:auto;mix-blend-mode:normal;shape-padding:0;text-decoration-color:#000000;text-decoration-line:none;text-decoration-style:solid;text-indent:0;text-orientation:mixed;text-transform:none;white-space:normal"/>
   <path d="m63 155v-1h-1v1zm-2 0v-1h-1v1zm3-0.0254c0.73613-0.0186 1.3876-0.0697 1.9082-0.34766l-0.77734-0.77734c-0.26868 0.0647-0.66736 0.0972-1.1309 0.11914zm2.627-1.043c0.05745-0.0986 0.10694-0.2039 0.14844-0.31445 0.16466-0.43866 0.22461-0.95957 0.22461-1.6172h-1c0 0.53531-0.05488 0.90618-0.13672 1.168zm0.37305-2.9316v-1h-1v1zm0-2v-1h-1v1z" color="#000000" color-rendering="auto" dominant-baseline="auto" image-rendering="auto" solid-color="#000000" style="font-feature-settings:normal;font-variant-alternates:normal;font-variant-caps:normal;font-variant-ligatures:normal;font-variant-numeric:normal;font-variant-position:normal;isolation:auto;mix-blend-mode:normal;shape-padding:0;text-decoration-color:#000000;text-decoration-line:none;text-decoration-style:solid;text-indent:0;text-orientation:mixed;text-transform:none;white-space:normal"/>
  </g>
  <rect x="54" y="142" width="11" height="5" rx=".5" ry=".5"/>
  <rect x="54" y="148" width="5" height="5" rx=".5" ry=".5"/>
  <rect x="60" y="148" width="5" height="5" rx=".5" ry=".5"/>
 </g>
</svg>
