<svg version="1.1" viewBox="0 0 16 16" xmlns="http://www.w3.org/2000/svg">
 <path d="m8 4s-4.7502 2.1248-8 4.5c3.2498 2.3752 8 4.5 8 4.5h8v-9zm0.43945 1h0.00391 0.00586 0.64062 5.9102v7h-5.9824-0.56836-0.00586-0.00391v-2e-3c-0.012031-0.005474-4.6364-2.2309-6.4394-3.5488 1.803-1.3179 6.4273-3.4417 6.4395-3.4473zm0.26758 1-0.70703 0.70703 1.8027 1.8027-1.8027 1.8027 0.70703 0.70703 1.8027-1.8027 1.8027 1.8027 0.70703-0.70703-1.8027-1.8027 1.8027-1.8027-0.70703-0.70703-1.8027 1.8027z" color="#000000" fill="#808080"/>
</svg>
