<svg version="1.1" viewBox="0 0 16 16" xmlns="http://www.w3.org/2000/svg" xmlns:osb="http://www.openswatchbook.org/uri/2009/osb">
 <g transform="translate(-72 -140)" fill="#808080">
  <rect x="74" y="154" width="12" height="1"/>
  <path d="m83.913 140.44c-0.39174-0.39174-1.0225-0.39174-1.4142 0l-8.0709 8.0706c-0.39174 0.39174-0.39174 1.0225 0 1.4142l2.8284 2.8284c0.39174 0.39174 1.0225 0.39174 1.4142 0l8.0709-8.0706c0.39174-0.39174 0.39174-1.0225 0-1.4142zm-1.9609 7.513c-2.2977 2.3479-1.6614 1.6688-3.9845 4.0062-0.79922-0.78974-1.6003-1.56-2.3782-2.3506-0.23461-0.20521-0.47456-0.428-0.11462-0.64772 2.18-2.2616 1.4179-1.5127 3.7014-3.6872 0.28655 0.12915 0.57253 0.52188 0.8245 0.73058 0.65171 0.64916 1.3009 1.2984 1.9514 1.9487z"/>
 </g>
</svg>
