<?xml version="1.0" encoding="UTF-8" standalone="no"?>
<svg
   xmlns:dc="http://purl.org/dc/elements/1.1/"
   xmlns:cc="http://creativecommons.org/ns#"
   xmlns:rdf="http://www.w3.org/1999/02/22-rdf-syntax-ns#"
   xmlns:svg="http://www.w3.org/2000/svg"
   xmlns="http://www.w3.org/2000/svg"
   xmlns:sodipodi="http://sodipodi.sourceforge.net/DTD/sodipodi-0.dtd"
   xmlns:inkscape="http://www.inkscape.org/namespaces/inkscape"
   height="16"
   width="16"
   version="1.1"
   id="svg4"
   sodipodi:docname="find-location-symbolic.svg"
   inkscape:version="1.0.1 (3bc2e813f5, 2020-09-07)">
  <metadata
     id="metadata10">
    <rdf:RDF>
      <cc:Work
         rdf:about="">
        <dc:format>image/svg+xml</dc:format>
        <dc:type
           rdf:resource="http://purl.org/dc/dcmitype/StillImage" />
      </cc:Work>
    </rdf:RDF>
  </metadata>
  <defs
     id="defs8" />
  <sodipodi:namedview
     pagecolor="#ffffff"
     bordercolor="#666666"
     borderopacity="1"
     objecttolerance="10"
     gridtolerance="10"
     guidetolerance="10"
     inkscape:pageopacity="0"
     inkscape:pageshadow="2"
     inkscape:window-width="1848"
     inkscape:window-height="1016"
     id="namedview6"
     showgrid="false"
     inkscape:zoom="53.875"
     inkscape:cx="7.8422274"
     inkscape:cy="6.1928304"
     inkscape:window-x="72"
     inkscape:window-y="27"
     inkscape:window-maximized="1"
     inkscape:current-layer="svg4" />
  <path
     d="M 8,0.75 H 7 V 2.025 C 3.8072871,2.271969 1.2701056,4.8074531 1.021,8 H 0 V 9 H 1.025 C 1.271969,12.192713 3.8074531,14.729894 7,14.979 V 16 H 8 V 14.975 C 11.192713,14.728031 13.729894,12.192547 13.979,9 H 15 V 8 H 13.975 C 13.728031,4.8072871 11.192547,2.2701056 8,2.021 Z M 7.5,3 C 10.537566,3 13,5.4624339 13,8.5 13,11.537566 10.537566,14 7.5,14 4.4624339,14 2,11.537566 2,8.5 2,5.4624339 4.4624339,3 7.5,3 Z m 0,3 C 6.1192881,6 5,7.1192881 5,8.5 5,9.8807119 6.1192881,11 7.5,11 8.8807119,11 10,9.8807119 10,8.5 10,7.1192881 8.8807119,6 7.5,6 Z"
     fill="#808080"
     id="path2"
     sodipodi:nodetypes="cccccccccccccccccssssssssss" />
</svg>
