<?xml version="1.0" encoding="UTF-8" standalone="no"?>
<svg
   xmlns:dc="http://purl.org/dc/elements/1.1/"
   xmlns:cc="http://creativecommons.org/ns#"
   xmlns:rdf="http://www.w3.org/1999/02/22-rdf-syntax-ns#"
   xmlns:svg="http://www.w3.org/2000/svg"
   xmlns="http://www.w3.org/2000/svg"
   xmlns:sodipodi="http://sodipodi.sourceforge.net/DTD/sodipodi-0.dtd"
   xmlns:inkscape="http://www.inkscape.org/namespaces/inkscape"
   height="16"
   width="16"
   version="1.1"
   id="svg4"
   sodipodi:docname="format-text-remove-symbolic.svg">
  <metadata
     id="metadata10">
    <rdf:RDF>
      <cc:Work
         rdf:about="">
        <dc:format>image/svg+xml</dc:format>
        <dc:type
           rdf:resource="http://purl.org/dc/dcmitype/StillImage" />
      </cc:Work>
    </rdf:RDF>
  </metadata>
  <defs
     id="defs8" />
  <sodipodi:namedview
     pagecolor="#ffffff"
     bordercolor="#666666"
     borderopacity="1"
     objecttolerance="10"
     gridtolerance="10"
     guidetolerance="10"
     inkscape:pageopacity="0"
     inkscape:pageshadow="2"
     inkscape:window-width="640"
     inkscape:window-height="480"
     id="namedview6" />
  <path
     d="M6.96 2c-.404.854-.797 1.72-1.179 2.598-.381.877-.769 1.8-1.162 2.77-.381.969-.773 1.998-1.178 3.083-.25.67-.525 1.448-.793 2.194L6.293 9h-.117c.312-.86.62-1.694.906-2.445.347-.878.652-1.623.918-2.235.242.562.533 1.28.86 2.114l1.486-1.487c-.048-.112-.097-.239-.145-.35A88.645 88.645 0 009.023 2zm6.759.988l-2.96 2.96L9.247 7.46 7.707 9l-2 2-.324.324L2.707 14l-1.01 1.01.707.707L4.121 14h.309l.166-.475L7.12 11h3.28c.161.485.406 1.136.58 1.598.173.461.342.929.503 1.402h2.358a135.91 135.91 0 00-1.301-3.549 117.8 117.8 0 00-1.195-3.084c-.058-.146-.117-.278-.174-.418l3.254-3.254zM9.63 8.49c.064.17.126.331.191.51h-.7z"
     style="line-height:1.25;-inkscape-font-specification:'Ubuntu, Medium';font-variant-ligatures:normal;font-variant-caps:normal;font-variant-numeric:normal;font-feature-settings:normal;text-align:start"
     font-weight="500"
     font-size="17.333"
     font-family="Ubuntu"
     letter-spacing="0"
     word-spacing="0"
     fill="gray"
     id="path2" />
</svg>
