<svg version="1.1" viewBox="0 0 16 16" xmlns="http://www.w3.org/2000/svg" xmlns:osb="http://www.openswatchbook.org/uri/2009/osb">
 <g transform="translate(-192,-480)">
  <path d="m198.96 482c-0.40445 0.85426-0.79836 1.7203-1.1797 2.5977-0.38133 0.87734-0.76922 1.7998-1.1621 2.7695-0.38133 0.9697-0.77328 1.9988-1.1777 3.084-0.24997 0.67066-0.5252 1.448-0.79297 2.1934l3.6445-3.6445h-0.11719c0.31245-0.86082 0.61946-1.6945 0.90625-2.4453 0.34667-0.87736 0.65219-1.6226 0.91797-2.2344 0.24239 0.56135 0.53302 1.279 0.85938 2.1133l1.4863-1.4863c-0.0481-0.1122-0.0964-0.23886-0.14453-0.34961-0.38133-0.87735-0.77328-1.7434-1.1777-2.5977zm6.7578 0.98828-2.959 2.959-9.0625 9.0625 0.70703 0.70703 1.7168-1.7168h0.3086c0.0555-0.15826 0.11071-0.31643 0.16601-0.47461l2.5254-2.5254h3.2793c0.16178 0.48485 0.40675 1.1359 0.58008 1.5977s0.34213 0.92904 0.50391 1.4023h2.3574c-0.45067-1.2814-0.88478-2.4637-1.3008-3.5488-0.40445-1.0851-0.80243-2.1143-1.1953-3.084-0.0576-0.14648-0.11629-0.27784-0.17382-0.41797l3.2539-3.2539zm-4.0879 5.502c0.0637 0.17066 0.12634 0.33103 0.19141 0.50977h-0.70118z" fill="#808080" style="font-feature-settings:normal;font-variant-caps:normal;font-variant-ligatures:normal;font-variant-numeric:normal"/>
 </g>
</svg>
