<?xml version="1.0" encoding="UTF-8" standalone="no"?>
<svg
   xmlns:dc="http://purl.org/dc/elements/1.1/"
   xmlns:cc="http://creativecommons.org/ns#"
   xmlns:rdf="http://www.w3.org/1999/02/22-rdf-syntax-ns#"
   xmlns:svg="http://www.w3.org/2000/svg"
   xmlns="http://www.w3.org/2000/svg"
   xmlns:sodipodi="http://sodipodi.sourceforge.net/DTD/sodipodi-0.dtd"
   xmlns:inkscape="http://www.inkscape.org/namespaces/inkscape"
   height="16"
   width="16"
   version="1.1"
   id="svg4"
   sodipodi:docname="format-toolbar-toggle-symbolic.svg">
  <metadata
     id="metadata10">
    <rdf:RDF>
      <cc:Work
         rdf:about="">
        <dc:format>image/svg+xml</dc:format>
        <dc:type
           rdf:resource="http://purl.org/dc/dcmitype/StillImage" />
      </cc:Work>
    </rdf:RDF>
  </metadata>
  <defs
     id="defs8" />
  <sodipodi:namedview
     pagecolor="#ffffff"
     bordercolor="#666666"
     borderopacity="1"
     objecttolerance="10"
     gridtolerance="10"
     guidetolerance="10"
     inkscape:pageopacity="0"
     inkscape:pageshadow="2"
     inkscape:window-width="640"
     inkscape:window-height="480"
     id="namedview6" />
  <path
     d="M6.96 1c-.404.854-.797 1.72-1.179 2.598-.381.877-.769 1.8-1.162 2.77A203.7 203.7 0 002.16 13l2.27-.001.485-1.385c.173-.473.424-1.13.586-1.615h4.9c.162.485.407 1.136.58 1.598.174.461.343.929.504 1.402h2.358a135.91 135.91 0 00-1.301-3.549 117.8 117.8 0 00-1.195-3.084A84.827 84.827 0 009.023 1zM8 3.32c.254.59.554 1.328.9 2.217.297.762.608 1.6.922 2.463H6.176c.312-.86.62-1.694.906-2.445.347-.878.652-1.623.918-2.235zM2 14v1h12v-1z"
     style="line-height:1.25;-inkscape-font-specification:'Ubuntu, Medium';font-variant-ligatures:normal;font-variant-caps:normal;font-variant-numeric:normal;font-feature-settings:normal;text-align:start"
     font-weight="500"
     font-size="17.333"
     font-family="Ubuntu"
     letter-spacing="0"
     word-spacing="0"
     fill="gray"
     id="path2" />
</svg>
