<?xml version="1.0" encoding="UTF-8" standalone="no"?>
<svg
   xmlns:dc="http://purl.org/dc/elements/1.1/"
   xmlns:cc="http://creativecommons.org/ns#"
   xmlns:rdf="http://www.w3.org/1999/02/22-rdf-syntax-ns#"
   xmlns:svg="http://www.w3.org/2000/svg"
   xmlns="http://www.w3.org/2000/svg"
   xmlns:sodipodi="http://sodipodi.sourceforge.net/DTD/sodipodi-0.dtd"
   xmlns:inkscape="http://www.inkscape.org/namespaces/inkscape"
   height="16"
   width="16"
   version="1.1"
   id="svg4"
   sodipodi:docname="go-down-symbolic.svg">
  <metadata
     id="metadata10">
    <rdf:RDF>
      <cc:Work
         rdf:about="">
        <dc:format>image/svg+xml</dc:format>
        <dc:type
           rdf:resource="http://purl.org/dc/dcmitype/StillImage" />
      </cc:Work>
    </rdf:RDF>
  </metadata>
  <defs
     id="defs8" />
  <sodipodi:namedview
     pagecolor="#ffffff"
     bordercolor="#666666"
     borderopacity="1"
     objecttolerance="10"
     gridtolerance="10"
     guidetolerance="10"
     inkscape:pageopacity="0"
     inkscape:pageshadow="2"
     inkscape:window-width="640"
     inkscape:window-height="480"
     id="namedview6" />
  <path
     d="M16 6c-.874.69-1.757 1.397-2.656 2.008-1 .679-1.972 1.287-2.912 1.825-.868.497-1.774.87-2.432 1.167-.658-.297-1.564-.67-2.432-1.167a44.819 44.819 0 01-2.912-1.825C1.756 7.398.874 6.691 0 6h1.49c.524.4 1.062.837 1.625 1.222.71.486 1.437.942 2.18 1.37.755.433 1.792.95 2.5 1.285h.001L8 9.973l.203-.096c.71-.334 1.747-.852 2.501-1.285a33.18 33.18 0 002.181-1.37c.562-.385 1.1-.822 1.625-1.222H16z"
     fill="gray"
     id="path2" />
</svg>
