<svg height="16" width="16" xmlns="http://www.w3.org/2000/svg">
    <path d="M16 10c-.874-.69-1.757-1.397-2.656-2.008-1-.68-1.972-1.288-2.912-1.826C9.564 5.67 8.658 5.296 8 5c-.658.297-1.564.67-2.432 1.166a44.838 44.838 0 0 0-2.912 1.826C1.756 8.602.874 9.309 0 10h1.49c.525-.4 1.063-.836 1.625-1.22.71-.487 1.437-.945 2.18-1.372a39.31 39.31 0 0 1 2.502-1.285L8 6.027l.203.096c.71.335 1.748.852 2.502 1.285.743.427 1.47.885 2.18 1.371.562.385 1.1.82 1.625 1.221zM9 2a1 1 0 0 0-1-1 1 1 0 0 0-1 1 1 1 0 0 0 1 1 1 1 0 0 0 1-1z" fill="gray"/>
</svg>
