<svg height="16" width="16" xmlns="http://www.w3.org/2000/svg">
    <g color="#000" fill="gray">
        <path d="M10.182 12l-4.364.001c.304.664.643 1.34 1.018 2.027C7.212 14.71 7.6 15.368 8 16c.392-.633.776-1.29 1.152-1.972.375-.688.718-1.364 1.03-2.028zM11 3a1 1 0 100 2 1 1 0 000-2zM6.25 3.875L4 8h6L8.125 4.625l-.75 1.125z" style="marker:none" overflow="visible"/>
        <path d="M6 1c-1.25 0-2.175-.044-2.93.375-.377.21-.675.563-.841 1.004C2.062 2.819 2 3.342 2 4v4c0 .658.062 1.18.229 1.621.166.44.464.794.841 1.004.755.42 1.68.375 2.93.375h4c1.25 0 2.175.044 2.93-.375.377-.21.675-.563.841-1.004.167-.44.229-.963.229-1.621V4c0-.658-.062-1.18-.229-1.621a1.903 1.903 0 00-.841-1.004C12.175.955 11.25 1 10 1zm0 1h4c1.25 0 2.075.044 2.445.25.185.103.294.218.393.48.1.263.162.678.162 1.27v4c0 .436-.042.746-.1 1H3.1A4.403 4.403 0 013 8V4c0-.592.063-1.007.162-1.27.1-.262.208-.377.393-.48C3.925 2.044 4.75 2 6 2z" style="line-height:normal;font-variant-ligatures:normal;font-variant-position:normal;font-variant-caps:normal;font-variant-numeric:normal;font-variant-alternates:normal;font-feature-settings:normal;text-indent:0;text-align:start;text-decoration-line:none;text-decoration-style:solid;text-decoration-color:#000;text-transform:none;text-orientation:mixed;white-space:normal;shape-padding:0;isolation:auto;mix-blend-mode:normal;solid-color:#000;solid-opacity:1" font-weight="400" font-family="sans-serif" overflow="visible"/>
    </g>
</svg>
