<svg height="16" width="16.001" xmlns="http://www.w3.org/2000/svg">
    <path d="M15.5 2.54l.001.002a.469.469 0 00-.084.008l-.015.002-.016.004a.39.39 0 00-.033.008L.386 6.057a.5.5 0 00-.164.902L3 8.81v3.733a.5.5 0 00.854.353l2.201-2.2 3.154 2.253a.5.5 0 00.713-.139l5.98-9.47a.551.551 0 00.02-.03l.008-.011.018-.033a.327.327 0 00.02-.045l.006-.014a.395.395 0 00.01-.033c0-.005.005-.01.006-.014 0-.003 0-.005.002-.008a.287.287 0 00.006-.041L16 3.084v-.01-.031a.47.47 0 00-.008-.082l-.006-.036-.004-.013c-.004-.016-.01-.032-.016-.047l-.014-.033-.006-.014a.332.332 0 00-.017-.031l-.008-.012a.438.438 0 00-.02-.03l-.012-.011-.03-.037c-.009-.01-.02-.017-.028-.026l-.01-.01a.415.415 0 00-.035-.027c-.001 0-.003 0-.004-.002a.49.49 0 00-.032-.02l-.011-.007a.324.324 0 00-.031-.016l-.014-.006a.327.327 0 00-.033-.014c-.005 0-.01-.003-.014-.004a.428.428 0 00-.035-.01l-.03-.006a.515.515 0 00-.084-.01zM14 4.042L5.701 9.64c-.008.006-.011.015-.019.021-.012.011-.025.015-.037.028l-1.647 1.646V8.857z" style="line-height:normal;font-variant-ligatures:normal;font-variant-position:normal;font-variant-caps:normal;font-variant-numeric:normal;font-variant-alternates:normal;font-feature-settings:normal;text-indent:0;text-align:start;text-decoration-line:none;text-decoration-style:solid;text-decoration-color:#000;text-transform:none;text-orientation:mixed;white-space:normal;shape-padding:0;isolation:auto;mix-blend-mode:normal;solid-color:#000;solid-opacity:1" color="#000" font-weight="400" font-family="sans-serif" overflow="visible" fill="gray"/>
</svg>
