<svg version="1.1" viewBox="0 0 16 16" xmlns="http://www.w3.org/2000/svg" xmlns:osb="http://www.openswatchbook.org/uri/2009/osb">
 <path d="m7 0c-1.108 0-2 0.669-2 1.5v1.5h-1v1h1v5.5c0 0.831 0.892 1.5 2 1.5h5v1h1v-1h1c1.108 0 2-0.669 2-1.5v-8c0-0.831-0.892-1.5-2-1.5h-7zm-1 3h1v1h-1v-1zm2 0h1v1h-1v-1zm-5 0.025391c-0.73613 0.0186-1.3876 0.069696-1.9082 0.34766l0.77734 0.77734c0.26868-0.0647 0.66737-0.097201 1.1309-0.11914v-1.0059zm7 0c0.73613 0.0186 1.3876 0.069696 1.9082 0.34766l-0.77734 0.77734c-0.26868-0.0647-0.66736-0.097201-1.1309-0.11914v-1.0059zm-9.627 1.043c-0.05745 0.0986-0.10694 0.2039-0.14844 0.31445-0.16466 0.43866-0.22461 0.95958-0.22461 1.6172h1c0-0.53531 0.05488-0.90618 0.13672-1.168l-0.76367-0.76367zm12.254 0c0.05745 0.0986 0.10694 0.2039 0.14844 0.31445 0.16466 0.43866 0.22461 0.95958 0.22461 1.6172h-1c0-0.53531-0.05488-0.90618-0.13672-1.168l0.76367-0.76367zm-12.627 2.9316v1h1v-1h-1zm12 0h1v1h-1v-1zm-12 2v1h1v-1h-1zm12 0h1v1h-1v-1zm-12 2v1h1v-1h-1zm0 2c-3.7007e-17 0.65761 0.059945 1.1785 0.22461 1.6172 0.041501 0.11055 0.090987 0.21585 0.14844 0.31445l0.76367-0.76367c-0.081839-0.26179-0.13672-0.63266-0.13672-1.168h-1zm12 0c0 0.53531-0.05488 0.90618-0.13672 1.168l0.76367 0.76367c0.05745-0.0986 0.10694-0.2039 0.14844-0.31445 0.16466-0.43866 0.22461-0.95958 0.22461-1.6172h-1zm-10.131 1.8496-0.77734 0.77734c0.52056 0.27796 1.1721 0.32906 1.9082 0.34766v-1.0059c-0.46349-0.02194-0.86218-0.054441-1.1309-0.11914zm9.2617 0c-0.26868 0.0647-0.66736 0.097201-1.1309 0.11914v1.0059c0.73613-0.0186 1.3876-0.069696 1.9082-0.34766l-0.77734-0.77734zm-7.1309 0.15039v1h1v-1h-1zm2 0v1h1v-1h-1zm2 0v1h1v-1h-1z" fill="#808080"/>
</svg>
