<svg height="16" width="16" xmlns="http://www.w3.org/2000/svg">
    <path d="M12.006 0c1.258.015 2.179-.028 2.931.387.377.207.674.557.838.996.165.438.225.96.225 1.617v4h-.01c.028.332-.03.678-.18 1.006-.203.447-.544.878-1.03 1.365L9.37 14.78c-.486.488-.918.828-1.364 1.032a1.973 1.973 0 01-1.362.119c-.865-.25-1.514-.966-2.457-1.887l-.002-.004-2.228-2.227v-.002C1.036 10.867.322 10.22.072 9.353a1.966 1.966 0 01.117-1.359c.203-.447.544-.878 1.031-1.365L6.63 1.22C7.116.733 7.547.392 7.994.189A2.015 2.015 0 019 .007V0h3.004zM12 1H9s-.335.035-.572.143c-.265.12-.618.381-1.057.82L1.96 7.371c-.44.439-.698.792-.819 1.057-.12.265-.125.424-.064.635.122.42.704 1.07 1.625 2.013l.004.004 2.219 2.217c.943.921 1.59 1.503 2.011 1.625.211.06.37.056.635-.064s.618-.38 1.057-.819l5.41-5.41c.439-.439.698-.79.818-1.055C14.965 7.337 15 7 15 7V3c0-.592-.063-1.006-.16-1.266-.098-.26-.202-.371-.385-.472C14.09 1.06 13.26 1.015 12 1zm1.05 1.002a1 1 0 01.948 1.049 1 1 0 01-1.049.947 1 1 0 01-.947-1.049 1 1 0 011.049-.947z" style="line-height:normal;font-variant-ligatures:normal;font-variant-position:normal;font-variant-caps:normal;font-variant-numeric:normal;font-variant-alternates:normal;font-feature-settings:normal;text-indent:0;text-align:start;text-decoration-line:none;text-decoration-style:solid;text-decoration-color:#000;text-transform:none;text-orientation:mixed;white-space:normal;shape-padding:0;isolation:auto;mix-blend-mode:normal;solid-color:#000;solid-opacity:1;marker:none" color="#000" font-weight="400" font-family="sans-serif" overflow="visible" fill="gray"/>
</svg>
