<svg height="16" width="16" xmlns="http://www.w3.org/2000/svg">
    <g transform="translate(-112 -540)" fill="gray">
        <path d="M117 540c-1.104 0-2 1.096-2 2.45v.55l2.857 5-2.857 5v.55c0 1.354.896 2.45 2 2.45h5c1.104 0 2-1.096 2-2.45V553l-2.84-5 2.84-5v-.55c0-1.354-.896-2.45-2-2.45zm2.025 1.012c1.368 0 1.74.014 3.102.047.677.17.868 1.018.832 1.636C121.958 544.465 120 548 120 548s2.135 3.483 2.96 5.305c.035.618-.156 1.466-.833 1.636-2.725.066-2.486.054-5.18.012-.726-.13-.953-1.013-.926-1.65C116.985 551.509 119 548 119 548s-2.143-3.478-2.979-5.303c-.027-.637.2-1.52.926-1.65 1.347-.021.71-.035 2.078-.035z"/>
        <path d="M117.75 544l1.746 3.438L121.25 544zm1.75 5l-.395 3.025c-1.211.158-2.101.994-2.101 1.975h5a1.72 1.72 0 000-.102c-.062-.946-.947-1.729-2.12-1.873z"/>
        <rect height="1" rx=".5" ry=".5" width="11" x="114" y="540"/>
        <rect height="1" rx=".5" ry=".5" width="11" x="114" y="555"/>
    </g>
</svg>
