<svg version="1.1" viewBox="0 0 16 16" xmlns="http://www.w3.org/2000/svg" xmlns:osb="http://www.openswatchbook.org/uri/2009/osb">
 <g transform="translate(-232,-480)">
  <path d="m238.96 481c-0.40445 0.85426-0.79836 1.7203-1.1797 2.5977-0.38133 0.87734-0.76922 1.7998-1.1621 2.7695-0.38133 0.9697-0.77328 1.9988-1.1777 3.084-0.40445 1.0851-0.83254 2.2674-1.2832 3.5488h2.2715c0.16178-0.46176 0.3226-0.92301 0.48437-1.3848 0.17333-0.4733 0.42416-1.1304 0.58594-1.6152h4.9004c0.16178 0.48485 0.40675 1.1359 0.58008 1.5977s0.34212 0.92904 0.50391 1.4023h2.3574c-0.45067-1.2814-0.88478-2.4637-1.3008-3.5488-0.40445-1.0851-0.80243-2.1143-1.1953-3.084-0.38133-0.9697-0.7632-1.8922-1.1445-2.7695-0.38133-0.87735-0.77328-1.7434-1.1777-2.5977zm4.5391 12c-0.41667 0-0.7663 0.23752-0.97852 0.49219-0.21223 0.25466-0.34375 0.53515-0.46875 0.78515s-0.24348 0.46951-0.34375 0.58985c-0.10028 0.12033-0.12565 0.13281-0.20898 0.13281-0.0833 0-0.10871-0.0125-0.20898-0.13281-0.10028-0.12034-0.21875-0.33985-0.34375-0.58985s-0.25653-0.53049-0.46875-0.78515c-0.21223-0.25467-0.56185-0.49219-0.97852-0.49219s-0.76629 0.23752-0.97852 0.49219c-0.21222 0.25466-0.34375 0.53515-0.46875 0.78515s-0.24347 0.46951-0.34375 0.58985c-0.10027 0.12033-0.12565 0.13281-0.20898 0.13281-0.0833 0-0.10871-0.0125-0.20898-0.13281-0.10028-0.12034-0.21875-0.33985-0.34375-0.58985s-0.25653-0.53049-0.46875-0.78515c-0.21223-0.25467-0.56185-0.49219-0.97852-0.49219s-0.76629 0.23752-0.97852 0.49219c-0.21222 0.25466-0.34375 0.53515-0.46875 0.78515s-0.24347 0.46951-0.34375 0.58985c-0.10027 0.12033-0.12565 0.13281-0.20898 0.13281v1c0.41667 0 0.76629-0.23752 0.97852-0.49219 0.21222-0.25466 0.34375-0.53515 0.46875-0.78515s0.24347-0.46951 0.34375-0.58985c0.10027-0.12033 0.12565-0.13281 0.20898-0.13281 0.0833 0 0.10871 0.0125 0.20898 0.13281 0.10028 0.12034 0.21875 0.33985 0.34375 0.58985s0.25653 0.53049 0.46875 0.78515c0.21223 0.25467 0.56185 0.49219 0.97852 0.49219s0.76629-0.23752 0.97852-0.49219c0.21222-0.25466 0.34375-0.53515 0.46875-0.78515s0.24347-0.46951 0.34375-0.58985c0.10027-0.12033 0.12565-0.13281 0.20898-0.13281 0.0833 0 0.10871 0.0125 0.20898 0.13281 0.10028 0.12034 0.21875 0.33985 0.34375 0.58985s0.25653 0.53049 0.46875 0.78515c0.21223 0.25467 0.56185 0.49219 0.97852 0.49219s0.76629-0.23752 0.97852-0.49219c0.21222-0.25466 0.34375-0.53515 0.46875-0.78515s0.24347-0.46951 0.34375-0.58985c0.10027-0.12033 0.12565-0.13281 0.20898-0.13281 0.0833 0 0.10871 0.0125 0.20898 0.13281 0.10028 0.12034 0.21875 0.33985 0.34375 0.58985s0.25653 0.53049 0.46875 0.78515c0.21223 0.25467 0.56185 0.49219 0.97852 0.49219s0.76629-0.23752 0.97852-0.49219c8e-3 -0.0101 0.0133-0.021 0.0215-0.0312v-1.9531c-0.19773 0.24642-0.32724 0.51385-0.44727 0.7539-0.125 0.25-0.24347 0.46951-0.34375 0.58985-0.10029 0.12028-0.12567 0.13276-0.209 0.13276-0.0833 0-0.10871-0.0125-0.20898-0.13281-0.10028-0.12034-0.21875-0.33985-0.34375-0.58985s-0.25653-0.53049-0.46875-0.78515c-0.21223-0.25467-0.56185-0.49219-0.97852-0.49219zm-3.5-9.6797c0.25422 0.58874 0.55372 1.3279 0.90039 2.2168 0.29698 0.76146 0.60763 1.5996 0.92188 2.4629h-3.6465c0.31245-0.86082 0.61946-1.6945 0.90625-2.4453 0.34667-0.87736 0.65219-1.6226 0.91797-2.2344z" fill="#808080" style="font-feature-settings:normal;font-variant-caps:normal;font-variant-ligatures:normal;font-variant-numeric:normal"/>
 </g>
</svg>
