<?xml version="1.0" encoding="UTF-8" standalone="no"?>
<svg
   xmlns:dc="http://purl.org/dc/elements/1.1/"
   xmlns:cc="http://creativecommons.org/ns#"
   xmlns:rdf="http://www.w3.org/1999/02/22-rdf-syntax-ns#"
   xmlns:svg="http://www.w3.org/2000/svg"
   xmlns="http://www.w3.org/2000/svg"
   xmlns:sodipodi="http://sodipodi.sourceforge.net/DTD/sodipodi-0.dtd"
   xmlns:inkscape="http://www.inkscape.org/namespaces/inkscape"
   height="16"
   width="16"
   version="1.1"
   id="svg6"
   sodipodi:docname="view-more-horizontal-symbolic.svg">
  <metadata
     id="metadata12">
    <rdf:RDF>
      <cc:Work
         rdf:about="">
        <dc:format>image/svg+xml</dc:format>
        <dc:type
           rdf:resource="http://purl.org/dc/dcmitype/StillImage" />
      </cc:Work>
    </rdf:RDF>
  </metadata>
  <defs
     id="defs10" />
  <sodipodi:namedview
     pagecolor="#ffffff"
     bordercolor="#666666"
     borderopacity="1"
     objecttolerance="10"
     gridtolerance="10"
     guidetolerance="10"
     inkscape:pageopacity="0"
     inkscape:pageshadow="2"
     inkscape:window-width="640"
     inkscape:window-height="480"
     id="namedview8" />
  <g
     color="#000"
     fill="gray"
     id="g4">
    <path
       d="M3.805 7C3.268 7 3 7 3 7.625v.75C3 9 3.268 9 3.805 9h.39C4.732 9 5 9 5 8.375v-.75C5 7.022 4.732 7 4.195 7zM7.805 7C7.268 7 7 7 7 7.625v.75C7 9 7.268 9 7.805 9h.39C8.732 9 9 9 9 8.375v-.75C9 7.022 8.732 7 8.195 7zM11.805 7C11.268 7 11 7 11 7.625v.75c0 .625.268.625.805.625h.39C12.732 9 13 9 13 8.375v-.75c0-.603-.268-.625-.805-.625z"
       style="marker:none"
       overflow="visible"
       id="path2" />
  </g>
</svg>
