<?xml version="1.0" encoding="UTF-8" standalone="no"?>
<svg
   xmlns:dc="http://purl.org/dc/elements/1.1/"
   xmlns:cc="http://creativecommons.org/ns#"
   xmlns:rdf="http://www.w3.org/1999/02/22-rdf-syntax-ns#"
   xmlns:svg="http://www.w3.org/2000/svg"
   xmlns="http://www.w3.org/2000/svg"
   xmlns:sodipodi="http://sodipodi.sourceforge.net/DTD/sodipodi-0.dtd"
   xmlns:inkscape="http://www.inkscape.org/namespaces/inkscape"
   height="16"
   width="16"
   version="1.1"
   id="svg8"
   sodipodi:docname="view-refresh-symbolic.svg">
  <metadata
     id="metadata14">
    <rdf:RDF>
      <cc:Work
         rdf:about="">
        <dc:format>image/svg+xml</dc:format>
        <dc:type
           rdf:resource="http://purl.org/dc/dcmitype/StillImage" />
      </cc:Work>
    </rdf:RDF>
  </metadata>
  <defs
     id="defs12" />
  <sodipodi:namedview
     pagecolor="#ffffff"
     bordercolor="#666666"
     borderopacity="1"
     objecttolerance="10"
     gridtolerance="10"
     guidetolerance="10"
     inkscape:pageopacity="0"
     inkscape:pageshadow="2"
     inkscape:window-width="640"
     inkscape:window-height="480"
     id="namedview10" />
  <g
     color="#000"
     fill="gray"
     id="g6">
    <path
       d="M13.909 1.307l-3.304 3.307c.732.273 1.5.527 2.306.764.8.231 1.592.436 2.375.612a48.514 48.514 0 00-.621-2.366 40.298 40.298 0 00-.756-2.316z"
       style="marker:none"
       overflow="visible"
       id="path2" />
    <path
       d="M8.102 1A7.003 7.003 0 001 8a7.003 7.003 0 004.895 6.676 7.005 7.005 0 007.84-2.66l.287-.41-.82-.575-.288.41a5.996 5.996 0 01-6.719 2.282A5.996 5.996 0 012 8a5.996 5.996 0 014.195-5.723 5.996 5.996 0 016.72 2.282l.286.41.82-.574-.287-.41A7.006 7.006 0 008.102 1z"
       style="line-height:normal;font-variant-ligatures:normal;font-variant-position:normal;font-variant-caps:normal;font-variant-numeric:normal;font-variant-alternates:normal;font-feature-settings:normal;text-indent:0;text-align:start;text-decoration-line:none;text-decoration-style:solid;text-decoration-color:#000;text-transform:none;text-orientation:mixed;shape-padding:0;isolation:auto;mix-blend-mode:normal"
       font-weight="400"
       font-family="sans-serif"
       overflow="visible"
       id="path4" />
  </g>
</svg>
