<svg height="16" width="16" xmlns="http://www.w3.org/2000/svg">
    <g fill="gray">
        <path d="M7.998 1.958A8 8 0 00.26 7.968a8 8 0 007.738 5.99 8 8 0 007.738-6.01 8 8 0 00-7.738-5.99zm-.078 1.03c1.74-.02 3.51.632 4.777 1.835.94.83 1.602 1.936 1.979 3.125a6.981 6.981 0 01-6.926 4.975c-1.036-.014-2.105-.334-2.992-.795-1.618-.853-2.885-2.358-3.42-4.11.085-.518.345-1.024.597-1.494C3.124 4.4 5.481 2.994 7.92 2.987z" style="marker:none"/>
        <path d="M8.193 3.962a4 4 0 103.799 3.793v-.002a4 4 0 00-3.799-3.791zm-.348 1a3 3 0 013.149 2.842v.002a3 3 0 01-2.844 3.148A3 3 0 015.002 8.11a3 3 0 012.843-3.148z"/>
        <path d="M7.896 5.96A2 2 0 006 8.06a2 2 0 002.1 1.896 2 2 0 001.896-2.1 2 2 0 00-.088-.486 1 1 0 01-.86.586A1 1 0 018 7.01a1 1 0 01.582-.961 2 2 0 00-.686-.088z"/>
    </g>
</svg>
