<svg xmlns="http://www.w3.org/2000/svg" height="16" width="16">
    <path style="line-height:normal;font-variant-ligatures:normal;font-variant-position:normal;font-variant-caps:normal;font-variant-numeric:normal;font-variant-alternates:normal;font-variant-east-asian:normal;font-feature-settings:normal;font-variation-settings:normal;text-indent:0;text-align:start;text-decoration-line:none;text-decoration-style:solid;text-decoration-color:#000;text-transform:none;text-orientation:mixed;white-space:normal;shape-padding:0;shape-margin:0;inline-size:0;isolation:auto;mix-blend-mode:normal;solid-color:#000;solid-opacity:1" d="M3.5 0c-1 0-1.794-.037-2.473.303-.34.17-.63.462-.797.838C.064 1.516 0 1.958 0 2.5V5h1V2.5c0-.313.034-.533.078-.715l4.068 4.069a.5.5 0 00.708 0 .5.5 0 000-.708l-4.05-4.048C2.187 1.022 2.762 1 3.5 1H5V0H3.5zM11 0v1h2.5c.313 0 .533.034.715.078l-4.069 4.068a.5.5 0 000 .708.5.5 0 00.708 0l4.048-4.05c.076.382.098.957.098 1.696V5h1V3.5c0-1 .037-1.794-.303-2.473A1.72 1.72 0 0014.86.23C14.484.064 14.042 0 13.5 0H11zM5.477 10a.5.5 0 00-.33.146l-4.05 4.05C1.023 13.813 1 13.238 1 12.5V11H0v1.5c0 1-.037 1.794.303 2.473.17.34.462.63.838.797.375.166.817.23 1.359.23H5v-1H2.5a2.91 2.91 0 01-.715-.078l4.069-4.068a.5.5 0 000-.708.5.5 0 00-.377-.146zm5 0a.5.5 0 00-.33.146.5.5 0 000 .708l4.048 4.048c-.381.076-.956.098-1.695.098H11v1h1.5c1 0 1.794.037 2.473-.303.34-.17.63-.462.797-.838.166-.375.23-.817.23-1.359V11h-1v2.5c0 .313-.034.533-.078.715l-4.068-4.069a.5.5 0 00-.377-.146z" color="#000" font-weight="400" font-family="sans-serif" overflow="visible" fill="gray"/>
</svg>
