<?xml version="1.0" encoding="UTF-8" standalone="no"?>
<svg
   xmlns:dc="http://purl.org/dc/elements/1.1/"
   xmlns:cc="http://creativecommons.org/ns#"
   xmlns:rdf="http://www.w3.org/1999/02/22-rdf-syntax-ns#"
   xmlns:svg="http://www.w3.org/2000/svg"
   xmlns="http://www.w3.org/2000/svg"
   xmlns:sodipodi="http://sodipodi.sourceforge.net/DTD/sodipodi-0.dtd"
   xmlns:inkscape="http://www.inkscape.org/namespaces/inkscape"
   height="16"
   width="16"
   version="1.1"
   id="svg10"
   sodipodi:docname="view-layout-symbolic.svg">
  <metadata
     id="metadata16">
    <rdf:RDF>
      <cc:Work
         rdf:about="">
        <dc:format>image/svg+xml</dc:format>
        <dc:type
           rdf:resource="http://purl.org/dc/dcmitype/StillImage" />
      </cc:Work>
    </rdf:RDF>
  </metadata>
  <defs
     id="defs14" />
  <sodipodi:namedview
     pagecolor="#ffffff"
     bordercolor="#666666"
     borderopacity="1"
     objecttolerance="10"
     gridtolerance="10"
     guidetolerance="10"
     inkscape:pageopacity="0"
     inkscape:pageshadow="2"
     inkscape:window-width="640"
     inkscape:window-height="480"
     id="namedview12" />
  <g
     fill="gray"
     id="g8">
    <path
       d="M7.998 1.958A8 8 0 00.26 7.968a8 8 0 007.738 5.99 8 8 0 007.738-6.01 8 8 0 00-7.738-5.99zm-.078 1.03c1.74-.02 3.51.632 4.777 1.835.94.83 1.602 1.936 1.979 3.125a6.981 6.981 0 01-6.926 4.975c-1.036-.014-2.105-.334-2.992-.795-1.618-.853-2.885-2.358-3.42-4.11.085-.518.345-1.024.597-1.494C3.124 4.4 5.481 2.994 7.92 2.987z"
       style="marker:none"
       id="path2" />
    <path
       d="M8.193 3.962a4 4 0 103.799 3.793v-.002a4 4 0 00-3.799-3.791zm-.348 1a3 3 0 013.149 2.842v.002a3 3 0 01-2.844 3.148A3 3 0 015.002 8.11a3 3 0 012.843-3.148z"
       id="path4" />
    <path
       d="M7.896 5.96A2 2 0 006 8.06a2 2 0 002.1 1.896 2 2 0 001.896-2.1 2 2 0 00-.088-.486 1 1 0 01-.86.586A1 1 0 018 7.01a1 1 0 01.582-.961 2 2 0 00-.686-.088z"
       id="path6" />
  </g>
</svg>
