<svg version="1.1" viewBox="0 0 16 16" xmlns="http://www.w3.org/2000/svg">
 <path d="m14.477 1a0.5 0.5 0 0 0-0.33008 0.14648l-4.1465 4.1465v-2.793a0.5 0.5 0 0 0-0.5-0.5 0.5 0.5 0 0 0-0.5 0.5v4a0.50005 0.50005 0 0 0 0 0.0078125 0.5 0.5 0 0 0 0.0039062 0.039062 0.50005 0.50005 0 0 0 0 0.011719 0.5 0.5 0 0 0 0.0039063 0.023437 0.50005 0.50005 0 0 0 0.0097656 0.044922 0.5 0.5 0 0 0 0.0078125 0.03125 0.50005 0.50005 0 0 0 0.0058594 0.015625 0.5 0.5 0 0 0 0.0097656 0.021484 0.50005 0.50005 0 0 0 0.021484 0.044922 0.5 0.5 0 0 0 0.019531 0.033203 0.50005 0.50005 0 0 0 0.0058594 0.0097656 0.5 0.5 0 0 0 0.03125 0.039062 0.50005 0.50005 0 0 0 0.0078125 0.0078125 0.5 0.5 0 0 0 0.011719 0.013672 0.5 0.5 0 0 0 0.0078125 0.0097656 0.5 0.5 0 0 0 0.015625 0.013672 0.50005 0.50005 0 0 0 0.0097656 0.0078125 0.5 0.5 0 0 0 0.025391 0.021484 0.50005 0.50005 0 0 0 0.039062 0.025391 0.5 0.5 0 0 0 0.0097657 0.0058594 0.50005 0.50005 0 0 0 0.023437 0.013672 0.5 0.5 0 0 0 0.044922 0.021484 0.5 0.5 0 0 0 0.054688 0.019531 0.5 0.5 0 0 0 0.0019532 0 0.50005 0.50005 0 0 0 0.0058593 0.0019531 0.5 0.5 0 0 0 0.039062 0.0078125 0.50005 0.50005 0 0 0 0.039062 0.0039063 0.5 0.5 0 0 0 0.0097657 0.0019531 0.50005 0.50005 0 0 0 0.0058593 0 0.50005 0.50005 0 0 0 0.029297 0.0019531 0.5 0.5 0 0 0 0.023438 0h3.9766a0.5 0.5 0 0 0 0.5-0.5 0.5 0.5 0 0 0-0.5-0.5h-2.793l4.1465-4.1465a0.5 0.5 0 0 0 0-0.70703 0.5 0.5 0 0 0-0.37695-0.14648zm-11.977 8a0.5 0.5 0 0 0-0.5 0.5 0.5 0.5 0 0 0 0.5 0.5h2.793l-4.1465 4.1465a0.5 0.5 0 0 0 0 0.70703 0.5 0.5 0 0 0 0.37695 0.14648 0.5 0.5 0 0 0 0.33008-0.14648l4.1465-4.1465v2.793a0.5 0.5 0 0 0 0.5 0.5 0.5 0.5 0 0 0 0.5-0.5v-4a0.50005 0.50005 0 0 0 0-0.0078125 0.5 0.5 0 0 0-0.0039062-0.052734 0.50005 0.50005 0 0 0-0.0039063-0.021484 0.5 0.5 0 0 0-0.0058594-0.035156 0.50005 0.50005 0 0 0-0.0058593-0.023438 0.5 0.5 0 0 0-0.0058594-0.015625 0.50005 0.50005 0 0 0-0.015625-0.041016 0.5 0.5 0 0 0-0.013672-0.03125 0.50005 0.50005 0 0 0-0.011719-0.021484 0.5 0.5 0 0 0-0.0078126-0.011719 0.50005 0.50005 0 0 0-0.025391-0.037109 0.5 0.5 0 0 0-0.023438-0.029297 0.50005 0.50005 0 0 0-0.015625-0.017578 0.5 0.5 0 0 0-0.0078125-0.0078125 0.50005 0.50005 0 0 0-0.015625-0.013672 0.5 0.5 0 0 0-0.0019531-0.0019531 0.50005 0.50005 0 0 0-0.076172-0.058594 0.5 0.5 0 0 0-0.0039062-0.0019531 0.50005 0.50005 0 0 0-0.048828-0.025391 0.5 0.5 0 0 0-0.021484-0.0097657 0.50005 0.50005 0 0 0-0.015625-0.0058593 0.5 0.5 0 0 0-0.041016-0.011719 0.50005 0.50005 0 0 0-0.035156-0.0078125 0.5 0.5 0 0 0-0.050781-0.0058594 0.50005 0.50005 0 0 0-0.0078126-0.0019531 0.5 0.5 0 0 0-0.0058593 0 0.50005 0.50005 0 0 0-0.029297-0.0019531h-4z" color="#000000" color-rendering="auto" dominant-baseline="auto" fill="#808080" image-rendering="auto" shape-rendering="auto" solid-color="#000000" stop-color="#000000" style="font-feature-settings:normal;font-variant-alternates:normal;font-variant-caps:normal;font-variant-east-asian:normal;font-variant-ligatures:normal;font-variant-numeric:normal;font-variant-position:normal;font-variation-settings:normal;inline-size:0;isolation:auto;mix-blend-mode:normal;shape-margin:0;shape-padding:0;text-decoration-color:#000000;text-decoration-line:none;text-decoration-style:solid;text-indent:0;text-orientation:mixed;text-transform:none;white-space:normal"/>
</svg>
