<svg height="16" width="16" xmlns="http://www.w3.org/2000/svg">
    <g color="#000" fill="gray">
        <path d="M3.805 7C3.268 7 3 7 3 7.625v.75C3 9 3.268 9 3.805 9h.39C4.732 9 5 9 5 8.375v-.75C5 7.022 4.732 7 4.195 7zM7.805 7C7.268 7 7 7 7 7.625v.75C7 9 7.268 9 7.805 9h.39C8.732 9 9 9 9 8.375v-.75C9 7.022 8.732 7 8.195 7zM11.805 7C11.268 7 11 7 11 7.625v.75c0 .625.268.625.805.625h.39C12.732 9 13 9 13 8.375v-.75c0-.603-.268-.625-.805-.625z" style="marker:none" overflow="visible"/>
    </g>
</svg>
