<svg viewBox="0 0 16 16" xmlns="http://www.w3.org/2000/svg">
 <path d="M0 3v9c0 2 1 2 3 2h3c.975 0 1.602.8 1.602.8l.39.518.4-.51s.652-.793 1.612-.808H13c2 0 3 0 3-2V3c0-2-1-2-3-2h-3c-1.036 0-1.635.465-2 .82C7.635 1.465 7.036 1 6 1H3C1 1 0 1 0 3zm1 0c0-1 1-1 2-1h3c.983 0 1.6.799 1.6.799l.4.535.4-.535S9.017 2 10 2h3c1 0 2 0 2 1v9c0 1-1 1-2 1H9.992c-1.025.015-1.624.478-1.988.824A2.791 2.791 0 006 13H3c-1 0-2 0-2-1zm1 1v1h4V4zm7 0v1h4V4zM2 6v1h4V6zm7 0v1h4V6zM2 8v1h4V8zm7 0v1h4V8zm-7 2v1h4v-1zm7 0v1h4v-1z" fill="gray" font-family="sans-serif" font-weight="400" overflow="visible" style="font-feature-settings:normal;font-variant-alternates:normal;font-variant-caps:normal;font-variant-ligatures:none;font-variant-numeric:normal;font-variant-position:normal;isolation:auto;mix-blend-mode:normal;shape-padding:0;text-decoration-color:#000;text-decoration-line:none;text-decoration-style:solid;text-indent:0;text-transform:none"/>
</svg>
