<?xml version="1.0" encoding="UTF-8" standalone="no"?>
<svg
   xmlns:dc="http://purl.org/dc/elements/1.1/"
   xmlns:cc="http://creativecommons.org/ns#"
   xmlns:rdf="http://www.w3.org/1999/02/22-rdf-syntax-ns#"
   xmlns:svg="http://www.w3.org/2000/svg"
   xmlns="http://www.w3.org/2000/svg"
   xmlns:sodipodi="http://sodipodi.sourceforge.net/DTD/sodipodi-0.dtd"
   xmlns:inkscape="http://www.inkscape.org/namespaces/inkscape"
   height="16"
   width="16"
   version="1.1"
   id="svg4"
   sodipodi:docname="window-symbolic.svg">
  <metadata
     id="metadata10">
    <rdf:RDF>
      <cc:Work
         rdf:about="">
        <dc:format>image/svg+xml</dc:format>
        <dc:type
           rdf:resource="http://purl.org/dc/dcmitype/StillImage" />
      </cc:Work>
    </rdf:RDF>
  </metadata>
  <defs
     id="defs8" />
  <sodipodi:namedview
     pagecolor="#ffffff"
     bordercolor="#666666"
     borderopacity="1"
     objecttolerance="10"
     gridtolerance="10"
     guidetolerance="10"
     inkscape:pageopacity="0"
     inkscape:pageshadow="2"
     inkscape:window-width="640"
     inkscape:window-height="480"
     id="namedview6" />
  <path
     style="line-height:normal;text-indent:0;text-align:start;text-decoration-line:none;text-decoration-style:solid;text-decoration-color:#000;text-transform:none;white-space:normal;isolation:auto;mix-blend-mode:normal;solid-color:#000;solid-opacity:1;marker:none"
     d="M3.95 1c-1.245.015-2.155-.03-2.9.385-.371.207-.665.56-.827.998C.06 2.82 0 3.343 0 4v9c0 .658.06 1.179.223 1.617.162.439.456.79.828.998.744.416 1.654.37 2.898.385h8.102c1.244-.014 2.154.03 2.898-.385.372-.207.666-.56.828-.998.163-.438.223-.96.223-1.617V4c0-.658-.06-1.179-.223-1.617a1.873 1.873 0 00-.828-.998c-.744-.416-1.654-.37-2.898-.385H3.949zM1.112 4H14.886c.089 2.323.125 5.877.126 8 0 1 .207 2.328-.766 2.775-.734.24-2.202.225-4.18.225H5.934c-1.978 0-3.446.016-4.18-.225C.78 14.328.988 13 .988 12c.001-2.123.037-5.677.125-8z"
     font-weight="400"
     font-family="sans-serif"
     overflow="visible"
     color="#000"
     fill="gray"
     id="path2" />
</svg>
