<?xml version="1.0" encoding="UTF-8" standalone="no"?>
<svg
   xmlns:dc="http://purl.org/dc/elements/1.1/"
   xmlns:cc="http://creativecommons.org/ns#"
   xmlns:rdf="http://www.w3.org/1999/02/22-rdf-syntax-ns#"
   xmlns:svg="http://www.w3.org/2000/svg"
   xmlns="http://www.w3.org/2000/svg"
   xmlns:sodipodi="http://sodipodi.sourceforge.net/DTD/sodipodi-0.dtd"
   xmlns:inkscape="http://www.inkscape.org/namespaces/inkscape"
   height="16"
   width="16"
   version="1.1"
   id="svg8"
   sodipodi:docname="colorimeter-colorhug-symbolic.svg"
   inkscape:version="1.0.2 (e86c870879, 2021-01-15)">
  <metadata
     id="metadata14">
    <rdf:RDF>
      <cc:Work
         rdf:about="">
        <dc:format>image/svg+xml</dc:format>
        <dc:type
           rdf:resource="http://purl.org/dc/dcmitype/StillImage" />
        <dc:title></dc:title>
      </cc:Work>
    </rdf:RDF>
  </metadata>
  <defs
     id="defs12" />
  <sodipodi:namedview
     pagecolor="#ffffff"
     bordercolor="#666666"
     borderopacity="1"
     objecttolerance="10"
     gridtolerance="10"
     guidetolerance="10"
     inkscape:pageopacity="0"
     inkscape:pageshadow="2"
     inkscape:window-width="1366"
     inkscape:window-height="704"
     id="namedview10"
     showgrid="true"
     inkscape:zoom="21.566757"
     inkscape:cx="12.699922"
     inkscape:cy="11.680803"
     inkscape:window-x="0"
     inkscape:window-y="0"
     inkscape:window-maximized="1"
     inkscape:current-layer="svg8">
    <inkscape:grid
       type="xygrid"
       id="grid1016" />
  </sodipodi:namedview>
  <g
     color="#000"
     font-weight="400"
     font-family="sans-serif"
     white-space="normal"
     fill="gray"
     id="g6"
     style="fill:#808080;fill-opacity:1">
    <path
       d="M4.994 1c-1.258.015-2.179-.03-2.931.385a1.88 1.88 0 0 0-.84.998C1.06 2.822 1 3.343 1 4v8c0 .657.06 1.178.224 1.617.164.439.462.79.839.997.752.415 1.673.371 2.931.386H11.006c1.258-.015 2.178.03 2.931-.386.377-.208.675-.558.84-.997.164-.439.223-.96.223-1.617V4c0-.658-.06-1.178-.224-1.617a1.88 1.88 0 0 0-.839-.998c-.753-.415-1.673-.37-2.931-.385H4.997zm.011 1H11c1.26.014 2.088.059 2.454.261.183.101.288.213.385.473.098.26.16.673.16 1.266v8c0 .592-.062 1.005-.16 1.265-.097.26-.202.372-.385.474-.366.202-1.195.246-2.454.26H5c-1.26-.014-2.088-.058-2.454-.26-.183-.102-.288-.214-.385-.474C2.063 13.005 2 12.592 2 12V4c0-.593.062-1.006.16-1.266.097-.26.202-.372.385-.473.367-.202 1.196-.247 2.46-.261z"
       style="line-height:normal;font-variant-ligatures:normal;font-variant-position:normal;font-variant-caps:normal;font-variant-numeric:normal;font-variant-alternates:normal;font-feature-settings:normal;text-indent:0;text-align:start;text-decoration-line:none;text-decoration-style:solid;text-decoration-color:#000;text-transform:none;text-orientation:mixed;shape-padding:0;isolation:auto;mix-blend-mode:normal;marker:none;fill:#808080;fill-opacity:1"
       overflow="visible"
       id="path4" />
  </g>
  <path
     id="path2-6"
     style="stroke-width:0.797143;marker:none;fill:#808080;fill-opacity:1"
     d="m 7.9949885,4 c -1.080926,2.190549 -1.827425,4.6341412 -1.877645,4.8015412 -0.0048,0.01993 -0.01712,0.04079 -0.01712,0.06072 A 1.9944518,1.9944518 0 0 0 7.9934375,11.481002 1.9944518,1.9944518 0 0 0 9.881981,8.8622632 c 0,0 -0.732724,-2.4677184 -1.8869865,-4.8591474 z" />
</svg>
