<?xml version="1.0" encoding="UTF-8" standalone="no"?>
<svg
   height="16"
   width="16"
   version="1.1"
   id="svg6"
   sodipodi:docname="input-pointing-stick-symbolic.svg"
   inkscape:version="1.2 (1:1.2.1+202207142221+cd75a1ee6d)"
   xmlns:inkscape="http://www.inkscape.org/namespaces/inkscape"
   xmlns:sodipodi="http://sodipodi.sourceforge.net/DTD/sodipodi-0.dtd"
   xmlns="http://www.w3.org/2000/svg"
   xmlns:svg="http://www.w3.org/2000/svg">
  <defs
     id="defs10" />
  <sodipodi:namedview
     id="namedview8"
     pagecolor="#ffffff"
     bordercolor="#666666"
     borderopacity="1.0"
     inkscape:showpageshadow="2"
     inkscape:pageopacity="0.0"
     inkscape:pagecheckerboard="0"
     inkscape:deskcolor="#d1d1d1"
     showgrid="true"
     inkscape:zoom="41.7193"
     inkscape:cx="4.8658534"
     inkscape:cy="8.1017658"
     inkscape:window-width="1920"
     inkscape:window-height="1043"
     inkscape:window-x="0"
     inkscape:window-y="0"
     inkscape:window-maximized="1"
     inkscape:current-layer="svg6">
    <inkscape:grid
       type="xygrid"
       id="grid445" />
  </sodipodi:namedview>
  <path
     id="path547"
     style="color:#000000;fill:#808080;-inkscape-stroke:none"
     d="M 3.7871094 1 C 3.1100735 1 2.5365912 1.0477356 2.0273438 1.3027344 C 1.687345 1.4727336 1.397468 1.7646266 1.2304688 2.140625 C 1.0644692 2.5156234 1 2.958002 1 3.5 L 1 5.5 C 1 6.041998 1.0644693 6.4833763 1.2304688 6.859375 C 1.397468 7.2343734 1.688345 7.5282664 2.0273438 7.6972656 C 2.7073409 8.0372644 3.000004 8 4 8 L 4.7871094 8 C 4.1100964 8.00553 3.5365914 8.0477356 3.0273438 8.3027344 C 2.687345 8.4727336 2.397468 8.7646268 2.2304688 9.140625 C 2.0644692 9.5156238 2 9.9580025 2 10.5 L 2 12.5 C 2 13.041996 2.0644693 13.483375 2.2304688 13.859375 C 2.397468 14.234375 2.688345 14.528266 3.0273438 14.697266 C 3.707341 15.037262 4.5000038 15 5.5 15 L 9.5 15 C 10.499996 15 11.29366 15.037257 11.972656 14.697266 C 12.312656 14.527266 12.602531 14.235375 12.769531 13.859375 C 12.935531 13.484375 13 13.041996 13 12.5 L 13 10.5 C 13 9.9580025 12.93553 9.5166238 12.769531 9.140625 C 12.608361 8.7780489 12.326914 8.4814521 11.972656 8.3027344 C 11.46266 8.0477353 10.889573 8.0054566 10.212891 8 L 11 8 C 11.999996 8 12.29366 8.0372641 12.972656 7.6972656 C 13.312656 7.5272664 13.602531 7.2353734 13.769531 6.859375 C 13.935531 6.4843763 14 6.041998 14 5.5 L 14 3.5 C 14 2.958002 13.93553 2.5166234 13.769531 2.140625 C 13.60836 1.7780488 13.326913 1.4814521 12.972656 1.3027344 C 12.29266 0.96273564 11.999996 1 11 1 L 10 1 L 9.7871094 1 C 9.1100735 1 8.536591 1.0477356 8.0273438 1.3027344 C 7.8291341 1.401839 7.6497257 1.5442806 7.5 1.71875 C 7.3535678 1.5481803 7.1761105 1.4053745 6.9726562 1.3027344 C 6.2926593 0.96273564 5.999996 1 5 1 L 4 1 L 3.7871094 1 z M 4 2 L 5 2 C 5.999996 2 6.2063447 2.0372666 6.5273438 2.1972656 C 6.6873432 2.2772653 6.7724688 2.3598759 6.8554688 2.546875 C 6.9394685 2.7338742 7 3.0420019 7 3.5 L 7 4.5 C 7 4.7238412 6.9855282 4.9108078 6.9609375 5.0664062 A 2.5 2.5 0 0 0 5.5136719 5.9941406 C 5.36578 5.9981649 5.2087259 6 5 6 L 4 6 C 3.000004 6 2.7936551 5.9627334 2.4726562 5.8027344 C 2.3204577 5.7352714 2.2019853 5.6093768 2.1445312 5.453125 C 2.0595315 5.2661258 2 4.957998 2 4.5 L 2 3.5 C 2 3.0420019 2.0605313 2.7338742 2.1445312 2.546875 C 2.2019852 2.3906232 2.3204577 2.2647285 2.4726562 2.1972656 C 2.7926551 2.0372664 3.000004 2 4 2 z M 10 2 L 11 2 C 11.999996 2 12.206344 2.0372666 12.527344 2.1972656 C 12.687344 2.2772653 12.772469 2.3598759 12.855469 2.546875 C 12.939469 2.7338742 13 3.0420019 13 3.5 L 13 4.5 C 13 4.957998 12.93947 5.2661258 12.855469 5.453125 C 12.798019 5.6093768 12.679543 5.7352715 12.527344 5.8027344 C 12.207344 5.9627339 11.999996 6 11 6 L 10 6 C 9.7944482 6 9.6405146 5.998032 9.4941406 5.9941406 A 2.5 2.5 0 0 0 8.0390625 5.0605469 C 8.0151041 4.9059794 8 4.7213163 8 4.5 L 8 3.5 C 8 3.0420019 8.0605305 2.7338742 8.1445312 2.546875 C 8.2019812 2.3906232 8.3204578 2.2647285 8.4726562 2.1972656 C 8.7926553 2.0372664 9.000004 2 10 2 z M 7.5 6 A 1.5 1.5 0 0 1 9 7.5 A 1.5 1.5 0 0 1 7.5 9 A 1.5 1.5 0 0 1 6 7.5 A 1.5 1.5 0 0 1 7.5 6 z M 5.5 9 L 5.5078125 9 A 2.5 2.5 0 0 0 7.5 10 A 2.5 2.5 0 0 0 9.4921875 9 L 9.5 9 C 10.499996 9 11.206344 9.0372702 11.527344 9.1972656 C 11.687344 9.2772653 11.772469 9.3598756 11.855469 9.546875 C 11.939469 9.7338744 12 10.5 12 10.5 L 12 11.5 C 12 11.5 11.93947 12.266125 11.855469 12.453125 C 11.798019 12.609378 11.679543 12.735271 11.527344 12.802734 C 11.207344 12.962734 10.499996 13 9.5 13 L 5.5 13 C 4.5000038 13 3.793655 12.96273 3.4726562 12.802734 C 3.3204577 12.735274 3.2019853 12.609378 3.1445312 12.453125 C 3.0595315 12.266125 3 11.5 3 11.5 L 3 10.5 C 3 10.5 3.0605313 9.7338744 3.1445312 9.546875 C 3.2019852 9.3906226 3.3204577 9.2647286 3.4726562 9.1972656 C 3.792655 9.0372662 4.5000038 9 5.5 9 z " />
</svg>
