<?xml version="1.0" encoding="UTF-8" standalone="no"?>
<svg
   xmlns:dc="http://purl.org/dc/elements/1.1/"
   xmlns:cc="http://creativecommons.org/ns#"
   xmlns:rdf="http://www.w3.org/1999/02/22-rdf-syntax-ns#"
   xmlns:svg="http://www.w3.org/2000/svg"
   xmlns="http://www.w3.org/2000/svg"
   xmlns:sodipodi="http://sodipodi.sourceforge.net/DTD/sodipodi-0.dtd"
   xmlns:inkscape="http://www.inkscape.org/namespaces/inkscape"
   height="16"
   width="16"
   version="1.1"
   id="svg8"
   sodipodi:docname="tv-symbolic.svg"
   inkscape:version="1.0.2 (e86c870879, 2021-01-15)">
  <metadata
     id="metadata14">
    <rdf:RDF>
      <cc:Work
         rdf:about="">
        <dc:format>image/svg+xml</dc:format>
        <dc:type
           rdf:resource="http://purl.org/dc/dcmitype/StillImage" />
        <dc:title />
      </cc:Work>
    </rdf:RDF>
  </metadata>
  <defs
     id="defs12" />
  <sodipodi:namedview
     pagecolor="#ffffff"
     bordercolor="#666666"
     borderopacity="1"
     objecttolerance="10"
     gridtolerance="10"
     guidetolerance="10"
     inkscape:pageopacity="0"
     inkscape:pageshadow="2"
     inkscape:window-width="1920"
     inkscape:window-height="1043"
     id="namedview10"
     showgrid="true"
     inkscape:zoom="4"
     inkscape:cx="-87.941919"
     inkscape:cy="-16.600918"
     inkscape:window-x="1920"
     inkscape:window-y="0"
     inkscape:window-maximized="1"
     inkscape:current-layer="svg8"
     inkscape:document-rotation="0">
    <inkscape:grid
       type="xygrid"
       id="grid831" />
  </sodipodi:namedview>
  <path
     id="path4643"
     style="color:#000000;font-style:normal;font-variant:normal;font-weight:normal;font-stretch:normal;font-size:medium;line-height:normal;font-family:sans-serif;font-variant-ligatures:normal;font-variant-position:normal;font-variant-caps:normal;font-variant-numeric:normal;font-variant-alternates:normal;font-feature-settings:normal;text-indent:0;text-align:start;text-decoration:none;text-decoration-line:none;text-decoration-style:solid;text-decoration-color:#000000;letter-spacing:normal;word-spacing:normal;text-transform:none;writing-mode:lr-tb;direction:ltr;text-orientation:mixed;baseline-shift:baseline;text-anchor:start;white-space:normal;shape-padding:0;clip-rule:nonzero;display:inline;overflow:visible;visibility:visible;opacity:1;isolation:auto;mix-blend-mode:normal;color-interpolation:sRGB;color-interpolation-filters:linearRGB;solid-color:#000000;solid-opacity:1;fill:#808080;fill-opacity:1;fill-rule:nonzero;stroke:none;stroke-width:0.666665;stroke-linecap:butt;stroke-linejoin:miter;stroke-miterlimit:4;stroke-dasharray:none;stroke-dashoffset:0;stroke-opacity:1;marker:none;color-rendering:auto;image-rendering:auto;shape-rendering:auto;text-rendering:auto;enable-background:accumulate"
     d="M 5.5683594 1.2636719 L 5.0976562 1.7363281 L 7.3613281 4 L 3.5429688 4 C 2.742373 4.00909 2.154758 3.9825906 1.6757812 4.2421875 C 1.4362926 4.3719848 1.2473556 4.5910524 1.1425781 4.8652344 C 1.0378006 5.1394164 1 5.4639692 1 5.875 L 1 12.125 C 1 12.53603 1.0378036 12.860584 1.1425781 13.134766 C 1.2473556 13.408947 1.4362928 13.629971 1.6757812 13.759766 C 2.1547579 14.019359 2.7423732 13.990908 3.5429688 14 L 3.5449219 14 L 12.455078 14 L 12.457031 14 C 13.257626 13.9909 13.845242 14.01936 14.324219 13.759766 C 14.563708 13.629971 14.752644 13.408947 14.857422 13.134766 C 14.962198 12.860584 15 12.53603 15 12.125 L 15 5.875 C 15 5.4639683 14.962193 5.1394164 14.857422 4.8652344 C 14.752644 4.5910524 14.563707 4.3700317 14.324219 4.2402344 C 13.845242 3.9806417 13.257626 4.0090915 12.457031 4 L 8.6386719 4 L 10.902344 1.7363281 L 10.429688 1.2636719 L 8 3.6953125 L 5.5683594 1.2636719 z M 3.5136719 5 L 10.181641 5 C 10.945109 5.00905 11.447996 5.0358033 11.669922 5.1601562 C 11.781093 5.2224462 11.843208 5.2931343 11.902344 5.453125 C 11.961484 5.6131158 12 5.8677599 12 6.2324219 L 12 11.767578 C 12 12.132237 11.961484 12.386882 11.902344 12.546875 C 11.843204 12.706865 11.781093 12.777552 11.669922 12.839844 C 11.447996 12.964197 10.945109 12.990958 10.181641 13 L 3.5175781 13 L 3.5136719 13 C 2.7502051 12.991 2.5520048 12.964199 2.3300781 12.839844 C 2.218907 12.777554 2.1567929 12.706865 2.0976562 12.546875 C 2.0385216 12.386883 2 12.132237 2 11.767578 L 2 6.2324219 C 2 5.8677599 2.0385152 5.6131158 2.0976562 5.453125 C 2.1567905 5.2931343 2.218907 5.222449 2.3300781 5.1601562 C 2.5520048 5.0358025 2.7502051 5.0090434 3.5136719 5 z M 13.5 6 C 13.776142 6 14 6.2238576 14 6.5 C 14 6.7761424 13.776142 7 13.5 7 C 13.223858 7 13 6.7761424 13 6.5 C 13 6.2238576 13.223858 6 13.5 6 z M 13.5 8 C 13.776142 8 14 8.2238576 14 8.5 C 14 8.7761424 13.776142 9 13.5 9 C 13.223858 9 13 8.7761424 13 8.5 C 13 8.2238576 13.223858 8 13.5 8 z " />
  <rect
     transform="rotate(90)"
     y="-16"
     x="0"
     height="16"
     width="16"
     id="rect4782"
     style="color:#000000;display:inline;overflow:visible;visibility:visible;fill:none;stroke:none;stroke-width:0.666665;marker:none;enable-background:accumulate" />
</svg>
