<?xml version="1.0" encoding="UTF-8"?>
<svg height="24px" viewBox="0 0 24 24" width="24px" xmlns="http://www.w3.org/2000/svg">
    <path d="m 2985,-2801.6382 c -0.2187,0 -0.4414,0.012 -0.6562,0.031 l -0.4063,2.0938 c -0.332,0.07 -0.6562,0.1758 -0.9687,0.3125 l -1.5313,-1.4648 c -0.3867,0.2265 -0.7266,0.5117 -1.0625,0.8085 l 0.9063,1.9063 c -0.2227,0.25 -0.4219,0.5234 -0.5938,0.8125 l -2.0937,-0.2773 c -0.1758,0.4101 -0.3125,0.8398 -0.4063,1.2773 l 1.8438,1 c -0.02,0.168 -0.027,0.332 -0.031,0.5 0,0.1719 0.016,0.332 0.031,0.5 l -1.8438,1 c 0.098,0.4453 0.2266,0.8711 0.4063,1.2812 l 2.0937,-0.2812 c 0.1719,0.2891 0.3711,0.5625 0.5938,0.8125 l -0.9063,1.9062 c 0.3359,0.3008 0.6758,0.5821 1.0625,0.8125 l 1.5313,-1.4687 c 0.3046,0.1367 0.6328,0.2383 0.9687,0.3125 l 0.4063,2.0937 c 0.4375,0.043 0.875,0.043 1.3125,0 l 0.4062,-2.0937 c 0.3359,-0.074 0.6641,-0.1758 0.9688,-0.3125 l 1.5312,1.4687 c 0.3867,-0.2304 0.7266,-0.5117 1.0625,-0.8125 l -0.9062,-1.9062 c 0.2226,-0.25 0.4218,-0.5234 0.5937,-0.8125 l 2.0938,0.2812 c 0.1757,-0.414 0.3125,-0.8398 0.4062,-1.2812 l -1.8437,-1 c 0.016,-0.168 0.031,-0.3281 0.031,-0.5 0,-0.1719 -0.016,-0.332 -0.031,-0.5 l 1.8437,-1 c -0.094,-0.4375 -0.2305,-0.8672 -0.4062,-1.2813 l -2.0938,0.2813 c -0.1719,-0.2891 -0.3672,-0.5625 -0.5937,-0.8125 l 0.9062,-1.9063 c -0.3359,-0.2968 -0.6758,-0.582 -1.0625,-0.8125 l -1.5312,1.4688 c -0.3125,-0.1367 -0.6368,-0.2422 -0.9688,-0.3125 l -0.4062,-2.0938 c -0.2188,-0.019 -0.4375,-0.031 -0.6563,-0.031 z m 0,4 c 1.6563,0 3,1.3437 3,3 0,1.6562 -1.3437,3 -3,3 -1.6562,0 -3,-1.3438 -3,-3 0,-1.6563 1.3438,-3 3,-3 z m 0,0" transform="matrix(1.5,0,0,1.5,-4465.5,4203.9569)" fill="#241f31"/>
</svg>
