<?xml version="1.0" encoding="UTF-8"?>
<svg height="64px" viewBox="0 0 64 64" width="64px" xmlns="http://www.w3.org/2000/svg">
    <g fill="#241f31">
        <path d="m 12 4 c -4.210938 0 -8 3.378906 -8 7.75 v 40.5 c 0 4.371094 3.789062 7.75 8 7.75 h 40 c 4.210938 0 8 -3.378906 8 -7.75 v -40.5 c 0 -4.371094 -3.789062 -7.75 -8 -7.75 z m -2 18 h 12 v 8 h -12 z m 16.125 0 h 11.875 v 8 h -11.875 z m 15.875 0 h 12 v 8 h -12 z m -32 12 h 12 v 8 h -12 z m 16.125 0 h 11.875 v 8 h -11.875 z m 15.875 0 h 12 v 8 h -12 z m -32 12 h 12 v 8 h -12 z m 16.125 0 h 11.875 v 8 h -11.875 z m 15.875 0 h 12 v 8 h -12 z m 0 0" fill-opacity="0.35"/>
        <path d="m 42 34 h 12 v 8 h -12 z m 0 0" fill-opacity="0.1"/>
    </g>
</svg>
