<?xml version="1.0" encoding="UTF-8"?>
<svg height="48px" viewBox="0 0 48 48" width="48px" xmlns="http://www.w3.org/2000/svg">
    <path d="m 24.164062 4 c -1.660156 0 -3 1.339844 -3 3 v 1.34375 c -5.246093 1.28125 -9.164062 6.027344 -9.164062 11.65625 v 10.296875 l -2.683594 3.355469 c -1.316406 1.648437 -0.019531 4.347656 2.089844 4.347656 h 25.1875 c 2.109375 0 3.40625 -2.699219 2.089844 -4.347656 l -2.683594 -3.355469 v -10.296875 c 0 -5.507812 -3.757812 -10.171875 -8.835938 -11.570312 v -1.429688 c 0 -1.660156 -1.339843 -3 -3 -3 z m -0.203124 7 c 5.367187 0.101562 9.039062 4.214844 9.039062 9 v 10.300781 c 0 0.679688 0.234375 1.339844 0.65625 1.871094 l 2.265625 2.828125 h -23.84375 l 2.261719 -2.828125 h 0.003906 c 0.421875 -0.53125 0.65625 -1.191406 0.65625 -1.871094 v -10.300781 c 0 -5.578125 4.90625 -9.074219 8.960938 -9 z m -3.796876 29 c 0 1.429688 0.761719 2.75 2 3.464844 c 1.238282 0.714844 2.761719 0.714844 4 0 c 1.238282 -0.714844 2 -2.035156 2 -3.464844 z m 0 0" fill="#241f31" fill-opacity="0.8"/>
</svg>
