<?xml version="1.0" encoding="UTF-8"?>
<svg height="64px" viewBox="0 0 64 64" width="64px" xmlns="http://www.w3.org/2000/svg">
    <path d="m 32 0 c -3.3125 0 -6 2.6875 -6 6 c 0 0.304688 0.023438 0.601562 0.066406 0.894531 c -8.148437 2.527344 -14.066406 10.125 -14.066406 19.105469 v 18 h -2 c -2.203125 0 -4 1.796875 -4 4 s 1.796875 4 4 4 h 44 c 2.203125 0 4 -1.796875 4 -4 s -1.796875 -4 -4 -4 h -2 v -18 c 0 -8.980469 -5.917969 -16.578125 -14.066406 -19.105469 c 0.042968 -0.292969 0.066406 -0.589843 0.066406 -0.894531 c 0 -3.3125 -2.6875 -6 -6 -6 z m -8 56 c 0 2.859375 1.53125 5.5 4 6.921875 c 2.46875 1.4375 5.53125 1.4375 8 0 c 2.46875 -1.421875 4 -4.0625 4 -6.921875 z m 0 0" fill="#241f31"/>
</svg>
