<?xml version="1.0" encoding="UTF-8"?>
<svg height="24px" viewBox="0 0 24 24" width="24px" xmlns="http://www.w3.org/2000/svg">
    <path d="m 12 2 c -5.511719 0 -10 4.488281 -10 10 s 4.488281 10 10 10 s 10 -4.488281 10 -10 s -4.488281 -10 -10 -10 z m 0 2 c 4.429688 0 8 3.570312 8 8 s -3.570312 8 -8 8 s -8 -3.570312 -8 -8 s 3.570312 -8 8 -8 z m -2.5 4.25 c -0.691406 0 -1.25 0.558594 -1.25 1.25 s 0.558594 1.25 1.25 1.25 s 1.25 -0.558594 1.25 -1.25 s -0.558594 -1.25 -1.25 -1.25 z m 5 0 c -0.691406 0 -1.25 0.558594 -1.25 1.25 s 0.558594 1.25 1.25 1.25 s 1.25 -0.558594 1.25 -1.25 s -0.558594 -1.25 -1.25 -1.25 z m -6.246094 5 c -0.121094 -0.007812 -0.242187 0.019531 -0.355468 0.085938 c -0.300782 0.171874 -0.402344 0.550781 -0.226563 0.851562 c 0.890625 1.546875 2.542969 2.5 4.328125 2.5 s 3.4375 -0.953125 4.328125 -2.5 c 0.175781 -0.300781 0.074219 -0.679688 -0.226563 -0.851562 c -0.300781 -0.175782 -0.683593 -0.074219 -0.855468 0.226562 c -0.671875 1.160156 -1.90625 1.875 -3.246094 1.875 s -2.578125 -0.714844 -3.25 -1.875 c -0.105469 -0.1875 -0.296875 -0.296875 -0.496094 -0.3125 z m 0 0"/>
</svg>
