<?xml version="1.0" encoding="UTF-8"?>
<svg height="24px" viewBox="0 0 24 24" width="24px" xmlns="http://www.w3.org/2000/svg">
    <path d="m 8 3 c -0.40625 0 -0.769531 0.242188 -0.921875 0.617188 c -0.15625 0.375 -0.070313 0.804687 0.214844 1.089843 l 4 4 c 0.390625 0.390625 1.023437 0.390625 1.414062 0 l 4 -4 c 0.285157 -0.285156 0.371094 -0.714843 0.214844 -1.089843 c -0.152344 -0.375 -0.515625 -0.617188 -0.921875 -0.617188 z m 4 7 c -0.550781 0 -1 0.449219 -1 1 s 0.449219 1 1 1 s 1 -0.449219 1 -1 s -0.449219 -1 -1 -1 z m 0 3 c -0.550781 0 -1 0.449219 -1 1 s 0.449219 1 1 1 s 1 -0.449219 1 -1 s -0.449219 -1 -1 -1 z m 0 3 c -0.550781 0 -1 0.449219 -1 1 s 0.449219 1 1 1 s 1 -0.449219 1 -1 s -0.449219 -1 -1 -1 z m 0 3 c -0.550781 0 -1 0.449219 -1 1 s 0.449219 1 1 1 s 1 -0.449219 1 -1 s -0.449219 -1 -1 -1 z m 0 0"/>
</svg>
