<?xml version="1.0" encoding="UTF-8" standalone="no"?>
<svg
   height="16px"
   viewBox="0 0 16 16"
   width="16px"
   version="1.1"
   id="svg4"
   sodipodi:docname="background-app-ghost-symbolic.svg"
   inkscape:version="1.2 (1:1.2.1+202207142221+cd75a1ee6d)"
   xmlns:inkscape="http://www.inkscape.org/namespaces/inkscape"
   xmlns:sodipodi="http://sodipodi.sourceforge.net/DTD/sodipodi-0.dtd"
   xmlns="http://www.w3.org/2000/svg"
   xmlns:svg="http://www.w3.org/2000/svg">
  <defs
     id="defs8" />
  <sodipodi:namedview
     id="namedview6"
     pagecolor="#ffffff"
     bordercolor="#666666"
     borderopacity="1.0"
     inkscape:showpageshadow="2"
     inkscape:pageopacity="0.0"
     inkscape:pagecheckerboard="0"
     inkscape:deskcolor="#d1d1d1"
     showgrid="false"
     inkscape:zoom="8"
     inkscape:cx="-4.1875"
     inkscape:cy="-2.875"
     inkscape:window-width="1920"
     inkscape:window-height="1043"
     inkscape:window-x="0"
     inkscape:window-y="0"
     inkscape:window-maximized="1"
     inkscape:current-layer="svg4">
    <inkscape:grid
       type="xygrid"
       id="grid312" />
    <inkscape:grid
       type="xygrid"
       id="grid868"
       dotted="true"
       spacingx="0.5"
       spacingy="0.5"
       empspacing="10" />
  </sodipodi:namedview>
  <path
     style="fill:#808080;fill-rule:evenodd;stroke:none;stroke-width:1.07376;stroke-linejoin:round"
     d="m 9.3139411,5.9999939 c 0.458433,-0.010649 0.8895689,0.3146136 1.0299539,0.7823555 0.146756,0.4910091 0.548845,1.982068 -0.343318,2.1882128 -0.8921653,0.2061418 -1.3704851,-1.250427 -1.5172421,-1.7414362 -0.162162,-0.5428993 0.123078,-1.082537 0.6379063,-1.205304 0.048254,-0.011301 0.098424,-0.018547 0.1484015,-0.021842 0.014833,-0.00105 0.029508,-0.00165 0.044296,-0.00198 z"
     id="path1816" />
  <path
     style="fill:#808080;fill-rule:evenodd;stroke:none;stroke-width:1.0815;stroke-linejoin:round"
     d="m 5.6342843,5.998565 c 0.030085,-5.147e-4 0.059978,-3.175e-4 0.0903,0.00202 0.051081,0.00371 0.1003812,0.012437 0.1497626,0.02431 0.5269552,0.1289636 0.8241554,0.6819028 0.6629169,1.2358025 -0.1459242,0.5009568 -0.624138,1.9873738 -1.5372638,1.7706416 -0.9131235,-0.2167321 -0.5137209,-1.739695 -0.3677987,-2.2406517 0.1351005,-0.461821 0.550868,-0.7844089 1.0020853,-0.7921291 z"
     id="path1814" />
  <path
     style="fill:none;stroke:#808080;stroke-width:1px;stroke-linecap:butt;stroke-linejoin:miter"
     d="m 3.5,15 v -3"
     id="path1705"
     sodipodi:nodetypes="cc" />
  <path
     style="fill:none;stroke:#808080;stroke-width:1px;stroke-linecap:butt;stroke-linejoin:miter"
     d="m 5.5,15 v -3"
     id="path1707"
     sodipodi:nodetypes="cc" />
  <path
     style="fill:none;stroke:#808080;stroke-width:1px;stroke-linecap:butt;stroke-linejoin:miter"
     d="m 7.5,12 v 3"
     id="path1709"
     sodipodi:nodetypes="cc" />
  <path
     style="fill:none;stroke:#808080;stroke-width:1px;stroke-linecap:butt;stroke-linejoin:miter"
     d="m 9.5,12 v 3"
     id="path1711"
     sodipodi:nodetypes="cc" />
  <path
     id="path1713"
     style="fill:none;fill-rule:evenodd;stroke:#808080;stroke-width:1;stroke-linecap:butt;stroke-linejoin:round"
     d="m 1.5,15 v -7.5 c 0,-3.3137085 2.686291,-6 6,-6 3.313708,0 6,2.6862915 6,6 v 7.5"
     sodipodi:nodetypes="ccscc" />
  <path
     style="fill:none;stroke:#808080;stroke-width:1px;stroke-linecap:butt;stroke-linejoin:miter"
     d="m 11.5,12 v 3"
     id="path1718"
     sodipodi:nodetypes="cc" />
</svg>
