<svg height="16" width="16" xmlns="http://www.w3.org/2000/svg"><path style="fill:gray;fill-rule:evenodd;stroke:none;stroke-width:1.07376;stroke-linejoin:round" d="M9.314 6c.458-.01.89.315 1.03.782.147.491.549 1.982-.343 2.189-.893.206-1.37-1.25-1.518-1.742-.162-.543.123-1.082.638-1.205A.92.92 0 0 1 9.314 6z"/><path style="fill:gray;fill-rule:evenodd;stroke:none;stroke-width:1.0815;stroke-linejoin:round" d="M5.634 5.999a.956.956 0 0 1 .24.026c.527.129.825.682.663 1.236-.146.5-.624 1.987-1.537 1.77-.913-.216-.514-1.74-.368-2.24.135-.462.551-.785 1.002-.792z"/><path style="color:#000;fill:gray;-inkscape-stroke:none" d="M3 12v3h1v-3zm2 0v3h1v-3zm2 0v3h1v-3zm2 0v3h1v-3z"/><path style="color:#000;fill:gray;fill-rule:evenodd;stroke-linejoin:round;-inkscape-stroke:none" d="M7.5 1A6.508 6.508 0 0 0 1 7.5V15h1V7.5C2 4.457 4.457 2 7.5 2S13 4.457 13 7.5V15h1V7.5C14 3.916 11.084 1 7.5 1z"/><path style="color:#000;fill:gray;-inkscape-stroke:none" d="M11 12v3h1v-3z"/></svg>