<svg xmlns="http://www.w3.org/2000/svg" width="16" height="16"><path d="M7.5 1A6.508 6.508 0 0 0 1 7.5V15h1V7.5C2 4.457 4.457 2 7.5 2S13 4.457 13 7.5V15h1V7.5C14 3.916 11.084 1 7.5 1zM5.635 5.998c-.451.007-.867.331-1.002.793-.146.5-.546 2.024.367 2.24.913.217 1.391-1.27 1.537-1.77.162-.553-.137-1.107-.664-1.236a.956.956 0 0 0-.238-.027zM9.315 6a.92.92 0 0 0-.194.023c-.515.123-.8.663-.639 1.206.148.492.627 1.948 1.52 1.742.892-.207.489-1.699.342-2.19-.14-.467-.572-.791-1.03-.781zM3 12v3h1v-3H3zm2 0v3h1v-3H5zm2 0v3h1v-3H7zm2 0v3h1v-3H9zm2 0v3h1v-3h-1z" fill="gray"/></svg>