<?xml version="1.0" encoding="UTF-8" standalone="no"?>
<svg
   height="24px"
   viewBox="0 0 24 24"
   width="24px"
   version="1.1"
   id="svg370"
   sodipodi:docname="keyboard-hide-symbolic.svg"
   inkscape:version="1.2 (1:1.2.1+202207142221+cd75a1ee6d)"
   xmlns:inkscape="http://www.inkscape.org/namespaces/inkscape"
   xmlns:sodipodi="http://sodipodi.sourceforge.net/DTD/sodipodi-0.dtd"
   xmlns="http://www.w3.org/2000/svg"
   xmlns:svg="http://www.w3.org/2000/svg">
  <defs
     id="defs374" />
  <sodipodi:namedview
     id="namedview372"
     pagecolor="#ffffff"
     bordercolor="#666666"
     borderopacity="1.0"
     inkscape:showpageshadow="true"
     inkscape:pageopacity="0.0"
     inkscape:pagecheckerboard="0"
     inkscape:deskcolor="#d1d1d1"
     showgrid="false"
     showborder="true"
     borderlayer="true"
     inkscape:zoom="1"
     inkscape:cx="-175"
     inkscape:cy="-14.5"
     inkscape:window-width="1920"
     inkscape:window-height="1016"
     inkscape:window-x="0"
     inkscape:window-y="0"
     inkscape:window-maximized="1"
     inkscape:current-layer="svg370">
    <inkscape:grid
       type="xygrid"
       id="grid493" />
  </sodipodi:namedview>
  <path
     style="fill:none;stroke:#808080;stroke-width:1px;stroke-linecap:butt;stroke-linejoin:miter"
     d="m 7,18 4.5,3.500434 4.5,-3.500434"
     id="path666"
     sodipodi:nodetypes="ccc" />
  <path
     id="path860"
     style="color:#000000;fill:#808080;-inkscape-stroke:none"
     d="m 5.455078,2.0014638 c -0.968581,0.00898 -1.717819,0.073269 -2.337891,0.4453125 -0.413381,0.2480287 -0.719937,0.6559075 -0.888671,1.1621094 -0.168734,0.5062019 -0.228516,1.1148011 -0.228516,1.8925781 v 7.0000002 c 0,0.777777 0.05978,1.386376 0.228516,1.892578 0.168734,0.506202 0.47529,0.914081 0.888671,1.16211 0.826763,0.496058 1.882814,0.445312 3.382813,0.445312 h 10 c 1.499998,0 2.55605,0.05074 3.382812,-0.445312 0.413382,-0.248029 0.719938,-0.655908 0.888672,-1.16211 0.168734,-0.506202 0.228516,-1.114801 0.228516,-1.892578 v -7.0000002 c 0,-0.777777 -0.05978,-1.3863762 -0.228516,-1.8925781 -0.168734,-0.5062019 -0.47529,-0.9140807 -0.888672,-1.1621094 -0.826761,-0.4960573 -1.882814,-0.4453125 -3.382812,-0.4453125 h -10 c -0.375,0 -0.722062,-0.00299 -1.044922,0 z m 1.044922,1 h 10 c 1.499998,0 2.443951,0.050746 2.867188,0.3046875 0.211618,0.126971 0.342562,0.2815934 0.455078,0.6191406 0.112515,0.3375473 0.177734,0.8539504 0.177734,1.5761719 v 7.0000002 c 0,0.722221 -0.06522,1.238625 -0.177734,1.576172 -0.112516,0.337547 -0.243459,0.49217 -0.455078,0.61914 -0.423236,0.253942 -1.367189,0.304688 -2.867188,0.304688 h -10 c -1.499999,0 -2.443951,-0.05075 -2.867188,-0.304688 -0.211618,-0.12697 -0.342562,-0.281593 -0.455078,-0.61914 -0.112515,-0.337547 -0.177734,-0.853951 -0.177734,-1.576172 v -7.0000002 c 0,-0.7222215 0.06522,-1.2386246 0.177734,-1.5761719 0.112516,-0.3375472 0.24346,-0.4921696 0.455078,-0.6191406 0.423237,-0.2539419 1.367189,-0.3046875 2.867188,-0.3046875 z m -0.5,4 v 0.9999999 h 1 v -0.9999999 z m 2,0 v 0.9999999 h 1 v -0.9999999 z m 2,0 v 0.9999999 h 1 v -0.9999999 z m 2,0 v 0.9999999 h 1 v -0.9999999 z m 2,0 v 0.9999999 h 1 v -0.9999999 z m 2,0 v 0.9999999 h 1 v -0.9999999 z m -9,1.9999999 v 1.0000003 h 1 v -1.0000003 z m 2,0 v 1.0000003 h 1 v -1.0000003 z m 2,0 v 1.0000003 h 1 v -1.0000003 z m 2,0 v 1.0000003 h 1 v -1.0000003 z m 2,0 v 1.0000003 h 1 v -1.0000003 z m -9,2.0000003 v 1 h 1 v -1 z m 2,0 v 1 h 7 v -1 z m 8,0 v 1 h 1 v -1 z" />
</svg>
