<svg height="16" width="16" xmlns="http://www.w3.org/2000/svg"><path style="fill:gray;stroke-width:.597614;stroke-linecap:square;stroke-linejoin:round" d="M7 10h2c2 0 2 0 2 2H5c0-2 0-2 2-2z"/><path style="fill:gray;stroke:none;stroke-width:.5;stroke-linecap:square;stroke-linejoin:round" d="M0 11h3v1H0z"/><path style="fill:gray;stroke:none;stroke-width:.5;stroke-linecap:square;stroke-linejoin:round;opacity:.5" d="m1.322 7.067 2.598 1.5-.5.866-2.598-1.5z"/><path style="fill:gray;stroke:none;stroke-width:.5;stroke-linecap:square;stroke-linejoin:round" d="m4.433 4.322 1.5 2.598-.866.5-1.5-2.598z"/><path style="fill:gray;stroke:none;stroke-width:.5;stroke-linecap:square;stroke-linejoin:round;opacity:.5" d="M8.5 3.5v3h-1v-3z"/><path style="fill:gray;stroke:none;stroke-width:.5;stroke-linecap:square;stroke-linejoin:round" d="m12.433 4.822-1.5 2.598-.866-.5 1.5-2.598z"/><path style="fill:gray;stroke:none;stroke-width:.5;stroke-linecap:square;stroke-linejoin:round;opacity:.5" d="m15.178 7.933-2.598 1.5-.5-.866 2.598-1.5z"/><path style="fill:gray;stroke:none;stroke-width:.5;stroke-linecap:square;stroke-linejoin:round" d="M16 12h-3v-1h3z"/></svg>