<svg height="24" width="24" xmlns="http://www.w3.org/2000/svg"><path style="fill:none;stroke:gray;stroke-width:1px;stroke-linecap:butt;stroke-linejoin:miter" d="m7 18 4.5 3.5L16 18"/><path style="color:#000;fill:gray;-inkscape-stroke:none" d="M5.455 2.001c-.969.01-1.718.074-2.338.446-.413.248-.72.656-.888 1.162C2.059 4.115 2 4.724 2 5.5v7c0 .778.06 1.387.229 1.893.168.506.475.914.888 1.162C3.944 16.051 5 16 6.5 16h10c1.5 0 2.556.051 3.383-.445.413-.248.72-.656.888-1.162.17-.506.229-1.115.229-1.893v-7c0-.777-.06-1.386-.229-1.892-.168-.506-.475-.914-.888-1.162C19.056 1.95 18 2 16.5 2h-10c-.375 0-.722-.003-1.045 0zm1.045 1h10c1.5 0 2.444.051 2.867.305.212.127.343.282.455.62.113.337.178.853.178 1.575v7c0 .723-.065 1.24-.178 1.577-.112.337-.243.492-.455.619C18.944 14.95 18 15 16.5 15h-10c-1.5 0-2.444-.05-2.867-.304-.212-.127-.343-.282-.455-.62C3.065 13.74 3 13.225 3 12.502v-7c0-.722.065-1.238.178-1.576.112-.337.243-.492.455-.619C4.056 3.052 5 3.001 6.5 3.001zm-.5 4v1h1v-1zm2 0v1h1v-1zm2 0v1h1v-1zm2 0v1h1v-1zm2 0v1h1v-1zm2 0v1h1v-1zm-9 2v1h1v-1zm2 0v1h1v-1zm2 0v1h1v-1zm2 0v1h1v-1zm2 0v1h1v-1zm-9 2v1h1v-1zm2 0v1h7v-1zm8 0v1h1v-1z"/></svg>