<?xml version="1.0" encoding="UTF-8" standalone="no"?>
<svg
   height="16"
   width="16"
   version="1.1"
   id="svg6175"
   sodipodi:docname="keyboard-brightness-medium-symbolic.svg"
   inkscape:version="1.2.2 (732a01da63, 2022-12-09, custom)"
   xmlns:inkscape="http://www.inkscape.org/namespaces/inkscape"
   xmlns:sodipodi="http://sodipodi.sourceforge.net/DTD/sodipodi-0.dtd"
   xmlns="http://www.w3.org/2000/svg"
   xmlns:svg="http://www.w3.org/2000/svg">
  <defs
     id="defs6179" />
  <sodipodi:namedview
     id="namedview6177"
     pagecolor="#ffffff"
     bordercolor="#666666"
     borderopacity="1.0"
     inkscape:showpageshadow="2"
     inkscape:pageopacity="0.0"
     inkscape:pagecheckerboard="0"
     inkscape:deskcolor="#d1d1d1"
     showgrid="false"
     inkscape:zoom="53.125"
     inkscape:cx="8.0094118"
     inkscape:cy="8.0094118"
     inkscape:window-width="1848"
     inkscape:window-height="1016"
     inkscape:window-x="72"
     inkscape:window-y="27"
     inkscape:window-maximized="1"
     inkscape:current-layer="svg6175" />
  <path
     style="fill:#808080;stroke:none;stroke-width:0.5;stroke-linecap:square;stroke-linejoin:round"
     d="m 0.5,11 h 3 v 1 h -3 z m 12,0 h 3 v 1 h -3 z"
     id="path6161" />
  <path
     style="opacity:0.5;fill:#808080;stroke:none;stroke-width:0.5;stroke-linecap:square;stroke-linejoin:round"
     d="m 1.7547905,7.316639 2.5980763,1.5 -0.5,0.8660254 -2.5980763,-1.5 z"
     id="path6163" />
  <path
     style="opacity:0.5;fill:#808080;stroke:none;stroke-width:0.5;stroke-linecap:square;stroke-linejoin:round"
     d="m 8.5,4 v 3 h -1 V 4 Z"
     id="path6165" />
  <path
     style="opacity:0.5;fill:#808080;stroke:none;stroke-width:0.5;stroke-linecap:square;stroke-linejoin:round"
     d="m 14.744879,8.182855 -2.598076,1.5 -0.5,-0.8660254 2.598076,-1.5 z"
     id="path6167" />
  <path
     style="fill:#808080;stroke:none;stroke-width:0.5;stroke-linecap:square;stroke-linejoin:round"
     d="m 4.6827016,4.7546517 1.5,2.5980762 -0.8660254,0.5 -1.5,-2.5980762 z"
     id="path6169" />
  <path
     style="fill:#808080;stroke:none;stroke-width:0.5;stroke-linecap:square;stroke-linejoin:round"
     d="m 12.182994,5.2544612 -1.5,2.5980762 -0.8660256,-0.5 1.4999996,-2.5980762 z"
     id="path6171" />
  <path
     style="fill:#808080;stroke-width:0.597614;stroke-linecap:square;stroke-linejoin:round"
     d="m 7.5,10 h 1 c 2,0 2,0 2,2 h -5 c 0,-2 0,-2 2,-2 z"
     id="path6173" />
</svg>
