<?xml version="1.0" encoding="UTF-8" standalone="no"?>
<svg
   viewBox="0 0 24 24"
   version="1.1"
   id="svg4"
   sodipodi:docname="keyboard-layout-symbolic.svg"
   inkscape:version="1.2 (1:1.2.1+202207142221+cd75a1ee6d)"
   xmlns:inkscape="http://www.inkscape.org/namespaces/inkscape"
   xmlns:sodipodi="http://sodipodi.sourceforge.net/DTD/sodipodi-0.dtd"
   xmlns="http://www.w3.org/2000/svg"
   xmlns:svg="http://www.w3.org/2000/svg">
  <defs
     id="defs8" />
  <sodipodi:namedview
     id="namedview6"
     pagecolor="#ffffff"
     bordercolor="#666666"
     borderopacity="1.0"
     inkscape:showpageshadow="2"
     inkscape:pageopacity="0.0"
     inkscape:pagecheckerboard="0"
     inkscape:deskcolor="#d1d1d1"
     showgrid="true"
     inkscape:zoom="32"
     inkscape:cx="7.25"
     inkscape:cy="5.484375"
     inkscape:window-width="1920"
     inkscape:window-height="1016"
     inkscape:window-x="0"
     inkscape:window-y="0"
     inkscape:window-maximized="1"
     inkscape:current-layer="svg4">
    <inkscape:grid
       type="xygrid"
       id="grid558" />
  </sodipodi:namedview>
  <g
     id="layer9"
     label="status"
     style="display:inline"
     transform="matrix(1.3737427,0,0,1.375,-1198.2777,65.625)" />
  <g
     id="layer2"
     style="display:inline"
     transform="matrix(1.3737427,0,0,1.375,-867.20541,-439)" />
  <g
     id="layer4"
     style="display:inline"
     transform="matrix(1.3737427,0,0,1.375,-867.20541,-439)" />
  <g
     id="g1812"
     style="display:inline"
     transform="matrix(1.3737427,0,0,1.375,-867.20541,-439)" />
  <g
     id="g6217"
     style="display:inline"
     transform="matrix(1.3737427,0,0,1.375,-867.20541,-439)" />
  <g
     id="layer3"
     style="display:inline"
     transform="matrix(1.3737427,0,0,1.375,-867.20541,-439)" />
  <g
     id="layer1"
     style="display:inline"
     transform="matrix(1.3737427,0,0,1.375,-867.20541,-439)" />
  <path
     id="path903"
     style="fill:#808080;fill-opacity:1;fill-rule:evenodd;stroke-width:1.5;stroke-linecap:square;stroke-linejoin:round"
     d="m 10,2 v 1.2480469 a 9,9 0 0 0 -2.095703,0.7597656 l -0.800781,-0.953125 -3.064454,2.5703125 0.804688,0.9570312 a 9,9 0 0 0 -1.123047,1.9257818 l -1.220703,-0.214844 -0.695313,3.939453 1.226563,0.216797 a 9,9 0 0 0 0.376953,2.201172 l -1.068359,0.617187 2,3.464844 1.076172,-0.621094 a 9,9 0 0 0 1.705078,1.449219 l -0.419922,1.152344 3.757812,1.367187 0.421875,-1.160156 a 9,9 0 0 0 1.119141,0.08008 9,9 0 0 0 1.119141,-0.08008 l 0.421875,1.160156 3.757812,-1.367187 -0.419922,-1.152344 a 9,9 0 0 0 1.705078,-1.449219 l 1.076172,0.621094 2,-3.464844 -1.068359,-0.617187 a 9,9 0 0 0 0.376953,-2.201172 l 1.226562,-0.216797 -0.695312,-3.939453 -1.207031,0.21289 a 9,9 0 0 0 -1.121094,-1.9414059 l 0.789063,-0.9394531 -3.064454,-2.5703125 -0.789062,0.9394531 a 9,9 0 0 0 -2.107422,-0.765625 v -1.2285156 z m 2,2 a 8,8 0 0 1 5.035156,1.7832031 8,8 0 0 1 2.867188,4.9648439 8,8 0 0 1 0.09766,1.251953 8,8 0 0 1 -8,8 8,8 0 0 1 -8,-8 8,8 0 0 1 0.09766,-1.251953 8,8 0 0 1 7.902344,-6.748047 z m 0,1 a 7,7 0 0 0 -7,7 7,7 0 0 0 7,7 7,7 0 0 0 7,-7 7,7 0 0 0 -7,-7 z m 0,1 a 6,6 0 0 1 6,6 6,6 0 0 1 -6,6 6,6 0 0 1 -6,-6 6,6 0 0 1 6,-6 z" />
</svg>
