<svg xmlns="http://www.w3.org/2000/svg" width="16" height="16"><path d="M6.5 1.031c-.371 0-.742-.035-1.11.016-.367.05-.73.203-.972.476-.125.141-.215.309-.266.485-.047.18-.054.367-.02.55.032.184.102.356.192.516.09.164.203.309.317.457L5 4H2a1.8 1.8 0 00-.41.035.791.791 0 00-.36.195.791.791 0 00-.195.36C1 4.723 1 4.863 1 5v2.75l.77-.344c.265-.117.542-.23.832-.242.289-.016.586.074.812.254.227.18.383.441.465.723.082.277.101.57.121.859.02.316.04.637-.016.95-.058.312-.199.616-.43.831a1.264 1.264 0 01-.874.32c-.317-.007-.618-.128-.91-.257L1 10.5V14c0 .137.004.277.035.41a.791.791 0 00.195.36c.098.097.227.16.36.195.133.035.273.035.41.035h3l-.328-.68c-.14-.293-.274-.597-.29-.922-.015-.32.095-.652.31-.894.214-.242.523-.39.84-.453.316-.067.644-.059.968-.059.324 0 .652-.008.969.059.316.062.625.21.84.453.214.242.324.574.308.894-.015.325-.148.63-.289.922L8 15h3a1.8 1.8 0 00.41-.035.791.791 0 00.36-.195.791.791 0 00.195-.36C12 14.277 12 14.137 12 14v-3.563l.703.297c.29.125.59.239.902.246.313.004.63-.101.864-.308.238-.203.386-.496.46-.8C15 9.565 15 9.25 15 8.937c0-.313 0-.63-.07-.934-.075-.305-.223-.598-.461-.8a1.288 1.288 0 00-.864-.31c-.312.008-.613.122-.902.247L12 7.437V5a1.8 1.8 0 00-.035-.41.791.791 0 00-.195-.36.791.791 0 00-.36-.195C11.277 4 11.137 4 11 4H8l.36-.469c.113-.148.226-.293.316-.457.09-.16.16-.332.191-.515a1.248 1.248 0 00-.02-.551 1.256 1.256 0 00-.265-.485c-.242-.273-.605-.425-.973-.476-.367-.05-.738-.016-1.109-.016zm0 0" fill="#474747"/></svg>