<?xml version="1.0" encoding="UTF-8" standalone="no"?>
<svg
   viewBox="0 0 22 22"
   version="1.1"
   id="svg10"
   sodipodi:docname="audio-input-microphone-low-zero-panel.svg"
   inkscape:version="1.1.1 (3bf5ae0d25, 2021-09-20)"
   xmlns:inkscape="http://www.inkscape.org/namespaces/inkscape"
   xmlns:sodipodi="http://sodipodi.sourceforge.net/DTD/sodipodi-0.dtd"
   xmlns="http://www.w3.org/2000/svg"
   xmlns:svg="http://www.w3.org/2000/svg">
  <defs
     id="defs14" />
  <sodipodi:namedview
     id="namedview12"
     pagecolor="#ffffff"
     bordercolor="#666666"
     borderopacity="1.0"
     inkscape:pageshadow="2"
     inkscape:pageopacity="0.0"
     inkscape:pagecheckerboard="0"
     showgrid="false"
     inkscape:zoom="24.181818"
     inkscape:cx="10.979323"
     inkscape:cy="11"
     inkscape:window-width="1852"
     inkscape:window-height="1043"
     inkscape:window-x="1434"
     inkscape:window-y="0"
     inkscape:window-maximized="1"
     inkscape:current-layer="svg10" />
  <g
     transform="translate(-1010.0055,310.00002)"
     fill="#808080"
     label="status"
     id="g8"
     style="fill:#ffffff">
    <path
       d="m 1028.3,-302.07 0.7071,0.70703 -0.3536,0.35352 c -0.5627,0.56274 -0.8789,1.3252 -0.8789,2.1211 0,0.7959 0.3162,1.5584 0.8789,2.1211 l 0.3536,0.35352 -0.7071,0.70703 -0.3535,-0.35352 c -0.75,-0.75 -1.1719,-1.7674 -1.1719,-2.8281 0,-1.0607 0.4219,-2.0781 1.1719,-2.8281 z"
       color="#000000"
       color-rendering="auto"
       dominant-baseline="auto"
       image-rendering="auto"
       opacity="0.5"
       shape-rendering="auto"
       solid-color="#000000"
       style="font-variant-ligatures:normal;font-variant-position:normal;font-variant-caps:normal;font-variant-numeric:normal;font-variant-alternates:normal;font-feature-settings:normal;text-indent:0;text-decoration-line:none;text-decoration-style:solid;text-decoration-color:#000000;text-transform:none;text-orientation:mixed;white-space:normal;shape-padding:0;isolation:auto;mix-blend-mode:normal;fill:#ffffff"
       id="path2" />
    <path
       d="m 1026.2,-304.2 0.7071,0.70703 -0.3536,0.35351 c -1.1253,1.1254 -1.7578,2.6507 -1.7578,4.2422 0,1.5915 0.6325,3.1168 1.7578,4.2422 l 0.3536,0.35351 -0.7071,0.70703 -0.3535,-0.35351 c -1.3126,-1.3126 -2.0508,-3.0929 -2.0508,-4.9492 0,-1.8563 0.7382,-3.6366 2.0508,-4.9492 z"
       color="#000000"
       color-rendering="auto"
       dominant-baseline="auto"
       image-rendering="auto"
       opacity="0.5"
       shape-rendering="auto"
       solid-color="#000000"
       style="font-variant-ligatures:normal;font-variant-position:normal;font-variant-caps:normal;font-variant-numeric:normal;font-variant-alternates:normal;font-feature-settings:normal;text-indent:0;text-decoration-line:none;text-decoration-style:solid;text-decoration-color:#000000;text-transform:none;text-orientation:mixed;white-space:normal;shape-padding:0;isolation:auto;mix-blend-mode:normal;fill:#ffffff"
       id="path4" />
    <path
       d="m 1017.5,-307 c -1.409,0 -2.4961,0.84179 -2.4961,2.5371 v 2.3262 1.0586 2.5391 c 0,1.6953 1.0871,2.5391 2.4961,2.5391 1.409,0 2.4941,-0.84646 2.4941,-2.5391 v -2.5391 -1.0586 -2.3262 c 0,-1.6926 -1.0851,-2.5371 -2.4941,-2.5371 z m -4.4961,7 v 1.5 c 0,2.3214 1.7476,4.1987 4,4.4492 v 2.0742 c -0.667,0.0503 -1.3347,0.19611 -2,0.43554 v 0.54102 h 5 v -0.54102 c -0.6668,-0.23433 -1.3334,-0.38187 -2,-0.43359 v -2.0762 c 2.2524,-0.25053 4,-2.1278 4,-4.4492 v -1.5 h -1 v 1.5 c 0,1.7676 -1.3017,3.208 -3,3.4512 v -0.45117 h -1 v 0.45117 c -1.6983,-0.24312 -3,-1.6835 -3,-3.4512 v -1.5 z"
       color="#000000"
       id="path6"
       style="fill:#ffffff" />
  </g>
</svg>
