<svg version="1.0" viewBox="0 0 18 22" xmlns="http://www.w3.org/2000/svg">
 <path d="m5.6621 3c-0.838 0.01-1.4501-0.020188-1.9531 0.25781-0.25 0.138-0.45055 0.37106-0.56055 0.66406-0.11 0.292-0.14844 0.64012-0.14844 1.0781v10.02l1.9395-1.627-0.011719-0.015625 2.8184-2.3672-2.8184-2.3672 0.64453-0.76562 2.4277 2.0391v-5.6133l3.5469 3.5449 2.4551-2.0605v-0.78711c0-0.438-0.04039-0.78612-0.15039-1.0781a1.253 1.253 0 0 0-0.56055-0.66406c-0.502-0.277-1.1141-0.24781-1.9531-0.25781h-5.6738zm12.338 0.70117-18 15.104v1.3066l3.0312-2.5449c0.023119 0.18827 0.059652 0.35899 0.11719 0.51172 0.11 0.293 0.31055 0.52802 0.56055 0.66602 0.502 0.277 1.1151 0.24586 1.9531 0.25586h5.6758c0.839-0.01 1.4511 0.02114 1.9531-0.25586a1.25 1.25 0 0 0 0.56055-0.66602c0.11-0.292 0.15039-0.64012 0.15039-1.0781v-8.6387l3.998-3.3555zm-9 3.0156v3.2402l1.7598-1.4805zm1.0742 4.9414 2.166 1.8203-4.2383 4.2383v-4.3203l0.99805-0.83789v2.7441l1.7598-1.7598-1.4648-1.2324z" fill="#fff" opacity=".5" style="isolation:auto;mix-blend-mode:normal;shape-padding:0;text-decoration-color:#000000;text-decoration-line:none;text-decoration-style:solid;text-indent:0;text-transform:none"/>
</svg>
