<svg version="1.1" viewBox="0 0 14 22" xmlns="http://www.w3.org/2000/svg">
 <path d="m12.25 4.7506c0-0.585-0.054-1.0575-0.21488-1.467-0.162-0.4095-0.46125-0.74475-0.82688-0.936-0.729-0.3825-1.5772-0.33638-2.7349-0.34762h-3.6968c-1.1576 0.0135-2.007-0.034875-2.7349 0.34762-0.3645 0.19125-0.66488 0.5265-0.82688 0.936-0.16088 0.4095-0.21488 0.882-0.21488 1.467v3.501c0 0.585 0.054 1.0575 0.21488 1.467 0.162 0.4095 0.46125 0.7425 0.82688 0.93375 0.63338 0.333 1.3961 0.33412 2.3355 0.33862l0.0045 2.1892 0.55575 0.63225-0.5625 0.5625 0.5625 0.5625-0.5625 0.5625 0.5625 0.5625-1.125 1.125 2.8125 2.8125 2.25-2.25-0.0023-6.759c0.93938 0 1.7021-0.01125 2.3355-0.3375a1.8079 1.8079 0 0 0 0.82575-0.93712c0.162-0.40838 0.216-0.87975 0.216-1.4648zm-1.125 0v3.501c0 0.50738-0.0585 0.8505-0.13838 1.0519-0.07875 0.2025-0.15075 0.2745-0.3015 0.35438-0.3015 0.1575-1.062 0.20475-2.2252 0.21712h-0.71212l0.0023 7.4092-1.125 1.125-1.2218-1.2218 1.125-1.125-0.5625-0.5625 0.5625-0.5625-0.5625-0.5625 0.51188-0.51188-0.97088-1.107-0.0068-2.8811h-0.70875c-1.1644-0.012375-1.9249-0.059625-2.2275-0.21712-0.14962-0.07875-0.2205-0.15188-0.30038-0.35438-0.07875-0.2025-0.13838-0.5445-0.13838-1.0519v-3.501c0-0.50738 0.0585-0.85275 0.13838-1.0541 0.07988-0.2025 0.15075-0.27225 0.3015-0.35212 0.30038-0.1575 1.0609-0.20588 2.2185-0.21938h3.6832c1.1576 0.0135 1.9181 0.061875 2.2196 0.21938 0.15075 0.07875 0.2205 0.14962 0.30038 0.35212 0.07987 0.2025 0.13838 0.54675 0.13838 1.0541zm-3.375 0.62438a1.125 1.125 0 0 0-1.125-1.125 1.125 1.125 0 0 0-1.125 1.125 1.125 1.125 0 0 0 1.125 1.125 1.125 1.125 0 0 0 1.125-1.125z" color="#000000" fill="#fff" font-weight="400" overflow="visible" stroke-width="1.125" style="font-feature-settings:normal;font-variant-alternates:normal;font-variant-caps:normal;font-variant-ligatures:normal;font-variant-numeric:normal;font-variant-position:normal;isolation:auto;mix-blend-mode:normal;shape-padding:0;text-decoration-color:#000000;text-decoration-line:none;text-decoration-style:solid;text-indent:0;text-orientation:mixed;text-transform:none;white-space:normal"/>
</svg>
