<?xml version="1.0" encoding="UTF-8" standalone="no"?>
<svg
   xmlns:dc="http://purl.org/dc/elements/1.1/"
   xmlns:cc="http://creativecommons.org/ns#"
   xmlns:rdf="http://www.w3.org/1999/02/22-rdf-syntax-ns#"
   xmlns:svg="http://www.w3.org/2000/svg"
   xmlns="http://www.w3.org/2000/svg"
   xmlns:sodipodi="http://sodipodi.sourceforge.net/DTD/sodipodi-0.dtd"
   xmlns:inkscape="http://www.inkscape.org/namespaces/inkscape"
   version="1.0"
   viewBox="0 0 22 22"
   id="svg6"
   sodipodi:docname="indicator-messages-new.svg"
   inkscape:version="1.0.2 (e86c870879, 2021-01-15)">
  <metadata
     id="metadata12">
    <rdf:RDF>
      <cc:Work
         rdf:about="">
        <dc:format>image/svg+xml</dc:format>
        <dc:type
           rdf:resource="http://purl.org/dc/dcmitype/StillImage" />
      </cc:Work>
    </rdf:RDF>
  </metadata>
  <defs
     id="defs10" />
  <sodipodi:namedview
     pagecolor="#ffffff"
     bordercolor="#666666"
     borderopacity="1"
     objecttolerance="10"
     gridtolerance="10"
     guidetolerance="10"
     inkscape:pageopacity="0"
     inkscape:pageshadow="2"
     inkscape:window-width="1301"
     inkscape:window-height="744"
     id="namedview8"
     showgrid="false"
     inkscape:zoom="26.272727"
     inkscape:cx="11"
     inkscape:cy="11"
     inkscape:window-x="65"
     inkscape:window-y="24"
     inkscape:window-maximized="1"
     inkscape:current-layer="svg6" />
  <path
     d="m2.5 3.5c-0.5475 0-0.9825 0.04875-1.3475 0.185-0.365 0.1375-0.6575 0.3875-0.83 0.70125-0.34625 0.6275-0.31 1.3925-0.3225 2.4412v8.345c0.0125 1.0488-0.02375 1.8138 0.3225 2.4412 0.1725 0.31375 0.465 0.5625 0.83 0.7s0.8 0.18625 1.3475 0.18625h15c0.54875 0 0.9825-0.04875 1.3475-0.185 0.36625-0.1375 0.66-0.3875 0.8325-0.70125 0.34625-0.6275 0.3075-1.3925 0.32-2.4412v-8.345c-0.0125-1.0488 0.02625-1.8138-0.32-2.4412a1.5725 1.5725 0 0 0-0.8325-0.7c-0.365-0.1375-0.8-0.18625-1.3475-0.18625zm0 1.25h15c0.475 0 0.7575 0.04875 0.90875 0.105 0.10375 0.03875 0.15875 0.1 0.1775 0.13375 0.11875 0.215 0.15 0.76875 0.16375 1.8412v8.3425c-0.0125 1.0688-0.045 1.6238-0.1625 1.8375a0.3375 0.3375 0 0 1-0.17875 0.135c-0.15125 0.05625-0.43375 0.105-0.90875 0.105h-15c-0.475 0-0.7575-0.04875-0.9075-0.105a0.32125 0.32125 0 0 1-0.17625-0.13375c-0.12-0.2175-0.15375-0.77125-0.16625-1.8388v-8.3425c0.0125-1.07 0.04625-1.6238 0.16625-1.8412a0.32125 0.32125 0 0 1 0.175-0.13375c0.15125-0.05625 0.435-0.105 0.90875-0.105zm0.67125 1.9725-0.35625 0.5475 7.3412 5.275 7.3438-5.295-0.35625-0.5275-6.9875 4.2163z"
     fill="#ca68fb"
     font-size="15"
     font-weight="400"
     letter-spacing="0"
     stroke-width="1.25"
     word-spacing="0"
     id="path2"
     style="fill:#ffffff;fill-opacity:1" />
  <circle
     cx="16.314"
     cy="5.9661"
     r="6"
     fill="#ca68fb"
     id="circle4"
     style="fill:#ffffff;fill-opacity:1" />
</svg>
