<?xml version="1.0" encoding="UTF-8" standalone="no"?>
<svg
   version="1.0"
   viewBox="0 0 22 22"
   id="svg4"
   sodipodi:docname="indicator-messages.svg"
   inkscape:version="1.1.1 (3bf5ae0d25, 2021-09-20)"
   xmlns:inkscape="http://www.inkscape.org/namespaces/inkscape"
   xmlns:sodipodi="http://sodipodi.sourceforge.net/DTD/sodipodi-0.dtd"
   xmlns="http://www.w3.org/2000/svg"
   xmlns:svg="http://www.w3.org/2000/svg">
  <defs
     id="defs8" />
  <sodipodi:namedview
     id="namedview6"
     pagecolor="#000000"
     bordercolor="#666666"
     borderopacity="1.0"
     inkscape:pageshadow="2"
     inkscape:pageopacity="0"
     inkscape:pagecheckerboard="0"
     showgrid="true"
     inkscape:zoom="24.181818"
     inkscape:cx="10.979323"
     inkscape:cy="11"
     inkscape:window-width="1852"
     inkscape:window-height="1043"
     inkscape:window-x="1434"
     inkscape:window-y="0"
     inkscape:window-maximized="1"
     inkscape:current-layer="svg4">
    <inkscape:grid
       type="xygrid"
       id="grid913" />
  </sodipodi:namedview>
  <path
     d="m 4.9999998,5.0000001 c -0.438,0 -0.786,0.039 -1.078,0.1480001 -0.293,0.11 -0.526,0.3099999 -0.664,0.561 -0.278,0.5019999 -0.248,1.114 -0.258,1.953 V 14.338 c 0.01,0.839 -0.02,1.451 0.258,1.953 0.138,0.251 0.371,0.45 0.664,0.56 0.292,0.11 0.64,0.149 1.078,0.149 H 17 c 0.438,0 0.786,-0.039 1.078,-0.148 0.292,-0.11 0.528,-0.31 0.666,-0.561 C 19.021,15.789 18.99,15.177 19,14.338 V 7.6620002 c -0.01,-0.839 0.021,-1.4510001 -0.256,-1.953 a 1.257,1.257 0 0 0 -0.666,-0.56 C 17.786,5.0380001 17.438,5.0000001 17,5.0000001 Z m 0,1 H 17 c 0.38,0 0.606,0.039 0.727,0.084 0.084,0.031 0.127,0.08 0.142,0.107 0.095,0.172 0.12,0.615 0.131,1.473 V 14.338 c -0.01,0.855 -0.036,1.299 -0.13,1.47 a 0.272,0.272 0 0 1 -0.143,0.108 C 17.606,15.961 17.38,16 17,16 H 4.9999998 c -0.38,0 -0.606,-0.039 -0.727,-0.084 a 0.257,0.257 0 0 1 -0.14,-0.107 c -0.096,-0.174 -0.123,-0.617 -0.133,-1.471 V 7.6640002 c 0.01,-0.856 0.037,-1.2990001 0.133,-1.473 a 0.257,0.257 0 0 1 0.14,-0.107 c 0.121,-0.045 0.347,-0.084 0.727,-0.084 z m 0.537,1.578 -0.285,0.4380001 L 11.125,12.236 17,8.0000002 16.715,7.5780001 11.125,10.951 Z"
     fill="#808080"
     font-family="Ubuntu"
     font-size="15px"
     font-weight="400"
     letter-spacing="0"
     opacity="0.5"
     text-anchor="middle"
     word-spacing="0"
     id="path2"
     style="opacity:1;fill:#ffffff;fill-opacity:1" />
</svg>
