<svg version="1.1" viewBox="0 0 23 22" xmlns="http://www.w3.org/2000/svg">
 <path d="m10.463 3a7.5 7.5 0 0 0-7.4629 7.5 7.5 7.5 0 0 0 7.5 7.5 7.5 7.5 0 0 0 7.5-7.5 7.5 7.5 0 0 0-7.5-7.5 7.5 7.5 0 0 0-0.03711 0zm0.05859 1a6.5 6.5 0 0 1 0.02344 0l-0.01172 0.011719zm-1.0234 0.078125c-1.4182 1.6596-2.2523 3.739-2.375 5.9219h-3.1035a6.5 6.5 0 0 1 5.4785-5.9219zm2.0801 0.011719a6.5 6.5 0 0 1 5.4023 5.9102h-3.0391c-0.12249-2.1778-0.95113-4.2525-2.3633-5.9102zm-1.0449 0.51758c1.3528 1.4884 2.1561 3.3887 2.2832 5.3926h-4.5664c0.12715-2.0039 0.93039-3.9042 2.2832-5.3926zm-6.5137 6.3926h3.0996c0.097285 2.1656 0.88966 4.237 2.2637 5.9023a6.5 6.5 0 0 1-5.3633-5.9023zm4.2266 0h4.5742c-0.10418 2.0436-0.91008 3.9847-2.2871 5.5-1.377-1.5153-2.1829-3.4564-2.2871-5.5zm5.7012 0h3.0332a6.5 6.5 0 0 1-5.2852 5.8887c1.3671-1.663 2.155-3.729 2.252-5.8887z" fill="#fff" stroke-linejoin="round" stroke-width="1.2247" style="paint-order:stroke markers fill"/>
</svg>
