<svg version="1.1" viewBox="0 0 22 22" xmlns="http://www.w3.org/2000/svg">
 <g transform="translate(2.999,3)" fill="#da1636" font-family="sans-serif" font-weight="400" white-space="normal">
  <path transform="translate(-2.999,-2)" d="m13.502 11.793-0.70703 0.70703 0.35156 0.35352 1.6465 1.6465-1.998 2 0.70703 0.70703 0.35352-0.35352 1.6445-1.6465 1.6465 1.6465 0.35547 0.35352 0.70508-0.70703-2-2 1.6484-1.6465 0.35156-0.35352-0.70508-0.70703-2.002 2-1.6465-1.6465z" style="font-feature-settings:normal;font-variant-alternates:normal;font-variant-caps:normal;font-variant-ligatures:normal;font-variant-numeric:normal;font-variant-position:normal;isolation:auto;mix-blend-mode:normal;shape-padding:0;text-decoration-color:#000000;text-decoration-line:none;text-decoration-style:solid;text-indent:0;text-orientation:mixed;text-transform:none"/>
  <path d="m6.428 1c-0.45 5e-3 -0.778-0.012-1.047 0.137a0.676 0.676 0 0 0-0.3 0.357c-0.06 0.157-0.08 0.343-0.08 0.578v1.858c0 0.235 0.021 0.42 0.08 0.576a0.677 0.677 0 0 0 0.3 0.357c0.269 0.148 0.597 0.132 1.047 0.137h0.572v2h-3.5c-0.666 0-1.137 0.408-1.322 0.777-0.185 0.37-0.178 0.723-0.178 0.723v1.5h-0.572c-0.45 5e-3 -0.778-0.012-1.047 0.137a0.676 0.676 0 0 0-0.3 0.357c-0.06 0.157-0.08 0.343-0.08 0.578v1.858c0 0.235 0.021 0.42 0.08 0.576a0.677 0.677 0 0 0 0.3 0.357c0.269 0.148 0.597 0.132 1.047 0.137h2.144c0.45-5e-3 0.779 0.012 1.047-0.137 0.135-0.074 0.24-0.2 0.3-0.357 0.058-0.157 0.08-0.341 0.08-0.576v-1.858c0-0.235-0.022-0.421-0.08-0.578a0.673 0.673 0 0 0-0.3-0.357c-0.268-0.15-0.597-0.132-1.046-0.137h-0.573v-1.5s0.01-0.145 0.072-0.275c0.065-0.131 0.094-0.225 0.428-0.225h8c0.333 0 0.362 0.094 0.428 0.225a0.78 0.78 0 0 1 0.072 0.275v0.5h1v-0.5s0.01-0.353-0.178-0.723a1.485 1.485 0 0 0-1.322-0.777h-3.5v-2h0.572c0.45-5e-3 0.778 0.012 1.047-0.137 0.134-0.074 0.24-0.2 0.299-0.357s0.08-0.341 0.08-0.576v-1.858c0-0.235-0.021-0.421-0.08-0.578a0.673 0.673 0 0 0-0.3-0.357c-0.268-0.15-0.597-0.132-1.046-0.137zm-0.426 1h3v2h-3zm-5 9h3v2h-3z" overflow="visible" style="font-feature-settings:normal;font-variant-alternates:normal;font-variant-caps:normal;font-variant-ligatures:normal;font-variant-numeric:normal;font-variant-position:normal;isolation:auto;mix-blend-mode:normal;shape-padding:0;text-decoration-color:#000000;text-decoration-line:none;text-decoration-style:solid;text-indent:0;text-orientation:mixed;text-transform:none"/>
 </g>
</svg>
