<?xml version="1.0" encoding="UTF-8" standalone="no"?>
<svg
   version="1.0"
   viewBox="0 0 22 22"
   id="svg4"
   sodipodi:docname="nm-signal-25-secure.svg"
   inkscape:version="1.1.1 (3bf5ae0d25, 2021-09-20)"
   xmlns:inkscape="http://www.inkscape.org/namespaces/inkscape"
   xmlns:sodipodi="http://sodipodi.sourceforge.net/DTD/sodipodi-0.dtd"
   xmlns="http://www.w3.org/2000/svg"
   xmlns:svg="http://www.w3.org/2000/svg">
  <defs
     id="defs8" />
  <sodipodi:namedview
     id="namedview6"
     pagecolor="#ffffff"
     bordercolor="#666666"
     borderopacity="1.0"
     inkscape:pageshadow="2"
     inkscape:pageopacity="0.0"
     inkscape:pagecheckerboard="0"
     showgrid="false"
     inkscape:zoom="24.181818"
     inkscape:cx="10.979323"
     inkscape:cy="11"
     inkscape:window-width="1852"
     inkscape:window-height="1043"
     inkscape:window-x="1434"
     inkscape:window-y="0"
     inkscape:window-maximized="1"
     inkscape:current-layer="svg4" />
  <g
     transform="translate(-1030,249)"
     id="g4"
     style="fill:#ffffff">
    <path
       d="m 1041.003,-245 c -2.61,0 -5.22,0.838 -7.4,2.518 l -0.266,0.205 0.205,0.263 7.457,9.672 1.004,-1.3 V -236 h 1.014 c 0,-0.253 0.048,-0.495 0.11,-0.73 l -0.184,0.236 a 4.002,4 0 0 0 -3.881,0.002 l -4.287,-5.56 c 1.883,-1.279 4.047,-1.949 6.228,-1.948 2.181,0 4.344,0.672 6.227,1.951 l -2.65,3.434 a 2.898,2.898 0 0 1 1.423,-0.385 c 0.043,0 0.084,0.012 0.127,0.014 l 2.537,-3.287 -0.264,-0.205 a 12.105,12.105 0 0 0 -7.4,-2.522 z m 5,7 c -1.108,0 -2,0.91 -2,2.031 V -235 h -1 v 4 h 6 v -4 h -1 v -0.969 c 0,-1.12 -0.892,-2.031 -2,-2.031 z m 0,1 c 0.554,0 1,0.442 1,1 v 1 h -2 v -1 c 0,-0.558 0.446,-1 1,-1 z"
       fill="#808080"
       font-family="sans-serif"
       font-weight="400"
       overflow="visible"
       style="font-variant-ligatures:none;font-variant-position:normal;font-variant-caps:normal;font-variant-numeric:normal;font-variant-alternates:normal;font-feature-settings:normal;text-indent:0;text-decoration-line:none;text-decoration-style:solid;text-decoration-color:#000000;text-transform:none;shape-padding:0;isolation:auto;mix-blend-mode:normal;fill:#ffffff"
       white-space="normal"
       id="path2" />
  </g>
</svg>
