<?xml version="1.0" encoding="UTF-8" standalone="no"?>
<svg
   xmlns:dc="http://purl.org/dc/elements/1.1/"
   xmlns:cc="http://creativecommons.org/ns#"
   xmlns:rdf="http://www.w3.org/1999/02/22-rdf-syntax-ns#"
   xmlns:svg="http://www.w3.org/2000/svg"
   xmlns="http://www.w3.org/2000/svg"
   xmlns:sodipodi="http://sodipodi.sourceforge.net/DTD/sodipodi-0.dtd"
   xmlns:inkscape="http://www.inkscape.org/namespaces/inkscape"
   version="1.1"
   viewBox="0 0 22 22"
   id="svg10"
   sodipodi:docname="unity-battery-060-charging.svg"
   inkscape:version="1.0.2 (e86c870879, 2021-01-15)">
  <metadata
     id="metadata16">
    <rdf:RDF>
      <cc:Work
         rdf:about="">
        <dc:format>image/svg+xml</dc:format>
        <dc:type
           rdf:resource="http://purl.org/dc/dcmitype/StillImage" />
      </cc:Work>
    </rdf:RDF>
  </metadata>
  <defs
     id="defs14" />
  <sodipodi:namedview
     pagecolor="#ffffff"
     bordercolor="#666666"
     borderopacity="1"
     objecttolerance="10"
     gridtolerance="10"
     guidetolerance="10"
     inkscape:pageopacity="0"
     inkscape:pageshadow="2"
     inkscape:window-width="1301"
     inkscape:window-height="744"
     id="namedview12"
     showgrid="false"
     inkscape:zoom="26.272727"
     inkscape:cx="11"
     inkscape:cy="11"
     inkscape:window-x="65"
     inkscape:window-y="24"
     inkscape:window-maximized="1"
     inkscape:current-layer="svg10" />
  <g
     transform="translate(-970 50.5)"
     label="status"
     id="g8">
    <path
       d="m981-34.504-1e-5 -6h5v6z"
       color="#000000"
       fill="#3eb34f"
       id="path2"
       style="fill:#ffffff;fill-opacity:1" />
    <path
       d="m979-35.166c0.01 0.8388-0.0151 1.4513 0.26171 1.9531 0.13844 0.2509 0.37358 0.4508 0.66602 0.5606 0.29244 0.1097 0.63972 0.1487 1.0781 0.1484h4.9941c0.43841-3e-4 0.78568-0.039 1.0781-0.1484 0.29244-0.1098 0.52562-0.3097 0.66406-0.5606 0.27688-0.5018 0.24812-1.1143 0.25782-1.9531v-8.7031c-0.01-0.8388 0.019-1.4533-0.25782-1.9551-0.13844-0.2509-0.37162-0.4488-0.66406-0.5586-0.29244-0.1097-0.63971-0.1172-1.0781-0.1172h-1v-1h-3v1h-0.99415c-0.4384 0-0.78568 0.01-1.0781 0.1172-0.29244 0.1098-0.52758 0.3077-0.66602 0.5586-0.27688 0.5018-0.25201 1.1163-0.26171 1.9551zm1-0.014v-8.6914c0.0102-0.8528 0.0391-1.2977 0.13671-1.4746 0.0158-0.029 0.0571-0.073 0.14258-0.1055 0.0613-0.023 0.2988-0.053 0.72656-0.053h4.9941c0.42737-3e-4 0.66416 0.029 0.72656 0.053 0.0855 0.032 0.12479 0.077 0.14062 0.1055 0.0951 0.1724 0.12232 0.6176 0.13282 1.4746v8.6934 0.012c-0.0102 0.8543-0.0377 1.2983-0.13282 1.4707-0.0158 0.029-0.0552 0.073-0.14062 0.1054-0.12283 0.046-0.34837 0.086-0.72656 0.086h-4.9941c-0.37814 3e-4 -0.60386-0.04-0.72656-0.086-0.0855-0.032-0.12676-0.077-0.14258-0.1054-0.0981-0.1779-0.13671-2.3488-0.13671-1.4844z"
       color="#000000"
       color-rendering="auto"
       fill="#fff"
       image-rendering="auto"
       shape-rendering="auto"
       solid-color="#000000"
       style="font-feature-settings:normal;font-variant-alternates:normal;font-variant-caps:normal;font-variant-ligatures:none;font-variant-numeric:normal;font-variant-position:normal;isolation:auto;mix-blend-mode:normal;shape-padding:0;text-decoration-color:#000000;text-decoration-line:none;text-decoration-style:solid;text-indent:0;text-transform:none;white-space:normal"
       id="path4" />
    <path
       d="m975.5-33.5 2.4996-5.9995-1.4996-5e-4 -4.4e-4 -4.9995-2.4996 5.9995h1.5z"
       enable-background="new"
       fill="#fff"
       id="path6" />
  </g>
</svg>
