<?xml version="1.0" encoding="UTF-8" standalone="no"?>
<svg
   viewBox="0 0 14 22"
   version="1.1"
   id="svg8"
   sodipodi:docname="unity-battery-080.svg"
   inkscape:version="1.1.1 (3bf5ae0d25, 2021-09-20)"
   xmlns:inkscape="http://www.inkscape.org/namespaces/inkscape"
   xmlns:sodipodi="http://sodipodi.sourceforge.net/DTD/sodipodi-0.dtd"
   xmlns="http://www.w3.org/2000/svg"
   xmlns:svg="http://www.w3.org/2000/svg">
  <defs
     id="defs12" />
  <sodipodi:namedview
     id="namedview10"
     pagecolor="#ffffff"
     bordercolor="#666666"
     borderopacity="1.0"
     inkscape:pageshadow="2"
     inkscape:pageopacity="0.0"
     inkscape:pagecheckerboard="0"
     showgrid="false"
     inkscape:zoom="17.099128"
     inkscape:cx="6.9886606"
     inkscape:cy="10.965472"
     inkscape:window-width="1298"
     inkscape:window-height="704"
     inkscape:window-x="68"
     inkscape:window-y="27"
     inkscape:window-maximized="1"
     inkscape:current-layer="svg8" />
  <path
     d="M 5.00414,3 V 4.0117 C 4.23266,4.028096 3.60594,4.087994 3.06774,4.38475 A 1.8789,1.88 0 0 0 2.23034,5.3828 C 2.06544,5.8198 2.00586,6.34299 2.00586,7 v 7 H 2 v 1 c 0,0.658 0.059574,1.1792 0.22448,1.6172 0.1639,0.439 0.46162,0.78909 0.8374,0.99609 0.75256,0.415 1.6727,0.37172 2.9299,0.38672 h 2.0104999 c 1.2573,-0.015 2.1774001,0.02828 2.9299001,-0.38672 0.37578,-0.207 0.67349,-0.55709 0.8374,-0.99609 0.16481,-0.438 0.22447,-0.95919 0.22447,-1.6172 h 0.0059 V 7 c 0,-0.657 -0.05958,-1.1802 -0.22448,-1.6172 A 1.8789,1.88 0 0 0 10.938031,4.38475 C 10.399901,4.088 9.7731309,4.0281 9.0016309,4.0117 V 3 Z m 0.99941,2 h 1.9987999 c 1.2593,0.015 2.0859001,0.059719 2.4517001,0.26172 0.18389,0.101 0.28855,0.21266 0.38649,0.47266 0.09694,0.26 0.16006,0.67362 0.16006,1.2656 v 7 h -0.0059 v 1 c 0,0.592 -0.06312,1.0056 -0.16006,1.2656 -0.09794,0.259 -0.20065,0.37266 -0.38454,0.47266 -0.36462,0.202 -1.1953001,0.24672 -2.4536001,0.26172 H 5.9977 C 4.7394,16.98496 3.9089,16.94024 3.5441,16.73824 3.36021,16.63824 3.2575,16.52458 3.15956,16.26558 3.062617,16.00558 2.9995,15.59196 2.9995,14.99998 v -1 h 0.00586 v -7 c 0,-0.592 0.063119,-1.0056 0.16006,-1.2656 0.097942,-0.26 0.2026,-0.37166 0.38649,-0.47266 C 3.91769,5.05972 4.74431,5.015 6.00361,5 Z"
     enable-background="new"
     fill="#ffffff"
     id="path2" />
  <path
     d="m 4.00004,8 v 7 c 0,0.554 0.446,1 1,1 h 3.9999999 c 0.554,0 1.0000001,-0.446 1.0000001,-1 V 8 Z"
     fill="#ffffff"
     stroke-width="5"
     id="path4" />
</svg>
