<?xml version="1.0" encoding="UTF-8" standalone="no"?>
<svg
   viewBox="0 0 14 22"
   version="1.1"
   id="svg8"
   sodipodi:docname="unity-gpm-battery-missing.svg"
   inkscape:version="1.1.1 (3bf5ae0d25, 2021-09-20)"
   xmlns:inkscape="http://www.inkscape.org/namespaces/inkscape"
   xmlns:sodipodi="http://sodipodi.sourceforge.net/DTD/sodipodi-0.dtd"
   xmlns="http://www.w3.org/2000/svg"
   xmlns:svg="http://www.w3.org/2000/svg">
  <defs
     id="defs12" />
  <sodipodi:namedview
     id="namedview10"
     pagecolor="#ffffff"
     bordercolor="#666666"
     borderopacity="1.0"
     inkscape:pageshadow="2"
     inkscape:pageopacity="0.0"
     inkscape:pagecheckerboard="0"
     showgrid="false"
     inkscape:zoom="17.099128"
     inkscape:cx="6.9886605"
     inkscape:cy="10.965471"
     inkscape:window-width="1298"
     inkscape:window-height="704"
     inkscape:window-x="68"
     inkscape:window-y="27"
     inkscape:window-maximized="1"
     inkscape:current-layer="svg8" />
  <path
     d="M 5.00386,3 V 4.0117 C 4.23238,4.028096 3.60646,4.087994 3.06836,4.38475 A 1.8789,1.88 0 0 0 2.23047,5.3828 C 2.06557,5.8198 2.00586,6.34299 2.00586,7 v 7 H 2 v 1 c 0,0.658 0.059706,1.1792 0.22461,1.6172 0.1639,0.439 0.46211,0.78909 0.83789,0.99609 0.75256,0.415 1.6724,0.37172 2.9297,0.38672 h 2.0097 c 1.2573,-0.015 2.1771,0.02828 2.9297,-0.38672 0.37578,-0.207 0.67399,-0.55709 0.83789,-0.99609 C 11.9343,16.1792 11.9941,15.65801 11.9941,15 H 12 V 7 C 12,6.343 11.94029,5.8198 11.77539,5.3828 A 1.8789,1.88 0 0 0 10.9375,4.38475 C 10.39937,4.088 9.7734,4.0281 9.002,4.0117 V 3 H 5.0039596 Z m 2.2891,1 H 7.29491 C 8.0106,4 8.6396103,4.096659 9.20121,4.3418 L 9.19731,4.33594 c 0.0045,0.00184 0.0072,0.00595 0.01172,0.00781 0.0063,0.00278 0.01518,0.00109 0.02148,0.00391 L 9.44535,4.445316 C 9.50474,4.46629 9.56282,4.487417 9.61723,4.511722 v 0.00195 c 0.405,0.164 0.72303,0.37391 0.95703,0.62891 a 2.04,2.04 0 0 1 0.48242,0.86719 v 0.00391 a 3.06,3.06 0 0 1 0.01367,0.056641 c 0.05952,0.1362 0.11109,0.27576 0.15039,0.41992 0.11945,0.38213 0.1844,0.77921 0.1875,1.1797 v 0.00781 c 0,0.4972699 -0.09971,0.9822199 -0.30664,1.4140999 l -0.0039,0.0078 -0.0039,0.0098 c -0.02972,0.05923 -0.06173,0.11752 -0.09375,0.17578 v 4.7148001 h -0.0059 v 1 c 0,0.592 -0.06321,1.0056 -0.16016,1.2656 -0.09794,0.259 -0.20087,0.37266 -0.38476,0.47266 -0.27979,0.15501 -0.85882,0.21336 -1.6737997,0.24024 -0.07643,0.14172 -0.16491,0.27475 -0.26953,0.39062 -0.36232,0.4014 -0.9568903,0.62891 -1.4844003,0.62891 -0.52929,0 -1.1231,-0.22886 -1.4844,-0.62891 v -0.002 H 5.53515 c -0.10316,-0.11458 -0.19232,-0.24638 -0.26758,-0.38672 -0.84047,-0.02608 -1.4373,-0.0842 -1.7227,-0.24219 -0.18389,-0.1 -0.28682,-0.21366 -0.38477,-0.47266 -0.096943,-0.26 -0.16016,-0.67362 -0.16016,-1.2656 v -1 H 3.0058 V 7.0000093 c 0,-0.18961 0.00948,-0.35399 0.021484,-0.50781 l -0.43555,-0.67383 1.5059,-1.0488 0.060547,-0.03125 c 0.43553,-0.22232 0.8944,-0.39666 1.3672,-0.52148 l 0.00195,-0.00195 h 0.00391 c 0.56229,-0.14442 1.1524,-0.21484 1.7617,-0.21484 z"
     enable-background="new"
     fill="#ffffff"
     opacity="0.5"
     id="path2" />
  <path
     d="m 7.27096,5.037 c -0.533,0 -1.037,0.061 -1.512,0.183 a 5.853,5.853 0 0 0 -1.167,0.446 l -0.658,0.458 0.566,0.876 0.452,-0.336 c 0.688,-0.35 1.394,-0.54 2.116,-0.54 0.607,0 1.0900003,0.16 1.4210003,0.491 0.327,0.316 0.493,0.737 0.493,1.2359999 0,0.311 -0.073,0.603 -0.217,0.868 -0.13,0.258 -0.299,0.503 -0.508,0.736 C 8.05196,9.6819999 7.83696,9.9099999 7.60896,10.137 v 10e-4 a 6.392,6.392 0 0 0 -0.633,0.7 l -10e-4,0.002 a 3.66,3.66 0 0 0 -0.492,0.786 2.378,2.378 0 0 0 -0.177,0.935 c 0,0.208 0.024,0.403 0.056,0.594 h 1.088 c -0.001,-0.023 -0.01,-0.044 -0.01,-0.068 V 12.9 c 0,-0.387 0.077,-0.74 0.232,-1.05 0.15,-0.314 0.336,-0.599 0.5570003,-0.855 l 0.002,-0.002 c 0.218,-0.264 0.458,-0.515 0.721,-0.755 A 7.23,7.23 0 0 0 9.65196,9.5039999 c 0.21,-0.253 0.384,-0.522 0.527,-0.807 0.138,-0.288 0.209,-0.613 0.209,-0.9819999 a 3.06,3.06 0 0 0 -0.147,-0.914 l -10e-4,-0.002 V 6.797 A 2.04,2.04 0 0 0 9.75796,5.93 C 9.52396,5.675 9.20596,5.464 8.8009603,5.3 V 5.298 C 8.4159603,5.126 7.90596,5.037 7.27296,5.037 Z M 7.00096,15 c -0.326,0 -0.562,0.1 -0.743,0.3 a 1.025,1.025 0 0 0 -0.275,0.718 c 0,0.279 0.089,0.512 0.275,0.718 0.18,0.2 0.417,0.3 0.742,0.3 0.325,0 0.562,-0.099 0.743,-0.3 0.186,-0.206 0.275,-0.44 0.275,-0.718 0,-0.28 -0.089,-0.512 -0.275,-0.718 -0.18,-0.2 -0.418,-0.3 -0.743,-0.3 z"
     fill="#ffffff"
     font-family="Ubuntu"
     font-size="72.036px"
     font-weight="500"
     letter-spacing="0"
     text-anchor="middle"
     word-spacing="0"
     id="path4" />
</svg>
