<svg version="1.0" viewBox="0 0 14 22" xmlns="http://www.w3.org/2000/svg"><path class="error" d="M979-107v1h-.994c-.439 0-.786.007-1.078.117-.293.11-.528.308-.666.559-.277.502-.252 1.116-.262 1.955v8.707c.01.839-.015 1.451.262 1.953.138.251.373.45.666.56s.64.15 1.078.15H984c.438 0 .786-.04 1.078-.15.292-.11.526-.309.664-.56.277-.502.248-1.114.258-1.953v-8.707c-.01-.839.019-1.453-.258-1.955a1.25 1.25 0 0 0-.664-.559c-.292-.11-.64-.117-1.078-.117h-1v-1zm-.994 2H984c.427 0 .664.03.727.053a.259.259 0 0 1 .14.105c.095.173.122.618.133 1.475v8.705c-.01.854-.038 1.298-.133 1.47-.016.03-.055.074-.14.106-.123.046-.349.086-.727.086h-5.994c-.378 0-.604-.04-.727-.086a.266.266 0 0 1-.142-.105c-.098-.178-.127-.62-.137-1.485v-8.691c.01-.853.04-1.298.137-1.475a.266.266 0 0 1 .142-.105c.062-.023.3-.053.727-.053zm2.285 1v2.662c0 .793.03 1.516.086 2.168.057.642.128 1.284.213 1.926h.82c.085-.642.156-1.284.213-1.926.057-.651.086-1.375.086-2.168V-104zm.709 8.102c-.293 0-.523.094-.693.283-.17.189-.256.41-.256.666s.086.477.256.666c.17.189.4.283.693.283s.523-.094.693-.283c.17-.189.256-.411.256-.666s-.086-.477-.256-.666c-.17-.19-.4-.283-.693-.283z" color="#000" fill="#da1636" style="font-feature-settings:normal;font-variant-alternates:normal;font-variant-caps:normal;font-variant-ligatures:none;font-variant-numeric:normal;font-variant-position:normal;isolation:auto;mix-blend-mode:normal;shape-padding:0;text-decoration-color:#000;text-decoration-line:none;text-decoration-style:solid;text-indent:0;text-transform:none;white-space:normal" transform="translate(-974 110)"/></svg>