<svg viewBox="0 0 22 22" xmlns="http://www.w3.org/2000/svg"><g fill="#fff"><path d="M11 15.996v-10h5v10z" color="#000"/><path d="M1059-35.166c.01.839-.015 1.451.262 1.953.138.251.373.45.666.56.292.11.64.15 1.078.15H1066c.438 0 .786-.04 1.078-.15a1.25 1.25 0 0 0 .664-.56c.277-.502.248-1.114.258-1.953v-8.703c-.01-.839.019-1.453-.258-1.955a1.25 1.25 0 0 0-.664-.559c-.292-.11-.64-.117-1.078-.117h-1v-1h-3v1h-.994c-.439 0-.786.01-1.078.117-.293.11-.528.308-.666.559-.277.502-.252 1.116-.262 1.955zm1-.014v-8.691c.01-.853.039-1.298.137-1.475.016-.029.057-.073.142-.106.061-.023.3-.053.727-.053H1066c.427 0 .664.03.727.054.086.031.124.076.14.105.095.172.122.618.133 1.475v8.705c-.01.854-.038 1.298-.133 1.47-.016.03-.055.074-.14.106-.123.046-.349.086-.727.086h-4.994c-.378 0-.604-.04-.727-.086-.086-.032-.127-.077-.142-.105-.098-.178-.127-.62-.137-1.485z" color="#000" style="font-feature-settings:normal;font-variant-alternates:normal;font-variant-caps:normal;font-variant-ligatures:none;font-variant-numeric:normal;font-variant-position:normal;isolation:auto;mix-blend-mode:normal;shape-padding:0;text-decoration-color:#000;text-decoration-line:none;text-decoration-style:solid;text-indent:0;text-transform:none;white-space:normal" transform="translate(-1050 50.5)"/><path d="M5.5 17 8 11H6.5V6L4 12h1.5z" opacity=".5"/></g></svg>