<svg version="1.0" viewBox="0 0 20 22" xmlns="http://www.w3.org/2000/svg">
 <g fill="#fff">
  <path d="M4 3c-1.108 0-2 .892-2 2v8c0 1.108.892 2 2 2h1.522L8 18l2-3h6c1.108 0 2-.892 2-2V5c0-1.108-.892-2-2-2zm0 1h12c.554 0 1 .446 1 1v8c0 .554-.446 1-1 1H9.566L8 16.4 6.034 14H4c-.554 0-1-.446-1-1V5c0-.554.446-1 1-1zm-.7 11c.153.017.322.021.524 0z"/>
  <path transform="translate(1 2.5)" d="m6.098 4.203 2.496 2.495-2.496 2.496.504.504 2.496-2.495 2.496 2.495.504-.504-2.496-2.496 2.496-2.495-.504-.504-2.496 2.495L6.602 3.7z" fill-rule="evenodd" font-weight="400" overflow="visible" style="font-feature-settings:normal;font-variant-alternates:normal;font-variant-caps:normal;font-variant-ligatures:normal;font-variant-numeric:normal;font-variant-position:normal;isolation:auto;mix-blend-mode:normal;shape-padding:0;text-decoration-color:#000;text-decoration-line:none;text-decoration-style:solid;text-indent:0;text-orientation:mixed;text-transform:none;white-space:normal"/>
 </g>
</svg>
