<svg version="1.1" viewBox="0 0 16 16" xmlns="http://www.w3.org/2000/svg">
 <path d="m2.746 3.3545c-0.56074 0.56215-0.52892 0.57558 0.35285 1.1052l4.6627 2.3646-3.182 3.182-2.1206-0.3981c-0.24749-0.0495-0.24183-0.06788-0.3981 0.08839l-0.15486 0.15486c-0.30264 0.30264 0.11102 0.50841 0.11102 0.50841l2.0103 1.6129 1.6136 2.011s0.21001 0.408 0.48578 0.13223l0.17678-0.17678c0.1492-0.1492 0.13789-0.15061 0.088388-0.3981l-0.3981-2.1206 3.182-3.182 2.3426 4.6407c0.55437 0.92348 0.56427 0.93762 1.1271 0.37477 0.30547-0.30547 0.29769-0.31466 0.15415-0.86126l-1.2813-6.4969 2.1878-2.1878c0.39174-0.39174 0.39174-1.0225 0-1.4142-0.39174-0.39174-1.0225-0.39174-1.4142 0l-2.1878 2.1878-6.4969-1.2813c-0.51124-0.13506-0.55225-0.15203-0.81742 0.11031z" fill="#808080"/>
</svg>
