<svg version="1.1" viewBox="0 0 16 16" xmlns="http://www.w3.org/2000/svg">
 <g>
  <path d="m5.6621 1c-0.8388 0.0097-1.4513-0.019074-1.9531 0.25781-0.25092 0.13844-0.45077 0.37162-0.56055 0.66406-0.10978 0.29244-0.14844 0.63972-0.14844 1.0781v10c0 0.4384 0.038664 0.78568 0.14844 1.0781 0.10978 0.29244 0.30963 0.52562 0.56055 0.66406 0.50183 0.27688 1.1143 0.24812 1.9531 0.25781h0.0019531 3.3652v-1h-3.3809-0.0039063c-0.83971-0.0098-1.0372-0.039151-1.2812-0.17383-0.12227-0.06746-0.19082-0.14314-0.25586-0.31641-0.06504-0.17327-0.10742-0.44882-0.10742-0.84375v-9.332c0-0.39493 0.042376-0.67048 0.10742-0.84375 0.06504-0.17327 0.13359-0.24894 0.25586-0.31641 0.24409-0.13467 0.44154-0.16403 1.2812-0.17383h4.1816l2.1738 2.2012v3.8574c0.31536-0.11242 0.6499-0.18359 1-0.18359v-4.0137l-2.8613-2.8613h-4.4746-0.0019531z" color="#000000" color-rendering="auto" fill="#808080" image-rendering="auto" opacity=".5" shape-rendering="auto" solid-color="#000000" style="isolation:auto;mix-blend-mode:normal;text-decoration-color:#000000;text-decoration-line:none;text-decoration-style:solid;text-indent:0;text-transform:none;white-space:normal"/>
  <path d="m6.4355 7c-0.39639 0.0046-0.70435-0.023984-1.0098 0.14453-0.15271 0.08425-0.27998 0.23636-0.34375 0.40625-0.06377 0.16989-0.082031 0.35316-0.082031 0.57227v3.7539c0 0.21911 0.018261 0.40238 0.082031 0.57227 0.06377 0.16989 0.19104 0.32199 0.34375 0.40625 0.30542 0.16851 0.61338 0.13995 1.0098 0.14453h0.0019531 2.5918v-1h-0.029297v-1h0.029297v-0.0625h0.9707v-0.09375c0-0.8745 0.39314-1.6494 1-2.1914v-0.5293c0-0.21911-0.018261-0.40238-0.082031-0.57227-0.06377-0.16989-0.19104-0.32199-0.34375-0.40625-0.30542-0.16851-0.61142-0.13995-1.0078-0.14453h-0.0019531-3.127-0.0019531zm0.14648 1h0.41797v1h-1v-0.6582c0-0.13172 0.015017-0.21587 0.029297-0.25391 0.01428-0.03804 0.013197-0.033009 0.03125-0.042969 0.036097-0.01992 0.22152-0.041457 0.52148-0.044922zm0.91797 0h1v1h-1v-1zm1.5 0h0.41797c0.29996 0.00345 0.48539 0.025002 0.52148 0.044922 0.018052 0.00996 0.01697 0.0049517 0.03125 0.042969 0.01428 0.03804 0.029297 0.12218 0.029297 0.25391v2.1582h-4v-1h3v-0.5-1zm-3 3h1v1h-0.41797c-0.29996-0.0034-0.48539-0.025002-0.52148-0.044922-0.018045-0.01-0.01697-0.004999-0.03125-0.042969-0.01428-0.03804-0.029297-0.12218-0.029297-0.25391v-0.6582zm1.5 0h1v1h-1v-1z" color="#000000" color-rendering="auto" fill="#808080" image-rendering="auto" opacity=".5" shape-rendering="auto" solid-color="#000000" style="isolation:auto;mix-blend-mode:normal;text-decoration-color:#000000;text-decoration-line:none;text-decoration-style:solid;text-indent:0;text-transform:none;white-space:normal"/>
  <rect transform="rotate(90)" y="-16" width="16" height="16" color="#000000" fill="none"/>
 </g>
 <path d="m13 8.875c-1.09 0-2 0.879-2 1.969v1.094h-0.97v4.062h5.97v-4.063h-1.032v-1.093c0-1.09-0.88-1.969-1.968-1.969zm0 1c0.546 0 0.968 0.417 0.968 0.969v1.094h-1.968v-1.094c0-0.552 0.453-0.969 1-0.969z" color="#000000" fill="#808080" font-family="Sans" font-weight="400" overflow="visible" style="text-decoration-line:none;text-indent:0;text-transform:none"/>
</svg>
