<svg version="1.1" viewBox="0 0 16 16.001" xmlns="http://www.w3.org/2000/svg" xmlns:osb="http://www.openswatchbook.org/uri/2009/osb">
 <g transform="translate(-993 -53)" label="status">
  <path d="m1001 54c-0.5291 0-1.0315 0.0974-1.4941 0.29492-0.4595 0.1878-0.86412 0.46562-1.1953 0.82422-0.3402 0.3589-0.60145 0.79186-0.78125 1.2832-0.18243 0.48918-0.26953 1.0246-0.26953 1.5977h8e-3c0 0.58157 0.0877 1.1227 0.27149 1.6133 0.1805 0.48378 0.44175 0.9117 0.78125 1.2695 0.3304 0.35746 0.73205 0.63789 1.1894 0.83399v2e-3c0.46203 0.18805 0.96243 0.28125 1.4902 0.28125 0.5279 0 1.0306-0.0935 1.4922-0.28125v-2e-3 -2e-3c0.4578-0.19626 0.8627-0.47587 1.2012-0.83203v-2e-3 -2e-3c0.3296-0.35779 0.5858-0.78378 0.7656-1.2656 0.1831-0.49061 0.2695-1.0317 0.2695-1.6133 0-0.57371-0.087-1.11-0.2695-1.5996-0.1794-0.48927-0.4352-0.92065-0.7656-1.2793v-2e-3 -4e-3c-0.3393-0.35698-0.7472-0.63255-1.2071-0.82031-0.4553-0.19666-0.9578-0.29464-1.4865-0.29464zm0 1c0.4058 0 0.7701 0.0743 1.1016 0.21484l0.01 2e-3 0.01 4e-3c0.3294 0.13451 0.6098 0.32807 0.8496 0.57813l0.012 0.01c0.2301 0.25193 0.4167 0.55926 0.5547 0.93555v4e-3 2e-3c0.136 0.36442 0.207 0.77878 0.207 1.25 0 0.48085-0.071 0.9003-0.207 1.2637-0.1293 0.34639-0.3107 0.62633-0.5235 0.8711l-0.01 6e-3 -0.051 0.0703c-0.2381 0.24532-0.5129 0.44149-0.8379 0.58203-1e-3 4.4e-4 -0-4.4e-4 -0 0-0.3328 0.13438-0.6994 0.20703-1.1093 0.20703-0.4046 0-0.7655-0.0717-1.0918-0.20312-0.3338-0.14338-0.61446-0.34144-0.84766-0.59376v-4e-3l-0.0117-4e-3c-0.2425-0.25561-0.43311-0.56404-0.57031-0.93164v-2e-3c-0.14123-0.36189-0.21321-0.78029-0.21321-1.2621v-0.0469c5e-3 -0.44864 0.0685-0.85057 0.19922-1.2012v-6e-3c0.1375-0.37593 0.32856-0.68649 0.56836-0.93945v-0.01c0.2309-0.24998 0.50799-0.44134 0.83789-0.57618l0.0117-2e-3 0.01-4e-3c0.33023-0.14026 0.69513-0.2143 1.1013-0.2143zm-0.029 9.0254c-0.057 0-0.095 4e-3 -0.1504 4e-3 -0.6735 3e-3 -1.2836 0.0202-1.8203 0.0586-1.6644 0.11914-2.7396 0.42888-3.5898 1.0703-0.57474 0.43358-0.95376 1.025-1.168 1.7129-0.158 0.50743-0.21889 0.97459-0.24804 1.5312-8e-3 0.0405-2e-3 0.0818-1.6e-4 0.12305 0.0137 0.27631 0.23951 0.489 0.51578 0.47461 0.26541-0.0145 0.47306-0.23419 0.47266-0.5 9e-3 -0.46614 0.14125-0.94537 0.21494-1.334 0.16618-0.53363 0.41151-0.90354 0.81641-1.209 0.58713-0.44293 1.479-0.7287 2.9863-0.85547h2e-3c0.5395-0.0455 1.1596-0.0718 1.8848-0.0742 0.032-1.1e-4 0.051-4e-3 0.084-4e-3 0.039 0 0.063 4e-3 0.1015 4e-3 0.7252 2e-3 1.3453 0.0287 1.8848 0.0742 1.5073 0.12677 2.3992 0.41254 2.9863 0.85547 0.4049 0.30545 0.6502 0.67536 0.8164 1.209 0.1263 0.40546 0.1834 0.81043 0.211 1.334-2e-4 8e-3 -2e-4 0.0169 0 0.0254 0.014 0.27631 0.2491 0.489 0.5254 0.47461 0.2755-0.0147 0.487-0.24985 0.4726-0.52539-0-0.0223-0-0.0445-0.01-0.0664-0.029-0.55942-0.089-1.0278-0.248-1.5371-0.2142-0.68788-0.5933-1.2793-1.168-1.7129-0.8502-0.64142-1.9255-0.95117-3.5898-1.0703-0.5368-0.0384-1.1468-0.0558-1.8203-0.0586-0.062-2.6e-4 -0.1052-4e-3 -0.168-4e-3z" color="#000000" color-rendering="auto" dominant-baseline="auto" fill="#808080" image-rendering="auto" shape-rendering="auto" solid-color="#000000" style="font-feature-settings:normal;font-variant-alternates:normal;font-variant-caps:normal;font-variant-ligatures:normal;font-variant-numeric:normal;font-variant-position:normal;isolation:auto;mix-blend-mode:normal;shape-padding:0;text-decoration-color:#000000;text-decoration-line:none;text-decoration-style:solid;text-indent:0;text-orientation:mixed;text-transform:none;white-space:normal"/>
 </g>
</svg>
