<?xml version="1.0" encoding="UTF-8" standalone="no"?>
<svg
   xmlns:dc="http://purl.org/dc/elements/1.1/"
   xmlns:cc="http://creativecommons.org/ns#"
   xmlns:rdf="http://www.w3.org/1999/02/22-rdf-syntax-ns#"
   xmlns:svg="http://www.w3.org/2000/svg"
   xmlns="http://www.w3.org/2000/svg"
   xmlns:sodipodi="http://sodipodi.sourceforge.net/DTD/sodipodi-0.dtd"
   xmlns:inkscape="http://www.inkscape.org/namespaces/inkscape"
   height="16"
   width="16"
   version="1.1"
   id="svg10"
   sodipodi:docname="battery-level-0-charging-symbolic.svg">
  <metadata
     id="metadata16">
    <rdf:RDF>
      <cc:Work
         rdf:about="">
        <dc:format>image/svg+xml</dc:format>
        <dc:type
           rdf:resource="http://purl.org/dc/dcmitype/StillImage" />
      </cc:Work>
    </rdf:RDF>
  </metadata>
  <defs
     id="defs14" />
  <sodipodi:namedview
     pagecolor="#ffffff"
     bordercolor="#666666"
     borderopacity="1"
     objecttolerance="10"
     gridtolerance="10"
     guidetolerance="10"
     inkscape:pageopacity="0"
     inkscape:pageshadow="2"
     inkscape:window-width="640"
     inkscape:window-height="480"
     id="namedview12" />
  <g
     fill="gray"
     id="g8">
    <path
       d="M6 12.338c.01.839-.015 1.451.262 1.953.138.25.373.45.666.56.292.11.64.149 1.078.149H13c.438 0 .786-.039 1.078-.148.293-.11.526-.31.664-.561.277-.502.248-1.114.258-1.953V3.635c-.01-.839.019-1.453-.258-1.955a1.25 1.25 0 00-.664-.559c-.292-.11-.64-.117-1.078-.117h-1v-1H9v1h-.994c-.439 0-.786.01-1.078.117-.293.11-.528.308-.666.559-.277.502-.252 1.116-.262 1.955zm1-.014V3.633c.01-.853.04-1.298.137-1.475.016-.03.057-.073.142-.106.062-.023.3-.053.727-.053H13c.427 0 .664.03.727.053.085.032.124.077.14.106.095.172.123.618.133 1.475v8.705c-.01.854-.038 1.298-.133 1.47-.016.03-.055.074-.14.106-.123.046-.349.086-.727.086H8.006c-.378 0-.604-.04-.727-.086-.085-.032-.126-.077-.142-.105-.098-.178-.127-.62-.137-1.485z"
       style="line-height:normal;font-variant-ligatures:none;font-variant-position:normal;font-variant-caps:normal;font-variant-numeric:normal;font-variant-alternates:normal;font-feature-settings:normal;text-indent:0;text-align:start;text-decoration-line:none;text-decoration-style:solid;text-decoration-color:#000;text-transform:none;white-space:normal;shape-padding:0;isolation:auto;mix-blend-mode:normal;solid-color:#000;solid-opacity:1;marker:none"
       color="#000"
       font-weight="400"
       font-family="sans-serif"
       overflow="visible"
       id="path2" />
    <path
       d="M2 14l2.5-6H3V3L.5 9H2z"
       id="path4" />
    <path
       d="M2 14l2.5-6H3V3L.5 9H2z"
       id="path6" />
  </g>
</svg>
