<svg version="1.1" viewBox="0 0 16 16" xmlns="http://www.w3.org/2000/svg" xmlns:osb="http://www.openswatchbook.org/uri/2009/osb">
 <g transform="translate(-993 107)" label="status">
  <path class="error" d="m998-94-1e-5 -1h6v1z" color="#000000" fill="#da1636"/>
  <path d="m996-94.662c0.01 0.8388-0.0151 1.4513 0.26171 1.9531 0.13844 0.25092 0.37358 0.45077 0.66602 0.56055s0.63972 0.14843 1.0781 0.14843h5.9941c0.4384 0 0.7857-0.0386 1.0782-0.14843 0.2924-0.10978 0.5256-0.30963 0.664-0.56055 0.2769-0.50183 0.2481-1.1143 0.2578-1.9531v-2e-3 -8.7031-2e-3c-0.01-0.8388 0.019-1.4532-0.2578-1.9551-0.1384-0.25092-0.3716-0.44882-0.664-0.5586-0.2925-0.10967-0.6398-0.11719-1.0782-0.11719h-1v-1h-4v1h-0.99415c-0.4384 0-0.78568 7e-3 -1.0781 0.11719-0.29244 0.10978-0.52758 0.30768-0.66602 0.5586-0.27688 0.50183-0.25201 1.1163-0.26171 1.9551v2e-3 8.7031zm1-0.0137v-8.6914c0.0102-0.85282 0.0391-1.2976 0.13671-1.4746 0.0158-0.0287 0.0571-0.0734 0.14258-0.10547 0.0613-0.0231 0.2988-0.0527 0.72656-0.0527h5.9941c0.4274 0 0.6642 0.0293 0.7266 0.0527 0.086 0.0321 0.1248 0.0768 0.1406 0.10547 0.095 0.1724 0.1223 0.6176 0.1328 1.4746v8.6934 0.0117c-0.01 0.85438-0.038 1.2983-0.1328 1.4707-0.016 0.0287-0.055 0.0734-0.1406 0.10547-0.1228 0.0462-0.3484 0.0859-0.7266 0.0859h-5.9941c-0.37814 0-0.60386-0.0399-0.72656-0.0859-0.0855-0.0321-0.12676-0.0768-0.14258-0.10547-0.0981-0.1779-0.12641-0.62006-0.13671-1.4844z" color="#000000" color-rendering="auto" fill="#808080" image-rendering="auto" shape-rendering="auto" solid-color="#000000" style="font-feature-settings:normal;font-variant-alternates:normal;font-variant-caps:normal;font-variant-ligatures:none;font-variant-numeric:normal;font-variant-position:normal;isolation:auto;mix-blend-mode:normal;shape-padding:0;text-decoration-color:#000000;text-decoration-line:none;text-decoration-style:solid;text-indent:0;text-transform:none;white-space:normal"/>
 </g>
</svg>
