<svg xmlns="http://www.w3.org/2000/svg" width="16" height="16">
    <g fill="gray">
        <path d="M8 2A8 8 0 00.262 8.01 8 8 0 008 14a8 8 0 007.738-6.01A8 8 0 008 2zm-.078 1.03c1.74-.02 3.511.631 4.777 1.835.94.83 1.603 1.936 1.979 3.125a6.981 6.981 0 01-6.926 4.975c-1.036-.014-2.105-.334-2.992-.795-1.618-.853-2.885-2.358-3.42-4.11.085-.518.346-1.024.598-1.494 1.188-2.125 3.545-3.53 5.984-3.537z" style="marker:none"/>
        <path d="M8.195 4.004a4 4 0 103.799 3.793v-.002a4 4 0 00-3.799-3.791zm-.347 1a3 3 0 013.148 2.842v.002a3 3 0 01-2.844 3.148 3 3 0 01-3.148-2.844 3 3 0 012.844-3.148z"/>
        <path d="M7.898 6.002a2 2 0 00-1.896 2.1 2 2 0 002.1 1.896 2 2 0 001.896-2.1 2 2 0 00-.088-.486 1 1 0 01-.86.586 1 1 0 01-1.048-.947 1 1 0 01.582-.961 2 2 0 00-.686-.088z"/>
    </g>
</svg>
