<svg xmlns="http://www.w3.org/2000/svg" width="16" height="16">
    <path style="marker:none" d="M8 2A8 8 0 00.262 8.01a7.988 7.988 0 003.726 4.902l.754-.754c-1.608-.854-2.87-2.353-3.402-4.097.085-.52.346-1.025.598-1.495 1.188-2.125 3.545-3.53 5.984-3.537 1.584-.018 3.189.525 4.42 1.53l.732-.733A7.983 7.983 0 008 2zm.195 2.004a4 4 0 00-4.19 4.2c.065 1.26.718 2.339 1.667 3.025l.707-.708a3 3 0 01-1.375-2.369 3 3 0 012.844-3.148 3 3 0 012.672 1.375l.718-.717a3.991 3.991 0 00-3.043-1.658zm5.887.814l-.725.725a7.215 7.215 0 011.32 2.447 6.981 6.981 0 01-6.925 4.975 6.221 6.221 0 01-1.576-.238l-.822.82A7.985 7.985 0 008 14a8 8 0 007.738-6.01 7.972 7.972 0 00-1.656-3.172zM7.994 6a2 2 0 00-.096.002 2 2 0 00-1.896 2.1 2 2 0 001.11 1.687l1.794-1.795a1 1 0 01-.904-.943 1 1 0 01.582-.961 2 2 0 00-.59-.09zm3.883 1.023l-.88.881a3 3 0 01-2.845 3.092 3 3 0 01-.248 0l-.867.867c.374.094.761.152 1.166.131a4 4 0 003.791-4.197v-.002a4.007 4.007 0 00-.117-.772z" fill="gray"/>
    <path style="line-height:normal;font-variant-ligatures:normal;font-variant-position:normal;font-variant-caps:normal;font-variant-numeric:normal;font-variant-alternates:normal;font-feature-settings:normal;text-indent:0;text-align:start;text-decoration-line:none;text-decoration-style:solid;text-decoration-color:#000;text-transform:none;text-orientation:mixed;white-space:normal;shape-padding:0;isolation:auto;mix-blend-mode:normal;solid-color:#000;solid-opacity:1" d="M13 2L1 14h2L15 2z" color="#000" font-weight="400" font-family="sans-serif" overflow="visible" fill="gray"/>
</svg>
