<svg version="1.1" viewBox="0 0 16 16" xmlns="http://www.w3.org/2000/svg">
 <path d="m8 1a4 4 0 0 0-4 4 4 4 0 0 0 0.22656 1.3203c0.28659 0.85773 0.70602 2.03 1.1719 3.2812l-4.3984 4.3984h2l2.9434-2.9434 3.3516-3.3516 1.4121-1.4121 1.293-1.293 3-3h-2l-1.3535 1.3535a4 4 0 0 0-3.6465-2.3535zm-0.052734 1a3 3 0 0 1 0.0019532 0 3 3 0 0 1 0.050781 0 3 3 0 0 1 2.8691 2.1309l-3.7402 3.7402a3 3 0 0 1-2.1289-2.8711 3 3 0 0 1 2.9473-3zm3.3516 5.7012-4.7793 4.7793c0.47022 1.1346 0.96201 2.2621 1.4805 3.2891 1.303-2.5809 2.4953-5.7641 3.2988-8.0684z" fill="#808080"/>
</svg>
