<svg viewBox="0 0 16 16" xmlns="http://www.w3.org/2000/svg">
 <path d="M11 1v2h-1c-1.74 0-2.955.642-3.756 1.582-.8.94-1.216 2.127-1.594 3.26-.377 1.133-.72 2.218-1.246 2.965C2.88 11.554 2.24 12 1 12H0v1h1c1.511 0 2.559-.679 3.22-1.62.663-.94 1.007-2.105 1.38-3.222.372-1.117.77-2.18 1.406-2.928C7.643 4.483 8.49 4 10 4h1.002v2c.76-.348 1.534-.736 2.322-1.166.781-.43 1.533-.876 2.258-1.334-.725-.45-1.477-.89-2.258-1.32A43.074 43.074 0 0 0 11 1zM0 3v1h1c1.239 0 1.879.446 2.404 1.193.256.364.466.81.66 1.3.151-.405.335-.814.545-1.22a5.886 5.886 0 0 0-.388-.654C3.559 3.68 2.51 3 1 3zm6.21 6.459c-.139.414-.287.823-.478 1.244.153.25.32.49.512.715C7.044 12.358 8.26 13 10 13h1.002v2c.76-.348 1.534-.736 2.322-1.166.781-.43 1.533-.876 2.258-1.334-.725-.45-1.477-.89-2.258-1.32A43.074 43.074 0 0 0 11 10v2h-1c-1.51 0-2.357-.483-2.994-1.23-.315-.37-.571-.819-.795-1.311z" fill="gray" overflow="visible"/>
</svg>
