<svg viewBox="0 0 16 16" xmlns="http://www.w3.org/2000/svg">
 <path d="M5 0v2H3.994c-1.258.015-2.179-.03-2.932.385a1.88 1.88 0 0 0-.837.998C.06 3.82 0 4.343 0 5v6c0 .658.06 1.179.225 1.617.164.439.461.79.838.998.752.416 1.673.37 2.931.385h8.012c1.258-.015 2.179.03 2.932-.385a1.88 1.88 0 0 0 .838-.998c.164-.438.224-.96.224-1.617V5c0-.658-.06-1.179-.225-1.617a1.88 1.88 0 0 0-.837-.998c-.753-.416-1.674-.37-2.932-.385H11v1h1c1.259.015 2.09.06 2.455.262.183.1.287.212.385.472.097.26.16.674.16 1.266v6c0 .592-.063 1.006-.16 1.266-.098.26-.202.371-.385.472-.366.202-1.196.247-2.455.262H4c-1.259-.015-2.087-.06-2.453-.262-.184-.1-.29-.212-.387-.472C1.063 12.006 1 11.592 1 11V5c0-.592.063-1.006.16-1.266.098-.26.203-.371.387-.472C1.913 3.06 2.74 3.015 4 3h1.002v2c.76-.348 1.534-.736 2.322-1.166.781-.43 1.533-.876 2.258-1.334-.725-.45-1.477-.89-2.258-1.32A43.074 43.074 0 0 0 5 0z" fill="gray" font-family="sans-serif" font-weight="400" opacity=".5" overflow="visible" style="font-feature-settings:normal;font-variant-alternates:normal;font-variant-caps:normal;font-variant-ligatures:normal;font-variant-numeric:normal;font-variant-position:normal;isolation:auto;mix-blend-mode:normal;shape-padding:0;text-decoration-color:#000;text-decoration-line:none;text-decoration-style:solid;text-indent:0;text-orientation:mixed;text-transform:none" white-space="normal"/>
</svg>
