<svg height="16" width="16.003" xmlns="http://www.w3.org/2000/svg">
    <path d="M8.003 2a12.1 12.1 0 00-7.4 2.518l-.266.205.205.263 7.457 9.672 1.004-1.3V11h1.014c.01-.86.388-1.638.976-2.19a6.003 6 0 00-6.164.098l-3.054-3.96C3.658 3.67 5.822 3 8.003 3s4.344.672 6.227 1.951l-2.65 3.434A2.898 2.898 0 0113.003 8c.043 0 .084.012.127.014l2.537-3.287-.264-.205A12.105 12.105 0 008.003 2zm5 7c-1.108 0-2 .91-2 2.031V12h-1v4h6v-4h-1v-.969c0-1.12-.892-2.031-2-2.031zm0 1c.554 0 1 .442 1 1v1h-2v-1c0-.558.446-1 1-1z" fill="gray" font-family="sans-serif" font-weight="400" overflow="visible" style="line-height:normal;font-variant-ligatures:none;font-variant-position:normal;font-variant-caps:normal;font-variant-numeric:normal;font-variant-alternates:normal;font-feature-settings:normal;text-indent:0;text-align:start;text-decoration-line:none;text-decoration-style:solid;text-decoration-color:#000;text-transform:none;shape-padding:0;isolation:auto;mix-blend-mode:normal;marker:none" color="#000"/>
</svg>
