<svg height="16" width="16.001" xmlns="http://www.w3.org/2000/svg">
    <g color="#000" fill="gray">
        <path d="M6.426 1c-.45.005-.778-.012-1.047.137a.676.676 0 0 0-.3.357c-.06.157-.08.343-.08.578V3.93c0 .235.021.42.08.576a.677.677 0 0 0 .3.357c.269.148.597.132 1.047.137h2.146c.45-.005.778.012 1.047-.137.135-.074.24-.2.3-.357.058-.157.08-.341.08-.576V2.072c0-.235-.022-.421-.08-.578a.673.673 0 0 0-.3-.357C9.35.987 9.022 1.005 8.573 1zM6 2h3v2H6zM2 8.479V10h-.572c-.45.005-.778-.012-1.047.137a.676.676 0 0 0-.3.357c-.06.157-.08.343-.08.578v1.858c0 .235.021.42.08.576a.677.677 0 0 0 .3.357c.269.148.597.132 1.047.137h2.144c.45-.005.778.012 1.047-.137.135-.074.24-.2.3-.357.058-.157.08-.341.08-.576v-1.858c0-.235-.022-.421-.08-.578a.673.673 0 0 0-.3-.357c-.269-.15-.597-.132-1.046-.137H2zM11.426 10c-.45.005-.778-.012-1.047.137a.676.676 0 0 0-.3.357c-.06.157-.08.343-.08.578v1.858c0 .235.021.42.08.576a.677.677 0 0 0 .3.357c.269.148.597.132 1.047.137h2.144c.45-.005.779.012 1.047-.137.135-.074.24-.2.3-.357.058-.157.08-.341.08-.576v-1.858c0-.235-.022-.421-.08-.578a.673.673 0 0 0-.3-.357c-.268-.15-.597-.132-1.046-.137h-.57zM1 11h3v2H1zm10 0h3v2h-3z" font-family="sans-serif" font-weight="400" opacity=".5" overflow="visible" style="line-height:normal;font-variant-ligatures:normal;font-variant-position:normal;font-variant-caps:normal;font-variant-numeric:normal;font-variant-alternates:normal;font-feature-settings:normal;text-indent:0;text-align:start;text-decoration-line:none;text-decoration-style:solid;text-decoration-color:#000;text-transform:none;text-orientation:mixed;shape-padding:0;isolation:auto;mix-blend-mode:normal;marker:none" white-space="normal"/>
        <path d="M3.5 6c-.829 0-1.496.667-1.496 1.496v.016c0 .829.667 1.496 1.496 1.496h.016c.83 0 1.496-.667 1.496-1.496v-.016C5.012 6.667 4.345 6 3.516 6zm4 0c-.829 0-1.496.667-1.496 1.496v.016c0 .829.667 1.496 1.496 1.496h.016c.83 0 1.496-.667 1.496-1.496v-.016C9.012 6.667 8.345 6 7.516 6zm4 0c-.829 0-1.496.667-1.496 1.496v.016c0 .829.667 1.496 1.496 1.496h.016c.83 0 1.496-.667 1.496-1.496v-.016c0-.829-.667-1.496-1.496-1.496z" display="block" overflow="visible" style="isolation:auto;mix-blend-mode:normal;marker:none"/>
    </g>
</svg>
