<svg viewBox="0 0 16.003 16" xmlns="http://www.w3.org/2000/svg">
 <g transform="translate(-1013 247)">
  <path d="M1021.003-245a12.1 12.1 0 0 0-7.4 2.518l-.266.205.205.263 7.457 9.672 1.004-1.3V-236h1.014c.01-.86.388-1.638.976-2.19a6.003 6 0 0 0-6.164.098l-3.054-3.96c1.883-1.278 4.047-1.948 6.228-1.948s4.344.672 6.227 1.951l-2.65 3.434a2.898 2.898 0 0 1 1.423-.385c.043 0 .084.012.127.014l2.537-3.287-.264-.205a12.105 12.105 0 0 0-7.4-2.522zm5 7c-1.108 0-2 .91-2 2.031v.969h-1v4h6v-4h-1v-.969c0-1.12-.892-2.031-2-2.031zm0 1c.554 0 1 .442 1 1v1h-2v-1c0-.558.446-1 1-1z" fill="gray" font-family="sans-serif" font-weight="400" overflow="visible" style="font-feature-settings:normal;font-variant-alternates:normal;font-variant-caps:normal;font-variant-ligatures:none;font-variant-numeric:normal;font-variant-position:normal;isolation:auto;mix-blend-mode:normal;shape-padding:0;text-decoration-color:#000;text-decoration-line:none;text-decoration-style:solid;text-indent:0;text-transform:none" white-space="normal"/>
 </g>
</svg>
