<svg viewBox="0 0 15 13.036" xmlns="http://www.w3.org/2000/svg">
 <g fill="gray">
  <path d="M6.428 0c-.45.005-.778-.012-1.047.137a.676.676 0 0 0-.301.357c-.037.1-.055.218-.066.346l.07-.035.062-.032A6.885 6.885 0 0 1 6.511.252c.485-.124 1-.169 1.52-.186l.1-.029h.144c.315 0 .608.028.89.07.19.028.376.06.552.11-.032-.027-.06-.06-.096-.08C9.35-.013 9.023.005 8.574 0zm1.646 3.123c-.133 0-.267.01-.4.027-.4.054-.805.187-1.223.395l-.586.435c.167.014.347.018.563.02H7v2H3.5c-.667 0-1.138.408-1.322.777C1.993 7.147 2 7.5 2 7.5V9h-.572c-.45.005-.778-.012-1.047.137a.676.676 0 0 0-.301.357c-.059.157-.08.343-.08.578v1.858c0 .234.022.42.08.576a.677.677 0 0 0 .3.357c.27.148.598.132 1.048.137h2.144c.45-.005.778.012 1.047-.137.134-.074.24-.2.299-.357.059-.157.08-.342.08-.576v-1.858c0-.235-.021-.421-.08-.578a.673.673 0 0 0-.299-.357c-.269-.15-.597-.132-1.047-.137H3V7.5s.01-.145.072-.275C3.137 7.094 3.166 7 3.5 7h3.195c.012-.023.027-.045.039-.068v-.004c.055-.101.11-.201.172-.297.02-.032.043-.061.064-.092a4.74 4.74 0 0 1 .164-.233l.01-.008.019-.037.01-.011c.01-.01.012-.02.02-.03 0-.004.01-.007.01-.01l-.02.028.022-.024v-.008c.128-.163.271-.306.412-.453l.187-.207.014-.014c.01-.007.01-.013.016-.02l.037-.044a.8.8 0 0 1 .037-.04c.033-.032.06-.064.092-.097V4h.573c.151-.002.272-.006.398-.01a.607.607 0 0 0 .016-.139c0-.278-.059-.391-.187-.515 0-.005-.01-.01-.012-.014-.104-.103-.284-.2-.715-.2zm3.461 2.883c-.034.044-.064.091-.1.135a8.24 8.24 0 0 1-.797.836c-.01.007-.013.016-.022.023h.883c.333 0 .362.094.428.225a.78.78 0 0 1 .072.275V9h-.573c-.449.005-.778-.012-1.046.137a.676.676 0 0 0-.301.357c-.06.157-.08.343-.08.578v1.69c.012.085.025.171.025.256 0 .02 0 .041-.01.062.013.152.032.35.06.426a.676.676 0 0 0 .3.357c.27.148.598.132 1.047.137h2.145c.45-.005.778.012 1.047-.137.134-.074.24-.2.299-.357.059-.157.08-.341.08-.576v-1.858c0-.235-.021-.421-.08-.578a.673.673 0 0 0-.3-.357c-.268-.15-.597-.132-1.046-.137h-.572V7.5s.01-.353-.178-.723c-.181-.362-.64-.756-1.287-.771zM10.02 12.08v-.016c0 .054-.012.107-.018.16v.05c.01-.065.015-.13.02-.194zM1.002 10h3v2h-3zm10 0h3v2h-3z" font-family="sans-serif" font-weight="400" opacity=".5" overflow="visible" style="font-feature-settings:normal;font-variant-alternates:normal;font-variant-caps:normal;font-variant-ligatures:normal;font-variant-numeric:normal;font-variant-position:normal;isolation:auto;mix-blend-mode:normal;shape-padding:0;text-decoration-color:#000;text-decoration-line:none;text-decoration-style:solid;text-indent:0;text-orientation:mixed;text-transform:none" white-space="normal"/>
  <path d="M8.273 1.037c-.533 0-1.037.061-1.513.183a5.853 5.853 0 0 0-1.167.446l-.657.458.566.876.452-.336c.688-.35 1.394-.54 2.116-.54.607 0 1.089.16 1.42.491.328.316.494.737.494 1.236 0 .311-.073.603-.218.868a3.339 3.339 0 0 1-.507.736c-.205.227-.421.455-.648.682l-.001.001a6.385 6.385 0 0 0-.632.7l-.001.002a3.66 3.66 0 0 0-.492.786 2.378 2.378 0 0 0-.177.935c0 .208.024.403.056.594h1.087c0-.023-.01-.044-.01-.068V8.9c0-.387.077-.74.232-1.05.151-.314.337-.599.558-.855l.002-.002c.217-.264.458-.515.72-.755a7.23 7.23 0 0 0 .701-.734 4.27 4.27 0 0 0 .527-.807c.138-.288.208-.613.208-.982a3.06 3.06 0 0 0-.147-.914v-.002l-.001-.002a2.04 2.04 0 0 0-.481-.867c-.235-.255-.552-.466-.957-.63v-.002c-.386-.172-.895-.261-1.528-.261zM8.002 11c-.325 0-.562.1-.743.3a1.025 1.025 0 0 0-.274.718c0 .279.089.512.274.718.181.2.418.3.743.3s.562-.099.743-.3c.186-.206.275-.44.275-.718 0-.28-.09-.512-.275-.718-.181-.2-.418-.3-.743-.3z" font-family="Ubuntu" font-size="72.036" font-weight="500" letter-spacing="0" text-anchor="middle" word-spacing="0"/>
 </g>
</svg>
