<svg viewBox="0 0 16 16" xmlns="http://www.w3.org/2000/svg">
 <path d="M2.713 2C1.655 1.987.945 2.224.58 2.662.197 3.118 0 3.866 0 4.906v6.188c0 1.04.197 1.788.58 2.244.365.438 1.075.662 2.133.662h10.574c1.058 0 1.77-.224 2.135-.662.383-.456.578-1.204.578-2.244V4.906c0-1.04-.195-1.788-.578-2.244C15.057 2.224 14.345 2 13.287 2zm2.61 2.766h1.454V7.24h2.446V4.766h1.455v6.468H9.223V8.49H6.777v2.744H5.322z" fill="gray" font-family="Ubuntu" font-size="15" font-weight="400" letter-spacing="0" text-anchor="middle" word-spacing="0"/>
</svg>
