<svg version="1.1" viewBox="0 0 16 16" xmlns="http://www.w3.org/2000/svg">
 <path d="m7.5 0v2h1v-2h-1zm5.8027 1.9902-1.4141 1.4141 0.70703 0.70703 1.416-1.4141-0.70898-0.70703zm-12.303 0.0097656 3 3a5 5 0 0 0 4 8 5 5 0 0 0 3-1l2 2h2l-12-12h-2zm7 1a5 5 0 0 0-1.7012 0.29883l6.4023 6.4023a5 5 0 0 0-4.7012-6.7012zm-3.2988 2.7012 1.5859 1.5859a3.596 3.596 0 0 0 2.4219 2.4238h0.0019531l1.6152 1.6152a4.084 4.084 0 0 1-1.1875 0.53516 4.081 4.081 0 0 1-4.4375-6.1602zm-4.7012 1.7988v1h2v-1h-2zm14 0v1h2v-1h-2zm-10.596 4.3887-1.4141 1.4141 0.70703 0.70703 1.4141-1.4141-0.70703-0.70703zm4.0957 2.1094v2h1v-2h-1z" fill="#808080"/>
</svg>
