<svg height="16" width="16" xmlns="http://www.w3.org/2000/svg">
    <g color="#000" font-weight="400" font-family="sans-serif" fill="gray">
        <path d="M3 7a1 1 0 00-1 1c0 .032.01.064.01.096.026 1.588.697 3.156 1.855 4.248C4.963 13.404 6.48 13.987 8 13.992v-.213a5.423 5.423 0 01-1.96-.345c-.196-.134-.475-.19-.686-.323-.962-.497-1.798-1.27-2.319-2.218 0-.064.061.02.053.044a5.577 5.577 0 002.961 2.424c.17-.012.34.125.514.14.468.127.953.189 1.437.19v-.158a5.222 5.222 0 01-1.876-.334c-.187-.129-.453-.182-.655-.31-.918-.476-1.72-1.214-2.217-2.121-.01-.064.056.015.051.043a5.36 5.36 0 002.827 2.316c.146-.032.298.112.449.12.462.128.942.193 1.422.194v-.156a4.97 4.97 0 01-1.795-.322c-.199-.126-.464-.19-.674-.32-.854-.455-1.6-1.15-2.063-2-.01-.063.06.016.05.04.6 1.019 1.581 1.832 2.695 2.208.142-.024.284.106.43.115.44.123.9.186 1.357.187v-.16a4.72 4.72 0 01-1.71-.304c-.187-.123-.442-.181-.642-.307-.813-.433-1.524-1.095-1.965-1.904-.01-.061.06.013.051.039a4.827 4.827 0 002.567 2.1c.136-.026.273.1.412.109.419.117.852.176 1.287.177v-.158a4.386 4.386 0 01-1.617-.293c-.22-.114-.479-.198-.7-.332-.739-.411-1.387-1.023-1.79-1.767 0-.056.068-.002.057.035a4.577 4.577 0 002.443 1.994c.14-.026.286.105.432.113.383.103.78.153 1.175.154v-.152a4.23 4.23 0 01-1.53-.277c-.193-.108-.43-.175-.626-.295-.718-.39-1.346-.979-1.734-1.697-.01-.057.066-.001.055.033a4.325 4.325 0 002.308 1.885c.123-.032.25.092.375.097.375.105.764.157 1.153.158v-.154a3.969 3.969 0 01-1.45-.264c-.179-.104-.403-.165-.587-.279-.677-.368-1.272-.923-1.637-1.601-.01-.055.065-.003.055.03.485.821 1.277 1.48 2.174 1.778.104-.037.213.08.32.082.365.106.745.158 1.125.16v-.191c-1.33-.002-2.646-.704-3.357-1.838A3.95 3.95 0 014.002 8a1 1 0 00-1-1zM8.049 2.004a5.815 5.815 0 00-1.824.266C4.79 2.702 3.557 3.71 2.807 5l.187.11c.336-.581.76-1.11 1.281-1.528.213-.103.402-.315.623-.432.912-.584 1.998-.923 3.08-.898.059.029-.046.044-.065.023-1.3.013-2.608.501-3.579 1.354-.074.153-.278.232-.378.375-.344.343-.64.731-.883 1.15l.136.078a5.12 5.12 0 011.233-1.459c.215-.116.413-.321.64-.443.861-.538 1.882-.85 2.897-.826.059.027-.04.04-.062.021a5.362 5.362 0 00-3.42 1.29c-.045.142-.247.203-.328.33-.344.336-.638.72-.879 1.134l.135.078c.307-.53.699-1.012 1.176-1.394.208-.109.398-.306.617-.422.82-.512 1.794-.811 2.761-.787.058.024-.043.044-.06.023a5.074 5.074 0 00-3.258 1.23c-.05.136-.236.194-.317.315-.327.32-.61.686-.84 1.082l.137.078a4.708 4.708 0 011.12-1.326c.199-.101.378-.294.587-.404.782-.488 1.712-.772 2.633-.748.057.023-.04.042-.06.021a4.828 4.828 0 00-3.1 1.174c-.047.13-.225.187-.301.303-.311.304-.58.651-.8 1.027l.14.08c.277-.478.63-.915 1.062-1.256.235-.156.466-.356.725-.492.706-.402 1.526-.638 2.337-.615.051.024-.03.06-.059.031a4.579 4.579 0 00-2.949 1.12c-.048.134-.232.194-.312.316-.282.28-.525.6-.725.943l.135.076a4.221 4.221 0 011.006-1.19c.19-.112.367-.282.568-.392.697-.426 1.52-.676 2.336-.652.053.023-.03.058-.055.031-1.011.01-2.037.389-2.787 1.055-.034.122-.204.17-.272.277a4.37 4.37 0 00-.714.92l.129.074c.249-.429.57-.818.959-1.123.18-.103.346-.267.537-.369.657-.401 1.435-.639 2.205-.615.052.022-.03.057-.055.031-.953.01-1.923.367-2.63.994-.074.178-.32.265-.421.438-.193.212-.36.447-.506.695l.164.096c.694-1.202 2.042-2.005 3.438-2a3.987 3.987 0 012.021.535v-.002a1 1 0 10.92-1.772 6.116 6.116 0 00-2.867-.76zM13.193 5.002l-.19.11c.337.581.584 1.213.685 1.875-.018.235.072.504.062.753.05 1.082-.2 2.193-.762 3.118-.056.032-.015-.062.012-.069.639-1.131.87-2.508.617-3.775-.096-.14-.062-.358-.135-.516a5.605 5.605 0 00-.554-1.344l-.14.08a5.12 5.12 0 01.65 1.8c-.01.244.071.52.063.777.036 1.014-.204 2.055-.732 2.922-.051.04-.016-.058.012-.067a5.36 5.36 0 00.594-3.605c-.101-.11-.052-.316-.121-.45a5.365 5.365 0 00-.543-1.332l-.14.08c.307.532.53 1.112.622 1.717-.01.235.068.497.061.744.033.968-.197 1.962-.701 2.788-.05.04-.017-.06.01-.065.581-1.03.795-2.285.564-3.437-.092-.111-.05-.3-.115-.43a5.121 5.121 0 00-.518-1.271l-.136.08a4.71 4.71 0 01.59 1.634c-.012.224.064.474.055.71.032.92-.185 1.868-.666 2.654-.048.039-.018-.055.01-.06.553-.981.754-2.178.533-3.274-.09-.105-.047-.288-.11-.412a4.855 4.855 0 00-.49-1.207l-.139.08c.277.48.478 1.003.557 1.549.021.298.077.618.062.927-.013.796-.22 1.603-.637 2.28-.049.028-.035-.057 0-.067a4.577 4.577 0 00.504-3.113c-.092-.11-.052-.3-.117-.43a4.606 4.606 0 00-.455-1.097l-.135.078c.263.455.455.953.528 1.47.036.362.083.744.049 1.116-.05.67-.24 1.347-.594 1.918-.044.037-.036-.057 0-.065.497-.88.682-1.958.48-2.941-.089-.09-.047-.262-.105-.373a4.387 4.387 0 00-.438-1.079l-.129.075c.247.43.421.902.49 1.39 0 .208.06.434.054.65.019.77-.165 1.563-.57 2.217-.044.037-.036-.052 0-.062.468-.83.643-1.848.453-2.773-.117-.154-.066-.413-.166-.586a4.07 4.07 0 00-.352-.784l-.164.096c.703 1.219.716 2.813-.014 4.025a3.995 3.995 0 01-1.445 1.434 1 1 0 001 1.732v-.002c.01-.004.013-.008.019-.011l.04-.026c0-.003.01-.007.015-.01 1.4-.838 2.44-2.259 2.783-3.859.33-1.447.074-3.004-.66-4.287z" style="line-height:normal;font-variant-ligatures:normal;font-variant-position:normal;font-variant-caps:normal;font-variant-numeric:normal;font-variant-alternates:normal;font-feature-settings:normal;text-indent:0;text-align:start;text-decoration-line:none;text-decoration-style:solid;text-decoration-color:#000;text-transform:none;text-orientation:mixed;white-space:normal;shape-padding:0;isolation:auto;mix-blend-mode:normal;solid-color:#000;solid-opacity:1" overflow="visible"/>
    </g>
</svg>
