<svg height="16" width="16" xmlns="http://www.w3.org/2000/svg">
    <path d="M8 .262S6.364 3 2 3c0 9.31 6 12.594 6 12.594S14 12.31 14 3C9.636 3 8 .262 8 .262zm0 1.386c.272.312.257.42.781.795.912.654 2.362 1.19 4.153 1.391-.174 3.943-1.439 6.642-2.73 8.352-.982 1.298-1.74 1.878-2.204 2.193-.463-.315-1.222-.895-2.203-2.193-1.292-1.71-2.557-4.409-2.73-8.352 1.79-.2 3.24-.737 4.152-1.39.524-.377.51-.483.781-.796zm0 1.409c-.092.08-.073.108-.2.199-.888.637-2.15 1.066-3.581 1.346.305 3.23 1.302 5.558 2.377 6.98.656.868 1.015 1.097 1.404 1.408.39-.31.75-.54 1.406-1.408 1.075-1.422 2.072-3.749 2.377-6.978-1.432-.28-2.695-.71-3.584-1.348-.126-.09-.107-.12-.199-.2z" style="marker:none" color="#000" overflow="visible" fill="gray"/>
</svg>
