<svg viewBox="0 0 16 16" xmlns="http://www.w3.org/2000/svg">
 <path class="warning" d="M8 0L5.69 1.65l-2.833.221-.709 2.75-2.027 1.99 1.225 2.563L1.072 12l2.586 1.176 1.606 2.342L8 14.758l2.736.76 1.606-2.342L14.928 12l-.274-2.826L15.88 6.61l-2.027-1.99-.71-2.75-2.831-.22zM7 4h2v3l-.5 2h-1L7 7zm1 6a1 1 0 1 1 0 2 1 1 0 0 1 0-2z" fill="#fdc92b" font-family="sans-serif" font-weight="400" overflow="visible" style="font-feature-settings:normal;font-variant-alternates:normal;font-variant-caps:normal;font-variant-ligatures:normal;font-variant-numeric:normal;font-variant-position:normal;isolation:auto;mix-blend-mode:normal;shape-padding:0;text-decoration-color:#000;text-decoration-line:none;text-decoration-style:solid;text-indent:0;text-orientation:mixed;text-transform:none" white-space="normal"/>
</svg>
