<svg viewBox="0 0 16 16" xmlns="http://www.w3.org/2000/svg">
 <g transform="translate(-1093 327)" fill="gray">
  <circle cx="1096.5" cy="-318.5" r="1.5"/>
  <circle cx="1100.5" cy="-318.5" r="1.5"/>
  <circle cx="1104.5" cy="-318.5" r="1.5"/>
  <path d="M1102-326.008c-1.013 0-2.008.838-2.008 2.008v3h1v-3c0-.555.6-1.008 1.008-1.008.403 0 1.008.468 1.008 1.008v3h1v-3c0-1.164-.99-2.008-2.008-2.008zm5.504 1.927s-.357-.015-.73.168c-.374.183-.782.658-.782 1.332V-321h1v-1.581c0-.347.094-.372.221-.434s.27-.066.27-.066zm-11.512 1.642V-321h1v-1.44zm0 6.439v2.46c0 1.506 1.273 2.55 2.52 2.5a2.68 2.68 0 0 0 1.666-.681c.474-.424.814-1.06.814-1.819V-316h-1v2.46c0 .47-.189.814-.48 1.075-.291.26-.694.412-1.04.425-.636.026-1.48-.574-1.48-1.5V-316zm7.016 0v2c0 .636.266 1.169.654 1.504.388.335.873.488 1.338.488.986 0 1.992-.801 1.992-1.992v-2h-1v2c0 .604-.57.992-.992.992a1.08 1.08 0 0 1-.683-.244c-.183-.158-.309-.371-.309-.748v-2zM1095-327v2h-1v1c0 1.108.892 2 2 2h1c1.108 0 2-.892 2-2v-1h-1v-2h-1v2h-1v-2z" font-family="sans-serif" font-weight="400" opacity=".5" overflow="visible" style="font-feature-settings:normal;font-variant-alternates:normal;font-variant-caps:normal;font-variant-ligatures:normal;font-variant-numeric:normal;font-variant-position:normal;isolation:auto;mix-blend-mode:normal;shape-padding:0;text-decoration-color:#000;text-decoration-line:none;text-decoration-style:solid;text-indent:0;text-orientation:mixed;text-transform:none" white-space="normal"/>
 </g>
</svg>
