<svg version="1.1" viewBox="0 0 16 16" xmlns="http://www.w3.org/2000/svg" xmlns:osb="http://www.openswatchbook.org/uri/2009/osb">
 <g transform="translate(-1293 327)" label="status">
  <path d="m1295-326c-1.108 0-2 0.892-2 2v8c0 1.108 0.892 2 2 2h1.5215l2.4785 3 2-3h6c1.108 0 2-0.892 2-2v-8c0-1.108-0.892-2-2-2zm0 1h12c0.554 0 1 0.446 1 1v8c0 0.554-0.446 1-1 1h-6.4336l-1.5664 2.4004-1.9668-2.4004h-2.0332c-0.554 0-1-0.446-1-1v-8c0-0.554 0.446-1 1-1zm6 1c-2.2032 0-4 1.7968-4 4s1.7968 4 4 4 4-1.7968 4-4-1.7968-4-4-4zm-2.5 3h5c0.277 0 0.5 0.223 0.5 0.5v1c0 0.277-0.223 0.5-0.5 0.5h-5c-0.277 0-0.5-0.223-0.5-0.5v-1c0-0.277 0.223-0.5 0.5-0.5zm-4.1992 7c0.1519 0.0168 0.3208 0.0211 0.5234 0z" enable-background="new" fill="#808080"/>
 </g>
</svg>
