<?xml version="1.0" encoding="UTF-8" standalone="no"?>
<svg
   xmlns:dc="http://purl.org/dc/elements/1.1/"
   xmlns:cc="http://creativecommons.org/ns#"
   xmlns:rdf="http://www.w3.org/1999/02/22-rdf-syntax-ns#"
   xmlns:svg="http://www.w3.org/2000/svg"
   xmlns="http://www.w3.org/2000/svg"
   xmlns:sodipodi="http://sodipodi.sourceforge.net/DTD/sodipodi-0.dtd"
   xmlns:inkscape="http://www.inkscape.org/namespaces/inkscape"
   height="15"
   width="16"
   version="1.1"
   id="svg8"
   sodipodi:docname="video-single-display-symbolic.svg">
  <metadata
     id="metadata14">
    <rdf:RDF>
      <cc:Work
         rdf:about="">
        <dc:format>image/svg+xml</dc:format>
        <dc:type
           rdf:resource="http://purl.org/dc/dcmitype/StillImage" />
      </cc:Work>
    </rdf:RDF>
  </metadata>
  <defs
     id="defs12" />
  <sodipodi:namedview
     pagecolor="#ffffff"
     bordercolor="#666666"
     borderopacity="1"
     objecttolerance="10"
     gridtolerance="10"
     guidetolerance="10"
     inkscape:pageopacity="0"
     inkscape:pageshadow="2"
     inkscape:window-width="640"
     inkscape:window-height="480"
     id="namedview10" />
  <g
     color="#000"
     fill="gray"
     id="g6">
    <path
       d="M3.986 0C2.733.014 1.814-.03 1.063.385a1.88 1.88 0 00-.838.998C.06 1.822 0 2.343 0 3v6c0 .658.06 1.179.225 1.617.164.439.461.79.838.998.752.416 1.673.37 2.931.385h8.02c1.258-.014 2.179.03 2.932-.385a1.88 1.88 0 00.838-.998C15.939 10.18 16 9.657 16 9V3c0-.658-.06-1.178-.225-1.617a1.88 1.88 0 00-.837-.998c-.753-.416-1.674-.37-2.932-.385h-8.01zM4 1h8c1.259.015 2.09.06 2.455.262.184.1.288.212.385.472.093.26.156.674.156 1.266v6c0 .592-.063 1.006-.16 1.266-.098.26-.201.371-.384.472-.366.202-1.197.247-2.456.262H3.992c-1.258-.015-2.087-.06-2.453-.262-.183-.1-.289-.212-.387-.472C1.062 10.006 1 9.592 1 9V3c0-.592.063-1.006.16-1.266.098-.26.204-.371.387-.472C1.913 1.06 2.742 1.015 4 1zM3 3v6h10z"
       style="line-height:normal;font-variant-ligatures:normal;font-variant-position:normal;font-variant-caps:normal;font-variant-numeric:normal;font-variant-alternates:normal;font-feature-settings:normal;text-indent:0;text-align:start;text-decoration-line:none;text-decoration-style:solid;text-decoration-color:#000;text-transform:none;text-orientation:mixed;white-space:normal;shape-padding:0;isolation:auto;mix-blend-mode:normal;solid-color:#000;solid-opacity:1;marker:none"
       font-weight="400"
       font-family="sans-serif"
       overflow="visible"
       id="path2" />
    <path
       d="M6 11h4v1.5c0 1.5.5 1.5 1.5 1.5h.5v1H4v-1h.5c1 0 1.5 0 1.5-1.5z"
       style="marker:none"
       overflow="visible"
       id="path4" />
  </g>
</svg>
