<svg version="1.1" viewBox="0 0 16 16" xmlns="http://www.w3.org/2000/svg" xmlns:osb="http://www.openswatchbook.org/uri/2009/osb">
 <g transform="translate(-1273 -29)" fill="#808080" shape-rendering="auto" label="status">
  <path d="m1276 29c-0.6576 0-1.1785 0.0599-1.6172 0.22461-0.4386 0.16467-0.7904 0.46152-0.998 0.83789-0.4153 0.75275-0.3702 1.6734-0.3848 2.9316v4e-3 8.0039 4e-3c0.014 1.2582-0.031 2.1789 0.3848 2.9316 0.2076 0.37637 0.5594 0.67322 0.998 0.83789 0.4387 0.16449 0.9596 0.22443 1.6172 0.22443h0.1719l0.1347-0.10547 4.6934-3.6562v-8.4824l-4.8281-3.7559zm-0.1465 1.0195 4.1465 3.2246v7.5059l-4.1465 3.2305c-0.4874-0.0125-0.8893-0.0544-1.1191-0.14063-0.2599-0.0976-0.3715-0.20135-0.4727-0.38476-0.2019-0.36596-0.247-1.1966-0.2617-2.4551v-6e-3 -7.9883-0.00572c0.015-1.2585 0.06-2.0891 0.2617-2.4551 0.1012-0.18341 0.2128-0.2872 0.4727-0.38476 0.2298-0.0863 0.6318-0.1281 1.1191-0.14063z" color="#000000" color-rendering="auto" dominant-baseline="auto" image-rendering="auto" solid-color="#000000" style="font-feature-settings:normal;font-variant-alternates:normal;font-variant-caps:normal;font-variant-ligatures:normal;font-variant-numeric:normal;font-variant-position:normal;isolation:auto;mix-blend-mode:normal;shape-padding:0;text-decoration-color:#000000;text-decoration-line:none;text-decoration-style:solid;text-indent:0;text-orientation:mixed;text-transform:none;white-space:normal"/>
  <path d="m1285.8 29-4.8281 3.7559v8.4824l4.8281 3.7617h0.1719c0.6576 0 1.1785-0.0599 1.6172-0.22461 0.4387-0.16467 0.7904-0.46152 0.998-0.83789 0.4154-0.75275 0.3703-1.6734 0.3848-2.9316v-4e-3 -8.0039-4e-3c-0.015-1.2582 0.031-2.1789-0.3848-2.9316-0.2076-0.37637-0.5593-0.67322-0.998-0.83789-0.4387-0.16449-0.9596-0.22443-1.6172-0.22443zm0.3184 1.0195c0.4873 0.0125 0.8893 0.0544 1.1191 0.14063 0.2599 0.0976 0.3715 0.20135 0.4727 0.38476 0.2024 0.36682 0.2471 1.1974 0.2617 2.4609v7.9941c-0.015 1.2585-0.06 2.0891-0.2617 2.4551-0.1012 0.18341-0.2128 0.2872-0.4727 0.38476-0.2298 0.0863-0.6317 0.1281-1.1191 0.14063l-4.1465-3.2305v-7.5059z" color="#000000" color-rendering="auto" dominant-baseline="auto" image-rendering="auto" opacity=".6" solid-color="#000000" style="font-feature-settings:normal;font-variant-alternates:normal;font-variant-caps:normal;font-variant-ligatures:normal;font-variant-numeric:normal;font-variant-position:normal;isolation:auto;mix-blend-mode:normal;shape-padding:0;text-decoration-color:#000000;text-decoration-line:none;text-decoration-style:solid;text-indent:0;text-orientation:mixed;text-transform:none;white-space:normal"/>
 </g>
</svg>
