<svg height="16" width="16" xmlns="http://www.w3.org/2000/svg">
    <path d="M8 3c-1.565 0-3.03.209-4.396.623-1.356.423-2.557.99-3.604 1.678v5.344c.489.425 1.05.775 1.682 1.037.637.256 1.32.384 2.05.384.73 0 1.413-.128 2.045-.384a6.062 6.062 0 0 0 1.69-1.037.81.81 0 0 1 .533-.193c.104 0 .2.017.291.052a.877.877 0 0 1 .242.14c.489.426 1.05.776 1.682 1.038.638.256 1.32.384 2.05.384.73 0 1.413-.128 2.046-.384A6.062 6.062 0 0 0 16 10.645V5.3c-1.047-.688-2.253-1.255-3.62-1.678C11.026 3.209 9.566 3 8 3zm-.002 1H8c1.475 0 2.833.196 4.084.578 1.112.345 2.046.827 2.916 1.35v4.174c-.33.243-.658.487-1.064.654h-.002a4.365 4.365 0 0 1-1.666.31 4.43 4.43 0 0 1-1.674-.312 5.088 5.088 0 0 1-1.405-.863l-.008-.008-.01-.008a1.89 1.89 0 0 0-.515-.303h-.002a1.83 1.83 0 0 0-1.305-.002l-.006.002-.004.002a1.89 1.89 0 0 0-.512.3l-.011.009-.008.008a5.05 5.05 0 0 1-1.409.865h-.002a4.364 4.364 0 0 1-1.666.31 4.43 4.43 0 0 1-1.673-.312c-.402-.167-.732-.409-1.06-.652V5.928c.866-.522 1.795-1.004 2.894-1.348C5.158 4.196 6.522 4 7.998 4zm-3.73 2.517c-.522 0-1.012.088-1.467.264-.452.18-.852.416-1.201.707.349.291.749.526 1.2.705.456.176.946.264 1.468.264.521 0 1.007-.088 1.459-.264.455-.18.858-.414 1.207-.705a4.358 4.358 0 0 0-1.207-.707 3.989 3.989 0 0 0-1.46-.264zm7.464 0c-.521 0-1.009.088-1.464.264-.452.18-.853.416-1.202.707.35.291.75.526 1.202.705.455.176.943.264 1.464.264.522 0 1.01-.088 1.461-.264.456-.18.858-.414 1.207-.705a4.358 4.358 0 0 0-1.207-.707 4 4 0 0 0-1.46-.264z" style="line-height:125%;-inkscape-font-specification:Ubuntu;text-align:center" font-weight="400" font-size="14.463" font-family="Ubuntu" letter-spacing="0" word-spacing="0" text-anchor="middle" fill="gray"/>
</svg>
