<?xml version="1.0" encoding="UTF-8" standalone="no"?>
<svg
   xmlns:dc="http://purl.org/dc/elements/1.1/"
   xmlns:cc="http://creativecommons.org/ns#"
   xmlns:rdf="http://www.w3.org/1999/02/22-rdf-syntax-ns#"
   xmlns:svg="http://www.w3.org/2000/svg"
   xmlns="http://www.w3.org/2000/svg"
   xmlns:sodipodi="http://sodipodi.sourceforge.net/DTD/sodipodi-0.dtd"
   xmlns:inkscape="http://www.inkscape.org/namespaces/inkscape"
   height="16"
   width="16"
   version="1.1"
   id="svg8"
   sodipodi:docname="view-mirror-symbolic.svg">
  <metadata
     id="metadata14">
    <rdf:RDF>
      <cc:Work
         rdf:about="">
        <dc:format>image/svg+xml</dc:format>
        <dc:type
           rdf:resource="http://purl.org/dc/dcmitype/StillImage" />
      </cc:Work>
    </rdf:RDF>
  </metadata>
  <defs
     id="defs12" />
  <sodipodi:namedview
     pagecolor="#ffffff"
     bordercolor="#666666"
     borderopacity="1"
     objecttolerance="10"
     gridtolerance="10"
     guidetolerance="10"
     inkscape:pageopacity="0"
     inkscape:pageshadow="2"
     inkscape:window-width="640"
     inkscape:window-height="480"
     id="namedview10" />
  <g
     color="#000"
     font-weight="400"
     font-family="sans-serif"
     fill="gray"
     id="g6">
    <path
       d="M3 0c-.658 0-1.179.06-1.617.225a1.88 1.88 0 00-.998.838C-.03 1.815.015 2.736 0 3.994V12.006c.014 1.258-.031 2.179.385 2.932.207.376.56.673.998.838.439.164.96.224 1.617.224h.172l.135-.105L8 12.238V3.756L3.172 0zm-.146 1.02L7 4.244v7.506l-4.146 3.23c-.488-.012-.89-.054-1.12-.14-.26-.098-.371-.202-.472-.385C1.06 14.09 1.015 13.26 1 12V4c.015-1.259.06-2.09.262-2.455.1-.183.213-.287.472-.385.23-.086.632-.128 1.12-.14z"
       style="line-height:normal;font-variant-ligatures:normal;font-variant-position:normal;font-variant-caps:normal;font-variant-numeric:normal;font-variant-alternates:normal;font-feature-settings:normal;text-indent:0;text-align:start;text-decoration-line:none;text-decoration-style:solid;text-decoration-color:#000;text-transform:none;text-orientation:mixed;white-space:normal;shape-padding:0;isolation:auto;mix-blend-mode:normal;solid-color:#000;solid-opacity:1;marker:none"
       overflow="visible"
       id="path2" />
    <path
       d="M12.828 0L8 3.756v8.482L12.828 16H13c.658 0 1.178-.06 1.617-.225.439-.164.79-.461.998-.837.416-.753.37-1.674.385-2.932V3.994c-.015-1.258.031-2.179-.385-2.932a1.879 1.879 0 00-.998-.838C14.178.06 13.657 0 13 0zm.318 1.02c.488.012.89.054 1.12.14.26.098.371.202.472.385.203.367.247 1.197.262 2.46V12c-.015 1.259-.06 2.09-.262 2.455-.1.183-.213.287-.472.385-.23.086-.632.128-1.12.14L9 11.75V4.244z"
       style="line-height:normal;font-variant-ligatures:normal;font-variant-position:normal;font-variant-caps:normal;font-variant-numeric:normal;font-variant-alternates:normal;font-feature-settings:normal;text-indent:0;text-align:start;text-decoration-line:none;text-decoration-style:solid;text-decoration-color:#000;text-transform:none;text-orientation:mixed;white-space:normal;shape-padding:0;isolation:auto;mix-blend-mode:normal;solid-color:#000;solid-opacity:1;marker:none"
       overflow="visible"
       opacity=".6"
       id="path4" />
  </g>
</svg>
