<?xml version="1.0" encoding="UTF-8" standalone="no"?>
<svg
   xmlns:dc="http://purl.org/dc/elements/1.1/"
   xmlns:cc="http://creativecommons.org/ns#"
   xmlns:rdf="http://www.w3.org/1999/02/22-rdf-syntax-ns#"
   xmlns:svg="http://www.w3.org/2000/svg"
   xmlns="http://www.w3.org/2000/svg"
   xmlns:sodipodi="http://sodipodi.sourceforge.net/DTD/sodipodi-0.dtd"
   xmlns:inkscape="http://www.inkscape.org/namespaces/inkscape"
   height="16"
   width="16"
   version="1.1"
   id="svg8"
   sodipodi:docname="weather-overcast-symbolic.svg">
  <metadata
     id="metadata14">
    <rdf:RDF>
      <cc:Work
         rdf:about="">
        <dc:format>image/svg+xml</dc:format>
        <dc:type
           rdf:resource="http://purl.org/dc/dcmitype/StillImage" />
      </cc:Work>
    </rdf:RDF>
  </metadata>
  <defs
     id="defs12" />
  <sodipodi:namedview
     pagecolor="#ffffff"
     bordercolor="#666666"
     borderopacity="1"
     objecttolerance="10"
     gridtolerance="10"
     guidetolerance="10"
     inkscape:pageopacity="0"
     inkscape:pageshadow="2"
     inkscape:window-width="640"
     inkscape:window-height="480"
     id="namedview10" />
  <g
     fill="gray"
     id="g6">
    <path
       d="M9.399 6.918c-1.349.002-2.494.832-3.041 2.02l-.04.08-.085.008C4.986 9.116 4 10.194 4 11.506 4 12.876 5.072 14 6.4 14h5.8c.995 0 1.8-.843 1.8-1.867a1.85 1.85 0 00-1.13-1.71l-.086-.036-.01-.092C12.69 8.425 11.223 6.92 9.4 6.918zm0 1c1.272.002 2.316 1.05 2.378 2.422v.031l.076.705.627.268c.305.13.52.413.52.789 0 .5-.37.867-.799.867H6.398C5.638 13 5 12.355 5 11.506c0-.81.591-1.432 1.303-1.485l.672-.046.289-.616v-.004c.399-.866 1.193-1.435 2.13-1.437z"
       style="line-height:normal;-inkscape-font-specification:sans-serif;text-indent:0;text-align:start;text-decoration-line:none;text-transform:none;marker:none"
       color="#000"
       font-weight="400"
       font-family="sans-serif"
       overflow="visible"
       id="path2" />
    <path
       d="M9.5 1a3.5 3.5 0 00-3.166 2.018 3.5 3.5 0 00-3.803 3.04A2 2 0 003.001 10h.269a3.5 3.25 0 01.71-1h-.982c-.564 0-1-.436-1-1a.99.99 0 01.766-.97l.67-.163.088-.683a2.488 2.488 0 012.71-2.172l.706.072.3-.643A2.496 2.496 0 019.498 2a2.485 2.485 0 012.498 2.498V4.5a2.3 2.3 0 01-.033.379l-.16.969.965.18A1.489 1.489 0 0113.997 7.5c0 .84-.66 1.5-1.5 1.5h-.498v1h.5a2.5 2.5 0 00.453-4.957c.03-.18.045-.361.047-.543a3.5 3.5 0 00-3.5-3.5z"
       id="path4" />
  </g>
</svg>
