<?xml version="1.0" encoding="UTF-8" standalone="no"?>
<svg
   xmlns:dc="http://purl.org/dc/elements/1.1/"
   xmlns:cc="http://creativecommons.org/ns#"
   xmlns:rdf="http://www.w3.org/1999/02/22-rdf-syntax-ns#"
   xmlns:svg="http://www.w3.org/2000/svg"
   xmlns="http://www.w3.org/2000/svg"
   xmlns:sodipodi="http://sodipodi.sourceforge.net/DTD/sodipodi-0.dtd"
   xmlns:inkscape="http://www.inkscape.org/namespaces/inkscape"
   height="16"
   width="16"
   version="1.1"
   id="svg4"
   sodipodi:docname="weather-clear-symbolic.svg">
  <metadata
     id="metadata10">
    <rdf:RDF>
      <cc:Work
         rdf:about="">
        <dc:format>image/svg+xml</dc:format>
        <dc:type
           rdf:resource="http://purl.org/dc/dcmitype/StillImage" />
      </cc:Work>
    </rdf:RDF>
  </metadata>
  <defs
     id="defs8" />
  <sodipodi:namedview
     pagecolor="#ffffff"
     bordercolor="#666666"
     borderopacity="1"
     objecttolerance="10"
     gridtolerance="10"
     guidetolerance="10"
     inkscape:pageopacity="0"
     inkscape:pageshadow="2"
     inkscape:window-width="640"
     inkscape:window-height="480"
     id="namedview6" />
  <path
     d="M7.5 0v2h1V0zM4.434.822l-.868.5 1.002 1.733.866-.5zm7.132 0l-1 1.733.868.5 1-1.733zM8 3a5 5 0 100 10A5 5 0 008 3zm-6.678.566l-.5.868 1.733 1 .5-.868zm13.356 0l-1.733 1 .5.868 1.733-1zM8 4a4 4 0 014 4 4 4 0 01-4 4 4 4 0 01-4-4 4 4 0 014-4zM0 7.5v1h2v-1zm14 0v1h2v-1zM2.555 10.566l-1.733 1 .5.868 1.733-1.002zm10.89 0l-.5.868 1.733 1 .5-.868zm-8.879 2.38l-1 1.732.868.5 1-1.733zm6.868 0l-.868.5 1 1.732.868-.5zM7.5 14v2h1v-2z"
     fill="gray"
     id="path2" />
</svg>
