<?xml version="1.0" encoding="UTF-8" standalone="no"?>
<svg
   xmlns:dc="http://purl.org/dc/elements/1.1/"
   xmlns:cc="http://creativecommons.org/ns#"
   xmlns:rdf="http://www.w3.org/1999/02/22-rdf-syntax-ns#"
   xmlns:svg="http://www.w3.org/2000/svg"
   xmlns="http://www.w3.org/2000/svg"
   xmlns:sodipodi="http://sodipodi.sourceforge.net/DTD/sodipodi-0.dtd"
   xmlns:inkscape="http://www.inkscape.org/namespaces/inkscape"
   height="16"
   width="16.001"
   version="1.1"
   id="svg6"
   sodipodi:docname="weather-severe-alert-symbolic.svg">
  <metadata
     id="metadata12">
    <rdf:RDF>
      <cc:Work
         rdf:about="">
        <dc:format>image/svg+xml</dc:format>
        <dc:type
           rdf:resource="http://purl.org/dc/dcmitype/StillImage" />
      </cc:Work>
    </rdf:RDF>
  </metadata>
  <defs
     id="defs10" />
  <sodipodi:namedview
     pagecolor="#ffffff"
     bordercolor="#666666"
     borderopacity="1"
     objecttolerance="10"
     gridtolerance="10"
     guidetolerance="10"
     inkscape:pageopacity="0"
     inkscape:pageshadow="2"
     inkscape:window-width="640"
     inkscape:window-height="480"
     id="namedview8" />
  <path
     color="#000"
     d="M8.64.668C6.482.67 4.648 1.999 3.772 3.9l-.061.13-.139.01C1.578 4.184 0 5.91 0 8.008 0 10.201 1.716 12 3.838 12H6v-1H3.838C2.281 11 1 9.679 1 8.008c0-1.597 1.184-2.866 2.644-2.973l.723-.05.31-.663v-.004c.729-1.58 2.213-2.649 3.961-2.65 2.368.002 4.292 1.952 4.405 4.447v.01l.05.776.704.296a1.944 1.944 0 011.195 1.815c.01 1.114-.846 1.988-1.871 1.988H9.998v1h3.123c1.591 0 2.877-1.35 2.877-2.988a2.958 2.958 0 00-1.805-2.735l-.136-.058-.01-.149C13.911 3.077 11.56.67 8.642.668z"
     fill="gray"
     font-family="sans-serif"
     font-weight="400"
     overflow="visible"
     style="line-height:normal;-inkscape-font-specification:sans-serif;text-indent:0;text-align:start;text-decoration-line:none;text-transform:none;marker:none"
     id="path2" />
  <path
     class="error"
     color="#000"
     d="M7.291 6v2.662c0 .793.03 1.517.086 2.168.057.642.128 1.284.213 1.926h.82c.085-.642.157-1.284.213-1.926.057-.651.086-1.375.086-2.168V6zm.71 8.102c-.294 0-.524.094-.694.283a.965.965 0 00-.256.666c0 .255.086.477.256.666.17.189.4.283.693.283.293 0 .524-.094.694-.283a.965.965 0 00.255-.666.965.965 0 00-.255-.666c-.17-.19-.401-.283-.694-.283z"
     fill="#da1636"
     font-family="sans-serif"
     font-weight="400"
     overflow="visible"
     style="line-height:normal;font-variant-ligatures:none;font-variant-position:normal;font-variant-caps:normal;font-variant-numeric:normal;font-variant-alternates:normal;font-feature-settings:normal;text-indent:0;text-align:start;text-decoration-line:none;text-decoration-style:solid;text-decoration-color:#000;text-transform:none;shape-padding:0;isolation:auto;mix-blend-mode:normal;marker:none"
     id="path4" />
</svg>
