<?xml version="1.0" encoding="UTF-8"?>
<!-- Created with Inkscape (http://www.inkscape.org/) -->
<svg id="svg2" width="22" height="22" version="1.0" xmlns="http://www.w3.org/2000/svg" xmlns:xlink="http://www.w3.org/1999/xlink">
 <defs id="defs4">
  <linearGradient id="linearGradient2423" x1="86.133" x2="84.639" y1="105.1" y2="20.895" gradientTransform="matrix(.15623 0 0 .15623 2.0012 2.1574)" gradientUnits="userSpaceOnUse">
   <stop id="stop5130" style="stop-color:#eee" offset="0"/>
   <stop id="stop5132" style="stop-color:#a2a2a2" offset="1"/>
  </linearGradient>
  <linearGradient id="linearGradient2421" x1="40" x2="40" y1="1" y2="23" gradientTransform="translate(-24.5)" gradientUnits="userSpaceOnUse">
   <stop id="stop3399" style="stop-color:#aaa" offset="0"/>
   <stop id="stop3401" style="stop-color:#8c8c8c" offset="1"/>
  </linearGradient>
  <linearGradient id="linearGradient2419" x1="34" x2="34" y1="1" y2="23.007" gradientTransform="translate(-24.5)" gradientUnits="userSpaceOnUse">
   <stop id="stop3311" style="stop-color:#f6f6f6" offset="0"/>
   <stop id="stop3313" style="stop-color:#d2d2d2" offset="1"/>
  </linearGradient>
 </defs>
 <g id="layer1">
  <g id="g2414" transform="translate(-1,-1)">
   <path id="rect2426" d="m10.188 1.5c-0.38837 0-0.6875 0.29913-0.6875 0.6875v1.6875c-0.51167 0.15722-1.0032 0.37877-1.4688 0.625l-1.1875-1.1875c-0.27462-0.27462-0.72538-0.27462-1 0l-2.5312 2.5312c-0.27462 0.27462-0.27462 0.72538 0 1l1.1875 1.1875c-0.24623 0.46557-0.46778 0.95708-0.625 1.4688h-1.6875c-0.38837 0-0.6875 0.29913-0.6875 0.6875v3.625c0 0.38837 0.29913 0.6875 0.6875 0.6875h1.6875c0.15722 0.51167 0.37877 1.0032 0.625 1.4688l-1.1875 1.1875c-0.27462 0.27462-0.27462 0.72538 0 1l2.5312 2.5312c0.27462 0.27462 0.72538 0.27462 1 0l1.1875-1.1875c0.46557 0.24623 0.95708 0.46778 1.4688 0.625v1.6875c0 0.38837 0.29914 0.6875 0.6875 0.6875h3.625c0.38837 0 0.6875-0.29913 0.6875-0.6875v-1.6875c0.51167-0.15722 1.0032-0.37877 1.4688-0.625l1.1875 1.1875c0.27462 0.27462 0.72538 0.27462 1 0l2.5312-2.5312c0.27462-0.27462 0.27462-0.72538 0-1l-1.1875-1.1875c0.24623-0.46556 0.46778-0.95708 0.625-1.4688h1.6875c0.38837 0 0.6875-0.29913 0.6875-0.6875v-3.625c0-0.38837-0.29913-0.6875-0.6875-0.6875h-1.6875c-0.15722-0.51167-0.37877-1.0032-0.625-1.4688l1.1875-1.1875c0.27462-0.27462 0.27462-0.72538 0-1l-2.5312-2.5312c-0.27462-0.27462-0.72538-0.27462-1 0l-1.1875 1.1875c-0.46556-0.24623-0.95708-0.46778-1.4688-0.625v-1.6875c0-0.38837-0.29913-0.6875-0.6875-0.6875h-3.625zm1.8125 7.5c1.656 0 3 1.344 3 3s-1.344 3-3 3-3-1.344-3-3 1.344-3 3-3z" style="display:block;fill:url(#linearGradient2419);stroke-linejoin:round;stroke:url(#linearGradient2421)"/>
   <path id="path3315" d="m12 6c-3.3085-2e-7 -6 2.6915-6 6 0 3.3085 2.6915 6 6 6 3.3085-1e-6 6-2.6915 6-6 0-3.3085-2.6915-6-6-6zm0 2.7692c1.7834 0 3.2308 1.4474 3.2308 3.2308s-1.4474 3.2308-3.2308 3.2308-3.2308-1.4474-3.2308-3.2308 1.4474-3.2308 3.2308-3.2308z" style="opacity:.05"/>
   <path id="path28" d="m12 5.5c-3.5841 0-6.5 2.9159-6.5 6.5 0 3.5841 2.9159 6.5 6.5 6.5 3.5841 0 6.5-2.9159 6.5-6.5 0-3.5841-2.9159-6.5-6.5-6.5z" style="fill:none;stroke:url(#linearGradient2423)"/>
  </g>
 </g>
</svg>
