<?xml version="1.0" encoding="UTF-8"?>
<!-- Created with Inkscape (http://www.inkscape.org/) -->
<svg id="svg3734" width="22" height="22" version="1.1" xmlns="http://www.w3.org/2000/svg" xmlns:cc="http://creativecommons.org/ns#" xmlns:dc="http://purl.org/dc/elements/1.1/" xmlns:rdf="http://www.w3.org/1999/02/22-rdf-syntax-ns#" xmlns:xlink="http://www.w3.org/1999/xlink">
 <metadata id="metadata29">
  <rdf:RDF>
   <cc:Work rdf:about="">
    <dc:format>image/svg+xml</dc:format>
    <dc:type rdf:resource="http://purl.org/dc/dcmitype/StillImage"/>
    <dc:title/>
   </cc:Work>
  </rdf:RDF>
 </metadata>
 <defs id="defs3736">
  <linearGradient id="linearGradient4456">
   <stop id="stop4458" style="stop-color:#f6daae" offset="0"/>
   <stop id="stop4460" style="stop-color:#f0c178;stop-opacity:0" offset="1"/>
  </linearGradient>
  <linearGradient id="linearGradient3390-178-986-453-4-5">
   <stop id="stop3624-8-6" style="stop-color:#bb2b12" offset="0"/>
   <stop id="stop3626-1-1" style="stop-color:#cd7233" offset="1"/>
  </linearGradient>
  <linearGradient id="linearGradient3732" x1="-55.189" x2="-31.523" y1="191.52" y2="182.48" gradientTransform="matrix(.92957 0 0 .99594 51.302 -181.74)" gradientUnits="userSpaceOnUse" xlink:href="#linearGradient3390-178-986-453-4-5"/>
  <linearGradient id="linearGradient7012-661-145-733-759-865-745-661-970-94-1-0">
   <stop id="stop3618-1-9" style="stop-color:#f0c178" offset="0"/>
   <stop id="stop3270-5-6" style="stop-color:#e18941" offset=".5"/>
   <stop id="stop3620-9-3" style="stop-color:#ec4f18" offset="1"/>
  </linearGradient>
  <linearGradient id="linearGradient4322" x1="-31.523" x2="-55.189" y1="182.48" y2="191.52" gradientTransform="matrix(.92957 0 0 .99594 51.302 -181.74)" gradientUnits="userSpaceOnUse" xlink:href="#linearGradient7012-661-145-733-759-865-745-661-970-94-1-0"/>
  <linearGradient id="linearGradient4462" x1="22" x2="0" y1="-8.8818e-16" y2="9" gradientUnits="userSpaceOnUse" xlink:href="#linearGradient4456"/>
  <linearGradient id="linearGradient3026" x1="26.679" x2="0" y1="-.60377" y2="9" gradientUnits="userSpaceOnUse" xlink:href="#linearGradient4456"/>
  <linearGradient id="linearGradient3794" x1="-41.103" x2="-36.029" y1="175.43" y2="181.89" gradientTransform="matrix(.92957 0 0 .99594 51.302 -181.74)" gradientUnits="userSpaceOnUse">
   <stop id="stop3788" style="stop-color:#f0c178;stop-opacity:0" offset="0"/>
   <stop id="stop3796" style="stop-color:#e8a55c" offset="1"/>
  </linearGradient>
  <linearGradient id="linearGradient3804" x1="-41.062" x2="-37.206" y1="175.68" y2="180.66" gradientTransform="matrix(.92957 0 0 .99594 51.302 -181.74)" gradientUnits="userSpaceOnUse">
   <stop id="stop3800" style="stop-color:#bb2b12;stop-opacity:0" offset="0"/>
   <stop id="stop3802" style="stop-color:#cd7233" offset="1"/>
  </linearGradient>
 </defs>
 <g id="layer1" transform="matrix(0,-1,1,0,7,21)">
  <path id="path3014" d="m15-4c5 3 2 7-0.3125 8" style="enable-background:new;fill:none;stroke-linecap:round;stroke-linejoin:round;stroke-width:6;stroke:url(#linearGradient3804)"/>
  <path id="path3765" d="m14.688 4c-2.3125 0.99999-5.9375 0.99997-8.1875 0.99994" style="enable-background:new;fill:none;stroke-linecap:round;stroke-linejoin:round;stroke-width:6;stroke:url(#linearGradient3732)"/>
  <path id="path3016" d="m14.453-4.3208c5.5472 2.5283 3.0472 6.8208 0.98467 7.9457" style="enable-background:new;fill:none;stroke-linecap:round;stroke-linejoin:round;stroke-width:4;stroke:url(#linearGradient3794)"/>
  <path id="path3169-2-3" d="m7.65-0.525-5.15 5.5249 5.15 5.5251" style="enable-background:new;fill:none;stroke-linecap:round;stroke-linejoin:round;stroke-width:5;stroke:url(#linearGradient3732)"/>
  <path id="path4277" d="m7.7501-0.62517-5.2501 5.6251 5.2502 5.6251" style="enable-background:new;fill:none;stroke-linecap:round;stroke-linejoin:round;stroke-width:3;stroke:url(#linearGradient4322)"/>
  <path id="path4279" d="m15.438 3.625c-2.0625 1.125-5.6875 1.375-8.9375 1.3749" style="enable-background:new;fill:none;stroke-linecap:round;stroke-linejoin:round;stroke-width:4;stroke:url(#linearGradient4322)"/>
  <path id="path4454" d="m14.302-2.6509c2.2283 0.66191 4.6585 5.9671-5.8019 6.1509-1.4998 0.026362-3 0-2-1.5l1.6438-1.2312c1.5-2-0.5-2.5-1.5-1.5l-4.6438 4.7312c-0.5 0.5-0.52756 1.3333 0 2l4.7812 5.1438c1 1 3.059-0.06138 1.5-1.5l-1.7812-1.6438c-1.0393-0.95908 0.46838-0.41107 1.5-1.5 12.849-0.028302 11.959-7.6515 10.585-9.1434" style="enable-background:new;fill:none;opacity:.4;stroke-linecap:round;stroke-linejoin:round;stroke:url(#linearGradient3026)"/>
  <path id="path4464" d="m6.5 2 1.85-1.5062c1.5-2-0.5-2.5-1.5-1.5l-4.85 5.0062m0 2 4.7125 5.2812c1 1 2.9702 0.02922 1.5-1.5l-1.7125-1.7812" style="enable-background:new;fill:none;opacity:.4;stroke-linecap:round;stroke-linejoin:round;stroke:url(#linearGradient4462)"/>
  <path id="path4466" d="m8.7264-0.093372-2.4201 2.4603" style="enable-background:new;fill:none;opacity:.51;stroke-linecap:round;stroke-linejoin:round;stroke:#f6daae"/>
 </g>
</svg>
