<?xml version="1.0" encoding="UTF-8"?>
<!-- Created with Inkscape (http://www.inkscape.org/) -->
<svg id="svg2" width="22" height="22" version="1.0" xmlns="http://www.w3.org/2000/svg" xmlns:xlink="http://www.w3.org/1999/xlink">
 <defs id="defs4">
  <linearGradient id="linearGradient2412" x1="18.379" x2="18.379" y1="44.98" y2="3.0816" gradientTransform="matrix(.51604 0 0 .51604 -1.3849 -1.385)" gradientUnits="userSpaceOnUse">
   <stop id="stop2788" style="stop-color:#1f4b6a" offset="0"/>
   <stop id="stop2790" style="stop-color:#4083c2" offset="1"/>
  </linearGradient>
  <radialGradient id="radialGradient2410" cx="23.896" cy="3.99" r="20.397" gradientTransform="matrix(0 1.2316 -1.6257 0 17.487 -29.721)" gradientUnits="userSpaceOnUse">
   <stop id="stop2778" style="stop-color:#8badea" offset="0"/>
   <stop id="stop2780" style="stop-color:#6396cd" offset=".26238"/>
   <stop id="stop2782" style="stop-color:#3b7caf" offset=".66094"/>
   <stop id="stop2784" style="stop-color:#194c70" offset="1"/>
  </radialGradient>
  <linearGradient id="linearGradient2407" x1="63.397" x2="63.397" y1="-12.489" y2="5.4676" gradientTransform="matrix(1.0863 0 0 1.0862 -56.567 14.814)" gradientUnits="userSpaceOnUse">
   <stop id="stop4875" style="stop-color:#fff" offset="0"/>
   <stop id="stop4877" style="stop-color:#fff;stop-opacity:0" offset="1"/>
  </linearGradient>
 </defs>
 <g id="layer1">
  <path id="path2555" d="m11 0.50174c-5.7926 0-10.498 4.7057-10.498 10.498 0 5.7926 4.7057 10.498 10.498 10.498 5.7926 0 10.498-4.7057 10.498-10.498 0-5.7926-4.7057-10.498-10.498-10.498z" style="fill:url(#radialGradient2410);stroke-linecap:round;stroke-linejoin:round;stroke-width:1.0037;stroke:url(#linearGradient2412)"/>
  <path id="path2463" d="m20.5 11c0 5.2469-4.2536 9.5003-9.4999 9.5003-5.2468 0-9.5001-4.2535-9.5001-9.5003 0-5.2466 4.2534-9.4997 9.5001-9.4997 5.2463 0 9.4999 4.253 9.4999 9.4997z" style="fill:none;opacity:.4;stroke:url(#linearGradient2407)"/>
  <path id="path9053" d="m11.455 13.082c-0.03304-1.1794 0.23119-2.3243 1.3454-3.1353 1.1769-0.91718 2.3104-2.0647 2.1906-3.4174-0.026155-1.3045-1.5461-2.3268-3.1838-2.4737-1.8421-0.25519-4.071 0.37587-4.6883 1.8145-0.31307 0.69969-0.022751 1.955 1.0279 1.955 0.61453 0 0.89678-0.39697 0.94315-0.7601 0.035084-0.27476-0.077717-0.52011-0.14433-0.74706-0.075905-0.2586 0.24813-0.75978 0.60104-0.96399 0.2949-0.17064 0.60344-0.22785 0.64892-0.23878 1.0591-0.25452 2.1148 0.30768 2.5553 0.99196 0.44048 0.68427-0.044354 1.7222-0.74143 2.7315-0.69707 1.0093-1.4452 2.1557-1.4422 3.3734 0 0.46356-0.041303 0.62104-0.011956 0.80859 0.023448 0.14984 0.51961 0.13174 0.89958 0.061453zm-0.48333 1.5874c-1.0126-0.054973-1.7135 1.093-1.1052 1.8244 0.54328 0.80755 2.0665 0.6082 2.3276-0.30627 0.27143-0.71112-0.38177-1.53-1.2224-1.5181v1e-6z" style="opacity:.2"/>
  <path id="path3298" d="m11.455 14.082c-0.03304-1.1794 0.23119-2.3243 1.3454-3.1353 1.1769-0.91718 2.3104-2.0647 2.1906-3.4174-0.026155-1.3045-1.5461-2.3268-3.1838-2.4737-1.8421-0.25519-4.071 0.37587-4.6883 1.8145-0.31307 0.69969-0.022751 1.955 1.0279 1.955 0.61453 0 0.89678-0.39697 0.94315-0.7601 0.035084-0.27476-0.077717-0.52011-0.14433-0.74706-0.075905-0.2586 0.24813-0.75978 0.60104-0.96398 0.2949-0.17064 0.60344-0.22785 0.64892-0.23878 1.0591-0.25452 2.1148 0.30768 2.5553 0.99196 0.44048 0.68427-0.044354 1.7222-0.74143 2.7315-0.69707 1.0093-1.4452 2.1557-1.4422 3.3734 0 0.46356-0.041303 0.62104-0.011956 0.80859 0.023448 0.14984 0.51961 0.13174 0.89958 0.061453zm-0.48333 1.5874c-1.0126-0.054972-1.7135 1.093-1.1052 1.8244 0.54328 0.80755 2.0665 0.6082 2.3276-0.30627 0.27143-0.71112-0.38177-1.53-1.2224-1.5181z" style="fill:#fff"/>
 </g>
</svg>
