<?xml version="1.0" encoding="UTF-8"?>
<!-- Created with Inkscape (http://www.inkscape.org/) -->
<svg id="svg2562" width="22" height="22" version="1.0" xmlns="http://www.w3.org/2000/svg" xmlns:xlink="http://www.w3.org/1999/xlink">
 <defs id="defs2564">
  <radialGradient id="radialGradient2724-226-535-494" cx="605.71" cy="486.65" r="117.14" gradientTransform="matrix(-.065534 0 0 .024706 -21.829 10.577)" gradientUnits="userSpaceOnUse">
   <stop id="stop4080" style="stop-color:#1e1e1e" offset="0"/>
   <stop id="stop4082" style="stop-color:#1e1e1e;stop-opacity:0" offset="1"/>
  </radialGradient>
  <radialGradient id="radialGradient2722-303-187-273" cx="605.71" cy="486.65" r="117.14" gradientTransform="matrix(.065534 0 0 .024706 -69.175 10.577)" gradientUnits="userSpaceOnUse">
   <stop id="stop4074" style="stop-color:#1e1e1e" offset="0"/>
   <stop id="stop4076" style="stop-color:#1e1e1e;stop-opacity:0" offset="1"/>
  </radialGradient>
  <linearGradient id="linearGradient2720-766-26-906" x1="302.86" x2="302.86" y1="366.65" y2="609.51" gradientTransform="matrix(.065534 0 0 .024706 -69.188 10.577)" gradientUnits="userSpaceOnUse">
   <stop id="stop4066" style="stop-color:#1e1e1e;stop-opacity:0" offset="0"/>
   <stop id="stop4068" style="stop-color:#1e1e1e" offset=".5"/>
   <stop id="stop4070" style="stop-color:#1e1e1e;stop-opacity:0" offset="1"/>
  </linearGradient>
  <linearGradient id="linearGradient2477" x1="28.103" x2="28.103" y1="45" y2="14.038" gradientTransform="matrix(.46667 0 0 .50064 .8 -3.7786)" gradientUnits="userSpaceOnUse">
   <stop id="stop4108" style="stop-color:#727272" offset="0"/>
   <stop id="stop4110" style="stop-color:#bebebe" offset="1"/>
  </linearGradient>
  <linearGradient id="linearGradient2475" x1="20.053" x2="19.875" y1="8.1634" y2="45.6" gradientTransform="matrix(.46667 0 0 .45455 .8 -1.7273)" gradientUnits="userSpaceOnUse">
   <stop id="stop4498" style="stop-color:#fff" offset="0"/>
   <stop id="stop4502" style="stop-color:#cfcfcf" offset=".87427"/>
   <stop id="stop4504" style="stop-color:#999" offset="1"/>
  </linearGradient>
  <linearGradient id="linearGradient2472" x1="25.577" x2="25.577" y1="15" y2="44.001" gradientTransform="matrix(.44186 0 0 .46429 1.3953 -2.6964)" gradientUnits="userSpaceOnUse">
   <stop id="stop4102" style="stop-color:#fff" offset="0"/>
   <stop id="stop4104" style="stop-color:#fff;stop-opacity:0" offset="1"/>
  </linearGradient>
  <linearGradient id="linearGradient2469" x1="23.929" x2="23.929" y1="30.773" y2="45.531" gradientTransform="matrix(.46574 0 0 .48509 .82234 -3.1022)" gradientUnits="userSpaceOnUse" xlink:href="#linearGradient3495-841-851-719"/>
  <linearGradient id="linearGradient3495-841-851-719">
   <stop id="stop4120" style="stop-color:#1e1e1e" offset="0"/>
   <stop id="stop4122" style="stop-color:#1e1e1e;stop-opacity:0" offset="1"/>
  </linearGradient>
  <linearGradient id="linearGradient2466" x1="23.904" x2="23.904" y1="35.75" y2="16.007" gradientTransform="matrix(.46574 0 0 .48509 .82234 -1.4684)" gradientUnits="userSpaceOnUse" xlink:href="#linearGradient3495-841-851-719"/>
  <linearGradient id="linearGradient2431" x1="20.494" x2="20.494" y1="7.044" y2="39.78" gradientTransform="matrix(.41388 0 0 .41629 5.7777 7.2224)" gradientUnits="userSpaceOnUse">
   <stop id="stop3402-8" style="stop-color:#fff" offset="0"/>
   <stop id="stop3404-5" style="stop-color:#fff;stop-opacity:0" offset="1"/>
  </linearGradient>
  <linearGradient id="linearGradient2877-9" x1="-86.129" x2="-93.088" y1="2.0691" y2="31.138" gradientTransform="matrix(.42104 -.10139 .1008 .4235 51.555 3.9106)" gradientUnits="userSpaceOnUse">
   <stop id="stop2266" style="stop-color:#d7e866" offset="0"/>
   <stop id="stop2268" style="stop-color:#8cab2a" offset="1"/>
  </linearGradient>
 </defs>
 <g id="layer1" transform="translate(-.99998 -3)">
  <g id="g3511" transform="matrix(.5004 0 0 .5 34.77 7.5821)" style="stroke-width:1.0304">
   <rect id="rect2512" x="-61.324" y="19.636" width="31.644" height="6" style="fill:url(#linearGradient2720-766-26-906);opacity:.40206"/>
   <path id="path2514" d="m-29.68 19.636v5.9997c3.3749 0.01129 8.1588-1.3442 8.1588-3.0002 0-1.656-3.7661-2.9994-8.1588-2.9994z" style="fill:url(#radialGradient2722-303-187-273);opacity:.40206"/>
   <path id="path2516" d="m-61.324 19.636v5.9997c-3.3749 0.01129-8.1588-1.3442-8.1588-3.0002 0-1.656 3.7661-2.9994 8.1588-2.9994z" style="fill:url(#radialGradient2724-226-535-494);opacity:.40206"/>
  </g>
  <rect id="rect2396" x="1.507" y="5.507" width="20.993" height="12.993" rx=".46667" ry=".45455" style="fill-rule:evenodd;fill:url(#linearGradient2475);stroke-linecap:square;stroke-linejoin:round;stroke:url(#linearGradient2477)"/>
  <rect id="rect3331" x="2.5" y="6.3592" width="19" height="11.141" rx=".036476" ry=".035005" style="fill:none;opacity:.4;stroke-linecap:square;stroke:url(#linearGradient2472)"/>
  <path id="path3341" d="m8.6224 13.013-6.5002 5.4556m13.348-5.6359 6.3414 5.6359" style="fill:none;opacity:.5;stroke:url(#linearGradient2469)"/>
  <path id="path3493" d="m1.8492 6.1459 10.151 9.1361 9.9371-9.1361" style="fill:none;opacity:.5;stroke:url(#linearGradient2466)"/>
  <path id="path1542" d="m19.762 9.5045c-0.23166-0.02365-0.46198 0.090483-0.58101 0.30958l-5.0714 9.3331-3.2606-2.6077c-0.29044-0.15963-0.65281-0.05694-0.81152 0.2352l-1.4622 1.8882c-0.1587 0.29213-0.05194 0.6565 0.2385 0.81613 2.07 1.6333 4.0311 3.5222 6.1724 5.0148 0.23638 0.03004 0.47828-0.08166 0.59979-0.30532l6.8395-12.587c0.1587-0.29213 0.05194-0.6565-0.2385-0.81613-0.78293-0.46628-1.6191-0.88237-2.4249-1.281z" style="fill:url(#linearGradient2877-9);stroke-linecap:round;stroke-linejoin:round;stroke-width:1.0028;stroke:#699536"/>
  <path id="path2429" d="m19.812 10.656-5.3125 9.8125c-0.0026 0.12246-0.14545 0.04156-0.21875 0.0625l-3.6562-2.9062c-0.32388 0.40246-0.60092 0.77792-0.96875 1.25 1.7299 1.4367 3.4472 2.8886 5.1875 4.3125 2.224-3.4521 4.4495-7.862 6.5625-11.719-0.5101-0.31007-1.0618-0.55411-1.5938-0.8125z" style="fill:none;opacity:.4;stroke-linecap:round;stroke-width:1.0028;stroke:url(#linearGradient2431)"/>
 </g>
</svg>
