<?xml version="1.0" encoding="UTF-8"?>
<!-- Created with Inkscape (http://www.inkscape.org/) -->
<svg id="svg3277" width="22" height="22" version="1.1" xmlns="http://www.w3.org/2000/svg" xmlns:cc="http://creativecommons.org/ns#" xmlns:dc="http://purl.org/dc/elements/1.1/" xmlns:rdf="http://www.w3.org/1999/02/22-rdf-syntax-ns#" xmlns:xlink="http://www.w3.org/1999/xlink">
 <metadata id="metadata46">
  <rdf:RDF>
   <cc:Work rdf:about="">
    <dc:format>image/svg+xml</dc:format>
    <dc:type rdf:resource="http://purl.org/dc/dcmitype/StillImage"/>
    <dc:title/>
   </cc:Work>
  </rdf:RDF>
 </metadata>
 <defs id="defs3279">
  <linearGradient id="linearGradient3251">
   <stop id="stop3253" style="stop-color:#917f6e" offset="0"/>
   <stop id="stop3255" style="stop-color:#cbbaa9" offset="1"/>
  </linearGradient>
  <linearGradient id="linearGradient4222">
   <stop id="stop4224" style="stop-color:#fff" offset="0"/>
   <stop id="stop4226" style="stop-color:#fff;stop-opacity:0" offset="1"/>
  </linearGradient>
  <linearGradient id="linearGradient2863" x1="17.592" x2="17.592" y1="7" y2="-.024518" gradientTransform="translate(-2 .0067384)" gradientUnits="userSpaceOnUse" xlink:href="#linearGradient3251"/>
  <linearGradient id="linearGradient2866" x1="40.007" x2="40.007" y1="12.911" y2="7.0925" gradientTransform="translate(-26 -2.9933)" gradientUnits="userSpaceOnUse" xlink:href="#linearGradient4222"/>
  <linearGradient id="linearGradient2869" x1="38.382" x2="38.382" y1="5.9062" y2="22.698" gradientTransform="translate(-26 -2.9933)" gradientUnits="userSpaceOnUse" xlink:href="#linearGradient4222"/>
  <linearGradient id="linearGradient2872" x1="39.906" x2="39.906" y1="6.123" y2="24.034" gradientTransform="translate(-26 -2.9933)" gradientUnits="userSpaceOnUse">
   <stop id="stop3245" style="stop-color:#fff4e9" offset="0"/>
   <stop id="stop3247" style="stop-color:#e7d6c5" offset="1"/>
  </linearGradient>
  <linearGradient id="linearGradient2874" x1="32.016" x2="32.016" y1="24.011" y2="5" gradientTransform="translate(-26 -2.9933)" gradientUnits="userSpaceOnUse" xlink:href="#linearGradient3251"/>
  <linearGradient id="linearGradient2879" x1="24.139" x2="24.139" y1="7.0479" y2="39.268" gradientTransform="matrix(.2818 0 0 .2801 10.179 10.022)" gradientUnits="userSpaceOnUse">
   <stop id="stop3945" style="stop-color:#fff" offset="0"/>
   <stop id="stop3947" style="stop-color:#fff;stop-opacity:0" offset="1"/>
  </linearGradient>
  <radialGradient id="radialGradient2881" cx="69.448" cy="51.695" r="31" gradientTransform="matrix(0 .35684 -.3882 0 35.349 -12.114)" gradientUnits="userSpaceOnUse">
   <stop id="stop3244-5" style="stop-color:#eef87e" offset="0"/>
   <stop id="stop3246-9" style="stop-color:#cde34f" offset=".26238"/>
   <stop id="stop3248-7" style="stop-color:#93b723" offset=".66094"/>
   <stop id="stop3250-8" style="stop-color:#5a7e0d" offset="1"/>
  </radialGradient>
  <linearGradient id="linearGradient2883" x1="72.422" x2="72.422" y1="124.76" y2="51.244" gradientTransform="matrix(.14823 0 0 .14944 3.4435 3.3567)" gradientUnits="userSpaceOnUse">
   <stop id="stop2492-3" style="stop-color:#365f0e" offset="0"/>
   <stop id="stop2494-8" style="stop-color:#84a718" offset="1"/>
  </linearGradient>
 </defs>
 <path id="path2463" d="m10 2.5067-9.5 9.8437 8.25 8.1562 9.75-9.5v-8.5h-8.5zm4 3c0.828 0 1.5 0.672 1.5 1.5s-0.672 1.5-1.5 1.5-1.5-0.672-1.5-1.5 0.672-1.5 1.5-1.5z" style="fill-rule:evenodd;fill:url(#linearGradient2872);stroke-width:1px;stroke:url(#linearGradient2874)"/>
 <path id="path3265" d="m10.375 3.413c-2.8646 2.9688-5.7292 5.9375-8.5937 8.9062 2.3229 2.2917 4.6458 4.5833 6.9688 6.875 2.9479-2.8646 5.8958-5.7292 8.8437-8.5938v-7.1875h-7.2188z" style="fill:none;opacity:.6;stroke-width:1px;stroke:url(#linearGradient2869)"/>
 <path id="path3294" d="m14 4.6005c1.5133-0.05335 2.7611 1.5538 2.3303 3.0068-0.31984 1.4258-2.0755 2.2475-3.3725 1.568-1.335-0.58969-1.8003-2.4671-0.88534-3.6072 0.44449-0.60149 1.1786-0.97336 1.9275-0.96757z" style="fill:none;opacity:.6;stroke-width:1px;stroke:url(#linearGradient2866)"/>
 <path id="path3298" d="m14.5 6.5067c1.109-0.58722 2.554-0.76712 3.9269-0.79774 0.61715-0.01376 1.2409 0.1119 1.8465-0.03214 0.77074-0.18333 1.296-0.74801 1.2191-1.2642-0.10314-0.69296-1.034-1.2045-1.9071-1.5706-0.77441-0.32472-1.3704-0.90335-1.6854-1.5146-0.15915-0.30883 0.11879-0.63311 0.56459-0.73266 0.405-0.090436 0.82918-0.12618 1.2413-0.034356 0.62724 0.13976 1.3677 0.31027 1.6595 0.75466" style="fill:none;stroke-width:1px;stroke:url(#linearGradient2863)"/>
 <path id="path2262" d="m14.482 14.507v-3h4v3h3v4h-3v3h-4v-3h-2.9895v-4h2.9895z" style="color:#000000;fill:url(#radialGradient2881);stroke-linecap:round;stroke-linejoin:round;stroke-width:.98543;stroke:url(#linearGradient2883)"/>
 <path id="path2272" d="m15.482 15.507v-3h2v3h3v2h-3v3h-2v-3h-3v-2h3z" style="fill:none;opacity:.4;stroke:url(#linearGradient2879)"/>
</svg>
