<?xml version="1.0" encoding="UTF-8"?>
<!-- Created with Inkscape (http://www.inkscape.org/) -->
<svg id="svg4375" width="22" height="22" version="1.0" xmlns="http://www.w3.org/2000/svg" xmlns:xlink="http://www.w3.org/1999/xlink">
 <defs id="defs4377">
  <linearGradient id="linearGradient5060">
   <stop id="stop5062" offset="0"/>
   <stop id="stop5064" style="stop-opacity:0" offset="1"/>
  </linearGradient>
  <linearGradient id="linearGradient4381" x1="24.104" x2="24.104" y1="15.169" y2="32.485" gradientTransform="matrix(.46913 0 0 .4663 5.7005 7.8085)" gradientUnits="userSpaceOnUse">
   <stop id="stop2266" style="stop-color:#d7e866" offset="0"/>
   <stop id="stop2268" style="stop-color:#8cab2a" offset="1"/>
  </linearGradient>
  <linearGradient id="linearGradient4378" x1="24.139" x2="24.139" y1="8.6973" y2="47.273" gradientTransform="matrix(.2818 0 0 .2801 10.197 12.015)" gradientUnits="userSpaceOnUse">
   <stop id="stop4224" style="stop-color:#fff" offset="0"/>
   <stop id="stop4226" style="stop-color:#fff;stop-opacity:0" offset="1"/>
  </linearGradient>
  <linearGradient id="linearGradient5515" x1="302.86" x2="302.86" y1="366.65" y2="609.51" gradientTransform="matrix(.031048 0 0 .013668 .77854 15.669)" gradientUnits="userSpaceOnUse">
   <stop id="stop5050" style="stop-opacity:0" offset="0"/>
   <stop id="stop5056" offset=".5"/>
   <stop id="stop5052" style="stop-opacity:0" offset="1"/>
  </linearGradient>
  <radialGradient id="radialGradient5517" cx="605.71" cy="486.65" r="117.14" gradientTransform="matrix(.031048 0 0 .013668 .78465 15.669)" gradientUnits="userSpaceOnUse" xlink:href="#linearGradient5060"/>
  <radialGradient id="radialGradient5519" cx="605.71" cy="486.65" r="117.14" gradientTransform="matrix(-.031048 0 0 .013668 23.215 15.669)" gradientUnits="userSpaceOnUse" xlink:href="#linearGradient5060"/>
  <linearGradient id="linearGradient5844" x1="24" x2="24" y1="13" y2="40" gradientTransform="matrix(.52632 0 0 .48148 -1.6316 2.7407)" gradientUnits="userSpaceOnUse">
   <stop id="stop6459" style="stop-color:#fff;stop-opacity:.94118" offset="0"/>
   <stop id="stop6461" style="stop-color:#fff;stop-opacity:.70588" offset="1"/>
  </linearGradient>
  <linearGradient id="linearGradient5847" x1="16.034" x2="16.075" y1="9.0735" y2="15.044" gradientTransform="matrix(.61291 0 0 .58621 -4.3226 -1.069)" gradientUnits="userSpaceOnUse">
   <stop id="stop3692" style="stop-color:#fff" offset="0"/>
   <stop id="stop3694" style="stop-color:#fff;stop-opacity:.46875" offset="1"/>
  </linearGradient>
  <linearGradient id="linearGradient5850" x1="21.866" x2="21.78" y1="8.5763" y2="39.924" gradientTransform="matrix(.63636 0 0 .62295 -4.9091 -2.1066)" gradientUnits="userSpaceOnUse">
   <stop id="stop2783" style="stop-color:#505050" offset="0"/>
   <stop id="stop6301" style="stop-color:#6e6e6e" offset=".13216"/>
   <stop id="stop2785" style="stop-color:#8c8c8c" offset="1"/>
  </linearGradient>
 </defs>
 <g id="layer1" transform="translate(0,-2)">
  <g id="g6652">
   <g id="g3217" transform="matrix(1.0562 0 0 1.205 -1.6749 -4.921)">
    <rect id="rect4173" x="4.5042" y="20.681" width="14.992" height="3.3194" style="fill:url(#linearGradient5515);opacity:.23613"/>
    <path id="path5058" d="m19.496 20.681v3.3192c1.5989 0.0062 3.8653-0.74366 3.8653-1.6598 0-0.91615-1.7842-1.6594-3.8653-1.6594z" style="fill:url(#radialGradient5517);opacity:.23613"/>
    <path id="path5018" d="m4.5042 20.681v3.3192c-1.5989 0.0062-3.8653-0.74366-3.8653-1.6598 0-0.91615 1.7842-1.6594 3.8653-1.6594z" style="fill:url(#radialGradient5519);opacity:.23613"/>
   </g>
   <rect id="rect1887" x=".49998" y="3.5" width="21" height="19" rx="1" ry="1" style="fill:url(#linearGradient5850);stroke-width:.99995;stroke:#565853"/>
   <rect id="rect2779" x="1.5" y="4.5" width="19" height="17" rx=".5" ry=".5" style="fill:none;opacity:.2;stroke-width:.99994;stroke:url(#linearGradient5847)"/>
   <rect id="rect6287" x="1" y="9" width="20" height="13" rx=".50017" ry=".5" style="fill:url(#linearGradient5844)"/>
   <path id="path6293" d="m20 6c2.38e-4 0.55221-0.44755 1-1 1-0.55246 0-1.0002-0.44779-1-1-2.41e-4 -0.55221 0.44754-1 1-1 0.55245 0 1.0002 0.44779 1 1z" style="fill:#ffc24c"/>
   <path id="path2262" d="m14.5 16.5v-3h4v3h3v4h-3v3h-4v-3h-2.9895v-4h2.9895z" style="fill-rule:evenodd;fill:url(#linearGradient4381);stroke-linejoin:round;stroke:#699536"/>
   <path id="path2272" d="m15.5 17.5v-3h2v3h3v2h-3v3h-2v-3h-3v-2h3z" style="fill:none;opacity:.4;stroke:url(#linearGradient4378)"/>
   <path id="path6622" d="m17 6c2.38e-4 0.55221-0.44755 1-1 1-0.55246 0-1.0002-0.44779-1-1-2.41e-4 -0.55221 0.44754-1 1-1 0.55245 0 1.0002 0.44779 1 1z" style="fill:#ffc24c"/>
   <path id="path6630" d="m14 6c2.38e-4 0.55221-0.44755 1-1 1-0.55246 0-1.0002-0.44779-1-1-2.41e-4 -0.55221 0.44754-1 1-1 0.55245 0 1.0002 0.44779 1 1z" style="fill:#ffc24c"/>
  </g>
 </g>
</svg>
