<?xml version="1.0" encoding="UTF-8" standalone="no"?>
<svg
   xmlns:dc="http://purl.org/dc/elements/1.1/"
   xmlns:cc="http://creativecommons.org/ns#"
   xmlns:rdf="http://www.w3.org/1999/02/22-rdf-syntax-ns#"
   xmlns:svg="http://www.w3.org/2000/svg"
   xmlns="http://www.w3.org/2000/svg"
   xmlns:sodipodi="http://sodipodi.sourceforge.net/DTD/sodipodi-0.dtd"
   xmlns:inkscape="http://www.inkscape.org/namespaces/inkscape"
   id="svg11300"
   width="16"
   height="16"
   version="1.0"
   sodipodi:docname="applications-development-symbolic.svg"
   inkscape:version="1.0.1 (3bc2e813f5, 2020-09-07)">
  <metadata
     id="metadata37">
    <rdf:RDF>
      <cc:Work
         rdf:about="">
        <dc:format>image/svg+xml</dc:format>
        <dc:type
           rdf:resource="http://purl.org/dc/dcmitype/StillImage" />
        <dc:title />
      </cc:Work>
    </rdf:RDF>
  </metadata>
  <sodipodi:namedview
     pagecolor="#ffffff"
     bordercolor="#666666"
     borderopacity="1"
     objecttolerance="10"
     gridtolerance="10"
     guidetolerance="10"
     inkscape:pageopacity="0"
     inkscape:pageshadow="2"
     inkscape:window-width="1920"
     inkscape:window-height="1016"
     id="namedview35"
     showgrid="true"
     inkscape:zoom="38.890873"
     inkscape:cx="-0.73562647"
     inkscape:cy="10.475719"
     inkscape:window-x="0"
     inkscape:window-y="27"
     inkscape:window-maximized="1"
     inkscape:current-layer="svg11300"
     inkscape:document-rotation="0">
    <inkscape:grid
       type="xygrid"
       id="grid852" />
    <inkscape:grid
       type="xygrid"
       id="grid854"
       dotted="true"
       spacingx="0.5"
       spacingy="0.5"
       empspacing="10" />
  </sodipodi:namedview>
  <defs
     id="defs3" />
  <path
     id="path5611"
     style="fill:#808080;fill-opacity:1"
     d="M 14.167969 0.50195312 C 13.845046 0.51245988 13.49095 0.60802613 13.1875 0.76757812 C 12.1336 1.4538181 9.8252969 3.7205219 9.5917969 4.3574219 C 9.5257382 4.4249635 9.5082079 4.6808862 9.5117188 4.9667969 C 9.0703988 5.3671516 9.2246094 6.1742988 9.2246094 6.9023438 C 9.2246094 7.2449537 8.4967281 7.4872175 8.2050781 7.5546875 C 7.3543981 7.5579875 4.9367906 7.6805231 4.1503906 8.7519531 C 3.4635313 9.6872941 0.72065171 14.165711 0.55078125 15.134766 C 0.45547741 15.352914 0.39257813 15.527775 0.39257812 15.619141 C 1.5409781 15.619141 9.8826469 11.666722 10.310547 11.294922 C 10.445112 11.177981 10.527675 11.028661 10.570312 10.863281 C 10.571317 10.862417 10.585045 10.854325 10.585938 10.853516 C 10.871718 10.593906 10.972973 10.165218 10.876953 9.6113281 C 10.818113 9.2710481 10.696238 8.92091 10.554688 8.625 C 10.547588 8.607035 10.539554 8.5869373 10.527344 8.5664062 C 10.476544 8.4649563 10.422721 8.3710794 10.369141 8.2871094 C 10.286401 8.1097594 10.228516 7.9023187 10.228516 7.6367188 C 10.228516 7.1096386 10.251564 6.7773857 10.289062 6.5292969 C 10.30156 6.5153334 10.309004 6.4931012 10.322266 6.4804688 C 10.357655 6.4467297 10.389273 6.4008771 10.421875 6.359375 C 10.832404 6.6289714 11.655472 6.446938 11.880859 6.25 C 12.751699 5.53965 14.951588 3.3423219 15.179688 2.9199219 C 15.544147 2.3873519 15.630235 1.4330469 15.265625 1.0605469 L 14.964844 0.75195312 C 14.782684 0.56580812 14.490891 0.49144638 14.167969 0.50195312 z " />
</svg>
