<?xml version="1.0" encoding="UTF-8" standalone="no"?>
<!-- Created with Inkscape (http://www.inkscape.org/) -->

<svg
   sodipodi:docname="characters-currency-symbolic.svg"
   height="16"
   id="svg5504"
   inkscape:version="1.1 (ce6663b3b7, 2021-05-25)"
   version="1.1"
   width="16"
   xmlns:inkscape="http://www.inkscape.org/namespaces/inkscape"
   xmlns:sodipodi="http://sodipodi.sourceforge.net/DTD/sodipodi-0.dtd"
   xmlns="http://www.w3.org/2000/svg"
   xmlns:svg="http://www.w3.org/2000/svg"
   xmlns:rdf="http://www.w3.org/1999/02/22-rdf-syntax-ns#"
   xmlns:cc="http://creativecommons.org/ns#"
   xmlns:dc="http://purl.org/dc/elements/1.1/">
  <defs
     id="defs5506" />
  <sodipodi:namedview
     inkscape:bbox-paths="true"
     bordercolor="#666666"
     borderopacity="1.0"
     inkscape:current-layer="layer1"
     inkscape:cx="14.441964"
     inkscape:cy="-2.6339286"
     inkscape:document-units="px"
     gridtolerance="10"
     id="base"
     pagecolor="#ffffff"
     inkscape:pageopacity="0"
     inkscape:pageshadow="2"
     showborder="true"
     showgrid="true"
     inkscape:showpageshadow="true"
     inkscape:snap-bbox="true"
     inkscape:snap-global="true"
     inkscape:window-height="1043"
     inkscape:window-maximized="1"
     inkscape:window-width="1920"
     inkscape:window-x="1920"
     inkscape:window-y="0"
     inkscape:zoom="22.4"
     inkscape:pagecheckerboard="0">
    <inkscape:grid
       empspacing="2"
       enabled="true"
       id="grid5512"
       originx="-11"
       originy="-1148"
       snapvisiblegridlinesonly="true"
       type="xygrid"
       visible="true"
       spacingx="1"
       spacingy="1" />
  </sodipodi:namedview>
  <metadata
     id="metadata5509">
    <rdf:RDF>
      <cc:Work
         rdf:about="">
        <dc:format>image/svg+xml</dc:format>
        <dc:type
           rdf:resource="http://purl.org/dc/dcmitype/StillImage" />
      </cc:Work>
    </rdf:RDF>
  </metadata>
  <g
     inkscape:groupmode="layer"
     id="layer1"
     inkscape:label="categories"
     transform="translate(-11,111.6378)">
    <g
       aria-label="$"
       id="text2292"
       style="font-size:15.8192px;line-height:1.25;letter-spacing:0px;word-spacing:0px;fill:#808080;stroke-width:0.999999">
      <path
         d="m 18.179659,-99.864923 q 1.218078,0 1.708473,-0.379657 0.490395,-0.39548 0.490395,-0.99661 0,-0.44294 -0.221468,-0.75932 -0.20565,-0.31639 -0.569491,-0.55368 -0.348023,-0.23728 -0.822599,-0.42711 -0.458757,-0.18984 -0.949152,-0.36385 -0.474576,-0.17401 -0.949152,-0.37966 -0.458757,-0.22147 -0.822598,-0.52203 -0.363842,-0.31638 -0.60113,-0.7435 -0.221469,-0.44294 -0.221469,-1.07571 0,-1.12316 0.664407,-1.83503 0.680225,-0.72768 1.961581,-0.91751 v -1.81921 h 1.312993 v 1.77175 q 0.696045,0.0316 1.297174,0.17401 0.60113,0.14238 0.949152,0.26893 l -0.300564,1.2339 q -0.379661,-0.14237 -0.949152,-0.28475 -0.569491,-0.15819 -1.423728,-0.15819 -0.949152,0 -1.471186,0.36384 -0.506214,0.36384 -0.506214,1.02825 0,0.36384 0.142373,0.61695 0.158192,0.25311 0.442937,0.45876 0.284746,0.18983 0.664407,0.34802 0.39548,0.15819 0.870056,0.3322 0.616948,0.23729 1.17062,0.4904 0.553672,0.2531 0.964971,0.61695 0.427119,0.34802 0.680226,0.83841 0.253107,0.4904 0.253107,1.18644 0,1.12317 -0.680225,1.819211 -0.680226,0.680225 -2.103954,0.854236 v 2.040677 h -1.312993 v -1.993219 q -1.107344,-0.03164 -1.803389,-0.237288 -0.696045,-0.221469 -1.044067,-0.411299 l 0.39548,-1.186438 q 0.474576,0.22147 1.138982,0.4113 0.664406,0.189827 1.645197,0.189827 z"
         style="font-family:Ubuntu;-inkscape-font-specification:Ubuntu"
         id="path844" />
    </g>
  </g>
</svg>
