<?xml version="1.0" encoding="UTF-8" standalone="no"?>
<svg
   height="16px"
   viewBox="0 0 16 16"
   width="16px"
   version="1.1"
   id="svg115"
   sodipodi:docname="multitasking-symbolic.svg"
   inkscape:version="1.1 (ce6663b3b7, 2021-05-25)"
   xmlns:inkscape="http://www.inkscape.org/namespaces/inkscape"
   xmlns:sodipodi="http://sodipodi.sourceforge.net/DTD/sodipodi-0.dtd"
   xmlns="http://www.w3.org/2000/svg"
   xmlns:svg="http://www.w3.org/2000/svg">
  <defs
     id="defs119" />
  <sodipodi:namedview
     id="namedview117"
     pagecolor="#ffffff"
     bordercolor="#666666"
     borderopacity="1.0"
     inkscape:pageshadow="2"
     inkscape:pageopacity="0.0"
     inkscape:pagecheckerboard="0"
     showgrid="true"
     inkscape:zoom="16"
     inkscape:cx="27.34375"
     inkscape:cy="7.875"
     inkscape:window-width="1920"
     inkscape:window-height="1043"
     inkscape:window-x="1920"
     inkscape:window-y="0"
     inkscape:window-maximized="1"
     inkscape:current-layer="svg115">
    <inkscape:grid
       type="xygrid"
       id="grid936" />
    <inkscape:grid
       type="xygrid"
       id="grid938"
       dotted="true"
       spacingx="0.5"
       spacingy="0.5"
       empspacing="10" />
  </sodipodi:namedview>
  <filter
     id="a"
     height="1"
     width="1"
     x="0"
     y="0">
    <feColorMatrix
       in="SourceGraphic"
       type="matrix"
       values="0 0 0 0 1 0 0 0 0 1 0 0 0 0 1 0 0 0 1 0"
       id="feColorMatrix2" />
  </filter>
  <mask
     id="b">
    <g
       filter="url(#a)"
       id="g7">
      <path
         d="m 0 0 h 16 v 16 h -16 z"
         fill-opacity="0.3"
         id="path5" />
    </g>
  </mask>
  <clipPath
     id="c">
    <path
       d="m 0 0 h 1024 v 800 h -1024 z"
       id="path10" />
  </clipPath>
  <mask
     id="d">
    <g
       filter="url(#a)"
       id="g15">
      <path
         d="m 0 0 h 16 v 16 h -16 z"
         fill-opacity="0.05"
         id="path13" />
    </g>
  </mask>
  <clipPath
     id="e">
    <path
       d="m 0 0 h 1024 v 800 h -1024 z"
       id="path18" />
  </clipPath>
  <mask
     id="f">
    <g
       filter="url(#a)"
       id="g23">
      <path
         d="m 0 0 h 16 v 16 h -16 z"
         fill-opacity="0.05"
         id="path21" />
    </g>
  </mask>
  <clipPath
     id="g">
    <path
       d="m 0 0 h 1024 v 800 h -1024 z"
       id="path26" />
  </clipPath>
  <mask
     id="h">
    <g
       filter="url(#a)"
       id="g31">
      <path
         d="m 0 0 h 16 v 16 h -16 z"
         fill-opacity="0.05"
         id="path29" />
    </g>
  </mask>
  <clipPath
     id="i">
    <path
       d="m 0 0 h 1024 v 800 h -1024 z"
       id="path34" />
  </clipPath>
  <mask
     id="j">
    <g
       filter="url(#a)"
       id="g39">
      <path
         d="m 0 0 h 16 v 16 h -16 z"
         fill-opacity="0.05"
         id="path37" />
    </g>
  </mask>
  <clipPath
     id="k">
    <path
       d="m 0 0 h 1024 v 800 h -1024 z"
       id="path42" />
  </clipPath>
  <mask
     id="l">
    <g
       filter="url(#a)"
       id="g47">
      <path
         d="m 0 0 h 16 v 16 h -16 z"
         fill-opacity="0.05"
         id="path45" />
    </g>
  </mask>
  <clipPath
     id="m">
    <path
       d="m 0 0 h 1024 v 800 h -1024 z"
       id="path50" />
  </clipPath>
  <mask
     id="n">
    <g
       filter="url(#a)"
       id="g55">
      <path
         d="m 0 0 h 16 v 16 h -16 z"
         fill-opacity="0.05"
         id="path53" />
    </g>
  </mask>
  <clipPath
     id="o">
    <path
       d="m 0 0 h 1024 v 800 h -1024 z"
       id="path58" />
  </clipPath>
  <mask
     id="p">
    <g
       filter="url(#a)"
       id="g63">
      <path
         d="m 0 0 h 16 v 16 h -16 z"
         fill-opacity="0.3"
         id="path61" />
    </g>
  </mask>
  <clipPath
     id="q">
    <path
       d="m 0 0 h 1024 v 800 h -1024 z"
       id="path66" />
  </clipPath>
  <mask
     id="r">
    <g
       filter="url(#a)"
       id="g71">
      <path
         d="m 0 0 h 16 v 16 h -16 z"
         fill-opacity="0.5"
         id="path69" />
    </g>
  </mask>
  <clipPath
     id="s">
    <path
       d="m 0 0 h 1024 v 800 h -1024 z"
       id="path74" />
  </clipPath>
  <g
     id="g30"
     transform="translate(-4.3339522e-5)">
    <g
       id="layer9"
       label="status"
       style="display:inline"
       transform="translate(-713.0002,67)" />
    <g
       id="layer2"
       style="display:inline"
       transform="translate(-472,-300)" />
    <g
       id="layer4"
       style="display:inline"
       transform="translate(-472,-300)" />
    <g
       id="g1812"
       style="display:inline"
       transform="translate(-472,-300)" />
    <g
       id="g6217"
       style="display:inline"
       transform="translate(-472,-300)" />
    <g
       id="layer3"
       style="display:inline"
       transform="translate(-472,-300)" />
    <g
       id="g1833"
       style="display:inline"
       transform="translate(-472,-300)">
      <path
         d="m 475.99418,310 c -1.25819,-0.0146 -2.17889,0.0306 -2.93164,-0.38477 -0.37637,-0.20765 -0.67322,-0.55938 -0.83789,-0.99804 -0.16467,-0.43866 -0.2246,-0.95958 -0.22461,-1.61719 l -4e-5,-3 c -10e-6,-0.65761 0.0599,-1.17853 0.22461,-1.61719 0.16467,-0.43866 0.46152,-0.79039 0.83789,-0.99804 0.75275,-0.41532 1.67345,-0.3702 2.93164,-0.38477 h 0.004 4.00392 0.004 c 1.25819,0.0146 2.17889,-0.0306 2.93164,0.38477 0.37637,0.20765 0.67322,0.55938 0.83789,0.99804 0.16449,0.43866 0.22442,0.95958 0.22443,1.61719 l 4e-5,3 c 10e-6,0.65761 -0.0599,1.17852 -0.22461,1.61719 -0.16466,0.43866 -0.46152,0.79038 -0.83789,0.99804 -0.75275,0.41534 -1.67344,0.37025 -2.93164,0.38477 h -0.004 -4.00392 z m 0.006,-1 h 0.006 3.99388 c 1.25852,-0.0147 2.08717,-0.0598 2.45312,-0.26172 0.18341,-0.1012 0.28916,-0.21274 0.38672,-0.47266 0.0976,-0.25991 0.16017,-0.67323 0.16016,-1.26562 l -4e-5,-3 c -1e-5,-0.59239 -0.0626,-1.00572 -0.16016,-1.26562 -0.0976,-0.25991 -0.20135,-0.37147 -0.38476,-0.47266 -0.36596,-0.20191 -1.19655,-0.24698 -2.45508,-0.26172 h -3.99416 -0.006 c -1.25853,0.0147 -2.08912,0.0598 -2.45508,0.26172 -0.18341,0.10119 -0.2872,0.21275 -0.38476,0.47266 -0.0976,0.2599 -0.16017,0.67323 -0.16016,1.26562 l 4e-5,3 c 10e-6,0.59239 0.0626,1.00572 0.16016,1.26562 0.0976,0.25991 0.20135,0.37147 0.38476,0.47266 0.36596,0.20191 1.19655,0.24698 2.45508,0.26172 z"
         id="path5876-5"
         style="color:#000000;font-style:normal;font-variant:normal;font-weight:normal;font-stretch:normal;font-size:medium;line-height:normal;font-family:sans-serif;font-variant-ligatures:normal;font-variant-position:normal;font-variant-caps:normal;font-variant-numeric:normal;font-variant-alternates:normal;font-feature-settings:normal;text-indent:0;text-align:start;text-decoration:none;text-decoration-line:none;text-decoration-style:solid;text-decoration-color:#000000;letter-spacing:normal;word-spacing:normal;text-transform:none;writing-mode:lr-tb;direction:ltr;text-orientation:mixed;dominant-baseline:auto;baseline-shift:baseline;text-anchor:start;white-space:normal;shape-padding:0;clip-rule:nonzero;display:inline;overflow:visible;visibility:visible;opacity:1;isolation:auto;mix-blend-mode:normal;color-interpolation:sRGB;color-interpolation-filters:linearRGB;solid-color:#000000;solid-opacity:1;vector-effect:none;fill:#808080;fill-opacity:1;fill-rule:nonzero;stroke:none;stroke-width:1;stroke-linecap:butt;stroke-linejoin:miter;stroke-miterlimit:4;stroke-dasharray:none;stroke-dashoffset:0;stroke-opacity:1;marker:none;color-rendering:auto;image-rendering:auto;shape-rendering:auto;text-rendering:auto;enable-background:accumulate" />
      <path
         d="m 485.00004,305 v 1 h 1 v 0.004 c 0.1128,0.006 0.31164,0.004 0.39844,0.0137 0.30584,0.0352 0.40756,0.0931 0.44336,0.1289 0.0358,0.0359 0.0928,0.13321 0.125,0.43555 0.0322,0.30234 0.0332,0.76633 0.0332,1.39453 v 3.01172 c 0,0.59475 -0.0626,1.0086 -0.16016,1.26953 -0.0976,0.26095 -0.20331,0.37301 -0.38672,0.47461 -0.36593,0.20276 -1.1946,0.24887 -2.45312,0.26367 h -1.5 -3.5 c -0.95833,0 -1.497,-0.14194 -1.72266,-0.29297 -0.22564,-0.15115 -0.27734,-0.29272 -0.27734,-0.71105 v -0.99219 h -1 v 1 c 0.002,0.58328 0.20062,1.18965 0.72266,1.53906 0.52434,0.35094 1.23567,0.46094 2.27734,0.46094 h 3.5 1.50195 0.004 c 1.2582,-0.0146 2.17889,0.0303 2.93164,-0.38672 0.37637,-0.20848 0.67323,-0.56155 0.83789,-1.00195 0.16462,-0.44041 0.22452,-0.96283 0.22452,-1.62305 v -3.01172 c 0,-0.62675 0.003,-1.10098 -0.0391,-1.5 -0.0425,-0.39899 -0.13816,-0.7668 -0.41211,-1.04101 -0.27396,-0.27421 -0.63779,-0.37002 -1.03711,-0.41602 -0.13567,-0.0156 -0.35509,-0.0125 -0.51168,-0.0195 z"
         id="path5887-5"
         style="color:#000000;font-style:normal;font-variant:normal;font-weight:normal;font-stretch:normal;font-size:medium;line-height:normal;font-family:sans-serif;font-variant-ligatures:normal;font-variant-position:normal;font-variant-caps:normal;font-variant-numeric:normal;font-variant-alternates:normal;font-feature-settings:normal;text-indent:0;text-align:start;text-decoration:none;text-decoration-line:none;text-decoration-style:solid;text-decoration-color:#000000;letter-spacing:normal;word-spacing:normal;text-transform:none;writing-mode:lr-tb;direction:ltr;text-orientation:mixed;dominant-baseline:auto;baseline-shift:baseline;text-anchor:start;white-space:normal;shape-padding:0;clip-rule:nonzero;display:inline;overflow:visible;visibility:visible;opacity:0.5;isolation:auto;mix-blend-mode:normal;color-interpolation:sRGB;color-interpolation-filters:linearRGB;solid-color:#000000;solid-opacity:1;vector-effect:none;fill:#808080;fill-opacity:1;fill-rule:nonzero;stroke:none;stroke-width:1;stroke-linecap:butt;stroke-linejoin:miter;stroke-miterlimit:4;stroke-dasharray:none;stroke-dashoffset:0;stroke-opacity:1;marker:none;color-rendering:auto;image-rendering:auto;shape-rendering:auto;text-rendering:auto;enable-background:accumulate" />
    </g>
    <g
       id="layer1"
       style="display:inline"
       transform="translate(-472,-300)" />
  </g>
</svg>
