<svg version="1.1" viewBox="0 0 16 16" xmlns="http://www.w3.org/2000/svg">
 <title>Gnome Symbolic Icon Theme</title>
 <g transform="translate(-401 -339)">
  <path d="m409 340a7 7 0 0 0-7 7 7 7 0 0 0 7 7 7 7 0 0 0 7-7 7 7 0 0 0-7-7zm0 1a6 6 0 0 1 6 6 6 6 0 0 1-6 6 6 6 0 0 1-6-6 6 6 0 0 1 6-6zm3.0703 3.0606-4.0996 4.0996-2.1152-2.1152-0.88281 0.88477 2.998 2.998 4.9824-4.9824-0.88282-0.88476z" fill="#808080" fill-rule="evenodd" stop-color="#000000" style="paint-order:stroke fill markers"/>
 </g>
</svg>
