<svg version="1.1" viewBox="0 0 16.025 16" xmlns="http://www.w3.org/2000/svg">
 <g transform="translate(-77.074 -179)">
  <path transform="translate(77.074 179)" d="m4 3c-1.2442 0.0146-2.1541-0.030604-2.8984 0.38477-0.37218 0.20765-0.66529 0.55939-0.82812 0.99805-0.16288 0.43866-0.22266 0.95958-0.22266 1.6172l-0.050781 7h1l0.011719-7h14l-0.011719 7h1l0.011719-7c0.0011-0.63799-0.06005-1.1785-0.22266-1.6172-0.16283-0.43865-0.47158-0.7904-0.84375-0.99805-0.74436-0.41532-1.6386-0.3702-2.8828-0.38477h-0.003906-1.9805-4.0781-1.9961-0.0039062zm5 1h1v1h-1v-1zm2 0h1v1h-1v-1zm2.0117 0h1v1h-1v-1z" color="#000000" color-rendering="auto" fill="#808080" image-rendering="auto" shape-rendering="auto" solid-color="#000000" style="isolation:auto;mix-blend-mode:normal;text-decoration-color:#000000;text-decoration-line:none;text-decoration-style:solid;text-indent:0;text-transform:none;white-space:normal"/>
 </g>
</svg>
