<svg version="1.1" viewBox="0 0 16 16" xmlns="http://www.w3.org/2000/svg">
 <g fill="gray">
  <g transform="translate(-71.997 -180)">
   <path transform="translate(71.997 180)" d="m3.9492 1c-1.2442 0.01457-2.1541-0.030554-2.8984 0.38477-0.37217 0.20765-0.66529 0.55939-0.82812 0.99805-0.16288 0.43866-0.22266 0.95958-0.22266 1.6172v4 5c-3.7007e-17 0.65761 0.059821 1.1785 0.22266 1.6172 0.16282 0.43866 0.45595 0.79039 0.82812 0.99805 0.74436 0.41537 1.6543 0.37027 2.8984 0.38477h0.0039062 1.9805 4.0781 0.48828v-1.0039c-0.17936-4.9e-5 -0.29942 0.003906-0.48828 0.003906h-4.0781c-1.9777 0-3.4458 0.015624-4.1797-0.22461-0.97252-0.44721-0.76562-1.7754-0.76562-2.7754 8.41e-4 -2.1232 0.03719-5.677 0.125-8h4.8203 4.0781 4.8203c0.071035 1.8792 0.1015 4.4188 0.11328 6.5h1v-2.5-4c0-0.63799-0.060049-1.1785-0.22266-1.6172-0.16283-0.43866-0.45595-0.7904-0.82812-0.99805-0.74436-0.41532-1.6543-0.3702-2.8984-0.38477h-0.003906-1.9805-4.0781-1.9805-0.0039062zm9.0547 10.002v2h-2v1h2v2h1v-2h2v-1h-2v-2h-1z" color="#000000" color-rendering="auto" fill="#808080" image-rendering="auto" shape-rendering="auto" solid-color="#000000" style="isolation:auto;mix-blend-mode:normal;text-decoration-color:#000000;text-decoration-line:none;text-decoration-style:solid;text-indent:0;text-transform:none;white-space:normal"/>
  </g>
 </g>
</svg>
