<svg xmlns="http://www.w3.org/2000/svg" width="16" height="16"><g style="display:inline"><path d="M515.805 487c-.537 0-.805 0-.805.625v.75c0 .625.268.625.805.625h.39c.537 0 .805 0 .805-.625v-.75c0-.603-.268-.625-.805-.625zm4 0c-.537 0-.805 0-.805.625v.75c0 .625.268.625.805.625h.39c.537 0 .805 0 .805-.625v-.75c0-.603-.268-.625-.805-.625zm4 0c-.537 0-.805 0-.805.625v.75c0 .625.268.625.805.625h.39c.537 0 .805 0 .805-.625v-.75c0-.603-.268-.625-.805-.625zm-8 4c-.537 0-.805 0-.805.625v.75c0 .625.268.625.805.625h.39c.537 0 .805 0 .805-.625v-.75c0-.603-.268-.625-.805-.625zm4 0c-.537 0-.805 0-.805.625v.75c0 .625.268.625.805.625h.39c.537 0 .805 0 .805-.625v-.75c0-.603-.268-.625-.805-.625zm4 0c-.537 0-.805 0-.805.625v.75c0 .625.268.625.805.625h.39c.537 0 .805 0 .805-.625v-.75c0-.603-.268-.625-.805-.625zm-8 4c-.537 0-.805 0-.805.625v.75c0 .625.268.625.805.625h.39c.537 0 .805 0 .805-.625v-.75c0-.603-.268-.625-.805-.625zm4 0c-.537 0-.805 0-.805.625v.75c0 .625.268.625.805.625h.39c.537 0 .805 0 .805-.625v-.75c0-.603-.268-.625-.805-.625zm4 0c-.537 0-.805 0-.805.625v.75c0 .625.268.625.805.625h.39c.537 0 .805 0 .805-.625v-.75c0-.603-.268-.625-.805-.625z" style="color:#000;display:inline;overflow:visible;visibility:visible;opacity:1;fill:gray;fill-opacity:1;fill-rule:nonzero;stroke:none;stroke-width:10;marker:none;enable-background:accumulate" transform="translate(-512 -484)"/></g></svg>