<svg version="1.0" viewBox="0 0 22 22" xmlns="http://www.w3.org/2000/svg" xmlns:xlink="http://www.w3.org/1999/xlink">
 <defs>
  <linearGradient id="c" x1="39" x2="30" y1="78.804" y2="84" gradientTransform="matrix(1.0417 0 0 1.0417 -22.782 -76.799)" gradientUnits="userSpaceOnUse" xlink:href="#a"/>
  <linearGradient id="a">
   <stop stop-color="#fff" offset="0"/>
   <stop stop-color="#c1ebfa" stop-opacity="0" offset="1"/>
  </linearGradient>
  <linearGradient id="b" x1="39" x2="39" y1="89.196" y2="78.804" gradientTransform="matrix(1.0417 0 0 1.0417 -22.782 -76.799)" gradientUnits="userSpaceOnUse" xlink:href="#a"/>
  <linearGradient id="d" x1="30" x2="39" y1="84" y2="89.196" gradientTransform="matrix(1.0417 0 0 1.0417 -22.782 -76.799)" gradientUnits="userSpaceOnUse" xlink:href="#a"/>
 </defs>
 <g transform="matrix(1.0346 0 0 1.0346 -4.7262 -.57276)" fill="none" stroke-dashoffset="1" stroke-linecap="round" stroke-width="2">
  <path d="m8.4681 10.703a6.25 6.2501 0 0 1 3.125-5.4128 6.25 6.2501 0 0 1 6.25 3e-7" stroke="url(#c)"/>
  <path d="m17.843 5.2902a6.25 6.2501 0 0 1 3.125 5.4128 6.25 6.2501 0 0 1-3.125 5.4128" stroke="url(#b)"/>
  <path d="m17.843 16.116a6.25 6.2501 0 0 1-6.25 0 6.25 6.2501 0 0 1-3.125-5.4128" stroke="url(#d)"/>
 </g>
</svg>
