<svg version="1.1" viewBox="0 0 16 16" xmlns="http://www.w3.org/2000/svg" xmlns:osb="http://www.openswatchbook.org/uri/2009/osb">
 <title>Gnome Symbolic Icon Theme</title>
 <g transform="translate(-401 -339)">
  <path transform="translate(401 339)" d="m3.5 1a2.506 2.506 0 0 0-2.5 2.5v9c0 1.376 1.124 2.5 2.5 2.5h9c1.376 0 2.5-1.124 2.5-2.5v-9c0-1.376-1.124-2.5-2.5-2.5h-9zm0 1h9c0.84 0 1.5 0.66 1.5 1.5v9c0 0.84-0.66 1.5-1.5 1.5h-9c-0.84 0-1.5-0.66-1.5-1.5v-9c0-0.84 0.66-1.5 1.5-1.5zm0.5 5v2h8v-2h-8z" fill="#808080" style="font-feature-settings:normal;font-variant-alternates:normal;font-variant-caps:normal;font-variant-ligatures:normal;font-variant-numeric:normal;font-variant-position:normal;isolation:auto;mix-blend-mode:normal;shape-padding:0;text-decoration-color:#000000;text-decoration-line:none;text-decoration-style:solid;text-indent:0;text-orientation:mixed;text-transform:none"/>
 </g>
</svg>
