<?xml version="1.0" encoding="UTF-8" standalone="no"?>
<svg
   inkscape:export-ydpi="96"
   inkscape:export-xdpi="96"
   width="400"
   height="300"
   id="svg11300"
   sodipodi:version="0.32"
   inkscape:version="1.4.2 (ebf0e940d0, 2025-05-08)"
   sodipodi:docname="folder-new.svg"
   inkscape:output_extension="org.inkscape.output.svg.inkscape"
   version="1.0"
   style="display:inline;enable-background:new"
   inkscape:export-filename="C:\Users\sblav\Pictures\vertical oblong template.png"
   xmlns:inkscape="http://www.inkscape.org/namespaces/inkscape"
   xmlns:sodipodi="http://sodipodi.sourceforge.net/DTD/sodipodi-0.dtd"
   xmlns:xlink="http://www.w3.org/1999/xlink"
   xmlns="http://www.w3.org/2000/svg"
   xmlns:svg="http://www.w3.org/2000/svg"
   xmlns:rdf="http://www.w3.org/1999/02/22-rdf-syntax-ns#"
   xmlns:cc="http://creativecommons.org/ns#"
   xmlns:dc="http://purl.org/dc/elements/1.1/">
  <title
     id="title3004">Suru Icon Theme Template</title>
  <sodipodi:namedview
     stroke="#ef2929"
     fill="#f57900"
     id="base"
     pagecolor="#ffffff"
     bordercolor="#000000"
     borderopacity="0.25490196"
     inkscape:pageopacity="0"
     inkscape:pageshadow="2"
     inkscape:zoom="2.2194728"
     inkscape:cx="193.96498"
     inkscape:cy="160.62373"
     inkscape:current-layer="g2131"
     showgrid="false"
     inkscape:grid-bbox="true"
     inkscape:document-units="px"
     inkscape:showpageshadow="false"
     inkscape:window-width="1920"
     inkscape:window-height="1011"
     inkscape:window-x="0"
     inkscape:window-y="0"
     width="400px"
     height="300px"
     inkscape:snap-nodes="true"
     inkscape:snap-bbox="true"
     gridtolerance="10000"
     inkscape:object-nodes="true"
     inkscape:snap-grids="true"
     showguides="false"
     inkscape:guide-bbox="true"
     inkscape:window-maximized="1"
     inkscape:bbox-paths="true"
     inkscape:snap-bbox-midpoints="true"
     inkscape:snap-global="true"
     inkscape:object-paths="true"
     inkscape:snap-intersection-paths="true"
     inkscape:snap-smooth-nodes="true"
     inkscape:pagecheckerboard="false"
     showborder="false"
     inkscape:document-rotation="0"
     inkscape:deskcolor="#d1d1d1">
    <inkscape:grid
       spacingy="1"
       spacingx="1"
       id="grid5883"
       type="xygrid"
       enabled="true"
       visible="true"
       empspacing="4"
       snapvisiblegridlinesonly="true"
       originx="0"
       originy="0"
       units="px" />
    <inkscape:grid
       type="xygrid"
       id="grid11592"
       empspacing="2"
       visible="true"
       enabled="false"
       spacingx="0.5"
       spacingy="0.5"
       color="#ff0000"
       opacity="0.1254902"
       empcolor="#ff0000"
       empopacity="0.25098039"
       snapvisiblegridlinesonly="true"
       originx="0"
       originy="0"
       units="px" />
  </sodipodi:namedview>
  <defs
     id="defs3">
    <clipPath
       clipPathUnits="userSpaceOnUse"
       id="clipPath9430">
      <path
         sodipodi:nodetypes="sssssssss"
         inkscape:connector-curvature="0"
         id="path9432"
         d="m 166.0625,-196 h 179.875 C 491.2348,-196 512,-175.28677 512,-30.125 v 148.25 C 512,263.28618 491.2348,284 345.9375,284 H 166.0625 C 20.7652,284 0,263.28618 0,118.125 V -30.125 C 0,-175.28677 20.7652,-196 166.0625,-196 Z"
         style="color:#000000;display:inline;overflow:visible;visibility:visible;fill:#ffffff;fill-opacity:1;fill-rule:nonzero;stroke:none;stroke-width:1;marker:none;enable-background:new" />
    </clipPath>
    <clipPath
       clipPathUnits="userSpaceOnUse"
       id="clipPath1082">
      <path
         sodipodi:nodetypes="sssssssss"
         inkscape:connector-curvature="0"
         id="path1084"
         d="M 361.9375,-212 C 507.2348,-212 528,-191.28677 528,-46.125 V 70.125 C 528,215.28618 507.2348,236 361.9375,236 H 214.0625 C 68.7652,236 48,215.28618 48,70.125 V -46.125 C 48,-191.28677 68.7652,-212 214.0625,-212 Z"
         style="display:inline;opacity:1;fill:#8c59d9;fill-opacity:1;stroke:none;stroke-width:2;stroke-linecap:round;stroke-linejoin:round;stroke-miterlimit:4;stroke-dasharray:none;stroke-dashoffset:0;stroke-opacity:1;enable-background:new" />
    </clipPath>
    <clipPath
       clipPathUnits="userSpaceOnUse"
       id="clipPath994">
      <path
         style="color:#000000;display:inline;overflow:visible;visibility:visible;fill:#cdcdcd;fill-opacity:1;fill-rule:nonzero;stroke:none;stroke-width:2;stroke-miterlimit:4;stroke-dasharray:none;stroke-opacity:1;marker:none;enable-background:accumulate"
         d="m 335.73108,62 c -8.82418,0 -9.77365,0.90635 -9.7304,9.74838 V 84 96.25162 c -0.0433,8.84203 0.90622,9.74838 9.7304,9.74838 h 16.53919 c 8.82418,0 9.7304,-0.90625 9.7304,-9.74838 V 84 71.74838 C 362.00067,62.90625 361.09445,62 352.27027,62 Z"
         id="path996"
         inkscape:connector-curvature="0"
         sodipodi:nodetypes="scccssscsss" />
    </clipPath>
    <clipPath
       clipPathUnits="userSpaceOnUse"
       id="clipPath959">
      <path
         style="color:#000000;display:inline;overflow:visible;visibility:visible;opacity:1;fill:#46a926;fill-opacity:1;fill-rule:nonzero;stroke:none;stroke-width:2;stroke-miterlimit:4;stroke-dasharray:none;stroke-opacity:1;marker:none;enable-background:accumulate"
         d="m 330.1929,133.99999 c -5.61538,0 -6.21958,0.57678 -6.19206,6.20352 v 7.79648 7.79648 c -0.0276,5.62673 0.57668,6.20351 6.19206,6.20351 h 11.615 c 5.6154,0 6.19208,-0.5767 6.19208,-6.20351 v -7.79648 -7.79648 c 0,-5.6268 -0.5767,-6.20352 -6.19208,-6.20352 z"
         id="path961"
         inkscape:connector-curvature="0"
         sodipodi:nodetypes="scccssscsss" />
    </clipPath>
    <clipPath
       clipPathUnits="userSpaceOnUse"
       id="clipPath971">
      <path
         style="color:#000000;display:inline;overflow:visible;visibility:visible;opacity:1;fill:#46a926;fill-opacity:1;fill-rule:nonzero;stroke:none;stroke-width:2;stroke-miterlimit:4;stroke-dasharray:none;stroke-opacity:1;marker:none;enable-background:accumulate"
         d="m 327.8652,189 c -4.41209,0 -4.88682,0.45318 -4.8652,4.87419 V 200 206.12581 C 322.9783,210.54682 323.45311,211 327.8652,211 h 8.2696 C 340.54689,211 341,210.54688 341,206.12581 V 200 193.87419 C 341,189.45313 340.54688,189 336.13479,189 Z"
         id="path973"
         inkscape:connector-curvature="0"
         sodipodi:nodetypes="scccssscsss" />
    </clipPath>
    <clipPath
       clipPathUnits="userSpaceOnUse"
       id="clipPath983">
      <path
         sodipodi:nodetypes="scccssscsss"
         inkscape:connector-curvature="0"
         id="path985"
         d="m 325.09646,237 c -2.80769,0 -3.10979,0.28839 -3.09603,3.10176 V 244 v 3.89824 c -0.0138,2.81337 0.28834,3.10176 3.09603,3.10176 h 5.8075 C 333.71166,251 334,250.71165 334,247.89824 V 244 240.10176 C 334,237.28836 333.71165,237 330.90396,237 Z"
         style="color:#000000;display:inline;overflow:visible;visibility:visible;opacity:1;fill:#46a926;fill-opacity:1;fill-rule:nonzero;stroke:none;stroke-width:2;stroke-miterlimit:4;stroke-dasharray:none;stroke-opacity:1;marker:none;enable-background:accumulate" />
    </clipPath>
    <linearGradient
       id="linearGradient4336-3">
      <stop
         style="stop-color:#5884f4;stop-opacity:1"
         offset="0"
         id="stop4338-8" />
      <stop
         id="stop4344-3"
         offset="0.27800092"
         style="stop-color:#5884f4;stop-opacity:1" />
      <stop
         style="stop-color:#2f5fdd;stop-opacity:1"
         offset="0.27800092"
         id="stop4346-3" />
      <stop
         id="stop4350-1"
         offset="0.70735365"
         style="stop-color:#2f5fdd;stop-opacity:1" />
      <stop
         id="stop4348-6"
         offset="0.70936078"
         style="stop-color:#234db8;stop-opacity:1" />
      <stop
         style="stop-color:#234db8;stop-opacity:1"
         offset="1"
         id="stop4340-0" />
    </linearGradient>
    <clipPath
       clipPathUnits="userSpaceOnUse"
       id="clipPath994-1">
      <path
         style="color:#000000;display:inline;overflow:visible;visibility:visible;fill:#cdcdcd;fill-opacity:1;fill-rule:nonzero;stroke:none;stroke-width:2;stroke-miterlimit:4;stroke-dasharray:none;stroke-opacity:1;marker:none;enable-background:accumulate"
         d="m 335.73108,62 c -8.82418,0 -9.77365,0.90635 -9.7304,9.74838 V 84 96.25162 c -0.0433,8.84203 0.90622,9.74838 9.7304,9.74838 h 16.53919 c 8.82418,0 9.7304,-0.90625 9.7304,-9.74838 V 84 71.74838 C 362.00067,62.90625 361.09445,62 352.27027,62 Z"
         id="path996-8"
         inkscape:connector-curvature="0"
         sodipodi:nodetypes="scccssscsss" />
    </clipPath>
    <clipPath
       clipPathUnits="userSpaceOnUse"
       id="clipPath1144">
      <path
         sodipodi:nodetypes="sssssssss"
         inkscape:connector-curvature="0"
         id="path1146"
         d="m 563.72139,-143.78206 c 77.49205,0 88.56678,11.04708 88.56678,88.466604 V 6.684672 c 0,77.419349 -11.07473,88.466603 -88.56678,88.466603 h -78.86661 c -77.49171,0 -88.56661,-11.047254 -88.56661,-88.466603 v -62.000128 c 0,-77.419524 11.0749,-88.466604 88.56678,-88.466604 z"
         style="display:inline;opacity:1;fill:#a3dbf0;fill-opacity:1;stroke:none;stroke-width:2;stroke-linecap:round;stroke-linejoin:round;stroke-miterlimit:4;stroke-dasharray:none;stroke-dashoffset:0;stroke-opacity:1;enable-background:new" />
    </clipPath>
    <clipPath
       clipPathUnits="userSpaceOnUse"
       id="clipPath1151">
      <path
         sodipodi:nodetypes="sssssssss"
         inkscape:connector-curvature="0"
         id="path1153"
         d="m 335.71582,189.50031 c 6.81081,10e-6 7.78418,0.97093 7.78418,7.77539 v 5.44891 c 0,6.80444 -0.97337,7.77539 -7.78418,7.77539 h -7.43164 c -6.81081,0 -7.78418,-0.97095 -7.78418,-7.77539 v -5.44892 c 0,-6.80446 0.97337,-7.7754 7.78418,-7.77539 z"
         style="display:inline;opacity:1;fill:#a3dbf0;fill-opacity:1;stroke:none;stroke-width:2;stroke-linecap:round;stroke-linejoin:round;stroke-miterlimit:4;stroke-dasharray:none;stroke-dashoffset:0;stroke-opacity:1;enable-background:new" />
    </clipPath>
    <clipPath
       clipPathUnits="userSpaceOnUse"
       id="clipPath1158">
      <path
         style="display:inline;opacity:1;fill:#a3dbf0;fill-opacity:1;stroke:none;stroke-width:2;stroke-linecap:round;stroke-linejoin:round;stroke-miterlimit:4;stroke-dasharray:none;stroke-dashoffset:0;stroke-opacity:1;enable-background:new"
         d="m 341.12109,133.5 c 9.08109,0 10.37891,1.29458 10.37891,10.36719 v 8.26562 c 0,9.07258 -1.29782,10.36719 -10.37891,10.36719 H 330.87891 C 321.79783,162.5 320.5,161.20539 320.5,152.13281 v -8.26562 c 0,-9.07261 1.29783,-10.36719 10.37891,-10.36719 z"
         id="path1160"
         inkscape:connector-curvature="0"
         sodipodi:nodetypes="sssssssss" />
    </clipPath>
    <clipPath
       clipPathUnits="userSpaceOnUse"
       id="clipPath1165">
      <path
         style="display:inline;opacity:1;fill:#a3dbf0;fill-opacity:1;stroke:none;stroke-width:2;stroke-linecap:round;stroke-linejoin:round;stroke-miterlimit:4;stroke-dasharray:none;stroke-dashoffset:0;stroke-opacity:1;enable-background:new"
         d="M 351.93164,62.5 C 365.55326,62.5 367.5,64.44187 367.5,78.05078 V 89.94922 C 367.5,103.55808 365.55326,105.5 351.93164,105.5 H 336.06836 C 322.44674,105.5 320.5,103.55808 320.5,89.94922 V 78.05078 C 320.5,64.44187 322.44674,62.5 336.06836,62.5 Z"
         id="path1167"
         inkscape:connector-curvature="0"
         sodipodi:nodetypes="sssssssss" />
    </clipPath>
    <clipPath
       clipPathUnits="userSpaceOnUse"
       id="clipPath1082-3">
      <path
         sodipodi:nodetypes="sssssssss"
         inkscape:connector-curvature="0"
         id="path1084-6"
         d="M 361.9375,-212 C 507.2348,-212 528,-191.28677 528,-46.125 V 70.125 C 528,215.28618 507.2348,236 361.9375,236 H 214.0625 C 68.7652,236 48,215.28618 48,70.125 V -46.125 C 48,-191.28677 68.7652,-212 214.0625,-212 Z"
         style="display:inline;opacity:1;fill:#8c59d9;fill-opacity:1;stroke:none;stroke-width:2;stroke-linecap:round;stroke-linejoin:round;stroke-miterlimit:4;stroke-dasharray:none;stroke-dashoffset:0;stroke-opacity:1;enable-background:new" />
    </clipPath>
    <clipPath
       clipPathUnits="userSpaceOnUse"
       id="clipPath1064">
      <path
         style="opacity:1;fill:#a3dbf0;fill-opacity:1;stroke:none;stroke-width:2;stroke-linecap:round;stroke-linejoin:round;stroke-miterlimit:4;stroke-dasharray:none;stroke-dashoffset:0;stroke-opacity:1"
         d="M 115.03125,44 C 42.3826,44 32,54.356615 32,126.9375 v 58.125 c 0,10.16582 0.217657,19.07051 0.767578,26.9375 3.376331,48.30069 19.790377,56 82.263672,56 h 73.9375 c 62.4733,0 78.88734,-7.69931 82.26367,-56 C 271.78234,204.13301 272,195.22832 272,185.0625 v -58.125 C 272,54.356615 261.6174,44 188.96875,44 Z"
         id="path1066"
         inkscape:connector-curvature="0" />
    </clipPath>
    <clipPath
       clipPathUnits="userSpaceOnUse"
       id="clipPath1064-8">
      <path
         style="opacity:1;fill:#a3dbf0;fill-opacity:1;stroke:none;stroke-width:2;stroke-linecap:round;stroke-linejoin:round;stroke-miterlimit:4;stroke-dasharray:none;stroke-dashoffset:0;stroke-opacity:1"
         d="M 115.03125,44 C 42.3826,44 32,54.356615 32,126.9375 v 58.125 c 0,10.16582 0.217657,19.07051 0.767578,26.9375 3.376331,48.30069 19.790377,56 82.263672,56 h 73.9375 c 62.4733,0 78.88734,-7.69931 82.26367,-56 C 271.78234,204.13301 272,195.22832 272,185.0625 v -58.125 C 272,54.356615 261.6174,44 188.96875,44 Z"
         id="path1066-4"
         inkscape:connector-curvature="0" />
    </clipPath>
    <clipPath
       clipPathUnits="userSpaceOnUse"
       id="clipPath1144-3">
      <path
         sodipodi:nodetypes="sssssssss"
         inkscape:connector-curvature="0"
         id="path1146-8"
         d="m 563.72139,-143.78206 c 77.49205,0 88.56678,11.04708 88.56678,88.466604 V 6.684672 c 0,77.419349 -11.07473,88.466603 -88.56678,88.466603 h -78.86661 c -77.49171,0 -88.56661,-11.047254 -88.56661,-88.466603 v -62.000128 c 0,-77.419524 11.0749,-88.466604 88.56678,-88.466604 z"
         style="display:inline;opacity:1;fill:#a3dbf0;fill-opacity:1;stroke:none;stroke-width:2;stroke-linecap:round;stroke-linejoin:round;stroke-miterlimit:4;stroke-dasharray:none;stroke-dashoffset:0;stroke-opacity:1;enable-background:new" />
    </clipPath>
    <clipPath
       clipPathUnits="userSpaceOnUse"
       id="clipPath1151-3">
      <path
         sodipodi:nodetypes="sssssssss"
         inkscape:connector-curvature="0"
         id="path1153-6"
         d="m 335.71582,189.50031 c 6.81081,10e-6 7.78418,0.97093 7.78418,7.77539 v 5.44891 c 0,6.80444 -0.97337,7.77539 -7.78418,7.77539 h -7.43164 c -6.81081,0 -7.78418,-0.97095 -7.78418,-7.77539 v -5.44892 c 0,-6.80446 0.97337,-7.7754 7.78418,-7.77539 z"
         style="display:inline;opacity:1;fill:#a3dbf0;fill-opacity:1;stroke:none;stroke-width:2;stroke-linecap:round;stroke-linejoin:round;stroke-miterlimit:4;stroke-dasharray:none;stroke-dashoffset:0;stroke-opacity:1;enable-background:new" />
    </clipPath>
    <clipPath
       clipPathUnits="userSpaceOnUse"
       id="clipPath1158-2">
      <path
         style="display:inline;opacity:1;fill:#a3dbf0;fill-opacity:1;stroke:none;stroke-width:2;stroke-linecap:round;stroke-linejoin:round;stroke-miterlimit:4;stroke-dasharray:none;stroke-dashoffset:0;stroke-opacity:1;enable-background:new"
         d="m 341.12109,133.5 c 9.08109,0 10.37891,1.29458 10.37891,10.36719 v 8.26562 c 0,9.07258 -1.29782,10.36719 -10.37891,10.36719 H 330.87891 C 321.79783,162.5 320.5,161.20539 320.5,152.13281 v -8.26562 c 0,-9.07261 1.29783,-10.36719 10.37891,-10.36719 z"
         id="path1160-3"
         inkscape:connector-curvature="0"
         sodipodi:nodetypes="sssssssss" />
    </clipPath>
    <clipPath
       clipPathUnits="userSpaceOnUse"
       id="clipPath1165-5">
      <path
         style="display:inline;opacity:1;fill:#a3dbf0;fill-opacity:1;stroke:none;stroke-width:2;stroke-linecap:round;stroke-linejoin:round;stroke-miterlimit:4;stroke-dasharray:none;stroke-dashoffset:0;stroke-opacity:1;enable-background:new"
         d="M 351.93164,62.5 C 365.55326,62.5 367.5,64.44187 367.5,78.05078 V 89.94922 C 367.5,103.55808 365.55326,105.5 351.93164,105.5 H 336.06836 C 322.44674,105.5 320.5,103.55808 320.5,89.94922 V 78.05078 C 320.5,64.44187 322.44674,62.5 336.06836,62.5 Z"
         id="path1167-1"
         inkscape:connector-curvature="0"
         sodipodi:nodetypes="sssssssss" />
    </clipPath>
    <clipPath
       clipPathUnits="userSpaceOnUse"
       id="clipPath4851">
      <path
         sodipodi:nodetypes="sssssssss"
         inkscape:connector-curvature="0"
         id="path4853"
         d="m 335.71582,189.50031 c 6.81081,10e-6 7.78418,0.97093 7.78418,7.77539 v 5.44891 c 0,6.80444 -0.97337,7.77539 -7.78418,7.77539 h -7.43164 c -6.81081,0 -7.78418,-0.97095 -7.78418,-7.77539 v -5.44892 c 0,-6.80446 0.97337,-7.7754 7.78418,-7.77539 z"
         style="display:inline;opacity:1;fill:#46a926;fill-opacity:1;stroke:none;stroke-width:2;stroke-linecap:round;stroke-linejoin:round;stroke-miterlimit:4;stroke-dasharray:none;stroke-dashoffset:0;stroke-opacity:1;enable-background:new" />
    </clipPath>
    <clipPath
       clipPathUnits="userSpaceOnUse"
       id="clipPath4824">
      <path
         style="display:inline;opacity:1;fill:#5bdbc1;fill-opacity:1;stroke:none;stroke-width:2;stroke-linecap:round;stroke-linejoin:round;stroke-miterlimit:4;stroke-dasharray:none;stroke-dashoffset:0;stroke-opacity:1;enable-background:new"
         d="m 341.12109,133.5 c 9.08109,0 10.37891,1.29458 10.37891,10.36719 v 8.26562 c 0,9.07258 -1.29782,10.36719 -10.37891,10.36719 H 330.87891 C 321.79783,162.5 320.5,161.20539 320.5,152.13281 v -8.26562 c 0,-9.07261 1.29783,-10.36719 10.37891,-10.36719 z"
         id="path4826"
         inkscape:connector-curvature="0"
         sodipodi:nodetypes="sssssssss" />
    </clipPath>
    <clipPath
       clipPathUnits="userSpaceOnUse"
       id="clipPath4783">
      <path
         style="display:inline;opacity:1;fill:#d64310;fill-opacity:1;stroke:none;stroke-width:2;stroke-linecap:round;stroke-linejoin:round;stroke-miterlimit:4;stroke-dasharray:none;stroke-dashoffset:0;stroke-opacity:1;enable-background:new"
         d="M 351.93164,61.5 C 365.55326,61.5 367.5,63.44187 367.5,77.05078 V 88.94922 C 367.5,102.55808 365.55326,104.5 351.93164,104.5 H 336.06836 C 322.44674,104.5 320.5,102.55808 320.5,88.94922 V 77.05078 C 320.5,63.44187 322.44674,61.5 336.06836,61.5 Z"
         id="path4785"
         inkscape:connector-curvature="0"
         sodipodi:nodetypes="sssssssss" />
    </clipPath>
    <clipPath
       clipPathUnits="userSpaceOnUse"
       id="clipPath4653">
      <path
         sodipodi:nodetypes="sssssssss"
         inkscape:connector-curvature="0"
         id="path4655"
         d="m 412.21109,-140.08377 c 90.81111,0 103.78933,12.94582 103.78933,103.671926 v 72.656487 c 0,90.725907 -12.97822,103.671927 -103.78933,103.671927 h -92.42191 c -90.81071,0 -103.78912,-12.94602 -103.78912,-103.671927 v -72.656487 c 0,-90.726106 12.97841,-103.671926 103.78932,-103.671926 z"
         style="display:inline;opacity:1;fill:#f22c42;fill-opacity:1;stroke:none;stroke-width:2;stroke-linecap:round;stroke-linejoin:round;stroke-miterlimit:4;stroke-dasharray:none;stroke-dashoffset:0;stroke-opacity:1;enable-background:new" />
    </clipPath>
    <clipPath
       clipPathUnits="userSpaceOnUse"
       id="clipPath4657">
      <path
         sodipodi:nodetypes="sssssssss"
         inkscape:connector-curvature="0"
         id="path4659"
         d="m 415.5445,-130.07962 c 90.81091,1.3e-4 103.78919,12.94575 103.78919,103.671988 v 72.652221 c 0,90.725971 -12.97828,103.671991 -103.78919,103.671991 h -99.08865 c -90.81091,0 -103.78919,-12.94602 -103.78919,-103.671991 v -72.652354 c 0,-90.726245 12.97828,-103.672125 103.78919,-103.671995 z"
         style="display:inline;opacity:1;fill:#f22c42;fill-opacity:1;stroke:none;stroke-width:2;stroke-linecap:round;stroke-linejoin:round;stroke-miterlimit:4;stroke-dasharray:none;stroke-dashoffset:0;stroke-opacity:1;enable-background:new" />
    </clipPath>
    <clipPath
       clipPathUnits="userSpaceOnUse"
       id="clipPath4661">
      <path
         style="display:inline;opacity:1;fill:#f22c42;fill-opacity:1;stroke:none;stroke-width:2;stroke-linecap:round;stroke-linejoin:round;stroke-miterlimit:4;stroke-dasharray:none;stroke-dashoffset:0;stroke-opacity:1;enable-background:new"
         d="m 417.2112,-135.08366 c 90.81101,0 103.78923,12.94581 103.78923,103.672022 v 82.656299 c 0,90.725909 -12.97822,103.672029 -103.78923,103.672029 H 314.78928 c -90.81091,0 -103.78923,-12.94612 -103.78923,-103.672029 v -82.656299 c 0,-90.726212 12.97832,-103.672022 103.78923,-103.672022 z"
         id="path4663"
         inkscape:connector-curvature="0"
         sodipodi:nodetypes="sssssssss" />
    </clipPath>
    <clipPath
       clipPathUnits="userSpaceOnUse"
       id="clipPath4665">
      <path
         style="display:inline;opacity:1;fill:#f22c42;fill-opacity:1;stroke:none;stroke-width:2;stroke-linecap:round;stroke-linejoin:round;stroke-miterlimit:4;stroke-dasharray:none;stroke-dashoffset:0;stroke-opacity:1;enable-background:new"
         d="m 418.87763,-133.41668 c 90.8108,0 103.78907,12.9458 103.78907,103.671871 V 49.57813 c 0,90.72574 -12.97827,103.67187 -103.78907,103.67187 H 313.12242 c -90.81081,0 -103.78907,-12.94613 -103.78907,-103.67187 v -79.322939 c 0,-90.726071 12.97826,-103.671871 103.78907,-103.671871 z"
         id="path4667"
         inkscape:connector-curvature="0"
         sodipodi:nodetypes="sssssssss" />
    </clipPath>
    <clipPath
       clipPathUnits="userSpaceOnUse"
       id="clipPath947">
      <path
         sodipodi:nodetypes="sssssssss"
         inkscape:connector-curvature="0"
         id="path949"
         d="m 191.43333,45.066672 c 77.49189,0 88.56666,11.047056 88.56666,88.466668 v 62 C 279.99999,272.95263 268.92522,284 191.43333,284 H 112.56666 C 35.074773,284 23.999999,272.95263 23.999999,195.53334 v -62 c 0,-77.419612 11.074774,-88.466668 88.566661,-88.466668 z"
         style="opacity:1;fill:#a4c1f9;fill-opacity:1;stroke:none;stroke-width:2;stroke-linecap:round;stroke-linejoin:round;stroke-miterlimit:4;stroke-dasharray:none;stroke-dashoffset:0;stroke-opacity:1" />
    </clipPath>
    <clipPath
       clipPathUnits="userSpaceOnUse"
       id="clipPath4657-5">
      <path
         sodipodi:nodetypes="sssssssss"
         inkscape:connector-curvature="0"
         id="path4659-3"
         d="m 415.5445,-130.07962 c 90.81091,1.3e-4 103.78919,12.94575 103.78919,103.671988 v 72.652221 c 0,90.725971 -12.97828,103.671991 -103.78919,103.671991 h -99.08865 c -90.81091,0 -103.78919,-12.94602 -103.78919,-103.671991 v -72.652354 c 0,-90.726245 12.97828,-103.672125 103.78919,-103.671995 z"
         style="display:inline;opacity:1;fill:#f22c42;fill-opacity:1;stroke:none;stroke-width:2;stroke-linecap:round;stroke-linejoin:round;stroke-miterlimit:4;stroke-dasharray:none;stroke-dashoffset:0;stroke-opacity:1;enable-background:new" />
    </clipPath>
    <clipPath
       clipPathUnits="userSpaceOnUse"
       id="clipPath4851-5">
      <path
         sodipodi:nodetypes="sssssssss"
         inkscape:connector-curvature="0"
         id="path4853-6"
         d="m 335.71582,189.50031 c 6.81081,10e-6 7.78418,0.97093 7.78418,7.77539 v 5.44891 c 0,6.80444 -0.97337,7.77539 -7.78418,7.77539 h -7.43164 c -6.81081,0 -7.78418,-0.97095 -7.78418,-7.77539 v -5.44892 c 0,-6.80446 0.97337,-7.7754 7.78418,-7.77539 z"
         style="display:inline;opacity:1;fill:#46a926;fill-opacity:1;stroke:none;stroke-width:2;stroke-linecap:round;stroke-linejoin:round;stroke-miterlimit:4;stroke-dasharray:none;stroke-dashoffset:0;stroke-opacity:1;enable-background:new" />
    </clipPath>
    <clipPath
       clipPathUnits="userSpaceOnUse"
       id="clipPath971-7">
      <path
         style="color:#000000;display:inline;overflow:visible;visibility:visible;opacity:1;fill:#46a926;fill-opacity:1;fill-rule:nonzero;stroke:none;stroke-width:2;stroke-miterlimit:4;stroke-dasharray:none;stroke-opacity:1;marker:none;enable-background:accumulate"
         d="m 327.8652,189 c -4.41209,0 -4.88682,0.45318 -4.8652,4.87419 V 200 206.12581 C 322.9783,210.54682 323.45311,211 327.8652,211 h 8.2696 C 340.54689,211 341,210.54688 341,206.12581 V 200 193.87419 C 341,189.45313 340.54688,189 336.13479,189 Z"
         id="path973-0"
         inkscape:connector-curvature="0"
         sodipodi:nodetypes="scccssscsss" />
    </clipPath>
    <clipPath
       clipPathUnits="userSpaceOnUse"
       id="clipPath977-5">
      <path
         id="path979-7"
         d="M 78.994141,52 C 43.625611,52 40,53.999146 40,89.296875 V 140 H 264 V 108.92188 C 264,73.624145 260.37439,68 225.00586,68 H 138 L 122,52 Z"
         style="color:#000000;display:inline;overflow:visible;visibility:visible;fill:#f6531e;fill-opacity:1;fill-rule:nonzero;stroke:none;stroke-width:1;marker:none;enable-background:accumulate"
         inkscape:connector-curvature="0" />
    </clipPath>
    <radialGradient
       inkscape:collect="always"
       xlink:href="#linearGradient1361"
       id="radialGradient3541-3"
       gradientUnits="userSpaceOnUse"
       gradientTransform="matrix(1,0,0,0.26304411,-9.0599059e-8,60.033161)"
       cx="152"
       cy="-0.12591045"
       fx="152"
       fy="-0.12591045"
       r="112" />
    <linearGradient
       inkscape:collect="always"
       id="linearGradient1361">
      <stop
         style="stop-color:#ffffff;stop-opacity:1;"
         offset="0"
         id="stop1357" />
      <stop
         style="stop-color:#ffffff;stop-opacity:0.20392157"
         offset="1"
         id="stop1359" />
    </linearGradient>
    <radialGradient
       inkscape:collect="always"
       xlink:href="#linearGradient1361"
       id="radialGradient3543-79"
       gradientUnits="userSpaceOnUse"
       gradientTransform="matrix(1,0,0,0.25411554,-9.0599059e-8,85.915831)"
       cx="148"
       cy="39.683556"
       fx="148"
       fy="39.683556"
       r="112" />
    <filter
       inkscape:collect="always"
       style="color-interpolation-filters:sRGB"
       id="filter24"
       x="-0.011142996"
       y="-0.012999857"
       width="1.022286"
       height="1.0259997">
      <feGaussianBlur
         inkscape:collect="always"
         stdDeviation="1.0400132"
         id="feGaussianBlur24" />
    </filter>
    <filter
       inkscape:collect="always"
       style="color-interpolation-filters:sRGB"
       id="filter44"
       x="-0.04457198"
       y="-0.053105775"
       width="1.089144"
       height="1.1062116">
      <feGaussianBlur
         inkscape:collect="always"
         stdDeviation="4.1600525"
         id="feGaussianBlur44" />
    </filter>
    <linearGradient
       inkscape:collect="always"
       xlink:href="#linearGradient4"
       id="linearGradient5"
       x1="39.99715"
       y1="161.99724"
       x2="263.99731"
       y2="107.91922"
       gradientUnits="userSpaceOnUse"
       gradientTransform="translate(7.7658072e-5,8.000031)" />
    <linearGradient
       id="linearGradient4"
       inkscape:collect="always">
      <stop
         style="stop-color:#772953;stop-opacity:1;"
         offset="0"
         id="stop5" />
      <stop
         style="stop-color:#e95420;stop-opacity:1;"
         offset="1"
         id="stop4" />
    </linearGradient>
    <linearGradient
       inkscape:collect="always"
       xlink:href="#linearGradient4"
       id="linearGradient36"
       x1="321.5"
       y1="84.769569"
       x2="366.5"
       y2="75.230507"
       gradientUnits="userSpaceOnUse"
       gradientTransform="matrix(1.0000078,0,0,1,-0.00250097,1.00165)" />
    <linearGradient
       inkscape:collect="always"
       xlink:href="#linearGradient12"
       id="linearGradient9"
       x1="344.33008"
       y1="67.999527"
       x2="344.00089"
       y2="103.4999"
       gradientUnits="userSpaceOnUse"
       gradientTransform="translate(2.5987475e-8,0.00195)" />
    <linearGradient
       inkscape:collect="always"
       id="linearGradient12">
      <stop
         style="stop-color:#ffffff;stop-opacity:1;"
         offset="0"
         id="stop9" />
      <stop
         id="stop10"
         offset="0.54892111"
         style="stop-color:#ffffff;stop-opacity:0.09803922" />
      <stop
         id="stop11"
         offset="0.92500001"
         style="stop-color:#ffffff;stop-opacity:0.09803922" />
      <stop
         style="stop-color:#ffffff;stop-opacity:0.49803922"
         offset="1"
         id="stop12" />
    </linearGradient>
    <linearGradient
       inkscape:collect="always"
       xlink:href="#linearGradient22"
       id="linearGradient19"
       x1="344.00781"
       y1="72.001953"
       x2="344"
       y2="103.00195"
       gradientUnits="userSpaceOnUse" />
    <linearGradient
       inkscape:collect="always"
       id="linearGradient22">
      <stop
         style="stop-color:#ffffff;stop-opacity:1;"
         offset="0"
         id="stop19" />
      <stop
         id="stop20"
         offset="0.16872095"
         style="stop-color:#ffffff;stop-opacity:0.09803922" />
      <stop
         id="stop21"
         offset="0.92500001"
         style="stop-color:#ffffff;stop-opacity:0.09803922" />
      <stop
         style="stop-color:#ffffff;stop-opacity:0.49803922"
         offset="1"
         id="stop22" />
    </linearGradient>
    <linearGradient
       inkscape:collect="always"
       xlink:href="#linearGradient4"
       id="linearGradient93"
       x1="321.5"
       y1="148.92578"
       x2="350.5"
       y2="142.07422"
       gradientUnits="userSpaceOnUse"
       gradientTransform="translate(1.11e-4,-8.2e-4)" />
    <linearGradient
       inkscape:collect="always"
       xlink:href="#linearGradient17"
       id="linearGradient106"
       x1="335.98438"
       y1="137.0014"
       x2="336"
       y2="161"
       gradientUnits="userSpaceOnUse"
       gradientTransform="translate(0,-1.00041)" />
    <linearGradient
       inkscape:collect="always"
       id="linearGradient17">
      <stop
         style="stop-color:#ffffff;stop-opacity:1;"
         offset="0"
         id="stop14" />
      <stop
         id="stop15"
         offset="0.39579791"
         style="stop-color:#ffffff;stop-opacity:0.09803922" />
      <stop
         id="stop16"
         offset="0.92500001"
         style="stop-color:#ffffff;stop-opacity:0.09803922" />
      <stop
         style="stop-color:#ffffff;stop-opacity:0.49803922"
         offset="1"
         id="stop17" />
    </linearGradient>
    <linearGradient
       inkscape:collect="always"
       xlink:href="#linearGradient22"
       id="linearGradient39"
       x1="335.98438"
       y1="140.50153"
       x2="336"
       y2="159.50195"
       gradientUnits="userSpaceOnUse"
       gradientTransform="translate(-9.75e-4,0.4986)" />
    <linearGradient
       inkscape:collect="always"
       xlink:href="#linearGradient4"
       id="linearGradient150"
       x1="320.57794"
       y1="199.93474"
       x2="343.5"
       y2="195.59956"
       gradientUnits="userSpaceOnUse" />
    <inkscape:path-effect
       effect="fillet_chamfer"
       id="path-effect120"
       is_visible="true"
       lpeversion="1"
       nodesatellites_param="F,0,0,1,0,0,0,1 @ F,0,0,1,0,0,0,1 @ F,0,0,1,0,0,0,1 @ F,0,0,1,0,0,0,1 @ F,0,0,1,0,0,0,1 @ F,0,0,1,0,0,0,1 @ F,0,0,1,0,0,0,1 @ F,0,0,1,0,0,0,1 @ F,0,0,1,0,0,0,1 @ F,0,0,1,0,0,0,1 @ F,0,0,1,0,0,0,1 @ F,0,0,1,0,0,0,1 @ F,0,0,1,0,0,0,1 @ F,0,0,1,0,0.94557514,0,1 @ F,0,0,1,0,0.90677718,0,1"
       radius="0"
       unit="px"
       method="auto"
       mode="F"
       chamfer_steps="1"
       flexible="false"
       use_knot_distance="true"
       apply_no_radius="true"
       apply_with_radius="true"
       only_selected="false"
       hide_knots="false" />
    <linearGradient
       inkscape:collect="always"
       xlink:href="#linearGradient21"
       id="linearGradient192"
       x1="332.29883"
       y1="192"
       x2="332"
       y2="210.49959"
       gradientUnits="userSpaceOnUse"
       gradientTransform="translate(0,6.364916e-4)" />
    <linearGradient
       inkscape:collect="always"
       id="linearGradient21">
      <stop
         style="stop-color:#ffffff;stop-opacity:1;"
         offset="0"
         id="stop25" />
      <stop
         id="stop19-2"
         offset="0.3513625"
         style="stop-color:#ffffff;stop-opacity:0.09803922" />
      <stop
         id="stop20-0"
         offset="0.92500001"
         style="stop-color:#ffffff;stop-opacity:0.09803922" />
      <stop
         style="stop-color:#ffffff;stop-opacity:0.49803922"
         offset="1"
         id="stop21-6" />
    </linearGradient>
    <linearGradient
       inkscape:collect="always"
       xlink:href="#linearGradient58"
       id="linearGradient55"
       x1="332"
       y1="195.00195"
       x2="332"
       y2="210.00064"
       gradientUnits="userSpaceOnUse" />
    <linearGradient
       inkscape:collect="always"
       id="linearGradient58">
      <stop
         style="stop-color:#ffffff;stop-opacity:1;"
         offset="0"
         id="stop55" />
      <stop
         id="stop56"
         offset="0.28899908"
         style="stop-color:#ffffff;stop-opacity:0.09803922" />
      <stop
         id="stop57"
         offset="0.92500001"
         style="stop-color:#ffffff;stop-opacity:0.09803922" />
      <stop
         style="stop-color:#ffffff;stop-opacity:0.49803922"
         offset="1"
         id="stop58" />
    </linearGradient>
    <inkscape:path-effect
       effect="fillet_chamfer"
       id="path-effect159"
       is_visible="true"
       lpeversion="1"
       nodesatellites_param="F,0,0,1,0,0,0,1 @ F,0,0,1,0,0,0,1 @ F,0,0,1,0,0,0,1 @ F,0,0,1,0,0,0,1 @ F,0,0,1,0,0,0,1 @ F,0,0,1,0,0,0,1 @ F,0,0,1,0,0,0,1 @ F,0,0,1,0,0,0,1 @ F,0,0,1,0,0,0,1 @ F,0,0,1,0,0,0,1 @ F,0,0,1,0,0,0,1 @ F,0,0,1,0,0,0,1 @ F,0,0,1,0,0,0,1 @ F,0,0,1,0,0,0,1 @ F,0,0,1,0,0,0,1 @ F,0,0,1,0,0,0,1 @ F,0,0,1,0,0,0,1 @ F,0,0,1,0,0.40398174,0,1 @ F,0,0,1,0,0.56293516,0,1"
       radius="0"
       unit="px"
       method="auto"
       mode="F"
       chamfer_steps="1"
       flexible="false"
       use_knot_distance="true"
       apply_no_radius="true"
       apply_with_radius="true"
       only_selected="false"
       hide_knots="false" />
    <linearGradient
       inkscape:collect="always"
       id="linearGradient174">
      <stop
         style="stop-color:#ffffff;stop-opacity:1;"
         offset="0"
         id="stop171" />
      <stop
         id="stop172"
         offset="0.36179757"
         style="stop-color:#ffffff;stop-opacity:0.09803922" />
      <stop
         id="stop173"
         offset="0.75201631"
         style="stop-color:#ffffff;stop-opacity:0.09803922" />
      <stop
         style="stop-color:#ffffff;stop-opacity:0.49803922"
         offset="1"
         id="stop174" />
    </linearGradient>
    <filter
       inkscape:collect="always"
       style="color-interpolation-filters:sRGB"
       id="filter5"
       x="-0.048470587"
       y="-0.04753846"
       width="1.0969412"
       height="1.0950769">
      <feGaussianBlur
         inkscape:collect="always"
         stdDeviation="2.06"
         id="feGaussianBlur5" />
    </filter>
    <filter
       inkscape:collect="always"
       style="color-interpolation-filters:sRGB"
       id="filter6"
       x="-0.012117647"
       y="-0.011884615"
       width="1.0242353"
       height="1.0237692">
      <feGaussianBlur
         inkscape:collect="always"
         stdDeviation="0.515"
         id="feGaussianBlur6" />
    </filter>
    <linearGradient
       inkscape:collect="always"
       xlink:href="#linearGradient174"
       id="linearGradient18"
       x1="358"
       y1="87.000404"
       x2="358"
       y2="105.00041"
       gradientUnits="userSpaceOnUse" />
    <linearGradient
       inkscape:collect="always"
       xlink:href="#linearGradient174"
       id="linearGradient37"
       x1="344.5"
       y1="149.6004"
       x2="344.2168"
       y2="161.99918"
       gradientUnits="userSpaceOnUse" />
    <linearGradient
       inkscape:collect="always"
       xlink:href="#linearGradient174"
       id="linearGradient40"
       x1="337.5"
       y1="200.50041"
       x2="337.5"
       y2="210.50041"
       gradientUnits="userSpaceOnUse" />
  </defs>
  <metadata
     id="metadata4">
    <rdf:RDF>
      <cc:Work
         rdf:about="">
        <dc:format>image/svg+xml</dc:format>
        <dc:type
           rdf:resource="http://purl.org/dc/dcmitype/StillImage" />
        <dc:creator>
          <cc:Agent>
            <dc:title>Sam Hewitt</dc:title>
          </cc:Agent>
        </dc:creator>
        <dc:source />
        <cc:license
           rdf:resource="http://creativecommons.org/licenses/by-sa/4.0/" />
        <dc:title>Suru Icon Theme Template</dc:title>
        <dc:subject>
          <rdf:Bag />
        </dc:subject>
        <dc:date />
        <dc:rights>
          <cc:Agent>
            <dc:title />
          </cc:Agent>
        </dc:rights>
        <dc:publisher>
          <cc:Agent>
            <dc:title />
          </cc:Agent>
        </dc:publisher>
        <dc:identifier />
        <dc:relation />
        <dc:language />
        <dc:coverage />
        <dc:description />
        <dc:contributor>
          <cc:Agent>
            <dc:title />
          </cc:Agent>
        </dc:contributor>
      </cc:Work>
      <cc:Work
         rdf:about="">
        <dc:format>image/svg+xml</dc:format>
        <dc:type
           rdf:resource="http://purl.org/dc/dcmitype/StillImage" />
      </cc:Work>
      <cc:License
         rdf:about="http://creativecommons.org/licenses/by-sa/4.0/">
        <cc:permits
           rdf:resource="http://creativecommons.org/ns#Reproduction" />
        <cc:permits
           rdf:resource="http://creativecommons.org/ns#Distribution" />
        <cc:requires
           rdf:resource="http://creativecommons.org/ns#Notice" />
        <cc:requires
           rdf:resource="http://creativecommons.org/ns#Attribution" />
        <cc:permits
           rdf:resource="http://creativecommons.org/ns#DerivativeWorks" />
        <cc:requires
           rdf:resource="http://creativecommons.org/ns#ShareAlike" />
      </cc:License>
    </rdf:RDF>
  </metadata>
  <g
     id="g2133"
     inkscape:label="icon"
     inkscape:groupmode="layer"
     style="display:inline;enable-background:new"
     transform="translate(-3.3195896e-7,-4.071905e-4)">
    <g
       inkscape:groupmode="layer"
       id="g2035"
       inkscape:label="Baseplate"
       style="display:inline">
      <text
         id="text2019"
         inkscape:label="context"
         style="font-style:normal;font-variant:normal;font-weight:normal;font-stretch:normal;line-height:0%;font-family:'DejaVu Sans';-inkscape-font-specification:'DejaVu Sans';display:inline;fill:#000000;fill-opacity:1;stroke:none;enable-background:new"
         x="19.006836"
         xml:space="preserve"
         y="-8.2548828"><tspan
           id="tspan2017"
           sodipodi:role="line"
           x="19.006836"
           y="-8.2548828"
           style="font-style:normal;font-variant:normal;font-weight:normal;font-stretch:normal;font-size:18px;line-height:1.25;font-family:'DejaVu Sans';-inkscape-font-specification:'DejaVu Sans'">places</tspan></text>
      <text
         id="text2023"
         inkscape:label="icon-name"
         style="font-style:normal;font-variant:normal;font-weight:bold;font-stretch:normal;line-height:0%;font-family:'DejaVu Sans';-inkscape-font-specification:'DejaVu Sans Bold';text-align:start;writing-mode:lr-tb;text-anchor:start;display:inline;fill:#000000;fill-opacity:1;stroke:none;enable-background:new"
         x="146.48828"
         xml:space="preserve"
         y="-8.2548828"><tspan
           sodipodi:role="line"
           x="146.48828"
           y="-8.2548828"
           style="font-style:normal;font-variant:normal;font-weight:bold;font-stretch:normal;font-size:18px;line-height:1.25;font-family:'DejaVu Sans';-inkscape-font-specification:'DejaVu Sans Bold'"
           id="tspan51">folder-new</tspan></text>
      <rect
         inkscape:label="16x16"
         y="236"
         x="320"
         height="16"
         width="16"
         id="rect2025"
         style="display:inline;overflow:visible;visibility:visible;fill:#cdcdcd;fill-opacity:1;fill-rule:nonzero;stroke:none;stroke-width:2;marker:none;enable-background:accumulate" />
      <rect
         inkscape:label="24x24"
         y="188"
         x="320"
         height="24"
         width="24"
         id="rect2027"
         style="display:inline;overflow:visible;visibility:visible;fill:#cdcdcd;fill-opacity:1;fill-rule:nonzero;stroke:none;stroke-width:2;marker:none;enable-background:accumulate" />
      <rect
         inkscape:label="32x32"
         y="132"
         x="320"
         height="32"
         width="32"
         id="rect2029"
         style="display:inline;overflow:visible;visibility:visible;fill:#cdcdcd;fill-opacity:1;fill-rule:nonzero;stroke:none;stroke-width:2;marker:none;enable-background:accumulate" />
      <rect
         style="display:inline;overflow:visible;visibility:visible;fill:#cdcdcd;fill-opacity:1;fill-rule:nonzero;stroke:none;stroke-width:2;marker:none;enable-background:accumulate"
         id="rect2031"
         width="48"
         height="48"
         x="320"
         y="60"
         inkscape:label="48x48" />
      <rect
         inkscape:label="48x48"
         y="28"
         x="24"
         height="256"
         width="256"
         id="rect2033"
         style="display:inline;overflow:visible;visibility:visible;fill:#cdcdcd;fill-opacity:1;fill-rule:nonzero;stroke:none;stroke-width:2;marker:none;enable-background:accumulate" />
    </g>
    <g
       style="display:inline"
       inkscape:label="Shape"
       id="g2129"
       inkscape:groupmode="layer">
      <path
         d="m 78.990353,61.996445 c -35.368527,-1e-6 -38.992184,3.625159 -38.992184,38.921875 v 16 l -4.3e-5,98.15736 c -1.5e-5,35.29673 3.624067,39.09291 38.992184,38.91992 h 73.00782 73.00586 c 35.36811,0.17299 38.99413,-3.62319 38.99414,-38.91992 l 4e-5,-98.15736 c 10e-6,-35.29672 -3.62561,-38.919919 -38.99414,-38.919919 h -74.00588 c -11.00075,0 -11.00075,-6.24e-4 -18.77818,-7.778176 l -0.4456,-0.445607 c -7.77805,-7.778173 -7.77893,-7.778173 -18.77818,-7.778173 z"
         style="display:inline;overflow:visible;opacity:0.2;fill:#000000;fill-opacity:1;marker:none;filter:url(#filter24);enable-background:accumulate"
         id="path2-6-2"
         sodipodi:nodetypes="sscscccssssssss" />
      <path
         d="m 78.990352,63.996533 c -35.368527,-0.0011 -38.992184,3.625159 -38.992184,38.921877 v 16 l -4.2e-5,94.15732 c -1.6e-5,35.29673 3.624067,39.09291 38.992184,38.91992 h 73.00782 73.00586 c 35.36811,0.173 38.99413,-3.62319 38.99414,-38.91992 l 4e-5,-94.15732 c 10e-6,-35.296713 -3.62561,-38.919923 -38.99414,-38.919923 h -73.31711 c -10.38776,0 -12.15249,-0.37096 -20.81613,-7.302061 l -0.80682,-0.645474 c -9.50049,-7.600602 -11.29445,-8.053225 -22.95739,-8.053575 z"
         style="display:inline;overflow:visible;opacity:0.2;fill:#000000;fill-opacity:1;marker:none;filter:url(#filter44);enable-background:accumulate"
         id="path2-7"
         sodipodi:nodetypes="sscscccsssccsss" />
      <path
         d="m 78.990353,59.996507 c -35.368527,-0.0011 -38.992184,3.625159 -38.992184,38.921877 v 15.999996 l -4.3e-5,98.15736 c -1.5e-5,35.29673 3.624067,39.09291 38.992184,38.91992 h 73.00782 73.00586 c 35.36811,0.17299 38.99413,-3.62319 38.99414,-38.91992 l 4e-5,-98.15736 c 10e-6,-35.29671 -3.62561,-38.919919 -38.99414,-38.919919 h -73.31711 c -10.38776,0 -12.15249,-0.37096 -20.81613,-7.302061 l -0.80682,-0.645474 c -9.50049,-7.600604 -11.29445,-8.053225 -22.95739,-8.053575 z"
         style="display:inline;overflow:visible;fill:url(#linearGradient5);marker:none;enable-background:accumulate"
         id="path2"
         sodipodi:nodetypes="sscscccsssccsss" />
      <path
         d="m 78.990353,59.996602 c -35.368527,-0.0011 -38.992184,3.625163 -38.992184,38.921882 v 1.999996 c 0,-35.296714 3.623657,-38.922978 38.992184,-38.921878 h 28.117187 c 11.66294,3.5e-4 13.45654,0.454087 22.95703,8.054687 l 0.80664,0.644531 c 8.66364,6.931101 10.42865,7.302731 20.81641,7.302731 h 73.31641 c 35.36853,0 38.99414,3.62322 38.99414,38.919929 v -2 c 0,-35.296719 -3.62561,-38.919929 -38.99414,-38.919929 h -73.31641 c -10.38776,0 -12.15277,-0.37163 -20.81641,-7.302731 l -0.80664,-0.644531 c -9.50049,-7.6006 -11.29409,-8.054337 -22.95703,-8.054687 z"
         style="display:inline;overflow:visible;opacity:0.3;fill:#ffffff;fill-opacity:1;marker:none;enable-background:accumulate"
         id="path45"
         sodipodi:nodetypes="cscccccsscssscccc" />
      <path
         d="m 155.68581,89.998381 c -15.8425,-1.2e-5 -17.11814,0.34778 -20.81641,3.302813 l -0.80664,0.644531 c -10.07839,8.052955 -10.07839,8.052955 -22.95703,8.052735 l -32.115715,0.002 c -34.901382,0 -38.893062,3.52931 -38.992187,37.53906 l -4.3e-5,71.53632 c -2.48e-4,35.29673 3.624065,39.09487 38.992187,38.92188 h 73.007808 73.00586 c 34.90234,0.17071 38.8929,-3.52505 38.99218,-37.54297 0.001,-0.45397 0.002,-0.91408 0.002,-1.37891 l 4e-5,-82.15554 c 2.4e-4,-35.296712 -3.62561,-38.921844 -38.99414,-38.921869 z"
         style="display:inline;overflow:visible;opacity:0.4;fill:#000000;fill-opacity:1;marker:none;enable-background:accumulate"
         id="path7-6"
         sodipodi:nodetypes="sccccccccccscss" />
      <path
         d="m 155.68608,91.998428 c -15.8425,-1.2e-5 -17.11814,0.34778 -20.81641,3.302813 l -0.80664,0.644531 c -10.0784,8.052958 -10.0784,8.052958 -22.95703,8.052738 l -32.115723,0.002 c -34.901382,0 -38.893062,3.52931 -38.992187,37.53906 l -4.3e-5,71.53632 c -2.48e-4,35.29673 3.624065,39.09487 38.992187,38.92188 h 73.007816 73.00586 c 34.90234,0.17071 38.8929,-3.52505 38.99218,-37.54297 0.001,-0.45397 0.002,-0.91408 0.002,-1.37891 l 4e-5,-82.15554 c 2.4e-4,-35.296715 -3.62561,-38.921847 -38.99414,-38.921872 z"
         style="display:inline;overflow:visible;fill:#6d6d6d;fill-opacity:1;marker:none;enable-background:accumulate"
         id="path7"
         sodipodi:nodetypes="sccccccccccscss" />
      <path
         d="m 155.68559,91.998428 c -15.8425,-1e-5 -17.11814,0.347698 -20.81641,3.302734 l -0.80664,0.644531 c -10.07839,8.052957 -10.0784,8.052957 -22.95703,8.052737 l -32.115233,0.002 c -34.901385,0 -38.893062,3.52931 -38.992187,37.53906 v 2 c 0.09912,-34.00975 4.090802,-37.53906 38.992187,-37.53906 l 33.115723,-0.002 c 12.87863,2.2e-4 12.87863,2.1e-4 22.95703,-8.052737 l 0.80664,-0.64453 c 3.69827,-2.955031 4.97391,-3.302747 20.81641,-3.302736 h 68.31787 c 35.36619,0 38.9939,3.623876 38.99414,38.914063 v -1.99219 c 0,-35.296714 -3.62561,-38.921873 -38.99414,-38.921873 z"
         style="display:inline;overflow:visible;opacity:0.2;fill:#ffffff;fill-opacity:1;marker:none;enable-background:accumulate"
         id="path14"
         sodipodi:nodetypes="cssccccccsscscscc" />
      <path
         style="color:#000000;display:inline;overflow:visible;visibility:visible;opacity:0.2;fill:#000000;fill-opacity:1;fill-rule:nonzero;stroke:none;stroke-width:1;marker:none;enable-background:accumulate"
         d="m 39.998126,211.07587 v 2 c 0,35.29673 3.624067,39.09487 38.992184,38.92188 h 73.00782 73.00586 c 35.36811,0.17299 38.99414,-3.62515 38.99414,-38.92188 v -2 c 0,35.29673 -3.62603,39.09487 -38.99414,38.92188 H 151.99813 78.99031 C 43.622193,250.17074 39.998126,246.3726 39.998126,211.07587 Z"
         id="rect4158-6"
         inkscape:connector-curvature="0"
         sodipodi:nodetypes="cscccsccccc" />
      <path
         d="m 330.58024,64.99911 -0.50196,0.008 h -0.006 c -1.95768,0.0272 -3.49514,0.1559 -4.73047,0.47656 -1.23533,0.32066 -2.1823,0.85134 -2.84767,1.66406 C 321.16385,68.77302 321,70.28757 321,74.23195 v 4 4 12.53922 c -8e-5,4.13311 0.18446,6.70232 1.69531,8.29491 0.75543,0.7963 1.81087,1.28106 3.19922,1.5625 1.38835,0.28145 3.12882,0.37305 5.35352,0.37305 H 344 356.75195 c 2.22467,0 3.9652,-0.0916 5.35352,-0.37305 1.38833,-0.28145 2.44381,-0.7662 3.19922,-1.5625 1.51081,-1.59259 1.69523,-4.1618 1.69531,-8.29491 v -5.82438 h -0.004 C 366.99676,88.88349 367,88.8369 367,88.77101 v -6.53906 -0.006 -3.99414 c 0,-4.13412 -0.18478,-6.71428 -1.69531,-8.3125 -0.75527,-0.79911 -1.81217,-1.28515 -3.20117,-1.56445 -1.38851,-0.27913 -3.12763,-0.36429 -5.35157,-0.35348 h -12.42187 c -2.07793,4.3e-4 -2.59704,0.96019 -4.48422,-0.57269 h -0.002 l -0.69336,-0.55468 c -1.86816,-1.49486 -2.4846,-1.87322 -5.33785,-1.87305 -1.0978,5.2e-4 -2.16016,0.003 -3.23241,0.006 z"
         style="baseline-shift:baseline;display:inline;overflow:visible;opacity:0.1;vector-effect:none;marker:none;enable-background:accumulate;stop-color:#000000"
         id="path78"
         sodipodi:nodetypes="cccscscccssscssscccsccssccccccccc" />
      <path
         d="m 330.08015,64.5073 c -7.75545,0.10779 -8.58014,0.87131 -8.58014,8.72507 v 4 10.53869 6.00016 c 0,8.22948 0.90592,9.73046 9.74812,9.73046 h 12.75205 12.75205 c 8.8422,0 9.74813,-1.50097 9.74813,-9.73046 v -5.82438 c -8.5e-4,0.52103 -0.0227,0.94072 -0.0332,1.4082 0.0117,-0.51955 0.0332,-0.99811 0.0332,-1.58398 V 77.23237 c 0,-8.23154 -0.90603,-9.77372 -9.74813,-9.73047 H 344.3297 c -2.23458,0 -2.96432,-0.21592 -4.2082,-1.21118 l -0.69243,-0.55393 c -1.54307,-1.23458 -1.9147,-1.23458 -5.61581,-1.23492 -1.26807,5.9e-4 -2.49074,0.002 -3.73311,0.006 z"
         style="display:inline;overflow:visible;fill:url(#linearGradient36);stroke-width:1;marker:none;enable-background:accumulate"
         id="path35"
         sodipodi:nodetypes="csccsscssccssccccccc" />
      <path
         d="m 333.8125,65.00195 c -1.26515,6e-4 -2.48545,0.002 -3.72461,0.006 -0.002,1e-5 -0.004,-10e-6 -0.006,0 -1.92716,0.0269 -3.4139,0.0975 -4.52539,0.29687 -1.11292,0.19959 -1.82877,0.51581 -2.32031,1.01172 -0.49154,0.49592 -0.80501,1.21575 -0.99414,2.33789 C 322.05324,69.7764 322,71.27773 322,73.23242 v 4 10.53906 6 c 0,4.0964 0.26911,6.39218 1.42187,7.60742 0.5764,0.60762 1.40346,1.01239 2.67188,1.26953 1.26842,0.25712 2.95789,0.35352 5.1543,0.35352 H 344 356.75195 c 2.19641,0 3.88588,-0.0964 5.1543,-0.35352 1.26842,-0.25714 2.09744,-0.66191 2.67383,-1.26953 C 365.73284,100.16366 366,97.86788 366,93.77148 v -4.42773 h -0.0332 C 365.9787,88.81732 366,88.34512 366,87.77148 V 77.23242 c 0,-4.09743 -0.26886,-6.40506 -1.42188,-7.625 -0.5765,-0.60997 -1.40416,-1.01657 -2.67187,-1.27149 -1.26771,-0.25492 -2.95639,-0.34472 -5.15234,-0.33398 h -12.42383 c -2.26679,0 -3.23066,-0.2875 -4.52149,-1.32031 l -0.6914,-0.55469 c -0.75625,-0.60506 -1.12651,-0.84422 -1.78711,-0.98047 -0.6606,-0.13623 -1.66702,-0.14436 -3.51758,-0.14453 z m 0,1 c 1.84767,1.7e-4 2.84487,0.0258 3.31641,0.12305 0.50626,0.10441 0.63098,0.19731 1.36328,0.7832 v -0.002 l 0.6914,0.55664 c 1.40976,1.12797 2.79515,1.53906 5.14649,1.53906 h 12.42578 0.004 c 2.16618,-0.0106 3.80527,0.0844 4.94921,0.31446 1.14871,0.23098 1.74189,0.55456 2.14258,0.97851 0.7739,0.81883 1.14844,2.88382 1.14844,6.9375 v 10.53906 c 0,0.54889 -0.021,1.00896 -0.0332,1.54883 l -0.0234,1.02344 H 365 v 3.42773 c 0,4.05292 -0.37146,6.10495 -1.14453,6.91992 -0.3995,0.42115 -0.99714,0.74317 -2.14844,0.97657 -1.14667,0.23253 -2.78793,0.33403 -4.95508,0.33403 H 344 331.24805 c -2.16715,0 -3.80841,-0.10154 -4.95508,-0.33398 -1.15111,-0.23336 -1.74619,-0.55459 -2.14649,-0.97657 C 323.37302,99.87602 323,97.82408 323,93.77148 v -6 -10.53906 -4 c 0,-1.93658 0.0587,-3.40378 0.22852,-4.41211 0.17068,-1.01269 0.41815,-1.49751 0.71875,-1.80078 0.29943,-0.3021 0.77953,-0.55012 1.78515,-0.73047 0.99658,-0.17873 2.44956,-0.25438 4.35156,-0.28125 10e-4,0 0.003,10e-6 0.008,0 1.2376,-0.004 2.45686,-0.005 3.7207,-0.006 z"
         style="baseline-shift:baseline;display:inline;overflow:visible;opacity:0.2;vector-effect:none;fill:url(#linearGradient9);marker:none;enable-background:accumulate;stop-color:#000000"
         id="path8" />
      <path
         d="m 344.00195,71.501953 c -1.97864,0.02241 -2.6988,0.264754 -3.8789,1.208984 l -0.69336,0.554688 c -1.33005,1.064147 -1.79009,1.210083 -4.26172,1.230469 -0.39586,0.0033 -0.84258,0.0039 -1.35352,0.0039 -0.86999,-4.05e-4 -1.7158,-0.0022 -2.56445,-0.0039 -8.8421,-0.04325 -9.75015,1.498929 -9.75,9.730468 v 9.548829 c 1.5e-4,8.225909 0.90731,9.726559 9.74805,9.726559 H 344 356.75195 c 8.8422,0 9.74985,-1.50096 9.75,-9.730466 v -9.544922 -2.99414 c 1.5e-4,-8.23154 -0.9079,-9.773719 -9.75,-9.730469 z"
         style="display:inline;overflow:visible;fill:#6d6d6d;fill-opacity:1;marker:none;enable-background:accumulate"
         id="path11"
         sodipodi:nodetypes="csssccccscsccscc" />
      <path
         d="m 330.58008,64 -0.50196,0.0078 h -0.006 c -1.94695,0.02706 -3.47043,0.09318 -4.69336,0.3125 -1.22293,0.219318 -2.1675,0.602813 -2.85157,1.292969 -0.68406,0.690156 -1.06167,1.641749 -1.26953,2.875 C 321.05011,69.721545 321,71.260231 321,73.232422 v 4 6.988281 0.0059 9.548829 c 2e-5,1.032117 0.0119,1.968172 0.0527,2.814453 0.0613,1.269296 0.18801,2.341747 0.44141,3.24414 0.0844,0.300305 0.18425,0.583465 0.29883,0.847655 0.0572,0.13179 0.12,0.26154 0.18555,0.38477 0.0656,0.12319 0.13645,0.24251 0.21093,0.35742 0.0745,0.1149 0.1543,0.22709 0.23828,0.33398 0.084,0.1069 0.17353,0.20943 0.26758,0.3086 0.36027,0.37979 0.78871,0.68966 1.28906,0.93945 0.54901,0.27349 1.18637,0.47582 1.91211,0.62305 1.38821,0.28136 3.12724,0.37304 5.35157,0.37304 H 344 356.75195 c 2.22467,0 3.96506,-0.0916 5.35352,-0.37304 1.38846,-0.28145 2.44362,-0.76623 3.19922,-1.5625 0.1889,-0.19907 0.35614,-0.4138 0.50586,-0.64453 0.14963,-0.23075 0.28161,-0.47749 0.39648,-0.74219 0.11498,-0.2647 0.21414,-0.5467 0.29883,-0.847658 0.11262,-0.400233 0.1974,-0.839487 0.26562,-1.308594 v -0.002 c 0.0193,-0.133585 0.0287,-0.288288 0.0449,-0.427734 0.002,-0.02114 0.005,-0.04318 0.008,-0.06445 0.0355,-0.313123 0.0694,-0.635125 0.0918,-0.978516 7e-5,-0.0012 -8e-5,-0.0028 0,-0.0039 0.004,-0.05732 0.0122,-0.103928 0.0156,-0.162109 0.0439,-0.756677 0.0517,-1.638358 0.0566,-2.548829 1.9e-4,-0.03558 0.002,-0.06378 0.002,-0.09961 7.6e-4,-0.16921 0.0117,-0.290088 0.0117,-0.464844 v -9.544922 -2.99414 c 1e-5,-0.233078 -5.8e-4,-0.460292 -0.002,-0.683594 v -3.316406 c 0,-4.134115 -0.18478,-6.71428 -1.69531,-8.3125 -0.75527,-0.79911 -1.81217,-1.285143 -3.20117,-1.564453 -1.38851,-0.279209 -3.12763,-0.364325 -5.35157,-0.353516 h -12.42187 c -2.20237,0 -2.69955,-0.143862 -3.89649,-1.101562 l -0.6914,-0.554688 c -0.78683,-0.629523 -1.37468,-1.007208 -2.21094,-1.179687 -0.83626,-0.17248 -1.8682,-0.163893 -3.71875,-0.164063 -1.09782,5.11e-4 -2.16007,0.003 -3.23242,0.0059 z m 3.23242,1.001953 c 1.85056,1.7e-4 2.85698,0.0083 3.51758,0.144531 0.6606,0.136251 1.03086,0.375412 1.78711,0.980469 l 0.6914,0.554688 c 1.29083,1.032819 2.2547,1.320312 4.52149,1.320312 h 12.42383 c 2.19595,-0.01074 3.88463,0.07906 5.15234,0.333984 1.26771,0.25492 2.09537,0.661514 2.67187,1.271485 0.76562,0.810058 1.14056,2.099446 1.30665,4.074219 -0.16724,-0.275967 -0.35821,-0.52912 -0.57813,-0.761719 -0.75551,-0.799078 -1.81394,-1.285147 -3.20312,-1.564453 -1.38868,-0.279205 -3.12763,-0.364325 -5.35157,-0.353516 H 344 343.996 c -2.01808,0.02286 -2.96055,0.338208 -4.18554,1.318359 L 339.11719,72.875 c -0.65178,0.521471 -1.02507,0.770984 -1.5293,0.917969 -0.50423,0.146985 -1.1976,0.193011 -2.42383,0.203125 -0.39323,0.0033 -0.83906,0.0039 -1.34961,0.0039 -0.86945,-4.05e-4 -1.71381,-0.0022 -2.5625,-0.0039 -2.2251,-0.01088 -3.96433,0.07421 -5.35351,0.353515 -1.38918,0.279306 -2.44762,0.765376 -3.20313,1.564453 -0.27276,0.288489 -0.50229,0.608992 -0.69531,0.964844 v -3.646484 c 0,-1.95469 0.0531,-3.455978 0.24219,-4.578125 0.18913,-1.122147 0.5026,-1.841973 0.99414,-2.337891 0.49154,-0.495918 1.20739,-0.812129 2.32031,-1.011719 1.11149,-0.199331 2.59823,-0.269962 4.52539,-0.296875 0.002,-6e-6 0.004,7e-6 0.006,0 1.23903,-0.004 2.45946,-0.0053 3.72461,-0.0059 z m 10.18945,7 h 0.006 12.7461 c 2.19595,-0.01074 3.88443,0.07906 5.15234,0.333984 1.26791,0.254925 2.09708,0.661482 2.67383,1.271485 1.0938,1.156877 1.39208,3.292391 1.41992,7.003906 0.002,0.202529 0.002,0.409078 0.002,0.621094 v 2.99414 9.544922 c -7e-5,4.096372 -0.26866,6.392126 -1.42187,7.607426 -0.21623,0.22787 -0.46861,0.42784 -0.76563,0.60156 -0.0986,0.0576 -0.20358,0.112 -0.3125,0.16406 -0.21849,0.10435 -0.46014,0.1998 -0.72461,0.2832 -0.26463,0.0834 -0.55461,0.15656 -0.87109,0.22071 -1.26859,0.25715 -2.95789,0.35351 -5.1543,0.35351 H 344 331.24805 c -2.19601,0 -3.88596,-0.0964 -5.1543,-0.35351 -1.26835,-0.25707 -2.09543,-0.66214 -2.67188,-1.26953 -0.43233,-0.45555 -0.74087,-1.06419 -0.95703,-1.861332 -0.21586,-0.796841 -0.33949,-1.786089 -0.40429,-3 -0.0432,-0.809425 -0.0605,-1.719272 -0.0605,-2.742187 v -9.548829 -0.0039 c 7e-5,-4.095382 0.2687,-6.401405 1.42187,-7.621094 0.57675,-0.610001 1.40592,-1.01656 2.67383,-1.271484 1.26792,-0.254924 2.9564,-0.344725 5.15235,-0.333984 0.84861,0.0017 1.69588,0.0035 2.5664,0.0039 0.51133,0 0.95894,-5.9e-4 1.35742,-0.0039 1.24541,-0.01027 2.01911,-0.04703 2.69532,-0.244141 0.6762,-0.197116 1.19672,-0.553027 1.875,-1.095703 l 0.69336,-0.554688 c 1.13363,-0.907047 1.63389,-1.077267 3.5664,-1.099609 z m 22.375,25.226563 c -9e-5,0.0011 9e-5,0.0028 0,0.0039 -0.0657,0.83797 -0.15333,1.615654 -0.3125,2.25 -0.004,0.0159 -0.01,0.03109 -0.0137,0.04687 0.16597,-0.645858 0.25918,-1.440065 0.32617,-2.300781 z m -0.59375,3.136714 c -0.0128,0.0323 -0.0218,0.0701 -0.0352,0.10157 -0.12928,0.30357 -0.28219,0.5755 -0.45703,0.82422 0.1922,-0.2752 0.35517,-0.5837 0.49218,-0.92579 z"
         style="baseline-shift:baseline;display:inline;overflow:visible;opacity:0.4;vector-effect:none;marker:none;enable-background:accumulate;stop-color:#000000;stop-opacity:1"
         id="path27" />
      <path
         d="m 344.00195,72.001953 c -1.93251,0.02234 -2.43277,0.192562 -3.5664,1.099609 l -0.69336,0.554688 c -0.67828,0.542676 -1.1988,0.898587 -1.875,1.095703 -0.67621,0.197111 -1.4499,0.233871 -2.69532,0.244141 -0.39848,0.0033 -0.84609,0.0039 -1.35742,0.0039 -0.87052,-4e-4 -1.71779,-0.0022 -2.5664,-0.0039 -2.19595,-0.01074 -3.88443,0.07906 -5.15235,0.333984 -1.26791,0.254924 -2.09708,0.661484 -2.67383,1.271484 -1.15348,1.220006 -1.42194,3.527619 -1.42187,7.625 v 9.548829 c 7e-5,4.094575 0.26898,6.388729 1.42187,7.603519 0.57646,0.60739 1.40353,1.01246 2.67188,1.26953 1.26835,0.25711 2.95826,0.35351 5.1543,0.35351 H 344 356.75195 c 2.19641,0 3.88571,-0.0964 5.1543,-0.35351 1.26859,-0.25715 2.09722,-0.66188 2.67383,-1.26953 1.15321,-1.2153 1.4218,-3.511054 1.42187,-7.607426 v -9.544922 -2.99414 c 8e-5,-4.097384 -0.26838,-6.404995 -1.42187,-7.625 -0.57675,-0.610003 -1.40592,-1.01656 -2.67383,-1.271485 -1.26791,-0.254924 -2.95639,-0.344724 -5.15234,-0.333984 h -12.7461 z m 0,1 h 0.0117 12.74219 0.004 c 2.16618,-0.01059 3.80501,0.0844 4.94921,0.314453 1.14908,0.231033 1.74411,0.555008 2.14454,0.978516 0.77422,0.818868 1.14851,2.883803 1.14843,6.9375 v 2.99414 9.544922 c -7e-5,4.052667 -0.37274,6.104519 -1.14648,6.919926 -0.39995,0.42147 -0.99698,0.74315 -2.14844,0.97656 -1.1469,0.23245 -2.78793,0.33398 -4.95508,0.33398 H 344 331.24805 c -2.16678,0 -3.80854,-0.10156 -4.95508,-0.33398 -1.15086,-0.23326 -1.746,-0.55458 -2.14649,-0.97656 C 323.3729,99.87628 323.00007,97.826189 323,93.775391 v -9.548829 c -7e-5,-4.053695 0.37422,-6.11863 1.14844,-6.9375 0.40042,-0.423507 0.99545,-0.747484 2.14453,-0.978515 1.14421,-0.230052 2.78304,-0.325048 4.94922,-0.314453 h 0.002 0.002 c 0.84853,0.0017 1.69676,0.0035 2.56836,0.0039 0.51212,0 0.96156,-5.69e-4 1.36524,-0.0039 1.26167,-0.0104 2.12591,-0.03809 2.96679,-0.283203 0.85432,-0.249039 1.5141,-0.710048 2.22071,-1.275391 l 0.69336,-0.554688 c 1.06572,-0.852711 1.08392,-0.859356 2.9414,-0.880859 z"
         style="baseline-shift:baseline;display:inline;overflow:visible;opacity:0.2;vector-effect:none;fill:url(#linearGradient19);marker:none;enable-background:accumulate;stop-color:#000000;stop-opacity:1"
         id="path18"
         sodipodi:nodetypes="sssssccssccssscsssccsssccscccssssccssscsssccssscscsssscc" />
      <path
         d="m 327.7832,135.9991 c -1.4387,0 -2.56943,0.0485 -3.48828,0.24219 -0.91935,0.19377 -1.64604,0.54102 -2.16211,1.11328 C 321.10067,138.49909 321,140.27491 321,143.07332 v 2 3 6.85163 c 0,1.39882 0.0255,2.54017 0.17969,3.47461 0.0387,0.23361 0.0862,0.45556 0.14258,0.66406 0.0561,0.20758 0.12223,0.40562 0.19921,0.58985 0.15478,0.36992 0.35519,0.69336 0.61329,0.97851 0.0642,0.0709 0.13244,0.13902 0.20312,0.20313 0.0707,0.0641 0.14559,0.12606 0.22266,0.18359 0.0771,0.0575 0.15879,0.11281 0.24218,0.16406 0.41899,0.25723 0.9168,0.43867 1.49024,0.56055 0.45927,0.0976 0.97297,0.16161 1.55078,0.20117 0.57736,0.0395 1.22048,0.0547 1.93945,0.0547 H 336 h 8.2168 c 0.71896,0 1.36405,-0.0152 1.9414,-0.0547 0.57781,-0.0396 1.08956,-0.10354 1.54883,-0.20117 0.57344,-0.12188 1.0732,-0.30332 1.49219,-0.56055 0.0834,-0.0513 0.16511,-0.10658 0.24219,-0.16406 0.0771,-0.0575 0.15197,-0.11954 0.22265,-0.18359 0.0707,-0.0641 0.13694,-0.13221 0.20117,-0.20313 0.51621,-0.57031 0.80044,-1.29795 0.95508,-2.23242 C 350.9745,157.4651 351,156.3238 351,154.92495 v -6.85163 -3 c 0,-2.79841 -0.10067,-4.57424 -1.13281,-5.71875 -0.51607,-0.57226 -1.24276,-0.91951 -2.16211,-1.11328 -0.91884,-0.19367 -2.0496,-0.2495 -3.48828,-0.24219 h -8.23243 c -1.19371,0 -1.54795,-0.0848 -2.61328,-0.75781 l -0.23242,-0.14453 c -1.61455,-1.01993 -1.88129,-1.09766 -3.79101,-1.09766 h -1.40821 -0.15429 z"
         style="baseline-shift:baseline;display:inline;overflow:visible;opacity:0.1;vector-effect:none;marker:none;enable-background:accumulate;stop-color:#000000"
         id="path117"
         sodipodi:nodetypes="ssssccscscssscssscssscssccscssscsccsccs" />
      <path
         d="m 327.7832,135.49911 c -5.69818,-0.0293 -6.2832,1.01247 -6.2832,6.57422 v 2 6.85156 3.00007 c 0,5.56037 0.58496,6.57422 6.2832,6.57422 H 336 h 8.21679 c 5.69824,0 6.2832,-1.01385 6.2832,-6.57422 v -3.00007 -6.85156 c 0,-5.56175 -0.58502,-6.60345 -6.2832,-6.57422 h -8.23155 c -1.23077,0 -1.77773,-0.13677 -2.88116,-0.83381 l -0.23154,-0.14626 c -1.61455,-1.01993 -1.61455,-1.01993 -3.52427,-1.01993 h -1.40882 z"
         style="display:inline;overflow:visible;fill:url(#linearGradient93);stroke:none;marker:none;enable-background:accumulate"
         id="path81"
         sodipodi:nodetypes="csccsscsscsccccccc" />
      <path
         d="m 327.7832,160.00099 c -1.40973,0 -2.48756,-0.0657 -3.28125,-0.23437 -0.79368,-0.16865 -1.28463,-0.42454 -1.62695,-0.80274 -0.68464,-0.7564 -0.875,-2.27446 -0.875,-5.03711 v -3.00007 -6.85156 -2 c 0,-2.76335 0.19204,-4.28935 0.87695,-5.04883 0.34246,-0.37974 0.8301,-0.63756 1.62305,-0.80469 0.79295,-0.1671 1.87198,-0.2277 3.28125,-0.2207 h 0.1582 1.40821 c 1.90971,0 1.64325,-0.0785 3.25781,0.94141 l 0.23242,0.14648 c 1.1416,0.72111 1.87868,0.91211 3.14648,0.91211 h 8.23438 c 1.40927,-0.007 2.4883,0.0536 3.28125,0.2207 0.79295,0.16713 1.28059,0.42495 1.62305,0.80469 0.68491,0.75947 0.87695,2.28548 0.87695,5.04883 v 6.85156 3.00007 c 0,2.76265 -0.19036,4.28071 -0.875,5.03711 -0.34232,0.3782 -0.83327,0.6341 -1.62695,0.80274 -0.79369,0.16868 -1.87152,0.23437 -3.28125,0.23437 H 336 Z m 0,-1 H 336 h 8.2168 c 1.37866,0 2.40891,-0.0715 3.07422,-0.21289 0.67452,-0.14332 0.9181,-0.30419 1.09179,-0.49609 C 348.68263,157.96076 349,156.64348 349,153.92677 v -3.00007 -6.85156 c 0,-2.71702 -0.31814,-4.04514 -0.61914,-4.37891 -0.17703,-0.1963 -0.41706,-0.3547 -1.08789,-0.49609 -0.66157,-0.13942 -1.69027,-0.19922 -3.06836,-0.19922 h -0.004 -8.23633 c -1.36823,0 -2.44118,-0.28408 -3.67968,-1.06641 l -0.23242,-0.14648 c -1.63689,-1.03407 -0.78741,-0.78711 -2.72452,-0.78711 h -1.40821 -0.16015 -0.004 c -1.37809,0 -2.40679,0.0598 -3.06836,0.19922 -0.67083,0.14139 -0.91086,0.29979 -1.08789,0.49609 C 323.31813,138.03002 323,139.35812 323,142.07514 v 2 6.85156 3.00007 c 0,2.71671 0.31737,4.03399 0.61719,4.36524 0.17369,0.19189 0.41726,0.35276 1.09179,0.49609 0.66527,0.14139 1.69556,0.21289 3.07422,0.21289 z"
         style="baseline-shift:baseline;display:inline;overflow:visible;opacity:0.2;vector-effect:none;fill:url(#linearGradient106);marker:none;enable-background:accumulate;stop-color:#000000"
         id="path105"
         sodipodi:nodetypes="ssssccsssccsccscssscsssscsscsssscsssscsccsccsscsccssss" />
      <path
         d="m 335.98437,140.49952 c -1.23077,0 -1.77742,0.13694 -2.88085,0.83398 l -0.23047,0.14649 c -1.61268,1.01873 -1.61654,1.01953 -3.51953,1.01953 h -1.57032 c -0.15104,-7.7e-4 -0.29942,-7.9e-4 -0.44336,0 -5.28621,0.0292 -5.83984,1.15993 -5.83984,6.57422 v 4.85009 c 0,5.56037 0.58496,6.57617 6.2832,6.57617 H 336 h 8.2168 c 5.69824,0 6.2832,-1.0158 6.2832,-6.57617 v -4.85009 -2 c 0,-5.41433 -0.55353,-6.54504 -5.83984,-6.57422 -0.14394,-7.9e-4 -0.29232,-7.7e-4 -0.44336,0 H 336 Z"
         style="display:inline;overflow:visible;fill:#6d6d6d;fill-opacity:1;marker:none;enable-background:accumulate"
         id="path29"
         sodipodi:nodetypes="sccsccssscsscssccs" />
      <path
         d="m 327.66797,134.9253 c -1.4387,0 -2.57139,0.0505 -3.49024,0.24414 -0.91935,0.19377 -1.64408,0.53907 -2.16015,1.11133 -1.03215,1.14452 -1.13281,2.92034 -1.13281,5.71875 v 2 5 4.85009 0.002 c 10e-6,0.69859 0.006,1.33549 0.0312,1.91211 0.0258,0.57636 0.0712,1.09759 0.14843,1.56445 0.15473,0.93395 0.43929,1.66033 0.95508,2.23047 0.51615,0.57055 1.23954,0.91592 2.1582,1.11133 0.91866,0.19541 2.05083,0.25586 3.49024,0.25586 h 8.2168 8.21679 c 1.43852,0 2.57188,-0.0608 3.49024,-0.25586 0.91866,-0.19541 1.64205,-0.54078 2.1582,-1.11133 0.0642,-0.0709 0.1264,-0.1448 0.18359,-0.2207 0.0571,-0.0759 0.11156,-0.15723 0.16211,-0.23828 0.0505,-0.0811 0.0983,-0.16556 0.14258,-0.25195 0.0443,-0.0864 0.0865,-0.17759 0.125,-0.26954 0.0772,-0.18451 0.14292,-0.38191 0.19922,-0.58984 0.0562,-0.20803 0.10398,-0.42912 0.14258,-0.66211 0.0772,-0.46687 0.12268,-0.9881 0.14844,-1.56445 0.0257,-0.57662 0.0312,-1.21353 0.0312,-1.91211 v -4.85014 -2 -3 c 0,-2.79841 -0.10263,-4.57424 -1.13477,-5.71875 -0.51607,-0.57225 -1.2408,-0.91756 -2.16016,-1.11133 -0.91833,-0.19355 -2.05074,-0.25137 -3.48828,-0.24414 h -8.23242 c -1.19373,0 -1.54796,-0.0829 -2.61328,-0.75586 l -0.23242,-0.14648 c -1.61455,-1.01993 -1.8813,-1.09766 -3.79102,-1.09766 h -1.4082 -0.1543 z m -0.004,1 h 0.002 0.1582 1.4082 c 1.90972,0 1.64326,-0.0766 3.25781,0.94336 l 0.23047,0.14648 c 1.14154,0.72113 1.88063,0.91016 3.14844,0.91016 h 8.23242 0.002 c 1.40928,0 2.48634,0.0555 3.27929,0.22266 0.79295,0.16713 1.28255,0.423 1.625,0.80273 0.41913,0.46476 0.65451,1.21652 0.77344,2.36328 -0.47633,-0.54301 -1.14261,-0.89201 -1.97461,-1.0957 -0.86249,-0.21116 -1.92042,-0.28558 -3.25977,-0.29297 -0.14524,-8e-4 -0.29334,-7.7e-4 -0.44531,0 h -8.21679 -0.0156 c -1.26785,0 -2.00697,0.19104 -3.14844,0.91211 l -0.23047,0.14648 c -1.61248,1.0186 -1.3491,0.94141 -3.25195,0.94141 h -1.56836 c -0.15267,-7.8e-4 -0.30139,-8e-4 -0.44726,0 -1.33933,0.007 -2.39727,0.0818 -3.25977,0.29297 -0.86249,0.21117 -1.546,0.57852 -2.02539,1.15625 -0.0179,0.0215 -0.0355,0.0425 -0.0527,0.0644 v -1.4394 c 0,-2.76334 0.19008,-4.28935 0.875,-5.04883 0.34245,-0.37974 0.83205,-0.63561 1.625,-0.80273 0.79294,-0.16713 1.87003,-0.22991 3.27929,-0.22266 z m 8.20508,5 h 0.0156 8.21875 c 0.14941,-7.6e-4 0.29745,-7.8e-4 0.43945,0 1.30381,0.007 2.29733,0.0854 3.02539,0.26367 0.72807,0.17825 1.17436,0.43883 1.49414,0.82422 0.63685,0.76749 0.82227,2.28241 0.82227,4.95117 v 0.0352 2 4.85009 0.002 c -3e-5,0.68977 -0.0125,1.30368 -0.041,1.84571 -0.0285,0.54166 -0.0741,1.01667 -0.14063,1.42578 -0.0832,0.51115 -0.2002,0.9253 -0.35937,1.25586 -0.0315,0.0653 -0.0666,0.13052 -0.10156,0.18945 -0.0349,0.0588 -0.0728,0.11726 -0.11133,0.16992 -0.0385,0.0525 -0.0789,0.1018 -0.12109,0.14844 l -0.002,0.002 c -0.10751,0.11852 -0.22957,0.22458 -0.37109,0.32031 -0.1029,0.0697 -0.21648,0.13488 -0.3418,0.19336 -0.25078,0.11706 -0.54985,0.21201 -0.91211,0.28907 -0.79366,0.16882 -1.87155,0.23437 -3.28125,0.23437 h -8.21679 -8.2168 c -0.70485,0 -1.32816,-0.0172 -1.87305,-0.0547 -0.54394,-0.0375 -1.01191,-0.0954 -1.4082,-0.17968 h -0.002 c -0.69448,-0.14758 -1.15647,-0.36333 -1.49024,-0.66797 -0.0474,-0.0433 -0.0922,-0.0898 -0.13476,-0.13672 -0.0425,-0.0469 -0.0843,-0.0975 -0.12305,-0.15039 -0.0387,-0.0529 -0.0762,-0.11079 -0.11133,-0.16992 -0.0351,-0.0592 -0.0699,-0.12384 -0.10156,-0.18946 -0.0321,-0.0667 -0.0612,-0.13542 -0.0899,-0.20898 -0.0568,-0.1454 -0.10788,-0.30483 -0.15234,-0.47852 -0.0444,-0.17386 -0.082,-0.3643 -0.11523,-0.56836 -0.0665,-0.40911 -0.11209,-0.88411 -0.14063,-1.42578 -0.0285,-0.54202 -0.041,-1.15593 -0.041,-1.8457 v -4.85022 c 0,-2.6901 0.18267,-4.21554 0.82226,-4.98633 0.31979,-0.38539 0.76608,-0.64596 1.49414,-0.82422 0.72806,-0.17825 1.72161,-0.25647 3.02539,-0.26367 0.142,-7.8e-4 0.29005,-7.6e-4 0.43946,0 h 1.57226 c 1.90313,0 2.17423,-0.0788 3.78711,-1.09766 l 0.23047,-0.14648 c 1.06539,-0.67301 1.4196,-0.75586 2.61328,-0.75586 z m 10.35352,19.42236 c -0.0756,0.006 -0.13637,0.018 -0.21485,0.0234 -0.32844,0.0226 -0.68161,0.0384 -1.06054,0.0469 0.46931,-0.0105 0.88268,-0.0374 1.27539,-0.0703 z m -20.62891,0.006 c 0.60555,0.0483 1.28449,0.0723 2.07422,0.0723 -0.71227,0 -1.34493,-0.0161 -1.90625,-0.0547 -0.061,-0.004 -0.10867,-0.0128 -0.16797,-0.0176 z"
         style="baseline-shift:baseline;display:inline;overflow:visible;opacity:0.4;vector-effect:none;fill:#000000;fill-opacity:1;marker:none;enable-background:accumulate;stop-color:#000000;stop-opacity:1"
         id="path44"
         sodipodi:nodetypes="sssscccsccssscscsssssccssccssscsccsccscccsccscssscssccsccsccsscsssccccccssscccsssssscccssscssccsssscsccsssssscsccsccscccccc" />
      <path
         d="m 335.9834,141.00012 c -1.19367,0 -1.54789,0.083 -2.61328,0.7558 l -0.23047,0.1465 c -1.61289,1.0189 -1.88397,1.0977 -3.7871,1.0977 h -1.57227 c -0.14941,-8e-4 -0.29746,-8e-4 -0.43946,0 -1.30378,0.01 -2.29733,0.085 -3.02539,0.2636 -0.72806,0.1783 -1.17435,0.4369 -1.49414,0.8223 -0.63958,0.7708 -0.82226,2.2982 -0.82226,4.9883 v 4.85008 c 0,2.7627 0.19026,4.2802 0.875,5.0371 0.34237,0.3785 0.8333,0.6339 1.62695,0.8027 0.79366,0.1689 1.87155,0.2364 3.28125,0.2364 h 8.2168 8.21679 c 1.4097,0 2.48759,-0.068 3.28125,-0.2364 0.79365,-0.1688 1.28458,-0.4242 1.62696,-0.8027 0.68473,-0.7569 0.875,-2.2744 0.875,-5.0371 v -4.85008 -2 c 0,-2.6901 -0.18269,-4.2175 -0.82227,-4.9883 -0.31978,-0.3854 -0.76608,-0.644 -1.49415,-0.8223 -0.72806,-0.1782 -1.72158,-0.2566 -3.02539,-0.2636 -0.142,-8e-4 -0.29004,-8e-4 -0.43945,0 h -8.21874 z m 0,1 h 0.0156 8.2207 0.004 c 0.14614,0 0.28965,-8e-4 0.42773,0 1.26645,0.01 2.20324,0.09 2.79297,0.2344 0.60275,0.1475 0.79469,0.2875 0.96289,0.4902 0.28478,0.3432 0.5918,1.7048 0.5918,4.3496 v 2 4.85008 c 0,2.7167 -0.31674,4.0351 -0.61719,4.3672 -0.17351,0.1918 -0.41883,0.3506 -1.09375,0.4941 -0.66648,0.1418 -1.69448,0.2149 -3.07226,0.2149 h -8.21689 -8.2168 c -1.37778,0 -2.40579,-0.073 -3.07226,-0.2149 -0.67492,-0.1435 -0.92024,-0.3023 -1.09375,-0.4941 -0.30046,-0.3321 -0.61719,-1.6505 -0.61719,-4.3672 v -4.85008 c 0,-2.6448 0.307,-4.0064 0.59179,-4.3496 0.16821,-0.2027 0.36014,-0.3427 0.96289,-0.4902 0.58972,-0.1444 1.52655,-0.2276 2.79298,-0.2344 0.13808,-8e-4 0.28159,0 0.42773,0 h 0.004 1.57422 c 1.93073,0 2.68434,-0.2185 4.32031,-1.252 h 0.002 l 0.23242,-0.1465 c 1.00581,-0.6353 0.93108,-0.5996 2.07617,-0.5996 z"
         style="baseline-shift:baseline;display:inline;overflow:visible;opacity:0.2;vector-effect:none;fill:url(#linearGradient39);fill-opacity:1;stroke:none;marker:none;enable-background:accumulate;stop-color:#000000;stop-opacity:1"
         id="path36"
         sodipodi:nodetypes="sccscccsssscscscsscsscsccscccsccsscsscscscsssscsscsccccc" />
      <path
         d="m 325.5957,190.00028 c -0.85817,-0.004 -1.58046,0.01 -2.20117,0.0664 -0.6875,0.0628 -1.25511,0.17682 -1.73633,0.40625 -0.48122,0.22942 -0.86464,0.59214 -1.11328,1.05859 C 320.04765,192.46442 320,193.724 320,195.63699 v 1 3.99805 5.73046 c 0,1.17274 0.0265,2.0946 0.15234,2.84961 0.12585,0.75502 0.36116,1.36739 0.80664,1.81641 0.44549,0.44902 1.05619,0.68735 1.80664,0.81445 0.75047,0.1271 1.66595,0.1543 2.83008,0.1543 H 332 h 6.4043 c 1.16412,0 2.07962,-0.0272 2.83007,-0.1543 0.57691,-0.0977 1.07056,-0.26082 1.47071,-0.53515 0.1204,-0.0825 0.23289,-0.17546 0.33594,-0.2793 0.44548,-0.44902 0.68079,-1.06139 0.80664,-1.81641 C 343.9735,208.46011 344,207.53824 344,206.3655 v -5.73046 -0.002 -3.0332 c -7.6e-4,-1.16441 -0.0291,-2.0819 -0.15625,-2.83399 -0.12711,-0.75208 -0.36451,-1.36287 -0.81055,-1.81054 -0.44603,-0.44768 -1.05659,-0.68525 -1.80664,-0.81055 -0.74953,-0.12521 -1.6619,-0.15022 -2.82226,-0.14453 H 332 331.53711 c -0.23766,0 -0.46543,-0.0969 -0.63086,-0.26758 l -1.04883,-1.08008 c -0.40384,-0.41642 -0.95892,-0.6523 -1.53906,-0.65229 h -2.7207 z"
         style="baseline-shift:baseline;display:inline;overflow:visible;opacity:0.1;vector-effect:none;marker:none;enable-background:accumulate;stop-color:#000000"
         id="path150" />
      <path
         d="m 325.5957,188.49969 c -0.85228,-0.004 -1.56303,0.0103 -2.15625,0.0644 -2.62384,0.23968 -2.93945,1.27399 -2.93945,5.07227 v 1 6.72882 3 c 0,4.65703 0.47367,5.13477 5.0957,5.13477 H 332 h 6.4043 c 4.62202,0 5.0957,-0.47774 5.0957,-5.13477 v -3 -5.76562 c -0.003,-4.62284 -0.48595,-5.12237 -5.0957,-5.09961 h -6.10572 a 3.4183487,3.4183487 15.462377 0 1 -1.75673,-0.48594 l -1.74998,-1.04837 a 3.2779584,3.2779584 15.461784 0 0 -1.68465,-0.46598 z"
         style="display:inline;overflow:visible;fill:url(#linearGradient150);marker:none;enable-background:accumulate"
         id="path120"
         inkscape:path-effect="#path-effect120"
         inkscape:original-d="m 325.5957,188.49969 c -0.85228,-0.004 -1.56303,0.0103 -2.15625,0.0644 -2.62384,0.23968 -2.93945,1.27399 -2.93945,5.07227 v 1 6.72882 3 c 0,4.65703 0.47367,5.13477 5.0957,5.13477 H 332 h 6.4043 c 4.62202,0 5.0957,-0.47774 5.0957,-5.13477 v -3 -5.76562 c -0.003,-4.62284 -0.48595,-5.12237 -5.0957,-5.09961 h -7.0513 l -3.339,-2.00031 z"
         sodipodi:nodetypes="ccsccsscsscccccc"
         transform="translate(0,1.0002725)" />
      <path
         d="m 325.59375,190.00064 c -0.84538,-0.004 -1.54419,0.011 -2.10938,0.0625 -0.62441,0.057 -1.08057,0.16189 -1.39648,0.3125 -0.31591,0.15061 -0.50191,0.32813 -0.66016,0.625 C 321.11124,191.59438 321,192.75207 321,194.63736 v 1 6.72851 3 c 0,1.15579 0.0313,2.04116 0.13867,2.68555 0.10741,0.6444 0.28058,1.02278 0.53125,1.27539 0.25067,0.25261 0.62537,0.42514 1.26367,0.5332 0.63831,0.10804 1.51522,0.14063 2.66211,0.14063 H 332 h 6.4043 c 1.14689,0 2.02385,-0.0326 2.66211,-0.14063 0.6383,-0.10806 1.013,-0.28059 1.26367,-0.5332 0.25067,-0.25261 0.42384,-0.63099 0.53125,-1.27539 C 342.9687,207.40703 343,206.52166 343,205.36587 v -3 -5.76562 c -7.4e-4,-1.14701 -0.0342,-2.02693 -0.14258,-2.66797 -0.10834,-0.64104 -0.27995,-1.01927 -0.53125,-1.27148 -0.25129,-0.25222 -0.62658,-0.42287 -1.26367,-0.5293 -0.63709,-0.10646 -1.51289,-0.13686 -2.65625,-0.13086 h -6.10742 c -0.70924,0 -1.40526,-0.19215 -2.01367,-0.55664 l -1.75,-1.04883 c -0.43141,-0.25844 -0.92484,-0.39454 -1.42774,-0.39453 z m -0.004,1 h 0.002 1.51562 c 0.32247,-1e-5 0.63825,0.0867 0.91406,0.25195 l 1.75,1.04883 c 0.76393,0.45766 1.63749,0.69922 2.52735,0.69922 h 6.10937 0.004 c 1.12295,-0.006 1.96566,0.0302 2.48633,0.11719 0.52869,0.0883 0.65964,0.18871 0.71875,0.24804 0.0591,0.0593 0.16371,0.19875 0.2539,0.73243 0.089,0.52608 0.12818,1.37406 0.12891,2.50195 v 5.76562 3 c 0,1.13774 -0.0369,1.9925 -0.125,2.52149 -0.0892,0.53508 -0.19272,0.67271 -0.25391,0.73437 -0.0601,0.0605 -0.19161,0.16239 -0.7207,0.25196 -0.52237,0.0884 -1.36819,0.12695 -2.49613,0.12695 H 332 325.5957 c -1.12794,0 -1.97372,-0.0385 -2.49609,-0.12695 -0.52909,-0.0896 -0.66063,-0.19142 -0.7207,-0.25196 -0.0612,-0.0617 -0.16472,-0.19929 -0.25391,-0.73437 -0.0881,-0.52899 -0.125,-1.38375 -0.125,-2.52149 v -3 -6.72851 -1 c 0,-1.84596 0.20212,-2.9626 0.31055,-3.16602 0.0831,-0.15587 0.029,-0.10849 0.20703,-0.19336 0.14091,-0.0672 0.50061,-0.16775 1.05664,-0.21875 0.50848,-0.0463 1.18468,-0.0625 2.01562,-0.0586 z"
         style="baseline-shift:baseline;display:inline;overflow:visible;opacity:0.2;vector-effect:none;fill:url(#linearGradient192);marker:none;enable-background:accumulate;stop-color:#000000"
         id="path191" />
      <path
         d="m 331.98047,194.50159 c -0.46021,0 -0.9146,0.10287 -1.33008,0.30078 l -0.85156,0.40625 c -0.40203,0.1916 -0.84176,0.29102 -1.28711,0.29102 h -2.91602 c -4.62187,-0.0228 -5.0957,0.47802 -5.0957,5.13477 v 4.73082 c 0,4.65676 0.47377,5.13477 5.0957,5.13477 H 332 h 6.4043 c 4.62202,0 5.09569,-0.47774 5.0957,-5.13477 v -4.73082 -0.99805 c 0,-4.65702 -0.47373,-5.15759 -5.0957,-5.13477 H 332 Z"
         style="display:inline;overflow:visible;fill:#6d6d6d;fill-opacity:1;marker:none;enable-background:accumulate"
         id="path48"
         sodipodi:nodetypes="sccscssscsscsccs" />
      <path
         d="m 325.5957,189 c -0.85817,-0.004 -1.58046,0.01 -2.20117,0.0664 -0.6875,0.0628 -1.25511,0.17682 -1.73633,0.40625 -0.48122,0.22942 -0.86464,0.59214 -1.11328,1.05859 -0.49727,0.9329 -0.54492,2.19248 -0.54492,4.10547 v 1 4.91992 c 3e-4,-0.28911 0.0106,-0.52223 0.0156,-0.78125 -0.005,0.28279 -0.0156,0.54079 -0.0156,0.85938 v 4.73046 c 0,1.17267 0.0265,2.09466 0.15234,2.84961 0.12585,0.75496 0.36115,1.36745 0.80664,1.81641 0.4455,0.44896 1.05619,0.68738 1.80664,0.81445 0.75046,0.12707 1.66598,0.1543 2.83008,0.1543 H 332 h 6.4043 c 1.16412,0 2.07962,-0.0273 2.83007,-0.1543 0.75046,-0.12704 1.36114,-0.3655 1.80665,-0.81445 0.4455,-0.44895 0.68079,-1.06144 0.80664,-1.81641 C 343.9735,207.45987 344,206.53797 344,205.36523 v -4.73046 -0.99805 -3.03711 c -7.6e-4,-1.16441 -0.0291,-2.0819 -0.15625,-2.83399 -0.12711,-0.75208 -0.36451,-1.36287 -0.81055,-1.81054 -0.44603,-0.44768 -1.05659,-0.68525 -1.80664,-0.81055 -0.74953,-0.12521 -1.6619,-0.15022 -2.82226,-0.14453 h -6.10547 c -0.52829,0 -1.04681,-0.14257 -1.5,-0.41406 l -1.75,-1.04883 c -0.58664,-0.35144 -1.25755,-0.53712 -1.94141,-0.53711 h -1.50976 z m -0.002,1 h 1.51367 c 0.5029,-1e-5 0.99633,0.13609 1.42774,0.39453 l 1.75,1.04883 c 0.60841,0.36449 1.30443,0.55664 2.01367,0.55664 h 6.10742 c 1.14336,-0.006 2.01916,0.0244 2.65625,0.13086 0.63709,0.10643 1.01238,0.27708 1.26367,0.5293 0.2513,0.25221 0.42291,0.63044 0.53125,1.27148 0.0462,0.27308 0.0793,0.58922 0.10156,0.95117 -0.43726,-0.3997 -1.02085,-0.61793 -1.72656,-0.73633 -0.75065,-0.12592 -1.66471,-0.15023 -2.82812,-0.14453 H 332 331.9805 c -0.53472,0 -1.06239,0.11976 -1.54492,0.34961 l -0.85157,0.40625 C 329.24914,194.91739 328.88266,195 328.51172,195 h -2.91406 -0.002 c -1.16339,-0.006 -2.07747,0.0186 -2.82812,0.14453 -0.72835,0.12221 -1.32597,0.3508 -1.76758,0.77539 v -0.2832 -1 c 0,-1.88529 0.11124,-3.04298 0.42773,-3.63672 0.15825,-0.29687 0.34425,-0.47439 0.66016,-0.625 0.31591,-0.15061 0.77207,-0.25546 1.39648,-0.3125 0.56519,-0.0515 1.264,-0.0665 2.10938,-0.0625 z m 6.38672,5.00195 H 332 h 6.40625 c 1.14643,-0.006 2.02453,0.0239 2.66211,0.13086 0.63758,0.10696 1.01088,0.2794 1.26172,0.53321 0.25084,0.2538 0.42378,0.63487 0.53125,1.28125 0.105,0.63151 0.13725,1.4922 0.13867,2.60937 3e-5,0.0263 0,0.0535 0,0.0801 v 0.99805 4.73046 c 0,1.15579 -0.0313,2.04115 -0.13867,2.68555 -0.0691,0.41422 -0.16451,0.71954 -0.29102,0.95117 -0.0701,0.12805 -0.15104,0.23434 -0.24023,0.32422 -0.0313,0.0316 -0.0641,0.0627 -0.0996,0.0918 -0.071,0.0582 -0.15136,0.11147 -0.24219,0.16015 -0.22707,0.12172 -0.52294,0.21372 -0.92187,0.28125 C 340.4281,209.96745 339.55119,210 338.4043,210 H 332 325.5957 c -1.14686,0 -2.02381,-0.0325 -2.66211,-0.14063 -0.39893,-0.0675 -0.6948,-0.15953 -0.92187,-0.28125 -0.0908,-0.0487 -0.17122,-0.10194 -0.24219,-0.16015 -0.0355,-0.0291 -0.0683,-0.0602 -0.0996,-0.0918 -0.25068,-0.25263 -0.42383,-0.63101 -0.53125,-1.27539 C 321.03125,207.4064 321,206.52095 321,205.36523 v -4.73046 c 0,-1.15571 0.0312,-2.04115 0.13867,-2.6875 0.10748,-0.64636 0.2804,-1.02938 0.53125,-1.28321 0.25085,-0.25383 0.62415,-0.42622 1.26172,-0.5332 0.63757,-0.10698 1.51571,-0.13652 2.66211,-0.13086 h 2.91797 c 0.51976,0 1.03274,-0.11623 1.50195,-0.33984 l 0.85156,-0.40625 c 0.34843,-0.16598 0.72954,-0.25196 1.11524,-0.25196 z m -9.30078,15.31446 c 0.12511,0.0253 0.27242,0.0416 0.41211,0.0605 -0.0742,-0.0101 -0.17224,-0.0116 -0.24219,-0.0234 -0.061,-0.0103 -0.11205,-0.0254 -0.16992,-0.0371 z"
         style="baseline-shift:baseline;display:inline;overflow:visible;opacity:0.4;vector-effect:none;marker:none;enable-background:accumulate;stop-color:#000000;stop-opacity:1"
         id="path62" />
      <path
         d="m 331.98047,195.00195 c -0.3857,0 -0.76681,0.086 -1.11524,0.25196 l -0.85156,0.40625 C 329.54446,195.88377 329.03148,196 328.51172,196 h -2.91797 c -1.1464,-0.006 -2.02454,0.0239 -2.66211,0.13086 -0.63757,0.10698 -1.01087,0.27937 -1.26172,0.5332 -0.25085,0.25383 -0.42377,0.63685 -0.53125,1.28321 C 321.0312,198.59362 321,199.47906 321,200.63477 v 4.73046 c 0,1.15572 0.0312,2.04117 0.13867,2.68555 0.10742,0.64438 0.28057,1.02276 0.53125,1.27539 0.25069,0.25264 0.62538,0.42513 1.26367,0.5332 0.6383,0.10813 1.51525,0.14063 2.66211,0.14063 H 332 h 6.4043 c 1.14689,0 2.0238,-0.0325 2.66211,-0.14063 0.6383,-0.10806 1.013,-0.28059 1.26367,-0.5332 0.25067,-0.25261 0.42384,-0.63099 0.53125,-1.27539 C 342.9687,207.40638 343,206.52102 343,205.36523 v -4.73046 -0.99805 c 0,-1.15578 -0.0312,-2.04308 -0.13867,-2.68945 -0.10747,-0.64638 -0.28041,-1.02745 -0.53125,-1.28125 -0.25084,-0.25381 -0.62414,-0.42625 -1.26172,-0.53321 -0.63758,-0.10696 -1.51568,-0.13686 -2.66211,-0.13086 H 332 Z m 0,1 H 332 h 6.4082 0.004 c 1.12637,-0.006 1.97041,0.03 2.49023,0.11719 0.52744,0.0885 0.65546,0.18793 0.7168,0.25 0.0606,0.0613 0.16643,0.2043 0.25586,0.74219 0.0883,0.5312 0.125,1.38761 0.125,2.52539 v 0.99805 4.73046 c 0,1.13774 -0.0369,1.99248 -0.125,2.52149 -0.0892,0.53508 -0.19272,0.67271 -0.25391,0.73437 -0.0601,0.0605 -0.19161,0.16239 -0.7207,0.25196 h -0.002 C 340.37626,208.9615 339.5323,209 338.4043,209 H 332 325.5957 c -1.12796,0 -1.97202,-0.0385 -2.49414,-0.12695 h -0.002 c -0.52912,-0.0896 -0.66063,-0.19141 -0.7207,-0.25196 -0.0612,-0.0617 -0.16471,-0.19928 -0.25391,-0.73437 -0.0882,-0.52874 -0.125,-1.38376 -0.125,-2.52149 v -4.73046 c 0,-1.13772 0.0366,-1.99197 0.125,-2.52344 0.0895,-0.53822 0.19704,-0.68462 0.25586,-0.74414 0.0613,-0.062 0.18931,-0.16149 0.7168,-0.25 0.5198,-0.0872 1.36389,-0.12309 2.49023,-0.11719 h 0.004 2.91992 c 0.66884,0 1.32839,-0.15001 1.93164,-0.4375 l 0.85156,-0.40625 c 0.21393,-0.1019 0.4485,-0.1543 0.68555,-0.1543 z"
         style="baseline-shift:baseline;display:inline;overflow:visible;opacity:0.2;vector-effect:none;fill:url(#linearGradient55);fill-opacity:1;marker:none;enable-background:accumulate;stop-color:#000000;stop-opacity:1"
         id="path54" />
      <path
         d="m 323.99414,236.00041 c -1.258,0.015 -2.17864,-0.0293 -2.93164,0.38672 -0.38989,0.22112 -0.68767,0.57449 -0.83984,0.99609 -0.163,0.437 -0.22266,0.96019 -0.22266,1.61719 v 8 c 0,0.658 0.0577,1.17918 0.22266,1.61718 0.0629,0.16836 0.1467,0.32353 0.24609,0.4629 0.15977,0.22404 0.36133,0.40692 0.59375,0.53515 0.752,0.416 1.67364,0.36977 2.93164,0.38477 H 330 v -0.91992 l 5,-1.58008 h 1 v -6.50977 c -5.4e-4,-0.65364 -0.0584,-1.17147 -0.22266,-1.60742 -0.02,-0.055 -0.0482,-0.1043 -0.0742,-0.1543 l -0.0274,-0.0566 c -0.16173,-0.33025 -0.41909,-0.60451 -0.73828,-0.78711 -0.753,-0.416 -1.67364,-0.36976 -2.93164,-0.38476 h -3.03906 l -2.02149,-2 h -2.94922 z"
         style="font-variant-ligatures:none;display:inline;overflow:visible;fill:#888888;enable-background:new"
         id="path50" />
      <path
         d="m 323.99414,236.00041 c -1.258,0.015 -2.17864,-0.0293 -2.93164,0.38672 -0.38989,0.22112 -0.68767,0.57449 -0.83984,0.99609 -0.163,0.437 -0.22266,0.96019 -0.22266,1.61719 v 8 c 0,0.658 0.0577,1.17918 0.22266,1.61718 0.0629,0.16836 0.1467,0.32353 0.24609,0.4629 0.15977,0.22404 0.36133,0.40692 0.59375,0.53515 0.752,0.416 1.67364,0.36977 2.93164,0.38477 H 330 v -0.91992 -0.0801 h -6 c -1.26,-0.015 -2.08712,-0.0597 -2.45312,-0.26172 -0.183,-0.1 -0.28972,-0.21266 -0.38672,-0.47266 -0.097,-0.26 -0.16016,-0.67362 -0.16016,-1.26562 v -4 c 0,-0.592 0.0641,-1.00563 0.16211,-1.26563 0.098,-0.26 0.20272,-0.37165 0.38672,-0.47265 0.367,-0.203 1.19498,-0.24672 2.45898,-0.26172 h 3.43555 l 2.02148,-2 h 2.52735 c 1.264,0.015 2.09098,0.0597 2.45898,0.26172 0.183,0.1 0.28872,0.21265 0.38672,0.47265 0.098,0.26 0.16211,0.67363 0.16211,1.26563 v 6.5 h 1 v -6.50977 c -5.4e-4,-0.65364 -0.0584,-1.17147 -0.22266,-1.60742 -0.02,-0.055 -0.0482,-0.1043 -0.0742,-0.1543 l -0.0274,-0.0566 c -0.16173,-0.33025 -0.41909,-0.60451 -0.73828,-0.78711 -0.753,-0.416 -1.67364,-0.36976 -2.93164,-0.38476 h -3.03906 l -2.02149,-2 h -2.94922 z m 0.0117,1 h 2.5293 l 1.76562,1.74609 -1.26758,1.25391 h -3.03906 c -1.258,0.014 -2.17864,-0.0302 -2.93164,0.38476 -0.022,0.012 -0.0405,0.03 -0.0625,0.043 v -1.42773 c 0,-0.592 0.0622,-1.00563 0.16016,-1.26563 0.098,-0.26 0.20272,-0.37165 0.38672,-0.47265 0.366,-0.203 1.19498,-0.24672 2.45898,-0.26172 z"
         style="font-variant-ligatures:none;display:inline;overflow:visible;opacity:0.4;enable-background:new"
         id="path46" />
      <path
         d="m 324.00586,237.00041 c -1.264,0.015 -2.09298,0.0587 -2.45898,0.26172 -0.184,0.101 -0.28872,0.21265 -0.38672,0.47265 -0.098,0.26 -0.16016,0.67363 -0.16016,1.26563 v 1.42773 c 0.022,-0.013 0.0405,-0.031 0.0625,-0.043 0.753,-0.41496 1.67364,-0.37076 2.93164,-0.38476 h 3.03906 l 1.26758,-1.25391 -1.76562,-1.74609 z"
         style="font-variant-ligatures:none;display:inline;overflow:visible;fill:#dd4f25;fill-opacity:1;enable-background:new"
         id="path51" />
    </g>
    <g
       style="display:inline"
       inkscape:label="Pictogram"
       id="g2131"
       inkscape:groupmode="layer">
      <g
         id="g37"
         style="display:inline;enable-background:new">
        <circle
           style="display:inline;fill:#28851e;fill-rule:evenodd;stroke-width:1;enable-background:new"
           id="path26"
           cx="344.5"
           cy="155.6004"
           r="7" />
        <circle
           style="display:inline;fill:none;fill-rule:evenodd;stroke-width:1;enable-background:new;stroke:#000000;stroke-opacity:1;opacity:0.4"
           id="path26-6"
           cx="344.5"
           cy="155.6004"
           r="7" />
        <circle
           style="display:inline;opacity:0.25;fill:none;fill-opacity:1;fill-rule:evenodd;stroke:url(#linearGradient37);stroke-width:1;stroke-opacity:1;enable-background:new"
           id="path26-6-2"
           cx="344.5"
           cy="155.6004"
           r="6" />
        <rect
           style="fill:#f9f9f9;fill-rule:evenodd;stroke-width:1"
           id="rect35"
           width="1"
           height="7"
           x="344"
           y="152.00041" />
        <rect
           style="display:inline;fill:#f9f9f9;fill-rule:evenodd;stroke-width:1;enable-background:new"
           id="rect35-3"
           width="1"
           height="7"
           x="155.00041"
           y="-348"
           transform="rotate(90)" />
      </g>
      <g
         id="g6"
         style="display:inline;enable-background:new">
        <path
           style="display:inline;enable-background:accumulate;color:#000000;overflow:visible;visibility:visible;opacity:0.05;fill:#ffffff;fill-opacity:1;fill-rule:nonzero;stroke:none;stroke-width:1;marker:none"
           d="m 263.99738,188.0024 -64,64 h 25.0059 c 35.3685,0 38.9941,-3.62414 38.9941,-38.92188 z"
           id="path3479-14"
           inkscape:connector-curvature="0"
           sodipodi:nodetypes="ccssc" />
        <path
           id="path1-7"
           style="display:inline;enable-background:new;opacity:0.2;fill:#000000;fill-opacity:1;fill-rule:evenodd;filter:url(#filter5)"
           d="m 274,212.00041 c 0,28.71881 -22.83348,52 -51,52 -28.16652,0 -51,-23.28119 -51,-52 0,-28.71881 22.83348,-52 51,-52 28.16652,0 51,23.28119 51,52 z"
           sodipodi:nodetypes="sssss" />
        <path
           id="path1-2"
           style="display:inline;fill:#000000;fill-rule:evenodd;enable-background:new;filter:url(#filter6);opacity:0.2;fill-opacity:1"
           d="m 274,210.00041 c 0,28.71881 -22.83348,52 -51,52 -28.16652,0 -51,-23.28119 -51,-52 0,-28.71881 22.83348,-52 51,-52 28.16652,0 51,23.28119 51,52 z"
           sodipodi:nodetypes="sssss" />
        <path
           id="path1"
           style="fill:#28851e;fill-rule:evenodd"
           d="m 274,210.00041 c 0,28.71881 -22.83348,52 -51,52 -28.16652,0 -51,-23.28119 -51,-52 0,-28.71881 22.83348,-52 51,-52 28.16652,0 51,23.28119 51,52 z"
           sodipodi:nodetypes="sssss" />
        <path
           d="m 223,158.00041 a 51,52 0 0 0 -51,52 51,52 0 0 0 0.0644,1 51,52 0 0 1 50.93555,-51 51,52 0 0 1 50.93555,51 51,52 0 0 0 0.0645,-1 51,52 0 0 0 -51,-52 z"
           style="display:inline;fill:#ffffff;fill-rule:evenodd;enable-background:new;fill-opacity:1;opacity:0.25"
           id="path3" />
        <path
           d="m 223,262.00041 a 51,52 0 0 1 -51,-52 51,52 0 0 1 0.0644,-1 51,52 0 0 0 50.93555,51 51,52 0 0 0 50.93555,-51 51,52 0 0 1 0.0645,1 51,52 0 0 1 -51,52 z"
           style="display:inline;opacity:0.15;fill:#000000;fill-opacity:1;fill-rule:evenodd;enable-background:new"
           id="path3-3" />
        <path
           d="m 219,183.00041 v 23 h -23 v 8 h 23 v 23 h 8 v -23 h 23 v -8 h -23 v -23 z"
           style="display:inline;fill:#f9f9f9;fill-rule:evenodd;stroke-width:0.999991;enable-background:new"
           id="path4" />
      </g>
      <g
         id="g26"
         style="display:inline;enable-background:new">
        <circle
           style="display:inline;fill:#28851e;fill-rule:evenodd;stroke-width:1;enable-background:new"
           id="path6"
           cx="358"
           cy="96.000404"
           r="9.5" />
        <circle
           style="display:inline;opacity:0.4;fill:none;fill-opacity:1;fill-rule:evenodd;stroke:#000000;stroke-width:1;stroke-opacity:1;enable-background:new"
           id="path6-3"
           cx="358"
           cy="96.000404"
           r="9.5" />
        <path
           d="m 358,87.000407 c -4.97649,0 -9,4.023515 -9,9 0,4.976493 4.02351,9.000003 9,9.000003 4.97649,0 9,-4.02351 9,-9.000003 0,-4.976485 -4.02351,-9 -9,-9 z m 0,1.5 c 4.16799,0 7.5,3.332019 7.5,7.5 0,4.167993 -3.33201,7.500003 -7.5,7.500003 -4.16799,0 -7.5,-3.33201 -7.5,-7.500003 0,-4.167981 3.33201,-7.5 7.5,-7.5 z"
           style="baseline-shift:baseline;display:inline;overflow:visible;vector-effect:none;fill-rule:evenodd;enable-background:new;stop-color:#000000;stop-opacity:1;fill:url(#linearGradient18);opacity:0.25"
           id="path13" />
        <rect
           style="fill:#f9f9f9;fill-rule:evenodd;stroke-width:0.999998"
           id="rect6"
           width="2.078351"
           height="9.9216518"
           x="356.96082"
           y="91.078407" />
        <rect
           style="display:inline;fill:#f9f9f9;fill-rule:evenodd;stroke-width:0.999999;enable-background:new"
           id="rect6-5"
           width="2.078351"
           height="9.9216671"
           x="94.961411"
           y="-362.99966"
           transform="rotate(90)" />
      </g>
      <g
         id="g53"
         style="display:inline;enable-background:new">
        <circle
           style="fill:#28851e;fill-rule:evenodd;stroke-width:1"
           id="path43"
           cx="331.5"
           cy="247.50041"
           r="4.5" />
        <rect
           style="display:inline;fill:#ffffff;fill-opacity:1;fill-rule:evenodd;stroke-width:0.999998;enable-background:new"
           id="rect44"
           width="1.0000005"
           height="5"
           x="331.00473"
           y="245.00041" />
        <rect
           style="display:inline;fill:#ffffff;fill-opacity:1;fill-rule:evenodd;stroke-width:0.999998;enable-background:new"
           id="rect44-6"
           width="1.0000005"
           height="5"
           x="247.00041"
           y="-334"
           transform="rotate(90)" />
      </g>
      <g
         id="g54">
        <circle
           style="fill:#28851e;fill-rule:evenodd;stroke-width:1"
           id="path37"
           cx="337.5"
           cy="205.50041"
           r="6" />
        <circle
           style="display:inline;fill:none;fill-rule:evenodd;stroke-width:1;enable-background:new;stroke:url(#linearGradient40);stroke-opacity:1;opacity:0.25"
           id="path37-7"
           cx="337.5"
           cy="205.50041"
           r="5" />
        <circle
           style="display:inline;fill:none;fill-rule:evenodd;stroke-width:1;enable-background:new;stroke:#000000;stroke-opacity:1;opacity:0.4"
           id="path37-9"
           cx="337.5"
           cy="205.50041"
           r="6" />
        <rect
           style="fill:#f9f9f9;fill-rule:evenodd;stroke-width:1"
           id="rect43"
           width="1"
           height="5"
           x="337.03934"
           y="202.93726" />
        <rect
           style="display:inline;fill:#f9f9f9;fill-rule:evenodd;stroke-width:1;enable-background:new"
           id="rect43-4"
           width="1"
           height="5"
           x="205.00041"
           y="-340"
           transform="rotate(90)" />
      </g>
    </g>
  </g>
</svg>
