<?xml version="1.0" encoding="UTF-8" standalone="no"?>
<svg
   inkscape:export-ydpi="90.000000"
   inkscape:export-xdpi="90.000000"
   width="400"
   height="300"
   id="svg11300"
   sodipodi:version="0.32"
   inkscape:version="1.1.2 (b8e25be833, 2022-02-05)"
   sodipodi:docname="system-shutdown.svg"
   inkscape:output_extension="org.inkscape.output.svg.inkscape"
   version="1.0"
   style="display:inline;enable-background:new"
   inkscape:export-filename="/home/sam/suru-template.png"
   xmlns:inkscape="http://www.inkscape.org/namespaces/inkscape"
   xmlns:sodipodi="http://sodipodi.sourceforge.net/DTD/sodipodi-0.dtd"
   xmlns:xlink="http://www.w3.org/1999/xlink"
   xmlns="http://www.w3.org/2000/svg"
   xmlns:svg="http://www.w3.org/2000/svg"
   xmlns:rdf="http://www.w3.org/1999/02/22-rdf-syntax-ns#"
   xmlns:cc="http://creativecommons.org/ns#"
   xmlns:dc="http://purl.org/dc/elements/1.1/">
  <title
     id="title3004">Suru Icon Theme Template</title>
  <sodipodi:namedview
     stroke="#ef2929"
     fill="#f57900"
     id="base"
     pagecolor="#ffffff"
     bordercolor="#000000"
     borderopacity="0.25490196"
     inkscape:pageopacity="0"
     inkscape:pageshadow="2"
     inkscape:zoom="22.627417"
     inkscape:cx="332.09712"
     inkscape:cy="244.59266"
     inkscape:current-layer="layer2"
     showgrid="true"
     inkscape:grid-bbox="true"
     inkscape:document-units="px"
     inkscape:showpageshadow="false"
     inkscape:window-width="1920"
     inkscape:window-height="1016"
     inkscape:window-x="0"
     inkscape:window-y="27"
     width="400px"
     height="300px"
     inkscape:snap-nodes="true"
     inkscape:snap-bbox="true"
     gridtolerance="10000"
     inkscape:object-nodes="true"
     inkscape:snap-grids="true"
     showguides="true"
     inkscape:guide-bbox="true"
     inkscape:window-maximized="1"
     inkscape:bbox-paths="true"
     inkscape:snap-bbox-midpoints="true"
     inkscape:snap-global="true"
     inkscape:object-paths="true"
     inkscape:snap-intersection-paths="true"
     inkscape:snap-smooth-nodes="true"
     inkscape:pagecheckerboard="false"
     showborder="false"
     inkscape:bbox-nodes="true"
     inkscape:snap-bbox-edge-midpoints="true"
     inkscape:document-rotation="0">
    <inkscape:grid
       spacingy="1"
       spacingx="1"
       id="grid5883"
       type="xygrid"
       enabled="true"
       visible="true"
       empspacing="4"
       snapvisiblegridlinesonly="true"
       originx="0"
       originy="0" />
    <inkscape:grid
       type="xygrid"
       id="grid11592"
       empspacing="4"
       visible="true"
       enabled="false"
       spacingx="0.5"
       spacingy="0.5"
       color="#000000"
       opacity="0.1254902"
       empcolor="#000000"
       empopacity="0.25098039"
       snapvisiblegridlinesonly="true"
       originx="0"
       originy="0"
       dotted="true" />
  </sodipodi:namedview>
  <defs
     id="defs3">
    <clipPath
       clipPathUnits="userSpaceOnUse"
       id="clipPath9430">
      <path
         sodipodi:nodetypes="sssssssss"
         inkscape:connector-curvature="0"
         id="path9432"
         d="m 166.0625,-196 h 179.875 C 491.2348,-196 512,-175.28677 512,-30.125 v 148.25 C 512,263.28618 491.2348,284 345.9375,284 H 166.0625 C 20.7652,284 0,263.28618 0,118.125 V -30.125 C 0,-175.28677 20.7652,-196 166.0625,-196 Z"
         style="color:#000000;display:inline;overflow:visible;visibility:visible;fill:#ffffff;fill-opacity:1;fill-rule:nonzero;stroke:none;stroke-width:1;marker:none;enable-background:new" />
    </clipPath>
    <clipPath
       clipPathUnits="userSpaceOnUse"
       id="clipPath1082">
      <path
         sodipodi:nodetypes="sssssssss"
         inkscape:connector-curvature="0"
         id="path1084"
         d="M 361.9375,-212 C 507.2348,-212 528,-191.28677 528,-46.125 V 70.125 C 528,215.28618 507.2348,236 361.9375,236 H 214.0625 C 68.7652,236 48,215.28618 48,70.125 V -46.125 C 48,-191.28677 68.7652,-212 214.0625,-212 Z"
         style="display:inline;opacity:1;fill:#8c59d9;fill-opacity:1;stroke:none;stroke-width:2;stroke-linecap:round;stroke-linejoin:round;stroke-miterlimit:4;stroke-dasharray:none;stroke-dashoffset:0;stroke-opacity:1;enable-background:new" />
    </clipPath>
    <clipPath
       clipPathUnits="userSpaceOnUse"
       id="clipPath994">
      <path
         style="color:#000000;display:inline;overflow:visible;visibility:visible;fill:#cdcdcd;fill-opacity:1;fill-rule:nonzero;stroke:none;stroke-width:2;stroke-miterlimit:4;stroke-dasharray:none;stroke-opacity:1;marker:none;enable-background:accumulate"
         d="m 335.73108,62 c -8.82418,0 -9.77365,0.90635 -9.7304,9.74838 V 84 96.25162 c -0.0433,8.84203 0.90622,9.74838 9.7304,9.74838 h 16.53919 c 8.82418,0 9.7304,-0.90625 9.7304,-9.74838 V 84 71.74838 C 362.00067,62.90625 361.09445,62 352.27027,62 Z"
         id="path996"
         inkscape:connector-curvature="0"
         sodipodi:nodetypes="scccssscsss" />
    </clipPath>
    <clipPath
       clipPathUnits="userSpaceOnUse"
       id="clipPath994-5">
      <path
         style="color:#000000;display:inline;overflow:visible;visibility:visible;fill:#cdcdcd;fill-opacity:1;fill-rule:nonzero;stroke:none;stroke-width:2;stroke-miterlimit:4;stroke-dasharray:none;stroke-opacity:1;marker:none;enable-background:accumulate"
         d="m 335.73108,62 c -8.82418,0 -9.77365,0.90635 -9.7304,9.74838 V 84 96.25162 c -0.0433,8.84203 0.90622,9.74838 9.7304,9.74838 h 16.53919 c 8.82418,0 9.7304,-0.90625 9.7304,-9.74838 V 84 71.74838 C 362.00067,62.90625 361.09445,62 352.27027,62 Z"
         id="path996-3"
         inkscape:connector-curvature="0"
         sodipodi:nodetypes="scccssscsss" />
    </clipPath>
    <clipPath
       clipPathUnits="userSpaceOnUse"
       id="clipPath971">
      <path
         style="color:#000000;display:inline;overflow:visible;visibility:visible;opacity:1;fill:#46a926;fill-opacity:1;fill-rule:nonzero;stroke:none;stroke-width:2;stroke-miterlimit:4;stroke-dasharray:none;stroke-opacity:1;marker:none;enable-background:accumulate"
         d="m 327.8652,189 c -4.41209,0 -4.88682,0.45318 -4.8652,4.87419 V 200 206.12581 C 322.9783,210.54682 323.45311,211 327.8652,211 h 8.2696 C 340.54689,211 341,210.54688 341,206.12581 V 200 193.87419 C 341,189.45313 340.54688,189 336.13479,189 Z"
         id="path973"
         inkscape:connector-curvature="0"
         sodipodi:nodetypes="scccssscsss" />
    </clipPath>
    <clipPath
       clipPathUnits="userSpaceOnUse"
       id="clipPath983">
      <path
         sodipodi:nodetypes="scccssscsss"
         inkscape:connector-curvature="0"
         id="path985"
         d="m 325.09646,237 c -2.80769,0 -3.10979,0.28839 -3.09603,3.10176 V 244 v 3.89824 c -0.0138,2.81337 0.28834,3.10176 3.09603,3.10176 h 5.8075 C 333.71166,251 334,250.71165 334,247.89824 V 244 240.10176 C 334,237.28836 333.71165,237 330.90396,237 Z"
         style="color:#000000;display:inline;overflow:visible;visibility:visible;opacity:1;fill:#46a926;fill-opacity:1;fill-rule:nonzero;stroke:none;stroke-width:2;stroke-miterlimit:4;stroke-dasharray:none;stroke-opacity:1;marker:none;enable-background:accumulate" />
    </clipPath>
    <clipPath
       clipPathUnits="userSpaceOnUse"
       id="clipPath959">
      <path
         style="color:#000000;display:inline;overflow:visible;visibility:visible;opacity:1;fill:#46a926;fill-opacity:1;fill-rule:nonzero;stroke:none;stroke-width:2;stroke-miterlimit:4;stroke-dasharray:none;stroke-opacity:1;marker:none;enable-background:accumulate"
         d="m 330.1929,133.99999 c -5.61538,0 -6.21958,0.57678 -6.19206,6.20352 v 7.79648 7.79648 c -0.0276,5.62673 0.57668,6.20351 6.19206,6.20351 h 11.615 c 5.6154,0 6.19208,-0.5767 6.19208,-6.20351 v -7.79648 -7.79648 c 0,-5.6268 -0.5767,-6.20352 -6.19208,-6.20352 z"
         id="path961"
         inkscape:connector-curvature="0"
         sodipodi:nodetypes="scccssscsss" />
    </clipPath>
    <linearGradient
       id="linearGradient3045">
      <stop
         id="stop3047"
         offset="0"
         style="stop-color:#847784;stop-opacity:0.99607843" />
      <stop
         id="stop3049"
         offset="1"
         style="stop-color:#695f69;stop-opacity:1" />
    </linearGradient>
    <linearGradient
       id="linearGradient4213">
      <stop
         style="stop-color:#b1d7f3;stop-opacity:1"
         offset="0"
         id="stop4215" />
      <stop
         style="stop-color:#8fafda;stop-opacity:1"
         offset="1"
         id="stop4217" />
    </linearGradient>
    <linearGradient
       id="linearGradient5460"
       inkscape:swatch="gradient">
      <stop
         id="stop5462"
         offset="0"
         style="stop-color:#e6e6e6;stop-opacity:1" />
      <stop
         id="stop5464"
         offset="1"
         style="stop-color:#ffffff;stop-opacity:1" />
    </linearGradient>
    <linearGradient
       id="linearGradient5476"
       inkscape:swatch="solid">
      <stop
         id="stop5478"
         offset="0"
         style="stop-color:#772953;stop-opacity:1;" />
    </linearGradient>
    <filter
       color-interpolation-filters="sRGB"
       id="filter4154">
      <feComposite
         operator="arithmetic"
         k4="0"
         result="composite1"
         k1="0"
         k2="1"
         k3="0"
         in2="SourceGraphic"
         id="feComposite4156" />
      <feColorMatrix
         in="composite1"
         result="colormatrix1"
         values="0"
         type="saturate"
         id="feColorMatrix4158" />
      <feFlood
         flood-color="rgb(72,59,72)"
         result="flood1"
         id="feFlood4160" />
      <feBlend
         in="flood1"
         in2="colormatrix1"
         mode="multiply"
         result="blend1"
         id="feBlend4162" />
      <feBlend
         result="blend2"
         in2="blend1"
         mode="screen"
         id="feBlend4164" />
      <feColorMatrix
         in="blend2"
         result="colormatrix2"
         values="1"
         type="saturate"
         id="feColorMatrix4166" />
      <feComposite
         in="colormatrix2"
         in2="SourceGraphic"
         result="composite2"
         operator="in"
         id="feComposite4168" />
    </filter>
    <clipPath
       id="clipPath3062"
       clipPathUnits="userSpaceOnUse">
      <rect
         y="-194.96773"
         x="34.167744"
         height="445.93549"
         width="475.66452"
         id="rect3064"
         style="color:#000000;fill:url(#linearGradient3066);fill-opacity:1;fill-rule:nonzero;stroke:none;stroke-width:40;marker:none;visibility:visible;display:inline;overflow:visible;enable-background:new" />
    </clipPath>
    <linearGradient
       y2="288"
       x2="256"
       y1="50"
       x1="256"
       gradientTransform="matrix(1.8580645,0,0,1.8736786,4.4387126,-288.65166)"
       gradientUnits="userSpaceOnUse"
       id="linearGradient3066"
       xlink:href="#linearGradient3045"
       inkscape:collect="always" />
    <filter
       inkscape:collect="always"
       style="color-interpolation-filters:sRGB"
       id="filter2277"
       x="-0.012269886"
       y="-0.01174173"
       width="1.0245398"
       height="1.0234835">
      <feGaussianBlur
         inkscape:collect="always"
         stdDeviation="0.67484375"
         id="feGaussianBlur2279" />
    </filter>
    <filter
       inkscape:collect="always"
       style="color-interpolation-filters:sRGB"
       id="filter985"
       x="-0.02352"
       y="-0.02352"
       width="1.04704"
       height="1.04704">
      <feGaussianBlur
         inkscape:collect="always"
         stdDeviation="2.1952"
         id="feGaussianBlur987" />
    </filter>
  </defs>
  <metadata
     id="metadata4">
    <rdf:RDF>
      <cc:Work
         rdf:about="">
        <dc:format>image/svg+xml</dc:format>
        <dc:type
           rdf:resource="http://purl.org/dc/dcmitype/StillImage" />
        <dc:creator>
          <cc:Agent>
            <dc:title>Sam Hewitt</dc:title>
          </cc:Agent>
        </dc:creator>
        <dc:source />
        <cc:license
           rdf:resource="http://creativecommons.org/licenses/by-sa/4.0/" />
        <dc:title>Suru Icon Theme Template</dc:title>
        <dc:subject>
          <rdf:Bag />
        </dc:subject>
        <dc:date />
        <dc:rights>
          <cc:Agent>
            <dc:title />
          </cc:Agent>
        </dc:rights>
        <dc:publisher>
          <cc:Agent>
            <dc:title />
          </cc:Agent>
        </dc:publisher>
        <dc:identifier />
        <dc:relation />
        <dc:language />
        <dc:coverage />
        <dc:description />
        <dc:contributor>
          <cc:Agent>
            <dc:title />
          </cc:Agent>
        </dc:contributor>
      </cc:Work>
      <cc:Work
         rdf:about="">
        <dc:format>image/svg+xml</dc:format>
        <dc:type
           rdf:resource="http://purl.org/dc/dcmitype/StillImage" />
      </cc:Work>
      <cc:License
         rdf:about="http://creativecommons.org/licenses/by-sa/4.0/">
        <cc:permits
           rdf:resource="http://creativecommons.org/ns#Reproduction" />
        <cc:permits
           rdf:resource="http://creativecommons.org/ns#Distribution" />
        <cc:requires
           rdf:resource="http://creativecommons.org/ns#Notice" />
        <cc:requires
           rdf:resource="http://creativecommons.org/ns#Attribution" />
        <cc:permits
           rdf:resource="http://creativecommons.org/ns#DerivativeWorks" />
        <cc:requires
           rdf:resource="http://creativecommons.org/ns#ShareAlike" />
      </cc:License>
    </rdf:RDF>
  </metadata>
  <g
     style="display:inline"
     inkscape:groupmode="layer"
     inkscape:label="Icon"
     id="layer1">
    <g
       style="display:none"
       inkscape:label="Baseplate"
       id="layer7"
       inkscape:groupmode="layer">
      <text
         y="-8.2548828"
         xml:space="preserve"
         x="19.006836"
         style="font-style:normal;font-variant:normal;font-weight:normal;font-stretch:normal;line-height:0%;font-family:'DejaVu Sans';-inkscape-font-specification:'DejaVu Sans';display:inline;fill:#000000;fill-opacity:1;stroke:none;enable-background:new"
         inkscape:label="context"
         id="context"><tspan
           style="font-style:normal;font-variant:normal;font-weight:normal;font-stretch:normal;font-size:18px;line-height:1.25;font-family:'DejaVu Sans';-inkscape-font-specification:'DejaVu Sans'"
           y="-8.2548828"
           x="19.006836"
           sodipodi:role="line"
           id="tspan3933">actions</tspan></text>
      <text
         y="-8.2548828"
         xml:space="preserve"
         x="146.48828"
         style="font-style:normal;font-variant:normal;font-weight:bold;font-stretch:normal;font-size:14.6667px;line-height:0%;font-family:Ubuntu;-inkscape-font-specification:'Ubuntu, Bold';font-variant-ligatures:normal;font-variant-caps:normal;font-variant-numeric:normal;font-variant-east-asian:normal;text-align:start;writing-mode:lr-tb;text-anchor:start;display:inline;fill:#000000;fill-opacity:1;stroke:none;enable-background:new"
         inkscape:label="icon-name"
         id="icon-name"><tspan
           sodipodi:role="line"
           id="tspan925"
           x="146.48828"
           y="-8.2548828">system-shutdown</tspan></text>
      <rect
         style="display:inline;overflow:visible;visibility:visible;fill:#cdcdcd;fill-opacity:1;fill-rule:nonzero;stroke:none;stroke-width:2;marker:none;enable-background:accumulate"
         id="rect16x16"
         width="16"
         height="16"
         x="320"
         y="236"
         inkscape:label="16x16" />
      <rect
         style="display:inline;overflow:visible;visibility:visible;fill:#cdcdcd;fill-opacity:1;fill-rule:nonzero;stroke:none;stroke-width:2;marker:none;enable-background:accumulate"
         id="rect24x24"
         width="24"
         height="24"
         x="320"
         y="188"
         inkscape:label="24x24" />
      <rect
         style="display:inline;overflow:visible;visibility:visible;fill:#cdcdcd;fill-opacity:1;fill-rule:nonzero;stroke:none;stroke-width:2;marker:none;enable-background:accumulate"
         id="rect32x32"
         width="32"
         height="32"
         x="320"
         y="132"
         inkscape:label="32x32" />
      <rect
         inkscape:label="48x48"
         y="60"
         x="320"
         height="48"
         width="48"
         id="rect48x48"
         style="display:inline;overflow:visible;visibility:visible;fill:#cdcdcd;fill-opacity:1;fill-rule:nonzero;stroke:none;stroke-width:2;marker:none;enable-background:accumulate" />
      <rect
         style="display:inline;overflow:visible;visibility:visible;fill:#cdcdcd;fill-opacity:1;fill-rule:nonzero;stroke:none;stroke-width:2;marker:none;enable-background:accumulate"
         id="rect3951"
         width="256"
         height="256"
         x="24"
         y="28"
         inkscape:label="48x48"
         inkscape:export-filename="/home/stuart/yaru/icons/Suru/256x256/actions/window-close.png"
         inkscape:export-xdpi="96"
         inkscape:export-ydpi="96" />
      <rect
         style="display:inline;overflow:visible;visibility:visible;fill:#cdcdcd;fill-opacity:1;fill-rule:nonzero;stroke:none;stroke-width:2;marker:none;enable-background:accumulate"
         id="rect24x24-5"
         width="22"
         height="22"
         x="372"
         y="190"
         inkscape:label="24x24" />
      <rect
         id="rect6415-3-2"
         style="color:#000000;display:inline;fill:none;stroke-width:2.25;stroke-dasharray:2.25, 2.25;stroke-dashoffset:0.6;enable-background:new"
         height="24"
         width="24"
         y="188"
         x="372"
         inkscape:export-filename="/home/stuart/yaru/icons/Suru/24x24/actions/window-close.png"
         inkscape:export-xdpi="96"
         inkscape:export-ydpi="96" />
    </g>
    <g
       inkscape:groupmode="layer"
       id="layer2"
       inkscape:label="Background"
       style="display:inline">
      <rect
         style="opacity:1;fill:#c7162b;fill-rule:evenodd;stroke-width:2;stroke-linecap:square;stroke-linejoin:round;stroke-opacity:0.7;fill-opacity:1"
         id="rect774"
         width="16"
         height="16"
         x="320"
         y="236"
         rx="2"
         ry="2" />
      <path
         inkscape:connector-curvature="0"
         id="path947"
         style="color:#000000;opacity:0.5;fill:#000000;stroke-width:21;stroke-dashoffset:0.8;filter:url(#filter985)"
         d="m 152,46 c -61.7316,0 -112,50.2684 -112,112 0,61.7316 50.2684,112 112,112 61.7316,0 112,-50.2684 112,-112 0,-61.7316 -50.2684,-112 -112,-112 z"
         inkscape:export-filename="/home/stuart/yaru/icons/Suru/256x256/actions/window-close.png"
         inkscape:export-xdpi="96"
         inkscape:export-ydpi="96" />
      <path
         inkscape:connector-curvature="0"
         id="path903"
         style="color:#000000;fill:#000000;stroke-width:3;stroke-dashoffset:0.8;opacity:0.3"
         d="m 336,133 c -8.8188,0 -16,7.1812 -16,16 0,8.8188 7.1812,16 16,16 8.8188,0 16,-7.1812 16,-16 0,-8.8188 -7.1812,-16 -16,-16 z"
         inkscape:export-filename="/home/stuart/yaru/icons/Suru/32x32/actions/window-close.png"
         inkscape:export-xdpi="96"
         inkscape:export-ydpi="96" />
      <path
         inkscape:connector-curvature="0"
         id="path905"
         style="color:#000000;display:inline;fill:#000000;stroke-width:4.5;stroke-dashoffset:0.8;enable-background:new;opacity:0.3"
         d="m 344,61 c -13.2282,0 -24,10.7718 -24,24 0,13.2282 10.7718,24 24,24 13.2282,0 24,-10.7718 24,-24 0,-13.2282 -10.7718,-24 -24,-24 z"
         inkscape:export-filename="/home/stuart/yaru/icons/Suru/48x48/actions/window-close.png"
         inkscape:export-xdpi="96"
         inkscape:export-ydpi="96" />
      <path
         inkscape:connector-curvature="0"
         id="path907"
         style="color:#000000;display:inline;fill:#000000;stroke-width:2.25;stroke-dashoffset:0.8;enable-background:new;opacity:0.3"
         d="m 332,189 c -6.6141,0 -12,5.3859 -12,12 0,6.6141 5.3859,12 12,12 6.6141,0 12,-5.3859 12,-12 0,-6.6141 -5.3859,-12 -12,-12 z"
         inkscape:export-filename="/home/stuart/yaru/icons/Suru/24x24/actions/window-close.png"
         inkscape:export-xdpi="96"
         inkscape:export-ydpi="96" />
      <path
         inkscape:connector-curvature="0"
         id="path909"
         style="color:#000000;display:inline;fill:#000000;stroke-width:2.25;stroke-dashoffset:0.8;enable-background:new;opacity:0.3"
         d="m 383,191 c -6.06292,0 -11,4.93708 -11,11 0,6.06293 4.93708,11 11,11 6.06293,0 11,-4.93707 11,-11 0,-6.06292 -4.93707,-11 -11,-11 z"
         inkscape:export-filename="/home/stuart/yaru/icons/Suru/24x24/actions/window-close.png"
         inkscape:export-xdpi="96"
         inkscape:export-ydpi="96" />
      <rect
         transform="matrix(0,-1,-1,0,0,0)"
         style="display:inline;fill:#f22c42;fill-opacity:1;stroke:none;stroke-width:0.5;enable-background:new"
         id="rect4418"
         width="224"
         height="224"
         x="-268"
         y="-264"
         rx="112"
         ry="112"
         inkscape:export-filename="/home/stuart/yaru/icons/Suru/256x256/actions/window-close.png"
         inkscape:export-xdpi="96"
         inkscape:export-ydpi="96" />
      <rect
         id="rect6415"
         style="color:#000000;fill:none;stroke-width:1.49999845;stroke-dasharray:1.49999841, 1.49999841;stroke-dashoffset:0.60000002"
         height="15.999983"
         width="15.999983"
         y="236"
         x="320.00003"
         inkscape:export-filename="/home/stuart/yaru/icons/Suru/16x16/actions/window-close.png"
         inkscape:export-xdpi="96"
         inkscape:export-ydpi="96" />
      <path
         inkscape:connector-curvature="0"
         id="path3689-1"
         style="color:#000000;fill:#c7162b;stroke-width:3;stroke-dashoffset:0.80000001"
         d="m 336,132 c -8.8188,0 -16,7.1812 -16,16 0,8.8188 7.1812,16 16,16 8.8188,0 16,-7.1812 16,-16 0,-8.8188 -7.1812,-16 -16,-16 z"
         inkscape:export-filename="/home/stuart/yaru/icons/Suru/32x32/actions/window-close.png"
         inkscape:export-xdpi="96"
         inkscape:export-ydpi="96" />
      <rect
         id="rect6415-2"
         style="color:#000000;fill:none;stroke-width:3;stroke-dasharray:3, 3;stroke-dashoffset:0.60000002"
         height="32"
         width="32"
         y="132"
         x="320"
         inkscape:export-filename="/home/stuart/yaru/icons/Suru/32x32/actions/window-close.png"
         inkscape:export-xdpi="96"
         inkscape:export-ydpi="96" />
      <path
         inkscape:connector-curvature="0"
         id="path3689-7"
         style="color:#000000;fill:#c7162b;stroke-width:21;stroke-dashoffset:0.80000001"
         d="M 152,44 C 90.2684,44 40,94.2684 40,156 40,217.7316 90.2684,268 152,268 213.7316,268 264,217.7316 264,156 264,94.2684 213.7316,44 152,44 Z"
         inkscape:export-filename="/home/stuart/yaru/icons/Suru/256x256/actions/window-close.png"
         inkscape:export-xdpi="96"
         inkscape:export-ydpi="96" />
      <rect
         id="rect6415-9"
         style="color:#000000;fill:none;stroke-width:21;stroke-dasharray:21, 21;stroke-dashoffset:0.60000002"
         height="224"
         width="224"
         y="44.000008"
         x="40"
         inkscape:export-filename="/home/stuart/yaru/icons/Suru/256x256/actions/window-close.png"
         inkscape:export-xdpi="96"
         inkscape:export-ydpi="96" />
      <path
         inkscape:connector-curvature="0"
         id="path3689-6"
         style="display:inline;enable-background:new;color:#000000;fill:#c7162b;stroke-width:4.5;stroke-dashoffset:0.80000001"
         d="m 344,60 c -13.2282,0 -24,10.7718 -24,24 0,13.2282 10.7718,24 24,24 13.2282,0 24,-10.7718 24,-24 0,-13.2282 -10.7718,-24 -24,-24 z"
         inkscape:export-filename="/home/stuart/yaru/icons/Suru/48x48/actions/window-close.png"
         inkscape:export-xdpi="96"
         inkscape:export-ydpi="96" />
      <path
         inkscape:connector-curvature="0"
         id="path3689-5"
         style="display:inline;enable-background:new;color:#000000;fill:#c7162b;stroke-width:2.25;stroke-dashoffset:0.80000001"
         d="m 332,188 c -6.6141,0 -12,5.3859 -12,12 0,6.6141 5.3859,12 12,12 6.6141,0 12,-5.3859 12,-12 0,-6.6141 -5.3859,-12 -12,-12 z"
         inkscape:export-filename="/home/stuart/yaru/icons/Suru/24x24/actions/window-close.png"
         inkscape:export-xdpi="96"
         inkscape:export-ydpi="96" />
      <path
         inkscape:connector-curvature="0"
         id="path3689-5-9"
         style="color:#000000;display:inline;fill:#c7162b;stroke-width:2.25;stroke-dashoffset:0.8;enable-background:new"
         d="m 383,190 c -6.06292,0 -11,4.93708 -11,11 0,6.06293 4.93708,11 11,11 6.06293,0 11,-4.93707 11,-11 0,-6.06292 -4.93707,-11 -11,-11 z"
         inkscape:export-filename="/home/stuart/yaru/icons/Suru/24x24/actions/window-close.png"
         inkscape:export-xdpi="96"
         inkscape:export-ydpi="96" />
    </g>
    <g
       inkscape:groupmode="layer"
       id="layer6"
       inkscape:label="Pictogram"
       style="display:inline">
      <path
         id="path5351"
         style="opacity:0.25;fill:#000000;fill-opacity:1;fill-rule:evenodd;stroke:none;stroke-width:2;stroke-linecap:square;stroke-linejoin:round;stroke-opacity:0.7"
         d="m 335,140 v 10 h 2 v -10 z m -3.86523,2.42969 a 9,9 0 0 0 -4.13477,7.57031 9,9 0 0 0 9,9 9,9 0 0 0 9,-9 9,9 0 0 0 -4.13477,-7.56836 l -1.08007,1.68164 a 7,7 0 0 1 3.21484,5.88672 7,7 0 0 1 -7,7 7,7 0 0 1 -7,-7 7,7 0 0 1 3.22461,-5.87109 z" />
      <path
         id="path4393"
         style="opacity:1;fill:#ffffff;fill-opacity:1;fill-rule:evenodd;stroke:none;stroke-width:2;stroke-linecap:square;stroke-linejoin:round;stroke-opacity:0.7"
         d="M 335 139 L 335 149 L 337 149 L 337 139 L 335 139 z M 331.13477 141.42969 A 9 9 0 0 0 327 149 A 9 9 0 0 0 336 158 A 9 9 0 0 0 345 149 A 9 9 0 0 0 340.86523 141.43164 L 339.78516 143.11328 A 7 7 0 0 1 343 149 A 7 7 0 0 1 336 156 A 7 7 0 0 1 329 149 A 7 7 0 0 1 332.22461 143.12891 L 331.13477 141.42969 z " />
      <rect
         id="rect6415-3"
         style="color:#000000;fill:none;stroke-width:2.25;stroke-dasharray:2.25, 2.25;stroke-dashoffset:0.6"
         height="24"
         width="24"
         y="188"
         x="320"
         inkscape:export-filename="/home/stuart/yaru/icons/Suru/24x24/actions/window-close.png"
         inkscape:export-xdpi="96"
         inkscape:export-ydpi="96" />
      <rect
         id="rect6415-0"
         style="color:#000000;fill:none;stroke-width:4.5;stroke-dasharray:4.5, 4.5;stroke-dashoffset:0.6"
         height="48"
         width="48"
         y="60"
         x="320"
         inkscape:export-filename="/home/stuart/yaru/icons/Suru/48x48/actions/window-close.png"
         inkscape:export-xdpi="96"
         inkscape:export-ydpi="96" />
      <path
         id="path2146"
         style="opacity:0.25;fill:#000000;fill-opacity:1;fill-rule:evenodd;stroke-width:2;stroke-linecap:square;stroke-linejoin:round;stroke-opacity:0.7;filter:url(#filter2277)"
         d="m 147,88 v 76 h 10 v -76 z m 38.02148,14.80664 -5.00195,8.66016 a 56,56 0 0 1 27.98047,48.4707 56,56 0 0 1 -56,56 56,56 0 0 1 -56,-56 56,56 0 0 1 27.97461,-48.48047 l -4.94727,-8.56836 a 66,66 0 0 0 -33.02734,57.04883 66,66 0 0 0 66,66 66,66 0 0 0 66,-66 66,66 0 0 0 -32.97852,-57.13086 z" />
      <path
         id="path1487"
         style="fill:#ffffff;fill-opacity:1;fill-rule:evenodd;stroke-width:2;stroke-linecap:square;stroke-linejoin:round;stroke-opacity:0.7"
         d="M 147 86 L 147 162 L 157 162 L 157 86 L 147 86 z M 185.02148 100.80664 L 180.01953 109.4668 A 56 56 0 0 1 208 157.9375 A 56 56 0 0 1 152 213.9375 A 56 56 0 0 1 96 157.9375 A 56 56 0 0 1 123.97461 109.45703 L 119.02734 100.88867 A 66 66 0 0 0 86 157.9375 A 66 66 0 0 0 152 223.9375 A 66 66 0 0 0 218 157.9375 A 66 66 0 0 0 185.02148 100.80664 z " />
      <path
         id="path2497"
         style="opacity:0.25;fill:#000000;fill-opacity:1;fill-rule:evenodd;stroke:none;stroke-width:2;stroke-linecap:square;stroke-linejoin:round;stroke-opacity:0.7"
         d="m 343,72 v 15 h 2 v -15 z m -5.5,2.742188 a 13,13 0 0 0 -6.5,11.257812 13,13 0 0 0 13,13 13,13 0 0 0 13,-13 13,13 0 0 0 -6.50195,-11.255859 l -0.99805,1.730468 a 11,11 0 0 1 5.5,9.525391 11,11 0 0 1 -11,11 11,11 0 0 1 -11,-11 11,11 0 0 1 5.51172,-9.505859 z" />
      <path
         id="path3143"
         style="opacity:1;fill:#ffffff;fill-opacity:1;fill-rule:evenodd;stroke:none;stroke-width:2;stroke-linecap:square;stroke-linejoin:round;stroke-opacity:0.7"
         d="M 343 71 L 343 86 L 345 86 L 345 71 L 343 71 z M 337.5 73.742188 A 13 13 0 0 0 331 85 A 13 13 0 0 0 344 98 A 13 13 0 0 0 357 85 A 13 13 0 0 0 350.49805 73.744141 L 349.5 75.474609 A 11 11 0 0 1 355 85 A 11 11 0 0 1 344 96 A 11 11 0 0 1 333 85 A 11 11 0 0 1 338.51172 75.494141 L 337.5 73.742188 z " />
      <path
         id="path5979"
         style="opacity:0.25;fill:#000000;fill-opacity:1;fill-rule:evenodd;stroke:none;stroke-width:2;stroke-linecap:square;stroke-linejoin:round;stroke-opacity:0.7"
         d="m 331.25,193 v 8 h 1.5 v -8 z m 4.24805,1.93945 -0.75,1.29883 a 5.5,5.5 0 0 1 2.75195,4.76172 5.5,5.5 0 0 1 -5.5,5.5 5.5,5.5 0 0 1 -5.5,-5.5 5.5,5.5 0 0 1 2.75781,-4.75 l -0.75,-1.29883 a 7,7 0 0 0 -3.50781,6.04883 7,7 0 0 0 7,7 7,7 0 0 0 7,-7 7,7 0 0 0 -3.50195,-6.06055 z" />
      <path
         id="path5411"
         style="opacity:1;fill:#ffffff;fill-opacity:1;fill-rule:evenodd;stroke:none;stroke-width:2;stroke-linecap:square;stroke-linejoin:round;stroke-opacity:0.7"
         d="M 331.25 192 L 331.25 200 L 332.75 200 L 332.75 192 L 331.25 192 z M 335.49805 193.93945 L 334.74805 195.23828 A 5.5 5.5 0 0 1 337.5 200 A 5.5 5.5 0 0 1 332 205.5 A 5.5 5.5 0 0 1 326.5 200 A 5.5 5.5 0 0 1 329.25781 195.25 L 328.50781 193.95117 A 7 7 0 0 0 325 200 A 7 7 0 0 0 332 207 A 7 7 0 0 0 339 200 A 7 7 0 0 0 335.49805 193.93945 z " />
      <path
         id="path6196"
         style="opacity:0.25;fill:#000000;fill-opacity:1;fill-rule:evenodd;stroke:none;stroke-width:2;stroke-linecap:square;stroke-linejoin:round;stroke-opacity:0.7"
         d="m 382.25,194 v 8 h 1.5 v -8 z m 4.24805,1.93945 -0.75,1.29883 a 5.5,5.5 0 0 1 2.75195,4.76172 5.5,5.5 0 0 1 -5.5,5.5 5.5,5.5 0 0 1 -5.5,-5.5 5.5,5.5 0 0 1 2.75781,-4.75 l -0.75,-1.29883 a 7,7 0 0 0 -3.50781,6.04883 7,7 0 0 0 7,7 7,7 0 0 0 7,-7 7,7 0 0 0 -3.50195,-6.06055 z" />
      <path
         id="path6198"
         style="opacity:1;fill:#ffffff;fill-opacity:1;fill-rule:evenodd;stroke:none;stroke-width:2;stroke-linecap:square;stroke-linejoin:round;stroke-opacity:0.7"
         d="m 382.25,193 v 8 h 1.5 v -8 z m 4.24805,1.93945 -0.75,1.29883 a 5.5,5.5 0 0 1 2.75195,4.76172 5.5,5.5 0 0 1 -5.5,5.5 5.5,5.5 0 0 1 -5.5,-5.5 5.5,5.5 0 0 1 2.75781,-4.75 l -0.75,-1.29883 a 7,7 0 0 0 -3.50781,6.04883 7,7 0 0 0 7,7 7,7 0 0 0 7,-7 7,7 0 0 0 -3.50195,-6.06055 z" />
      <path
         id="path6819"
         style="opacity:0.25;fill:#000000;fill-opacity:1;fill-rule:evenodd;stroke:none;stroke-width:2;stroke-linecap:square;stroke-linejoin:round;stroke-opacity:0.7"
         d="m 327.5,239 v 6 h 1 v -6 z m 3,1.66992 -0.5,0.86719 a 4,4 0 0 1 2,3.46289 4,4 0 0 1 -4,4 4,4 0 0 1 -4,-4 4,4 0 0 1 2.00586,-3.45508 l -0.5,-0.86523 a 5,5 0 0 0 -2.50586,4.32031 5,5 0 0 0 5,5 5,5 0 0 0 5,-5 5,5 0 0 0 -2.5,-4.33008 z" />
      <path
         id="path6222"
         style="opacity:1;fill:#ffffff;fill-opacity:1;fill-rule:evenodd;stroke:none;stroke-width:2;stroke-linecap:square;stroke-linejoin:round;stroke-opacity:0.7"
         d="M 327.5 238 L 327.5 244 L 328.5 244 L 328.5 238 L 327.5 238 z M 330.5 239.66992 L 330 240.53711 A 4 4 0 0 1 332 244 A 4 4 0 0 1 328 248 A 4 4 0 0 1 324 244 A 4 4 0 0 1 326.00586 240.54492 L 325.50586 239.67969 A 5 5 0 0 0 323 244 A 5 5 0 0 0 328 249 A 5 5 0 0 0 333 244 A 5 5 0 0 0 330.5 239.66992 z " />
    </g>
  </g>
</svg>
