<?xml version="1.0" encoding="UTF-8" standalone="no"?>
<svg
   width="16"
   height="16"
   version="1.1"
   id="svg4"
   sodipodi:docname="airplane-mode-disabled-symbolic.svg"
   inkscape:version="1.2 (1:1.2.1+202207142221+cd75a1ee6d)"
   xmlns:inkscape="http://www.inkscape.org/namespaces/inkscape"
   xmlns:sodipodi="http://sodipodi.sourceforge.net/DTD/sodipodi-0.dtd"
   xmlns="http://www.w3.org/2000/svg"
   xmlns:svg="http://www.w3.org/2000/svg"
   xmlns:rdf="http://www.w3.org/1999/02/22-rdf-syntax-ns#"
   xmlns:cc="http://creativecommons.org/ns#"
   xmlns:dc="http://purl.org/dc/elements/1.1/">
  <metadata
     id="metadata10">
    <rdf:RDF>
      <cc:Work
         rdf:about="">
        <dc:format>image/svg+xml</dc:format>
        <dc:type
           rdf:resource="http://purl.org/dc/dcmitype/StillImage" />
        <dc:title />
      </cc:Work>
    </rdf:RDF>
  </metadata>
  <defs
     id="defs8" />
  <sodipodi:namedview
     pagecolor="#ffffff"
     bordercolor="#666666"
     borderopacity="1"
     objecttolerance="10"
     gridtolerance="10"
     guidetolerance="10"
     inkscape:pageopacity="0"
     inkscape:pageshadow="2"
     inkscape:window-width="1920"
     inkscape:window-height="1043"
     id="namedview6"
     showgrid="true"
     inkscape:snap-bbox="true"
     inkscape:bbox-paths="true"
     inkscape:bbox-nodes="true"
     inkscape:snap-bbox-edge-midpoints="true"
     inkscape:snap-bbox-midpoints="true"
     inkscape:zoom="28.0625"
     inkscape:cx="4.311804"
     inkscape:cy="7.1625835"
     inkscape:window-x="0"
     inkscape:window-y="0"
     inkscape:window-maximized="1"
     inkscape:current-layer="svg4"
     inkscape:showpageshadow="2"
     inkscape:pagecheckerboard="0"
     inkscape:deskcolor="#d1d1d1">
    <inkscape:grid
       type="xygrid"
       id="grid835" />
  </sodipodi:namedview>
  <path
     id="path2"
     style="fill:#808080;fill-opacity:1;opacity:0.5"
     d="M 2.3535156 1.6464844 L 1.6464844 2.3535156 L 2.6972656 3.4042969 C 2.1943987 3.9129007 2.2475927 3.9472277 3.0996094 4.4589844 L 4.4238281 5.1308594 L 6.9394531 7.6464844 L 4.5800781 10.005859 L 2.4589844 9.6074219 C 2.2114974 9.5579219 2.2168171 9.540996 2.0605469 9.6972656 L 1.90625 9.8515625 C 1.6036089 10.154204 2.0175781 10.359375 2.0175781 10.359375 L 4.0273438 11.972656 L 5.640625 13.984375 C 5.640625 13.984375 5.851182 14.391006 6.1269531 14.115234 L 6.3027344 13.939453 C 6.4519335 13.790253 6.4420759 13.788502 6.3925781 13.541016 L 5.9941406 11.419922 L 8.3535156 9.0605469 L 10.851562 11.558594 L 11.517578 12.878906 C 12.053347 13.771397 12.086294 13.808903 12.595703 13.302734 L 13.646484 14.353516 L 14.353516 13.646484 L 12.724609 12.017578 L 9.4101562 8.703125 L 9.0605469 8.3535156 L 7.6464844 6.9394531 L 7.2929688 6.5859375 L 3.9824219 3.2753906 L 2.3535156 1.6464844 z M 13 2 C 12.744381 2 12.486883 2.0971004 12.291016 2.2929688 L 10.103516 4.4824219 L 5.7441406 3.6230469 L 12.376953 10.255859 L 11.517578 5.8964844 L 13.707031 3.7089844 C 14.098768 3.317248 14.098768 2.6847052 13.707031 2.2929688 C 13.511162 2.0971004 13.255619 2 13 2 z " />
</svg>
