<?xml version="1.0" encoding="UTF-8" standalone="no"?>
<svg
   version="1.1"
   viewBox="0 0 16 16"
   id="svg6"
   sodipodi:docname="battery-low-symbolic.svg"
   inkscape:version="1.2 (1:1.2.1+202207142221+cd75a1ee6d)"
   xmlns:inkscape="http://www.inkscape.org/namespaces/inkscape"
   xmlns:sodipodi="http://sodipodi.sourceforge.net/DTD/sodipodi-0.dtd"
   xmlns="http://www.w3.org/2000/svg"
   xmlns:svg="http://www.w3.org/2000/svg">
  <defs
     id="defs10" />
  <sodipodi:namedview
     id="namedview8"
     pagecolor="#ffffff"
     bordercolor="#666666"
     borderopacity="1.0"
     inkscape:showpageshadow="2"
     inkscape:pageopacity="0.0"
     inkscape:pagecheckerboard="0"
     inkscape:deskcolor="#d1d1d1"
     showgrid="true"
     inkscape:zoom="29.5"
     inkscape:cx="9.2542373"
     inkscape:cy="6.7457627"
     inkscape:window-width="1920"
     inkscape:window-height="1043"
     inkscape:window-x="0"
     inkscape:window-y="0"
     inkscape:window-maximized="1"
     inkscape:current-layer="svg6">
    <inkscape:grid
       type="xygrid"
       id="grid730" />
  </sodipodi:namedview>
  <path
     id="path2"
     d="m 6,0 v 1.0117188 c -0.7714792,0.016396 -1.3973474,0.076291 -1.9355469,0.3730468 a 1.8789,1.88 0 0 0 -0.8378906,0.9980469 c -0.1648998,0.4369996 -0.2246094,0.9601782 -0.2246094,1.6171875 v 7 h -0.00586 v 1 c 0,0.657999 0.059703,1.179188 0.2246093,1.617188 0.1638999,0.438999 0.462111,0.789093 0.8378907,0.996093 0.7525592,0.415 1.6724887,0.371719 2.9296874,0.386719 h 0.3691407 a 5.5,5.5 0 0 1 -1.1015625,-1.017578 c -0.8440835,-0.02637 -1.4299938,-0.08533 -1.7167969,-0.244141 -0.1838898,-0.1 -0.2848726,-0.213656 -0.3828125,-0.472656 -0.096943,-0.26 -0.1601563,-0.673646 -0.1601562,-1.265625 v -1 h 0.00586 v -7 c 0,-0.5919994 0.063215,-1.0056253 0.1601563,-1.265625 0.097942,-0.2599997 0.2008758,-0.3716564 0.3847656,-0.4726562 0.3657796,-0.2019998 1.1938263,-0.2467188 2.453125,-0.2617188 h 1.9980469 c 1.2592991,0.015 2.0853721,0.059718 2.4511721,0.2617188 0.18389,0.1009998 0.288779,0.2126565 0.386719,0.4726562 0.09694,0.2599997 0.160156,0.6736456 0.160156,1.265625 v 1.2089844 a 5.5,5.5 0 0 1 1,0.3925781 v -1.6015625 c 0,-0.6569993 -0.05971,-1.1801879 -0.22461,-1.6171875 a 1.8789,1.88 0 0 0 -0.83789,-0.9980469 c -0.53813,-0.2967497 -1.164048,-0.3566469 -1.9355471,-0.3730468 v -1.0117188 z"
     style="fill:#808080" />
  <path
     style="color:#000000;fill:#808080;-inkscape-stroke:none"
     d="m 10,8 v 2.707031 l 1.646484,1.646485 0.707032,-0.707032 -1.353516,-1.353515 v -2.292969 z"
     id="path737" />
  <path
     id="path740"
     style="fill:#808080;fill-opacity:1;fill-rule:evenodd;stroke:none;stroke-width:2;stroke-linecap:round;stroke-linejoin:round"
     d="m 10.5,6 a 4.5,4.5 0 0 0 -4.5000003,4.5 4.5,4.5 0 0 0 4.5000003,4.5 4.5,4.5 0 0 0 4.5,-4.5 4.5,4.5 0 0 0 -4.5,-4.5 z m 0,1 a 3.5,3.5 0 0 1 3.5,3.5 3.5,3.5 0 0 1 -3.5,3.5 3.5,3.5 0 0 1 -3.5000003,-3.5 3.5,3.5 0 0 1 3.5000003,-3.5 z" />
</svg>
