<?xml version="1.0" encoding="UTF-8" standalone="no"?>
<svg
   version="1.1"
   viewBox="0 0 16 16"
   id="svg4"
   sodipodi:docname="battery-action-symbolic.svg"
   inkscape:version="1.2 (1:1.2.1+202207142221+cd75a1ee6d)"
   xmlns:inkscape="http://www.inkscape.org/namespaces/inkscape"
   xmlns:sodipodi="http://sodipodi.sourceforge.net/DTD/sodipodi-0.dtd"
   xmlns="http://www.w3.org/2000/svg"
   xmlns:svg="http://www.w3.org/2000/svg">
  <defs
     id="defs8" />
  <sodipodi:namedview
     id="namedview6"
     pagecolor="#ffffff"
     bordercolor="#666666"
     borderopacity="1.0"
     inkscape:showpageshadow="2"
     inkscape:pageopacity="0.0"
     inkscape:pagecheckerboard="0"
     inkscape:deskcolor="#d1d1d1"
     showgrid="true"
     inkscape:zoom="59"
     inkscape:cx="9.1355932"
     inkscape:cy="7.779661"
     inkscape:window-width="1920"
     inkscape:window-height="1043"
     inkscape:window-x="0"
     inkscape:window-y="0"
     inkscape:window-maximized="1"
     inkscape:current-layer="svg4">
    <inkscape:grid
       type="xygrid"
       id="grid237" />
  </sodipodi:namedview>
  <path
     id="path2"
     style="fill:#da1636;fill-opacity:1"
     class="error"
     d="M 6.0039062 0 L 6.0039062 0.25 L 6.0039062 1 L 6.0039062 1.0117188 C 5.2324278 1.0281146 4.6064582 1.0880102 4.0683594 1.3847656 C 3.6790508 1.6068254 3.3818789 1.9607966 3.2304688 2.3828125 C 3.065569 2.8198117 3.0058594 3.3429914 3.0058594 4 L 3.0058594 11 L 3 11 L 3 12 C 3 12.657998 3.0597056 13.179188 3.2246094 13.617188 C 3.388509 14.056186 3.6867208 14.406281 4.0625 14.613281 C 4.8150584 15.028281 5.7348901 14.985 6.9921875 15 L 6.9980469 15 L 8.9960938 15 L 9.0019531 15 C 10.259251 14.985 11.179041 15.028281 11.931641 14.613281 C 12.307419 14.406281 12.605631 14.056186 12.769531 13.617188 C 12.934341 13.179188 12.994141 12.658008 12.994141 12 L 13 12 L 13 4 C 13 3.3430014 12.940289 2.8198117 12.775391 2.3828125 C 12.623981 1.9607966 12.32681 1.6068254 11.9375 1.3847656 C 11.399372 1.0880162 10.773351 1.0281186 10.001953 1.0117188 L 10.001953 1 L 10.001953 0.25 L 10.001953 0 L 6.0039062 0 z M 7.0039062 2 L 9.0019531 2 C 10.261251 2.015 11.087325 2.0597182 11.453125 2.2617188 C 11.637015 2.3627184 11.741904 2.4743756 11.839844 2.734375 C 11.936784 2.9943744 12 3.4080212 12 4 L 12 11 L 11.994141 11 L 11.994141 12 C 11.994141 12.591998 11.930934 13.005625 11.833984 13.265625 C 11.736044 13.524625 11.633109 13.638281 11.449219 13.738281 C 11.084599 13.940281 10.254291 13.985 8.9960938 14 L 6.9980469 14 C 5.7397493 13.985 4.9097211 13.940281 4.5449219 13.738281 C 4.3610323 13.638281 4.2581062 13.524625 4.1601562 13.265625 C 4.0632134 13.005625 4 12.591978 4 12 L 4 11 L 4.0058594 11 L 4.0058594 4 C 4.0058594 3.4080012 4.0690688 2.9943744 4.1660156 2.734375 C 4.2639574 2.4743756 4.3688448 2.3627184 4.5527344 2.2617188 C 4.9185136 2.0597192 5.7446088 2.015 7.0039062 2 z M 5.3535156 4.6464844 L 4.6464844 5.3535156 L 7.2929688 8 L 4.6464844 10.646484 L 5.3535156 11.353516 L 8 8.7070312 L 10.646484 11.353516 L 11.353516 10.646484 L 8.7070312 8 L 11.353516 5.3535156 L 10.646484 4.6464844 L 8 7.2929688 L 5.3535156 4.6464844 z " />
</svg>
