<?xml version="1.0" encoding="UTF-8" standalone="no"?>
<svg
   viewBox="0 0 16 16"
   version="1.1"
   id="svg4"
   sodipodi:docname="bluetooth-disabled-symbolic.svg"
   inkscape:version="1.1.1 (3bf5ae0d25, 2021-09-20)"
   xmlns:inkscape="http://www.inkscape.org/namespaces/inkscape"
   xmlns:sodipodi="http://sodipodi.sourceforge.net/DTD/sodipodi-0.dtd"
   xmlns="http://www.w3.org/2000/svg"
   xmlns:svg="http://www.w3.org/2000/svg">
  <defs
     id="defs8" />
  <sodipodi:namedview
     id="namedview6"
     pagecolor="#ffffff"
     bordercolor="#666666"
     borderopacity="1.0"
     inkscape:pageshadow="2"
     inkscape:pageopacity="0.0"
     inkscape:pagecheckerboard="0"
     showgrid="true"
     inkscape:zoom="33.25"
     inkscape:cx="8"
     inkscape:cy="8.0150376"
     inkscape:window-width="1366"
     inkscape:window-height="704"
     inkscape:window-x="0"
     inkscape:window-y="27"
     inkscape:window-maximized="1"
     inkscape:current-layer="svg4">
    <inkscape:grid
       type="xygrid"
       id="grid825" />
  </sodipodi:namedview>
  <path
     d="M 4.662,0 C 3.824,0.01 3.212,-0.02 2.709,0.258 2.459,0.396 2.259,0.629 2.149,0.922 2.039,1.214 2,1.562 2,2 v 12 c 0,0.438 0.039,0.786 0.149,1.078 0.11,0.293 0.31,0.528 0.56,0.666 0.502,0.277 1.115,0.246 1.953,0.256 h 5.676 c 0.839,-0.01 1.451,0.021 1.953,-0.256 a 1.25,1.25 0 0 0 0.56,-0.666 c 0.11,-0.292 0.15,-0.64 0.15,-1.078 V 2 c 0,-0.438 -0.04,-0.786 -0.15,-1.078 A 1.253,1.253 0 0 0 12.291,0.258 C 11.789,-0.019 11.177,0.01 10.338,0 H 4.664 Z M 7,1.303 11.24,5.541 8.301,8.01 l 2.94,2.469 -4.24,4.238 V 9.104 L 4.572,11.143 3.928,10.377 6.746,8.01 3.928,5.643 4.572,4.877 7,6.916 Z m 1,2.414 v 3.24 l 1.76,-1.48 z m 0,5.345 v 3.24 l 1.76,-1.759 z"
     fill="#808080"
     font-family="sans-serif"
     font-weight="400"
     opacity="0.5"
     overflow="visible"
     style="text-indent:0;text-decoration-line:none;text-decoration-style:solid;text-decoration-color:#000000;text-transform:none;shape-padding:0;isolation:auto;mix-blend-mode:normal"
     white-space="normal"
     id="path2" />
</svg>
