<?xml version="1.0" encoding="UTF-8" standalone="no"?>
<svg
   xmlns:dc="http://purl.org/dc/elements/1.1/"
   xmlns:cc="http://creativecommons.org/ns#"
   xmlns:rdf="http://www.w3.org/1999/02/22-rdf-syntax-ns#"
   xmlns:svg="http://www.w3.org/2000/svg"
   xmlns="http://www.w3.org/2000/svg"
   xmlns:sodipodi="http://sodipodi.sourceforge.net/DTD/sodipodi-0.dtd"
   xmlns:inkscape="http://www.inkscape.org/namespaces/inkscape"
   height="16"
   width="16"
   version="1.1"
   id="svg4"
   sodipodi:docname="call-outgoing-symbolic.svg"
   inkscape:version="1.0.2 (e86c870879, 2021-01-15)">
  <metadata
     id="metadata10">
    <rdf:RDF>
      <cc:Work
         rdf:about="">
        <dc:format>image/svg+xml</dc:format>
        <dc:type
           rdf:resource="http://purl.org/dc/dcmitype/StillImage" />
        <dc:title></dc:title>
      </cc:Work>
    </rdf:RDF>
  </metadata>
  <defs
     id="defs8" />
  <sodipodi:namedview
     pagecolor="#ffffff"
     bordercolor="#666666"
     borderopacity="1"
     objecttolerance="10"
     gridtolerance="10"
     guidetolerance="10"
     inkscape:pageopacity="0"
     inkscape:pageshadow="2"
     inkscape:window-width="1920"
     inkscape:window-height="1043"
     id="namedview6"
     showgrid="true"
     inkscape:zoom="39.686368"
     inkscape:cx="4.6441464"
     inkscape:cy="6.2949573"
     inkscape:window-x="1920"
     inkscape:window-y="0"
     inkscape:window-maximized="1"
     inkscape:current-layer="svg4">
    <inkscape:grid
       type="xygrid"
       id="grid835" />
  </sodipodi:namedview>
  <path
     d="M11.968.998c1.301.294 3.525.732 2.934 2.713-.751 2.516-2.869 4.807-4.621 6.56l-.005.005-.005.005c-1.753 1.752-4.043 3.87-6.56 4.62-1.98.592-2.418-1.632-2.713-2.934l4.203-1.848 1.647.888c.61-.388 1.661-1.364 2.312-2.014.65-.651 1.626-1.703 2.015-2.313L10.12 5.2 11.968.997z"
     style="marker:none"
     color="#000"
     overflow="visible"
     fill="gray"
     id="path2" />
  <path
     id="path4"
     style="font-weight:400;line-height:normal;font-variant-ligatures:none;font-variant-position:normal;font-variant-caps:normal;font-variant-numeric:normal;font-variant-alternates:normal;font-feature-settings:normal;text-indent:0;text-align:start;text-decoration:none;text-decoration-line:none;text-decoration-style:solid;text-decoration-color:#000000;text-transform:none;shape-padding:0;isolation:auto;mix-blend-mode:normal;fill:#808080;stroke-width:0.999999;marker:none"
     d="m 0,0 c 0.19516197,0.83014366 0.41728229,1.6729906 0.66406252,2.5292969 0.24527307,0.8341333 0.51524258,1.6607544 0.81054698,2.4785156 l 1.4121094,-1.4140625 3.7597657,3.7597656 0.707031,-0.7070312 -3.7597655,-3.7597656 1.4140626,-1.4140626 c -0.7827673,-0.2920351 -1.607494,-0.56521512 -2.4687501,-0.81835932 -0.8555992,-0.24748741 -1.70184794,-0.46620614 -2.5390626,-0.65429688 z" />
</svg>
