<?xml version="1.0" encoding="UTF-8" standalone="no"?>
<svg
   width="16px"
   height="16px"
   viewBox="0 0 16 16"
   version="1.1"
   id="svg3246"
   sodipodi:docname="community-none-symbolic.svg"
   inkscape:version="1.2 (1:1.2.1+202207142221+cd75a1ee6d)"
   xmlns:inkscape="http://www.inkscape.org/namespaces/inkscape"
   xmlns:sodipodi="http://sodipodi.sourceforge.net/DTD/sodipodi-0.dtd"
   xmlns="http://www.w3.org/2000/svg"
   xmlns:svg="http://www.w3.org/2000/svg">
  <defs
     id="defs3250" />
  <sodipodi:namedview
     id="namedview3248"
     pagecolor="#ffffff"
     bordercolor="#666666"
     borderopacity="1.0"
     inkscape:showpageshadow="2"
     inkscape:pageopacity="0.0"
     inkscape:pagecheckerboard="0"
     inkscape:deskcolor="#d1d1d1"
     showgrid="false"
     inkscape:zoom="7.375"
     inkscape:cx="-36.881356"
     inkscape:cy="-8.4067797"
     inkscape:window-width="1920"
     inkscape:window-height="1043"
     inkscape:window-x="0"
     inkscape:window-y="0"
     inkscape:window-maximized="1"
     inkscape:current-layer="svg3246">
    <inkscape:grid
       type="xygrid"
       id="grid3588" />
  </sodipodi:namedview>
  <g
     id="layer9"
     label="status"
     style="display:inline"
     transform="translate(-873.00022,186.9999)" />
  <g
     id="layer2"
     style="display:inline"
     transform="translate(-632.00002,-180.0001)" />
  <g
     id="layer4"
     style="display:inline"
     transform="translate(-632.00002,-180.0001)" />
  <g
     id="g1812"
     style="display:inline"
     transform="translate(-632.00002,-180.0001)" />
  <g
     id="g6217"
     style="display:inline"
     transform="translate(-632.00002,-180.0001)" />
  <g
     id="layer3"
     style="display:inline"
     transform="translate(-632.00002,-180.0001)" />
  <g
     id="layer1"
     style="display:inline"
     transform="translate(-632.00002,-180.0001)" />
  <path
     inkscape:connector-curvature="0"
     style="fill:#808080;fill-opacity:1;stroke:none;stroke-width:1.88976;stroke-linecap:round;stroke-linejoin:round;stroke-miterlimit:4;stroke-dasharray:none;stroke-dashoffset:0;stroke-opacity:1"
     d="m 8.0000003,12 c -2.2160003,0 -4.0000003,1.784 -4.0000003,4 h 1 c 0,-1.662 1.338,-3 3.0000003,-3 h 3.9999997 c 1.662,0 3,1.338 3,3 h 1 c 0,-2.216 -1.784,-4 -4,-4 z"
     id="rect5341" />
  <path
     id="path3307-6"
     style="color:#000000;font-style:normal;font-variant:normal;font-weight:normal;font-stretch:normal;font-size:medium;line-height:125%;font-family:Ubuntu;-inkscape-font-specification:'Ubuntu, Normal';font-variant-ligatures:normal;font-variant-position:normal;font-variant-caps:normal;font-variant-numeric:normal;font-variant-alternates:normal;font-feature-settings:normal;text-indent:0;text-align:start;text-decoration:none;text-decoration-line:none;text-decoration-style:solid;text-decoration-color:#000000;letter-spacing:0px;word-spacing:0px;text-transform:none;writing-mode:lr-tb;direction:ltr;text-orientation:mixed;dominant-baseline:auto;baseline-shift:baseline;text-anchor:start;white-space:normal;shape-padding:0;clip-rule:nonzero;display:inline;overflow:visible;visibility:visible;isolation:auto;mix-blend-mode:normal;color-interpolation:sRGB;color-interpolation-filters:linearRGB;solid-color:#000000;solid-opacity:1;fill:#808080;fill-opacity:1;fill-rule:nonzero;stroke:none;stroke-width:2;stroke-linecap:butt;stroke-linejoin:miter;stroke-miterlimit:4;stroke-dasharray:none;stroke-dashoffset:0;stroke-opacity:1;color-rendering:auto;image-rendering:auto;shape-rendering:auto;text-rendering:auto;enable-background:accumulate"
     d="M 10 4.0019531 C 9.5406508 4.0019531 9.1030815 4.0872458 8.7011719 4.2597656 C 8.3016223 4.4240055 7.9490266 4.6642724 7.6542969 4.9765625 L 7.6503906 4.9804688 L 7.6484375 4.9824219 C 7.3612978 5.2961616 7.1402448 5.6735629 6.984375 6.1015625 C 6.8255952 6.5299221 6.75 7.0000936 6.75 7.5019531 C 6.75 7.7052612 6.7605654 7.9025257 6.7851562 8.09375 L 7.8046875 7.0742188 C 7.8185704 6.9482097 7.8367355 6.8235129 7.859375 6.7011719 C 8.0665262 5.7967468 8.8881243 5.0309918 9.8378906 5.0410156 L 10.785156 4.09375 C 10.532769 4.033843 10.27058 4.0019531 10 4.0019531 z M 11.779297 4.5136719 L 11.03125 5.2617188 C 11.16506 5.3310329 11.291218 5.4146069 11.404297 5.5175781 C 12.172146 6.1438375 12.340134 7.2343472 12.152344 8.1601562 C 12.023674 8.9988454 11.36476 9.7613283 10.519531 9.9238281 C 9.6974424 10.112127 8.752562 9.8597305 8.2578125 9.1445312 C 8.0845557 8.918486 7.9667579 8.6671895 7.890625 8.4023438 L 7.1015625 9.1914062 C 7.2451509 9.4994944 7.4271614 9.7777463 7.6484375 10.019531 L 7.6503906 10.021484 L 7.6542969 10.023438 C 7.9483466 10.335007 8.299536 10.580263 8.6972656 10.751953 L 8.6992188 10.753906 L 8.703125 10.755859 C 9.1042046 10.920129 9.5413508 11.001953 10 11.001953 C 10.45856 11.001953 10.893522 10.920349 11.294922 10.755859 L 11.294922 10.753906 C 11.692331 10.582356 12.041075 10.336137 12.328125 10.023438 C 12.623105 9.7104092 12.850983 9.3372621 13.007812 8.9140625 C 13.167512 8.4848829 13.242188 8.0107026 13.242188 7.5019531 L 13.25 7.5019531 C 13.25 7.0006736 13.174105 6.5334083 13.015625 6.1054688 C 12.859415 5.6756592 12.63346 5.2963916 12.337891 4.9824219 C 12.172065 4.8016531 11.984553 4.6458772 11.779297 4.5136719 z " />
  <path
     id="rect5341-7"
     style="display:inline;opacity:0.5;fill:#808080;fill-opacity:1;stroke:none;stroke-width:1.88976;stroke-linecap:round;stroke-linejoin:round;stroke-miterlimit:4;stroke-dasharray:none;stroke-dashoffset:0;stroke-opacity:1"
     d="M 6 1.0019531 C 5.5406505 1.0019531 5.1030815 1.0872458 4.7011719 1.2597656 C 4.3016223 1.4240055 3.9490266 1.6642728 3.6542969 1.9765625 L 3.6503906 1.9804688 L 3.6484375 1.9824219 C 3.3612978 2.2961616 3.1402348 2.6735629 2.984375 3.1015625 C 2.8255952 3.5299221 2.75 4.0000936 2.75 4.5019531 C 2.75 5.010713 2.8252952 5.4829398 2.984375 5.9121094 C 3.1406148 6.333629 3.3619978 6.7065416 3.6484375 7.0195312 L 3.6503906 7.0214844 L 3.6542969 7.0234375 C 3.9483466 7.3350072 4.299536 7.5802633 4.6972656 7.7519531 L 4.6992188 7.7539062 L 4.703125 7.7558594 C 5.0370047 7.8925992 5.399941 7.9595819 5.7753906 7.9824219 C 5.7663906 7.898022 5.7600594 7.8133255 5.7558594 7.7285156 C 5.7451594 7.4735359 5.7549563 7.2180635 5.7851562 6.9648438 C 5.1864668 6.9149438 4.6083521 6.6512507 4.2578125 6.1445312 C 3.727623 5.4528019 3.7073152 4.5227211 3.859375 3.7011719 C 4.0701048 2.7811228 4.9161697 2.0033157 5.8867188 2.0410156 C 6.4290682 1.9985157 6.9968573 2.1465585 7.4042969 2.5175781 C 7.7246166 2.7788279 7.9352033 3.1228204 8.0644531 3.5 C 8.3673828 3.3342402 8.6880416 3.2076768 9.0195312 3.1230469 C 9.0175313 3.1170469 9.017625 3.1110687 9.015625 3.1054688 C 8.8594252 2.6756592 8.6334603 2.2963916 8.3378906 1.9824219 C 8.0501309 1.6687322 7.6980577 1.4260086 7.2988281 1.2617188 C 6.8969185 1.0874089 6.4596995 1.0019531 6 1.0019531 z M 4 9 C 1.7840022 9 0 10.784002 0 13 L 0 14 L 1 14 L 0.93945312 13.939453 L 1 13.878906 L 1 13 C 0.99999 11.338002 2.3380017 10 4 10 L 4.8789062 10 L 5.8789062 9 L 4 9 z M 6.4042969 9.8886719 L 6.2929688 10 L 6.4707031 10 C 6.4477229 9.9635468 6.4262445 9.9257903 6.4042969 9.8886719 z " />
  <path
     style="color:#000000;fill:#808080"
     d="m 14.646484,1.6464844 -12.9999996,12.9999996 0.7070312,0.707032 13.0000004,-13.0000004 z"
     id="path3764" />
</svg>
