<?xml version="1.0" encoding="UTF-8" standalone="no"?>
<svg
   xmlns:dc="http://purl.org/dc/elements/1.1/"
   xmlns:cc="http://creativecommons.org/ns#"
   xmlns:rdf="http://www.w3.org/1999/02/22-rdf-syntax-ns#"
   xmlns:svg="http://www.w3.org/2000/svg"
   xmlns="http://www.w3.org/2000/svg"
   xmlns:sodipodi="http://sodipodi.sourceforge.net/DTD/sodipodi-0.dtd"
   xmlns:inkscape="http://www.inkscape.org/namespaces/inkscape"
   height="16"
   width="16"
   version="1.1"
   id="svg6"
   sodipodi:docname="daytime-sunrise-symbolic.svg"
   inkscape:version="1.0.2 (e86c870879, 2021-01-15)">
  <metadata
     id="metadata12">
    <rdf:RDF>
      <cc:Work
         rdf:about="">
        <dc:format>image/svg+xml</dc:format>
        <dc:type
           rdf:resource="http://purl.org/dc/dcmitype/StillImage" />
        <dc:title></dc:title>
      </cc:Work>
    </rdf:RDF>
  </metadata>
  <defs
     id="defs10" />
  <sodipodi:namedview
     pagecolor="#ffffff"
     bordercolor="#666666"
     borderopacity="1"
     objecttolerance="10"
     gridtolerance="10"
     guidetolerance="10"
     inkscape:pageopacity="0"
     inkscape:pageshadow="2"
     inkscape:window-width="1920"
     inkscape:window-height="1016"
     id="namedview8"
     showgrid="true"
     inkscape:zoom="19.843184"
     inkscape:cx="-3.7958103"
     inkscape:cy="2.711151"
     inkscape:window-x="0"
     inkscape:window-y="27"
     inkscape:window-maximized="1"
     inkscape:current-layer="svg6">
    <inkscape:grid
       type="xygrid"
       id="grid837" />
  </sodipodi:namedview>
  <path
     id="path2"
     style="fill:#808080;stroke-width:1"
     d="m 7.03125,7 v 2 h 0.9375 v -2 z m -4.5025635,1.9902344 -0.6628418,0.7070312 1.3256836,1.4121094 0.6628418,-0.707031 z m 9.9426265,0 -1.323852,1.4140626 0.662842,0.707031 1.325684,-1.4140624 z m -4.971313,1.0097656 c -3.5444055,0 -5.0734739,3.215549 -4.5977783,6 h 9.1918953 c 0.06147,-0.32307 0.09338,-0.657579 0.09338,-1 0,-2.761424 -2.098663,-5 -4.6875001,-5 z m -7.5,4.5 v 1 h 2 v -1 z m 13,0 v 1 h 2 v -1 z"
     sodipodi:nodetypes="ccccccccccccccccccscccccccccccc" />
  <path
     style="fill:#808080;fill-opacity:1;marker:none"
     d="m 5,4.5856095 h 2 v 4.4143905 h 1 v -4.4163915 h 2 c -0.348,-0.759999 -0.736,-1.534 -1.166,-2.322 -0.43,-0.781 -0.876,-1.53299896 -1.334,-2.25799896 -0.45,0.725 -0.89,1.47699996 -1.32,2.25799896 -0.4166754,0.7625923 -0.8101887,1.5376137 -1.18,2.324001 z"
     id="path2-2"
     sodipodi:nodetypes="cccccccccc" />
</svg>
