<?xml version="1.0" encoding="UTF-8" standalone="no"?>
<svg
   viewBox="0 0 16 16"
   version="1.1"
   id="svg4"
   sodipodi:docname="device-support-touch-symbolic.svg"
   inkscape:version="1.2 (1:1.2.1+202207142221+cd75a1ee6d)"
   xmlns:inkscape="http://www.inkscape.org/namespaces/inkscape"
   xmlns:sodipodi="http://sodipodi.sourceforge.net/DTD/sodipodi-0.dtd"
   xmlns:xlink="http://www.w3.org/1999/xlink"
   xmlns="http://www.w3.org/2000/svg"
   xmlns:svg="http://www.w3.org/2000/svg">
  <defs
     id="defs8">
    <linearGradient
       inkscape:collect="always"
       xlink:href="#linearGradient5796"
       id="linearGradient2964"
       x1="132"
       y1="-298"
       x2="132"
       y2="-319"
       gradientUnits="userSpaceOnUse" />
    <linearGradient
       inkscape:collect="always"
       id="linearGradient5796">
      <stop
         id="stop5794"
         offset="0"
         style="stop-color:#4d4d4d;stop-opacity:1" />
      <stop
         id="stop5792"
         offset="1"
         style="stop-color:#151515;stop-opacity:1;" />
    </linearGradient>
    <linearGradient
       inkscape:collect="always"
       xlink:href="#linearGradient5796"
       id="linearGradient4487"
       x1="119.99998"
       y1="92.000366"
       x2="119.99998"
       y2="76.000366"
       gradientUnits="userSpaceOnUse" />
  </defs>
  <sodipodi:namedview
     id="namedview6"
     pagecolor="#ffffff"
     bordercolor="#666666"
     borderopacity="1.0"
     inkscape:showpageshadow="2"
     inkscape:pageopacity="0.0"
     inkscape:pagecheckerboard="0"
     inkscape:deskcolor="#d1d1d1"
     showgrid="true"
     inkscape:zoom="10.429825"
     inkscape:cx="3.5475188"
     inkscape:cy="9.8755252"
     inkscape:window-width="1920"
     inkscape:window-height="1043"
     inkscape:window-x="0"
     inkscape:window-y="0"
     inkscape:window-maximized="1"
     inkscape:current-layer="svg4">
    <inkscape:grid
       type="xygrid"
       id="grid2490" />
    <inkscape:grid
       type="xygrid"
       id="grid2604"
       dotted="true"
       spacingx="0.5"
       spacingy="0.5"
       empspacing="10" />
  </sodipodi:namedview>
  <path
     id="path2747"
     style="font-variation-settings:normal;opacity:0.5;vector-effect:none;fill:#808080;fill-opacity:1;fill-rule:evenodd;stroke:none;stroke-width:1;stroke-linecap:butt;stroke-linejoin:miter;stroke-miterlimit:4;stroke-dasharray:none;stroke-dashoffset:0;stroke-opacity:1;-inkscape-stroke:none;paint-order:stroke fill markers;stop-color:#000000;stop-opacity:1"
     d="M 7.5 0 A 3.5 3.5 0 0 0 4 3.5 A 3.5 3.5 0 0 0 5.75 6.5234375 L 5.75 3.75 C 5.75 2.7978002 6.5478002 2 7.5 2 C 8.4686523 2 9.25 2.8075658 9.25 3.7597656 L 9.25 6.5234375 A 3.5 3.5 0 0 0 11 3.5 A 3.5 3.5 0 0 0 7.5 0 z " />
  <path
     style="color:#000000;fill:#808080;stroke:none;stroke-width:1.5;-inkscape-stroke:none;paint-order:stroke fill markers"
     d="m 7.4995449,3 c -0.4155,0 -0.75,0.3345 -0.75,0.75 v 8.689452 l -1.7197274,-1.719725 c -0.14319,-0.143192 -0.3351001,-0.227302 -0.5376,-0.227052 -0.2394301,2.98e-4 -0.4356751,0.139777 -0.6049801,0.309082 -0.149415,0.149414 -0.4482374,0.448243 -0.4482374,0.448243 l 3.7529249,3.75 h 5.5576191 c 0.443078,0 1.122572,-0.116436 1.453126,-0.298829 0.28227,-0.155752 0.505026,-0.419496 0.628417,-0.748535 0.123353,-0.328948 0.168458,-0.719683 0.168458,-1.212891 v -3.177245 c 0,-0.7248737 -0.587625,-1.3134167 -1.3125,-1.3125002 -0.283485,3.585e-4 -0.558945,0.094283 -0.785161,0.2651371 -0.138187,-0.5940706 -0.667409,-1.0152458 -1.27734,-1.015137 -0.460343,8.25e-5 -0.886687,0.2424683 -1.123537,0.6372067 -0.23739,-0.3956317 -0.6650775,-0.6373814 -1.1264625,-0.6372067 -0.4781696,1.814e-4 -0.8955596,0.2565473 -1.1249996,0.6386714 v -4.3784173 c 0,-0.4155 -0.3345,-0.760254 -0.75,-0.760254 z"
     id="path1976" />
</svg>
