<?xml version="1.0" encoding="UTF-8" standalone="no"?>
<svg
   width="16"
   height="16"
   viewBox="0 0 4.2335 4.2335"
   version="1.1"
   id="svg12"
   sodipodi:docname="fingerprint-detection-warning-symbolic.svg"
   inkscape:version="1.1 (ce6663b3b7, 2021-05-25)"
   xmlns:inkscape="http://www.inkscape.org/namespaces/inkscape"
   xmlns:sodipodi="http://sodipodi.sourceforge.net/DTD/sodipodi-0.dtd"
   xmlns="http://www.w3.org/2000/svg"
   xmlns:svg="http://www.w3.org/2000/svg">
  <defs
     id="defs16" />
  <sodipodi:namedview
     id="namedview14"
     pagecolor="#ffffff"
     bordercolor="#666666"
     borderopacity="1.0"
     inkscape:pageshadow="2"
     inkscape:pageopacity="0.0"
     inkscape:pagecheckerboard="0"
     showgrid="true"
     inkscape:zoom="19.79899"
     inkscape:cx="3.2072343"
     inkscape:cy="12.601653"
     inkscape:window-width="1920"
     inkscape:window-height="1016"
     inkscape:window-x="0"
     inkscape:window-y="27"
     inkscape:window-maximized="1"
     inkscape:current-layer="svg12">
    <inkscape:grid
       type="xygrid"
       id="grid1736" />
  </sodipodi:namedview>
  <path
     class="warning"
     d="m 3.3023291,2.5741054 c -0.03961,0.00185 -0.075833,0.024052 -0.095624,0.058396 l -0.8097892,1.4278749 c -0.044081,0.077052 0.011378,0.1730601 0.1002546,0.1731237 h 1.6206367 c 0.088771,-6.36e-5 0.1443359,-0.096071 0.1002546,-0.1731237 l -0.8092865,-1.4278749 c -0.021697,-0.03775 -0.062973,-0.060404 -0.1064462,-0.058396 z m -0.1271373,0.3364257 h 0.2645937 v 0.044444 c 0,0.092214 -0.00423,0.1765634 -0.012436,0.2532242 -0.0082,0.076661 -0.018257,0.1537475 -0.030481,0.2315195 h -0.1762194 c -0.013759,-0.077772 -0.024872,-0.1548588 -0.033074,-0.2315195 -0.0082,-0.077772 -0.012436,-0.1621193 -0.012436,-0.2532242 z m 0.1322968,0.7937812 c 0.073054,0 0.1322969,0.059232 0.1322969,0.1322969 0,0.073065 -0.059242,0.1322969 -0.1322969,0.1322969 -0.073054,0 -0.1322968,-0.059232 -0.1322968,-0.1322969 0,-0.073065 0.059242,-0.1322969 0.1322968,-0.1322969 z"
     id="path2973"
     style="color:#000000;font-weight:400;line-height:normal;font-family:sans-serif;text-indent:0;text-align:start;text-decoration:none;text-decoration-line:none;text-decoration-style:solid;text-decoration-color:#000000;text-transform:none;white-space:normal;display:inline;overflow:visible;isolation:auto;mix-blend-mode:normal;fill:#fdc92b;fill-rule:evenodd;stroke:none;stroke-width:0.264594" />
  <g
     id="layer9"
     label="status"
     style="display:inline"
     transform="matrix(0.26459375,0,0,0.26459375,-230.72578,70.646621)" />
  <g
     id="layer2"
     style="display:inline"
     transform="matrix(0.26459375,0,0,0.26459375,-166.95864,-26.459285)" />
  <g
     id="layer4"
     style="display:inline"
     transform="matrix(0.26459375,0,0,0.26459375,-166.95864,-26.459285)" />
  <g
     id="g1812"
     style="display:inline"
     transform="matrix(0.26459375,0,0,0.26459375,-166.95864,-26.459285)" />
  <g
     id="g6217"
     style="display:inline"
     transform="matrix(0.26459375,0,0,0.26459375,-166.95864,-26.459285)">
    <path
       id="path3882"
       style="color:#000000;font-style:normal;font-variant:normal;font-weight:normal;font-stretch:normal;font-size:medium;line-height:normal;font-family:sans-serif;font-variant-ligatures:normal;font-variant-position:normal;font-variant-caps:normal;font-variant-numeric:normal;font-variant-alternates:normal;font-feature-settings:normal;text-indent:0;text-align:start;text-decoration:none;text-decoration-line:none;text-decoration-style:solid;text-decoration-color:#000000;letter-spacing:normal;word-spacing:normal;text-transform:none;writing-mode:lr-tb;direction:ltr;text-orientation:mixed;dominant-baseline:auto;baseline-shift:baseline;text-anchor:start;white-space:normal;shape-padding:0;clip-rule:nonzero;display:inline;overflow:visible;visibility:visible;opacity:1;isolation:auto;mix-blend-mode:normal;color-interpolation:sRGB;color-interpolation-filters:linearRGB;solid-color:#000000;solid-opacity:1;vector-effect:none;fill:#808080;fill-opacity:1;fill-rule:nonzero;stroke:none;stroke-width:1;stroke-linecap:round;stroke-linejoin:round;stroke-miterlimit:4;stroke-dasharray:none;stroke-dashoffset:56;stroke-opacity:1;color-rendering:auto;image-rendering:auto;shape-rendering:auto;text-rendering:auto;enable-background:accumulate"
       d="M 7.5664062 0 C 6.4512463 -0.01141 5.334245 0.26344186 4.328125 0.82617188 A 0.50005 0.50005 0 1 0 4.8144531 1.6992188 C 6.5183631 0.7462087 8.5991632 0.76821935 10.283203 1.7558594 C 11.967253 2.7435394 13 4.54766 13 6.5 A 0.50005 0.50005 0 1 0 14 6.5 C 14 4.19439 12.777844 2.0589781 10.789062 0.89257812 C 9.794673 0.30937812 8.6815563 0.01141 7.5664062 0 z M 2.3808594 2.8242188 A 0.50005 0.50005 0 0 0 1.9804688 3.0664062 C 1.3391687 4.0970064 1 5.28616 1 6.5 L 1 11.5625 A 0.50005 0.50005 0 1 0 2 11.5625 L 2 6.5 C 2 5.47284 2.2874081 4.46585 2.8300781 3.59375 A 0.50005 0.50005 0 0 0 2.3808594 2.8242188 z M 7.5 3 C 5.57292 3 4 4.5729 4 6.5 L 4 7.5 A 0.50005 0.50005 0 1 0 5 7.5 L 5 6.5 A 0.50005 0.50005 0 0 0 5 6.4980469 A 0.50005 0.50005 0 0 0 5 6.4960938 A 0.50005 0.50005 0 0 0 5 6.4941406 A 0.50005 0.50005 0 0 0 5 6.4921875 A 0.50005 0.50005 0 0 0 5 6.4902344 A 0.50005 0.50005 0 0 0 5 6.4882812 A 0.50005 0.50005 0 0 0 5 6.4863281 A 0.50005 0.50005 0 0 0 5 6.484375 A 0.50005 0.50005 0 0 0 5 6.4824219 A 0.50005 0.50005 0 0 0 5 6.4804688 A 0.50005 0.50005 0 0 0 5 6.4785156 A 0.50005 0.50005 0 0 0 5 6.4765625 A 0.50005 0.50005 0 0 0 5 6.4746094 A 0.50005 0.50005 0 0 0 5 6.4726562 A 0.50005 0.50005 0 0 0 5 6.4707031 A 0.50005 0.50005 0 0 0 5 6.46875 C 5.0166784 5.0967296 6.1238651 4 7.5 4 C 8.88663 4 10 5.11333 10 6.5 L 10 9 L 11 9 L 11 6.5 A 0.50005 0.50005 0 0 0 11 6.4980469 A 0.50005 0.50005 0 0 0 11 6.4921875 A 0.50005 0.50005 0 0 0 11 6.4902344 A 0.50005 0.50005 0 0 0 11 6.484375 A 0.50005 0.50005 0 0 0 11 6.4824219 A 0.50005 0.50005 0 0 0 11 6.4765625 A 0.50005 0.50005 0 0 0 11 6.4746094 A 0.50005 0.50005 0 0 0 11 6.46875 A 0.50005 0.50005 0 0 0 11 6.4628906 A 0.50005 0.50005 0 0 0 11 6.4609375 A 0.50005 0.50005 0 0 0 11 6.4550781 A 0.50005 0.50005 0 0 0 11 6.453125 A 0.50005 0.50005 0 0 0 10.998047 6.4472656 A 0.50005 0.50005 0 0 0 10.998047 6.4453125 A 0.50005 0.50005 0 0 0 10.998047 6.4394531 C 10.965397 4.5401662 9.4067834 3 7.5 3 z M 7.4921875 5.9921875 A 0.50005 0.50005 0 0 0 7 6.5 L 7 11.5 C 7 11.5 6.9997056 12.047366 7.1347656 12.722656 C 7.2585395 13.341553 7.4871844 14.095882 8 14.693359 L 8 11.5 L 8 9 L 8 6.5 A 0.50005 0.50005 0 0 0 7.4921875 5.9921875 z M 4.4921875 9.9921875 A 0.50005 0.50005 0 0 0 4 10.5 L 4 13.5 A 0.50005 0.50005 0 1 0 5 13.5 L 5 10.5 A 0.50005 0.50005 0 0 0 4.4921875 9.9921875 z "
       transform="translate(630.99994,99.99966)" />
    <path
       d="m 644.49219,105.99219 a 0.50005,0.50005 0 0 0 -0.49219,0.50781 v 1 a 0.50005,0.50005 0 1 0 1,0 v -1 a 0.50005,0.50005 0 0 0 -0.50781,-0.50781 z"
       id="path3902"
       style="color:#000000;font-style:normal;font-variant:normal;font-weight:normal;font-stretch:normal;font-size:medium;line-height:normal;font-family:sans-serif;font-variant-ligatures:normal;font-variant-position:normal;font-variant-caps:normal;font-variant-numeric:normal;font-variant-alternates:normal;font-feature-settings:normal;text-indent:0;text-align:start;text-decoration:none;text-decoration-line:none;text-decoration-style:solid;text-decoration-color:#000000;letter-spacing:normal;word-spacing:normal;text-transform:none;writing-mode:lr-tb;direction:ltr;text-orientation:mixed;dominant-baseline:auto;baseline-shift:baseline;text-anchor:start;white-space:normal;shape-padding:0;clip-rule:nonzero;display:inline;overflow:visible;visibility:visible;opacity:1;isolation:auto;mix-blend-mode:normal;color-interpolation:sRGB;color-interpolation-filters:linearRGB;solid-color:#000000;solid-opacity:1;vector-effect:none;fill:#808080;fill-opacity:1;fill-rule:evenodd;stroke:none;stroke-width:1;stroke-linecap:round;stroke-linejoin:miter;stroke-miterlimit:4;stroke-dasharray:none;stroke-dashoffset:0;stroke-opacity:1;color-rendering:auto;image-rendering:auto;shape-rendering:auto;text-rendering:auto;enable-background:accumulate" />
  </g>
  <g
     id="layer3"
     style="display:inline"
     transform="matrix(0.26459375,0,0,0.26459375,-166.95864,-26.459285)" />
  <g
     id="g1833"
     style="display:inline"
     transform="matrix(0.26459375,0,0,0.26459375,-166.95864,-26.459285)" />
  <g
     id="layer1"
     style="display:inline"
     transform="matrix(0.26459375,0,0,0.26459375,-166.95864,-26.459285)" />
</svg>
