<svg version="1.1" viewBox="0 0 16 16" xmlns="http://www.w3.org/2000/svg">
 <defs>
  <clipPath id="ba">
   <path d="m0 0h1024v800h-1024z"/>
  </clipPath>
  <mask id="c">
   <g filter="url(#b)">
    <path d="m0 0h16v16h-16z" fill-opacity=".5"/>
   </g>
  </mask>
  <filter id="b" x="0" y="0" width="1" height="1">
   <feColorMatrix in="SourceGraphic" values="0 0 0 0 1 0 0 0 0 1 0 0 0 0 1 0 0 0 1 0"/>
  </filter>
  <clipPath id="d">
   <path d="m0 0h1024v800h-1024z"/>
  </clipPath>
  <mask id="e">
   <g filter="url(#b)">
    <path d="m0 0h16v16h-16z" fill-opacity=".5"/>
   </g>
  </mask>
  <clipPath id="f">
   <path d="m0 0h1024v800h-1024z"/>
  </clipPath>
  <mask id="g">
   <g filter="url(#b)">
    <path d="m0 0h16v16h-16z" fill-opacity=".4"/>
   </g>
  </mask>
  <clipPath id="h">
   <path d="m0 0h1024v800h-1024z"/>
  </clipPath>
  <mask id="i">
   <g filter="url(#b)">
    <path d="m0 0h16v16h-16z" fill-opacity=".4"/>
   </g>
  </mask>
  <clipPath id="j">
   <path d="m0 0h1024v800h-1024z"/>
  </clipPath>
  <mask id="k">
   <g filter="url(#b)">
    <path d="m0 0h16v16h-16z" fill-opacity=".5"/>
   </g>
  </mask>
  <clipPath id="l">
   <path d="m0 0h1024v800h-1024z"/>
  </clipPath>
  <mask id="m">
   <g filter="url(#b)">
    <path d="m0 0h16v16h-16z" fill-opacity=".3"/>
   </g>
  </mask>
  <clipPath id="n">
   <path d="m0 0h1024v800h-1024z"/>
  </clipPath>
  <mask id="aa">
   <g filter="url(#b)">
    <path d="m0 0h16v16h-16z" fill-opacity=".05"/>
   </g>
  </mask>
  <clipPath id="ac">
   <path d="m0 0h1024v800h-1024z"/>
  </clipPath>
  <mask id="ae">
   <g filter="url(#b)">
    <path d="m0 0h16v16h-16z" fill-opacity=".05"/>
   </g>
  </mask>
  <clipPath id="ag">
   <path d="m0 0h1024v800h-1024z"/>
  </clipPath>
  <mask id="ai">
   <g filter="url(#b)">
    <path d="m0 0h16v16h-16z" fill-opacity=".05"/>
   </g>
  </mask>
  <clipPath id="ak">
   <path d="m0 0h1024v800h-1024z"/>
  </clipPath>
  <mask id="am">
   <g filter="url(#b)">
    <path d="m0 0h16v16h-16z" fill-opacity=".05"/>
   </g>
  </mask>
  <clipPath id="ao">
   <path d="m0 0h1024v800h-1024z"/>
  </clipPath>
  <mask id="aq">
   <g filter="url(#b)">
    <path d="m0 0h16v16h-16z" fill-opacity=".05"/>
   </g>
  </mask>
  <clipPath id="as">
   <path d="m0 0h1024v800h-1024z"/>
  </clipPath>
  <mask id="au">
   <g filter="url(#b)">
    <path d="m0 0h16v16h-16z" fill-opacity=".05"/>
   </g>
  </mask>
  <clipPath id="aw">
   <path d="m0 0h1024v800h-1024z"/>
  </clipPath>
  <mask id="ay">
   <g filter="url(#b)">
    <path d="m0 0h16v16h-16z" fill-opacity=".3"/>
   </g>
  </mask>
 </defs>
 <filter id="a" x="0" y="0" width="1" height="1">
  <feColorMatrix in="SourceGraphic" values="0 0 0 0 1 0 0 0 0 1 0 0 0 0 1 0 0 0 1 0"/>
 </filter>
 <mask id="az">
  <g filter="url(#a)">
   <path d="m0 0h16v16h-16z" fill-opacity=".3"/>
  </g>
 </mask>
 <clipPath id="ax">
  <path d="m0 0h1024v800h-1024z"/>
 </clipPath>
 <mask id="av">
  <g filter="url(#a)">
   <path d="m0 0h16v16h-16z" fill-opacity=".05"/>
  </g>
 </mask>
 <clipPath id="at">
  <path d="m0 0h1024v800h-1024z"/>
 </clipPath>
 <mask id="ar">
  <g filter="url(#a)">
   <path d="m0 0h16v16h-16z" fill-opacity=".05"/>
  </g>
 </mask>
 <clipPath id="ap">
  <path d="m0 0h1024v800h-1024z"/>
 </clipPath>
 <mask id="an">
  <g filter="url(#a)">
   <path d="m0 0h16v16h-16z" fill-opacity=".05"/>
  </g>
 </mask>
 <clipPath id="al">
  <path d="m0 0h1024v800h-1024z"/>
 </clipPath>
 <mask id="aj">
  <g filter="url(#a)">
   <path d="m0 0h16v16h-16z" fill-opacity=".05"/>
  </g>
 </mask>
 <clipPath id="ah">
  <path d="m0 0h1024v800h-1024z"/>
 </clipPath>
 <mask id="af">
  <g filter="url(#a)">
   <path d="m0 0h16v16h-16z" fill-opacity=".05"/>
  </g>
 </mask>
 <clipPath id="ad">
  <path d="m0 0h1024v800h-1024z"/>
 </clipPath>
 <mask id="ab">
  <g filter="url(#a)">
   <path d="m0 0h16v16h-16z" fill-opacity=".05"/>
  </g>
 </mask>
 <clipPath id="o">
  <path d="m0 0h1024v800h-1024z"/>
 </clipPath>
 <mask id="p">
  <g filter="url(#a)">
   <path d="m0 0h16v16h-16z" fill-opacity=".3"/>
  </g>
 </mask>
 <clipPath id="q">
  <path d="m0 0h1024v800h-1024z"/>
 </clipPath>
 <mask id="r">
  <g filter="url(#a)">
   <path d="m0 0h16v16h-16z" fill-opacity=".5"/>
  </g>
 </mask>
 <clipPath id="s">
  <path d="m0 0h1024v800h-1024z"/>
 </clipPath>
 <mask id="t">
  <g filter="url(#a)">
   <path d="m0 0h16v16h-16z" fill-opacity=".4"/>
  </g>
 </mask>
 <clipPath id="u">
  <path d="m0 0h1024v800h-1024z"/>
 </clipPath>
 <mask id="v">
  <g filter="url(#a)">
   <path d="m0 0h16v16h-16z" fill-opacity=".4"/>
  </g>
 </mask>
 <clipPath id="w">
  <path d="m0 0h1024v800h-1024z"/>
 </clipPath>
 <mask id="x">
  <g filter="url(#a)">
   <path d="m0 0h16v16h-16z" fill-opacity=".5"/>
  </g>
 </mask>
 <clipPath id="y">
  <path d="m0 0h1024v800h-1024z"/>
 </clipPath>
 <mask id="z">
  <g filter="url(#a)">
   <path d="m0 0h16v16h-16z" fill-opacity=".5"/>
  </g>
 </mask>
 <clipPath id="bb">
  <path d="m0 0h1024v800h-1024z"/>
 </clipPath>
 <g transform="translate(-160 -40)" clip-path="url(#ax)" mask="url(#az)">
  <path d="m562.46 212.06h10.449c-1.1836 0.49219-1.2969 2.4609 0 3h-10.449z" fill="#2e3436"/>
 </g>
 <g transform="translate(-160 -40)" clip-path="url(#at)" mask="url(#av)">
  <path d="m16 632h1v1h-1z" fill="#2e3436" fill-rule="evenodd"/>
 </g>
 <g transform="translate(-160 -40)" clip-path="url(#ap)" mask="url(#ar)">
  <path d="m17 631h1v1h-1z" fill="#2e3436" fill-rule="evenodd"/>
 </g>
 <g transform="translate(-160 -40)" clip-path="url(#al)" mask="url(#an)">
  <path d="m18 634h1v1h-1z" fill="#2e3436" fill-rule="evenodd"/>
 </g>
 <g transform="translate(-160 -40)" clip-path="url(#ah)" mask="url(#aj)">
  <path d="m16 634h1v1h-1z" fill="#2e3436" fill-rule="evenodd"/>
 </g>
 <g transform="translate(-160 -40)" clip-path="url(#ad)" mask="url(#af)">
  <path d="m17 635h1v1h-1z" fill="#2e3436" fill-rule="evenodd"/>
 </g>
 <g transform="translate(-160 -40)" clip-path="url(#o)" mask="url(#ab)">
  <path d="m19 635h1v1h-1z" fill="#2e3436" fill-rule="evenodd"/>
 </g>
 <g transform="translate(-160 -40)" clip-path="url(#q)" mask="url(#p)">
  <path d="m136 660v7h7v-7z" fill="#2e3436"/>
 </g>
 <g transform="translate(-160 -40)" clip-path="url(#s)" mask="url(#r)">
  <path d="m199 642h3v12h-3z" fill="#2e3436"/>
 </g>
 <g transform="translate(-160 -40)" clip-path="url(#u)" mask="url(#t)">
  <path d="m209.5 144.16c0.27734 0 0.5 0.22266 0.5 0.5v1c0 0.27734-0.22266 0.5-0.5 0.5s-0.5-0.22266-0.5-0.5v-1c0-0.27734 0.22266-0.5 0.5-0.5z" fill="#2e3436"/>
 </g>
 <g transform="translate(-160 -40)" clip-path="url(#w)" mask="url(#v)">
  <path d="m206.5 144.16c0.27734 0 0.5 0.22266 0.5 0.5v1c0 0.27734-0.22266 0.5-0.5 0.5s-0.5-0.22266-0.5-0.5v-1c0-0.27734 0.22266-0.5 0.5-0.5z" fill="#2e3436"/>
 </g>
 <g transform="translate(-160 -40)" clip-path="url(#y)" mask="url(#x)">
  <path d="m229.5 143.16c-0.54688 0-1 0.45703-1 1 0 0.54688 0.45312 1 1 1s1-0.45312 1-1c0-0.54297-0.45312-1-1-1z" fill="#2e3436"/>
 </g>
 <g transform="translate(-160 -40)" clip-path="url(#bb)" mask="url(#z)">
  <path d="m226.45 143.16c-0.51953 0-0.95312 0.43359-0.95312 0.95312v0.09375c0 0.51953 0.43359 0.95312 0.95312 0.95312h0.09375c0.51953 0 0.95312-0.43359 0.95312-0.95312v-0.09375c0-0.51953-0.43359-0.95312-0.95312-0.95312z" fill="#2e3436"/>
 </g>
 <g transform="translate(-160 -59.965)" clip-path="url(#aw)" mask="url(#ay)">
  <path d="m562.46 212.06h10.449c-1.1836 0.49219-1.2969 2.4609 0 3h-10.449z" fill="#2e3436"/>
 </g>
 <g transform="translate(-160 -59.965)" clip-path="url(#as)" mask="url(#au)">
  <path d="m16 632h1v1h-1z" fill="#2e3436" fill-rule="evenodd"/>
 </g>
 <g transform="translate(-160 -59.965)" clip-path="url(#ao)" mask="url(#aq)">
  <path d="m17 631h1v1h-1z" fill="#2e3436" fill-rule="evenodd"/>
 </g>
 <g transform="translate(-160 -59.965)" clip-path="url(#ak)" mask="url(#am)">
  <path d="m18 634h1v1h-1z" fill="#2e3436" fill-rule="evenodd"/>
 </g>
 <g transform="translate(-160 -59.965)" clip-path="url(#ag)" mask="url(#ai)">
  <path d="m16 634h1v1h-1z" fill="#2e3436" fill-rule="evenodd"/>
 </g>
 <g transform="translate(-160 -59.965)" clip-path="url(#ac)" mask="url(#ae)">
  <path d="m17 635h1v1h-1z" fill="#2e3436" fill-rule="evenodd"/>
 </g>
 <g transform="translate(-160 -59.965)" clip-path="url(#n)" mask="url(#aa)">
  <path d="m19 635h1v1h-1z" fill="#2e3436" fill-rule="evenodd"/>
 </g>
 <g transform="translate(-160 -59.965)" clip-path="url(#l)" mask="url(#m)">
  <path d="m136 660v7h7v-7z" fill="#2e3436"/>
 </g>
 <g transform="translate(-160 -59.965)" clip-path="url(#j)" mask="url(#k)">
  <path d="m199 642h3v12h-3z" fill="#2e3436"/>
 </g>
 <g transform="translate(-160 -59.965)" clip-path="url(#h)" mask="url(#i)">
  <path d="m209.5 144.16c0.27734 0 0.5 0.22265 0.5 0.5v1c0 0.27734-0.22266 0.5-0.5 0.5s-0.5-0.22266-0.5-0.5v-1c0-0.27735 0.22266-0.5 0.5-0.5z" fill="#2e3436"/>
 </g>
 <g transform="translate(-160 -59.965)" clip-path="url(#f)" mask="url(#g)">
  <path d="m206.5 144.16c0.27734 0 0.5 0.22265 0.5 0.5v1c0 0.27734-0.22266 0.5-0.5 0.5s-0.5-0.22266-0.5-0.5v-1c0-0.27735 0.22266-0.5 0.5-0.5z" fill="#2e3436"/>
 </g>
 <g transform="translate(-160 -59.965)" clip-path="url(#d)" mask="url(#e)">
  <path d="m229.5 143.16c-0.54688 0-1 0.45703-1 1 0 0.54687 0.45312 1 1 1 0.54687 0 1-0.45313 1-1 0-0.54297-0.45313-1-1-1z" fill="#2e3436"/>
 </g>
 <g transform="translate(-160 -59.965)" clip-path="url(#ba)" mask="url(#c)">
  <path d="m226.45 143.16c-0.51953 0-0.95312 0.43359-0.95312 0.95312v0.0937c0 0.51953 0.43359 0.95313 0.95312 0.95313h0.0937c0.51954 0 0.95313-0.4336 0.95313-0.95313v-0.0937c0-0.51953-0.43359-0.95312-0.95313-0.95312z" fill="#2e3436"/>
 </g>
 <path d="m5.9863 0v0.5c0 2.4805 2.0195 3.5 4.5 3.5h0.65625c2.1261-3e-7 3.8574 0.73131 3.8574 2.8574v0.17773h1.0137v-0.5c0-2.4805-2.0195-3.5-4.5-3.5h-0.65625c-2.1261 3e-7 -3.8574-0.73131-3.8574-2.8574v-0.14258h-1v-0.035156z" fill="#808080" opacity=".5"/>
 <path d="m0 8v2h12v-2h-12zm13 0v2h1v-2h-1zm2 0v2h1v-2h-1z" fill="#808080" stroke-width=".626"/>
</svg>
