<svg version="1.1" viewBox="0 0 16 16" xmlns="http://www.w3.org/2000/svg" xmlns:osb="http://www.openswatchbook.org/uri/2009/osb">
 <g transform="translate(-372,-260)">
  <path d="m376.99 276c-1.2582-0.0145-2.1789 0.0306-2.9316-0.38477-0.37637-0.20766-0.67323-0.55938-0.83789-0.99804-0.16467-0.43867-0.22461-0.95958-0.22461-1.6172v-10c0-0.65761 0.0599-1.1786 0.22461-1.6172 0.16468-0.43861 0.46153-0.78852 0.83789-0.99609 0.75272-0.41514 1.6735-0.37165 2.9316-0.38672h2e-3 5.0039 0.75l4.25 4.25v0.75 8c0 0.65761-0.0599 1.1786-0.22461 1.6172-0.16468 0.43861-0.46153 0.78852-0.83789 0.99609-0.75272 0.41513-1.6736 0.37165-2.9316 0.38672h-2e-3 -6.0059zm0.00586-1h6c1.2586-0.0152 2.0891-0.0599 2.4551-0.26172 0.18342-0.10116 0.28722-0.21286 0.38476-0.47266 0.09755-0.25979 0.16016-0.67323 0.16016-1.2656v-8h-2-2v-4h-4.9941-0.00586c-1.2586 0.0152-2.0891 0.0599-2.4551 0.26172-0.18342 0.10116-0.28722 0.21286-0.38476 0.47265-0.0976 0.2598-0.16016 0.67324-0.16016 1.2656v10c0 0.59239 0.0626 1.0057 0.16016 1.2656 0.0976 0.25991 0.20135 0.37147 0.38476 0.47266 0.36596 0.20192 1.1966 0.24702 2.4551 0.26172zm-1-4v-1h8v1zm0-2v-1h8v1zm0-2v-1h8v1zm0 6v-1h4v1z" color="#000000" fill="#808080"/>
 </g>
</svg>
