<svg height="16" width="16.18" xmlns="http://www.w3.org/2000/svg">
    <g color="#000" fill="gray">
        <path d="M11.5 3a1.5 1.5 0 100 3 1.5 1.5 0 000-3z" style="marker:none" overflow="visible"/>
        <path d="M3.994 1c-1.258.015-2.179-.03-2.931.385a1.88 1.88 0 00-.838.998C.06 2.82 0 3.343 0 4v8c0 .658.06 1.179.225 1.617.164.439.461.79.838.998.752.416 1.673.37 2.931.385H12.131c1.258-.015 2.179.03 2.932-.385a1.88 1.88 0 00.838-.998c.164-.438.383-.979.224-1.617V4c0-.658-.06-1.179-.225-1.617a1.88 1.88 0 00-.837-.998C14.31.969 13.389 1.015 12.13 1H3.998zM6 2h4.125c2 0 3.484-.016 4.227.225.983.447.773 1.775.773 2.775 0 2.123-.036 4.677-.125 7H1.125A193.585 193.585 0 011 5c0-1-.21-2.328.773-2.775C2.516 1.985 4 2 6 2z" style="marker:none" overflow="visible"/>
        <path d="M6 5.5L3 11h8L8.5 6.5 7.5 8z" style="marker:none" overflow="visible"/>
    </g>
</svg>
