<svg version="1.1" viewBox="0 0 16 16" xmlns="http://www.w3.org/2000/svg">
 <path d="m15 1c-0.19516 0.83014-0.41728 1.673-0.66406 2.5293-0.24527 0.83413-0.51524 1.6608-0.81055 2.4785l-1.4121-1.4141-3.7598 3.7598-0.70703-0.70703 3.7598-3.7598-1.4141-1.4141c0.78277-0.29204 1.6075-0.56522 2.4688-0.81836 0.8556-0.24749 1.7018-0.46621 2.5391-0.6543z" fill="#808080" style="font-feature-settings:normal;font-variant-alternates:normal;font-variant-caps:normal;font-variant-ligatures:none;font-variant-numeric:normal;font-variant-position:normal;isolation:auto;mix-blend-mode:normal;shape-padding:0;text-decoration-color:#000000;text-decoration-line:none;text-decoration-style:solid;text-indent:0;text-transform:none"/>
 <path d="m2 4c-1.108 0-2 0.892-2 2v8c0 1.108 0.892 2 2 2h9c1.108 0 2-0.892 2-2v-5h-1v5c0 0.554-0.446 1-1 1h-9c-0.554 0-1-0.446-1-1v-8c0-0.554 0.446-1 1-1h5v-1z" fill="#808080" stroke-width=".626"/>
</svg>
