<?xml version="1.0" encoding="UTF-8"?>
<!-- Created with Inkscape (http://www.inkscape.org/) -->
<svg id="svg2424" width="32" height="32" version="1.0" xmlns="http://www.w3.org/2000/svg" xmlns:cc="http://creativecommons.org/ns#" xmlns:dc="http://purl.org/dc/elements/1.1/" xmlns:rdf="http://www.w3.org/1999/02/22-rdf-syntax-ns#" xmlns:xlink="http://www.w3.org/1999/xlink">
 <metadata id="metadata52">
  <rdf:RDF>
   <cc:Work rdf:about="">
    <dc:format>image/svg+xml</dc:format>
    <dc:type rdf:resource="http://purl.org/dc/dcmitype/StillImage"/>
    <dc:title/>
   </cc:Work>
  </rdf:RDF>
 </metadata>
 <defs id="defs2426">
  <linearGradient id="linearGradient5060">
   <stop id="stop5062" offset="0"/>
   <stop id="stop5064" style="stop-opacity:0" offset="1"/>
  </linearGradient>
  <filter id="filter3212" x="-.14846" y="-.16434" width="1.2969" height="1.3287">
   <feGaussianBlur id="feGaussianBlur3214" stdDeviation="0.77391625"/>
  </filter>
  <linearGradient id="linearGradient2506" x1="32.892" x2="36.358" y1="8.059" y2="5.4565" gradientTransform="matrix(.63713 0 0 .64456 .82968 .74452)" gradientUnits="userSpaceOnUse">
   <stop id="stop8591" style="stop-color:#fefefe" offset="0"/>
   <stop id="stop8593" style="stop-color:#cbcbcb" offset="1"/>
  </linearGradient>
  <linearGradient id="linearGradient2510" x1="24" x2="24" y1="2" y2="46.017" gradientTransform="matrix(.63636 0 0 .62791 .72725 .93022)" gradientUnits="userSpaceOnUse">
   <stop id="stop3213" style="stop-color:#fff" offset="0"/>
   <stop id="stop3215" style="stop-color:#fff;stop-opacity:0" offset="1"/>
  </linearGradient>
  <radialGradient id="radialGradient2513" cx="102" cy="112.3" r="139.56" gradientTransform="matrix(.23404 0 0 -.2543 1.0213 32.289)" gradientUnits="userSpaceOnUse">
   <stop id="stop41" style="stop-color:#b7b8b9" offset="0"/>
   <stop id="stop47" style="stop-color:#ececec" offset=".18851"/>
   <stop id="stop49" style="stop-color:#fafafa;stop-opacity:0" offset=".25718"/>
   <stop id="stop51" style="stop-color:#fff;stop-opacity:0" offset=".30111"/>
   <stop id="stop53" style="stop-color:#fafafa;stop-opacity:0" offset=".5313"/>
   <stop id="stop55" style="stop-color:#ebecec;stop-opacity:0" offset=".8449"/>
   <stop id="stop57" style="stop-color:#e1e2e3;stop-opacity:0" offset="1"/>
  </radialGradient>
  <linearGradient id="linearGradient2516" x1="25.132" x2="25.132" y1=".98521" y2="47.013" gradientTransform="matrix(.65714 0 0 .63012 .22855 -.089648)" gradientUnits="userSpaceOnUse">
   <stop id="stop3602" style="stop-color:#f4f4f4" offset="0"/>
   <stop id="stop3604" style="stop-color:#dbdbdb" offset="1"/>
  </linearGradient>
  <linearGradient id="linearGradient2518" x1="-51.786" x2="-51.786" y1="50.786" y2="2.9062" gradientTransform="matrix(.53064 0 0 .5897 39.27 -.79191)" gradientUnits="userSpaceOnUse">
   <stop id="stop3106" style="stop-color:#aaa" offset="0"/>
   <stop id="stop3108" style="stop-color:#c8c8c8" offset="1"/>
  </linearGradient>
  <radialGradient id="radialGradient2521" cx="605.71" cy="486.65" r="117.14" gradientTransform="matrix(.015663 0 0 .0082353 17.61 26.981)" gradientUnits="userSpaceOnUse" xlink:href="#linearGradient5060"/>
  <radialGradient id="radialGradient2524" cx="605.71" cy="486.65" r="117.14" gradientTransform="matrix(-.015663 0 0 .0082353 14.39 26.981)" gradientUnits="userSpaceOnUse" xlink:href="#linearGradient5060"/>
  <linearGradient id="linearGradient2527" x1="302.86" x2="302.86" y1="366.65" y2="609.51" gradientTransform="matrix(.045769 0 0 .0082353 -.54232 26.981)" gradientUnits="userSpaceOnUse">
   <stop id="stop5050" style="stop-opacity:0" offset="0"/>
   <stop id="stop5056" offset=".5"/>
   <stop id="stop5052" style="stop-opacity:0" offset="1"/>
  </linearGradient>
  <linearGradient id="linearGradient3059" x1="24.139" x2="24.139" y1="7.0479" y2="39.268" gradientTransform="matrix(.37573 0 0 .37346 16.248 16.686)" gradientUnits="userSpaceOnUse">
   <stop id="stop3945" style="stop-color:#fff" offset="0"/>
   <stop id="stop3947" style="stop-color:#fff;stop-opacity:0" offset="1"/>
  </linearGradient>
  <radialGradient id="radialGradient3137" cx="69.448" cy="51.695" r="31" gradientTransform="matrix(0 .4649 -.50576 0 49.574 -12.296)" gradientUnits="userSpaceOnUse">
   <stop id="stop3244-5" style="stop-color:#eef87e" offset="0"/>
   <stop id="stop3246-9" style="stop-color:#cde34f" offset=".26238"/>
   <stop id="stop3248-7" style="stop-color:#93b723" offset=".66094"/>
   <stop id="stop3250-8" style="stop-color:#5a7e0d" offset="1"/>
  </radialGradient>
  <linearGradient id="linearGradient3139" x1="72.422" x2="72.422" y1="124.76" y2="51.244" gradientTransform="matrix(.19311 0 0 .19469 8.006 7.8601)" gradientUnits="userSpaceOnUse">
   <stop id="stop2492-3" style="stop-color:#365f0e" offset="0"/>
   <stop id="stop2494-8" style="stop-color:#84a718" offset="1"/>
  </linearGradient>
 </defs>
 <g id="layer1">
  <rect id="rect2879" x="4.95" y="30" width="22.1" height="2" style="fill:url(#linearGradient2527);opacity:.15"/>
  <path id="path2881" d="m4.95 30v1.9999c-0.80662 0.003766-1.95-0.44807-1.95-1.0001s0.90012-0.99982 1.95-0.99982z" style="fill:url(#radialGradient2524);opacity:.15"/>
  <path id="path2883" d="m27.05 30v1.9999c0.80661 0.003766 1.95-0.44807 1.95-1.0001s-0.90012-0.99982-1.95-0.99982z" style="fill:url(#radialGradient2521);opacity:.15"/>
  <path id="path4160" d="m4.5 1.5h15.811c0.92456 0.3128 5.8916 3.8764 7.1886 6.3439v22.656h-23v-29z" style="fill:url(#linearGradient2516);stroke-linejoin:round;stroke-width:.99992;stroke:url(#linearGradient2518)"/>
  <path id="path4191" d="m5.234 30c-0.12896 0-0.23404-0.11418-0.23404-0.2543v-27.464c0-0.14037 0.10509-0.2543 0.23404-0.2543 4.842 0.070289 10.208-0.10514 15.044 0.0175l6.6535 5.7695 0.068574 21.931c0 0.14012-0.10485 0.2543-0.23404 0.2543h-21.532z" style="fill:url(#radialGradient2513)"/>
  <path id="path2435" d="m26.5 8.139v21.361h-21v-27h14.551" style="fill:none;opacity:.6;stroke:url(#linearGradient2510)"/>
  <path id="path12038" transform="matrix(.6386 0 0 .61936 .72508 1.4294)" d="m28.617 0.92126c4.2825 0 2.1532 8.4832 2.1532 8.4832s10.358-1.8023 10.358 2.8187c0-2.6097-11.302-10.729-12.511-11.302z" style="fill-rule:evenodd;filter:url(#filter3212);opacity:.4"/>
  <path id="path4474" d="m19 2c2.0349 0 1.4916 4.7455 1.4916 4.7455s6.4978-0.60763 6.4978 2.2545c0-0.69737 0.054866-1.1968-0.085429-1.4144-1.0079-1.5634-5.3614-5.0716-6.9334-5.5314-0.11764-0.034408-0.3785-0.054215-0.97055-0.054215z" style="fill-rule:evenodd;fill:url(#linearGradient2506)"/>
 </g>
 <path id="path2262" d="m22.5 22.5v-4.021h5v4.021h4.0073v5h-4.0073v4.0073h-5v-4.0073h-4.0073v-5h4.0073z" style="color:#000000;fill:url(#radialGradient3137);stroke-linecap:round;stroke-linejoin:round;stroke-width:.98543;stroke:url(#linearGradient3139)"/>
 <path id="path2272" d="m23.5 23.5v-4h3v4h4.02v3h-4.02v4h-3v-4h-4v-3h4z" style="fill:none;opacity:.4;stroke:url(#linearGradient3059)"/>
</svg>
