<?xml version="1.0" encoding="UTF-8"?>
<!-- Created with Inkscape (http://www.inkscape.org/) -->
<svg id="svg3899" width="32px" height="32px" version="1.1" xmlns="http://www.w3.org/2000/svg" xmlns:cc="http://creativecommons.org/ns#" xmlns:dc="http://purl.org/dc/elements/1.1/" xmlns:rdf="http://www.w3.org/1999/02/22-rdf-syntax-ns#" xmlns:xlink="http://www.w3.org/1999/xlink">
 <defs id="defs3901">
  <linearGradient id="linearGradient3855" x1="11.566" x2="15.215" y1="22.292" y2="33.955" gradientTransform="matrix(.64445 0 0 .64445 2.1639 14.811)" gradientUnits="userSpaceOnUse">
   <stop id="stop2687" style="stop-color:#fff;stop-opacity:.27451" offset="0"/>
   <stop id="stop2689" style="stop-color:#fff;stop-opacity:0" offset="1"/>
  </linearGradient>
  <linearGradient id="linearGradient3851" x1="29.647" x2="29.647" y1="2" y2="43.444" gradientTransform="matrix(.64445 0 0 .64445 .24348 16.823)" gradientUnits="userSpaceOnUse">
   <stop id="stop3644" style="stop-color:#fff" offset="0"/>
   <stop id="stop3646" style="stop-color:#fff;stop-opacity:0" offset="1"/>
  </linearGradient>
  <radialGradient id="radialGradient3627" cx="13.139" cy="25.625" r="13.931" gradientTransform="matrix(0 1.7104 -2.0383 0 63.162 -16.658)" gradientUnits="userSpaceOnUse">
   <stop id="stop3692" style="stop-color:#ffeb9f" offset="0"/>
   <stop id="stop3694" style="stop-color:#ffd57e" offset=".26238"/>
   <stop id="stop3696" style="stop-color:#ffbc43" offset=".66094"/>
   <stop id="stop3698" style="stop-color:#ff921a" offset="1"/>
  </radialGradient>
  <linearGradient id="linearGradient3629" x1="21.483" x2="21.483" y1="36.255" y2="9.58" gradientTransform="matrix(1.0639 0 0 1.0677 -6.8562 -9.1629)" gradientUnits="userSpaceOnUse">
   <stop id="stop3605" style="stop-color:#a7651c" offset="0"/>
   <stop id="stop3607" style="stop-color:#c8a700" offset="1"/>
  </linearGradient>
  <radialGradient id="radialGradient3897" cx="62.625" cy="4.625" r="10.625" gradientTransform="matrix(1.4118 0 0 .56471 -72.412 23.388)" gradientUnits="userSpaceOnUse">
   <stop id="stop8840" offset="0"/>
   <stop id="stop8842" style="stop-opacity:0" offset="1"/>
  </radialGradient>
 </defs>
 <metadata id="metadata3904">
  <rdf:RDF>
   <cc:Work rdf:about="">
    <dc:format>image/svg+xml</dc:format>
    <dc:type rdf:resource="http://purl.org/dc/dcmitype/StillImage"/>
    <dc:title/>
   </cc:Work>
  </rdf:RDF>
 </metadata>
 <g id="layer1">
  <path id="path8836" d="m31 26c0 3.3137-6.7157 6-15 6-8.2843 0-15-2.6863-15-6 0-3.3137 6.7157-6 15-6 8.2843 0 15 2.6863 15 6z" style="fill-rule:evenodd;fill:url(#radialGradient3897);opacity:.3"/>
  <path id="path1307" d="m16 1.4974c0.97878 0 4.1344 7.9109 4.9262 8.4883 0.79185 0.57739 9.2637 1.1447 9.5661 2.079 0.30246 0.93423-6.2191 6.3908-6.5215 7.325-0.30246 0.93423 1.7778 9.1958 0.98597 9.7731-0.79185 0.57739-7.978-3.9612-8.9568-3.9612-0.97878 0-8.1649 4.5386-8.9568 3.9612-0.79185-0.57739 1.2884-8.8389 0.98597-9.7731-0.30246-0.93423-6.824-6.3908-6.5215-7.325 0.30246-0.93423 8.7743-1.5016 9.5661-2.079 0.79185-0.57739 3.9474-8.4883 4.9262-8.4883z" style="fill:url(#radialGradient3627);stroke-linejoin:round;stroke-width:.99227;stroke:url(#linearGradient3629)"/>
  <path id="path11014" d="m24.029 28.151s-2.783-2.4119-6.4936-3.154" style="fill:none;opacity:.3;stroke:#fff"/>
  <path id="path11985" d="m7.7354 28.151s2.783-2.4119 6.4936-3.154" style="fill:none;opacity:.3;stroke:#fff"/>
  <path id="path3849" transform="translate(.28985 -16.29)" d="m15.719 19.219c-1.3475 2.6026-2.7118 5.3524-4.0625 7.9375a0.33524 0.33524 0 0 1-0.25 0.1875c-2.9059 0.47384-5.9201 0.99042-8.8438 1.4688 2.0554 2.0895 4.0392 4.2532 6.0938 6.3125a0.33524 0.33524 0 0 1 0.09375 0.3125c-0.4393 2.8598-0.68023 5.6037-1.0938 8.4688l7.875-3.9375a0.33524 0.33524 0 0 1 0.3125 0l7.9062 3.9375c-0.424-2.8502-0.74736-5.541-1.1875-8.4062a0.33524 0.33524 0 0 1 0.0625-0.25 0.33524 0.33524 0 0 1 0.03125-0.0625c2.0683-2.0732 4.1414-4.2727 6.2188-6.375-2.7548-0.62958-5.9395-0.99009-8.875-1.4688a0.33524 0.33524 0 0 1-0.15625-0.09375 0.33524 0.33524 0 0 1-0.09375-0.09375c-1.3513-2.5864-2.6886-5.3366-4.0312-7.9375z" style="fill:none;opacity:.4;stroke-linejoin:round;stroke:url(#linearGradient3851)"/>
  <path id="path3853" transform="translate(.28985 -16.29)" d="m15.719 18.531c-0.25445 0.37409-2.3468 3.4728-4.375 8.25a0.20608 0.20608 0 0 1-0.03125 0.03125 0.20608 0.20608 0 0 1-0.09375 0.0625 0.20608 0.20608 0 0 1-0.03125 0.03125c-3.0053 0.49005-7.003 1.0387-9.3125 1.6875 1.5783 2.0005 3.5605 3.737 5.3438 5.5625l20.25-3.5938c0.58279-0.58415 1.7128-1.7131 2-2-2.872-0.77688-6.2395-1.1341-9.25-1.625a0.20608 0.20608 0 0 1-0.03125-0.03125 0.20608 0.20608 0 0 1-0.09375-0.0625 0.20608 0.20608 0 0 1-0.03125-0.03125c-1.5252-3.5409-4.0563-7.801-4.3438-8.2812z" style="fill:url(#linearGradient3855);opacity:.8"/>
 </g>
</svg>
