<?xml version="1.0" encoding="UTF-8"?>
<!-- Created with Inkscape (http://www.inkscape.org/) -->
<svg id="svg3257" width="32" height="32" version="1.0" xmlns="http://www.w3.org/2000/svg" xmlns:xlink="http://www.w3.org/1999/xlink">
 <defs id="defs3259">
  <radialGradient id="radialGradient2469" cx="62.625" cy="4.625" r="10.625" gradientTransform="matrix(1.5059 0 0 .37647 -78.306 26.259)" gradientUnits="userSpaceOnUse">
   <stop id="stop8840" offset="0"/>
   <stop id="stop8842" style="stop-opacity:0" offset="1"/>
  </radialGradient>
  <linearGradient id="linearGradient2452" x1="24.104" x2="24.104" y1="15.181" y2="34.225" gradientTransform="matrix(1.372 0 0 1.3637 -16.76 -15.39)" gradientUnits="userSpaceOnUse">
   <stop id="stop2266" style="stop-color:#d7e866" offset="0"/>
   <stop id="stop2268" style="stop-color:#8cab2a" offset="1"/>
  </linearGradient>
  <linearGradient id="linearGradient3255" x1="15" x2="15" y1="1" y2="31.067" gradientUnits="userSpaceOnUse">
   <stop id="stop3247" style="stop-color:#fff" offset="0"/>
   <stop id="stop3249" style="stop-color:#fff;stop-opacity:0" offset="1"/>
  </linearGradient>
 </defs>
 <g id="layer1">
  <path id="path8836" d="m32 28c0 2.2091-7.1634 4-16 4-8.8366 0-16-1.7909-16-4s7.1634-4 16-4c8.8366 0 16 1.7909 16 4z" style="fill-rule:evenodd;fill:url(#radialGradient2469);opacity:.3"/>
  <path id="path2262" d="m10.5 10.5v-9h11v9h9v11h-9v9h-11v-9h-9v-11h9z" style="fill-rule:evenodd;fill:url(#linearGradient2452);stroke-linejoin:round;stroke:#699536"/>
  <path id="path3253" d="m11.5 2.5v8c-4e-3 0.55062-0.44938 0.99601-1 1h-8v9h8c0.55062 4e-3 0.99601 0.44938 1 1v8h9v-8c4e-3 -0.55062 0.44938-0.99601 1-1h8v-9h-8c-0.55062-4e-3 -0.99601-0.44938-1-1v-8h-9z" style="fill:none;opacity:.4;stroke:url(#linearGradient3255)"/>
 </g>
</svg>
