<?xml version="1.0" encoding="UTF-8"?>
<svg height="16px" viewBox="0 0 16 16" width="16px" xmlns="http://www.w3.org/2000/svg">
    <g fill="#222222">
        <path d="m 2.484375 8 c -0.832031 0 -1.503906 0.667969 -1.503906 1.5 v 4 c 0 0.832031 0.671875 1.5 1.503906 1.5 h 9.007813 c 0.832031 0 1.503906 -0.667969 1.503906 -1.5 v -4 c 0 -0.832031 -0.671875 -1.5 -1.503906 -1.5 z m 0.0625 1 c 3.183594 0.269531 6.113281 0.230469 8.882813 0 c 0.304687 -0.023438 0.5625 0.261719 0.5625 0.5625 v 2.875 c 0 0.300781 -0.261719 0.527344 -0.5625 0.5625 c -3.003907 0.339844 -5.964844 0.328125 -8.882813 0 c -0.304687 -0.035156 -0.566406 -0.261719 -0.566406 -0.5625 v -2.875 c 0 -0.300781 0.261719 -0.585938 0.566406 -0.5625 z m -0.0625 -8 c -0.832031 0 -1.503906 0.667969 -1.503906 1.5 v 3 c 0 0.832031 0.671875 1.5 1.503906 1.5 h 4.003906 c 0.832031 0 1.5 -0.667969 1.5 -1.5 v -3 c 0 -0.832031 -0.667969 -1.5 -1.5 -1.5 z m 0.0625 1 c 1.691406 0.199219 2.847656 0.128906 3.878906 0 c 0.300781 -0.039062 0.5625 0.261719 0.5625 0.5625 v 2.875 c 0 0.300781 -0.261719 0.523438 -0.5625 0.5625 c -1.289062 0.167969 -2.59375 0.167969 -3.878906 0 c -0.300781 -0.039062 -0.566406 -0.261719 -0.566406 -0.5625 v -2.875 c 0 -0.300781 0.261719 -0.597656 0.566406 -0.5625 z m 0 0"/>
        <path d="m 10.492188 0 c -0.832032 0 -1.5 0.667969 -1.5 1.5 v 4 c 0 0.832031 0.667968 1.5 1.5 1.5 h 4.003906 c 0.832031 0 1.503906 -0.667969 1.503906 -1.5 v -4 c 0 -0.832031 -0.671875 -1.5 -1.503906 -1.5 z m 0.0625 1 c 1.289062 0.125 2.589843 0.125 3.878906 0 c 0.300781 -0.027344 0.5625 0.261719 0.5625 0.5625 v 2.875 c 0 0.300781 -0.261719 0.527344 -0.5625 0.5625 c -1.253906 0.152344 -2.542969 0.179688 -3.878906 0 c -0.300782 -0.039062 -0.5625 -0.261719 -0.5625 -0.5625 v -2.875 c 0 -0.300781 0.261718 -0.589844 0.5625 -0.5625 z m 0 0" fill-opacity="0.34902"/>
    </g>
</svg>
