<?xml version="1.0" encoding="UTF-8"?>
<svg height="16px" viewBox="0 0 16 16" width="16px" xmlns="http://www.w3.org/2000/svg">
    <g fill="#222222">
        <path d="m 7 0 c -0.828125 0 -1.5 0.671875 -1.5 1.5 c 0 0.074219 0.007812 0.148438 0.015625 0.222656 c -2.089844 0.652344 -3.515625 2.585938 -3.515625 4.777344 v 4.5 h -0.5 c -0.554688 0 -1 0.445312 -1 1 s 0.445312 1 1 1 h 5.378906 c -0.792968 -0.507812 -1.46875 -1.191406 -1.972656 -2 h -0.90625 v -4.5 c 0 -1.65625 1.34375 -3 3 -3 c 0.683594 0 1.34375 0.234375 1.875 0.660156 c 0.457031 -0.105468 0.929688 -0.160156 1.414062 -0.160156 c 0.371094 0 0.738282 0.03125 1.097657 0.09375 c -0.625 -1.136719 -1.664063 -1.984375 -2.90625 -2.371094 c 0.015625 -0.074218 0.019531 -0.148437 0.019531 -0.222656 c 0 -0.828125 -0.667969 -1.5 -1.5 -1.5 z m -2 14 c 0 0.714844 0.382812 1.375 1 1.730469 c 0.617188 0.359375 1.382812 0.359375 2 0 c 0.617188 -0.355469 1 -1.015625 1 -1.730469 z m 0 0"/>
        <path d="m 11 5 c -2.433594 0.003906 -4.394531 1.644531 -5 4 c 0.609375 2.351562 2.570312 4 5 4 c 2.429688 -0.003906 4.394531 -1.644531 5 -4 c -0.609375 -2.351562 -2.570312 -4 -5 -4 z m 0 1.332031 c 1.472656 0 2.667969 1.195313 2.667969 2.667969 s -1.195313 2.667969 -2.667969 2.667969 s -2.667969 -1.195313 -2.667969 -2.667969 s 1.195313 -2.667969 2.667969 -2.667969 z m 0 1.335938 c -0.738281 0 -1.332031 0.59375 -1.332031 1.332031 s 0.59375 1.332031 1.332031 1.332031 c 0.734375 0 1.332031 -0.597656 1.332031 -1.332031 c 0 -0.738281 -0.597656 -1.332031 -1.332031 -1.332031 z m 0 0"/>
    </g>
</svg>
