<?xml version="1.0" encoding="UTF-8" standalone="no"?>
<svg
   height="16px"
   viewBox="0 0 16 16"
   width="16px"
   version="1.1"
   id="svg1"
   xmlns="http://www.w3.org/2000/svg"
   xmlns:svg="http://www.w3.org/2000/svg">
  <defs
     id="defs1" />
  <g
     id="g456"
     transform="matrix(1,0,0,-1,392,1185.9336)"
     style="fill:#2e3436;fill-opacity:1">
    <g
       id="g143"
       transform="translate(0,-0.50051875)"
       style="fill:#2e3436;fill-opacity:1">
      <g
         id="g144"
         transform="translate(0,0.5)"
         style="fill:#2e3436;fill-opacity:1">
        <path
           d="m -388,1172.4341 c 0,-0.2656 0.1055,-0.5195 0.293,-0.707 0.3906,-0.3906 1.0234,-0.3906 1.414,0 l 2.293,2.293 2.293,-2.293 c 0.3906,-0.3906 1.0234,-0.3906 1.414,0 0.1875,0.1875 0.293,0.4414 0.293,0.707 0,0.2656 -0.1055,0.5195 -0.293,0.707 l -3,3 c -0.3906,0.3907 -1.0234,0.3907 -1.414,0 l -3,-3 c -0.1875,-0.1875 -0.293,-0.4414 -0.293,-0.707 z"
           fill="#2e3436"
           id="path177459-1"
           style="fill:#2e3436;fill-opacity:1" />
        <path
           d="m -388,1183.4342 c 0,0.2656 0.1055,0.5195 0.293,0.707 0.3906,0.3906 1.0234,0.3906 1.414,0 l 2.293,-2.293 2.293,2.293 c 0.3906,0.3906 1.0234,0.3906 1.414,0 0.1875,-0.1875 0.293,-0.4414 0.293,-0.707 0,-0.2656 -0.1055,-0.5195 -0.293,-0.707 l -3,-3 c -0.3906,-0.3907 -1.0234,-0.3907 -1.414,0 l -3,3 c -0.1875,0.1875 -0.293,0.4414 -0.293,0.707 z"
           fill="#2e3436"
           id="path142"
           style="fill:#2e3436;fill-opacity:1" />
      </g>
    </g>
  </g>
</svg>
