<?xml version="1.0" encoding="UTF-8"?>
<svg height="32px" viewBox="0 0 32 32" width="32px" xmlns="http://www.w3.org/2000/svg">
    <path d="m 13.5 3 c -5.789062 0 -10.5 4.710938 -10.5 10.5 s 4.710938 10.5 10.5 10.5 c 2.621094 0 4.953125 -1.0625 6.792969 -2.65625 c -0.019531 0.117188 -0.023438 0.242188 0 0.363281 l 6 6 c 0.253906 0.246094 0.621093 0.339844 0.960937 0.25 c 0.734375 -0.203125 0.984375 -1.117187 0.453125 -1.664062 l -6 -6 c -0.121093 -0.023438 -0.246093 -0.019531 -0.367187 0.003906 c 1.597656 -1.84375 2.660156 -4.175781 2.660156 -6.796875 c 0 -5.789062 -4.710938 -10.5 -10.5 -10.5 z m 0 2 c 4.707031 0 8.5 3.792969 8.5 8.5 s -3.792969 8.5 -8.5 8.5 s -8.5 -3.792969 -8.5 -8.5 s 3.792969 -8.5 8.5 -8.5 z m 0 0" fill="#241f31"/>
</svg>
