<?xml version="1.0" encoding="UTF-8"?>
<svg height="32px" viewBox="0 0 32 32" width="32px" xmlns="http://www.w3.org/2000/svg">
    <path d="m 12.105469 1 c -2.265625 0 -4.097657 1.847656 -4.097657 4.078125 v 9.832031 c 0 2.230469 1.832032 4.078125 4.097657 4.078125 h 3.894531 v 1.46875 c 0 1.40625 1.132812 2.542969 2.542969 2.542969 h 3.414062 c 1.410157 0 2.546875 -1.136719 2.546875 -2.542969 v -1.46875 h 3.390625 c 2.265625 0 4.097657 -1.847656 4.097657 -4.078125 v -9.832031 c 0 -2.230469 -1.832032 -4.078125 -4.097657 -4.078125 z m 0 1.980469 h 15.789062 c 1.15625 0 2.078125 0.90625 2.078125 2.097656 v 9.832031 c 0 1.191406 -0.921875 2.097656 -2.078125 2.097656 h -15.789062 c -1.15625 0 -2.078125 -0.90625 -2.078125 -2.097656 v -9.832031 c 0 -1.191406 0.921875 -2.097656 2.078125 -2.097656 z m 5.894531 16.007812 h 4.5 v 1.46875 c 0 0.300781 -0.242188 0.542969 -0.542969 0.542969 h -3.414062 c -0.300781 0 -0.542969 -0.242188 -0.542969 -0.542969 z m 0 0" fill="#242032" fill-opacity="0.2"/>
    <path d="m 4 21 c -1.644531 0 -3 1.355469 -3 3 v 5.585938 l -0.707031 0.707031 c -0.2851565 0.285156 -0.371094 0.714843 -0.214844 1.089843 c 0.152344 0.375 0.515625 0.617188 0.921875 0.617188 h 14 c 0.40625 0 0.769531 -0.242188 0.921875 -0.617188 c 0.15625 -0.375 0.070313 -0.804687 -0.214844 -1.089843 l -0.707031 -0.707031 v -5.585938 c 0 -1.644531 -1.355469 -3 -3 -3 z m 0 2 h 8 c 0.570312 0 1 0.429688 1 1 v 5 h -10 v -5 c 0 -0.570312 0.429688 -1 1 -1 z m 0 0" fill="#241f31"/>
</svg>
