<?xml version="1.0" encoding="UTF-8"?>
<svg height="32px" viewBox="0 0 32 32" width="32px" xmlns="http://www.w3.org/2000/svg">
    <path d="m 7 4.945312 c -2.199219 0 -4 1.800782 -4 4 l -0.003906 11.054688 c 0 2.199219 1.800781 4 4 4 h 2.003906 c 0.550781 0 1 -0.449219 1 -1 s -0.449219 -1 -1 -1 h -2.003906 c -1.125 0 -2 -0.875 -2 -2 l 0.003906 -11.054688 c 0 -1.125 0.875 -2 2 -2 h 18 c 1.125 0 2 0.875 2 2 l -0.003906 11.054688 c 0 1.125 -0.871094 2 -2 2 h -1.996094 c -0.550781 0 -1 0.449219 -1 1 s 0.449219 1 1 1 h 1.996094 c 2.199218 0 4 -1.800781 4 -4 l 0.003906 -11.054688 c 0 -2.199218 -1.800781 -4 -4 -4 z m 9 14.0625 c -0.484375 0 -0.972656 0.214844 -1.265625 0.644532 l -3.523437 5.136718 c -0.609376 0.890626 0.085937 2.210938 1.164062 2.210938 h 7.257812 c 1.078126 0 1.773438 -1.320312 1.164063 -2.210938 l -3.53125 -5.136718 c -0.296875 -0.429688 -0.78125 -0.644532 -1.265625 -0.644532 z m 0 2.332032 l 2.515625 3.660156 h -5.023437 z m 0 0" fill="#241f31"/>
</svg>
