<?xml version="1.0" encoding="UTF-8" standalone="no"?>
<svg xmlns:dc="http://purl.org/dc/elements/1.1/" xmlns:cc="http://creativecommons.org/ns#" xmlns:rdf="http://www.w3.org/1999/02/22-rdf-syntax-ns#" xmlns:svg="http://www.w3.org/2000/svg" xmlns="http://www.w3.org/2000/svg" xmlns:xlink="http://www.w3.org/1999/xlink" xmlns:sodipodi="http://sodipodi.sourceforge.net/DTD/sodipodi-0.dtd" xmlns:inkscape="http://www.inkscape.org/namespaces/inkscape" inkscape:export-filename="/home/gusbemacbe/Pictures/application-x-theme-preview6.png" style="display:inline;enable-background:new" version="1.0" inkscape:output_extension="org.inkscape.output.svg.inkscape" sodipodi:docname="application-x-theme.svg" inkscape:version="1.0alpha (d63f16a48b, 2019-05-07)" sodipodi:version="0.32" id="svg11300" height="300" width="400" inkscape:export-xdpi="90.000000" inkscape:export-ydpi="90.000000">
  <title id="title3004">Suru Icon Theme Template</title>
  <sodipodi:namedview inkscape:document-rotation="0" showborder="false" inkscape:pagecheckerboard="false" inkscape:snap-smooth-nodes="true" inkscape:snap-intersection-paths="true" inkscape:object-paths="true" inkscape:snap-global="true" inkscape:snap-bbox-midpoints="true" inkscape:bbox-paths="true" inkscape:window-maximized="1" inkscape:guide-bbox="true" showguides="true" inkscape:snap-grids="true" inkscape:object-nodes="true" gridtolerance="10000" inkscape:snap-bbox="true" inkscape:snap-nodes="true" height="300px" width="400px" inkscape:window-y="0" inkscape:window-x="0" inkscape:window-height="827" inkscape:window-width="1600" inkscape:showpageshadow="false" inkscape:document-units="px" inkscape:grid-bbox="true" showgrid="false" inkscape:current-layer="layer6" inkscape:cy="124.75085" inkscape:cx="155.68617" inkscape:zoom="1.3385066" inkscape:pageshadow="2" inkscape:pageopacity="0" borderopacity="0.25490196" bordercolor="#000000" pagecolor="#ffffff" id="base" fill="#f57900" stroke="#ef2929">
    <inkscape:grid originy="0" originx="0" snapvisiblegridlinesonly="true" empspacing="4" visible="true" enabled="true" type="xygrid" id="grid5883" spacingx="1" spacingy="1" />
    <inkscape:grid originy="0" originx="0" snapvisiblegridlinesonly="true" empopacity="0.25098039" empcolor="#ff0000" opacity="0.1254902" color="#ff0000" spacingy="0.5" spacingx="0.5" enabled="false" visible="true" empspacing="2" id="grid11592" type="xygrid" />
  </sodipodi:namedview>
  <defs id="defs3">
    <clipPath id="clipPath9430" clipPathUnits="userSpaceOnUse">
      <path style="color:#000000;display:inline;overflow:visible;visibility:visible;fill:#ffffff;fill-opacity:1;fill-rule:nonzero;stroke:none;stroke-width:1;marker:none;enable-background:new" d="m 166.0625,-196 h 179.875 C 491.2348,-196 512,-175.28677 512,-30.125 v 148.25 C 512,263.28618 491.2348,284 345.9375,284 H 166.0625 C 20.7652,284 0,263.28618 0,118.125 V -30.125 C 0,-175.28677 20.7652,-196 166.0625,-196 Z" id="path9432" inkscape:connector-curvature="0" sodipodi:nodetypes="sssssssss" />
    </clipPath>
    <clipPath id="clipPath1082" clipPathUnits="userSpaceOnUse">
      <path style="display:inline;opacity:1;fill:#8c59d9;fill-opacity:1;stroke:none;stroke-width:2;stroke-linecap:round;stroke-linejoin:round;stroke-miterlimit:4;stroke-dasharray:none;stroke-dashoffset:0;stroke-opacity:1;enable-background:new" d="M 361.9375,-212 C 507.2348,-212 528,-191.28677 528,-46.125 V 70.125 C 528,215.28618 507.2348,236 361.9375,236 H 214.0625 C 68.7652,236 48,215.28618 48,70.125 V -46.125 C 48,-191.28677 68.7652,-212 214.0625,-212 Z" id="path1084" inkscape:connector-curvature="0" sodipodi:nodetypes="sssssssss" />
    </clipPath>
    <filter height="1.0219313" y="-0.010965657" width="1.0264996" x="-0.013249796" id="filter4346" style="color-interpolation-filters:sRGB" inkscape:collect="always">
      <feGaussianBlur id="feGaussianBlur4348" stdDeviation="2.120027" inkscape:collect="always" />
    </filter>
    <linearGradient gradientUnits="userSpaceOnUse" y2="488" x2="488" y1="88" x1="88" id="linearGradient4358" xlink:href="#linearGradient4360" inkscape:collect="always" />
    <linearGradient inkscape:collect="always" id="linearGradient4360">
      <stop style="stop-color:#000000;stop-opacity:0.58823532" offset="0" id="stop4362" />
      <stop id="stop4364" offset="0.88" style="stop-color:#000000;stop-opacity:0" />
      <stop style="stop-color:#000000;stop-opacity:1" offset="1" id="stop4366" />
    </linearGradient>
    <filter height="1.0877253" y="-0.043862626" width="1.1059984" x="-0.052999184" id="filter4380" style="color-interpolation-filters:sRGB" inkscape:collect="always">
      <feGaussianBlur id="feGaussianBlur4382" stdDeviation="8.4801079" inkscape:collect="always" />
    </filter>
    <linearGradient gradientTransform="matrix(0,-0.453125,0.45311204,0,26.0376,268)" inkscape:collect="always" xlink:href="#linearGradient4338" id="linearGradient4226" x1="529.65515" y1="401.58368" x2="-35.310345" y2="119.09284" gradientUnits="userSpaceOnUse" />
    <linearGradient id="linearGradient4338" inkscape:collect="always">
      <stop id="stop4340" offset="0" style="stop-color:#f2f2f2;stop-opacity:1" />
      <stop id="stop4342" offset="1" style="stop-color:#f9f9f9;stop-opacity:1" />
    </linearGradient>
    <linearGradient id="linearGradient927" inkscape:collect="always">
      <stop id="stop923" offset="0" style="stop-color:#ffffff;stop-opacity:1;" />
      <stop style="stop-color:#ffffff;stop-opacity:0.09803922" offset="0.125" id="stop933" />
      <stop style="stop-color:#ffffff;stop-opacity:0.09803922" offset="0.92500001" id="stop931" />
      <stop id="stop925" offset="1" style="stop-color:#ffffff;stop-opacity:0.49803922" />
    </linearGradient>
    <clipPath id="clipPath994" clipPathUnits="userSpaceOnUse">
      <path sodipodi:nodetypes="scccssscsss" inkscape:connector-curvature="0" id="path996" d="m 335.73108,62 c -8.82418,0 -9.77365,0.90635 -9.7304,9.74838 V 84 96.25162 c -0.0433,8.84203 0.90622,9.74838 9.7304,9.74838 h 16.53919 c 8.82418,0 9.7304,-0.90625 9.7304,-9.74838 V 84 71.74838 C 362.00067,62.90625 361.09445,62 352.27027,62 Z" style="color:#000000;display:inline;overflow:visible;visibility:visible;fill:#cdcdcd;fill-opacity:1;fill-rule:nonzero;stroke:none;stroke-width:2;stroke-miterlimit:4;stroke-dasharray:none;stroke-opacity:1;marker:none;enable-background:accumulate" />
    </clipPath>
    <linearGradient gradientUnits="userSpaceOnUse" y2="106" x2="344" y1="62" x1="344" id="linearGradient1004" xlink:href="#linearGradient927" inkscape:collect="always" />
    <linearGradient y2="207.36522" x2="35.310345" y1="419.23337" x1="459.03448" gradientTransform="matrix(0,-0.11328125,0.11327801,0,308.51008,112)" gradientUnits="userSpaceOnUse" id="linearGradient1024" xlink:href="#linearGradient4338" inkscape:collect="always" />
    <linearGradient y2="207.36522" x2="35.310345" y1="419.23337" x1="459.03448" gradientTransform="matrix(0,-0.05664062,0.05663901,0,314.2547,214)" gradientUnits="userSpaceOnUse" id="linearGradient916" xlink:href="#linearGradient4338" inkscape:collect="always" />
    <linearGradient y2="207.36522" x2="35.310345" y1="419.23337" x1="459.03448" gradientTransform="matrix(0,-0.03604403,0.03604301,0,316.43523,252.90909)" gradientUnits="userSpaceOnUse" id="linearGradient920" xlink:href="#linearGradient4338" inkscape:collect="always" />
    <linearGradient y2="207.36522" x2="35.310345" y1="419.23337" x1="459.03448" gradientTransform="matrix(0,-0.07208805,0.07208601,0,312.87045,165.81816)" gradientUnits="userSpaceOnUse" id="linearGradient924" xlink:href="#linearGradient4338" inkscape:collect="always" />
    <clipPath id="clipPath959" clipPathUnits="userSpaceOnUse">
      <path sodipodi:nodetypes="scccssscsss" inkscape:connector-curvature="0" id="path961" d="m 330.1929,133.99999 c -5.61538,0 -6.21958,0.57678 -6.19206,6.20352 v 7.79648 7.79648 c -0.0276,5.62673 0.57668,6.20351 6.19206,6.20351 h 11.615 c 5.6154,0 6.19208,-0.5767 6.19208,-6.20351 v -7.79648 -7.79648 c 0,-5.6268 -0.5767,-6.20352 -6.19208,-6.20352 z" style="color:#000000;display:inline;overflow:visible;visibility:visible;opacity:1;fill:#46a926;fill-opacity:1;fill-rule:nonzero;stroke:none;stroke-width:2;stroke-miterlimit:4;stroke-dasharray:none;stroke-opacity:1;marker:none;enable-background:accumulate" />
    </clipPath>
    <linearGradient gradientUnits="userSpaceOnUse" y2="162" x2="336" y1="134" x1="336" id="linearGradient969" xlink:href="#linearGradient927" inkscape:collect="always" />
    <clipPath id="clipPath971" clipPathUnits="userSpaceOnUse">
      <path sodipodi:nodetypes="scccssscsss" inkscape:connector-curvature="0" id="path973" d="m 327.8652,189 c -4.41209,0 -4.88682,0.45318 -4.8652,4.87419 V 200 206.12581 C 322.9783,210.54682 323.45311,211 327.8652,211 h 8.2696 C 340.54689,211 341,210.54688 341,206.12581 V 200 193.87419 C 341,189.45313 340.54688,189 336.13479,189 Z" style="color:#000000;display:inline;overflow:visible;visibility:visible;opacity:1;fill:#46a926;fill-opacity:1;fill-rule:nonzero;stroke:none;stroke-width:2;stroke-miterlimit:4;stroke-dasharray:none;stroke-opacity:1;marker:none;enable-background:accumulate" />
    </clipPath>
    <linearGradient gradientUnits="userSpaceOnUse" y2="211" x2="332" y1="189" x1="332" id="linearGradient981" xlink:href="#linearGradient927" inkscape:collect="always" />
    <clipPath id="clipPath983" clipPathUnits="userSpaceOnUse">
      <path style="color:#000000;display:inline;overflow:visible;visibility:visible;opacity:1;fill:#46a926;fill-opacity:1;fill-rule:nonzero;stroke:none;stroke-width:2;stroke-miterlimit:4;stroke-dasharray:none;stroke-opacity:1;marker:none;enable-background:accumulate" d="m 325.09646,237 c -2.80769,0 -3.10979,0.28839 -3.09603,3.10176 V 244 v 3.89824 c -0.0138,2.81337 0.28834,3.10176 3.09603,3.10176 h 5.8075 C 333.71166,251 334,250.71165 334,247.89824 V 244 240.10176 C 334,237.28836 333.71165,237 330.90396,237 Z" id="path985" inkscape:connector-curvature="0" sodipodi:nodetypes="scccssscsss" />
    </clipPath>
    <linearGradient gradientUnits="userSpaceOnUse" y2="251" x2="328" y1="237" x1="328" id="linearGradient993" xlink:href="#linearGradient927" inkscape:collect="always" />
  </defs>
  <metadata id="metadata4">
    <rdf:RDF>
      <cc:Work rdf:about="">
        <dc:format>image/svg+xml</dc:format>
        <dc:type rdf:resource="http://purl.org/dc/dcmitype/StillImage" />
        <dc:creator>
          <cc:Agent>
            <dc:title>Sam Hewitt</dc:title>
          </cc:Agent>
        </dc:creator>
        <dc:source />
        <cc:license rdf:resource="http://creativecommons.org/licenses/by-sa/4.0/" />
        <dc:title>Suru Icon Theme Template</dc:title>
        <dc:subject>
          <rdf:Bag />
        </dc:subject>
        <dc:date />
        <dc:rights>
          <cc:Agent>
            <dc:title />
          </cc:Agent>
        </dc:rights>
        <dc:publisher>
          <cc:Agent>
            <dc:title />
          </cc:Agent>
        </dc:publisher>
        <dc:identifier />
        <dc:relation />
        <dc:language />
        <dc:coverage />
        <dc:description />
        <dc:contributor>
          <cc:Agent>
            <dc:title />
          </cc:Agent>
        </dc:contributor>
      </cc:Work>
      <cc:Work rdf:about="">
        <dc:format>image/svg+xml</dc:format>
        <dc:type rdf:resource="http://purl.org/dc/dcmitype/StillImage" />
      </cc:Work>
      <cc:License rdf:about="http://creativecommons.org/licenses/by-sa/4.0/">
        <cc:permits rdf:resource="http://creativecommons.org/ns#Reproduction" />
        <cc:permits rdf:resource="http://creativecommons.org/ns#Distribution" />
        <cc:requires rdf:resource="http://creativecommons.org/ns#Notice" />
        <cc:requires rdf:resource="http://creativecommons.org/ns#Attribution" />
        <cc:permits rdf:resource="http://creativecommons.org/ns#DerivativeWorks" />
        <cc:requires rdf:resource="http://creativecommons.org/ns#ShareAlike" />
      </cc:License>
    </rdf:RDF>
  </metadata>
  <g id="layer1" inkscape:label="Icon" inkscape:groupmode="layer" style="display:inline">
    <g inkscape:groupmode="layer" id="layer7" inkscape:label="Baseplate" style="display:none">
      <text id="context" inkscape:label="context" style="font-style:normal;font-variant:normal;font-weight:normal;font-stretch:normal;line-height:0%;font-family:'DejaVu Sans';-inkscape-font-specification:'DejaVu Sans';display:inline;fill:black;fill-opacity:1;stroke:none;enable-background:new" x="19.006836" xml:space="preserve" y="-8.2548828"><tspan id="tspan3933" sodipodi:role="line" x="19.006836" y="-8.2548828" style="font-style:normal;font-variant:normal;font-weight:normal;font-stretch:normal;font-size:18px;line-height:1.25;font-family:'DejaVu Sans';-inkscape-font-specification:'DejaVu Sans'">mimetypes</tspan></text>
      <text id="icon-name" inkscape:label="icon-name" style="font-style:normal;font-variant:normal;font-weight:bold;font-stretch:normal;line-height:0%;font-family:'DejaVu Sans';-inkscape-font-specification:'DejaVu Sans Bold';text-align:start;writing-mode:lr-tb;text-anchor:start;display:inline;fill:black;fill-opacity:1;stroke:none;enable-background:new" x="146.48828" xml:space="preserve" y="-8.2548828"><tspan id="tspan3937" sodipodi:role="line" x="146.48828" y="-8.2548828" style="font-style:normal;font-variant:normal;font-weight:bold;font-stretch:normal;font-size:18px;line-height:1.25;font-family:'DejaVu Sans';-inkscape-font-specification:'DejaVu Sans Bold'">application-x-ms-dos-executable</tspan></text>
      <rect inkscape:label="16x16" y="236" x="320" height="16" width="16" id="rect16x16" style="display:inline;overflow:visible;visibility:visible;fill:#cdcdcd;fill-opacity:1;fill-rule:nonzero;stroke:none;stroke-width:2;marker:none;enable-background:accumulate" />
      <rect inkscape:label="24x24" y="188" x="320" height="24" width="24" id="rect24x24" style="display:inline;overflow:visible;visibility:visible;fill:#cdcdcd;fill-opacity:1;fill-rule:nonzero;stroke:none;stroke-width:2;marker:none;enable-background:accumulate" />
      <rect inkscape:label="32x32" y="132" x="320" height="32" width="32" id="rect32x32" style="display:inline;overflow:visible;visibility:visible;fill:#cdcdcd;fill-opacity:1;fill-rule:nonzero;stroke:none;stroke-width:2;marker:none;enable-background:accumulate" />
      <rect style="display:inline;overflow:visible;visibility:visible;fill:#cdcdcd;fill-opacity:1;fill-rule:nonzero;stroke:none;stroke-width:2;marker:none;enable-background:accumulate" id="rect48x48" width="48" height="48" x="320" y="60" inkscape:label="48x48" />
      <rect inkscape:label="48x48" y="28" x="24" height="256" width="256" id="rect3951" style="display:inline;overflow:visible;visibility:visible;fill:#cdcdcd;fill-opacity:1;fill-rule:nonzero;stroke:none;stroke-width:2;marker:none;enable-background:accumulate" />
    </g>
    <g sodipodi:insensitive="true" style="display:inline" inkscape:label="Shadows" id="layer4" inkscape:groupmode="layer">
      <path sodipodi:nodetypes="sccccccccssscccscscccss" inkscape:connector-curvature="0" id="path995" d="m 327.86523,189 c -1.12014,0 -2.01524,0.0241 -2.79101,0.1543 -0.77577,0.13022 -1.48014,0.38763 -2.00977,0.91601 -0.52962,0.52838 -0.79079,1.23687 -0.91992,2.01367 -0.12912,0.77681 -0.15002,1.67169 -0.14453,2.79493 V 201 v 6.125 c -0.005,1.12104 0.0156,2.01529 0.14453,2.79102 0.12912,0.77681 0.39029,1.48529 0.91992,2.01367 0.52964,0.52838 1.234,0.78579 2.00977,0.91601 0.77577,0.13022 1.67087,0.1543 2.79101,0.1543 h 8.26954 c 1.12013,0 2.01264,-0.024 2.78711,-0.1543 0.77446,-0.13033 1.48001,-0.38927 2.00781,-0.91797 0.5278,-0.52869 0.78594,-1.23438 0.91601,-2.00976 C 341.97577,209.14258 342,208.24735 342,207.125 V 201 194.875 c 0,-1.12235 -0.0242,-2.01758 -0.1543,-2.79297 -0.13007,-0.77538 -0.38821,-1.48107 -0.91601,-2.00976 -0.5278,-0.5287 -1.23334,-0.78764 -2.00781,-0.91797 C 338.1474,189.02397 337.25491,189 336.13477,189 Z" style="color:black;font-style:normal;font-variant:normal;font-weight:normal;font-stretch:normal;font-size:medium;line-height:normal;font-family:sans-serif;font-variant-ligatures:normal;font-variant-position:normal;font-variant-caps:normal;font-variant-numeric:normal;font-variant-alternates:normal;font-feature-settings:normal;text-indent:0;text-align:start;text-decoration:none;text-decoration-line:none;text-decoration-style:solid;text-decoration-color:black;letter-spacing:normal;word-spacing:normal;text-transform:none;writing-mode:lr-tb;direction:ltr;text-orientation:mixed;dominant-baseline:auto;baseline-shift:baseline;text-anchor:start;white-space:normal;shape-padding:0;clip-rule:nonzero;display:inline;overflow:visible;visibility:visible;opacity:0.1;isolation:auto;mix-blend-mode:normal;color-interpolation:sRGB;color-interpolation-filters:linearRGB;solid-color:black;solid-opacity:1;vector-effect:none;fill:black;fill-opacity:1;fill-rule:nonzero;stroke:none;stroke-width:2;stroke-linecap:butt;stroke-linejoin:miter;stroke-miterlimit:4;stroke-dasharray:none;stroke-dashoffset:0;stroke-opacity:1;marker:none;color-rendering:auto;image-rendering:auto;shape-rendering:auto;text-rendering:auto;enable-background:accumulate" />
      <path sodipodi:nodetypes="scscccccccsscscscscscss" inkscape:connector-curvature="0" id="path997" d="m 325.0957,237 c -0.71904,0 -1.30185,0.0139 -1.83593,0.10352 -0.53409,0.0897 -1.0683,0.27628 -1.47657,0.68359 -0.40826,0.4073 -0.59657,0.94323 -0.68554,1.47851 -0.089,0.53529 -0.10119,1.12048 -0.0977,1.8418 V 244 v 3.89844 c -0.003,0.71816 0.009,1.30235 0.0977,1.83594 0.089,0.53528 0.27727,1.07121 0.68554,1.47851 0.40827,0.40731 0.94248,0.59394 1.47657,0.68359 0.53408,0.0897 1.11689,0.10352 1.83593,0.10352 h 5.8086 c 0.71904,0 1.30058,-0.0137 1.83398,-0.10352 0.53341,-0.0898 1.06768,-0.27792 1.47461,-0.68554 0.40693,-0.40762 0.59404,-0.94271 0.68359,-1.47656 C 334.98604,249.20052 335,248.61887 335,247.89844 V 244 241.10156 c 0,-0.72043 -0.014,-1.30208 -0.10352,-1.83594 -0.0895,-0.53385 -0.27666,-1.06894 -0.68359,-1.47656 -0.40693,-0.40762 -0.9412,-0.59578 -1.47461,-0.68554 C 332.20488,237.01375 331.62334,237 330.9043,237 Z" style="color:black;font-style:normal;font-variant:normal;font-weight:normal;font-stretch:normal;font-size:medium;line-height:normal;font-family:sans-serif;font-variant-ligatures:normal;font-variant-position:normal;font-variant-caps:normal;font-variant-numeric:normal;font-variant-alternates:normal;font-feature-settings:normal;text-indent:0;text-align:start;text-decoration:none;text-decoration-line:none;text-decoration-style:solid;text-decoration-color:black;letter-spacing:normal;word-spacing:normal;text-transform:none;writing-mode:lr-tb;direction:ltr;text-orientation:mixed;dominant-baseline:auto;baseline-shift:baseline;text-anchor:start;white-space:normal;shape-padding:0;clip-rule:nonzero;display:inline;overflow:visible;visibility:visible;opacity:0.1;isolation:auto;mix-blend-mode:normal;color-interpolation:sRGB;color-interpolation-filters:linearRGB;solid-color:black;solid-opacity:1;vector-effect:none;fill:black;fill-opacity:1;fill-rule:nonzero;stroke:none;stroke-width:2;stroke-linecap:butt;stroke-linejoin:miter;stroke-miterlimit:4;stroke-dasharray:none;stroke-dashoffset:0;stroke-opacity:1;marker:none;color-rendering:auto;image-rendering:auto;shape-rendering:auto;text-rendering:auto;enable-background:accumulate" />
      <path sodipodi:nodetypes="scscccccscsscccscscscss" inkscape:connector-curvature="0" id="path999" d="m 330.19336,134 c -1.42096,0 -2.54883,0.0308 -3.50586,0.19141 -0.95703,0.16064 -1.79146,0.4726 -2.41211,1.09179 -0.62065,0.61919 -0.93647,1.45612 -1.0957,2.41407 -0.15924,0.95795 -0.18666,2.08705 -0.17969,3.51171 V 149 v 7.79688 c -0.007,1.42131 0.0207,2.5495 0.17969,3.50585 0.15923,0.95796 0.47505,1.79488 1.0957,2.41407 0.62065,0.61919 1.45508,0.93115 2.41211,1.09179 0.95703,0.16065 2.0849,0.19141 3.50586,0.19141 h 11.61523 c 1.42097,0 2.54669,-0.0307 3.50196,-0.19141 0.95527,-0.16075 1.78779,-0.47425 2.40625,-1.09375 0.61845,-0.6195 0.93134,-1.45363 1.09179,-2.41015 C 348.96905,159.34816 349,158.22066 349,156.79688 V 149 141.20312 c 0,-1.42378 -0.031,-2.55128 -0.19141,-3.50781 -0.16045,-0.95653 -0.47334,-1.79065 -1.09179,-2.41015 -0.61846,-0.61951 -1.45098,-0.933 -2.40625,-1.09375 C 344.35528,134.03065 343.22956,134 341.80859,134 Z" style="color:black;font-style:normal;font-variant:normal;font-weight:normal;font-stretch:normal;font-size:medium;line-height:normal;font-family:sans-serif;font-variant-ligatures:normal;font-variant-position:normal;font-variant-caps:normal;font-variant-numeric:normal;font-variant-alternates:normal;font-feature-settings:normal;text-indent:0;text-align:start;text-decoration:none;text-decoration-line:none;text-decoration-style:solid;text-decoration-color:black;letter-spacing:normal;word-spacing:normal;text-transform:none;writing-mode:lr-tb;direction:ltr;text-orientation:mixed;dominant-baseline:auto;baseline-shift:baseline;text-anchor:start;white-space:normal;shape-padding:0;clip-rule:nonzero;display:inline;overflow:visible;visibility:visible;opacity:0.1;isolation:auto;mix-blend-mode:normal;color-interpolation:sRGB;color-interpolation-filters:linearRGB;solid-color:black;solid-opacity:1;vector-effect:none;fill:black;fill-opacity:1;fill-rule:nonzero;stroke:none;stroke-width:2;stroke-linecap:butt;stroke-linejoin:miter;stroke-miterlimit:4;stroke-dasharray:none;stroke-dashoffset:0;stroke-opacity:1;marker:none;color-rendering:auto;image-rendering:auto;shape-rendering:auto;text-rendering:auto;enable-background:accumulate" />
      <path sodipodi:nodetypes="scccssscsss" inkscape:connector-curvature="0" id="path926" d="m 327.8652,189 c -4.41209,0 -4.88682,0.45318 -4.8652,4.87419 V 200 206.12581 C 322.9783,210.54682 323.45311,211 327.8652,211 h 8.2696 C 340.54689,211 341,210.54688 341,206.12581 V 200 193.87419 C 341,189.45313 340.54688,189 336.13479,189 Z" style="color:black;display:inline;overflow:visible;visibility:visible;opacity:0.2;fill:none;fill-opacity:1;fill-rule:nonzero;stroke:black;stroke-width:2;stroke-miterlimit:4;stroke-dasharray:none;stroke-opacity:1;marker:none;enable-background:accumulate" />
      <path style="color:black;display:inline;overflow:visible;visibility:visible;opacity:0.2;fill:none;fill-opacity:1;fill-rule:nonzero;stroke:black;stroke-width:2;stroke-miterlimit:4;stroke-dasharray:none;stroke-opacity:1;marker:none;enable-background:accumulate" d="m 325.09646,237 c -2.80769,0 -3.10979,0.28839 -3.09603,3.10176 V 244 v 3.89824 c -0.0138,2.81337 0.28834,3.10176 3.09603,3.10176 h 5.8075 C 333.71166,251 334,250.71165 334,247.89824 V 244 240.10176 C 334,237.28836 333.71165,237 330.90396,237 Z" id="path928" inkscape:connector-curvature="0" sodipodi:nodetypes="scccssscsss" />
      <path sodipodi:nodetypes="scccssscsss" inkscape:connector-curvature="0" id="path930" d="m 330.1929,133.99999 c -5.61538,0 -6.21958,0.57678 -6.19206,6.20352 v 7.79648 7.79648 c -0.0276,5.62673 0.57668,6.20351 6.19206,6.20351 h 11.615 c 5.6154,0 6.19208,-0.5767 6.19208,-6.20351 v -7.79648 -7.79648 c 0,-5.6268 -0.5767,-6.20352 -6.19208,-6.20352 z" style="color:black;display:inline;overflow:visible;visibility:visible;opacity:0.2;fill:none;fill-opacity:1;fill-rule:nonzero;stroke:black;stroke-width:2;stroke-miterlimit:4;stroke-dasharray:none;stroke-opacity:1;marker:none;enable-background:accumulate" />
      <path sodipodi:nodetypes="sccsccccccsscccscsccsss" inkscape:connector-curvature="0" id="path1020" d="m 335.73047,62 c -2.22316,0 -3.97368,0.05118 -5.41406,0.292969 -1.44039,0.241784 -2.61905,0.695299 -3.48243,1.55664 -0.86337,0.861342 -1.31906,2.039471 -1.55859,3.480469 -0.23953,1.440999 -0.28629,3.195341 -0.27539,5.423828 V 85 97.251953 c -0.0108,2.225063 0.0361,3.978517 0.27539,5.417967 0.23953,1.441 0.69522,2.61913 1.55859,3.48047 0.86338,0.86134 2.04204,1.31486 3.48243,1.55664 1.44039,0.24179 3.1909,0.29297 5.41406,0.29297 h 16.53906 c 2.22316,0 3.97276,-0.0511 5.41016,-0.29297 1.4374,-0.24189 2.61246,-0.69694 3.47265,-1.55859 0.8602,-0.86165 1.3132,-2.03894 1.55469,-3.47852 C 362.94852,101.23035 363,99.479567 363,97.251953 V 85 72.748047 c 0,-2.227614 -0.0515,-3.978392 -0.29297,-5.417969 -0.24149,-1.439576 -0.69449,-2.616863 -1.55469,-3.478516 -0.86019,-0.861652 -2.03525,-1.316704 -3.47265,-1.558593 C 356.24229,62.051079 354.49269,62 352.26953,62 Z" style="color:black;font-style:normal;font-variant:normal;font-weight:normal;font-stretch:normal;font-size:medium;line-height:normal;font-family:sans-serif;font-variant-ligatures:normal;font-variant-position:normal;font-variant-caps:normal;font-variant-numeric:normal;font-variant-alternates:normal;font-feature-settings:normal;text-indent:0;text-align:start;text-decoration:none;text-decoration-line:none;text-decoration-style:solid;text-decoration-color:black;letter-spacing:normal;word-spacing:normal;text-transform:none;writing-mode:lr-tb;direction:ltr;text-orientation:mixed;dominant-baseline:auto;baseline-shift:baseline;text-anchor:start;white-space:normal;shape-padding:0;clip-rule:nonzero;display:inline;overflow:visible;visibility:visible;opacity:0.1;isolation:auto;mix-blend-mode:normal;color-interpolation:sRGB;color-interpolation-filters:linearRGB;solid-color:black;solid-opacity:1;vector-effect:none;fill:black;fill-opacity:1;fill-rule:nonzero;stroke:none;stroke-width:2;stroke-linecap:butt;stroke-linejoin:miter;stroke-miterlimit:4;stroke-dasharray:none;stroke-dashoffset:0;stroke-opacity:1;marker:none;color-rendering:auto;image-rendering:auto;shape-rendering:auto;text-rendering:auto;enable-background:accumulate" />
      <path style="color:black;display:inline;overflow:visible;visibility:visible;opacity:0.2;fill:none;fill-opacity:1;fill-rule:nonzero;stroke:black;stroke-width:4;stroke-miterlimit:4;stroke-dasharray:none;stroke-opacity:1;marker:none;enable-background:accumulate" d="M 102.92162,44 C 67.624897,44 63.82701,47.625418 64,82.99353 V 156 229.00647 C 63.82701,264.37459 67.624897,268 102.92162,268 h 98.15676 C 236.3751,268 240,264.375 240,229.00647 V 156 82.99353 C 240,47.624997 236.3751,44 201.07838,44 Z" id="path1163" inkscape:connector-curvature="0" sodipodi:nodetypes="scccssscsss" />
      <path transform="matrix(0.5,0,0,0.5,8,8)" sodipodi:nodetypes="scccssscsss" inkscape:connector-curvature="0" id="rect4158-9" d="M 189.84323,74 C 119.24979,74 111.65402,81.250835 112,151.98706 V 298 444.01294 C 111.65402,514.74917 119.24979,522 189.84323,522 H 386.15677 C 456.75021,522 462.16345,514.72616 464,444.01294 V 298 151.98706 C 464,81.249993 456.75021,74 386.15677,74 Z" style="color:black;display:inline;overflow:visible;visibility:visible;opacity:0.1;fill:black;fill-opacity:1;fill-rule:nonzero;stroke:none;stroke-width:2;marker:none;filter:url(#filter4346);enable-background:accumulate" />
      <path transform="matrix(0.5,0,0,0.5,8,8)" style="color:black;display:inline;overflow:visible;visibility:visible;opacity:0.3;fill:url(#linearGradient4358);fill-opacity:1;fill-rule:nonzero;stroke:none;stroke-width:2;marker:none;filter:url(#filter4380);enable-background:accumulate" d="M 189.84323,74 C 119.24979,74 111.65402,81.250835 112,151.98706 V 298 444.01294 C 111.65402,514.74917 119.24979,522 189.84323,522 H 386.15677 C 456.75021,522 464,514.75001 464,444.01294 V 298 151.98706 C 464,81.249993 456.75021,74 386.15677,74 Z" id="path4350" inkscape:connector-curvature="0" sodipodi:nodetypes="scccssscsss" />
      <path sodipodi:nodetypes="scccssscsss" inkscape:connector-curvature="0" id="path958" d="m 335.73108,62 c -8.82418,0 -9.77365,0.90635 -9.7304,9.74838 V 84 96.25162 c -0.0433,8.84203 0.90622,9.74838 9.7304,9.74838 h 16.53919 c 8.82418,0 9.7304,-0.90625 9.7304,-9.74838 V 84 71.74838 C 362.00067,62.90625 361.09445,62 352.27027,62 Z" style="color:black;display:inline;overflow:visible;visibility:visible;opacity:0.2;fill:none;fill-opacity:1;fill-rule:nonzero;stroke:black;stroke-width:2;stroke-miterlimit:4;stroke-dasharray:none;stroke-opacity:1;marker:none;enable-background:accumulate" />
    </g>
    <g style="display:inline" inkscape:label="Background" id="layer2" inkscape:groupmode="layer">
      <path sodipodi:nodetypes="scccssscsss" inkscape:connector-curvature="0" id="path964" d="m 335.73108,62 c -8.82418,0 -9.77365,0.90635 -9.7304,9.74838 V 84 96.25162 c -0.0433,8.84203 0.90622,9.74838 9.7304,9.74838 h 16.53919 c 8.82418,0 9.7304,-0.90625 9.7304,-9.74838 V 84 71.74838 C 362.00067,62.90625 361.09445,62 352.27027,62 Z" style="color:black;display:inline;overflow:visible;visibility:visible;fill:url(#linearGradient1024);fill-opacity:1;fill-rule:nonzero;stroke:none;stroke-width:1;marker:none;enable-background:accumulate" />
      <path sodipodi:nodetypes="scccssscsss" inkscape:connector-curvature="0" id="rect4158" d="M 102.92162,44 C 67.624897,44 63.82701,47.625418 64,82.99353 V 156 229.00647 C 63.82701,264.37459 67.624897,268 102.92162,268 h 98.15676 C 236.3751,268 240,264.375 240,229.00647 V 156 82.99353 C 240,47.624997 236.3751,44 201.07838,44 Z" style="color:black;display:inline;overflow:visible;visibility:visible;fill:url(#linearGradient4226);fill-opacity:1;fill-rule:nonzero;stroke:none;stroke-width:1;marker:none;enable-background:accumulate" />
      <path inkscape:connector-curvature="0" id="path931" d="M 102.92188,44 C 67.625152,44 63.82701,47.626029 64,82.994141 v 2 C 63.82701,49.626029 67.625152,46 102.92188,46 h 98.15624 C 236.37485,46 240,49.625608 240,84.994141 v -2 C 240,47.625608 236.37485,44 201.07812,44 Z" style="color:black;display:inline;overflow:visible;visibility:visible;opacity:0.6;fill:white;fill-opacity:1;fill-rule:nonzero;stroke:none;stroke-width:1;marker:none;enable-background:accumulate" />
      <path style="color:black;display:inline;overflow:visible;visibility:visible;fill:url(#linearGradient916);fill-opacity:1;fill-rule:nonzero;stroke:none;stroke-width:1;marker:none;enable-background:accumulate" d="m 327.8652,189 c -4.41209,0 -4.88682,0.45318 -4.8652,4.87419 V 200 206.12581 C 322.9783,210.54682 323.45311,211 327.8652,211 h 8.2696 C 340.54689,211 341,210.54688 341,206.12581 V 200 193.87419 C 341,189.45313 340.54688,189 336.13479,189 Z" id="path914" inkscape:connector-curvature="0" sodipodi:nodetypes="scccssscsss" />
      <path sodipodi:nodetypes="scccssscsss" inkscape:connector-curvature="0" id="path918" d="m 325.09646,237 c -2.80769,0 -3.10979,0.28839 -3.09603,3.10176 V 244 v 3.89824 c -0.0138,2.81337 0.28834,3.10176 3.09603,3.10176 h 5.8075 C 333.71166,251 334,250.71165 334,247.89824 V 244 240.10176 C 334,237.28836 333.71165,237 330.90396,237 Z" style="color:black;display:inline;overflow:visible;visibility:visible;fill:url(#linearGradient920);fill-opacity:1;fill-rule:nonzero;stroke:none;stroke-width:1;marker:none;enable-background:accumulate" />
      <path style="color:black;display:inline;overflow:visible;visibility:visible;fill:url(#linearGradient924);fill-opacity:1;fill-rule:nonzero;stroke:none;stroke-width:1;marker:none;enable-background:accumulate" d="m 330.1929,133.99999 c -5.61538,0 -6.21958,0.57678 -6.19206,6.20352 v 7.79648 7.79648 c -0.0276,5.62673 0.57668,6.20351 6.19206,6.20351 h 11.615 c 5.6154,0 6.19208,-0.5767 6.19208,-6.20351 v -7.79648 -7.79648 c 0,-5.6268 -0.5767,-6.20352 -6.19208,-6.20352 z" id="path922" inkscape:connector-curvature="0" sodipodi:nodetypes="scccssscsss" />
    </g>
    <g style="display:inline" inkscape:label="Pictogram" id="layer6" inkscape:groupmode="layer">
      <path inkscape:label="16px" d="m 332.16551,240.32227 h -0.52426 v -0.79513 c 0,-0.3011 -0.23443,-0.52814 -0.54537,-0.52814 h -7.30306 c -0.30999,0 -0.55282,0.23197 -0.55282,0.52814 v 1.93099 c 0,0.30697 0.24801,0.5567 0.55282,0.5567 h 7.30306 c 0.30071,0 0.54537,-0.24973 0.54537,-0.5567 v -0.64347 h 0.52426 c 0.0286,0 0.0472,0.002 0.0585,0.004 10e-4,0.007 10e-4,0.0179 10e-4,0.0321 v 2.04302 c 0,0.092 -0.0366,0.16664 -0.0604,0.16664 h -4.25 c -0.38477,0 -0.67489,0.23689 -0.67489,0.55106 v 0.3106 h -0.15074 c -0.0787,0 -0.14873,0.0498 -0.17449,0.1242 l -0.46477,1.34177 c -0.006,0.0194 -0.0102,0.0399 -0.0102,0.0604 v 3.36662 c 0,0.10199 0.0827,0.18465 0.18464,0.18465 h 1.81565 c 0.10199,0 0.18464,-0.0827 0.18464,-0.18465 v -3.36662 c 0,-0.0199 -0.003,-0.0396 -0.01,-0.0584 l -0.44769,-1.34176 c -0.0251,-0.0754 -0.0957,-0.12621 -0.17513,-0.12621 h -0.26035 l -3.9e-4,-0.30949 c 0.009,-0.0165 0.0782,-0.0598 0.18314,-0.0598 h 4.25001 c 0.32033,0 0.55283,-0.27716 0.55283,-0.65903 v -2.04301 c 6e-5,-0.33138 -0.20662,-0.52922 -0.55277,-0.52922 z" style="display:inline;fill:#aea795;stroke-width:0.37801;enable-background:new" id="path1220-6-8-2-5" inkscape:connector-curvature="0" />
      <path inkscape:connector-curvature="0" id="path1220-6-8-2" style="display:inline;fill:#aea795;stroke-width:0.529216;enable-background:new" d="m 337.89578,194.85159 h -0.73397 v -1.11319 c 0,-0.42154 -0.32821,-0.7394 -0.76353,-0.7394 h -10.22433 c -0.43398,0 -0.77395,0.32476 -0.77395,0.7394 v 2.7034 c 0,0.42976 0.34721,0.77939 0.77395,0.77939 h 10.22433 c 0.42101,0 0.76353,-0.34963 0.76353,-0.77939 v -0.90087 h 0.73397 c 0.0401,0 0.0661,0.003 0.0819,0.006 0.002,0.0103 0.002,0.025 0.002,0.0449 v 2.86024 c 0,0.12876 -0.0512,0.23329 -0.0846,0.23329 h -5.95003 c -0.53868,0 -0.94486,0.33165 -0.94486,0.7715 v 0.43483 h -0.21103 c -0.11017,0 -0.20822,0.0698 -0.24429,0.17389 l -0.65068,1.87849 c -0.009,0.0272 -0.0143,0.0559 -0.0143,0.0846 v 4.71329 c 0,0.14279 0.11576,0.25851 0.2585,0.25851 h 2.54193 c 0.14278,0 0.2585,-0.11572 0.2585,-0.25851 v -4.71329 c 0,-0.0279 -0.004,-0.0555 -0.0133,-0.0818 l -0.62678,-1.87848 c -0.0351,-0.10551 -0.13394,-0.17669 -0.24518,-0.17669 h -0.36449 l -5.4e-4,-0.43329 c 0.0121,-0.0231 0.10947,-0.0837 0.25639,-0.0837 h 5.95005 c 0.44846,0 0.77396,-0.38802 0.77396,-0.92264 v -2.86023 c 8e-5,-0.46393 -0.28927,-0.74091 -0.77388,-0.74091 z" inkscape:label="24px" />
      <path inkscape:label="32px" d="m 343.23256,141.64099 h -0.90646 v -1.37482 c 0,-0.5206 -0.40535,-0.91317 -0.94298,-0.91317 h -12.62727 c -0.53598,0 -0.95585,0.40108 -0.95585,0.91317 v 3.33877 c 0,0.53076 0.42881,0.96256 0.95585,0.96256 h 12.62727 c 0.51996,0 0.94298,-0.4318 0.94298,-0.96256 v -1.1126 h 0.90646 c 0.0495,0 0.0817,0.004 0.10116,0.008 0.002,0.0127 0.003,0.0309 0.003,0.0555 v 3.53246 c 0,0.15903 -0.0633,0.28812 -0.10451,0.28812 h -7.34842 c -0.66528,0 -1.16693,0.4096 -1.16693,0.95282 v 0.53703 h -0.26062 c -0.13606,0 -0.25716,0.0862 -0.3017,0.21475 l -0.80361,2.31998 c -0.0116,0.0336 -0.0176,0.069 -0.0176,0.1045 v 5.82102 c 0,0.17634 0.14297,0.31926 0.31925,0.31926 h 3.13934 c 0.17634,0 0.31926,-0.14292 0.31926,-0.31926 v -5.82102 c 0,-0.0344 -0.005,-0.0685 -0.0164,-0.10105 l -0.77409,-2.31997 c -0.0434,-0.13031 -0.16542,-0.21821 -0.3028,-0.21821 h -0.45016 l -6.6e-4,-0.53512 c 0.015,-0.0285 0.1352,-0.10338 0.31665,-0.10338 h 7.34844 c 0.55385,0 0.95585,-0.47921 0.95585,-1.13948 v -3.53245 c 1.1e-4,-0.57296 -0.35725,-0.91503 -0.95575,-0.91503 z" style="display:inline;fill:#aea795;stroke-width:0.653593;enable-background:new" id="path1220-6-8" inkscape:connector-curvature="0" />
      <path inkscape:connector-curvature="0" id="path1220-6" style="display:inline;fill:#aea795;stroke-width:0.982676;enable-background:new" d="m 354.71282,74.439992 h -1.36287 V 72.372954 C 353.34995,71.590234 352.74051,71 351.93219,71 h -18.98507 c -0.80584,0 -1.43712,0.603038 -1.43712,1.372954 v 5.019827 c 0,0.798001 0.64472,1.447204 1.43712,1.447204 h 18.98507 c 0.78176,0 1.41776,-0.649203 1.41776,-1.447204 v -1.672786 h 1.36287 c 0.0744,0 0.12288,0.0059 0.15209,0.01229 0.003,0.01906 0.005,0.04638 0.005,0.08353 v 5.311034 c 0,0.239111 -0.0951,0.433194 -0.15712,0.433194 h -11.04834 c -1.00024,0 -1.75448,0.615838 -1.75448,1.43256 v 0.807435 h -0.39184 c -0.20456,0 -0.38664,0.129596 -0.4536,0.322878 l -1.20823,3.488074 c -0.0175,0.05051 -0.0264,0.103678 -0.0264,0.157117 v 8.7519 c 0,0.265116 0.21496,0.479997 0.48,0.479997 h 4.71999 c 0.26512,0 0.48,-0.214881 0.48,-0.479997 v -8.7519 c 0,-0.05169 -0.008,-0.102956 -0.0247,-0.151921 l -1.16384,-3.488075 c -0.0653,-0.195913 -0.24871,-0.328073 -0.45527,-0.328073 h -0.6768 l -10e-4,-0.804558 c 0.0226,-0.04284 0.20328,-0.155436 0.47608,-0.155436 h 11.04836 c 0.83272,0 1.43712,-0.720488 1.43712,-1.713197 v -5.311033 c 1.6e-4,-0.861442 -0.53712,-1.375755 -1.43696,-1.375755 z" inkscape:label="48px" />
      <path inkscape:label="scalable" d="m 207.27,108.16025 h -6.82003 V 97.816471 c 0,-3.916851 -3.04972,-6.870471 -7.09467,-6.870471 H 98.35106 c -4.032532,0 -7.19155,3.017694 -7.19155,6.870471 v 25.119989 c 0,3.99332 3.226275,7.24203 7.19155,7.24203 h 95.00424 c 3.91202,0 7.09467,-3.24871 7.09467,-7.24203 v -8.37088 H 207.27 c 0.37232,0 0.61492,0.0296 0.76105,0.0615 0.0133,0.0954 0.0251,0.23211 0.0251,0.41798 v 26.57723 c 0,1.19655 -0.47601,2.16777 -0.78625,2.16777 h -55.2876 c -5.00536,0 -8.77968,3.08175 -8.77968,7.16875 v 4.04053 h -1.96082 c -1.02365,0 -1.9348,0.64852 -2.26988,1.61573 l -6.0462,17.45486 c -0.0877,0.25274 -0.13209,0.51882 -0.13209,0.78624 v 43.79585 c 0,1.32668 1.07569,2.40198 2.40199,2.40198 h 23.61955 c 1.3267,0 2.40199,-1.0753 2.40199,-2.40198 v -43.79585 c 0,-0.25866 -0.0418,-0.51521 -0.12373,-0.76024 l -5.82403,-17.45486 c -0.32704,-0.98038 -1.24462,-1.64173 -2.27828,-1.64173 h -3.3868 l -0.005,-4.02613 c 0.11294,-0.21439 1.01726,-0.77783 2.38238,-0.77783 h 55.28771 c 4.16705,0 7.19156,-3.60543 7.19156,-8.5731 v -26.57722 c 7.9e-4,-4.31079 -2.68783,-6.88449 -7.19076,-6.88449 z" style="display:inline;fill:#aea795;stroke-width:4.91746" id="path1220" inkscape:connector-curvature="0" />
    </g>
    <g sodipodi:insensitive="true" inkscape:label="Folds" id="layer3" inkscape:groupmode="layer">
      <path sodipodi:nodetypes="ccsscssc" inkscape:connector-curvature="0" id="path4231" d="m 152,44 v 224 h 49.07812 C 236.37484,268 239.08173,264.36345 240,229.00683 V 156 82.993165 C 240,47.624631 236.37484,44 201.07812,44 Z" style="color:black;display:inline;overflow:visible;visibility:visible;opacity:0.1;fill:white;fill-opacity:1;fill-rule:nonzero;stroke:none;stroke-width:1;marker:none;enable-background:accumulate" />
      <path sodipodi:nodetypes="ccssscc" id="path4255" d="m 64,156 v 73.00683 C 63.82701,264.37495 67.625155,268 102.92188,268 h 98.15624 C 236.37484,268 239.08173,264.36345 240,229.00683 V 156 Z" style="color:black;display:inline;overflow:visible;visibility:visible;opacity:0.2;fill:white;fill-opacity:1;fill-rule:nonzero;stroke:none;stroke-width:1;marker:none;enable-background:accumulate" inkscape:connector-curvature="0" />
      <path sodipodi:nodetypes="cccsc" inkscape:connector-curvature="0" id="path4254" d="m 180,268 60,-60 v 22.48388 C 239.94765,264.47969 236.19732,268 201.8259,268 Z" style="color:black;display:inline;overflow:visible;visibility:visible;opacity:0.4;fill:white;fill-opacity:1;fill-rule:nonzero;stroke:none;stroke-width:8;stroke-linecap:butt;stroke-linejoin:miter;stroke-miterlimit:4;stroke-dasharray:none;stroke-dashoffset:0;stroke-opacity:1;marker:none;enable-background:accumulate" />
      <path inkscape:connector-curvature="0" id="path1006" d="M 326,84 V 96.251953 C 325.9567,105.09398 326.90629,106 335.73047,106 h 16.53906 C 361.09371,106 362,105.09408 362,96.251953 V 84 Z" style="color:black;display:inline;overflow:visible;visibility:visible;opacity:0.2;fill:white;fill-opacity:1;fill-rule:nonzero;stroke:none;stroke-width:1;marker:none;enable-background:accumulate" />
      <path inkscape:connector-curvature="0" id="path1013" d="m 344,62 v 44 h 8.26953 C 361.09371,106 362,105.09408 362,96.251953 V 84 71.748047 C 362,62.905917 361.09371,62 352.26953,62 Z" style="color:black;display:inline;overflow:visible;visibility:visible;opacity:0.1;fill:white;fill-opacity:1;fill-rule:nonzero;stroke:none;stroke-width:1;marker:none;enable-background:accumulate" />
      <path inkscape:connector-curvature="0" id="path1007" d="m 323,200 v 6.125 c -0.0217,4.42101 0.45314,4.875 4.86523,4.875 h 8.26954 C 340.54686,211 341,210.54607 341,206.125 V 200 Z" style="color:black;display:inline;overflow:visible;visibility:visible;opacity:0.2;fill:white;fill-opacity:1;fill-rule:nonzero;stroke:none;stroke-width:1;marker:none;enable-background:accumulate" />
      <path inkscape:connector-curvature="0" id="path1009" d="m 328,237 v 14 h 2.9043 C 333.712,251 334,250.71185 334,247.89844 V 244 240.10156 C 334,237.28816 333.71199,237 330.9043,237 Z" style="color:black;display:inline;overflow:visible;visibility:visible;opacity:0.2;fill:white;fill-opacity:1;fill-rule:nonzero;stroke:none;stroke-width:1;marker:none;enable-background:accumulate" />
      <path inkscape:connector-curvature="0" id="path1011" d="m 324,148 v 7.79688 C 323.9724,161.42361 324.57798,162 330.19336,162 h 11.61523 C 347.42399,162 348,161.42369 348,155.79688 V 148 Z" style="color:black;display:inline;overflow:visible;visibility:visible;opacity:0.2;fill:white;fill-opacity:1;fill-rule:nonzero;stroke:none;stroke-width:1;marker:none;enable-background:accumulate" />
      <path inkscape:connector-curvature="0" id="path1014" d="m 332,189 v 22 h 4.13477 C 340.54686,211 341,210.54607 341,206.125 V 200 193.875 C 341,189.45394 340.54686,189 336.13477,189 Z" style="color:black;display:inline;overflow:visible;visibility:visible;opacity:0.2;fill:white;fill-opacity:1;fill-rule:nonzero;stroke:none;stroke-width:1;marker:none;enable-background:accumulate" />
      <path inkscape:connector-curvature="0" id="path1016" d="m 322,244 v 3.89844 C 321.9862,250.71181 322.28801,251 325.0957,251 h 5.8086 C 333.712,251 334,250.71185 334,247.89844 V 244 Z" style="color:black;display:inline;overflow:visible;visibility:visible;opacity:0.2;fill:white;fill-opacity:1;fill-rule:nonzero;stroke:none;stroke-width:1;marker:none;enable-background:accumulate" />
      <path inkscape:connector-curvature="0" id="path1018" d="m 336,134 v 28 h 5.80859 C 347.42399,162 348,161.42369 348,155.79688 V 148 140.20312 C 348,134.57632 347.42397,134 341.80859,134 Z" style="color:black;display:inline;overflow:visible;visibility:visible;opacity:0.2;fill:white;fill-opacity:1;fill-rule:nonzero;stroke:none;stroke-width:1;marker:none;enable-background:accumulate" />
    </g>
    <g sodipodi:insensitive="true" style="display:inline" inkscape:label="Highlights" id="layer5" inkscape:groupmode="layer">
      <path clip-path="url(#clipPath994)" style="color:black;display:inline;overflow:visible;visibility:visible;opacity:0.4;fill:none;fill-opacity:1;fill-rule:nonzero;stroke:url(#linearGradient1004);stroke-width:2;stroke-miterlimit:4;stroke-dasharray:none;stroke-opacity:1;marker:none;enable-background:accumulate" d="m 335.73108,62 c -8.82418,0 -9.77365,0.90635 -9.7304,9.74838 V 84 96.25162 c -0.0433,8.84203 0.90622,9.74838 9.7304,9.74838 h 16.53919 c 8.82418,0 9.7304,-0.90625 9.7304,-9.74838 V 84 71.74838 C 362.00067,62.90625 361.09445,62 352.27027,62 Z" id="path990" inkscape:connector-curvature="0" sodipodi:nodetypes="scccssscsss" />
      <path clip-path="url(#clipPath971)" style="color:black;display:inline;overflow:visible;visibility:visible;opacity:0.4;fill:none;fill-opacity:1;fill-rule:nonzero;stroke:url(#linearGradient981);stroke-width:2;stroke-miterlimit:4;stroke-dasharray:none;stroke-opacity:1;marker:none;enable-background:accumulate" d="m 327.8652,189 c -4.41209,0 -4.88682,0.45318 -4.8652,4.87419 V 200 206.12581 C 322.9783,210.54682 323.45311,211 327.8652,211 h 8.2696 C 340.54689,211 341,210.54688 341,206.12581 V 200 193.87419 C 341,189.45313 340.54688,189 336.13479,189 Z" id="path935" inkscape:connector-curvature="0" sodipodi:nodetypes="scccssscsss" />
      <path clip-path="url(#clipPath983)" sodipodi:nodetypes="scccssscsss" inkscape:connector-curvature="0" id="path937" d="m 325.09646,237 c -2.80769,0 -3.10979,0.28839 -3.09603,3.10176 V 244 v 3.89824 c -0.0138,2.81337 0.28834,3.10176 3.09603,3.10176 h 5.8075 C 333.71166,251 334,250.71165 334,247.89824 V 244 240.10176 C 334,237.28836 333.71165,237 330.90396,237 Z" style="color:black;display:inline;overflow:visible;visibility:visible;opacity:0.4;fill:none;fill-opacity:1;fill-rule:nonzero;stroke:url(#linearGradient993);stroke-width:2;stroke-miterlimit:4;stroke-dasharray:none;stroke-opacity:1;marker:none;enable-background:accumulate" />
      <path clip-path="url(#clipPath959)" style="color:black;display:inline;overflow:visible;visibility:visible;opacity:0.4;fill:none;fill-opacity:1;fill-rule:nonzero;stroke:url(#linearGradient969);stroke-width:2;stroke-miterlimit:4;stroke-dasharray:none;stroke-opacity:1;marker:none;enable-background:accumulate" d="m 330.1929,133.99999 c -5.61538,0 -6.21958,0.57678 -6.19206,6.20352 v 7.79648 7.79648 c -0.0276,5.62673 0.57668,6.20351 6.19206,6.20351 h 11.615 c 5.6154,0 6.19208,-0.5767 6.19208,-6.20351 v -7.79648 -7.79648 c 0,-5.6268 -0.5767,-6.20352 -6.19208,-6.20352 z" id="path939" inkscape:connector-curvature="0" sodipodi:nodetypes="scccssscsss" />
    </g>
  </g>
</svg>
