<?xml version="1.0" encoding="UTF-8" standalone="no"?>
<!-- Created with Inkscape (http://www.inkscape.org/) -->

<svg
   xmlns:dc="http://purl.org/dc/elements/1.1/"
   xmlns:cc="http://creativecommons.org/ns#"
   xmlns:rdf="http://www.w3.org/1999/02/22-rdf-syntax-ns#"
   xmlns:svg="http://www.w3.org/2000/svg"
   xmlns="http://www.w3.org/2000/svg"
   xmlns:sodipodi="http://sodipodi.sourceforge.net/DTD/sodipodi-0.dtd"
   xmlns:inkscape="http://www.inkscape.org/namespaces/inkscape"
   inkscape:export-ydpi="90.000000"
   inkscape:export-xdpi="90.000000"
   width="400"
   height="300"
   id="svg11300"
   sodipodi:version="0.32"
   inkscape:version="0.92.4 (5da689c313, 2019-01-14)"
   sodipodi:docname="emblem-favorite.svg"
   inkscape:output_extension="org.inkscape.output.svg.inkscape"
   version="1.0"
   style="display:inline;enable-background:new"
   inkscape:export-filename="/home/sam/suru-template.png">
  <title
     id="title3004">Suru Icon Theme Template</title>
  <sodipodi:namedview
     stroke="#ef2929"
     fill="#f57900"
     id="base"
     pagecolor="#ffffff"
     bordercolor="#000000"
     borderopacity="0.25490196"
     inkscape:pageopacity="0"
     inkscape:pageshadow="2"
     inkscape:zoom="1.5528226"
     inkscape:cx="325.33195"
     inkscape:cy="102.28407"
     inkscape:current-layer="layer6"
     showgrid="false"
     inkscape:grid-bbox="true"
     inkscape:document-units="px"
     inkscape:showpageshadow="false"
     inkscape:window-width="1614"
     inkscape:window-height="986"
     inkscape:window-x="66"
     inkscape:window-y="27"
     width="400px"
     height="300px"
     inkscape:snap-nodes="true"
     inkscape:snap-bbox="true"
     gridtolerance="10000"
     inkscape:object-nodes="true"
     inkscape:snap-grids="true"
     showguides="true"
     inkscape:guide-bbox="true"
     inkscape:window-maximized="1"
     inkscape:bbox-paths="true"
     inkscape:snap-bbox-midpoints="true"
     inkscape:snap-global="false"
     inkscape:object-paths="true"
     inkscape:snap-intersection-paths="true"
     inkscape:snap-smooth-nodes="true"
     inkscape:pagecheckerboard="false"
     showborder="false">
    <inkscape:grid
       spacingy="1"
       spacingx="1"
       id="grid5883"
       type="xygrid"
       enabled="true"
       visible="true"
       empspacing="4"
       snapvisiblegridlinesonly="true"
       originx="0"
       originy="0" />
    <inkscape:grid
       type="xygrid"
       id="grid11592"
       empspacing="4"
       visible="true"
       enabled="true"
       spacingx="0.5"
       spacingy="0.5"
       color="#000000"
       opacity="0.1254902"
       empcolor="#000000"
       empopacity="0.25098039"
       snapvisiblegridlinesonly="true"
       originx="0"
       originy="0"
       dotted="true" />
  </sodipodi:namedview>
  <defs
     id="defs3">
    <clipPath
       clipPathUnits="userSpaceOnUse"
       id="clipPath9430">
      <path
         sodipodi:nodetypes="sssssssss"
         inkscape:connector-curvature="0"
         id="path9432"
         d="m 166.0625,-196 h 179.875 C 491.2348,-196 512,-175.28677 512,-30.125 v 148.25 C 512,263.28618 491.2348,284 345.9375,284 H 166.0625 C 20.7652,284 0,263.28618 0,118.125 V -30.125 C 0,-175.28677 20.7652,-196 166.0625,-196 Z"
         style="color:#000000;display:inline;overflow:visible;visibility:visible;fill:#ffffff;fill-opacity:1;fill-rule:nonzero;stroke:none;stroke-width:1;marker:none;enable-background:new" />
    </clipPath>
    <clipPath
       clipPathUnits="userSpaceOnUse"
       id="clipPath1082">
      <path
         sodipodi:nodetypes="sssssssss"
         inkscape:connector-curvature="0"
         id="path1084"
         d="M 361.9375,-212 C 507.2348,-212 528,-191.28677 528,-46.125 V 70.125 C 528,215.28618 507.2348,236 361.9375,236 H 214.0625 C 68.7652,236 48,215.28618 48,70.125 V -46.125 C 48,-191.28677 68.7652,-212 214.0625,-212 Z"
         style="display:inline;opacity:1;fill:#8c59d9;fill-opacity:1;stroke:none;stroke-width:2;stroke-linecap:round;stroke-linejoin:round;stroke-miterlimit:4;stroke-dasharray:none;stroke-dashoffset:0;stroke-opacity:1;enable-background:new" />
    </clipPath>
    <clipPath
       clipPathUnits="userSpaceOnUse"
       id="clipPath994">
      <path
         style="color:#000000;display:inline;overflow:visible;visibility:visible;fill:#cdcdcd;fill-opacity:1;fill-rule:nonzero;stroke:none;stroke-width:2;stroke-miterlimit:4;stroke-dasharray:none;stroke-opacity:1;marker:none;enable-background:accumulate"
         d="m 335.73108,62 c -8.82418,0 -9.77365,0.90635 -9.7304,9.74838 V 84 96.25162 c -0.0433,8.84203 0.90622,9.74838 9.7304,9.74838 h 16.53919 c 8.82418,0 9.7304,-0.90625 9.7304,-9.74838 V 84 71.74838 C 362.00067,62.90625 361.09445,62 352.27027,62 Z"
         id="path996"
         inkscape:connector-curvature="0"
         sodipodi:nodetypes="scccssscsss" />
    </clipPath>
    <clipPath
       clipPathUnits="userSpaceOnUse"
       id="clipPath994-5">
      <path
         style="color:#000000;display:inline;overflow:visible;visibility:visible;fill:#cdcdcd;fill-opacity:1;fill-rule:nonzero;stroke:none;stroke-width:2;stroke-miterlimit:4;stroke-dasharray:none;stroke-opacity:1;marker:none;enable-background:accumulate"
         d="m 335.73108,62 c -8.82418,0 -9.77365,0.90635 -9.7304,9.74838 V 84 96.25162 c -0.0433,8.84203 0.90622,9.74838 9.7304,9.74838 h 16.53919 c 8.82418,0 9.7304,-0.90625 9.7304,-9.74838 V 84 71.74838 C 362.00067,62.90625 361.09445,62 352.27027,62 Z"
         id="path996-3"
         inkscape:connector-curvature="0"
         sodipodi:nodetypes="scccssscsss" />
    </clipPath>
    <clipPath
       clipPathUnits="userSpaceOnUse"
       id="clipPath971">
      <path
         style="color:#000000;display:inline;overflow:visible;visibility:visible;opacity:1;fill:#46a926;fill-opacity:1;fill-rule:nonzero;stroke:none;stroke-width:2;stroke-miterlimit:4;stroke-dasharray:none;stroke-opacity:1;marker:none;enable-background:accumulate"
         d="m 327.8652,189 c -4.41209,0 -4.88682,0.45318 -4.8652,4.87419 V 200 206.12581 C 322.9783,210.54682 323.45311,211 327.8652,211 h 8.2696 C 340.54689,211 341,210.54688 341,206.12581 V 200 193.87419 C 341,189.45313 340.54688,189 336.13479,189 Z"
         id="path973"
         inkscape:connector-curvature="0"
         sodipodi:nodetypes="scccssscsss" />
    </clipPath>
    <clipPath
       clipPathUnits="userSpaceOnUse"
       id="clipPath983">
      <path
         sodipodi:nodetypes="scccssscsss"
         inkscape:connector-curvature="0"
         id="path985"
         d="m 325.09646,237 c -2.80769,0 -3.10979,0.28839 -3.09603,3.10176 V 244 v 3.89824 c -0.0138,2.81337 0.28834,3.10176 3.09603,3.10176 h 5.8075 C 333.71166,251 334,250.71165 334,247.89824 V 244 240.10176 C 334,237.28836 333.71165,237 330.90396,237 Z"
         style="color:#000000;display:inline;overflow:visible;visibility:visible;opacity:1;fill:#46a926;fill-opacity:1;fill-rule:nonzero;stroke:none;stroke-width:2;stroke-miterlimit:4;stroke-dasharray:none;stroke-opacity:1;marker:none;enable-background:accumulate" />
    </clipPath>
    <clipPath
       clipPathUnits="userSpaceOnUse"
       id="clipPath959">
      <path
         style="color:#000000;display:inline;overflow:visible;visibility:visible;opacity:1;fill:#46a926;fill-opacity:1;fill-rule:nonzero;stroke:none;stroke-width:2;stroke-miterlimit:4;stroke-dasharray:none;stroke-opacity:1;marker:none;enable-background:accumulate"
         d="m 330.1929,133.99999 c -5.61538,0 -6.21958,0.57678 -6.19206,6.20352 v 7.79648 7.79648 c -0.0276,5.62673 0.57668,6.20351 6.19206,6.20351 h 11.615 c 5.6154,0 6.19208,-0.5767 6.19208,-6.20351 v -7.79648 -7.79648 c 0,-5.6268 -0.5767,-6.20352 -6.19208,-6.20352 z"
         id="path961"
         inkscape:connector-curvature="0"
         sodipodi:nodetypes="scccssscsss" />
    </clipPath>
    <filter
       inkscape:collect="always"
       style="color-interpolation-filters:sRGB"
       id="filter945"
       x="-0.024"
       width="1.048"
       y="-0.024"
       height="1.048">
      <feGaussianBlur
         inkscape:collect="always"
         stdDeviation="2.24"
         id="feGaussianBlur947" />
    </filter>
    <filter
       inkscape:collect="always"
       style="color-interpolation-filters:sRGB"
       id="filter951"
       x="-0.06"
       width="1.12"
       y="-0.06"
       height="1.12">
      <feGaussianBlur
         inkscape:collect="always"
         stdDeviation="5.6"
         id="feGaussianBlur953" />
    </filter>
  </defs>
  <metadata
     id="metadata4">
    <rdf:RDF>
      <cc:Work
         rdf:about="">
        <dc:format>image/svg+xml</dc:format>
        <dc:type
           rdf:resource="http://purl.org/dc/dcmitype/StillImage" />
        <dc:creator>
          <cc:Agent>
            <dc:title>Sam Hewitt</dc:title>
          </cc:Agent>
        </dc:creator>
        <dc:source />
        <cc:license
           rdf:resource="http://creativecommons.org/licenses/by-sa/4.0/" />
        <dc:title>Suru Icon Theme Template</dc:title>
        <dc:subject>
          <rdf:Bag />
        </dc:subject>
        <dc:date />
        <dc:rights>
          <cc:Agent>
            <dc:title />
          </cc:Agent>
        </dc:rights>
        <dc:publisher>
          <cc:Agent>
            <dc:title />
          </cc:Agent>
        </dc:publisher>
        <dc:identifier />
        <dc:relation />
        <dc:language />
        <dc:coverage />
        <dc:description />
        <dc:contributor>
          <cc:Agent>
            <dc:title />
          </cc:Agent>
        </dc:contributor>
      </cc:Work>
      <cc:Work
         rdf:about="">
        <dc:format>image/svg+xml</dc:format>
        <dc:type
           rdf:resource="http://purl.org/dc/dcmitype/StillImage" />
      </cc:Work>
      <cc:License
         rdf:about="http://creativecommons.org/licenses/by-sa/4.0/">
        <cc:permits
           rdf:resource="http://creativecommons.org/ns#Reproduction" />
        <cc:permits
           rdf:resource="http://creativecommons.org/ns#Distribution" />
        <cc:requires
           rdf:resource="http://creativecommons.org/ns#Notice" />
        <cc:requires
           rdf:resource="http://creativecommons.org/ns#Attribution" />
        <cc:permits
           rdf:resource="http://creativecommons.org/ns#DerivativeWorks" />
        <cc:requires
           rdf:resource="http://creativecommons.org/ns#ShareAlike" />
      </cc:License>
    </rdf:RDF>
  </metadata>
  <g
     style="display:inline"
     inkscape:groupmode="layer"
     inkscape:label="Icon"
     id="layer1">
    <g
       style="display:none"
       inkscape:label="Baseplate"
       id="layer7"
       inkscape:groupmode="layer">
      <text
         y="-8.2548828"
         xml:space="preserve"
         x="19.006836"
         style="font-style:normal;font-variant:normal;font-weight:normal;font-stretch:normal;line-height:0%;font-family:'DejaVu Sans';-inkscape-font-specification:'DejaVu Sans';display:inline;fill:#000000;fill-opacity:1;stroke:none;enable-background:new"
         inkscape:label="context"
         id="context"><tspan
           style="font-style:normal;font-variant:normal;font-weight:normal;font-stretch:normal;font-size:18px;line-height:1.25;font-family:'DejaVu Sans';-inkscape-font-specification:'DejaVu Sans'"
           y="-8.2548828"
           x="19.006836"
           sodipodi:role="line"
           id="tspan3933">emblems</tspan></text>
      <text
         y="-8.2548828"
         xml:space="preserve"
         x="146.48828"
         style="font-style:normal;font-variant:normal;font-weight:bold;font-stretch:normal;line-height:0%;font-family:'DejaVu Sans';-inkscape-font-specification:'DejaVu Sans Bold';text-align:start;writing-mode:lr-tb;text-anchor:start;display:inline;fill:#000000;fill-opacity:1;stroke:none;enable-background:new"
         inkscape:label="icon-name"
         id="icon-name"><tspan
           style="font-style:normal;font-variant:normal;font-weight:bold;font-stretch:normal;font-size:18px;line-height:1.25;font-family:'DejaVu Sans';-inkscape-font-specification:'DejaVu Sans Bold'"
           y="-8.2548828"
           x="146.48828"
           sodipodi:role="line"
           id="tspan924">emblem-favorite</tspan></text>
      <rect
         style="display:inline;overflow:visible;visibility:visible;fill:#cdcdcd;fill-opacity:1;fill-rule:nonzero;stroke:none;stroke-width:2;marker:none;enable-background:accumulate"
         id="rect16x16"
         width="16"
         height="16"
         x="320"
         y="236"
         inkscape:label="16x16" />
      <rect
         style="display:inline;overflow:visible;visibility:visible;fill:#cdcdcd;fill-opacity:1;fill-rule:nonzero;stroke:none;stroke-width:2;marker:none;enable-background:accumulate"
         id="rect24x24"
         width="24"
         height="24"
         x="320"
         y="188"
         inkscape:label="24x24" />
      <rect
         style="display:inline;overflow:visible;visibility:visible;fill:#cdcdcd;fill-opacity:1;fill-rule:nonzero;stroke:none;stroke-width:2;marker:none;enable-background:accumulate"
         id="rect32x32"
         width="32"
         height="32"
         x="320"
         y="132"
         inkscape:label="32x32" />
      <rect
         inkscape:label="48x48"
         y="60"
         x="320"
         height="48"
         width="48"
         id="rect48x48"
         style="display:inline;overflow:visible;visibility:visible;fill:#cdcdcd;fill-opacity:1;fill-rule:nonzero;stroke:none;stroke-width:2;marker:none;enable-background:accumulate" />
      <rect
         style="display:inline;overflow:visible;visibility:visible;fill:#cdcdcd;fill-opacity:1;fill-rule:nonzero;stroke:none;stroke-width:2;marker:none;enable-background:accumulate"
         id="rect3951"
         width="256"
         height="256"
         x="24"
         y="28"
         inkscape:label="48x48" />
      <rect
         inkscape:label="16x16"
         y="268"
         x="320"
         height="8"
         width="8"
         id="rect841"
         style="display:inline;overflow:visible;visibility:visible;fill:#cdcdcd;fill-opacity:1;fill-rule:nonzero;stroke:none;stroke-width:1;marker:none;enable-background:accumulate" />
    </g>
    <g
       inkscape:groupmode="layer"
       id="layer2"
       inkscape:label="Background"
       style="display:inline">
      <rect
         transform="matrix(0,-1,-1,0,0,0)"
         style="display:inline;opacity:0.2;fill:#000000;fill-opacity:1;stroke:none;stroke-width:1;stroke-opacity:0.25098039;enable-background:new"
         id="rect892"
         width="15"
         height="15"
         x="-252"
         y="-336"
         rx="7.5"
         ry="7.5" />
      <rect
         transform="matrix(0,-1,-1,0,0,0)"
         style="display:inline;fill:#000000;fill-opacity:1;stroke:none;stroke-width:1.02439022;stroke-miterlimit:4;stroke-dasharray:none;stroke-opacity:0.25098039;enable-background:new;opacity:0.2"
         id="rect894"
         width="42"
         height="42"
         x="-106"
         y="-365"
         rx="21"
         ry="21" />
      <rect
         ry="11"
         rx="11"
         y="-343"
         x="-212"
         height="22"
         width="22"
         id="rect896"
         style="display:inline;fill:#000000;fill-opacity:1;stroke:none;stroke-width:1.0476191;stroke-opacity:0.25098039;enable-background:new;opacity:0.2"
         transform="matrix(0,-1,-1,0,0,0)" />
      <rect
         transform="matrix(0,-1,-1,0,0,0)"
         style="display:inline;fill:#000000;fill-opacity:1;stroke:none;stroke-width:1.03448272;stroke-opacity:0.25098039;enable-background:new;opacity:0.2"
         id="rect876"
         width="30"
         height="30"
         x="-164"
         y="-351"
         rx="15"
         ry="15" />
      <rect
         transform="matrix(0,-1,-1,0,0,0)"
         style="display:inline;fill:#000000;fill-opacity:1;stroke:none;stroke-width:0.5;enable-background:new;opacity:0.1;filter:url(#filter951)"
         id="rect949"
         width="224"
         height="224"
         x="-270"
         y="-264"
         rx="112"
         ry="112" />
      <rect
         ry="112"
         rx="112"
         y="-264"
         x="-270"
         height="224"
         width="224"
         id="rect939"
         style="display:inline;fill:#000000;fill-opacity:1;stroke:none;stroke-width:0.5;enable-background:new;opacity:0.5;filter:url(#filter945)"
         transform="matrix(0,-1,-1,0,0,0)" />
      <rect
         ry="7.5"
         rx="7.5"
         y="-336"
         x="-251"
         height="15"
         width="15"
         id="rect4414"
         style="display:inline;fill:#f76363;fill-opacity:1;stroke:none;stroke-width:1;stroke-opacity:0.25098039;enable-background:new"
         transform="matrix(0,-1,-1,0,0,0)" />
      <rect
         transform="matrix(0,-1,-1,0,0,0)"
         style="display:inline;fill:#000000;fill-opacity:1;stroke:none;stroke-width:1.04999995;stroke-opacity:0.25098039;enable-background:new;opacity:0.1"
         id="rect917"
         width="42"
         height="42"
         x="-106"
         y="-365"
         rx="21"
         ry="21" />
      <rect
         ry="21"
         rx="21"
         y="-365"
         x="-105"
         height="42"
         width="42"
         id="rect4408"
         style="display:inline;fill:#f76363;fill-opacity:1;stroke:none;stroke-width:1.02439022;stroke-miterlimit:4;stroke-dasharray:none;stroke-opacity:0.25098039;enable-background:new"
         transform="matrix(0,-1,-1,0,0,0)" />
      <rect
         transform="matrix(0,-1,-1,0,0,0)"
         style="display:inline;fill:#f76363;fill-opacity:1;stroke:none;stroke-width:1.0476191;stroke-opacity:0.25098039;enable-background:new"
         id="rect4410"
         width="22"
         height="22"
         x="-211"
         y="-343"
         rx="11"
         ry="11" />
      <rect
         ry="15"
         rx="15"
         y="-351"
         x="-163"
         height="30"
         width="30"
         id="rect4412"
         style="display:inline;fill:#f76363;fill-opacity:1;stroke:none;stroke-width:1.03448272;stroke-opacity:0.25098039;enable-background:new"
         transform="matrix(0,-1,-1,0,0,0)" />
      <rect
         transform="matrix(0,-1,-1,0,0,0)"
         style="display:inline;fill:#f76363;fill-opacity:1;stroke:none;stroke-width:0.5;enable-background:new"
         id="rect4418"
         width="224"
         height="224"
         x="-268"
         y="-264"
         rx="112"
         ry="112" />
      <rect
         transform="matrix(0,-1,-1,0,0,0)"
         style="display:inline;fill:#f76363;fill-opacity:1;stroke:none;stroke-width:1.14285719;stroke-opacity:0.25098039;enable-background:new"
         id="rect4420"
         width="8"
         height="8"
         x="-276"
         y="-328"
         rx="1"
         ry="1" />
    </g>
    <g
       inkscape:groupmode="layer"
       id="layer6"
       inkscape:label="Pictogram"
       style="display:inline">
      <rect
         transform="rotate(90)"
         y="-232.00044"
         x="76"
         height="160"
         width="160"
         id="rect875"
         style="color:#000000;display:inline;overflow:visible;visibility:visible;fill:none;stroke:none;stroke-width:32;marker:none;enable-background:accumulate" />
      <path
         id="path866"
         overflow="visible"
         style="color:#000000;overflow:visible;fill:#ffffff;fill-opacity:1;stroke-width:9.71428585;marker:none"
         d="M 120.42858,92.5 A 36.438286,36.438286 0 0 0 84,128.12228 c 0,9.16058 2.399424,16.3103 4.857141,22.916 C 100.388,178.33542 122.85714,201.14458 152,228.5 181.14286,201.14458 203.612,178.33542 215.14286,151.03828 217.60058,144.43258 220,137.28286 220,128.11258 A 36.438286,36.438286 0 0 0 152,110.76286 36.409142,36.409142 0 0 0 120.42858,92.5 Z"
         inkscape:connector-curvature="0" />
      <path
         id="path866-3"
         overflow="visible"
         style="color:#000000;display:inline;overflow:visible;fill:#ffffff;fill-opacity:1;stroke-width:1.78571427;marker:none;enable-background:new"
         d="M 338.19643,72.713201 A 6.6982142,6.6982142 0 0 0 331.5,79.261413 c 0,1.683931 0.44107,2.998217 0.89286,4.2125 2.11964,5.017857 6.25,9.210717 11.60714,14.239287 5.35714,-5.02857 9.4875,-9.22143 11.60714,-14.239287 C 356.05893,82.25963 356.5,80.945344 356.5,79.25963 A 6.6982142,6.6982142 0 0 0 344,76.070344 6.6928569,6.6928569 0 0 0 338.19643,72.713201 Z"
         inkscape:connector-curvature="0" />
      <path
         id="path866-3-6"
         overflow="visible"
         style="color:#000000;display:inline;overflow:visible;fill:#ffffff;fill-opacity:1;stroke-width:1.27397335;marker:none;enable-background:new"
         d="m 331.85959,140.06687 a 4.7786741,4.7786741 0 0 0 -4.7774,4.67165 c 0,1.20136 0.31466,2.139 0.63698,3.00531 1.51221,3.57986 4.45891,6.57115 8.28083,10.15865 3.82192,-3.5875 6.76862,-6.57879 8.28083,-10.15865 0.32232,-0.86631 0.63698,-1.80395 0.63698,-3.00658 A 4.7786741,4.7786741 0 0 0 336,142.46193 a 4.774852,4.774852 0 0 0 -4.14041,-2.39506 z"
         inkscape:connector-curvature="0" />
      <path
         id="path866-3-6-7"
         overflow="visible"
         style="color:#000000;display:inline;overflow:visible;fill:#ffffff;fill-opacity:1;stroke-width:0.96266139;marker:none;enable-background:new"
         d="m 328.87136,194.22859 a 3.6109427,3.6109427 0 0 0 -3.60999,3.53008 c 0,0.90778 0.23778,1.6163 0.48133,2.27092 1.14268,2.70507 3.36932,4.9654 6.2573,7.67625 2.88798,-2.71085 5.11462,-4.97118 6.2573,-7.67625 0.24355,-0.65462 0.48133,-1.36314 0.48133,-2.27188 A 3.6109427,3.6109427 0 0 0 332,196.03839 a 3.6080545,3.6080545 0 0 0 -3.12864,-1.8098 z"
         inkscape:connector-curvature="0" />
      <path
         id="path866-3-6-7-5"
         overflow="visible"
         style="color:#000000;display:inline;overflow:visible;fill:#ffffff;fill-opacity:1;stroke-width:0.6334517;marker:none;enable-background:new"
         d="m 326.44129,239.52121 a 2.3760772,2.3760772 0 0 0 -2.37545,2.32287 c 0,0.59735 0.15646,1.06356 0.31672,1.49431 0.75191,1.78 2.21709,3.26735 4.11744,5.05115 1.90035,-1.7838 3.36553,-3.27115 4.11744,-5.05115 0.16026,-0.43075 0.31672,-0.89696 0.31672,-1.49494 A 2.3760772,2.3760772 0 0 0 328.5,240.7121 a 2.3741767,2.3741767 0 0 0 -2.05871,-1.19089 z"
         inkscape:connector-curvature="0" />
      <path
         id="path866-3-6-7-5-3"
         overflow="visible"
         style="color:#000000;display:inline;overflow:visible;fill:#ffffff;fill-opacity:1;stroke-width:0.4097136;marker:none;enable-background:new"
         d="m 322.60634,269.32606 a 1.5368356,1.5368356 0 0 0 -1.53642,1.50242 c 0,0.38636 0.10121,0.68791 0.20485,0.96652 0.48633,1.15129 1.434,2.1133 2.66314,3.26705 1.22914,-1.15375 2.17681,-2.11576 2.66314,-3.26705 0.10365,-0.27861 0.20485,-0.58016 0.20485,-0.96693 a 1.5368356,1.5368356 0 0 0 -2.86799,-0.73174 1.5356064,1.5356064 0 0 0 -1.33157,-0.77027 z"
         inkscape:connector-curvature="0" />
    </g>
  </g>
</svg>
