<?xml version="1.0" encoding="UTF-8" standalone="no"?>
<!-- Created with Inkscape (http://www.inkscape.org/) -->

<svg
   xmlns:dc="http://purl.org/dc/elements/1.1/"
   xmlns:cc="http://creativecommons.org/ns#"
   xmlns:rdf="http://www.w3.org/1999/02/22-rdf-syntax-ns#"
   xmlns:svg="http://www.w3.org/2000/svg"
   xmlns="http://www.w3.org/2000/svg"
   xmlns:sodipodi="http://sodipodi.sourceforge.net/DTD/sodipodi-0.dtd"
   xmlns:inkscape="http://www.inkscape.org/namespaces/inkscape"
   inkscape:export-ydpi="90.000000"
   inkscape:export-xdpi="90.000000"
   width="400"
   height="300"
   id="svg11300"
   sodipodi:version="0.32"
   inkscape:version="0.92.2 (unknown)"
   sodipodi:docname="emblem-system.svg"
   inkscape:output_extension="org.inkscape.output.svg.inkscape"
   version="1.0"
   style="display:inline;enable-background:new"
   inkscape:export-filename="/home/sam/paper-template.png">
  <title
     id="title3004">Suru Icon Theme Template</title>
  <sodipodi:namedview
     stroke="#ef2929"
     fill="#f57900"
     id="base"
     pagecolor="#ffffff"
     bordercolor="#000000"
     borderopacity="0.25490196"
     inkscape:pageopacity="0"
     inkscape:pageshadow="2"
     inkscape:zoom="1"
     inkscape:cx="320.19392"
     inkscape:cy="70.182737"
     inkscape:current-layer="layer2"
     showgrid="false"
     inkscape:grid-bbox="true"
     inkscape:document-units="px"
     inkscape:showpageshadow="false"
     inkscape:window-width="1920"
     inkscape:window-height="1016"
     inkscape:window-x="0"
     inkscape:window-y="27"
     width="400px"
     height="300px"
     inkscape:snap-nodes="true"
     inkscape:snap-bbox="true"
     gridtolerance="10000"
     inkscape:object-nodes="true"
     inkscape:snap-grids="true"
     showguides="true"
     inkscape:guide-bbox="true"
     inkscape:window-maximized="1"
     inkscape:bbox-paths="true"
     inkscape:snap-bbox-midpoints="true"
     inkscape:snap-global="true"
     inkscape:object-paths="true"
     inkscape:snap-intersection-paths="true"
     inkscape:snap-smooth-nodes="true"
     inkscape:pagecheckerboard="false"
     showborder="false">
    <inkscape:grid
       spacingy="1"
       spacingx="1"
       id="grid5883"
       type="xygrid"
       enabled="true"
       visible="true"
       empspacing="4"
       snapvisiblegridlinesonly="true"
       originx="0"
       originy="0" />
    <inkscape:grid
       type="xygrid"
       id="grid11592"
       empspacing="2"
       visible="true"
       enabled="false"
       spacingx="0.5"
       spacingy="0.5"
       color="#ff0000"
       opacity="0.1254902"
       empcolor="#ff0000"
       empopacity="0.25098039"
       snapvisiblegridlinesonly="true"
       originx="0"
       originy="0" />
  </sodipodi:namedview>
  <defs
     id="defs3">
    <clipPath
       clipPathUnits="userSpaceOnUse"
       id="clipPath9430">
      <path
         sodipodi:nodetypes="sssssssss"
         inkscape:connector-curvature="0"
         id="path9432"
         d="m 166.0625,-196 h 179.875 C 491.2348,-196 512,-175.28677 512,-30.125 v 148.25 C 512,263.28618 491.2348,284 345.9375,284 H 166.0625 C 20.7652,284 0,263.28618 0,118.125 V -30.125 C 0,-175.28677 20.7652,-196 166.0625,-196 Z"
         style="color:#000000;display:inline;overflow:visible;visibility:visible;fill:#ffffff;fill-opacity:1;fill-rule:nonzero;stroke:none;stroke-width:1;marker:none;enable-background:new" />
    </clipPath>
    <clipPath
       clipPathUnits="userSpaceOnUse"
       id="clipPath1082">
      <path
         sodipodi:nodetypes="sssssssss"
         inkscape:connector-curvature="0"
         id="path1084"
         d="M 361.9375,-212 C 507.2348,-212 528,-191.28677 528,-46.125 V 70.125 C 528,215.28618 507.2348,236 361.9375,236 H 214.0625 C 68.7652,236 48,215.28618 48,70.125 V -46.125 C 48,-191.28677 68.7652,-212 214.0625,-212 Z"
         style="display:inline;opacity:1;fill:#8c59d9;fill-opacity:1;stroke:none;stroke-width:2;stroke-linecap:round;stroke-linejoin:round;stroke-miterlimit:4;stroke-dasharray:none;stroke-dashoffset:0;stroke-opacity:1;enable-background:new" />
    </clipPath>
    <clipPath
       clipPathUnits="userSpaceOnUse"
       id="clipPath994">
      <path
         style="color:#000000;display:inline;overflow:visible;visibility:visible;fill:#cdcdcd;fill-opacity:1;fill-rule:nonzero;stroke:none;stroke-width:2;stroke-miterlimit:4;stroke-dasharray:none;stroke-opacity:1;marker:none;enable-background:accumulate"
         d="m 335.73108,62 c -8.82418,0 -9.77365,0.90635 -9.7304,9.74838 V 84 96.25162 c -0.0433,8.84203 0.90622,9.74838 9.7304,9.74838 h 16.53919 c 8.82418,0 9.7304,-0.90625 9.7304,-9.74838 V 84 71.74838 C 362.00067,62.90625 361.09445,62 352.27027,62 Z"
         id="path996"
         inkscape:connector-curvature="0"
         sodipodi:nodetypes="scccssscsss" />
    </clipPath>
    <clipPath
       clipPathUnits="userSpaceOnUse"
       id="clipPath994-5">
      <path
         style="color:#000000;display:inline;overflow:visible;visibility:visible;fill:#cdcdcd;fill-opacity:1;fill-rule:nonzero;stroke:none;stroke-width:2;stroke-miterlimit:4;stroke-dasharray:none;stroke-opacity:1;marker:none;enable-background:accumulate"
         d="m 335.73108,62 c -8.82418,0 -9.77365,0.90635 -9.7304,9.74838 V 84 96.25162 c -0.0433,8.84203 0.90622,9.74838 9.7304,9.74838 h 16.53919 c 8.82418,0 9.7304,-0.90625 9.7304,-9.74838 V 84 71.74838 C 362.00067,62.90625 361.09445,62 352.27027,62 Z"
         id="path996-3"
         inkscape:connector-curvature="0"
         sodipodi:nodetypes="scccssscsss" />
    </clipPath>
    <clipPath
       clipPathUnits="userSpaceOnUse"
       id="clipPath971">
      <path
         style="color:#000000;display:inline;overflow:visible;visibility:visible;opacity:1;fill:#46a926;fill-opacity:1;fill-rule:nonzero;stroke:none;stroke-width:2;stroke-miterlimit:4;stroke-dasharray:none;stroke-opacity:1;marker:none;enable-background:accumulate"
         d="m 327.8652,189 c -4.41209,0 -4.88682,0.45318 -4.8652,4.87419 V 200 206.12581 C 322.9783,210.54682 323.45311,211 327.8652,211 h 8.2696 C 340.54689,211 341,210.54688 341,206.12581 V 200 193.87419 C 341,189.45313 340.54688,189 336.13479,189 Z"
         id="path973"
         inkscape:connector-curvature="0"
         sodipodi:nodetypes="scccssscsss" />
    </clipPath>
    <clipPath
       clipPathUnits="userSpaceOnUse"
       id="clipPath983">
      <path
         sodipodi:nodetypes="scccssscsss"
         inkscape:connector-curvature="0"
         id="path985"
         d="m 325.09646,237 c -2.80769,0 -3.10979,0.28839 -3.09603,3.10176 V 244 v 3.89824 c -0.0138,2.81337 0.28834,3.10176 3.09603,3.10176 h 5.8075 C 333.71166,251 334,250.71165 334,247.89824 V 244 240.10176 C 334,237.28836 333.71165,237 330.90396,237 Z"
         style="color:#000000;display:inline;overflow:visible;visibility:visible;opacity:1;fill:#46a926;fill-opacity:1;fill-rule:nonzero;stroke:none;stroke-width:2;stroke-miterlimit:4;stroke-dasharray:none;stroke-opacity:1;marker:none;enable-background:accumulate" />
    </clipPath>
    <clipPath
       clipPathUnits="userSpaceOnUse"
       id="clipPath959">
      <path
         style="color:#000000;display:inline;overflow:visible;visibility:visible;opacity:1;fill:#46a926;fill-opacity:1;fill-rule:nonzero;stroke:none;stroke-width:2;stroke-miterlimit:4;stroke-dasharray:none;stroke-opacity:1;marker:none;enable-background:accumulate"
         d="m 330.1929,133.99999 c -5.61538,0 -6.21958,0.57678 -6.19206,6.20352 v 7.79648 7.79648 c -0.0276,5.62673 0.57668,6.20351 6.19206,6.20351 h 11.615 c 5.6154,0 6.19208,-0.5767 6.19208,-6.20351 v -7.79648 -7.79648 c 0,-5.6268 -0.5767,-6.20352 -6.19208,-6.20352 z"
         id="path961"
         inkscape:connector-curvature="0"
         sodipodi:nodetypes="scccssscsss" />
    </clipPath>
  </defs>
  <metadata
     id="metadata4">
    <rdf:RDF>
      <cc:Work
         rdf:about="">
        <dc:format>image/svg+xml</dc:format>
        <dc:type
           rdf:resource="http://purl.org/dc/dcmitype/StillImage" />
        <dc:creator>
          <cc:Agent>
            <dc:title>Sam Hewitt</dc:title>
          </cc:Agent>
        </dc:creator>
        <dc:source />
        <cc:license
           rdf:resource="http://creativecommons.org/licenses/by-sa/4.0/" />
        <dc:title>Suru Icon Theme Template</dc:title>
        <dc:subject>
          <rdf:Bag />
        </dc:subject>
        <dc:date />
        <dc:rights>
          <cc:Agent>
            <dc:title />
          </cc:Agent>
        </dc:rights>
        <dc:publisher>
          <cc:Agent>
            <dc:title />
          </cc:Agent>
        </dc:publisher>
        <dc:identifier />
        <dc:relation />
        <dc:language />
        <dc:coverage />
        <dc:description />
        <dc:contributor>
          <cc:Agent>
            <dc:title />
          </cc:Agent>
        </dc:contributor>
      </cc:Work>
      <cc:Work
         rdf:about="">
        <dc:format>image/svg+xml</dc:format>
        <dc:type
           rdf:resource="http://purl.org/dc/dcmitype/StillImage" />
      </cc:Work>
      <cc:License
         rdf:about="http://creativecommons.org/licenses/by-sa/4.0/">
        <cc:permits
           rdf:resource="http://creativecommons.org/ns#Reproduction" />
        <cc:permits
           rdf:resource="http://creativecommons.org/ns#Distribution" />
        <cc:requires
           rdf:resource="http://creativecommons.org/ns#Notice" />
        <cc:requires
           rdf:resource="http://creativecommons.org/ns#Attribution" />
        <cc:permits
           rdf:resource="http://creativecommons.org/ns#DerivativeWorks" />
        <cc:requires
           rdf:resource="http://creativecommons.org/ns#ShareAlike" />
      </cc:License>
    </rdf:RDF>
  </metadata>
  <g
     style="display:inline"
     inkscape:groupmode="layer"
     inkscape:label="Icon"
     id="layer1">
    <g
       style="display:none"
       inkscape:label="Baseplate"
       id="layer7"
       inkscape:groupmode="layer">
      <text
         y="-8.2548828"
         xml:space="preserve"
         x="19.006836"
         style="font-style:normal;font-variant:normal;font-weight:normal;font-stretch:normal;line-height:0%;font-family:'DejaVu Sans';-inkscape-font-specification:'DejaVu Sans';display:inline;fill:#000000;fill-opacity:1;stroke:none;enable-background:new"
         inkscape:label="context"
         id="context"><tspan
           style="font-style:normal;font-variant:normal;font-weight:normal;font-stretch:normal;font-size:18px;line-height:1.25;font-family:'DejaVu Sans';-inkscape-font-specification:'DejaVu Sans'"
           y="-8.2548828"
           x="19.006836"
           sodipodi:role="line"
           id="tspan3933">emblems</tspan></text>
      <text
         y="-8.2548828"
         xml:space="preserve"
         x="146.48828"
         style="font-style:normal;font-variant:normal;font-weight:bold;font-stretch:normal;line-height:0%;font-family:'DejaVu Sans';-inkscape-font-specification:'DejaVu Sans Bold';text-align:start;writing-mode:lr-tb;text-anchor:start;display:inline;fill:#000000;fill-opacity:1;stroke:none;enable-background:new"
         inkscape:label="icon-name"
         id="icon-name"><tspan
           style="font-style:normal;font-variant:normal;font-weight:bold;font-stretch:normal;font-size:18px;line-height:1.25;font-family:'DejaVu Sans';-inkscape-font-specification:'DejaVu Sans Bold'"
           y="-8.2548828"
           x="146.48828"
           sodipodi:role="line"
           id="tspan924">emblem-system</tspan></text>
      <rect
         style="display:inline;overflow:visible;visibility:visible;fill:#cdcdcd;fill-opacity:1;fill-rule:nonzero;stroke:none;stroke-width:2;marker:none;enable-background:accumulate"
         id="rect16x16"
         width="16"
         height="16"
         x="320"
         y="236"
         inkscape:label="16x16" />
      <rect
         style="display:inline;overflow:visible;visibility:visible;fill:#cdcdcd;fill-opacity:1;fill-rule:nonzero;stroke:none;stroke-width:2;marker:none;enable-background:accumulate"
         id="rect24x24"
         width="24"
         height="24"
         x="320"
         y="188"
         inkscape:label="24x24" />
      <rect
         style="display:inline;overflow:visible;visibility:visible;fill:#cdcdcd;fill-opacity:1;fill-rule:nonzero;stroke:none;stroke-width:2;marker:none;enable-background:accumulate"
         id="rect32x32"
         width="32"
         height="32"
         x="320"
         y="132"
         inkscape:label="32x32" />
      <rect
         inkscape:label="48x48"
         y="60"
         x="320"
         height="48"
         width="48"
         id="rect48x48"
         style="display:inline;overflow:visible;visibility:visible;fill:#cdcdcd;fill-opacity:1;fill-rule:nonzero;stroke:none;stroke-width:2;marker:none;enable-background:accumulate" />
      <rect
         style="display:inline;overflow:visible;visibility:visible;fill:#cdcdcd;fill-opacity:1;fill-rule:nonzero;stroke:none;stroke-width:2;marker:none;enable-background:accumulate"
         id="rect3951"
         width="256"
         height="256"
         x="24"
         y="28"
         inkscape:label="48x48" />
    </g>
    <g
       inkscape:groupmode="layer"
       id="layer2"
       inkscape:label="Background"
       style="display:inline">
      <g
         transform="matrix(0,-0.49980223,-0.49999998,0,540.6811,278.9146)"
         style="display:inline"
         id="g841">
        <rect
           transform="scale(-1,1)"
           y="345.36221"
           x="-438.00244"
           height="96"
           width="96.037987"
           id="rect4782"
           style="color:#000000;display:inline;overflow:visible;visibility:visible;fill:none;stroke:none;stroke-width:4;marker:none;enable-background:accumulate" />
        <path
           inkscape:connector-curvature="0"
           id="path5417"
           d="m 371.94351,362.16529 c 17.19788,-9.91601 39.26149,-3.98444 49.20927,13.22273 9.94779,17.20716 4.05873,39.25353 -13.13915,49.16953 -17.19788,9.91601 -39.26053,3.98613 -49.20832,-13.22104 -9.94778,-17.20717 -4.05969,-39.25522 13.1382,-49.17122 z m 2.00297,3.46463 c -15.32206,8.83444 -20.54308,28.37061 -11.67591,43.70858 8.86716,15.33798 28.41901,20.59054 43.74106,11.7561 15.32205,-8.83443 20.54307,-28.37061 11.6759,-43.70858 -8.86716,-15.33797 -28.41901,-20.59053 -43.74105,-11.7561 z"
           style="color:#000000;font-style:normal;font-variant:normal;font-weight:normal;font-stretch:normal;font-size:medium;line-height:normal;font-family:sans-serif;font-variant-ligatures:none;font-variant-position:normal;font-variant-caps:normal;font-variant-numeric:normal;font-variant-alternates:normal;font-feature-settings:normal;text-indent:0;text-align:start;text-decoration:none;text-decoration-line:none;text-decoration-style:solid;text-decoration-color:#000000;letter-spacing:normal;word-spacing:normal;text-transform:none;writing-mode:lr-tb;direction:ltr;baseline-shift:baseline;text-anchor:start;white-space:normal;shape-padding:0;clip-rule:nonzero;display:inline;overflow:visible;visibility:visible;opacity:1;isolation:auto;mix-blend-mode:normal;color-interpolation:sRGB;color-interpolation-filters:linearRGB;solid-color:#000000;solid-opacity:1;fill:#808080;fill-opacity:1;fill-rule:nonzero;stroke:none;stroke-width:4.0007925;stroke-linecap:butt;stroke-linejoin:miter;stroke-miterlimit:4;stroke-dasharray:none;stroke-dashoffset:0;stroke-opacity:1;marker:none;color-rendering:auto;image-rendering:auto;shape-rendering:auto;text-rendering:auto;enable-background:accumulate" />
        <path
           inkscape:connector-curvature="0"
           id="path4168"
           transform="matrix(0,-1,-1.0003957,0,438.00245,441.36222)"
           d="m 54.902344,5.5820312 -13.804688,2.0625 v 7.0976568 a 34.033369,33.971264 43.145308 0 1 13.804688,0.02734 V 5.5839844 Z m -28.246094,6.2441408 -10.517578,8.941406 5.18164,6.175781 a 34.033369,33.971264 43.145308 0 1 10.580079,-8.867187 z m 42.630859,0.06641 -5.207031,6.207031 a 34.033369,33.971264 43.145308 0 1 0.894531,0.47461 34.033369,33.971264 43.145308 0 1 9.673829,8.40625 l 5.271484,-6.28125 z M 8.3984375,34.007812 6.0878906,47.619141 14.035156,49.021484 a 34.033369,33.971264 43.145308 0 1 2.386719,-13.597656 z m 79.1171875,0.01563 -7.986328,1.408203 a 34.033369,33.971264 43.145308 0 1 2.431641,13.58789 L 90,47.603516 Z m -71.757813,24.621093 -7.0878901,4.09375 h -0.00195 L 15.648441,74.648442 22.666019,70.59766 A 34.033369,33.971264 43.145308 0 1 15.757812,58.644531 Z m 64.511719,0.01563 a 34.033369,33.971264 43.145308 0 1 -2.804687,6.371094 34.033369,33.971264 43.145308 0 1 -4.058594,5.607422 l 7.021484,4.054687 6.826172,-12 z m -50.121093,18.207032 -2.804688,7.703124 13.003906,4.638672 2.757813,-7.580078 A 34.033369,33.971264 43.145308 0 1 31.025391,77.433594 34.033369,33.971264 43.145308 0 1 30.148438,76.867188 Z m 35.732421,0.08008 A 34.033369,33.971264 43.145308 0 1 52.902344,81.654308 L 55.683594,89.29298 68.625,84.486328 Z"
           style="color:#000000;display:inline;overflow:visible;visibility:visible;fill:#808080;fill-opacity:1;fill-rule:nonzero;stroke:none;stroke-width:2;marker:none;enable-background:accumulate" />
        <path
           inkscape:connector-curvature="0"
           id="ellipse4539"
           d="m 377.95161,372.55694 c 11.46388,-6.60993 26.18875,-2.6521 32.81902,8.81669 6.63028,11.4688 2.70094,26.18465 -8.76295,32.79458 -11.46388,6.60992 -26.19142,2.65138 -32.82169,-8.81742 -6.63028,-11.46878 -2.69827,-26.18392 8.76562,-32.79385 z m 2.00198,3.46296 c -9.58805,5.52834 -12.85033,17.73231 -7.30067,27.3319 5.54967,9.5996 17.76375,12.8801 27.3518,7.35175 9.58805,-5.52834 12.85033,-17.73231 7.30067,-27.3319 -5.54967,-9.5996 -17.76375,-12.8801 -27.3518,-7.35175 z"
           style="color:#000000;font-style:normal;font-variant:normal;font-weight:normal;font-stretch:normal;font-size:medium;line-height:normal;font-family:sans-serif;font-variant-ligatures:none;font-variant-position:normal;font-variant-caps:normal;font-variant-numeric:normal;font-variant-alternates:normal;font-feature-settings:normal;text-indent:0;text-align:start;text-decoration:none;text-decoration-line:none;text-decoration-style:solid;text-decoration-color:#000000;letter-spacing:normal;word-spacing:normal;text-transform:none;writing-mode:lr-tb;direction:ltr;baseline-shift:baseline;text-anchor:start;white-space:normal;shape-padding:0;clip-rule:nonzero;display:inline;overflow:visible;visibility:visible;opacity:1;isolation:auto;mix-blend-mode:normal;color-interpolation:sRGB;color-interpolation-filters:linearRGB;solid-color:#000000;solid-opacity:1;fill:#808080;fill-opacity:1;fill-rule:nonzero;stroke:none;stroke-width:4.0007925;stroke-linecap:butt;stroke-linejoin:miter;stroke-miterlimit:4;stroke-dasharray:none;stroke-dashoffset:0;stroke-opacity:1;marker:none;color-rendering:auto;image-rendering:auto;shape-rendering:auto;text-rendering:auto;enable-background:accumulate" />
      </g>
      <g
         id="g863"
         style="display:inline"
         transform="matrix(0,-0.24990112,-0.25,0,430.34055,297.4573)">
        <rect
           style="color:#000000;display:inline;overflow:visible;visibility:visible;fill:none;stroke:none;stroke-width:4;marker:none;enable-background:accumulate"
           id="rect855"
           width="96.037987"
           height="96"
           x="-438.00244"
           y="345.36221"
           transform="scale(-1,1)" />
        <path
           style="color:#000000;font-style:normal;font-variant:normal;font-weight:normal;font-stretch:normal;font-size:medium;line-height:normal;font-family:sans-serif;font-variant-ligatures:none;font-variant-position:normal;font-variant-caps:normal;font-variant-numeric:normal;font-variant-alternates:normal;font-feature-settings:normal;text-indent:0;text-align:start;text-decoration:none;text-decoration-line:none;text-decoration-style:solid;text-decoration-color:#000000;letter-spacing:normal;word-spacing:normal;text-transform:none;writing-mode:lr-tb;direction:ltr;baseline-shift:baseline;text-anchor:start;white-space:normal;shape-padding:0;clip-rule:nonzero;display:inline;overflow:visible;visibility:visible;opacity:1;isolation:auto;mix-blend-mode:normal;color-interpolation:sRGB;color-interpolation-filters:linearRGB;solid-color:#000000;solid-opacity:1;fill:#808080;fill-opacity:1;fill-rule:nonzero;stroke:none;stroke-width:4.0007925;stroke-linecap:butt;stroke-linejoin:miter;stroke-miterlimit:4;stroke-dasharray:none;stroke-dashoffset:0;stroke-opacity:1;marker:none;color-rendering:auto;image-rendering:auto;shape-rendering:auto;text-rendering:auto;enable-background:accumulate"
           d="m 371.94351,362.16529 c 17.19788,-9.91601 39.26149,-3.98444 49.20927,13.22273 9.94779,17.20716 4.05873,39.25353 -13.13915,49.16953 -17.19788,9.91601 -39.26053,3.98613 -49.20832,-13.22104 -9.94778,-17.20717 -4.05969,-39.25522 13.1382,-49.17122 z m 2.00297,3.46463 c -15.32206,8.83444 -20.54308,28.37061 -11.67591,43.70858 8.86716,15.33798 28.41901,20.59054 43.74106,11.7561 15.32205,-8.83443 20.54307,-28.37061 11.6759,-43.70858 -8.86716,-15.33797 -28.41901,-20.59053 -43.74105,-11.7561 z"
           id="path857"
           inkscape:connector-curvature="0" />
        <path
           style="color:#000000;display:inline;overflow:visible;visibility:visible;fill:#808080;fill-opacity:1;fill-rule:nonzero;stroke:none;stroke-width:2;marker:none;enable-background:accumulate"
           d="m 54.902344,5.5820312 -13.804688,2.0625 v 7.0976568 a 34.033369,33.971264 43.145308 0 1 13.804688,0.02734 V 5.5839844 Z m -28.246094,6.2441408 -10.517578,8.941406 5.18164,6.175781 a 34.033369,33.971264 43.145308 0 1 10.580079,-8.867187 z m 42.630859,0.06641 -5.207031,6.207031 a 34.033369,33.971264 43.145308 0 1 0.894531,0.47461 34.033369,33.971264 43.145308 0 1 9.673829,8.40625 l 5.271484,-6.28125 z M 8.3984375,34.007812 6.0878906,47.619141 14.035156,49.021484 a 34.033369,33.971264 43.145308 0 1 2.386719,-13.597656 z m 79.1171875,0.01563 -7.986328,1.408203 a 34.033369,33.971264 43.145308 0 1 2.431641,13.58789 L 90,47.603516 Z m -71.757813,24.621093 -7.0878901,4.09375 h -0.00195 L 15.648441,74.648442 22.666019,70.59766 A 34.033369,33.971264 43.145308 0 1 15.757812,58.644531 Z m 64.511719,0.01563 a 34.033369,33.971264 43.145308 0 1 -2.804687,6.371094 34.033369,33.971264 43.145308 0 1 -4.058594,5.607422 l 7.021484,4.054687 6.826172,-12 z m -50.121093,18.207032 -2.804688,7.703124 13.003906,4.638672 2.757813,-7.580078 A 34.033369,33.971264 43.145308 0 1 31.025391,77.433594 34.033369,33.971264 43.145308 0 1 30.148438,76.867188 Z m 35.732421,0.08008 A 34.033369,33.971264 43.145308 0 1 52.902344,81.654308 L 55.683594,89.29298 68.625,84.486328 Z"
           transform="matrix(0,-1,-1.0003957,0,438.00245,441.36222)"
           id="path859"
           inkscape:connector-curvature="0" />
        <path
           style="color:#000000;font-style:normal;font-variant:normal;font-weight:normal;font-stretch:normal;font-size:medium;line-height:normal;font-family:sans-serif;font-variant-ligatures:none;font-variant-position:normal;font-variant-caps:normal;font-variant-numeric:normal;font-variant-alternates:normal;font-feature-settings:normal;text-indent:0;text-align:start;text-decoration:none;text-decoration-line:none;text-decoration-style:solid;text-decoration-color:#000000;letter-spacing:normal;word-spacing:normal;text-transform:none;writing-mode:lr-tb;direction:ltr;baseline-shift:baseline;text-anchor:start;white-space:normal;shape-padding:0;clip-rule:nonzero;display:inline;overflow:visible;visibility:visible;opacity:1;isolation:auto;mix-blend-mode:normal;color-interpolation:sRGB;color-interpolation-filters:linearRGB;solid-color:#000000;solid-opacity:1;fill:#808080;fill-opacity:1;fill-rule:nonzero;stroke:none;stroke-width:4.0007925;stroke-linecap:butt;stroke-linejoin:miter;stroke-miterlimit:4;stroke-dasharray:none;stroke-dashoffset:0;stroke-opacity:1;marker:none;color-rendering:auto;image-rendering:auto;shape-rendering:auto;text-rendering:auto;enable-background:accumulate"
           d="m 377.95161,372.55694 c 11.46388,-6.60993 26.18875,-2.6521 32.81902,8.81669 6.63028,11.4688 2.70094,26.18465 -8.76295,32.79458 -11.46388,6.60992 -26.19142,2.65138 -32.82169,-8.81742 -6.63028,-11.46878 -2.69827,-26.18392 8.76562,-32.79385 z m 2.00198,3.46296 c -9.58805,5.52834 -12.85033,17.73231 -7.30067,27.3319 5.54967,9.5996 17.76375,12.8801 27.3518,7.35175 9.58805,-5.52834 12.85033,-17.73231 7.30067,-27.3319 -5.54967,-9.5996 -17.76375,-12.8801 -27.3518,-7.35175 z"
           id="path861"
           inkscape:connector-curvature="0" />
      </g>
      <g
         transform="matrix(0,-0.16660075,-0.16666667,0,393.56037,308.97153)"
         style="display:inline"
         id="g873">
        <rect
           transform="scale(-1,1)"
           y="345.36221"
           x="-438.00244"
           height="96"
           width="96.037987"
           id="rect865"
           style="color:#000000;display:inline;overflow:visible;visibility:visible;fill:none;stroke:none;stroke-width:4;marker:none;enable-background:accumulate" />
        <path
           style="color:#000000;font-style:normal;font-variant:normal;font-weight:normal;font-stretch:normal;font-size:medium;line-height:normal;font-family:sans-serif;font-variant-ligatures:none;font-variant-position:normal;font-variant-caps:normal;font-variant-numeric:normal;font-variant-alternates:normal;font-feature-settings:normal;text-indent:0;text-align:start;text-decoration:none;text-decoration-line:none;text-decoration-style:solid;text-decoration-color:#000000;letter-spacing:normal;word-spacing:normal;text-transform:none;writing-mode:lr-tb;direction:ltr;baseline-shift:baseline;text-anchor:start;white-space:normal;shape-padding:0;clip-rule:nonzero;display:inline;overflow:visible;visibility:visible;opacity:1;isolation:auto;mix-blend-mode:normal;color-interpolation:sRGB;color-interpolation-filters:linearRGB;solid-color:#000000;solid-opacity:1;fill:#808080;fill-opacity:1;fill-rule:nonzero;stroke:none;stroke-width:0.66666687;stroke-linecap:butt;stroke-linejoin:miter;stroke-miterlimit:4;stroke-dasharray:none;stroke-dashoffset:0;stroke-opacity:1;marker:none;color-rendering:auto;image-rendering:auto;shape-rendering:auto;text-rendering:auto;enable-background:accumulate"
           d="M 328.15625 238.00391 C 326.02792 237.94756 323.93699 239.02628 322.80078 240.99609 C 321.14811 243.86127 322.13604 247.53605 325.00391 249.19336 C 327.87177 250.85067 331.54655 249.87104 333.19922 247.00586 C 334.85189 244.14068 333.86396 240.46395 330.99609 238.80664 C 330.09989 238.28873 329.12367 238.02952 328.15625 238.00391 z M 328 239 A 5 5 0 0 1 333 244 A 5 5 0 0 1 328 249 A 5 5 0 0 1 323 244 A 5 5 0 0 1 328 239 z "
           transform="matrix(0,-5.9999999,-6.0023739,0,1854.5627,2361.3622)"
           id="path867" />
        <path
           inkscape:connector-curvature="0"
           id="path869"
           transform="matrix(0,-1,-1.0003957,0,438.00245,441.36222)"
           d="m 54.902344,5.5820312 -13.804688,2.0625 v 7.0976568 a 34.033369,33.971264 43.145308 0 1 13.804688,0.02734 V 5.5839844 Z m -28.246094,6.2441408 -10.517578,8.941406 5.18164,6.175781 a 34.033369,33.971264 43.145308 0 1 10.580079,-8.867187 z m 42.630859,0.06641 -5.207031,6.207031 a 34.033369,33.971264 43.145308 0 1 0.894531,0.47461 34.033369,33.971264 43.145308 0 1 9.673829,8.40625 l 5.271484,-6.28125 z M 8.3984375,34.007812 6.0878906,47.619141 14.035156,49.021484 a 34.033369,33.971264 43.145308 0 1 2.386719,-13.597656 z m 79.1171875,0.01563 -7.986328,1.408203 a 34.033369,33.971264 43.145308 0 1 2.431641,13.58789 L 90,47.603516 Z m -71.757813,24.621093 -7.0878901,4.09375 h -0.00195 L 15.648441,74.648442 22.666019,70.59766 A 34.033369,33.971264 43.145308 0 1 15.757812,58.644531 Z m 64.511719,0.01563 a 34.033369,33.971264 43.145308 0 1 -2.804687,6.371094 34.033369,33.971264 43.145308 0 1 -4.058594,5.607422 l 7.021484,4.054687 6.826172,-12 z m -50.121093,18.207032 -2.804688,7.703124 13.003906,4.638672 2.757813,-7.580078 A 34.033369,33.971264 43.145308 0 1 31.025391,77.433594 34.033369,33.971264 43.145308 0 1 30.148438,76.867188 Z m 35.732421,0.08008 A 34.033369,33.971264 43.145308 0 1 52.902344,81.654308 L 55.683594,89.29298 68.625,84.486328 Z"
           style="color:#000000;display:inline;overflow:visible;visibility:visible;fill:#808080;fill-opacity:1;fill-rule:nonzero;stroke:none;stroke-width:2;marker:none;enable-background:accumulate" />
        <path
           style="color:#000000;font-style:normal;font-variant:normal;font-weight:normal;font-stretch:normal;font-size:medium;line-height:normal;font-family:sans-serif;font-variant-ligatures:none;font-variant-position:normal;font-variant-caps:normal;font-variant-numeric:normal;font-variant-alternates:normal;font-feature-settings:normal;text-indent:0;text-align:start;text-decoration:none;text-decoration-line:none;text-decoration-style:solid;text-decoration-color:#000000;letter-spacing:normal;word-spacing:normal;text-transform:none;writing-mode:lr-tb;direction:ltr;baseline-shift:baseline;text-anchor:start;white-space:normal;shape-padding:0;clip-rule:nonzero;display:inline;overflow:visible;visibility:visible;opacity:1;isolation:auto;mix-blend-mode:normal;color-interpolation:sRGB;color-interpolation-filters:linearRGB;solid-color:#000000;solid-opacity:1;fill:#808080;fill-opacity:1;fill-rule:nonzero;stroke:none;stroke-width:0.66666687;stroke-linecap:butt;stroke-linejoin:miter;stroke-miterlimit:4;stroke-dasharray:none;stroke-dashoffset:0;stroke-opacity:1;marker:none;color-rendering:auto;image-rendering:auto;shape-rendering:auto;text-rendering:auto;enable-background:accumulate"
           d="M 327.71875 240.00977 C 326.43671 240.09973 325.22174 240.80241 324.5332 241.99609 C 323.43155 243.90598 324.09049 246.36024 326.00195 247.46484 C 327.91342 248.56945 330.36514 247.9138 331.4668 246.00391 C 332.56845 244.09402 331.90951 241.64172 329.99805 240.53711 C 329.28125 240.12288 328.48797 239.95578 327.71875 240.00977 z M 328 241 A 3 3 0 0 1 331 244 A 3 3 0 0 1 328 247 A 3 3 0 0 1 325 244 A 3 3 0 0 1 328 241 z "
           transform="matrix(0,-5.9999999,-6.0023739,0,1854.5627,2361.3622)"
           id="path871" />
      </g>
      <g
         id="g889"
         style="display:inline"
         transform="matrix(0,-0.33320149,-0.33333333,0,467.12074,277.94307)">
        <rect
           style="color:#000000;display:inline;overflow:visible;visibility:visible;fill:none;stroke:none;stroke-width:4;marker:none;enable-background:accumulate"
           id="rect881"
           width="96.037987"
           height="96"
           x="-438.00244"
           y="345.36221"
           transform="scale(-1,1)" />
        <path
           id="path883"
           transform="matrix(0,-5.9999999,-6.0023739,0,1854.5627,2361.3622)"
           d="m 328.15625,238.00391 c -2.12833,-0.0563 -4.21926,1.02237 -5.35547,2.99218 -1.65267,2.86518 -0.66474,6.53996 2.20313,8.19727 2.86786,1.65731 6.54264,0.67768 8.19531,-2.1875 1.65267,-2.86518 0.66474,-6.54191 -2.20313,-8.19922 -0.8962,-0.51791 -1.87242,-0.77712 -2.83984,-0.80273 z M 328,239 a 5,5 0 0 1 5,5 5,5 0 0 1 -5,5 5,5 0 0 1 -5,-5 5,5 0 0 1 5,-5 z"
           style="color:#000000;font-style:normal;font-variant:normal;font-weight:normal;font-stretch:normal;font-size:medium;line-height:normal;font-family:sans-serif;font-variant-ligatures:none;font-variant-position:normal;font-variant-caps:normal;font-variant-numeric:normal;font-variant-alternates:normal;font-feature-settings:normal;text-indent:0;text-align:start;text-decoration:none;text-decoration-line:none;text-decoration-style:solid;text-decoration-color:#000000;letter-spacing:normal;word-spacing:normal;text-transform:none;writing-mode:lr-tb;direction:ltr;baseline-shift:baseline;text-anchor:start;white-space:normal;shape-padding:0;clip-rule:nonzero;display:inline;overflow:visible;visibility:visible;opacity:1;isolation:auto;mix-blend-mode:normal;color-interpolation:sRGB;color-interpolation-filters:linearRGB;solid-color:#000000;solid-opacity:1;fill:#808080;fill-opacity:1;fill-rule:nonzero;stroke:none;stroke-width:0.66666687;stroke-linecap:butt;stroke-linejoin:miter;stroke-miterlimit:4;stroke-dasharray:none;stroke-dashoffset:0;stroke-opacity:1;marker:none;color-rendering:auto;image-rendering:auto;shape-rendering:auto;text-rendering:auto;enable-background:accumulate"
           inkscape:connector-curvature="0" />
        <path
           style="color:#000000;display:inline;overflow:visible;visibility:visible;fill:#808080;fill-opacity:1;fill-rule:nonzero;stroke:none;stroke-width:2;marker:none;enable-background:accumulate"
           d="m 54.902344,5.5820312 -13.804688,2.0625 v 7.0976568 a 34.033369,33.971264 43.145308 0 1 13.804688,0.02734 V 5.5839844 Z m -28.246094,6.2441408 -10.517578,8.941406 5.18164,6.175781 a 34.033369,33.971264 43.145308 0 1 10.580079,-8.867187 z m 42.630859,0.06641 -5.207031,6.207031 a 34.033369,33.971264 43.145308 0 1 0.894531,0.47461 34.033369,33.971264 43.145308 0 1 9.673829,8.40625 l 5.271484,-6.28125 z M 8.3984375,34.007812 6.0878906,47.619141 14.035156,49.021484 a 34.033369,33.971264 43.145308 0 1 2.386719,-13.597656 z m 79.1171875,0.01563 -7.986328,1.408203 a 34.033369,33.971264 43.145308 0 1 2.431641,13.58789 L 90,47.603516 Z m -71.757813,24.621093 -7.0878901,4.09375 h -0.00195 L 15.648441,74.648442 22.666019,70.59766 A 34.033369,33.971264 43.145308 0 1 15.757812,58.644531 Z m 64.511719,0.01563 a 34.033369,33.971264 43.145308 0 1 -2.804687,6.371094 34.033369,33.971264 43.145308 0 1 -4.058594,5.607422 l 7.021484,4.054687 6.826172,-12 z m -50.121093,18.207032 -2.804688,7.703124 13.003906,4.638672 2.757813,-7.580078 A 34.033369,33.971264 43.145308 0 1 31.025391,77.433594 34.033369,33.971264 43.145308 0 1 30.148438,76.867188 Z m 35.732421,0.08008 A 34.033369,33.971264 43.145308 0 1 52.902344,81.654308 L 55.683594,89.29298 68.625,84.486328 Z"
           transform="matrix(0,-1,-1.0003957,0,438.00245,441.36222)"
           id="path885"
           inkscape:connector-curvature="0" />
        <path
           id="path887"
           transform="matrix(0,-5.9999999,-6.0023739,0,1854.5627,2361.3622)"
           d="m 327.71875,240.00977 c -1.28204,0.09 -2.49701,0.79264 -3.18555,1.98632 -1.10165,1.90989 -0.44271,4.36415 1.46875,5.46875 1.91147,1.10461 4.36319,0.44896 5.46485,-1.46093 1.10165,-1.90989 0.44271,-4.36219 -1.46875,-5.4668 -0.7168,-0.41423 -1.51008,-0.58133 -2.2793,-0.52734 z M 328,241 a 3,3 0 0 1 3,3 3,3 0 0 1 -3,3 3,3 0 0 1 -3,-3 3,3 0 0 1 3,-3 z"
           style="color:#000000;font-style:normal;font-variant:normal;font-weight:normal;font-stretch:normal;font-size:medium;line-height:normal;font-family:sans-serif;font-variant-ligatures:none;font-variant-position:normal;font-variant-caps:normal;font-variant-numeric:normal;font-variant-alternates:normal;font-feature-settings:normal;text-indent:0;text-align:start;text-decoration:none;text-decoration-line:none;text-decoration-style:solid;text-decoration-color:#000000;letter-spacing:normal;word-spacing:normal;text-transform:none;writing-mode:lr-tb;direction:ltr;baseline-shift:baseline;text-anchor:start;white-space:normal;shape-padding:0;clip-rule:nonzero;display:inline;overflow:visible;visibility:visible;opacity:1;isolation:auto;mix-blend-mode:normal;color-interpolation:sRGB;color-interpolation-filters:linearRGB;solid-color:#000000;solid-opacity:1;fill:#808080;fill-opacity:1;fill-rule:nonzero;stroke:none;stroke-width:0.66666687;stroke-linecap:butt;stroke-linejoin:miter;stroke-miterlimit:4;stroke-dasharray:none;stroke-dashoffset:0;stroke-opacity:1;marker:none;color-rendering:auto;image-rendering:auto;shape-rendering:auto;text-rendering:auto;enable-background:accumulate"
           inkscape:connector-curvature="0" />
      </g>
      <g
         transform="matrix(0,-2.6656119,-2.6666667,0,1200.9659,1195.5445)"
         style="display:inline"
         id="g899">
        <rect
           transform="scale(-1,1)"
           y="345.36221"
           x="-438.00244"
           height="96"
           width="96.037987"
           id="rect891"
           style="color:#000000;display:inline;overflow:visible;visibility:visible;fill:none;stroke:none;stroke-width:4;marker:none;enable-background:accumulate" />
        <path
           style="color:#000000;font-style:normal;font-variant:normal;font-weight:normal;font-stretch:normal;font-size:medium;line-height:normal;font-family:sans-serif;font-variant-ligatures:none;font-variant-position:normal;font-variant-caps:normal;font-variant-numeric:normal;font-variant-alternates:normal;font-feature-settings:normal;text-indent:0;text-align:start;text-decoration:none;text-decoration-line:none;text-decoration-style:solid;text-decoration-color:#000000;letter-spacing:normal;word-spacing:normal;text-transform:none;writing-mode:lr-tb;direction:ltr;baseline-shift:baseline;text-anchor:start;white-space:normal;shape-padding:0;clip-rule:nonzero;display:inline;overflow:visible;visibility:visible;opacity:1;isolation:auto;mix-blend-mode:normal;color-interpolation:sRGB;color-interpolation-filters:linearRGB;solid-color:#000000;solid-opacity:1;fill:#808080;fill-opacity:1;fill-rule:nonzero;stroke:none;stroke-width:11.12876225;stroke-linecap:butt;stroke-linejoin:miter;stroke-miterlimit:4;stroke-dasharray:none;stroke-dashoffset:0;stroke-opacity:1;marker:none;color-rendering:auto;image-rendering:auto;shape-rendering:auto;text-rendering:auto;enable-background:accumulate"
           d="M 151.30664 60.0625 C 118.37325 60.284012 86.435227 77.408612 68.814453 107.95703 C 42.357493 153.82459 58.139287 212.55162 104.05859 239.08789 C 149.97809 265.62446 208.70207 249.97151 235.1582 204.10547 C 261.61482 158.23874 245.8322 99.475033 199.91406 72.939453 C 185.56814 64.648974 169.97497 60.503401 154.49609 60.09375 C 153.43212 60.065495 152.36899 60.055303 151.30664 60.0625 z M 152 68 A 88 88 0 0 1 240 156 A 88 88 0 0 1 152 244 A 88 88 0 0 1 64 156 A 88 88 0 0 1 152 68 z "
           transform="matrix(0,-0.375,-0.37514839,0,448.50659,450.36221)"
           id="path893" />
        <path
           style="color:#000000;display:inline;overflow:visible;visibility:visible;fill:#808080;fill-opacity:1;fill-rule:nonzero;stroke:none;stroke-width:5.33333349;marker:none;enable-background:accumulate"
           d="M 168 43.244141 L 136 48.025391 L 136 66.943359 A 90.755652 90.590038 43.145206 0 1 168 66.984375 L 168 43.244141 z M 93.251953 61.09375 L 68.871094 81.822266 L 82.457031 98.015625 A 90.755652 90.590038 43.145206 0 1 106.96875 77.441406 L 93.251953 61.09375 z M 210.61914 61.248047 L 197.05078 77.417969 A 90.755652 90.590038 43.145206 0 1 197.26562 77.53125 A 90.755652 90.590038 43.145206 0 1 221.48047 98.089844 L 235.26367 81.660156 L 210.61914 61.248047 z M 45.994141 121.06055 L 40.636719 152.60938 L 61.474609 156.28516 A 90.755652 90.590038 43.145206 0 1 66.984375 124.76367 L 45.994141 121.06055 z M 257.80859 121.0957 L 236.87109 124.78906 A 90.755652 90.590038 43.145206 0 1 242.52734 156.28516 L 263.56641 152.57422 L 257.80859 121.0957 z M 66.882812 186.66797 L 48.332031 197.37891 L 64.511719 224.98633 L 82.914062 214.36133 A 90.755652 90.590038 43.145206 0 1 66.882812 186.66797 z M 237.1875 186.70898 A 90.755652 90.590038 43.145206 0 1 230.57227 201.41602 A 90.755652 90.590038 43.145206 0 1 221.28906 214.47852 L 239.66602 225.08789 L 255.48828 197.27344 L 237.1875 186.70898 z M 106.46875 234.31836 L 99.183594 254.33008 L 129.32422 265.08203 L 136.55859 245.20508 A 90.755652 90.590038 43.145206 0 1 106.73438 234.49023 A 90.755652 90.590038 43.145206 0 1 106.46875 234.31836 z M 197.54883 234.36523 A 90.755652 90.590038 43.145206 0 1 167.47461 245.29688 L 174.74609 265.27734 L 204.74609 254.13477 L 197.54883 234.36523 z "
           transform="matrix(0,-0.375,-0.37514839,0,448.50659,450.36221)"
           id="path895" />
        <path
           style="color:#000000;font-style:normal;font-variant:normal;font-weight:normal;font-stretch:normal;font-size:medium;line-height:normal;font-family:sans-serif;font-variant-ligatures:none;font-variant-position:normal;font-variant-caps:normal;font-variant-numeric:normal;font-variant-alternates:normal;font-feature-settings:normal;text-indent:0;text-align:start;text-decoration:none;text-decoration-line:none;text-decoration-style:solid;text-decoration-color:#000000;letter-spacing:normal;word-spacing:normal;text-transform:none;writing-mode:lr-tb;direction:ltr;baseline-shift:baseline;text-anchor:start;white-space:normal;shape-padding:0;clip-rule:nonzero;display:inline;overflow:visible;visibility:visible;opacity:1;isolation:auto;mix-blend-mode:normal;color-interpolation:sRGB;color-interpolation-filters:linearRGB;solid-color:#000000;solid-opacity:1;fill:#808080;fill-opacity:1;fill-rule:nonzero;stroke:none;stroke-width:10.66528511;stroke-linecap:butt;stroke-linejoin:miter;stroke-miterlimit:4;stroke-dasharray:none;stroke-dashoffset:0;stroke-opacity:1;marker:none;color-rendering:auto;image-rendering:auto;shape-rendering:auto;text-rendering:auto;enable-background:accumulate"
           d="M 152.13086 91.992188 C 150.58373 91.988808 149.03824 92.040474 147.5 92.148438 C 126.99003 93.588268 107.55429 104.82939 96.539062 123.92578 C 78.914956 154.48006 89.455769 193.74276 120.03516 211.41406 C 150.6147 229.08555 189.83667 218.59725 207.46094 188.04297 C 225.08507 157.48871 214.54423 118.25742 183.96484 100.58594 C 173.93095 94.787472 162.96075 92.015843 152.13086 91.992188 z M 152 100 A 56 56 0 0 1 208 156 A 56 56 0 0 1 152 212 A 56 56 0 0 1 96 156 A 56 56 0 0 1 152 100 z "
           transform="matrix(0,-0.375,-0.37514839,0,448.50659,450.36221)"
           id="path897" />
      </g>
      <g
         id="g925" />
      <g
         id="g955"
         transform="rotate(40,152,156)" />
      <g
         transform="rotate(80,152,156)"
         id="g961" />
      <g
         id="g967"
         transform="rotate(120,152,156)" />
      <g
         transform="rotate(160,152,156)"
         id="g973" />
      <g
         id="g979"
         transform="rotate(-160,152,156)" />
      <g
         transform="rotate(-120,152,156)"
         id="g985" />
      <g
         id="g991"
         transform="rotate(-80,152,156)" />
      <g
         transform="rotate(-40,152,156)"
         id="g997" />
      <g
         id="g1003"
         transform="rotate(-40,152,156)" />
    </g>
    <g
       inkscape:groupmode="layer"
       id="layer6"
       inkscape:label="Pictogram"
       style="display:inline" />
  </g>
</svg>
