<svg version="1.1" viewBox="0 0 16 16" xmlns="http://www.w3.org/2000/svg">
 <g transform="translate(-632,-341)">
  <path transform="translate(632,340)" d="m3 3v1h10v-1zm0 3v1h10v-1zm0 3v1h5v-1zm0 3v1h5v-1z" color="#000000" fill="#808080"/>
 </g>
 <path d="m12 8 2e-6 2v2.2695c-0.30388-0.17609-0.64878-0.26905-1-0.26953-0.01628-1.99e-4 -0.03255-1.99e-4 -0.04883 0-1.0855 0.02651-1.9515 0.91422-1.9512 2 0 1.1046 0.89543 2 2 2 1.1046 0 2-0.89543 2-2v-5h2v-1zm-1 5c0.55228 0 1 0.44772 1 1s-0.44772 1-1 1-1-0.44772-1-1 0.44772-1 1-1z" fill="#808080" stroke-width=".55556"/>
</svg>
