<svg version="1.1" viewBox="0 0 16 16" xmlns="http://www.w3.org/2000/svg">
 <g transform="rotate(45 6.8899 8.4303)" fill="gray">
  <path d="m1.5514 1.8466c-0.20058 0.75937-0.38477 1.5505-0.55071 2.3731-0.16031 0.81808-0.29813 1.6233-0.4128 2.4123 0.76468-0.24357 1.5361-0.51805 2.313-0.81789 0.78228-0.30635 1.5242-0.62596 2.2297-0.96172l-1.3316-1.1173a5.995 5.995 0 0 1 6.1104-1.4329 5.995 5.995 0 0 1 4.0723 6.3924c-0.33142 2.8278-2.5947 5.0308-5.4313 5.2816-0.00186 1.64e-4 -0.00364 3.19e-4 -0.0055 4.81e-4l-0.77102 0.01339 0.022363 1.0004 0.33487-0.0071 0.00289 0.03302 0.49804-0.04357a7.005 7.005 0 0 0 6.3428-6.1613 7.005 7.005 0 0 0-4.7518-7.4573c-0.78669-0.26043-1.5942-0.37482-2.3863-0.3527l2.408e-4 0.00275a7.006 7.006 0 0 0-4.8027 2.0866zm0.75589 10.193 0.54012 0.67503 0.044352 0.04742 0.099711 0.09387 0.69091-0.72312-0.08026-0.07755-0.51498-0.64118zm2.0712 0.71299-0.58941 0.80574 0.45326 0.33188 0.0529 0.03419 0.38715 0.21012 0.48061-0.87663-0.35819-0.19602zm1.636 0.88831-0.36352 0.93154 0.22826 0.08955 0.061206 0.01821 0.73559 0.1838 0.23787-0.97323-0.69413-0.1694z" fill="#808080"/>
 </g>
 <g stroke-width=".20718" aria-label="30">
  <path d="m5.5742 6c-0.16022 0-0.31372 0.015679-0.46289 0.048828-0.14365 0.027624-0.27918 0.065176-0.40625 0.10938-0.12707 0.044199-0.24464 0.093189-0.34961 0.14844-0.099448 0.049724-0.18175 0.096426-0.24805 0.14062l0.29883 0.58789c0.12707-0.082873 0.28252-0.16289 0.46484-0.24023 0.18785-0.077348 0.41254-0.11523 0.67773-0.11523 0.1326 0 0.25702 0.015679 0.37305 0.048828 0.12155 0.027624 0.22801 0.078567 0.31641 0.15039 0.093923 0.071823 0.16741 0.16294 0.22266 0.27344 0.055249 0.1105 0.083984 0.24179 0.083984 0.39648 0 0.18785-0.03984 0.34558-0.11719 0.47266-0.077348 0.12155-0.17728 0.21919-0.29883 0.29102-0.12155 0.071823-0.25513 0.12081-0.4043 0.14844-0.14365 0.027625-0.28571 0.041016-0.42383 0.041016h-0.27344v0.63086h0.19922c0.1989 0 0.39223 0.01992 0.58008 0.058594 0.19337 0.033149 0.36221 0.093243 0.50586 0.18164 0.14365 0.082873 0.25926 0.1962 0.34766 0.33984 0.088398 0.14365 0.13281 0.31935 0.13281 0.5293 0 0.32597-0.10875 0.58593-0.32422 0.7793-0.20994 0.19337-0.55907 0.29102-1.0508 0.29102-0.31492 0-0.58369-0.035599-0.80469-0.10742-0.21547-0.071822-0.37092-0.12963-0.46484-0.17383l-0.14844 0.66992c0.044199 0.0221 0.1154 0.050838 0.21484 0.083984 0.099447 0.033154 0.21701 0.066463 0.34961 0.09961 0.1326 0.033146 0.2727 0.059931 0.42188 0.082031 0.1547 0.0221 0.30362 0.033203 0.44727 0.033203 0.37017 0 0.69022-0.044414 0.96094-0.13281 0.27072-0.088398 0.49508-0.21054 0.67188-0.36524 0.18232-0.1547 0.31556-0.33693 0.39844-0.54688 0.088398-0.21547 0.13281-0.44669 0.13281-0.69531 0-0.20442-0.033311-0.38894-0.099609-0.55469-0.060774-0.16575-0.14503-0.31238-0.25-0.43945-0.099448-0.12707-0.21735-0.23158-0.35547-0.31445-0.13812-0.082873-0.28247-0.14721-0.43164-0.19141 0.24309-0.1105 0.44982-0.27052 0.62109-0.48047 0.17127-0.21547 0.25781-0.47314 0.25781-0.77148 0-0.21547-0.035599-0.41338-0.10742-0.5957-0.071823-0.18785-0.18057-0.34787-0.32422-0.48047-0.14365-0.13812-0.32588-0.24458-0.54688-0.31641-0.22099-0.077348-0.48324-0.11523-0.78711-0.11523zm4.4258 0c-0.62644 0-1.1183 0.25996-1.4746 0.7793-0.35057 0.51934-0.52539 1.2594-0.52539 2.2207 0 0.96133 0.17482 1.7014 0.52539 2.2207 0.35632 0.51934 0.84817 0.7793 1.4746 0.7793 0.62644 0 1.1143-0.25996 1.4648-0.7793 0.35632-0.51934 0.53516-1.2594 0.53516-2.2207 0-0.96133-0.17883-1.7014-0.53516-2.2207-0.35057-0.51934-0.83841-0.7793-1.4648-0.7793zm0 0.67969c0.21839 0 0.40136 0.064334 0.55078 0.19141 0.14942 0.12155 0.26731 0.28615 0.35352 0.49609 0.091955 0.20994 0.15692 0.45651 0.19141 0.73828 0.040227 0.28177 0.058594 0.57961 0.058594 0.89453s-0.018367 0.61276-0.058594 0.89453c-0.034483 0.28177-0.099451 0.52834-0.19141 0.73828-0.086207 0.20994-0.20409 0.37879-0.35352 0.50586-0.14943 0.12155-0.33239 0.18164-0.55078 0.18164s-0.40136-0.060093-0.55078-0.18164c-0.14943-0.12707-0.27133-0.29592-0.36328-0.50586-0.086207-0.20994-0.14922-0.45651-0.18945-0.73828-0.034483-0.28177-0.050781-0.57961-0.050781-0.89453s0.016299-0.61276 0.050781-0.89453c0.04023-0.28177 0.10325-0.52834 0.18945-0.73828 0.091954-0.20994 0.21386-0.37455 0.36328-0.49609 0.14943-0.12707 0.33239-0.19141 0.55078-0.19141z" fill="#808080" stroke-width=".20718"/>
 </g>
</svg>
