<svg height="16" width="16" xmlns="http://www.w3.org/2000/svg"><path style="color:#000;fill:gray;fill-rule:evenodd;stroke-linecap:round;stroke-linejoin:round;-inkscape-stroke:none;paint-order:stroke fill markers" d="M8.291.594A.5.5 0 0 0 7.699.6C3.642 3.642 2 6.298 2 9.5c0 1.654.684 3.056 1.781 4.016C4.878 14.475 6.374 15 8 15c1.626 0 3.122-.525 4.219-1.484C13.316 12.556 14 11.154 14 9.5c0-3.148-1.476-5.868-5.709-8.906zM8.006 1.65C11.824 4.472 13 6.73 13 9.5c0 1.384-.546 2.48-1.44 3.262C10.668 13.543 9.412 14 8 14s-2.667-.457-3.56-1.238C3.545 11.98 3 10.884 3 9.5c0-2.788 1.327-5.018 5.006-7.85z"/><path style="opacity:1;fill:gray;fill-opacity:1;fill-rule:evenodd;stroke:none;stroke-width:1;stroke-linecap:round;stroke-linejoin:round;stroke-opacity:1;paint-order:stroke fill markers;stop-color:#000" d="M8.08 2.994 8 3.061V13c1.196 0 2.212-.387 2.902-.99.69-.604 1.098-1.397 1.098-2.51 0-2.305-.864-4.095-3.92-6.506z"/></svg>