<svg width="16" height="16" viewBox="0 0 4.233 4.233" xmlns="http://www.w3.org/2000/svg"><path d="M1.843.265c-.125.263-.246.53-.364.801s-.238.556-.359.855A57.073 57.073 0 0 0 .36 3.97h.702l.15-.428c.053-.146.13-.349.18-.498h1.513c.05.15.125.35.179.493.053.142.105.287.155.433h.728c-.14-.396-.273-.76-.402-1.096a36.399 36.399 0 0 0-.369-.952A26.193 26.193 0 0 0 2.48.265zm.32.716c.08.182.172.41.279.684.091.235.187.494.284.76H1.601A22.84 22.84 0 0 1 2.164.98z" fill="gray" style="font-variant-ligatures:normal;font-variant-caps:normal;font-variant-numeric:normal;font-feature-settings:normal;stroke-width:.30868"/></svg>