<svg height="16" width="16" xmlns="http://www.w3.org/2000/svg"><path style="color:#000;fill:gray;-inkscape-stroke:none" d="M11.992 0c-1 0-1.294-.037-1.973.303-.34.17-.63.462-.797.838-.166.375-.23.817-.23 1.359v2c0 .542.064.984.23 1.36.167.375.458.668.797.837.68.34.973.303 1.973.303h1c1 0 1.302.037 1.981-.303.34-.17.63-.462.797-.838.166-.375.23-.817.23-1.359v-2c0-.542-.064-.984-.23-1.36a1.72 1.72 0 0 0-.797-.837c-.68-.34-.981-.303-1.981-.303zm0 1h1c1 0 1.214.037 1.535.197.16.08.245.163.328.35.084.187.145.495.145.953v1c0 .458-.061.766-.145.953a.615.615 0 0 1-.328.35c-.32.16-.535.197-1.535.197h-1c-1 0-1.206-.037-1.527-.197a.615.615 0 0 1-.328-.35c-.085-.187-.145-.495-.145-.953v-1c0-.458.061-.766.145-.953a.615.615 0 0 1 .328-.35c.32-.16.527-.197 1.527-.197z" fill-opacity=".5"/><path style="color:#000;fill:gray;-inkscape-stroke:none" d="M4.5 8c-1 0-1.794-.037-2.473.303-.34.17-.63.462-.797.838-.166.375-.23.817-.23 1.359v2c0 .542.064.984.23 1.36.167.375.458.668.797.837.68.34 1.473.303 2.473.303h5c1 0 1.794.037 2.473-.303.34-.17.63-.462.797-.838.166-.375.23-.817.23-1.359v-2c0-.542-.064-.984-.23-1.36C12.064 7.92 10.589 7.999 9.5 8zm0 1h5c1 0 1.706.037 2.027.197.16.08.245.163.328.35.084.187.145.495.145.953v1c0 .458-.061.766-.145.953a.615.615 0 0 1-.328.35c-.32.16-1.027.197-2.027.197h-5c-1 0-1.706-.037-2.027-.197a.615.615 0 0 1-.328-.35C2.06 12.266 2 11.958 2 11.5v-1c0-.458.061-.766.145-.953a.615.615 0 0 1 .328-.35C2.793 9.037 3.5 9 4.5 9zM4 1c-1 0-1.294-.037-1.973.303-.34.17-.63.462-.797.838C1.064 2.516 1 2.958 1 3.5v1c0 .542.064.984.23 1.36.167.375.458.668.797.837C2.707 7.037 3 7 4 7h1c1 0 1.302.037 1.98-.303.34-.17.63-.462.798-.838.166-.375.23-.817.23-1.359v-1c0-.542-.064-.984-.23-1.36a1.72 1.72 0 0 0-.797-.837C6.3.963 6 1 5 1zm0 1h1c1 0 1.214.037 1.535.197.16.08.245.163.328.35.084.187.145.495.145.953v1c0 .458-.061.766-.145.953a.615.615 0 0 1-.328.35C6.215 5.963 6 6 5 6H4c-1 0-1.206-.037-1.527-.197a.615.615 0 0 1-.328-.35C2.06 5.266 2 4.958 2 4.5v-1c0-.458.061-.766.145-.953a.615.615 0 0 1 .328-.35C2.793 2.037 3 2 4 2z"/></svg>