<?xml version="1.0" encoding="UTF-8" standalone="no"?>
<svg
   height="16"
   width="16"
   version="1.1"
   id="svg2"
   sodipodi:docname="accessibility-sticky-keys-symbolic.svg"
   inkscape:version="1.4.3 (fcd0343856, 2026-01-01)"
   xmlns:inkscape="http://www.inkscape.org/namespaces/inkscape"
   xmlns:sodipodi="http://sodipodi.sourceforge.net/DTD/sodipodi-0.dtd"
   xmlns="http://www.w3.org/2000/svg"
   xmlns:svg="http://www.w3.org/2000/svg">
  <defs
     id="defs2" />
  <sodipodi:namedview
     id="namedview2"
     pagecolor="#ffffff"
     bordercolor="#666666"
     borderopacity="1.0"
     inkscape:showpageshadow="2"
     inkscape:pageopacity="0.0"
     inkscape:pagecheckerboard="0"
     inkscape:deskcolor="#d1d1d1"
     inkscape:zoom="32"
     inkscape:cx="0.546875"
     inkscape:cy="12.03125"
     inkscape:window-width="2126"
     inkscape:window-height="1164"
     inkscape:window-x="0"
     inkscape:window-y="0"
     inkscape:window-maximized="1"
     inkscape:current-layer="svg2" />
  <path
     style="color:#000000;fill:#808080;fill-opacity:1;stroke-width:1;-inkscape-stroke:none"
     d="m 6.8548278,0.00270109 c -2.2849428,0 -2.9567159,-0.08454246 -4.5081919,0.69233756 C 1.5697554,1.0834789 0.90712217,1.7506821 0.52553672,2.6098205 0.14623634,3.4666739 0,4.4766185 0,5.7150574 v 4.5698856 c 0,1.238439 0.14623634,2.248384 0.52553672,3.107522 0.38158545,0.856853 1.04650378,1.526341 1.82109918,1.912497 1.5537608,0.77688 2.2232491,0.692336 4.5081919,0.692336 H 9.13977 c 2.284943,0 2.974995,0.08454 4.526472,-0.692336 0.77688,-0.388441 1.439513,-1.055644 1.821098,-1.914783 0.3793,-0.856852 0.525537,-1.866797 0.525537,-3.105236 V 5.7150574 c 0,-1.2384389 -0.146237,-2.2483835 -0.525537,-3.1075218 A 3.930101,3.930101 0 0 0 13.666242,0.69503865 C 12.11248,-0.08184175 11.424713,0.00270109 9.13977,0.00270109 Z m 0,2.28494251 H 9.13977 c 2.284943,0 2.773921,0.084542 3.507387,0.4501336 0.365591,0.1827954 0.559811,0.3724457 0.749461,0.7997299 0.191935,0.4272843 0.331316,1.1310465 0.331316,2.1775503 v 2.2849424 c 0,1.0465037 -0.139381,1.750266 -0.331316,2.1775502 a 1.4052396,1.4052396 0 0 1 -0.749461,0.79973 c -0.731181,0.365591 -1.222444,0.450134 -3.507387,0.450134 H 6.8548278 c -2.2849428,0 -2.755641,-0.08454 -3.4891075,-0.450134 A 1.4052396,1.4052396 0 0 1 2.6162592,10.17755 C 2.4220391,9.7502658 2.2849424,9.0465035 2.2849424,7.9999998 V 5.7150574 c 0,-1.0465038 0.1393815,-1.750266 0.3313168,-2.1775503 A 1.4052396,1.4052396 0 0 1 3.3657203,2.7377772 C 4.0969018,2.3721864 4.569885,2.2876436 6.8548278,2.2876436 Z"
     fill-opacity=".5"
     id="path1" />
  <path
     id="rect2"
     style="fill:#808080;stroke-width:0;stroke-linejoin:round;stroke-miterlimit:0"
     d="m 9.4695397,0.7071067 c 0.8137453,-0.0244338 1.6907323,0.9853702 2.5788903,0.9543344 1.00019,-0.034951 0.413725,1.1386136 -0.307975,1.6011185 -0.546268,0.3500782 -0.481308,1.4307382 -0.566609,1.8117151 -0.382485,1.7082799 -0.100884,2.6818028 -1.5496267,2.6818028 -1.448752,0 0.218786,-2.9865505 -1.4923698,-3.5827759 C 7.229232,3.8587988 6.7504822,3.8402735 5.810736,3.5858326 5.2731822,3.4402872 4.463079,2.966552 4.3981485,2.2972377 4.3197421,1.4890104 3.5116938,1.4750933 4.3117335,0.99209702 5.0526219,0.54481126 7.3368628,0.77114324 9.4695397,0.7071067 Z"
     sodipodi:nodetypes="ssssssssss" />
</svg>
