<svg height="16" width="16" xmlns="http://www.w3.org/2000/svg"><g style="display:inline"><path d="M515.805 487c-.537 0-.805 0-.805.625v.75c0 .625.268.625.805.625h.39c.537 0 .805 0 .805-.625v-.75c0-.603-.268-.625-.805-.625zm4 0c-.537 0-.805 0-.805.625v.75c0 .625.268.625.805.625h.39c.537 0 .805 0 .805-.625v-.75c0-.603-.268-.625-.805-.625zm4 0c-.537 0-.805 0-.805.625v.75c0 .625.268.625.805.625h.39c.537 0 .805 0 .805-.625v-.75c0-.603-.268-.625-.805-.625zm-8 4c-.537 0-.805 0-.805.625v.75c0 .625.268.625.805.625h.39c.537 0 .805 0 .805-.625v-.75c0-.603-.268-.625-.805-.625zm4 0c-.537 0-.805 0-.805.625v.75c0 .625.268.625.805.625h.39c.537 0 .805 0 .805-.625v-.75c0-.603-.268-.625-.805-.625zm-4 4c-.537 0-.805 0-.805.625v.75c0 .625.268.625.805.625h.39c.537 0 .805 0 .805-.625v-.75c0-.603-.268-.625-.805-.625zm4 0c-.537 0-.805 0-.805.625v.75c0 .625.268.625.805.625h.39c.537 0 .805 0 .805-.625v-.75c0-.603-.268-.625-.805-.625z" style="fill:gray" transform="translate(-513 -484)"/></g><g style="display:inline;fill:gray"><path style="color:#000;fill:gray;fill-rule:evenodd;stroke-width:2;-inkscape-stroke:none;paint-order:stroke fill markers" d="M123-365.5v10.527l3.029-3.027h4.282z" transform="translate(-90.944 306.959) scale(.82068)"/></g></svg>