<svg xmlns="http://www.w3.org/2000/svg" width="24" height="24"><path d="M16 0c-1.035 1.311-2.095 2.635-3.012 3.984a67.375 67.375 0 0 0-2.737 4.368C9.504 9.654 8.945 11.013 8.5 12c.446.987 1.005 2.346 1.75 3.648a67.785 67.785 0 0 0 2.738 4.368c.915 1.35 1.976 2.673 3.012 3.984v-2.235c-.6-.786-1.256-1.593-1.833-2.438a49.267 49.267 0 0 1-2.055-3.27 58.794 58.794 0 0 1-1.927-3.75v-.001L10.04 12l.145-.304c.5-1.065 1.277-2.621 1.927-3.752a49.77 49.77 0 0 1 2.055-3.271C14.745 3.83 15.4 3.023 16 2.235z" fill="gray" style="stroke-width:1"/></svg>