<?xml version="1.0" encoding="UTF-8"?>
<svg height="16px" viewBox="0 0 16 16" width="16px" xmlns="http://www.w3.org/2000/svg">
    <path d="m 8 5 c 1.652344 0 3 1.34375 3 3 s -1.347656 3 -3 3 c -1.65625 0 -3 -1.34375 -3 -3 s 1.34375 -3 3 -3 z m 0 0" fill="#2e3436"/>
    <path d="m 7.992188 0 c 4.40625 0 8 3.59375 8 8 s -3.59375 8 -8 8 s -8.0000005 -3.59375 -8.0000005 -8 s 3.5937505 -8 8.0000005 -8 z m 0 2 c -3.320313 0 -6 2.679688 -6 6 s 2.679687 6 6 6 c 3.320312 0 6 -2.679688 6 -6 s -2.679688 -6 -6 -6 z m 0 0" fill="#2e3435" fill-opacity="0.2"/>
</svg>
