<?xml version="1.0" encoding="UTF-8" standalone="no"?>
<svg
   height="20px"
   viewBox="0 0 20 20"
   width="20px"
   version="1.1"
   id="svg4"
   sodipodi:docname="pointer-double-click-symbolic.svg"
   inkscape:version="1.2 (1:1.2.1+202207142221+cd75a1ee6d)"
   xmlns:inkscape="http://www.inkscape.org/namespaces/inkscape"
   xmlns:sodipodi="http://sodipodi.sourceforge.net/DTD/sodipodi-0.dtd"
   xmlns="http://www.w3.org/2000/svg"
   xmlns:svg="http://www.w3.org/2000/svg">
  <defs
     id="defs8" />
  <sodipodi:namedview
     id="namedview6"
     pagecolor="#ffffff"
     bordercolor="#666666"
     borderopacity="1.0"
     inkscape:showpageshadow="2"
     inkscape:pageopacity="0.0"
     inkscape:pagecheckerboard="0"
     inkscape:deskcolor="#d1d1d1"
     showgrid="false"
     inkscape:zoom="11.8"
     inkscape:cx="9.9576271"
     inkscape:cy="10"
     inkscape:window-width="1920"
     inkscape:window-height="1043"
     inkscape:window-x="0"
     inkscape:window-y="0"
     inkscape:window-maximized="1"
     inkscape:current-layer="svg4" />
  <path
     d="m 1 0 v 19.707031 l 4.242188 -4.144531 c 0.589843 1.191406 1.160156 2.386719 1.761718 3.570312 c 1.105469 1.640626 4.15625 0.464844 3.898438 -1.496093 c 0.007812 -0.46875 -0.40625 -0.90625 -0.4375 -1.3125 l 0.78125 -0.761719 c 0.585937 1.191406 1.15625 2.386719 1.757812 3.570312 c 1.105469 1.640626 4.15625 0.464844 3.898438 -1.496093 c -0.195313 -0.902344 -0.71875 -1.695313 -1.070313 -2.546875 l -0.714843 -1.539063 h 4.828124 l -12.945312 -13.550781 v 6.242188 z m 1.5 3.726562 l 6 6.242188 v -6.242188 l 7.921875 8.324219 h -3.664063 c 0.886719 1.902344 1.785157 3.800781 2.65625 5.707031 c 0.007813 0.625 -1.226562 0.980469 -1.324218 0.207032 l -2.410156 -4.917969 l -3.0625 2.984375 c 0.261718 0.609375 0.597656 1.191406 0.816406 1.816406 c -0.183594 0.601563 -1.269532 0.835938 -1.367188 0.066406 l -2.386718 -4.867187 l -3.179688 3.101563 z m 0 0"
     fill="#241f31"
     id="path2"
     style="fill:#808080" />
</svg>
