<svg xmlns="http://www.w3.org/2000/svg" width="16" height="16"><path d="M3.012.965A2.009 2.009 0 0 0 1 2.977V4h1V3c0-.554.446-1 1-1h1V.965h-.988zm8.988 0V2h1c.554 0 1 .446 1 1v1h1V2.977A2.009 2.009 0 0 0 12.988.965H12zM8 6v.965c-1.108.006-2 .902-2 2.012v4.011C6 14.102 6.898 15 8.012 15h5.976A2.009 2.009 0 0 0 16 12.988V8.977a2.009 2.009 0 0 0-2.012-2.012H10V6H8zm0 2h6c.554 0 1 .446 1 1v4c0 .554-.446 1-1 1H8c-.554 0-1-.446-1-1V9c0-.554.446-1 1-1zM1 9v1.023a2.009 2.009 0 0 0 2.012 2.012H4V11H3c-.554 0-1-.446-1-1V9H1z" style="fill:gray"/><path d="M11 9a2 2 0 0 0-2 2 2 2 0 0 0 2 2 2 2 0 0 0 2-2 2 2 0 0 0-2-2zm0 1a1 1 0 0 1 1 1 1 1 0 0 1-1 1 1 1 0 0 1-1-1 1 1 0 0 1 1-1z" fill="gray" /></svg>