<svg xmlns="http://www.w3.org/2000/svg" width="32" height="32"><path fill="gray" d="M7.61 6C6.536 6 6 6 6 7.25v1.5C6 10 6.536 10 7.61 10h.78C9.464 10 10 10 10 8.75v-1.5C10 6.044 9.464 6 8.39 6zm8 0C14.536 6 14 6 14 7.25v1.5C14 10 14.536 10 15.61 10h.78C17.464 10 18 10 18 8.75v-1.5C18 6.044 17.464 6 16.39 6zm8 0C22.536 6 22 6 22 7.25v1.5C22 10 22.536 10 23.61 10h.78C25.464 10 26 10 26 8.75v-1.5C26 6.044 25.464 6 24.39 6zm-16 8C6.536 14 6 14 6 15.25v1.5C6 18 6.536 18 7.61 18h.78C9.464 18 10 18 10 16.75v-1.5C10 14.044 9.464 14 8.39 14zm8 0C14.536 14 14 14 14 15.25v1.5C14 18 14.536 18 15.61 18h.78c1.074 0 1.61 0 1.61-1.25v-1.5c0-1.206-.536-1.25-1.61-1.25zm8 0C22.536 14 22 14 22 15.25v1.5C22 18 22.536 18 23.61 18h.78c1.074 0 1.61 0 1.61-1.25v-1.5c0-1.206-.536-1.25-1.61-1.25zm-16 8C6.536 22 6 22 6 23.25v1.5C6 26 6.536 26 7.61 26h.78C9.464 26 10 26 10 24.75v-1.5C10 22.044 9.464 22 8.39 22zm8 0C14.536 22 14 22 14 23.25v1.5C14 26 14.536 26 15.61 26h.78c1.074 0 1.61 0 1.61-1.25v-1.5c0-1.206-.536-1.25-1.61-1.25zm8 0C22.536 22 22 22 22 23.25v1.5C22 26 22.536 26 23.61 26h.78c1.074 0 1.61 0 1.61-1.25v-1.5c0-1.206-.536-1.25-1.61-1.25z" /></svg>