<svg xmlns="http://www.w3.org/2000/svg" width="32" height="32">
    <g style="fill:gray;fill-opacity:1;opacity:.5">
        <path fill-opacity=".2"
            d="M4.75 8h1.5a.75.75 0 0 1 .75.75v1.5a.75.75 0 0 1-.75.75h-1.5a.75.75 0 0 1-.75-.75v-1.5A.75.75 0 0 1 4.75 8zm0 4h1.5a.75.75 0 0 1 .75.75v1.5a.75.75 0 0 1-.75.75h-1.5a.75.75 0 0 1-.75-.75v-1.5a.75.75 0 0 1 .75-.75zm0 4h1.5a.75.75 0 0 1 .75.75v1.5a.75.75 0 0 1-.75.75h-1.5a.75.75 0 0 1-.75-.75v-1.5a.75.75 0 0 1 .75-.75zm0 0"
            style="fill:gray;fill-opacity:1" transform="translate(-1)" />
    </g>
    <path
        d="M2.5 3A2.506 2.506 0 0 0 0 5.5v20C0 26.876 1.124 28 2.5 28h27c1.376 0 2.5-1.124 2.5-2.5v-20C32 4.124 30.876 3 29.5 3h-27zM1 6h30v19.5c0 .84-.66 1.5-1.5 1.5h-27c-.84 0-1.5-.66-1.5-1.5V6z"
        style="fill:gray" />
</svg>