<svg height="16" width="16" xmlns="http://www.w3.org/2000/svg">
    <g transform="translate(-312 -120)" fill="gray">
        <path d="M315.994 120c-1.258.015-2.179-.03-2.932.385a1.88 1.88 0 0 0-.837.998c-.165.438-.225.96-.225 1.617v6c0 .658.06 1.179.225 1.617.164.439.461.79.837.998.753.416 1.674.37 2.932.385H324.006c1.258-.015 2.179.03 2.932-.385a1.88 1.88 0 0 0 .838-.998c.164-.438.224-.96.224-1.617v-6c0-.658-.06-1.179-.225-1.617a1.88 1.88 0 0 0-.837-.998c-.753-.416-1.674-.37-2.932-.385h-8.008zm.006 1h8c1.259.015 2.087.06 2.453.262.184.1.29.212.387.472.097.26.16.674.16 1.266v6c0 .592-.063 1.006-.16 1.266-.098.26-.203.371-.387.472-.366.202-1.194.247-2.453.262h-8c-1.259-.015-2.09-.06-2.455-.262-.183-.1-.287-.212-.385-.472-.097-.26-.16-.674-.16-1.266v-6c0-.592.063-1.006.16-1.266.098-.26.202-.371.385-.472.366-.202 1.196-.247 2.455-.262z" style="line-height:normal;font-variant-ligatures:normal;font-variant-position:normal;font-variant-caps:normal;font-variant-numeric:normal;font-variant-alternates:normal;font-feature-settings:normal;text-indent:0;text-align:start;text-decoration-line:none;text-decoration-style:solid;text-decoration-color:#000;text-transform:none;text-orientation:mixed;shape-padding:0;isolation:auto;mix-blend-mode:normal;marker:none" color="#000" font-weight="400" font-family="sans-serif" white-space="normal" overflow="visible"/>
        <rect height="1" width="4" x="318" y="132"/>
        <path d="M312 135l3-1h10l3 1v1h-16z"/>
    </g>
</svg>
