<svg version="1.1" viewBox="0 0 16 16" xmlns="http://www.w3.org/2000/svg">
 <g fill="#808080">
  <path d="m8 1 3.5 4h2.629s0.871 0.894 0.871 3.002-0.871 2.998-0.871 2.998h-2.629l-3.5 4z"/>
  <path d="m5.476 4.926 0.707 0.707-0.354 0.354a2.999 2.999 0 0 0 0 4.242l0.354 0.353-0.707 0.707-0.354-0.353a4 4 0 0 1 0-5.656z" font-family="sans-serif" font-weight="400" overflow="visible" style="font-feature-settings:normal;font-variant-alternates:normal;font-variant-caps:normal;font-variant-ligatures:normal;font-variant-numeric:normal;font-variant-position:normal;isolation:auto;mix-blend-mode:normal;shape-padding:0;text-decoration-color:#000000;text-decoration-line:none;text-decoration-style:solid;text-indent:0;text-orientation:mixed;text-transform:none" white-space="normal"/>
  <path d="m3.355 2.805 0.707 0.707-0.354 0.353a5.999 5.999 0 0 0 0 8.485l0.354 0.353-0.707 0.707-0.354-0.353a7 7 0 0 1 0-9.899z" font-family="sans-serif" font-weight="400" overflow="visible" style="font-feature-settings:normal;font-variant-alternates:normal;font-variant-caps:normal;font-variant-ligatures:normal;font-variant-numeric:normal;font-variant-position:normal;isolation:auto;mix-blend-mode:normal;shape-padding:0;text-decoration-color:#000000;text-decoration-line:none;text-decoration-style:solid;text-indent:0;text-orientation:mixed;text-transform:none" white-space="normal"/>
 </g>
</svg>
