<svg version="1.1" viewBox="0 0 16 16.021" xmlns="http://www.w3.org/2000/svg" xmlns:osb="http://www.openswatchbook.org/uri/2009/osb">
 <g transform="translate(-632 -39.979)" fill="#808080">
  <path d="m639.5 39.979c-1.4118 0-2.5 0.84433-2.5 2.543v2.3301 1.0606 2.543c0 1.6986 1.0882 2.5449 2.5 2.5449s2.5-0.84901 2.5-2.5449v-2.543-1.0606-2.3301c0-1.6959-1.0882-2.543-2.5-2.543z" color="#000000"/>
  <rect x="639" y="51.5" width=".99997" height="4" color="#000000"/>
  <path d="m639.5 55c-0.83331 0-1.6683 0.15904-2.5 0.45833v0.54166h5v-0.54166c-0.83348-0.29292-1.6667-0.45833-2.5-0.45833z"/>
  <path d="m635 47v1.5c0 2.493 2.007 4.5 4.5 4.5s4.5-2.007 4.5-4.5v-1.5h-1v1.5c0 1.939-1.561 3.5-3.5 3.5s-3.5-1.561-3.5-3.5v-1.5z"/>
 </g>
</svg>
