<svg version="1.1" viewBox="0 0 16 16" xmlns="http://www.w3.org/2000/svg">
 <rect transform="rotate(90)" y="-16" width="16" height="16" color="#000000" fill="none"/>
 <path d="m5.6621 0c-0.8388 0.0097-1.4513-0.019073-1.9531 0.25781-0.25092 0.13844-0.45077 0.37162-0.56055 0.66406s-0.14844 0.63972-0.14844 1.0781v12c0 0.4384 0.038664 0.78568 0.14844 1.0781 0.10978 0.29244 0.30963 0.52562 0.56055 0.66406 0.50183 0.27688 1.1143 0.24812 1.9531 0.25781h5.6758c0.83879-0.0097 1.4513 0.01907 1.9531-0.25781 0.25092-0.13844 0.45077-0.37162 0.56055-0.66406 0.10974-0.29244 0.13665-0.63988 0.14844-1.0781v-11.139l-2.8613-2.8613h-5.4746zm-0.017578 1h5.1816l2.1738 2.2012v10.465c-1e-6 0.39493-0.04238 0.67048-0.10742 0.84375s-0.13359 0.24894-0.25586 0.31641c-0.24409 0.13467-0.50014 0.16404-1.3398 0.17383h-5.6523c-0.83971-0.0098-1.0372-0.03915-1.2812-0.17383-0.12227-0.06746-0.19082-0.14314-0.25586-0.31641s-0.10742-0.44882-0.10742-0.84375v-11.332c0-0.39493 0.042376-0.67048 0.10742-0.84375 0.06504-0.17327 0.13359-0.24894 0.25586-0.31641 0.24409-0.13467 0.44154-0.16403 1.2813-0.17383zm0.35547 6c-0.554 0-1 0.446-1 1v5c0 0.554 0.446 1 1 1h5c0.554 0 1-0.446 1-1v-5c0-0.554-0.446-1-1-1zm0.71484 1h0.28516v1h-1v-0.28516c0-0.39571 0.31913-0.71484 0.71484-0.71484zm1.2852 0h1v1h-1zm2 0h0.28516c0.39572 0 0.71484 0.31913 0.71484 0.71484v2.2852h-5v-1h4v-1zm-4 4h1v1h-0.28516c-0.39572 0-0.71484-0.31913-0.71484-0.71484zm2 0h1v1h-1zm2 0h1v0.28516c0 0.39572-0.31913 0.71484-0.71484 0.71484h-0.28516z" color="#000000" color-rendering="auto" fill="#808080" image-rendering="auto" shape-rendering="auto" solid-color="#000000" style="isolation:auto;mix-blend-mode:normal;text-decoration-color:#000000;text-decoration-line:none;text-decoration-style:solid;text-indent:0;text-transform:none;white-space:normal"/>
</svg>
