<svg viewBox="0 0 16 16" xmlns="http://www.w3.org/2000/svg">
 <path d="M4.994 1c-1.258.015-2.178-.03-2.931.385a1.88 1.88 0 0 0-.838.998C1.06 2.82 1 3.343 1 4v7h14V4c0-.658-.06-1.18-.225-1.617a1.88 1.88 0 0 0-.838-.998c-.752-.416-1.673-.37-2.931-.385H4.998ZM5 2h6c1.259.015 2.087.06 2.453.262.184.1.29.212.387.472.097.26.16.674.16 1.266v6H2V4c0-.592.063-1.006.16-1.266.098-.26.202-.371.385-.472C2.91 2.06 3.74 2.015 5 2ZM0 12c0 1.108.892 2 2 2h12c1.108 0 2-.892 2-2Z" fill="gray" style="font-feature-settings:normal;font-variant-alternates:normal;font-variant-caps:normal;font-variant-ligatures:normal;font-variant-numeric:normal;font-variant-position:normal;isolation:auto;mix-blend-mode:normal;shape-padding:0;text-decoration-color:#000;text-decoration-line:none;text-decoration-style:solid;text-indent:0;text-orientation:mixed;text-transform:none"/>
</svg>
