<svg xmlns="http://www.w3.org/2000/svg" viewBox="0 0 16 16"><path fill="gray" d="M3.994 1c-1.258.015-2.179-.03-2.931.387a1.878 1.878 0 0 0-.84.996C.059 2.82 0 3.343 0 4v8c0 .658.058 1.18.223 1.617.164.44.463.79.84.998.525.29 1.188.342 1.937.36L4 15v-1l-1-.04c-.666-.03-1.204-.084-1.453-.222-.184-.1-.29-.212-.387-.472C1.063 13.006 1 12.592 1 12V4c0-.592.063-1.006.16-1.266.098-.26.203-.371.387-.472.367-.203 1.195-.247 2.459-.262h2.53l2.02 2h3.436c1.264.015 2.091.06 2.46.262.182.1.288.212.386.472.098.26.162.674.162 1.266v6h1V6c0-.658-.06-1.18-.225-1.617a1.88 1.88 0 0 0-.838-.998c-.752-.416-1.673-.37-2.931-.385h-3.04l-2.02-2H3.993zM9 5c-2.755 0-5 2.245-5 5s2.245 5 5 5c1.198 0 2.3-.425 3.162-1.13l1.984 1.984.708-.708-1.985-1.984A4.977 4.977 0 0 0 14 10c0-2.755-2.245-5-5-5zm0 1.04A3.954 3.954 0 0 1 12.96 10 3.954 3.954 0 0 1 9 13.96 3.954 3.954 0 0 1 5.04 10 3.954 3.954 0 0 1 9 6.04z" font-family="sans-serif" font-weight="400" style="font-feature-settings:normal;font-variant-alternates:normal;font-variant-caps:normal;font-variant-ligatures:none;font-variant-numeric:normal;font-variant-position:normal;isolation:auto;mix-blend-mode:normal;shape-padding:0;text-decoration-color:#000;text-decoration-line:none;text-decoration-style:solid;text-indent:0;text-transform:none"/></svg>