<svg version="1.1" viewBox="0 0 16 16" xmlns="http://www.w3.org/2000/svg">
 <style></style>
 <style>@import '../../highlights.css';</style>
 <path d="m0 0h16v16h-16z" opacity="0"/>
 <path d="m1 1v2h1v-1h1v-1zm3 0v1h2v-1zm3 0v1h2v-1zm3 0v1h2v-1zm3 0v1h0.99984l1.6e-4 1h1l-1.6e-4 -2zm-12 3v2h1v-2zm13 0v2h1v-2zm-13 3v2h1v-2zm13 0v2h1v-2zm-13 3v2h1v-2zm13 0v2h1v-2zm-13 3v1.9998l2 1.6e-4v-1l-1-1.6e-4v-0.99984zm13 0-1.6e-4 0.99984-0.99984 1.6e-4v1l1.9998-1.6e-4 1.6e-4 -1.9998zm-10 1v1h2v-1zm3 0v1h2v-1zm3 0v1h2v-1z"/>
 <path d="m-15.767-0.4296h16v16h-16z" opacity="0"/>
 <path d="m4 4h7.9999v7.9999h-7.9999z"/>
</svg>
