<svg version="1.1" viewBox="0 0 16 16" xmlns="http://www.w3.org/2000/svg">
 <style/>
 <style>@import '../../highlights.css';</style>
 <g transform="matrix(0 .66667 -.66667 0 412.91 -746.67)">
  <path d="m1132 617.86v-22.5h-1.5v22.5zm8.6894-3c1.2083 0 1.8106 0 1.8106-1.4062v-1.6875c0-1.4063-0.6023-1.4063-1.8106-1.4063h-7.1894v4.5zm-11.689 0v-4.5h-7.1895c-1.2083 0-1.8105 0-1.8105 1.4063v1.6875c0 1.4062 0.6022 1.4062 1.8105 1.4062zm8.6895-6c1.2082 0 1.8105 0 1.8105-1.4062v-1.6875c0-1.4063-0.6023-1.4063-1.8105-1.4063h-4.1895v4.5zm-8.6895 0v-4.5h-4.1895c-1.2082 0-1.8105 0-1.8105 1.4063v1.6875c0 1.4062 0.6023 1.4062 1.8105 1.4062zm11.689-6c1.2083 0 1.8106 0 1.8106-1.4062v-1.6875c0-1.4063-0.6023-1.4063-1.8106-1.4063h-7.1894v4.5zm-11.689 0v-4.5h-7.1895c-1.2083 0-1.8105 0-1.8105 1.4063v1.6875c0 1.4062 0.6022 1.4062 1.8105 1.4062z" fill="#808080" stroke-width="3.375"/>
 </g>
</svg>
