<svg version="1.1" viewBox="0 0 16 16" xmlns="http://www.w3.org/2000/svg">
 <style/>
 <style>@import '../../highlights.css';</style>
 <path d="m8 0v15h1v-15zm-5.793 2c-0.80553 2e-5 -1.207-5.7e-6 -1.207 0.9375v1.125c0 0.9375 0.4015 0.93752 1.207 0.9375h4.793v-3zm7.793 0v3h4.793c0.80553 2e-5 1.207-9e-7 1.207-0.9375v-1.125c0-0.93751-0.4015-0.93748-1.207-0.9375zm-5.793 4c-0.80553 2e-5 -1.207-5.7e-6 -1.207 0.9375v1.125c0 0.9375 0.4015 0.93752 1.207 0.9375h2.793v-3zm5.793 0v3h2.793c0.80553 2e-5 1.207-9e-7 1.207-0.9375v-1.125c0-0.93751-0.4015-0.93748-1.207-0.9375zm-7.793 4c-0.80553 2e-5 -1.207-5.8e-6 -1.207 0.9375v1.125c0 0.9375 0.4015 0.93752 1.207 0.9375h4.793v-3zm7.793 0v3h4.793c0.80553 2e-5 1.207-1e-6 1.207-0.9375v-1.125c0-0.93751-0.4015-0.93748-1.207-0.9375z" fill="#808080" stroke-width="2.25"/>
</svg>
