<svg version="1.1" viewBox="0 0 16 16" xmlns="http://www.w3.org/2000/svg">
 <style/>
 <style>@import '../../highlights.css';</style>
 <path d="m15 0v15h1v-15zm-6.793 2c-0.80553 2e-5 -1.207-5.7e-6 -1.207 0.9375v1.125c0 0.9375 0.4015 0.93752 1.207 0.9375h5.793v-3zm3 4c-0.80553 2e-5 -1.207-5.7e-6 -1.207 0.9375v1.125c0 0.9375 0.4015 0.93752 1.207 0.9375h2.793v-3zm-2 4c-0.80553 2e-5 -1.207-5.7e-6 -1.207 0.9375v1.125c0 0.9375 0.4015 0.93752 1.207 0.9375h4.793v-3z" fill="#808080" stroke-width="3.375"/>
</svg>
