<svg version="1.1" viewBox="0 0 16 16" xmlns="http://www.w3.org/2000/svg">
 <style></style>
 <style>@import '../../highlights.css';</style>
 <g transform="matrix(.66667 0 0 .66667 -696 -446.91)">
  <g transform="matrix(-1 0 0 .99792 1039.2 589.84)">
   <path transform="matrix(0,1,1,0,0,0)" d="m80.686-28.803h24.05v24h-24.05z" opacity="0"/>
   <path d="m-12.1 90.055c-0.55928-0.82792-2.0154-0.40528-2.6061 0.3373-0.92496 1.1628-1.2366 2.6103-1.5643 3.9886-0.27737 1.1668-0.41943 2.3608-0.48485 3.5548-0.76289-1.5099-1.6332-3.1319-1.6578-4.8321-0.01245-0.8596 0.49778-1.587 0.84118-2.3479 0.28711-0.63615-0.48973-1.262-1.1734-1.0955-0.81637 0.1988-0.96615 1.0707-0.93835 1.7231 0.08272 1.941 0.85523 3.8593 1.6882 5.6203 1.1142 2.3556 2.76 4.5348 4.9124 6.1629 0.82543 0.62438 3.0003 1.3919 4.0155 0.94067 1.9754-0.87808 1.9351-2.8461 0-2.8894-0.96181-0.0215-2.457 1.1923-3.1696 1.1799-1.1756-0.0205-2.0524-1.0056-2.3313-1.9784-0.36134-1.2607-0.04839-2.5893 0.17846-3.8521 0.29692-1.6529 0.77898-3.2807 1.545-4.8193 0.26949-0.54125 1.1954-1.0261 0.74499-1.6929z"/>
   <path d="m-14.623 85.583c0.27009 0.16864 0.40513 0.41714 0.40513 0.74553 0 0.30176-0.10851 0.53918-0.32554 0.71225-0.22186 0.16864-0.52811 0.25296-0.91876 0.25296-0.4871 0-0.89705-0.15976-1.2298-0.47927-0.33277-0.32395-0.49916-0.72778-0.49917-1.2115v-0.27292h1.3456c0.54017 0 0.94771 0.08432 1.2226 0.25295zm-5.1798 3.1019h2.6116v-1.105c0.34725 0.45265 0.73791 0.78326 1.172 0.99182 0.43407 0.20414 0.96218 0.3062 1.5843 0.3062 0.83918 0 1.5216-0.2241 2.0473-0.67231 0.52088-0.45264 0.78131-1.0384 0.78131-1.7573 0-0.87422-0.32555-1.5155-0.97663-1.9237-0.65592-0.40826-1.6832-0.61239-3.0818-0.6124h-1.5264v-0.18638c1e-5 -0.37719 0.16158-0.65233 0.4847-0.82541 0.32314-0.1775 0.82713-0.26626 1.512-0.26626 0.55464 0 1.0707 0.05103 1.5482 0.1531 0.47746 0.10207 0.92116 0.25517 1.3311 0.4593v-1.8172c-0.55464-0.12426-1.1117-0.21744-1.6711-0.27958-0.55945-0.06655-1.1189-0.09983-1.6784-0.09984-1.4613 9e-6 -2.5151 0.26627-3.1614 0.79878-0.65107 0.52809-0.97662 1.389-0.97663 2.5827z"/>
  </g>
  <path d="m1048.5 670.36h1.5v24h-1.5z" stroke-width=".82916"/>
 </g>
</svg>
