<svg version="1.1" viewBox="0 0 16 16" xml:space="preserve" xmlns="http://www.w3.org/2000/svg"><path d="m8 0.5c-4.1344 0-7.5 3.3656-7.5 7.5-1.1e-7 4.1344 3.3656 7.5 7.5 7.5 0.67025 0 1.2247-0.17974 1.6094-0.52539 0.38463-0.34565 0.55242-0.82728 0.55664-1.2578 0.0071-0.72156-0.48394-1.2156-0.75-1.4375-0.13303-0.11097-0.20965-0.18671-0.24219-0.22656-0.19328-0.23674 0.099752-0.43716 0.21094-0.49219 0.20572-0.10182 0.59967-0.13477 0.94531-0.13477 1.5362 0 2.8216-0.41124 3.7383-1.1641 0.91668-0.75283 1.4316-1.855 1.4316-3.0625 0-3.9857-3.6761-6.6992-7.5-6.6992zm0 1.3008c3.2169 0 6.1992 2.2181 6.1992 5.3984 0 0.85478-0.324 1.5387-0.95703 2.0586-0.63304 0.51988-1.6068 0.86719-2.9121 0.86719-0.4169 0-0.9427 0.01824-1.459 0.24023-0.51629 0.222-1.0234 0.79675-1.0332 1.5273-0.00471 0.35217 0.11409 0.68236 0.27734 0.91211 0.16326 0.22975 0.34213 0.36899 0.46875 0.47461 0.25324 0.21124 0.2888 0.27386 0.28125 0.42578-0.00132 0.13408-0.032836 0.21991-0.125 0.30273-0.092164 0.082824-0.29277 0.19141-0.74023 0.19141-3.4319 0-6.1992-2.7674-6.1992-6.1992 0-3.4319 2.7674-6.1992 6.1992-6.1992zm0.21094 0.86719c-0.70277-5.737e-4 -1.2729 0.56871-1.2734 1.2715-5.743e-4 0.70354 0.5699 1.274 1.2734 1.2734 0.70278-5.05e-4 1.2721-0.57066 1.2715-1.2734-5.046e-4 -0.70201-0.56947-1.271-1.2715-1.2715zm-3.2363 1.5371c-0.70354-5.743e-4 -1.274 0.5699-1.2734 1.2734 5.05e-4 0.70278 0.57066 1.2721 1.2734 1.2715 0.70201-5.045e-4 1.271-0.56947 1.2715-1.2715 5.737e-4 -0.70278-0.56871-1.2729-1.2715-1.2734zm6.3105 0.09375c-0.70278 5.053e-4 -1.2721 0.57066-1.2715 1.2734 5.05e-4 0.70201 0.56947 1.271 1.2715 1.2715 0.70278 5.739e-4 1.2729-0.56871 1.2734-1.2715 5.74e-4 -0.70354-0.5699-1.274-1.2734-1.2734zm-7.1621 3.2344c-0.70278 5.05e-4 -1.2721 0.57066-1.2715 1.2734 5.045e-4 0.70201 0.56947 1.271 1.2715 1.2715 0.70278 5.74e-4 1.2729-0.56871 1.2734-1.2715 5.743e-4 -0.70354-0.5699-1.274-1.2734-1.2734z" color="#000000" stroke-miterlimit="7" style="-inkscape-stroke:none"/></svg>
