<svg version="1.1" viewBox="0 0 16 16" xmlns="http://www.w3.org/2000/svg">
 <g transform="matrix(.66667 0 0 .66667 -190 -619.57)">
  <g transform="matrix(1.5 0 0 1.4959 13.5 664.59)">
   <path transform="translate(241 217)" d="m-60-40h16v16h-16z" opacity="0"/>
   <path d="m191.61 182.4-4.2202 5.6634-1.6941 1.4926-0.6977-0.5607 0.9963-2.0533 4.2202-5.6634z"/>
   <path d="m185 189.57s-1.4772 0.6685-1.4654 2.0797c0.0147 1.758 2.6601 1.8435 2.7433 0.2845 0.0475-0.891-1.2779-2.3642-1.2779-2.3642z"/>
   <path d="m187.65 181.43 4.6492 3.5274 0.7045-0.9258-1.3947-1.0581c2.8037-0.7933 4.7199-4.1749 2.8602-5.5859-1.8596-1.4109-4.7057 1.2652-4.7199 4.1749l-1.3948-1.0582z"/>
  </g>
 </g>
</svg>
