<svg version="1.1" viewBox="0 0 16 16" xmlns="http://www.w3.org/2000/svg">
 <path d="m0 0h16v16h-16z" opacity="0"/>
 <path d="m7.5461 0c0.23436 0.078768 0.46865 0.15751 0.69961 0.24063m0.6884 0.27069c0.22844 0.099804 0.44978 0.20905 0.66038 0.33259m0.6042 0.42535c0.02499 0.021271 0.04971 0.042893 0.07417 0.064877 0.15739 0.14149 0.30357 0.29797 0.43934 0.46625m0.41989 0.60838c0.12483 0.21017 0.23811 0.43032 0.3409 0.65621m0.27635 0.68606c0.02965 0.083253 0.05809 0.1667 0.08538 0.25015 0.04969 0.15195 0.09555 0.30389 0.14018 0.45438m0.21599 0.70753c0.08038 0.24151 0.16912 0.47204 0.27889 0.68443m0.42864 0.59933c0.0488 0.048456 0.10051 0.09474 0.15544 0.13868 0.13262 0.10608 0.28395 0.1985 0.45059 0.27973m0.69249 0.25776c0.22749 0.065031 0.4693 0.11958 0.72042 0.16733m0.73002 0.11982c0.24185 0.034936 0.48753 0.067054 0.73317 0.099167" color="#000000" color-rendering="auto" dominant-baseline="auto" fill="#b3b3b3" image-rendering="auto" shape-rendering="auto" solid-color="#000000" stop-color="#000000" style="font-feature-settings:normal;font-variant-alternates:normal;font-variant-caps:normal;font-variant-east-asian:normal;font-variant-ligatures:normal;font-variant-numeric:normal;font-variant-position:normal;font-variation-settings:normal;inline-size:0;isolation:auto;mix-blend-mode:normal;shape-margin:0;shape-padding:0;text-decoration-color:#000000;text-decoration-line:none;text-decoration-style:solid;text-indent:0;text-orientation:mixed;text-transform:none;white-space:normal"/>
 <path d="m0.86328 6.332-0.25586 0.75781c0.23436 0.078768 0.46581 0.15709 0.69141 0.23828l0.27148-0.75195c-0.23632-0.085044-0.47267-0.16537-0.70703-0.24414zm1.4199 0.52344-0.32031 0.73242c0.21717 0.09488 0.42527 0.19877 0.61914 0.3125l0.4043-0.69141c-0.22734-0.13336-0.46341-0.24879-0.70312-0.35352zm1.3633 0.82031-0.51758 0.60938c0.022253 0.018941 0.044618 0.037058 0.066406 0.056641 0.13993 0.1258 0.27078 0.26654 0.39453 0.41992l0.62305-0.50195c-0.14778-0.18317-0.30757-0.35453-0.48242-0.51172-0.02713-0.024385-0.05626-0.048665-0.08399-0.072266zm1.0195 1.2402-0.6875 0.4082c0.11646 0.19608 0.22283 0.40296 0.32031 0.61719l0.72852-0.33203c-0.1081-0.23754-0.22813-0.46909-0.36133-0.69336zm0.65039 1.4121-0.75391 0.26758c0.02843 0.07983 0.05577 0.15994 0.08203 0.24024 0.0478 0.14617 0.09246 0.29412 0.13672 0.44336l0.76758-0.22656c-0.045-0.15174-0.09295-0.30713-0.14453-0.46484-0.02832-0.0866-0.05702-0.17309-0.08789-0.25977zm0.44336 1.4199-0.75976 0.25195c0.08415 0.25284 0.18108 0.50303 0.30469 0.74219l0.70898-0.36719c-0.095936-0.18561-0.1773-0.39677-0.25391-0.62695zm0.60938 1.125-0.5625 0.56836c0.05869 0.05828 0.1212 0.11494 0.1875 0.16797 0.16003 0.12801 0.33708 0.23437 0.52539 0.32617l0.34961-0.71875c-0.14497-0.07067-0.2698-0.14827-0.375-0.23242-0.04356-0.03484-0.08609-0.07269-0.125-0.11133zm1.127 0.57617-0.21875 0.76953c0.24267 0.06937 0.49415 0.1264 0.75391 0.17578l0.15039-0.78711c-0.24248-0.0461-0.47325-0.09751-0.68555-0.1582zm1.3984 0.27539-0.11523 0.79297c0.24546 0.03546 0.49264 0.0675 0.73828 0.09961l0.10352-0.79297c-0.24564-0.03211-0.48831-0.06519-0.72656-0.099609z" opacity=".4"/>
 <path d="m5.8359 0.72266-0.25586 0.75781c0.23436 0.078768 0.46581 0.15709 0.69141 0.23828l0.27148-0.75195c-0.23632-0.085044-0.47267-0.16537-0.70703-0.24414zm1.4199 0.52344-0.32031 0.73242c0.21717 0.09488 0.42527 0.19877 0.61914 0.3125l0.4043-0.69141c-0.22734-0.13336-0.46341-0.24879-0.70312-0.35352zm1.3633 0.82031-0.51758 0.60938c0.022253 0.018941 0.044618 0.037058 0.066406 0.056641 0.13993 0.1258 0.27078 0.26654 0.39453 0.41992l0.62305-0.50195c-0.14778-0.18317-0.30757-0.35453-0.48242-0.51172-0.02713-0.024385-0.05626-0.048665-0.08399-0.072266zm1.0195 1.2402-0.6875 0.4082c0.11646 0.19608 0.22283 0.40296 0.32031 0.61719l0.72852-0.33203c-0.1081-0.23754-0.22813-0.46909-0.36133-0.69336zm0.65039 1.4121-0.75391 0.26758c0.02843 0.07983 0.05577 0.15994 0.08203 0.24024 0.0478 0.14617 0.09246 0.29412 0.13672 0.44336l0.76758-0.22656c-0.045-0.15174-0.09295-0.30713-0.14453-0.46484-0.02832-0.0866-0.05702-0.17309-0.08789-0.25977zm0.44336 1.4199-0.75976 0.25195c0.08415 0.25284 0.18108 0.50303 0.30469 0.74219l0.70898-0.36719c-0.09594-0.18561-0.1773-0.39677-0.25391-0.62695zm0.60938 1.125-0.5625 0.56836c0.05869 0.05828 0.1212 0.11494 0.1875 0.16797 0.16003 0.12801 0.33708 0.23437 0.52539 0.32617l0.34961-0.71875c-0.14497-0.07067-0.2698-0.14827-0.375-0.23242-0.04356-0.03484-0.08609-0.07269-0.125-0.11133zm1.127 0.57617-0.21875 0.76953c0.24267 0.06937 0.49415 0.1264 0.75391 0.17578l0.15039-0.78711c-0.24248-0.0461-0.47325-0.09751-0.68555-0.1582zm1.3984 0.27539-0.11523 0.79297c0.24546 0.03546 0.49264 0.0675 0.73828 0.09961l0.10352-0.79297c-0.24564-0.03211-0.48831-0.06519-0.72656-0.099609z" opacity=".4"/>
 <path transform="matrix(1.2217 0 0 1.0345 4.6813 5.8354)" d="m7.0859 3.1309c-0.41641 0.79469-0.82348 1.5648-1.3691 2.1621-0.54568 0.59732-1.2698 1.0669-2.0195 1.5488l0.33594 0.52539c0.74971-0.48196 1.5229-0.97598 2.1426-1.6543 0.61969-0.67834 1.0465-1.4983 1.4629-2.293zm-2.292-0.6137c-0.23117 0.64097-0.44595 1.2326-0.88729 1.8031-0.44136 0.57053-1.152 1.1589-1.8753 1.7521l0.32614 0.55697c0.72331-0.5932 1.4588-1.1897 1.9712-1.8522 0.51249-0.66248 0.76003-1.3528 0.99121-1.9938zm-1.129-1.7458c-0.39185 0.795-0.7777 1.5708-1.2246 2.1486-0.44692 0.57779-0.98652 1.0015-1.5492 1.4406l0.31655 0.56452c0.56264-0.43901 1.1478-0.89284 1.6547-1.5482 0.5069-0.65534 0.90471-1.4687 1.2966-2.2637zm-0.81034-1.9291c-0.39184 0.74752-0.77593 1.4775-1.2278 2.0617-0.45189 0.58421-0.99776 1.058-1.5604 1.5444l0.33893 0.54564c0.56259-0.48643 1.1415-0.98416 1.6435-1.6331 0.502-0.64899 0.90152-1.4143 1.2934-2.1618zm-0.78021-1.7137c-0.42197 0.77122-0.83829 1.5283-1.2918 2.1146-0.45348 0.58627-0.96715 1.0345-1.4996 1.4972l0.33893 0.54564c0.53246-0.46271 1.0839-0.93899 1.5843-1.5859 0.50042-0.64695 0.92735-1.4321 1.3493-2.2033zm-1.5786-0.99672c-0.36173 0.78712-0.71547 1.5485-1.1751 2.1524-0.45931 0.60349-1.0632 1.0977-1.6771 1.5954l0.32294 0.55886c0.61389-0.49767 1.2597-1.0162 1.781-1.7011 0.52102-0.68456 0.89007-1.4974 1.2518-2.2845z"/>
</svg>
