<svg version="1.1" viewBox="0 0 16 16" xmlns="http://www.w3.org/2000/svg">
 <g transform="matrix(1 0 0 1 -135 -527.36)">
  <g transform="translate(74 350.34)">
   <path d="m61 177.02h16v15.978h-16z" opacity="0"/>
   <g transform="matrix(.87462 0 0 .89178 86.927 167.56)">
    <path d="m-28.5 27.571c3.1111 0.0011 2.7936-3.3234 4.3042-4.249 1.7505-1.0726 3.2845 0.25648 3.5908 1.3503 0.38645 1.3802-0.33782 2.5087-1.3003 3.119-1.8464 1.1707-6.3 0.89871-6.5946-0.22026z"/>
   </g>
   <path d="m76.417 178.36c0.30837-0.6658-0.16372-0.9212-0.73242-0.3567-3.9987 3.9688-4.6839 4-8.4238 9.1497 1.0036 0.0377 1.8651 0.6864 2.3125 1.6228 4.4274-4.7725 4.9264-7.3334 6.8438-10.416z"/>
  </g>
  <path d="m135 527.36h12v1h-12z"/>
  <path d="m135 527.36h1v13h-1z"/>
 </g>
</svg>
