<svg version="1.1" viewBox="0 0 16 16" xmlns="http://www.w3.org/2000/svg">
 <g transform="matrix(1 0 0 1 -15 -627.36)">
  <path d="m15 627.36h16v16h-16z" opacity="0"/>
  <path d="m27.026 627.36s-1.8231 3.7834-2.9508 6l-0.47633 1v1l-0.59924 1h1l0.76701-1 0.79899-0.4219 0.12292-0.5781 3.3267-7z"/>
  <path d="m16.227 635.39c-0.66548-1e-3 -1.2233 0.2772-1.2265 0.9735 0.013 0.5392 0.0055 1.448 0 2l2.0159-0.01-4e-5 -2.9579-0.79042-5e-3zm1.7841 6e-3v2.9579l1.9894 0.01c0.0102-0.5542-0.0047-1.467 0-2 9.9e-4 -0.6962-0.48323-0.9551-1.1488-0.9585l-0.84056-9e-3zm-2.9844 3.9436c-9e-3 0.6024-0.0261 0.8269-0.0263 1.3814-6e-3 1.4568 1.1087 2.6353 2.5011 2.6425 1.3924 7e-3 2.5189-1.1599 2.5258-2.6167-0.0253-0.6059-0.0329-0.8326-0.0267-1.4072z"/>
  <path d="m18 630.36-1 4h1.4062c0.13609 6e-4 -0.01581 0 1.0625 0l0.53125-2h3l1-2zm11 0-1 2 0.60938 6h-7.6094v2h10l-1-10z"/>
 </g>
</svg>
