<svg version="1.1" viewBox="0 0 16 16" xmlns="http://www.w3.org/2000/svg">
 <g transform="translate(-74.997 -887.36)">
  <g transform="matrix(.99853 0 0 1 60.043 280)">
   <path d="m14.976 607.36h16v16h-16z" opacity="0"/>
   <path d="m17 609.36h12v2h-12z"/>
   <path d="m15 607.36h1v16h-1z"/>
   <path d="m15 607.36h16v1h-16z"/>
   <path d="m30 607.36h1v16h-1z"/>
   <path d="m15 622.36h16v1h-16z"/>
  </g>
  <path transform="translate(0 512.36)" d="m83 381c-3.3137 0-4 2-6 3.5 2 1.5 2.6863 3.5 6 3.5s4-2 6-3.5c-2-1.5-2.6863-3.5-6-3.5zm0 1c1.6568 0 3 1.1193 3 2.5s-1.3432 2.5-3 2.5-3-1.1193-3-2.5 1.3432-2.5 3-2.5z"/>
  <path transform="matrix(1.2188 0 0 1.5 -18.125 319.36)" d="m84 385a1 1 0 0 1-1 1 1 1 0 0 1-1-1 1 1 0 0 1 1-1 1 1 0 0 1 1 1z"/>
 </g>
</svg>
