<svg version="1.1" viewBox="0 0 16 16" xmlns="http://www.w3.org/2000/svg">
 <g transform="matrix(1 0 0 1 -769 -589.36)">
  <path d="m769 589.36h16v16h-16z" opacity="0"/>
  <path d="m769.5 589.36c0.277 0 0.5 0.3345 0.5 0.75v14.5c0 0.4155-0.223 0.75-0.5 0.75s-0.5-0.3345-0.5-0.75v-14.5c0-0.4155 0.223-0.75 0.5-0.75z"/>
  <path d="m784.5 589.36c0.277 0 0.5 0.3345 0.5 0.75v14.5c0 0.4155-0.223 0.75-0.5 0.75s-0.5-0.3345-0.5-0.75v-14.5c0-0.4155 0.223-0.75 0.5-0.75z"/>
  <path transform="translate(0 512.36)" d="m770 77h14c0.554 0 1 0.223 1 0.5s-0.446 0.5-1 0.5h-14c-0.554 0-1-0.223-1-0.5s0.446-0.5 1-0.5z"/>
  <path transform="translate(0 512.36)" d="m769 92h16v1h-16z"/>
  <path d="m771.6 591.36h10.8c0.3324 0 0.6 0.223 0.6 0.5s-0.2676 0.5-0.6 0.5h-10.8c-0.3324 0-0.6-0.223-0.6-0.5s0.2676-0.5 0.6-0.5z"/>
  <path d="m772.62 600.42h8.7538c0.34519 0 0.62308 0.223 0.62308 0.5v0.0439c0 0.277-0.27789 0.5-0.62308 0.5h-8.7538c-0.34519 0-0.62308-0.223-0.62308-0.5v-0.0439c0-0.277 0.27789-0.5 0.62308-0.5z"/>
  <path d="m781 597.36-2.0019-1-0.9981 1h1l1 1v4l-0.071 2.1054 1.0714-2.1054 0.059-1.494z"/>
  <path d="m773.06 597.36 1.9492-1.0528 0.9923 1.0528h-0.9415l-1 1-0.058 3v3l-1-2v-1.494z"/>
  <path d="m777 599.36c0.554 0 1 0.446 1 1v1c0 0.554-0.446 1-1 1s-1-0.446-1-1v-1c0-0.554 0.446-1 1-1z"/>
  <path d="m777.06 594.11c-1.2793 0-2.3125 1.0044-2.3125 2.25s1.0332 2.25 2.3125 2.25 2.3125-1.0044 2.3125-2.25-1.0332-2.25-2.3125-2.25zm-0.062 1.25c0.5523 0 1 0.4477 1 1s-0.4477 1-1 1-1-0.4477-1-1 0.4477-1 1-1z"/>
  <path d="m777 593.36c0.554 0 1 0.446 1 1s-0.446 1-1 1-1-0.446-1-1 0.446-1 1-1z"/>
 </g>
</svg>
