<svg fill="#000000" version="1.1" viewBox="0 0 16 16" xml:space="preserve" xmlns="http://www.w3.org/2000/svg">
<path d="m4.504 14.832v-3.2661c0-0.13311-0.071866-0.25585-0.18784-0.32112-0.11598-0.06521-0.25833-0.06293-0.37204 0.0064-0.3022 0.18423-0.65707 0.29028-1.0383 0.29028-1.1111 3.1e-4 -2.0114-0.9003-2.0114-2.0112-3.05e-5 -1.1108 0.90035-2.0116 2.0113-2.0114v-4.46e-5c0.38133-6.29e-5 0.73611 0.10598 1.0384 0.29025 0.11371 0.069341 0.25612 0.071885 0.37222 0.00663 0.1161-0.065271 0.18766-0.18814 0.18766-0.32134v-2.3279c0-0.36869 0.30993-0.66523 0.67875-0.66523h2.541c0.13036 0 0.25103-0.068915 0.31728-0.18115 0.066252-0.11226 0.068369-0.25125 0.00529-0.36532-0.16004-0.28905-0.25109-0.62219-0.25109-0.9755 0-1.1107 0.90056-2.0118 2.0117-2.0118 1.1108 0 2.0112 0.9014 2.0112 2.0122 0 0.35325-0.09105 0.68623-0.251 0.97519-0.06319 0.11413-0.06129 0.25316 5e-3 0.36551 0.06629 0.11235 0.18706 0.18093 0.31748 0.18093h2.9354c0.36888 0 0.67488 0.29653 0.67488 0.66523v2.269c0 0.1297-0.06825 0.24985-0.17963 0.31631-0.11138 0.066462-0.24965 0.06959-0.36373 0.00788-0.28411-0.15365-0.60937-0.24089-0.95504-0.2408-1.111-1.23e-4 -2.0116 0.90058-2.0116 2.0114 0 1.1109 0.90053 2.0115 2.0116 2.0112 0.3457 0 0.67096-0.08728 0.95507-0.24086 0.1142-0.06175 0.25244-0.05886 0.36395 0.0077 0.11147 0.06654 0.17941 0.18678 0.17941 0.31654v3.2072c-1e-5 0.36888-0.30598 0.6678-0.674 0.66928l-2.9058 0.0015c-0.1297 6.7e-5 -0.24985-0.06825-0.31631-0.17963-0.06646-0.11138-0.06959-0.24965-0.0079-0.36373 0.15365-0.28411 0.24089-0.60937 0.2408-0.95504 1.23e-4 -1.111-0.90058-2.0116-2.0114-2.0116-1.1109 0-2.0115 0.90053-2.0112 2.0116 0 0.3457 0.08728 0.67096 0.24086 0.95507 0.06175 0.1142 0.05886 0.25244-0.0077 0.36395-0.06654 0.11147-0.18678 0.17941-0.31654 0.17941l-2.549-0.0015c-0.36777-0.001505-0.67779-0.30043-0.67779-0.66931z" fill="#000" opacity=".25424"/>
<path d="m9.8066 0.4668c-1.3815 0-2.5117 1.1307-2.5117 2.5117 0 0.3688 0.11959 0.7058 0.26367 1.0234h-2.375c-0.63682 0-1.1797 0.51517-1.1797 1.1641v2.1602c-0.33654-0.16847-0.69705-0.30671-1.0977-0.30664-1.3813-1.919e-4 -2.5118 1.1307-2.5117 2.5117 0 1.3811 1.1304 2.5102 2.5117 2.5098 0.40051 0 0.76112-0.13818 1.0977-0.30664v3.0977c-1e-7 0.64902 0.53823 1.1673 1.1758 1.1699h0.00195l2.5488 2e-3c0.30429 0 0.58951-0.16151 0.74609-0.42383 0.15651-0.2622 0.16272-0.58898 0.017578-0.85742-0.11535-0.21339-0.17969-0.4572-0.17969-0.71875-2.315e-4 -0.84075 0.67103-1.5117 1.5117-1.5117 0.84058 0 1.5099 0.67095 1.5098 1.5117 7e-5 0.26146-0.06432 0.50542-0.17969 0.71875-0.14547 0.269-0.13864 0.59561 0.01758 0.85742 0.15623 0.26182 0.44066 0.42399 0.74609 0.42383l2.9062-2e-3h0.0019c0.63771-0.002556 1.1719-0.52456 1.1719-1.1699v-3.207c0-0.30429-0.16151-0.58951-0.42383-0.74609-0.2622-0.15651-0.58898-0.16272-0.85742-0.01758-0.21339 0.11535-0.45525 0.17969-0.7168 0.17969-0.84075 2.31e-4 -1.5117-0.66907-1.5117-1.5098 0-0.84058 0.67095-1.5118 1.5117-1.5117 0.26146-6.92e-5 0.50347 0.064321 0.7168 0.17969 0.26901 0.14552 0.5956 0.13865 0.85742-0.017578 0.2619-0.15627 0.42383-0.44099 0.42383-0.74609v-2.2695c0-0.64535-0.53894-1.1641-1.1758-1.1641h-2.7695c0.14393-0.31744 0.26367-0.65284 0.26367-1.0215 0-1.381-1.1304-2.5137-2.5117-2.5137zm0 1c0.84032 0 1.5117 0.6731 1.5117 1.5137 0 0.26733-0.06939 0.51551-0.18945 0.73242-0.14859 0.26838-0.14223 0.5971 0.01367 0.86133 0.1561 0.26456 0.44235 0.42773 0.74805 0.42773h2.9336c0.10093 0 0.17578 0.072022 0.17578 0.16406v2.1055c-0.31073-0.13729-0.63848-0.25205-0.99805-0.25195-1.3813-1.529e-4 -2.5117 1.1307-2.5117 2.5117 0 1.3811 1.1304 2.5101 2.5117 2.5098 0.35954 0 0.68738-0.11472 0.99805-0.25195v3.043c-3e-6 0.0924-0.0774 0.16953-0.17578 0.16992l-2.7402 2e-3c0.13777-0.31118 0.25205-0.63978 0.25195-1 1.52e-4 -1.3813-1.1287-2.5117-2.5098-2.5117-1.3811 0-2.5121 1.1304-2.5117 2.5117 0 0.3602 0.11424 0.68888 0.25195 1l-2.3828-2e-3h-0.00195c-0.097235-0.0013-0.17773-0.0817-0.17773-0.16992v-3.2656c0-0.31309-0.17083-0.60444-0.44336-0.75781-0.27266-0.1533-0.60905-0.14772-0.87695 0.01563-0.22647 0.13806-0.48883 0.21679-0.77735 0.21679-0.84079 2.34e-4 -1.5117-0.66902-1.5117-1.5098-2.27e-5 -0.84062 0.67101-1.5118 1.5117-1.5117 0.28858-4.77e-5 0.55077 0.078665 0.77734 0.2168 0.2675 0.16312 0.60378 0.16916 0.87695 0.015625 0.27326-0.15362 0.44336-0.44554 0.44336-0.75781v-2.3281c0-0.088494 0.078868-0.16406 0.17969-0.16406h2.541c0.30658 0 0.59223-0.16378 0.74805-0.42773 0.15569-0.26382 0.16031-0.59259 0.011719-0.86133-0.12011-0.21694-0.18945-0.46697-0.18945-0.73438 0-0.84049 0.67089-1.5117 1.5117-1.5117z"/></svg>
