<svg version="1.1" viewBox="0 0 16 16" xmlns="http://www.w3.org/2000/svg">
 <g transform="translate(-44.976 -667.36)">
  <g transform="matrix(.99853 0 0 1 30.022 60)">
   <path d="m14.976 607.36h16v16h-16z" opacity="0"/>
   <path d="m17 609.36h12v2h-12z"/>
   <path d="m15 607.36h1v16h-1z"/>
   <path d="m15 607.36h16v1h-16z"/>
   <path d="m30 607.36h1v16h-1z"/>
   <path d="m15 622.36h16v1h-16z"/>
  </g>
  <path d="m51.699 673.96-4.5332 3.4004 4.5332 3.4004 0.60156-0.80078-3.4668-2.5996 3.4668-2.5996z"/>
  <path d="m54.301 673.96-0.60156 0.79883 3.4668 2.6016-3.4668 2.5996 0.60156 0.79883 4.5332-3.4004z"/>
 </g>
</svg>
