<svg version="1.1" viewBox="0 0 16 16" xmlns="http://www.w3.org/2000/svg">
 <path d="m2.4883 2c-0.82235 0-1.5 0.67765-1.5 1.5v7c0 0.82235 0.67765 1.5 1.5 1.5h3.5v1h-2v1h8v-1h-2v-1h3.5c0.82235 0 1.5-0.67765 1.5-1.5v-7c0-0.82235-0.67765-1.5-1.5-1.5zm0 1h11c0.28565 0 0.5 0.21435 0.5 0.5v7c0 0.28565-0.21435 0.5-0.5 0.5h-11c-0.28565 0-0.5-0.21435-0.5-0.5v-7c0-0.28565 0.21435-0.5 0.5-0.5zm5.5 1c-1.6509 0-3 1.3491-3 3s1.3491 3 3 3 3-1.3491 3-3-1.3491-3-3-3zm0 1c1.1105 0 2 0.88951 2 2 0 1.1105-0.88951 2-2 2s-2-0.88951-2-2 0.88951-2 2-2z" color="#000000" fill-opacity=".97884" stroke-linecap="square" stroke-miterlimit="10" style="-inkscape-stroke:none"/>
</svg>
