<svg version="1.1" viewBox="0 0 16 16" xmlns="http://www.w3.org/2000/svg">
 <g stroke-linecap="square" stroke-miterlimit="10">
  <path d="m2.5 2c-0.82235 0-1.5 0.67765-1.5 1.5v7c0 0.82235 0.67765 1.5 1.5 1.5h3.5v1h-2v1h8v-1h-2v-1h3.5c0.82235 0 1.5-0.67765 1.5-1.5v-4.8418a3.5 3.5 0 0 1-1 0.30664v4.5352c0 0.28565-0.21435 0.5-0.5 0.5h-11c-0.28565 0-0.5-0.21435-0.5-0.5v-7c0-0.28565 0.21435-0.5 0.5-0.5h7.5a3 3 0 0 1 0.019531-0.21094 3.5 3.5 0 0 1-0.019531-0.28906 3.5 3.5 0 0 1 0.035156-0.5h-7.5352z" color="#000000" fill-opacity=".97884" style="-inkscape-stroke:none"/>
  <circle cx="13.5" cy="2.5" r="2.5" opacity=".65158" stroke-linejoin="round" stroke-opacity=".97884"/>
 </g>
</svg>
