<svg version="1.1" viewBox="0 0 16 16" xmlns="http://www.w3.org/2000/svg">
 <g transform="matrix(.66667 0 0 .66667 -746.67 -548.91)">
  <path d="m1121 823.36h22.057c0.5382 0 0.9714 0.43325 0.9714 0.97141v22.057c0 0.53816-0.4332 0.97141-0.9714 0.97141h-22.057c-0.5382 0-0.9714-0.43325-0.9714-0.97141v-22.057c0-0.53816 0.4332-0.97141 0.9714-0.97141z" opacity="0"/>
  <path transform="translate(-1 511.36)" d="m1125 320a2 2 0 0 1-1.9929 2 2 2 0 0 1-2.007-1.9857 2 2 0 0 1 1.9785-2.0142 2 2 0 0 1 2.0212 1.9713l-1.9998 0.02857z"/>
  <path transform="translate(4 505.36)" d="m1125 320a2 2 0 0 1-1.9929 2 2 2 0 0 1-2.007-1.9857 2 2 0 0 1 1.9785-2.0142 2 2 0 0 1 2.0212 1.9713l-1.9998 0.02857z"/>
  <path transform="translate(13 507.39)" d="m1125 320a2 2 0 0 1-1.9929 2 2 2 0 0 1-2.007-1.9857 2 2 0 0 1 1.9785-2.0142 2 2 0 0 1 2.0212 1.9713l-1.9998 0.02857z"/>
  <path transform="translate(12 515.36)" d="m1125 320a2 2 0 0 1-1.9929 2 2 2 0 0 1-2.007-1.9857 2 2 0 0 1 1.9785-2.0142 2 2 0 0 1 2.0212 1.9713l-1.9998 0.02857z"/>
  <path transform="translate(4 517.36)" d="m1125 320a2 2 0 0 1-1.9929 2 2 2 0 0 1-2.007-1.9857 2 2 0 0 1 1.9785-2.0142 2 2 0 0 1 2.0212 1.9713l-1.9998 0.02857z"/>
  <path transform="translate(17 523.36)" d="m1125 320a2 2 0 0 1-1.9929 2 2 2 0 0 1-2.007-1.9857 2 2 0 0 1 1.9785-2.0142 2 2 0 0 1 2.0212 1.9713l-1.9998 0.02857z"/>
  <path d="m1126.8 824.79-5.4726 6.5664 5.4785 6.5742 8.6523-2.1621 0.043-0.34766 1.0567-8.4609zm0.3868 1.1348 8.2421 1.8301-0.9003 7.1914-7.3477 1.8379-4.5215-5.4277z"/>
  <path d="m1135.4 835.1-0.8476 0.52929 4.6347 7.416-7.332 1.834 0.2422 0.97071 8.668-2.168z"/>
  <path transform="matrix(.98861 0 0 1.3257 11.91 403.22)" d="m1135 333.5a2 1.5 0 0 1-1.9929 1.5 2 1.5 0 0 1-2.007-1.4893 2 1.5 0 0 1 1.9785-1.5106 2 1.5 0 0 1 2.0212 1.4785l-1.9998 0.02143z"/>
 </g>
</svg>
