<svg version="1.1" viewBox="0 0 16 16" xmlns="http://www.w3.org/2000/svg">
 <style></style>
 <style>@import '../../highlights.css';</style>
 <g transform="matrix(.66667 0 0 .66667 -696 -523.57)">
  <path transform="rotate(90)" d="m785.36-1068h24v24h-24z" opacity="0"/>
  <path d="m1058.9 793.16c0.7384-0.64043 1.9743-0.39595 2.5528 0.32969 0.9063 1.1369 1.2119 2.5515 1.5328 3.8988 0.2716 1.1404 0.4351 1.8023 0.4986 2.9694 0.7479-1.4759 1.5755-2.556 1.6001-4.2179 0.013-0.84023-0.4885-1.5512-0.8247-2.295-0.2809-0.6216 0.48-1.2335 1.1499-1.0708 0.7994 0.19423 0.9458 1.0466 0.9185 1.6843-0.081 1.8973-0.8645 3.7599-1.6532 5.4937-1.1176 2.2896-2.7038 4.4326-4.8117 6.024-0.8082 0.61019-2.872 1.1576-3.933 0.9195-2.0817-0.46709-1.887-2.6406 0-2.8243 1.1573-0.11267 2.4065 1.1656 3.1045 1.1534 1.1516-0.0201 2.0105-0.98286 2.2836-1.9339 0.3539-1.2322 0.047-2.5309-0.1754-3.7653-0.2909-1.6156-0.6749-3.2537-1.5129-4.7107-0.1716-0.56592-1.5139-0.90224-0.7299-1.6548z"/>
  <path d="m1052.2 796.98c-0.5721 0-1.0042 0.0817-1.2954 0.24522-0.2861 0.16351-0.4301 0.40451-0.4301 0.7228 0 0.2926 0.115 0.5228 0.3451 0.69053 0.2352 0.16351 0.5607 0.24522 0.9742 0.24522 0.5161 0 0.9513-0.15488 1.3037-0.46464 0.3534-0.31407 0.5296-0.70554 0.5296-1.1745v-0.26464h-1.4271m3.7838 3.3422h-2.0727v-1.0713c-0.368 0.43884-0.7825 0.75939-1.2426 0.96155-0.4602 0.19793-1.0198 0.2969-1.679 0.2969-0.8902 0-1.8975-0.30685-2.4551-0.74137-0.5513-0.43884-0.4128-0.97216-0.4128-1.6691 0-0.84756-0.07-1.5038 0.6201-1.8997 0.6954-0.39578 1.7846-0.59372 3.2666-0.59372h1.6188v-0.18067c0-1.073-1.1903-1.0573-2.1173-1.0584-1.239-2e-3 -2.2188 0.19348-3.0521 0.59372v-1.7618c0.5887-0.12045 1.0827-0.23237 1.7722-0.27101 1.6242-0.091 3.3208-0.0563 4.5341 0.49653 0.797 0.36321 1.2198 1.0536 1.2198 2.2079z"/>
  <g>
   <path d="m1057.5 785.36h1.5v24h-1.5z"/>
   <path d="m1045.5 785.36h1.5v24h-1.5z"/>
   <path transform="matrix(1.5 0 0 1.5 1044 785.36)" d="m3 1v3h1v-1h3v1h1v-3h-1v1h-3v-1z" stroke-width=".66667"/>
  </g>
 </g>
</svg>
