<svg version="1.1" viewBox="0 0 16 16" xmlns="http://www.w3.org/2000/svg">
 <g transform="translate(-349 -1131.4)">
  <path d="m349 1131.4h16v16h-16z" opacity="0"/>
  <path d="m356 1131.4h2v5h-2z"/>
  <path d="m357 1140.4-4.0231-4h8z"/>
  <path d="m353 1139.4v1l-1.5818 2.173c-0.1871 0.358-0.7437 0.494-1.0966 0.267-0.353-0.226-0.3216-0.44-0.3216-0.44l1.6981-2.685c0.079-0.111 0.16-0.315 0.3019-0.315l1 1e-3z"/>
  <path d="m361 1139.4v1l1.5817 2.173c0.1872 0.358 0.7438 0.494 1.0967 0.267 0.3529-0.226 0.3216-0.44 0.3216-0.44l-1.6981-2.685c-0.079-0.111-0.16-0.315-0.3019-0.315l-1 1e-3z"/>
  <path d="m350 1142.4v5h14v-5zm4.4114 1.438c0.024-1e-3 0.049-1e-3 0.072 0 0.3395-0.06 0.5217 0.266 0.5157 0.562h4c0-0.264 0.1293-0.569 0.4375-0.569s0.5876 0.243 0.5833 0.507v0.06c0 0.545-0.3846 1-1.0208 1h-4c-0.6362 0-0.9896-0.455-0.9896-1v-0.06c-0.013-0.217 0.1601-0.433 0.401-0.5z"/>
 </g>
</svg>
