<svg version="1.1" viewBox="0 0 16 16" xmlns="http://www.w3.org/2000/svg">
 <path transform="matrix(.99999 0 0 .99996 -15 -566.34)" d="m27 573.36v2.0001h-4.0001v1h3.9981v2.0001c1.5814-0.85346 2.5013-1.4267 4.002-2.5325-1.5118-1.044-2.4984-1.6517-4-2.4677z" color="#000000" fill="#808080"/>
 <path transform="matrix(.99999 0 0 .99996 -15 -566.34)" d="m18.994 566.36c-1.2581 0.0151-2.1789-0.0284-2.9317 0.38673-0.37636 0.20758-0.67322 0.55751-0.8379 0.99613-0.16471 0.43863-0.22461 0.95962-0.22461 1.6173v10c0 0.65763 0.05994 1.1786 0.22461 1.6172 0.16466 0.43867 0.46152 0.79041 0.8379 0.99808 0.75276 0.41539 1.6735 0.37028 2.9317 0.38478h0.0039 6.0059 2e-3c1.2581-0.0151 1.1789 0.0284 1.9317-0.38673 0.37636-0.20758 0.67322-0.55751 0.8379-0.99613 0.16471-0.43863 0.22461-0.95962 0.22461-1.6172v-0.55471c-0.30982 0.17717-0.63501 0.35575-1 0.55275v2e-3c0 0.59241-0.06261 1.0059-0.16016 1.2657-0.09754 0.25981-0.20135 0.37151-0.38477 0.47267-0.36598 0.20183-1.1965 0.24653-2.4551 0.26173h-5c-1.2585-0.0147-2.0891-0.0598-2.4551-0.26173-0.18341-0.10119-0.28717-0.21275-0.38477-0.47267-0.09756-0.25991-0.16016-0.67326-0.16016-1.2657v-10c0-0.59242 0.06256-1.0059 0.16016-1.2657 0.09754-0.2598 0.20135-0.37151 0.38477-0.47267 0.36598-0.20183 1.1965-0.24653 2.4551-0.26173h0.0059 3.9942v4.0002h2 2v1c0.3587 0.19492 0.68591 0.37673 1 0.55666v-1.5567-0.75003l-4.25-4.2502h-0.75001-4.0039z" fill="#808080" stroke-width="4"/>
</svg>
