<svg viewBox="0 0 16 16.003" xmlns="http://www.w3.org/2000/svg">
 <g fill="#2e3436" font-weight="400">
  <path d="M9.01 7.848a3.264 3.264 0 00-.994-.003l.976 1.73c.2.354-.024.762-.45 1.008l-.77.445c-.431.24-.91.208-1.111-.148l-.976-1.729a3.22 3.22 0 00-.514.848c-.565 1.47.237 2.892 1.792 3.174.324.06.667.046.994.003.026-.004 1.518 2.765 1.518 2.765l3.505.062-2.667-4.13c.206-.256.37-.543.488-.85.566-1.47-.236-2.892-1.791-3.175z" font-family="Sans" overflow="visible" style="text-decoration-line:none;text-indent:0;text-transform:none"/>
  <path d="M3 1a1 1 0 00-1 1v13a1 1 0 001 1h4a1 1 0 100-2H4V3h5.586L12 5.414V12a1 1 0 102 0V5a1 1 0 00-.293-.707l-3-3A1 1 0 0010 1z" fill-rule="evenodd" font-family="sans-serif" overflow="visible" style="font-feature-settings:normal;font-variant-alternates:normal;font-variant-caps:normal;font-variant-ligatures:normal;font-variant-numeric:normal;font-variant-position:normal;isolation:auto;mix-blend-mode:normal;shape-padding:0;text-decoration-color:#000;text-decoration-line:none;text-decoration-style:solid;text-indent:0;text-orientation:mixed;text-transform:none;white-space:normal"/>
 </g>
</svg>
