<svg version="1.1" viewBox="0 0 16 16" xmlns="http://www.w3.org/2000/svg">
 <g transform="matrix(.9969 0 0 1 -14.954 -585.36)">
  <path d="m15 585.36h16v16h-16z" opacity="0"/>
  <path d="m24.734 588.18s-0.01281 0.5466-0.30325 1.0909c-0.29048 0.5442-0.80193 1.0909-2.1228 1.0909-1.1166 0-3.3076 0-3.8816 0.1364-0.63844 0.1516-1.2386 0.4409-1.6982 0.9545-0.45959 0.5136-0.72781 1.2537-0.72781 2.1818 0 0.7075 0.1302 1.2727 0.39423 1.7046 0.26403 0.4318 0.65516 0.709 1.0311 0.8522 0.75179 0.2866 1.5352 0.1705 1.9711 0.1705v-1.0909c-0.53452 0-1.2067 0.0736-1.6679-0.1023-0.23061-0.0879-0.38533-0.2302-0.51553-0.4432-0.1302-0.2129-0.2426-0.5412-0.2426-1.0909 0-0.7082 0.18237-1.1273 0.45488-1.4318 0.2725-0.3046 0.68411-0.4901 1.213-0.6137 0.36171-0.2272 2.4845-0.1363 3.6693-0.1363 1.5904 0 2.5345-0.817 2.9719-1.6364s0.42455-1.6363 0.42455-1.6363z"/>
  <path transform="matrix(.16 0 0 .15385 -23.8 585.36)" d="m280 97.5a6.25 6.5 0 0 1-6.25 6.5 6.25 6.5 0 0 1-6.25-6.5 6.25 6.5 0 0 1 6.25-6.5 6.25 6.5 0 0 1 6.25 6.5z"/>
  <path d="m19 595.36c4-2 10-1 10-1v6.0003s0.01874-0.018-11-3e-4c-2 0-1-4 1-5z"/>
  <path transform="matrix(.38951 0 0 .3813 -78.014 561.71)" d="m280 97.5a6.25 6.5 0 0 1-6.25 6.5 6.25 6.5 0 0 1-6.25-6.5 6.25 6.5 0 0 1 6.25-6.5 6.25 6.5 0 0 1 6.25 6.5z"/>
  <path d="m21.294 586.4h7.8505v2.0343h-7.8505z"/>
 </g>
</svg>
