<svg version="1.1" viewBox="0 0 16 16" xmlns="http://www.w3.org/2000/svg">
 <g transform="translate(-559 -589.36)">
  <path d="m559 589.36h16v16h-16z" opacity="0"/>
  <path d="m566.97 590.36c-0.92203 0-1.8417 0.18256-2.6934 0.5332-0.8517 0.35087-1.6313 0.86912-2.2832 1.5176-0.652 0.64843-1.1724 1.4239-1.5254 2.2715-0.35281 0.84747-0.53516 1.7602-0.53516 2.6777 0 0.91749 0.18233 1.8323 0.53516 2.6797 0.35294 0.84754 0.87339 1.623 1.5254 2.2715 0.6519 0.64844 1.4314 1.1668 2.2832 1.5176 0.85173 0.35078 1.7714 0.53114 2.6934 0.53125 0.92194 0 1.8411-0.18063 2.6934-0.53125 0.85217-0.35074 1.6324-0.86919 2.2852-1.5176 0.6527-0.64837 1.1739-1.4219 1.5273-2.2695 0.28374-0.68032 0.37204-1.4187 0.42969-2.1524h0.10547v-1.0566h-0.10547c-0.0575-0.73417-0.14586-1.4715-0.42969-2.1523-0.35352-0.84762-0.87466-1.6231-1.5273-2.2715-0.65271-0.64838-1.4329-1.165-2.2852-1.5156-0.85228-0.35062-1.7714-0.5332-2.6934-0.5332zm0 1.0586c0.78266 0 1.5677 0.15555 2.291 0.45313 0.72315 0.29754 1.3881 0.73943 1.9414 1.2891 0.55332 0.54965 0.9976 1.2102 1.2969 1.9277 0.29922 0.71776 0.45507 1.4948 0.45507 2.2715 0 0.77653-0.15578 1.5558-0.45507 2.2734-0.29918 0.71755-0.74358 1.3781-1.2969 1.9277-0.55328 0.54961-1.2182 0.9914-1.9414 1.2891-0.72333 0.29758-1.5084 0.45313-2.291 0.45313-0.78266-9e-5 -1.5684-0.1555-2.291-0.45313-0.72262-0.2976-1.387-0.7395-1.9394-1.2891-0.5526-0.54957-0.99607-1.2101-1.2949-1.9277-0.29878-0.7176-0.45508-1.4969-0.45508-2.2734 0-0.77661 0.15628-1.5538 0.45508-2.2715 0.29885-0.71765 0.74232-1.3782 1.2949-1.9277 0.55248-0.54954 1.2168-0.99134 1.9394-1.2891 0.72274-0.29756 1.5084-0.45313 2.291-0.45313z"/>
  <path d="m565 595.36h4v4h-4z"/>
  <path d="m570 590.36h4v4h-4z"/>
  <path transform="matrix(.68252 .73087 -.68989 .72391 0 0)" d="m823.45-14.467h1.0353v7.243h-1.0353z"/>
 </g>
</svg>
