<svg version="1.1" viewBox="0 0 16 16" xmlns="http://www.w3.org/2000/svg">
 <g transform="translate(-348 -805.36)">
  <path d="m348 805.36h16v16h-16z" opacity="0"/>
  <path d="m354.74 806.36a0.6834 0.6834 0 0 0-0.64258 0.42969l-5.0508 12.625a0.6834 0.6834 0 0 0 0.63476 0.9375h12.625a0.6834 0.6834 0 0 0 0.6836-0.6836v-1.4785a0.6836 0.6836 0 1 0-1.3672 0v0.79492h-10.932l4.3535-10.885 0.20117 0.14063a0.6834 0.6834 0 1 0 0.78515-1.1172l-0.90625-0.63867a0.6834 0.6834 0 0 0-0.38476-0.125z" stroke-linecap="round"/>
  <path d="m352.95 813.64a0.72536 0.72536 0 0 0-0.043 1.4453c0.27079 0.0353 0.88507 0.37643 1.3945 0.99805 0.50946 0.62161 0.93806 1.4842 1.0703 2.4336a0.72536 0.72536 0 1 0 1.4356-0.19922c-0.17374-1.2472-0.71457-2.3366-1.3848-3.1543-0.6702-0.81774-1.4465-1.4028-2.3281-1.5176a0.72536 0.72536 0 0 0-0.14453-6e-3z" stroke-linecap="round"/>
 </g>
</svg>
