<svg version="1.1" viewBox="0 0 16 16" xmlns="http://www.w3.org/2000/svg">
 <g transform="translate(-799 -589.36)">
  <path transform="translate(0 512.36)" d="m799 77h16v16h-16z" opacity="0"/>
  <path transform="translate(0 512.36)" d="m800 77c-0.554 0-1 0.446-1 1v7c0 0.554 0.446 1 1 1h7v4l5-4h2c0.554 0 1-0.446 1-1v-7c0-0.554-0.446-1-1-1zm1 1h12c0.554 0 1 0.446 1 1v5c0 0.554-0.446 1-1 1h-1.5l-3.5 2.6562v-2.6562h-7c-0.554 0-1-0.446-1-1v-5c0-0.554 0.446-1 1-1z"/>
  <path transform="translate(0 512.36)" d="m799 91v2h1v-1h1v1h1v-1h1v1h1v-1h1v1h1v-1h1v1h1v-1h1v1h1v-1h1v1h1v-1h1v1h1v-2z"/>
  <path d="m805 591.36h1v5h-1z"/>
  <path d="m807 595.36h1v1h-1z"/>
  <path d="m809 591.36v5h3v-5zm1 1h1v3h-1z"/>
 </g>
</svg>
