<svg version="1.1" viewBox="0 0 16 16" xmlns="http://www.w3.org/2000/svg">
 <g transform="matrix(1 0 0 .9988 -619 -588.65)">
  <path d="m619 589.36h16v16h-16z" opacity="0"/>
  <path d="m620.57 589.35a0.5725 0.5725 0 0 0-0.41407 0.95117l12.809 14.869a0.57262 0.57262 0 1 0 0.86718-0.74805l-12.809-14.867a0.5725 0.5725 0 0 0-0.45312-0.20507z" stroke-linecap="round"/>
  <path d="m631 593.3a0.5725 0.5725 0 0 0-0.30273 0.11328l-8.291 6.0527a0.57252 0.57252 0 1 0 0.67383 0.92578l8.293-6.0527a0.5725 0.5725 0 0 0-0.37305-1.0391z" stroke-linecap="round"/>
 </g>
</svg>
