<svg version="1.1" viewBox="0 0 16 16" xmlns="http://www.w3.org/2000/svg">
 <g transform="matrix(.99562 0 0 .99866 -646.1 -588.55)">
  <path transform="translate(0 512.36)" d="m649 77h16v16h-16z" opacity="0"/>
  <path d="m649.5 589.34a0.58991 0.58991 0 0 0-0.39257 0.99414l13.648 14.814a0.58991 0.58991 0 1 0 0.86719-0.79883l-13.648-14.814a0.58991 0.58991 0 0 0-0.47461-0.19531z" stroke-linecap="round"/>
  <path d="m652.29 592.17a0.58991 0.58991 0 0 0-0.57422 0.7539l3.2852 11.338a0.58991 0.58991 0 1 0 1.1328-0.32812l-2.9336-10.129 10.967 4.8027a0.58991 0.58991 0 1 0 0.47265-1.0801l-12.119-5.3086a0.58991 0.58991 0 0 0-0.23047-0.0488z" stroke-linecap="round"/>
 </g>
</svg>
