<svg version="1.1" viewBox="0 0 16 16" xmlns="http://www.w3.org/2000/svg">
 <g transform="matrix(1 0 0 1 -45.07 -547.42)">
  <path d="m45.07 547.48h16v15.938h-16z" opacity="0"/>
  <path d="m50.53 547.42h4.9393c0.2938 0 0.53033 0.23653 0.53033 0.53033v1.9277c0 0.2938-0.23653 0.53033-0.53033 0.53033h-4.9393c-0.2938 0-0.53033-0.23653-0.53033-0.53033v-1.9277c0-0.2938 0.23653-0.53033 0.53033-0.53033z"/>
  <path d="m49 552.41v7.9689h6l2-1.9922v-5.9767zm3 0.9961h2v2.9884h2l-3 2.9883-3-2.9883h2z"/>
  <path d="m46.531 548.42c-0.0426 0-0.08527 0.0217-0.125 0.0311-0.23426 0.0554-0.40751 0.2478-0.40625 0.4981l0.03125 6.9727-0.03125 6.9728c-0.0013 0.2502 0.17199 0.4426 0.40625 0.498 0.06346 0.0267 0.11405 0.0316 0.1875 0.0312h2.4062l10.469-0.0624c0.2938-0.0013 0.53125-0.2364 0.53125-0.5291v-13.821c0-0.2926-0.23745-0.5281-0.53125-0.5291h-2.4688v0.9961h1.4688c0.2938 0.0015 0.53125 0.2365 0.53125 0.5291v11.829c0 0.2927-0.23745 0.5276-0.53125 0.5292l-9.4688 0.0623h-1.4062c-0.02382 1e-4 -0.03954 3e-3 -0.0625 0-0.0426 0-0.08526-0.0217-0.125-0.0311-0.19032-0.08-0.34246-0.2786-0.34375-0.4981l-0.03125-5.9766 0.03125-5.9767c0.0013-0.2195 0.15343-0.4181 0.34375-0.498 0.03974-9e-3 0.0824-0.0311 0.125-0.0311h1.4688v-0.9961h-2.4688z"/>
 </g>
</svg>
