<svg version="1.1" viewBox="0 0 16 16" xmlns="http://www.w3.org/2000/svg">
 <g transform="translate(-45 -707.36)">
  <path d="m45 707.36h16v16h-16z" opacity="0"/>
  <path d="m45 707.36h1v1h-1z"/>
  <path d="m47 707.36h1v1h-1z"/>
  <path d="m49 707.36h1v1h-1z"/>
  <path d="m51 707.36h1v1h-1z"/>
  <path d="m53 707.36h1v1h-1z"/>
  <path d="m55 707.36h1v1h-1z"/>
  <path d="m57 707.36h1v1h-1z"/>
  <path d="m59 707.36h1v1h-1z"/>
  <path d="m45 709.36h1v1h-1z"/>
  <path d="m45 711.36h1v1h-1z"/>
  <path d="m45 713.36h1v1h-1z"/>
  <path d="m45 715.36h1v1h-1z"/>
  <path d="m45 717.36h1v1h-1z"/>
  <path d="m45 719.36h1v1h-1z"/>
  <path d="m45 721.36h1v1h-1z"/>
  <path d="m59 709.36h1v1h-1z"/>
  <path d="m59 711.36h1v1h-1z"/>
  <path d="m59 713.36h1v1h-1z"/>
  <path d="m59 715.36h1v1h-1z"/>
  <path d="m59 717.36h1v1h-1z"/>
  <path d="m59 719.36h1v1h-1z"/>
  <path d="m59 721.36h1v1h-1z"/>
  <path d="m47 721.36h1v1h-1z"/>
  <path d="m49 721.36h1v1h-1z"/>
  <path d="m51 721.36h1v1h-1z"/>
  <path d="m53 721.36h1v1h-1z"/>
  <path d="m55 721.36h1v1h-1z"/>
  <path d="m57 721.36h1v1h-1z"/>
  <path transform="translate(0 512.36)" d="m47 203v5h8v-2.5c-0.16677 0.019-0.32822 0.0625-0.5 0.0625-1.7766 0-3.2996-1.0468-4.0312-2.5625z"/>
  <path transform="matrix(1 0 0 1.1667 .99998 478.86)" d="m57 201a3.5 3 0 0 1-3.5 3 3.5 3 0 0 1-3.5-3 3.5 3 0 0 1 3.5-3 3.5 3 0 0 1 3.5 3z"/>
 </g>
</svg>
