<svg version="1.1" viewBox="0 0 16 16" xmlns="http://www.w3.org/2000/svg">
 <g transform="translate(-45 -627.36)">
  <path d="m45 627.36v16h16v-16z" opacity="0"/>
  <path d="m50 632.36v11h10v-11zm4.4688 2h1c0.85142 0 1.5312 0.7099 1.5312 1.5625v1.4375h0.46875c0.27497 0 0.5 0.2494 0.5 0.5625v3.4062h-5.9688v-3.4062c0-0.3131 0.22503-0.5625 0.5-0.5625h3.4688v-1.4375c0-0.3332-0.24258-0.5312-0.5-0.5312h-1c-0.25742 0-0.46875 0.198-0.46875 0.5312v0.4375h-1.0312v-0.4375c0-0.8526 0.64858-1.5625 1.5-1.5625z"/>
  <path d="m49 636.36v-5h6v-4h-10v9z"/>
 </g>
</svg>
