<svg version="1.1" viewBox="0 0 16 16" xmlns="http://www.w3.org/2000/svg">
 <g transform="matrix(1 0 0 1 -45.07 -567.36)">
  <path d="m45.07 567.42h16v15.938h-16z" opacity="0"/>
  <path d="m50.601 567.36h4.9393c0.2938 0 0.53033 0.23653 0.53033 0.53033v1.9277c0 0.2938-0.23653 0.53033-0.53033 0.53033h-4.9393c-0.2938 0-0.53033-0.23653-0.53033-0.53033v-1.9277c0-0.2938 0.23653-0.53033 0.53033-0.53033z"/>
  <path d="m47.07 568.36c-0.64873 1e-3 -1 0.44479-1 0.99999v13.471c0 0.47319 0.3184 0.529 0.52341 0.529l12.945 8e-5c0.2938 0 0.53125-0.29868 0.53125-0.59138v-13.821c0-0.2926-0.22964-0.58756-0.66016-0.58756h-2.3398v1.0116h1.401c0.39876 0 0.59902 0.37893 0.59902 0.69915v11.702c0 0.2927-0.23745 0.5276-0.53125 0.5292-0.24995 1e-3 -10.697 0.0623-10.945 0.0623-0.36156 0-0.52341-0.2942-0.52341-0.5291v-11.953c0-0.36815 0.2792-0.529 0.46091-0.529h1.5391v-0.9961z"/>
  <g transform="matrix(.625 0 0 .625 -170.05 222.39)" stroke-width="1.6">
   <g transform="matrix(2.2857 0 0 2.2857 -748.14 432.65)" stroke-width=".7">
    <path d="m483.53 55.027-1.75 2.0468h1.05v2.8h-1.05l1.75 2.1 1.75-2.1h-1.05v-2.8l1.05 1e-5z" stroke-width=".7"/>
   </g>
  </g>
  <g>
   <rect x="56.07" y="571.36" width="2" height="2" opacity=".999" style="paint-order:stroke fill markers"/>
   <rect x="48.07" y="571.36" width="2" height="2" opacity=".999" style="paint-order:stroke fill markers"/>
   <rect x="56.07" y="579.36" width="2" height="2" opacity=".999" style="paint-order:stroke fill markers"/>
   <rect x="48.07" y="579.36" width="2" height="2" opacity=".999" style="paint-order:stroke fill markers"/>
  </g>
 </g>
</svg>
