<svg version="1.1" viewBox="0 0 16 16" xmlns="http://www.w3.org/2000/svg">
 <style>.base { fill:#000000; }
.success { fill:#009909; }
.warning { fill:#FF1990; }
.error { fill:#00AAFF; }
.dark {  }</style>
 <style>@import '../../highlights.css';</style>
 <g transform="translate(-45 -707.36)">
  <path class="base" d="m45 707.36h16v16h-16z" opacity="0"/>
  <path class="base" d="m45 707.36h1v1h-1z"/>
  <path class="base" d="m47 707.36h1v1h-1z"/>
  <path class="base" d="m49 707.36h1v1h-1z"/>
  <path class="base" d="m51 707.36h1v1h-1z"/>
  <path class="base" d="m53 707.36h1v1h-1z"/>
  <path class="base" d="m55 707.36h1v1h-1z"/>
  <path class="base" d="m57 707.36h1v1h-1z"/>
  <path class="base" d="m59 707.36h1v1h-1z"/>
  <path class="base" d="m45 709.36h1v1h-1z"/>
  <path class="base" d="m45 711.36h1v1h-1z"/>
  <path class="base" d="m45 713.36h1v1h-1z"/>
  <path class="base" d="m45 715.36h1v1h-1z"/>
  <path class="base" d="m45 717.36h1v1h-1z"/>
  <path class="base" d="m45 719.36h1v1h-1z"/>
  <path class="base" d="m45 721.36h1v1h-1z"/>
  <path class="base" d="m59 709.36h1v1h-1z"/>
  <path class="base" d="m59 711.36h1v1h-1z"/>
  <path class="base" d="m59 713.36h1v1h-1z"/>
  <path class="base" d="m59 715.36h1v1h-1z"/>
  <path class="base" d="m59 717.36h1v1h-1z"/>
  <path class="base" d="m59 719.36h1v1h-1z"/>
  <path class="base" d="m59 721.36h1v1h-1z"/>
  <path class="base" d="m47 721.36h1v1h-1z"/>
  <path class="base" d="m49 721.36h1v1h-1z"/>
  <path class="base" d="m51 721.36h1v1h-1z"/>
  <path class="base" d="m53 721.36h1v1h-1z"/>
  <path class="base" d="m55 721.36h1v1h-1z"/>
  <path class="base" d="m57 721.36h1v1h-1z"/>
  <rect class="error" x="48" y="710.36" width="9" height="9" style="paint-order:stroke fill markers"/>
 </g>
</svg>
