<svg version="1.1" viewBox="0 0 16 16" xmlns="http://www.w3.org/2000/svg">
 <style></style>
 <style>@import '../../highlights.css';</style>
 <g transform="scale(.66667)">
  <title>exchange-positions-zorder</title>
  <path d="m0 0h24v24h-24z" opacity="0"/>
  <g>
   <path d="m2.25 12-2.25 4.5h1.5v6h1.5v-6h1.5z"/>
   <rect x="9" y="21" width="4.5" height="1.5" stop-color="#1c1c1c"/>
   <rect x="7.5" y="18" width="4.5" height="1.5" stop-color="#1c1c1c"/>
   <rect x="6" y="15" width="4.5" height="1.5" stop-color="#1c1c1c"/>
   <rect x="3" y="1.5" width="7.5" height="7.5" ry="1.5" stop-color="#1c1c1c"/>
   <rect x="15" y="13.5" width="7.5" height="7.5" ry="1.5" stop-color="#1c1c1c"/>
   <path d="m13.5 4.5v1.5h1.5a3 3 45 0 1 3 3v1e-7h-2.4008l3.1865 3 2.9897-3h-2.2754v-4e-7a4.5 4.5 45 0 0-4.5-4.5zm1.5 1.5e-6v-2.4008l-3 3.1865 3 2.9897v-2.2754" stop-color="#1c1c1c"/>
  </g>
 </g>
</svg>
