<svg version="1.1" viewBox="0 0 16 16" xmlns="http://www.w3.org/2000/svg">
 <path d="m0 0h16v16h-16z" opacity="0"/>
 <path d="m12.866 1.9422-0.14369 0.29133-0.32061 0.047025 0.23327 0.22547-0.055296 0.31954 0.28601-0.15077 0.28863 0.15101-0.056476-0.32018 0.23379-0.22531-0.32224-0.047978zm1.2761 1.2755-0.14369 0.29133-0.32217 0.045959 0.2322 0.22704-0.05423 0.31798 0.28757-0.1497 0.286 0.15151-0.053848-0.32068 0.23222-0.22638-0.32068-0.046912zm-0.86256 0.032435c-0.68134-0.2987-1.4721-0.30973-2.1608-0.028377-0.44556 0.18203-0.82635 0.49029-1.1216 0.86571 0.17532 0.088668 0.33889 0.19411 0.49262 0.3153 0.2298-0.27699 0.51769-0.50747 0.84795-0.64239 0.53782-0.21972 1.1769-0.21067 1.709 0.0226zm-0.27275 0.83995-0.14369 0.29133-0.32061 0.047025 0.2322 0.22704-0.055297 0.31954 0.28708-0.15233 0.28756 0.15257-0.053848-0.32068 0.23222-0.22638-0.32174-0.045349zm-2.9499 0.31287c-0.29051-0.18355-0.61579-0.3162-0.95378-0.42823l-0.55321 0.8113a4.9396 4.9396 0 0 0-5.9581 1.7791 4.9396 4.9396 0 0 0 1.2984 6.8647 4.9396 4.9396 0 0 0 6.8647-1.2984 4.9396 4.9396 0 0 0-0.5021-6.182l0.55428-0.81287c-0.20316-0.31515-0.4596-0.55008-0.75012-0.73362zm-5.5481 1.2114c0.25614 0.24286 0.42344 0.39693 0.61909 0.6168 0.097327 0.11057 0.072645 0.22033-0.020832 0.28579-0.45888 0.19883-0.9798 0.69805-1.1001 0.77042-0.093526 0.065498-0.20108 0.070612-0.24259 0.013206-0.18348-0.20628-0.37079-0.48389-0.49247-0.6816-0.055372-0.082758-0.042395-0.18576 0.035682-0.25047 0.2455-0.27439 0.77413-0.66037 0.92107-0.7597 0.078126-0.064752 0.22358-0.052395 0.28018 0.0055548zm-1.3302 1.3967a0.25177 0.41801 34.289 0 1 0.015632 0.010659 0.25177 0.41801 34.289 0 1-0.026596 0.48567 0.25177 0.41801 34.289 0 1-0.44348 0.2037 0.25177 0.41801 34.289 0 1 0.027663-0.48724 0.25177 0.41801 34.289 0 1 0.42678-0.2128z"/>
</svg>
