<svg version="1.1" viewBox="0 0 16 16" xmlns="http://www.w3.org/2000/svg">
 <path d="m0 0h16v16h-16z" opacity="0"/>
 <g>
  <path d="m0.54623 14.376c-0.077109-0.11652-0.091313-0.25395-0.038484-0.37234 0.023246-0.052092 0.47773-0.81088 1.01-1.6862 0.53224-0.87532 1.5028-2.4722 2.1569-3.5486 0.65403-1.0764 1.411-2.3219 1.6822-2.7678 0.27119-0.44588 0.5231-0.84004 0.55979-0.87591 0.087742-0.085782 0.18643-0.11608 0.34151-0.10487 0.096442 0.00698 0.14812 0.02432 0.21544 0.072316 0.091629 0.065322 0.17765 0.20462 3.0036 4.8641 0.41058 0.67695 0.7536 1.2286 0.76228 1.2259 0.0087-0.0027 0.33773-0.52271 0.73122-1.1555l0.71544-1.1506 0.11677-0.059146c0.14748-0.074693 0.27414-0.076988 0.42304-0.00766 0.06032 0.028086 0.12911 0.078801 0.15286 0.1127 0.02375 0.033899 0.55412 0.88426 1.1786 1.8897 0.62449 1.0054 1.3087 2.1064 1.5204 2.4465 0.21175 0.34014 0.399 0.65194 0.41611 0.6929 0.03906 0.09348 0.03976 0.20736 0.0018 0.29698-0.02979 0.07038-0.11316 0.15974-0.13172 0.14118-0.0056-0.0056-0.67419-1.079-1.4857-2.3853-0.81153-1.3063-1.4964-2.3982-1.522-2.4263-0.16183-0.17834-0.52934-0.17181-0.68182 0.012103-0.02908 0.035074-0.36258 0.56339-0.74109 1.174-0.51268 0.82709-0.6942 1.1037-0.71168 1.0845-0.0129-0.01416-0.0963-0.14672-0.18533-0.29458-0.91858-1.5256-3.4515-5.6785-3.4872-5.7175-0.08062-0.088118-0.20676-0.13904-0.34154-0.13789-0.17111 0.0014768-0.29575 0.076807-0.40002 0.24181-0.043378 0.068651-1.2257 2.0129-2.6274 4.3205-1.4017 2.3076-2.5557 4.1958-2.5644 4.1961-0.008707 2.01e-4 -0.040055-0.0362-0.069672-0.08095zm11.65-9.0589c0-0.041404 0.0044-0.058341 0.0098-0.037638 0.0055 0.020703 0.0055 0.054574 0 0.075277-0.0054 0.020695-0.0098 0.00376-0.0098-0.037638zm0.44948-0.77849c-0.00537-0.10997-0.13814-0.43166-0.2427-0.58799-0.3037-0.45408-0.77626-0.66553-1.2512-0.55987-0.09028 0.020078-0.16876 0.044009-0.17442 0.053165-0.0056 0.00916-0.07602 0.00282-0.15634-0.01411-0.09227-0.019427-0.21536-0.027059-0.33423-0.020722-0.1035 0.0055-0.18819 0.00316-0.18819-0.00524 0-0.026462 0.17301-0.26617 0.25484-0.35308 0.17558-0.18648 0.47567-0.33679 0.73446-0.36788 0.25712-0.030885 0.59929 0.0786 0.83227 0.2663 0.3869 0.3117 0.6189 0.94571 0.54774 1.4969-0.01068 0.082801-0.02071 0.12443-0.02226 0.092529zm-1.0363-0.67858-0.07412-0.080647 0.08065 0.074115c0.07507 0.06898 0.09054 0.087178 0.07412 0.087178-0.0037 0-0.03989-0.036289-0.08066-0.080647z" opacity=".3"/>
  <path d="m13.435 12.656c-0.35092-0.56477-0.71785-1.1558-0.81538-1.3134l-0.17733-0.28657 0.04773-0.09825c0.02689-0.05534 0.05566-0.08986 0.06586-0.07904 0.01328 0.01408 1.6207 2.5956 1.7295 2.7774 0.01205 0.02015-0.01251 0.02686-0.09811 0.0268l-0.11418-6.7e-5 -0.63805-1.0269zm-5.209-2.4049-1.2866-2.1171 0.064234-0.073163c0.03533-0.040236 0.081956-0.10316 0.10362-0.13983 0.021662-0.036672 0.047217-0.06406 0.056783-0.060871 0.00957 0.00315 0.58747 0.94388 1.2842 2.0904 1.0639 1.7507 1.2633 2.0912 1.2448 2.1257-0.012096 0.02261-0.057676 0.09752-0.10128 0.16648l-0.079278 0.12538z" opacity=".6"/>
  <path d="m0.69193 15.189c-0.12149-0.073879-0.18664-0.1844-0.19534-0.33133l-0.0078-0.13183 0.24729-0.40863c0.13601-0.22474 1.35-2.2232 2.6978-4.4411 2.3583-3.8808 2.4544-4.0349 2.5533-4.0967 0.082977-0.051822 0.12592-0.064006 0.22329-0.063348 0.13436 9.398e-4 0.27297 0.060213 0.33896 0.14504 0.021823 0.028046 0.85746 1.3976 1.857 3.0435 0.99952 1.6459 1.825 2.9901 1.8343 2.9871 0.0094-3e-3 0.33848-0.52265 0.73137-1.1549 0.66065-1.0631 0.7219-1.1541 0.81483-1.2116 0.14271-0.088232 0.32224-0.088272 0.4653 0 0.09496 0.058515 0.18877 0.20372 1.6652 2.5776 0.86055 1.3836 1.5752 2.5539 1.5882 2.6007 0.06416 0.23216-0.16431 0.49915-0.41132 0.48067l-0.08921-0.0067-0.46104-0.74198-0.46104-0.74198 0.1081-0.0065c0.05945-0.0036 0.10809-0.01187 0.10809-0.01844 0-0.02273-1.7464-2.8247-1.7603-2.8243-0.0077 2.69e-4 -0.03355 0.04556-0.05751 0.10072l-0.04355 0.10032-0.15878-0.25664c-0.08733-0.14115-0.1742-0.27495-0.19302-0.29733-0.0557-0.06618-0.24015-0.1417-0.34609-0.1417-0.12689 0-0.30223 0.08271-0.37036 0.1747-0.02942 0.03972-0.3708 0.58514-0.75865 1.2121-0.38784 0.62692-0.71642 1.1521-0.73017 1.1671-0.019548 0.02134-0.061623-0.03351-0.19284-0.25139l-0.16784-0.27869 0.1014-0.16268c0.05577-0.08948 0.09663-0.1751 0.09081-0.19028-0.0058451-0.015176-0.38087-0.63695-0.83343-1.3817-0.45256-0.74477-1.0213-1.6808-1.2639-2.08-0.24261-0.39921-0.44685-0.72554-0.45388-0.72516-0.00703 6.712e-4 -0.05497 0.063281-0.10654 0.13979-0.051567 0.076512-0.10114 0.13911-0.11016 0.13911-0.00902 0-0.13856-0.20187-0.28786-0.44859-0.14931-0.24673-0.29813-0.47552-0.33072-0.50842-0.17593-0.17762-0.53461-0.15664-0.68069 0.039807-0.039008 0.052461-4.1384 6.7892-4.7551 7.8144l-0.13198 0.21938zm11.358-9.0389c0.11063-0.25039 0.15127-0.47481 0.15092-0.83338-6.7e-4 -0.40751-0.045028-0.61412-0.20252-0.93761-0.20352-0.41802-0.51403-0.72278-0.89389-0.87732l-0.12154-0.049446 0.10414-0.030234c0.16408-0.047634 0.50647-0.037464 0.66331 0.019702 0.30317 0.11051 0.5786 0.37136 0.74019 0.70102 0.11714 0.23897 0.15332 0.38848 0.16734 0.69141 0.01957 0.4231-0.07401 0.7664-0.29449 1.0803-0.09363 0.13333-0.30849 0.34842-0.34804 0.34842-0.0084 0 0.0071-0.050809 0.03457-0.11291z"/>
 </g>
</svg>
