<svg version="1.1" viewBox="0 0 16 16" xmlns="http://www.w3.org/2000/svg">
 <path d="m0 0h16v16h-16z" opacity="0"/>
 <path d="m1.5382 1.5014v2.2002h0.38878v-0.94314h0.77799v-0.31395h-0.77799v-0.62876h0.77799v-0.31438h-0.77799zm1.1668 0.31438v0.62876h0.38878v-0.62876zm0 0.94271v0.94314h0.38878v-0.94314zm5.6399 0.085154c-0.67065 0-1.2107 0.54-1.2107 1.2106v0.62919c-0.50286-0.12682-0.75873-0.37411-1.0795-0.67392-0.4658-0.43539-1.0981-1.0016-2.3452-1.0016v0.87089c1.0208 0 1.2709 0.31817 1.7508 0.76681 0.36616 0.34226 0.85711 0.74429 1.6738 0.91605v0.98357c-0.44579-0.012948-0.74796-0.040137-0.94614-0.072253-0.27626-0.044772-0.34291-0.082054-0.4619-0.14235-0.11899-0.0603-0.31591-0.16083-0.61501-0.21159-0.29909-0.050768-0.7085-0.070443-1.4016-0.0529l0.022019 0.87003c0.66605-0.016867 1.0326 0.00712 1.2339 0.041287 0.2013 0.03417 0.22883 0.059724 0.36729 0.12988 0.13844 0.070156 0.36205 0.16756 0.71605 0.22493 0.25884 0.041948 0.60083 0.071423 1.0855 0.084295v1.7491c-0.48467 0.012882-0.82666 0.041916-1.0855 0.083864-0.35401 0.05737-0.57762 0.15477-0.71605 0.22493-0.13846 0.070156-0.16598 0.09571-0.36729 0.12988-0.2013 0.034175-0.56782 0.058148-1.2339 0.041283l-0.022019 0.87046c0.69309 0.01755 1.1025-0.0026 1.4016-0.05333 0.29909-0.05077 0.49601-0.15129 0.61501-0.2116 0.11899-0.0603 0.18565-0.09758 0.4619-0.14235 0.19818-0.03212 0.50035-0.05858 0.94614-0.0714v0.98271c-0.81671 0.17188-1.3077 0.57422-1.6738 0.91648-0.47996 0.44865-0.72997 0.76681-1.7508 0.76681v0.87046c1.2471 0 1.8794-0.56581 2.3452-1.0012 0.32074-0.2998 0.5766-0.5474 1.0795-0.67435v0.62962c0 0.67065 0.54001 1.2106 1.2107 1.2106h1.5904c0.67065 0 1.2102-0.54 1.2102-1.2106v-3.3666h1.1922v1.2476l2.1241-2.1177-2.1241-2.1177v1.2472h-1.1922v-3.3666c0-0.67065-0.53957-1.2106-1.2102-1.2106zm-6.4179 2.1293v0.31438h0.77755v-0.31438h-0.38878zm0 0.31438h-0.38878v1.571h0.38878v-1.2571zm0 1.571v0.31438h0.77755v-0.31438h-0.38878zm0.77755 0h0.38922v-0.94271h-0.77799v0.31438h0.38878v0.31438zm6.9809-0.94314h0.49372c0.09628-2.65e-5 0.1744 0.077715 0.17459 0.17375v0.43308c-1.92e-4 0.096033-0.07831 0.17377-0.17459 0.17375h-0.49932c-0.16286 0-0.24307 0.037867-0.2658 0.06064-0.019818 0.021293-0.059343 0.11209-0.059343 0.28643v0.10623h0.68554c0.09629-3.86e-5 0.17442 0.077707 0.17462 0.17375v0.098055c0.0072 0.31681-0.0063 0.36879-0.06108 0.4391-0.03159 0.027118-0.07186 0.042068-0.11353 0.042148h-0.68554v2.5912c-1.912e-4 0.09603-0.078311 0.17378-0.17459 0.17375h-0.5247c-0.096282 2.6e-5 -0.1744-0.07772-0.17459-0.17375v-2.5912h-0.32514c-0.096287-2.039e-4 -0.17422-0.07814-0.17417-0.17418v-0.40512c1.902e-4 -0.095871 0.078055-0.17355 0.17417-0.17375h0.32514v-0.046878c0-0.37956 0.088893-0.68871 0.29889-0.89368 0.20954-0.20628 0.52193-0.29331 0.90573-0.29331zm-8.1472 2.5288v2.2002h1.1663v-0.31438h-0.77755v-0.62876h0.77755v-0.31395h-0.77755v-0.62876h0.77755v-0.31438h-0.77755zm1.1663 0.31438v0.62876h0.38922v-0.62876zm0 0.94271v0.62876h0.38922v-0.62876zm-0.77755 2.2144v0.31395h0.77755v-0.31395h-0.38878zm0 0.31395h-0.38878v1.8859h0.38878v-0.94271h0.77755v-0.31438h-0.77755v-0.31438zm0.77799 0v1.8859h0.38878v-1.8859z"/>
</svg>
