<svg version="1.1" viewBox="0 0 16 16" xmlns="http://www.w3.org/2000/svg">
 <path d="m0 0h16v16h-16z" opacity="0"/>
 <path d="m4.7769 15.457c-0.031537-0.03751 0.059891 0.03203 0 0zm1.2787-8.7287c-0.63205-0.44407-1.2508-0.90835-1.8888-1.3431-0.70596 0.3156-1.4056 0.64802-2.1088 0.97084-0.12942-0.026804 0.090176-0.32375 0.091107-0.44737 0.19973-0.57343 0.39721-1.1484 0.58956-1.7239-0.12893-0.21306-0.35864-0.38399-0.52787-0.57856-0.35953-0.37522-0.73251-0.73813-1.0831-1.1216 0.20077-0.05729 0.51225-0.00886 0.75543-0.02396 0.54268 6.533e-4 1.0854 0.00472 1.628 0.0014 0.37779-0.67346 0.75184-1.3544 1.1352-2.0213 0.10741 0.16305 0.13554 0.39411 0.21408 0.58196 0.17874 0.5375 0.34447 1.0855 0.53472 1.6148 0.43086 0.10091 0.87522 0.16101 1.3115 0.24702 0.34088 0.067096 0.69115 0.11661 1.026 0.19401-0.198 0.19003-0.4612 0.32851-0.68413 0.49885-0.41046 0.2894-0.83017 0.56653-1.2335 0.86558 0.00491 0.2624 0.06614 0.53843 0.093132 0.80604 0.069845 0.49825 0.13407 0.9976 0.20274 1.4959l-0.00914 0.00523-0.046166-0.021822s0 4.6e-6 1e-7 4.6e-6zm6.2327-0.14076c-0.21373-0.0298-0.48058-0.059749-0.31946-0.33417 0.0645-0.261 0.11114-0.52737 0.18896-0.78452 0.1981 0.026309 0.56783 0.020014 0.38891 0.3173-0.06635 0.26587-0.11075 0.53911-0.19421 0.7995l-0.01205 0.00868s-0.05215-0.00677-0.05215-0.00677zm-1.0887-0.018929c-0.17934 7.159e-4 -0.39186-0.02043-0.2847-0.25196 0.02625-0.27025 0.07035-0.5412 0.08479-0.81107-0.15921-0.070299-0.51318-0.28476-0.22782-0.4376 0.20108-0.20676 0.38588-0.43202 0.59739-0.62698 0.16769 0.11964 0.47384 0.30186 0.16918 0.46849-0.1616 0.18355-0.34122 0.35193-0.49441 0.54227 0.08578 0.094022 0.42819-0.044529 0.4154 0.14067-0.04129 0.32679-0.06836 0.65554-0.11736 0.98131-0.04751 0.00147-0.09545 0.00387-0.14247-0.00514zm2.1679-3.907e-4c-0.20578 0.012962-0.38093-0.029855-0.29047-0.27132 0.02011-0.25475 0.06151-0.51243 0.06223-0.76579-0.10774-0.14623-0.48074-0.24919-0.2072-0.43924 0.18941-0.21664 0.35898-0.45348 0.55743-0.6605 0.16783 0.10137 0.4977 0.26589 0.20682 0.44779-0.15449 0.1982-0.33246 0.38348-0.47321 0.58922 0.17663 0.030752 0.48816-0.029337 0.3704 0.2529-0.02618 0.28432-0.05477 0.56833-0.08274 0.85248-0.0478 0.00202-0.09591 0.00285-0.14327-0.00552zm-3.4786-0.016505c-0.024227-0.36004-0.010882-0.72262-0.016796-1.0838-0.17072-0.12634 0.042003-0.45829 0.019089-0.66031 0.064612-0.22031 0.089553-0.46159-0.1673-0.49016 0.089725-0.32493 0.21578-0.64169 0.3031-0.96852-0.19292 0.0029145-0.28891-0.099657-0.20299-0.28636 0.04277-0.26162 0.098363-0.52174 0.12563-0.78536-0.1188-9.117e-4 -0.050039-0.14119-0.067978-0.22053v-0.86729h0.43932v1.0692c-0.26661 0.013165 0.2262 0.017172 0.07145 0.20548-0.04706 0.29255-0.106 0.58396-0.14522 0.87731 0.10547 0.073799 0.31934 0.088379 0.18356 0.27284-0.08329 0.26372-0.18576 0.52215-0.25237 0.79071 0.13176 0.029854 0.2945 0.03844 0.20374 0.22536-0.03396 0.28089-0.10203 0.55968-0.11632 0.84163 0.10859 0.011181 0.03254 0.16552 0.05516 0.24426v0.83844c-0.14394-1.79e-4 -0.28854 0.00838-0.43207-0.00295zm1.9507-1.1568c-0.07582-0.15823-0.33442-0.37191-0.01964-0.43427 0.2582-0.14043 0.50786-0.29847 0.77296-0.42513 0.1308 0.16501 0.35553 0.42103 0.02456 0.49188-0.24704 0.13326-0.48561 0.28439-0.7385 0.40551l-0.0179-0.011163-0.02147-0.026835v3e-7zm-3.8155-0.29282c-0.36047 0.086433-0.1446-0.36634-0.25393-0.51603-0.18318-0.0090665-0.36663-0.010774-0.54995-0.015475 0.010327-0.17669-0.14597-0.61035 0.17574-0.53066 0.19215-0.014298 0.54663 0.107 0.44619-0.21662-0.013751-0.20195-0.054423-0.4829 0.24499-0.40119 0.22362-0.048585 0.41513-0.010762 0.33805 0.25806-0.030345 0.21286-0.010842 0.42537 0.26467 0.35201 0.17776 0.015373 0.46744-0.059651 0.37882 0.22218 6.265e-4 0.098484 8.055e-4 0.19697 0.00122 0.29545-0.20374 0.00837-0.40859 0.00409-0.61122 0.028639v0.53462c-0.14497 0.0031532-0.2899-7.992e-4 -0.43455-0.010993zm2.6595-0.89833c-0.09599-0.14881-0.17696-0.32319 0.06709-0.35571 0.26844-0.11394 0.52824-0.24922 0.80057-0.35313 0.0646 0.28744 0.33796 0.20661 0.56345 0.19938 0.20182 0.032672 0.51796-0.092032 0.64964 0.050825 0.0036 0.1779 0.07275 0.46679-0.20757 0.38437-0.29386 0.00832-0.58781 0.013958-0.88151 0.027018-0.0096-0.12926 0.0045-0.29009-0.16056-0.16043-0.25287 0.11269-0.50331 0.23178-0.75833 0.33895-0.03054-0.040053-0.05-0.086815-0.07279-0.13127zm2.4181-0.00954c-0.07789-0.14959-0.30924-0.3737-0.02554-0.43518 0.26174-0.14011 0.51747-0.29258 0.78222-0.42642 0.12083 0.17413 0.34822 0.43025 0.01396 0.49974-0.24492 0.12968-0.48252 0.27862-0.73268 0.39498 0 0-0.01946-0.00897-0.01946-0.00897s-0.01851-0.024156-0.01851-0.024156zm-2.3155-0.97271c-0.14234-0.093155-0.2088-0.21886-0.024113-0.31231 0.21-0.19753 0.40563-0.41155 0.6243-0.59902 0.12009 0.097479 0.4638 0.29499 0.19187 0.4342-0.21347 0.20459-0.41777 0.4194-0.63788 0.61667-0.05457-0.042673-0.10337-0.09253-0.15416-0.13955zm2.2995 0.11937c-0.14244-0.12113-0.42062-0.26998-0.14366-0.42928 0.18116-0.20423 0.37285-0.40002 0.54478-0.61191-0.18626-0.054407-0.56294 0.028364-0.41768-0.28845 0.04089-0.27459 0.05298-0.55703 0.1124-0.82663 0.1819 0.014777 0.56157-0.044664 0.41922 0.25478-0.02997 0.27923-0.0725 0.55715-0.10125 0.83633 0.13223 0.11769 0.50246 0.28439 0.21803 0.45289-0.19425 0.20786-0.37102 0.4357-0.5793 0.62837 0 0-0.0255 7.367e-4 -0.0255 7.367e-4l-0.02704-0.016831zm-1.2542-0.082249c-0.06405-0.16041-0.32865-0.4198-0.01387-0.4664 0.26937-0.12405 0.52864-0.27224 0.80351-0.38271 0.0858 0.16108 0.33106 0.4247 0.01854 0.48003-0.26407 0.12354-0.51902 0.26936-0.79077 0.3747l-0.01741-0.00562zm0.41852-0.96309c-0.17101-0.050977-0.46675-0.052374-0.30464-0.30272 0.08411-0.27182 0.14098-0.55497 0.24335-0.81927 0.18092 0.043199 0.56964 0.040332 0.37138 0.32806-0.08265 0.26666-0.13834 0.5465-0.23872 0.80466-0.02326 0.013789-0.04836-0.013818-0.07138-0.010731zm-1.0314-0.012987c-0.21881 0.00383-0.43643-0.047344-0.30689-0.31269 0.04407-0.26019 0.06677-0.52575 0.12363-0.78277 0.18794 0.00115 0.56769-0.023973 0.41508 0.27642-0.03735 0.26827-0.08304 0.53556-0.11665 0.80418-0.02325 0.040412-0.07997 0.013953-0.11516 0.01487zm-0.59321 13.069c-0.19675-0.09358-0.51069 0.0025-0.6141-0.25042-0.14285-0.1631 0.0078-0.46888-0.17527-0.56832-0.22521 0.10937-0.45101 0.18889-0.69939 0.22201-0.28621 0.11629-0.39176-0.21141-0.50803-0.39992-0.12751-0.18897-0.34516-0.20698-0.52848-0.31277-0.26767-0.10346-0.19779-0.39947 0.043899-0.47649 0.16724-0.12075 0.11169-0.5339-0.11427-0.27048-0.20067 0.07036-0.14673 0.56131-0.43081 0.38251-0.19611-0.16076-0.53068-0.22572-0.72612-0.03256-0.044384 0.18744 0.20015 0.36575 0.072419 0.55163-0.23218 0.14097-0.47719-0.18763-0.71152-0.03473-0.20214 0.15672-0.47685 0.10086-0.70844 0.05982-0.28459-0.11287-0.35034 0.21291-0.18913 0.37552-0.01311 0.27401 0.4621 0.37884 0.38894 0.58959-0.22722 0.08358-0.4721 0.06286-0.67773-0.06876-0.10722-0.04802-0.27852-0.18488-0.078606-0.09002 0.11433 0.10331 0.50264 0.19143 0.35725-0.07292-0.07291-0.22806-0.17768-0.43157-0.27476-0.64897-0.10804-0.30393 0.34594-0.33608 0.37906-0.59017-0.048934-0.22847-0.082119-0.45205 0.084615-0.64004 0.013557-0.23234-0.087734-0.50786 0.13804-0.67608 0.2241-0.19062-0.17187-0.36804-0.045188-0.55383 0.22396-0.1883-0.057219-0.3875-0.24428-0.43595-0.2004-0.053877-0.48673 0.029494-0.61034-0.1814-0.079002-0.2866 0.060428-0.5601 0.35161-0.63606 0.1392-0.20607-0.16586-0.3519-0.34462-0.27171-0.25-0.03625-0.57512 0.01322-0.74471-0.22002-0.05289-0.16524-0.18689-0.31886-0.34248-0.17319 0.042936-0.22902 0.19314-0.42921 0.41632-0.51493 0.2164-0.12454 0.47328 0.015698 0.59341 0.20309 0.1352 0.30556 0.48722 0.10693 0.68633-0.017966 0.19979-0.083093 0.39649-0.44457 0.61921-0.23099-0.02029 0.21894-0.19733 0.59583 0.18356 0.6043 0.25826 0.090064 0.55678-0.11542 0.52596-0.40032 0.22913-0.22015 0.37601 0.20666 0.49324 0.35586 0.18957 0.25854 0.22955-0.27899 0.12052-0.39251-0.047034-0.21239-0.23848-0.019174-0.3707-0.18705-0.20626 0.048454-0.4895-0.12924-0.3845-0.36757 0.12841-0.25046 0.42061-0.0069026 0.60353 0.036967 0.085517 0.083282 0.15621 0.12899 0.12304 0.16443 0.18872 0.079746 0.37378-0.17454 0.32644-0.36446-0.047434-0.2428-0.14478-0.54655 0.041248-0.75355 0.25145-0.11539 0.33154-0.36764 0.28865-0.6266 0.00311-0.26761 0.01736-0.53812 0.071336-0.79963 0.094241-0.068428 0.16564 0.3071 0.18576 0.40822-0.14506 0.23483 0.096598 0.44328 0.25106 0.60475 0.17978 0.12901 0.43052 0.14396 0.58921 0.31866 0.2352 0.18416 0.00161 0.45397-0.073959 0.65502 0.046044 0.24223-0.53812 0.3469-0.18034 0.53239 0.21123 0.12217 0.41483 0.25861 0.6387 0.35778 0.18833 0.13135 0.42206 0.33952 0.26002 0.58294-0.090036 0.18146-0.065971 0.32591 0.16076 0.25238 0.20035-0.07435 0.03182-0.30975 0.18339-0.43009 0.19666-0.10482 0.43032 0.05028 0.59716 0.16403 0.05267 0.08666 0.05707 0.35724 0.2227 0.24574-0.02961-0.2195 0.20934-0.4107 0.36885-0.18666 0.18838 0.21494 0.52512 0.12811 0.68899-0.07215 0.2784-0.16887 0.43094 0.1848 0.60992 0.32631 0.09405 0.11958 0.3335 0.13468 0.38916 0.22036-0.2714 0.01712-0.51737-0.12517-0.74774-0.2403-0.20168-0.03478-0.64104 0.06455-0.51544 0.34806 0.08563 0.22575 0.29187 0.34186 0.45712 0.48425 0.06538 0.29954-0.32183 0.33856-0.53312 0.33753-0.2166 0.02991-0.60042-0.20363-0.68101 0.1004-0.05954 0.12375-0.20404 0.06029-0.31093 0.07791-0.21858 0.01163-0.48816 0.08598-0.58752 0.29635 0.061671 0.20762 0.084612 0.42569 0.13885 0.63155 0.11779 0.16351 0.21896 0.46739-0.03069 0.56494-0.2913 0.14438-0.02267 0.46234 0.04894 0.66134-0.01094 0.25023 0.18072 0.43674 0.22811 0.6707-0.07301 0.17938-0.34005 0.34681-0.2073 0.56295 0.15558 0.03719 0.47253 0.0855 0.4642 0.23931zm-5.8151 0.13404c0.020981-0.03458 0.049579 0.034 0 0zm9.3904-8.9328c-0.0342-0.26904-0.01005-0.54905-0.01671-0.82295-0.01271-0.084638 0.02628-0.1917-0.02107-0.2613-0.06868-0.20836 0.0409-0.46358 0.03646-0.68906 0.0066-0.17067 0.11804-0.42663-0.13585-0.44005 0.06745-0.33577 0.17856-0.66428 0.23982-1.0019-0.26598 0.032905-0.14813-0.25115-0.1369-0.41716 0.01943-0.21464 0.06638-0.42877 0.06763-0.64377-0.09913-0.033417-0.02925-0.17188-0.05011-0.25485 0.0057-0.27686-0.01502-0.55762 0.01511-0.83136 0.20255-0.00723 0.5443-0.080317 0.44294 0.2417 6.86e-4 0.27379 2.97e-4 0.54758 3.58e-4 0.82138-0.15072 0.014416 0.16624 0.047817 0.04538 0.18564-0.02979 0.30568-0.09294 0.61131-0.09797 0.91757 0.13073 0.034447 0.23043 0.07361 0.13417 0.22415-0.06417 0.27575-0.15267 0.54686-0.19962 0.82587 0.28438-0.0114 0.11064 0.32533 0.12131 0.50565-0.0088 0.21623-0.08804 0.45763-0.0033 0.63657v0.99187c-0.14168 0.030822-0.29689 0.01543-0.44169 0.01204z"/>
</svg>
