<svg version="1.1" viewBox="0 0 16 16" xmlns="http://www.w3.org/2000/svg">
 <path d="m0 0h16v16h-16z" opacity="0"/>
 <g>
  <path d="m4.7994 6.1025c-0.48432-0.16496-0.816-0.55253-0.89272-1.0432-0.079608-0.50912 0.19112-1.0527 0.65601-1.3171 0.37239-0.21181 0.87004-0.21933 1.2658-0.019101 0.67804 0.34305 0.90845 1.2323 0.484 1.8679-0.3256 0.48758-0.95678 0.70095-1.5131 0.51149z" opacity=".2"/>
  <path d="m6.2099 10.068c-0.44873-0.062362-0.83841-0.18098-1.243-0.37837-1.1258-0.54923-1.8877-1.5274-2.1508-2.7614-0.072592-0.34045-0.065837-1.232 0.011809-1.5584 0.18227-0.76634 0.53055-1.3984 1.0661-1.9347 0.54868-0.54947 1.223-0.91433 2.0192-1.0925 0.221-0.049458 0.33526-0.05757 0.807-0.057276 0.50888 0 0.57281 0.00573 0.86359 0.073565 1.55 0.36142 2.689 1.5067 3.0274 3.044 0.07763 0.35266 0.084 1.1647 0.01177 1.4993-0.18066 0.83685-0.49991 1.4288-1.0878 2.0169-0.58655 0.58683-1.2132 0.92779-2.0225 1.1004-0.27907 0.05954-1.0241 0.08734-1.3028 0.04862zm-0.65243-3.9409c0.60175-0.17865 0.96646-0.65156 0.96646-1.2532 0-0.60095-0.38702-1.1017-0.9717-1.2574-0.18437-0.049073-0.49655-0.048067-0.68965 0.0021965-0.62238 0.16211-1.0541 0.81242-0.95592 1.44 0.034959 0.22356 0.16689 0.50785 0.3107 0.66956 0.32061 0.36049 0.89409 0.53111 1.3401 0.39871z" opacity=".5"/>
  <path d="m6.851 11.69c-1.6357-0.14264-3.1289-1.0901-3.9422-2.5015-0.46364-0.8046-0.6757-1.6663-0.64306-2.613 0.022676-0.65779 0.15029-1.2332 0.3999-1.8032 0.98951-2.2594 3.5105-3.4585 5.9387-2.8245 1.3897 0.36284 2.5893 1.3455 3.2208 2.6385 0.72925 1.4931 0.65467 3.2544-0.19782 4.6718-0.57013 0.94789-1.4149 1.6703-2.4305 2.0785-0.72081 0.28969-1.5849 0.41992-2.3458 0.35357zm0.66161-1.6704c0.80929-0.17264 1.4359-0.5136 2.0225-1.1004 0.58787-0.58814 0.90711-1.1801 1.0878-2.0169 0.072232-0.33457 0.065862-1.1466-0.011767-1.4993-0.22648-1.0289-0.81001-1.8897-1.6666-2.4584-0.43608-0.28952-0.84413-0.46511-1.3608-0.58559-0.29078-0.067808-0.35472-0.073254-0.86359-0.073565-0.47174 0-0.586 0.00785-0.807 0.057276-0.79621 0.17818-1.4706 0.54304-2.0192 1.0925-0.53554 0.53634-0.88382 1.1684-1.0661 1.9347-0.077646 0.32646-0.0844 1.218-0.011809 1.5584 0.35791 1.6786 1.6799 2.9016 3.3938 3.1398 0.27862 0.03872 1.0237 0.01091 1.3028-0.04863z" opacity=".7"/>
  <path d="m7.2567 14.723c-0.84594-0.087001-1.626-0.31371-2.4207-0.70349-1.4019-0.68764-2.5256-1.8061-3.1937-3.179-0.31522-0.64773-0.51699-1.2879-0.63102-2.0019-0.074579-0.46701-0.06798-1.59 0.012061-2.0543 0.12606-0.73119 0.30569-1.2914 0.62088-1.9365 1.0104-2.068 3.003-3.4998 5.3559-3.8485 0.39133-0.057995 1.1964-0.077482 1.6183-0.039162 1.7059 0.15493 3.2138 0.85743 4.4097 2.0544 0.59418 0.59471 0.97761 1.1291 1.3342 1.8595 0.31239 0.63977 0.52374 1.3323 0.63097 2.0674 0.06344 0.43496 0.06344 1.3707 0 1.8057-0.43481 2.9809-2.6882 5.3263-5.6562 5.887-0.58867 0.11121-1.4897 0.14975-2.0805 0.08898zm0.86358-3.0871c1.4877-0.24975 2.7361-1.0962 3.5071-2.3781 1.1762-1.9555 0.8384-4.466-0.8152-6.0593-1.3681-1.3182-3.3288-1.7606-5.1387-1.1592-1.7426 0.57897-3.0283 2.0641-3.349 3.8684-0.097713 0.54986-0.080352 1.3089 0.043104 1.8837 0.26607 1.239 1.0514 2.3714 2.1413 3.0877 1.0499 0.68994 2.3663 0.96583 3.6114 0.75681z"/>
 </g>
</svg>
