<svg version="1.1" viewBox="0 0 16 16" xmlns="http://www.w3.org/2000/svg">
 <path d="m0 0h16v16h-16z" opacity="0"/>
 <path d="m0.83696 14.532c-0.046739-0.012366-0.11515-0.056988-0.1724-0.11246-0.10794-0.10458-0.14955-0.2175-0.12946-0.3514 0.018378-0.12254 5.3302-8.8659 5.4587-8.9852 0.15733-0.146 0.38346-0.15675 0.56289-0.026767 0.06071 0.043976 0.42349 0.6279 1.916 3.084 1.0126 1.6664 1.8475 3.0232 1.8553 3.0153 0.0078-0.0079 0.32031-0.50735 0.6945-1.1098 0.3742-0.60246 0.70317-1.1256 0.73105-1.1625 0.0287-0.038001 0.09804-0.088804 0.15978-0.11706 0.14388-0.065876 0.3029-0.055495 0.43975 0.028703 0.08744 0.053802 0.18135 0.19938 1.6424 2.546 0.85234 1.3689 1.5669 2.5248 1.5879 2.5686 0.07199 0.15035 0.0386 0.32435-0.0862 0.44916-4.7343 0.14651-8.4251 0.16385-14.66 0.17349zm8.4355-1.6682c0.28292-0.45458 0.51219-0.84042 0.5095-0.85743-0.005539-0.035076-2.5284-4.1989-2.5449-4.2003-0.0059124-6.223e-4 -0.047741 0.055116-0.092998 0.12358-0.14309 0.21645-0.34775 0.37461-0.57914 0.44755-0.092077 0.029027-0.10464 0.039002-0.093558 0.074302 0.026649 0.084889 0.03342 0.34687 0.011601 0.44862-0.050498 0.23547-0.21846 0.45805-0.4068 0.53906-0.079574 0.034236-0.12839 0.041355-0.24082 0.035119-0.17109-0.0094847-0.26881-0.053255-0.39135-0.1753-0.30231-0.30107-0.30696-0.85412-0.0098581-1.1717l0.091119-0.097423-0.087024-0.12977-0.087024-0.12978-1.7951 2.954c-0.98732 1.6247-1.7951 2.959-1.7951 2.9651 0 0.0062 1.5744 0.0089 3.4986 0.0061l3.4986-0.0049zm5.1118 0.78009c-0.0036-0.0092-0.39988-0.64882-0.8805-1.4216l-0.87386-1.405-0.06949 0.1389c-0.22904 0.45782-0.71512 0.60575-1.116 0.33964-0.06044-0.04013-0.11355-0.06299-0.12296-0.05294-0.02243 0.02396-1.4946 2.3957-1.4946 2.4079 0 0.0053 1.0269 0.0097 2.282 0.0097 1.2551 0 2.279-0.0075 2.2754-0.01656zm-3.2594-8.7271c-0.41316-0.10823-0.73982-0.39284-0.87942-0.7662-0.0956-0.25567-0.06993-0.59844 0.06399-0.85433 0.09501-0.18157 0.34584-0.42391 0.53308-0.51506 0.54448-0.26505 1.1741-0.17303 1.5829 0.23135 0.35347 0.34959 0.43954 0.83131 0.22649 1.2675-0.08687 0.17784-0.33499 0.42383-0.52881 0.52428-0.29381 0.15226-0.68015 0.19579-0.99826 0.11246z"/>
</svg>
