<svg version="1.1" viewBox="0 0 16 16" xmlns="http://www.w3.org/2000/svg">
 <path d="m0 0h16v16h-16z" opacity="0"/>
 <path d="m2.6731 14.593 0.4195-0.41944-1.7283-1.7269 0.43457-0.43413 0.43457-0.43413 0.86434 0.86329 0.86433 0.86329 0.83973-0.83816-0.01024 2.5354-2.5379 0.0104zm9.5733-0.04094c-0.46105-0.0723-0.84927-0.26019-1.6681-0.80733-0.44475-0.29718-0.53563-0.34881-0.69943-0.39736-0.24467-0.07251-0.51005-0.02618-1.1411 0.19928-0.72498 0.259-1.1764 0.33774-1.5221 0.26548-0.31312-0.06544-0.59914-0.35341-0.67424-0.67883-0.033761-0.1463-0.024775-0.53187 0.018259-0.78333 0.03554-0.20771 0.10728-0.51048 0.22032-0.92999 0.050861-0.45231 0.093134-0.77038-0.24362-1.0918-0.1685-0.17529-0.2979-0.2643-0.75812-0.52146-0.4595-0.25676-0.54493-0.31338-0.68719-0.4555-0.22849-0.22825-0.36759-0.50188-0.411-0.80846-0.075636-0.53414 0.27061-1.0833 0.82096-1.302 0.33619-0.13362 0.71647-0.19673 1.4688-0.24374 0.27478-0.017171 0.55884-0.044046 0.63125-0.059724 0.43901-0.095051 0.63174-0.2651 1.1688-1.0312 0.3822-0.54524 0.69386-0.84732 1.1216-1.0872 0.26113-0.14124 0.32313-0.14195 0.51907-0.22803 0.42282-0.1353 0.83837-0.16232 1.1157-0.072535 0.30093 0.097445 0.54121 0.30301 0.67755 0.57967 0.0914 0.18546 0.11412 0.29579 0.11337 0.5505-7.48e-4 0.25449-0.03213 0.4421-0.15422 0.92195-0.11712 0.46033-0.12759 0.65898-0.04415 0.83781 0.06288 0.13478 0.17393 0.2621 0.28508 0.32685 0.23142 0.13481 0.63442 0.17542 1.2142 0.12234 0.58537-0.053599 0.79159-0.041255 1.009 0.060399 0.16858 0.078837 0.2994 0.25223 0.3593 0.47623 0.03676 0.1375 0.03444 0.535-0.0042 0.72453-0.10047 0.49228-0.33899 0.94799-0.68304 1.305-0.20197 0.20955-0.5142 0.45083-0.76186 0.58874-0.21087 0.11742-0.36569 0.25872-0.43187 0.39414-0.12359 0.25292-0.08515 0.47629 0.21858 1.2699 0.16811 0.43923 0.21044 0.61237 0.21063 0.86134 0 0.21324-0.04548 0.39999-0.13526 0.55346-0.11202 0.1915-0.33977 0.36146-0.58402 0.43584-0.11682 0.03558-0.41729 0.04881-0.56876 0.02506zm-8.2188-3.1335c-0.1574-0.0171-0.39518-0.08263-0.44895-0.12375-0.03081-0.02355-0.017916-0.05568 0.14488-0.36095 0.098283-0.1843 0.1787-0.34472 0.1787-0.3565 0-0.01225 0.014965-0.01559 0.034972-0.0078 0.08899 0.03453 0.26695 0.05342 0.38985 0.04139 0.10326-0.01011 0.13671-0.0071 0.1421 0.01295 0.00387 0.01439 0.032208 0.18339 0.062967 0.37555 0.030754 0.19215 0.059697 0.35994 0.064316 0.37286 0.014728 0.0412-0.34555 0.0705-0.56883 0.04626zm1.293-0.61378c-0.069258-0.1949-0.12947-0.36444-0.13381-0.37676-0.011701-0.033252 0.77675-0.31148 0.80367-0.2836 0.00922 0.0095 0.19101 0.78102 0.18503 0.78521-0.00281 0.0019-0.050024 0.01533-0.10499 0.02975-0.054955 0.01441-0.20897 0.06524-0.34225 0.11298-0.13328 0.04773-0.2512 0.08677-0.26203 0.08677-0.010833 0-0.076373-0.15946-0.14563-0.35436zm-2.465-0.52655c-0.037768-0.18863 0.00716-0.82946 0.059566-0.84954 0.026005-0.00997 0.76257 0.10202 0.77901 0.11844 0.00462 0.00464-6.24e-4 0.056031-0.011639 0.11421-0.011047 0.058177-0.020082 0.20769-0.020082 0.33226 0 0.21852-0.00156 0.22684-0.044963 0.23672-0.063135 0.01438-0.69246 0.1103-0.7237 0.1103-0.014135 0-0.031321-0.02808-0.038193-0.0624zm0.61032-1.5975c-0.31169-0.1014-0.36441-0.12424-0.3531-0.15296 0.036532-0.092745 0.050193-0.27214 0.029437-0.3865-0.012038-0.06631-0.017561-0.12488-0.012275-0.13016 0.00748-0.00747 0.74768-0.24579 0.76341-0.24579 0.00206 0 0.019652 0.075593 0.03906 0.16798 0.060129 0.28621 0.00869 0.87452-0.075928 0.86838-0.013312-9.641e-4 -0.18908-0.055394-0.39061-0.12095zm-0.7727-1.1159c-0.032975-0.022292-0.18352-0.10832-0.33456-0.19117-0.24929-0.13675-0.27268-0.15424-0.25369-0.18968 0.059847-0.11171 0.36391-0.62894 0.37867-0.64415 0.016432-0.016928 0.40556 0.18662 0.63493 0.33212l0.10562 0.066995-0.23174 0.33334c-0.12746 0.18334-0.23344 0.33328-0.23551 0.33321-0.00206-6.24e-5 -0.030741-0.018369-0.063716-0.040661zm-1.4256-1.0722c-0.14464-0.2255-0.24648-0.52273-0.26994-0.7878l-0.010091-0.11402 0.80994-0.01154 0.022154 0.12977c0.012188 0.071372 0.054006 0.19186 0.092934 0.26776 0.065751 0.12818 0.06831 0.13973 0.035983 0.16252-0.01914 0.013494-0.15974 0.11984-0.31245 0.23633-0.15271 0.11649-0.28441 0.2118-0.29268 0.2118-0.00827 0-0.042405-0.042673-0.075854-0.094829zm7.6216-1.2483c-0.069202-0.034544-0.078448-0.058743-0.15424-0.13016-0.10945-0.10315-0.15633-0.16722-0.22792-0.31152-0.060278-0.12148-0.091512-0.21138-0.094301-0.27137l-0.00419-0.089705 0.3387-0.043348c0.18629-0.023843 0.3618-0.047964 0.39004-0.053605 0.04535-0.00906 0.055609 5.98e-5 0.087967 0.078221 0.030754 0.074282 0.25458 0.27392 0.36361 0.34843-0.015061 0.085283-0.4677 0.41227-0.55728 0.48514-0.036249 0.019436-0.057971 0.049275-0.14237-0.012093zm-7.2335-0.40519-0.31233-0.251 0.075361-0.084638c0.17517-0.19674 0.38386-0.34464 0.62044-0.43973 0.079529-0.031965 0.14756-0.054424 0.15118-0.049909 0.010691 0.013322 0.25299 0.73348 0.25299 0.75193 0 0.00927-0.033723 0.028656-0.074943 0.043061-0.10763 0.037621-0.25412 0.13411-0.32358 0.21314-0.032938 0.037481-0.063691 0.068146-0.068341 0.068146-0.00462 0-0.14899-0.11295-0.32078-0.251zm1.4985-0.23239c-0.012313-0.040193-0.07407-0.7783-0.065813-0.78655 0.00406-0.00406 0.1849-0.018276 0.40187-0.031613 0.32305-0.019857 0.39742-0.019532 0.41062 0.0018 0.019639 0.031747 0.050162 0.75848 0.032595 0.77603-0.00687 0.00686-0.14038 0.019232-0.29668 0.027479-0.1563 0.00825-0.32705 0.020289-0.37945 0.026761-0.068578 0.00847-0.097471 0.00457-0.10314-0.013921zm9.2063-0.60956 0.4146-0.41418-0.86423-0.86353-0.86422-0.86353 0.86914-0.86826 0.8644 0.86335 0.8644 0.86335 0.8292-0.82836v2.5253h-2.5279zm-7.6369 0.00385c-0.1033-0.18131-0.19464-0.33386-0.20298-0.33901-0.0083403-0.005147 0.058848-0.083464 0.14931-0.17403 0.090463-0.090567 0.19149-0.19966 0.2245-0.24242l0.060034-0.077753 0.32321 0.2347c0.17776 0.12908 0.32321 0.23958 0.32321 0.24556 0 0.017034-0.096542 0.13925-0.23785 0.30111-0.11594 0.1328-0.40282 0.38297-0.43792 0.38189-0.0075261-2.494e-4 -0.098202-0.14876-0.2015-0.33006zm4.2246-0.40013c-0.19784-0.04853-0.36996-0.091995-0.38249-0.096589-0.016388-0.00601-0.012668-0.052163 0.013261-0.16454 0.01982-0.085905 0.046224-0.2412 0.058674-0.34511 0.01245-0.1039 0.024507-0.19078 0.026784-0.19306 0.0023-0.00228 0.18173-0.0071 0.39878-0.01072l0.39463-0.00658v0.12977c0 0.19599-0.10294 0.78124-0.13644 0.77683-0.00736-9.642e-4 -0.17525-0.041466-0.3731-0.089996zm-3.2019-0.86038c-0.26206-0.21549-0.30153-0.25529-0.28455-0.28698 0.031222-0.058279 0.39862-0.41899 0.52539-0.51582 0.065669-0.050162 0.12213-0.080186 0.1314-0.069874 0.035322 0.039283 0.44161 0.63319 0.44161 0.64553 0 0.00724-0.044876 0.047361-0.099731 0.089149-0.054848 0.041788-0.16655 0.14695-0.24824 0.23369-0.081683 0.08674-0.15146 0.15699-0.15507 0.1561-0.0036194-8.852e-4 -0.14348-0.11419-0.31081-0.2518zm2.6771-0.45722c-0.048033-0.050748-0.14018-0.11913-0.20476-0.15197-0.06458-0.032833-0.11688-0.065688-0.11622-0.073011 4.585e-4 -0.0073508 0.059757-0.17886 0.13134-0.3812l0.13014-0.36788 0.058509 0.020374c0.11455 0.03989 0.34748 0.17249 0.44889 0.25554 0.056653 0.046395 0.15625 0.15128 0.22133 0.23308l0.11832 0.14872-0.33543 0.20256c-0.18449 0.11141-0.34204 0.20335-0.35011 0.20431-0.008069 9.675e-4 -0.053976-0.039769-0.10201-0.090517zm-1.6325-0.40317c-0.07951-0.20194-0.13678-0.37371-0.12776-0.38322 0.042725-0.045087 0.45991-0.16306 0.73999-0.20926l0.11249-0.018555 0.017243 0.10528c0.019178 0.11711 0.084557 0.62072 0.087313 0.67257 0.00142 0.026728-0.026909 0.037276-0.14647 0.054535-0.081528 0.011772-0.21272 0.042597-0.29154 0.068508-0.27682 0.091003-0.22666 0.12817-0.39126-0.28986z"/>
</svg>
