<svg version="1.1" viewBox="0 0 16 16" xmlns="http://www.w3.org/2000/svg">
 <path d="m0 0h16v16h-16z" opacity="0"/>
 <path d="m7.8418 12.096h3.1639v3.1558h-3.1639zm3.5651 0h3.1639v3.1558h-3.1639zm-6.7861-7.2349 1.4915 1.4876-0.37287 0.37191h0.99435v-0.99176l-0.37287 0.37191-1.4915-1.4876zm3.221 3.7285h3.1639v3.1558h-3.1639zm3.5651 0h3.1639v3.1558h-3.1639zm-3.5651-3.5064h3.1639v3.1558h-3.1639zm3.5651 0h3.1639v3.1558h-3.1639zm-3.5651-3.5064h3.1639v3.1558h-3.1639zm3.5651 0h3.1639v3.1558h-3.1639zm-10.452-0.56571h3.1639v3.1558h-3.1639z"/>
</svg>
