<svg version="1.1" viewBox="0 0 16 16" xmlns="http://www.w3.org/2000/svg">
 <g transform="matrix(1.0177 0 0 1.0177 -287.6 -546.26)">
  <path d="m282.58 536.73h15.721v15.721h-15.721z" opacity="0"/>
  <path transform="translate(-236.36 335.84)" d="m530.53 205.61a1.9925 2.0804 0 0 0-1.9199 1.5313c-0.9429 0.2708-1.9018 0.6927-2.8145 1.3906-0.2253 0.1726-0.4371 0.3066-0.6523 0.4512a1.9925 2.0804 0 0 0-1.2949-0.502 1.9925 2.0804 0 0 0-1.9844 1.916c-0.9221 0.1715-1.7184 0.1531-2.4043 0.1485l-0.012 1.5c0.6891 0 1.6591 0.014 2.8164-0.2246a1.9925 2.0804 0 0 0 1.584 0.8222 1.9925 2.0804 0 0 0 1.9922-2.08 1.9925 2.0804 0 0 0-0.016-0.2364c0.2903-0.1865 0.5815-0.3741 0.8809-0.6035 0.6674-0.5104 1.36-0.8509 2.0527-1.0762a1.9925 2.0804 0 0 0 1.7715 1.125 1.9925 2.0804 0 0 0 1.9121-1.5078c0.728 0.032 1.3977 0.09 1.9531 0.09v-1.5c-0.4631 0-1.2081-0.083-2.0937-0.1153a1.9925 2.0804 0 0 0-1.7715-1.1289zm0 1.1133a0.92609 0.96695 0 0 1 0.9258 0.9668 0.92609 0.96695 0 0 1-0.9258 0.9668 0.92609 0.96695 0 0 1-0.9277-0.9668 0.92609 0.96695 0 0 1 0.9277-0.9668zm-6.6816 2.8711a0.92609 0.96695 0 0 1 0.9257 0.9688 0.92609 0.96695 0 0 1-0.9257 0.9667 0.92609 0.96695 0 0 1-0.9258-0.9667 0.92609 0.96695 0 0 1 0.9258-0.9688z"/>
 </g>
</svg>
