<svg version="1.1" viewBox="0 0 16 16" xmlns="http://www.w3.org/2000/svg">
 <g>
  <path d="m2.0078 0c-0.51709 0-1 0.51791-1 1v3c-0.554 0-1.0784 0.45157-1 1l1 7c0.0784 0.54843 0.446 1 1 1h3.8594l2.0215-7.6992h2.2246l2.0215 7.6992h1.873c0.554 0 0.9216-0.45157 1-1l1-7c0.0784-0.54843-0.446-1-1-1v-1c0-0.48621-0.43266-1-1-1h-6l-1-1c-0.82002-0.82002-1-1-2-1zm0 3h12v1h-12z" opacity=".73"/>
  <path d="m7.123 4.9961-2.8906 11.008h3.9707l0.41211-1.9043h0.77149l0.41406 1.9043h3.9688l-2.8887-11.008h-0.76758zm0.76563 1.0039h2.2246l2.3633 9h-1.875l-0.41211-1.9043h-2.375l-0.41406 1.9043h-1.875zm1.0996 1.5625-0.86133 4.0469h1.75l-0.86328-4.0469z"/>
 </g>
</svg>
