<svg version="1.1" viewBox="0 0 16 16" xmlns="http://www.w3.org/2000/svg">
 <g transform="matrix(.99938 0 0 1 -558.65 -805.36)">
  <path d="m559 805.36h16v16h-16z" opacity="0"/>
 </g>
 <path d="m7.2818 2.5837v1.1628l6.4006 6e-3v1.1628l1.7379-1.7443-1.7379-1.7442v1.1628z" stroke-width=".58149"/>
 <path d="m1.1603 7.8016v1.1628l12.522 6e-3v1.1628l1.7379-1.7443-1.7379-1.7442v1.1628z" stroke-width=".58149"/>
 <path d="m3.1017 1.0151-1.9658 5.4879h1.1795c0.5843-1.568 0 7.89e-4 0.58304-1.5668l2.0093 0.0141 0.55296 1.5527h1.1795l-1.9658-5.4879zm0.78638 1.176 0.79502 1.96h-1.5727z" stroke-width=".78526"/>
 <path d="m1.1603 13.019v1.1628l12.522 6e-3v1.1628l1.7379-1.7443-1.7379-1.7442v1.1628z" stroke-width=".58149"/>
</svg>
