<svg version="1.1" viewBox="0 0 15.93 15.93" xmlns="http://www.w3.org/2000/svg">
 <style>.success { fill:#009909; }
.warning { fill:#ff00ff; }
.error { fill:#00AAFF; }</style>
 <g transform="translate(-96.209 49)">
  <g transform="translate(96.209 -49)">
   <path d="m15.197 14.531h-4l-2e-6 -4 4-2e-6z"/>
   <rect width="15.93" height="15.93" opacity="0"/>
   <g>
    <path class="UnoptimicedTransforms" transform="translate(-.14583)" d="m5 5h-4l-2e-6 -4 4-2e-6z"/>
    <path d="m10.097 5.3965h-4l-2e-6 -4 4-2e-6z"/>
    <path d="m15.049 5.0037h-4l-2e-6 -4 4-2e-6z"/>
    <path d="m4.8404 9.3448h-4l-2e-6 -4 4-2e-6z"/>
    <path d="m10.222 10.355h-4l-2e-6 -4 4-2e-6z"/>
    <path d="m15.115 9.677h-4l-2e-6 -4 4-2e-6z"/>
    <path d="m4.8836 15.438h-4l-2e-6 -4 4-2e-6z"/>
    <path d="m10.091 14.799h-4l-2e-6 -4 4-2e-6z"/>
   </g>
  </g>
 </g>
</svg>
