<svg version="1.1" viewBox="0 0 16 16" xmlns="http://www.w3.org/2000/svg">
 <path d="m0 0h16v16h-16z" opacity="0"/>
 <path d="m9.8286 1.2544c-0.20946-0.057525-0.42673-0.10743-0.64456-0.14727-0.21829-0.038125-0.43753-0.066508-0.65401-0.084742l-0.77227 2.0006c-0.34399 0.01351-0.6869 0.056745-1.0136 0.13799l-1.2561-1.7239c-0.42528 0.15914-0.81043 0.38093-1.1952 0.61704l0.5603 2.0466c-0.26412 0.20718-0.5125 0.44204-0.73148 0.69916l-2.0223-0.64801c-0.24815 0.3732-0.45345 0.77356-0.62854 1.1967l1.6488 1.3149c-0.047338 0.16318-0.08899 0.31859-0.12032 0.48919l0.011637 0.00204c-0.022205 0.1436-0.038074 0.28217-0.048992 0.42681l-2.002 0.66452c0.018003 0.45756 0.071924 0.90345 0.17565 1.3394l2.1229 0.091629c0.11656 0.31696 0.26785 0.62301 0.44403 0.90873l-1.2341 1.727c0.27943 0.35462 0.56446 0.69568 0.90848 0.99205l1.7749-1.1837c0.27848 0.18908 0.5855 0.34934 0.90361 0.48091l0.032878 2.1436c0.20942 0.0576 0.42436 0.1087 0.64267 0.14675l9.745e-4 2.58e-4c0.2181 0.03873 0.4385 0.06678 0.65495 0.08502l0.77132-2.0008c0.34399-0.01354 0.6869-0.05682 1.0136-0.13799l1.2571 1.7242c0.4253-0.15914 0.81042-0.38091 1.1952-0.61705l-0.5603-2.0466c0.26412-0.20718 0.51154-0.4423 0.73054-0.69941l2.0233 0.64826c0.24814-0.37321 0.45251-0.7738 0.6276-1.1969l-1.6478-1.3147c0.04733-0.16316 0.08987-0.3184 0.11941-0.48943l-0.01073-0.00179c0.02176-0.14369 0.03788-0.28221 0.04898-0.42682l2.0011-0.66477c-0.017857-0.45752-0.07192-0.90346-0.17565-1.3394l-2.1219-0.09138c-0.11656-0.31696-0.26854-0.6242-0.44473-0.90993l1.2338-1.7261c-0.27941-0.35462-0.56442-0.69566-0.90846-0.99205l-1.7749 1.1837c-0.27844-0.18926-0.58548-0.34933-0.90362-0.4809zm-1.1802 4.3371c1.2362 0.35248 2.0295 1.5909 1.7989 2.8837l0.0017 4.537e-4c-0.27367 1.3447-1.5694 2.2336-2.9278 1.9913-1.379-0.246-2.2974-1.5639-2.0514-2.9428l-0.00246-6.504e-4c0.27397-1.3442 1.5702-2.2326 2.9284-1.9903 0.086182 0.015373 0.17031 0.034841 0.25272 0.058362z"/>
</svg>
