<svg version="1.1" viewBox="0 0 16 16" xmlns="http://www.w3.org/2000/svg">
 <path d="m0 6.9999h2.9999v-1.9999l4 2.9999-4 2.9999v-1.9999h-2.9999z"/>
 <path d="m11.594 3.0215c0.36691-0.013979 0.72342 0.096044 1.0838 0.12891h2.1056v0.85938h-1.1523c0.61815 0.59142 0.65061 1.5702 0.35743 2.3281-0.30653 0.8281-1.1492 1.3418-2.0015 1.4346-0.40851 0.04926-0.82713 0.052848-1.2309-0.03417-0.3384 0.14936-0.61804 0.60817-0.35406 0.94259 0.299 0.31559 0.77552 0.29185 1.1779 0.29569 0.76609 0.0155 1.575-0.084944 2.2819 0.27791 0.57135 0.27029 0.91666 0.89183 0.90732 1.5155 0.03858 0.8206-0.4892 1.5741-1.1876 1.9639-0.96773 0.54272-2.1414 0.6613-3.2205 0.44848-0.70512-0.13837-1.4387-0.56215-1.6506-1.2912-0.25074-0.79181 0.12032-1.6926 0.80801-2.1371 0.17422-0.085009 0.25531-0.13371 0.044259-0.22107-0.53239-0.37143-0.5827-1.1909-0.17957-1.6761 0.068134-0.1773 0.44696-0.31922 0.39114-0.42624-0.72087-0.4164-1.0112-1.3005-0.94499-2.0942 0.034-0.86352 0.56679-1.693 1.3693-2.0337 0.4355-0.20156 0.91793-0.28213 1.3954-0.2813zm-0.06445 0.83398c-0.62341-0.020747-1.2551 0.35599-1.4629 0.95703-0.20826 0.58721-0.14212 1.3212 0.30274 1.7852 0.45474 0.4354 1.1705 0.4892 1.7461 0.29688 0.54202-0.17588 0.88348-0.72452 0.91074-1.2783 0.058216-0.59452-0.14682-1.2808-0.7071-1.5743-0.24054-0.13172-0.51689-0.18729-0.78958-0.18654zm-0.92774 6.082c-0.55612 0.25474-0.95824 0.89366-0.79635 1.5091 0.14936 0.58465 0.7724 0.85805 1.3219 0.91948 0.71604 0.07323 1.5164-0.01383 2.0843-0.4955 0.45342-0.37599 0.55752-1.1379 0.14605-1.5805-0.41241-0.39095-1.0116-0.32772-1.5363-0.33311-0.4062-0.00738-0.81495 0.01776-1.2196-0.019532zm-8.1016-9.9375c-0.831 0-1.5 0.669-1.5 1.5v4.5h1v-1c-2.6e-5 -0.37879 0.21395-0.72509 0.55273-0.89453 0.12697-0.063533 0.26358-0.098995 0.40039-0.10547 0.22801-0.01079 0.45706 0.057417 0.64648 0.19922l4 3c0.53464 0.4 0.53464 1.2016 0 1.6016l-4 2.998c-0.65878 0.49338-1.5982 0.024216-1.5996-0.79883v-1h-1v4.5c0 0.831 0.669 1.5 1.5 1.5h12c0.831 0 1.5-0.669 1.5-1.5v-13c0-0.831-0.669-1.5-1.5-1.5z" fill-opacity=".5" fill-rule="evenodd"/>
</svg>
