<svg version="1.1" viewBox="0 0 16 16" xmlns="http://www.w3.org/2000/svg" xmlns:xlink="http://www.w3.org/1999/xlink">
 <style>.success { fill:#009909; }
.warning { fill:#FF1990; }
.error { fill:#00AAFF; }</style>
 <style>@import '../../highlights.css';</style>
 <g id="a" transform="translate(0,-10)">
  <rect x="13" y="11" width="2" height="3"/>
  <rect x="12" y="11" width="1" height="3" opacity=".95"/>
  <rect x="11" y="11" width="1" height="3" opacity=".9"/>
  <rect x="10" y="11" width="1" height="3" opacity=".85"/>
  <rect x="9" y="11" width="1" height="3" opacity=".8"/>
  <rect x="8" y="11" width="1" height="3" opacity=".75"/>
  <rect x="7" y="11" width="1" height="3" opacity=".7"/>
  <rect x="6" y="11" width="1" height="3" opacity=".65"/>
  <rect x="5" y="11" width="1" height="3" opacity=".6"/>
  <rect x="4" y="11" width="1" height="3" opacity=".55"/>
  <rect x="3" y="11" width="1" height="3" opacity=".5"/>
  <rect x="2" y="11" width="1" height="3" opacity=".45"/>
  <rect x="1" y="11" width="1" height="3" opacity=".4"/>
 </g>
 <use transform="translate(0,10)" width="100%" height="100%" xlink:href="#a"/>
 <use transform="matrix(-1,0,0,1,16,5)" width="100%" height="100%" xlink:href="#a"/>
</svg>
