<svg version="1.1" viewBox="0 0 15.93 15.93" xmlns="http://www.w3.org/2000/svg">
 <style>.success { fill:#009909; }
.warning { fill:#ff00ff; }
.error { fill:#00AAFF; }</style>
 <g transform="translate(-96.209 49)">
  <g transform="translate(96.209 -49)">
   <rect width="15.93" height="15.93" opacity="0"/>
   <path transform="translate(2)" d="m1.866 5.2321-1.732-1 2-3.4641 1.7321 1zm4 0-1.732-1 2-3.4641 1.7321 1zm4 0-1.732-1 2-3.4641 1.7321 1zm-8 5-1.732-1 2-3.4641 1.7321 1zm4 0-1.732-1 2-3.4641 1.7321 1zm4 0-1.732-1 2-3.4641 1.7321 1zm-8 5-1.732-1 2-3.4641 1.7321 1zm4 0-1.732-1 2-3.4641 1.7321 1zm4 0-1.732-1 2-3.4641 1.7321 1z" stroke-width=".70711"/>
  </g>
 </g>
</svg>
