<svg version="1.1" viewBox="0 0 15.93 15.93" xmlns="http://www.w3.org/2000/svg">
 <style>.success { fill:#009909; }
.warning { fill:#ff00ff; }
.error { fill:#00AAFF; }</style>
 <g transform="translate(-96.209 49)">
  <g transform="translate(96.209 -49)">
   <rect width="15.93" height="15.93" opacity="0"/>
   <path transform="translate(2)" d="m3 5h-2l-1e-6 -4 2-2e-6zm3.882 0.054761-1.9966-0.11629 0.23258-3.9932 1.9966 0.11629zm3.879 0.047808-1.9865-0.23219 0.46437-3.973 1.9865 0.23218zm-8.1235 5.0407-1.9696-0.3473 0.69459-3.9392 1.9696 0.34729zm3.8743 0.033442-1.9461-0.46123 0.92246-3.8922 1.9461 0.46123zm3.8726 0.026076-1.916-0.57361 1.1472-3.832 1.916 0.5736zm-8.1287 5.0186-1.8794-0.68404 1.3681-3.7588 1.8794 0.68404zm3.8704 0.01111-1.8364-0.79216 1.5843-3.6729 1.8364 0.79216zm3.87 0.0036-1.7873-0.8976 1.7952-3.5745 1.7873 0.8976z" stroke-width=".70711"/>
  </g>
 </g>
</svg>
