<svg version="1.1" viewBox="0 0 15.93 15.93" xmlns="http://www.w3.org/2000/svg">
 <style>.success { fill:#009909; }
.warning { fill:#ff00ff; }
.error { fill:#00AAFF; }</style>
 <g transform="translate(-96.209 49)">
  <g transform="translate(96.209 -49)">
   <rect width="15.93" height="15.93" opacity="0"/>
   <g>
    <path d="m5 5h-4l-2e-6 -4 4-2e-6z"/>
    <path d="m9.8889 4.8889h-3.7778l-1.9e-6 -3.7778 3.7778-1.9e-6z" stroke-width=".5453"/>
    <path d="m14.778 4.7778h-3.5556l-2e-6 -3.5556 3.5556-1.8e-6z" stroke-width=".26002"/>
    <path d="m4.6667 9.6667h-3.3333l-1.7e-6 -3.3333 3.3333-1.7e-6z" stroke-width=".27393"/>
    <path d="m9.5556 9.5556h-3.1111l-1.6e-6 -3.1111 3.1111-1.6e-6z" stroke-width=".14137"/>
    <path d="m14.444 9.4444h-2.8889l-1e-6 -2.8889 2.8889-1.4e-6z" stroke-width=".063368"/>
    <path d="m4.3333 14.333h-2.6667l-1.3e-6 -2.6667 2.6667-1e-6z" stroke-width=".055327"/>
    <path d="m14.111 14.111h-2.2222l-1e-6 -2.2222 2.2222-1e-6z" stroke-width=".01077"/>
    <path d="m9.2222 14.222h-2.4444l-1.2e-6 -2.4444 2.4444-1e-6z" stroke-width=".026356"/>
   </g>
  </g>
 </g>
</svg>
