<svg version="1.1" viewBox="0 0 16 16" xmlns="http://www.w3.org/2000/svg">
 <g transform="matrix(1 0 0 1 -105 -707.36)">
  <path transform="scale(1,-1)" d="m106-723.36h14c0.554 0 1 0.446 1 1v14c0 0.554-0.446 1-1 1h-14c-0.554 0-1-0.446-1-1v-14c0-0.554 0.446-1 1-1z" opacity="0"/>
  <path d="m117 714.36 3-3h-5v3zm-6 0v-3h-2l-3 3z" opacity=".5"/>
  <path d="m120 720.36-3 3h-11l3-3z"/>
  <path d="m112 709.36h2v7h2l-3 2.9883-3-2.9883h2z"/>
  <path d="m117 710.36 3-3h-11l-3 3h5v-2h4v2z" opacity=".5"/>
 </g>
</svg>
