<svg version="1.1" viewBox="0 0 16 16" xmlns="http://www.w3.org/2000/svg">
 <g transform="translate(-105 -727.36)">
  <path d="m105 727.36h16v16h-16z" opacity="0"/>
  <path d="m109 739.36-3 3h11l3-3z"/>
  <path d="m111 728.36c-0.554 0-1 0.446-1 1v7c0 0.554 0.446 1 1 1h7c0.554 0 1-0.446 1-1v-7c0-0.554-0.446-1-1-1zm1.9063 0.7187 1.7812 2.1563 1.7813-2.1563 1.5312 1.2813-2.0312 2.4375 2.0312 2.4687-1.5312 1.2813-1.7813-2.1563-1.7812 2.1563-1.5313-1.2813 2.0313-2.4687-2.0313-2.4375z"/>
 </g>
</svg>
