<svg version="1.1" viewBox="0 0 16 16" xmlns="http://www.w3.org/2000/svg">
 <g>
  <path d="m8.002 1.0527c-2.6125 8.6e-4 -4.663 1.722-5.2734 4-0.18166 0.69352-0.18482 1.8547-0.0059 2.5547 0.40685 1.5935 1.6557 3.6837 3.5508 5.957 0.63203 0.75819 1.6376 1.8547 1.7266 1.8984v0.0039l2e-3 -2e-3 2e-3 2e-3v-0.0039c0.0888-0.0435 1.0984-1.1401 1.7305-1.8984 1.895-2.2733 3.14-4.3635 3.5469-5.957 0.1791-0.69999 0.17784-1.8612-0.0039-2.5547-0.61039-2.278-2.6609-3.9991-5.2734-4zm-0.01367 1.8965a3.42 3.3175 0 0 1 3.4199 3.3184 3.42 3.3175 0 0 1-3.4199 3.3164 3.42 3.3175 0 0 1-3.4199-3.3164 3.42 3.3175 0 0 1 3.4199-3.3184z"/>
  <rect x="1" y="14.5" width="14" height="1.5" opacity=".25"/>
 </g>
</svg>
