<svg version="1.1" viewBox="0 0 16 16" xmlns="http://www.w3.org/2000/svg">
 <path d="m0 0h16v16h-16z" opacity="0"/>
 <g transform="matrix(1.0998 0 0 1.0998 -.38831 -.42743)" stroke-width=".049886" aria-label="3M">
  <path d="m7.4424 2.1149q0.046768 0.041896 0.076972 0.10523 0.030204 0.063331 0.030204 0.16369 0 0.099381-0.03605 0.1822t-0.10133 0.1442q-0.073074 0.068203-0.17246 0.10133-0.098407 0.032153-0.2163 0.032153-0.12082 0-0.23774-0.02923-0.11692-0.028256-0.19194-0.062357v-0.20363h0.014615q0.082818 0.054562 0.19487 0.090612 0.11205 0.03605 0.2163 0.03605 0.061382 0 0.13056-0.020461 0.069177-0.020461 0.11205-0.060408 0.044819-0.04287 0.066254-0.09451 0.02241-0.051639 0.02241-0.13056 0-0.077946-0.025333-0.12861-0.024358-0.051639-0.068203-0.080868-0.043845-0.030204-0.1062-0.040922-0.062357-0.011692-0.13446-0.011692h-0.087689v-0.16174h0.068203q0.1481 0 0.23579-0.061382 0.088664-0.062357 0.088664-0.18122 0-0.052614-0.02241-0.091587-0.02241-0.039947-0.062357-0.06528-0.041896-0.025332-0.089638-0.035076-0.047742-0.00974-0.10815-0.00974-0.092561 0-0.19681 0.033127t-0.19681 0.093535h-0.00974v-0.20364q0.069177-0.034101 0.18415-0.062357 0.11594-0.02923 0.2241-0.02923 0.1062 0 0.18707 0.019486 0.080869 0.019486 0.14615 0.062357 0.070151 0.046768 0.1062 0.11302 0.03605 0.066254 0.03605 0.15492 0 0.12082-0.085741 0.21143-0.084766 0.089638-0.20071 0.11302v0.013641q0.046768 0.00779 0.10718 0.033127 0.060408 0.024358 0.1023 0.061383z"/>
  <path d="m9.1884 2.8135h-0.19292v-1.2501l-0.40337 0.85059h-0.11497l-0.40045-0.85059v1.2501h-0.18025v-1.4508h0.26307l0.38681 0.80772 0.37414-0.80772h0.26794z"/>
 </g>
 <g transform="matrix(.77174 .78352 -.78352 .77174 -1.7243 -.022596)" stroke-width=".049886" aria-label="2M">
  <path d="m11.547-0.39113h-0.98212v-0.20363q0.1023-0.087689 0.20461-0.17538 0.10328-0.087689 0.19194-0.1744 0.18707-0.18122 0.25625-0.28743 0.06918-0.10718 0.06918-0.23092 0-0.11302-0.07502-0.17635-0.07405-0.064306-0.20753-0.064306-0.08866 0-0.19194 0.031178-0.10328 0.031179-0.20168 0.095484h-0.0097v-0.20461q0.06918-0.034101 0.18415-0.062357 0.11594-0.028255 0.2241-0.028255 0.22312 0 0.34978 0.10815 0.12666 0.10718 0.12666 0.29132 0 0.082818-0.02144 0.15492-0.02046 0.071126-0.06138 0.13543-0.038 0.060408-0.08964 0.11887-0.05067 0.05846-0.12374 0.12959-0.10425 0.1023-0.21533 0.19876-0.11107 0.095484-0.20753 0.17733h0.78044z"/>
  <path d="m13.165-0.39113h-0.19292v-1.2501l-0.40337 0.85059h-0.11497l-0.40045-0.85059v1.2501h-0.18025v-1.4508h0.26307l0.38681 0.80772 0.37414-0.80772h0.26794z"/>
 </g>
 <path d="m2.9629 1.7637v0.21875l2.8906 0.015625 0.0019532-0.2207-2.8926-0.013672zm7.7734 0v0.21875l2.8906 0.015625v-0.2207l-2.8906-0.013672zm-10.09 1.7246 0.34375 0.35938 0.050781 0.052734 9.8828 10.332 0.56836 0.52148h0.5625l-10.342-10.811 12.715-0.0078125 0.013672-0.41602-13.225-0.03125h-0.074219-0.49609zm4.2246 1.1875-0.1543 0.15625 2.0645 2.0254 0.1543-0.1582-2.0645-2.0234zm5.2363 5.4395-0.1543 0.15625 2.0645 2.0254 0.1543-0.1582-2.0645-2.0234z"/>
</svg>
