<svg version="1.1" viewBox="0 0 16 16" xmlns="http://www.w3.org/2000/svg">
 <g transform="scale(.66667)">
  <title>mesh-gradient</title>
  <path d="m0 0h24v24h-24z" opacity="0"/>
  <path d="m1 1h5v4.9999h-5z"/>
  <path d="m18 1h5v5h-5z"/>
  <path d="m1 18h5v5h-5z"/>
  <path d="m18 18h5v5h-5z"/>
  <path d="m8 2.5078v0.49219h1v-0.41797c-0.31616-0.0456-0.65066-0.0696-1-0.0742zm0 0.49219h-1v1h1zm-1 1h-1v1h1zm-1 1h-1v1h1zm-1 1h-0.7168c0.0743 0.35076 0.12424 0.68185 0.15821 1h0.55859zm0-1v-1h-1v0.88867c0.0109 0.0352 0.0285 0.0765 0.0391 0.11133zm-1-1v-0.67969c-0.17005 0.0641-0.32271 0.10669-0.5 0.17969 0.073 0.17729 0.11563 0.32995 0.17969 0.5zm1 0h1v-1h-1zm0-1v-0.0391c-0.0349 0.0105-0.0761 0.0281-0.11133 0.0391zm1 0h1v-0.44141c-0.31815 0.034-0.64924 0.084-1 0.15821z"/>
  <path d="m10 2.7871v0.21289h0.69727c-0.22625-0.0787-0.4598-0.14805-0.69727-0.21289zm0 0.21289h-1v1h1zm0 1v1h1v-1zm1 0h1v-0.5c-0.32964-0.13574-0.66242-0.26664-1-0.39258zm1 0v1h1v-1zm1 0h0.30273c-0.10127-0.0352-0.20305-0.0702-0.30273-0.10742zm-1 1h-1v1h1zm-1 1h-1v1h1zm-1 1h-1v1h1zm-1 1h-1v1h1zm-1 1h-1v1h1zm-1 1h-1v1h1zm-1 1h-1v1h1zm-1 1h-1v1h1zm-1 1h-0.89258c-0.0372 0.0997-0.0722 0.20146-0.10742 0.30273v0.69727h1zm-1 1h-0.21289c-0.0869 0.3183-0.1549 0.65196-0.20508 1h0.41797zm1-2v-1h-0.10742c-0.12594 0.33758-0.25684 0.67036-0.39258 1zm0-1h1v-1h-0.78711c-0.0648 0.23747-0.13419 0.47102-0.21289 0.69727zm1-1h1v-1h-1zm0-1v-1h-0.50781c-5e-3 0.34934-0.0286 0.68384-0.0742 1zm0-1h1v-1h-1zm1-1h1v-1h-1zm1-1h1v-1h-1zm1-1h1v-1h-1zm1 0v1h1v-1zm0 1h-1v1h1zm-1 1h-1v1h1zm-1 1h-1v1h1z" opacity=".75"/>
  <path d="m20 3.6797c-0.30233 0.11389-0.60787 0.23303-0.88867 0.32031h0.88867zm-1 0.35937c-0.35417 0.10706-0.67718 0.17581-1 0.24414v0.7168h1zm-1 0.96094h-1v1h1zm-1 1h-1v1h1zm-1 1h-1v1h1zm-1 1h-1v1h1zm-1 1h-1v1h1zm-1 1h-1v1h1zm-1 1h-1v1h1zm-1 1h-1v1h1zm-1 1h-1v1h1zm-1 1h-1v1h1zm-1 1h-1v1h1zm-1 1h-1v1h1zm-1 1h-1v1h1zm-1 1h-1v1h1zm-1 1h-1v0.11133c0.0873 0.2808 0.20642 0.58634 0.32031 0.88867h0.67969zm-1 0v-1h-0.2832c0.0683 0.32282 0.13708 0.64583 0.24414 1zm0-1h1v-1h-1zm0-1v-1h-0.49219c-4e-3 0.31616 0.0135 0.65025 0.0508 1zm0-1h1v-1h-1zm1-1h1v-1h-1zm1-1h1v-1h-1zm1-1h1v-1h-1zm1-1h1v-1h-1zm1-1h1v-1h-1zm1-1h1v-1h-1zm1-1h1v-1h-1zm1-1h1v-1h-1zm1-1h1v-1h-1zm1-1h1v-1h-1zm1-1h1v-0.58203c-0.34804-0.0502-0.6817-0.11817-1-0.20508zm1 0v1h1v-1zm1 0h1v-0.55859c-0.34975 0.0373-0.68384 0.0549-1 0.0508zm-1 1h-1v1h1zm-1 1h-1v1h1zm-1 1h-1v1h1zm-1 1h-1v1h1zm-1 1h-1v1h1zm-1 1h-1v1h1zm-1 1h-1v1h1zm-1 1h-1v1h1zm-1 1h-1v1h1zm-1 1h-1v1h1zm-1 1h-1v1h1z" opacity=".65"/>
  <path d="m20 4v1h1v-0.11133c-0.0873-0.2808-0.20642-0.58634-0.32031-0.88867zm1 1v1h0.2832c-0.0683-0.32282-0.13708-0.64583-0.24414-1h-0.0391zm0 1h-1v1h1zm0 1v1h0.49219c4e-3 -0.31616-0.0135-0.65025-0.0508-1zm0 1h-1v1h1zm-1 1h-1v1h1zm-1 1h-1v1h1zm-1 1h-1v1h1zm-1 1h-1v1h1zm-1 1h-1v1h1zm-1 1h-1v1h1zm-1 1h-1v1h1zm-1 1h-1v1h1zm-1 1h-1v1h1zm-1 1h-1v1h1zm-1 1h-1v0.58203c0.34804 0.0502 0.6817 0.11817 1 0.20508zm-1 0v-1h-1v1zm-1 0h-1v0.55859c0.34975-0.0373 0.68384-0.0549 1-0.0508zm-1 0v-1h-1v1zm-1 0h-1v0.96094c0.35417-0.10706 0.67718-0.17581 1-0.24414zm1-1h1v-1h-1zm1-1h1v-1h-1zm1-1h1v-1h-1zm1-1h1v-1h-1zm1-1h1v-1h-1zm1-1h1v-1h-1zm1-1h1v-1h-1zm1-1h1v-1h-1zm1-1h1v-1h-1zm1-1h1v-1h-1zm1-1h1v-1h-1zm1-1h1v-1h-1zm1-1h1v-1h-1zm0 1v1h1v-1zm0 1h-1v1h1zm-1 1h-1v1h1zm-1 1h-1v1h1zm-1 1h-1v1h1zm-1 1h-1v1h1zm-1 1h-1v1h1zm-1 1h-1v1h1zm-1 1h-1v1h1zm-1 1h-1v1h1zm-1 1h-1v1h1zm-6 3v0.32031c0.30233-0.11389 0.60787-0.23303 0.88867-0.32031z" opacity=".55"/>
  <path d="m21 9v0.91406h-0.7168v1h0.64063c0.21803-0.59495 0.39455-1.2232 0.49414-1.9141zm-2 2v1h1v-1zm0 1h-1v1h1zm0 1v1h0.78711c0.0648-0.23747 0.13419-0.47102 0.21289-0.69727v-0.30273zm0 1h-1v1h1zm0 1v1h0.50781c5e-3 -0.34934 0.0286-0.68384 0.0742-1zm0 1h-1v1h1zm-1 1h-1v1h1zm-1 1h-1v1h1zm-1 1h-1v1h1zm-1 1h-1v1h1zm-1 1h-0.69727c0.22625 0.0787 0.4598 0.14805 0.69727 0.21289zm0-1v-1h-1v1zm-1 0h-1v0.5c0.32964 0.13574 0.66242 0.26664 1 0.39258zm-1 0v-1h-1v1zm-1 0h-0.30273c0.10127 0.0352 0.20305 0.0702 0.30273 0.10742zm1-1h1v-1h-1zm1-1h1v-1h-1zm1-1h1v-1h-1zm1-1h1v-1h-1zm1-1h1v-1h-1zm1-1h1v-1h-1zm0 1v1h1v-1zm0 1h-1v1h1zm-1 1h-1v1h1zm-1 1h-1v1h1zm5.2832-6.0859v0.625c0.0836-0.20883 0.16662-0.41759 0.25196-0.625z" opacity=".35"/>
  <path d="m19 17v1h0.7168c-0.0743-0.35076-0.12424-0.68185-0.15821-1zm0 1h-1v1h1zm0 1v1h1v-0.88867c-0.0109-0.0352-0.0285-0.0765-0.0391-0.11133zm1 1v0.67969c0.17005-0.0641 0.32271-0.10669 0.5-0.17969-0.073-0.17729-0.11563-0.32995-0.17969-0.5zm-1 0h-1v1h1zm0 1v0.0391c0.0349-0.0105 0.0761-0.0281 0.11133-0.0391zm-1 0h-1v0.44141c0.31815-0.034 0.64924-0.084 1-0.15821zm-1 0v-1h-1v1zm-1 0h-1v0.41797c0.31616 0.0456 0.65066 0.0696 1 0.0742zm1-1h1v-1h-1z" opacity=".2"/>
  <path d="m8.5879 2.0371c-1.4097-0.11496-3.0981 0.10266-5.2773 1l-0.46289 0.19141 0.18945 0.46094c1.7053 4.1415 0.875 5.9961 0 8.1211-0.875 2.125-1.7947 4.5204 0 8.8789l0.19141 0.46289 0.46094-0.18945c4.1415-1.7053 5.9961-0.875 8.1211 0 2.125 0.875 4.5204 1.7947 8.8789 0l0.46289-0.19141-0.18945-0.46094c-1.7053-4.1415-0.875-5.9961 0-8.1211s1.7947-4.5204 0-8.8789l-0.19141-0.46289-0.46094 0.18945c-4.1415 1.7053-5.9961 0.875-8.1211 0-1.0625-0.4375-2.1918-0.88504-3.6016-1zm-0.082031 0.95703c1.2465 0.10379 2.2422 0.53125 3.3047 0.96875 2.0307 0.83615 4.3576 1.6461 8.3594 0.15625 1.4493 3.8081 0.70763 5.6503-0.13281 7.6914-0.83615 2.0307-1.6461 4.3576-0.15625 8.3594-3.8081 1.4493-5.6503 0.70763-7.6914-0.13281-2.0307-0.83615-4.3576-1.6461-8.3594-0.15625-1.4493-3.8081-0.70763-5.6503 0.13281-7.6914 0.83615-2.0307 1.6461-4.3576 0.15625-8.3594 1.8257-0.69485 3.2387-0.93153 4.3867-0.83594z"/>
 </g>
</svg>
