<svg version="1.1" viewBox="0 0 16 16" xml:space="preserve" xmlns="http://www.w3.org/2000/svg"><path d="m-0.0339 7.3134e-4h16v15.999h-16z" opacity="0" stroke-width=".99998"/><path d="m8 0.49609a0.45004 0.45004 0 0 0-0.39453 0.23242l-7.5 13.557a0.45004 0.45004 0 0 0 0.39453 0.66797l14.996 0.001953a0.45004 0.45004 0 0 0 0.39258-0.66797l-7.4941-13.559a0.45004 0.45004 0 0 0-0.39453-0.23242zm0 1.3809 6.7324 12.178-13.469-0.001954 6.7363-12.176zm1.9297 5.6777a0.45 0.45 0 0 0-0.24805 0.12695l-1.6816 1.6816-1.6816-1.6816a0.45 0.45 0 0 0-0.63672 0 0.45 0.45 0 0 0 0 0.63672l1.6816 1.6816-1.6816 1.6816a0.45 0.45 0 0 0 0 0.63672 0.45 0.45 0 0 0 0.63672 0l1.6816-1.6816 1.6816 1.6816a0.45 0.45 0 0 0 0.63672 0 0.45 0.45 0 0 0 0-0.63672l-1.6816-1.6816 1.6816-1.6816a0.45 0.45 0 0 0 0-0.63672 0.45 0.45 0 0 0-0.38867-0.12695z" color="#000000" fill="#202020" stroke-linecap="round" stroke-linejoin="round" stroke-miterlimit="10" style="-inkscape-stroke:none"/></svg>
