<svg version="1.1" viewBox="0 0 16 16.016" xmlns="http://www.w3.org/2000/svg">
 <g transform="translate(45 -174.98)">
  <rect x="-45" y="175" width="16" height="16" color="#000000" fill="none"/>
  <path d="m-29.496 174.98a0.50005 0.50005 0 0 0-0.43946 0.2597s-0.4355 0.7794-1.5488 1.6035c-1.1133 0.8242-2.8722 1.6602-5.5156 1.6602s-4.4023-0.836-5.5156-1.6602c-1.1133-0.8241-1.5488-1.6035-1.5488-1.6035a0.50076 0.50076 0 1 0-0.8711 0.4942s0.5645 0.98 1.8262 1.914c1.2617 0.934 3.2528 1.8555 6.1094 1.8555s4.8477-0.9215 6.1094-1.8555c1.2617-0.934 1.8262-1.914 1.8262-1.914a0.50005 0.50005 0 0 0-0.43164-0.7539z" color="#000000" color-rendering="auto" dominant-baseline="auto" fill="#646464" image-rendering="auto" shape-rendering="auto" solid-color="#000000" style="font-feature-settings:normal;font-variant-alternates:normal;font-variant-caps:normal;font-variant-ligatures:normal;font-variant-numeric:normal;font-variant-position:normal;isolation:auto;mix-blend-mode:normal;shape-padding:0;text-decoration-color:#000000;text-decoration-line:none;text-decoration-style:solid;text-indent:0;text-orientation:mixed;text-transform:none;white-space:normal"/>
  <g fill-rule="evenodd">
   <path d="m-39.506 176a0.50005 0.50005 0 0 0-0.5 0.5v4.9766a0.50005 0.50005 0 0 0 0.5 0.5h5.0059a0.50005 0.50005 0 0 0 0.5-0.5v-4.9766a0.50005 0.50005 0 0 0-0.5-0.5zm0.5 1h4.0059v3.9766h-4.0059z" color="#000000" color-rendering="auto" dominant-baseline="auto" image-rendering="auto" shape-rendering="auto" solid-color="#000000" style="font-feature-settings:normal;font-variant-alternates:normal;font-variant-caps:normal;font-variant-ligatures:normal;font-variant-numeric:normal;font-variant-position:normal;isolation:auto;mix-blend-mode:normal;shape-padding:0;text-decoration-color:#000000;text-decoration-line:none;text-decoration-style:solid;text-indent:0;text-orientation:mixed;text-transform:none;white-space:normal"/>
   <path d="m-38 183h2v3h3v2h-3v3h-2v-3h-3v-2h3v-3z"/>
   <rect x="-39.506" y="176.5" width="5.006" height="4.976" color="#000000" opacity=".1381"/>
  </g>
 </g>
</svg>
