<svg version="1.1" viewBox="0 0 16 16" xmlns="http://www.w3.org/2000/svg">
 <g transform="matrix(.9968 0 0 .99986 -557.16 -558.28)">
  <path d="m559 558.36h16v16h-16z" opacity="0"/>
  <path d="m559.41 558.36a0.50219 0.50219 0 1 0 0.0938 1c1.6379 0 2.7914 0.5329 3.6875 1.3437 0.896 0.8109 1.5211 1.9114 1.9375 3.125 0.8326 2.4272 0.8437 5.1549 0.8437 6.1563a0.50005 0.50005 0 0 0 0.75 0.4375c4.5862-2.5589 7.7463-5.8414 8.2813-11.5a0.50219 0.50219 0 1 0-1-0.0937c-0.4745 5.0183-3.0646 7.8606-7.0625 10.25-0.0191-1.302-0.1254-3.3773-0.875-5.5625-0.453-1.3204-1.1215-2.5979-2.1875-3.5625-1.0661-0.9647-2.5192-1.5938-4.375-1.5938a0.50005 0.50005 0 0 0-0.0938 0z"/>
  <path transform="matrix(.7137 -.70046 .7137 .70046 0 0)" d="m-11.619 801.87h3.5992v3.6365h-3.5992z"/>
 </g>
</svg>
