<svg version="1.1" viewBox="0 0 16 16" xmlns="http://www.w3.org/2000/svg">
 <g transform="matrix(.99864 0 0 .9996 -618.14 -558.13)">
  <path d="m619 558.36h16v16h-16z" opacity="0"/>
  <path transform="translate(0 512.36)" d="m634.31 46a0.51404 0.51211 0 0 0-0.4063 0.59375c0.2334 1.5961-0.0607 3.723-1.125 5.4062-0.6325 1.0004-1.5307 1.8452-2.7812 2.375v1.125c1.6552-0.59433 2.8607-1.6793 3.6562-2.9375 1.2267-1.9399 1.518-4.2611 1.25-6.0938a0.51404 0.51211 0 0 0-0.5937-0.46875zm-14.719 0.125a0.52408 0.52211 0 0 0-0.5 0.4375c-0.2977 1.8271-0.053 4.1493 1.125 6.0625 0.7918 1.2859 2.0393 2.37 3.7813 2.9375v-1.0625c-1.3469-0.50158-2.2728-1.3775-2.9063-2.4062-1.0134-1.646-1.2297-3.7421-0.9687-5.3438a0.52408 0.52211 0 0 0-0.5313-0.625z"/>
  <path d="m625 566.36h4v5h-4z"/>
  <path d="m630 569.36h2v1h-2z"/>
  <path d="m622 569.36h2v1h-2z"/>
  <path transform="matrix(1 0 0 1.0104 -.5 512.82)" d="m635 56.5a1.5 1.5 0 0 1-1.5 1.5 1.5 1.5 0 0 1-1.5-1.5 1.5 1.5 0 0 1 1.5-1.5 1.5 1.5 0 0 1 1.5 1.5z"/>
  <path transform="matrix(1 0 0 1.0104 -12.5 512.79)" d="m635 56.5a1.5 1.5 0 0 1-1.5 1.5 1.5 1.5 0 0 1-1.5-1.5 1.5 1.5 0 0 1 1.5-1.5 1.5 1.5 0 0 1 1.5 1.5z"/>
 </g>
</svg>
