<svg version="1.1" viewBox="0 0 16.016 16" xmlns="http://www.w3.org/2000/svg">
 <g transform="matrix(0 1 1 0 -174.98 45)">
  <rect x="-45" y="175" width="16" height="16" color="#000000" fill="none"/>
  <path d="m-29.496 174.98a0.50005 0.50005 0 0 0-0.43946 0.2597s-0.43377 0.7776-1.5449 1.5996c-1.1111 0.8221-2.868 1.6563-5.5117 1.6563s-4.404-0.8338-5.5195-1.6563c-1.1155-0.8224-1.5547-1.6015-1.5547-1.6015a0.50005 0.50005 0 1 0-0.86718 0.498s0.56451 0.9766 1.8281 1.9082c1.2636 0.9317 3.257 1.8516 6.1133 1.8516s4.8457-0.9196 6.1055-1.8516c1.2598-0.932 1.8223-1.9101 1.8223-1.9101a0.50005 0.50005 0 0 0-0.43164-0.7539z" color="#000000" color-rendering="auto" dominant-baseline="auto" fill="#646464" image-rendering="auto" shape-rendering="auto" solid-color="#000000" style="font-feature-settings:normal;font-variant-alternates:normal;font-variant-caps:normal;font-variant-ligatures:normal;font-variant-numeric:normal;font-variant-position:normal;isolation:auto;mix-blend-mode:normal;shape-padding:0;text-decoration-color:#000000;text-decoration-line:none;text-decoration-style:solid;text-indent:0;text-orientation:mixed;text-transform:none;white-space:normal"/>
  <g fill-rule="evenodd">
   <path d="m-39.492 176.52h5.006v4.976h-5.006z" color="#000000" fill-opacity=".39216" opacity=".443" stroke="#00f" stroke-linecap="round" stroke-linejoin="round" stroke-miterlimit="0"/>
   <path d="m-38 183h2v3h3v2h-3v3h-2v-3h-3v-2h3v-3z"/>
   <path d="m-39.992 176.02v5.9766h6.0059v-5.9766zm1 1h4.0059v3.9766h-4.0059z" color="#000000" color-rendering="auto" dominant-baseline="auto" image-rendering="auto" shape-rendering="auto" solid-color="#000000" style="font-feature-settings:normal;font-variant-alternates:normal;font-variant-caps:normal;font-variant-ligatures:normal;font-variant-numeric:normal;font-variant-position:normal;isolation:auto;mix-blend-mode:normal;shape-padding:0;text-decoration-color:#000000;text-decoration-line:none;text-decoration-style:solid;text-indent:0;text-orientation:mixed;text-transform:none;white-space:normal"/>
  </g>
 </g>
</svg>
