<svg version="1.1" viewBox="0 0 16 16" xmlns="http://www.w3.org/2000/svg">
 <path d="M 4.35156,2 C 3.05728,2 2,3.05728 2,4.35156 v 8.29688 C 2,13.94272 3.05728,15 4.35156,15 h 8.29688 C 13.94272,15 15,13.94272 15,12.64844 V 4.35156 C 15,3.05728 13.94272,2 12.64844,2 Z m 0,1 h 8.29688 C 13.40602,3 14,3.59399 14,4.35156 v 8.29688 C 14,13.40601 13.40602,14 12.64844,14 H 4.35156 C 3.59398,14 3,13.40601 3,12.64844 V 4.35156 C 3,3.59399 3.59398,3 4.35156,3 Z M 4.69922,4 C 4.31142,4 4,4.31142 4,4.69922 v 7.60156 C 4,12.68858 4.31142,13 4.69922,13 h 7.60156 C 12.68858,13 13,12.68858 13,12.30078 V 4.69922 C 13,4.31142 12.68858,4 12.30078,4 Z" style="paint-order:stroke fill markers"/>
</svg>
