<svg version="1.1" viewBox="0 0 16 16" xmlns="http://www.w3.org/2000/svg" xmlns:xlink="http://www.w3.org/1999/xlink">
 <g transform="translate(-255 -687.36)">
  <path d="m255 687.36h16v16h-16z" opacity="0"/>
  <g transform="translate(-116.83 551.36)">
   <path id="a" transform="matrix(1.2057 0 0 1.2057 -78.258 -27.176)" d="m376.21 137.98a1.1119 1.1119 0 0 1-1.1119 1.1119 1.1119 1.1119 0 0 1-1.1119-1.1119 1.1119 1.1119 0 0 1 1.1119-1.1119 1.1119 1.1119 0 0 1 1.1119 1.1119z"/>
   <use transform="translate(4.825e-8 2.4114)" width="1250" height="1250" xlink:href="#a"/>
   <use transform="translate(.0067742 5.0893)" width="1250" height="1250" xlink:href="#a"/>
   <use transform="translate(.0027824 7.9465)" width="1250" height="1250" xlink:href="#a"/>
   <use transform="translate(2.96 -.63416)" width="1250" height="1250" xlink:href="#a"/>
   <use transform="translate(3.0062 .88896)" width="1250" height="1250" xlink:href="#a"/>
   <use transform="translate(3.0343 2.7162)" width="1250" height="1250" xlink:href="#a"/>
   <use transform="translate(2.9983 5.9762)" width="1250" height="1250" xlink:href="#a"/>
   <use transform="translate(5.9222 -.70933)" width="1250" height="1250" xlink:href="#a"/>
   <use transform="translate(5.9866 .37872)" width="1250" height="1250" xlink:href="#a"/>
   <use transform="translate(6.0283 2.0497)" width="1250" height="1250" xlink:href="#a"/>
   <use transform="translate(5.9852 4.8263)" width="1250" height="1250" xlink:href="#a"/>
   <use transform="translate(8.8604 -.67653)" width="1250" height="1250" xlink:href="#a"/>
   <use transform="translate(8.9089 .84335)" width="1250" height="1250" xlink:href="#a"/>
   <use transform="translate(8.9379 2.5609)" width="1250" height="1250" xlink:href="#a"/>
   <use transform="translate(8.9015 5.9208)" width="1250" height="1250" xlink:href="#a"/>
   <use transform="translate(11.797 -.00985)" width="1250" height="1250" xlink:href="#a"/>
   <use transform="translate(11.807 2.5306)" width="1250" height="1250" xlink:href="#a"/>
   <use transform="translate(11.815 5.1831)" width="1250" height="1250" xlink:href="#a"/>
   <use transform="translate(11.802 7.9123)" width="1250" height="1250" xlink:href="#a"/>
   <use transform="translate(.0027824 10.711)" width="1250" height="1250" xlink:href="#a"/>
   <use transform="translate(2.9983 9.7247)" width="1250" height="1250" xlink:href="#a"/>
   <use transform="translate(5.9852 9.5036)" width="1250" height="1250" xlink:href="#a"/>
   <use transform="translate(8.9015 9.8878)" width="1250" height="1250" xlink:href="#a"/>
   <use transform="translate(11.802 10.677)" width="1250" height="1250" xlink:href="#a"/>
  </g>
 </g>
</svg>
