<svg version="1.1" viewBox="0 0 16 16" xmlns="http://www.w3.org/2000/svg" xmlns:xlink="http://www.w3.org/1999/xlink">
 <g transform="translate(-255 -727.36)">
  <path d="m255 727.36h16v16h-16z" opacity="0"/>
  <g transform="translate(-116.8 590.73)">
   <path id="a" transform="matrix(1.2057 0 0 1.2057 -78.427 -27.791)" d="m376.21 137.98a1.1119 1.1119 0 0 1-1.1119 1.1119 1.1119 1.1119 0 0 1-1.1119-1.1119 1.1119 1.1119 0 0 1 1.1119-1.1119 1.1119 1.1119 0 0 1 1.1119 1.1119z"/>
   <use transform="translate(8.5616 .49145)" width="1250" height="1250" xlink:href="#a"/>
   <use transform="translate(11.843 2.6548)" width="1250" height="1250" xlink:href="#a"/>
   <use transform="translate(11.465 6.0159)" width="1250" height="1250" xlink:href="#a"/>
   <use transform="translate(2.8004 .16443)" width="1250" height="1250" xlink:href="#a"/>
   <use transform="translate(11.941 -.0096427)" width="1250" height="1250" xlink:href="#a"/>
   <use transform="translate(-.1241 6.118)" width="1250" height="1250" xlink:href="#a"/>
   <use transform="translate(.26026 9.3838)" width="1250" height="1250" xlink:href="#a"/>
   <use transform="translate(6.0991 -.22046)" width="1250" height="1250" xlink:href="#a"/>
   <use transform="translate(.43711 2.7944)" width="1250" height="1250" xlink:href="#a"/>
   <use transform="translate(2.8233 2.9938)" width="1250" height="1250" xlink:href="#a"/>
   <use transform="translate(2.2685 8.9145)" width="1250" height="1250" xlink:href="#a"/>
   <use transform="translate(7.822 3.0368)" width="1250" height="1250" xlink:href="#a"/>
   <use transform="translate(8.5061 3.3952)" width="1250" height="1250" xlink:href="#a"/>
   <use transform="translate(2.8657 4.4954)" width="1250" height="1250" xlink:href="#a"/>
   <use transform="translate(5.9404 8.4225)" width="1250" height="1250" xlink:href="#a"/>
   <use transform="translate(6.9984 5.0751)" width="1250" height="1250" xlink:href="#a"/>
   <use transform="translate(7.5734 6.4369)" width="1250" height="1250" xlink:href="#a"/>
   <use transform="translate(8.3958 9.3301)" width="1250" height="1250" xlink:href="#a"/>
   <use transform="translate(8.886 11.775)" width="1250" height="1250" xlink:href="#a"/>
   <use transform="translate(11.498 9.0646)" width="1250" height="1250" xlink:href="#a"/>
   <use transform="translate(-.009413 12.103)" width="1250" height="1250" xlink:href="#a"/>
   <use transform="translate(3.166 12.234)" width="1250" height="1250" xlink:href="#a"/>
   <use transform="translate(5.9446 11.85)" width="1250" height="1250" xlink:href="#a"/>
   <use transform="translate(12.072 12.103)" width="1250" height="1250" xlink:href="#a"/>
  </g>
 </g>
</svg>
