<svg version="1.1" viewBox="0 0 16 16" xmlns="http://www.w3.org/2000/svg">
 <g transform="translate(-135 -727.36)">
  <g transform="matrix(-1,0,0,1,286,20)">
   <path d="m135 707.36h16v16h-16z" opacity="0"/>
   <path d="m147 717.36 3-3h-6z"/>
   <path transform="translate(0 512.36)" d="m141.5 195c-0.1711 0-0.3323 0.018-0.5 0.031v2.0312c0.1668-0.019 0.3282-0.062 0.5-0.062 2.4853 0 4.5 2.0148 4.5 4.5 0 0.1718-0.044 0.3333-0.062 0.5h2.0312c0.013-0.1677 0.031-0.3289 0.031-0.5 0-3.5898-2.9101-6.5-6.5-6.5z"/>
   <path transform="translate(0 512.36)" d="m135 195h5v10h-5z"/>
   <path transform="rotate(90)" d="m718.36-151h5v10h-5z"/>
  </g>
 </g>
</svg>
