<svg version="1.1" viewBox="0 0 16 16" xmlns="http://www.w3.org/2000/svg">
 <g transform="translate(-255 -787.36)">
  <path d="m255 787.36h16v16h-16z" opacity="0"/>
  <path d="m260.41 788.36c0.1274 1.3311 1.2293 2.375 2.5938 2.375s2.4664-1.0439 2.5937-2.375z"/>
  <path transform="matrix(2.2021 0 0 2.1623 -563.99 496.4)" d="m376.21 137.98a1.1119 1.1119 0 0 1-1.1119 1.1119 1.1119 1.1119 0 0 1-1.1119-1.1119 1.1119 1.1119 0 0 1 1.1119-1.1119 1.1119 1.1119 0 0 1 1.1119 1.1119z" opacity=".5"/>
  <path d="m263 799.58c-1.4516 0-2.625 1.2047-2.625 2.6563v0.125h5.25v-0.125c0-1.4516-1.1734-2.6563-2.625-2.6563z"/>
  <path d="m270 792.55c-1.4208 0.033-2.5625 1.1961-2.5625 2.625 0 1.4288 1.1417 2.5916 2.5625 2.625z"/>
  <path d="m256 792.55v5.25c1.4225-0.034 2.5625-1.1945 2.5625-2.625 0-1.4304-1.1403-2.5912-2.5625-2.625z"/>
  <path d="m267.47 788.36c0.1254 1.3106 1.1959 2.3435 2.5313 2.375v-2.375z"/>
  <path d="m256 788.36v2.375c1.3385-0.032 2.4077-1.0615 2.5312-2.375z"/>
  <path d="m270 799.61c-1.4205 0.034-2.5625 1.1964-2.5625 2.625v0.125h2.5625z"/>
  <path d="m256 799.58v2.7813h2.5625v-0.125c0-1.4306-1.1401-2.622-2.5625-2.6563z"/>
  <path transform="matrix(2.0869 0 0 2.0869 -519.12 507.92)" d="m376.21 137.98a1.1119 1.1119 0 0 1-1.1119 1.1119 1.1119 1.1119 0 0 1-1.1119-1.1119 1.1119 1.1119 0 0 1 1.1119-1.1119 1.1119 1.1119 0 0 1 1.1119 1.1119z"/>
 </g>
</svg>
