<svg version="1.1" viewBox="0 0 16 16" xmlns="http://www.w3.org/2000/svg">
 <path d="m5.0234 0.0625-0.48047 1.7871 0.9668 0.25977 0.47852-1.7891-0.96484-0.25781zm-2.2734 0.40234-0.86719 0.5 0.92578 1.6035 0.86523-0.5-0.92383-1.6035zm5.0039 1.3418-1.6035 0.92578 0.5 0.86523 1.6035-0.92578-0.5-0.86523zm-7.3496 0.92188-0.25977 0.9668 1.7891 0.47852 0.25781-0.9668-1.7871-0.47852zm4.0137 0.2207c-0.22187 0.0052284-0.44604 0.06366-0.65039 0.18164-0.65391 0.37754-0.88144 1.225-0.50391 1.8789l2.7227 4.7129-0.52148-0.30078c-0.73192-0.42258-1.677-0.16748-2.0996 0.56445-0.42257 0.73192-0.16944 1.677 0.5625 2.0996a0.40004 0.40004 0 0 0 0.011719 0.007812c2.164 1.1482 3.8704 2.0057 4.9707 2.5801a0.40004 0.40004 0 0 0 0.0058594 0.001953c0.38791 0.19511 1.1923 0.59725 1.752 1.1855a0.40004 0.40004 0 0 0 0.49023 0.070313l4.5059-2.6016a0.40004 0.40004 0 0 0 0.19922-0.36328c-0.06976-1.5396-0.17723-3.4784-0.91016-4.9199a0.40004 0.40004 0 0 0-0.011719-0.017578l-1.9512-3.3789c-0.37754-0.65391-1.223-0.88144-1.877-0.50391-0.25204 0.14552-0.37715 0.39738-0.49219 0.64453-0.43098-0.36567-1.0085-0.5297-1.5234-0.23242-0.25205 0.14552-0.37715 0.39738-0.49219 0.64453-0.43097-0.3653-1.0087-0.52958-1.5234-0.23242-0.19386 0.11193-0.26275 0.31885-0.37695 0.49609l-1.0586-1.832c-0.18877-0.32696-0.49515-0.54736-0.83594-0.63867-0.1278-0.034243-0.25946-0.050012-0.39258-0.046875zm-0.0019532 0.79492c0.027824-0.0024014 0.054603-0.0017854 0.082031 0 0.18285 0.011902 0.35329 0.11472 0.45508 0.29102l1.627 2.8145 1.3008 2.2539a0.4 0.4 0 0 0 0.54492 0.14648 0.4 0.4 0 0 0 0.14648-0.54688l-1.3008-2.2539c-0.16286-0.28208-0.071138-0.6223 0.21094-0.78516 0.28208-0.16286 0.62425-0.071138 0.78711 0.21094l0.32422 0.5625 1.1387 1.9707a0.4 0.4 0 0 0 0.54688 0.14648 0.4 0.4 0 0 0 0.14648-0.54492l-1.1387-1.9727c-0.16286-0.28208-0.071138-0.6223 0.21094-0.78516 0.28208-0.16286 0.6223-0.071138 0.78516 0.21094l0.13086 0.22461 0.19531 0.33789 0.97461 1.6895a0.4 0.4 0 0 0 0.54688 0.14648 0.4 0.4 0 0 0 0.14648-0.54688l-0.98242-1.7031c-0.15241-0.27938-0.060837-0.61119 0.2168-0.77148 0.28207-0.16286 0.62425-0.071138 0.78711 0.21094l1.9395 3.3594c0.58101 1.1427 0.73295 2.8752 0.80664 4.3555l-4.0781 2.3516c-0.63324-0.55308-1.3702-0.9947-1.6914-1.1562-1.1087-0.57862-2.8025-1.4287-4.9473-2.5664-0.36005-0.20788-0.47937-0.6497-0.27148-1.0098 0.20787-0.36005 0.64971-0.47741 1.0098-0.26953l1.8125 1.0469a0.40004 0.40004 0 0 0 0.54492-0.54688l-3.4668-6.0059c-0.16286-0.28208-0.071138-0.6223 0.21094-0.78516 0.079334-0.045803 0.16458-0.072874 0.24805-0.080078zm-2.2715 1.3008-1.6016 0.92578 0.5 0.86523 1.6016-0.92578-0.5-0.86523z" color="#000000" style="-inkscape-stroke:none"/>
</svg>
