<svg version="1.1" viewBox="0 0 16 16" xmlns="http://www.w3.org/2000/svg" xmlns:xlink="http://www.w3.org/1999/xlink">
 <g transform="matrix(1.2061 0 0 1.0432 -449.35 -141.97)" fill="url(#linearGradient19282)">
  <path d="m372.58 136.09h13.266v15.337h-13.266z" opacity="0"/>
  <g transform="matrix(.82914 0 0 .95856 64.235 5.3094)">
   <use transform="rotate(6.8915 378.7 212.06)" width="1250" height="1250" xlink:href="#a"/>
   <use transform="rotate(6.7423 354.48 240.27)" width="1250" height="1250" xlink:href="#a"/>
   <use transform="rotate(13.883 355.31 190.02)" width="1250" height="1250" xlink:href="#a"/>
   <use transform="rotate(8.1667 375.74 159.16)" width="1250" height="1250" xlink:href="#a"/>
   <use transform="translate(11.815)" width="1250" height="1250" xlink:href="#a"/>
   <use transform="rotate(17.822 354.96 141.5)" width="1250" height="1250" xlink:href="#a"/>
   <use transform="rotate(8.3788 312.27 143.01)" width="1250" height="1250" xlink:href="#a"/>
   <use transform="rotate(15.268 377.22 160.51)" width="1250" height="1250" xlink:href="#a"/>
   <use transform="rotate(9.3876 355.83 139.99)" width="1250" height="1250" xlink:href="#a"/>
   <use transform="rotate(44.871 372.08 143.56)" width="1250" height="1250" xlink:href="#a"/>
   <use transform="rotate(42.228 363.99 146.84)" width="1250" height="1250" xlink:href="#a"/>
   <use transform="rotate(63.216 374.76 144.79)" width="1250" height="1250" xlink:href="#a"/>
   <use transform="rotate(41.222 374.67 151.77)" width="1250" height="1250" xlink:href="#a"/>
   <use transform="rotate(65.038 371 143.82)" width="1250" height="1250" xlink:href="#a"/>
   <use transform="rotate(59.911 369.34 148.14)" width="1250" height="1250" xlink:href="#a"/>
   <use transform="rotate(88.2 374.1 144.55)" width="1250" height="1250" xlink:href="#a"/>
   <use transform="rotate(60.385 373.5 149.12)" width="1250" height="1250" xlink:href="#a"/>
   <use transform="rotate(38.718 365.77 155.62)" width="1250" height="1250" xlink:href="#a"/>
   <use transform="rotate(5.2691 247.11 240.82)" width="1250" height="1250" xlink:href="#a"/>
   <use transform="rotate(5.9107 292.22 257.44)" width="1250" height="1250" xlink:href="#a"/>
   <use transform="translate(0 12.109)" width="1250" height="1250" xlink:href="#a"/>
   <use transform="rotate(6.3718 266.97 171.06)" width="1250" height="1250" xlink:href="#a"/>
   <use transform="rotate(12.64 322.56 171.2)" width="1250" height="1250" xlink:href="#a"/>
   <use transform="translate(11.815 12.109)" width="1250" height="1250" xlink:href="#a"/>
   <path id="a" d="m373.76 136.95h1.258v3.036h-1.258z"/>
  </g>
 </g>
</svg>
