<svg version="1.1" viewBox="0 0 16 16" xmlns="http://www.w3.org/2000/svg">
 <style/>
 <g transform="translate(-10.489 -182.05)">
  <path d="m10.489 182.05h16v16h-16z" opacity="0"/>
  <g>
   <path d="m18.488 183.03c-3.9176 0-7.1113 3.143-7.1113 7.0156 3e-6 3.8726 3.1938 7.0156 7.1113 7.0156 3.9176 0 7.1113-3.143 7.1113-7.0156 4e-6 -3.8727-3.1938-7.0156-7.1113-7.0156zm0 1c3.3849 0 6.1113 2.6913 6.1113 6.0156-2e-6 3.3243-2.7264 6.0156-6.1113 6.0156-3.3849 0-6.1113-2.6913-6.1113-6.0156-3e-6 -3.3243 2.7264-6.0156 6.1113-6.0156z"/>
   <path d="m16.258 187.11-0.70703 0.70703 5.168 5.166 0.70703-0.70703z"/>
   <path d="m20.719 187.11-5.168 5.166 0.70703 0.70703 5.168-5.166z"/>
  </g>
 </g>
</svg>
