<svg version="1.1" viewBox="0 0 16 16" xmlns="http://www.w3.org/2000/svg">
 <g transform="translate(-979 -527.36)">
  <path transform="translate(0 512.36)" d="m979 15h16v16h-16z" opacity="0"/>
  <path d="m987 534.36v2h-4v1h3.9981v2c1.5814-0.85342 2.5013-1.4266 4.0019-2.5324-1.5118-1.044-2.4984-1.6516-4-2.4676z" color="#000000" fill="#808080"/>
  <path d="m989.75 527.36 4.25 4.25v0.75 1 0.55664 5.8887 0.55469c0 0.0774 0 0.14699-0.01 0.2207-0.013 0.55249-0.073 1.0095-0.2187 1.3965-0.1647 0.4386-0.4616 0.78852-0.8379 0.99609-0.7527 0.41512-0.6736 0.37162-1.9317 0.38672h-2e-3 -7.0059-4e-3c-1.2582-0.0145-2.1789 0.0306-2.9316-0.38477-0.37637-0.20766-0.67323-0.55939-0.83789-0.99804-0.16043-0.43867-0.22033-0.95958-0.22033-1.6172v-10c0-0.65761 0.0599-1.1786 0.22461-1.6172 0.16468-0.4386 0.46153-0.78852 0.83789-0.99609 0.75272-0.41512 1.6735-0.37162 2.9316-0.38672h2e-3 5.0039zm-0.75 1h-4.9941-6e-3c-1.2586 0.0152-2.0891 0.0599-2.4551 0.26172-0.18342 0.10116-0.28726 0.21287-0.38476 0.47266-0.0977 0.2598-0.16016 0.67323-0.16016 1.2656v10c0 0.59239 0.0626 1.0057 0.16016 1.2656 0.0976 0.25991 0.20135 0.37146 0.38476 0.47265 0.36596 0.20192 1.1966 0.24702 2.4551 0.26172h6c1.2586-0.0152 2.0891-0.0599 2.455-0.26172 0.1835-0.10116 0.2873-0.21285 0.3848-0.47265 0.098-0.25979 0.1603-0.67324 0.1603-1.2656v-2e-3 -6.998-1h-2-2z" fill="#808080" stroke-width="3.9999"/>
  <path transform="translate(0 512.36)" d="m979 15h16v16h-16z" opacity="0"/>
 </g>
 <style>@import '../../highlights.css';</style>
 <style>.success { fill: #009909; }
   .warning { fill: #FF1990; }
   .error   { fill: #00AAFF; }</style>
</svg>
