<svg version="1.1" viewBox="0 0 16 16" xmlns="http://www.w3.org/2000/svg">
 <path d="m4.114 0.033898a2 2 0 0 0-0.08008 0.5 2 2 0 0 0 2 2 2 2 0 0 0 2-2 2 2 0 0 0-0.0664-0.5zm8 0a2 2 0 0 0-0.08008 0.5 2 2 0 0 0 2 2 2 2 0 0 0 2-2 2 2 0 0 0-0.0664-0.5zm-10.08 1.5a2 2 0 0 0-2 2 2 2 0 0 0 2 2 2 2 0 0 0 2-2 2 2 0 0 0-2-2zm8 0a2 2 0 0 0-2 2 2 2 0 0 0 2 2 2 2 0 0 0 2-2 2 2 0 0 0-2-2zm-4 3a2 2 0 0 0-2 2 2 2 0 0 0 2 2 2 2 0 0 0 2-2 2 2 0 0 0-2-2zm8 0a2 2 0 0 0-2 2 2 2 0 0 0 2 2 2 2 0 0 0 2-2 2 2 0 0 0-2-2zm-12 3a2 2 0 0 0-2 2 2 2 0 0 0 2 2 2 2 0 0 0 2-2 2 2 0 0 0-2-2zm8 0a2 2 0 0 0-2 2 2 2 0 0 0 2 2 2 2 0 0 0 2-2 2 2 0 0 0-2-2zm-4 3a2 2 0 0 0-2 2 2 2 0 0 0 2 2 2 2 0 0 0 2-2 2 2 0 0 0-2-2zm8 0a2 2 0 0 0-2 2 2 2 0 0 0 2 2 2 2 0 0 0 2-2 2 2 0 0 0-2-2zm-12 3a2 2 0 0 0-2 2 2 2 0 0 0 0.0801 0.5h3.8398a2 2 0 0 0 0.08006-0.5 2 2 0 0 0-2-2zm8 0a2 2 0 0 0-2 2 2 2 0 0 0 0.0801 0.5h3.8398a2 2 0 0 0 0.08006-0.5 2 2 0 0 0-2-2z" stroke-miterlimit="10"/>
</svg>
