<svg version="1.1" viewBox="0 0 16 16" xmlns="http://www.w3.org/2000/svg">
 <g transform="matrix(.8 0 0 .79998 -890.4 -743.48)">
  <path d="m1113 929.36h20v20h-20z" opacity="0"/>
  <path d="m1113 929.36h5v20h-5z"/>
  <path transform="translate(0 512.36)" d="m1118 417v1h1v-1zm2 0v1h1v-1zm-2 2v1h1v-1zm1 1v1h1v-1zm1 0h1v-1h-1zm2 1v1h1v-1z"/>
  <path d="m1119 930.36h1v1h-1z"/>
  <path d="m1118 933.36h1v1h-1z"/>
  <path d="m1120 933.36h1v1h-1z"/>
  <path d="m1119 934.36h1v1h-1z"/>
  <path d="m1118 935.36h1v1h-1z"/>
  <path d="m1120 935.36h1v1h-1z"/>
  <path d="m1119 936.36h1v1h-1z"/>
  <path d="m1118 937.36h1v1h-1z"/>
  <path d="m1120 937.36h1v1h-1z"/>
  <path d="m1119 938.36h1v1h-1z"/>
  <path d="m1118 939.36h1v1h-1z"/>
  <path d="m1120 939.36h1v1h-1z"/>
  <path d="m1119 940.36h1v1h-1z"/>
  <path d="m1118 941.36h1v1h-1z"/>
  <path d="m1120 941.36h1v1h-1z"/>
  <path d="m1119 942.36h1v1h-1z"/>
  <path d="m1118 943.36h1v1h-1z"/>
  <path d="m1120 943.36h1v1h-1z"/>
  <path d="m1119 944.36h1v1h-1z"/>
  <path d="m1118 945.36h1v1h-1z"/>
  <path d="m1120 945.36h1v1h-1z"/>
  <path d="m1119 946.36h1v1h-1z"/>
  <path d="m1118 947.36h1v1h-1z"/>
  <path d="m1120 947.36h1v1h-1z"/>
  <path d="m1121 946.36h1v1h-1z"/>
  <path d="m1121 944.36h1v1h-1z"/>
  <path d="m1121 942.36h1v1h-1z"/>
  <path d="m1121 940.36h1v1h-1z"/>
  <path d="m1121 938.36h1v1h-1z"/>
  <path d="m1121 936.36h1v1h-1z"/>
  <path d="m1121 934.36h1v1h-1z"/>
  <path d="m1121 932.36h1v1h-1z"/>
  <path d="m1121 930.36h1v1h-1z"/>
  <path d="m1122 929.36h1v1h-1z"/>
  <path d="m1122 931.36h1v1h-1z"/>
  <path d="m1122 935.36h1v1h-1z"/>
  <path d="m1122 937.36h1v1h-1z"/>
  <path d="m1122 939.36h1v1h-1z"/>
  <path d="m1122 941.36h1v1h-1z"/>
  <path d="m1122 943.36h1v1h-1z"/>
  <path d="m1122 945.36h1v1h-1z"/>
  <path d="m1122 947.36h1v1h-1z"/>
  <path d="m1121 948.36h1v1h-1z"/>
  <path d="m1119 948.36h1v1h-1z"/>
  <path d="m1123 929.36h5v20h-5z" opacity=".5"/>
  <path transform="translate(0 512.36)" d="m1129 417h1v1h-1z" opacity=".5"/>
  <path d="m1131 929.36h1v1h-1z" opacity=".5"/>
  <path d="m1130 930.36h1v1h-1z" opacity=".5"/>
  <path d="m1132 930.36h1v1h-1z" opacity=".5"/>
  <path d="m1131 931.36h1v1h-1z" opacity=".5"/>
  <path d="m1129 931.36h1v1h-1z" opacity=".5"/>
  <path d="m1130 932.36h1v1h-1z" opacity=".5"/>
  <path d="m1132 932.36h1v1h-1z" opacity=".5"/>
  <path d="m1131 933.36h1v1h-1z" opacity=".5"/>
  <path d="m1129 933.36h1v1h-1z" opacity=".5"/>
  <path d="m1130 934.36h1v1h-1z" opacity=".5"/>
  <path d="m1132 934.36h1v1h-1z" opacity=".5"/>
  <path d="m1131 935.36h1v1h-1z" opacity=".5"/>
  <path d="m1129 935.36h1v1h-1z" opacity=".5"/>
  <path d="m1130 936.36h1v1h-1z" opacity=".5"/>
  <path d="m1132 936.36h1v1h-1z" opacity=".5"/>
  <path d="m1131 937.36h1v1h-1z" opacity=".5"/>
  <path d="m1129 937.36h1v1h-1z" opacity=".5"/>
  <path d="m1132 938.36h1v1h-1z" opacity=".5"/>
  <path d="m1130 938.36h1v1h-1z" opacity=".5"/>
  <path d="m1129 939.36h1v1h-1z" opacity=".5"/>
  <path d="m1131 939.36h1v1h-1z" opacity=".5"/>
  <path d="m1132 940.36h1v1h-1z" opacity=".5"/>
  <path d="m1130 940.36h1v1h-1z" opacity=".5"/>
  <path d="m1129 941.36h1v1h-1z" opacity=".5"/>
  <path d="m1131 941.36h1v1h-1z" opacity=".5"/>
  <path d="m1132 942.36h1v1h-1z" opacity=".5"/>
  <path d="m1130 942.36h1v1h-1z" opacity=".5"/>
  <path d="m1129 943.36h1v1h-1z" opacity=".5"/>
  <path d="m1131 943.36h1v1h-1z" opacity=".5"/>
  <path d="m1132 944.36h1v1h-1z" opacity=".5"/>
  <path d="m1130 944.36h1v1h-1z" opacity=".5"/>
  <path d="m1129 945.36h1v1h-1z" opacity=".5"/>
  <path d="m1131 945.36h1v1h-1z" opacity=".5"/>
  <path d="m1132 946.36h1v1h-1z" opacity=".5"/>
  <path d="m1130 946.36h1v1h-1z" opacity=".5"/>
  <path d="m1129 947.36h1v1h-1z" opacity=".5"/>
  <path d="m1131 947.36h1v1h-1z" opacity=".5"/>
  <path d="m1132 948.36h1v1h-1z" opacity=".5"/>
  <path d="m1130 948.36h1v1h-1z" opacity=".5"/>
  <path d="m1128 930.36h1v1h-1z" opacity=".5"/>
  <path d="m1128 932.36h1v1h-1z" opacity=".5"/>
  <path d="m1128 934.36h1v1h-1z" opacity=".5"/>
  <path d="m1128 936.36h1v1h-1z" opacity=".5"/>
  <path d="m1128 938.36h1v1h-1z" opacity=".5"/>
  <path d="m1128 940.36h1v1h-1z" opacity=".5"/>
  <path d="m1128 942.36h1v1h-1z" opacity=".5"/>
  <path d="m1128 944.36h1v1h-1z" opacity=".5"/>
  <path d="m1128 946.36h1v1h-1z" opacity=".5"/>
  <path d="m1128 948.36h1v1h-1z" opacity=".5"/>
 </g>
</svg>
