<svg version="1.1" viewBox="0 0 16 16" xmlns="http://www.w3.org/2000/svg">
 <g transform="translate(-165 -647.36)">
  <path d="m165 647.36h16v16h-16z" opacity="0"/>
  <path transform="translate(0 512.36)" d="m175.97 140c0.0149 0.1649 0.0313 0.3312 0.0313 0.5 0 1.3289-0.4654 2.5493-1.25 3.5-0.0909 0.1057-0.1828 0.214-0.2813 0.3125-0.0252 0.0264-0.0678 0.0366-0.0937 0.0625-0.1005 0.0965-0.1737 0.2237-0.2813 0.3125-0.0278 0.0239-0.0654 0.0392-0.0937 0.0625-0.1092 0.0865-0.2281 0.1718-0.3438 0.25-0.0185 0.0131-0.0438 0.0184-0.0625 0.0312-0.1579 0.1038-0.3 0.2251-0.4687 0.3125-0.7564 0.392-1.6211 0.5938-2.5313 0.5938-0.2123 0-0.3877-0.1016-0.5937-0.125v4.1875h10v-10z"/>
  <path transform="translate(0 512.36)" d="m170.5 135c-3.0376 0-5.5 2.4624-5.5 5.5 0 2.8793 2.2137 5.2303 5.0312 5.4687v-5.9687h5.9375c-0.2529-2.8029-2.6-5-5.4687-5z"/>
  <path d="m170.03 652.36v5.9688c0.1649 0.0149 0.3312 0.0313 0.5 0.0313 3.0376 0 5.5-2.4625 5.5-5.5 0-0.1688-0.0164-0.3351-0.0313-0.5z" opacity=".5"/>
 </g>
</svg>
