<svg version="1.1" viewBox="0 0 16 16" xmlns="http://www.w3.org/2000/svg">
 <g transform="matrix(.98818 0 0 .9858 -162.94 -835.22)">
  <path transform="translate(0 512.36)" d="m165 335h16v16h-16z" opacity="0"/>
  <path d="m165 849.36v2h4v2l2.9883-3-2.9883-3v2z"/>
  <path d="m181 859.36v2h-4v2l-2.9883-3 2.9883-3v2z"/>
  <path d="m180.26 847.25-0.13672 0.4082s-0.61831 1.8459-1.8398 3.6836c-1.2215 1.8377-3.0004 3.5918-5.2832 3.5918-2.7172 0-4.7138 2.0298-6.0176 3.9766-1.3038 1.9468-1.959 3.8848-1.959 3.8848l-0.13867 0.4082 0.81445 0.27735 0.13867-0.40821s0.62843-1.8456 1.8594-3.6836c1.2309-1.838 3.0199-3.5938 5.3027-3.5938 2.7172 0 4.7057-2.0294 6-3.9766 1.2943-1.9471 1.9394-3.8867 1.9394-3.8867l0.13672-0.40821z"/>
  <path d="m171 853.36h4v4h-4z"/>
 </g>
</svg>
