<svg version="1.1" viewBox="0 0 16 16" xmlns="http://www.w3.org/2000/svg">
 <g transform="translate(-165 -627.36)">
  <path d="m165 627.36h16v16h-16z" opacity="0"/>
  <path transform="translate(0 512.36)" d="m170 120v5.9688c0.1649 0.0148 0.3312 0.0312 0.5 0.0312 3.0376 0 5.5-2.4624 5.5-5.5 0-0.1688-0.0164-0.3351-0.0313-0.5z"/>
  <path transform="translate(0 512.36)" d="m170.5 115c-3.0376 0-5.5 2.4624-5.5 5.5 0 2.8688 2.1971 5.2158 5 5.4688v-0.1563c0.206 0.0234 0.3814 0.125 0.5937 0.125 0.9102 0 1.7749-0.2018 2.5313-0.5937 0.1687-0.0875 0.3108-0.2087 0.4687-0.3125 0.0187-0.0129 0.044-0.0182 0.0625-0.0313 0.1157-0.0782 0.2346-0.1635 0.3438-0.25 0.0283-0.0233 0.0659-0.0386 0.0937-0.0625 0.1076-0.0888 0.1808-0.216 0.2813-0.3125 0.0259-0.0259 0.0683-0.0361 0.0937-0.0625 0.0986-0.0985 0.1904-0.2068 0.2813-0.3125 0.7846-0.9507 1.25-2.1711 1.25-3.5 0-3.0376-2.4624-5.5-5.5-5.5z" opacity=".5"/>
  <path transform="translate(0 512.36)" d="m170 120h10v10h-10z" opacity=".5"/>
 </g>
</svg>
