<svg version="1.1" viewBox="0 0 16 16" xmlns="http://www.w3.org/2000/svg">
 <g transform="matrix(.99887 0 0 1 -917.96 -557.36)">
  <path transform="translate(0 512.36)" d="m919 45h16v16h-16z" opacity="0"/>
  <path d="m924.12 558.39c-1.5206 0.0133-2.9479 0.73578-3.8945 1.8945-0.94285 1.1542-1.3515 2.655-1.1914 4.1113 0.13056 1.1881 0.63179 2.3154 1.4258 3.209 0.79379 0.89347 1.8531 1.5214 3.0176 1.791a1.0006 1.0006 0 1 0 0.45117-1.9492c-0.75136-0.17398-1.4604-0.59535-1.9727-1.1719-0.51221-0.57644-0.8474-1.3311-0.93164-2.0977-0.1021-0.92868 0.17486-1.921 0.75-2.625 0.57058-0.69845 1.4881-1.1532 2.3652-1.1602a1.0006 1.0006 0 0 0 4e-3 0c0.57967-7e-3 1.1799 0.17851 1.6524 0.51367 0.4692 0.33287 0.83659 0.83613 1.0039 1.377 0.2072 0.66983 0.13388 1.5899 0.24414 2.6914 0.0709 0.70496 0.23788 1.4375 0.58594 2.1309 0.35059 0.69827 0.88094 1.3406 1.6074 1.7734 0.89563 0.53357 1.9693 0.67264 2.9688 0.39257a1.0006 1.0006 0 0 0 2e-3 0c0.9984-0.2799 1.8378-0.95368 2.334-1.8594 0.44164-0.80593 0.58182-1.7424 0.39648-2.6426-0.18533-0.90012-0.68413-1.7055-1.4082-2.2715a1.0006 1.0006 0 1 0-1.2324 1.5762c0.33933 0.26524 0.59477 0.67578 0.68164 1.0977 0.0869 0.42184 0.0155 0.90162-0.19141 1.2793-0.23039 0.42051-0.66349 0.76429-1.1211 0.89258-0.45655 0.12793-1.0027 0.0568-1.4062-0.18359-0.33732-0.20097-0.63874-0.54284-0.84375-0.95118h2e-3c-0.20754-0.41344-0.33171-0.90635-0.38476-1.4336-0.0829-0.82851 0.0437-1.9008-0.32227-3.084-0.30329-0.98038-0.92822-1.8294-1.7578-2.418-0.82533-0.58551-1.8187-0.89471-2.8301-0.88282z" stroke-linecap="round">
   <desc>inkscape:path-effect="#path-effect36695" striped for faster load</desc>
  </path>
 </g>
</svg>
