<svg version="1.1" viewBox="0 0 16 16" xmlns="http://www.w3.org/2000/svg">
 <g transform="translate(-1009 -557.36)">
  <path d="m1009 557.36h16v16h-16z" opacity="0"/>
  <g transform="matrix(1.3951 -1.3664 1.3664 1.3951 -404.67 1807.6)" stroke-linecap="round">
   <path d="m964.97 53.113c-2.1124 0.29443-3.5664 1.9199-3.5664 1.9199a0.51215 0.51215 0 1 0 0.7539 0.69336s1.3011-1.3693 2.9531-1.5996c0.74029-0.10318 1.522 0.26174 2.127 0.69922 0.60495 0.43748 0.99414 0.90234 0.99414 0.90234a0.51215 0.51215 0 1 0 0.78516-0.65625s-0.46121-0.558-1.1777-1.0762c-0.71653-0.51817-1.7271-1.042-2.8691-0.88281z"/>
   <path d="m965.21 49.99a0.25607 0.25607 0 0 0-0.17578 0.07617l-4.5039 4.5742a0.2562 0.2562 0 1 0 0.36524 0.35938l4.3242-4.3926 4.3926 4.3008a0.25607 0.25607 0 1 0 0.35743-0.36523l-4.5742-4.4805a0.25607 0.25607 0 0 0-0.18555-0.07227z"/>
  </g>
 </g>
</svg>
