<svg version="1.1" viewBox="0 0 16 16" xmlns="http://www.w3.org/2000/svg">
 <g transform="matrix(1 0 0 .99805 -859 -556.28)">
  <path d="m859 557.36h16v16h-16z" opacity="0"/>
  <path d="m871.52 558.31a0.50005 0.50005 0 0 0-0.0859 0.01c-5.5784 1.0362-10.571 4.7277-11.404 11.43a0.50005 0.50005 0 1 0 0.99219 0.125c0.77875-6.2666 5.3235-9.591 10.596-10.57a0.50005 0.50005 0 0 0-0.0977-0.99414z" stroke-linecap="round"/>
  <path transform="matrix(1.5 0 0 1.5 -391.5 485.36)" d="m843 49a1 1 0 0 1-1 1 1 1 0 0 1-1-1 1 1 0 0 1 1-1 1 1 0 0 1 1 1z"/>
  <path transform="matrix(1.5 0 0 1.5 -402.5 496.36)" d="m843 49a1 1 0 0 1-1 1 1 1 0 0 1-1-1 1 1 0 0 1 1-1 1 1 0 0 1 1 1z"/>
  <path d="m866 564.36v4.8437c0 1.7193 2 3.1563 4.4687 4.1875 2.5313-1.0312 4.5-2.1953 4.5-4.125v-4.9062zm1 2h3v2l-2-1zm4 0h3l-1 1-2 1zm-3 3h5c-2.4749 4.4894-5 0-5 0z"/>
 </g>
</svg>
