<svg version="1.1" viewBox="0 0 16 16" xmlns="http://www.w3.org/2000/svg">
 <path d="m0 0h16v16h-16z" opacity="0"/>
 <path d="m0.78758 0.66319-0.034484 14.681 14.725 0.034588 0.034485-14.681zm7.4065 1.2718 2.1337 3.5032 3.918 1.2137-2.6718 3.1116 0.05568 4.1016-3.7865-1.5784-3.8817 1.3183 0.33234-4.0872-2.4551-3.285 3.9903-0.94731z"/>
 <path d="m15 11.147a4.3711 4.2577 0 0 0-4.3711-4.2577 4.3711 4.2577 0 0 0-4.3711 4.2577 4.3711 4.2577 0 0 0 4.3711 4.2577 4.3711 4.2577 0 0 0 4.3711-4.2577z" opacity=".3" stroke-width="1.1035"/>
</svg>
