<svg version="1.1" viewBox="0 0 16 16" xmlns="http://www.w3.org/2000/svg">
 <path d="m1.5 0a1.5 1.5 0 0 0-1.5 1.5 1.5 1.5 0 0 0 1.5 1.5 1.5 1.5 0 0 0 1.5-1.5 1.5 1.5 0 0 0-1.5-1.5zm13 0a1.5 1.5 0 0 0-1.5 1.5 1.5 1.5 0 0 0 1.5 1.5 1.5 1.5 0 0 0 1.5-1.5 1.5 1.5 0 0 0-1.5-1.5zm-8.75 2c-2.0645 0-3.75 1.6855-3.75 3.75v4.5c0 2.0645 1.6855 3.75 3.75 3.75h4.5c2.0645 0 3.75-1.6855 3.75-3.75v-4.5c0-2.0645-1.6855-3.75-3.75-3.75h-4.5zm0 1.5h4.5c1.2595 0 2.25 0.99053 2.25 2.25v4.5c0 1.2595-0.99053 2.25-2.25 2.25h-4.5c-1.2595 0-2.25-0.99053-2.25-2.25v-4.5c0-1.2595 0.99053-2.25 2.25-2.25zm-4.25 9.5a1.5 1.5 0 0 0-1.5 1.5 1.5 1.5 0 0 0 1.5 1.5 1.5 1.5 0 0 0 1.5-1.5 1.5 1.5 0 0 0-1.5-1.5zm13 0a1.5 1.5 0 0 0-1.5 1.5 1.5 1.5 0 0 0 1.5 1.5 1.5 1.5 0 0 0 1.5-1.5 1.5 1.5 0 0 0-1.5-1.5z" color="#000000"/>
</svg>
