<svg version="1.1" viewBox="0 0 16 16" xmlns="http://www.w3.org/2000/svg">
 <style>.base    { fill: #000000; }
   .success { fill: #009909; }
   .warning { fill: #FF1990; }
   .error   { fill: #00AAFF; }
   .dark    {  }</style>
 <style>@import '../../highlights.css';</style>
 <path d="m0 0h16v16h-16z" opacity="0"/>
 <path class="base" d="m14 5a1 1 0 0 0-0.29289-0.70711l-3-3a1 1 0 0 0-0.70711-0.29289h-7a1 1 0 0 0-1 1v12a1 1 0 0 0 1 1h10a1 1 0 0 0 1-1zm-11 8 1 1v-12l-1 1h7l-0.70711-0.29289 3 3-0.29289-0.70711v9l1-1z" stroke-width=".4786"/>
 <path d="m9 2.5254v2.9746a0.5 0.5 0 0 0 0.5 0.5h3.5v-1h-3.5l0.5 0.5v-2.9746z" stop-color="#000000"/>
</svg>
