<svg version="1.1" viewBox="0 0 16 16" xmlns="http://www.w3.org/2000/svg">
 <style>.base    { fill: #000000; }
   .success { fill: #009909; }
   .warning { fill: #FF1990; }
   .error   { fill: #00AAFF; }
   .dark    {  }</style>
 <style>@import '../../highlights.css';</style>
 <path d="m0 0h16v16h-16z" opacity="0"/>
 <path class="base" d="m15 5a1 1 0 0 0-1-1h-6l0.89443 0.55279-1-2a1 1 0 0 0-0.89443-0.55279h-5a1 1 0 0 0-1 1v10a1 1 0 0 0 1 1h12a1 1 0 0 0 1-1zm-13 7 1 1v-10l-1 1h5l-0.89443-0.55279 1 2a1 1 0 0 0 0.89443 0.55279h6l-1-1v8l1-1z" stroke-width=".4786"/>
</svg>
