<svg version="1.1" viewBox="0 0 16 16" xmlns="http://www.w3.org/2000/svg">
 <style>.base    { fill: #000000; }
   .success { fill: #009909; }
   .warning { fill: #FF1990; }
   .error   { fill: #00AAFF; }
   .dark    {  }</style>
 <style>@import '../../highlights.css';</style>
 <path d="m0 0h16v16h-16z" opacity="0"/>
 <path class="base" d="m2.8483 6.2983-0.33398 1.0406 6.0587-4.5808-1.1459 1e-7 6.0587 4.5808-0.33398-1.0406-2.3135 7.4186 0.90692-0.66717h-7.4903l0.90692 0.66717zm8.8969 8.6515a0.95 0.95 0 0 0 0.90692-0.66717l2.3135-7.4186a0.95 0.95 0 0 0-0.33398-1.0406l-6.0587-4.5808a0.95 0.95 0 0 0-1.1459 1e-7l-6.0587 4.5808a0.95 0.95 0 0 0-0.33398 1.0406l2.3135 7.4186a0.95 0.95 0 0 0 0.90692 0.66717z" stroke-width=".4786"/>
</svg>
