<svg version="1.1" viewBox="0 0 16 16" xmlns="http://www.w3.org/2000/svg">
 <g transform="translate(-739 -558.36)">
  <path d="m739 558.36h16v16h-16z" opacity="0"/>
  <path d="m753.23 561.27c-2.151 0.3304-4.642 1.5803-6.6549 3.424-2.0128 1.8438-3.5778 4.3218-3.5778 7.0405a0.57251 0.61562 0 1 0 1.1449 0c0-2.2058 1.2973-4.383 3.1485-6.0787 1.8512-1.6956 4.2261-2.908 6.0824-3.1932a0.57251 0.61562 0 1 0-0.1431-1.1926z"/>
  <path d="m743.48 560.55a0.54999 0.76843 0 0 0-0.4812 0.8164v9.2203a0.54999 0.76843 0 1 0 1.0999 0v-9.2203a0.54999 0.76843 0 0 0-0.6187-0.8164z"/>
  <path d="m742 568.36h4v4h-4z"/>
  <path transform="matrix(1.0417 0 0 1.0417 -30.986 510.34)" d="m745 48.5a1.5 1.5 0 0 1-1.5 1.5 1.5 1.5 0 0 1-1.5-1.5 1.5 1.5 0 0 1 1.5-1.5 1.5 1.5 0 0 1 1.5 1.5z"/>
 </g>
</svg>
