<svg version="1.1" viewBox="0 0 16 16" xmlns="http://www.w3.org/2000/svg">
 <g transform="translate(-75 -727.36)">
  <path transform="translate(0 512.36)" d="m75 215h16v16h-16z" opacity="0"/>
  <path transform="translate(0 512.36)" d="m75 215h1v16h-1z"/>
  <path transform="translate(0 512.36)" d="m75 215h16v1h-16z"/>
  <path transform="translate(0 512.36)" d="m90 215h1v16h-1z"/>
  <path transform="translate(0 512.36)" d="m75 230h16v1h-16z"/>
  <path transform="translate(0 512.36)" d="m75 218h16v1h-16z"/>
  <path transform="translate(0 512.36)" d="m75 221h16v1h-16z"/>
  <path transform="translate(0 512.36)" d="m75 224h16v1h-16z"/>
  <path d="m75 739.36h16v1h-16z"/>
  <path transform="translate(0 512.36)" d="m78 215h1v16h-1z"/>
  <path transform="translate(0 512.36)" d="m81 215h1v16h-1z"/>
  <path transform="translate(0 512.36)" d="m84 215h1v16h-1z"/>
  <path transform="translate(0 512.36)" d="m87 215h1v16h-1z"/>
 </g>
</svg>
