<svg version="1.1" viewBox="0 0 16 16" xmlns="http://www.w3.org/2000/svg">
 <g transform="translate(-691.99 -493.92)">
  <path transform="scale(-1,1)" d="m-699.39 494.84c1.6907 0 3.3798 0.64147 4.666 1.9238l-1.0586 1.0625c-1.9983-1.9924-5.2185-1.9924-7.2168 0-1.9983 1.9923-1.9983 5.1971 0 7.1894 1.9983 1.9924 5.2185 1.9924 7.2168 0l1.0586 1.0606c-2.5724 2.5647-6.7616 2.5647-9.334 0-2.5724-2.5647-2.5724-6.7478 0-9.3125 1.2862-1.2824 2.9773-1.9238 4.668-1.9238zm2.4062 3.0762v2h4v3h-4v2l-4-3.5 4-3.5z" color="#000000" stroke-miterlimit="10" style="paint-order:markers stroke fill"/>
 </g>
</svg>
