<svg version="1.1" viewBox="0 0 15.505 16.123" xmlns="http://www.w3.org/2000/svg">
 <g transform="translate(-932.5 -29.627)">
  <path transform="translate(932.5 29.627)" d="m2.0039 4.5176v5.6055a0.50005 0.50005 0 1 0 1 0v-5.6055h-1z" color="#000000" color-rendering="auto" dominant-baseline="auto" fill="#3c3c3c" image-rendering="auto" opacity=".317" shape-rendering="auto" solid-color="#000000" style="font-feature-settings:normal;font-variant-alternates:normal;font-variant-caps:normal;font-variant-ligatures:normal;font-variant-numeric:normal;font-variant-position:normal;isolation:auto;mix-blend-mode:normal;shape-padding:0;text-decoration-color:#000000;text-decoration-line:none;text-decoration-style:solid;text-indent:0;text-orientation:mixed;text-transform:none;white-space:normal"/>
  <path d="m944.58 29.723-6 9 0.832 0.55468 6-9z" color="#000000" color-rendering="auto" dominant-baseline="auto" image-rendering="auto" opacity=".317" shape-rendering="auto" solid-color="#000000" style="font-feature-settings:normal;font-variant-alternates:normal;font-variant-caps:normal;font-variant-ligatures:normal;font-variant-numeric:normal;font-variant-position:normal;isolation:auto;mix-blend-mode:normal;shape-padding:0;text-decoration-color:#000000;text-decoration-line:none;text-decoration-style:solid;text-indent:0;text-orientation:mixed;text-transform:none;white-space:normal"/>
  <g transform="translate(1.5 .5)" stroke="#000" stroke-width="1px">
   <path d="m943 37.5v3" color="#000000"/>
   <path d="m943 41.5v3" color="#000000"/>
   <path d="m939.5 41h3" color="#000000"/>
   <path d="m943.5 41h3" color="#000000"/>
  </g>
  <g fill-rule="evenodd" shape-rendering="auto">
   <path d="m936.5 41.249c-1.2367 0-2.2507 1.014-2.2507 2.2507s1.014 2.2507 2.2507 2.2507 2.2508-1.014 2.2508-2.2507-1.0141-2.2507-2.2508-2.2507zm0 1.0015c0.6963 0 1.2493 0.55298 1.2493 1.2493s-0.553 1.2493-1.2493 1.2493c-0.6962 0-1.2492-0.55298-1.2492-1.2493s0.553-1.2493 1.2492-1.2493z" color="#000000" color-rendering="auto" dominant-baseline="auto" image-rendering="auto" solid-color="#000000" style="font-feature-settings:normal;font-variant-alternates:normal;font-variant-caps:normal;font-variant-ligatures:normal;font-variant-numeric:normal;font-variant-position:normal;isolation:auto;mix-blend-mode:normal;shape-padding:0;text-decoration-color:#000000;text-decoration-line:none;text-decoration-style:solid;text-indent:0;text-orientation:mixed;text-transform:none;white-space:normal"/>
   <path d="m942 32.249c-1.2367 0-2.2507 1.014-2.2507 2.2507s1.014 2.2507 2.2507 2.2507 2.2508-1.014 2.2508-2.2507-1.0141-2.2507-2.2508-2.2507zm0 1.0015c0.6963 0 1.2493 0.55298 1.2493 1.2493s-0.553 1.2493-1.2493 1.2493c-0.6962 0-1.2492-0.55298-1.2492-1.2493s0.553-1.2493 1.2492-1.2493z" color="#000000" color-rendering="auto" dominant-baseline="auto" image-rendering="auto" solid-color="#000000" style="font-feature-settings:normal;font-variant-alternates:normal;font-variant-caps:normal;font-variant-ligatures:normal;font-variant-numeric:normal;font-variant-position:normal;isolation:auto;mix-blend-mode:normal;shape-padding:0;text-decoration-color:#000000;text-decoration-line:none;text-decoration-style:solid;text-indent:0;text-orientation:mixed;text-transform:none;white-space:normal"/>
   <path d="m933 29.627a0.50005 0.50005 0 0 0-0.5 0.5v4.0176a0.50005 0.50005 0 0 0 0.5 0.5h4.0098a0.50005 0.50005 0 0 0 0.5-0.5v-4.0176a0.50005 0.50005 0 0 0-0.5-0.5zm0.5 1h3.0098v3.0176h-3.0098z" color="#000000" color-rendering="auto" dominant-baseline="auto" image-rendering="auto" solid-color="#000000" style="font-feature-settings:normal;font-variant-alternates:normal;font-variant-caps:normal;font-variant-ligatures:normal;font-variant-numeric:normal;font-variant-position:normal;isolation:auto;mix-blend-mode:normal;shape-padding:0;text-decoration-color:#000000;text-decoration-line:none;text-decoration-style:solid;text-indent:0;text-orientation:mixed;text-transform:none;white-space:normal"/>
  </g>
 </g>
</svg>
