<svg version="1.1" viewBox="0 0 16 16" xmlns="http://www.w3.org/2000/svg">
 <g transform="translate(-679 -506.42)">
  <path d="m679 506.49h16v15.938h-16z" opacity="0"/>
  <path d="m694.91 506.42-1.9375 0.083v3.9641h2c0-0.8809-0.062-3.1658-0.062-4.0467z"/>
  <path transform="scale(-1)" d="m-694.97-522.42h2v3.9844h-2z"/>
  <path transform="rotate(-90)" d="m-522.36 686h1.9922v3h-1.9922z"/>
  <path transform="scale(-1)" d="m-694.97-522.42h4v1.9922h-4z"/>
  <path transform="rotate(-90)" d="m-508.42 686h1.9922v3h-1.9922z"/>
  <path d="m691 506.42h4v1.9922h-4z"/>
  <path transform="rotate(90)" d="m513.4-688h1.9922v7h-1.9922z"/>
  <path d="m688 511.41v5.9767l4-2.9884z"/>
  <path d="m693 512.4h2v3.9844h-2z"/>
  <path d="m681 510.41h2v7.9689h-2z"/>
  <path d="m685 518.38h-6l3 3.9844z"/>
  <path d="m685 510.41h-6l3-3.9844z"/>
 </g>
</svg>
