<svg version="1.1" viewBox="0 0 16 16" xmlns="http://www.w3.org/2000/svg">
 <g transform="matrix(1 0 0 1 -799 -527.36)">
  <path d="m799 527.36h16v16h-16z" opacity="0"/>
  <path d="m807.55 540.85c3.5935 0 5.5271-1.3585 6.4851-2.7886s0.962-2.9183 0.962-2.9183a0.49652 0.51886 0 1 0-0.993 0s4e-3 1.1383-0.7757 2.3022c-0.6813 1.0171-2.1693 1.9234-4.7165 2.1725 1.4171-2.1812 2.0669-4.0921 1.7997-5.6745-0.3113-1.8434-1.5454-3.1972-2.9788-4.1505-2.867-1.9064-6.6714-2.3995-6.6714-2.3995a0.49652 0.51886 0 1 0-0.1241 1.0052s3.6426 0.5447 6.2369 2.2698c1.2972 0.8626 2.2972 1.9732 2.5444 3.4372 0.2473 1.4639-0.2074 3.3757-2.141 5.9014a0.49652 0.51886 0 0 0 0.3724 0.8431z"/>
  <path transform="rotate(135)" d="m-190.61-954.82h4.1328v4.1757h-4.1328z"/>
 </g>
</svg>
