<svg version="1.1" viewBox="0 0 16 16" xmlns="http://www.w3.org/2000/svg">
 <path d="m2.4531 0.36133-0.01 0.041-2.3027 10.584h1.4668l0.40235-2.0527h2.002l0.39453 2.0527h1.2656l-2.043 4.0312h1.8144l1.3984-2.7988h5.4941l1.3144 2.7988h1.8477l-5-10.229h-1.6856l-2.9688 5.8594-2.2051-10.287zm0.57422 2.4688c0.12559 1.1513 0.27082 2.2624 0.45899 3.2891l0.30469 1.6172h-1.5664l0.25-1.291c0.1364-0.72748 0.25347-1.4128 0.35351-2.0586 0.0809-0.5257 0.1421-1.0428 0.19922-1.5566zm6.6133 3.709 2.0176 4.2461h-4.1289l2.0215-4.0625z" color="#000000" style="font-variant-numeric:oldstyle-nums"/>
</svg>
