<svg version="1.1" viewBox="0 0 16 16" xmlns="http://www.w3.org/2000/svg">
 <g transform="translate(-225 -961.36)">
  <path transform="translate(0 512.36)" d="m225 449h16v16h-16z" opacity="0"/>
  <path d="m231.5 962.36c-3.0424 0-5.5 2.4892-5.5 5.5312 0 3.0421 2.4576 5.4688 5.5 5.4688 1.0822 0 2.0862-0.3048 2.9375-0.8438l2.7702 2.5867c0.3805 0.3796 0.9689 0.354 1.3438-0.031l0.1875-0.1875c0.3748-0.3852 0.3804-0.9955 0-1.375l-2.7078-2.5241c0.6165-0.8895 1-1.9296 1-3.0938 0-3.042-2.4888-5.5312-5.5312-5.5312zm0.031 2.0625c1.9417 0 3.5 1.5559 3.5 3.4687 0 1.9129-1.5583 3.4688-3.5 3.4688s-3.5313-1.5559-3.5313-3.4688c0-1.9128 1.5896-3.4687 3.5313-3.4687z"/>
 </g>
</svg>
