<svg version="1.1" viewBox="0 0 16 16" xmlns="http://www.w3.org/2000/svg">
 <g transform="matrix(.99946 0 0 1 -438.76 -836.36)">
  <path d="m439 836.36h16v16h-16z" opacity="0"/>
  <path d="m441.5 836.37-2.5031 6.9896h1.5019c0.744-1.997-2e-3 1e-3 0.7423-1.9955l2.5586 0.018 0.7041 1.9775h1.5018l-2.5031-6.9896zm1.0013 1.4978 1.0123 2.4963h-2.0025z"/>
  <path d="m450.5 843.37-2.5031 6.9896h1.5019c0.744-1.997-2e-3 1e-3 0.7423-1.9955l2.5586 0.018 0.7041 1.9775h1.5018l-2.5031-6.9896zm1.0013 1.4978 1.0123 2.4963h-2.0025z"/>
  <path d="m439 844.36h7v1h-7z"/>
  <path d="m447 851.36h8v1h-8z"/>
  <path transform="translate(0 512.36)" d="m446 332h1v8h-1z"/>
 </g>
</svg>
