<svg version="1.1" viewBox="0 0 28 28" xmlns="http://www.w3.org/2000/svg">
 <g transform="translate(0)">
  <rect width="28" height="28" opacity="0"/>
  <path d="m20 1.25a0.75 0.75 0 0 0-0.75 0.75 0.75 0.75 0 0 0 0.75 0.75h5.25v22.5h-22.5v-15.25a0.75 0.75 0 0 0-0.75-0.75 0.75 0.75 0 0 0-0.75 0.75v16a0.75008 0.75008 0 0 0 0.75 0.75h24a0.75008 0.75008 0 0 0 0.75-0.75v-24a0.75008 0.75008 0 0 0-0.75-0.75zm-6.0312 12.002h8.0625v1.7051h-2.9004v7.043h-2.2559v-7.043h-2.9062zm-11.688-10.832h13.438v2.8418h-4.834v11.738h-3.7598v-11.738h-4.8438z"/>
 </g>
</svg>
