<svg version="1.1" viewBox="0 0 16 16" xmlns="http://www.w3.org/2000/svg">
 <g transform="matrix(.66667 0 0 .66667 -189.7 -598.9)">
  <path d="m284.55 898.35h24v24h-24z" opacity="0"/>
  <path d="m290.61 900.42v20.996h11.925v-17.121c0-1.8792-1.1179-3.875-3.6875-3.875zm2 2h6.1216c1.3125 0 1.8125 0.8107 1.8125 1.9375v15.031h-7.9341z"/>
  <path d="m292.66 903.36h3.25c0.277 0 0.5 0.223 0.5 0.5s-0.223 0.5-0.5 0.5h-3.25c-0.277 0-0.5-0.223-0.5-0.5s0.223-0.5 0.5-0.5z"/>
  <path d="m292.66 911.36h3.25c0.277 0 0.5 0.223 0.5 0.5s-0.223 0.5-0.5 0.5h-3.25c-0.277 0-0.5-0.223-0.5-0.5s0.223-0.5 0.5-0.5z"/>
  <path d="m292.72 917.36h1.1875c0.277 0 0.5 0.223 0.5 0.5s-0.223 0.5-0.5 0.5h-1.1875c-0.277 0-0.5-0.223-0.5-0.5s0.223-0.5 0.5-0.5z"/>
  <path d="m292.72 915.36h1.1875c0.277 0 0.5 0.223 0.5 0.5s-0.223 0.5-0.5 0.5h-1.1875c-0.277 0-0.5-0.223-0.5-0.5s0.223-0.5 0.5-0.5z"/>
  <path d="m292.72 913.36h1.1875c0.277 0 0.5 0.223 0.5 0.5s-0.223 0.5-0.5 0.5h-1.1875c-0.277 0-0.5-0.223-0.5-0.5s0.223-0.5 0.5-0.5z"/>
  <path d="m292.72 909.36h1.1875c0.277 0 0.5 0.223 0.5 0.5s-0.223 0.5-0.5 0.5h-1.1875c-0.277 0-0.5-0.223-0.5-0.5s0.223-0.5 0.5-0.5z"/>
  <path d="m292.72 907.36h1.1875c0.277 0 0.5 0.223 0.5 0.5s-0.223 0.5-0.5 0.5h-1.1875c-0.277 0-0.5-0.223-0.5-0.5s0.223-0.5 0.5-0.5z"/>
  <path d="m292.72 905.36h1.1875c0.277 0 0.5 0.223 0.5 0.5s-0.223 0.5-0.5 0.5h-1.1875c-0.277 0-0.5-0.223-0.5-0.5s0.223-0.5 0.5-0.5z"/>
 </g>
</svg>
