<svg version="1.1" viewBox="0 0 16 16" xmlns="http://www.w3.org/2000/svg" xmlns:xlink="http://www.w3.org/1999/xlink">
 <g transform="matrix(.66667 0 0 .66667 -190 -681.57)">
  <path d="m285 1022.4h24v24h-24z" opacity="0"/>
  <path d="m303 1029.4v-2c-0.5069-1.555-3-1-3 0v2z"/>
  <path d="m306.96 1035.2-0.9558-0.884h-9l-0.9712 1.413-0.029 6.587c2.8952 1.823 3.7348 4.575 11 2z"/>
  <path d="m306 1033.4-2-3h-5l-2 3z"/>
  <g transform="translate(-.082947 -.72362)">
   <path id="c" transform="matrix(.43572 0 0 .43572 206.83 803.64)" d="m207.51 518.42a0.92537 0.92537 0 0 1-0.92537 0.92538 0.92537 0.92537 0 0 1-0.92537-0.92538 0.92537 0.92537 0 0 1 0.92537-0.92537 0.92537 0.92537 0 0 1 0.92537 0.92537z"/>
   <use id="a" transform="matrix(1.0586 0 0 1.0586 -18.175 -59.249)" width="744.09448" height="1052.3621" xlink:href="#c"/>
   <use id="k" transform="translate(0 -2.2082)" width="744.09448" height="1052.3621" xlink:href="#a"/>
   <use id="j" transform="matrix(1.3763 0 0 1.3763 -112.79 -386.94)" width="744.09448" height="1052.3621" xlink:href="#a"/>
   <use id="b" transform="matrix(1.3763 0 0 1.3763 -113.13 -387.87)" width="744.09448" height="1052.3621" xlink:href="#k"/>
   <path id="i" transform="matrix(.63484 0 0 .63484 162.59 700.42)" d="m207.51 518.42a0.92537 0.92537 0 0 1-0.92537 0.92538 0.92537 0.92537 0 0 1-0.92537-0.92538 0.92537 0.92537 0 0 1 0.92537-0.92537 0.92537 0.92537 0 0 1 0.92537 0.92537z"/>
   <use id="h" transform="matrix(1.5012 0 0 1.5012 -149.66 -516.04)" width="744.09448" height="1052.3621" xlink:href="#j"/>
   <use id="g" transform="matrix(1.5012 0 0 1.5012 -149.79 -515.97)" width="744.09448" height="1052.3621" xlink:href="#b"/>
   <use id="f" transform="matrix(1.5012 0 0 1.5012 -149.54 -516.03)" width="744.09448" height="1052.3621" xlink:href="#i"/>
   <use transform="matrix(1.4856 0 0 1.4856 -145.24 -499.74)" width="744.09448" height="1052.3621" xlink:href="#h"/>
   <use transform="matrix(1.4856 0 0 1.4856 -145.04 -499.68)" width="744.09448" height="1052.3621" xlink:href="#g"/>
   <use transform="matrix(1.4856 0 0 1.4856 -144.99 -499.98)" width="744.09448" height="1052.3621" xlink:href="#f"/>
   <use id="e" transform="translate(-4.2358 -1.3033)" width="744.09448" height="1052.3621" xlink:href="#c"/>
   <use transform="translate(.44802 2.6881)" width="744.09448" height="1052.3621" xlink:href="#e"/>
   <use id="d" transform="translate(-4.7246)" width="744.09448" height="1052.3621" xlink:href="#b"/>
   <use transform="translate(.69239 4.1136)" width="744.09448" height="1052.3621" xlink:href="#d"/>
   <use transform="translate(-.73484 -1.0442)" width="744.09448" height="1052.3621" xlink:href="#a"/>
  </g>
 </g>
</svg>
