<svg version="1.1" viewBox="0 0 16 16" xmlns="http://www.w3.org/2000/svg">
 <g transform="matrix(1 0 0 -1 -559 728.37)">
  <path d="m559.47 712.38h15.061c0.2602 0 0.46967 0.20948 0.46967 0.46967v15.048c0 0.2602-0.20947 0.46967-0.46967 0.46967h-15.061c-0.2602 0-0.46967-0.20947-0.46967-0.46967v-15.048c0-0.26019 0.20947-0.46967 0.46967-0.46967z" opacity="0"/>
  <path d="m559 712.38v4.9959c0.9848-5e-3 2.1151 0.018 3 0h2l-1.8125-1.811v-0.0313c0.3708-0.7282 1.2553-1.2802 2.375-1.2802 1.4929 0 2.5625 1.0038 2.5625 2.0608-0.0891 0.5414 0.3884 1.1034 0.9375 1.1034s1.0266-0.562 0.9375-1.1034c0-2.254-2.0644-3.9343-4.4375-3.9343-1.5399 0-2.9498 0.6984-3.75 1.8111z"/>
  <path d="m568.97 727.58a0.9501 0.94932 0 0 0 1.0938 0.7806c2.2558 0 3.9375-2.0627 3.9375-4.4339 0-1.5386-0.6989-2.9474-1.8125-3.7469l1.8125-1.8111h-5v1.8422a0.9501 0.94932 0 0 0 0 0.4684v2.6853l1.8125-1.811c9e-3 4e-3 0.0226-4e-3 0.0313 0 0.7288 0.3705 1.2812 1.2542 1.2812 2.373 0 1.4917-1.0046 2.5604-2.0625 2.5604a0.9501 0.94932 0 0 0-1.0938 1.093z"/>
  <path d="m560.47 719.37h6.0607c0.2602 0 0.46967 0.20947 0.46967 0.46967v6.055c0 0.2602-0.20947 0.46967-0.46967 0.46967h-6.0607c-0.2602 0-0.46967-0.20947-0.46967-0.46967v-6.055c0-0.2602 0.20947-0.46967 0.46967-0.46967z"/>
 </g>
</svg>
