<svg version="1.1" viewBox="0 0 16 16" xmlns="http://www.w3.org/2000/svg">
 <style/>
 <path d="m0 0h16v16h-16z" opacity="0"/>
 <path d="m1.3905 1c-0.21344 0-0.39051 0.16889-0.39051 0.37246v6.4547c0 0.027796 0.00986 0.052556 0.016104 0.078716a0.18431 0.17579 0 0 0-0.016104 0.069117v6.6525c0 0.20357 0.17707 0.37246 0.39051 0.37246h13.219c0.21344 0 0.39051-0.16889 0.39051-0.37246v-6.6525a0.18431 0.17579 0 0 0-0.0161-0.071037c6e-3 -0.025591 0.0161-0.049653 0.0161-0.076796v-6.4547c0-0.20357-0.17707-0.37246-0.39051-0.37246zm0 0.35134h13.219c0.01424 0 0.02214 0.00754 0.02214 0.021119v6.4279h-13.263v-6.4279c0-0.013583 0.0079-0.021119 0.022142-0.021119z" color="#000000" color-rendering="auto" dominant-baseline="auto" image-rendering="auto" shape-rendering="auto" solid-color="#000000" stop-color="#000000" style="font-feature-settings:normal;font-variant-alternates:normal;font-variant-caps:normal;font-variant-east-asian:normal;font-variant-ligatures:normal;font-variant-numeric:normal;font-variant-position:normal;font-variation-settings:normal;inline-size:0;isolation:auto;mix-blend-mode:normal;shape-margin:0;shape-padding:0;text-decoration-color:#000000;text-decoration-line:none;text-decoration-style:solid;text-indent:0;text-orientation:mixed;text-transform:none;white-space:normal"/>
</svg>
