<svg version="1.1" viewBox="0 0 16 16" xmlns="http://www.w3.org/2000/svg">
 <path d="m2.2216 2c-0.66846 0-1.2216 0.55311-1.2216 1.2216v3.5566c0 0.66846 0.55311 1.2216 1.2216 1.2216h8.5569c0.66846 0 1.2216-0.55311 1.2216-1.2216v-3.5566c0-0.66846-0.55311-1.2216-1.2216-1.2216zm0 1.0001h8.5569c0.13176 0 0.22146 0.0897 0.22146 0.22146v3.5566c0 0.13176-0.0897 0.22146-0.22146 0.22146h-8.5569c-0.13176 0-0.22146-0.0897-0.22146-0.22146v-3.5566c0-0.13176 0.0897-0.22146 0.22146-0.22146z"/>
 <path d="m4.9779 2.1923h-0.00294c-7.4e-6 0.00146 7.3e-6 0.00294 0 0.0044m-0.95188 0c-7.4e-6 -0.00146 7.2e-6 -0.00294 0-0.0044h-0.00294m0.95776 0c-0.0014711-0.40195 0.11286-0.68856 0.31873-0.89014 0.20586-0.20158 0.53337-0.34524 1.0624-0.34745l-0.0029415-0.95475h1.46e-5c-0.71088 0.0022053-1.3149 0.21515-1.7286 0.62023-0.045649 0.044693-0.08749 0.092187-0.12777 0.1407-0.040503-0.04881-0.083344-0.095789-0.12921-0.1407-0.4137-0.40509-1.0177-0.61803-1.7286-0.62023l-0.00294 0.95475c0.52907 0.002198 0.85657 0.14586 1.0624 0.34745 0.20586 0.20158 0.3202 0.48819 0.31873 0.89014v5.6153c0.0014645 0.40195-0.11287 0.68856-0.31873 0.89014-0.20586 0.20158-0.53337 0.34524-1.0624 0.34745l0.0029415 0.95476c0.71088-0.00214 1.3149-0.21515 1.7286-0.62023 0.04587-0.044906 0.088733-0.091909 0.12921-0.1407 0.040283 0.048509 0.082146 0.096021 0.12777 0.1407 0.4137 0.40509 1.0177 0.61771 1.7286 0.62023h-1.47e-5l0.00294-0.95476c-0.52907-0.0022044-0.85657-0.14586-1.0624-0.34745-0.20586-0.20158-0.3205-0.48819-0.31873-0.89014z" color="#000000" stroke-dashoffset="15" style="-inkscape-stroke:none"/>
 <path d="m12 8c-2.2044 0-4 1.7956-4 4 0 2.2044 1.7956 4 4 4 2.2044 0 4-1.7956 4-4 0-2.2044-1.7956-4-4-4zm-0.8 1h1.6v2.2h2.2v1.6h-2.2v2.2h-1.6v-2.2h-2.2v-1.6h2.2z" color="#000000" fill-rule="evenodd" style="-inkscape-stroke:none"/>
</svg>
