<svg width="16" height="16" version="1.1" viewBox="0 0 4.2333 4.2333" xmlns="http://www.w3.org/2000/svg">
 <g transform="translate(0 -292.77)">
  <rect x="1.1518" y="293.36" width="1.9599" height="3.0122" fill="#fefefe" stroke="#040404" stroke-width=".079431" style="paint-order:normal"/>
  <g transform="matrix(.0174 0 0 .0174 .30336 291.94)" stroke="#000" stroke-width="1.865">
   <rect x="16.253" y="49.804" width="18.007" height="38.176" style="paint-order:normal"/>
   <rect transform="rotate(90)" x="49.804" y="-54.429" width="18.007" height="38.176" style="paint-order:normal"/>
  </g>
  <g transform="matrix(0 .0174 -.0174 0 4.5418 292.53)" stroke="#000" stroke-width="1.865">
   <rect x="16.253" y="49.804" width="18.007" height="38.176" style="paint-order:normal"/>
   <rect transform="rotate(90)" x="49.804" y="-54.429" width="18.007" height="38.176" style="paint-order:normal"/>
  </g>
  <g transform="matrix(-.0174 0 0 -.0174 3.9581 297.8)" stroke="#000" stroke-width="1.865">
   <rect x="16.253" y="49.804" width="18.007" height="38.176" style="paint-order:normal"/>
   <rect transform="rotate(90)" x="49.804" y="-54.429" width="18.007" height="38.176" style="paint-order:normal"/>
  </g>
  <g transform="matrix(0 -.0174 .0174 0 -.28042 297.22)" stroke="#000" stroke-width="1.865">
   <rect x="16.253" y="49.804" width="18.007" height="38.176" style="paint-order:normal"/>
   <rect transform="rotate(90)" x="49.804" y="-54.429" width="18.007" height="38.176" style="paint-order:normal"/>
  </g>
 </g>
</svg>
