<svg version="1.1" viewBox="0 0 16 16" xmlns="http://www.w3.org/2000/svg">
 <g transform="matrix(.66667 0 0 .66667 -190 -392.91)">
  <path d="m285 589.36h24v24h-24z" opacity="0"/>
  <path d="m296.46 591.36c-5.2682 0-9.5389 4.1724-9.5389 9.299 0 5.1268 4.2707 9.26 9.5389 9.26 1.8739 0 3.6132-0.5373 5.0874-1.4455l3.4515 3.8865c0.6588 0.6397 1.6958 0.6101 2.345-0.039l0.3179-0.3126c0.6492-0.6492 0.6588-1.7046 0-2.3442l-3.372-3.7695c1.0675-1.499 1.7091-3.2737 1.7091-5.2357 0-5.1267-4.2707-9.2989-9.5389-9.2989zm0 2.5006c3.8633 0 6.9952 3.0787 6.9952 6.8766 0 3.7978-3.1319 6.8766-6.9952 6.8766s-6.9952-3.0788-6.9952-6.8766c0-3.7979 3.1319-6.8766 6.9952-6.8766z"/>
 </g>
</svg>
