<svg version="1.1" viewBox="0 0 16 16" xmlns="http://www.w3.org/2000/svg">
 <g transform="translate(-96 -547.36)">
  <path d="m96 547.36h16v16h-16z" opacity="0"/>
  <path d="m103.5 547.36c-4.1421 0-7.5 3.3371-7.5 7.4375s3.3579 7.4062 7.5 7.4062c1.4733 0 2.8409-0.4297 4-1.1562l1.9688 1.9375c0.5179 0.5116 1.3333 0.4881 1.8437-0.031l0.25-0.25c0.5104-0.5192 0.518-1.3634 0-1.875l-1.9062-1.844c0.8392-1.199 1.3437-2.6183 1.3437-4.1875 0-4.1004-3.3579-7.4375-7.5-7.4375zm-2.5 4v2h5v-2l3 3-3 3v-2h-5v2l-3-3z"/>
 </g>
</svg>
