<svg version="1.1" viewBox="0 0 16 16" xmlns="http://www.w3.org/2000/svg">
 <path d="M16 10c-.874-.69-1.757-1.397-2.656-2.008-1-.679-1.972-1.287-2.912-1.825C9.564 5.67 8.658 5.297 8 5c-.658.297-1.564.67-2.432 1.167a44.819 44.819 0 0 0-2.912 1.825C1.756 8.602.874 9.309 0 10h1.49c.524-.4 1.062-.837 1.625-1.222.71-.486 1.437-.942 2.18-1.37a39.201 39.201 0 0 1 2.5-1.285h.001L8 6.027l.203.096c.71.334 1.747.852 2.501 1.285.744.428 1.47.884 2.181 1.37.562.385 1.1.822 1.625 1.222H16z" fill="#808080"/>
</svg>
