<?xml version="1.0" encoding="UTF-8" standalone="no"?>
<!-- Created with Inkscape (http://www.inkscape.org/) -->

<svg
   xmlns:dc="http://purl.org/dc/elements/1.1/"
   xmlns:cc="http://creativecommons.org/ns#"
   xmlns:rdf="http://www.w3.org/1999/02/22-rdf-syntax-ns#"
   xmlns:svg="http://www.w3.org/2000/svg"
   xmlns="http://www.w3.org/2000/svg"
   xmlns:xlink="http://www.w3.org/1999/xlink"
   xmlns:sodipodi="http://sodipodi.sourceforge.net/DTD/sodipodi-0.dtd"
   xmlns:inkscape="http://www.inkscape.org/namespaces/inkscape"
   inkscape:export-ydpi="90.000000"
   inkscape:export-xdpi="90.000000"
   width="400"
   height="300"
   id="svg11300"
   sodipodi:version="0.32"
   inkscape:version="0.92.2 (5c3e80d, 2017-08-06)"
   sodipodi:docname="calendar-app.svg"
   inkscape:output_extension="org.inkscape.output.svg.inkscape"
   version="1.0"
   style="display:inline;enable-background:new"
   inkscape:export-filename="/home/sam/paper-template.png">
  <title
     id="title3004">Suru Icon Theme Template</title>
  <sodipodi:namedview
     stroke="#ef2929"
     fill="#f57900"
     id="base"
     pagecolor="#595959"
     bordercolor="#000000"
     borderopacity="0.25490196"
     inkscape:pageopacity="0"
     inkscape:pageshadow="2"
     inkscape:zoom="1"
     inkscape:cx="145.97615"
     inkscape:cy="206.24081"
     inkscape:current-layer="layer6"
     showgrid="false"
     inkscape:grid-bbox="true"
     inkscape:document-units="px"
     inkscape:showpageshadow="false"
     inkscape:window-width="1920"
     inkscape:window-height="1016"
     inkscape:window-x="0"
     inkscape:window-y="27"
     width="400px"
     height="300px"
     inkscape:snap-nodes="true"
     inkscape:snap-bbox="true"
     gridtolerance="10000"
     inkscape:object-nodes="true"
     inkscape:snap-grids="true"
     showguides="true"
     inkscape:guide-bbox="true"
     inkscape:window-maximized="1"
     inkscape:bbox-paths="true"
     inkscape:snap-bbox-midpoints="true"
     inkscape:snap-global="true"
     inkscape:object-paths="true"
     inkscape:snap-intersection-paths="true"
     inkscape:snap-smooth-nodes="true"
     inkscape:pagecheckerboard="false"
     showborder="false">
    <inkscape:grid
       spacingy="1"
       spacingx="1"
       id="grid5883"
       type="xygrid"
       enabled="true"
       visible="true"
       empspacing="4"
       snapvisiblegridlinesonly="true"
       originx="0"
       originy="0" />
    <inkscape:grid
       type="xygrid"
       id="grid11592"
       empspacing="2"
       visible="true"
       enabled="false"
       spacingx="0.5"
       spacingy="0.5"
       color="#ff0000"
       opacity="0.1254902"
       empcolor="#ff0000"
       empopacity="0.25098039"
       snapvisiblegridlinesonly="true"
       originx="0"
       originy="0" />
  </sodipodi:namedview>
  <defs
     id="defs3">
    <linearGradient
       inkscape:collect="always"
       id="linearGradient927">
      <stop
         style="stop-color:#ffffff;stop-opacity:1;"
         offset="0"
         id="stop923" />
      <stop
         id="stop933"
         offset="0.125"
         style="stop-color:#ffffff;stop-opacity:0.09803922" />
      <stop
         id="stop931"
         offset="0.92500001"
         style="stop-color:#ffffff;stop-opacity:0.09803922" />
      <stop
         style="stop-color:#ffffff;stop-opacity:0.49803922"
         offset="1"
         id="stop925" />
    </linearGradient>
    <clipPath
       clipPathUnits="userSpaceOnUse"
       id="clipPath9430">
      <path
         sodipodi:nodetypes="sssssssss"
         inkscape:connector-curvature="0"
         id="path9432"
         d="m 166.0625,-196 h 179.875 C 491.2348,-196 512,-175.28677 512,-30.125 v 148.25 C 512,263.28618 491.2348,284 345.9375,284 H 166.0625 C 20.7652,284 0,263.28618 0,118.125 V -30.125 C 0,-175.28677 20.7652,-196 166.0625,-196 Z"
         style="color:#000000;display:inline;overflow:visible;visibility:visible;fill:#ffffff;fill-opacity:1;fill-rule:nonzero;stroke:none;stroke-width:1;marker:none;enable-background:new" />
    </clipPath>
    <linearGradient
       inkscape:collect="always"
       xlink:href="#linearGradient927"
       id="linearGradient929"
       x1="168"
       y1="239"
       x2="168"
       y2="279"
       gradientUnits="userSpaceOnUse"
       gradientTransform="matrix(-1,0,0,1,512,-175)" />
    <linearGradient
       inkscape:collect="always"
       xlink:href="#linearGradient927"
       id="linearGradient965"
       x1="112"
       y1="255"
       x2="112"
       y2="281"
       gradientUnits="userSpaceOnUse"
       gradientTransform="matrix(-1,0,0,1,448,-120)" />
    <linearGradient
       inkscape:collect="always"
       xlink:href="#linearGradient927"
       id="linearGradient1006"
       x1="64"
       y1="263"
       x2="64"
       y2="281"
       gradientUnits="userSpaceOnUse"
       gradientTransform="matrix(-1,0,0,1,396,-72)" />
    <linearGradient
       inkscape:collect="always"
       xlink:href="#linearGradient927"
       id="linearGradient1045"
       x1="760"
       y1="254"
       x2="760"
       y2="265"
       gradientUnits="userSpaceOnUse"
       gradientTransform="translate(-432,-16)" />
    <clipPath
       clipPathUnits="userSpaceOnUse"
       id="clipPath1082">
      <path
         sodipodi:nodetypes="sssssssss"
         inkscape:connector-curvature="0"
         id="path1084"
         d="M 361.9375,-212 C 507.2348,-212 528,-191.28677 528,-46.125 V 70.125 C 528,215.28618 507.2348,236 361.9375,236 H 214.0625 C 68.7652,236 48,215.28618 48,70.125 V -46.125 C 48,-191.28677 68.7652,-212 214.0625,-212 Z"
         style="display:inline;opacity:1;fill:#8c59d9;fill-opacity:1;stroke:none;stroke-width:2;stroke-linecap:round;stroke-linejoin:round;stroke-miterlimit:4;stroke-dasharray:none;stroke-dashoffset:0;stroke-opacity:1;enable-background:new" />
    </clipPath>
    <linearGradient
       inkscape:collect="always"
       xlink:href="#linearGradient927"
       id="linearGradient1108"
       x1="296"
       y1="-212"
       x2="296"
       y2="236"
       gradientUnits="userSpaceOnUse" />
    <filter
       inkscape:collect="always"
       style="color-interpolation-filters:sRGB"
       id="filter4560"
       x="-0.0232"
       width="1.0464"
       y="-0.024857143"
       height="1.0497143">
      <feGaussianBlur
         inkscape:collect="always"
         stdDeviation="2.32"
         id="feGaussianBlur4562" />
    </filter>
    <filter
       inkscape:collect="always"
       style="color-interpolation-filters:sRGB"
       id="filter4569"
       x="-0.0116"
       width="1.0232"
       y="-0.012428571"
       height="1.024857">
      <feGaussianBlur
         inkscape:collect="always"
         stdDeviation="1.16"
         id="feGaussianBlur4571" />
    </filter>
    <filter
       inkscape:collect="always"
       style="color-interpolation-filters:sRGB"
       id="filter4575"
       x="-0.058"
       width="1.116"
       y="-0.062142857"
       height="1.1242857">
      <feGaussianBlur
         inkscape:collect="always"
         stdDeviation="5.8000001"
         id="feGaussianBlur4577" />
    </filter>
    <linearGradient
       inkscape:collect="always"
       id="linearGradient4338-7">
      <stop
         style="stop-color:#2b898f;stop-opacity:1"
         offset="0"
         id="stop4340-2" />
      <stop
         style="stop-color:#5bdbc1;stop-opacity:1"
         offset="1"
         id="stop4342-6" />
    </linearGradient>
    <linearGradient
       inkscape:collect="always"
       xlink:href="#linearGradient4262"
       id="linearGradient4268"
       x1="0"
       y1="258"
       x2="0"
       y2="208"
       gradientUnits="userSpaceOnUse"
       spreadMethod="reflect"
       gradientTransform="matrix(1,0,0,0.83333335,0,42.999994)" />
    <linearGradient
       inkscape:collect="always"
       id="linearGradient4262">
      <stop
         style="stop-color:#000000;stop-opacity:1;"
         offset="0"
         id="stop4264" />
      <stop
         style="stop-color:#000000;stop-opacity:0;"
         offset="1"
         id="stop4266" />
    </linearGradient>
    <filter
       inkscape:collect="always"
       style="color-interpolation-filters:sRGB"
       id="filter4277"
       x="-0.02775"
       width="1.0555"
       y="-0.1776"
       height="1.3552001">
      <feGaussianBlur
         inkscape:collect="always"
         stdDeviation="5.92"
         id="feGaussianBlur4279" />
    </filter>
    <linearGradient
       inkscape:collect="always"
       xlink:href="#linearGradient4245"
       id="linearGradient4251"
       x1="16"
       y1="304"
       x2="16"
       y2="208"
       gradientUnits="userSpaceOnUse"
       gradientTransform="matrix(0.375,0,0,0.41666666,24,49.333336)" />
    <linearGradient
       inkscape:collect="always"
       id="linearGradient4245">
      <stop
         style="stop-color:#d9d9d9;stop-opacity:1"
         offset="0"
         id="stop4247" />
      <stop
         style="stop-color:#ececec;stop-opacity:1"
         offset="1"
         id="stop4249" />
    </linearGradient>
    <linearGradient
       inkscape:collect="always"
       xlink:href="#linearGradient4338-7"
       id="linearGradient933"
       x1="160"
       y1="28"
       x2="160"
       y2="284"
       gradientUnits="userSpaceOnUse" />
    <clipPath
       clipPathUnits="userSpaceOnUse"
       id="clipPath949">
      <path
         sodipodi:nodetypes="sssssssss"
         inkscape:connector-curvature="0"
         id="path951"
         d="M 329.9375,32 C 475.2348,32 496,52.71323 496,197.875 v 116.25 C 496,459.28618 475.2348,480 329.9375,480 H 182.0625 C 36.7652,480 16,459.28618 16,314.125 V 197.875 C 16,52.71323 36.7652,32 182.0625,32 Z"
         style="opacity:1;fill:#eab305;fill-opacity:1;stroke:none;stroke-width:4;stroke-linecap:round;stroke-linejoin:round;stroke-miterlimit:4;stroke-dasharray:none;stroke-dashoffset:0;stroke-opacity:1" />
    </clipPath>
    <filter
       inkscape:collect="always"
       style="color-interpolation-filters:sRGB"
       id="filter967"
       x="-0.0072"
       width="1.0144"
       y="-0.036"
       height="1.072">
      <feGaussianBlur
         inkscape:collect="always"
         stdDeviation="1.44"
         id="feGaussianBlur969" />
    </filter>
    <linearGradient
       inkscape:collect="always"
       xlink:href="#linearGradient4245"
       id="linearGradient4251-3"
       x1="16"
       y1="304"
       x2="16"
       y2="208"
       gradientUnits="userSpaceOnUse"
       gradientTransform="matrix(0.03125,0,0,0.03472222,320.66667,191.11111)" />
    <linearGradient
       inkscape:collect="always"
       xlink:href="#linearGradient4245"
       id="linearGradient985"
       gradientUnits="userSpaceOnUse"
       gradientTransform="matrix(0.03125,0,0,0.03472222,320.66667,235.11111)"
       x1="16"
       y1="304"
       x2="16"
       y2="208" />
    <linearGradient
       inkscape:collect="always"
       xlink:href="#linearGradient4245"
       id="linearGradient998"
       gradientUnits="userSpaceOnUse"
       gradientTransform="matrix(0.046875,0,0,0.05208333,320.5,134.66666)"
       x1="16"
       y1="304"
       x2="16"
       y2="208" />
    <linearGradient
       inkscape:collect="always"
       xlink:href="#linearGradient4245"
       id="linearGradient1002"
       gradientUnits="userSpaceOnUse"
       gradientTransform="matrix(0.078125,0,0,0.08680555,320.16668,61.77777)"
       x1="16"
       y1="304"
       x2="16"
       y2="208" />
  </defs>
  <metadata
     id="metadata4">
    <rdf:RDF>
      <cc:Work
         rdf:about="">
        <dc:format>image/svg+xml</dc:format>
        <dc:type
           rdf:resource="http://purl.org/dc/dcmitype/StillImage" />
        <dc:creator>
          <cc:Agent>
            <dc:title>Sam Hewitt</dc:title>
          </cc:Agent>
        </dc:creator>
        <dc:source />
        <cc:license
           rdf:resource="http://creativecommons.org/licenses/by-sa/4.0/" />
        <dc:title>Suru Icon Theme Template</dc:title>
        <dc:subject>
          <rdf:Bag />
        </dc:subject>
        <dc:date />
        <dc:rights>
          <cc:Agent>
            <dc:title />
          </cc:Agent>
        </dc:rights>
        <dc:publisher>
          <cc:Agent>
            <dc:title />
          </cc:Agent>
        </dc:publisher>
        <dc:identifier />
        <dc:relation />
        <dc:language />
        <dc:coverage />
        <dc:description />
        <dc:contributor>
          <cc:Agent>
            <dc:title />
          </cc:Agent>
        </dc:contributor>
      </cc:Work>
      <cc:Work
         rdf:about="">
        <dc:format>image/svg+xml</dc:format>
        <dc:type
           rdf:resource="http://purl.org/dc/dcmitype/StillImage" />
      </cc:Work>
      <cc:License
         rdf:about="http://creativecommons.org/licenses/by-sa/4.0/">
        <cc:permits
           rdf:resource="http://creativecommons.org/ns#Reproduction" />
        <cc:permits
           rdf:resource="http://creativecommons.org/ns#Distribution" />
        <cc:requires
           rdf:resource="http://creativecommons.org/ns#Notice" />
        <cc:requires
           rdf:resource="http://creativecommons.org/ns#Attribution" />
        <cc:permits
           rdf:resource="http://creativecommons.org/ns#DerivativeWorks" />
        <cc:requires
           rdf:resource="http://creativecommons.org/ns#ShareAlike" />
      </cc:License>
    </rdf:RDF>
  </metadata>
  <g
     style="display:inline"
     inkscape:groupmode="layer"
     inkscape:label="Icon"
     id="layer1">
    <g
       style="display:none"
       inkscape:label="Baseplate"
       id="layer7"
       inkscape:groupmode="layer">
      <text
         y="-8.2548828"
         xml:space="preserve"
         x="19.006836"
         style="font-style:normal;font-variant:normal;font-weight:normal;font-stretch:normal;line-height:0%;font-family:'DejaVu Sans';-inkscape-font-specification:'DejaVu Sans';display:inline;fill:#000000;fill-opacity:1;stroke:none;enable-background:new"
         inkscape:label="context"
         id="context"><tspan
           style="font-style:normal;font-variant:normal;font-weight:normal;font-stretch:normal;font-size:18px;line-height:1.25;font-family:'DejaVu Sans';-inkscape-font-specification:'DejaVu Sans'"
           y="-8.2548828"
           x="19.006836"
           sodipodi:role="line"
           id="tspan3933">apps</tspan></text>
      <text
         y="-8.2548828"
         xml:space="preserve"
         x="146.48828"
         style="font-style:normal;font-variant:normal;font-weight:bold;font-stretch:normal;line-height:0%;font-family:'DejaVu Sans';-inkscape-font-specification:'DejaVu Sans Bold';text-align:start;writing-mode:lr-tb;text-anchor:start;display:inline;fill:#000000;fill-opacity:1;stroke:none;enable-background:new"
         inkscape:label="icon-name"
         id="icon-name"><tspan
           style="font-style:normal;font-variant:normal;font-weight:bold;font-stretch:normal;font-size:18px;line-height:1.25;font-family:'DejaVu Sans';-inkscape-font-specification:'DejaVu Sans Bold'"
           y="-8.2548828"
           x="146.48828"
           sodipodi:role="line"
           id="tspan3937">calendar-app</tspan></text>
      <rect
         style="display:inline;overflow:visible;visibility:visible;fill:#cdcdcd;fill-opacity:1;fill-rule:nonzero;stroke:none;stroke-width:2;marker:none;enable-background:accumulate"
         id="rect16x16"
         width="16"
         height="16"
         x="320"
         y="236"
         inkscape:label="16x16" />
      <rect
         style="display:inline;overflow:visible;visibility:visible;fill:#cdcdcd;fill-opacity:1;fill-rule:nonzero;stroke:none;stroke-width:2;marker:none;enable-background:accumulate"
         id="rect24x24"
         width="24"
         height="24"
         x="320"
         y="188"
         inkscape:label="24x24" />
      <rect
         style="display:inline;overflow:visible;visibility:visible;fill:#cdcdcd;fill-opacity:1;fill-rule:nonzero;stroke:none;stroke-width:2;marker:none;enable-background:accumulate"
         id="rect32x32"
         width="32"
         height="32"
         x="320"
         y="132"
         inkscape:label="32x32" />
      <rect
         inkscape:label="48x48"
         y="60"
         x="320"
         height="48"
         width="48"
         id="rect48x48"
         style="display:inline;overflow:visible;visibility:visible;fill:#cdcdcd;fill-opacity:1;fill-rule:nonzero;stroke:none;stroke-width:2;marker:none;enable-background:accumulate" />
      <rect
         style="display:inline;overflow:visible;visibility:visible;fill:#cdcdcd;fill-opacity:1;fill-rule:nonzero;stroke:none;stroke-width:2;marker:none;enable-background:accumulate"
         id="rect3951"
         width="256"
         height="256"
         x="24"
         y="28"
         inkscape:label="48x48" />
    </g>
    <g
       inkscape:groupmode="layer"
       id="layer4"
       inkscape:label="Shadows"
       style="display:inline"
       sodipodi:insensitive="true">
      <path
         style="display:inline;opacity:0.5;fill:#000000;fill-opacity:1;stroke:none;stroke-width:2;stroke-linecap:round;stroke-linejoin:round;stroke-miterlimit:4;stroke-dasharray:none;stroke-dashoffset:0;stroke-opacity:1;filter:url(#filter4560);enable-background:new"
         d="m 188.96876,45.999995 c 72.64865,0 83.03125,10.356615 83.03125,82.937505 v 58.125 c 0,72.58059 -10.3826,82.9375 -83.03125,82.9375 h -73.9375 C 42.382606,270 32.000006,259.64309 32.000006,187.0625 v -58.125 c 0,-72.58089 10.3826,-82.937505 83.031254,-82.937505 z"
         id="path4565"
         inkscape:connector-curvature="0"
         sodipodi:nodetypes="sssssssss" />
      <path
         style="color:#000000;font-style:normal;font-variant:normal;font-weight:normal;font-stretch:normal;font-size:medium;line-height:normal;font-family:sans-serif;font-variant-ligatures:normal;font-variant-position:normal;font-variant-caps:normal;font-variant-numeric:normal;font-variant-alternates:normal;font-feature-settings:normal;text-indent:0;text-align:start;text-decoration:none;text-decoration-line:none;text-decoration-style:solid;text-decoration-color:#000000;letter-spacing:normal;word-spacing:normal;text-transform:none;writing-mode:lr-tb;direction:ltr;text-orientation:mixed;dominant-baseline:auto;baseline-shift:baseline;text-anchor:start;white-space:normal;shape-padding:0;clip-rule:nonzero;display:inline;overflow:visible;visibility:visible;opacity:0.2;isolation:auto;mix-blend-mode:normal;color-interpolation:sRGB;color-interpolation-filters:linearRGB;solid-color:#000000;solid-opacity:1;vector-effect:none;fill:#000000;fill-opacity:1;fill-rule:nonzero;stroke:none;stroke-width:1;stroke-linecap:round;stroke-linejoin:round;stroke-miterlimit:4;stroke-dasharray:none;stroke-dashoffset:0;stroke-opacity:1;color-rendering:auto;image-rendering:auto;shape-rendering:auto;text-rendering:auto;enable-background:accumulate"
         d="m 351.93164,63 c 6.83457,0 10.87325,0.44856 13.24609,2.81836 C 367.55058,68.18816 368,72.22248 368,79.05078 v 11.89844 c 0,6.82827 -0.44942,10.86261 -2.82227,13.23242 C 362.80489,106.55145 358.76621,107 351.93164,107 h -15.86328 c -6.83457,0 -10.87325,-0.44855 -13.24609,-2.81836 C 320.44942,101.81183 320,97.77749 320,90.94922 V 79.05078 c 0,-6.8283 0.44942,-10.86262 2.82227,-13.23242 C 325.19511,63.44856 329.23379,63 336.06836,63 Z"
         id="path907"
         inkscape:connector-curvature="0"
         sodipodi:nodetypes="scsscsscsscss" />
      <path
         style="color:#000000;font-style:normal;font-variant:normal;font-weight:normal;font-stretch:normal;font-size:medium;line-height:normal;font-family:sans-serif;font-variant-ligatures:normal;font-variant-position:normal;font-variant-caps:normal;font-variant-numeric:normal;font-variant-alternates:normal;font-feature-settings:normal;text-indent:0;text-align:start;text-decoration:none;text-decoration-line:none;text-decoration-style:solid;text-decoration-color:#000000;letter-spacing:normal;word-spacing:normal;text-transform:none;writing-mode:lr-tb;direction:ltr;text-orientation:mixed;dominant-baseline:auto;baseline-shift:baseline;text-anchor:start;white-space:normal;shape-padding:0;clip-rule:nonzero;display:inline;overflow:visible;visibility:visible;opacity:0.2;isolation:auto;mix-blend-mode:normal;color-interpolation:sRGB;color-interpolation-filters:linearRGB;solid-color:#000000;solid-opacity:1;vector-effect:none;fill:#000000;fill-opacity:1;fill-rule:nonzero;stroke:none;stroke-width:1;stroke-linecap:round;stroke-linejoin:round;stroke-miterlimit:4;stroke-dasharray:none;stroke-dashoffset:0;stroke-opacity:1;color-rendering:auto;image-rendering:auto;shape-rendering:auto;text-rendering:auto;enable-background:new"
         d="m 341.12109,134 c 4.56431,0 7.30422,0.28679 8.94727,1.92773 1.64305,1.64095 1.93164,4.37931 1.93164,8.93946 v 8.26562 c 0,4.56013 -0.28859,7.29851 -1.93164,8.93946 C 348.42531,163.71321 345.6854,164 341.12109,164 h -10.24218 c -4.5643,0 -7.30422,-0.28679 -8.94727,-1.92773 C 320.28859,160.43132 320,157.69294 320,153.13281 v -8.26562 c 0,-4.56015 0.28859,-7.29851 1.93164,-8.93946 C 323.57469,134.28679 326.31461,134 330.87891,134 Z"
         id="path1011"
         inkscape:connector-curvature="0"
         sodipodi:nodetypes="scsscsscsscss" />
      <path
         style="color:#000000;font-style:normal;font-variant:normal;font-weight:normal;font-stretch:normal;font-size:medium;line-height:normal;font-family:sans-serif;font-variant-ligatures:normal;font-variant-position:normal;font-variant-caps:normal;font-variant-numeric:normal;font-variant-alternates:normal;font-feature-settings:normal;text-indent:0;text-align:start;text-decoration:none;text-decoration-line:none;text-decoration-style:solid;text-decoration-color:#000000;letter-spacing:normal;word-spacing:normal;text-transform:none;writing-mode:lr-tb;direction:ltr;text-orientation:mixed;dominant-baseline:auto;baseline-shift:baseline;text-anchor:start;white-space:normal;shape-padding:0;clip-rule:nonzero;display:inline;overflow:visible;visibility:visible;opacity:0.2;isolation:auto;mix-blend-mode:normal;color-interpolation:sRGB;color-interpolation-filters:linearRGB;solid-color:#000000;solid-opacity:1;vector-effect:none;fill:#000000;fill-opacity:1;fill-rule:nonzero;stroke:none;stroke-width:1;stroke-linecap:round;stroke-linejoin:round;stroke-miterlimit:4;stroke-dasharray:none;stroke-dashoffset:0;stroke-opacity:1;color-rendering:auto;image-rendering:auto;shape-rendering:auto;text-rendering:auto;enable-background:new"
         d="m 335.71484,190 c 3.42917,1e-5 5.52264,0.20591 6.80078,1.48242 1.27815,1.27651 1.48438,3.3669 1.48438,6.79297 v 5.44922 c 0,3.42606 -0.20623,5.51645 -1.48438,6.79297 C 341.23748,211.79409 339.14401,212 335.71484,212 h -7.42968 c -3.42917,0 -5.52263,-0.20591 -6.80079,-1.48242 C 320.20622,209.24106 320,207.15067 320,203.72461 v -5.44922 c 0,-3.42607 0.20622,-5.51646 1.48437,-6.79297 1.27816,-1.27651 3.37162,-1.48243 6.80079,-1.48242 z"
         id="path1013"
         inkscape:connector-curvature="0"
         sodipodi:nodetypes="cssscsscssscc" />
      <path
         style="color:#000000;font-style:normal;font-variant:normal;font-weight:normal;font-stretch:normal;font-size:medium;line-height:normal;font-family:sans-serif;font-variant-ligatures:normal;font-variant-position:normal;font-variant-caps:normal;font-variant-numeric:normal;font-variant-alternates:normal;font-feature-settings:normal;text-indent:0;text-align:start;text-decoration:none;text-decoration-line:none;text-decoration-style:solid;text-decoration-color:#000000;letter-spacing:normal;word-spacing:normal;text-transform:none;writing-mode:lr-tb;direction:ltr;text-orientation:mixed;dominant-baseline:auto;baseline-shift:baseline;text-anchor:start;white-space:normal;shape-padding:0;clip-rule:nonzero;display:inline;overflow:visible;visibility:visible;opacity:0.2;isolation:auto;mix-blend-mode:normal;color-interpolation:sRGB;color-interpolation-filters:linearRGB;solid-color:#000000;solid-opacity:1;vector-effect:none;fill:#000000;fill-opacity:1;fill-rule:nonzero;stroke:none;stroke-width:1;stroke-linecap:round;stroke-linejoin:round;stroke-miterlimit:4;stroke-dasharray:none;stroke-dashoffset:0;stroke-opacity:1;color-rendering:auto;image-rendering:auto;shape-rendering:auto;text-rendering:auto;enable-background:new"
         d="m 325.68945,237 c -2.29403,0 -3.73713,0.12503 -4.65039,1.03711 C 320.12581,238.94919 320,240.3916 320,242.68359 v 3.63282 c 0,2.29198 0.12581,3.7344 1.03906,4.64648 0.91325,0.91208 2.35637,1.03711 4.65039,1.03711 h 4.6211 c 2.29403,0 3.73713,-0.12503 4.65039,-1.03711 0.91325,-0.91208 1.03906,-2.3545 1.03906,-4.64648 v -3.63282 c 0,-2.29199 -0.12581,-3.7344 -1.03906,-4.64648 C 334.04768,237.12503 332.60458,237 330.31055,237 Z"
         id="path1050"
         inkscape:connector-curvature="0"
         sodipodi:nodetypes="scssssscsscss" />
      <path
         sodipodi:nodetypes="sssssssss"
         inkscape:connector-curvature="0"
         id="path4558"
         d="m 188.96876,43.999995 c 72.64865,0 83.03125,10.356615 83.03125,82.937505 v 58.125 c 0,72.58059 -10.3826,82.9375 -83.03125,82.9375 h -73.9375 C 42.382606,268 32.000006,257.64309 32.000006,185.0625 v -58.125 c 0,-72.58089 10.3826,-82.937505 83.031254,-82.937505 z"
         style="display:inline;opacity:0.5;fill:#000000;fill-opacity:1;stroke:#000000;stroke-width:4;stroke-linecap:round;stroke-linejoin:round;stroke-miterlimit:4;stroke-dasharray:none;stroke-dashoffset:0;stroke-opacity:1;enable-background:new" />
      <path
         sodipodi:nodetypes="sssssssss"
         inkscape:connector-curvature="0"
         id="path4567"
         d="m 188.96876,43.999995 c 72.64865,0 83.03125,10.356615 83.03125,82.937505 v 58.125 c 0,72.58059 -10.3826,82.9375 -83.03125,82.9375 h -73.9375 C 42.382606,268 32.000006,257.64309 32.000006,185.0625 v -58.125 c 0,-72.58089 10.3826,-82.937505 83.031254,-82.937505 z"
         style="display:inline;opacity:0.5;fill:#000000;fill-opacity:1;stroke:none;stroke-width:2;stroke-linecap:round;stroke-linejoin:round;stroke-miterlimit:4;stroke-dasharray:none;stroke-dashoffset:0;stroke-opacity:1;filter:url(#filter4569);enable-background:new" />
      <path
         sodipodi:nodetypes="sssssssss"
         inkscape:connector-curvature="0"
         id="path4573"
         d="m 188.96876,45.999995 c 72.64865,0 83.03125,10.356615 83.03125,82.937505 v 58.125 c 0,72.58059 -10.3826,82.9375 -83.03125,82.9375 h -73.9375 C 42.382606,270 32.000006,259.64309 32.000006,187.0625 v -58.125 c 0,-72.58089 10.3826,-82.937505 83.031254,-82.937505 z"
         style="display:inline;opacity:0.2;fill:#000000;fill-opacity:1;stroke:none;stroke-width:2;stroke-linecap:round;stroke-linejoin:round;stroke-miterlimit:4;stroke-dasharray:none;stroke-dashoffset:0;stroke-opacity:1;filter:url(#filter4575);enable-background:new" />
    </g>
    <g
       inkscape:groupmode="layer"
       id="layer2"
       inkscape:label="Shape"
       style="display:inline">
      <path
         style="opacity:1;fill:url(#linearGradient933);fill-opacity:1;stroke:none;stroke-width:2;stroke-linecap:round;stroke-linejoin:round;stroke-miterlimit:4;stroke-dasharray:none;stroke-dashoffset:0;stroke-opacity:1"
         d="M 188.96875,44 C 261.6174,44 272,54.356615 272,126.9375 v 58.125 C 272,257.64309 261.6174,268 188.96875,268 h -73.9375 C 42.3826,268 32,257.64309 32,185.0625 v -58.125 C 32,54.356615 42.3826,44 115.03125,44 Z"
         id="rect877"
         inkscape:connector-curvature="0"
         sodipodi:nodetypes="sssssssss" />
      <path
         sodipodi:nodetypes="sssssssss"
         inkscape:connector-curvature="0"
         id="path888"
         d="M 351.93164,62.5 C 365.55326,62.5 367.5,64.44187 367.5,78.05078 V 89.94922 C 367.5,103.55808 365.55326,105.5 351.93164,105.5 H 336.06836 C 322.44674,105.5 320.5,103.55808 320.5,89.94922 V 78.05078 C 320.5,64.44187 322.44674,62.5 336.06836,62.5 Z"
         style="opacity:1;fill:#2daaaa;fill-opacity:1;stroke:none;stroke-width:2;stroke-linecap:round;stroke-linejoin:round;stroke-miterlimit:4;stroke-dasharray:none;stroke-dashoffset:0;stroke-opacity:1" />
      <path
         sodipodi:nodetypes="sssssssss"
         inkscape:connector-curvature="0"
         id="path942"
         d="m 341.12109,133.5 c 9.08109,0 10.37891,1.29458 10.37891,10.36719 v 8.26562 c 0,9.07258 -1.29782,10.36719 -10.37891,10.36719 H 330.87891 C 321.79783,162.5 320.5,161.20539 320.5,152.13281 v -8.26562 c 0,-9.07261 1.29783,-10.36719 10.37891,-10.36719 z"
         style="opacity:1;fill:#2daaaa;fill-opacity:1;stroke:none;stroke-width:2;stroke-linecap:round;stroke-linejoin:round;stroke-miterlimit:4;stroke-dasharray:none;stroke-dashoffset:0;stroke-opacity:1" />
      <path
         style="opacity:1;fill:#2daaaa;fill-opacity:1;stroke:none;stroke-width:2;stroke-linecap:round;stroke-linejoin:round;stroke-miterlimit:4;stroke-dasharray:none;stroke-dashoffset:0;stroke-opacity:1"
         d="m 330.31054,236.5 c 4.54055,0 5.18946,0.64729 5.18946,5.18359 v 3.63282 c 0,4.53629 -0.64891,5.18359 -5.18946,5.18359 h -4.62109 c -4.54053,0 -5.18945,-0.6473 -5.18945,-5.18359 v -3.63282 c 0,-4.5363 0.64892,-5.18359 5.18946,-5.18359 z"
         id="path946"
         inkscape:connector-curvature="0"
         sodipodi:nodetypes="sssssssss" />
      <path
         style="opacity:1;fill:#2daaaa;fill-opacity:1;stroke:none;stroke-width:2;stroke-linecap:round;stroke-linejoin:round;stroke-miterlimit:4;stroke-dasharray:none;stroke-dashoffset:0;stroke-opacity:1"
         d="m 335.71582,189.50031 c 6.81081,10e-6 7.78418,0.97093 7.78418,7.77539 v 5.44891 c 0,6.80444 -0.97337,7.77539 -7.78418,7.77539 h -7.43164 c -6.81081,0 -7.78418,-0.97095 -7.78418,-7.77539 v -5.44892 c 0,-6.80446 0.97337,-7.7754 7.78418,-7.77539 z"
         id="path948"
         inkscape:connector-curvature="0"
         sodipodi:nodetypes="sssssssss" />
      <path
         inkscape:connector-curvature="0"
         id="path4258"
         d="m 16,210 v 96 h 16 v -96 z m 464,0 v 96 h 16 v -96 z"
         style="color:#000000;display:inline;overflow:visible;visibility:visible;opacity:0.4;fill:url(#linearGradient4268);fill-opacity:1;fill-rule:nonzero;stroke:none;stroke-width:48;stroke-linecap:butt;stroke-linejoin:miter;stroke-miterlimit:4;stroke-dasharray:none;stroke-dashoffset:0;stroke-opacity:1;marker:none;filter:url(#filter4277);enable-background:accumulate"
         transform="matrix(0.5,0,0,0.5,24,28)"
         sodipodi:nodetypes="cccccccccc"
         clip-path="url(#clipPath949)" />
      <path
         style="opacity:0.08;fill:#ffffff;fill-opacity:1;stroke:none;stroke-width:2;stroke-linecap:round;stroke-linejoin:round;stroke-miterlimit:4;stroke-dasharray:none;stroke-dashoffset:0;stroke-opacity:1"
         d="M 32 156 L 32 185.0625 C 32 257.64309 42.3826 268 115.03125 268 L 188.96875 268 C 261.6174 268 272 257.64309 272 185.0625 L 272 156 L 32 156 z "
         id="path937" />
      <path
         clip-path="url(#clipPath949)"
         sodipodi:nodetypes="cccccccccc"
         transform="matrix(0.5,0,0,0.5,24,28)"
         style="color:#000000;display:inline;overflow:visible;visibility:visible;opacity:0.1;fill:#000000;fill-opacity:1;fill-rule:nonzero;stroke:none;stroke-width:48;stroke-linecap:butt;stroke-linejoin:miter;stroke-miterlimit:4;stroke-dasharray:none;stroke-dashoffset:0;stroke-opacity:1;marker:none;enable-background:accumulate;filter:url(#filter967)"
         d="m 16,210 v 96 h 16 v -96 z m 464,0 v 96 h 16 v -96 z"
         id="path965"
         inkscape:connector-curvature="0" />
      <path
         style="opacity:0.08;fill:#ffffff;fill-opacity:1;stroke:none;stroke-width:2;stroke-linecap:round;stroke-linejoin:round;stroke-miterlimit:4;stroke-dasharray:none;stroke-dashoffset:0;stroke-opacity:1"
         d="M 336.06836,105.5 C 322.44674,105.5 320.5,103.55813 320.5,89.949219 V 84 h 47 v 5.949219 C 367.5,103.55813 365.55326,105.5 351.93164,105.5 Z"
         id="path908"
         inkscape:connector-curvature="0" />
      <path
         style="opacity:0.08;fill:#ffffff;fill-opacity:1;stroke:none;stroke-width:2;stroke-linecap:round;stroke-linejoin:round;stroke-miterlimit:4;stroke-dasharray:none;stroke-dashoffset:0;stroke-opacity:1"
         d="M 320.5 148 L 320.5 152.13281 C 320.5 161.20539 321.79783 162.5 330.87891 162.5 L 341.12109 162.5 C 350.20218 162.5 351.5 161.20539 351.5 152.13281 L 351.5 148 L 320.5 148 z "
         id="path925" />
      <path
         style="opacity:0.08;fill:#ffffff;fill-opacity:1;stroke:none;stroke-width:2;stroke-linecap:round;stroke-linejoin:round;stroke-miterlimit:4;stroke-dasharray:none;stroke-dashoffset:0;stroke-opacity:1"
         d="M 320.5 200 L 320.5 202.72461 C 320.5 209.52905 321.47435 210.5 328.28516 210.5 L 335.71484 210.5 C 342.52565 210.5 343.5 209.52905 343.5 202.72461 L 343.5 200 L 320.5 200 z "
         id="path927" />
    </g>
    <g
       inkscape:groupmode="layer"
       id="layer6"
       inkscape:label="Pictogram"
       style="display:inline">
      <path
         style="color:#000000;display:inline;overflow:visible;visibility:visible;opacity:1;fill:url(#linearGradient4251);fill-opacity:1;fill-rule:nonzero;stroke:none;stroke-width:24;stroke-linecap:butt;stroke-linejoin:miter;stroke-miterlimit:4;stroke-dasharray:none;stroke-dashoffset:0;stroke-opacity:1;marker:none;enable-background:accumulate"
         d="m 32,132 v 48 h 8 v -48 z m 232,0 v 48 h 8 v -48 z"
         id="rect4243"
         inkscape:connector-curvature="0"
         sodipodi:nodetypes="cccccccccc" />
      <path
         style="color:#000000;display:inline;overflow:visible;visibility:visible;opacity:1;fill:#ffffff;fill-opacity:1;fill-rule:nonzero;stroke:none;stroke-width:24;stroke-linecap:butt;stroke-linejoin:miter;stroke-miterlimit:4;stroke-dasharray:none;stroke-dashoffset:0;stroke-opacity:1;marker:none;enable-background:accumulate"
         d="m 32,132 v 1 h 8 v -1 z m 232,0 v 1 h 8 v -1 z"
         id="path4344"
         inkscape:connector-curvature="0"
         sodipodi:nodetypes="cccccccccc" />
      <path
         style="font-style:normal;font-weight:normal;font-size:149.37759399px;line-height:1000%;font-family:sans-serif;letter-spacing:0px;word-spacing:0px;fill:#f9f9f9;fill-opacity:1;stroke:none;stroke-width:3.73443985px;stroke-linecap:butt;stroke-linejoin:miter;stroke-opacity:1;"
         d="M 111.4375 156 C 109.87279 157.54321 108.33565 159.06848 106.63086 160.70508 C 103.64331 163.59304 100.50506 166.58083 97.21875 169.66797 C 94.032028 172.75511 91.095047 176.09072 88.40625 179.67578 C 85.817038 183.26084 83.675368 187.09475 81.982422 191.17773 C 80.289476 195.16114 79.443359 199.49333 79.443359 204.17383 L 79.443359 206.71289 C 79.542944 207.21082 79.591797 207.5606 79.591797 207.75977 L 139.19531 207.75977 L 139.19531 199.24414 L 90.347656 199.24414 L 90.347656 198.94531 C 90.347656 196.55527 90.894799 194.16543 91.990234 191.77539 C 93.185255 189.28576 94.728978 186.79627 96.621094 184.30664 C 98.612795 181.71743 100.80527 179.17908 103.19531 176.68945 C 105.68494 174.10024 108.22329 171.55994 110.8125 169.07031 C 113.89964 166.08276 116.93628 163.09497 119.92383 160.10742 C 121.27206 158.75919 122.53983 157.38879 123.74609 156 L 111.4375 156 z M 176.49219 156 C 175.20573 156.84619 173.94692 157.762 172.72266 158.76367 C 170.63137 160.45662 168.73982 162.44782 167.04688 164.73828 C 165.45351 166.92915 164.15796 169.46946 163.16211 172.35742 C 162.16626 175.1458 161.66797 178.2821 161.66797 181.76758 C 161.66797 185.85057 162.41638 189.63562 163.91016 193.12109 C 165.50352 196.50699 167.69404 199.49282 170.48242 202.08203 C 173.37039 204.57166 176.75681 206.51401 180.64062 207.9082 C 184.62403 209.30239 189.05393 210 193.93359 210 C 198.81326 210 203.24511 209.25354 207.22852 207.75977 C 211.21192 206.36557 214.59834 204.42322 217.38672 201.93359 C 220.1751 199.34438 222.31677 196.25694 223.81055 192.67188 C 225.40391 189.08681 226.19922 185.15325 226.19922 180.87109 C 226.19922 175.89184 224.75515 171.16102 221.86719 166.67969 C 219.23658 162.45192 214.72045 158.89825 208.36719 156 L 176.49219 156 z M 187.95898 157.56836 C 191.34488 158.6638 194.68049 159.70923 197.9668 160.70508 C 201.35269 161.70093 204.34048 163.04534 206.92969 164.73828 C 209.61848 166.43123 211.76015 168.62175 213.35352 171.31055 C 215.04646 173.99934 215.89258 177.48542 215.89258 181.76758 C 215.89258 184.55596 215.44509 187.14511 214.54883 189.53516 C 213.65256 191.9252 212.25735 194.01606 210.36523 195.80859 C 208.5727 197.60112 206.28252 199.04519 203.49414 200.14062 C 200.80534 201.13648 197.61824 201.63477 193.93359 201.63477 C 190.24895 201.63477 187.01299 201.13648 184.22461 200.14062 C 181.53581 199.04519 179.24563 197.60112 177.35352 195.80859 C 175.56098 194.01606 174.21658 191.9252 173.32031 189.53516 C 172.42405 187.14511 171.97656 184.55596 171.97656 181.76758 C 171.97656 176.09123 173.36982 171.26075 176.1582 167.27734 C 178.94658 163.19436 182.88015 159.9584 187.95898 157.56836 z "
         id="text926" />
      <g
         id="g899"
         transform="translate(-320)">
        <path
           id="path893"
           d="m 105.25195,102.40039 c -3.55359,0 -6.859884,0.44363 -9.919919,1.33203 -3.060035,0.8884 -5.825193,1.97457 -8.292969,3.25781 -2.46777,1.28324 -4.590392,2.66388 -6.367187,4.14454 -1.776795,1.38195 -3.107699,2.56757 -3.996094,3.55468 l 6.808594,9.77149 c 0.69098,-0.59227 1.679646,-1.43176 2.962891,-2.51758 1.28324,-1.18452 2.862776,-2.26875 4.738281,-3.25586 1.87551,-1.08582 3.998127,-2.02282 6.367187,-2.8125 2.36906,-0.78969 4.983096,-1.18555 7.845706,-1.18555 2.36906,0 4.59113,0.34613 6.66406,1.03711 2.17164,0.59226 4.04758,1.57899 5.62695,2.96094 1.57937,1.38195 2.81278,3.10871 3.70117,5.18164 0.98712,2.07293 1.48047,4.5914 1.48047,7.55274 0,2.7639 -0.54308,5.37988 -1.6289,7.84765 -0.98711,2.46777 -2.36774,4.88485 -4.14453,7.25391 -1.67809,2.27035 -3.65349,4.58992 -5.92383,6.95898 -0.79382,0.8299 -1.62953,1.67434 -2.46289,2.51758 h 17.0664 c 1.37929,-1.62871 2.68265,-3.25589 3.9043,-4.88477 2.36907,-3.25746 4.24499,-6.51597 5.62695,-9.77343 1.48066,-3.35617 2.22266,-6.81165 2.22266,-10.36524 0,-9.0814 -2.71543,-16.08985 -8.14453,-21.02539 -5.33039,-5.03426 -13.37528,-7.55078 -24.13477,-7.55078 z m 88.46094,0 c -4.73812,0 -9.03114,0.78977 -12.88086,2.36914 -3.84972,1.48066 -7.15602,3.50383 -9.91992,6.07031 -2.6652,2.56648 -4.73809,5.57637 -6.21875,9.03125 -1.48066,3.35617 -2.2207,6.90915 -2.2207,10.66016 0,10.75949 4.8361,18.90383 14.50976,24.43164 -0.54317,0.33063 -1.07948,0.67827 -1.61133,1.03711 H 212.375 c -0.90352,-0.51362 -1.83287,-1.01278 -2.81836,-1.48047 1.97422,-1.28324 3.85016,-2.76332 5.62695,-4.44141 1.87551,-1.67808 3.50477,-3.60375 4.88672,-5.77539 1.48066,-2.17163 2.61462,-4.49121 3.4043,-6.95898 0.8884,-2.56649 1.33398,-5.28191 1.33398,-8.14453 0,-2.96132 -0.59281,-6.02094 -1.77734,-9.17969 -1.08582,-3.15874 -2.91204,-6.0214 -5.47852,-8.58789 -2.46778,-2.66519 -5.67656,-4.83753 -9.625,-6.51562 -3.94843,-1.67808 -8.68702,-2.51563 -14.21484,-2.51563 z m 0,11.40039 c 3.15875,0 5.82445,0.54309 7.99609,1.62891 2.17164,0.98711 3.95009,2.27024 5.33204,3.84961 1.38195,1.48066 2.36867,3.10992 2.96093,4.88672 0.69098,1.77679 1.03711,3.40605 1.03711,4.88671 0,5.33038 -1.23535,9.67313 -3.70312,13.0293 -2.46777,3.25746 -5.77407,6.12012 -9.91992,8.58789 -3.75102,-0.8884 -7.00759,-2.07403 -9.77149,-3.55469 -2.6652,-1.48066 -4.83753,-3.15769 -6.51562,-5.0332 -1.67808,-1.87551 -2.91149,-3.90062 -3.70118,-6.07226 -0.78969,-2.17164 -1.18554,-4.34204 -1.18554,-6.51368 0,-1.77679 0.29641,-3.55328 0.88867,-5.33007 0.69098,-1.87551 1.72741,-3.55449 3.10937,-5.03516 1.38194,-1.57937 3.15845,-2.8625 5.33008,-3.84961 2.27035,-0.98711 4.98384,-1.48047 8.14258,-1.48047 z"
           style="font-style:normal;font-variant:normal;font-weight:normal;font-stretch:normal;font-size:296.13256836px;line-height:1.25;font-family:Ubuntu;-inkscape-font-specification:'Ubuntu, Normal';text-align:start;letter-spacing:0px;word-spacing:0px;writing-mode:lr-tb;text-anchor:start;display:inline;fill:#ececec;fill-opacity:1;stroke:none;stroke-width:0.5px;stroke-linecap:butt;stroke-linejoin:miter;stroke-opacity:1;enable-background:new"
           inkscape:connector-curvature="0" />
        <path
           inkscape:connector-curvature="0"
           id="path4330"
           d="m 108.7207,156 c -1.44476,1.46177 -2.94216,2.94123 -4.50586,4.44238 -2.96132,2.96133 -5.972185,6.02094 -9.032225,9.17969 -3.060035,3.15875 -5.82324,6.51477 -8.291015,10.06836 -2.46777,3.55359 -4.49191,7.35423 -6.07129,11.40137 -1.48066,3.94844 -2.2207,8.24243 -2.2207,12.88184 v 1.6289 c 0,0.59227 0.0497,1.1841 0.148435,1.77637 H 140.93554 V 195.68164 H 93.70215 c 0,-1.67809 0.64156,-3.6525 1.924805,-5.92285 1.38195,-2.27035 3.05996,-4.63868 5.034185,-7.10645 1.97421,-2.46777 4.04711,-4.83707 6.21875,-7.10742 l 5.92285,-5.92285 c 2.96132,-2.96133 5.92246,-5.97219 8.88379,-9.03223 1.43424,-1.52986 2.79538,-3.06014 4.09082,-4.58984 z m 66.65039,0 c -1.69141,1.14114 -3.32612,2.42262 -4.90332,3.84961 -1.97422,1.77679 -3.7507,3.80094 -5.33008,6.07129 -1.48066,2.27035 -2.71504,4.73813 -3.70215,7.40332 -0.88839,2.56648 -1.33203,5.28094 -1.33203,8.14356 0,2.96132 0.54211,6.11941 1.62793,9.47558 1.08582,3.25746 2.91204,6.26833 5.47852,9.03223 2.56648,2.7639 5.97223,5.08348 10.2168,6.95898 4.34327,1.7768 9.72344,2.66504 16.13964,2.66504 5.52781,0 10.41364,-0.74004 14.65821,-2.2207 4.24456,-1.38195 7.74879,-3.35637 10.51269,-5.92285 2.86262,-2.6652 4.98524,-5.72481 6.36719,-9.17969 1.48066,-3.55359 2.2207,-7.40297 2.2207,-11.54883 C 227.14454,169.79807 222.16687,161.55701 212.39844,156 Z m 12.56836,3.40527 c 3.94843,0.8884 7.45266,1.97457 10.5127,3.25781 3.15875,1.18453 5.82446,2.66461 7.99609,4.44141 2.27035,1.77679 3.99712,3.85067 5.18165,6.21973 1.18453,2.36906 1.77734,5.13227 1.77734,8.29101 0,2.07293 -0.39488,4.09707 -1.18457,6.07129 -0.78969,1.97422 -1.97434,3.75071 -3.55371,5.33008 -1.57938,1.48066 -3.65227,2.71406 -6.21875,3.70117 -2.46777,0.98711 -5.38016,1.48145 -8.73633,1.48145 -3.75101,0 -6.86036,-0.54309 -9.32813,-1.62891 -2.46777,-1.08581 -4.49093,-2.41867 -6.07031,-3.99804 -1.57937,-1.67809 -2.71429,-3.45458 -3.40527,-5.33008 -0.59226,-1.97422 -0.88867,-3.85016 -0.88867,-5.62695 0,-5.03426 1.18465,-9.377 3.55371,-13.0293 2.46777,-3.6523 5.92227,-6.71289 10.36425,-9.18067 z"
           style="font-style:normal;font-variant:normal;font-weight:normal;font-stretch:normal;font-size:medium;line-height:125%;font-family:Ubuntu;-inkscape-font-specification:'Ubuntu, Normal';text-align:start;letter-spacing:0px;word-spacing:0px;writing-mode:lr-tb;text-anchor:start;display:inline;fill:#f9f9f9;fill-opacity:1;stroke:none;stroke-width:0.5px;stroke-linecap:butt;stroke-linejoin:miter;stroke-opacity:1;enable-background:new" />
      </g>
      <g
         id="g905"
         transform="matrix(0.185862,0,0,0.185862,315.74889,55.005528)"
         style="stroke-width:5.38033581">
        <path
           style="font-style:normal;font-variant:normal;font-weight:normal;font-stretch:normal;font-size:296.13256836px;line-height:1.25;font-family:Ubuntu;-inkscape-font-specification:'Ubuntu, Normal';text-align:start;letter-spacing:0px;word-spacing:0px;writing-mode:lr-tb;text-anchor:start;display:inline;fill:#ececec;fill-opacity:1;stroke:none;stroke-width:2.6901679px;stroke-linecap:butt;stroke-linejoin:miter;stroke-opacity:1;enable-background:new"
           d="m 105.25195,102.40039 c -3.55359,0 -6.859884,0.44363 -9.919919,1.33203 -3.060035,0.8884 -5.825193,1.97457 -8.292969,3.25781 -2.46777,1.28324 -4.590392,2.66388 -6.367187,4.14454 -1.776795,1.38195 -3.107699,2.56757 -3.996094,3.55468 l 6.808594,9.77149 c 0.69098,-0.59227 1.679646,-1.43176 2.962891,-2.51758 1.28324,-1.18452 2.862776,-2.26875 4.738281,-3.25586 1.87551,-1.08582 3.998127,-2.02282 6.367187,-2.8125 2.36906,-0.78969 4.983096,-1.18555 7.845706,-1.18555 2.36906,0 4.59113,0.34613 6.66406,1.03711 2.17164,0.59226 4.04758,1.57899 5.62695,2.96094 1.57937,1.38195 2.81278,3.10871 3.70117,5.18164 0.98712,2.07293 1.48047,4.5914 1.48047,7.55274 0,2.7639 -0.54308,5.37988 -1.6289,7.84765 -0.98711,2.46777 -2.36774,4.88485 -4.14453,7.25391 -1.67809,2.27035 -3.65349,4.58992 -5.92383,6.95898 -0.79382,0.8299 -1.62953,1.67434 -2.46289,2.51758 h 17.0664 c 1.37929,-1.62871 2.68265,-3.25589 3.9043,-4.88477 2.36907,-3.25746 4.24499,-6.51597 5.62695,-9.77343 1.48066,-3.35617 2.22266,-6.81165 2.22266,-10.36524 0,-9.0814 -2.71543,-16.08985 -8.14453,-21.02539 -5.33039,-5.03426 -13.37528,-7.55078 -24.13477,-7.55078 z m 88.46094,0 c -4.73812,0 -9.03114,0.78977 -12.88086,2.36914 -3.84972,1.48066 -7.15602,3.50383 -9.91992,6.07031 -2.6652,2.56648 -4.73809,5.57637 -6.21875,9.03125 -1.48066,3.35617 -2.2207,6.90915 -2.2207,10.66016 0,10.75949 4.8361,18.90383 14.50976,24.43164 -0.54317,0.33063 -1.07948,0.67827 -1.61133,1.03711 H 212.375 c -0.90352,-0.51362 -1.83287,-1.01278 -2.81836,-1.48047 1.97422,-1.28324 3.85016,-2.76332 5.62695,-4.44141 1.87551,-1.67808 3.50477,-3.60375 4.88672,-5.77539 1.48066,-2.17163 2.61462,-4.49121 3.4043,-6.95898 0.8884,-2.56649 1.33398,-5.28191 1.33398,-8.14453 0,-2.96132 -0.59281,-6.02094 -1.77734,-9.17969 -1.08582,-3.15874 -2.91204,-6.0214 -5.47852,-8.58789 -2.46778,-2.66519 -5.67656,-4.83753 -9.625,-6.51562 -3.94843,-1.67808 -8.68702,-2.51563 -14.21484,-2.51563 z m 0,11.40039 c 3.15875,0 5.82445,0.54309 7.99609,1.62891 2.17164,0.98711 3.95009,2.27024 5.33204,3.84961 1.38195,1.48066 2.36867,3.10992 2.96093,4.88672 0.69098,1.77679 1.03711,3.40605 1.03711,4.88671 0,5.33038 -1.23535,9.67313 -3.70312,13.0293 -2.46777,3.25746 -5.77407,6.12012 -9.91992,8.58789 -3.75102,-0.8884 -7.00759,-2.07403 -9.77149,-3.55469 -2.6652,-1.48066 -4.83753,-3.15769 -6.51562,-5.0332 -1.67808,-1.87551 -2.91149,-3.90062 -3.70118,-6.07226 -0.78969,-2.17164 -1.18554,-4.34204 -1.18554,-6.51368 0,-1.77679 0.29641,-3.55328 0.88867,-5.33007 0.69098,-1.87551 1.72741,-3.55449 3.10937,-5.03516 1.38194,-1.57937 3.15845,-2.8625 5.33008,-3.84961 2.27035,-0.98711 4.98384,-1.48047 8.14258,-1.48047 z"
           id="path901"
           inkscape:connector-curvature="0" />
        <path
           style="font-style:normal;font-variant:normal;font-weight:normal;font-stretch:normal;font-size:medium;line-height:125%;font-family:Ubuntu;-inkscape-font-specification:'Ubuntu, Normal';text-align:start;letter-spacing:0px;word-spacing:0px;writing-mode:lr-tb;text-anchor:start;display:inline;fill:#f9f9f9;fill-opacity:1;stroke:none;stroke-width:2.6901679px;stroke-linecap:butt;stroke-linejoin:miter;stroke-opacity:1;enable-background:new"
           d="m 108.7207,156 c -1.44476,1.46177 -2.94216,2.94123 -4.50586,4.44238 -2.96132,2.96133 -5.972185,6.02094 -9.032225,9.17969 -3.060035,3.15875 -5.82324,6.51477 -8.291015,10.06836 -2.46777,3.55359 -4.49191,7.35423 -6.07129,11.40137 -1.48066,3.94844 -2.2207,8.24243 -2.2207,12.88184 v 1.6289 c 0,0.59227 0.0497,1.1841 0.148435,1.77637 H 140.93554 V 195.68164 H 93.70215 c 0,-1.67809 0.64156,-3.6525 1.924805,-5.92285 1.38195,-2.27035 3.05996,-4.63868 5.034185,-7.10645 1.97421,-2.46777 4.04711,-4.83707 6.21875,-7.10742 l 5.92285,-5.92285 c 2.96132,-2.96133 5.92246,-5.97219 8.88379,-9.03223 1.43424,-1.52986 2.79538,-3.06014 4.09082,-4.58984 z m 66.65039,0 c -1.69141,1.14114 -3.32612,2.42262 -4.90332,3.84961 -1.97422,1.77679 -3.7507,3.80094 -5.33008,6.07129 -1.48066,2.27035 -2.71504,4.73813 -3.70215,7.40332 -0.88839,2.56648 -1.33203,5.28094 -1.33203,8.14356 0,2.96132 0.54211,6.11941 1.62793,9.47558 1.08582,3.25746 2.91204,6.26833 5.47852,9.03223 2.56648,2.7639 5.97223,5.08348 10.2168,6.95898 4.34327,1.7768 9.72344,2.66504 16.13964,2.66504 5.52781,0 10.41364,-0.74004 14.65821,-2.2207 4.24456,-1.38195 7.74879,-3.35637 10.51269,-5.92285 2.86262,-2.6652 4.98524,-5.72481 6.36719,-9.17969 1.48066,-3.55359 2.2207,-7.40297 2.2207,-11.54883 C 227.14454,169.79807 222.16687,161.55701 212.39844,156 Z m 12.56836,3.40527 c 3.94843,0.8884 7.45266,1.97457 10.5127,3.25781 3.15875,1.18453 5.82446,2.66461 7.99609,4.44141 2.27035,1.77679 3.99712,3.85067 5.18165,6.21973 1.18453,2.36906 1.77734,5.13227 1.77734,8.29101 0,2.07293 -0.39488,4.09707 -1.18457,6.07129 -0.78969,1.97422 -1.97434,3.75071 -3.55371,5.33008 -1.57938,1.48066 -3.65227,2.71406 -6.21875,3.70117 -2.46777,0.98711 -5.38016,1.48145 -8.73633,1.48145 -3.75101,0 -6.86036,-0.54309 -9.32813,-1.62891 -2.46777,-1.08581 -4.49093,-2.41867 -6.07031,-3.99804 -1.57937,-1.67809 -2.71429,-3.45458 -3.40527,-5.33008 -0.59226,-1.97422 -0.88867,-3.85016 -0.88867,-5.62695 0,-5.03426 1.18465,-9.377 3.55371,-13.0293 2.46777,-3.6523 5.92227,-6.71289 10.36425,-9.18067 z"
           id="path903"
           inkscape:connector-curvature="0" />
      </g>
      <g
         style="stroke-width:8.36941147"
         transform="matrix(0.11948271,0,0,0.11948271,317.83857,129.3607)"
         id="g917">
        <path
           inkscape:connector-curvature="0"
           id="path913"
           d="m 105.25195,102.40039 c -3.55359,0 -6.859884,0.44363 -9.919919,1.33203 -3.060035,0.8884 -5.825193,1.97457 -8.292969,3.25781 -2.46777,1.28324 -4.590392,2.66388 -6.367187,4.14454 -1.776795,1.38195 -3.107699,2.56757 -3.996094,3.55468 l 6.808594,9.77149 c 0.69098,-0.59227 1.679646,-1.43176 2.962891,-2.51758 1.28324,-1.18452 2.862776,-2.26875 4.738281,-3.25586 1.87551,-1.08582 3.998127,-2.02282 6.367187,-2.8125 2.36906,-0.78969 4.983096,-1.18555 7.845706,-1.18555 2.36906,0 4.59113,0.34613 6.66406,1.03711 2.17164,0.59226 4.04758,1.57899 5.62695,2.96094 1.57937,1.38195 2.81278,3.10871 3.70117,5.18164 0.98712,2.07293 1.48047,4.5914 1.48047,7.55274 0,2.7639 -0.54308,5.37988 -1.6289,7.84765 -0.98711,2.46777 -2.36774,4.88485 -4.14453,7.25391 -1.67809,2.27035 -3.65349,4.58992 -5.92383,6.95898 -0.79382,0.8299 -1.62953,1.67434 -2.46289,2.51758 h 17.0664 c 1.37929,-1.62871 2.68265,-3.25589 3.9043,-4.88477 2.36907,-3.25746 4.24499,-6.51597 5.62695,-9.77343 1.48066,-3.35617 2.22266,-6.81165 2.22266,-10.36524 0,-9.0814 -2.71543,-16.08985 -8.14453,-21.02539 -5.33039,-5.03426 -13.37528,-7.55078 -24.13477,-7.55078 z m 88.46094,0 c -4.73812,0 -9.03114,0.78977 -12.88086,2.36914 -3.84972,1.48066 -7.15602,3.50383 -9.91992,6.07031 -2.6652,2.56648 -4.73809,5.57637 -6.21875,9.03125 -1.48066,3.35617 -2.2207,6.90915 -2.2207,10.66016 0,10.75949 4.8361,18.90383 14.50976,24.43164 -0.54317,0.33063 -1.07948,0.67827 -1.61133,1.03711 H 212.375 c -0.90352,-0.51362 -1.83287,-1.01278 -2.81836,-1.48047 1.97422,-1.28324 3.85016,-2.76332 5.62695,-4.44141 1.87551,-1.67808 3.50477,-3.60375 4.88672,-5.77539 1.48066,-2.17163 2.61462,-4.49121 3.4043,-6.95898 0.8884,-2.56649 1.33398,-5.28191 1.33398,-8.14453 0,-2.96132 -0.59281,-6.02094 -1.77734,-9.17969 -1.08582,-3.15874 -2.91204,-6.0214 -5.47852,-8.58789 -2.46778,-2.66519 -5.67656,-4.83753 -9.625,-6.51562 -3.94843,-1.67808 -8.68702,-2.51563 -14.21484,-2.51563 z m 0,11.40039 c 3.15875,0 5.82445,0.54309 7.99609,1.62891 2.17164,0.98711 3.95009,2.27024 5.33204,3.84961 1.38195,1.48066 2.36867,3.10992 2.96093,4.88672 0.69098,1.77679 1.03711,3.40605 1.03711,4.88671 0,5.33038 -1.23535,9.67313 -3.70312,13.0293 -2.46777,3.25746 -5.77407,6.12012 -9.91992,8.58789 -3.75102,-0.8884 -7.00759,-2.07403 -9.77149,-3.55469 -2.6652,-1.48066 -4.83753,-3.15769 -6.51562,-5.0332 -1.67808,-1.87551 -2.91149,-3.90062 -3.70118,-6.07226 -0.78969,-2.17164 -1.18554,-4.34204 -1.18554,-6.51368 0,-1.77679 0.29641,-3.55328 0.88867,-5.33007 0.69098,-1.87551 1.72741,-3.55449 3.10937,-5.03516 1.38194,-1.57937 3.15845,-2.8625 5.33008,-3.84961 2.27035,-0.98711 4.98384,-1.48047 8.14258,-1.48047 z"
           style="font-style:normal;font-variant:normal;font-weight:normal;font-stretch:normal;font-size:296.13256836px;line-height:1.25;font-family:Ubuntu;-inkscape-font-specification:'Ubuntu, Normal';text-align:start;letter-spacing:0px;word-spacing:0px;writing-mode:lr-tb;text-anchor:start;display:inline;fill:#ececec;fill-opacity:1;stroke:none;stroke-width:4.18470573px;stroke-linecap:butt;stroke-linejoin:miter;stroke-opacity:1;enable-background:new" />
        <path
           inkscape:connector-curvature="0"
           id="path915"
           d="m 108.7207,156 c -1.44476,1.46177 -2.94216,2.94123 -4.50586,4.44238 -2.96132,2.96133 -5.972185,6.02094 -9.032225,9.17969 -3.060035,3.15875 -5.82324,6.51477 -8.291015,10.06836 -2.46777,3.55359 -4.49191,7.35423 -6.07129,11.40137 -1.48066,3.94844 -2.2207,8.24243 -2.2207,12.88184 v 1.6289 c 0,0.59227 0.0497,1.1841 0.148435,1.77637 H 140.93554 V 195.68164 H 93.70215 c 0,-1.67809 0.64156,-3.6525 1.924805,-5.92285 1.38195,-2.27035 3.05996,-4.63868 5.034185,-7.10645 1.97421,-2.46777 4.04711,-4.83707 6.21875,-7.10742 l 5.92285,-5.92285 c 2.96132,-2.96133 5.92246,-5.97219 8.88379,-9.03223 1.43424,-1.52986 2.79538,-3.06014 4.09082,-4.58984 z m 66.65039,0 c -1.69141,1.14114 -3.32612,2.42262 -4.90332,3.84961 -1.97422,1.77679 -3.7507,3.80094 -5.33008,6.07129 -1.48066,2.27035 -2.71504,4.73813 -3.70215,7.40332 -0.88839,2.56648 -1.33203,5.28094 -1.33203,8.14356 0,2.96132 0.54211,6.11941 1.62793,9.47558 1.08582,3.25746 2.91204,6.26833 5.47852,9.03223 2.56648,2.7639 5.97223,5.08348 10.2168,6.95898 4.34327,1.7768 9.72344,2.66504 16.13964,2.66504 5.52781,0 10.41364,-0.74004 14.65821,-2.2207 4.24456,-1.38195 7.74879,-3.35637 10.51269,-5.92285 2.86262,-2.6652 4.98524,-5.72481 6.36719,-9.17969 1.48066,-3.55359 2.2207,-7.40297 2.2207,-11.54883 C 227.14454,169.79807 222.16687,161.55701 212.39844,156 Z m 12.56836,3.40527 c 3.94843,0.8884 7.45266,1.97457 10.5127,3.25781 3.15875,1.18453 5.82446,2.66461 7.99609,4.44141 2.27035,1.77679 3.99712,3.85067 5.18165,6.21973 1.18453,2.36906 1.77734,5.13227 1.77734,8.29101 0,2.07293 -0.39488,4.09707 -1.18457,6.07129 -0.78969,1.97422 -1.97434,3.75071 -3.55371,5.33008 -1.57938,1.48066 -3.65227,2.71406 -6.21875,3.70117 -2.46777,0.98711 -5.38016,1.48145 -8.73633,1.48145 -3.75101,0 -6.86036,-0.54309 -9.32813,-1.62891 -2.46777,-1.08581 -4.49093,-2.41867 -6.07031,-3.99804 -1.57937,-1.67809 -2.71429,-3.45458 -3.40527,-5.33008 -0.59226,-1.97422 -0.88867,-3.85016 -0.88867,-5.62695 0,-5.03426 1.18465,-9.377 3.55371,-13.0293 2.46777,-3.6523 5.92227,-6.71289 10.36425,-9.18067 z"
           style="font-style:normal;font-variant:normal;font-weight:normal;font-stretch:normal;font-size:medium;line-height:125%;font-family:Ubuntu;-inkscape-font-specification:'Ubuntu, Normal';text-align:start;letter-spacing:0px;word-spacing:0px;writing-mode:lr-tb;text-anchor:start;display:inline;fill:#f9f9f9;fill-opacity:1;stroke:none;stroke-width:4.18470573px;stroke-linecap:butt;stroke-linejoin:miter;stroke-opacity:1;enable-background:new" />
      </g>
      <g
         id="g923"
         transform="matrix(0.092931,0,0,0.092931,317.87444,185.50291)"
         style="stroke-width:10.76067162">
        <path
           style="font-style:normal;font-variant:normal;font-weight:normal;font-stretch:normal;font-size:296.13256836px;line-height:1.25;font-family:Ubuntu;-inkscape-font-specification:'Ubuntu, Normal';text-align:start;letter-spacing:0px;word-spacing:0px;writing-mode:lr-tb;text-anchor:start;display:inline;fill:#ececec;fill-opacity:1;stroke:none;stroke-width:5.38033581px;stroke-linecap:butt;stroke-linejoin:miter;stroke-opacity:1;enable-background:new"
           d="m 105.25195,102.40039 c -3.55359,0 -6.859884,0.44363 -9.919919,1.33203 -3.060035,0.8884 -5.825193,1.97457 -8.292969,3.25781 -2.46777,1.28324 -4.590392,2.66388 -6.367187,4.14454 -1.776795,1.38195 -3.107699,2.56757 -3.996094,3.55468 l 6.808594,9.77149 c 0.69098,-0.59227 1.679646,-1.43176 2.962891,-2.51758 1.28324,-1.18452 2.862776,-2.26875 4.738281,-3.25586 1.87551,-1.08582 3.998127,-2.02282 6.367187,-2.8125 2.36906,-0.78969 4.983096,-1.18555 7.845706,-1.18555 2.36906,0 4.59113,0.34613 6.66406,1.03711 2.17164,0.59226 4.04758,1.57899 5.62695,2.96094 1.57937,1.38195 2.81278,3.10871 3.70117,5.18164 0.98712,2.07293 1.48047,4.5914 1.48047,7.55274 0,2.7639 -0.54308,5.37988 -1.6289,7.84765 -0.98711,2.46777 -2.36774,4.88485 -4.14453,7.25391 -1.67809,2.27035 -3.65349,4.58992 -5.92383,6.95898 -0.79382,0.8299 -1.62953,1.67434 -2.46289,2.51758 h 17.0664 c 1.37929,-1.62871 2.68265,-3.25589 3.9043,-4.88477 2.36907,-3.25746 4.24499,-6.51597 5.62695,-9.77343 1.48066,-3.35617 2.22266,-6.81165 2.22266,-10.36524 0,-9.0814 -2.71543,-16.08985 -8.14453,-21.02539 -5.33039,-5.03426 -13.37528,-7.55078 -24.13477,-7.55078 z m 88.46094,0 c -4.73812,0 -9.03114,0.78977 -12.88086,2.36914 -3.84972,1.48066 -7.15602,3.50383 -9.91992,6.07031 -2.6652,2.56648 -4.73809,5.57637 -6.21875,9.03125 -1.48066,3.35617 -2.2207,6.90915 -2.2207,10.66016 0,10.75949 4.8361,18.90383 14.50976,24.43164 -0.54317,0.33063 -1.07948,0.67827 -1.61133,1.03711 H 212.375 c -0.90352,-0.51362 -1.83287,-1.01278 -2.81836,-1.48047 1.97422,-1.28324 3.85016,-2.76332 5.62695,-4.44141 1.87551,-1.67808 3.50477,-3.60375 4.88672,-5.77539 1.48066,-2.17163 2.61462,-4.49121 3.4043,-6.95898 0.8884,-2.56649 1.33398,-5.28191 1.33398,-8.14453 0,-2.96132 -0.59281,-6.02094 -1.77734,-9.17969 -1.08582,-3.15874 -2.91204,-6.0214 -5.47852,-8.58789 -2.46778,-2.66519 -5.67656,-4.83753 -9.625,-6.51562 -3.94843,-1.67808 -8.68702,-2.51563 -14.21484,-2.51563 z m 0,11.40039 c 3.15875,0 5.82445,0.54309 7.99609,1.62891 2.17164,0.98711 3.95009,2.27024 5.33204,3.84961 1.38195,1.48066 2.36867,3.10992 2.96093,4.88672 0.69098,1.77679 1.03711,3.40605 1.03711,4.88671 0,5.33038 -1.23535,9.67313 -3.70312,13.0293 -2.46777,3.25746 -5.77407,6.12012 -9.91992,8.58789 -3.75102,-0.8884 -7.00759,-2.07403 -9.77149,-3.55469 -2.6652,-1.48066 -4.83753,-3.15769 -6.51562,-5.0332 -1.67808,-1.87551 -2.91149,-3.90062 -3.70118,-6.07226 -0.78969,-2.17164 -1.18554,-4.34204 -1.18554,-6.51368 0,-1.77679 0.29641,-3.55328 0.88867,-5.33007 0.69098,-1.87551 1.72741,-3.55449 3.10937,-5.03516 1.38194,-1.57937 3.15845,-2.8625 5.33008,-3.84961 2.27035,-0.98711 4.98384,-1.48047 8.14258,-1.48047 z"
           id="path919"
           inkscape:connector-curvature="0" />
        <path
           style="font-style:normal;font-variant:normal;font-weight:normal;font-stretch:normal;font-size:medium;line-height:125%;font-family:Ubuntu;-inkscape-font-specification:'Ubuntu, Normal';text-align:start;letter-spacing:0px;word-spacing:0px;writing-mode:lr-tb;text-anchor:start;display:inline;fill:#f9f9f9;fill-opacity:1;stroke:none;stroke-width:5.38033581px;stroke-linecap:butt;stroke-linejoin:miter;stroke-opacity:1;enable-background:new"
           d="m 108.7207,156 c -1.44476,1.46177 -2.94216,2.94123 -4.50586,4.44238 -2.96132,2.96133 -5.972185,6.02094 -9.032225,9.17969 -3.060035,3.15875 -5.82324,6.51477 -8.291015,10.06836 -2.46777,3.55359 -4.49191,7.35423 -6.07129,11.40137 -1.48066,3.94844 -2.2207,8.24243 -2.2207,12.88184 v 1.6289 c 0,0.59227 0.0497,1.1841 0.148435,1.77637 H 140.93554 V 195.68164 H 93.70215 c 0,-1.67809 0.64156,-3.6525 1.924805,-5.92285 1.38195,-2.27035 3.05996,-4.63868 5.034185,-7.10645 1.97421,-2.46777 4.04711,-4.83707 6.21875,-7.10742 l 5.92285,-5.92285 c 2.96132,-2.96133 5.92246,-5.97219 8.88379,-9.03223 1.43424,-1.52986 2.79538,-3.06014 4.09082,-4.58984 z m 66.65039,0 c -1.69141,1.14114 -3.32612,2.42262 -4.90332,3.84961 -1.97422,1.77679 -3.7507,3.80094 -5.33008,6.07129 -1.48066,2.27035 -2.71504,4.73813 -3.70215,7.40332 -0.88839,2.56648 -1.33203,5.28094 -1.33203,8.14356 0,2.96132 0.54211,6.11941 1.62793,9.47558 1.08582,3.25746 2.91204,6.26833 5.47852,9.03223 2.56648,2.7639 5.97223,5.08348 10.2168,6.95898 4.34327,1.7768 9.72344,2.66504 16.13964,2.66504 5.52781,0 10.41364,-0.74004 14.65821,-2.2207 4.24456,-1.38195 7.74879,-3.35637 10.51269,-5.92285 2.86262,-2.6652 4.98524,-5.72481 6.36719,-9.17969 1.48066,-3.55359 2.2207,-7.40297 2.2207,-11.54883 C 227.14454,169.79807 222.16687,161.55701 212.39844,156 Z m 12.56836,3.40527 c 3.94843,0.8884 7.45266,1.97457 10.5127,3.25781 3.15875,1.18453 5.82446,2.66461 7.99609,4.44141 2.27035,1.77679 3.99712,3.85067 5.18165,6.21973 1.18453,2.36906 1.77734,5.13227 1.77734,8.29101 0,2.07293 -0.39488,4.09707 -1.18457,6.07129 -0.78969,1.97422 -1.97434,3.75071 -3.55371,5.33008 -1.57938,1.48066 -3.65227,2.71406 -6.21875,3.70117 -2.46777,0.98711 -5.38016,1.48145 -8.73633,1.48145 -3.75101,0 -6.86036,-0.54309 -9.32813,-1.62891 -2.46777,-1.08581 -4.49093,-2.41867 -6.07031,-3.99804 -1.57937,-1.67809 -2.71429,-3.45458 -3.40527,-5.33008 -0.59226,-1.97422 -0.88867,-3.85016 -0.88867,-5.62695 0,-5.03426 1.18465,-9.377 3.55371,-13.0293 2.46777,-3.6523 5.92227,-6.71289 10.36425,-9.18067 z"
           id="path921"
           inkscape:connector-curvature="0" />
      </g>
      <path
         style="color:#000000;display:inline;overflow:visible;visibility:visible;opacity:1;fill:url(#linearGradient4251-3);fill-opacity:1;fill-rule:nonzero;stroke:none;stroke-width:23.99999809;stroke-linecap:butt;stroke-linejoin:miter;stroke-miterlimit:4;stroke-dasharray:none;stroke-dashoffset:0;stroke-opacity:1;marker:none;enable-background:accumulate"
         d="m 321,198 v 4 h 1 v -4 z m 21,0 v 4 h 1 v -4 z"
         id="rect4243-5"
         inkscape:connector-curvature="0"
         sodipodi:nodetypes="cccccccccc" />
      <path
         sodipodi:nodetypes="cccccccccc"
         inkscape:connector-curvature="0"
         id="path983"
         d="m 321,242 v 3 h 1 v -3 z m 13,0 v 3 h 1 v -3 z"
         style="color:#000000;display:inline;overflow:visible;visibility:visible;opacity:1;fill:url(#linearGradient985);fill-opacity:1;fill-rule:nonzero;stroke:none;stroke-width:23.99999809;stroke-linecap:butt;stroke-linejoin:miter;stroke-miterlimit:4;stroke-dasharray:none;stroke-dashoffset:0;stroke-opacity:1;marker:none;enable-background:accumulate" />
      <path
         style="font-style:normal;font-variant:normal;font-weight:normal;font-stretch:normal;font-size:296.13256836px;line-height:1.25;font-family:Ubuntu;-inkscape-font-specification:'Ubuntu, Normal';text-align:start;letter-spacing:0px;word-spacing:0px;writing-mode:lr-tb;text-anchor:start;display:inline;fill:#ececec;fill-opacity:1;stroke:none;stroke-width:0.5px;stroke-linecap:butt;stroke-linejoin:miter;stroke-opacity:1;enable-background:new"
         d="M 325.29297 240.36328 C 325.08068 240.36328 324.88203 240.39026 324.69922 240.44336 C 324.5164 240.49646 324.35251 240.56201 324.20508 240.63867 C 324.05765 240.71537 323.93037 240.79827 323.82422 240.88672 C 323.71807 240.96932 323.63901 241.03869 323.58594 241.09766 L 323.99219 241.68164 C 324.03349 241.64624 324.0913 241.59616 324.16797 241.53125 C 324.24467 241.46045 324.33912 241.39686 324.45117 241.33789 C 324.56321 241.27299 324.6905 241.2171 324.83203 241.16992 C 324.97356 241.12272 325.12976 241.09766 325.30078 241.09766 C 325.44231 241.09766 325.57538 241.11886 325.69922 241.16016 C 325.82895 241.19556 325.9408 241.2553 326.03516 241.33789 C 326.12946 241.42049 326.20279 241.52264 326.25586 241.64648 C 326.31486 241.77032 326.3457 241.92075 326.3457 242.09766 C 326.3457 242.26278 326.31295 242.41898 326.24805 242.56641 C 326.18905 242.71384 326.10615 242.85847 326 243 C 325.89975 243.13563 325.78211 243.27449 325.64648 243.41602 C 325.59908 243.46562 325.54974 243.51604 325.5 243.56641 C 325.4137 243.65371 325.32388 243.74235 325.23047 243.83203 C 325.05355 244.00894 324.87422 244.19216 324.69141 244.38086 C 324.5086 244.56957 324.34274 244.76817 324.19531 244.98047 C 324.04788 245.19277 323.92638 245.42033 323.83203 245.66211 C 323.74353 245.898 323.69922 246.15448 323.69922 246.43164 L 323.69922 246.5293 C 323.69922 246.5647 323.70298 246.59935 323.70898 246.63477 L 327.42383 246.63477 L 327.42383 245.9375 L 324.60156 245.9375 C 324.60156 245.83725 324.64011 245.71766 324.7168 245.58203 C 324.7994 245.44639 324.89964 245.30563 325.01758 245.1582 C 325.13553 245.01077 325.26088 244.87002 325.39062 244.73438 L 325.74414 244.38086 C 325.92105 244.20395 326.09652 244.02265 326.27344 243.83984 C 326.35914 243.74844 326.44214 243.6578 326.51953 243.56641 C 326.60193 243.46911 326.67896 243.37075 326.75195 243.27344 C 326.89348 243.07883 327.00533 242.88602 327.08789 242.69141 C 327.17639 242.49091 327.2207 242.28456 327.2207 242.07227 C 327.2207 241.52973 327.05872 241.10931 326.73438 240.81445 C 326.41593 240.5137 325.93576 240.36328 325.29297 240.36328 z M 330.57617 240.36328 C 330.29311 240.36328 330.03663 240.41153 329.80664 240.50586 C 329.57665 240.59436 329.37996 240.71582 329.21484 240.86914 C 329.05562 241.02247 328.9322 241.2018 328.84375 241.4082 C 328.75525 241.6087 328.71094 241.82083 328.71094 242.04492 C 328.71094 242.68771 329.00021 243.17367 329.57812 243.50391 C 329.54562 243.52371 329.51227 243.54491 329.48047 243.56641 C 329.37942 243.63461 329.28172 243.71162 329.1875 243.79688 C 329.06955 243.90303 328.96349 244.02257 328.86914 244.1582 C 328.78064 244.29383 328.70741 244.44234 328.64844 244.60156 C 328.59534 244.75489 328.56836 244.91688 328.56836 245.08789 C 328.56836 245.26481 328.60112 245.45379 328.66602 245.6543 C 328.73092 245.8489 328.84082 246.02824 328.99414 246.19336 C 329.14747 246.35848 329.34994 246.49734 329.60352 246.60938 C 329.86299 246.71553 330.18505 246.76758 330.56836 246.76758 C 330.8986 246.76758 331.18979 246.72324 331.44336 246.63477 C 331.69694 246.55217 331.90715 246.43457 332.07227 246.28125 C 332.24329 246.12203 332.37057 245.93882 332.45312 245.73242 C 332.54163 245.52013 332.58594 245.29065 332.58594 245.04297 C 332.57514 244.39003 332.27694 243.8984 331.69336 243.56641 L 331.69141 243.56641 C 331.63741 243.53571 331.58231 243.50642 331.52344 243.47852 C 331.64138 243.40182 331.75323 243.31314 331.85938 243.21289 C 331.97143 243.11264 332.06978 242.99693 332.15234 242.86719 C 332.24084 242.73746 332.30829 242.5986 332.35547 242.45117 C 332.40857 242.29785 332.43555 242.13585 332.43555 241.96484 C 332.43555 241.78792 332.39891 241.60473 332.32812 241.41602 C 332.26322 241.22731 332.15527 241.05762 332.00195 240.9043 C 331.85452 240.74508 331.66166 240.61392 331.42578 240.51367 C 331.18989 240.41341 330.90641 240.36328 330.57617 240.36328 z M 330.57617 241.04492 L 330.57812 241.04492 C 330.76592 241.04516 330.92543 241.07802 331.05469 241.14258 C 331.18443 241.20158 331.29049 241.27869 331.37305 241.37305 C 331.45565 241.46145 331.5154 241.55791 331.55078 241.66406 C 331.59208 241.7702 331.61133 241.86857 331.61133 241.95703 C 331.61133 242.27547 331.53805 242.53387 331.39062 242.73438 C 331.2432 242.92899 331.04651 243.10062 330.79883 243.24805 C 330.57474 243.19495 330.37996 243.12362 330.21484 243.03516 C 330.05562 242.94676 329.92642 242.84642 329.82617 242.73438 C 329.72592 242.62233 329.6507 242.50083 329.60352 242.37109 C 329.55632 242.24135 329.5332 242.11216 329.5332 241.98242 C 329.5332 241.87627 329.55054 241.7702 329.58594 241.66406 C 329.62724 241.55201 329.68892 241.45174 329.77148 241.36328 C 329.85408 241.26898 329.96011 241.19178 330.08984 241.13281 C 330.22498 241.07403 330.38835 241.04514 330.57617 241.04492 z M 330.23242 243.76953 C 330.4683 243.82263 330.67657 243.88818 330.85938 243.96484 C 331.04809 244.03564 331.20815 244.12432 331.33789 244.23047 C 331.47352 244.33662 331.57767 244.46003 331.64844 244.60156 C 331.71924 244.7431 331.75391 244.90699 331.75391 245.0957 C 331.75391 245.21954 331.73079 245.34104 331.68359 245.45898 C 331.63639 245.57692 331.56505 245.68299 331.4707 245.77734 C 331.3763 245.86584 331.25294 245.93908 331.09961 245.99805 C 330.95218 246.05705 330.77667 246.08789 330.57617 246.08789 C 330.35208 246.08789 330.16696 246.05513 330.01953 245.99023 C 329.87211 245.92533 329.7506 245.8463 329.65625 245.75195 C 329.56185 245.6517 329.49441 245.54369 329.45312 245.43164 C 329.41773 245.3137 329.40039 245.20185 329.40039 245.0957 C 329.40039 244.79495 329.47178 244.53656 329.61328 244.31836 C 329.76071 244.10017 329.96705 243.91696 330.23242 243.76953 z "
         id="path987" />
      <path
         sodipodi:nodetypes="cccccccccc"
         inkscape:connector-curvature="0"
         id="path996"
         d="m 321,145 v 6 h 1 v -6 z m 29,0 v 6 h 1 v -6 z"
         style="color:#000000;display:inline;overflow:visible;visibility:visible;opacity:1;fill:url(#linearGradient998);fill-opacity:1;fill-rule:nonzero;stroke:none;stroke-width:23.99999809;stroke-linecap:butt;stroke-linejoin:miter;stroke-miterlimit:4;stroke-dasharray:none;stroke-dashoffset:0;stroke-opacity:1;marker:none;enable-background:accumulate" />
      <path
         sodipodi:nodetypes="cccccccccc"
         inkscape:connector-curvature="0"
         id="path1004"
         d="M 321.00001,80 V 90 H 323 V 80 Z M 365,80 v 10 h 2.00001 V 80 Z"
         style="color:#000000;display:inline;overflow:visible;visibility:visible;opacity:0.1;fill:#000000;fill-opacity:1;fill-rule:nonzero;stroke:none;stroke-width:23.99999809;stroke-linecap:butt;stroke-linejoin:miter;stroke-miterlimit:4;stroke-dasharray:none;stroke-dashoffset:0;stroke-opacity:1;marker:none;enable-background:accumulate" />
      <path
         style="color:#000000;display:inline;overflow:visible;visibility:visible;opacity:1;fill:url(#linearGradient1002);fill-opacity:1;fill-rule:nonzero;stroke:none;stroke-width:23.99999809;stroke-linecap:butt;stroke-linejoin:miter;stroke-miterlimit:4;stroke-dasharray:none;stroke-dashoffset:0;stroke-opacity:1;marker:none;enable-background:accumulate"
         d="M 321.00001,79 V 89 H 323 V 79 Z M 365,79 v 10 h 2.00001 V 79 Z"
         id="path1000"
         inkscape:connector-curvature="0"
         sodipodi:nodetypes="cccccccccc" />
      <path
         style="font-style:normal;font-weight:normal;font-size:149.37759399px;line-height:1000%;font-family:sans-serif;letter-spacing:0px;word-spacing:0px;fill:#ececec;fill-opacity:1;stroke:none;stroke-width:3.73443985px;stroke-linecap:butt;stroke-linejoin:miter;stroke-opacity:1"
         d="M 105.28516 102 C 101.50092 102 98.065653 102.49829 94.978516 103.49414 C 91.891379 104.39041 89.153713 105.48469 86.763672 106.7793 C 84.473215 108.0739 82.530861 109.41831 80.9375 110.8125 C 79.443724 112.10711 78.398292 113.10369 77.800781 113.80078 L 82.878906 120.52344 C 83.476417 119.92593 84.422191 119.07981 85.716797 117.98438 C 87.011403 116.88894 88.555125 115.84155 90.347656 114.8457 C 92.239772 113.75027 94.430295 112.80449 96.919922 112.00781 C 99.409548 111.21113 102.24882 110.8125 105.43555 110.8125 C 111.1119 110.8125 115.79192 112.35622 119.47656 115.44336 C 123.26079 118.43091 125.15234 123.4099 125.15234 130.38086 C 125.15234 133.56758 124.65405 136.50652 123.6582 139.19531 C 122.66235 141.88411 121.31795 144.42246 119.625 146.8125 C 117.93205 149.20254 115.94085 151.54353 113.65039 153.83398 C 112.95974 154.52464 112.15784 155.28955 111.4375 156 L 123.74609 156 C 125.2128 154.31136 126.58498 152.59431 127.8418 150.8457 C 130.23184 147.65898 132.12339 144.37417 133.51758 140.98828 C 134.91177 137.5028 135.60938 133.81741 135.60938 129.93359 C 135.60938 121.17011 133.06907 114.34842 127.99023 109.46875 C 122.9114 104.4895 115.34325 102 105.28516 102 z M 193.93359 102 C 189.55185 102 185.51863 102.69761 181.83398 104.0918 C 178.14934 105.3864 174.96419 107.27795 172.27539 109.76758 C 169.68618 112.15762 167.64417 115.0946 166.15039 118.58008 C 164.65661 122.06556 163.91016 125.95026 163.91016 130.23242 C 163.91016 135.0125 165.00444 139.44436 167.19531 143.52734 C 169.38618 147.61033 173.51906 151.14526 179.59375 154.13281 C 178.53927 154.70399 177.5079 155.3319 176.49219 156 L 208.36719 156 C 207.98615 155.82618 207.62294 155.6456 207.22852 155.47656 C 209.12063 154.28154 211.06299 152.83748 213.05469 151.14453 C 215.04639 149.45159 216.83828 147.51118 218.43164 145.32031 C 220.025 143.02986 221.32056 140.54036 222.31641 137.85156 C 223.31226 135.06318 223.81055 132.02459 223.81055 128.73828 C 223.81055 125.35239 223.2126 122.06563 222.01758 118.87891 C 220.92214 115.69218 219.13025 112.85486 216.64062 110.36523 C 214.25058 107.87561 211.16314 105.8844 207.37891 104.39062 C 203.59467 102.79726 199.11202 102 193.93359 102 z M 193.93359 110.36523 C 197.51866 110.36523 200.55725 110.91238 203.04688 112.00781 C 205.5365 113.00366 207.52771 114.39888 209.02148 116.19141 C 210.61485 117.88435 211.75994 119.82475 212.45703 122.01562 C 213.25371 124.2065 213.65234 126.44782 213.65234 128.73828 C 213.65234 134.41463 212.30794 139.14546 209.61914 142.92969 C 206.93034 146.71392 203.29576 149.90102 198.71484 152.49023 C 193.53642 151.09604 189.35274 149.65198 186.16602 148.1582 C 182.97929 146.56484 180.4898 144.87066 178.69727 143.07812 C 176.90473 141.18601 175.65999 139.09514 174.96289 136.80469 C 174.36538 134.51423 174.06641 131.97588 174.06641 129.1875 C 174.06641 126.69787 174.46504 124.30608 175.26172 122.01562 C 176.15798 119.72517 177.40273 117.73396 178.99609 116.04102 C 180.68904 114.24848 182.7799 112.85523 185.26953 111.85938 C 187.75916 110.86352 190.64729 110.36523 193.93359 110.36523 z "
         id="text933" />
    </g>
    <g
       inkscape:groupmode="layer"
       id="layer5"
       inkscape:label="Border"
       style="display:inline"
       sodipodi:insensitive="true">
      <path
         style="display:inline;opacity:0.5;fill:none;fill-opacity:1;stroke:#000000;stroke-width:1;stroke-linecap:round;stroke-linejoin:round;stroke-miterlimit:4;stroke-dasharray:none;stroke-dashoffset:0;stroke-opacity:1;enable-background:new"
         d="m 341.12109,133.5 c 9.08109,0 10.37891,1.29458 10.37891,10.36719 v 8.26562 c 0,9.07258 -1.29782,10.36719 -10.37891,10.36719 H 330.87891 C 321.79783,162.5 320.5,161.20539 320.5,152.13281 v -8.26562 c 0,-9.07261 1.29783,-10.36719 10.37891,-10.36719 z"
         id="path950"
         inkscape:connector-curvature="0"
         sodipodi:nodetypes="sssssssss" />
      <path
         style="display:inline;opacity:0.5;fill:none;fill-opacity:1;stroke:#000000;stroke-width:1;stroke-linecap:round;stroke-linejoin:round;stroke-miterlimit:4;stroke-dasharray:none;stroke-dashoffset:0;stroke-opacity:1;enable-background:new"
         d="M 351.93164,62.5 C 365.55326,62.5 367.5,64.44187 367.5,78.05078 V 89.94922 C 367.5,103.55808 365.55326,105.5 351.93164,105.5 H 336.06836 C 322.44674,105.5 320.5,103.55808 320.5,89.94922 V 78.05078 C 320.5,64.44187 322.44674,62.5 336.06836,62.5 Z"
         id="path892"
         inkscape:connector-curvature="0"
         sodipodi:nodetypes="sssssssss" />
      <path
         sodipodi:nodetypes="sssssssss"
         inkscape:connector-curvature="0"
         id="path970"
         d="m 335.71582,189.50031 c 6.81081,10e-6 7.78418,0.97093 7.78418,7.77539 v 5.44891 c 0,6.80444 -0.97337,7.77539 -7.78418,7.77539 h -7.43164 c -6.81081,0 -7.78418,-0.97095 -7.78418,-7.77539 v -5.44892 c 0,-6.80446 0.97337,-7.7754 7.78418,-7.77539 z"
         style="display:inline;opacity:0.5;fill:none;fill-opacity:1;stroke:#000000;stroke-width:1;stroke-linecap:round;stroke-linejoin:round;stroke-miterlimit:4;stroke-dasharray:none;stroke-dashoffset:0;stroke-opacity:1;enable-background:new" />
      <path
         sodipodi:nodetypes="sssssssss"
         inkscape:connector-curvature="0"
         id="path1025"
         d="m 330.31054,236.5 c 4.54055,0 5.18946,0.64729 5.18946,5.18359 v 3.63282 c 0,4.53629 -0.64891,5.18359 -5.18946,5.18359 h -4.62109 c -4.54053,0 -5.18945,-0.6473 -5.18945,-5.18359 v -3.63282 c 0,-4.5363 0.64892,-5.18359 5.18946,-5.18359 z"
         style="display:inline;opacity:0.5;fill:none;fill-opacity:1;stroke:#000000;stroke-width:1;stroke-linecap:round;stroke-linejoin:round;stroke-miterlimit:4;stroke-dasharray:none;stroke-dashoffset:0;stroke-opacity:1;enable-background:new" />
    </g>
    <g
       inkscape:groupmode="layer"
       id="layer3"
       inkscape:label="Highlights"
       style="display:inline"
       sodipodi:insensitive="true">
      <path
         style="color:#000000;font-style:normal;font-variant:normal;font-weight:normal;font-stretch:normal;font-size:medium;line-height:normal;font-family:sans-serif;font-variant-ligatures:normal;font-variant-position:normal;font-variant-caps:normal;font-variant-numeric:normal;font-variant-alternates:normal;font-feature-settings:normal;text-indent:0;text-align:start;text-decoration:none;text-decoration-line:none;text-decoration-style:solid;text-decoration-color:#000000;letter-spacing:normal;word-spacing:normal;text-transform:none;writing-mode:lr-tb;direction:ltr;text-orientation:mixed;dominant-baseline:auto;baseline-shift:baseline;text-anchor:start;white-space:normal;shape-padding:0;clip-rule:nonzero;display:inline;overflow:visible;visibility:visible;opacity:0.5;isolation:auto;mix-blend-mode:normal;color-interpolation:sRGB;color-interpolation-filters:linearRGB;solid-color:#000000;solid-opacity:1;vector-effect:none;fill:none;fill-opacity:1;fill-rule:nonzero;stroke:url(#linearGradient929);stroke-width:1;stroke-linecap:round;stroke-linejoin:round;stroke-miterlimit:4;stroke-dasharray:none;stroke-dashoffset:0;stroke-opacity:1;color-rendering:auto;image-rendering:auto;shape-rendering:auto;text-rendering:auto;enable-background:accumulate"
         d="m 351.93164,63.5 h -15.86328 c -6.76329,0 -10.36307,0.55877 -12.18555,2.37891 -1.82247,1.82013 -2.38281,5.4151 -2.38281,12.17187 v 11.89844 c 0,6.75675 0.56034,10.35173 2.38281,12.17187 1.82248,1.82015 5.42226,2.37891 12.18555,2.37891 h 15.86328 c 6.76329,0 10.36307,-0.55876 12.18555,-2.37891 C 365.93966,100.30095 366.5,96.70597 366.5,89.94922 V 78.05078 c 0,-6.75677 -0.56034,-10.35174 -2.38281,-12.17187 C 362.29471,64.05877 358.69493,63.5 351.93164,63.5 Z"
         id="path911"
         inkscape:connector-curvature="0"
         sodipodi:nodetypes="sssssssssssss" />
      <path
         style="color:#000000;font-style:normal;font-variant:normal;font-weight:normal;font-stretch:normal;font-size:medium;line-height:normal;font-family:sans-serif;font-variant-ligatures:normal;font-variant-position:normal;font-variant-caps:normal;font-variant-numeric:normal;font-variant-alternates:normal;font-feature-settings:normal;text-indent:0;text-align:start;text-decoration:none;text-decoration-line:none;text-decoration-style:solid;text-decoration-color:#000000;letter-spacing:normal;word-spacing:normal;text-transform:none;writing-mode:lr-tb;direction:ltr;text-orientation:mixed;dominant-baseline:auto;baseline-shift:baseline;text-anchor:start;white-space:normal;shape-padding:0;clip-rule:nonzero;display:inline;overflow:visible;visibility:visible;opacity:0.5;isolation:auto;mix-blend-mode:normal;color-interpolation:sRGB;color-interpolation-filters:linearRGB;solid-color:#000000;solid-opacity:1;vector-effect:none;fill:none;fill-opacity:1;fill-rule:nonzero;stroke:url(#linearGradient965);stroke-width:1;stroke-linecap:round;stroke-linejoin:round;stroke-miterlimit:4;stroke-dasharray:none;stroke-dashoffset:0;stroke-opacity:1;color-rendering:auto;image-rendering:auto;shape-rendering:auto;text-rendering:auto;enable-background:accumulate"
         d="m 341.12109,134.5 h -10.24218 c -4.49302,0 -6.796,0.397 -7.88868,1.48828 -1.09267,1.09128 -1.49023,3.39029 -1.49023,7.87891 v 8.26562 c 0,4.48861 0.39755,6.78763 1.49023,7.87891 1.09268,1.09128 3.39566,1.48828 7.88868,1.48828 h 10.24218 c 4.49303,0 6.796,-0.397 7.88868,-1.48828 1.09268,-1.09128 1.49023,-3.3903 1.49023,-7.87891 v -8.26562 c 0,-4.48862 -0.39756,-6.78763 -1.49023,-7.87891 C 347.91709,134.897 345.61412,134.5 341.12109,134.5 Z"
         id="path955"
         inkscape:connector-curvature="0"
         sodipodi:nodetypes="sscssssscssss" />
      <path
         style="color:#000000;font-style:normal;font-variant:normal;font-weight:normal;font-stretch:normal;font-size:medium;line-height:normal;font-family:sans-serif;font-variant-ligatures:normal;font-variant-position:normal;font-variant-caps:normal;font-variant-numeric:normal;font-variant-alternates:normal;font-feature-settings:normal;text-indent:0;text-align:start;text-decoration:none;text-decoration-line:none;text-decoration-style:solid;text-decoration-color:#000000;letter-spacing:normal;word-spacing:normal;text-transform:none;writing-mode:lr-tb;direction:ltr;text-orientation:mixed;dominant-baseline:auto;baseline-shift:baseline;text-anchor:start;white-space:normal;shape-padding:0;clip-rule:nonzero;display:inline;overflow:visible;visibility:visible;opacity:0.5;isolation:auto;mix-blend-mode:normal;color-interpolation:sRGB;color-interpolation-filters:linearRGB;solid-color:#000000;solid-opacity:1;vector-effect:none;fill:none;fill-opacity:1;fill-rule:nonzero;stroke:url(#linearGradient1006);stroke-width:1;stroke-linecap:round;stroke-linejoin:round;stroke-miterlimit:4;stroke-dasharray:none;stroke-dashoffset:0;stroke-opacity:1;color-rendering:auto;image-rendering:auto;shape-rendering:auto;text-rendering:auto;enable-background:accumulate"
         d="m 335.71484,190.5 h -7.43164 c -3.35788,0 -5.0105,0.31612 -5.73828,1.04297 -0.72778,0.72685 -1.04492,2.37787 -1.04492,5.73242 v 5.44922 c 0,3.35454 0.31714,5.00557 1.04492,5.73242 0.72778,0.72685 2.38235,1.04297 5.74024,1.04297 h 7.42968 c 3.35789,0 5.01246,-0.31612 5.74024,-1.04297 0.72778,-0.72685 1.04492,-2.37788 1.04492,-5.73242 v -5.44922 c 0,-3.35455 -0.31714,-5.00558 -1.04492,-5.73242 C 340.7273,190.81612 339.07273,190.5 335.71484,190.5 Z"
         id="path974"
         inkscape:connector-curvature="0"
         sodipodi:nodetypes="ssssssssssscs" />
      <path
         style="color:#000000;font-style:normal;font-variant:normal;font-weight:normal;font-stretch:normal;font-size:medium;line-height:normal;font-family:sans-serif;font-variant-ligatures:normal;font-variant-position:normal;font-variant-caps:normal;font-variant-numeric:normal;font-variant-alternates:normal;font-feature-settings:normal;text-indent:0;text-align:start;text-decoration:none;text-decoration-line:none;text-decoration-style:solid;text-decoration-color:#000000;letter-spacing:normal;word-spacing:normal;text-transform:none;writing-mode:lr-tb;direction:ltr;text-orientation:mixed;dominant-baseline:auto;baseline-shift:baseline;text-anchor:start;white-space:normal;shape-padding:0;clip-rule:nonzero;display:inline;overflow:visible;visibility:visible;opacity:0.5;isolation:auto;mix-blend-mode:normal;color-interpolation:sRGB;color-interpolation-filters:linearRGB;solid-color:#000000;solid-opacity:1;vector-effect:none;fill:none;fill-opacity:1;fill-rule:nonzero;stroke:url(#linearGradient1045);stroke-width:1;stroke-linecap:round;stroke-linejoin:round;stroke-miterlimit:4;stroke-dasharray:none;stroke-dashoffset:0;stroke-opacity:1;color-rendering:auto;image-rendering:auto;shape-rendering:auto;text-rendering:auto;enable-background:accumulate"
         d="m 325.68945,237.5 h 4.6211 c 2.22275,0 3.22696,0.23524 3.58984,0.59766 0.36288,0.36241 0.59961,1.36547 0.59961,3.58593 v 3.63282 c 0,2.22046 -0.23673,3.22352 -0.59961,3.58593 -0.36288,0.36242 -1.36709,0.59766 -3.58984,0.59766 h -4.6211 c -2.22274,0 -3.22696,-0.23524 -3.58984,-0.59766 -0.36288,-0.36242 -0.59961,-1.36547 -0.59961,-3.58593 v -3.63282 c 0,-2.22046 0.23673,-3.22352 0.59961,-3.58593 0.36288,-0.36242 1.36709,-0.59766 3.58984,-0.59766 z"
         id="path1035"
         inkscape:connector-curvature="0"
         sodipodi:nodetypes="sscsscssssscs" />
      <path
         sodipodi:nodetypes="sssssssss"
         inkscape:connector-curvature="0"
         id="path1068"
         d="M 361.9375,-212 C 507.2348,-212 528,-191.28677 528,-46.125 V 70.125 C 528,215.28618 507.2348,236 361.9375,236 H 214.0625 C 68.7652,236 48,215.28618 48,70.125 V -46.125 C 48,-191.28677 68.7652,-212 214.0625,-212 Z"
         style="display:inline;opacity:0.5;fill:none;fill-opacity:1;stroke:url(#linearGradient1108);stroke-width:8;stroke-linecap:round;stroke-linejoin:round;stroke-miterlimit:4;stroke-dasharray:none;stroke-dashoffset:0;stroke-opacity:1;enable-background:new"
         clip-path="url(#clipPath1082)"
         transform="matrix(0.5,0,0,0.5,8,150)" />
    </g>
  </g>
</svg>
