<?xml version="1.0" encoding="UTF-8" standalone="no"?>
<svg
   width="16"
   height="16"
   version="1.1"
   id="svg4"
   sodipodi:docname="advertising-none-symbolic.svg"
   inkscape:version="1.2 (1:1.2.1+202207142221+cd75a1ee6d)"
   xmlns:inkscape="http://www.inkscape.org/namespaces/inkscape"
   xmlns:sodipodi="http://sodipodi.sourceforge.net/DTD/sodipodi-0.dtd"
   xmlns="http://www.w3.org/2000/svg"
   xmlns:svg="http://www.w3.org/2000/svg">
  <defs
     id="defs8" />
  <sodipodi:namedview
     id="namedview6"
     pagecolor="#ffffff"
     bordercolor="#666666"
     borderopacity="1.0"
     inkscape:showpageshadow="2"
     inkscape:pageopacity="0.0"
     inkscape:pagecheckerboard="0"
     inkscape:deskcolor="#d1d1d1"
     showgrid="false"
     inkscape:zoom="14.75"
     inkscape:cx="-2.5084746"
     inkscape:cy="6.2372881"
     inkscape:window-width="1920"
     inkscape:window-height="1043"
     inkscape:window-x="0"
     inkscape:window-y="0"
     inkscape:window-maximized="1"
     inkscape:current-layer="svg4">
    <inkscape:grid
       type="xygrid"
       id="grid237" />
    <inkscape:grid
       type="xygrid"
       id="grid239"
       dotted="true"
       spacingx="0.5"
       spacingy="0.5"
       empspacing="10" />
  </sodipodi:namedview>
  <path
     id="path304"
     style="color:#000000;fill:#808080;stroke-linejoin:round;-inkscape-stroke:none"
     d="M 12.546875 1.0019531 A 0.50005 0.50005 0 0 0 12.199219 1.0996094 C 10.191223 2.6056064 9.3508447 3.3140414 8.3417969 3.6503906 C 7.5518116 3.9137191 6.5326968 3.9782006 4.7011719 3.9941406 L 5.6914062 4.984375 C 6.9950534 4.9538266 7.8653323 4.8638996 8.6582031 4.5996094 C 9.6593089 4.2659074 10.688099 3.4178886 12 2.421875 L 12 11.292969 L 13 12.292969 L 13 1.5 A 0.50005 0.50005 0 0 0 12.722656 1.0527344 A 0.50005 0.50005 0 0 0 12.546875 1.0019531 z M 3.2910156 3.9980469 C 3.1841293 3.9980993 3.1114167 4 3 4 C 2.0833352 4 1.4703489 4.5509568 1.2285156 5.1152344 C 0.98668246 5.6795118 1 6.2500004 1 6.5 L 1 8.5 C 1 9.031971 1.0341243 9.6174439 1.3222656 10.136719 C 1.6080063 10.651667 2.2209946 11.022606 3 11 C 5.999994 11 7.3327491 11.013261 8.3417969 11.349609 C 9.3508447 11.685959 10.191223 12.394393 12.199219 13.900391 A 0.50005 0.50005 0 0 0 12.964844 13.671875 L 11.458984 12.166016 C 10.402175 11.357129 9.514596 10.685855 8.6582031 10.400391 C 7.4172555 9.9867411 5.999994 10 3 10 A 0.50005 0.50005 0 0 0 2.9804688 10 C 2.4606582 10.01945 2.3320815 9.8933494 2.1972656 9.6503906 C 2.0624498 9.407432 2 8.968027 2 8.5 L 2 6.5 C 2 6.2500004 2.0133181 5.8204864 2.1464844 5.5097656 C 2.2796503 5.1990449 2.4166678 5 3 5 C 3.4903547 5 3.8790898 4.9992606 4.2910156 4.9980469 L 3.2910156 3.9980469 z " />
  <path
     id="rect1008"
     style="opacity:0.5;fill:#808080;fill-rule:evenodd;stroke:none;stroke-linecap:round;stroke-linejoin:round;paint-order:stroke fill markers;stop-color:#000000"
     d="M 5 6 L 5 9 L 6 9 L 6 6.7070312 L 5.2929688 6 L 5 6 z " />
  <path
     style="fill:#808080;stroke:none;stroke-width:1px;stroke-linecap:butt;stroke-linejoin:miter"
     d="m 14.000131,6.0001281 2,0.7 v 1.6 l -2,0.7 z"
     id="path1062"
     sodipodi:nodetypes="ccccc" />
  <path
     id="path1118"
     style="color:#000000;fill:#808080;stroke-linecap:round;-inkscape-stroke:none"
     d="m 4.9278655,12.000128 1.09375,3.644531 a 0.5,0.5 0 0 0 0.6230468,0.333985 0.5,0.5 0 0 0 0.3339844,-0.623047 l -1.0058594,-3.355469 z" />
  <path
     style="color:#000000;fill:#808080;-inkscape-stroke:none"
     d="m 1.1464844,1.8535156 -0.7070312,0.7070312 12.9999998,13.0000002 0.707032,-0.707032 z"
     id="path656" />
</svg>
