<?xml version="1.0" encoding="UTF-8" standalone="no"?>
<svg
   width="16"
   height="16"
   version="1.1"
   id="svg4"
   sodipodi:docname="alcohol-use-symbolic.svg"
   inkscape:version="1.2 (1:1.2.1+202207142221+cd75a1ee6d)"
   xmlns:inkscape="http://www.inkscape.org/namespaces/inkscape"
   xmlns:sodipodi="http://sodipodi.sourceforge.net/DTD/sodipodi-0.dtd"
   xmlns="http://www.w3.org/2000/svg"
   xmlns:svg="http://www.w3.org/2000/svg">
  <defs
     id="defs8" />
  <sodipodi:namedview
     id="namedview6"
     pagecolor="#ffffff"
     bordercolor="#666666"
     borderopacity="1.0"
     inkscape:showpageshadow="2"
     inkscape:pageopacity="0.0"
     inkscape:pagecheckerboard="0"
     inkscape:deskcolor="#d1d1d1"
     showgrid="true"
     inkscape:zoom="29.5"
     inkscape:cx="2.4237288"
     inkscape:cy="8.5423729"
     inkscape:window-width="1920"
     inkscape:window-height="1043"
     inkscape:window-x="0"
     inkscape:window-y="0"
     inkscape:window-maximized="1"
     inkscape:current-layer="svg4">
    <inkscape:grid
       type="xygrid"
       id="grid237" />
    <inkscape:grid
       type="xygrid"
       id="grid239"
       dotted="true"
       spacingx="0.5"
       spacingy="0.5"
       empspacing="10" />
  </sodipodi:namedview>
  <path
     style="color:#000000;fill:#808080;fill-rule:evenodd;stroke-linecap:round;stroke-linejoin:round;-inkscape-stroke:none;paint-order:stroke fill markers"
     d="m 6.6582031,2.0253906 a 0.5,0.5 0 0 0 -0.6328125,0.3164063 l -1,3 c -0.332682,0.998046 0.1133709,1.9739986 0.8203125,2.6171875 0.7069416,0.6431889 1.682208,1.0410156 2.6542969,1.0410156 0.9720889,0 1.947355,-0.3978267 2.654297,-1.0410156 0.706941,-0.6431889 1.152994,-1.6191415 0.820312,-2.6171875 l -1,-3 a 0.5,0.5 0 0 0 -0.632812,-0.3164063 0.5,0.5 0 0 0 -0.316406,0.6328125 l 1,3 c 0.19126,0.5737824 -0.03509,1.0966944 -0.544922,1.5605469 -0.5098297,0.4638525 -1.2957055,0.78125 -1.980469,0.78125 -0.6847636,0 -1.4706393,-0.3173975 -1.9804688,-0.78125 -0.5098294,-0.4638525 -0.7361826,-0.9867645 -0.5449218,-1.5605469 l 1,-3 a 0.5,0.5 0 0 0 -0.3164063,-0.6328125 z"
     id="path621" />
  <path
     style="color:#000000;fill:#808080;stroke-linecap:round;-inkscape-stroke:none"
     d="m 8.5,9 a 0.5,0.5 0 0 0 -0.5,0.5 v 5 a 0.5,0.5 0 0 0 0.5,0.5 0.5,0.5 0 0 0 0.5,-0.5 v -5 a 0.5,0.5 0 0 0 -0.5,-0.5 z"
     id="path626" />
  <path
     style="color:#000000;fill:#808080;stroke-linecap:round;-inkscape-stroke:none"
     d="m 6.5,14 a 0.5,0.5 0 0 0 -0.5,0.5 0.5,0.5 0 0 0 0.5,0.5 h 4 a 0.5,0.5 0 0 0 0.5,-0.5 0.5,0.5 0 0 0 -0.5,-0.5 z"
     id="path628" />
  <path
     style="opacity:0.5;fill:#808080;stroke:none;stroke-width:1px;stroke-linecap:butt;stroke-linejoin:miter"
     d="m 11.5,4 c -2.9935635,-0.029674 -3,1 -6,1 l 0.5,2.5 2.5,1 3,-1.5 z"
     id="path1184"
     sodipodi:nodetypes="cccccc" />
</svg>
