<?xml version="1.0" encoding="UTF-8" standalone="no"?>
<svg
   width="16"
   height="16"
   version="1.1"
   id="svg4"
   sodipodi:docname="alcohol-use-none-symbolic.svg"
   inkscape:version="1.2 (1:1.2.1+202207142221+cd75a1ee6d)"
   xmlns:inkscape="http://www.inkscape.org/namespaces/inkscape"
   xmlns:sodipodi="http://sodipodi.sourceforge.net/DTD/sodipodi-0.dtd"
   xmlns="http://www.w3.org/2000/svg"
   xmlns:svg="http://www.w3.org/2000/svg">
  <defs
     id="defs8" />
  <sodipodi:namedview
     id="namedview6"
     pagecolor="#ffffff"
     bordercolor="#666666"
     borderopacity="1.0"
     inkscape:showpageshadow="2"
     inkscape:pageopacity="0.0"
     inkscape:pagecheckerboard="0"
     inkscape:deskcolor="#d1d1d1"
     showgrid="false"
     inkscape:zoom="29.5"
     inkscape:cx="8.779661"
     inkscape:cy="9.0169492"
     inkscape:window-width="1920"
     inkscape:window-height="1043"
     inkscape:window-x="0"
     inkscape:window-y="0"
     inkscape:window-maximized="1"
     inkscape:current-layer="svg4">
    <inkscape:grid
       type="xygrid"
       id="grid237" />
    <inkscape:grid
       type="xygrid"
       id="grid239"
       dotted="true"
       spacingx="0.5"
       spacingy="0.5"
       empspacing="10" />
  </sodipodi:namedview>
  <path
     id="path621"
     style="color:#000000;fill:#808080;fill-rule:evenodd;stroke-linecap:round;stroke-linejoin:round;-inkscape-stroke:none;paint-order:stroke fill markers"
     d="M 6.4648438 2 A 0.5 0.5 0 0 0 6.0253906 2.3417969 L 5.0253906 5.3417969 C 4.692709 6.3398419 5.1387622 7.3157961 5.8457031 7.9589844 C 6.1779115 8.2612339 6.5696462 8.5094379 6.9921875 8.6875 L 7.6660156 7.8613281 C 7.2385184 7.7258149 6.8283057 7.4996788 6.5195312 7.21875 C 6.0097024 6.754898 5.7833488 6.231985 5.9746094 5.6582031 L 6.9746094 2.6582031 A 0.5 0.5 0 0 0 6.6582031 2.0253906 A 0.5 0.5 0 0 0 6.4648438 2 z M 10.535156 2 A 0.5 0.5 0 0 0 10.341797 2.0253906 A 0.5 0.5 0 0 0 10.025391 2.6582031 L 10.574219 4.3066406 L 11.324219 3.390625 L 10.974609 2.3417969 A 0.5 0.5 0 0 0 10.535156 2 z M 11.697266 4.5117188 L 10.949219 5.4277344 L 11.025391 5.6582031 C 11.21665 6.231985 10.9903 6.754898 10.480469 7.21875 C 10.060594 7.6007602 9.4527993 7.8828447 8.8691406 7.9707031 L 8.0507812 8.9707031 C 8.1998768 8.9890737 8.3500593 9 8.5 9 C 9.472088 9 10.447356 8.6021726 11.154297 7.9589844 C 11.861237 7.3157961 12.307291 6.3398419 11.974609 5.3417969 L 11.697266 4.5117188 z " />
  <path
     id="path626"
     style="color:#000000;fill:#808080;stroke-linecap:round;-inkscape-stroke:none"
     d="M 8.5 9 A 0.5 0.5 0 0 0 8 9.5 L 8 14.5 A 0.5 0.5 0 0 0 8.5 15 A 0.5 0.5 0 0 0 9 14.5 L 9 9.5 A 0.5 0.5 0 0 0 8.5 9 z " />
  <path
     style="color:#000000;fill:#808080;stroke-linecap:round;-inkscape-stroke:none"
     d="m 6.4998793,14 a 0.5,0.5 0 0 0 -0.5,0.5 0.5,0.5 0 0 0 0.5,0.5 h 3.9999997 a 0.5,0.5 0 0 0 0.5,-0.5 0.5,0.5 0 0 0 -0.5,-0.5 z"
     id="path628" />
  <path
     id="path1184"
     style="opacity:0.5;fill:#808080;stroke:none;stroke-width:1px;stroke-linecap:butt;stroke-linejoin:miter"
     d="M 10.814453 4.0136719 C 8.4868507 4.1346392 8.2507576 5 5.5 5 L 6 7.5 L 7.4785156 8.0917969 L 10.814453 4.0136719 z M 11.5 4.7539062 L 8.4511719 8.4804688 L 8.5 8.5 L 11.5 7 L 11.5 4.7539062 z " />
  <path
     style="color:#000000;fill:#808080;-inkscape-stroke:none"
     d="m 13.086438,2.8164063 -9,11.0000007 0.7734375,0.632812 9.0000005,-11.0000002 z"
     id="path553" />
</svg>
