<?xml version="1.0" encoding="UTF-8" standalone="no"?>
<svg
   version="1.1"
   viewBox="0 0 16 16"
   id="svg4"
   sodipodi:docname="audio-input-microphone-muted-symbolic.svg"
   inkscape:version="1.2 (1:1.2.1+202207142221+cd75a1ee6d)"
   xmlns:inkscape="http://www.inkscape.org/namespaces/inkscape"
   xmlns:sodipodi="http://sodipodi.sourceforge.net/DTD/sodipodi-0.dtd"
   xmlns="http://www.w3.org/2000/svg"
   xmlns:svg="http://www.w3.org/2000/svg">
  <defs
     id="defs8" />
  <sodipodi:namedview
     id="namedview6"
     pagecolor="#ffffff"
     bordercolor="#666666"
     borderopacity="1.0"
     inkscape:showpageshadow="2"
     inkscape:pageopacity="0.0"
     inkscape:pagecheckerboard="0"
     inkscape:deskcolor="#d1d1d1"
     showgrid="false"
     inkscape:zoom="20.85965"
     inkscape:cx="10.810344"
     inkscape:cy="8.9646758"
     inkscape:window-width="1920"
     inkscape:window-height="1043"
     inkscape:window-x="0"
     inkscape:window-y="0"
     inkscape:window-maximized="1"
     inkscape:current-layer="svg4" />
  <path
     d="m5.7176 0.63253c-0.44788 0.42238-0.71954 1.057-0.71954 1.9045v5.9248c0 0.20573 0.014916 0.398 0.045575 0.57867l0.95156-0.95156-1e-7 -5.5519c1e-7 -0.634 0.1778-0.95767 0.4088-1.1767 0.232-0.218 0.58466-0.36046 1.0897-0.36046l0.00138-0.00138c0.505 1e-7 0.8549 0.14146 1.0869 0.36046 0.23201 0.21999 0.40742 0.54505 0.40742 1.1781l-2e-7 2.5577 0.99851-0.99851 3e-7 -1.5578c2e-7 -1.693-1.0852-2.5384-2.4942-2.5384-0.7045 7.0005e-8 -1.3282 0.21015-1.7761 0.63253zm-2.7193 6.3681 1e-7 1.4998c0 0.75221 0.18615 1.4555 0.511 2.0744l0.75406-0.75406a3.482 3.482 0 0 1-0.26516-1.3203v-1.4998zm-1.6462 7.1456 0.70711 0.70711 2.7608-2.7608c0.62214 0.45946 1.3652 0.76705 2.1779 0.85764l1e-7 2.0744a7.576 7.576 0 0 0-2.0012 0.43504l0.00138 0.54 4.9995-1e-6 0.00138-0.54a7.856 7.856 0 0 0-2.0012-0.43504l6e-7 -2.0744c2.252-0.25 4.001-2.1274 4.001-4.4484l-0.0014-1.5012h-0.99989v1.4998a3.482 3.482 0 0 1-2.9997 3.4499l2e-7 -0.45023h-0.99989l-3e-7 0.45023a3.482 3.482 0 0 1-1.4529-0.58281l0.66153-0.66153c0.37315 0.19447 0.81003 0.29555 1.2872 0.29555 1.41 0 2.4942-0.84716 2.4942-2.5412l-6e-7 -1.5357 5.0713-5.0713-0.70711-0.70711-4.3642 4.3642-0.99851 0.99851-2.8201 2.8201-0.7223 0.7223-0.64772 0.64772-0.71677 0.71677zm5.6196-4.2054 2.0177-2.0177v0.53862c0 0.633-0.17541 0.95805-0.40742 1.1781-0.232 0.219-0.58328 0.36184-1.0883 0.36184-0.19614 0-0.37001-0.02171-0.52204-0.060769z"
     fill="#808080"
     opacity=".5"
     id="path2"
     style="opacity:1" />
</svg>
