<?xml version="1.0" encoding="UTF-8" standalone="no"?>
<svg
   height="16"
   width="16"
   version="1.1"
   id="svg1"
   sodipodi:docname="emblem-readonly-symbolic.svg"
   inkscape:version="1.4 (1:1.4+202410161351+e7c3feb100)"
   xmlns:inkscape="http://www.inkscape.org/namespaces/inkscape"
   xmlns:sodipodi="http://sodipodi.sourceforge.net/DTD/sodipodi-0.dtd"
   xmlns="http://www.w3.org/2000/svg"
   xmlns:svg="http://www.w3.org/2000/svg">
  <defs
     id="defs1" />
  <sodipodi:namedview
     id="namedview1"
     pagecolor="#ffffff"
     bordercolor="#000000"
     borderopacity="0.25"
     inkscape:showpageshadow="2"
     inkscape:pageopacity="0.0"
     inkscape:pagecheckerboard="0"
     inkscape:deskcolor="#d1d1d1"
     showgrid="true"
     inkscape:zoom="35.753087"
     inkscape:cx="10.698377"
     inkscape:cy="8.0412638"
     inkscape:window-width="1860"
     inkscape:window-height="1011"
     inkscape:window-x="0"
     inkscape:window-y="0"
     inkscape:window-maximized="1"
     inkscape:current-layer="svg1">
    <inkscape:grid
       id="grid1"
       units="px"
       originx="0"
       originy="0"
       spacingx="1"
       spacingy="1"
       empcolor="#0099e5"
       empopacity="0.30196078"
       color="#0099e5"
       opacity="0.14901961"
       empspacing="5"
       enabled="true"
       visible="true" />
  </sodipodi:namedview>
  <path
     d="m 7,7 h 3 V 5.4628906 C 10,4.6466252 9.3592347,4.0058594 8.5429688,4.0058594 H 8.4570313 C 7.6407657,4.0058594 7,4.6466252 7,5.4628906 Z"
     style="display:inline;fill:#e95420;stroke-opacity:0.25098;enable-background:new"
     id="path5" />
  <path
     d="M 8.5,0 C 4.345,0 1,3.345 1,7.5 1,11.655 4.345,15 8.5,15 12.655,15 16,11.655 16,7.5 16,3.345 12.655,0 8.5,0 Z m -0.042969,3.0058594 h 0.085937 C 9.8959369,3.0058594 11,4.1099224 11,5.4628906 V 7 h 1 v 5 H 5 V 7 H 6 V 5.4628906 C 6,4.1099224 7.1040629,3.0058594 8.4570313,3.0058594 Z"
     style="display:inline;fill:#e95420;stroke-opacity:0.25098;enable-background:new"
     id="path3" />
  <path
     d="M 8,9 V 9.0253906 10.052734 11 H 9 V 10.052734 9.0253906 9 Z"
     style="font-variant-ligatures:none;baseline-shift:baseline;display:inline;overflow:visible;fill:#e95420;stroke-width:4.89898;marker:none;enable-background:accumulate"
     id="path4" />
</svg>
