<?xml version="1.0" encoding="UTF-8" standalone="no"?>
<svg
   xmlns:dc="http://purl.org/dc/elements/1.1/"
   xmlns:cc="http://creativecommons.org/ns#"
   xmlns:rdf="http://www.w3.org/1999/02/22-rdf-syntax-ns#"
   xmlns:svg="http://www.w3.org/2000/svg"
   xmlns="http://www.w3.org/2000/svg"
   xmlns:sodipodi="http://sodipodi.sourceforge.net/DTD/sodipodi-0.dtd"
   xmlns:inkscape="http://www.inkscape.org/namespaces/inkscape"
   height="16"
   width="16"
   version="1.1"
   id="svg1199"
   sodipodi:docname="network-server-symbolic.svg"
   inkscape:version="1.0.1 (3bc2e813f5, 2020-09-07)">
  <metadata
     id="metadata1205">
    <rdf:RDF>
      <cc:Work
         rdf:about="">
        <dc:format>image/svg+xml</dc:format>
        <dc:type
           rdf:resource="http://purl.org/dc/dcmitype/StillImage" />
        <dc:title></dc:title>
      </cc:Work>
    </rdf:RDF>
  </metadata>
  <defs
     id="defs1203" />
  <sodipodi:namedview
     pagecolor="#ffffff"
     bordercolor="#666666"
     borderopacity="1"
     objecttolerance="10"
     gridtolerance="10"
     guidetolerance="10"
     inkscape:pageopacity="0"
     inkscape:pageshadow="2"
     inkscape:window-width="1294"
     inkscape:window-height="704"
     id="namedview1201"
     showgrid="false"
     inkscape:zoom="1"
     inkscape:cx="8"
     inkscape:cy="8"
     inkscape:window-x="72"
     inkscape:window-y="27"
     inkscape:window-maximized="1"
     inkscape:current-layer="svg1199">
    <inkscape:grid
       type="xygrid"
       id="grid2431" />
  </sodipodi:namedview>
  <path
     id="path1197"
     style="line-height:normal;text-indent:0;text-align:start;text-decoration:none;text-decoration-line:none;text-decoration-style:solid;text-decoration-color:#000000;text-transform:none;white-space:normal;isolation:auto;mix-blend-mode:normal;solid-color:#000000;solid-opacity:1;fill:#808080;marker:none"
     d="M 4,0 C 3.342,0 2.8208125,0.05960938 2.3828125,0.22460938 1.9608757,0.37598639 1.6069147,0.67314739 1.3847656,1.0625 0.9687656,1.8145 1.015,2.7361406 1,3.9941406 V 6 v 4 2.005859 c 0.015,1.258 -0.031234,2.179641 0.3847656,2.931641 0.2221491,0.389353 0.5761101,0.686514 0.9980469,0.837891 C 2.8208125,15.940391 3.342,16 4,16 h 7 c 0.657,0 1.179187,-0.06061 1.617188,-0.224609 0.421935,-0.151378 0.775897,-0.448539 0.998046,-0.837891 C 14.03023,14.1845 13.985,13.263859 14,12.005859 V 10 6 3.9941406 C 13.985,2.7361406 14.030234,1.8155 13.615234,1.0625 13.393085,0.67314755 13.039123,0.37598658 12.617188,0.22460938 12.179187,0.06060938 11.657,0 11,0 Z m 0,1 h 7 c 0.592,0 1.005625,0.063156 1.265625,0.1601562 0.26,0.098 0.373609,0.2037188 0.474609,0.3867188 C 12.942234,1.912875 12.985,2.74 13,4 v 2 4 2 c -0.015,1.26 -0.05777,2.087125 -0.259766,2.453125 -0.101,0.183 -0.214609,0.288719 -0.474609,0.386719 C 12.005625,14.93684 11.592,15 11,15 H 4 C 3.408,15 2.994375,14.93684 2.734375,14.839844 2.474375,14.742844 2.3597656,14.637125 2.2597656,14.453125 2.057766,14.087125 2.015,13.26 2,12 V 10 6 4 C 2.015,2.74 2.0577656,1.912875 2.2597656,1.546875 2.3597656,1.362875 2.474375,1.2571563 2.734375,1.1601562 2.994375,1.0631563 3.408,1 4,1 Z"
     sodipodi:nodetypes="sccccccccssccccccccsssscsccccscsssccccccss" />
  <circle
     style="fill:#808080;stroke-width:8;stroke-linecap:round;stroke-linejoin:round"
     id="path3057"
     cx="4"
     cy="4"
     r="1" />
  <circle
     style="fill:#808080;stroke-width:8;stroke-linecap:round;stroke-linejoin:round"
     id="path3057-6"
     cx="4"
     cy="8"
     r="1" />
  <circle
     style="fill:#808080;stroke-width:8;stroke-linecap:round;stroke-linejoin:round"
     id="path3057-7"
     cx="4"
     cy="12"
     r="1" />
  <circle
     style="fill:#808080;stroke-width:8;stroke-linecap:round;stroke-linejoin:round"
     id="path3080"
     cx="6.5"
     cy="4.5"
     r="0.5" />
  <circle
     style="fill:#808080;stroke-width:8;stroke-linecap:round;stroke-linejoin:round"
     id="path3082"
     cx="8.5"
     cy="4.5"
     r="0.5" />
  <circle
     style="fill:#808080;stroke-width:8;stroke-linecap:round;stroke-linejoin:round"
     id="path3080-5"
     cx="6.5"
     cy="8.5"
     r="0.5" />
  <circle
     style="fill:#808080;stroke-width:8;stroke-linecap:round;stroke-linejoin:round"
     id="path3082-3"
     cx="8.5"
     cy="8.5"
     r="0.5" />
  <circle
     style="fill:#808080;stroke-width:8;stroke-linecap:round;stroke-linejoin:round"
     id="path3080-56"
     cx="6.5"
     cy="12.5"
     r="0.5" />
  <circle
     style="fill:#808080;stroke-width:8;stroke-linecap:round;stroke-linejoin:round"
     id="path3082-2"
     cx="8.5"
     cy="12.5"
     r="0.5" />
</svg>
