<svg version="1.1" viewBox="0 0 16 16" xmlns="http://www.w3.org/2000/svg" xmlns:osb="http://www.openswatchbook.org/uri/2009/osb">
 <g transform="matrix(.88904 0 0 .88904 -1.779 -1.779)" fill="#808080">
  <path d="m11 2.001c-4.97 0-8.999 4.029-8.999 8.999s4.029 8.998 8.999 8.998c4.971 0 8.998-4.027 8.998-8.998s-4.027-8.999-8.998-8.999zm2.092 3.055c0.334-0.579 1.074-0.777 1.652-0.443 0.579 0.334 0.777 1.074 0.443 1.653s-1.074 0.777-1.653 0.443-0.776-1.074-0.442-1.653zm-8.2 7.155c-0.668 0-1.21-0.542-1.21-1.21 0-0.669 0.542-1.21 1.21-1.21s1.21 0.542 1.21 1.21c1e-3 0.667-0.541 1.21-1.21 1.21zm1.073 0.107c0.383-0.312 0.627-0.786 0.627-1.318s-0.244-1.007-0.626-1.318c0.326-1.267 1.115-2.349 2.174-3.057l0.885 1.482c-0.909 0.641-1.504 1.697-1.504 2.893 0 1.197 0.594 2.254 1.503 2.893l-0.884 1.482c-1.059-0.707-1.848-1.789-2.175-3.057zm8.779 5.069c-0.578 0.334-1.318 0.137-1.652-0.443-0.334-0.578-0.137-1.318 0.442-1.652s1.319-0.137 1.653 0.443c0.334 0.577 0.136 1.318-0.443 1.652zm-3e-3 -2.637c-0.46-0.174-0.992-0.148-1.452 0.117-0.459 0.266-0.748 0.713-0.827 1.199-0.447 0.125-0.918 0.191-1.405 0.191-0.837 0-1.628-0.195-2.331-0.543l0.841-1.508c0.453 0.211 0.958 0.328 1.49 0.328 1.847 0 3.363-1.416 3.521-3.221l1.725 0.025c-0.084 1.334-0.666 2.531-1.562 3.412zm-0.163-4.063c-0.158-1.806-1.674-3.222-3.521-3.222-0.532 0-1.037 0.118-1.49 0.329l-0.84-1.507c0.703-0.348 1.494-0.545 2.331-0.545 0.487 0 0.958 0.068 1.405 0.191 0.079 0.486 0.368 0.935 0.827 1.2 0.46 0.266 0.992 0.292 1.451 0.118 0.896 0.88 1.479 2.077 1.562 3.411z" fill="#808080"/>
 </g>
</svg>
