<!DOCTYPE svg  PUBLIC '-//W3C//DTD SVG 1.1//EN'  'http://www.w3.org/Graphics/SVG/1.1/DTD/svg11.dtd'>
<svg clip-rule="evenodd" fill-rule="evenodd" stroke-linecap="round" stroke-linejoin="round" stroke-miterlimit="1.5" version="1.1" viewBox="0 0 16 16" xml:space="preserve" xmlns="http://www.w3.org/2000/svg"><g fill="none" stroke="#808080" stroke-width="1px">
    <path d="m14.5 2c0-0.828-0.672-1.5-1.5-1.5h-10c-0.828 0-1.5 0.672-1.5 1.5v12c0 0.828 0.672 1.5 1.5 1.5h10c0.828 0 1.5-0.672 1.5-1.5v-12z"/>
    <path d="m13 12.5h-5c-2.484 0-4.5-2.016-4.5-4.5s2.016-4.5 4.5-4.5" stroke-linecap="butt"/>
    <path d="m13 10.5h-5c-1.38 0-2.5-1.12-2.5-2.5s1.12-2.5 2.5-2.5c0.402 0 0.782 0.095 1.118 0.264" stroke-linecap="butt"/>
</g></svg>
