<!DOCTYPE svg  PUBLIC '-//W3C//DTD SVG 1.1//EN'  'http://www.w3.org/Graphics/SVG/1.1/DTD/svg11.dtd'>
<svg clip-rule="evenodd" fill-rule="evenodd" stroke-linecap="round" stroke-linejoin="round" stroke-miterlimit="1.5" version="1.1" viewBox="0 0 16 16" xml:space="preserve" xmlns="http://www.w3.org/2000/svg">
    
        <path d="m14.5 2c0-0.828-0.672-1.5-1.5-1.5h-10c-0.828 0-1.5 0.672-1.5 1.5v12c0 0.828 0.672 1.5 1.5 1.5h10c0.828 0 1.5-0.672 1.5-1.5v-12z" fill="none" stroke="#808080" stroke-width="1px"/>
        <path d="m8 3c2.76 0 5 2.24 5 5s-2.24 5-5 5-5-2.24-5-5 2.24-5 5-5zm0 3c1.104 0 2 0.896 2 2s-0.896 2-2 2-2-0.896-2-2 0.896-2 2-2z" fill="#808080" fill-opacity=".5"/>
        <path d="m8 6.5c-0.828 0-1.5 0.672-1.5 1.5s0.672 1.5 1.5 1.5 1.5-0.672 1.5-1.5-0.672-1.5-1.5-1.5zm0 1c0.276 0 0.5 0.224 0.5 0.5s-0.224 0.5-0.5 0.5-0.5-0.224-0.5-0.5 0.224-0.5 0.5-0.5z" fill="#808080" fill-opacity=".5"/><g fill="#2e3436" fill-rule="nonzero">
        <path d="m8 3c-2.743 0-5 2.257-5 5h5v-5zm0 5v5c2.743 0 5-2.257 5-5h-5z" fill-opacity=".24"/>
        <path d="M10.873,5.127C9.297,3.552 6.703,3.552 5.127,5.127L8,8L10.873,5.127ZM8,8L5.127,10.873C6.703,12.448 9.297,12.448 10.873,10.873L8,8Z" fill-opacity=".25"/>
        <path d="m6.721 3.49c-0.028 0.01-0.056 0.019-0.085 0.029 0.075-0.022 0.151-0.043 0.227-0.061-0.047 0.01-0.095 0.021-0.142 0.032zm0.369-0.085c0.077-0.014 0.154-0.027 0.231-0.038-0.077 0.011-0.154 0.024-0.231 0.038zm-0.675 0.189c-0.074 0.026-0.147 0.054-0.219 0.084 0.072-0.03 0.145-0.058 0.219-0.084zm1.139-0.257c0.078-7e-3 0.155-0.012 0.233-0.015-0.078 3e-3 -0.155 8e-3 -0.233 0.015zm-1.571 0.437c-0.071 0.034-0.141 0.069-0.21 0.106 0.069-0.037 0.139-0.072 0.21-0.106zm2.039-0.458c0.078 1e-3 0.156 4e-3 0.234 9e-3 -0.078-5e-3 -0.156-8e-3 -0.234-9e-3zm-2.45 0.68c-0.067 0.041-0.134 0.083-0.199 0.127 0.065-0.044 0.132-0.086 0.199-0.127zm2.917-0.654c0.077 8e-3 0.155 0.019 0.232 0.031-0.077-0.012-0.155-0.023-0.232-0.031zm-3.305 0.917c-0.063 0.047-0.125 0.095-0.185 0.145 0.06-0.05 0.122-0.098 0.185-0.145zm3.768-0.845c0.076 0.016 0.152 0.034 0.227 0.054-0.075-0.02-0.151-0.038-0.227-0.054zm-4.195 1.205c-0.017 0.016-0.035 0.033-0.053 0.049 0.018-0.016 0.036-0.033 0.053-0.049zm-0.07 0.068c-0.29 0.289-0.541 0.615-0.746 0.969l4.06 2.344-3.314-3.313zm3.314 3.313 3.313 3.313c0.29-0.289 0.541-0.615 0.746-0.969l-4.059-2.344zm1.404-4.468c0.074 0.023 0.148 0.049 0.22 0.076-0.072-0.027-0.146-0.053-0.22-0.076zm0.439 0.162c0.072 0.031 0.143 0.064 0.213 0.099-0.07-0.035-0.141-0.068-0.213-0.099zm0.421 0.206c0.025 0.015 0.051 0.03 0.076 0.045l3e-3 -5e-3c-0.026-0.014-0.053-0.027-0.08-0.041l1e-3 1e-3zm-4.605 8.155-3e-3 5e-3c0.026 0.013 0.053 0.027 0.08 0.04-0.026-0.015-0.052-0.03-0.077-0.045zm0.284 0.152c0.071 0.035 0.141 0.068 0.213 0.099-0.072-0.031-0.142-0.064-0.213-0.099zm0.432 0.184c0.072 0.028 0.146 0.053 0.22 0.077-0.074-0.024-0.148-0.049-0.22-0.077zm4.921-1.059c-0.018 0.016-0.036 0.033-0.053 0.049 0.017-0.016 0.035-0.033 0.053-0.049zm-4.475 1.2c0.075 0.02 0.151 0.038 0.227 0.054-0.076-0.016-0.152-0.034-0.227-0.054zm4.18-0.937c-0.06 0.05-0.122 0.099-0.185 0.146 0.063-0.047 0.125-0.096 0.185-0.146zm-3.722 1.032c0.077 0.012 0.155 0.023 0.232 0.031-0.077-8e-3 -0.155-0.019-0.232-0.031zm3.348-0.75c-0.065 0.044-0.132 0.086-0.199 0.126 0.067-0.04 0.134-0.082 0.199-0.126zm-2.883 0.798c0.078 5e-3 0.156 8e-3 0.234 9e-3 -0.078-1e-3 -0.156-4e-3 -0.234-9e-3zm2.483-0.555c-0.069 0.037-0.139 0.072-0.21 0.106 0.071-0.034 0.141-0.069 0.21-0.106zm-2.014 0.558c0.078-4e-3 0.155-9e-3 0.233-0.016-0.078 7e-3 -0.155 0.012-0.233 0.016zm1.591-0.356c-0.072 0.03-0.145 0.058-0.219 0.084 0.074-0.026 0.147-0.054 0.219-0.084zm-1.125 0.311c0.077-0.011 0.154-0.024 0.231-0.039-0.077 0.015-0.154 0.028-0.231 0.039zm0.685-0.152c-0.075 0.022-0.151 0.042-0.227 0.061 0.076-0.019 0.152-0.039 0.227-0.061z" fill-opacity=".25"/>
    </g>
</svg>
