<!DOCTYPE svg  PUBLIC '-//W3C//DTD SVG 1.1//EN'  'http://www.w3.org/Graphics/SVG/1.1/DTD/svg11.dtd'>
<svg clip-rule="evenodd" fill-rule="evenodd" stroke-linecap="round" stroke-linejoin="round" stroke-miterlimit="1.5" version="1.1" viewBox="0 0 16 16" xml:space="preserve" xmlns="http://www.w3.org/2000/svg">
    <g fill="none" stroke="#808080" stroke-width="1px">
        <path d="m1.5 2c0-0.398 0.158-0.779 0.439-1.061 0.282-0.281 0.663-0.439 1.061-0.439h7.5v4h4v9.5c0 0.398-0.158 0.779-0.439 1.061-0.282 0.281-0.663 0.439-1.061 0.439h-10c-0.398 0-0.779-0.158-1.061-0.439-0.281-0.282-0.439-0.663-0.439-1.061v-12z"/>
        <path d="m10.5 0.5v4h4l-4-4z"/>
    </g>
    <path d="m3.8 12.2c2.177 2.222 6.732-8.702 3.714-8.704-3.757-3e-3 4.042 9.649 4.963 6.284 0.884-3.23-10.976 0.073-8.677 2.42z" fill="none" stroke="#808080" stroke-width="1px"/>
</svg>
