<!DOCTYPE svg  PUBLIC '-//W3C//DTD SVG 1.1//EN'  'http://www.w3.org/Graphics/SVG/1.1/DTD/svg11.dtd'>
<svg clip-rule="evenodd" fill-rule="evenodd" stroke-linecap="round" stroke-linejoin="round" stroke-miterlimit="1.5" version="1.1" viewBox="0 0 16 16" xml:space="preserve" xmlns="http://www.w3.org/2000/svg">
    <path d="m14.5 2c0-0.828-0.672-1.5-1.5-1.5h-10c-0.828 0-1.5 0.672-1.5 1.5v12c0 0.828 0.672 1.5 1.5 1.5h10c0.828 0 1.5-0.672 1.5-1.5v-12z" fill="none" stroke="#808080" stroke-width="1px"/>
    <path d="m9 13.5c-2.096-0.03-5.543-2.285-5.5-6 0.034-2.891 2.267-4.972 5-5 1.989-0.02 3.937 1.453 4 3.5 0.064 2.069-1.242 3.516-3.5 3.5-1.602-0.012-2.532-1.301-2.5-2.5 0.022-0.842 0.636-1.496 1.5-1.5 0.76-4e-3 1.506 0.629 1.5 1.5" fill="none" stroke="#808080" stroke-width="1px"/>
</svg>
