<svg version="1.1" viewBox="0 0 16 16" xmlns="http://www.w3.org/2000/svg">
 <g fill="#808080">
  <path d="m3.9941 1c-1.258 0.015-2.1796-0.030234-2.9316 0.38477-0.38935 0.22215-0.68651 0.57611-0.83789 0.99805-0.165 0.439-0.22461 0.96019-0.22461 1.6172v8c0 0.658 0.059609 1.1792 0.22461 1.6172 0.164 0.439 0.46089 0.79005 0.83789 0.99805 0.752 0.416 1.6736 0.36977 2.9316 0.38477h0.0058594c-0.00121-0.33393-0.00624-0.66686 0-1-1.259-0.015-2.0901-0.05972-2.4551-0.26172-0.183-0.1-0.28677-0.21266-0.38477-0.47266-0.097-0.26-0.16016-0.67362-0.16016-1.2656v-8c0-0.592 0.063156-1.0056 0.16016-1.2656 0.098-0.26 0.20177-0.37166 0.38477-0.47266 0.365-0.202 1.1951-0.24672 2.4551-0.26172h8c1.259 0.015 2.0871 0.059719 2.4531 0.26172 0.184 0.101 0.28972 0.21366 0.38672 0.47266 0.097 0.26 0.16016 0.67362 0.16016 1.2656v8c0 0.592-0.06316 1.0056-0.16016 1.2656-0.098 0.26-0.20272 0.37166-0.38672 0.47266-0.29935 0.16522-1.5526 0.21565-2.4531 0.24024v1.0078c0.953-0.0076 2.3125-0.02665 2.9375-0.37109 0.38935-0.22215 0.68651-0.57611 0.83789-0.99805 0.164-0.438 0.22461-0.96019 0.22461-1.6172v-8c0-0.658-0.059609-1.1782-0.22461-1.6172-0.15138-0.42194-0.44854-0.7759-0.83789-0.99805-0.753-0.416-1.6736-0.36977-2.9316-0.38477h-7.0059z" style="font-feature-settings:normal;font-variant-alternates:normal;font-variant-caps:normal;font-variant-ligatures:normal;font-variant-numeric:normal;font-variant-position:normal;isolation:auto;mix-blend-mode:normal;shape-padding:0;text-decoration-color:#000000;text-decoration-line:none;text-decoration-style:solid;text-indent:0;text-orientation:mixed;text-transform:none"/>
  <path d="m7.455 3-0.58212 0.75121-0.92473-0.21048-0.25098 0.91501-0.9353 0.1603 0.11882 0.94145-0.80315 0.50638 0.47116 0.8243-0.54868 0.77501 0.74946 0.58128-0.20871 0.92557 0.91503 0.25012 0.16027 0.93526 0.36635-0.046635v4.6912l2.0176-1.5114 2 1.5114v-4.691l0.35 0.046 0.07035-0.69202 0.93526-0.16115-0.1197-0.94145 0.80315-0.50545-0.4703-0.82522 0.54778-0.77412-0.74946-0.5821 0.2096-0.92473-0.91502-0.25099-0.1603-0.93443-0.94146 0.11882-0.50637-0.80317-0.82431 0.47032zm0.54502 1.9419c1.2451-1.6e-6 2.3128 1.0094 2.3128 2.2545-5e-6 1.2451-1.0677 2.2545-2.3128 2.2545-1.2451 8e-7 -2.1963-1.0094-2.1963-2.2545 5.4e-6 -1.2451 0.95114-2.2545 2.1963-2.2545z" color="#4d4d4d" color-rendering="auto" enable-background="new" fill-rule="evenodd" image-rendering="auto" shape-rendering="auto" solid-color="#000000" stroke-width=".45091" style="isolation:auto;mix-blend-mode:normal"/>
 </g>
</svg>
