<!DOCTYPE svg  PUBLIC '-//W3C//DTD SVG 1.1//EN'  'http://www.w3.org/Graphics/SVG/1.1/DTD/svg11.dtd'>
<svg clip-rule="evenodd" fill-rule="evenodd" stroke-linecap="round" stroke-linejoin="round" stroke-miterlimit="1.5" version="1.1" viewBox="0 0 16 16" xml:space="preserve" xmlns="http://www.w3.org/2000/svg">
    <path d="m14.5 2c0-0.828-0.672-1.5-1.5-1.5h-10c-0.828 0-1.5 0.672-1.5 1.5v12c0 0.828 0.672 1.5 1.5 1.5h10c0.828 0 1.5-0.672 1.5-1.5v-12z" fill="none" stroke="#808080" stroke-width="1px"/>
    <path d="m5 14v-1h2v-1h-2v-1h2v-3.171c-1.165-0.412-2-1.524-2-2.829 0-1.656 1.344-3 3-3s3 1.344 3 3c0 1.305-0.835 2.417-2 2.829v6.171h-4zm4.5-9c0 0.828-0.672 1.5-1.5 1.5s-1.5-0.672-1.5-1.5 0.672-1.5 1.5-1.5 1.5 0.672 1.5 1.5z" fill="#808080"/>
</svg>
