<!DOCTYPE svg  PUBLIC '-//W3C//DTD SVG 1.1//EN'  'http://www.w3.org/Graphics/SVG/1.1/DTD/svg11.dtd'>
<svg clip-rule="evenodd" fill-rule="evenodd" stroke-linecap="round" stroke-linejoin="round" stroke-miterlimit="1.5" version="1.1" viewBox="0 0 16 16" xml:space="preserve" xmlns="http://www.w3.org/2000/svg">
    <g fill="none" stroke="#808080" stroke-width="1px">
        <path d="m1.5 2c0-0.398 0.158-0.779 0.439-1.061 0.282-0.281 0.663-0.439 1.061-0.439h7.5v4h4v9.5c0 0.398-0.158 0.779-0.439 1.061-0.282 0.281-0.663 0.439-1.061 0.439h-10c-0.398 0-0.779-0.158-1.061-0.439-0.281-0.282-0.439-0.663-0.439-1.061v-12z"/>
        <path d="m10.5 0.5v4h4l-4-4z"/>
    </g>
    <g fill="#808080">
        <path d="m13 9.5s-1-1.5-2-0.5c1-1-0.5-2-0.5-2s-0.5 0-0.5 2h-6.474c-0.142 0-0.277 0.06-0.372 0.165-0.095 0.106-0.141 0.247-0.126 0.388 0.189 1.094 0.904 3.447 3.972 3.447 4 0 3.968-3 4-3 2 0 2-0.5 2-0.5z" fill-rule="nonzero"/>
        <rect x="4" y="5" width="1" height="1"/>
        <rect x="6" y="5" width="1" height="1"/>
        <rect x="6" y="3" width="1" height="1"/>
        <rect x="4" y="7" width="1" height="1"/>
        <rect x="6" y="7" width="1" height="1"/>
        <rect x="8" y="7" width="1" height="1"/>
    </g>
</svg>
