<!DOCTYPE svg  PUBLIC '-//W3C//DTD SVG 1.1//EN'  'http://www.w3.org/Graphics/SVG/1.1/DTD/svg11.dtd'>
<svg clip-rule="evenodd" fill-rule="evenodd" stroke-linecap="round" stroke-linejoin="round" stroke-miterlimit="1.5" version="1.1" viewBox="0 0 16 16" xml:space="preserve" xmlns="http://www.w3.org/2000/svg">
    <g fill="none" stroke="#808080" stroke-width="1px">
        <path d="m1.5 2c0-0.398 0.158-0.779 0.439-1.061 0.282-0.281 0.663-0.439 1.061-0.439h7.5v4h4v9.5c0 0.398-0.158 0.779-0.439 1.061-0.282 0.281-0.663 0.439-1.061 0.439h-10c-0.398 0-0.779-0.158-1.061-0.439-0.281-0.282-0.439-0.663-0.439-1.061v-12z"/>
        <path d="m10.5 0.5v4h4l-4-4z"/>
    </g>
    <path d="m12 5.994-8 0.012v0.99s1 4e-3 1 2.004v2c0 2-0.979 2.008-0.979 2.008h-0.018v0.998l3.997-6e-3v-1h-1s-1 0-1-2h1c2 0 2 1 2 1h1v-3h-1s0 1-2 1h-1v-3h3c2 0 2 0 2 2l1-6e-3v-3z" fill="#808080" fill-rule="nonzero"/>
</svg>
