<!DOCTYPE svg  PUBLIC '-//W3C//DTD SVG 1.1//EN'  'http://www.w3.org/Graphics/SVG/1.1/DTD/svg11.dtd'>
<svg clip-rule="evenodd" fill-rule="evenodd" stroke-linecap="round" stroke-linejoin="round" stroke-miterlimit="1.5" version="1.1" viewBox="0 0 16 16" xml:space="preserve" xmlns="http://www.w3.org/2000/svg"><g fill="none" stroke="#808080" stroke-width="1px">
    <path d="m4.5 12.5h6"/>
    <path d="m10.5 10.5h1"/>
    <path d="m10.5 8.5h1"/>
    </g><g fill="none" stroke="#808080" stroke-width="1px">
        <path d="m4.5 10.5 2-4 2 4"/>
        <path d="m5 9.5h3"/>
    </g>
    <g fill="none" stroke="#808080" stroke-width="1px">
        <path d="m1.5 2c0-0.398 0.158-0.779 0.439-1.061 0.282-0.281 0.663-0.439 1.061-0.439h7.5v4h4v9.5c0 0.398-0.158 0.779-0.439 1.061-0.282 0.281-0.663 0.439-1.061 0.439h-10c-0.398 0-0.779-0.158-1.061-0.439-0.281-0.282-0.439-0.663-0.439-1.061v-12z"/>
        <path d="m10.5 0.5v4h4l-4-4z"/>
    </g>
</svg>
