<!DOCTYPE svg  PUBLIC '-//W3C//DTD SVG 1.1//EN'  'http://www.w3.org/Graphics/SVG/1.1/DTD/svg11.dtd'>
<svg clip-rule="evenodd" fill-rule="evenodd" stroke-linecap="round" stroke-linejoin="round" stroke-miterlimit="1.5" version="1.1" viewBox="0 0 16 16" xml:space="preserve" xmlns="http://www.w3.org/2000/svg">
    <path d="m7 14c-2 0-2-1-2-2s0-1-1-1.072v-0.928c1 0 1 0 1-1 0-1.047 0-2 2-2h1v3c0 1 0 1 1 1v1h-1c-1 0-1 0-1-1v-3c-1 0-1 0-1 1s0 1.5-1 1.5c1 0 1 0.5 1 1.5s0 1 1 1v1zm2 0v-1c1 0 1 0 0.995-0.997-6e-3 -1.003 5e-3 -1.503 1.005-1.503-1 0-1-0.5-1.005-1.493-6e-3 -1.007 5e-3 -1.007-0.995-1.007v-1c2 0 2 1 2 2s0 1 1 1v1c-1 0-1 0-1 1s0 2-2 2z" fill="#808080" fill-rule="nonzero"/>
    <g fill="none" stroke="#808080" stroke-width="1px">
        <path d="m1.5 2c0-0.398 0.158-0.779 0.439-1.061 0.282-0.281 0.663-0.439 1.061-0.439h7.5v4h4v9.5c0 0.398-0.158 0.779-0.439 1.061-0.282 0.281-0.663 0.439-1.061 0.439h-10c-0.398 0-0.779-0.158-1.061-0.439-0.281-0.282-0.439-0.663-0.439-1.061v-12z"/>
        <path d="m10.5 0.5v4h4l-4-4z"/>
    </g>
</svg>
