<?xml version="1.0" encoding="UTF-8" standalone="no"?>
<svg
   xmlns:dc="http://purl.org/dc/elements/1.1/"
   xmlns:cc="http://creativecommons.org/ns#"
   xmlns:rdf="http://www.w3.org/1999/02/22-rdf-syntax-ns#"
   xmlns:svg="http://www.w3.org/2000/svg"
   xmlns="http://www.w3.org/2000/svg"
   xmlns:sodipodi="http://sodipodi.sourceforge.net/DTD/sodipodi-0.dtd"
   xmlns:inkscape="http://www.inkscape.org/namespaces/inkscape"
   height="16"
   width="16"
   version="1.1"
   id="svg4"
   sodipodi:docname="text-x-generic-symbolic.svg">
  <metadata
     id="metadata10">
    <rdf:RDF>
      <cc:Work
         rdf:about="">
        <dc:format>image/svg+xml</dc:format>
        <dc:type
           rdf:resource="http://purl.org/dc/dcmitype/StillImage" />
      </cc:Work>
    </rdf:RDF>
  </metadata>
  <defs
     id="defs8" />
  <sodipodi:namedview
     pagecolor="#ffffff"
     bordercolor="#666666"
     borderopacity="1"
     objecttolerance="10"
     gridtolerance="10"
     guidetolerance="10"
     inkscape:pageopacity="0"
     inkscape:pageshadow="2"
     inkscape:window-width="640"
     inkscape:window-height="480"
     id="namedview6" />
  <path
     d="M4.994 16c-1.258-.015-2.179.03-2.931-.385a1.88 1.88 0 01-.838-.998C1.06 14.18 1 13.657 1 13V3c0-.658.06-1.179.225-1.617.164-.439.461-.789.838-.996C2.815-.028 3.736.015 4.994 0H10.75L15 4.25V13c0 .658-.06 1.179-.225 1.617a1.875 1.875 0 01-.837.996c-.753.415-1.674.372-2.932.387H4.998zM5 15h6c1.259-.015 2.09-.06 2.455-.262.184-.1.287-.213.385-.472.097-.26.16-.674.16-1.266V5h-4V1H5c-1.259.015-2.09.06-2.455.262-.183.1-.287.213-.385.472C2.063 1.994 2 2.408 2 3v10c0 .592.063 1.006.16 1.266.098.26.202.371.385.472.366.202 1.196.247 2.455.262zm-1-4v-1h8v1zm0-2V8h8v1zm0-2V6h8v1zm0 6v-1h4v1z"
     style="marker:none"
     color="#000"
     overflow="visible"
     fill="gray"
     id="path2" />
</svg>
