<svg height="16" width="16" xmlns="http://www.w3.org/2000/svg">
    <path d="M6 0H5v1h1zm0 1v1H5V1c-1.258.015-2.179-.03-2.931.385-.377.208-.676.56-.84.998-.165.439-.223.96-.223 1.617v8c0 .658.058 1.179.223 1.617.164.44.463.789.84.997.752.415 1.673.372 2.931.386h3.004v-1H5c-1.26-.014-2.087-.06-2.453-.261-.183-.102-.289-.213-.387-.473C2.062 13.006 2 12.593 2 12V7c0-.592.063-1.005.16-1.265.098-.26.204-.372.387-.473.367-.202 1.196-.247 2.46-.262H11c1.26.015 2.087.06 2.453.262.184.101.29.213.387.473C13.938 5.995 14 7 14 7v2h.006v3c0 .593-.062 1.006-.16 1.266s-.203.371-.387.473c-.366.202-1.193.247-2.453.261h-3v1h3c1.258-.014 2.179.029 2.932-.386.376-.208.675-.558.84-.997.164-.438.222-.96.222-1.617V4c0-.657-.06-1.178-.224-1.617a1.88 1.88 0 00-.838-.998c-.753-.415-1.674-.37-2.932-.385v1h-1V1H11V0h-1v1z" style="line-height:normal;text-indent:0;text-align:start;text-decoration-line:none;text-decoration-style:solid;text-decoration-color:#000;text-transform:none;white-space:normal;isolation:auto;mix-blend-mode:normal;solid-color:#000;solid-opacity:1;marker:none" color="#000" font-weight="400" font-family="sans-serif" overflow="visible" fill="gray"/>
</svg>
