<?xml version="1.0" encoding="UTF-8" standalone="no"?>
<svg
   xmlns:dc="http://purl.org/dc/elements/1.1/"
   xmlns:cc="http://creativecommons.org/ns#"
   xmlns:rdf="http://www.w3.org/1999/02/22-rdf-syntax-ns#"
   xmlns:svg="http://www.w3.org/2000/svg"
   xmlns="http://www.w3.org/2000/svg"
   xmlns:sodipodi="http://sodipodi.sourceforge.net/DTD/sodipodi-0.dtd"
   xmlns:inkscape="http://www.inkscape.org/namespaces/inkscape"
   width="16"
   height="16"
   version="1.1"
   id="svg8"
   sodipodi:docname="face-angel-symbolic.svg"
   inkscape:version="1.0.2 (e86c870879, 2021-01-15)">
  <metadata
     id="metadata14">
    <rdf:RDF>
      <cc:Work
         rdf:about="">
        <dc:format>image/svg+xml</dc:format>
        <dc:type
           rdf:resource="http://purl.org/dc/dcmitype/StillImage" />
      </cc:Work>
    </rdf:RDF>
  </metadata>
  <defs
     id="defs12" />
  <sodipodi:namedview
     pagecolor="#ffffff"
     bordercolor="#666666"
     borderopacity="1"
     objecttolerance="10"
     gridtolerance="10"
     guidetolerance="10"
     inkscape:pageopacity="0"
     inkscape:pageshadow="2"
     inkscape:window-width="1920"
     inkscape:window-height="1016"
     id="namedview10"
     showgrid="true"
     inkscape:zoom="13.357689"
     inkscape:cx="8.3956513"
     inkscape:cy="4.1773537"
     inkscape:window-x="0"
     inkscape:window-y="27"
     inkscape:window-maximized="1"
     inkscape:current-layer="svg8">
    <inkscape:grid
       type="xygrid"
       id="grid1440" />
  </sodipodi:namedview>
  <path
     id="path987"
     style="display:inline;fill:#808080;fill-opacity:1;stroke:none;stroke-width:1"
     d="m 3,9.9999997 v 0.6250003 c 0,0.08624 0.035161,0.245677 0.089844,0.429688 1.8112356,1.205811 6.7618551,1.224989 8.716797,0.06055 0.102272,-0.270148 0.159008,-0.491793 0.166015,-0.583984 l 0.02734,-0.53125 c -1.83404,1.30345 -7.2056068,1.30345 -8.9999998,0 z" />
  <path
     style="display:inline;fill:#808080;fill-opacity:1;stroke:none"
     d="m 10.000021,5.999625 c 0.55833,0 1,0.47292 1,1.03125 v 0.96875 c 0,0.5583299 -0.44167,1 -1,1 -0.5583305,0 -1.0000005,-0.4416701 -1.0000005,-1 v -0.96875 c 0,-0.55833 0.44167,-1.03125 1.0000005,-1.03125 z"
     id="path985" />
  <path
     style="display:inline;fill:#808080;fill-opacity:1;stroke:none"
     d="m 4.96875,5.984 c 0.55833,0 1.03125,0.47292 1.03125,1.03125 v 0.96875 c 0,0.5583299 -0.47292,1 -1.03125,1 -0.55833,0 -1,-0.4416701 -1,-1 v -0.96875 c 0,-0.55833 0.44167,-1.03125 1,-1.03125 z"
     id="path983" />
  <path
     id="path993"
     style="fill:#808080;fill-opacity:1;fill-rule:evenodd;stroke:none;stroke-width:0.75;stroke-linecap:square;stroke-linejoin:round;stroke-opacity:1"
     d="M 14.263672 5.2597656 C 13.973757 5.3817028 13.65377 5.4909321 13.308594 5.5859375 A 6.5 6.5 0 0 1 14 8.5 A 6.5 6.5 0 0 1 7.5 15 A 6.5 6.5 0 0 1 1 8.5 A 6.5 6.5 0 0 1 1.6914062 5.5859375 C 1.3465747 5.4910269 1.0260142 5.3835095 0.73632812 5.2617188 A 7.5 7.5 0 0 0 0 8.5 A 7.5 7.5 0 0 0 7.5 16 A 7.5 7.5 0 0 0 15 8.5 A 7.5 7.5 0 0 0 14.263672 5.2597656 z " />
  <path
     id="rect1442"
     style="fill:#808080;fill-rule:evenodd;stroke-linecap:square"
     d="M 7 0 C 3.676 0 1 1.115 1 2.5 C 1 3.885 3.676 5 7 5 L 8 5 C 11.324 5 14 3.885 14 2.5 C 14 1.115 11.324 3.0947467e-17 8 0 L 7 0 z M 7.5 1 C 10.547 1 13 1.669 13 2.5 C 13 3.331 10.547 4 7.5 4 C 4.453 4 2 3.331 2 2.5 C 2 1.669 4.453 1 7.5 1 z " />
</svg>
