<?xml version="1.0" encoding="UTF-8" standalone="no"?>
<svg
   xmlns:dc="http://purl.org/dc/elements/1.1/"
   xmlns:cc="http://creativecommons.org/ns#"
   xmlns:rdf="http://www.w3.org/1999/02/22-rdf-syntax-ns#"
   xmlns:svg="http://www.w3.org/2000/svg"
   xmlns="http://www.w3.org/2000/svg"
   xmlns:sodipodi="http://sodipodi.sourceforge.net/DTD/sodipodi-0.dtd"
   xmlns:inkscape="http://www.inkscape.org/namespaces/inkscape"
   width="16"
   height="16"
   version="1.1"
   id="svg4"
   sodipodi:docname="face-embarrassed-symbolic.svg"
   inkscape:version="1.0.2 (e86c870879, 2021-01-15)">
  <metadata
     id="metadata10">
    <rdf:RDF>
      <cc:Work
         rdf:about="">
        <dc:format>image/svg+xml</dc:format>
        <dc:type
           rdf:resource="http://purl.org/dc/dcmitype/StillImage" />
      </cc:Work>
    </rdf:RDF>
  </metadata>
  <defs
     id="defs8" />
  <sodipodi:namedview
     pagecolor="#ffffff"
     bordercolor="#666666"
     borderopacity="1"
     objecttolerance="10"
     gridtolerance="10"
     guidetolerance="10"
     inkscape:pageopacity="0"
     inkscape:pageshadow="2"
     inkscape:window-width="1920"
     inkscape:window-height="1016"
     id="namedview6"
     showgrid="true"
     inkscape:zoom="13.75"
     inkscape:cx="-9.4434931"
     inkscape:cy="1.2991283"
     inkscape:window-x="0"
     inkscape:window-y="27"
     inkscape:window-maximized="1"
     inkscape:current-layer="svg4">
    <inkscape:grid
       type="xygrid"
       id="grid1437" />
  </sodipodi:namedview>
  <path
     id="path993"
     style="fill:#808080;fill-opacity:1;fill-rule:evenodd;stroke:none;stroke-width:0.75;stroke-linecap:square;stroke-linejoin:round;stroke-opacity:1"
     d="m 7.4628914,1.0000002 a 7.5,7.5 0 0 0 -7.4628914,7.4999998 7.5,7.5 0 0 0 7.5000004,7.5 7.5,7.5 0 0 0 7.4999996,-7.5000001 7.5,7.5 0 0 0 -7.4999996,-7.4999997 7.5,7.5 0 0 0 -0.037109,0 z m 0.03711,1 a 6.5,6.5 0 0 1 6.4999996,6.4999998 6.5,6.5 0 0 1 -6.4999996,6.5 6.5,6.5 0 0 1 -6.5000004,-6.5000001 6.5,6.5 0 0 1 6.5000004,-6.4999997 z" />
  <path
     d="m 9.969,6.188 c 0.734,0 1.469,0.446 1.531,1.312 0.125,1.7330001 -1.5,-0.338 -3,0 0,-0.8659999 0.734,-1.312 1.469,-1.312 z"
     id="path1410"
     style="fill:#808080;fill-opacity:1" />
  <path
     d="m 5.0377847,6.189 c 0.735,0 1.469,0.446 1.469,1.311 -1.5,-0.338 -3.1250003,1.733 -3.0000003,0 0.063,-0.866 0.7970003,-1.312 1.5310003,-1.312 z"
     id="path1408"
     style="fill:#808080;fill-opacity:1" />
  <rect
     style="fill:#808080;fill-rule:evenodd"
     id="rect1439"
     width="2"
     height="1"
     x="6.5"
     y="11"
     ry="0.5"
     rx="0.5" />
  <circle
     style="fill:#808080;fill-rule:evenodd"
     id="path1441"
     cx="3.5"
     cy="9.5"
     r="0.75" />
  <circle
     style="fill:#808080;fill-rule:evenodd"
     id="path1443"
     cx="11.5"
     cy="9.5"
     r="0.75" />
</svg>
