<?xml version="1.0" encoding="UTF-8"?>
<svg height="16px" viewBox="0 0 16 16" width="16px" xmlns="http://www.w3.org/2000/svg">
    <g fill="#5e5c64">
        <path d="m 3.199219 7.960938 c -0.394531 0.398437 -0.394531 1.042968 0 1.441406 c 0.398437 0.394531 1.042969 0.398437 1.441406 0 c 1.867187 -1.867188 4.859375 -1.867188 6.726563 0 c 0.398437 0.398437 1.042968 0.398437 1.441406 0 c 0.398437 -0.398438 0.398437 -1.042969 0 -1.441406 c -2.644532 -2.644532 -6.964844 -2.644532 -9.609375 0 z m 0 0"/>
        <path d="m 0.320312 5.078125 c -0.398437 0.398437 -0.398437 1.042969 0 1.441406 c 0.394532 0.398438 1.039063 0.398438 1.4375 0 c 3.457032 -3.457031 9.035157 -3.457031 12.492188 0 c 0.398438 0.398438 1.042969 0.398438 1.441406 0 c 0.398438 -0.398437 0.398438 -1.042969 0 -1.441406 c -4.238281 -4.238281 -11.136718 -4.234375 -15.371094 0 z m 0 0"/>
        <path d="m 10 12 c 0 1.105469 -0.894531 2 -2 2 s -2 -0.894531 -2 -2 s 0.894531 -2 2 -2 s 2 0.894531 2 2 z m 0 0"/>
    </g>
</svg>
