<?xml version="1.0" encoding="UTF-8" standalone="no"?>
<svg
   xmlns:dc="http://purl.org/dc/elements/1.1/"
   xmlns:cc="http://creativecommons.org/ns#"
   xmlns:rdf="http://www.w3.org/1999/02/22-rdf-syntax-ns#"
   xmlns:svg="http://www.w3.org/2000/svg"
   xmlns="http://www.w3.org/2000/svg"
   xmlns:sodipodi="http://sodipodi.sourceforge.net/DTD/sodipodi-0.dtd"
   xmlns:inkscape="http://www.inkscape.org/namespaces/inkscape"
   width="62"
   height="62"
   version="1.1"
   viewBox="0 0 62 62"
   id="svg18"
   sodipodi:docname="launcher_icon_shadow_62.svg"
   inkscape:version="0.92.4 (5da689c313, 2019-01-14)">
  <metadata
     id="metadata22">
    <rdf:RDF>
      <cc:Work
         rdf:about="">
        <dc:format>image/svg+xml</dc:format>
        <dc:type
           rdf:resource="http://purl.org/dc/dcmitype/StillImage" />
      </cc:Work>
    </rdf:RDF>
  </metadata>
  <sodipodi:namedview
     pagecolor="#ffffff"
     bordercolor="#666666"
     borderopacity="1"
     objecttolerance="10"
     gridtolerance="10"
     guidetolerance="10"
     inkscape:pageopacity="0"
     inkscape:pageshadow="2"
     inkscape:window-width="774"
     inkscape:window-height="480"
     id="namedview20"
     showgrid="false"
     inkscape:zoom="3.8064516"
     inkscape:cx="31"
     inkscape:cy="31"
     inkscape:window-x="65"
     inkscape:window-y="24"
     inkscape:window-maximized="0"
     inkscape:current-layer="svg18" />
  <defs
     id="defs8">
    <clipPath
       id="clipPath10504-2-2">
      <path
         d="m4 24c-2.216 0-4 1.784-4 4v56c0 2.216 1.784 4 4 4h56c2.216 0 4-1.784 4-4v-56c0-2.216-1.784-4-4-4h-56zm6 6h44c2.216 0 4 1.784 4 4v44c0 2.216-1.784 4-4 4h-44c-2.216 0-4-1.784-4-4v-44c0-2.216 1.784-4 4-4z"
         color="#000000"
         fill="#f0f"
         opacity=".2"
         id="path2" />
    </clipPath>
    <filter
       id="filter3845">
      <feGaussianBlur
         stdDeviation="1.82"
         id="feGaussianBlur5" />
    </filter>
  </defs>
</svg>
