<svg width="24" height="24" version="1.1" viewBox="0 0 6.35 6.35" xmlns="http://www.w3.org/2000/svg">
 <g transform="translate(0 -290.91)">
  <path d="m5.8208 294.09a2.6458 2.6458 0 0 1-2.6458 2.6458 2.6458 2.6458 0 0 1-2.6458-2.6458 2.6458 2.6458 0 0 1 2.6458-2.6458 2.6458 2.6458 0 0 1 2.6458 2.6458z" fill="#b8b8b8" stroke-width=".66123"/>
  <path transform="matrix(.26458 0 0 .26458 0 290.91)" d="m8 10v6h6v-6h-6zm1 1h4v4h-4v-4z" fill="#3d3d3d" stroke-width=".57736"/>
  <g transform="matrix(1 0 0 .99532 -3.8027e-6 2.6959)">
   <g transform="matrix(-.70711 -.35522 .70711 -.35522 -202.55 398.13)">
    <path transform="matrix(-.18709 .18709 -.37417 -.37417 9.5751 296.02)" d="m10 8v1h5v5h1v-6h-6z" fill="#3d3d3d" opacity=".5" stroke-width=".52705"/>
   </g>
  </g>
 </g>
</svg>
