<svg version="1.1" viewBox="0 0 16 16" xmlns="http://www.w3.org/2000/svg">
 <path d="m8 0.26172s-1.636 2.7383-6 2.7383c0 9.31 6 12.594 6 12.594s6-3.2838 6-12.594c-4.364 0-6-2.7383-6-2.7383zm0 1.3867c0.272 0.312 0.25725 0.41992 0.78125 0.79492 0.912 0.654 2.3613 1.1896 4.1523 1.3906-0.025885 0.58656-0.077772 1.1415-0.14844 1.6738l-4.7852 4.7852-1.6465-1.6465-0.70703 0.70703 2.3535 2.3535 4.4668-4.4668c-0.51887 2.1594-1.3853 3.7819-2.2637 4.9453-0.982 1.298-1.7391 1.8784-2.2031 2.1934-0.463-0.315-1.2221-0.89536-2.2031-2.1934-1.292-1.71-2.5575-4.4086-2.7305-8.3516 1.79-0.2 3.2403-0.73763 4.1523-1.3906 0.524-0.377 0.51025-0.48192 0.78125-0.79492z" fill="#808080"/>
</svg>
