<svg version="1.1" viewBox="0 0 16 16" xmlns="http://www.w3.org/2000/svg">
 <path d="m0.86869 4.9927s-0.86869 0.89306-0.86869 3.0011c0 2.109 0.86869 2.9983 0.86869 2.9983l1.4239 0.0014 4.7067-4.7067-4e-7 -5.295-3.4996 3.9996zm-0.51652 9.3554 0.70711 0.70711 3.1972-3.1972 2.7428 3.135v-5.8778l1.9418-1.9418a3.533 3.533 0 0 1-0.94189 3.3228l0.73887 0.73611a4.566 4.566 0 0 0 1.3369-3.24 4.566 4.566 0 0 0-0.30384-1.649l1.4653-1.4653a6.45 6.45 0 0 1-1.091 7.6787l0.73611 0.73887a7.475 7.475 0 0 0 2.1931-5.3033c0-1.3441-0.35926-2.6889-1.0759-3.8767l1.3963-1.3963a9.367 9.367 0 0 1-1.1242 11.905l0.73887 0.73611a10.382 10.382 0 0 0 3.0466-7.3666 10.382 10.382 0 0 0-1.9142-6.0215l0.62562-0.62562-0.70711-0.70711z" fill="#808080" opacity=".5"/>
</svg>
