<svg version="1.1" viewBox="0 0 16 16" xmlns="http://www.w3.org/2000/svg">
 <g>
  <path d="m4.6621 1c-0.8388 0.0097-1.4513-0.019074-1.9531 0.25781-0.25092 0.13844-0.45077 0.37162-0.56055 0.66406-0.10978 0.29244-0.14844 0.63972-0.14844 1.0781v10c0 0.4384 0.038664 0.78568 0.14844 1.0781 0.10978 0.29244 0.30963 0.52562 0.56055 0.66406 0.50183 0.27688 1.1143 0.24812 1.9531 0.25781h0.0019531 4.6719 0.0019531c0.24645-0.00285 0.43813-0.012642 0.64844-0.017578-0.0034795-0.37096 0.097213-0.7318 0.2832-1.0469-0.20646 0.036926-0.47772 0.058681-0.97266 0.064453h-4.6484-0.0039063c-0.83971-0.0098-1.0372-0.03915-1.2812-0.17383-0.12227-0.06746-0.19082-0.14314-0.25586-0.31641-0.06504-0.17327-0.10742-0.44882-0.10742-0.84375v-9.332c0-0.39493 0.042376-0.67048 0.10742-0.84375 0.06504-0.17327 0.13359-0.24894 0.25586-0.31641 0.24409-0.13467 0.44154-0.16403 1.2812-0.17383h4.1816l1.3164 1.334c0.12054-0.039188 0.23875-0.084826 0.36133-0.11719h0.003906l0.001954-0.0019531c0.23158-0.059481 0.47051-0.098576 0.71094-0.13281l-2.082-2.082h-4.4746-0.0019531zm7.3379 5.0918c-0.33077 0.0075651-0.66332 0.089879-1 0.20508v3.1523c0.036011-0.05125 0.071329-0.10258 0.10938-0.15234l0.015625-0.03125 0.0625-0.078125c0.002563-0.0032937 0.005244-0.0064763 0.007812-0.0097656 0.12689-0.16249 0.27413-0.3058 0.41406-0.45703v-0.035156l0.29492-0.29297c0.004645-0.0046247 0.009037-0.0090448 0.013672-0.013672 0.028489-0.02844 0.053918-0.057374 0.082031-0.085937v-2.2012zm-1.0254 7.0273c-0.009044 0.077514-0.023689 0.13524-0.037109 0.19726 0.21836-0.093271 0.46167-0.14933 0.69922-0.19726h-0.66211z" color="#000000" color-rendering="auto" fill="#808080" image-rendering="auto" opacity=".5" shape-rendering="auto" solid-color="#000000" style="isolation:auto;mix-blend-mode:normal;text-decoration-color:#000000;text-decoration-line:none;text-decoration-style:solid;text-indent:0;text-transform:none;white-space:normal"/>
  <path d="m5.4355 7c-0.39639 0.0046-0.70435-0.023984-1.0098 0.14453-0.15271 0.08425-0.27998 0.23636-0.34375 0.40625-0.06377 0.16989-0.082031 0.35316-0.082031 0.57227v3.7539c0 0.21911 0.018261 0.40238 0.082031 0.57227 0.06377 0.16989 0.19104 0.32199 0.34375 0.40625 0.30542 0.16851 0.61338 0.13995 1.0098 0.14453h0.00195 3.127 0.00195c0.39639-0.0046 0.7024 0.02398 1.0078-0.14453 0.15271-0.08425 0.27998-0.23636 0.34375-0.40625 0.06377-0.16989 0.082031-0.57227 0.082031-0.57227v-3.7539c0-0.21911-0.018261-0.40238-0.082031-0.57227-0.06377-0.16989-0.19104-0.32199-0.34375-0.40625-0.30542-0.16851-0.61142-0.13995-1.0078-0.14453h-0.00195-3.127zm0.14648 1h0.41797v1h-1v-0.6582c0-0.13172 0.015017-0.21587 0.029297-0.25391 0.01428-0.03804 0.013197-0.033009 0.03125-0.042969 0.036097-0.01992 0.22152-0.041457 0.52148-0.044922zm0.91797 0h1v1h-1zm1.5 0h0.41797c0.29996 0.00345 0.48539 0.025002 0.52148 0.044922 0.018052 0.00996 0.01697 0.00495 0.03125 0.042969 0.01428 0.03804 0.029297 0.12218 0.029297 0.25391v2.1582h-4v-1h3v-0.5zm-3 3h1v1h-0.41797c-0.29996-0.0034-0.48539-0.025-0.52148-0.04492-0.018045-0.01-0.01697-5e-3 -0.03125-0.04297-0.01428-0.03804-0.029297-0.12218-0.029297-0.25391zm1.5 0h1v1h-1zm1.5 0h1v0.6582c0 0.13172-0.015018 0.21587-0.029297 0.25391-0.01428 0.03803-0.013197 0.03301-0.03125 0.04297-0.036098 0.01992-0.22152 0.04146-0.52148 0.04492h-0.41797z" color="#000000" color-rendering="auto" fill="#808080" image-rendering="auto" opacity=".5" shape-rendering="auto" solid-color="#000000" style="isolation:auto;mix-blend-mode:normal;text-decoration-color:#000000;text-decoration-line:none;text-decoration-style:solid;text-indent:0;text-transform:none;white-space:normal"/>
  <rect transform="rotate(90)" y="-16" width="16" height="16" color="#000000" fill="none"/>
 </g>
 <path d="m12.271 4.001c-0.533 0-1.037 0.061-1.512 0.183a5.853 5.853 0 0 0-1.167 0.446l-0.658 0.458 0.566 0.876 0.452-0.336c0.688-0.35 1.394-0.54 2.116-0.54 0.607 0 1.09 0.16 1.421 0.491 0.327 0.316 0.493 0.737 0.493 1.236 0 0.311-0.073 0.603-0.217 0.868-0.13 0.258-0.299 0.503-0.508 0.736-0.205 0.227-0.42 0.455-0.648 0.682v1e-3a6.392 6.392 0 0 0-0.633 0.7l-1e-3 2e-3a3.66 3.66 0 0 0-0.492 0.786 2.378 2.378 0 0 0-0.177 0.935c0 0.208 0.024 0.403 0.056 0.594h1.088c-1e-3 -0.023-0.01-0.044-0.01-0.068v-0.187c0-0.387 0.077-0.74 0.232-1.05 0.15-0.314 0.336-0.599 0.557-0.855l2e-3 -2e-3c0.218-0.264 0.458-0.515 0.721-0.755a7.23 7.23 0 0 0 0.7-0.734c0.21-0.253 0.384-0.522 0.527-0.807 0.138-0.288 0.209-0.613 0.209-0.982a3.06 3.06 0 0 0-0.147-0.914l-1e-3 -2e-3v-2e-3a2.04 2.04 0 0 0-0.482-0.867c-0.234-0.255-0.552-0.466-0.957-0.63v-2e-3c-0.385-0.172-0.895-0.261-1.528-0.261zm-0.27 9.963c-0.326 0-0.562 0.1-0.743 0.3a1.025 1.025 0 0 0-0.275 0.718c0 0.279 0.089 0.512 0.275 0.718 0.18 0.2 0.417 0.3 0.742 0.3s0.562-0.099 0.743-0.3c0.186-0.206 0.275-0.44 0.275-0.718 0-0.28-0.089-0.512-0.275-0.718-0.18-0.2-0.418-0.3-0.743-0.3z" fill="#808080" font-family="Ubuntu" font-size="72.036px" font-weight="500" letter-spacing="0" text-anchor="middle" word-spacing="0"/>
</svg>
