<svg version="1.1" viewBox="0 0 16 16" xmlns="http://www.w3.org/2000/svg">
 <path d="m9 0v1.0117c-0.77194 0.016396-1.3991 0.076294-1.9375 0.37305a1.88 1.88 0 0 0-0.83789 0.99805c-0.165 0.437-0.22461 0.96019-0.22461 1.6172v7h-0.00586v1c0 0.658 0.059609 1.1792 0.22461 1.6172 0.164 0.439 0.46189 0.78909 0.83789 0.99609 0.753 0.415 1.6736 0.37172 2.9316 0.38672h2.0117c1.258-0.015 2.1786 0.02828 2.9316-0.38672 0.376-0.207 0.67389-0.55709 0.83789-0.99609 0.16492-0.438 0.22461-0.95919 0.22461-1.6172h0.005859v-8c0-0.657-0.059609-1.1802-0.22461-1.6172a1.88 1.88 0 0 0-0.83789-0.99805c-0.53845-0.29675-1.1656-0.35665-1.9375-0.37305v-1.0117zm1 2h2c1.26 0.015 2.0871 0.059719 2.4531 0.26172 0.184 0.101 0.28872 0.21266 0.38672 0.47266 0.096996 0.26 0.16016 0.67362 0.16016 1.2656v7h-0.0059v1c0 0.592-0.06316 1.0056-0.16016 1.2656-0.098 0.259-0.20077 0.37266-0.38476 0.47266-0.36492 0.202-1.196 0.24672-2.455 0.26172h-2c-1.259-0.015-2.0901-0.05972-2.4551-0.26172-0.184-0.1-0.28677-0.21366-0.38477-0.47266-0.097-0.26-0.16016-0.67362-0.16016-1.2656v-1h0.0058594v-7c0-0.592 0.063156-1.0056 0.16016-1.2656 0.098-0.26 0.20272-0.37166 0.38672-0.47266 0.366-0.202 1.1931-0.24672 2.4531-0.26172zm-7 1-3 6h2v5l3-6h-2z" enable-background="new" fill="#808080"/>
 <path class="success" d="m8 5v7c0 0.554 0.446 1 1 1h4c0.554 0 1-0.446 1-1v-7h-6z" fill="#15c931" stroke-width="5"/>
</svg>
