<svg version="1.1" viewBox="0 0 16 16" xmlns="http://www.w3.org/2000/svg" xmlns:osb="http://www.openswatchbook.org/uri/2009/osb">
 <g transform="translate(-973 67)" fill="#808080" label="status">
  <path d="m978-54-1e-5 -6h6v6z" color="#000000"/>
  <path d="m976-54.662c0.01 0.8388-0.0151 1.4513 0.26171 1.9531 0.13844 0.25092 0.37358 0.45077 0.66602 0.56055s0.63972 0.14843 1.0781 0.14843h5.9942c0.43841 0 0.78568-0.0386 1.0781-0.14843 0.29244-0.10978 0.52562-0.30963 0.66406-0.56055 0.27688-0.50183 0.24812-1.1143 0.25782-1.9531v-2e-3 -8.7031-2e-3c-0.01-0.8388 0.019-1.4532-0.25782-1.9551-0.13844-0.25092-0.37162-0.44882-0.66406-0.5586-0.29244-0.10967-0.63971-0.11719-1.0781-0.11719h-1v-1h-4v1h-0.99415c-0.4384 0-0.78568 7e-3 -1.0781 0.11719-0.29244 0.10978-0.52758 0.30768-0.66602 0.5586-0.27688 0.50183-0.25201 1.1163-0.26171 1.9551v2e-3 8.7031zm1-0.0137v-8.6914c0.0102-0.85282 0.0391-1.2976 0.13671-1.4746 0.0158-0.0287 0.0571-0.0734 0.14258-0.10547 0.0613-0.0231 0.2988-0.0527 0.72656-0.0527h5.9942c0.42737 0 0.66416 0.0293 0.72656 0.0527 0.0855 0.0321 0.12479 0.0768 0.14062 0.10547 0.0951 0.1724 0.12232 0.6176 0.13282 1.4746v8.6934 0.0117c-0.0102 0.85438-0.0377 1.2983-0.13282 1.4707-0.0158 0.0287-0.0552 0.0734-0.14062 0.10547-0.12283 0.0462-0.34837 0.0859-0.72656 0.0859h-5.9942c-0.37814 0-0.60386-0.0399-0.72656-0.0859-0.0855-0.0321-0.12676-0.0768-0.14258-0.10547-0.0981-0.1779-0.12641-0.62006-0.13671-1.4844z" color="#000000" color-rendering="auto" image-rendering="auto" shape-rendering="auto" solid-color="#000000" style="font-feature-settings:normal;font-variant-alternates:normal;font-variant-caps:normal;font-variant-ligatures:none;font-variant-numeric:normal;font-variant-position:normal;isolation:auto;mix-blend-mode:normal;shape-padding:0;text-decoration-color:#000000;text-decoration-line:none;text-decoration-style:solid;text-indent:0;text-transform:none;white-space:normal"/>
 </g>
</svg>
