<svg version="1.1" viewBox="0 0 16 16" xmlns="http://www.w3.org/2000/svg">
 <path d="m4.662 0c-0.838 0.01-1.45-0.02-1.953 0.258-0.25 0.138-0.45 0.371-0.56 0.664-0.11 0.292-0.149 0.64-0.149 1.078v12c0 0.438 0.039 0.786 0.149 1.078 0.11 0.293 0.31 0.528 0.56 0.666 0.502 0.277 1.115 0.246 1.953 0.256h5.676c0.839-0.01 1.451 0.021 1.953-0.256a1.25 1.25 0 0 0 0.56-0.666c0.11-0.292 0.15-0.64 0.15-1.078v-12c0-0.438-0.04-0.786-0.15-1.078a1.253 1.253 0 0 0-0.56-0.664c-0.502-0.277-1.114-0.248-1.953-0.258h-5.674zm2.338 1.303 4.24 4.238-2.939 2.469 2.94 2.469-4.24 4.238v-5.613l-2.429 2.039-0.644-0.766 2.818-2.367-2.818-2.367 0.644-0.766 2.428 2.039zm1 2.414v3.24l1.76-1.48zm0 5.345v3.24l1.76-1.759z" fill="#808080" font-family="sans-serif" font-weight="400" overflow="visible" style="isolation:auto;mix-blend-mode:normal;shape-padding:0;text-decoration-color:#000000;text-decoration-line:none;text-decoration-style:solid;text-indent:0;text-transform:none" white-space="normal"/>
</svg>
