<svg version="1.1" viewBox="0 0 16 16" xmlns="http://www.w3.org/2000/svg">
 <path d="m4.6621 0c-0.838 0.01-1.4501-0.020188-1.9531 0.25781-0.25 0.138-0.45055 0.37106-0.56055 0.66406-0.11 0.292-0.14844 0.64012-0.14844 1.0781v12c0 0.438 0.038438 0.78612 0.14844 1.0781 0.11 0.293 0.31055 0.52802 0.56055 0.66602 0.502 0.277 1.1151 0.24586 1.9531 0.25586h5.3379v-4.2812l-2.998 2.998v-5.6133l-2.4297 2.0391-0.64453-0.76562 2.8184-2.3672-2.8184-2.3672 0.64453-0.76562 2.4277 2.0391v-5.6133l4.2402 4.2383-2.9395 2.4688 2.3691 1.9902h2.332v-8c0-0.438-0.040391-0.78612-0.15039-1.0781a1.253 1.253 0 0 0-0.56055-0.66406c-0.502-0.277-1.1141-0.24781-1.9531-0.25781h-5.6738-0.0019531zm3.3379 3.7168v3.2402l1.7598-1.4805-1.7598-1.7598zm0 5.3457v3.2402l1.7598-1.7598-1.7598-1.4805z" fill="#808080" opacity=".5" style="isolation:auto;mix-blend-mode:normal;shape-padding:0;text-decoration-color:#000000;text-decoration-line:none;text-decoration-style:solid;text-indent:0;text-transform:none"/>
 <path d="m11.293 10.586-0.70703 0.70703 2 2-2 2 0.70703 0.70703 2-2 2 2 0.70703-0.70703-2-2 2-2-0.70703-0.70703-2 2-1.6465-1.6465z" fill="#808080" style="font-feature-settings:normal;font-variant-alternates:normal;font-variant-caps:normal;font-variant-ligatures:normal;font-variant-numeric:normal;font-variant-position:normal;isolation:auto;mix-blend-mode:normal;shape-padding:0;text-decoration-color:#000000;text-decoration-line:none;text-decoration-style:solid;text-indent:0;text-orientation:mixed;text-transform:none;white-space:normal"/>
</svg>
