<svg version="1.1" viewBox="0 0 16 16" xmlns="http://www.w3.org/2000/svg">
 <path d="m3 1v1h0.99414c-1.258 0.015-2.1796-0.030234-2.9316 0.38477a1.88 1.88 0 0 0-0.83789 0.99805c-0.165 0.439-0.22461 0.96019-0.22461 1.6172v6c0 0.658 0.059609 1.1792 0.22461 1.6172 0.15527 0.41563 0.43058 0.75169 0.7793 0.96289l0.75781-0.75781c-0.082791-0.024905-0.15802-0.051456-0.2168-0.083985-0.183-0.1-0.28677-0.21266-0.38477-0.47266-0.097-0.26-0.16016-0.67362-0.16016-1.2656v-6c0-0.592 0.063157-1.0056 0.16016-1.2656 0.098-0.26 0.20177-0.37166 0.38477-0.47266 0.365-0.202 1.1951-0.24672 2.4551-0.26172h7.584l0.99414-0.99414c-0.18687-0.0014425-0.3684-0.0034285-0.57227-0.0058594h-7.0059v-1h-2zm12.035 0.10547-13.43 13.43 0.70703 0.70703 1.2461-1.2461c0.14149 0.001291 0.28038 0.002056 0.43555 0.003906h8.0117c1.258-0.014 2.1786 0.030234 2.9316-0.38477a1.88 1.88 0 0 0 0.83789-0.99805c0.164-0.438 0.22461-0.96019 0.22461-1.6172v-6c0-0.658-0.059609-1.1782-0.22461-1.6172a1.88 1.88 0 0 0-0.70508-0.89844l0.67188-0.67188-0.70703-0.70703zm-0.69336 2.1074c0.041035 0.01522 0.078699 0.030819 0.11133 0.048828 0.184 0.101 0.28972 0.21366 0.38672 0.47266 0.097 0.26 0.16016 0.67362 0.16016 1.2656v6c0 0.592-0.063156 1.0056-0.16016 1.2656-0.098 0.26-0.20272 0.37166-0.38672 0.47266-0.366 0.202-1.1941 0.24672-2.4531 0.26172h-7.4453l1.5195-1.5195a4 4 0 0 0 1.9258 0.51953 4 4 0 0 0 4-4 4 4 0 0 0-0.50977-1.9355l1.5215-1.5215a0.5 0.5 0 0 0 0.48828 0.45703 0.5 0.5 0 0 0 0.5-0.5 0.5 0.5 0 0 0-0.44922-0.49609l0.79102-0.79102zm-6.3418 0.78711a4 4 0 0 0-4 4 4 4 0 0 0 0.56445 2.0195l0.72852-0.72852a3 3 0 0 1-0.29297-1.291 3 3 0 0 1 3-3 3 3 0 0 1 1.291 0.29297l0.73828-0.73828a4 4 0 0 0-2.0293-0.55469zm0 2a2 2 0 0 0-2 2 2 2 0 0 0 0.068359 0.51562l2.4473-2.4473a2 2 0 0 0-0.51562-0.068359zm2.7422 0.8125a3 3 0 0 1 0.25781 1.1875 3 3 0 0 1-3 3 3 3 0 0 1-1.1875-0.25781l0.79492-0.79492a2 2 0 0 0 0.39258 0.052734 2 2 0 0 0 2-2 2 2 0 0 0-0.052734-0.39258l0.79492-0.79492z" fill="#808080" style="font-feature-settings:normal;font-variant-alternates:normal;font-variant-caps:normal;font-variant-ligatures:normal;font-variant-numeric:normal;font-variant-position:normal;isolation:auto;mix-blend-mode:normal;shape-padding:0;text-decoration-color:#000000;text-decoration-line:none;text-decoration-style:solid;text-indent:0;text-orientation:mixed;text-transform:none"/>
</svg>
