<svg version="1.1" viewBox="0 0 16 16" xmlns="http://www.w3.org/2000/svg">
 <g fill="#808080">
  <g>
   <path d="m8 12c-2.216 0-4 1.784-4 4h1c0-1.662 1.338-3 3-3h4c1.662 0 3 1.338 3 3h1c0-2.216-1.784-4-4-4z"/>
   <path d="m10 4.002c-0.45935 0-0.89692 0.085293-1.2988 0.25781-0.39955 0.16424-0.75215 0.40451-1.0469 0.7168l-0.0058594 0.0058594c-0.28714 0.31374-0.50819 0.69114-0.66406 1.1191-0.15878 0.42836-0.23438 0.89853-0.23438 1.4004 0 0.20331 0.010565 0.40057 0.035156 0.5918l1.0195-1.0195c0.013883-0.12601 0.032048-0.25071 0.054688-0.37305 0.20715-0.90443 1.0287-1.6702 1.9785-1.6602l0.94727-0.94727c-0.25239-0.059907-0.51458-0.091797-0.78516-0.091797zm1.7793 0.51172-0.74805 0.74805c0.13381 0.069314 0.25997 0.15289 0.37305 0.25586 0.76785 0.62626 0.93584 1.7168 0.74805 2.6426-0.12867 0.83869-0.78758 1.6012-1.6328 1.7637-0.82209 0.1883-1.767-0.064098-2.2617-0.7793-0.17326-0.22605-0.29105-0.47734-0.36719-0.74219l-0.78906 0.78906c0.14359 0.30809 0.3256 0.58634 0.54688 0.82812l0.0019531 0.001953 0.0039063 0.001954c0.29405 0.31157 0.64524 0.55682 1.043 0.72852l0.0019532 0.001953 0.0039062 0.001953c0.40108 0.16427 0.83823 0.24609 1.2969 0.24609 0.45856 0 0.89352-0.081604 1.2949-0.24609v-0.001953c0.39741-0.17155 0.74615-0.41777 1.0332-0.73047 0.29498-0.31303 0.52286-0.68618 0.67969-1.1094 0.1597-0.42918 0.23438-0.90336 0.23438-1.4121h0.007812c0-0.50128-0.075895-0.96854-0.23438-1.3965-0.15621-0.42981-0.38216-0.80908-0.67773-1.123-0.16583-0.18077-0.35334-0.33654-0.55859-0.46875z" color="#000000" color-rendering="auto" dominant-baseline="auto" image-rendering="auto" shape-rendering="auto" solid-color="#000000" style="font-feature-settings:normal;font-variant-alternates:normal;font-variant-caps:normal;font-variant-ligatures:normal;font-variant-numeric:normal;font-variant-position:normal;isolation:auto;mix-blend-mode:normal;shape-padding:0;text-decoration-color:#000000;text-decoration-line:none;text-decoration-style:solid;text-indent:0;text-orientation:mixed;text-transform:none;white-space:normal"/>
   <path d="m6 1.002c-0.45935 0-0.89692 0.085293-1.2988 0.25781-0.39955 0.16424-0.75215 0.40451-1.0469 0.7168l-0.0058594 0.0058594c-0.28714 0.31374-0.5082 0.69114-0.66406 1.1191-0.15878 0.42836-0.23438 0.89853-0.23438 1.4004 0 0.50876 0.075295 0.98099 0.23438 1.4102 0.15624 0.42152 0.37762 0.79443 0.66406 1.1074l0.0019531 0.0019532 0.0039063 0.0019531c0.29405 0.31157 0.64524 0.55683 1.043 0.72852l0.0019532 0.0019531 0.0039062 0.0019532c0.33388 0.13674 0.69682 0.20372 1.0723 0.22656-9e-3 -0.0844-0.015331-0.1691-0.019531-0.25391-0.0107-0.25498-9.031e-4 -0.51045 0.029297-0.76367-0.59869-0.0499-1.1768-0.31359-1.5273-0.82031-0.53019-0.69173-0.5505-1.6218-0.39844-2.4434 0.21073-0.92005 1.0568-1.6979 2.0273-1.6602 0.54235-0.0425 1.1101 0.10554 1.5176 0.47656 0.32032 0.26125 0.53091 0.60524 0.66016 0.98242 0.30293-0.16576 0.62359-0.29232 0.95508-0.37695-0.0019999-6e-3 -0.0019062-0.011978-0.0039062-0.017578-0.1562-0.42981-0.38216-0.80908-0.67773-1.123-0.28776-0.31369-0.63983-0.55641-1.0391-0.7207-0.40191-0.17431-0.83913-0.25977-1.2988-0.25977zm-2 7.998c-2.216 0-4 1.784-4 4v1h1l-0.060547-0.060547 0.060547-0.060547v-0.87891c-1e-5 -1.662 1.338-3 3-3h0.87891l1-1h-1.8789zm2.4043 0.88867-0.11133 0.11133h0.17773c-0.02298-0.036453-0.044459-0.07421-0.066406-0.11133z" opacity=".5"/>
  </g>
  <path d="m14.646 1.6465-13 13 0.70703 0.70703 13-13z" color="#000000"/>
 </g>
</svg>
