<svg version="1.1" viewBox="0 0 16 16" xmlns="http://www.w3.org/2000/svg">
 <path d="m3.9941 1c-1.258 0.015-2.1786-0.030238-2.9316 0.38477-0.38935 0.22215-0.68651 0.57611-0.83789 0.99805-0.165 0.438-0.22461 0.96018-0.22461 1.6172v6c0 0.658 0.059608 1.1792 0.22461 1.6172 0.164 0.439 0.46189 0.79005 0.83789 0.99805 0.753 0.416 1.6736 0.36977 2.9316 0.38477h8.0117c1.258-0.015 2.1786 0.030234 2.9316-0.38477 0.38935-0.22215 0.68651-0.57611 0.83789-0.99805 0.164-0.438 0.22461-0.96018 0.22461-1.6172v-6c0-0.658-0.059609-1.1792-0.22461-1.6172-0.15138-0.42194-0.44854-0.7759-0.83789-0.99805-0.753-0.416-1.6736-0.36977-2.9316-0.38477h-8.0117zm0.0058594 1h8c1.259 0.015 2.0871 0.059718 2.4531 0.26172 0.184 0.1 0.28972 0.21266 0.38672 0.47266s0.16016 0.67364 0.16016 1.2656v6c0 0.592-0.063156 1.0056-0.16016 1.2656-0.098 0.26-0.20272 0.37166-0.38672 0.47266-0.366 0.202-1.1941 0.24672-2.4531 0.26172h-8c-1.259-0.015-2.0901-0.059719-2.4551-0.26172-0.183-0.1-0.28677-0.21266-0.38477-0.47266-0.097-0.26-0.16016-0.67364-0.16016-1.2656v-6c0-0.592 0.063153-1.0056 0.16016-1.2656 0.098-0.26 0.20177-0.37166 0.38477-0.47266 0.366-0.202 1.1961-0.24672 2.4551-0.26172zm0.70703 2-0.70703 0.70703 0.77734 0.77734-0.77734 0.7793 0.70703 0.70703 0.77734-0.7793 0.7793 0.7793 0.70703-0.70703-0.7793-0.7793 0.7793-0.77734-0.70703-0.70703-0.7793 0.77734-0.77734-0.77734zm5 0-0.70703 0.70703 0.77734 0.77734-0.77734 0.7793 0.70703 0.70703 0.77734-0.7793 0.7793 0.7793 0.70703-0.70703-0.7793-0.7793 0.7793-0.77734-0.70703-0.70703-0.7793 0.77734-0.77734-0.77734zm-1.707 4.0312a4 3 0 0 0-3.998 2.9688h1.002a3 2 0 0 1 2.9961-1.9688 3 2 0 0 1 2.998 1.9688h1.002a4 3 0 0 0-4-2.9688zm-4 5.9688c-1.108 0-2 0.892-2 2h12c0-1.108-0.892-2-2-2h-8z" fill="#808080" style="font-feature-settings:normal;font-variant-alternates:normal;font-variant-caps:normal;font-variant-ligatures:normal;font-variant-numeric:normal;font-variant-position:normal;isolation:auto;mix-blend-mode:normal;shape-padding:0;text-decoration-color:#000000;text-decoration-line:none;text-decoration-style:solid;text-indent:0;text-orientation:mixed;text-transform:none"/>
</svg>
