<svg version="1.1" viewBox="0 0 16 16" xmlns="http://www.w3.org/2000/svg">
 <g fill="#808080">
  <path d="m3 8v1h3v-1z" style="font-variant-ligatures:none"/>
  <path d="m3 10v1h3v-1z" style="font-variant-ligatures:none"/>
  <path d="m13 4h-3v1h3z" style="font-variant-ligatures:none"/>
  <path d="m13 6h-3v1h3z" style="font-variant-ligatures:none"/>
  <path d="m10 8v1h3v-1z" style="font-variant-ligatures:none"/>
  <path d="m10 10v1h3v-1z" style="font-variant-ligatures:none"/>
  <path d="m6 4h-3v1h3z" style="font-variant-ligatures:none"/>
  <path d="m6 6h-3v1h3z" style="font-variant-ligatures:none"/>
  <path d="m2.7305 1c-0.26263 9.42e-4 -0.50559 0.0043815-0.73047 0.013672-1.2308 0.050848-1.894 0.30963-1.9883 1.6348-0.0075684 0.10986-0.011719 0.22656-0.011719 0.35156v9c0 2 1 2 3 2h2.9961c0.00133 2.1e-5 0.00258-2.4e-5 0.00391 0 0.975 0 1.6016 0.80078 1.6016 0.80078 2.606e-4 3.14e-4 0.00586 0.0078 0.00586 0.0078l0.39258 0.5 0.39258-0.49805 0.00586-0.0098c-4.9e-6 4.7e-5 0.62656-0.80073 1.6016-0.80073h3c2 0 3 0 3-2v-9c0-1.6327-0.66713-1.9313-2-1.9863-0.29984-0.012387-0.63271-0.013672-1-0.013672h-3c-1.036 0-1.635 0.46531-2 0.82031-0.365-0.355-0.964-0.82031-2-0.82031h-3c-0.091823 0-0.18199-3.1399e-4 -0.26953 0zm0.26953 1h3c0.983 0 1.5996 0.79883 1.5996 0.79883l0.40039 0.53516 0.40039-0.53516s0.61661-0.79883 1.5996-0.79883h3c0.84961 0 1.6993-3.51e-5 1.9355 0.61328 0.0041 0.010574 8e-3 0.022261 0.01172 0.033203 0.0061 0.017981 0.01055 0.035691 0.01563 0.054687 0.0011 0.00412 0.0029 0.00755 0.0039 0.011719 0.0086 0.03588 0.01621 0.071735 0.02148 0.11133 0.007573 0.054932 0.011723 0.11328 0.011723 0.17578v9c0 1-1 1-2 1h-3c-0.15718 0.0011-0.31399 0.01548-0.46875 0.04297-0.053446 0.0087-0.1056 0.01817-0.15625 0.0293-0.13829 0.03001-0.2741 0.07049-0.40625 0.12109-0.043987 0.01715-0.085549 0.03402-0.12695 0.05274-0.11322 0.05186-0.22284 0.11124-0.32812 0.17773-0.061355 0.03873-0.11948 0.07702-0.17383 0.11719-0.08939 0.06518-0.17483 0.13562-0.25586 0.21094-0.026663 0.02416-0.055599 0.049-0.080078 0.07227l-0.0039064-0.003919-0.00391 0.0039c-0.024476-0.023263-0.053411-0.048105-0.080074-0.07226-0.081032-0.075319-0.16647-0.14576-0.25586-0.21094-0.054352-0.040168-0.11247-0.078455-0.17383-0.11719-0.10529-0.066496-0.21491-0.12587-0.32812-0.17773-0.041404-0.018711-0.082966-0.035582-0.12695-0.052735-0.13215-0.050601-0.26796-0.091082-0.40625-0.12109-0.050652-0.011129-0.1028-0.020607-0.15625-0.029297-0.15219-0.027058-0.30637-0.041431-0.46094-0.042969h-3.0078c-1 0-2 0-2-1v-9c0-0.1362 0.020685-0.25189 0.052734-0.35352 0.013142-0.041809 0.031588-0.076777 0.048828-0.11328 0.27831-0.53204 1.0882-0.5332 1.8984-0.5332z" style="font-variant-ligatures:none"/>
 </g>
</svg>
