<svg version="1.1" viewBox="0 0 16 16" xmlns="http://www.w3.org/2000/svg">
 <path d="m3.9922 1c-1.257 0.014-2.1767-0.02828-2.9297 0.38672-0.38984 0.22117-0.68773 0.57448-0.83984 0.99609-0.163 0.437-0.22266 0.96019-0.22266 1.6172v3h1v-3c0-0.599 0.058203-0.99763 0.1582-1.2656 0.068116-0.1988 0.20535-0.36652 0.38672-0.47266 0.42276-0.23387 1.1716-0.24673 2.4473-0.26172h0.00195 2.5371l2.0215 2h3.4473c1.282 0.015 2.0321 0.025766 2.4551 0.25977 0.14405 0.0869 0.25896 0.21473 0.33008 0.36719-0.016-0.03 2.5e-4 0.010453 0.03125 0.064453 0.01 0.017-2.34e-4 0.00172 0.0098 0.011719v0.00195c0.0055 0.011 0.01368 0.021848 0.01758 0.029297 0.1 0.266 0.1582 0.66663 0.1582 1.2656v1h0.99805v-1c0-0.658-0.05766-1.1792-0.22266-1.6172-0.02-0.055-0.04822-0.1043-0.07422-0.1543l-0.02734-0.056641c-0.16179-0.33033-0.41897-0.60452-0.73828-0.78711-0.753-0.416-1.6726-0.36977-2.9316-0.38477h-3.043l-2.0215-2h-2.9473zm0.00781 7c-1.258 0.015-2.1796-0.031234-2.9316 0.38477-0.377 0.208-0.67584 0.55905-0.83984 0.99805-0.165 0.438-0.22266 0.95919-0.22266 1.6172l-0.0058594 1c0 0.658 0.057657 1.1792 0.22266 1.6172 0.164 0.439 0.46285 0.79005 0.83984 0.99805 0.752 0.416 1.6736 0.36977 2.9316 0.38477h8.0195c1.258-0.015 2.1786 0.03023 2.9316-0.38477 0.376-0.207 0.67484-0.56005 0.83984-0.99805 0.155-0.438 0.21484-0.96019 0.21484-1.6172l0.0059-1c0-0.657-0.05985-1.1792-0.21484-1.6172-0.165-0.438-0.46385-0.79105-0.83984-0.99805-0.753-0.415-1.6736-0.36977-2.9316-0.38477z" fill="#808080" style="font-feature-settings:normal;font-variant-alternates:normal;font-variant-caps:normal;font-variant-ligatures:none;font-variant-numeric:normal;font-variant-position:normal;isolation:auto;mix-blend-mode:normal;shape-padding:0;text-decoration-color:#000000;text-decoration-line:none;text-decoration-style:solid;text-indent:0;text-transform:none"/>
</svg>
