<svg version="1.1" viewBox="0 0 16 16" xmlns="http://www.w3.org/2000/svg">
 <path d="m3 9v1c0 0.88386 0.031854 1.5414 0.082031 1.8574 0.00289 0.01817 0.00521 0.03522 0.00781 0.05078 0.014944 0.0025 0.031485 5e-3 0.048828 0.0078 0.31625 0.051244 0.97395 0.083998 1.8613 0.083998h2c0.88738 0 1.5451-0.03275 1.8613-0.08398 0.017343-0.0028 0.033884-0.0053 0.048828-0.0078 0.00261-0.01556 0.00493-0.03261 0.00781-0.05078 0.05018-0.31607 0.082034-0.97358 0.082034-1.8574v-1z" fill="#808080" stop-color="#000000"/>
 <path d="m1 3v7c0 3.6638 0.31109 4 4 4h2c2.8598 0 3.6895-0.20204 3.918-2h0.58203c1.933-2.4e-5 3.5-1.567 3.5-3.5 0-1.933-1.567-3.5-3.5-3.5h-0.5v-2h-9zm1 1h8v6c0 0.37233-0.00392 0.70588-0.013672 1-0.01362 0.41088-0.038597 0.74481-0.078125 1-7.098e-4 0.0046-0.00123 0.0091-0.00195 0.01367-0.069467 0.43755-0.16281 0.58428-0.23242 0.6543-0.069608 0.07001-0.21466 0.16347-0.65234 0.23438-0.43769 0.070913-1.1144 0.097658-2.0215 0.097658h-2c-0.90704 0-1.5838-0.026751-2.0215-0.097656-0.43768-0.070905-0.58274-0.16436-0.65234-0.23438s-0.16295-0.21675-0.23242-0.6543-0.09375-1.1119-0.09375-2.0137v-3.998zm9 2h0.50005c1.3926 0 2.5 1.1074 2.5 2.5 0 1.3925-1.1075 2.5-2.5 2.5h-0.51177c0.009234-0.3022 0.011719-0.63455 0.011719-1v-3.998z" fill="#808080"/>
</svg>
