<svg version="1.1" viewBox="0 0 16 16" xmlns="http://www.w3.org/2000/svg">
 <g transform="matrix(-1,0,0,1,16,0)" color="#000000" fill="#808080">
  <path d="m15 0.293-4.707 4.707h1.414l2.293-2.293v11.293h-11.293l4-4h-1.414l-4.146 4.146-0.854 0.854h14.707z" font-family="sans-serif" font-weight="400" opacity=".5" overflow="visible" style="font-feature-settings:normal;font-variant-alternates:normal;font-variant-caps:normal;font-variant-ligatures:normal;font-variant-numeric:normal;font-variant-position:normal;isolation:auto;mix-blend-mode:normal;shape-padding:0;text-decoration-color:#000000;text-decoration-line:none;text-decoration-style:solid;text-indent:0;text-orientation:mixed;text-transform:none" white-space="normal"/>
  <path d="m3.5 6c-0.829 0-1.496 0.667-1.496 1.496v0.016c0 0.829 0.667 1.496 1.496 1.496h0.016c0.83 0 1.496-0.667 1.496-1.496v-0.016c0-0.829-0.667-1.496-1.496-1.496zm4 0c-0.829 0-1.496 0.667-1.496 1.496v0.016c0 0.829 0.667 1.496 1.496 1.496h0.016c0.83 0 1.496-0.667 1.496-1.496v-0.016c0-0.829-0.667-1.496-1.496-1.496zm4 0c-0.829 0-1.496 0.667-1.496 1.496v0.016c0 0.829 0.667 1.496 1.496 1.496h0.016c0.83 0 1.496-0.667 1.496-1.496v-0.016c0-0.829-0.667-1.496-1.496-1.496z" display="block" overflow="visible" style="isolation:auto;mix-blend-mode:normal"/>
 </g>
</svg>
