<svg version="1.1" viewBox="0 0 16 16" xmlns="http://www.w3.org/2000/svg">
 <path d="m14.646 0.64648-14 14 0.70703 0.70703 1.3535-1.3535c0.0020327 2e-6 0.0038241 0 0.0058594 0h10.574c1.058 0 1.7698-0.22411 2.1348-0.66211 0.383-0.456 0.57812-1.2041 0.57812-2.2441v-6.1875c0-1.04-0.19512-1.7881-0.57812-2.2441-0.19217-0.2306-0.48279-0.39923-0.86719-0.50977l0.79883-0.79883-0.70703-0.70703zm-11.934 1.3535c-1.058-0.013-1.7678 0.22411-2.1328 0.66211-0.383 0.456-0.58008 1.2041-0.58008 2.2441v6.1875c0 1.024 0.19295 1.7629 0.56445 2.2207l2.5215-2.5215c-0.33768 0.1324-0.70275 0.20703-1.0859 0.20703h-1v-6h1v5c1.11 0 2-0.89 2-2v-3h1v3c0 0.38277-0.074987 0.74868-0.20703 1.0859l1.207-1.207v-1.8789-1h2c0.26 0 0.5078 0.051027 0.73633 0.14258l3.1426-3.1426h-9.166zm8.9941 3h1.293c1.099 0 2 0.901 2 2v4h-1v-4c0-0.558-0.442-1-1-1h-1v5h-1v-5-0.29297l0.70703-0.70703zm-4.707 1v0.87891l0.87891-0.87891h-0.87891zm2.9785 0.72852c0.012283 0.088955 0.021484 0.17931 0.021484 0.27148 0 1.099-0.901 2-2 2h-0.29297l2.2715-2.2715zm-2.9785 2.9785v1.293h-1v-0.29297l1-1z" fill="#808080"/>
</svg>
