<svg viewBox="0 0 16 16" xmlns="http://www.w3.org/2000/svg">
 <g transform="translate(-1093 267)" fill="gray">
  <path d="M1101.002-265a12.1 12.1 0 0 0-7.4 2.518l-.266.205.205.263.46.596V-262h.814l-.041-.053c1.883-1.278 4.047-1.948 6.228-1.947 2.181 0 4.344.672 6.227 1.951l-.229.297v1.637l1.666-2.158-.264-.206a12.105 12.105 0 0 0-7.4-2.521zm-3.596 8l3.592 4.658 3.596-4.658h-1.262l-2.332 3.021-2.33-3.021z" font-family="sans-serif" font-weight="400" opacity=".5" overflow="visible" style="font-feature-settings:normal;font-variant-alternates:normal;font-variant-caps:normal;font-variant-ligatures:none;font-variant-numeric:normal;font-variant-position:normal;isolation:auto;mix-blend-mode:normal;shape-padding:0;text-decoration-color:#000;text-decoration-line:none;text-decoration-style:solid;text-indent:0;text-transform:none" white-space="normal"/>
  <path d="M1096.5-261c-.829 0-1.496.667-1.496 1.496v.016c0 .829.667 1.496 1.496 1.496h.016c.83 0 1.496-.667 1.496-1.496v-.016c0-.829-.667-1.496-1.496-1.496zm4 0c-.829 0-1.496.667-1.496 1.496v.016c0 .829.667 1.496 1.496 1.496h.016c.83 0 1.496-.667 1.496-1.496v-.016c0-.829-.667-1.496-1.496-1.496zm4 0c-.829 0-1.496.667-1.496 1.496v.016c0 .829.667 1.496 1.496 1.496h.016c.83 0 1.496-.667 1.496-1.496v-.016c0-.829-.667-1.496-1.496-1.496z" display="block" overflow="visible" style="isolation:auto;mix-blend-mode:normal"/>
 </g>
</svg>
