<svg version="1.1" viewBox="0 0 16 16" xmlns="http://www.w3.org/2000/svg">
 <g fill="gray">
  <path d="m3.9941 1c-1.258 0.015-2.1796-0.030234-2.9316 0.38477a1.88 1.88 0 0 0-0.83789 0.99805c-0.165 0.439-0.22461 0.96019-0.22461 1.6172v6c0 0.658 0.059609 1.1792 0.22461 1.6172 0.164 0.439 0.46089 0.79005 0.83789 0.99805 0.752 0.416 1.6736 0.36977 2.9316 0.38477h1.9824c-0.11027 1.0008-0.60276 1-1.4766 1h-0.5v1h8v-1h-0.5c-0.8738 0-1.3663 7.56e-4 -1.4766-1h1.9824c1.258-0.014 2.1786 0.030234 2.9316-0.38477a1.88 1.88 0 0 0 0.83789-0.99805c0.164-0.438 0.22461-0.96019 0.22461-1.6172v-6c0-0.658-0.059609-1.1782-0.22461-1.6172a1.88 1.88 0 0 0-0.83789-0.99805c-0.753-0.416-1.6736-0.36977-2.9316-0.38477h-8.0117zm0.0058594 1h8c1.259 0.015 2.0871 0.059719 2.4531 0.26172 0.184 0.101 0.28972 0.21366 0.38672 0.47266 0.097 0.26 0.16016 0.67362 0.16016 1.2656v6c0 0.592-0.063156 1.0056-0.16016 1.2656-0.098 0.26-0.20272 0.37166-0.38672 0.47266-0.366 0.202-1.1941 0.24672-2.4531 0.26172h-8c-1.258-0.015-2.0901-0.059719-2.4551-0.26172-0.183-0.1-0.28677-0.21266-0.38477-0.47266-0.097-0.26-0.16016-0.67362-0.16016-1.2656v-6c0-0.592 0.063157-1.0056 0.16016-1.2656 0.098-0.26 0.20177-0.37166 0.38477-0.47266 0.365-0.202 1.1951-0.24672 2.4551-0.26172zm4 2v2c-3.031 0-4 2.656-4 5 0 0 1.125-3.125 4-3v2c1.4524-0.76157 3.5497-1.9402 5-3-1.4503-1.0598-3.5469-2.2384-5-3z" style="font-feature-settings:normal;font-variant-alternates:normal;font-variant-caps:normal;font-variant-ligatures:normal;font-variant-numeric:normal;font-variant-position:normal;isolation:auto;mix-blend-mode:normal;shape-padding:0;text-decoration-color:#000;text-decoration-line:none;text-decoration-style:solid;text-indent:0;text-orientation:mixed;text-transform:none"/>
 </g>
</svg>
