<svg viewBox="0 0 16 16" xmlns="http://www.w3.org/2000/svg">
 <path d="M7.996 1.002l-.002.002-.002.002C7.15 2.816 6.497 4.66 6.127 5.79c-1.22.001-3.227.047-5.14.295l.001.002v.002l.002.002v.002c1.461 1.361 3.014 2.55 3.975 3.252-.376 1.16-.954 3.084-1.309 4.98h.008c1.747-.968 3.358-2.078 4.323-2.775.986.716 2.64 1.86 4.333 2.783v-.006l.002-.002c-.381-1.96-.94-3.836-1.304-4.968.986-.718 2.582-1.935 3.984-3.26L15 6.096h-.002l-.002-.002v-.002c-1.982-.243-3.937-.292-5.127-.295C9.492 4.637 8.825 2.744 8 1.002zm.002 2.742L8 3.75v6.574l-.012-.008-.586.424c-.476.344-1.396.887-2.13 1.367.232-.854.458-1.879.644-2.453l.223-.687-.584-.428c-.475-.347-1.276-1.054-1.96-1.604.885-.042 1.93-.144 2.534-.144l.723-.002.226-.688c.183-.558.608-1.537.92-2.357z" fill="gray" overflow="visible"/>
</svg>
