<svg viewBox="0 0 22 22" xml:space="preserve" xmlns="http://www.w3.org/2000/svg"><g fill="#fff" color="#000"><path d="M53 327.43c-.01.68.088 1.37.3 2.043.854 2.696 3.366 4.531 6.2 4.531s5.346-1.835 6.2-4.531a6.47 6.47 0 0 0-2.472-7.256l-.572.82c1.968 1.374 2.812 3.853 2.09 6.135s-2.843 3.832-5.246 3.832-4.524-1.55-5.246-3.832.122-4.761 2.09-6.135l-.573-.82A6.477 6.477 0 0 0 53 327.43z" style="font-feature-settings:normal;font-variant-alternates:normal;font-variant-caps:normal;font-variant-ligatures:normal;font-variant-numeric:normal;font-variant-position:normal;isolation:auto;mix-blend-mode:normal;shape-padding:0;text-decoration-color:#000;text-decoration-line:none;text-decoration-style:solid;text-indent:0;text-orientation:mixed;text-transform:none;white-space:normal" transform="translate(-48.999 -317)"/><path d="M59 321v7h1v-7z" style="font-feature-settings:normal;font-variant-alternates:normal;font-variant-caps:normal;font-variant-ligatures:none;font-variant-numeric:normal;font-variant-position:normal;isolation:auto;mix-blend-mode:normal;shape-padding:0;text-decoration-color:#000;text-decoration-line:none;text-decoration-style:solid;text-indent:0;text-transform:none;white-space:normal" transform="translate(-48.999 -317)"/></g></svg>