<svg width="16" height="16" viewBox="0 0 4.233 4.233" xmlns="http://www.w3.org/2000/svg"><path transform="scale(.26458)" d="M6.387.01C4.843.368 3.719 1.185 3.02 2.322 2.32 3.46 2.03 4.882 2 6.486l1 .02c.029-1.496.304-2.74.871-3.66.567-.921 1.411-1.554 2.742-1.864L6.387.01zm3.226 0-.226.972c1.33.31 2.175.943 2.742 1.864.567.92.842 2.164.871 3.66l1-.02c-.031-1.605-.32-3.027-1.02-4.164C12.28 1.185 11.158.368 9.614.01zM8 2c-1.526 0-2.544.781-3.072 1.838-.529 1.057-.675 2.353-.801 3.611s-.229 2.486-.533 3.317c-.152.415-.347.72-.588.918C2.766 11.882 2.47 12 2 12v1h12v-1c-.47 0-.765-.118-1.006-.316-.24-.199-.436-.503-.588-.918-.304-.83-.407-2.059-.533-3.317-.126-1.258-.272-2.554-.8-3.611C10.542 2.78 9.525 2 8 2zm0 1c1.224 0 1.769.467 2.178 1.285.409.818.575 2.022.699 3.264s.209 2.516.592 3.56c.126.346.369.61.588.891H3.943c.219-.282.461-.545.588-.89.383-1.045.468-2.32.592-3.561.124-1.242.29-2.446.7-3.264C6.23 3.467 6.776 3 8 3zM6 14a2.023 2.023 0 0 0 4.047 0H6z" style="font-feature-settings:normal;font-variant-alternates:normal;font-variant-caps:normal;font-variant-east-asian:normal;font-variant-ligatures:normal;font-variant-numeric:normal;font-variant-position:normal;font-variation-settings:normal;inline-size:0;isolation:auto;mix-blend-mode:normal;shape-margin:0;shape-padding:0;text-decoration-color:#000;text-decoration-line:none;text-decoration-style:solid;text-indent:0;text-orientation:mixed;text-transform:none;white-space:normal" fill="gray"/></svg>