<?xml version="1.0" encoding="UTF-8" standalone="no"?>
<!-- Created with Inkscape (http://www.inkscape.org/) -->

<svg
   xmlns:dc="http://purl.org/dc/elements/1.1/"
   xmlns:cc="http://creativecommons.org/ns#"
   xmlns:rdf="http://www.w3.org/1999/02/22-rdf-syntax-ns#"
   xmlns:svg="http://www.w3.org/2000/svg"
   xmlns="http://www.w3.org/2000/svg"
   xmlns:sodipodi="http://sodipodi.sourceforge.net/DTD/sodipodi-0.dtd"
   xmlns:inkscape="http://www.inkscape.org/namespaces/inkscape"
   width="64px"
   height="64px"
   id="svg3471"
   version="1.1"
   inkscape:version="0.92.3 (2405546, 2018-03-11)"
   sodipodi:docname="no-events.svg">
  <defs
     id="defs3473" />
  <sodipodi:namedview
     id="base"
     pagecolor="#ffffff"
     bordercolor="#666666"
     borderopacity="1.0"
     inkscape:pageopacity="0.0"
     inkscape:pageshadow="2"
     inkscape:zoom="3.8890873"
     inkscape:cx="-16.596871"
     inkscape:cy="34.311032"
     inkscape:current-layer="layer1"
     showgrid="true"
     inkscape:document-units="px"
     inkscape:grid-bbox="true"
     inkscape:window-width="1296"
     inkscape:window-height="704"
     inkscape:window-x="70"
     inkscape:window-y="27"
     inkscape:window-maximized="0"
     inkscape:snap-page="true" />
  <metadata
     id="metadata3476">
    <rdf:RDF>
      <cc:Work
         rdf:about="">
        <dc:format>image/svg+xml</dc:format>
        <dc:type
           rdf:resource="http://purl.org/dc/dcmitype/StillImage" />
        <dc:title />
      </cc:Work>
    </rdf:RDF>
  </metadata>
  <g
     id="layer1"
     inkscape:label="Layer 1"
     inkscape:groupmode="layer">
    <g
       id="g3756"
       transform="matrix(4.0000011,0,0,4.0000011,-1767.9997,-495.99907)"
       inkscape:label="appointment">
      <rect
         transform="rotate(90)"
         y="-457.99979"
         x="123.99973"
         height="16"
         width="16"
         id="rect4782-91"
         style="color:#000000;display:inline;overflow:visible;visibility:visible;fill:none;stroke:none;stroke-width:3.99920917;marker:none;enable-background:accumulate" />
      <path
         sodipodi:nodetypes="cccccccccccccscscccccccccscscccccccccccccccccccscscccccccccscscccc"
         inkscape:connector-curvature="0"
         id="path4410"
         d="m 447.99965,123.99973 -1,0.25 v 0.75 h 1 z m 0,1 L 448,126 h -1 l -3.5e-4,-1.00027 h -0.004 -0.002 c -1.25819,0.0145 -2.17883,-0.0306 -2.93164,0.38477 -0.3764,0.20768 -0.67518,0.55942 -0.83984,0.99804 -0.16451,0.43862 -0.22252,0.95961 -0.22252,1.61719 v 5 3 c 0,0.65759 0.058,1.17856 0.22266,1.61719 0.16466,0.43862 0.46344,0.78841 0.83984,0.99609 0.75281,0.41535 1.67345,0.37218 2.93164,0.38672 h 0.002 4.00391 2.00195 0.004 c 1.25819,-0.0145 2.17883,0.0286 2.93164,-0.38672 0.37641,-0.20768 0.67324,-0.55747 0.83789,-0.99609 0.16451,-0.43863 0.22447,-0.98942 0.22447,-1.61719 v -3 -5 c 0,-0.65759 -0.06,-1.17857 -0.22461,-1.61719 -0.16465,-0.43862 -0.46148,-0.79036 -0.83789,-0.99804 -0.75281,-0.41535 -1.67345,-0.37023 -2.93164,-0.38477 h -0.004 -0.002 L 452.99986,126 h -1 l -3.5e-4,-1.00027 z m 4,0 h 1 v -1 l -1,0.25 z m -4.99414,4 h 3.99414 2 c 1.25957,0.0147 2.08705,0.0598 2.45312,0.26172 0.18338,0.10118 0.28914,0.21271 0.38672,0.47266 0.0976,0.25994 0.16016,1.26562 0.16016,1.26562 v 2 3 c 0,0.59241 -0.0626,1.00567 -0.16016,1.26562 -0.0976,0.25995 -0.20334,0.37148 -0.38672,0.47266 -0.36606,0.20198 -1.19355,0.24703 -2.45312,0.26172 h -0.006 -1.994 -3.99414 -0.006 c -1.2599,-0.0147 -2.087,-0.0597 -2.45312,-0.26172 -0.18338,-0.10118 -0.28915,-0.21271 -0.38672,-0.47266 -0.0976,-0.25995 -0.16016,-0.67321 -0.16016,-1.26562 v -3 -2 c 0,-0.59241 0.0626,-1.00568 0.16016,-1.26562 0.0976,-0.25996 0.20334,-0.37148 0.38672,-0.47266 0.36675,-0.20236 1.19544,-0.2471 2.45898,-0.26172 z"
         style="color:#000000;font-style:normal;font-variant:normal;font-weight:normal;font-stretch:normal;font-size:medium;line-height:normal;font-family:sans-serif;text-indent:0;text-align:start;text-decoration:none;text-decoration-line:none;text-decoration-style:solid;text-decoration-color:#000000;letter-spacing:normal;word-spacing:normal;text-transform:none;writing-mode:lr-tb;direction:ltr;baseline-shift:baseline;text-anchor:start;white-space:normal;clip-rule:nonzero;display:inline;overflow:visible;visibility:visible;opacity:1;isolation:auto;mix-blend-mode:normal;color-interpolation:sRGB;color-interpolation-filters:linearRGB;solid-color:#000000;solid-opacity:1;fill:#808080;fill-opacity:1;fill-rule:nonzero;stroke:none;stroke-width:4.00079155;stroke-linecap:butt;stroke-linejoin:miter;stroke-miterlimit:4;stroke-dasharray:none;stroke-dashoffset:0;stroke-opacity:1;marker:none;color-rendering:auto;image-rendering:auto;shape-rendering:auto;text-rendering:auto;enable-background:accumulate" />
    </g>
  </g>
</svg>
