<svg version="1.1" viewBox="0 0 64 64" xmlns="http://www.w3.org/2000/svg">
 <g transform="matrix(4 0 0 4 -380 -106.01)" fill="#808080" stroke-width=".25">
  <path d="m103 28.004c-1.5265 0-2.5439 0.78113-3.0723 1.8379-0.52838 1.0568-0.67496 2.3531-0.80078 3.6113s-0.22879 2.4862-0.5332 3.3164c-0.15221 0.41511-0.34711 0.71968-0.58789 0.91797-0.24078 0.19829-0.53595 0.31641-1.0059 0.31641v1h12v-1c-0.46991 0-0.76508-0.11812-1.0059-0.31641s-0.43568-0.50286-0.58789-0.91797c-0.30441-0.83022-0.40738-2.0582-0.5332-3.3164s-0.27241-2.5546-0.80078-3.6113c-0.52838-1.0568-1.5458-1.8379-3.0723-1.8379zm0 1c1.2235 0 1.7686 0.46691 2.1777 1.2852 0.40913 0.81824 0.57504 2.0219 0.69922 3.2637s0.20871 2.5158 0.5918 3.5605c0.12675 0.34569 0.36925 0.60914 0.58789 0.89062h-8.1133c0.21864-0.28148 0.46114-0.54494 0.58789-0.89062 0.38309-1.0448 0.46762-2.3188 0.5918-3.5605 0.12418-1.2418 0.29009-2.4454 0.69922-3.2637 0.40912-0.81824 0.95424-1.2852 2.1777-1.2852z" color="#000000" color-rendering="auto" dominant-baseline="auto" image-rendering="auto" shape-rendering="auto" solid-color="#000000" stop-color="#000000" style="font-feature-settings:normal;font-variant-alternates:normal;font-variant-caps:normal;font-variant-east-asian:normal;font-variant-ligatures:normal;font-variant-numeric:normal;font-variant-position:normal;font-variation-settings:normal;inline-size:0;isolation:auto;mix-blend-mode:normal;shape-margin:0;shape-padding:0;text-decoration-color:#000000;text-decoration-line:none;text-decoration-style:solid;text-indent:0;text-orientation:mixed;text-transform:none;white-space:normal"/>
  <path d="m102.28 40.003c0.34556 0.5958 0.98354 1 1.7246 1s1.379-0.4042 1.7246-1z" fill-rule="evenodd" stroke-linejoin="round" stroke-width=".5"/>
 </g>
</svg>
