<?xml version="1.0" encoding="UTF-8" standalone="no"?>
<svg
   height="16px"
   viewBox="0 0 16 16"
   width="16px"
   version="1.1"
   id="svg119"
   sodipodi:docname="screen-privacy-symbolic.svg"
   inkscape:version="1.1 (ce6663b3b7, 2021-05-25)"
   xmlns:inkscape="http://www.inkscape.org/namespaces/inkscape"
   xmlns:sodipodi="http://sodipodi.sourceforge.net/DTD/sodipodi-0.dtd"
   xmlns="http://www.w3.org/2000/svg"
   xmlns:svg="http://www.w3.org/2000/svg">
  <defs
     id="defs123" />
  <sodipodi:namedview
     id="namedview121"
     pagecolor="#ffffff"
     bordercolor="#666666"
     borderopacity="1.0"
     inkscape:pageshadow="2"
     inkscape:pageopacity="0.0"
     inkscape:pagecheckerboard="0"
     showgrid="true"
     inkscape:zoom="32"
     inkscape:cx="17.859375"
     inkscape:cy="7.046875"
     inkscape:window-width="1920"
     inkscape:window-height="1016"
     inkscape:window-x="0"
     inkscape:window-y="27"
     inkscape:window-maximized="1"
     inkscape:current-layer="svg119">
    <inkscape:grid
       type="xygrid"
       id="grid139" />
    <inkscape:grid
       type="xygrid"
       id="grid1169"
       snapvisiblegridlinesonly="true"
       dotted="true"
       spacingx="0.5"
       spacingy="0.5"
       empspacing="10" />
  </sodipodi:namedview>
  <filter
     id="a"
     height="1"
     width="1"
     x="0"
     y="0">
    <feColorMatrix
       in="SourceGraphic"
       type="matrix"
       values="0 0 0 0 1 0 0 0 0 1 0 0 0 0 1 0 0 0 1 0"
       id="feColorMatrix2" />
  </filter>
  <mask
     id="b">
    <g
       filter="url(#a)"
       id="g7">
      <path
         d="m 0 0 h 16 v 16 h -16 z"
         fill-opacity="0.3"
         id="path5" />
    </g>
  </mask>
  <clipPath
     id="c">
    <path
       d="m 0 0 h 1024 v 800 h -1024 z"
       id="path10" />
  </clipPath>
  <mask
     id="d">
    <g
       filter="url(#a)"
       id="g15">
      <path
         d="m 0 0 h 16 v 16 h -16 z"
         fill-opacity="0.05"
         id="path13" />
    </g>
  </mask>
  <clipPath
     id="e">
    <path
       d="m 0 0 h 1024 v 800 h -1024 z"
       id="path18" />
  </clipPath>
  <mask
     id="f">
    <g
       filter="url(#a)"
       id="g23">
      <path
         d="m 0 0 h 16 v 16 h -16 z"
         fill-opacity="0.05"
         id="path21" />
    </g>
  </mask>
  <clipPath
     id="g">
    <path
       d="m 0 0 h 1024 v 800 h -1024 z"
       id="path26" />
  </clipPath>
  <mask
     id="h">
    <g
       filter="url(#a)"
       id="g31">
      <path
         d="m 0 0 h 16 v 16 h -16 z"
         fill-opacity="0.05"
         id="path29" />
    </g>
  </mask>
  <clipPath
     id="i">
    <path
       d="m 0 0 h 1024 v 800 h -1024 z"
       id="path34" />
  </clipPath>
  <mask
     id="j">
    <g
       filter="url(#a)"
       id="g39">
      <path
         d="m 0 0 h 16 v 16 h -16 z"
         fill-opacity="0.05"
         id="path37" />
    </g>
  </mask>
  <clipPath
     id="k">
    <path
       d="m 0 0 h 1024 v 800 h -1024 z"
       id="path42" />
  </clipPath>
  <mask
     id="l">
    <g
       filter="url(#a)"
       id="g47">
      <path
         d="m 0 0 h 16 v 16 h -16 z"
         fill-opacity="0.05"
         id="path45" />
    </g>
  </mask>
  <clipPath
     id="m">
    <path
       d="m 0 0 h 1024 v 800 h -1024 z"
       id="path50" />
  </clipPath>
  <mask
     id="n">
    <g
       filter="url(#a)"
       id="g55">
      <path
         d="m 0 0 h 16 v 16 h -16 z"
         fill-opacity="0.05"
         id="path53" />
    </g>
  </mask>
  <clipPath
     id="o">
    <path
       d="m 0 0 h 1024 v 800 h -1024 z"
       id="path58" />
  </clipPath>
  <mask
     id="p">
    <g
       filter="url(#a)"
       id="g63">
      <path
         d="m 0 0 h 16 v 16 h -16 z"
         fill-opacity="0.3"
         id="path61" />
    </g>
  </mask>
  <clipPath
     id="q">
    <path
       d="m 0 0 h 1024 v 800 h -1024 z"
       id="path66" />
  </clipPath>
  <mask
     id="r">
    <g
       filter="url(#a)"
       id="g71">
      <path
         d="m 0 0 h 16 v 16 h -16 z"
         fill-opacity="0.5"
         id="path69" />
    </g>
  </mask>
  <clipPath
     id="s">
    <path
       d="m 0 0 h 1024 v 800 h -1024 z"
       id="path74" />
  </clipPath>
  <path
     id="path77"
     style="fill:#808080;fill-opacity:1"
     d="m 3.9941407,1 c -1.258,0.015 -2.1796406,-0.0302344 -2.9316407,0.3847657 -0.38935257,0.222149 -0.68651358,0.57611 -0.83789063,0.9980468 -0.16499999,0.439 -0.22460937,0.9601875 -0.22460937,1.6171875 v 6 c 0,0.658 0.05960938,1.179188 0.22460937,1.617188 0.16400001,0.439 0.46089063,0.790046 0.83789063,0.998046 0.752,0.416001 1.6736407,0.369766 2.9316407,0.384766 h 2.0058594 v 0.5 c 0,1.5 -0.5,1.5 -1.5,1.5 h -0.5 v 1 h 7.9999999 v -1 h -0.5 c -1,0 -1.5,0 -1.5,-1.5 v -0.5 h 2.005859 c 1.258,-0.014 2.178641,0.03023 2.931641,-0.384766 0.389352,-0.222149 0.686513,-0.57611 0.83789,-0.998046 0.164,-0.438001 0.22461,-0.960188 0.22461,-1.617188 v -6 c 0,-0.658 -0.05961,-1.1781875 -0.22461,-1.6171875 -0.151377,-0.4219367 -0.448538,-0.7758976 -0.83789,-0.9980468 -0.753,-0.41600004 -1.673641,-0.3697657 -2.931641,-0.3847657 h -8.0078122 z m 1.4824218,1 h 1.4609376 l -5.9375,5.9375 v -1.4609375 z m 3.5859376,0 h 1.6308589 l -9.4492184,9.447266 c -0.02915,-0.0517 -0.057218,-0.110627 -0.083984,-0.181641 -0.09342,-0.250404 -0.1537622,-0.647551 -0.1582031,-1.205078 z m 3.0429679,0.00195 c 0.590176,0.00812 1.087827,0.02296 1.476563,0.060547 l -9.9296872,9.929688 c -0.1749761,-0.0033 -0.3599666,-0.0061 -0.515625,-0.01172 -0.3713666,-0.01351 -0.684578,-0.03343 -0.9433594,-0.06836 z m -9.1835929,0.076172 -1.921875,1.921875 c 0,-0.148 0.0043,-0.2840312 0.011719,-0.4101562 0.022266,-0.3783751 0.075687,-0.6604688 0.1484375,-0.8554688 0.098,-0.26 0.2017656,-0.3716562 0.3847656,-0.4726562 0.2234339,-0.1236539 0.8078879,-0.1493294 1.3769529,-0.1835938 z m 11.2675779,0.087891 c 0.102499,0.027891 0.194227,0.057375 0.263672,0.095703 0.184,0.1009999 0.289719,0.2136562 0.386719,0.4726562 0.097,0.26 0.160156,0.673625 0.160156,1.265625 v 6 c 0,0.5919998 -0.06316,1.0056248 -0.160156,1.2656248 -0.098,0.26 -0.202719,0.371656 -0.386719,0.472656 -0.366,0.202 -1.194125,0.246719 -2.453125,0.261719 h -7.6484375 z m -12.5039061,9.632812 c 0.017452,0.0063 0.037905,0.01169 0.056641,0.01758 -0.012037,-0.0038 -0.027552,-0.0058 -0.039062,-0.0098 -0.00671,-0.0023 -0.011046,-0.0055 -0.017578,-0.0078 z"
     sodipodi:nodetypes="cccssccccssccccssccccsscccccccccccccccccccccccccccccccssccccccccc" />
</svg>
