<svg viewBox="0 0 48 26" xmlns="http://www.w3.org/2000/svg"><defs><filter id="a" x="-.048" y="-.048" width="1.096" height="1.096" color-interpolation-filters="sRGB"><feGaussianBlur stdDeviation="1.28"/></filter><filter id="b" x="-.027" y="-.027" width="1.054" height="1.054" color-interpolation-filters="sRGB"><feGaussianBlur stdDeviation=".72"/></filter></defs><g transform="translate(0 -291.18)"><rect transform="scale(-1 1)" x="-47.375" y="291.93" width="46.75" height="24.5" rx="11.688" ry="12.25" enable-background="new" fill="#77216f"/><circle transform="matrix(-.34152 0 0 .34277 21.593 312.3)" cx="-36.264" cy="-23.622" r="32" enable-background="new" filter="url(#a)" opacity=".2"/><circle transform="matrix(-.34097 0 0 .34097 22.135 312.73)" cx="-36.264" cy="-23.622" r="32" enable-background="new" filter="url(#b)" opacity=".1"/><circle transform="scale(-1 1)" cx="-34.75" cy="304.18" r="11" enable-background="new" fill="#b7b1aa"/><path d="M36 291.29c6.648 0 12 5.707 12 12.797v.179c0 7.09-5.352 12.797-12 12.797H12c-6.648 0-12-5.707-12-12.797v-.179c0-7.09 5.352-12.797 12-12.797zm-.333.716H12.334c-6.464 0-11.667 5.39-11.667 12.086v.17c0 6.694 5.203 12.085 11.667 12.085h23.333c6.463 0 11.667-5.39 11.667-12.086v-.17c0-6.695-5.204-12.085-11.667-12.085z" enable-background="new" fill="#77216f"/></g></svg>