<?xml version="1.0" encoding="UTF-8" standalone="no"?>
<svg
   xmlns:dc="http://purl.org/dc/elements/1.1/"
   xmlns:cc="http://creativecommons.org/ns#"
   xmlns:rdf="http://www.w3.org/1999/02/22-rdf-syntax-ns#"
   xmlns:svg="http://www.w3.org/2000/svg"
   xmlns="http://www.w3.org/2000/svg"
   xmlns:sodipodi="http://sodipodi.sourceforge.net/DTD/sodipodi-0.dtd"
   xmlns:inkscape="http://www.inkscape.org/namespaces/inkscape"
   height="40"
   width="96"
   version="1.1"
   id="svg18"
   sodipodi:docname="ws-switch-arrow-up.svg"
   inkscape:version="0.92.2 (5c3e80d, 2017-08-06)">
  <metadata
     id="metadata24">
    <rdf:RDF>
      <cc:Work
         rdf:about="">
        <dc:format>image/svg+xml</dc:format>
        <dc:type
           rdf:resource="http://purl.org/dc/dcmitype/StillImage" />
        <dc:title></dc:title>
      </cc:Work>
    </rdf:RDF>
  </metadata>
  <defs
     id="defs22" />
  <sodipodi:namedview
     pagecolor="#ffffff"
     bordercolor="#666666"
     borderopacity="1"
     objecttolerance="10"
     gridtolerance="10"
     guidetolerance="10"
     inkscape:pageopacity="0"
     inkscape:pageshadow="2"
     inkscape:window-width="1853"
     inkscape:window-height="1136"
     id="namedview20"
     showgrid="false"
     inkscape:zoom="5.2149125"
     inkscape:cx="-3.4656289"
     inkscape:cy="-5.7179732"
     inkscape:window-x="67"
     inkscape:window-y="27"
     inkscape:window-maximized="1"
     inkscape:current-layer="svg18"
     inkscape:pagecheckerboard="true" />
  <g
     transform="matrix(6,0,0,6,-2232,-218)"
     id="g16"
     style="fill:#ffffff;stroke-width:0.16666667">
    <path
       d="m 388,42 c -0.874,-0.69 -1.757,-1.397 -2.656,-2.008 -1,-0.679 -1.972,-1.287 -2.912,-1.825 C 381.564,37.67 380.658,37.297 380,37 c -0.658,0.297 -1.564,0.67 -2.432,1.167 a 44.819,44.819 0 0 0 -2.912,1.825 c -0.9,0.61 -1.782,1.317 -2.656,2.008 h 1.49 c 0.524,-0.4 1.062,-0.837 1.625,-1.222 0.71,-0.486 1.437,-0.942 2.18,-1.37 a 39.201,39.201 0 0 1 2.5,-1.285 h 10e-4 l 0.204,-0.096 0.203,0.096 c 0.71,0.334 1.747,0.852 2.501,1.285 0.744,0.428 1.47,0.884 2.181,1.37 0.562,0.385 1.1,0.822 1.625,1.222 z"
       id="path14"
       style="fill:#ffffff;stroke-width:0.16666667"
       inkscape:connector-curvature="0" />
  </g>
</svg>
