<?xml version="1.0" encoding="UTF-8" standalone="no"?>
<svg
   inkscape:export-ydpi="96"
   inkscape:export-xdpi="96"
   width="400"
   height="300"
   id="svg11300"
   sodipodi:version="0.32"
   inkscape:version="1.2.2 (b0a8486541, 2022-12-01)"
   sodipodi:docname="wine.svg"
   inkscape:output_extension="org.inkscape.output.svg.inkscape"
   version="1.0"
   style="display:inline;enable-background:new"
   inkscape:export-filename="C:\Users\sblav\Pictures\vertical oblong template.png"
   xmlns:inkscape="http://www.inkscape.org/namespaces/inkscape"
   xmlns:sodipodi="http://sodipodi.sourceforge.net/DTD/sodipodi-0.dtd"
   xmlns:xlink="http://www.w3.org/1999/xlink"
   xmlns="http://www.w3.org/2000/svg"
   xmlns:svg="http://www.w3.org/2000/svg"
   xmlns:rdf="http://www.w3.org/1999/02/22-rdf-syntax-ns#"
   xmlns:cc="http://creativecommons.org/ns#"
   xmlns:dc="http://purl.org/dc/elements/1.1/">
  <title
     id="title3004">Yaru Icon Theme Template</title>
  <sodipodi:namedview
     stroke="#ef2929"
     fill="#f57900"
     id="base"
     pagecolor="#ffffff"
     bordercolor="#000000"
     borderopacity="0.25490196"
     inkscape:pageopacity="0"
     inkscape:pageshadow="2"
     inkscape:zoom="1.4142136"
     inkscape:cx="341.17902"
     inkscape:cy="233.69879"
     inkscape:current-layer="layer8"
     showgrid="false"
     inkscape:grid-bbox="true"
     inkscape:document-units="px"
     inkscape:showpageshadow="false"
     inkscape:window-width="1854"
     inkscape:window-height="1011"
     inkscape:window-x="0"
     inkscape:window-y="0"
     width="400px"
     height="300px"
     inkscape:snap-nodes="true"
     inkscape:snap-bbox="false"
     gridtolerance="10000"
     inkscape:object-nodes="true"
     inkscape:snap-grids="true"
     showguides="true"
     inkscape:guide-bbox="true"
     inkscape:window-maximized="1"
     inkscape:bbox-paths="true"
     inkscape:snap-bbox-midpoints="true"
     inkscape:snap-global="true"
     inkscape:object-paths="true"
     inkscape:snap-intersection-paths="true"
     inkscape:snap-smooth-nodes="true"
     inkscape:pagecheckerboard="false"
     showborder="false"
     inkscape:document-rotation="0"
     inkscape:bbox-nodes="true"
     inkscape:deskcolor="#d1d1d1">
    <inkscape:grid
       spacingy="1"
       spacingx="1"
       id="grid5883"
       type="xygrid"
       enabled="true"
       visible="true"
       empspacing="4"
       snapvisiblegridlinesonly="true"
       originx="0"
       originy="0" />
    <inkscape:grid
       type="xygrid"
       id="grid11592"
       empspacing="2"
       visible="true"
       enabled="false"
       spacingx="0.5"
       spacingy="0.5"
       color="#ff0000"
       opacity="0.1254902"
       empcolor="#ff0000"
       empopacity="0.25098039"
       snapvisiblegridlinesonly="true"
       originx="0"
       originy="0" />
  </sodipodi:namedview>
  <defs
     id="defs3">
    <linearGradient
       inkscape:collect="always"
       id="linearGradient938">
      <stop
         id="stop934"
         offset="0"
         style="stop-color:#e6e6e6;stop-opacity:1" />
      <stop
         id="stop936"
         offset="1"
         style="stop-color:#f7f7f7;stop-opacity:1" />
    </linearGradient>
    <linearGradient
       inkscape:collect="always"
       id="linearGradient931">
      <stop
         id="stop927"
         offset="0"
         style="stop-color:#e6e6e6;stop-opacity:1" />
      <stop
         id="stop929"
         offset="1"
         style="stop-color:#f7f7f7;stop-opacity:1" />
    </linearGradient>
    <linearGradient
       inkscape:collect="always"
       id="linearGradient1332">
      <stop
         id="stop1328"
         offset="0"
         style="stop-color:#e6e6e6;stop-opacity:1" />
      <stop
         id="stop1330"
         offset="1"
         style="stop-color:#f7f7f7;stop-opacity:1" />
    </linearGradient>
    <linearGradient
       inkscape:collect="always"
       id="linearGradient962">
      <stop
         style="stop-color:#7b0619;stop-opacity:1;"
         offset="0"
         id="stop958" />
      <stop
         style="stop-color:#bb0212;stop-opacity:1"
         offset="1"
         id="stop960" />
    </linearGradient>
    <linearGradient
       inkscape:collect="always"
       id="linearGradient956">
      <stop
         id="stop952"
         offset="0"
         style="stop-color:#e6e6e6;stop-opacity:1" />
      <stop
         id="stop954"
         offset="1"
         style="stop-color:#f7f7f7;stop-opacity:1" />
    </linearGradient>
    <linearGradient
       inkscape:collect="always"
       id="linearGradient927">
      <stop
         style="stop-color:#ffffff;stop-opacity:1;"
         offset="0"
         id="stop923" />
      <stop
         id="stop933"
         offset="0.125"
         style="stop-color:#ffffff;stop-opacity:0.09803922" />
      <stop
         id="stop931"
         offset="0.92500001"
         style="stop-color:#ffffff;stop-opacity:0.09803922" />
      <stop
         style="stop-color:#ffffff;stop-opacity:0.49803922"
         offset="1"
         id="stop925" />
    </linearGradient>
    <linearGradient
       inkscape:collect="always"
       xlink:href="#linearGradient931"
       id="linearGradient1686"
       x1="320.99991"
       y1="92.000153"
       x2="366.99991"
       y2="76.000153"
       gradientUnits="userSpaceOnUse"
       gradientTransform="matrix(0,0.91107977,-0.91107977,0,420.53198,-229.41124)" />
    <linearGradient
       inkscape:collect="always"
       xlink:href="#linearGradient938"
       id="linearGradient1688"
       x1="321.00003"
       y1="153.00002"
       x2="351.00003"
       y2="143.00002"
       gradientUnits="userSpaceOnUse"
       gradientTransform="matrix(0,0.93333092,-0.93333092,0,474.13296,-165.59924)" />
    <linearGradient
       inkscape:collect="always"
       xlink:href="#linearGradient4338-7"
       id="linearGradient1690"
       x1="320.9993"
       y1="202.99928"
       x2="342.9993"
       y2="196.99928"
       gradientUnits="userSpaceOnUse"
       gradientTransform="matrix(0,0.91669417,-0.91669417,0,515.33815,-104.34145)" />
    <linearGradient
       inkscape:collect="always"
       xlink:href="#linearGradient1332"
       id="linearGradient1692"
       x1="320.00031"
       y1="247.00034"
       x2="336.00031"
       y2="241.00034"
       gradientUnits="userSpaceOnUse"
       gradientTransform="matrix(0,1.0096562,-1.0096562,0,574.35612,-87.095146)" />
    <linearGradient
       inkscape:collect="always"
       id="linearGradient4338-7">
      <stop
         id="stop4342-6"
         offset="0"
         style="stop-color:#e6e6e6;stop-opacity:1" />
      <stop
         id="stop4340-2"
         offset="1"
         style="stop-color:#f7f7f7;stop-opacity:1" />
    </linearGradient>
    <linearGradient
       inkscape:collect="always"
       xlink:href="#linearGradient927"
       id="linearGradient1692-6"
       x1="321.00031"
       y1="244.00034"
       x2="335.00031"
       y2="244.00034"
       gradientUnits="userSpaceOnUse"
       gradientTransform="rotate(90,328.00032,244.00001)" />
    <linearGradient
       inkscape:collect="always"
       xlink:href="#linearGradient927"
       id="linearGradient1690-9"
       x1="320.9993"
       y1="199.99928"
       x2="342.9993"
       y2="199.99928"
       gradientUnits="userSpaceOnUse"
       gradientTransform="matrix(0,0.90910168,-0.90910168,0,513.81945,-101.82143)" />
    <linearGradient
       inkscape:collect="always"
       xlink:href="#linearGradient927"
       id="linearGradient1688-4"
       x1="322"
       y1="148.00002"
       x2="350"
       y2="148.00002"
       gradientUnits="userSpaceOnUse"
       gradientTransform="matrix(0,0.92854551,-0.9285521,0,473.42601,-163.99167)" />
    <linearGradient
       inkscape:collect="always"
       xlink:href="#linearGradient927"
       id="linearGradient1686-0"
       x1="321.99991"
       y1="84.000153"
       x2="365.99991"
       y2="84.000153"
       gradientUnits="userSpaceOnUse"
       gradientTransform="rotate(90,344.00003,84.000125)" />
    <filter
       inkscape:collect="always"
       style="color-interpolation-filters:sRGB"
       id="filter58449"
       x="-0.051691593"
       width="1.1033832"
       y="-0.051692927"
       height="1.1033859">
      <feGaussianBlur
         inkscape:collect="always"
         stdDeviation="4.4800539"
         id="feGaussianBlur58451" />
    </filter>
    <filter
       inkscape:collect="always"
       style="color-interpolation-filters:sRGB"
       id="filter58492"
       x="-0.012922898"
       width="1.0258458"
       y="-0.012923232"
       height="1.0258465">
      <feGaussianBlur
         inkscape:collect="always"
         stdDeviation="1.1200135"
         id="feGaussianBlur58494" />
    </filter>
    <linearGradient
       inkscape:collect="always"
       xlink:href="#linearGradient956"
       id="linearGradient943"
       gradientUnits="userSpaceOnUse"
       gradientTransform="rotate(90,151.9973,155.9997)"
       x1="39.997601"
       y1="155.99699"
       x2="263.99759"
       y2="155.99699" />
    <linearGradient
       inkscape:collect="always"
       xlink:href="#linearGradient962"
       id="linearGradient964"
       x1="160"
       y1="166"
       x2="160"
       y2="268"
       gradientUnits="userSpaceOnUse"
       gradientTransform="matrix(0.92849922,0,0,0.92849922,10.872691,11.161909)" />
    <linearGradient
       inkscape:collect="always"
       xlink:href="#linearGradient962"
       id="linearGradient942"
       gradientUnits="userSpaceOnUse"
       x1="359"
       y1="85"
       x2="359"
       y2="107"
       gradientTransform="matrix(0.91107977,0,0,0.91107977,30.589693,1.4694178)" />
    <linearGradient
       inkscape:collect="always"
       xlink:href="#linearGradient962"
       id="linearGradient963"
       gradientUnits="userSpaceOnUse"
       x1="344.00003"
       y1="148"
       x2="344.00003"
       y2="163"
       gradientTransform="matrix(0.93333092,0,0,0.93333092,22.400758,9.8669872)" />
    <linearGradient
       inkscape:collect="always"
       xlink:href="#linearGradient962"
       id="linearGradient976"
       gradientUnits="userSpaceOnUse"
       x1="340.62308"
       y1="196.76363"
       x2="340.13086"
       y2="209.79834"
       gradientTransform="matrix(0.91669417,0,0,0.91669417,27.65747,16.66158)" />
    <linearGradient
       id="linearGradient4481">
      <stop
         id="stop4483"
         offset="0"
         style="stop-color:#a40000;stop-opacity:1" />
      <stop
         style="stop-color:#f57900;stop-opacity:1"
         offset="0.15978512"
         id="stop4491" />
      <stop
         style="stop-color:#edd400;stop-opacity:1"
         offset="0.34338808"
         id="stop4489" />
      <stop
         id="stop4495"
         offset="0.5544045"
         style="stop-color:#73d216;stop-opacity:1" />
      <stop
         style="stop-color:#3465a4;stop-opacity:1"
         offset="1"
         id="stop4499" />
      <stop
         id="stop4485"
         offset="1"
         style="stop-color:#5c3566;stop-opacity:1" />
    </linearGradient>
    <linearGradient
       inkscape:collect="always"
       xlink:href="#linearGradient962"
       id="linearGradient1427"
       gradientUnits="userSpaceOnUse"
       gradientTransform="matrix(1.0096995,0,0,0.99998143,-3.181234,-1.9954766)"
       x1="332.00003"
       y1="244.00002"
       x2="332.00003"
       y2="252.00002" />
    <linearGradient
       inkscape:collect="always"
       xlink:href="#linearGradient962"
       id="linearGradient2603"
       gradientUnits="userSpaceOnUse"
       gradientTransform="matrix(0.93333092,0,0,0.93333092,22.427785,5.866956)"
       x1="344.00003"
       y1="148"
       x2="344.00003"
       y2="163" />
    <linearGradient
       inkscape:collect="always"
       xlink:href="#linearGradient962"
       id="linearGradient2907"
       gradientUnits="userSpaceOnUse"
       x1="160"
       y1="166"
       x2="160"
       y2="268"
       gradientTransform="matrix(0.92849922,0,0,0.92849922,10.872691,11.161909)" />
  </defs>
  <metadata
     id="metadata4">
    <rdf:RDF>
      <cc:Work
         rdf:about="">
        <dc:format>image/svg+xml</dc:format>
        <dc:type
           rdf:resource="http://purl.org/dc/dcmitype/StillImage" />
        <dc:creator>
          <cc:Agent>
            <dc:title>Yaru Team, based on the Suru template by Sam Hewitt and original Suru designs by Matthieu James</dc:title>
          </cc:Agent>
        </dc:creator>
        <dc:source />
        <cc:license
           rdf:resource="http://creativecommons.org/licenses/by-sa/4.0/" />
        <dc:title>Yaru Icon Theme Template</dc:title>
        <dc:subject>
          <rdf:Bag />
        </dc:subject>
        <dc:date />
        <dc:rights>
          <cc:Agent>
            <dc:title />
          </cc:Agent>
        </dc:rights>
        <dc:publisher>
          <cc:Agent>
            <dc:title />
          </cc:Agent>
        </dc:publisher>
        <dc:identifier />
        <dc:relation />
        <dc:language />
        <dc:coverage />
        <dc:description />
        <dc:contributor>
          <cc:Agent>
            <dc:title />
          </cc:Agent>
        </dc:contributor>
      </cc:Work>
      <cc:Work
         rdf:about="">
        <dc:format>image/svg+xml</dc:format>
        <dc:type
           rdf:resource="http://purl.org/dc/dcmitype/StillImage" />
      </cc:Work>
      <cc:License
         rdf:about="http://creativecommons.org/licenses/by-sa/4.0/">
        <cc:permits
           rdf:resource="http://creativecommons.org/ns#Reproduction" />
        <cc:permits
           rdf:resource="http://creativecommons.org/ns#Distribution" />
        <cc:requires
           rdf:resource="http://creativecommons.org/ns#Notice" />
        <cc:requires
           rdf:resource="http://creativecommons.org/ns#Attribution" />
        <cc:permits
           rdf:resource="http://creativecommons.org/ns#DerivativeWorks" />
        <cc:requires
           rdf:resource="http://creativecommons.org/ns#ShareAlike" />
      </cc:License>
    </rdf:RDF>
  </metadata>
  <g
     style="display:inline"
     inkscape:groupmode="layer"
     inkscape:label="Icon"
     id="layer1">
    <g
       style="display:none"
       inkscape:label="Baseplate"
       id="layer7"
       inkscape:groupmode="layer"
       sodipodi:insensitive="true">
      <text
         y="-8.2548828"
         xml:space="preserve"
         x="19.006836"
         style="font-style:normal;font-variant:normal;font-weight:normal;font-stretch:normal;line-height:0%;font-family:'DejaVu Sans';-inkscape-font-specification:'DejaVu Sans';display:inline;fill:#000000;fill-opacity:1;stroke:none;enable-background:new"
         inkscape:label="context"
         id="context"><tspan
           style="font-style:normal;font-variant:normal;font-weight:normal;font-stretch:normal;font-size:18px;line-height:1.25;font-family:'DejaVu Sans';-inkscape-font-specification:'DejaVu Sans'"
           y="-8.2548828"
           x="19.006836"
           sodipodi:role="line"
           id="tspan3933">apps</tspan></text>
      <text
         y="-8.2548828"
         xml:space="preserve"
         x="231.34375"
         style="font-style:normal;font-variant:normal;font-weight:bold;font-stretch:normal;font-size:18.6667px;line-height:0%;font-family:'DejaVu Sans';-inkscape-font-specification:'DejaVu Sans, Bold';font-variant-ligatures:normal;font-variant-caps:normal;font-variant-numeric:normal;font-variant-east-asian:normal;text-align:start;writing-mode:lr-tb;text-anchor:start;display:inline;fill:#000000;fill-opacity:1;stroke:none;enable-background:new"
         inkscape:label="icon-name"
         id="icon-name"><tspan
           sodipodi:role="line"
           id="tspan970"
           x="231.34375"
           y="-8.2548828">wine</tspan></text>
      <rect
         style="display:inline;overflow:visible;visibility:visible;fill:#cdcdcd;fill-opacity:1;fill-rule:nonzero;stroke:none;stroke-width:2;marker:none;enable-background:accumulate"
         id="rect16x16"
         width="16"
         height="16"
         x="320"
         y="236"
         inkscape:label="16x16" />
      <rect
         style="display:inline;overflow:visible;visibility:visible;fill:#cdcdcd;fill-opacity:1;fill-rule:nonzero;stroke:none;stroke-width:2;marker:none;enable-background:accumulate"
         id="rect24x24"
         width="24"
         height="24"
         x="320"
         y="188"
         inkscape:label="24x24" />
      <rect
         style="display:inline;overflow:visible;visibility:visible;fill:#cdcdcd;fill-opacity:1;fill-rule:nonzero;stroke:none;stroke-width:2;marker:none;enable-background:accumulate"
         id="rect32x32"
         width="32"
         height="32"
         x="320"
         y="132"
         inkscape:label="32x32" />
      <rect
         inkscape:label="48x48"
         y="60"
         x="320"
         height="48"
         width="48"
         id="rect48x48"
         style="display:inline;overflow:visible;visibility:visible;fill:#cdcdcd;fill-opacity:1;fill-rule:nonzero;stroke:none;stroke-width:2;marker:none;enable-background:accumulate" />
      <rect
         style="display:inline;overflow:visible;visibility:visible;fill:#cdcdcd;fill-opacity:1;fill-rule:nonzero;stroke:none;stroke-width:2;marker:none;enable-background:accumulate"
         id="rect3951"
         width="256"
         height="256"
         x="24"
         y="28"
         inkscape:label="48x48" />
    </g>
    <g
       inkscape:groupmode="layer"
       id="layer9"
       inkscape:label="Optional outline for white icons"
       style="display:inline">
      <path
         style="color:#000000;display:inline;overflow:visible;visibility:visible;opacity:0.2;fill:#000000;fill-opacity:1;fill-rule:nonzero;stroke:#000000;stroke-width:4;stroke-miterlimit:4;stroke-dasharray:none;marker:none;enable-background:accumulate"
         d="m 217.07297,51.99969 c 35.29673,0 39.09461,3.62542 38.92162,38.99353 v 65.00647 65.00648 c 0.17299,35.36812 -3.62489,38.99353 -38.92162,38.99353 H 86.916218 c -35.29671,0 -38.92161,-3.625 -38.92161,-38.99353 V 155.99969 90.99322 c 0,-35.36853 3.6249,-38.99353 38.92161,-38.99353 z"
         id="rect4158-9"
         inkscape:connector-curvature="0"
         sodipodi:nodetypes="scccssscsss" />
    </g>
    <g
       inkscape:groupmode="layer"
       id="layer8"
       inkscape:label="Backgrounds"
       style="display:inline">
      <path
         style="color:#000000;display:inline;overflow:visible;visibility:visible;opacity:0.1;fill:#000000;fill-opacity:1;fill-rule:nonzero;stroke:none;stroke-width:1;marker:none;filter:url(#filter58492);enable-background:accumulate"
         d="m 217.07297,52.99999 c 35.29673,0 39.09461,3.62542 38.92162,38.99353 v 65.00647 65.00648 C 256.16758,257.37459 252.3697,261 217.07297,261 H 86.916218 c -35.29671,0 -38.92161,-3.625 -38.92161,-38.99353 V 156.99999 91.99352 c 0,-35.36853 3.6249,-38.99353 38.92161,-38.99353 z"
         id="rect4158-7"
         inkscape:connector-curvature="0"
         sodipodi:nodetypes="scccssscsss" />
      <path
         style="color:#000000;display:inline;overflow:visible;visibility:visible;opacity:0.2;fill:#000000;fill-opacity:1;fill-rule:nonzero;stroke:none;stroke-width:1;marker:none;filter:url(#filter58449);enable-background:accumulate"
         d="m 217.07297,52.99999 c 35.29673,0 39.09461,3.62542 38.92162,38.99353 v 65.00647 65.00648 C 256.16758,257.37459 252.3697,261 217.07297,261 H 86.916218 c -35.29671,0 -38.92161,-3.625 -38.92161,-38.99353 V 156.99999 91.99352 c 0,-35.36853 3.6249,-38.99353 38.92161,-38.99353 z"
         id="rect4158-1"
         inkscape:connector-curvature="0"
         sodipodi:nodetypes="scccssscsss" />
      <path
         style="color:#000000;display:inline;overflow:visible;visibility:visible;opacity:0.1;fill:#000000;fill-opacity:1;fill-rule:nonzero;stroke:none;stroke-width:1;marker:none;enable-background:accumulate"
         d="m 324.12858,237.00001 c -3.74357,0 -4.14638,0.30899 -4.12803,3.32331 v 4.17669 4.17668 c -0.0183,3.01433 0.38446,3.32332 4.12803,3.32332 h 7.74335 c 3.7436,0 4.12805,-0.30895 4.12805,-3.32332 v -4.17668 -4.17669 c 0,-3.01437 -0.38446,-3.32331 -4.12805,-3.32331 z"
         id="path918-2"
         inkscape:connector-curvature="0"
         sodipodi:nodetypes="scccssscsss" />
      <path
         style="color:#000000;font-style:normal;font-variant:normal;font-weight:normal;font-stretch:normal;font-size:medium;line-height:normal;font-family:sans-serif;font-variant-ligatures:normal;font-variant-position:normal;font-variant-caps:normal;font-variant-numeric:normal;font-variant-alternates:normal;font-feature-settings:normal;text-indent:0;text-align:start;text-decoration:none;text-decoration-line:none;text-decoration-style:solid;text-decoration-color:#000000;letter-spacing:normal;word-spacing:normal;text-transform:none;writing-mode:lr-tb;direction:ltr;text-orientation:mixed;dominant-baseline:auto;baseline-shift:baseline;text-anchor:start;white-space:normal;shape-padding:0;clip-rule:nonzero;display:inline;overflow:visible;visibility:visible;opacity:0.1;isolation:auto;mix-blend-mode:normal;color-interpolation:sRGB;color-interpolation-filters:linearRGB;solid-color:#000000;solid-opacity:1;vector-effect:none;fill:#000000;fill-opacity:1;fill-rule:nonzero;stroke:none;stroke-width:1.83339;stroke-linecap:butt;stroke-linejoin:miter;stroke-miterlimit:4;stroke-dasharray:none;stroke-dashoffset:0;stroke-opacity:1;marker:none;color-rendering:auto;image-rendering:auto;shape-rendering:auto;text-rendering:auto;enable-background:accumulate"
         d="m 326.91484,189.91717 c -1.12946,0 -2.03202,0.0203 -2.81424,0.12966 -0.78223,0.10943 -1.49246,0.32573 -2.0265,0.76972 -0.53403,0.44401 -0.79737,1.03936 -0.92758,1.6921 -0.13019,0.65275 -0.15127,1.40473 -0.14573,2.34859 v 7.97642 4.2299 c -0.005,0.94201 0.0157,1.69345 0.14573,2.3453 0.13019,0.65276 0.39354,1.24809 0.92758,1.69209 0.53405,0.444 1.24427,0.6603 2.0265,0.76973 0.78222,0.10941 1.68478,0.12965 2.81424,0.12965 h 10.17111 c 1.12946,0 2.02938,-0.0202 2.81031,-0.12965 0.7809,-0.10952 1.49233,-0.32711 2.02452,-0.77136 0.5322,-0.44427 0.79249,-1.03725 0.92364,-1.6888 C 342.97557,208.75895 343,208.00668 343,207.06356 v -4.22989 -7.97971 c 0,-0.94313 -0.0244,-1.69539 -0.15558,-2.34695 -0.13115,-0.65155 -0.39144,-1.24455 -0.92364,-1.68881 -0.53219,-0.44426 -1.2436,-0.66185 -2.02452,-0.77137 -0.78093,-0.10952 -1.68084,-0.12966 -2.81031,-0.12966 z"
         id="path995"
         inkscape:connector-curvature="0"
         sodipodi:nodetypes="sccccccccssscccscscccss" />
      <path
         style="color:#000000;font-style:normal;font-variant:normal;font-weight:normal;font-stretch:normal;font-size:medium;line-height:normal;font-family:sans-serif;font-variant-ligatures:normal;font-variant-position:normal;font-variant-caps:normal;font-variant-numeric:normal;font-variant-alternates:normal;font-feature-settings:normal;text-indent:0;text-align:start;text-decoration:none;text-decoration-line:none;text-decoration-style:solid;text-decoration-color:#000000;letter-spacing:normal;word-spacing:normal;text-transform:none;writing-mode:lr-tb;direction:ltr;text-orientation:mixed;dominant-baseline:auto;baseline-shift:baseline;text-anchor:start;white-space:normal;shape-padding:0;clip-rule:nonzero;display:inline;overflow:visible;visibility:visible;opacity:0.1;isolation:auto;mix-blend-mode:normal;color-interpolation:sRGB;color-interpolation-filters:linearRGB;solid-color:#000000;solid-opacity:1;vector-effect:none;fill:#000000;fill-opacity:1;fill-rule:nonzero;stroke:none;stroke-width:1.86666;stroke-linecap:butt;stroke-linejoin:miter;stroke-miterlimit:4;stroke-dasharray:none;stroke-dashoffset:0;stroke-opacity:1;marker:none;color-rendering:auto;image-rendering:auto;shape-rendering:auto;text-rendering:auto;enable-background:accumulate"
         d="m 329.74753,135 c -1.53019,0 -2.74476,0.0287 -3.77537,0.17865 -1.0306,0.14993 -1.92917,0.44109 -2.59754,1.019 -0.66836,0.57791 -1.00846,1.35904 -1.17992,2.25313 -0.17149,0.89408 -0.20101,1.94791 -0.19351,3.27758 v 7.2716 7.27707 c -0.008,1.32656 0.0223,2.37953 0.19351,3.27212 0.17146,0.8941 0.51156,1.67522 1.17992,2.25313 0.66837,0.57791 1.56694,0.86907 2.59754,1.019 1.03061,0.14994 2.24518,0.17865 3.77537,0.17865 h 12.50816 c 1.53019,0 2.74246,-0.0286 3.77117,-0.17865 1.0287,-0.15003 1.92521,-0.44263 2.59123,-1.02083 0.666,-0.5782 1.00293,-1.35672 1.17571,-2.24947 0.1728,-0.89276 0.20613,-1.94509 0.20613,-3.27395 v -7.27707 -7.27706 c 0,-1.32886 -0.0334,-2.38119 -0.20613,-3.27395 -0.17278,-0.89276 -0.50971,-1.67127 -1.17571,-2.24947 -0.66602,-0.57821 -1.56253,-0.8708 -2.59123,-1.02083 C 344.99815,135.02861 343.78588,135 342.25569,135 Z"
         id="path999"
         inkscape:connector-curvature="0"
         sodipodi:nodetypes="scscccccscsscccscscscss" />
      <path
         style="color:#000000;font-style:normal;font-variant:normal;font-weight:normal;font-stretch:normal;font-size:medium;line-height:normal;font-family:sans-serif;font-variant-ligatures:normal;font-variant-position:normal;font-variant-caps:normal;font-variant-numeric:normal;font-variant-alternates:normal;font-feature-settings:normal;text-indent:0;text-align:start;text-decoration:none;text-decoration-line:none;text-decoration-style:solid;text-decoration-color:#000000;letter-spacing:normal;word-spacing:normal;text-transform:none;writing-mode:lr-tb;direction:ltr;text-orientation:mixed;dominant-baseline:auto;baseline-shift:baseline;text-anchor:start;white-space:normal;shape-padding:0;clip-rule:nonzero;display:inline;overflow:visible;visibility:visible;opacity:0.1;isolation:auto;mix-blend-mode:normal;color-interpolation:sRGB;color-interpolation-filters:linearRGB;solid-color:#000000;solid-opacity:1;vector-effect:none;fill:#000000;fill-opacity:1;fill-rule:nonzero;stroke:none;stroke-width:2;stroke-linecap:butt;stroke-linejoin:miter;stroke-miterlimit:4;stroke-dasharray:none;stroke-dashoffset:0;stroke-opacity:1;marker:none;color-rendering:auto;image-rendering:auto;shape-rendering:auto;text-rendering:auto;enable-background:accumulate"
         d="m 335.65776,64 c -2.6221,0 -4.68675,0.05009 -6.38561,0.286735 -1.69887,0.236639 -3.08904,0.680503 -4.10735,1.523515 -1.0183,0.843013 -1.55577,1.996072 -1.83828,3.406406 -0.28252,1.410336 -0.33767,3.127346 -0.32482,5.308412 v 10.474816 10.480783 c -0.0127,2.177715 0.0426,3.893853 0.32482,5.302673 0.28251,1.41034 0.81998,2.5634 1.83828,3.40641 1.01831,0.84301 2.40848,1.28688 4.10735,1.52351 1.69888,0.23665 3.76351,0.28674 6.38561,0.28674 h 16.68618 c 2.62213,0 4.68568,-0.05 6.38104,-0.28674 1.69534,-0.23674 3.08126,-0.6821 4.09581,-1.52542 1.01457,-0.84331 1.54885,-1.99555 1.83367,-3.4045 C 364.93929,99.37441 365,97.660878 365,95.480667 V 84.999884 74.519333 c 0,-2.180211 -0.0608,-3.893733 -0.34554,-5.302677 -0.28482,-1.408942 -0.81911,-2.561177 -1.83368,-3.404494 -1.01455,-0.843317 -2.40047,-1.288685 -4.09582,-1.525427 C 357.02962,64.049992 354.96605,64 352.34394,64 Z"
         id="path1020"
         inkscape:connector-curvature="0"
         sodipodi:nodetypes="sccsccccccsscccscsccsss" />
      <path
         id="path914"
         style="color:#000000;display:inline;overflow:visible;visibility:visible;fill:url(#linearGradient1690);fill-opacity:1;fill-rule:nonzero;stroke:none;stroke-width:0.916694;marker:none;enable-background:accumulate"
         d="m 326.66273,189.45839 c -4.71791,0 -5.22607,0.39589 -5.20295,4.26477 v 5.36052 2.92733 c 0.005,0.006 2.26231,2.63371 7.52692,2.63371 5.27017,0 8.28108,-4.51723 10.91618,-4.51723 2.63508,0 2.63549,1.88173 2.63549,1.88173 v 4.34534 c 6e-5,-0.0284 0.002,-0.0482 0.002,-0.077 v -7.1939 -5.36052 c 0,-3.86892 -0.48505,-4.26477 -5.20296,-4.26477 z" />
      <path
         style="color:#000000;display:inline;overflow:visible;visibility:visible;fill:url(#linearGradient1692);fill-opacity:1;fill-rule:nonzero;stroke:none;stroke-width:1;marker:none;enable-background:accumulate"
         d="m 324.37055,236.49999 c -3.5096,0 -3.88723,0.31197 -3.87003,3.3554 v 4.21702 4.21701 c -0.0172,3.04344 0.36043,3.35541 3.87003,3.35541 h 7.25939 c 3.50962,0 3.87004,-0.31193 3.87004,-3.35541 v -4.21701 -4.21702 c 0,-3.04347 -0.36043,-3.3554 -3.87004,-3.3554 z"
         id="path918"
         inkscape:connector-curvature="0"
         sodipodi:nodetypes="scccssscsss" />
      <path
         id="path964-7"
         style="color:#000000;display:inline;overflow:visible;visibility:visible;fill:url(#linearGradient1688);fill-opacity:1;fill-rule:nonzero;stroke:none;stroke-width:0.933331;marker:none;enable-background:accumulate"
         d="m 329.58514,134.46667 c -6.02151,0 -7.15012,0.54601 -7.11847,5.8643 v 7.66899 2.42812 c 0.0324,0.0353 2.92561,3.17187 9.65414,3.17187 6.76647,0 10.63309,-5.6001 14.01637,-5.59999 3.38329,1.2e-4 3.38151,2.41718 3.38151,2.41718 v 5.25182 c 0,4.42598 -0.8049,5.53443 -4.52994,5.78592 3.738,-0.24928 4.54452,-1.35395 4.54452,-5.78592 v -7.669 -7.66899 c 0,-5.31834 -1.09846,-5.8643 -7.11847,-5.8643 z" />
      <path
         id="path938"
         style="color:#000000;display:inline;overflow:visible;visibility:visible;fill:url(#linearGradient943);fill-opacity:1;fill-rule:nonzero;stroke:none;stroke-width:1;marker:none;enable-background:accumulate"
         d="M 86.910156,52 C 51.613446,52 47.981855,55.625612 47.988281,90.994141 L 48.011721,212 H 256 L 255.9883,90.994141 C 256.16129,55.626031 252.36511,52 217.06838,52 Z"
         sodipodi:nodetypes="sscccss" />
      <path
         id="path1334"
         style="color:#000000;display:inline;overflow:visible;visibility:visible;fill:url(#linearGradient1427);fill-opacity:1;fill-rule:nonzero;stroke:none;stroke-width:1;marker:none;enable-background:accumulate"
         d="m 333.62695,242 c -1.87514,0 -4.01725,3.18359 -7.76757,3.18359 -3.7503,0 -5.35938,-1.85742 -5.35938,-1.85742 v 4.84961 c -0.002,0.28642 0.006,0.52795 0.0137,0.76758 0.001,0.1109 0.008,0.2036 0.0117,0.30469 0.10309,1.72229 0.62063,2.14755 2.66992,2.23242 0.37577,0.006 0.68346,0.0195 1.17578,0.0195 h 7.25977 c 0.4387,0 0.82809,-0.005 1.17383,-0.0195 2.0545,-0.0852 2.56098,-0.51116 2.66797,-2.25 0.003,-0.0718 0.008,-0.13821 0.01,-0.21485 0.0109,-0.25759 0.0176,-0.52645 0.0176,-0.83984 v -4.84961 c 0,0 0.002,-1.32617 -1.87305,-1.32617 z"
         sodipodi:nodetypes="sscccccsscccscss" />
      <path
         id="path959"
         style="color:#000000;display:inline;overflow:visible;visibility:visible;fill:url(#linearGradient963);fill-opacity:1;fill-rule:nonzero;stroke:none;stroke-width:0.933331;marker:none;enable-background:accumulate"
         d="m 332.1354,153.59989 c -6.76649,0 -9.66691,-3.1828 -9.66691,-3.1828 l -0.002,5.25187 c -1e-5,0.004 2e-5,0.006 0,0.009 -0.0302,5.30879 1.10082,5.8552 7.11847,5.8552 h 12.82966 c 6.02002,0 7.11847,-0.54597 7.11847,-5.86431 v -5.25187 c 0,0 0.002,-2.41718 -3.38142,-2.41729 -3.38329,-1.1e-4 -7.24993,5.59987 -14.0164,5.59987 z"
         sodipodi:nodetypes="scccsssccs" />
      <path
         id="path974"
         style="color:#000000;display:inline;overflow:visible;visibility:visible;fill:url(#linearGradient976);fill-opacity:1;fill-rule:nonzero;stroke:none;stroke-width:0.916694;marker:none;enable-background:accumulate"
         d="m 339.90467,197.03365 c -2.72616,0.034 -5.64554,4.36069 -10.91572,4.36069 -5.27017,0 -7.52917,-2.47896 -7.52917,-2.47896 v 7.3622 c -0.0232,3.86887 0.48504,4.26656 5.20295,4.26656 h 10.67448 c 4.71791,0 5.20296,-0.39763 5.20296,-4.26656 v -7.3622 c 0,0 -6.6e-4,-1.91457 -2.6355,-1.88173 z"
         sodipodi:nodetypes="ssccssscs" />
      <path
         id="path959-3"
         style="color:#000000;display:inline;overflow:visible;visibility:visible;fill:url(#linearGradient2603);fill-opacity:1;fill-rule:nonzero;stroke:none;stroke-width:0.933331;marker:none;enable-background:accumulate"
         d="m 332.16243,149.59987 c -6.76649,0 -9.66691,-3.18281 -9.66691,-3.18281 l -0.002,9.25187 c -2e-5,0.004 2e-5,0.006 0,0.009 -0.0302,5.30879 1.10082,5.8552 7.11847,5.8552 h 12.82966 c 6.02001,0 7.11847,-0.54596 7.11847,-5.86431 v -9.25187 c 0,0 0.002,-2.41718 -3.38142,-2.41729 -3.38329,-1.1e-4 -7.24993,5.59988 -14.0164,5.59988 z"
         sodipodi:nodetypes="scccsssccss" />
    </g>
    <g
       inkscape:groupmode="layer"
       id="layer6"
       inkscape:label="Pictograms and folds"
       style="display:inline">
      <path
         id="path964"
         style="color:#000000;display:inline;overflow:visible;visibility:visible;fill:url(#linearGradient1686);fill-opacity:1;fill-rule:nonzero;stroke:none;stroke-width:0.91108;marker:none;enable-background:accumulate"
         d="m 334.28533,63.500824 c -9.12096,0 -10.7849,1.431411 -10.78171,8.881248 v 11.618046 4.571414 c 0,0 4.39195,5.124824 14.64135,5.124824 10.2494,0 16.10763,-8.785158 21.23242,-8.785158 5.12479,0 5.12127,3.660334 5.12127,3.660334 v 7.165856 c 9e-5,-0.04167 0.002,-0.07716 0.002,-0.119223 V 84.000118 72.382072 c 0,-8.104714 -2.49825,-8.881248 -10.78174,-8.881248 z m 30.19375,33.544462 c -0.0288,0.897136 -0.0887,1.688268 -0.19218,2.384469 0.10341,-0.696219 0.16337,-1.487328 0.19218,-2.384469 z m -0.19218,2.384469 c -0.15511,1.044295 -0.40704,1.876705 -0.79364,2.539285 0.38661,-0.66261 0.63853,-1.49497 0.79364,-2.539285 z m -0.79364,2.539285 c -0.12886,0.22085 -0.27394,0.42209 -0.43418,0.60678 0.16059,-0.18496 0.30509,-0.38553 0.43418,-0.60678 z m -37.39697,1.51964 c 0.46473,0.24355 1.00701,0.4303 1.63709,0.57299 -0.63007,-0.14268 -1.17237,-0.32946 -1.63709,-0.57299 z m 35.79369,0 c -0.46296,0.24353 -1.00191,0.43032 -1.62998,0.57299 0.62745,-0.14254 1.16732,-0.3298 1.62998,-0.57299 z"
         sodipodi:nodetypes="scccssccscsssccccccccccccccc" />
      <path
         id="path940"
         style="color:#000000;display:inline;overflow:visible;visibility:visible;fill:url(#linearGradient942);fill-opacity:1;fill-rule:nonzero;stroke:none;stroke-width:0.91108;marker:none;enable-background:accumulate"
         d="m 338.14497,87.696356 c -10.2494,0 -14.64135,-5.124824 -14.64135,-5.124824 l -0.002,2.261685 h 0.002 v 10.784948 c -9.1e-4,7.330575 1.66075,8.881245 10.78171,8.881245 h 19.43341 c 8.26578,0 10.78192,-0.79296 10.7817,-8.881245 v 0.68153 h -0.002 V 82.571532 c 0,0 0.004,-3.660334 -5.12114,-3.660334 -5.12479,0 -10.9831,8.785158 -21.2325,8.785158 z"
         sodipodi:nodetypes="sccccsscccccss" />
      <path
         style="color:#000000;display:inline;overflow:visible;visibility:visible;opacity:0.15;fill:#ffffff;fill-opacity:1;fill-rule:nonzero;stroke:none;stroke-width:0.999998;marker:none;enable-background:accumulate"
         d="m 152.0671,260.99458 h 8.00001 57.00586 c 35.36853,0 38.99414,-3.62508 38.99414,-38.92094 V 91.920931 c 0,-35.295889 -3.62602,-39.093927 -38.99414,-38.920941 h -57.00586 -8.00001 z"
         id="rect4158-5"
         inkscape:connector-curvature="0"
         sodipodi:nodetypes="ccssscccc" />
    </g>
    <g
       inkscape:groupmode="layer"
       id="layer4"
       inkscape:label="Borders"
       style="display:inline;opacity:1">
      <path
         style="color:#000000;display:inline;overflow:visible;visibility:visible;opacity:0.3;fill:#ffffff;fill-opacity:1;fill-rule:nonzero;stroke:none;stroke-width:1;marker:none;enable-background:accumulate"
         d="m 86.92188,51.999698 c -35.296728,0 -39.09487,3.62603 -38.92188,38.99414 v 2 c -0.17299,-35.36811 3.625152,-38.99414 38.92188,-38.99414 h 130.15624 c 35.29673,0 38.92188,3.62561 38.92188,38.99414 v -2 c 0,-35.36853 -3.62515,-38.99414 -38.92188,-38.99414 z"
         id="path931"
         inkscape:connector-curvature="0"
         sodipodi:nodetypes="sccsscsss" />
      <path
         style="color:#000000;display:inline;overflow:visible;visibility:visible;opacity:0.2;fill:#000000;fill-opacity:1;fill-rule:nonzero;stroke:none;stroke-width:1;marker:none;enable-background:accumulate"
         d="m 86.92728,259.9997 c -35.296731,0 -39.094875,-3.62603 -38.921885,-38.99414 v -2 c -0.17299,35.36811 3.625154,38.99414 38.921885,38.99414 h 130.15624 c 35.29673,0 38.92188,-3.62561 38.92188,-38.99414 v 2 c 0,35.36853 -3.62515,38.99414 -38.92188,38.99414 z"
         id="path931-8"
         inkscape:connector-curvature="0"
         sodipodi:nodetypes="sccsscsss" />
      <path
         style="color:#000000;display:inline;overflow:visible;visibility:visible;opacity:0.5;fill:none;fill-opacity:1;fill-rule:nonzero;stroke:#000000;stroke-width:1;stroke-miterlimit:4;stroke-dasharray:none;stroke-opacity:1;marker:none;enable-background:accumulate"
         d="m 335.33517,63.500047 c -10.01116,0 -11.88667,0.90635 -11.83407,9.74838 V 84 94.75181 c -0.0527,8.84203 1.82291,9.74838 11.83407,9.74838 h 17.3308 c 10.00866,0 11.83405,-0.90625 11.83405,-9.74838 V 84 73.248427 c 0,-8.84213 -1.82539,-9.74838 -11.83406,-9.74838 z"
         id="path958"
         inkscape:connector-curvature="0"
         sodipodi:nodetypes="scccssscsss" />
      <path
         style="color:#000000;display:inline;overflow:visible;visibility:visible;opacity:0.5;fill:none;fill-opacity:1;fill-rule:nonzero;stroke:#000000;stroke-width:0.933331;stroke-miterlimit:4;stroke-dasharray:none;stroke-opacity:1;marker:none;enable-background:accumulate"
         d="m 329.58529,134.46667 c -6.02151,0 -7.1496,0.54514 -7.11795,5.86343 v 7.66979 7.66994 c -0.0317,5.31828 1.09644,5.86343 7.11795,5.86343 h 12.83004 c 6.02001,0 7.11795,-0.54509 7.11795,-5.86343 v -7.66994 -7.66979 c 0,-5.31834 -1.09794,-5.86343 -7.11795,-5.86343 z"
         id="path958-1"
         inkscape:connector-curvature="0"
         sodipodi:nodetypes="scccssscsss" />
      <path
         style="color:#000000;display:inline;overflow:visible;visibility:visible;opacity:0.5;fill:none;fill-opacity:1;fill-rule:nonzero;stroke:#000000;stroke-width:0.916694;stroke-miterlimit:4;stroke-dasharray:none;stroke-opacity:1;marker:none;enable-background:accumulate"
         d="m 337.47868,210.54249 c 4.28267,0 5.08499,-0.38772 5.06249,-4.17025 v -7.28806 -5.4551 c 0.0225,-3.78253 -0.77982,-4.17025 -5.06249,-4.17025 h -10.95783 c -4.28162,0 -5.0625,0.38768 -5.0625,4.17025 v 5.4551 7.28806 c 0,3.78257 0.78088,4.17025 5.0625,4.17025 z"
         id="path958-6"
         inkscape:connector-curvature="0"
         sodipodi:nodetypes="scccssscsss" />
      <path
         style="color:#000000;display:inline;overflow:visible;visibility:visible;opacity:0.5;fill:none;fill-opacity:1;fill-rule:nonzero;stroke:#000000;stroke-width:1;stroke-miterlimit:4;stroke-dasharray:none;stroke-opacity:1;marker:none;enable-background:accumulate"
         d="m 331.55494,251.5 c 3.33705,0 3.96221,-0.30212 3.94468,-3.24946 v -4.2505 -4.25059 c 0.0175,-2.94734 -0.60763,-3.24945 -3.94468,-3.24945 h -7.11025 c -3.33622,0 -3.94469,0.30208 -3.94469,3.24945 v 4.25059 4.2505 c 0,2.94738 0.60847,3.24946 3.94469,3.24946 z"
         id="path958-6-0"
         inkscape:connector-curvature="0"
         sodipodi:nodetypes="scccssscsss" />
      <text
         xml:space="preserve"
         style="font-size:14.6667px;line-height:0.7;font-family:Cantarell;-inkscape-font-specification:Cantarell;text-align:center;letter-spacing:0px;text-anchor:middle;opacity:0.2;fill:#ffffff;stroke:#ffffff;stroke-width:8;stroke-linecap:round;stroke-linejoin:round;stop-color:#000000"
         x="280"
         y="-7.9905596"
         id="text18591"><tspan
           sodipodi:role="line"
           id="tspan18589"></tspan></text>
    </g>
    <g
       inkscape:groupmode="layer"
       id="layer5"
       inkscape:label="Highlights"
       style="opacity:0.5">
      <path
         style="color:#000000;display:inline;overflow:visible;visibility:visible;opacity:1;fill:url(#linearGradient1692-6);fill-opacity:1;fill-rule:nonzero;stroke:none;stroke-width:1;marker:none;enable-background:accumulate"
         d="m 324.44531,237 c -1.65302,0 -2.54604,0.12548 -2.91601,0.41406 -0.18499,0.14429 -0.30479,0.33122 -0.39649,0.70313 C 321.0411,238.4891 321,239.03036 321,239.75 v 4.25 4.25 c 0,0.71964 0.0411,1.26082 0.13281,1.63281 0.0917,0.37191 0.2115,0.55884 0.39649,0.70313 0.36997,0.28858 1.26299,0.41406 2.91601,0.41406 h 7.10938 c 1.65343,0 2.55203,-0.12511 2.92383,-0.41406 0.18589,-0.14448 0.30578,-0.33208 0.39648,-0.70313 0.0907,-0.37105 0.129,-0.90979 0.125,-1.6289 v -0.002 V 244 v -4.25195 -0.002 c 0.004,-0.71911 -0.0343,-1.25785 -0.125,-1.6289 -0.0907,-0.37105 -0.21059,-0.55865 -0.39648,-0.70313 C 334.10673,237.12512 333.20812,237 331.55469,237 Z m 5.32813,1.04688 c 1.10767,-3.4e-4 2.21363,0.008 3.32031,0.0449 0.26616,0.0599 0.75737,-0.0208 0.79297,0.3457 0.13405,1.84438 0.0662,3.68774 0.10156,5.53906 -0.0126,1.86745 0.0543,3.67031 -0.10351,5.49805 0.0642,0.42314 -0.43946,0.35577 -0.70313,0.42187 -3.43277,0.0703 -6.87577,0.0589 -10.29883,0.002 -0.22288,-0.0398 -0.55622,-3.2e-4 -0.71093,-0.1875 -0.19863,-1.12995 -0.12696,-2.26946 -0.16016,-3.41992 0.0138,-2.55648 -0.029,-5.10728 0.0898,-7.65625 -0.03,-0.2727 0.10944,-0.49629 0.40039,-0.48829 1.30659,-0.161 2.63265,-0.0636 3.94727,-0.0976 1.10718,0.006 2.21655,-0.002 3.32422,-0.002 z"
         id="path918-6"
         inkscape:connector-curvature="0" />
      <path
         style="color:#000000;display:inline;overflow:visible;visibility:visible;opacity:1;fill:url(#linearGradient1688-4);fill-opacity:1;fill-rule:nonzero;stroke:none;stroke-width:0.928549;marker:none;enable-background:accumulate"
         d="m 329.61829,135 c -2.98132,0 -4.67299,0.1812 -5.51327,0.83424 -0.42015,0.32653 -0.68879,0.77335 -0.86689,1.50163 -0.17806,0.72829 -0.245,1.72418 -0.23757,3.03047 v 0.002 7.63148 7.63148 0.002 c -0.007,1.3063 0.0595,2.30219 0.23757,3.03047 0.17809,0.72827 0.44674,1.17511 0.86689,1.50164 0.84029,0.65304 2.53195,0.83424 5.51327,0.83424 h 12.76397 c 2.98058,0 4.66562,-0.18155 5.50239,-0.83424 0.4184,-0.32635 0.68533,-0.77256 0.86508,-1.50164 0.1798,-0.72918 0.25027,-1.72739 0.25027,-3.03418 v -7.62968 -7.62967 c 0,-1.30678 -0.0704,-2.30499 -0.25027,-3.03409 -0.17975,-0.72907 -0.44668,-1.17528 -0.86508,-1.50163 -0.83677,-0.6527 -2.52181,-0.83424 -5.50239,-0.83424 z m 6.03379,0.97208 c 3.2095,0.0159 6.42019,-0.0249 9.62102,0.0853 0.76244,0.12328 1.67757,0.13775 2.21982,0.76714 0.63033,1.08149 0.47631,2.40289 0.52413,3.59629 0.04,5.59814 0.063,11.20495 -0.0308,16.79544 -0.0719,0.72233 -0.11193,1.55311 -0.63112,2.1128 -0.6523,0.47391 -1.50269,0.55418 -2.2833,0.62568 -3.75823,0.0802 -7.57904,0.0424 -11.36569,0.0563 -2.27669,-0.0185 -4.56292,0.0294 -6.82813,-0.0563 -0.8151,-0.11193 -1.77817,-0.13019 -2.37759,-0.77439 -0.60148,-0.9526 -0.46674,-2.14053 -0.5205,-3.21727 -0.0325,-5.25162 -0.0326,-10.5438 0,-15.79434 0.0587,-1.13424 -0.10088,-2.39307 0.54952,-3.39137 0.55944,-0.58187 1.44502,-0.59414 2.1908,-0.71817 2.54185,-0.0997 5.08924,-0.0654 7.63879,-0.0853 0.43088,-2.7e-4 0.86221,-0.002 1.29309,-0.002 z"
         id="path964-7-2"
         inkscape:connector-curvature="0" />
      <path
         style="color:#000000;display:inline;overflow:visible;visibility:visible;opacity:1;fill:url(#linearGradient1686-0);fill-opacity:1;fill-rule:nonzero;stroke:none;stroke-width:1;marker:none;enable-background:accumulate"
         d="m 335.33594,64 c -4.99049,0 -7.87051,0.276282 -9.38477,1.453125 -0.75713,0.588421 -1.23761,1.403518 -1.54492,2.660156 -0.3073,1.256638 -0.4173,2.940031 -0.4043,5.132813 V 84 94.753906 c -0.0131,2.19278 0.097,3.876174 0.4043,5.132814 0.30731,1.25663 0.78779,2.07172 1.54492,2.66016 1.51427,1.17683 4.39428,1.45312 9.38477,1.45312 h 17.33008 c 4.98923,0 7.85502,-0.27668 9.36328,-1.45312 0.75412,-0.58824 1.23293,-1.40461 1.54297,-2.66211 C 363.8823,98.62727 364,96.945281 364,94.751953 V 84 73.248047 c 0,-2.193329 -0.1177,-3.875313 -0.42773,-5.132813 -0.31004,-1.257499 -0.78884,-2.073874 -1.54297,-2.662109 C 360.52104,64.276656 357.65526,64 352.66602,64 Z m 2.40234,1.097656 c 6.94737,8.3e-4 9.91063,0.0034 16.84961,0.05469 2.14296,0.08293 4.46431,-0.147701 6.42383,0.93164 1.29609,0.695228 1.54862,2.250325 1.76953,3.564454 0.17551,2.202888 0.0915,4.442228 0.13867,6.669921 0.0227,8.479532 0.077,12.968993 -0.0801,21.447266 -0.16151,1.483233 -0.38135,3.305793 -1.79882,4.142573 -1.6055,0.82871 -3.47551,0.90643 -5.24805,0.95313 -9.49974,0.0678 -15.0243,0.0843 -24.52344,-0.0176 -1.57816,-0.11413 -3.27053,-0.24014 -4.63281,-1.12109 -1.22952,-0.99538 -1.36082,-2.72739 -1.50391,-4.193361 -0.1272,-8.998585 -0.0836,-14.004484 -0.0527,-23.007813 0.0997,-2.381275 -0.24538,-4.900002 0.70508,-7.160156 0.67165,-1.50972 2.46573,-1.859954 3.93945,-2.05664 2.78259,-0.310459 5.62506,-0.16041 8.01366,-0.207014 z"
         id="path964-3"
         inkscape:connector-curvature="0"
         sodipodi:nodetypes="ssscccssssssscsssssccccccccccccccc" />
      <path
         style="color:#000000;display:inline;overflow:visible;visibility:visible;opacity:1;fill:url(#linearGradient1690-9);fill-opacity:1;fill-rule:nonzero;stroke:none;stroke-width:0.909101;marker:none;enable-background:accumulate"
         d="m 326.56682,190 c -2.10936,0 -3.28132,0.14086 -3.82462,0.56463 -0.27165,0.2119 -0.44513,0.49699 -0.56818,0.99612 C 322.05091,192.05987 322,192.75863 322,193.6808 v 5.41023 7.22811 c 0,0.92217 0.0509,1.62093 0.17402,2.12005 0.12305,0.49913 0.29653,0.78422 0.56818,0.99611 0.5433,0.42378 1.71526,0.56464 3.82462,0.56464 h 10.86595 c 2.10989,0 3.28778,-0.14052 3.8335,-0.56464 0.27286,-0.21206 0.44632,-0.49776 0.56819,-0.99611 0.12185,-0.49833 0.17059,-1.19658 0.16513,-2.11828 v -7.22988 -5.412 c 0.005,-0.9217 -0.0432,-1.61994 -0.16513,-2.11828 -0.12187,-0.49834 -0.29533,-0.78405 -0.56819,-0.99612 C 340.72055,190.14053 339.54266,190 337.43277,190 Z m 4.50786,0.91798 c 1.43621,-0.002 3.782,-3.4e-4 5.21816,0.0106 1.36385,0.0464 2.74763,-0.0648 4.09097,0.25747 0.50101,0.0835 0.5573,0.6528 0.61612,1.06002 0.10154,3.9167 0.0681,9.66019 0.0462,13.58296 -0.065,0.90083 0.12443,1.88735 -0.27344,2.73973 -0.31232,0.3724 -0.88128,0.32689 -1.31925,0.41373 -3.59466,0.0748 -9.02681,0.0453 -12.6309,0.0337 -1.06281,-0.0565 -2.15722,0.10266 -3.19783,-0.20242 -0.52669,-0.0891 -0.55792,-0.69013 -0.62501,-1.10974 -0.10418,-3.74399 -0.0682,-9.31348 -0.0497,-13.0627 0.052,-0.96642 -0.0725,-1.97034 0.16512,-2.92262 0.0954,-0.58056 0.7831,-0.60041 1.24292,-0.67295 1.93684,-0.17871 4.76434,-0.0969 6.71669,-0.12784 z"
         id="path914-6"
         inkscape:connector-curvature="0"
         sodipodi:nodetypes="sccscsccsscccccccssccccccccccccccc" />
    </g>
    <g
       inkscape:groupmode="layer"
       id="layer2"
       inkscape:label="Emblem">
      <path
         id="path948"
         style="color:#000000;display:inline;overflow:visible;visibility:visible;fill:url(#linearGradient964);fill-opacity:1;fill-rule:nonzero;stroke:none;stroke-width:0.928499;marker:none;enable-background:accumulate"
         d="m 84.140704,259.9997 c -32.772968,0 -36.147877,-3.36638 -36.138926,-36.20603 l 0.01088,-39.93091 c 0,0 22.283981,25.99798 74.279942,25.99798 51.99595,0 81.70793,-44.56796 107.70591,-44.56796 25.99797,0 25.98709,18.56998 25.98709,18.56998 v 39.93091 c 0.16062,32.83926 -3.36413,36.20603 -36.13711,36.20603 z"
         sodipodi:nodetypes="ssczzccss" />
      <path
         id="path948-74"
         style="color:#000000;display:inline;overflow:visible;visibility:visible;fill:url(#linearGradient2907);fill-opacity:1;fill-rule:nonzero;stroke:none;stroke-width:0.928499;marker:none;enable-background:accumulate"
         d="m 84.140704,259.9997 c -32.772968,0 -36.143396,-3.36638 -36.138926,-36.20603 l 0.01088,-79.93091 c 0,0 22.283981,25.99798 74.279942,25.99798 51.99595,0 81.70793,-44.56796 107.70591,-44.56796 25.99798,0 25.98709,18.56998 25.98709,18.56998 v 79.93091 c 0.16062,32.83926 -3.36413,36.20603 -36.13711,36.20603 z"
         sodipodi:nodetypes="ssczzccss" />
    </g>
  </g>
</svg>
