<?xml version="1.0" encoding="UTF-8" standalone="no"?>
<svg
   xmlns:dc="http://purl.org/dc/elements/1.1/"
   xmlns:cc="http://creativecommons.org/ns#"
   xmlns:rdf="http://www.w3.org/1999/02/22-rdf-syntax-ns#"
   xmlns:svg="http://www.w3.org/2000/svg"
   xmlns="http://www.w3.org/2000/svg"
   xmlns:sodipodi="http://sodipodi.sourceforge.net/DTD/sodipodi-0.dtd"
   xmlns:inkscape="http://www.inkscape.org/namespaces/inkscape"
   width="16"
   height="16"
   version="1.1"
   id="svg10"
   sodipodi:docname="gtk-index.svg"
   inkscape:version="0.92.4 (5da689c313, 2019-01-14)">
  <metadata
     id="metadata16">
    <rdf:RDF>
      <cc:Work
         rdf:about="">
        <dc:format>image/svg+xml</dc:format>
        <dc:type
           rdf:resource="http://purl.org/dc/dcmitype/StillImage" />
        <dc:title />
      </cc:Work>
    </rdf:RDF>
  </metadata>
  <defs
     id="defs14" />
  <sodipodi:namedview
     pagecolor="#ffffff"
     bordercolor="#666666"
     borderopacity="1"
     objecttolerance="10"
     gridtolerance="10"
     guidetolerance="10"
     inkscape:pageopacity="0"
     inkscape:pageshadow="2"
     inkscape:window-width="1294"
     inkscape:window-height="704"
     id="namedview12"
     showgrid="false"
     inkscape:zoom="22.627417"
     inkscape:cx="11.279822"
     inkscape:cy="6.8064396"
     inkscape:window-x="72"
     inkscape:window-y="27"
     inkscape:window-maximized="1"
     inkscape:current-layer="svg10"
     inkscape:document-rotation="0">
    <inkscape:grid
       type="xygrid"
       id="grid819" />
  </sodipodi:namedview>
  <path
     style="fill:#e72662;fill-opacity:1;stroke-width:1.15384614"
     d="M 1,1 V 4 H 4 V 1 Z m 5,1 v 1 h 9 V 2 Z M 1,6 V 9 H 4 V 6 Z m 5,1 v 1 h 9 V 7 Z m -5,4 v 3 h 3 v -3 z m 5,1 v 1 h 9 v -1 z"
     id="path2"
     inkscape:connector-curvature="0"
     sodipodi:nodetypes="cccccccccccccccccccccccccccccc" />
  <path
     style="opacity:0.3;fill:#eaf5ff;fill-opacity:1;stroke-width:1.15384614"
     d="M 1,1 V 2 H 4 V 1 Z M 1,6 V 7 H 4 V 6 Z m 0,5 v 1 h 3 v -1 z"
     id="path824"
     inkscape:connector-curvature="0"
     sodipodi:nodetypes="ccccccccccccccc" />
  <path
     style="opacity:0.2;fill:#000000;fill-opacity:1;stroke-width:1.15384614"
     d="M 1,3 V 4 H 4 V 3 Z M 1,8 V 9 H 4 V 8 Z m 0,5 v 1 h 3 v -1 z"
     id="path829"
     inkscape:connector-curvature="0"
     sodipodi:nodetypes="ccccccccccccccc" />
</svg>
