<svg version="1.1" viewBox="0 0 16 16" xmlns="http://www.w3.org/2000/svg" xmlns:osb="http://www.openswatchbook.org/uri/2009/osb">
 <path d="m10.842 1.01c-0.97171 0.037804-1.9331 0.42526-2.6719 1.1641-1.0431 1.0431-1.3837 2.5268-1.0293 3.8613l-5.4168 5.4168c-0.045311 0.03783-0.088369 0.07861-0.13086 0.1211-0.77686 0.77686-0.77881 2.0532-0.00195 2.8301 0.77686 0.77686 2.0532 0.77492 2.8301-2e-3 0.00142-0.0014 0.00254-0.0024 0.00388-0.0039l0.00587 0.0039 5.536-5.536c1.3346 0.35446 2.8178 0.0103 3.8613-1.0332 1.3145-1.3145 1.5209-3.3278 0.61719-4.8613l-2.0352 2.0312-1.4121-1.4121 2.0332-2.0332c-0.67071-0.39428-1.4337-0.57628-2.1895-0.54688zm0.01758 0.99414c0.10292-0.00453 0.2057-0.00409 0.30859 0.00195l-1.584 1.584 2.8281 2.8281 2e-3 -1.41e-5 1.584-1.582c0.04535 0.82049-0.24837 1.6566-0.87891 2.2871-0.92798 0.92798-2.3002 1.1272-3.416 0.5918l-0.12111 0.11913-0.00199-0.00197-4.6414 4.6434c-0.086526-0.33192-0.25925-0.64402-0.51758-0.90234-0.25597-0.25596-0.56403-0.42834-0.89258-0.51562l4.0242-4.0262 0.00198 0.00198 0.73241-0.73439c-0.53572-1.1172-0.33939-2.4926 0.58789-3.4199 0.55252-0.55252 1.2639-0.84331 1.9844-0.875zm-1.2793 3.207c-0.12857 2.8e-6 -0.25573 0.049882-0.35352 0.14844-0.19192 0.19644-0.19104 0.51166 0.0039 0.70508l0.70508 0.70313c0.19342 0.19496 0.50862 0.19777 0.70508 0.00586 0.19712-0.19556 0.19711-0.51341 0-0.70898l-0.70508-0.70508c-0.09779-0.098554-0.2269-0.14844-0.35547-0.14844zm-6.5633 6.7742c0.55228 0 1 0.44771 1 1 7e-7 0.55228-0.44771 1-1 1-0.55228 3e-6 -1-0.44771-1-1 4e-7 -0.55229 0.44771-1 1-1z" color="#000000" fill="#808080" fill-rule="evenodd" stroke-linecap="round" stroke-linejoin="round" stroke-width="3.7795" style="-inkscape-stroke:none"/>
</svg>
