<svg version="1.1" viewBox="0 0 16 16" xmlns="http://www.w3.org/2000/svg">
 <g transform="translate(5 111.64)">
  <path d="m5.8069-105.73 0.033495 0.83746c0.70899 0.47453 1.3622 1.284 1.9595 2.4284 0.58059 1.0942 0.87089 2.0098 0.8709 2.7467-1.48e-5 0.70344-0.18983 1.0552-0.56944 1.0552h-10.082c-0.48012 0-0.72017-0.29308-0.72017-0.87928-3.3e-6 -0.72573 0.29867-1.6692 0.89603-2.8304 0.63084-1.217 1.2924-2.0572 1.9847-2.5206v-0.83746l0.55269-0.0837 0.41033 0.72017h3.6846l0.39358-0.72017m0.55269 3.5171c-1.14e-5 -0.45219-0.30985-0.81787-0.92952-1.097-0.50804-0.22886-1.1193-0.34329-1.8339-0.34334-0.69227 5e-5 -1.3036 0.12005-1.8339 0.3601-0.63085 0.26797-0.94628 0.62808-0.94627 1.0803-6.2e-6 0.45777 0.31542 0.82063 0.94627 1.0886 0.53035 0.24011 1.1417 0.36011 1.8339 0.36011 0.69225 0 1.3036-0.12 1.8339-0.36011 0.61967-0.26797 0.92951-0.63083 0.92952-1.0886m-0.42708-0.55271c-1.14e-5 0.18427-0.13679 0.27636-0.41033 0.27636-0.29031 0-0.43546-0.0921-0.43545-0.27636-1.06e-5 -0.19537 0.14514-0.29307 0.43545-0.29307 0.27354 0 0.41032 0.0977 0.41033 0.29307m-0.87928-0.42708c-1.06e-5 0.19541-0.14237 0.29312-0.42708 0.29312-0.27356 0-0.41034-0.0977-0.41033-0.29312-9.5e-6 -0.1786 0.13677-0.26793 0.41033-0.26797 0.28471 4e-5 0.42707 0.0894 0.42708 0.26797m1.1472 1.1054c-1.14e-5 0.19537-0.14237 0.29308-0.42708 0.29308-0.27356 0-0.41034-0.0977-0.41033-0.29308-1.05e-5 -0.18426 0.13677-0.27634 0.41033-0.27634 0.28471 0 0.42707 0.0921 0.42708 0.27634m-2.4285-1.2226c-9.5e-6 0.19542-0.14516 0.29312-0.43545 0.29312-0.27356 0-0.41034-0.0977-0.41033-0.29312-8.1e-6 -0.18423 0.13677-0.27631 0.41033-0.27631 0.29029 0 0.43544 0.0921 0.43545 0.27631m1.8507 1.8758c-1.1e-5 0.18985-0.14237 0.28474-0.42708 0.28474-0.27356 0-0.41034-0.095-0.41033-0.28474-1.04e-5 -0.18422 0.13677-0.27631 0.41033-0.27631 0.28471 0 0.42707 0.0921 0.42708 0.27631m-0.30984-0.79553c-1.08e-5 0.24568-0.20657 0.46339-0.61968 0.65319-0.3573 0.15072-0.73414 0.22609-1.1305 0.22609-0.38522 0-0.75088-0.0753-1.097-0.22609-0.40196-0.17308-0.60294-0.39079-0.60293-0.65319-7.1e-6 -0.2512 0.21772-0.45219 0.65318-0.60291 0.3517-0.11168 0.72295-0.16746 1.1138-0.16751 0.3852 5e-5 0.74528 0.0614 1.0803 0.18427 0.40195 0.13396 0.60292 0.32937 0.60293 0.58615m-2.7299-0.78714c-8.1e-6 0.18423-0.13678 0.27636-0.41033 0.27636-0.28473 0-0.42709-0.0921-0.42708-0.27636-7.6e-6 -0.19542 0.14235-0.29308 0.42708-0.29312 0.27355 4e-5 0.41032 0.0977 0.41033 0.29312m1.993 1.9177c-1e-5 0.1898-0.14237 0.2847-0.42708 0.2847-0.27356 0-0.41034-0.095-0.41033-0.2847-9e-6 -0.18421 0.13677-0.27635 0.41033-0.27635 0.28471 0 0.42707 0.0921 0.42708 0.27635m-2.7132-1.3231c-7.1e-6 0.18427-0.13678 0.27636-0.41033 0.27636-0.28473 0-0.42708-0.0921-0.42708-0.27636-6.67e-6 -0.1898 0.14235-0.28469 0.42708-0.28469 0.27355 0 0.41032 0.0948 0.41033 0.28469m1.3566 1.2729c-9.1e-6 0.18422-0.13679 0.27635-0.41033 0.27635-0.28473 0-0.42709-0.0921-0.42708-0.27635-7.5e-6 -0.18979 0.14235-0.28469 0.42708-0.28474 0.27354 5e-5 0.41032 0.095 0.41033 0.28474m-1.1138-0.4187c-7.6e-6 0.18422-0.13678 0.27635-0.41033 0.27635-0.28473 0-0.42709-0.0921-0.42708-0.27635-6.66e-6 -0.18979 0.14235-0.28469 0.42708-0.28474 0.27355 5e-5 0.41032 0.0949 0.41033 0.28474" fill="#888a85"/>
  <path d="m11-105.58c-1.6e-5 0.32587-0.17059 0.54229-0.51171 0.64917-0.21386 0.0662-0.58555 0.0993-1.1151 0.0993-0.61101 0-1.054-0.0382-1.3289-0.11457-0.42771-0.11201-0.65683-0.34876-0.68737-0.7103 0.76883 0.0866 1.5224 0.12987 2.2607 0.12987 0.46332 0 0.92412-0.0178 1.3824-0.0535m0-0.25969c-0.4379 0.0356-0.78668 0.0535-1.0463 0.0535-0.21896 0-1.1482-0.0484-2.7877-0.14512-0.061111-0.3462-0.43026-0.56006-1.1074-0.64157l-0.53462-0.0763c-0.71793-0.14768-1.8998-0.2215-2.5464-0.2215-0.62119 0-1.8039 0.0738-2.5473 0.2215l-0.50407 0.0763c-0.66192 0.0764-1.026 0.29024-1.0922 0.64157-0.5499 0.0968-1.3213 0.14512-2.3142 0.14512-0.59572 0-1.1023-0.0178-1.5199-0.0535 0.056007-1.0132 0.49898-1.7031 1.3289-2.0697 0.5499-0.24949 1.5453-0.44296 2.9863-0.58048 1.0489-0.1018 2.6135-0.15272 3.6929-0.15272 2.9684 0 5.5225 0.2444 6.663 0.7332 0.85538 0.35641 1.2984 1.0463 1.3289 2.0697m-12.342 0.18334c-0.030554 0.35133-0.29023 0.59321-0.77902 0.72555-0.30041 0.0662-0.75866 0.0993-1.3747 0.0993-0.46843 0-0.81212-0.0408-1.0311-0.12222-0.3055-0.11709-0.45825-0.32586-0.45825-0.62627 0.44806 0.0304 0.86049 0.0458 1.2373 0.0458 0.82484 0 1.6268-0.0408 2.4058-0.12222" fill="#808080"/>
 </g>
</svg>
