<svg version="1.1" viewBox="0 0 16 16" xmlns="http://www.w3.org/2000/svg">
 <g fill="#808080">
  <g>
   <g fill-rule="evenodd" stroke-linecap="square" stroke-linejoin="round" stroke-width=".75">
    <rect x="-8.9453" y="7.8125" width="2" height="1"/>
    <rect x="-9.9453" y="9.8125" width="2.5" height="1"/>
    <rect x="-9.9453" y="11.812" width="2.5" height="1"/>
    <path d="m-8.9453 5.8125a1.5 1.5 0 0 0-1.5 1.5 1.5 1.5 0 0 0 1.5 1.5v-1a0.5 0.5 0 0 1-0.5-0.5 0.5 0.5 0 0 1 0.48828-0.5 0.5 0.5 0 0 1 0.011719 0z"/>
    <path d="m-9.9453 7.8125a1.5 1.5 0 0 0-1.5 1.5 1.5 1.5 0 0 0 1.5 1.5v-1a0.5 0.5 0 0 1-0.5-0.5 0.5 0.5 0 0 1 0.48828-0.5 0.5 0.5 0 0 1 0.01172 0z"/>
    <path d="m-10.445 9.8125a1.5 1.5 0 0 0-1.5 1.5 1.5 1.5 0 0 0 1.5 1.5v-1a0.5 0.5 0 0 1-0.5-0.5 0.5 0.5 0 0 1 0.48828-0.5 0.5 0.5 0 0 1 0.01172 0z"/>
    <rect x="-10.445" y="8.3125" width="2" height=".5"/>
    <path d="m-10.945 11.812a1.5 1.5 0 0 0-1.5 1.5 1.5 1.5 0 0 0 1.5 1.5v-1a0.5 0.5 0 0 1-0.5-0.5 0.5 0.5 0 0 1 0.48828-0.5 0.5 0.5 0 0 1 0.01172 0z"/>
    <rect x="-10.445" y="10.312" width="1" height=".5"/>
    <rect x="-10.445" y="11.812" width="1" height="1"/>
    <rect x="-10.945" y="12.312" width=".5" height=".5"/>
   </g>
   <path d="m-12.945 0.8125h-0.37s-0.06545 0.22443-0.10461 0.3418l-1 3c-0.46323 1.3897-0.9353 2.2965-1.5801 2.8457s-1.5094 0.8125-2.9453 0.8125h-0.5v4.5c0 0.80556 0.13006 1.4621 0.58398 1.916 0.45392 0.45392 1.1105 0.58398 1.916 0.58398h7c0.80556 0 1.5341-0.1245 2.1035-0.53125 0.56946-0.40676 0.89648-1.1076 0.89648-1.9688l-0.0039 0.0625 0.5-4c0.0026-0.020731 0.0039-0.041605 0.0039-0.0625 0-0.80556-0.13006-1.4621-0.58398-1.916-0.45392-0.45392-1.1105-0.58398-1.916-0.58398h-2.3379l0.81836-2.8633c0.17824-0.62384 0.0078-1.2083-0.3125-1.5762-0.32029-0.36789-0.73848-0.56055-1.168-0.56055zm0.36133 1h0.63867c0.07051 0 0.29067 0.075066 0.41406 0.2168 0.12339 0.14173 0.20195 0.3088 0.10547 0.64648l-1 3.5c-0.0484 0.17036-0.01953 0.63672-0.01953 0.63672h3.5c0.69444 0 1.0379 0.11994 1.209 0.29102 0.16971 0.16971 0.28716 0.51589 0.28906 1.1992l-0.49414 3.9473c-0.0026 0.02073-0.0039 0.04161-0.0039 0.0625 0 0.63889-0.17297 0.938-0.47852 1.1562-0.30555 0.21824-0.82705 0.34375-1.5215 0.34375h-7c-0.69444 0-1.0379-0.11994-1.209-0.29102-0.17108-0.17108-0.29102-0.51454-0.29102-1.209v-3.5605c1.2896-0.068218 2.3311-0.34265 3.0937-0.99219 0.86805-0.73933 1.3954-1.8327 1.8809-3.2891z" color="#000000" color-rendering="auto" dominant-baseline="auto" image-rendering="auto" shape-rendering="auto" solid-color="#000000" stop-color="#000000" style="font-feature-settings:normal;font-variant-alternates:normal;font-variant-caps:normal;font-variant-east-asian:normal;font-variant-ligatures:normal;font-variant-numeric:normal;font-variant-position:normal;font-variation-settings:normal;inline-size:0;isolation:auto;mix-blend-mode:normal;shape-margin:0;shape-padding:0;text-decoration-color:#000000;text-decoration-line:none;text-decoration-style:solid;text-indent:0;text-orientation:mixed;text-transform:none;white-space:normal"/>
  </g>
  <path d="m2.4531 1c-0.25103 0-0.45312 0.446-0.45312 1v1 1.5c0 1.7004 0.8568 3.1105 2 3.4316v1.0684c-0.554 0-1 0.446-1 1v5c0 0.554 0.446 1 1 1h1c0.554 0 1-0.446 1-1v-5c0-0.554-0.446-1-1-1v-1.0684c1.1432-0.32115 2-1.7312 2-3.4316v-1.5-1c0-0.554-0.20209-1-0.45312-1h-0.09375c-0.25103 0-0.45312 0.446-0.45312 1v1 2c0 0.554-0.223 1-0.5 1s-0.5-0.446-0.5-1v-2-1c0-0.554-0.20209-1-0.45312-1h-0.09375c-0.25103 0-0.45312 0.446-0.45312 1v1 2c0 0.554-0.223 1-0.5 1s-0.5-0.446-0.5-1v-2-1c0-0.554-0.20209-1-0.45312-1h-0.09375z" fill-rule="evenodd" stroke-linecap="round" stroke-linejoin="round" stroke-width=".75"/>
  <path d="m13 1c-0.23676 0-0.44432 0.093911-0.61523 0.23047-1.5884 1.15-2.3848 6.5416-2.3848 8.7695 0 1 1 1 2 1v4.0078c0 0.554 0.44606 1 1 1 0.55394 0 1-0.446 1-1v-13.008c0-0.554-0.44606-1-1-1z" fill-rule="evenodd" stroke-linecap="round" stroke-linejoin="round" stroke-width=".75"/>
 </g>
</svg>
