<svg version="1.1" viewBox="0 0 16 16" xmlns="http://www.w3.org/2000/svg">
 <path d="m7.4629 1a7.5 7.5 0 0 0-7.4629 7.5 7.5 7.5 0 0 0 7.5 7.5 7.5 7.5 0 0 0 7.5-7.5 7.5 7.5 0 0 0-7.5-7.5 7.5 7.5 0 0 0-0.037109 0zm-0.46289 1.0195v5.9805h-2.0215c-0.10723-1.6073-0.72495-3.1438-1.7773-4.375a6.5 6.5 0 0 1 3.7988-1.6055zm1 0a6.5 6.5 0 0 1 3.7988 1.6055 6.5 6.5 0 0 1 0.69336 0.71484c-0.21276-0.25545-0.44407-0.49489-0.69336-0.71484-1.0524 1.2312-1.6701 2.7677-1.7773 4.375h-2.0215v-5.9805zm-4.8047 1.6113c-0.2497 0.22088-0.48239 0.46027-0.69531 0.7168 0.86147 1.0371 1.3531 2.3164 1.457 3.6523h-2.9375a6.5 6.5 0 0 1 1.4805-3.6523 6.5 6.5 0 0 1 0.69531-0.7168zm9.3047 0.7168a6.5 6.5 0 0 1 1.4805 3.6523h-2.9375c0.10396-1.336 0.59556-2.6153 1.457-3.6523zm-11.48 4.6523h2.9375c-0.10396 1.336-0.59556 2.6153-1.457 3.6523a6.5 6.5 0 0 1-1.4805-3.6523zm3.959 0h2.0215v5.9805a6.5 6.5 0 0 1-3.7988-1.6055 6.5 6.5 0 0 1-0.69336-0.71484c0.21276 0.25544 0.44407 0.49489 0.69336 0.71484 1.0524-1.2312 1.6701-2.7677 1.7773-4.375zm3.0215 0h2.0215c0.10723 1.6073 0.72496 3.1438 1.7773 4.375a6.5 6.5 0 0 1-3.7988 1.6055v-5.9805zm3.043 0h2.9375a6.5 6.5 0 0 1-1.4805 3.6523 6.5 6.5 0 0 1-0.69531 0.7168c0.2497-0.22088 0.48239-0.46027 0.69531-0.7168-0.86147-1.0371-1.3531-2.3164-1.457-3.6523z" fill="#808080" fill-rule="evenodd"/>
</svg>
