<svg version="1.1" viewBox="0 0 16 16" xmlns="http://www.w3.org/2000/svg">
 <filter id="a" x="0" y="0" width="1" height="1">
  <feColorMatrix in="SourceGraphic" values="0 0 0 0 1 0 0 0 0 1 0 0 0 0 1 0 0 0 1 0"/>
 </filter>
 <mask>
  <g filter="url(#a)">
   <path d="m0 0h16v16h-16z" fill-opacity=".3"/>
  </g>
 </mask>
 <clipPath>
  <path d="m0 0h1024v800h-1024z"/>
 </clipPath>
 <mask>
  <g filter="url(#a)">
   <path d="m0 0h16v16h-16z" fill-opacity=".05"/>
  </g>
 </mask>
 <clipPath>
  <path d="m0 0h1024v800h-1024z"/>
 </clipPath>
 <mask>
  <g filter="url(#a)">
   <path d="m0 0h16v16h-16z" fill-opacity=".05"/>
  </g>
 </mask>
 <clipPath>
  <path d="m0 0h1024v800h-1024z"/>
 </clipPath>
 <mask>
  <g filter="url(#a)">
   <path d="m0 0h16v16h-16z" fill-opacity=".05"/>
  </g>
 </mask>
 <clipPath>
  <path d="m0 0h1024v800h-1024z"/>
 </clipPath>
 <mask>
  <g filter="url(#a)">
   <path d="m0 0h16v16h-16z" fill-opacity=".05"/>
  </g>
 </mask>
 <clipPath>
  <path d="m0 0h1024v800h-1024z"/>
 </clipPath>
 <mask>
  <g filter="url(#a)">
   <path d="m0 0h16v16h-16z" fill-opacity=".05"/>
  </g>
 </mask>
 <clipPath>
  <path d="m0 0h1024v800h-1024z"/>
 </clipPath>
 <mask>
  <g filter="url(#a)">
   <path d="m0 0h16v16h-16z" fill-opacity=".05"/>
  </g>
 </mask>
 <clipPath>
  <path d="m0 0h1024v800h-1024z"/>
 </clipPath>
 <mask>
  <g filter="url(#a)">
   <path d="m0 0h16v16h-16z" fill-opacity=".3"/>
  </g>
 </mask>
 <clipPath>
  <path d="m0 0h1024v800h-1024z"/>
 </clipPath>
 <mask>
  <g filter="url(#a)">
   <path d="m0 0h16v16h-16z" fill-opacity=".5"/>
  </g>
 </mask>
 <clipPath>
  <path d="m0 0h1024v800h-1024z"/>
 </clipPath>
 <g transform="translate(-4.334e-5)">
  <g transform="translate(-472,-300)" fill="#808080" shape-rendering="auto">
   <path d="m475.99 310c-1.2582-0.0146-2.1789 0.0306-2.9316-0.38477-0.37637-0.20765-0.67322-0.55938-0.83789-0.99804s-0.2246-0.95958-0.22461-1.6172l-4e-5 -3c-1e-5 -0.65761 0.0599-1.1785 0.22461-1.6172 0.16467-0.43866 0.46152-0.79039 0.83789-0.99804 0.75275-0.41532 1.6734-0.3702 2.9316-0.38477h4e-3 4.0039 4e-3c1.2582 0.0146 2.1789-0.0306 2.9316 0.38477 0.37637 0.20765 0.67322 0.55938 0.83789 0.99804 0.16449 0.43866 0.22442 0.95958 0.22443 1.6172l4e-5 3c1e-5 0.65761-0.0599 1.1785-0.22461 1.6172-0.16466 0.43866-0.46152 0.79038-0.83789 0.99804-0.75275 0.41534-1.6734 0.37025-2.9316 0.38477h-4e-3 -4.0039zm6e-3 -1h6e-3 3.9939c1.2585-0.0147 2.0872-0.0598 2.4531-0.26172 0.18341-0.1012 0.28916-0.21274 0.38672-0.47266 0.0976-0.25991 0.16017-0.67323 0.16016-1.2656l-4e-5 -3c-1e-5 -0.59239-0.0626-1.0057-0.16016-1.2656-0.0976-0.25991-0.20135-0.37147-0.38476-0.47266-0.36596-0.20191-1.1966-0.24698-2.4551-0.26172h-3.9942-6e-3c-1.2585 0.0147-2.0891 0.0598-2.4551 0.26172-0.18341 0.10119-0.2872 0.21275-0.38476 0.47266-0.0976 0.2599-0.16017 0.67323-0.16016 1.2656l4e-5 3c1e-5 0.59239 0.0626 1.0057 0.16016 1.2656 0.0976 0.25991 0.20135 0.37147 0.38476 0.47266 0.36596 0.20191 1.1966 0.24698 2.4551 0.26172z" color="#000000" color-rendering="auto" dominant-baseline="auto" image-rendering="auto" solid-color="#000000" style="font-feature-settings:normal;font-variant-alternates:normal;font-variant-caps:normal;font-variant-ligatures:normal;font-variant-numeric:normal;font-variant-position:normal;isolation:auto;mix-blend-mode:normal;shape-padding:0;text-decoration-color:#000000;text-decoration-line:none;text-decoration-style:solid;text-indent:0;text-orientation:mixed;text-transform:none;white-space:normal"/>
   <path d="m485 305v1h1v4e-3c0.1128 6e-3 0.31164 4e-3 0.39844 0.0137 0.30584 0.0352 0.40756 0.0931 0.44336 0.1289 0.0358 0.0359 0.0928 0.13321 0.125 0.43555s0.0332 0.76633 0.0332 1.3945v3.0117c0 0.59475-0.0626 1.0086-0.16016 1.2695-0.0976 0.26095-0.20331 0.37301-0.38672 0.47461-0.36593 0.20276-1.1946 0.24887-2.4531 0.26367h-1.5-3.5c-0.95833 0-1.497-0.14194-1.7227-0.29297-0.22564-0.15115-0.27734-0.29272-0.27734-0.71105v-0.99219h-1v1c2e-3 0.58328 0.20062 1.1896 0.72266 1.5391 0.52434 0.35094 1.2357 0.46094 2.2773 0.46094h3.5 1.502 4e-3c1.2582-0.0146 2.1789 0.0303 2.9316-0.38672 0.37637-0.20848 0.67323-0.56155 0.83789-1.002 0.16462-0.44041 0.22452-0.96283 0.22452-1.623v-3.0117c0-0.62675 3e-3 -1.101-0.0391-1.5-0.0425-0.39899-0.13816-0.7668-0.41211-1.041-0.27396-0.27421-0.63779-0.37002-1.0371-0.41602-0.13567-0.0156-0.35509-0.0125-0.51168-0.0195z" color="#000000" color-rendering="auto" dominant-baseline="auto" image-rendering="auto" opacity=".5" solid-color="#000000" style="font-feature-settings:normal;font-variant-alternates:normal;font-variant-caps:normal;font-variant-ligatures:normal;font-variant-numeric:normal;font-variant-position:normal;isolation:auto;mix-blend-mode:normal;shape-padding:0;text-decoration-color:#000000;text-decoration-line:none;text-decoration-style:solid;text-indent:0;text-orientation:mixed;text-transform:none;white-space:normal"/>
  </g>
 </g>
</svg>
