<svg version="1.1" viewBox="0 0 16 16" xmlns="http://www.w3.org/2000/svg">
 <g fill="#808080">
  <path d="m3.9941 1c-1.258 0.015-2.1796-0.030234-2.9316 0.38477a1.88 1.88 0 0 0-0.83789 0.99805c-0.165 0.439-0.22461 0.96019-0.22461 1.6172v6c0 0.658 0.059609 1.1792 0.22461 1.6172 0.164 0.439 0.46089 0.79005 0.83789 0.99805 0.752 0.416 1.6736 0.36977 2.9316 0.38477h8.0117c1.258-0.014 2.1786 0.030234 2.9316-0.38477a1.88 1.88 0 0 0 0.83789-0.99805c0.164-0.438 0.22461-0.96019 0.22461-1.6172v-6c0-0.658-0.059609-1.1782-0.22461-1.6172a1.88 1.88 0 0 0-0.10352-0.22656l-0.77344 0.77344c0.06294 0.25658 0.10156 0.60837 0.10156 1.0703v6c0 0.592-0.063156 1.0056-0.16016 1.2656-0.098 0.26-0.20272 0.37166-0.38672 0.47266-0.366 0.202-1.1941 0.24672-2.4531 0.26172h-8c-1.258-0.015-2.0901-0.059719-2.4551-0.26172-0.183-0.1-0.28677-0.21266-0.38477-0.47266-0.097-0.26-0.16016-0.67362-0.16016-1.2656v-6c0-0.592 0.063156-1.0056 0.16016-1.2656 0.098-0.26 0.20177-0.37166 0.38477-0.47266 0.365-0.202 1.1951-0.24672 2.4551-0.26172h6.1738l0.99805-1h-7.1738-0.0039063z" style="font-feature-settings:normal;font-variant-alternates:normal;font-variant-caps:normal;font-variant-ligatures:normal;font-variant-numeric:normal;font-variant-position:normal;isolation:auto;mix-blend-mode:normal;shape-padding:0;text-decoration-color:#000000;text-decoration-line:none;text-decoration-style:solid;text-indent:0;text-orientation:mixed;text-transform:none"/>
  <path d="m6 12h4v1.5c0 1.5 0.5 1.5 1.5 1.5h0.5v1h-8v-1h0.5c1 0 1.5 0 1.5-1.5z" overflow="visible"/>
  <path d="m8.5 4a2.5 2.5 0 0 0-2.5 2.5c0 2.5 0 2.5-1 3.5 1 0 6 0 6-3.5a2.5 2.5 0 0 0-2.5-2.5z" fill-rule="evenodd" stroke-linecap="round" stroke-linejoin="round" stroke-opacity=".98512" stroke-width=".5"/>
  <path d="m13.586 0-3.4238 3.4258c0.59492 0.32476 1.0874 0.81719 1.4121 1.4121l4.4258-4.4238v-0.41406h-2.4141z" color="#000000" style="-inkscape-stroke:none"/>
 </g>
</svg>
