<svg version="1.1" viewBox="0 0 16 16" xmlns="http://www.w3.org/2000/svg">
 <path d="m6.9943 11c-0.55117 0-0.99482 0.44367-0.99482 0.99481v0.0104c0 0.55114 0.44365 0.99481 0.99482 0.99481h0.0106c0.55117 0 0.99482-0.44367 0.99482-0.99481v-0.0104c0-0.55114-0.44365-0.99481-0.99482-0.99481zm2.9999-1e-5c-0.55117 0-0.99482 0.44367-0.99482 0.99481v0.0104c0 0.55114 0.44365 0.99481 0.99482 0.99481h0.0106c0.55117 0 0.99482-0.44367 0.99482-0.99481v-0.0104c0-0.55114-0.44365-0.99481-0.99482-0.99481zm3 0c-0.55117 0-0.99482 0.44367-0.99482 0.99481v0.0104c0 0.55114 0.44365 0.99481 0.99482 0.99481h0.0106c0.55117 0 0.99482-0.44367 0.99482-0.99481v-0.0104c4e-5 -0.55114-0.44361-0.99481-0.99478-0.99481z" color="#000000" color-rendering="auto" display="block" enable-background="new" fill="#808080" image-rendering="auto" shape-rendering="auto" solid-color="#000000" style="isolation:auto;mix-blend-mode:normal;paint-order:normal"/>
 <path d="m10.842 1.0098c-0.97171 0.037804-1.9331 0.42526-2.6719 1.1641-1.0431 1.0431-1.3837 2.5268-1.0293 3.8613l-5.416 5.418c-0.045311 0.03783-0.088373 0.078607-0.13086 0.12109-0.77686 0.77686-0.77881 2.0532-0.0019531 2.8301 0.77686 0.77686 2.0532 0.77497 2.8301-0.001953 0.00142-0.0014 0.0025663-0.002407 0.0039062-0.003906l0.0058594 0.003906 1.0742-1.0742c-0.23429-0.2635-0.39996-0.58788-0.46875-0.94922l-0.097656 0.097656c-0.086526-0.33192-0.25925-0.64402-0.51758-0.90234-0.25597-0.25596-0.56403-0.42834-0.89258-0.51562l4.0234-4.0273 0.0019531 0.0019531 0.73242-0.73438c-0.53572-1.1172-0.33939-2.4926 0.58789-3.4199 0.55252-0.55252 1.2639-0.84331 1.9844-0.875 0.10292-0.0045299 0.2057-0.0040868 0.30859 0.0019532l-1.584 1.584 2.8281 2.8281h0.001953l1.584-1.582c0.04535 0.82049-0.24837 1.6566-0.87891 2.2871-0.92798 0.92798-2.3002 1.1272-3.416 0.5918l-0.12109 0.11914-0.0019531-0.0019532-2.166 2.168h1.418l1.1348-1.1348c1.3346 0.35446 2.8178 0.010298 3.8613-1.0332 1.3145-1.3145 1.5209-3.3278 0.61719-4.8613l-2.0352 2.0312-1.4121-1.4121 2.0332-2.0332c-0.67071-0.39428-1.4337-0.57628-2.1895-0.54688zm-1.2617 4.2012c-0.12857 2.8e-6 -0.25573 0.049882-0.35352 0.14844-0.19192 0.19644-0.19103 0.51166 0.0039063 0.70508l0.70508 0.70312c0.19342 0.19496 0.50863 0.19777 0.70508 0.0058594 0.19712-0.19556 0.19711-0.51341 0-0.70898l-0.70508-0.70508c-0.09779-0.098554-0.22689-0.14844-0.35547-0.14844zm-6.5625 6.7754c0.55228 0 1 0.44772 1 1 7e-7 0.55228-0.44772 1-1 1-0.55228 3e-6 -1-0.44772-1-1 4e-7 -0.55228 0.44772-1 1-1z" color="#000000" fill="#808080" fill-rule="evenodd" stroke-linecap="round" stroke-linejoin="round" stroke-width="3.7795" style="-inkscape-stroke:none"/>
</svg>
