<?xml version="1.0" encoding="UTF-8" standalone="no"?>
<svg
   height="16"
   id="svg7384"
   version="1.1"
   width="16"
   sodipodi:docname="app.drey.EarTag-symbolic.svg"
   inkscape:version="1.4 (1:1.4+202410161351+e7c3feb100)"
   xmlns:inkscape="http://www.inkscape.org/namespaces/inkscape"
   xmlns:sodipodi="http://sodipodi.sourceforge.net/DTD/sodipodi-0.dtd"
   xmlns="http://www.w3.org/2000/svg"
   xmlns:svg="http://www.w3.org/2000/svg"
   xmlns:rdf="http://www.w3.org/1999/02/22-rdf-syntax-ns#"
   xmlns:cc="http://creativecommons.org/ns#"
   xmlns:dc="http://purl.org/dc/elements/1.1/"
   xmlns:osb="http://www.openswatchbook.org/uri/2009/osb">
  <sodipodi:namedview
     id="namedview1"
     pagecolor="#ffffff"
     bordercolor="#000000"
     borderopacity="0.25"
     inkscape:showpageshadow="2"
     inkscape:pageopacity="0.0"
     inkscape:pagecheckerboard="0"
     inkscape:deskcolor="#d1d1d1"
     inkscape:zoom="11.593835"
     inkscape:cx="-3.5363621"
     inkscape:cy="5.4770487"
     inkscape:window-width="1860"
     inkscape:window-height="1011"
     inkscape:window-x="0"
     inkscape:window-y="0"
     inkscape:window-maximized="1"
     inkscape:current-layer="g1833"
     showgrid="true">
    <inkscape:grid
       id="grid1"
       units="px"
       originx="0"
       originy="0"
       spacingx="1"
       spacingy="1"
       empcolor="#0099e5"
       empopacity="0.30196078"
       color="#0099e5"
       opacity="0.14901961"
       empspacing="5"
       enabled="true"
       visible="true" />
  </sodipodi:namedview>
  <metadata
     id="metadata20854">
    <rdf:RDF>
      <cc:Work
         rdf:about="">
        <dc:format>image/svg+xml</dc:format>
        <dc:type
           rdf:resource="http://purl.org/dc/dcmitype/StillImage" />
      </cc:Work>
    </rdf:RDF>
  </metadata>
  <defs
     id="defs7386">
    <inkscape:path-effect
       effect="fillet_chamfer"
       id="path-effect13"
       is_visible="true"
       lpeversion="1"
       nodesatellites_param="F,0,0,1,0,1,0,1 @ F,0,0,1,0,0,0,1 @ F,0,0,1,0,0,0,1 @ F,0,0,1,0,0,0,1 @ F,0,0,1,0,0,0,1 @ F,0,0,1,0,0,0,1 @ F,0,0,1,0,0,0,1 @ F,0,0,1,0,0,0,1 @ F,0,0,1,0,0,0,1 @ F,0,0,1,0,0,0,1 @ F,0,0,1,0,0,0,1 @ F,0,0,1,0,0,0,1 @ F,0,0,1,0,0,0,1 @ F,0,0,1,0,0,0,1 @ F,0,0,1,0,0,0,1 @ F,0,0,1,0,1,0,1 | F,0,0,1,0,0,0,1 @ F,0,0,1,0,0,0,1 @ F,0,0,1,0,0,0,1 @ F,0,0,1,0,0,0,1 | F,0,0,1,0,0,0,1 @ F,0,0,1,0,0,0,1 @ F,0,0,1,0,0,0,1 @ F,0,0,1,0,0,0,1"
       radius="0"
       unit="px"
       method="auto"
       mode="F"
       chamfer_steps="1"
       flexible="false"
       use_knot_distance="true"
       apply_no_radius="true"
       apply_with_radius="true"
       only_selected="false"
       hide_knots="false" />
    <inkscape:path-effect
       effect="fillet_chamfer"
       id="path-effect4"
       is_visible="true"
       lpeversion="1"
       nodesatellites_param="F,0,0,1,0,0,0,1 @ F,0,0,1,0,0,0,1 @ F,0,0,1,0,0,0,1 @ F,0,0,1,0,1,0,1 @ F,0,0,1,0,1,0,1 @ F,0,0,1,0,0,0,1 @ F,0,0,1,0,0,0,1 @ F,0,0,1,0,0,0,1 @ F,0,0,1,0,0,0,1 @ F,0,0,1,0,0,0,1 @ F,0,0,1,0,0,0,1 @ F,0,0,1,0,0,0,1 @ F,0,0,1,0,0,0,1 @ F,0,0,1,0,0,0,1 @ F,0,0,1,0,0,0,1 @ F,0,0,1,0,1,0,1 @ F,0,0,1,0,1,0,1 @ F,0,0,1,0,0,0,1 @ F,0,0,1,0,0,0,1 @ F,0,0,1,0,0,0,1"
       radius="0"
       unit="px"
       method="auto"
       mode="F"
       chamfer_steps="1"
       flexible="false"
       use_knot_distance="true"
       apply_no_radius="true"
       apply_with_radius="true"
       only_selected="false"
       hide_knots="false" />
    <linearGradient
       id="linearGradient5606"
       osb:paint="solid">
      <stop
         id="stop5608"
         offset="0"
         style="stop-color:#000000;stop-opacity:1;" />
    </linearGradient>
    <linearGradient
       id="linearGradient4526"
       osb:paint="solid">
      <stop
         id="stop4528"
         offset="0"
         style="stop-color:#ffffff;stop-opacity:1;" />
    </linearGradient>
    <linearGradient
       id="linearGradient3600-4"
       osb:paint="gradient">
      <stop
         id="stop3602-7"
         offset="0"
         style="stop-color:#f4f4f4;stop-opacity:1" />
      <stop
         id="stop3604-6"
         offset="1"
         style="stop-color:#dbdbdb;stop-opacity:1" />
    </linearGradient>
  </defs>
  <g
     id="layer9"
     label="status"
     style="display:inline"
     transform="translate(-753.00024,207)" />
  <g
     id="layer2"
     style="display:inline"
     transform="translate(-512.00004,-160)" />
  <g
     id="layer4"
     style="display:inline"
     transform="translate(-512.00004,-160)" />
  <g
     id="g1812"
     style="display:inline"
     transform="translate(-512.00004,-160)" />
  <g
     id="g6217"
     style="display:inline"
     transform="translate(-512.00004,-160)" />
  <g
     id="layer3"
     style="display:inline"
     transform="translate(-512.00004,-160)" />
  <g
     id="g1833"
     style="display:inline"
     transform="translate(-512.00004,-160)">
    <path
       d="m 519.50004,160 c -2.48528,-1e-5 -4.5,2.01471 -4.5,4.5 v 0.97852 c -0.36394,0.16868 -0.72779,0.33723 -1.0918,0.50585 -0.50112,0.23216 -0.9082,0.86764 -0.9082,1.41993 V 173 c 0,0.65761 0.0599,1.17858 0.22461,1.61719 0.16468,0.43861 0.46153,0.78852 0.83789,0.99609 0.75272,0.41514 1.67354,0.37165 2.93164,0.38672 h 0.002 5.00586 0.004 c 1.25819,-0.0145 2.17889,0.0306 2.93164,-0.38477 0.37637,-0.20766 0.67323,-0.55938 0.83789,-0.99804 0.16453,-0.43867 0.22461,-0.95958 0.22461,-1.61719 v -5.64453 c 0,-0.55229 -0.40534,-1.18927 -0.90625,-1.42188 -0.36463,-0.16931 -0.7291,-0.33858 -1.09375,-0.50781 V 164.5 c 0,-2.48529 -2.01472,-4.50001 -4.5,-4.5 z m 0,1 c 1.933,1e-5 3.5,1.56701 3.5,3.5 v 1.50195 c 0.14797,0.10934 0.31119,0.20498 0.48828,0.28711 0.16943,0.0503 0.34429,0.10518 0.51172,0.16797 0.53602,0.20103 1,0.47771 1,0.89844 V 173 c 0,0.5967 -0.0589,0.99573 -0.16016,1.26562 -0.0875,0.2331 -0.23183,0.39024 -0.38476,0.47461 -0.42262,0.2332 -1.17284,0.24499 -2.45313,0.25977 h -4.99609 -0.01 c -1.27773,-0.0153 -2.02798,-0.0283 -2.45117,-0.26172 -0.15492,-0.0854 -0.29757,-0.24042 -0.38476,-0.47266 -0.10134,-0.26933 -0.16016,-0.66873 -0.16016,-1.26562 v -5.5957 c 0,-0.47312 0.49765,-0.6739 1,-0.85938 0.17803,-0.0657 0.35625,-0.12996 0.51367,-0.20312 0.17675,-0.082 0.33885,-0.17812 0.48633,-0.28711 V 164.5 c 0,-1.93299 1.567,-3.49999 3.5,-3.5 z"
       style="fill:#808080"
       id="path31" />
    <path
       d="m 519.51176,162 c -1.37412,0 -2.48828,1.11929 -2.48828,2.5 0,1.38071 1.11416,2.5 2.48828,2.5 1.37411,0 2.48828,-1.11929 2.48828,-2.5 0,-1.38071 -1.11417,-2.5 -2.48828,-2.5 z m 0.0117,1 c 0.81521,0 1.47656,0.67157 1.47656,1.5 0,0.82843 -0.66135,1.5 -1.47656,1.5 -0.81523,0 -1.47461,-0.67157 -1.47461,-1.5 0,-0.82843 0.65938,-1.5 1.47461,-1.5 z"
       style="display:inline;fill:#808080;stroke-width:2.94909;stroke-opacity:0.2"
       id="path32" />
    <path
       d="m 518.99954,168 c -0.55229,0 -1,0.44771 -1,1 v 2.08594 c -0.0424,-0.0149 -0.0866,-0.0278 -0.13086,-0.0391 -0.0258,-0.007 -0.0521,-0.0124 -0.0781,-0.0176 -0.0227,-0.004 -0.0455,-0.008 -0.0684,-0.0117 -0.0318,-0.005 -0.0637,-0.009 -0.0957,-0.0117 -0.0423,-0.004 -0.0844,-0.006 -0.12695,-0.006 -0.10707,3.2e-4 -0.2138,0.0121 -0.31836,0.0352 -0.0139,0.003 -0.0272,0.006 -0.041,0.01 -0.32064,0.079 -0.60624,0.26164 -0.8125,0.51953 -0.13488,0.16937 -0.2315,0.36593 -0.28321,0.57617 -0.003,0.0138 -0.007,0.0271 -0.01,0.041 -0.0231,0.10456 -0.0348,0.21129 -0.0352,0.31836 3.2e-4,0.10707 0.0121,0.2138 0.0352,0.31836 0.003,0.0139 0.006,0.0272 0.01,0.041 0.1337,0.54022 0.55549,0.96201 1.09571,1.09571 0.0138,0.003 0.0271,0.007 0.041,0.01 0.10456,0.023 0.21129,0.0348 0.31836,0.0352 0.10707,-3.2e-4 0.2138,-0.0121 0.31836,-0.0352 0.0139,-0.003 0.0272,-0.006 0.041,-0.01 0.54021,-0.1337 0.962,-0.55549 1.0957,-1.09571 0.003,-0.0138 0.007,-0.0271 0.01,-0.041 0.0231,-0.10456 0.0348,-0.21129 0.0352,-0.31836 V 169 h 3 v 2.08594 c -0.0424,-0.0149 -0.0866,-0.0278 -0.13086,-0.0391 -0.0258,-0.007 -0.0521,-0.0124 -0.0781,-0.0176 -0.0227,-0.004 -0.0455,-0.008 -0.0684,-0.0117 -0.0318,-0.005 -0.0637,-0.009 -0.0957,-0.0117 -0.0423,-0.004 -0.0844,-0.006 -0.12695,-0.006 -0.10707,3.2e-4 -0.2138,0.0121 -0.31836,0.0352 -0.0139,0.003 -0.0272,0.006 -0.041,0.01 -0.32064,0.079 -0.60624,0.26164 -0.8125,0.51953 -0.13488,0.16937 -0.2315,0.36593 -0.28321,0.57617 -0.003,0.0138 -0.007,0.0271 -0.01,0.041 -0.0231,0.10456 -0.0348,0.21129 -0.0352,0.31836 3.2e-4,0.10707 0.0121,0.2138 0.0352,0.31836 0.003,0.0139 0.006,0.0272 0.01,0.041 0.1337,0.54022 0.55549,0.96201 1.09571,1.09571 0.0138,0.003 0.0271,0.007 0.041,0.01 0.10456,0.023 0.21129,0.0348 0.31836,0.0352 0.10707,-3.2e-4 0.2138,-0.0121 0.31836,-0.0352 0.0139,-0.003 0.0272,-0.006 0.041,-0.01 0.54021,-0.1337 0.962,-0.55549 1.0957,-1.09571 0.003,-0.0138 0.007,-0.0271 0.01,-0.041 0.0231,-0.10456 0.0348,-0.21129 0.0352,-0.31836 V 169 c 0,-0.55228 -0.44772,-1 -1,-1 z m -1.5,4 c 0.27614,0 0.5,0.22386 0.5,0.5 0,0.27614 -0.22386,0.5 -0.5,0.5 -0.27614,0 -0.5,-0.22386 -0.5,-0.5 0,-0.27614 0.22386,-0.5 0.5,-0.5 z m 4,0 c 0.27614,0 0.5,0.22386 0.5,0.5 0,0.27614 -0.22386,0.5 -0.5,0.5 -0.27614,0 -0.5,-0.22386 -0.5,-0.5 0,-0.27614 0.22386,-0.5 0.5,-0.5 z"
       style="display:inline;fill:#808080;stroke-width:1.7737;stroke-opacity:0.2"
       id="path26"
       sodipodi:nodetypes="ssccccccccccccccccccccccccccccccccccccccccccccccsssssssssssss" />
  </g>
  <g
     id="layer1"
     style="display:inline"
     transform="translate(-512.00004,-160)" />
</svg>
