<?xml version="1.0" encoding="UTF-8" standalone="no"?>
<svg
   height="16"
   width="16"
   version="1.1"
   id="svg8"
   sodipodi:docname="builder-app-symbolic.svg"
   inkscape:version="1.4.1 (1:1.4.1+202503302257+93de688d07)"
   xmlns:inkscape="http://www.inkscape.org/namespaces/inkscape"
   xmlns:sodipodi="http://sodipodi.sourceforge.net/DTD/sodipodi-0.dtd"
   xmlns="http://www.w3.org/2000/svg"
   xmlns:svg="http://www.w3.org/2000/svg"
   xmlns:rdf="http://www.w3.org/1999/02/22-rdf-syntax-ns#"
   xmlns:cc="http://creativecommons.org/ns#"
   xmlns:dc="http://purl.org/dc/elements/1.1/">
  <metadata
     id="metadata14">
    <rdf:RDF>
      <cc:Work
         rdf:about="">
        <dc:format>image/svg+xml</dc:format>
        <dc:type
           rdf:resource="http://purl.org/dc/dcmitype/StillImage" />
      </cc:Work>
    </rdf:RDF>
  </metadata>
  <defs
     id="defs12" />
  <sodipodi:namedview
     pagecolor="#ffffff"
     bordercolor="#666666"
     borderopacity="1"
     objecttolerance="10"
     gridtolerance="10"
     guidetolerance="10"
     inkscape:pageopacity="0"
     inkscape:pageshadow="2"
     inkscape:window-width="1870"
     inkscape:window-height="1011"
     id="namedview10"
     showgrid="false"
     inkscape:zoom="16.356432"
     inkscape:cx="7.7950984"
     inkscape:cy="7.1837181"
     inkscape:window-x="0"
     inkscape:window-y="0"
     inkscape:window-maximized="1"
     inkscape:current-layer="svg8"
     showborder="true"
     inkscape:document-rotation="0"
     inkscape:showpageshadow="2"
     inkscape:pagecheckerboard="0"
     inkscape:deskcolor="#d1d1d1"
     showguides="true">
    <inkscape:grid
       type="xygrid"
       id="grid839"
       originx="0"
       originy="0"
       spacingy="1"
       spacingx="1"
       units="px" />
    <sodipodi:guide
       position="14.49138,0.84403444"
       orientation="0,-1"
       id="guide5"
       inkscape:locked="false" />
  </sodipodi:namedview>
  <path
     d="M 6,1 C 4.3431458,1 3,2.3431458 3,4 c 0,1.6568542 1.3431458,3 3,3 0.2220484,4.168e-4 0.4434567,-0.02382 0.6601562,-0.072266 -0.0039,-0.00131 -0.00781,-0.00262 -0.011719,-0.00391 C 7.6953197,6.6897767 8.5375634,5.9145552 8.8574219,4.890625 h 0.00195 c -0.00136,0.00911 -0.00266,0.01822 -0.0039,0.027344 C 8.9510326,4.6213434 8.9997945,4.3116392 9,4 9,2.3431458 7.6568542,1 6,1 Z M 8.8574219,4.890625 C 8.5329847,5.9019086 7.6843665,6.6897231 6.6484375,6.9238281 7.3510669,7.0948045 7.9183984,7.6356538 8.1132813,8.3320313 8.0378085,8.546625 7.9994985,8.7725217 8,9 c -4.023e-4,0.3883278 0.1122542,0.7683738 0.3242188,1.09375 0.010196,0.01577 0.020614,0.03139 0.03125,0.04687 l -0.6171876,0.896484 c -0.4198835,0.116531 -0.7285156,0.501929 -0.7285156,0.958985 -0.0773,1.08787 0.2818839,2.181939 0.9960938,3.005859 H 9 v -0.960937 -1.56836 -0.476562 c -6.26e-5,-0.04594 -0.00183,-0.0914 -0.00781,-0.136719 L 9.6113281,10.962891 C 9.739365,10.987907 9.8695425,11.000336 10,11 c 0.06653,4.9e-5 0.133017,-0.0032 0.199219,-0.0098 h 0.002 c 0.05564,-0.0055 0.111029,-0.01331 0.166016,-0.02344 l 0.638671,0.925781 v 0.002 c -0.0032,0.03383 -0.0058,0.06736 -0.0059,0.101563 v 0.476562 1.56836 0.960937 h 0.994141 c 0.71421,-0.82392 1.073393,-1.917989 0.996093,-3.005859 0,-0.468066 -0.324387,-0.860826 -0.759765,-0.966797 l -0.59961,-0.871094 c -0.02202,0.02861 -0.04482,0.05662 -0.06836,0.08399 0.02288,-0.0274 0.04503,-0.05541 0.06641,-0.08399 0.0072,-0.0091 0.01441,-0.01816 0.02149,-0.02734 C 11.878372,9.797824 12.000242,9.4035968 12,9 11.99968,7.9960863 11.255176,7.1479694 10.259766,7.0175781 c 0.0085,5.971e-4 0.01693,0.00125 0.02539,0.00195 C 9.4319873,6.7713687 8.8448346,5.9900895 8.84375,5.1015625 8.8448381,5.0402172 8.8507016,4.9516108 8.8574219,4.890625 Z M 6,2 C 7.1045695,2 8,2.8954305 8,4 8,5.1045695 7.1045695,6 6,6 4.8954305,6 4,5.1045695 4,4 4,2.8954305 4.8954305,2 6,2 Z m 4,6 c 0.552285,0 1,0.4477153 1,1 -5.77e-4,0.055677 -0.0058,0.1112086 -0.01563,0.1660156 C 10.903433,9.6468091 10.487558,9.9991476 10,10 9.4892451,10.001069 9.0597691,9.6170669 9.0039063,9.109375 9.0006086,9.0730153 8.9993045,9.0365023 9,9 9,8.4477153 9.4477153,8 10,8 Z"
     style="display:inline;fill:#808080;enable-background:new"
     id="path12"
     sodipodi:nodetypes="sscccccccscccccccccccccccccccccccccccccccccccccsssssscccccs" />
</svg>
