<?xml version="1.0" encoding="UTF-8" standalone="no"?>
<svg
   height="16"
   id="svg7384"
   version="1.1"
   width="16"
   sodipodi:docname="libreoffice-writer-symbolic.svg"
   inkscape:version="1.2.2 (1:1.2.2+202212051551+b0a8486541)"
   xmlns:inkscape="http://www.inkscape.org/namespaces/inkscape"
   xmlns:sodipodi="http://sodipodi.sourceforge.net/DTD/sodipodi-0.dtd"
   xmlns="http://www.w3.org/2000/svg"
   xmlns:svg="http://www.w3.org/2000/svg"
   xmlns:rdf="http://www.w3.org/1999/02/22-rdf-syntax-ns#"
   xmlns:cc="http://creativecommons.org/ns#"
   xmlns:dc="http://purl.org/dc/elements/1.1/">
  <sodipodi:namedview
     id="namedview22"
     pagecolor="#ffffff"
     bordercolor="#666666"
     borderopacity="1.0"
     inkscape:pageshadow="2"
     inkscape:pageopacity="0.0"
     inkscape:pagecheckerboard="0"
     showgrid="true"
     inkscape:zoom="31.067299"
     inkscape:cx="18.846183"
     inkscape:cy="11.668218"
     inkscape:window-width="1850"
     inkscape:window-height="1016"
     inkscape:window-x="0"
     inkscape:window-y="0"
     inkscape:window-maximized="1"
     inkscape:current-layer="svg7384"
     inkscape:showpageshadow="2"
     inkscape:deskcolor="#d1d1d1">
    <inkscape:grid
       type="xygrid"
       id="grid839" />
  </sodipodi:namedview>
  <metadata
     id="metadata20854">
    <rdf:RDF>
      <cc:Work
         rdf:about="">
        <dc:format>image/svg+xml</dc:format>
        <dc:type
           rdf:resource="http://purl.org/dc/dcmitype/StillImage" />
      </cc:Work>
    </rdf:RDF>
  </metadata>
  <defs
     id="defs7386">
    <linearGradient
       id="linearGradient5606"
       inkscape:swatch="solid">
      <stop
         id="stop5608"
         offset="0"
         style="stop-color:#000000;stop-opacity:1;" />
    </linearGradient>
    <linearGradient
       id="linearGradient4526"
       inkscape:swatch="solid">
      <stop
         id="stop4528"
         offset="0"
         style="stop-color:#ffffff;stop-opacity:1;" />
    </linearGradient>
    <linearGradient
       id="linearGradient3600-4"
       inkscape:swatch="gradient">
      <stop
         id="stop3602-7"
         offset="0"
         style="stop-color:#f4f4f4;stop-opacity:1" />
      <stop
         id="stop3604-6"
         offset="1"
         style="stop-color:#dbdbdb;stop-opacity:1" />
    </linearGradient>
    <linearGradient
       id="linearGradient19846">
      <stop
         id="stop19848"
         style="stop-color:#259dd2;stop-opacity:1"
         offset="0" />
      <stop
         id="stop19850"
         style="stop-color:#065d8d;stop-opacity:1"
         offset="1" />
    </linearGradient>
  </defs>
  <path
     id="rect1705"
     style="opacity:1;fill:#808080;stroke:none;stroke-linecap:round;stroke-linejoin:round;stroke-dasharray:3, 3"
     d="m 8.4570312,6 c -0.252738,0 -0.4570312,0.2042932 -0.4570312,0.4570312 v 2.0859376 c 0,0.252738 0.2042932,0.4570312 0.4570312,0.4570312 h 3.0859378 c 0.252738,0 0.457031,-0.2042932 0.457031,-0.4570312 v -2.0859376 c 0,-0.252738 -0.204293,-0.4570312 -0.457031,-0.4570312 z m 0.8847657,0.7949219 c 0.157735,-0.00734 0.3196451,0.060296 0.4238281,0.2050781 l 0.453125,0.6269531 c 0.02662,0.037179 0.08147,0.041076 0.111328,0.00586 l 0.125,-0.1503906 c 0.199927,-0.2360903 0.564382,-0.232187 0.759766,0.00781 l 0.404297,0.4980468 c -0.02791,0.1682605 -0.173699,0.2949219 -0.34961,0.2949219 h -2.5390622 c -0.1765594,0 -0.3229955,-0.1273101 -0.3496094,-0.296875 l 0.5585937,-0.9472656 c 0.090552,-0.1539126 0.2446087,-0.2368037 0.4023438,-0.2441406 z" />
  <path
     style="color:#000000;fill:#808080;-inkscape-stroke:none"
     d="m 11.414063,0.00585938 l -0.07422,0.0234375 c -0.359022,0.11465559 -0.565729,0.41845801 -0.632813,0.71874999 c -0.06708,0.30029203 -0.0092,0.66366453 0.267578,0.91992183 l 2.535157,2.4902344 l 0.002,0.00391 c 0.279329,0.2654457 0.703408,0.2975536 1.001953,0.1542968 c 0.298544,-0.1432567 0.524909,-0.451545 0.539062,-0.8222656 v -0.00977 v -0.7109375 v -0.00195 c 0.0028,-0.5379507 0.01463,-0.9469121 -0.002,-1.2910157 c -0.01661,-0.3446241 -0.05277,-0.65328642 -0.253906,-0.9335937 c -0.201139,-0.28030728 -0.530479,-0.41240181 -0.853516,-0.46679688 c -0.323036,-0.05439506 -0.69312,-0.06299103 -1.1875,-0.07421874 h -0.0059 z m -6.8066411,0.03515624 c -0.6919341,-4.461e-5 -1.2487571,0.01728363 -1.7265625,0.1015625 c -0.4778054,0.0842789 -0.8997917,0.24928846 -1.2128907,0.56640625 c -0.3130989,0.31711783 -0.4773881,0.74239963 -0.5644531,1.24023433 c -0.087065,0.4978348 -0.10715778,1.0900463 -0.1035156,1.8359376 v 4.2363281 v 4.2382816 c -0.003589,0.748229 0.024335,1.342179 0.125,1.84375 c 0.1007712,0.502099 0.2889504,0.931362 0.6171875,1.242187 c 0.6564743,0.62165 1.6024699,0.654297 2.9863281,0.654297 h 6.5449224 c 1.374112,0 2.313098,-0.03331 2.96875,-0.644531 c 0.327825,-0.305614 0.517299,-0.728381 0.621093,-1.222656 c 0.103795,-0.494276 0.134947,-1.079122 0.136719,-1.814454 v -5.7695309 c -0.0048,-0.9390968 -0.723145,-1.5579257 -1.193359,-1.9824219 l -3.289063,-3.3320312 c -0.7577663,-0.76778535 -1.5114604,-1.19335907 -2.6328124,-1.19335938 z m 7.1210941,0.96484378 h 1.005859 c 0.490595,0.011142 0.840736,0.02454 1.042969,0.058594 c 0.202233,0.034053 0.201228,0.056366 0.207031,0.064453 c 0.0058,0.00809 0.05498,0.122809 0.06836,0.4003907 c 0.01338,0.2775817 0.0028,0.6895039 0,1.2402344 v 0.5214843 z m -7.1210941,0.035156 h 3.2773437 c 0.916325,3e-7 1.2387503,0.2023745 1.921875,0.8945313 l 3.3222654,3.3671875 l 0.0078,0.00586 v 0.00195 c 0.447438,0.4041582 0.861451,0.8817565 0.863281,1.2421875 v 5.7656246 c -0.0018,0.704696 -0.03707,1.237129 -0.115234,1.609375 c -0.07826,0.372696 -0.185092,0.565613 -0.324219,0.695313 c -0.278254,0.2594 -0.949874,0.376953 -2.287109,0.376953 h -6.5449224 c -1.3470996,0 -2.0203298,-0.117135 -2.2988281,-0.380859 c -0.1392492,-0.131863 -0.2477498,-0.329926 -0.3242187,-0.710938 c -0.076469,-0.381012 -0.108984,-0.926237 -0.1054688,-1.646484 v -4.2402346 v -4.2402344 v -0.00195 c -0.00353,-0.7236879 0.020506,-1.2729021 0.087891,-1.6582031 c 0.067384,-0.3853011 0.1689681,-0.5853452 0.2929688,-0.7109376 c 0.1240007,-0.1255923 0.3108584,-0.2191798 0.6738281,-0.2832031 c 0.3629697,-0.064023 0.8791928,-0.085981 1.5527344,-0.085937 z"
     id="path11344" />
  <rect
     style="opacity:1;fill:#808080;stroke:none;stroke-linecap:round;stroke-linejoin:round;stroke-dasharray:3, 3"
     id="rect1591"
     width="8"
     height="1"
     x="4"
     y="12"
     ry="0.5" />
  <rect
     style="opacity:1;fill:#808080;stroke:none;stroke-linecap:round;stroke-linejoin:round;stroke-dasharray:3, 3"
     id="rect1697"
     width="8"
     height="1"
     x="4"
     y="10"
     ry="0.5" />
  <rect
     style="opacity:1;fill:#808080;stroke:none;stroke-linecap:round;stroke-linejoin:round;stroke-dasharray:3, 3"
     id="rect1701"
     width="3"
     height="1"
     x="4"
     y="8"
     ry="0.45620638" />
  <rect
     style="opacity:1;fill:#808080;stroke:none;stroke-linecap:round;stroke-linejoin:round;stroke-dasharray:3, 3"
     id="rect1703"
     width="3"
     height="1"
     x="4"
     y="6"
     ry="0.45620638" />
</svg>
