<?xml version="1.0" encoding="UTF-8" standalone="no"?>
<svg
   version="1.1"
   viewBox="0 0 16 16"
   id="svg1"
   sodipodi:docname="org.gnome.Snapshot-symbolic.svg"
   inkscape:version="1.4 (1:1.4+202410161351+e7c3feb100)"
   xmlns:inkscape="http://www.inkscape.org/namespaces/inkscape"
   xmlns:sodipodi="http://sodipodi.sourceforge.net/DTD/sodipodi-0.dtd"
   xmlns="http://www.w3.org/2000/svg"
   xmlns:svg="http://www.w3.org/2000/svg">
  <defs
     id="defs1" />
  <sodipodi:namedview
     id="namedview1"
     pagecolor="#ffffff"
     bordercolor="#000000"
     borderopacity="0.25"
     inkscape:showpageshadow="2"
     inkscape:pageopacity="0.0"
     inkscape:pagecheckerboard="0"
     inkscape:deskcolor="#d1d1d1"
     showgrid="true"
     inkscape:zoom="18.333851"
     inkscape:cx="7.1452528"
     inkscape:cy="12.081477"
     inkscape:window-width="1860"
     inkscape:window-height="1011"
     inkscape:window-x="0"
     inkscape:window-y="0"
     inkscape:window-maximized="1"
     inkscape:current-layer="g1">
    <inkscape:grid
       id="grid3"
       units="px"
       originx="0"
       originy="0"
       spacingx="1"
       spacingy="1"
       empcolor="#0099e5"
       empopacity="0.30196078"
       color="#0099e5"
       opacity="0.14901961"
       empspacing="5"
       enabled="true"
       visible="true" />
  </sodipodi:namedview>
  <g
     transform="translate(-632 -220)"
     id="g1">
    <path
       d="m 640,220 c -0.23347,0.002 -0.46677,0.0132 -0.69922,0.0352 -0.12011,0.0123 -0.23993,0.0272 -0.35937,0.0449 -0.1392,0.0172 -0.27792,0.038 -0.41602,0.0625 -0.12433,0.0244 -0.24806,0.0517 -0.37109,0.082 -0.14092,0.032 -0.28094,0.0678 -0.41993,0.10742 -0.10883,0.0335 -0.21691,0.0693 -0.32421,0.10742 -0.14605,0.0492 -0.29064,0.10261 -0.4336,0.16016 -0.10714,0.0452 -0.21329,0.0927 -0.31836,0.14258 -0.13256,0.0596 -0.26347,0.12275 -0.39258,0.18945 -2.6217,1.3838 -4.26322,4.10386 -4.26562,7.06836 3.8e-4,2.9107 1.58161,5.5915 4.12891,7 h 0.0176 c 1.127,0.62142 2.38723,0.96178 3.67383,0.99219 0.0599,0.003 0.11977,0.006 0.17969,0.008 0.23347,-0.002 0.46677,-0.0132 0.69922,-0.0352 0.12011,-0.0123 0.23993,-0.0272 0.35937,-0.0449 0.1392,-0.0172 0.27792,-0.038 0.41602,-0.0625 0.11776,-0.0234 0.23497,-0.0494 0.35156,-0.0781 0.15479,-0.0351 0.30851,-0.0749 0.46094,-0.11914 0.0864,-0.0272 0.17237,-0.0558 0.25781,-0.0859 0.16265,-0.0534 0.32354,-0.11204 0.48242,-0.17578 0.0978,-0.041 0.19488,-0.084 0.29102,-0.12891 0.15066,-0.0683 0.29917,-0.14125 0.44531,-0.21875 1.363,-0.72538 2.48703,-1.82969 3.23633,-3.17969 v -0.0176 c 0.62142,-1.127 0.96178,-2.38723 0.99219,-3.67383 0.003,-0.0599 0.006,-0.11977 0.008,-0.17969 -0.002,-0.23347 -0.0132,-0.46677 -0.0352,-0.69922 -0.0123,-0.12011 -0.0272,-0.23993 -0.0449,-0.35937 -0.0172,-0.1392 -0.038,-0.27792 -0.0625,-0.41602 -0.0244,-0.12433 -0.0518,-0.24806 -0.082,-0.37109 -0.032,-0.14092 -0.0678,-0.28097 -0.10742,-0.41993 -0.0335,-0.10883 -0.0693,-0.21691 -0.10742,-0.32421 -0.0492,-0.14605 -0.10261,-0.29064 -0.16016,-0.4336 -0.0452,-0.10714 -0.0928,-0.21329 -0.14258,-0.31836 -0.0596,-0.13256 -0.12275,-0.26347 -0.18945,-0.39258 -0.71899,-1.3615 -1.8156,-2.48663 -3.1582,-3.24023 -0.006,-1.1e-4 -0.01,-0.002 -0.0156,-0.002 -0.69887,-0.39233 -1.45273,-0.67742 -2.23633,-0.84571 -0.2287,-0.0478 -0.45939,-0.0856 -0.6914,-0.11328 -0.0325,-0.005 -0.0651,-0.0106 -0.0977,-0.0156 h -0.0117 c -0.16825,-0.0158 -0.33695,-0.0265 -0.50586,-0.0312 C 640.2338,220.00858 640.1173,220.0033 640,220 Z m 0,1 a 7,7 0 0 1 7,7 7,7 0 0 1 -7,7 7,7 0 0 1 -7,-7 7,7 0 0 1 7,-7 z"
       style="fill:#808080"
       id="path2" />
    <path
       d="m 640,223 c -0.1459,9.1e-4 -0.29224,0.007 -0.4375,0.0215 -0.0751,0.007 -0.14996,0.0182 -0.22461,0.0293 -0.087,0.0107 -0.17345,0.0237 -0.25977,0.0391 -0.0777,0.0153 -0.15553,0.0319 -0.23242,0.0508 -0.088,0.02 -0.17485,0.0416 -0.26172,0.0664 -0.068,0.0209 -0.13606,0.0446 -0.20312,0.0684 -0.0913,0.0307 -0.18215,0.0636 -0.27149,0.0996 -0.067,0.0283 -0.1316,0.0587 -0.19726,0.0898 -0.0829,0.0373 -0.1654,0.0755 -0.24609,0.11719 -1.63847,0.86482 -2.66452,2.56526 -2.66602,4.41797 2.4e-4,1.81907 0.98811,3.49474 2.58008,4.375 h 0.0117 c 0.70433,0.38836 1.49084,0.60014 2.29492,0.61914 0.0374,0.002 0.0759,0.005 0.11328,0.006 0.14592,-9.1e-4 0.29223,-0.007 0.4375,-0.0215 0.0751,-0.007 0.14996,-0.0182 0.22461,-0.0293 0.087,-0.0107 0.17345,-0.0237 0.25976,-0.0391 0.0736,-0.0146 0.1459,-0.0309 0.21875,-0.0488 0.0967,-0.0219 0.1938,-0.0466 0.28907,-0.0742 0.054,-0.017 0.10675,-0.0339 0.16015,-0.0527 0.10165,-0.0333 0.20345,-0.0715 0.30274,-0.11132 0.0612,-0.0256 0.12156,-0.052 0.18164,-0.0801 0.0942,-0.0427 0.18601,-0.0882 0.27734,-0.13672 0.85183,-0.45334 1.55516,-1.14263 2.02344,-1.98633 v -0.0117 c 0.38837,-0.70433 0.60013,-1.49278 0.61914,-2.29687 0.002,-0.0374 0.005,-0.0739 0.006,-0.11133 -9.1e-4,-0.14591 -0.007,-0.29223 -0.0215,-0.4375 -0.007,-0.0751 -0.0182,-0.14997 -0.0293,-0.22461 -0.0107,-0.087 -0.0237,-0.17346 -0.0391,-0.25977 -0.0153,-0.0777 -0.032,-0.15554 -0.0508,-0.23242 -0.02,-0.0881 -0.0435,-0.17487 -0.0684,-0.26172 -0.0209,-0.068 -0.0426,-0.13606 -0.0664,-0.20312 -0.0307,-0.0913 -0.0637,-0.18214 -0.0996,-0.27149 -0.0283,-0.067 -0.0587,-0.13159 -0.0898,-0.19726 -0.0373,-0.0829 -0.0755,-0.1654 -0.11719,-0.24609 -0.44934,-0.85088 -1.13554,-1.55442 -1.97461,-2.0254 -0.004,-7e-5 -0.006,0 -0.01,0 -0.43677,-0.2452 -0.90871,-0.42412 -1.39843,-0.52929 -0.14293,-0.0299 -0.28664,-0.053 -0.43164,-0.0703 -0.0204,-0.003 -0.0402,-0.006 -0.0606,-0.01 h -0.008 c -0.10514,-0.01 -0.21084,-0.0165 -0.31641,-0.0195 -0.0737,-0.005 -0.14544,-0.01 -0.21875,-0.0117 z m 0,1 c 0.0586,0.002 0.11678,0.004 0.17578,0.008 0.0845,0.002 0.16785,0.008 0.25195,0.0156 h 0.006 c 0.0163,0.003 0.0325,0.008 0.0488,0.01 0.116,0.0138 0.23137,0.0327 0.3457,0.0566 0.3918,0.0841 0.76972,0.22572 1.11915,0.42188 0.003,0 0.005,-5e-5 0.008,0 0.67129,0.3768 1.21863,0.94036 1.57812,1.62109 0.0333,0.0645 0.0659,0.12901 0.0957,0.19531 0.0249,0.0525 0.0477,0.10656 0.0703,0.16016 0.0287,0.0715 0.0555,0.1438 0.0801,0.2168 0.0191,0.0537 0.038,0.10771 0.0547,0.16211 0.0199,0.0695 0.0367,0.13848 0.0527,0.20898 0.0151,0.0615 0.0288,0.12335 0.041,0.18555 0.0123,0.0691 0.0222,0.13938 0.0312,0.20898 0.009,0.0597 0.0174,0.11959 0.0234,0.17969 0.0116,0.11623 0.0168,0.23289 0.0176,0.34961 -10e-4,0.0299 -0.002,0.0599 -0.004,0.0898 -0.0152,0.64331 -0.18538,1.27246 -0.49609,1.83594 v 0.01 c -0.37464,0.67498 -0.93763,1.22716 -1.61914,1.58984 -0.0731,0.0388 -0.14726,0.0752 -0.22266,0.10938 -0.0481,0.0225 -0.0955,0.0439 -0.14453,0.0644 -0.0794,0.0319 -0.16089,0.0613 -0.24219,0.0879 -0.0427,0.0151 -0.0857,0.0294 -0.1289,0.043 -0.0762,0.0221 -0.15307,0.0411 -0.23047,0.0586 -0.0583,0.0143 -0.11688,0.0274 -0.17578,0.0391 -0.069,0.0123 -0.13743,0.0223 -0.20703,0.0312 -0.0597,0.009 -0.11959,0.0174 -0.17969,0.0234 -0.11622,0.0116 -0.23286,0.0169 -0.34961,0.0176 -0.0299,-0.001 -0.0599,-0.002 -0.0898,-0.004 -0.64331,-0.0152 -1.2744,-0.18539 -1.83789,-0.49609 h -0.008 c -1.27364,-0.70424 -2.06426,-2.04468 -2.06445,-3.5 0.001,-1.48223 0.82198,-2.84327 2.13281,-3.53516 0.0646,-0.0333 0.12902,-0.064 0.19531,-0.0937 0.0525,-0.0249 0.10656,-0.0497 0.16016,-0.0723 0.0715,-0.0288 0.1438,-0.0555 0.2168,-0.0801 0.0537,-0.0191 0.10771,-0.036 0.16211,-0.0527 0.0695,-0.0198 0.13858,-0.0387 0.20898,-0.0547 0.0615,-0.0151 0.12335,-0.0288 0.18555,-0.041 0.0691,-0.0123 0.13938,-0.0223 0.20898,-0.0312 0.0597,-0.009 0.11959,-0.0155 0.17969,-0.0215 0.11622,-0.0116 0.23288,-0.0169 0.34961,-0.0176 z"
       style="fill:#808080;stroke-width:0.499993"
       id="path4" />
    <path
       d="M 639.87403,225.00587 A 3,3 0 0 0 637,228 a 3,3 0 0 0 3,3 3,3 0 0 0 3,-3 3,3 0 0 0 -2.85059,-2.9912 1.5,1.5 0 0 1 1.35059,1.4912 1.5,1.5 0 0 1 -1.5,1.5 1.5,1.5 0 0 1 -1.5,-1.5 1.5,1.5 0 0 1 1.37403,-1.49413 z"
       style="fill:#808080;stroke-width:1.5"
       id="path3" />
  </g>
</svg>
