<?xml version="1.0" encoding="UTF-8" standalone="no"?>
<svg
   xmlns:osb="http://www.openswatchbook.org/uri/2009/osb"
   xmlns:dc="http://purl.org/dc/elements/1.1/"
   xmlns:cc="http://creativecommons.org/ns#"
   xmlns:rdf="http://www.w3.org/1999/02/22-rdf-syntax-ns#"
   xmlns:svg="http://www.w3.org/2000/svg"
   xmlns="http://www.w3.org/2000/svg"
   xmlns:sodipodi="http://sodipodi.sourceforge.net/DTD/sodipodi-0.dtd"
   xmlns:inkscape="http://www.inkscape.org/namespaces/inkscape"
   height="16.000099"
   id="svg7384"
   version="1.1"
   width="16"
   sodipodi:docname="user-info-symbolic.svg"
   inkscape:version="1.0.2 (e86c870879, 2021-01-15)">
  <sodipodi:namedview
     pagecolor="#ffffff"
     bordercolor="#666666"
     borderopacity="1"
     objecttolerance="10"
     gridtolerance="10"
     guidetolerance="10"
     inkscape:pageopacity="0"
     inkscape:pageshadow="2"
     inkscape:window-width="1920"
     inkscape:window-height="1016"
     id="namedview7724"
     showgrid="false"
     inkscape:zoom="22.627417"
     inkscape:cx="14.516599"
     inkscape:cy="9.3256688"
     inkscape:window-x="0"
     inkscape:window-y="27"
     inkscape:window-maximized="1"
     inkscape:current-layer="svg7384"
     inkscape:document-rotation="0"
     showborder="true">
    <inkscape:grid
       type="xygrid"
       id="grid846" />
  </sodipodi:namedview>
  <metadata
     id="metadata20854">
    <rdf:RDF>
      <cc:Work
         rdf:about="">
        <dc:title></dc:title>
        <dc:format>image/svg+xml</dc:format>
        <dc:type
           rdf:resource="http://purl.org/dc/dcmitype/StillImage" />
      </cc:Work>
    </rdf:RDF>
  </metadata>
  <defs
     id="defs7386">
    <linearGradient
       id="linearGradient5606"
       osb:paint="solid">
      <stop
         id="stop5608"
         offset="0"
         style="stop-color:#000000;stop-opacity:1;" />
    </linearGradient>
    <linearGradient
       id="linearGradient4526"
       osb:paint="solid">
      <stop
         id="stop4528"
         offset="0"
         style="stop-color:#ffffff;stop-opacity:1;" />
    </linearGradient>
    <linearGradient
       id="linearGradient3600-4"
       osb:paint="gradient">
      <stop
         id="stop3602-7"
         offset="0"
         style="stop-color:#f4f4f4;stop-opacity:1" />
      <stop
         id="stop3604-6"
         offset="1"
         style="stop-color:#dbdbdb;stop-opacity:1" />
    </linearGradient>
  </defs>
  <path
     id="path852"
     style="opacity:1;fill:#808080;fill-rule:evenodd;stroke-linecap:square"
     d="m 12.5,9 a 3.5,3.5 0 0 0 -3.5,3.5 3.5,3.5 0 0 0 3.5,3.5 3.5,3.5 0 0 0 3.5,-3.5 3.5,3.5 0 0 0 -3.5,-3.5 z m -0.5,2 h 1 v 1 h -1 z m 0,2 h 1 v 2 h -1 z" />
  <g
     id="layer9"
     label="status"
     style="display:inline"
     transform="translate(-873.00022,187)" />
  <g
     id="layer2"
     style="display:inline"
     transform="translate(-632.00002,-180)" />
  <g
     id="layer4"
     style="display:inline"
     transform="translate(-632.00002,-180)" />
  <g
     id="g1812"
     style="display:inline"
     transform="translate(-632.00002,-180)" />
  <g
     id="g6217"
     style="display:inline"
     transform="translate(-632.00002,-180)" />
  <g
     id="layer3"
     style="display:inline"
     transform="translate(-632.00002,-180)" />
  <g
     id="layer1"
     style="display:inline"
     transform="translate(-632.00002,-180)" />
  <path
     id="rect5341"
     style="opacity:1;vector-effect:none;fill:#808080;fill-opacity:1;stroke:none;stroke-width:1.88976;stroke-linecap:round;stroke-linejoin:round;stroke-miterlimit:4;stroke-dasharray:none;stroke-dashoffset:0;stroke-opacity:1"
     d="M 4 7.9980469 C 1.784 7.9980469 0 9.7820467 0 11.998047 L 1 11.998047 C 1 10.336047 2.338 8.9980469 4 8.9980469 L 8 8.9980469 C 8.4774403 8.9980469 8.9223386 9.1176592 9.3222656 9.3144531 A 4.5 4.5 0 0 1 10.177734 8.6464844 C 9.5512512 8.2398437 8.8056554 7.9980469 8 7.9980469 L 4 7.9980469 z " />
  <path
     inkscape:connector-curvature="0"
     style="color:#000000;font-style:normal;font-variant:normal;font-weight:normal;font-stretch:normal;font-size:medium;line-height:125%;font-family:Ubuntu;-inkscape-font-specification:'Ubuntu, Normal';font-variant-ligatures:normal;font-variant-position:normal;font-variant-caps:normal;font-variant-numeric:normal;font-variant-alternates:normal;font-feature-settings:normal;text-indent:0;text-align:start;text-decoration:none;text-decoration-line:none;text-decoration-style:solid;text-decoration-color:#000000;letter-spacing:0px;word-spacing:0px;text-transform:none;writing-mode:lr-tb;direction:ltr;text-orientation:mixed;dominant-baseline:auto;baseline-shift:baseline;text-anchor:start;white-space:normal;shape-padding:0;clip-rule:nonzero;display:inline;overflow:visible;visibility:visible;opacity:1;isolation:auto;mix-blend-mode:normal;color-interpolation:sRGB;color-interpolation-filters:linearRGB;solid-color:#000000;solid-opacity:1;fill:#808080;fill-opacity:1;fill-rule:nonzero;stroke:none;stroke-width:2;stroke-linecap:butt;stroke-linejoin:miter;stroke-miterlimit:4;stroke-dasharray:none;stroke-dashoffset:0;stroke-opacity:1;color-rendering:auto;image-rendering:auto;shape-rendering:auto;text-rendering:auto;enable-background:accumulate"
     d="m 6,0 c -0.45935,0 -0.89692,0.0853 -1.29883,0.25782 -0.39955,0.16424 -0.75214,0.4045 -1.04687,0.71679 l -0.004,0.004 -0.002,0.002 c -0.28714,0.31374 -0.50819,0.69114 -0.66406,1.11914 -0.15878,0.42836 -0.23438,0.89853 -0.23438,1.40039 0,0.50876 0.0753,0.98099 0.23438,1.41016 0.15624,0.42152 0.37762,0.79443 0.66406,1.1074198 l 0.002,0.002 0.004,0.002 c 0.29405,0.31157 0.64524,0.55682 1.04297,0.72851 l 0.002,0.002 0.004,0.002 c 0.40108,0.16427 0.83823,0.24609 1.29688,0.24609 0.45856,0 0.89352,-0.0816 1.29492,-0.24609 v -0.002 c 0.39741,-0.17155 0.74615,-0.41777 1.0332,-0.73047 0.29498,-0.3130298 0.52286,-0.6861798 0.67969,-1.1093798 0.1597,-0.42918 0.23438,-0.90336 0.23438,-1.41211 h 0.008 c 0,-0.50128 -0.0759,-0.96854 -0.23438,-1.39648 -0.15621,-0.42981 -0.38216,-0.80908 -0.67773,-1.12305 -0.28776,-0.31369 -0.63983,-0.55641 -1.03906,-0.7207 -0.40191,-0.17431 -0.83913,-0.25977 -1.29883,-0.25977 z m -0.11328,1.03907 c 0.54235,-0.0425 1.11014,0.10554 1.51758,0.47656 0.76785,0.62626 0.93583,1.71677 0.74804,2.64258 -0.12867,0.83869 -0.78758,1.60117 -1.63281,1.76367 -0.82209,0.1882998 -1.76697,-0.0641 -2.26172,-0.7793 -0.53019,-0.69173 -0.55046,-1.62181 -0.39843,-2.44336 0.21073,-0.92005 1.05679,-1.69785 2.02734,-1.66015 z"
     id="path3307-6" />
</svg>
