<?xml version="1.0" encoding="UTF-8" standalone="no"?>
<svg
   xmlns:dc="http://purl.org/dc/elements/1.1/"
   xmlns:cc="http://creativecommons.org/ns#"
   xmlns:rdf="http://www.w3.org/1999/02/22-rdf-syntax-ns#"
   xmlns:svg="http://www.w3.org/2000/svg"
   xmlns="http://www.w3.org/2000/svg"
   xmlns:xlink="http://www.w3.org/1999/xlink"
   xmlns:sodipodi="http://sodipodi.sourceforge.net/DTD/sodipodi-0.dtd"
   xmlns:inkscape="http://www.inkscape.org/namespaces/inkscape"
   inkscape:export-ydpi="90.000000"
   inkscape:export-xdpi="90.000000"
   width="400"
   height="300"
   id="svg11300"
   sodipodi:version="0.32"
   inkscape:version="1.0.1 (3bc2e813f5, 2020-09-07)"
   sodipodi:docname="user-desktop.svg"
   inkscape:output_extension="org.inkscape.output.svg.inkscape"
   version="1.0"
   style="display:inline;enable-background:new"
   inkscape:export-filename="/home/sam/suru-template.png">
  <title
     id="title3004">Suru Icon Theme Template</title>
  <sodipodi:namedview
     stroke="#ef2929"
     fill="#f57900"
     id="base"
     pagecolor="#ffffff"
     bordercolor="#000000"
     borderopacity="0.25490196"
     inkscape:pageopacity="0"
     inkscape:pageshadow="2"
     inkscape:zoom="1"
     inkscape:cx="193.47908"
     inkscape:cy="175.51368"
     inkscape:current-layer="layer6"
     showgrid="false"
     inkscape:grid-bbox="true"
     inkscape:document-units="px"
     inkscape:showpageshadow="false"
     inkscape:window-width="1294"
     inkscape:window-height="704"
     inkscape:window-x="72"
     inkscape:window-y="27"
     width="400px"
     height="300px"
     inkscape:snap-nodes="true"
     inkscape:snap-bbox="true"
     gridtolerance="10000"
     inkscape:object-nodes="true"
     inkscape:snap-grids="true"
     showguides="true"
     inkscape:guide-bbox="true"
     inkscape:window-maximized="1"
     inkscape:bbox-paths="true"
     inkscape:snap-bbox-midpoints="true"
     inkscape:snap-global="true"
     inkscape:object-paths="true"
     inkscape:snap-intersection-paths="true"
     inkscape:snap-smooth-nodes="true"
     inkscape:pagecheckerboard="false"
     showborder="false"
     inkscape:document-rotation="0">
    <inkscape:grid
       spacingy="1"
       spacingx="1"
       id="grid5883"
       type="xygrid"
       enabled="true"
       visible="true"
       empspacing="4"
       snapvisiblegridlinesonly="true"
       originx="0"
       originy="0" />
    <inkscape:grid
       type="xygrid"
       id="grid11592"
       empspacing="2"
       visible="true"
       enabled="false"
       spacingx="0.5"
       spacingy="0.5"
       color="#ff0000"
       opacity="0.1254902"
       empcolor="#ff0000"
       empopacity="0.25098039"
       snapvisiblegridlinesonly="true"
       originx="0"
       originy="0" />
  </sodipodi:namedview>
  <defs
     id="defs3">
    <linearGradient
       inkscape:collect="always"
       id="linearGradient2107">
      <stop
         id="stop2103"
         offset="0"
         style="stop-color:#5d8638;stop-opacity:1" />
      <stop
         id="stop2105"
         offset="1"
         style="stop-color:#93b258;stop-opacity:1" />
    </linearGradient>
    <clipPath
       clipPathUnits="userSpaceOnUse"
       id="clipPath9430">
      <path
         sodipodi:nodetypes="sssssssss"
         inkscape:connector-curvature="0"
         id="path9432"
         d="m 166.0625,-196 h 179.875 C 491.2348,-196 512,-175.28677 512,-30.125 v 148.25 C 512,263.28618 491.2348,284 345.9375,284 H 166.0625 C 20.7652,284 0,263.28618 0,118.125 V -30.125 C 0,-175.28677 20.7652,-196 166.0625,-196 Z"
         style="color:#000000;display:inline;overflow:visible;visibility:visible;fill:#ffffff;fill-opacity:1;fill-rule:nonzero;stroke:none;stroke-width:1;marker:none;enable-background:new" />
    </clipPath>
    <clipPath
       clipPathUnits="userSpaceOnUse"
       id="clipPath1082">
      <path
         sodipodi:nodetypes="sssssssss"
         inkscape:connector-curvature="0"
         id="path1084"
         d="M 361.9375,-212 C 507.2348,-212 528,-191.28677 528,-46.125 V 70.125 C 528,215.28618 507.2348,236 361.9375,236 H 214.0625 C 68.7652,236 48,215.28618 48,70.125 V -46.125 C 48,-191.28677 68.7652,-212 214.0625,-212 Z"
         style="display:inline;opacity:1;fill:#8c59d9;fill-opacity:1;stroke:none;stroke-width:2;stroke-linecap:round;stroke-linejoin:round;stroke-miterlimit:4;stroke-dasharray:none;stroke-dashoffset:0;stroke-opacity:1;enable-background:new" />
    </clipPath>
    <filter
       inkscape:collect="always"
       style="color-interpolation-filters:sRGB"
       id="filter4346"
       x="-0.013249796"
       width="1.0264996"
       y="-0.010965657"
       height="1.0219313">
      <feGaussianBlur
         inkscape:collect="always"
         stdDeviation="2.120027"
         id="feGaussianBlur4348" />
    </filter>
    <linearGradient
       gradientUnits="userSpaceOnUse"
       y2="119.09284"
       x2="-35.310345"
       y1="401.58368"
       x1="529.65515"
       id="linearGradient4226"
       xlink:href="#linearGradient2107"
       inkscape:collect="always"
       gradientTransform="matrix(0.453125,0,0,0.45311204,39.9973,46.0403)" />
    <clipPath
       clipPathUnits="userSpaceOnUse"
       id="clipPath994">
      <path
         style="color:#000000;display:inline;overflow:visible;visibility:visible;fill:#cdcdcd;fill-opacity:1;fill-rule:nonzero;stroke:none;stroke-width:2;stroke-miterlimit:4;stroke-dasharray:none;stroke-opacity:1;marker:none;enable-background:accumulate"
         d="m 335.73108,62 c -8.82418,0 -9.77365,0.90635 -9.7304,9.74838 V 84 96.25162 c -0.0433,8.84203 0.90622,9.74838 9.7304,9.74838 h 16.53919 c 8.82418,0 9.7304,-0.90625 9.7304,-9.74838 V 84 71.74838 C 362.00067,62.90625 361.09445,62 352.27027,62 Z"
         id="path996"
         inkscape:connector-curvature="0"
         sodipodi:nodetypes="scccssscsss" />
    </clipPath>
    <linearGradient
       inkscape:collect="always"
       xlink:href="#linearGradient2107"
       id="linearGradient916"
       gradientUnits="userSpaceOnUse"
       gradientTransform="matrix(0.05664062,0,0,0.05663901,317.99963,183.25507)"
       x1="459.03448"
       y1="419.23337"
       x2="35.310345"
       y2="207.36522" />
    <linearGradient
       inkscape:collect="always"
       xlink:href="#linearGradient2107"
       id="linearGradient920"
       gradientUnits="userSpaceOnUse"
       gradientTransform="matrix(0.03604403,0,0,0.03604301,319.09069,232.43546)"
       x1="459.03448"
       y1="419.23337"
       x2="35.310345"
       y2="207.36522" />
    <linearGradient
       inkscape:collect="always"
       xlink:href="#linearGradient2107"
       id="linearGradient924"
       gradientUnits="userSpaceOnUse"
       gradientTransform="matrix(0.07208805,0,0,0.07208601,318.18139,125.87091)"
       x1="459.03448"
       y1="419.23337"
       x2="35.310345"
       y2="207.36522" />
    <linearGradient
       inkscape:collect="always"
       id="linearGradient927">
      <stop
         style="stop-color:#ffffff;stop-opacity:1;"
         offset="0"
         id="stop923" />
      <stop
         id="stop933"
         offset="0.125"
         style="stop-color:#ffffff;stop-opacity:0.09803922" />
      <stop
         id="stop931"
         offset="0.92500001"
         style="stop-color:#ffffff;stop-opacity:0.09803922" />
      <stop
         style="stop-color:#ffffff;stop-opacity:0.49803922"
         offset="1"
         id="stop925" />
    </linearGradient>
    <linearGradient
       inkscape:collect="always"
       xlink:href="#linearGradient927"
       id="linearGradient981"
       x1="333"
       y1="192"
       x2="333"
       y2="208"
       gradientUnits="userSpaceOnUse"
       gradientTransform="rotate(90,331.99966,200)" />
    <clipPath
       clipPathUnits="userSpaceOnUse"
       id="clipPath971">
      <path
         style="color:#000000;display:inline;overflow:visible;visibility:visible;opacity:1;fill:#46a926;fill-opacity:1;fill-rule:nonzero;stroke:none;stroke-width:2;stroke-miterlimit:4;stroke-dasharray:none;stroke-opacity:1;marker:none;enable-background:accumulate"
         d="m 327.8652,189 c -4.41209,0 -4.88682,0.45318 -4.8652,4.87419 V 200 206.12581 C 322.9783,210.54682 323.45311,211 327.8652,211 h 8.2696 C 340.54689,211 341,210.54688 341,206.12581 V 200 193.87419 C 341,189.45313 340.54688,189 336.13479,189 Z"
         id="path973"
         inkscape:connector-curvature="0"
         sodipodi:nodetypes="scccssscsss" />
    </clipPath>
    <linearGradient
       inkscape:collect="always"
       xlink:href="#linearGradient927"
       id="linearGradient993"
       x1="329"
       y1="239"
       x2="329"
       y2="250"
       gradientUnits="userSpaceOnUse"
       gradientTransform="rotate(90,328,244)" />
    <clipPath
       clipPathUnits="userSpaceOnUse"
       id="clipPath983">
      <path
         sodipodi:nodetypes="scccssscsss"
         inkscape:connector-curvature="0"
         id="path985"
         d="m 325.09646,237 c -2.80769,0 -3.10979,0.28839 -3.09603,3.10176 V 244 v 3.89824 c -0.0138,2.81337 0.28834,3.10176 3.09603,3.10176 h 5.8075 C 333.71166,251 334,250.71165 334,247.89824 V 244 240.10176 C 334,237.28836 333.71165,237 330.90396,237 Z"
         style="color:#000000;display:inline;overflow:visible;visibility:visible;opacity:1;fill:#46a926;fill-opacity:1;fill-rule:nonzero;stroke:none;stroke-width:2;stroke-miterlimit:4;stroke-dasharray:none;stroke-opacity:1;marker:none;enable-background:accumulate" />
    </clipPath>
    <linearGradient
       inkscape:collect="always"
       xlink:href="#linearGradient927"
       id="linearGradient969"
       x1="336"
       y1="136"
       x2="336"
       y2="160"
       gradientUnits="userSpaceOnUse"
       gradientTransform="rotate(90,335.99998,147.99998)" />
    <clipPath
       clipPathUnits="userSpaceOnUse"
       id="clipPath959">
      <path
         style="color:#000000;display:inline;overflow:visible;visibility:visible;opacity:1;fill:#46a926;fill-opacity:1;fill-rule:nonzero;stroke:none;stroke-width:2;stroke-miterlimit:4;stroke-dasharray:none;stroke-opacity:1;marker:none;enable-background:accumulate"
         d="m 330.1929,133.99999 c -5.61538,0 -6.21958,0.57678 -6.19206,6.20352 v 7.79648 7.79648 c -0.0276,5.62673 0.57668,6.20351 6.19206,6.20351 h 11.615 c 5.6154,0 6.19208,-0.5767 6.19208,-6.20351 v -7.79648 -7.79648 c 0,-5.6268 -0.5767,-6.20352 -6.19208,-6.20352 z"
         id="path961"
         inkscape:connector-curvature="0"
         sodipodi:nodetypes="scccssscsss" />
    </clipPath>
    <linearGradient
       inkscape:collect="always"
       id="linearGradient4338-3-3">
      <stop
         style="stop-color:#281d2c;stop-opacity:1"
         offset="0"
         id="stop4340-0-1" />
      <stop
         style="stop-color:#331d3b;stop-opacity:1"
         offset="1"
         id="stop4342-7-0" />
    </linearGradient>
    <clipPath
       clipPathUnits="userSpaceOnUse"
       id="clipPath1101">
      <path
         sodipodi:nodetypes="scccssscsss"
         inkscape:connector-curvature="0"
         id="path1103"
         d="m 39.9973,106.92432 c 0,-35.29673 3.625418,-39.09461 38.99353,-38.92162 h 73.00647 73.00647 c 35.36812,-0.17299 38.99353,3.62489 38.99353,38.92162 v 98.15676 c 0,35.29672 -3.625,38.92162 -38.99353,38.92162 H 151.9973 78.99083 c -35.368533,0 -38.99353,-3.6249 -38.99353,-38.92162 z"
         style="color:#000000;display:inline;overflow:visible;visibility:visible;fill:url(#linearGradient1105);fill-opacity:1;fill-rule:nonzero;stroke:none;stroke-width:1;marker:none;enable-background:accumulate" />
    </clipPath>
    <linearGradient
       inkscape:collect="always"
       xlink:href="#linearGradient4338-3-3"
       id="linearGradient1105"
       gradientUnits="userSpaceOnUse"
       gradientTransform="matrix(-0.453125,0,0,0.45311204,263.9973,30.0403)"
       x1="529.65515"
       y1="401.58368"
       x2="-35.310345"
       y2="119.09284" />
    <linearGradient
       inkscape:collect="always"
       id="linearGradient4338-3">
      <stop
         id="stop4342-7"
         offset="0"
         style="stop-color:#a7a7f1;stop-opacity:1" />
      <stop
         id="stop4340-0"
         offset="1"
         style="stop-color:#8c59d9;stop-opacity:1" />
    </linearGradient>
    <clipPath
       clipPathUnits="userSpaceOnUse"
       id="clipPath934">
      <path
         sodipodi:nodetypes="scccssscsss"
         inkscape:connector-curvature="0"
         id="path936"
         d="m 335.73108,61.999999 c -8.82418,0 -9.77365,0.90635 -9.7304,9.74838 v 12.25162 l 0,12.25162 C 325.95738,105.09365 326.9069,106 335.73108,106 h 18.53919 c 8.82418,0 9.7304,-0.90625 9.7304,-9.748381 v -12.25162 -12.25162 c 0,-8.84213 -0.90622,-9.74838 -9.7304,-9.74838 z"
         style="color:#000000;display:inline;overflow:visible;visibility:visible;fill:#cdcdcd;fill-opacity:1;fill-rule:nonzero;stroke:none;stroke-width:2;stroke-miterlimit:4;stroke-dasharray:none;stroke-opacity:1;marker:none;enable-background:accumulate" />
    </clipPath>
    <linearGradient
       inkscape:collect="always"
       id="linearGradient927-3-6">
      <stop
         style="stop-color:#ffffff;stop-opacity:1;"
         offset="0"
         id="stop923-3" />
      <stop
         id="stop933-6"
         offset="0.125"
         style="stop-color:#ffffff;stop-opacity:0.09803922" />
      <stop
         id="stop931-7"
         offset="0.92500001"
         style="stop-color:#ffffff;stop-opacity:0.09803922" />
      <stop
         style="stop-color:#000000;stop-opacity:0.49803922"
         offset="1"
         id="stop925-5" />
    </linearGradient>
    <linearGradient
       inkscape:collect="always"
       xlink:href="#linearGradient927-3-6"
       id="linearGradient945"
       x1="348"
       y1="65"
       x2="348"
       y2="105"
       gradientUnits="userSpaceOnUse" />
    <linearGradient
       inkscape:collect="always"
       xlink:href="#linearGradient2107"
       id="linearGradient962"
       gradientUnits="userSpaceOnUse"
       gradientTransform="matrix(0.11328125,0,0,0.11327801,315.99932,50.510767)"
       x1="512"
       y1="397.99393"
       x2="-1.0000001e-06"
       y2="125.99394" />
    <clipPath
       clipPathUnits="userSpaceOnUse"
       id="clipPath942">
      <path
         id="path944"
         d="m 39.998047,108 v 113.08203 c 0,35.29672 3.623657,38.91992 38.992187,38.91992 h 73.007816 73.00586 c 35.36853,0 38.99414,-3.6232 38.99414,-38.91992 V 108 Z"
         style="color:#000000;display:inline;overflow:visible;visibility:visible;fill:url(#linearGradient946);fill-opacity:1;fill-rule:nonzero;stroke:none;stroke-width:1;marker:none;enable-background:accumulate"
         inkscape:connector-curvature="0" />
    </clipPath>
    <linearGradient
       inkscape:collect="always"
       xlink:href="#linearGradient4338-3"
       id="linearGradient946"
       gradientUnits="userSpaceOnUse"
       gradientTransform="matrix(0.453125,0,0,0.45311204,39.9973,46.0403)"
       x1="529.65515"
       y1="401.58368"
       x2="-35.310345"
       y2="119.09284" />
    <filter
       inkscape:collect="always"
       style="color-interpolation-filters:sRGB"
       id="filter965"
       x="-0.022286003"
       width="1.044572"
       y="-0.025999607"
       height="1.0519992">
      <feGaussianBlur
         inkscape:collect="always"
         stdDeviation="4.160054"
         id="feGaussianBlur967" />
    </filter>
    <filter
       inkscape:collect="always"
       style="color-interpolation-filters:sRGB"
       id="filter2353"
       x="-0.108"
       width="1.216"
       y="-0.108"
       height="1.216">
      <feGaussianBlur
         inkscape:collect="always"
         stdDeviation="4.32"
         id="feGaussianBlur2355" />
    </filter>
  </defs>
  <metadata
     id="metadata4">
    <rdf:RDF>
      <cc:Work
         rdf:about="">
        <dc:format>image/svg+xml</dc:format>
        <dc:type
           rdf:resource="http://purl.org/dc/dcmitype/StillImage" />
        <dc:creator>
          <cc:Agent>
            <dc:title>Sam Hewitt</dc:title>
          </cc:Agent>
        </dc:creator>
        <dc:source />
        <cc:license
           rdf:resource="http://creativecommons.org/licenses/by-sa/4.0/" />
        <dc:title>Suru Icon Theme Template</dc:title>
        <dc:subject>
          <rdf:Bag />
        </dc:subject>
        <dc:date />
        <dc:rights>
          <cc:Agent>
            <dc:title />
          </cc:Agent>
        </dc:rights>
        <dc:publisher>
          <cc:Agent>
            <dc:title />
          </cc:Agent>
        </dc:publisher>
        <dc:identifier />
        <dc:relation />
        <dc:language />
        <dc:coverage />
        <dc:description />
        <dc:contributor>
          <cc:Agent>
            <dc:title />
          </cc:Agent>
        </dc:contributor>
      </cc:Work>
      <cc:Work
         rdf:about="">
        <dc:format>image/svg+xml</dc:format>
        <dc:type
           rdf:resource="http://purl.org/dc/dcmitype/StillImage" />
      </cc:Work>
      <cc:License
         rdf:about="http://creativecommons.org/licenses/by-sa/4.0/">
        <cc:permits
           rdf:resource="http://creativecommons.org/ns#Reproduction" />
        <cc:permits
           rdf:resource="http://creativecommons.org/ns#Distribution" />
        <cc:requires
           rdf:resource="http://creativecommons.org/ns#Notice" />
        <cc:requires
           rdf:resource="http://creativecommons.org/ns#Attribution" />
        <cc:permits
           rdf:resource="http://creativecommons.org/ns#DerivativeWorks" />
        <cc:requires
           rdf:resource="http://creativecommons.org/ns#ShareAlike" />
      </cc:License>
    </rdf:RDF>
  </metadata>
  <g
     style="display:inline"
     inkscape:groupmode="layer"
     inkscape:label="Icon"
     id="layer1">
    <g
       style="display:none"
       inkscape:label="Baseplate"
       id="layer7"
       inkscape:groupmode="layer">
      <text
         y="-8.2548828"
         xml:space="preserve"
         x="19.006836"
         style="font-style:normal;font-variant:normal;font-weight:normal;font-stretch:normal;line-height:0%;font-family:'DejaVu Sans';-inkscape-font-specification:'DejaVu Sans';display:inline;fill:#000000;fill-opacity:1;stroke:none;enable-background:new"
         inkscape:label="context"
         id="context"><tspan
           style="font-style:normal;font-variant:normal;font-weight:normal;font-stretch:normal;font-size:18px;line-height:1.25;font-family:'DejaVu Sans';-inkscape-font-specification:'DejaVu Sans'"
           y="-8.2548828"
           x="19.006836"
           sodipodi:role="line"
           id="tspan3933">places</tspan></text>
      <text
         y="-8.2548828"
         xml:space="preserve"
         x="146.48828"
         style="font-style:normal;font-variant:normal;font-weight:bold;font-stretch:normal;line-height:0%;font-family:'DejaVu Sans';-inkscape-font-specification:'DejaVu Sans Bold';text-align:start;writing-mode:lr-tb;text-anchor:start;display:inline;fill:#000000;fill-opacity:1;stroke:none;enable-background:new"
         inkscape:label="icon-name"
         id="icon-name"><tspan
           style="font-style:normal;font-variant:normal;font-weight:bold;font-stretch:normal;font-size:18px;line-height:1.25;font-family:'DejaVu Sans';-inkscape-font-specification:'DejaVu Sans Bold'"
           y="-8.2548828"
           x="146.48828"
           sodipodi:role="line"
           id="tspan924">user-desktop</tspan></text>
      <rect
         style="display:inline;overflow:visible;visibility:visible;fill:#cdcdcd;fill-opacity:1;fill-rule:nonzero;stroke:none;stroke-width:2;marker:none;enable-background:accumulate"
         id="rect16x16"
         width="16"
         height="16"
         x="320"
         y="236"
         inkscape:label="16x16"
         inkscape:export-xdpi="95.996666"
         inkscape:export-ydpi="95.996666" />
      <rect
         style="display:inline;overflow:visible;visibility:visible;fill:#cdcdcd;fill-opacity:1;fill-rule:nonzero;stroke:none;stroke-width:2;marker:none;enable-background:accumulate"
         id="rect24x24"
         width="24"
         height="24"
         x="320"
         y="188"
         inkscape:label="24x24"
         inkscape:export-xdpi="95.996666"
         inkscape:export-ydpi="95.996666" />
      <rect
         style="display:inline;overflow:visible;visibility:visible;fill:#cdcdcd;fill-opacity:1;fill-rule:nonzero;stroke:none;stroke-width:2;marker:none;enable-background:accumulate"
         id="rect32x32"
         width="32"
         height="32"
         x="320"
         y="132"
         inkscape:label="32x32"
         inkscape:export-xdpi="95.996666"
         inkscape:export-ydpi="95.996666" />
      <rect
         inkscape:label="48x48"
         y="60"
         x="320"
         height="48"
         width="48"
         id="rect48x48"
         style="display:inline;overflow:visible;visibility:visible;fill:#cdcdcd;fill-opacity:1;fill-rule:nonzero;stroke:none;stroke-width:2;marker:none;enable-background:accumulate"
         inkscape:export-xdpi="95.996666"
         inkscape:export-ydpi="95.996666" />
      <rect
         style="display:inline;overflow:visible;visibility:visible;fill:#cdcdcd;fill-opacity:1;fill-rule:nonzero;stroke:none;stroke-width:2;marker:none;enable-background:accumulate"
         id="rect3951"
         width="256"
         height="256"
         x="24"
         y="28"
         inkscape:label="48x48"
         inkscape:export-xdpi="95.996666"
         inkscape:export-ydpi="95.996666" />
    </g>
    <g
       inkscape:groupmode="layer"
       id="layer4"
       inkscape:label="Shadows"
       style="display:inline"
       sodipodi:insensitive="true">
      <path
         style="color:#000000;font-style:normal;font-variant:normal;font-weight:normal;font-stretch:normal;font-size:medium;line-height:normal;font-family:sans-serif;font-variant-ligatures:normal;font-variant-position:normal;font-variant-caps:normal;font-variant-numeric:normal;font-variant-alternates:normal;font-feature-settings:normal;text-indent:0;text-align:start;text-decoration:none;text-decoration-line:none;text-decoration-style:solid;text-decoration-color:#000000;letter-spacing:normal;word-spacing:normal;text-transform:none;writing-mode:lr-tb;direction:ltr;text-orientation:mixed;dominant-baseline:auto;baseline-shift:baseline;text-anchor:start;white-space:normal;shape-padding:0;clip-rule:nonzero;display:inline;overflow:visible;visibility:visible;opacity:0.1;isolation:auto;mix-blend-mode:normal;color-interpolation:sRGB;color-interpolation-filters:linearRGB;solid-color:#000000;solid-opacity:1;vector-effect:none;fill:#000000;fill-opacity:1;fill-rule:nonzero;stroke:none;stroke-width:1;stroke-linecap:butt;stroke-linejoin:miter;stroke-miterlimit:4;stroke-dasharray:none;stroke-dashoffset:0;stroke-opacity:1;marker:none;color-rendering:auto;image-rendering:auto;shape-rendering:auto;text-rendering:auto;enable-background:accumulate"
         d="m 324.10156,238 c -0.71915,0 -1.30483,0.0125 -1.83594,0.10156 -0.53547,0.0898 -1.06731,0.277 -1.47656,0.68555 -0.40957,0.4089 -0.59739,0.93918 -0.6875,1.47461 -0.0893,0.5307 -0.10156,1.11632 -0.10156,1.83398 v 5.8086 c 0,0.7177 0.0124,1.30264 0.10156,1.83398 0.09,0.53651 0.27895,1.06902 0.6875,1.47852 0.40843,0.40938 0.93899,0.59618 1.47656,0.68554 0.53194,0.0884 1.11889,0.10116 1.8379,0.0977 H 328 h 3.89648 c 0.71856,0.003 1.30564,-0.009 1.8379,-0.0977 0.53758,-0.0893 1.06814,-0.27615 1.47656,-0.68554 0.40854,-0.40951 0.59548,-0.94204 0.68554,-1.47852 C 335.98565,249.20693 336,248.622 336,247.9043 v -5.8086 c 0,-0.71766 -0.0142,-1.30328 -0.10352,-1.83398 -0.0901,-0.53541 -0.27596,-1.0657 -0.68554,-1.47461 -0.40926,-0.40854 -0.94112,-0.59573 -1.47656,-0.68555 C 333.20327,238.0125 332.61759,238 331.89844,238 H 328 Z"
         id="path1036"
         inkscape:connector-curvature="0"
         sodipodi:nodetypes="scccsscscccccscsscccscs" />
      <path
         style="color:#000000;font-style:normal;font-variant:normal;font-weight:normal;font-stretch:normal;font-size:medium;line-height:normal;font-family:sans-serif;font-variant-ligatures:normal;font-variant-position:normal;font-variant-caps:normal;font-variant-numeric:normal;font-variant-alternates:normal;font-feature-settings:normal;text-indent:0;text-align:start;text-decoration:none;text-decoration-line:none;text-decoration-style:solid;text-decoration-color:#000000;letter-spacing:normal;word-spacing:normal;text-transform:none;writing-mode:lr-tb;direction:ltr;text-orientation:mixed;dominant-baseline:auto;baseline-shift:baseline;text-anchor:start;white-space:normal;shape-padding:0;clip-rule:nonzero;display:inline;overflow:visible;visibility:visible;opacity:0.1;isolation:auto;mix-blend-mode:normal;color-interpolation:sRGB;color-interpolation-filters:linearRGB;solid-color:#000000;solid-opacity:1;vector-effect:none;fill:#000000;fill-opacity:1;fill-rule:nonzero;stroke:none;stroke-width:2;stroke-linecap:butt;stroke-linejoin:miter;stroke-miterlimit:4;stroke-dasharray:none;stroke-dashoffset:0;stroke-opacity:1;marker:none;color-rendering:auto;image-rendering:auto;shape-rendering:auto;text-rendering:auto;enable-background:accumulate"
         d="m 320.99928,95.268807 c 0,2.22316 0.0512,3.97368 0.29297,5.414063 0.24178,1.44039 0.69529,2.61905 1.55664,3.48243 0.86134,0.86337 2.03947,1.31906 3.48046,1.55859 1.441,0.23953 3.19535,0.28629 5.42383,0.27539 h 12.2461 12.25195 c 2.22506,0.0108 3.97852,-0.0361 5.41797,-0.27539 1.441,-0.23953 2.61913,-0.69522 3.48047,-1.55859 0.86134,-0.86338 1.31486,-2.04204 1.55664,-3.48243 0.24179,-1.440393 0.29297,-3.190903 0.29297,-5.414063 v -16.53906 c 0,-2.22316 -0.0511,-3.97276 -0.29297,-5.41016 -0.24189,-1.4374 -0.69694,-2.61246 -1.55859,-3.47265 -0.86165,-0.8602 -2.03894,-1.3132 -3.47852,-1.55469 -1.43957,-0.24149 -3.19036,-0.29297 -5.41797,-0.29297 h -12.25195 -12.25196 c -2.22761,0 -3.97839,0.0515 -5.41797,0.29297 -1.43957,0.24149 -2.61686,0.69449 -3.47851,1.55469 -0.86165,0.86019 -1.31671,2.03525 -1.55859,3.47265 -0.24189,1.4374 -0.29297,3.187 -0.29297,5.41016 z"
         id="path1020"
         inkscape:connector-curvature="0"
         sodipodi:nodetypes="sccsccccccsscccscsccsss" />
      <path
         style="color:#000000;display:inline;overflow:visible;visibility:visible;opacity:0.1;fill:#000000;fill-opacity:1;fill-rule:nonzero;stroke:none;stroke-width:2;marker:none;filter:url(#filter4346);enable-background:accumulate"
         d="M 189.84323,74 C 119.24979,74 111.65402,81.250835 112,151.98706 V 298 444.01294 C 111.65402,514.74917 119.24979,522 189.84323,522 H 418.15677 C 488.75021,522 494.0629,514.72348 496,444.01294 V 298 151.98706 C 496,81.249993 488.75021,74 418.15677,74 Z"
         id="rect4158-9"
         inkscape:connector-curvature="0"
         sodipodi:nodetypes="scccssscsss"
         transform="matrix(0,-0.5,0.5,0,2.9973021,316.9973)" />
      <path
         sodipodi:nodetypes="scccssscsss"
         inkscape:connector-curvature="0"
         id="path4350"
         d="M 189.84323,74 C 119.24979,74 111.65402,81.250835 112,151.98706 V 298 444.01294 C 111.65402,514.74917 119.24979,522 189.84323,522 H 418.15677 C 488.75021,522 496,514.75001 496,444.01294 V 298 151.98706 C 496,81.249993 488.75021,74 418.15677,74 Z"
         style="color:#000000;display:inline;overflow:visible;visibility:visible;opacity:0.2;fill:#000000;fill-opacity:1;fill-rule:nonzero;stroke:none;stroke-width:2;marker:none;enable-background:accumulate;filter:url(#filter965)"
         transform="matrix(0,0.5,0.5,0,2.9973021,13.00269)" />
      <path
         style="color:#000000;font-style:normal;font-variant:normal;font-weight:normal;font-stretch:normal;font-size:medium;line-height:normal;font-family:sans-serif;font-variant-ligatures:normal;font-variant-position:normal;font-variant-caps:normal;font-variant-numeric:normal;font-variant-alternates:normal;font-feature-settings:normal;text-indent:0;text-align:start;text-decoration:none;text-decoration-line:none;text-decoration-style:solid;text-decoration-color:#000000;letter-spacing:normal;word-spacing:normal;text-transform:none;writing-mode:lr-tb;direction:ltr;text-orientation:mixed;dominant-baseline:auto;baseline-shift:baseline;text-anchor:start;white-space:normal;shape-padding:0;clip-rule:nonzero;display:inline;overflow:visible;visibility:visible;opacity:0.1;isolation:auto;mix-blend-mode:normal;color-interpolation:sRGB;color-interpolation-filters:linearRGB;solid-color:#000000;solid-opacity:1;vector-effect:none;fill:#000000;fill-opacity:1;fill-rule:nonzero;stroke:none;stroke-width:2;stroke-linecap:butt;stroke-linejoin:miter;stroke-miterlimit:4;stroke-dasharray:none;stroke-dashoffset:0;stroke-opacity:1;marker:none;color-rendering:auto;image-rendering:auto;shape-rendering:auto;text-rendering:auto;enable-background:accumulate"
         d="m 320.99951,155.80615 c 0,1.42096 0.0308,2.54883 0.19141,3.50586 0.16064,0.95703 0.4726,1.79146 1.09179,2.41211 0.61919,0.62065 1.45612,0.93647 2.41407,1.0957 0.95795,0.15924 2.08705,0.18666 3.51171,0.17969 h 7.79102 7.79688 c 1.42131,0.007 2.5495,-0.0207 3.50585,-0.17969 0.95796,-0.15923 1.79488,-0.47505 2.41407,-1.0957 0.61919,-0.62065 0.93115,-1.45508 1.09179,-2.41211 0.16065,-0.95703 0.19141,-2.0849 0.19141,-3.50586 v -11.61523 c 0,-1.42097 -0.0307,-2.54669 -0.19141,-3.50196 -0.16075,-0.95527 -0.47425,-1.78779 -1.09375,-2.40625 -0.6195,-0.61845 -1.45363,-0.93134 -2.41015,-1.09179 -0.95653,-0.16046 -2.08403,-0.19141 -3.50781,-0.19141 h -7.79688 -7.79688 c -1.42378,0 -2.55128,0.031 -3.50781,0.19141 -0.95653,0.16045 -1.79065,0.47334 -2.41015,1.09179 -0.61951,0.61846 -0.933,1.45098 -1.09375,2.40625 -0.16076,0.95527 -0.19141,2.08099 -0.19141,3.50196 z"
         id="path999"
         inkscape:connector-curvature="0"
         sodipodi:nodetypes="scscccccscsscccscscscss" />
      <path
         style="color:#000000;font-style:normal;font-variant:normal;font-weight:normal;font-stretch:normal;font-size:medium;line-height:normal;font-family:sans-serif;font-variant-ligatures:normal;font-variant-position:normal;font-variant-caps:normal;font-variant-numeric:normal;font-variant-alternates:normal;font-feature-settings:normal;text-indent:0;text-align:start;text-decoration:none;text-decoration-line:none;text-decoration-style:solid;text-decoration-color:#000000;letter-spacing:normal;word-spacing:normal;text-transform:none;writing-mode:lr-tb;direction:ltr;text-orientation:mixed;dominant-baseline:auto;baseline-shift:baseline;text-anchor:start;white-space:normal;shape-padding:0;clip-rule:nonzero;display:inline;overflow:visible;visibility:visible;opacity:0.1;isolation:auto;mix-blend-mode:normal;color-interpolation:sRGB;color-interpolation-filters:linearRGB;solid-color:#000000;solid-opacity:1;vector-effect:none;fill:#000000;fill-opacity:1;fill-rule:nonzero;stroke:none;stroke-width:1;stroke-linecap:butt;stroke-linejoin:miter;stroke-miterlimit:4;stroke-dasharray:none;stroke-dashoffset:0;stroke-opacity:1;marker:none;color-rendering:auto;image-rendering:auto;shape-rendering:auto;text-rendering:auto;enable-background:accumulate"
         d="m 325.875,192 c -1.1215,0 -2.02115,0.0225 -2.79492,0.15234 -0.77661,0.13029 -1.47821,0.38927 -2.00781,0.91797 -0.52965,0.52877 -0.78935,1.22994 -0.91993,2.00586 C 320.0223,195.84899 320,196.746 320,197.86523 v 8.26954 c 0,1.11925 0.0224,2.01501 0.15234,2.78906 0.13049,0.77729 0.39053,1.48303 0.91993,2.01367 0.52954,0.5308 1.23351,0.78862 2.01171,0.91797 0.77469,0.12878 1.67184,0.14998 2.79297,0.14453 H 332 h 6.12305 c 1.12086,0.005 2.01803,-0.0157 2.79297,-0.14453 0.77821,-0.12935 1.48217,-0.38716 2.01171,-0.91797 0.52939,-0.53064 0.78749,-1.23638 0.91797,-2.01367 0.12993,-0.77406 0.1543,-1.66981 0.1543,-2.78906 v -8.26954 c 0,-1.11922 -0.0242,-2.01621 -0.1543,-2.78906 -0.13058,-0.77592 -0.38832,-1.47709 -0.91797,-2.00586 -0.5296,-0.5287 -1.23315,-0.78768 -2.00976,-0.91797 C 340.14424,192.02256 339.24651,192 338.125,192 H 332 Z"
         id="path1065"
         inkscape:connector-curvature="0"
         sodipodi:nodetypes="scccsscccccccccsscccscs" />
    </g>
    <g
       inkscape:groupmode="layer"
       id="layer2"
       inkscape:label="Background"
       style="display:inline;opacity:1">
      <path
         style="color:#000000;display:inline;overflow:visible;visibility:visible;fill:url(#linearGradient920);fill-opacity:1;fill-rule:nonzero;stroke:none;stroke-width:1;marker:none;enable-background:accumulate"
         d="M 324.10156 237.5 C 323.39035 237.497 322.8261 237.51034 322.34766 237.58984 C 321.86868 237.66944 321.45217 237.82639 321.14258 238.13672 C 320.83298 238.44705 320.67603 238.86523 320.5957 239.34375 C 320.51939 239.79849 320.50352 240.33862 320.50195 241 C 320.50187 241.03459 320.5 241.06039 320.5 241.0957 L 320.5 246.9043 C 320.5 247.61478 320.5153 248.17666 320.5957 248.6543 C 320.6761 249.13193 320.83283 249.55013 321.14258 249.85938 C 321.45233 250.16859 321.86939 250.32407 322.34766 250.4043 C 322.82592 250.4845 323.38967 250.5 324.10156 250.5 L 328 250.5 L 331.89844 250.5 C 332.61033 250.5 333.17408 250.4845 333.65234 250.4043 C 334.13061 250.3241 334.54767 250.16858 334.85742 249.85938 C 335.16717 249.55014 335.32392 249.13193 335.4043 248.6543 C 335.4847 248.17666 335.5 247.61478 335.5 246.9043 L 335.5 241.0957 C 335.5 241.06039 335.49813 241.03459 335.49805 241 C 335.49648 240.33862 335.48061 239.79848 335.4043 239.34375 C 335.324 238.86524 335.16702 238.44704 334.85742 238.13672 C 334.54783 237.8264 334.13132 237.66946 333.65234 237.58984 C 333.17337 237.51024 332.60882 237.4965 331.89648 237.5 L 328 237.5 L 324.10156 237.5 z "
         id="path918"
         inkscape:export-xdpi="95.996666"
         inkscape:export-ydpi="95.996666" />
      <path
         style="color:#000000;display:inline;overflow:visible;visibility:visible;fill:url(#linearGradient962);fill-opacity:1;fill-rule:nonzero;stroke:none;stroke-width:1;marker:none;enable-background:accumulate"
         d="m 331.74805,65 c -2.22703,0 -3.98101,0.04964 -5.41993,0.291016 -1.44026,0.241603 -2.61438,0.693961 -3.47656,1.554687 -0.86248,0.861023 -1.3166,2.036651 -1.55859,3.474609 C 321.20683,70.832186 321.15149,71.401094 321.10742,72 321.02784,73.081663 321,74.299797 321,75.730469 v 18.539062 c 0,2.222843 0.0514,3.974746 0.29297,5.414063 0.24191,1.441106 0.69492,2.616716 1.55664,3.480466 0.86187,0.86391 2.03884,1.31896 3.48047,1.5586 1.43916,0.23922 3.19276,0.2882 5.41992,0.27734 H 344 356.24805 c 2.22714,0.0108 3.98268,-0.0381 5.42187,-0.27734 1.44163,-0.23964 2.61664,-0.69468 3.47852,-1.5586 0.86171,-0.86375 1.31473,-2.03935 1.55664,-3.480466 C 366.94669,98.244252 367,96.492367 367,94.269531 V 75.730469 C 367,74.299833 366.9727,73.081645 366.89258,72 c -0.0444,-0.598936 -0.10136,-1.16779 -0.1875,-1.679688 -0.24198,-1.43796 -0.69415,-2.613586 -1.55664,-3.474609 -0.86218,-0.860726 -2.03824,-1.313084 -3.47852,-1.554687 C 360.23999,65.051137 358.7096,65 356.25195,65 H 344 Z"
         id="path958"
         inkscape:export-xdpi="95.996666"
         inkscape:export-ydpi="95.996666" />
      <path
         style="color:#000000;display:inline;overflow:visible;visibility:visible;fill:url(#linearGradient4226);fill-opacity:1;fill-rule:nonzero;stroke:none;stroke-width:1;marker:none;enable-background:accumulate"
         d="M 78.990234 68.003906 C 43.622114 67.830928 39.998047 72.168606 39.998047 107.46289 L 39.998047 108 L 39.998047 109 L 39.998047 221.08203 C 39.998047 256.37875 43.621704 260.00195 78.990234 260.00195 L 151.99805 260.00195 L 225.00391 260.00195 C 260.37244 260.00195 263.99805 256.37875 263.99805 221.08203 L 263.99805 109 L 263.99805 108 L 263.99805 107.46289 C 263.99805 72.168606 260.37202 67.830928 225.00391 68.003906 L 151.99805 68.003906 L 78.990234 68.003906 z "
         id="rect4158"
         inkscape:export-xdpi="95.996666"
         inkscape:export-ydpi="95.996666" />
      <path
         style="color:#000000;display:inline;overflow:visible;visibility:visible;fill:url(#linearGradient916);fill-opacity:1;fill-rule:nonzero;stroke:none;stroke-width:1;marker:none;enable-background:accumulate"
         d="M 325.875 191.5 C 324.7619 191.495 323.886 191.517 323.16602 191.63672 C 322.44551 191.75648 321.85645 191.98432 321.42578 192.41602 C 320.99511 192.84771 320.76738 193.43801 320.64648 194.1582 C 320.56046 194.67069 320.53026 195.3012 320.51562 196 C 320.5097 196.28323 320.5 196.54464 320.5 196.86523 L 320.5 205.13477 C 320.5 206.24635 320.5255 207.12114 320.64648 207.83984 C 320.76743 208.55854 320.99496 209.14607 321.42578 209.57617 C 321.85661 210.00627 322.44427 210.23277 323.16406 210.35352 C 323.88385 210.47426 324.76119 210.5 325.875 210.5 L 332 210.5 L 338.125 210.5 C 339.23881 210.5 340.11615 210.4743 340.83594 210.35352 C 341.55573 210.23277 342.14339 210.00627 342.57422 209.57617 C 343.00504 209.14607 343.23257 208.55854 343.35352 207.83984 C 343.47446 207.12114 343.5 206.24635 343.5 205.13477 L 343.5 196.86523 C 343.5 196.54464 343.4903 196.28323 343.48438 196 C 343.46974 195.3012 343.43953 194.67069 343.35352 194.1582 C 343.23262 193.43801 343.00489 192.8477 342.57422 192.41602 C 342.14355 191.98433 341.55448 191.75648 340.83398 191.63672 C 340.11349 191.51695 339.23729 191.49455 338.12305 191.5 L 332 191.5 L 325.875 191.5 z "
         id="path914"
         inkscape:export-xdpi="95.996666"
         inkscape:export-ydpi="95.996666" />
      <path
         style="color:#000000;display:inline;overflow:visible;visibility:visible;fill:url(#linearGradient924);fill-opacity:1;fill-rule:nonzero;stroke:none;stroke-width:0.99999994;marker:none;enable-background:accumulate"
         d="M 328.20312 136.5 C 326.78861 136.493 325.68043 136.524 324.7793 136.67383 C 323.87765 136.8237 323.16015 137.10424 322.63867 137.62695 C 322.11719 138.14967 321.83687 138.86807 321.68555 139.76953 C 321.62436 140.13403 321.59283 140.56111 321.56445 141 C 321.52265 141.64654 321.5 142.35205 321.5 143.19336 L 321.5 154.80859 C 321.5 156.221 321.5342 157.32706 321.68555 158.22656 C 321.83692 159.12606 322.11704 159.84253 322.63867 160.36328 C 323.1603 160.88403 323.87641 161.16332 324.77734 161.31445 C 325.67828 161.46558 326.78791 161.5 328.20312 161.5 L 336 161.5 L 343.79688 161.5 C 345.21211 161.5 346.32172 161.4656 347.22266 161.31445 C 348.12359 161.16332 348.83969 160.88403 349.36133 160.36328 C 349.88296 159.84253 350.16308 159.12606 350.31445 158.22656 C 350.46582 157.32706 350.5 156.221 350.5 154.80859 L 350.5 143.19336 C 350.5 142.35204 350.47539 141.64655 350.43359 141 C 350.40522 140.56112 350.37565 140.13402 350.31445 139.76953 C 350.16313 138.86808 349.88281 138.14966 349.36133 137.62695 C 348.83985 137.10425 348.12235 136.8237 347.2207 136.67383 C 346.31906 136.52395 345.2106 136.49308 343.79492 136.5 L 336 136.5 L 328.20312 136.5 z "
         id="path922"
         inkscape:export-xdpi="95.996666"
         inkscape:export-ydpi="95.996666" />
      <path
         style="color:#000000;display:inline;overflow:visible;visibility:visible;opacity:0.2;fill:#000000;fill-opacity:1;fill-rule:nonzero;stroke:none;stroke-width:1;marker:none;enable-background:accumulate"
         d="m 39.998047,219.08203 v 2 c 0,35.29672 3.623654,38.91992 38.992187,38.91992 h 73.007816 73.00586 c 35.36853,0 38.99414,-3.6232 38.99414,-38.91992 v -2 c 0,35.29672 -3.62561,38.91992 -38.99414,38.91992 H 151.99805 78.990234 c -35.368533,0 -38.992187,-3.6232 -38.992187,-38.91992 z"
         id="path1056"
         inkscape:connector-curvature="0"
         sodipodi:nodetypes="csscsscscsc"
         inkscape:export-xdpi="95.996666"
         inkscape:export-ydpi="95.996666" />
      <path
         id="rect1059-1"
         style="display:inline;opacity:0.1;fill:#000000;fill-opacity:1;stroke:none;stroke-width:2;stroke-linecap:round;stroke-linejoin:round;enable-background:new"
         d="M 331.74805 65 C 329.52102 65 327.76705 65.04964 326.32812 65.291016 C 324.88786 65.532619 323.71374 65.984977 322.85156 66.845703 C 321.98908 67.706726 321.53496 68.882355 321.29297 70.320312 C 321.20687 70.832187 321.15149 71.401094 321.10742 72 C 321.02784 73.081663 321 74.299797 321 75.730469 L 321 92 L 344 84 L 339 65 L 331.74805 65 z " />
      <path
         id="rect1059-2"
         style="display:inline;opacity:0.12;fill:#eaffcf;fill-opacity:1;stroke:none;stroke-width:2;stroke-linecap:round;stroke-linejoin:round;enable-background:new"
         d="M 344 84 L 351 105 L 356.24805 105 C 358.47519 105.0108 360.23073 104.9619 361.66992 104.72266 C 363.11155 104.48302 364.28656 104.02798 365.14844 103.16406 C 366.01015 102.30031 366.46317 101.12471 366.70508 99.683594 C 366.94669 98.244252 367 96.492367 367 94.269531 L 367 89 L 344 84 z " />
      <path
         id="rect1059-1-3"
         style="display:inline;opacity:0.1;fill:#000000;fill-opacity:1;stroke:none;stroke-width:1.2554;stroke-linecap:round;stroke-linejoin:round;enable-background:new"
         d="m 328.27592,136.5 c -1.40399,0 -2.50976,0.031 -3.41691,0.18188 -0.90799,0.151 -1.64819,0.43371 -2.19174,0.97164 -0.54374,0.53813 -0.83003,1.27286 -0.98259,2.17156 -0.0543,0.31991 -0.0892,0.67546 -0.11698,1.04977 -0.0502,0.67601 -0.0677,1.43732 -0.0677,2.33146 v 10.16811 L 336,148.37459 332.84783,136.5 Z" />
      <path
         id="rect1059-2-6"
         style="display:inline;opacity:0.12;fill:#eaffcf;fill-opacity:1;stroke:none;stroke-width:1.2554;stroke-linecap:round;stroke-linejoin:round;enable-background:new"
         d="m 335.99998,148.37459 4.41304,13.12455 h 3.30856 c 1.40406,0.007 2.51082,-0.0238 3.41813,-0.17333 0.90886,-0.14977 1.64962,-0.43416 2.19298,-0.9741 0.54325,-0.53982 0.82885,-1.27455 0.98136,-2.17521 0.15232,-0.89956 0.18593,-1.99445 0.18593,-3.38368 v -3.29334 z" />
      <path
         id="rect1059-1-3-9"
         style="display:inline;opacity:0.1;fill:#000000;fill-opacity:1;stroke:none;stroke-width:0.974657;stroke-linecap:round;stroke-linejoin:round;enable-background:new"
         d="m 325.87404,191.49968 c -1.11351,0 -1.9905,0.0236 -2.70997,0.13823 -0.72013,0.11476 -1.30718,0.32962 -1.73827,0.73844 -0.43125,0.40898 -0.6583,0.96737 -0.7793,1.65039 -0.0431,0.24313 -0.0707,0.51334 -0.0928,0.79782 -0.0398,0.51377 -0.0537,1.09236 -0.0537,1.7719 v 7.72775 l 11.50001,-3.79986 -2.5,-9.02467 z" />
      <path
         id="rect1059-2-6-2"
         style="display:inline;opacity:0.12;fill:#eaffcf;fill-opacity:1;stroke:none;stroke-width:0.974657;stroke-linecap:round;stroke-linejoin:round;enable-background:new"
         d="m 332.00002,200.52435 3.5,9.97463 h 2.62403 c 1.11357,0.005 1.99135,-0.0181 2.71094,-0.13173 0.72082,-0.11382 1.30832,-0.32996 1.73926,-0.74031 0.43085,-0.41026 0.65736,-0.96866 0.77832,-1.65316 0.1208,-0.68366 0.14746,-1.51578 0.14746,-2.57159 v -2.50293 z" />
      <path
         id="rect1059-1-3-9-3"
         style="display:inline;opacity:0.1;fill:#000000;fill-opacity:1;stroke:none;stroke-width:0.651072;stroke-linecap:round;stroke-linejoin:round;enable-background:new"
         d="m 324.00476,237.5 c -0.7262,0 -1.29815,0.0162 -1.76737,0.0946 -0.46964,0.0785 -0.8525,0.22553 -1.13365,0.50525 -0.28125,0.27983 -0.42932,0.66189 -0.50824,1.12922 -0.0281,0.16635 -0.0461,0.35123 -0.0605,0.54588 -0.026,0.35152 -0.035,0.7474 -0.035,1.21235 v 5.28743 l 7.5,-2.59991 -1.63044,-6.1748 z" />
      <path
         id="rect1059-2-6-2-7"
         style="display:inline;opacity:0.12;fill:#eaffcf;fill-opacity:1;stroke:none;stroke-width:0.651072;stroke-linecap:round;stroke-linejoin:round;enable-background:new"
         d="m 327.99996,243.6748 2.28261,6.82477 h 1.71132 c 0.72624,0.003 1.29871,-0.0124 1.768,-0.0901 0.4701,-0.0779 0.85325,-0.22576 1.1343,-0.50653 0.28099,-0.28071 0.42871,-0.66277 0.5076,-1.13112 0.0788,-0.46776 0.0962,-1.03711 0.0962,-1.75951 v -1.71254 z" />
      <path
         id="rect1059-2-3"
         style="display:inline;opacity:0.12;fill:#eaffcf;fill-opacity:1;stroke:none;stroke-width:9.66915;stroke-linecap:round;stroke-linejoin:round;enable-background:new"
         d="M 151.99805 159.19531 L 186.08398 259.99219 L 226.25781 259.99219 C 260.40417 259.89835 263.99805 255.93727 263.99805 221.08203 L 263.99805 208.48828 L 263.99805 183.19531 L 151.99805 159.19531 z " />
      <path
         id="rect1059-1-7"
         style="display:inline;opacity:0.1;fill:#000000;fill-opacity:1;stroke:none;stroke-width:9.66915;stroke-linecap:round;stroke-linejoin:round;enable-background:new"
         d="M 91.117188 68.003906 C 85.755322 68.009598 76.231193 68.072707 66.519531 68.240234 C 42.7381 69.534977 39.998047 76.859544 39.998047 107.46289 L 39.998047 108 L 39.998047 109 L 39.998047 197.59375 L 151.99805 159.19531 L 127.65234 68.003906 L 91.117188 68.003906 z " />
    </g>
    <g
       inkscape:groupmode="layer"
       id="layer3"
       inkscape:label="Folds"
       style="display:inline">
      <g
         id="g1034"
         transform="matrix(0,1,1,0,83.99978,-83.99978)"
         style="opacity:0.05" />
    </g>
    <g
       inkscape:groupmode="layer"
       id="layer6"
       inkscape:label="Pictogram"
       style="display:inline">
      <path
         id="path3171-7-3-3-8-7-0-9-6-2-5"
         style="display:inline;opacity:0.3;fill:#000000;fill-opacity:1;stroke-width:0.0793645;enable-background:new"
         d="M 331.93304,197.00011 A 5,4.9999441 0 0 0 327,202.00006 5,4.9999441 0 0 0 332,207 a 5,4.9999441 0 0 0 5,-4.99994 5,4.9999441 0 0 0 -5,-4.99995 5,4.9999441 0 0 0 -0.0669,0 z m 1.0212,0.83146 2.22098,1.31138 -2.22238,1.31137 z M 332,198.5054 c 0.1628,0 0.32182,0.0131 0.47851,0.0349 v 0.48549 c -0.15581,-0.0252 -0.31524,-0.039 -0.47851,-0.039 -1.2693,0 -2.35464,0.77773 -2.79994,1.88474 l -0.41155,-0.24274 c 0.53461,-1.24631 1.77253,-2.1233 3.21149,-2.1233 z m 0,1.1886 c 0.16301,0 0.32189,0.019 0.47572,0.0516 v 0.49387 c -0.15182,-0.0406 -0.3109,-0.0628 -0.47572,-0.0628 -0.83358,0 -1.52906,0.5536 -1.74805,1.31416 l -0.42689,-0.25251 c 0.31555,-0.89778 1.17263,-1.54435 2.17494,-1.54435 z m 2.80274,0.22042 c 0.43465,0.58272 0.69196,1.30515 0.69196,2.08564 0,0.79265 -0.26716,1.52624 -0.71429,2.11354 l -0.41434,-0.24554 c 0.40528,-0.51305 0.64732,-1.16115 0.64732,-1.868 0,-0.69359 -0.23334,-1.33171 -0.625,-1.8401 z m -1.03377,0.61244 c 0.33487,0.40053 0.53712,0.9137 0.53712,1.4732 0,0.57213 -0.21097,1.09804 -0.55944,1.5025 l -0.42411,-0.24972 c 0.31002,-0.32558 0.50083,-0.76455 0.50083,-1.25278 0,-0.47437 -0.18003,-0.90406 -0.47432,-1.22766 z m -5.81473,0.16183 2.22098,1.31137 -2.22238,1.31138 z m 2.29771,1.81918 c 0.21899,0.75995 0.91447,1.31277 1.74805,1.31277 0.16485,0 0.32386,-0.0229 0.47572,-0.0627 v 0.49663 c -0.15383,0.0326 -0.31271,0.0516 -0.47572,0.0516 -1.00309,0 -1.86005,-0.6482 -2.17494,-1.54714 z m -1.05189,0.6208 c 0.4453,1.10702 1.53064,1.88475 2.79994,1.88475 0.16169,0 0.31987,-0.0132 0.47432,-0.0376 v 0.48409 c -0.1548,0.0216 -0.31347,0.0349 -0.47432,0.0349 -1.43896,0 -2.67688,-0.87705 -3.21149,-2.12331 z m 3.75278,0.45899 2.2196,1.30858 -2.22238,1.31276 z" />
      <path
         style="display:inline;opacity:0.3;fill:#000000;fill-opacity:1;stroke-width:0.666664;filter:url(#filter2353);enable-background:new"
         d="m 152,120 c -26.5098,0 -48,21.48948 -48,48 0,26.50884 21.4902,48 48,48 26.50949,0 48,-21.49152 48,-48 0,-26.51052 -21.49051,-48 -48,-48 z m 8.02087,12.97908 L 178.66664,144 159.99997,155.0208 Z M 152,138.64584 c 1.36753,0 2.70468,0.108 4.02084,0.2916 v 4.08324 c -1.30884,-0.2124 -2.64936,-0.3336 -4.02084,-0.3336 -10.66212,0 -19.78037,6.53436 -23.52084,15.8334 l -3.45833,-2.04156 C 129.51157,146.01024 139.91269,138.6456 152,138.6456 Z m 0,9.97908 c 1.36925,0 2.70773,0.1632 4.00002,0.438 v 4.14588 c -1.27536,-0.3408 -2.61553,-0.522 -4.00002,-0.522 -7.00206,0 -12.84797,4.65288 -14.68753,11.04168 l -3.5833,-2.12496 c 2.65067,-7.5414 9.85139,-12.9786 18.27083,-12.9786 z m 23.54165,1.85424 c 3.65107,4.89481 5.81251,10.96464 5.81251,17.52084 0,6.65832 -2.24413,12.81672 -6,17.75003 l -3.47916,-2.06255 c 3.40433,-4.30956 5.43749,-9.74976 5.43749,-15.68748 0,-5.82624 -1.96006,-11.18784 -5.24997,-15.4584 z m -8.68751,5.14584 c 2.81292,3.36444 4.52089,7.6752 4.52089,12.375 0,4.80588 -1.78117,9.22752 -4.70839,12.62496 l -3.56251,-2.1042 c 2.60414,-2.73479 4.20834,-6.41964 4.20834,-10.52076 0,-3.98484 -1.50714,-7.5942 -3.97914,-10.31256 z M 118.02087,156.97908 136.66664,168 117.99997,179.0208 Z m 19.2916,15.29172 c 1.83956,6.38376 7.68547,11.0208 14.68753,11.0208 1.38475,0 2.72437,-0.186 4.00002,-0.5208 v 4.16652 c -1.29229,0.2748 -2.63077,0.438 -4.00002,0.438 -8.42599,0 -15.6258,-5.44872 -18.27083,-13.00008 z m -8.83331,5.20836 c 3.74047,9.29904 12.85872,15.83327 23.52084,15.83327 1.35822,0 2.68174,-0.108 3.97913,-0.31319 v 4.06248 c -1.3003,0.1812 -2.62798,0.2916 -3.97913,0.2916 -12.08729,0 -22.48843,-7.36464 -26.97918,-17.83332 z m 31.52081,3.85416 18.64585,11.00004 -18.66666,11.02067 z"
         id="path3171-7-3-3-8-7-0-9-6-8-4" />
      <path
         id="path3171-7-3-3-8-7-0-9-6-9"
         style="display:inline;opacity:0.3;fill:#000000;fill-opacity:1;stroke-width:0.111111;enable-background:new"
         d="m 335.90625,143.00016 a 7,7 0 0 0 -6.90625,7 7,7 0 0 0 7,7 7,7 0 0 0 7,-7 7,7 0 0 0 -7,-7 7,7 0 0 0 -0.0937,0 z m 1.42969,1.16406 3.10937,1.83594 -3.11133,1.83594 z M 336,145.10758 c 0.22792,0 0.45056,0.0184 0.66992,0.0488 v 0.67969 c -0.21814,-0.0353 -0.44134,-0.0547 -0.66992,-0.0547 -1.77702,0 -3.2965,1.08883 -3.91992,2.63867 l -0.57617,-0.33984 c 0.74846,-1.74485 2.48154,-2.97266 4.49609,-2.97266 z m 0,1.66406 c 0.22821,0 0.45064,0.0266 0.66602,0.0723 v 0.69141 c -0.21256,-0.0568 -0.43527,-0.0879 -0.66602,-0.0879 -1.16701,0 -2.14068,0.77504 -2.44727,1.83984 l -0.59765,-0.35352 c 0.44178,-1.25689 1.64168,-2.16211 3.04492,-2.16211 z m 3.92383,0.3086 c 0.60851,0.81581 0.96875,1.82722 0.96875,2.91992 0,1.10973 -0.37402,2.13676 -1,2.95898 l -0.58008,-0.34375 c 0.56739,-0.71827 0.90625,-1.62562 0.90625,-2.61523 0,-0.97103 -0.32668,-1.86441 -0.875,-2.57617 z m -1.44727,0.85742 c 0.46882,0.56074 0.75196,1.2792 0.75196,2.0625 0,0.80099 -0.29534,1.53728 -0.78321,2.10352 l -0.59375,-0.34961 c 0.43402,-0.45581 0.70117,-1.07038 0.70117,-1.75391 0,-0.66413 -0.25206,-1.26569 -0.66406,-1.71875 z m -8.14062,0.22656 3.10937,1.83594 -3.11133,1.83594 z m 3.21679,2.54688 c 0.30659,1.06395 1.28026,1.83789 2.44727,1.83789 0.23079,0 0.45341,-0.032 0.66602,-0.0879 v 0.69531 c -0.21538,0.0457 -0.43781,0.0723 -0.66602,0.0723 -1.40432,0 -2.60407,-0.90748 -3.04492,-2.16602 z m -1.47265,0.86914 c 0.62342,1.54984 2.1429,2.63867 3.91992,2.63867 0.22637,0 0.44783,-0.0185 0.66406,-0.0527 v 0.67773 c -0.21672,0.0302 -0.43887,0.0488 -0.66406,0.0488 -2.01455,0 -3.74763,-1.22787 -4.49609,-2.97266 z m 5.2539,0.64258 3.10743,1.83203 -3.11133,1.83789 z" />
      <path
         id="path2635-20"
         style="display:inline;opacity:0.3;fill:#000000;fill-opacity:1;stroke:none;stroke-width:2.5;stroke-linecap:round;stroke-linejoin:round;enable-background:new"
         d="m 343.98047,76.000005 a 10,10 0 0 0 -9.98047,10 10,10 0 0 0 10,10 10,10 0 0 0 10,-10 10,10 0 0 0 -10,-10 10,10 0 0 0 -0.0195,0 z m 1.01953,2 5,3 -5,3 z m -1.09375,1 c 0.0312,-2.09e-4 0.0625,-2.09e-4 0.0937,0 v 1 c -2.30257,5.71e-4 -4.40171,1.318794 -5.40234,3.392578 l -0.86133,-0.515625 c 1.16891,-2.345294 3.54978,-3.841353 6.16997,-3.876953 z m 0.0937,2 v 1 c -0.0201,-1.53e-4 -0.0403,-1.53e-4 -0.0605,0 -1.5793,0.02411 -2.99652,0.975307 -3.61718,2.427734 l -0.86329,-0.517578 c 0.81581,-1.77328 2.58901,-2.909654 4.54097,-2.910156 z m 5.89648,1.228516 c 0.7204,1.126008 1.10333,2.434745 1.10352,3.771484 -1.9e-4,1.336739 -0.38312,2.645476 -1.10352,3.771484 l -0.85742,-0.513672 c 0.62742,-0.970711 0.9611,-2.101986 0.96094,-3.257812 1.6e-4,-1.155826 -0.33352,-2.2871 -0.96094,-3.257812 z M 336,83.000005 l 5,3 -5,3 z m 12.17969,0.257812 c 0.53481,0.814597 0.81993,1.767718 0.82031,2.742188 -3.8e-4,0.97447 -0.2855,1.927592 -0.82031,2.742188 l -0.85742,-0.515626 c 0.44161,-0.658604 0.67751,-1.433605 0.67773,-2.226562 -2.2e-4,-0.792957 -0.23612,-1.567958 -0.67773,-2.226562 z m -7.85742,4.314454 c 0.62944,1.472456 2.07638,2.42761 3.67773,2.427734 v 1 c -1.95196,-5.02e-4 -3.72516,-1.136876 -4.54102,-2.910156 z M 345,88.000005 l 5,3 -5,3 z m -6.40234,0.607422 c 1.00063,2.073784 3.09977,3.392007 5.40234,3.392578 v 1 c -2.65403,-3.94e-4 -5.07958,-1.501707 -6.26367,-3.876953 z" />
      <path
         style="display:inline;enable-background:accumulate;color:#000000;overflow:visible;visibility:visible;fill:#ffffff;fill-opacity:1;fill-rule:nonzero;stroke:none;stroke-width:1;marker:none;opacity:0.2"
         d="M 78.990234 68.001953 C 43.622114 67.828963 39.998047 71.627098 39.998047 106.92383 L 39.998047 108.92383 C 39.998047 73.627098 43.622114 69.828963 78.990234 70.001953 L 151.99805 70.001953 L 225.00391 70.001953 C 260.37202 69.828963 263.99805 73.627098 263.99805 108.92383 L 263.99805 106.92383 C 263.99805 71.627098 260.37202 67.828963 225.00391 68.001953 L 151.99805 68.001953 L 78.990234 68.001953 z "
         id="path923"
         inkscape:export-xdpi="95.996666"
         inkscape:export-ydpi="95.996666" />
      <path
         id="path2635"
         style="display:inline;enable-background:new;opacity:1;fill:#eaffcf;fill-opacity:1;stroke:none;stroke-width:2.5;stroke-linecap:round;stroke-linejoin:round"
         d="m 343.98047,75.000005 a 10,10 0 0 0 -9.98047,10 10,10 0 0 0 10,10 10,10 0 0 0 10,-10 10,10 0 0 0 -10,-10 10,10 0 0 0 -0.0195,0 z m 1.01953,2 5,3 -5,3 z m -1.09375,1 c 0.0312,-2.09e-4 0.0625,-2.09e-4 0.0937,0 v 1 c -2.30257,5.71e-4 -4.40171,1.318794 -5.40234,3.392578 l -0.86133,-0.515625 c 1.16891,-2.345294 3.54978,-3.841353 6.16997,-3.876953 z m 0.0937,2 v 1 c -0.0201,-1.53e-4 -0.0403,-1.53e-4 -0.0605,0 -1.5793,0.02411 -2.99652,0.975307 -3.61718,2.427734 l -0.86329,-0.517578 c 0.81581,-1.77328 2.58901,-2.909654 4.54097,-2.910156 z m 5.89648,1.228516 c 0.7204,1.126008 1.10333,2.434745 1.10352,3.771484 -1.9e-4,1.336739 -0.38312,2.645476 -1.10352,3.771484 l -0.85742,-0.513672 c 0.62742,-0.970711 0.9611,-2.101986 0.96094,-3.257812 1.6e-4,-1.155826 -0.33352,-2.2871 -0.96094,-3.257812 z M 336,82.000005 l 5,3 -5,3 z m 12.17969,0.257812 c 0.53481,0.814597 0.81993,1.767718 0.82031,2.742188 -3.8e-4,0.97447 -0.2855,1.927592 -0.82031,2.742188 l -0.85742,-0.515626 c 0.44161,-0.658604 0.67751,-1.433605 0.67773,-2.226562 -2.2e-4,-0.792957 -0.23612,-1.567958 -0.67773,-2.226562 z m -7.85742,4.314454 c 0.62944,1.472456 2.07638,2.42761 3.67773,2.427734 v 1 c -1.95196,-5.02e-4 -3.72516,-1.136876 -4.54102,-2.910156 z M 345,87.000005 l 5,3 -5,3 z m -6.40234,0.607422 c 1.00063,2.073784 3.09977,3.392007 5.40234,3.392578 v 1 c -2.65403,-3.94e-4 -5.07958,-1.501707 -6.26367,-3.876953 z" />
      <path
         id="path3171-7-3-3-8-7-0-9-6"
         style="fill:#eaffcf;fill-opacity:1;stroke-width:0.111111"
         d="M 335.90625 142 A 7 7 0 0 0 329 149 A 7 7 0 0 0 336 156 A 7 7 0 0 0 343 149 A 7 7 0 0 0 336 142 A 7 7 0 0 0 335.90625 142 z M 337.33594 143.16406 L 340.44531 145 L 337.33398 146.83594 L 337.33594 143.16406 z M 336 144.10742 C 336.22792 144.10742 336.45056 144.12585 336.66992 144.15625 L 336.66992 144.83594 C 336.45178 144.80064 336.22858 144.78125 336 144.78125 C 334.22298 144.78125 332.7035 145.87008 332.08008 147.41992 L 331.50391 147.08008 C 332.25237 145.33523 333.98545 144.10742 336 144.10742 z M 336 145.77148 C 336.22821 145.77148 336.45064 145.79805 336.66602 145.84375 L 336.66602 146.53516 C 336.45346 146.47836 336.23075 146.44727 336 146.44727 C 334.83299 146.44727 333.85932 147.22231 333.55273 148.28711 L 332.95508 147.93359 C 333.39686 146.6767 334.59676 145.77148 336 145.77148 z M 339.92383 146.08008 C 340.53234 146.89589 340.89258 147.9073 340.89258 149 C 340.89258 150.10973 340.51856 151.13676 339.89258 151.95898 L 339.3125 151.61523 C 339.87989 150.89696 340.21875 149.98961 340.21875 149 C 340.21875 148.02897 339.89207 147.13559 339.34375 146.42383 L 339.92383 146.08008 z M 338.47656 146.9375 C 338.94538 147.49824 339.22852 148.2167 339.22852 149 C 339.22852 149.80099 338.93318 150.53728 338.44531 151.10352 L 337.85156 150.75391 C 338.28558 150.2981 338.55273 149.68353 338.55273 149 C 338.55273 148.33587 338.30067 147.73431 337.88867 147.28125 L 338.47656 146.9375 z M 330.33594 147.16406 L 333.44531 149 L 330.33398 150.83594 L 330.33594 147.16406 z M 333.55273 149.71094 C 333.85932 150.77489 334.83299 151.54883 336 151.54883 C 336.23079 151.54883 336.45341 151.51684 336.66602 151.46094 L 336.66602 152.15625 C 336.45064 152.20195 336.22821 152.22852 336 152.22852 C 334.59568 152.22852 333.39593 151.32104 332.95508 150.0625 L 333.55273 149.71094 z M 332.08008 150.58008 C 332.7035 152.12992 334.22298 153.21875 336 153.21875 C 336.22637 153.21875 336.44783 153.20022 336.66406 153.16602 L 336.66406 153.84375 C 336.44734 153.87395 336.22519 153.89258 336 153.89258 C 333.98545 153.89258 332.25237 152.66471 331.50391 150.91992 L 332.08008 150.58008 z M 337.33398 151.22266 L 340.44141 153.05469 L 337.33008 154.89258 L 337.33398 151.22266 z " />
      <path
         id="path3171-7-3-3-8-7-0-9-6-2"
         style="display:inline;fill:#eaffcf;fill-opacity:1;stroke-width:0.0793645;enable-background:new"
         d="M 331.93304,196.00011 A 5,4.9999441 0 0 0 327,201.00006 5,4.9999441 0 0 0 332,206 a 5,4.9999441 0 0 0 5,-4.99994 5,4.9999441 0 0 0 -5,-4.99995 5,4.9999441 0 0 0 -0.0669,0 z m 1.0212,0.83146 2.22098,1.31138 -2.22238,1.31137 z M 332,197.5054 c 0.1628,0 0.32182,0.0131 0.47851,0.0349 v 0.48549 c -0.15581,-0.0252 -0.31524,-0.039 -0.47851,-0.039 -1.2693,0 -2.35464,0.77773 -2.79994,1.88474 l -0.41155,-0.24274 c 0.53461,-1.24631 1.77253,-2.1233 3.21149,-2.1233 z m 0,1.1886 c 0.16301,0 0.32189,0.019 0.47572,0.0516 v 0.49387 c -0.15182,-0.0406 -0.3109,-0.0628 -0.47572,-0.0628 -0.83358,0 -1.52906,0.5536 -1.74805,1.31416 l -0.42689,-0.25251 c 0.31555,-0.89778 1.17263,-1.54435 2.17494,-1.54435 z m 2.80274,0.22042 c 0.43465,0.58272 0.69196,1.30515 0.69196,2.08564 0,0.79265 -0.26716,1.52624 -0.71429,2.11354 l -0.41434,-0.24554 c 0.40528,-0.51305 0.64732,-1.16115 0.64732,-1.868 0,-0.69359 -0.23334,-1.33171 -0.625,-1.8401 z m -1.03377,0.61244 c 0.33487,0.40053 0.53712,0.9137 0.53712,1.4732 0,0.57213 -0.21097,1.09804 -0.55944,1.5025 l -0.42411,-0.24972 c 0.31002,-0.32558 0.50083,-0.76455 0.50083,-1.25278 0,-0.47437 -0.18003,-0.90406 -0.47432,-1.22766 z m -5.81473,0.16183 2.22098,1.31137 -2.22238,1.31138 z m 2.29771,1.81918 c 0.21899,0.75995 0.91447,1.31277 1.74805,1.31277 0.16485,0 0.32386,-0.0229 0.47572,-0.0627 v 0.49663 c -0.15383,0.0326 -0.31271,0.0516 -0.47572,0.0516 -1.00309,0 -1.86005,-0.6482 -2.17494,-1.54714 z m -1.05189,0.6208 c 0.4453,1.10702 1.53064,1.88475 2.79994,1.88475 0.16169,0 0.31987,-0.0132 0.47432,-0.0376 v 0.48409 c -0.1548,0.0216 -0.31347,0.0349 -0.47432,0.0349 -1.43896,0 -2.67688,-0.87705 -3.21149,-2.12331 z m 3.75278,0.45899 2.2196,1.30858 -2.22238,1.31276 z" />
      <path
         id="path3171-7-3-3-8-7-0-9-6-2-2-8"
         style="display:inline;opacity:0.3;fill:#000000;fill-opacity:1;stroke-width:0.0634916;enable-background:new"
         d="M 327.94643,241.00009 A 4,3.9999553 0 0 0 324,245.00005 4,3.9999553 0 0 0 328,249 a 4,3.9999553 0 0 0 4,-3.99995 4,3.9999553 0 0 0 -4,-3.99996 4,3.9999553 0 0 0 -0.0535,0 z m 0.81696,0.66517 1.77679,1.0491 -1.77791,1.0491 z M 328,242.20432 c 0.13024,0 0.25746,0.0105 0.38281,0.0279 v 0.38839 c -0.12465,-0.0202 -0.25219,-0.0312 -0.38281,-0.0312 -1.01544,0 -1.88371,0.62218 -2.23995,1.50779 l -0.32924,-0.19419 c 0.42769,-0.99705 1.41802,-1.69864 2.56919,-1.69864 z m 0,0.95088 c 0.13041,0 0.25751,0.0152 0.38058,0.0413 v 0.39509 c -0.12146,-0.0325 -0.24872,-0.0502 -0.38058,-0.0502 -0.66686,0 -1.22325,0.44288 -1.39844,1.05133 l -0.34151,-0.20201 c 0.25244,-0.71822 0.9381,-1.23548 1.73995,-1.23548 z m 2.24219,0.17634 c 0.34772,0.46617 0.55357,1.04412 0.55357,1.66851 0,0.63412 -0.21373,1.22099 -0.57143,1.69083 l -0.33147,-0.19643 c 0.32422,-0.41044 0.51785,-0.92892 0.51785,-1.4944 0,-0.55487 -0.18667,-1.06537 -0.5,-1.47208 z m -0.82701,0.48995 c 0.26789,0.32042 0.42969,0.73096 0.42969,1.17856 0,0.4577 -0.16877,0.87843 -0.44755,1.202 l -0.33929,-0.19978 c 0.24802,-0.26046 0.40067,-0.61164 0.40067,-1.00222 0,-0.3795 -0.14403,-0.72325 -0.37946,-0.98213 z m -4.65179,0.12946 1.77679,1.0491 -1.77791,1.0491 z m 1.83817,1.45535 c 0.17519,0.60796 0.73158,1.05021 1.39844,1.05021 0.13188,0 0.25909,-0.0183 0.38058,-0.0502 v 0.39731 c -0.12307,0.0261 -0.25017,0.0413 -0.38058,0.0413 -0.80247,0 -1.48804,-0.51856 -1.73995,-1.23771 z m -0.84151,0.49664 c 0.35624,0.88561 1.22451,1.5078 2.23995,1.5078 0.12935,0 0.2559,-0.0106 0.37946,-0.0301 v 0.38727 c -0.12384,0.0173 -0.25078,0.0279 -0.37946,0.0279 -1.15117,0 -2.1415,-0.70164 -2.56919,-1.69865 z m 3.00222,0.36719 1.77568,1.04686 -1.7779,1.05021 z" />
      <path
         id="path3171-7-3-3-8-7-0-9-6-2-9"
         style="display:inline;fill:#eaffcf;fill-opacity:1;stroke-width:0.0634916;enable-background:new"
         d="M 327.94643,239.99972 A 4,3.9999553 0 0 0 324,243.99968 a 4,3.9999553 0 0 0 4,3.99995 4,3.9999553 0 0 0 4,-3.99995 4,3.9999553 0 0 0 -4,-3.99996 4,3.9999553 0 0 0 -0.0535,0 z m 0.81696,0.66517 1.77679,1.0491 -1.77791,1.0491 z M 328,241.20395 c 0.13024,0 0.25746,0.0105 0.38281,0.0279 v 0.38839 c -0.12465,-0.0202 -0.25219,-0.0312 -0.38281,-0.0312 -1.01544,0 -1.88371,0.62218 -2.23995,1.50779 l -0.32924,-0.19419 C 325.8585,241.90559 326.84883,241.204 328,241.204 Z m 0,0.95088 c 0.13041,0 0.25751,0.0152 0.38058,0.0413 v 0.39509 c -0.12146,-0.0325 -0.24872,-0.0502 -0.38058,-0.0502 -0.66686,0 -1.22325,0.44288 -1.39844,1.05133 l -0.34151,-0.20201 c 0.25244,-0.71822 0.9381,-1.23548 1.73995,-1.23548 z m 2.24219,0.17634 c 0.34772,0.46617 0.55357,1.04412 0.55357,1.66851 0,0.63412 -0.21373,1.22099 -0.57143,1.69083 l -0.33147,-0.19643 c 0.32422,-0.41044 0.51785,-0.92892 0.51785,-1.4944 0,-0.55487 -0.18667,-1.06537 -0.5,-1.47208 z m -0.82701,0.48995 c 0.26789,0.32042 0.42969,0.73096 0.42969,1.17856 0,0.4577 -0.16877,0.87843 -0.44755,1.202 l -0.33929,-0.19978 c 0.24802,-0.26046 0.40067,-0.61164 0.40067,-1.00222 0,-0.3795 -0.14403,-0.72325 -0.37946,-0.98213 z m -4.65179,0.12946 1.77679,1.0491 -1.77791,1.0491 z m 1.83817,1.45535 c 0.17519,0.60796 0.73158,1.05021 1.39844,1.05021 0.13188,0 0.25909,-0.0183 0.38058,-0.0502 v 0.39731 c -0.12307,0.0261 -0.25017,0.0413 -0.38058,0.0413 -0.80247,0 -1.48804,-0.51856 -1.73995,-1.23771 z m -0.84151,0.49664 c 0.35624,0.88561 1.22451,1.5078 2.23995,1.5078 0.12935,0 0.2559,-0.0106 0.37946,-0.0301 v 0.38727 c -0.12384,0.0173 -0.25078,0.0279 -0.37946,0.0279 -1.15117,0 -2.1415,-0.70164 -2.56919,-1.69865 z m 3.00222,0.36719 1.77568,1.04686 -1.7779,1.05021 z" />
      <path
         style="display:inline;opacity:1;fill:#eaffcf;fill-opacity:1;stroke-width:0.666664;enable-background:new"
         d="m 152,116 c -26.5098,0 -48,21.48948 -48,48 0,26.50884 21.4902,48 48,48 26.50949,0 48,-21.49152 48,-48 0,-26.51052 -21.49051,-48 -48,-48 z m 8.02087,12.97908 L 178.66664,140 159.99997,151.0208 Z M 152,134.64584 c 1.36753,0 2.70468,0.108 4.02084,0.2916 v 4.08324 c -1.30884,-0.2124 -2.64936,-0.3336 -4.02084,-0.3336 -10.66212,0 -19.78037,6.53436 -23.52084,15.8334 l -3.45833,-2.04156 C 129.51157,142.01024 139.91269,134.6456 152,134.6456 Z m 0,9.97908 c 1.36925,0 2.70773,0.1632 4.00002,0.438 v 4.14588 c -1.27536,-0.3408 -2.61553,-0.522 -4.00002,-0.522 -7.00206,0 -12.84797,4.65288 -14.68753,11.04168 l -3.5833,-2.12496 c 2.65067,-7.5414 9.85139,-12.9786 18.27083,-12.9786 z m 23.54165,1.85424 c 3.65107,4.89481 5.81251,10.96464 5.81251,17.52084 0,6.65832 -2.24413,12.81672 -6,17.75003 l -3.47916,-2.06255 c 3.40433,-4.30956 5.43749,-9.74976 5.43749,-15.68748 0,-5.82624 -1.96006,-11.18784 -5.24997,-15.4584 z m -8.68751,5.14584 c 2.81292,3.36444 4.52089,7.6752 4.52089,12.375 0,4.80588 -1.78117,9.22752 -4.70839,12.62496 l -3.56251,-2.1042 c 2.60414,-2.73479 4.20834,-6.41964 4.20834,-10.52076 0,-3.98484 -1.50714,-7.5942 -3.97914,-10.31256 z M 118.02087,152.97908 136.66664,164 117.99997,175.0208 Z m 19.2916,15.29172 c 1.83956,6.38376 7.68547,11.0208 14.68753,11.0208 1.38475,0 2.72437,-0.186 4.00002,-0.5208 v 4.16652 c -1.29229,0.2748 -2.63077,0.438 -4.00002,0.438 -8.42599,0 -15.6258,-5.44872 -18.27083,-13.00008 z m -8.83331,5.20836 c 3.74047,9.29904 12.85872,15.83327 23.52084,15.83327 1.35822,0 2.68174,-0.108 3.97913,-0.31319 v 4.06248 c -1.3003,0.1812 -2.62798,0.2916 -3.97913,0.2916 -12.08729,0 -22.48843,-7.36464 -26.97918,-17.83332 z m 31.52081,3.85416 18.64585,11.00004 -18.66666,11.02067 z"
         id="path3171-7-3-3-8-7-0-9-6-8" />
    </g>
    <g
       inkscape:groupmode="layer"
       id="layer9"
       inkscape:label="Borders"
       style="display:inline">
      <path
         id="path901"
         d="m 321.49931,94.268843 c 0,2.21461 0.0547,3.94722 0.28711,5.33203 0.23246,1.384807 0.65434,2.445507 1.41797,3.210937 0.76363,0.76543 1.82234,1.1878 3.20703,1.41797 1.38469,0.23017 3.1184,0.28039 5.33789,0.26953 h 12.25 12.25196 c 2.21833,0.0108 3.95175,-0.0394 5.33593,-0.26953 1.38469,-0.23017 2.4434,-0.65253 3.20703,-1.41797 0.76363,-0.76544 1.18551,-1.82612 1.41797,-3.210937 0.23246,-1.38481 0.28711,-3.11742 0.28711,-5.33203 v -18.53906 c 0,-2.2146 -0.0546,-3.94454 -0.28711,-5.32617 -0.2325,-1.38163 -0.65418,-2.44064 -1.41797,-3.20313 -0.76378,-0.76249 -1.82305,-1.18385 -3.20703,-1.41601 -1.38398,-0.23217 -2.88549,-0.28516 -5.33593,-0.28516 h -12.25196 -12.25195 c -2.21907,0 -3.95196,0.053 -5.33594,0.28516 -1.38398,0.23216 -2.44325,0.65352 -3.20703,1.41601 -0.76378,0.76249 -1.18546,1.8215 -1.41797,3.20313 -0.2325,1.38163 -0.28711,3.11157 -0.28711,5.32617 z"
         style="color:#000000;display:inline;overflow:visible;visibility:visible;opacity:0.3;fill:none;fill-opacity:1;fill-rule:nonzero;stroke:url(#linearGradient945);stroke-width:1;stroke-opacity:1;marker:none;enable-background:accumulate"
         inkscape:connector-curvature="0"
         sodipodi:nodetypes="scssccccsssscccscssscss" />
      <path
         id="path1089"
         d="m 321.49954,154.80618 c 0,1.41241 0.0342,2.52238 0.18555,3.42383 0.15132,0.90145 0.43164,1.61987 0.95312,2.14258 0.52148,0.5227 1.23898,0.80325 2.14063,0.95312 0.90164,0.14988 2.0101,0.18075 3.42578,0.17383 h 7.79492 7.79688 c 1.41452,0.007 2.52269,-0.024 3.42382,-0.17383 0.90165,-0.14987 1.61915,-0.43041 2.14063,-0.95312 0.52148,-0.52272 0.8018,-1.24112 0.95312,-2.14258 0.15132,-0.90146 0.18555,-2.01142 0.18555,-3.42383 v -11.61523 c 0,-1.41241 -0.0342,-2.51847 -0.18555,-3.41797 -0.15137,-0.8995 -0.43149,-1.61597 -0.95312,-2.13672 -0.52163,-0.52075 -1.23774,-0.80004 -2.13867,-0.95117 -0.90094,-0.15113 -2.01055,-0.18555 -3.42578,-0.18555 h -7.79688 -7.79688 c -1.41524,0 -2.52484,0.0344 -3.42578,0.18555 -0.90093,0.15113 -1.61703,0.43042 -2.13867,0.95117 -0.52163,0.52075 -0.80175,1.23722 -0.95312,2.13672 -0.15137,0.8995 -0.18555,2.00556 -0.18555,3.41797 z"
         style="color:#000000;display:inline;overflow:visible;visibility:visible;opacity:0.3;fill:none;fill-opacity:1;fill-rule:nonzero;stroke:#000000;stroke-width:1;stroke-opacity:1;marker:none;enable-background:accumulate"
         inkscape:connector-curvature="0" />
      <path
         id="path1085"
         d="m 320.49963,205.1344 c 0,1.11158 0.0256,1.98683 0.14648,2.70703 0.1209,0.72019 0.34863,1.3105 0.7793,1.74218 0.43067,0.43169 1.01974,0.65954 1.74024,0.7793 0.72049,0.11977 1.59669,0.14217 2.71093,0.13672 h 6.12305 6.125 c 1.1131,0.005 1.989,-0.017 2.70898,-0.13672 0.72051,-0.11976 1.30957,-0.3476 1.74024,-0.7793 0.43067,-0.43169 0.6584,-1.02199 0.7793,-1.74218 0.12089,-0.7202 0.14648,-1.59545 0.14648,-2.70703 v -8.26954 c 0,-1.11158 -0.0255,-1.98637 -0.14648,-2.70507 -0.12095,-0.7187 -0.34848,-1.30623 -0.7793,-1.73633 -0.43083,-0.4301 -1.01849,-0.6566 -1.73828,-0.77735 -0.71979,-0.12074 -1.59713,-0.14648 -2.71094,-0.14648 h -6.125 -6.125 c -1.11381,0 -1.99115,0.0257 -2.71094,0.14648 -0.71979,0.12075 -1.30745,0.34725 -1.73828,0.77735 -0.43082,0.4301 -0.65835,1.01763 -0.7793,1.73633 -0.12094,0.7187 -0.14648,1.59349 -0.14648,2.70507 z"
         style="color:#000000;display:inline;overflow:visible;visibility:visible;opacity:0.3;fill:none;fill-opacity:1;fill-rule:nonzero;stroke:#000000;stroke-width:1;stroke-opacity:1;marker:none;enable-background:accumulate"
         inkscape:connector-curvature="0" />
      <path
         id="path1087"
         d="m 320.49977,246.90407 c 0,0.71048 0.0154,1.27344 0.0957,1.75195 0.0803,0.47851 0.23728,0.89671 0.54688,1.20703 0.30959,0.31032 0.7261,0.46726 1.20508,0.54688 0.47897,0.0796 1.04352,0.0933 1.75586,0.0898 h 3.89648 3.89844 c 0.71121,0.003 1.27546,-0.0103 1.7539,-0.0898 0.47898,-0.0796 0.89549,-0.23655 1.20508,-0.54688 0.3096,-0.31033 0.46655,-0.72851 0.54688,-1.20703 0.0803,-0.47852 0.0957,-1.04147 0.0957,-1.75195 v -5.8086 c 0,-0.71048 -0.0153,-1.27236 -0.0957,-1.75 -0.0804,-0.47763 -0.23713,-0.89584 -0.54688,-1.20508 -0.30975,-0.30921 -0.72681,-0.46469 -1.20508,-0.54492 -0.47826,-0.0802 -1.04201,-0.0957 -1.7539,-0.0957 h -3.89844 -3.89844 c -0.71189,0 -1.27564,0.0155 -1.7539,0.0957 -0.47827,0.0802 -0.89533,0.2357 -1.20508,0.54492 -0.30975,0.30924 -0.4665,0.72745 -0.54688,1.20508 -0.0804,0.47764 -0.0957,1.03952 -0.0957,1.75 z"
         style="color:#000000;display:inline;overflow:visible;visibility:visible;opacity:0.3;fill:none;fill-opacity:1;fill-rule:nonzero;stroke:#000000;stroke-width:1;stroke-opacity:1;marker:none;enable-background:accumulate"
         inkscape:connector-curvature="0" />
    </g>
    <g
       inkscape:groupmode="layer"
       id="layer5"
       inkscape:label="Highlights"
       style="display:inline">
      <path
         transform="rotate(-90,332.49966,200.5)"
         sodipodi:nodetypes="scccssscsss"
         inkscape:connector-curvature="0"
         id="path935"
         d="m 327.8652,189 c -4.41209,0 -4.88682,0.45318 -4.8652,4.87419 V 200 206.12581 C 322.9783,210.54682 323.45311,211 327.8652,211 h 8.2696 C 340.54689,211 341,210.54688 341,206.12581 V 200 193.87419 C 341,189.45313 340.54688,189 336.13479,189 Z"
         style="color:#000000;display:inline;overflow:visible;visibility:visible;opacity:0.3;fill:none;fill-opacity:1;fill-rule:nonzero;stroke:url(#linearGradient981);stroke-width:2;stroke-miterlimit:4;stroke-dasharray:none;stroke-opacity:1;marker:none;enable-background:accumulate"
         clip-path="url(#clipPath971)"
         inkscape:export-xdpi="95.996666"
         inkscape:export-ydpi="95.996666" />
      <path
         transform="rotate(-90,328,244)"
         style="color:#000000;display:inline;overflow:visible;visibility:visible;opacity:0.3;fill:none;fill-opacity:1;fill-rule:nonzero;stroke:url(#linearGradient993);stroke-width:2;stroke-miterlimit:4;stroke-dasharray:none;stroke-opacity:1;marker:none;enable-background:accumulate"
         d="m 325.09646,237 c -2.80769,0 -3.10979,0.28839 -3.09603,3.10176 V 244 v 3.89824 c -0.0138,2.81337 0.28834,3.10176 3.09603,3.10176 h 5.8075 C 333.71166,251 334,250.71165 334,247.89824 V 244 240.10176 C 334,237.28836 333.71165,237 330.90396,237 Z"
         id="path937"
         inkscape:connector-curvature="0"
         sodipodi:nodetypes="scccssscsss"
         clip-path="url(#clipPath983)"
         inkscape:export-xdpi="95.996666"
         inkscape:export-ydpi="95.996666" />
      <path
         transform="rotate(-90,336.49998,148.49998)"
         sodipodi:nodetypes="scccssscsss"
         inkscape:connector-curvature="0"
         id="path939"
         d="m 330.1929,133.99999 c -5.61538,0 -6.21958,0.57678 -6.19206,6.20352 v 7.79648 7.79648 c -0.0276,5.62673 0.57668,6.20351 6.19206,6.20351 h 11.615 c 5.6154,0 6.19208,-0.5767 6.19208,-6.20351 v -7.79648 -7.79648 c 0,-5.6268 -0.5767,-6.20352 -6.19208,-6.20352 z"
         style="color:#000000;display:inline;overflow:visible;visibility:visible;opacity:0.3;fill:none;fill-opacity:1;fill-rule:nonzero;stroke:url(#linearGradient969);stroke-width:2;stroke-miterlimit:4;stroke-dasharray:none;stroke-opacity:1;marker:none;enable-background:accumulate"
         clip-path="url(#clipPath959)"
         inkscape:export-xdpi="95.996666"
         inkscape:export-ydpi="95.996666" />
    </g>
  </g>
</svg>
