<?xml version="1.0" encoding="UTF-8" standalone="no"?>
<!-- Created with Inkscape (http://www.inkscape.org/) -->

<svg
   width="64px"
   height="64px"
   id="svg3393"
   version="1.1"
   inkscape:version="1.1.1 (3bf5ae0d25, 2021-09-20)"
   sodipodi:docname="no-notifications.svg"
   xmlns:inkscape="http://www.inkscape.org/namespaces/inkscape"
   xmlns:sodipodi="http://sodipodi.sourceforge.net/DTD/sodipodi-0.dtd"
   xmlns="http://www.w3.org/2000/svg"
   xmlns:svg="http://www.w3.org/2000/svg"
   xmlns:rdf="http://www.w3.org/1999/02/22-rdf-syntax-ns#"
   xmlns:cc="http://creativecommons.org/ns#"
   xmlns:dc="http://purl.org/dc/elements/1.1/">
  <defs
     id="defs3395">
    <clipPath
       id="clipPath6262-0"
       clipPathUnits="userSpaceOnUse">
      <rect
         style="color:#bebebe;display:inline;overflow:visible;visibility:visible;fill:#bebebe;fill-opacity:1;fill-rule:nonzero;stroke:none;stroke-width:2;marker:none"
         id="rect6264-6"
         width="3.8250003"
         height="6.3750005"
         x="26.849981"
         y="220.75" />
    </clipPath>
    <clipPath
       id="clipPath6258-0"
       clipPathUnits="userSpaceOnUse">
      <rect
         style="color:#bebebe;display:inline;overflow:visible;visibility:visible;fill:#bebebe;fill-opacity:1;fill-rule:nonzero;stroke:none;stroke-width:2;marker:none"
         id="rect6260-6"
         width="2.8977275"
         height="5.3129687"
         x="26.965673"
         y="221.28162" />
    </clipPath>
    <clipPath
       id="clipPath6254-6"
       clipPathUnits="userSpaceOnUse">
      <rect
         style="color:#bebebe;display:inline;overflow:visible;visibility:visible;fill:#bebebe;fill-opacity:1;stroke:none;stroke-width:2;marker:none"
         id="rect6256-6"
         width="1.876245"
         height="4.8783236"
         x="26.998718"
         y="221.50153" />
    </clipPath>
    <clipPath
       id="clipPath8028-3"
       clipPathUnits="userSpaceOnUse">
      <path
         style="fill:none;stroke:#000000;stroke-width:1px;stroke-linecap:butt;stroke-linejoin:miter;stroke-opacity:1"
         d="m -73,-30 -7,-7 v -4.5 h 16.5 v 4.5 l -7.5,7 z"
         id="path8030-6"
         inkscape:connector-curvature="0"
         sodipodi:nodetypes="ccccccc" />
    </clipPath>
    <clipPath
       clipPathUnits="userSpaceOnUse"
       id="clipPath6810-7-87-7">
      <rect
         style="color:#bebebe;display:inline;overflow:visible;visibility:visible;fill:none;stroke:#ffffff;stroke-width:2;stroke-linecap:round;stroke-linejoin:round;stroke-miterlimit:4;stroke-dasharray:none;stroke-dashoffset:0;stroke-opacity:1;marker:none"
         id="rect6812-2-4-5"
         width="14"
         height="11"
         x="21"
         y="281" />
    </clipPath>
    <clipPath
       id="clipPath6262"
       clipPathUnits="userSpaceOnUse">
      <rect
         style="color:#bebebe;display:inline;overflow:visible;visibility:visible;fill:#bebebe;fill-opacity:1;fill-rule:nonzero;stroke:none;stroke-width:2;marker:none"
         id="rect6264"
         width="3.8250003"
         height="6.3750005"
         x="26.849981"
         y="220.75" />
    </clipPath>
    <clipPath
       id="clipPath6258"
       clipPathUnits="userSpaceOnUse">
      <rect
         style="color:#bebebe;display:inline;overflow:visible;visibility:visible;fill:#bebebe;fill-opacity:1;fill-rule:nonzero;stroke:none;stroke-width:2;marker:none"
         id="rect6260"
         width="2.8977275"
         height="5.3129687"
         x="26.965673"
         y="221.28162" />
    </clipPath>
    <clipPath
       id="clipPath6254"
       clipPathUnits="userSpaceOnUse">
      <rect
         style="color:#bebebe;display:inline;overflow:visible;visibility:visible;fill:#bebebe;fill-opacity:1;stroke:none;stroke-width:2;marker:none"
         id="rect6256"
         width="1.876245"
         height="4.8783236"
         x="26.998718"
         y="221.50153" />
    </clipPath>
    <inkscape:path-effect
       effect="spiro"
       id="path-effect3951"
       is_visible="true" />
  </defs>
  <sodipodi:namedview
     id="base"
     pagecolor="#ffffff"
     bordercolor="#666666"
     borderopacity="1.0"
     inkscape:pageopacity="0.0"
     inkscape:pageshadow="2"
     inkscape:zoom="1"
     inkscape:cx="125.08157"
     inkscape:cy="-13.805087"
     inkscape:current-layer="layer1"
     showgrid="true"
     inkscape:document-units="px"
     inkscape:grid-bbox="true"
     inkscape:window-width="1664"
     inkscape:window-height="1034"
     inkscape:window-x="1479"
     inkscape:window-y="252"
     inkscape:window-maximized="0"
     inkscape:pagecheckerboard="1" />
  <metadata
     id="metadata3398">
    <rdf:RDF>
      <cc:Work
         rdf:about="">
        <dc:format>image/svg+xml</dc:format>
        <dc:type
           rdf:resource="http://purl.org/dc/dcmitype/StillImage" />
        <dc:title />
      </cc:Work>
    </rdf:RDF>
  </metadata>
  <g
     id="layer1"
     inkscape:label="Layer 1"
     inkscape:groupmode="layer">
    <g
       fill="#2e3436"
       id="g91"
       transform="matrix(3.96875,0,0,3.96875,0.25,0.2499995)"
       style="fill:#bebebe;fill-opacity:1">
      <path
         d="m 13,6.5 c 0,2.761719 -2.238281,5 -5,5 -2.761719,0 -5,-2.238281 -5,-5 0,-2.761719 2.238281,-5 5,-5 2.761719,0 5,2.238281 5,5 z m 0,0"
         id="path81"
         style="fill:#bebebe;fill-opacity:1" />
      <path
         d="m 3,6.5 h 10 v 6 H 3 Z m 0,0"
         id="path83"
         style="fill:#bebebe;fill-opacity:1" />
      <path
         d="m 2.5,13 h 11 c 0.550781,0 1,-0.449219 1,-1 0,-0.550781 -0.449219,-1 -1,-1 h -11 c -0.550781,0 -1,0.449219 -1,1 0,0.550781 0.449219,1 1,1 z m 0,0"
         id="path85"
         style="fill:#bebebe;fill-opacity:1" />
      <path
         d="m 10,14 c 0,0.714844 -0.382812,1.375 -1,1.730469 -0.617188,0.359375 -1.382812,0.359375 -2,0 C 6.382812,15.375 6,14.714844 6,14"
         id="path87"
         style="fill:#bebebe;fill-opacity:1" />
      <path
         d="M 9.5,1.5 C 9.5,2.328125 8.828125,3 8,3 7.171875,3 6.5,2.328125 6.5,1.5 6.5,0.671875 7.171875,0 8,0 8.828125,0 9.5,0.671875 9.5,1.5 Z m 0,0"
         id="path89"
         style="fill:#bebebe;fill-opacity:1" />
    </g>
  </g>
</svg>
