<svg width="64" height="64" xmlns="http://www.w3.org/2000/svg"><path style="fill:#fff;fill-opacity:.34999999;stroke-width:3.96875" d="M32 .25a5.955 5.955 0 0 0-5.887 6.842C18.028 9.6 12.156 17.136 12.156 26.047v17.86h-1.984a3.976 3.976 0 0 0-3.969 3.968 3.976 3.976 0 0 0 3.969 3.969h43.656a3.976 3.976 0 0 0 3.969-3.969 3.976 3.976 0 0 0-3.969-3.969h-1.984v-17.86c0-8.91-5.872-16.446-13.957-18.954A5.955 5.955 0 0 0 32 .25zm-7.938 55.563a7.93 7.93 0 0 0 3.97 6.867 7.897 7.897 0 0 0 7.937 0 7.93 7.93 0 0 0 3.968-6.867H24.063z"/></svg>