<svg version="1.0" viewBox="0 0 16 16" xmlns="http://www.w3.org/2000/svg"><path d="M8 0a8 8 0 0 0-8 8 8 8 0 0 0 8 8 8 8 0 0 0 8-8 8 8 0 0 0-8-8zm0 1a2 2 0 0 1 0 4 2 2 0 0 1 0-4zM2 6h12v1.002h-1.207c-.447 0-.964.075-1.328.234a2.047 2.047 0 0 0-.867.655 2.407 2.407 0 0 0-.461.988 5.588 5.588 0 0 0-.127 1.225L9.986 15h-1L9 12a.998.998 0 0 0-1-1c-.552 0-.996.448-1 1l-.014 3H6l.023-4.902v-.008c-.027-.427-.04-.83-.126-1.211-.087-.38-.24-.71-.461-.986a2.046 2.046 0 0 0-.868-.657c-.365-.16-.807-.234-1.328-.234H2V6z" fill="#3D3D3D" style="paint-order:stroke markers fill"/></svg>