<svg version="1.1" viewBox="0 0 16 16" xmlns="http://www.w3.org/2000/svg">
 <path class="error" d="m6.0039 0v1.0117c-0.77148 0.016396-1.3974 0.076294-1.9355 0.37305a1.8789 1.88 0 0 0-0.83789 0.99805c-0.1649 0.437-0.22461 0.96019-0.22461 1.6172v7h-0.0058594v1c0 0.658 0.059706 1.1792 0.22461 1.6172 0.1639 0.439 0.46211 0.78909 0.83789 0.99609 0.75256 0.415 1.6724 0.37172 2.9297 0.38672h2.0097c1.2573-0.015 2.1771 0.02828 2.9297-0.38672 0.37578-0.207 0.67399-0.55709 0.83789-0.99609 0.16481-0.438 0.22461-0.95919 0.22461-1.6172h0.005859v-8c0-0.657-0.059707-1.1802-0.22461-1.6172a1.8789 1.88 0 0 0-0.83789-0.99805c-0.53813-0.29675-1.1641-0.35665-1.9355-0.37305v-1.0117h-3.998zm1 2h1.998c1.2593 0.015 2.0854 0.059719 2.4512 0.26172 0.18389 0.101 0.28878 0.21266 0.38672 0.47266 0.096943 0.26 0.16016 0.67362 0.16016 1.2656v7h-0.005859v1c0 0.592-0.063215 1.0056-0.16016 1.2656-0.09794 0.259-0.20087 0.37266-0.38476 0.47266-0.36462 0.202-1.1949 0.24672-2.4531 0.26172h-1.998c-1.2583-0.015-2.0883-0.05972-2.4531-0.26172-0.18389-0.1-0.28682-0.21366-0.38477-0.47266-0.096943-0.26-0.16016-0.67362-0.16016-1.2656v-1h0.0058594v-7c0-0.592 0.063213-1.0056 0.16016-1.2656 0.097942-0.26 0.20283-0.37166 0.38672-0.47266 0.36578-0.202 1.1919-0.24672 2.4512-0.26172zm0.28711 1v2.6621c0 0.7932 0.02934 1.5164 0.085938 2.168 0.0567 0.64211 0.12791 1.2837 0.21289 1.9258h0.82031c0.085-0.64212 0.15623-1.2837 0.21289-1.9258 0.0566-0.65156 0.085938-1.3748 0.085938-2.168v-2.6621h-1.418zm0.70898 8.1016c-0.29273 0-0.52339 0.09429-0.69336 0.2832-0.16997 0.18885-0.25586 0.41106-0.25586 0.66602s0.085899 0.47716 0.25586 0.66602c0.16997 0.18885 0.40063 0.2832 0.69336 0.2832s0.52339-0.0943 0.69336-0.2832c0.16997-0.18886 0.25586-0.41106 0.25586-0.66602s-0.085899-0.47716-0.25586-0.66602c-0.16997-0.18886-0.40063-0.2832-0.69336-0.2832z" enable-background="new" fill="#da1636"/>
</svg>
