<svg version="1.0" viewBox="0 0 16 16" xmlns="http://www.w3.org/2000/svg"><g fill="#3D3D3D"><path d="M2 1C.892 1 0 1.892 0 3v8c0 1.108.892 2 2 2h1.522L6 16l2-3h6c1.108 0 2-.892 2-2V3c0-1.108-.892-2-2-2zm0 1h12c.554 0 1 .446 1 1v8c0 .554-.446 1-1 1H7.566L6 14.4 4.034 12H2c-.554 0-1-.446-1-1V3c0-.554.446-1 1-1zm-.7 11c.153.017.322.021.524 0z"/><path d="m6.098 4.203 2.496 2.495-2.496 2.496.504.504 2.496-2.495 2.496 2.495.504-.504-2.496-2.496 2.496-2.495-.504-.504-2.496 2.495L6.602 3.7z" fill-rule="evenodd" font-weight="400" overflow="visible" style="font-feature-settings:normal;font-variant-alternates:normal;font-variant-caps:normal;font-variant-ligatures:normal;font-variant-numeric:normal;font-variant-position:normal;isolation:auto;mix-blend-mode:normal;shape-padding:0;text-decoration-color:#000;text-decoration-line:none;text-decoration-style:solid;text-indent:0;text-orientation:mixed;text-transform:none;white-space:normal" transform="translate(-1 .5)"/></g></svg>