<?xml version="1.0" encoding="UTF-8"?>
<!-- Created with Inkscape (http://www.inkscape.org/) -->
<svg id="svg3506" width="16" height="16" version="1.0" xmlns="http://www.w3.org/2000/svg" xmlns:cc="http://creativecommons.org/ns#" xmlns:dc="http://purl.org/dc/elements/1.1/" xmlns:rdf="http://www.w3.org/1999/02/22-rdf-syntax-ns#" xmlns:xlink="http://www.w3.org/1999/xlink">
 <metadata id="metadata77">
  <rdf:RDF>
   <cc:Work rdf:about="">
    <dc:format>image/svg+xml</dc:format>
    <dc:type rdf:resource="http://purl.org/dc/dcmitype/StillImage"/>
    <dc:title/>
   </cc:Work>
  </rdf:RDF>
 </metadata>
 <defs id="defs3508">
  <linearGradient id="linearGradient3245" x1="24.627" x2="24.64" y1="3.1234" y2="4.8826" gradientTransform="matrix(.32242 0 0 .99898 .76981 -2.4457)" gradientUnits="userSpaceOnUse">
   <stop id="stop2348" style="stop-color:#eee" offset="0"/>
   <stop id="stop2350" style="stop-color:#d9d9da" offset="1"/>
  </linearGradient>
  <linearGradient id="linearGradient3247" x1="5.7542" x2="55.495" y1="5.2438" y2=".065302" gradientTransform="matrix(.23001 0 0 .48528 1.0687 .14473)" gradientUnits="userSpaceOnUse">
   <stop id="stop3268" style="stop-color:#4e555a" offset="0"/>
   <stop id="stop3270" style="stop-color:#151c20" offset=".12283"/>
   <stop id="stop3272" style="stop-color:#9b876c" offset=".1449"/>
   <stop id="stop3274" style="stop-color:#9b876c" offset=".75216"/>
   <stop id="stop3276" style="stop-color:#9b876c" offset=".89877"/>
   <stop id="stop3278" style="stop-color:#c2c2c2" offset=".91783"/>
   <stop id="stop3280" style="stop-color:#c2c2c2" offset="1"/>
  </linearGradient>
  <linearGradient id="linearGradient3250" x1="28.252" x2="40.978" y1="4.0341" y2="24.62" gradientTransform="matrix(.28641 0 0 .27442 .91861 2.2437)" gradientUnits="userSpaceOnUse">
   <stop id="stop3200" style="stop-color:#fff" offset="0"/>
   <stop id="stop3202" style="stop-color:#fff;stop-opacity:0" offset="1"/>
  </linearGradient>
  <linearGradient id="linearGradient3255" x1="5.4801" x2="8.5001" y1="25.019" y2="25.019" gradientTransform="matrix(.28572 0 0 .35714 .57141 -.42857)" gradientUnits="userSpaceOnUse">
   <stop id="stop8980" style="stop-color:#4d5459;stop-opacity:.99608" offset="0"/>
   <stop id="stop8982" style="stop-color:#141b1f" offset="1"/>
  </linearGradient>
  <linearGradient id="linearGradient3258" x1="16.102" x2="38.491" y1="9.8889" y2="46" gradientTransform="matrix(.31475 0 0 .32452 .74311 .72464)" gradientUnits="userSpaceOnUse">
   <stop id="stop8969" style="stop-color:#ddcfbd" offset="0"/>
   <stop id="stop8971" style="stop-color:#856f50" offset="1"/>
  </linearGradient>
  <linearGradient id="linearGradient3260" x1="22.334" x2="53.453" y1="11.03" y2="61.22" gradientTransform="matrix(.22646 0 0 .23349 .75336 1.3584)" gradientUnits="userSpaceOnUse">
   <stop id="stop3321" style="stop-color:#af9b7f" offset="0"/>
   <stop id="stop3323" style="stop-color:#736148" offset="1"/>
  </linearGradient>
  <linearGradient id="linearGradient5530" x1="24.139" x2="24.139" y1="7.0479" y2="39.268" gradientTransform="matrix(.20131 0 0 .19992 7.4133 7.3089)" gradientUnits="userSpaceOnUse">
   <stop id="stop3945" style="stop-color:#fff" offset="0"/>
   <stop id="stop3947" style="stop-color:#fff;stop-opacity:0" offset="1"/>
  </linearGradient>
  <radialGradient id="radialGradient3183" cx="69.448" cy="51.695" r="31" gradientTransform="matrix(0 .25031 -.27259 0 25.245 -8.0767)" gradientUnits="userSpaceOnUse">
   <stop id="stop3244-5" style="stop-color:#eef87e" offset="0"/>
   <stop id="stop3246-9" style="stop-color:#cde34f" offset=".26238"/>
   <stop id="stop3248-7" style="stop-color:#93b723" offset=".66094"/>
   <stop id="stop3250-8" style="stop-color:#5a7e0d" offset="1"/>
  </radialGradient>
  <linearGradient id="linearGradient3185" x1="72.422" x2="72.422" y1="124.76" y2="51.244" gradientTransform="matrix(.10408 0 0 .10482 2.8406 2.7754)" gradientUnits="userSpaceOnUse">
   <stop id="stop2492-3" style="stop-color:#365f0e" offset="0"/>
   <stop id="stop2494-8" style="stop-color:#84a718" offset="1"/>
  </linearGradient>
 </defs>
 <g id="layer1">
  <rect id="rect2719" x="2.5095" y="2.5095" width="10.981" height="12.981" rx=".30969" ry=".33013" style="fill:url(#linearGradient3258);stroke-linecap:round;stroke-linejoin:round;stroke-miterlimit:0;stroke-width:1.019;stroke:url(#linearGradient3260)"/>
  <path id="path2721" d="m2 1c0.82547 0.52411 1.5644 0.30675 2 0.36083v14.639h-1.5917s-0.4083 0-0.4083-0.41986v-14.58z" style="fill:url(#linearGradient3255)"/>
  <rect id="rect2725" x="3.3707" y="1.5949" width=".59336" height="13.589" rx=".64036" ry=".79862" style="fill:#4d4d4d"/>
  <path id="path2723" d="m13.491 2.2678c-0.09486-0.6438-0.035736-1.1451-0.08813-1.7591h-9.7107c-0.50426 0-1.0025 0.14958-1.1431 0.75826-0.0079197 0.03429-0.016672 0.068846-0.021564 0.10616-0.12898 0.62745 0.4052 1.1182 1.2219 1.1182h0.48647" style="fill:url(#linearGradient3245);stroke-linejoin:round;stroke-miterlimit:0;stroke-width:1.0174;stroke:url(#linearGradient3247)"/>
  <path id="path4743" d="m4.4834 3.4925 8.0332-0.0090604v11.033" style="fill:none;opacity:.4;stroke-linecap:square;stroke-linejoin:round;stroke-width:.96683;stroke:url(#linearGradient3250)"/>
  <path id="path4494" d="m13.036 2.5h-9.0718" style="fill-rule:evenodd;fill:#a18d72;stroke-width:1px;stroke:#a18d72"/>
  <path id="path3282" d="m7.7557 9.5117c-2.9e-6 0.3196 0.068623 0.57164 0.20588 0.75612 0.13989 0.18449 0.32862 0.27673 0.56618 0.27673 0.23491 1e-6 0.42232-0.09224 0.56222-0.27673 0.13989-0.18708 0.20984-0.43912 0.20984-0.75612-5.8e-6 -0.3144-0.071272-0.56254-0.2138-0.74443-0.1399-0.18448-0.32862-0.27672-0.56618-0.27673-0.23228 3.7e-6 -0.41837 0.092244-0.55826 0.27673-0.13726 0.18189-0.20589 0.43003-0.20588 0.74443m1.6233 1.1732c-0.079191 0.18448-0.20721 0.32869-0.38405 0.43263-0.17421 0.10134-0.37878 0.152-0.61369 0.152-0.454 1e-6 -0.82353-0.1611-1.1086-0.4833-0.28243-0.3248-0.42364-0.74703-0.42364-1.2667-2.9e-6 -0.51967 0.14253-0.9419 0.4276-1.2667 0.28506-0.32479 0.65328-0.48719 1.1046-0.48719 0.23491 4.5e-6 0.43947 0.05197 0.61369 0.1559 0.17684 0.10394 0.30486 0.24815 0.38405 0.43263v-0.51058h0.82749v2.701c0.32729-0.049367 0.58464-0.20397 0.77206-0.46381 0.1874-0.26243 0.2811-0.59762 0.28111-1.0056-7e-6 -0.25983-0.03828-0.50278-0.11482-0.72884-0.076552-0.22865-0.19269-0.43782-0.34842-0.6275-0.25076-0.317-0.56486-0.56124-0.94231-0.73274-0.37482-0.17149-0.7813-0.25723-1.2195-0.25724-0.30619 3.6e-6 -0.59918 0.040278-0.87896 0.12082-0.27979 0.077955-0.53846 0.19358-0.77602 0.34688-0.39065 0.25464-0.69551 0.58464-0.91459 0.98998-0.21644 0.40275-0.32466 0.83927-0.32466 1.3096-1.7e-6 0.38716 0.069945 0.75093 0.20984 1.0913 0.14253 0.33779 0.34709 0.6366 0.61369 0.89644 0.26395 0.25464 0.56617 0.44822 0.90667 0.58074 0.34313 0.13511 0.70871 0.20267 1.0967 0.20267 0.33257-1e-6 0.66515-0.061063 0.99774-0.18318 0.33257-0.12212 0.61632-0.28712 0.85124-0.49499l0.42364 0.6314c-0.32995 0.25204-0.69024 0.44432-1.0809 0.57684-0.38801 0.13511-0.78262 0.20267-1.1838 0.20267-0.48831-1e-6 -0.94891-0.085748-1.3818-0.25724-0.43288-0.16889-0.81825-0.41574-1.1561-0.74054-0.33786-0.3248-0.59521-0.70026-0.77206-1.1264-0.17685-0.42873-0.26527-0.88864-0.26527-1.3797-3e-7 -0.4729 0.089742-0.92372 0.26923-1.3525 0.17949-0.42873 0.43552-0.80549 0.7681-1.1303 0.33258-0.32219 0.71927-0.57163 1.1601-0.74833 0.44344-0.17668 0.90271-0.26503 1.3778-0.26503 0.59125 6.4e-6 1.1284 0.11174 1.6114 0.33519 0.48302 0.22087 0.88687 0.54047 1.2115 0.9588 0.19796 0.25464 0.34709 0.53137 0.4474 0.83018 0.10293 0.29622 0.1544 0.60802 0.15441 0.93541-9e-6 0.70416-0.21513 1.2511-0.64536 1.6409-0.43025 0.38976-1.0373 0.58463-1.8213 0.58463h-0.15441v-0.60022" style="fill:#fff;opacity:.4"/>
  <path id="path2779" d="m7.7557 8.5117c-2.9e-6 0.3196 0.068623 0.57164 0.20588 0.75612 0.13989 0.18449 0.32862 0.27673 0.56618 0.27673 0.23491 9e-7 0.42232-0.09224 0.56222-0.27673 0.13989-0.18708 0.20984-0.43912 0.20984-0.75612-5.8e-6 -0.3144-0.071272-0.56254-0.2138-0.74443-0.1399-0.18448-0.32862-0.27672-0.56618-0.27673-0.23228 3.7e-6 -0.41837 0.092244-0.55826 0.27673-0.13726 0.18189-0.20589 0.43003-0.20588 0.74443m1.6233 1.1732c-0.079191 0.18448-0.20721 0.32869-0.38405 0.43263-0.17421 0.10134-0.37878 0.152-0.61369 0.152-0.454 1e-6 -0.82353-0.1611-1.1086-0.4833-0.28243-0.3248-0.42364-0.74703-0.42364-1.2667-2.9e-6 -0.51967 0.14253-0.9419 0.4276-1.2667 0.28506-0.32479 0.65328-0.48719 1.1046-0.48719 0.23491 4.5e-6 0.43947 0.05197 0.61369 0.1559 0.17684 0.10394 0.30486 0.24815 0.38405 0.43263v-0.51058h0.82749v2.701c0.32729-0.049367 0.58464-0.20397 0.77206-0.46381 0.1874-0.26243 0.2811-0.59762 0.28111-1.0056-7e-6 -0.25983-0.03828-0.50278-0.11482-0.72884-0.076552-0.22865-0.19269-0.43782-0.34842-0.6275-0.25076-0.317-0.56486-0.56124-0.94231-0.73274-0.37482-0.17149-0.7813-0.25723-1.2195-0.25724-0.30619 3.6e-6 -0.59918 0.040278-0.87896 0.12082-0.27979 0.077955-0.53846 0.19358-0.77602 0.34688-0.39065 0.25464-0.69551 0.58464-0.91459 0.98998-0.21644 0.40275-0.32466 0.83927-0.32466 1.3096-1.7e-6 0.38716 0.069945 0.75093 0.20984 1.0913 0.14253 0.33779 0.34709 0.6366 0.61369 0.89643 0.26395 0.25464 0.56617 0.44822 0.90667 0.58074 0.34313 0.13511 0.70871 0.20267 1.0967 0.20267 0.33257-1e-6 0.66515-0.061063 0.99774-0.18318 0.33257-0.12212 0.61632-0.28712 0.85124-0.49499l0.42364 0.6314c-0.32995 0.25204-0.69024 0.44432-1.0809 0.57684-0.38801 0.13511-0.78262 0.20267-1.1838 0.20267-0.48831-1e-6 -0.94891-0.085748-1.3818-0.25724-0.43288-0.16889-0.81825-0.41574-1.1561-0.74054-0.33786-0.3248-0.59521-0.70026-0.77206-1.1264-0.17685-0.42873-0.26527-0.88864-0.26527-1.3797-3e-7 -0.4729 0.089742-0.92372 0.26923-1.3525 0.17949-0.42873 0.43552-0.80549 0.7681-1.1303 0.33258-0.32219 0.71927-0.57163 1.1601-0.74833 0.44344-0.17668 0.90271-0.26503 1.3778-0.26503 0.59125 6.4e-6 1.1284 0.11174 1.6114 0.33519 0.48302 0.22087 0.88687 0.54047 1.2115 0.9588 0.19796 0.25464 0.34709 0.53137 0.4474 0.83018 0.10293 0.29622 0.1544 0.60802 0.15441 0.93541-9e-6 0.70416-0.21513 1.2511-0.64536 1.6409-0.43025 0.38976-1.0373 0.58463-1.8213 0.58463h-0.15441v-0.60022" style="fill:#746956"/>
 </g>
 <path id="path2262" d="m10.5 10.5v-2.0073h3v2.0073h2.0073v3h-2.0073v2.0073h-3v-2.0073h-2.0073v-3h2.0073z" style="color:#000000;fill:url(#radialGradient3183);stroke-linecap:round;stroke-linejoin:round;stroke-width:.98543;stroke:url(#linearGradient3185)"/>
 <path id="path2272" d="m11.5 11.5v-2h1v2h2v1h-2v2.2925h-1v-2.2925h-2v-1h2z" style="fill:none;opacity:.4;stroke:url(#linearGradient5530)"/>
</svg>
