<?xml version="1.0" encoding="UTF-8"?>
<!-- Created with Inkscape (http://www.inkscape.org/) -->
<svg id="svg3886" width="16px" height="16px" version="1.1" xmlns="http://www.w3.org/2000/svg" xmlns:cc="http://creativecommons.org/ns#" xmlns:dc="http://purl.org/dc/elements/1.1/" xmlns:rdf="http://www.w3.org/1999/02/22-rdf-syntax-ns#" xmlns:xlink="http://www.w3.org/1999/xlink">
 <defs id="defs3888">
  <linearGradient id="linearGradient5530" x1="24.139" x2="24.139" y1="7.0479" y2="39.268" gradientTransform="matrix(.20131 0 0 .19992 7.4133 7.3089)" gradientUnits="userSpaceOnUse">
   <stop id="stop3945" style="stop-color:#fff" offset="0"/>
   <stop id="stop3947" style="stop-color:#fff;stop-opacity:0" offset="1"/>
  </linearGradient>
  <radialGradient id="radialGradient2878" cx="69.448" cy="51.695" r="31" gradientTransform="matrix(0 .25031 -.27259 0 25.245 -8.0767)" gradientUnits="userSpaceOnUse">
   <stop id="stop3244-5" style="stop-color:#eef87e" offset="0"/>
   <stop id="stop3246-9" style="stop-color:#cde34f" offset=".26238"/>
   <stop id="stop3248-7" style="stop-color:#93b723" offset=".66094"/>
   <stop id="stop3250-8" style="stop-color:#5a7e0d" offset="1"/>
  </radialGradient>
  <linearGradient id="linearGradient2880" x1="72.422" x2="72.422" y1="124.76" y2="51.244" gradientTransform="matrix(.10408 0 0 .10482 2.8406 2.7754)" gradientUnits="userSpaceOnUse">
   <stop id="stop2492-3" style="stop-color:#365f0e" offset="0"/>
   <stop id="stop2494-8" style="stop-color:#84a718" offset="1"/>
  </linearGradient>
  <linearGradient id="linearGradient3677" x1="24.046" x2="24.046" y1="11.673" y2="34.714" gradientTransform="matrix(.55048 0 0 .57816 -3.8262 -5.2762)" gradientUnits="userSpaceOnUse">
   <stop id="stop3644" style="stop-color:#fff" offset="0"/>
   <stop id="stop3646" style="stop-color:#fff;stop-opacity:0" offset="1"/>
  </linearGradient>
  <linearGradient id="linearGradient3674" x1="11.566" x2="15.215" y1="22.292" y2="33.955" gradientTransform="matrix(.48936 0 0 .48936 1.7132 22.728)" gradientUnits="userSpaceOnUse">
   <stop id="stop2687" style="stop-color:#fff;stop-opacity:.27451" offset="0"/>
   <stop id="stop2689" style="stop-color:#fff;stop-opacity:0" offset="1"/>
  </linearGradient>
  <radialGradient id="radialGradient3882" cx="13.139" cy="25.625" r="13.931" gradientTransform="matrix(0 .92615 -1.0546 0 32.403 -9.3346)" gradientUnits="userSpaceOnUse">
   <stop id="stop3692" style="stop-color:#ffeb9f" offset="0"/>
   <stop id="stop3694" style="stop-color:#ffd57e" offset=".26238"/>
   <stop id="stop3696" style="stop-color:#ffbc43" offset=".66094"/>
   <stop id="stop3698" style="stop-color:#ff921a" offset="1"/>
  </radialGradient>
  <linearGradient id="linearGradient3884" x1="21.483" x2="21.483" y1="36.255" y2="9.58" gradientTransform="matrix(.55048 0 0 .57816 -3.8262 -5.2762)" gradientUnits="userSpaceOnUse">
   <stop id="stop3605" style="stop-color:#a7651c" offset="0"/>
   <stop id="stop3607" style="stop-color:#c8a700" offset="1"/>
  </linearGradient>
 </defs>
 <metadata id="metadata3891">
  <rdf:RDF>
   <cc:Work rdf:about="">
    <dc:format>image/svg+xml</dc:format>
    <dc:type rdf:resource="http://purl.org/dc/dcmitype/StillImage"/>
    <dc:title/>
   </cc:Work>
  </rdf:RDF>
 </metadata>
 <g id="layer1">
  <path id="path1307" d="m8 0.49614c0.50644 0 2.1392 4.2836 2.5489 4.5962 0.40972 0.31264 4.7932 0.61985 4.9497 1.1257 0.1565 0.50587-3.2179 3.4605-3.3744 3.9663-0.1565 0.50587 1.2855 4.9793 0.87578 5.292-0.40972 0.31264-4.4936-2.1449-5-2.1449-0.50644 0-4.5903 2.4575-5 2.1449-0.40972-0.31264 1.0323-4.7861 0.87578-5.292-0.1565-0.50587-3.5309-3.4605-3.3744-3.9663 0.1565-0.50587 4.54-0.81308 4.9497-1.1257 0.40972-0.31264 2.0425-4.5962 2.5489-4.5962z" style="fill:url(#radialGradient3882);stroke-linejoin:round;stroke-width:.99227;stroke:url(#linearGradient3884)"/>
  <path id="path3672" transform="matrix(.71439 0 0 .70012 -.57241 -16.955)" d="m11.969 26.375c-0.5066 0.77967-1.6325 2.5936-2.9062 5.5938a0.14192 0.14192 0 0 1-0.03125 0.03125 0.14192 0.14192 0 0 1-0.03125 0.03125 0.14192 0.14192 0 0 1-0.03125 0 0.14192 0.14192 0 0 1-0.03125 0.03125 0.14192 0.14192 0 0 1-0.03125-0.03125 0.14192 0.14192 0 0 1-0.03125 0 0.14192 0.14192 0 0 1-0.03125-0.03125 0.14192 0.14192 0 0 1-0.03125-0.03125 0.14192 0.14192 0 0 1 0-0.03125 0.14192 0.14192 0 0 1-0.03125 0c0.00461-0.0064-0.035912 0.0063-0.03125 0 0.00522-0.0059-0.00527 0.03708 0 0.03125 0.00556-0.0056-0.036852 0.0055-0.03125 0 0.00608-5e-3 -0.00612 0.03618 0 0.03125 0.00629-0.0047-0.037574 0.0047-0.03125 0 0.00682-0.0039-0.038107 0.0038-0.03125 0 0.00692-0.0037-0.00695 0.03492 0 0.03125 0.00726-3e-3 -0.038533 3e-3 -0.03125 0a0.14192 0.14192 0 0 1 0 0.03125 0.14192 0.14192 0 0 1 0.03125 0 0.14192 0.14192 0 0 1 0.03125 0.03125 0.14192 0.14192 0 0 1 0.03125 0.03125 0.14192 0.14192 0 0 1 0 0.03125 0.14192 0.14192 0 0 1 0 0.03125 0.14192 0.14192 0 0 1 0 0.03125 0.14192 0.14192 0 0 1 0 0.03125 0.14192 0.14192 0 0 1-0.03125 0.03125 0.14192 0.14192 0 0 1-0.03125 0.03125 0.14192 0.14192 0 0 1-0.03125 0c-2.0575 0.3355-4.605 0.67933-6.3438 1.0938 1.0526 1.2354 2.265 2.404 3.4375 3.5938l15.031-2.7188c0.0052-0.0052 0.02606 0.0052 0.03125 0 0.28516-0.28556 0.55282-0.58426 0.84375-0.875-1.9857-0.47309-4.2196-0.75757-6.2812-1.0938a0.14192 0.14192 0 0 1-0.03125 0 0.14192 0.14192 0 0 1-0.03125-0.03125 0.14192 0.14192 0 0 1-0.03125-0.03125 0.14192 0.14192 0 0 1 0-0.03125 0.14192 0.14192 0 0 1 0-0.03125 0.14192 0.14192 0 0 1 0-0.03125 0.14192 0.14192 0 0 1 0-0.03125 0.14192 0.14192 0 0 1 0.03125-0.03125 0.14192 0.14192 0 0 1 0.03125-0.03125 0.14192 0.14192 0 0 1 0.03125 0 0.14192 0.14192 0 0 1 0-0.03125c0.0075 0.0027-0.0387-0.0027-0.03125 0 0.0071 0.0035-0.03835-0.0035-0.03125 0 7e-3 0.0037-7e-3 -0.03496 0-0.03125 0.0066 0.0044-0.03785-0.0044-0.03125 0 0.0062 0.0049-0.0062-0.03622 0-0.03125 6e-3 0.0052-0.03724-0.0052-0.03125 0 0.0054 0.0058-0.0053-0.03713 0-0.03125 0.0052 6e-3 -0.03638-6e-3 -0.03125 0 0.0045 0.0065-0.0045-0.0378 0-0.03125 4e-3 0.0069-0.0352-0.0069-0.03125 0 0.0037 7e-3 -0.0037-0.03828 0-0.03125l-0.125 0.0625-0.125 0.0625c-0.98508-2.287-2.3888-4.6981-2.9375-5.625z" style="fill:url(#linearGradient3674);opacity:.8"/>
  <path id="path2894" d="m8 2.3125c-0.5795 1.0967-1.0411 2.2564-1.6575 3.3322-0.43559 0.57863-1.2017 0.56408-1.8445 0.70061-0.7991 0.14874-1.6041 0.26243-2.4042 0.40469 0.83215 1.0058 1.9042 1.8031 2.6554 2.8731 0.29316 0.56128 0.086735 1.194 0.048954 1.7876-0.13004 0.87367-0.78226 2.0114-0.87213 2.8907 1.1004-0.55985 2.6238-1.5319 3.7911-1.9401 0.62464-0.12796 1.1682 0.25423 1.7115 0.49593 0.72641 0.38268 1.7399 0.93969 2.4654 1.3241-0.12397-1.3023-0.77337-2.7336-0.79942-4.0425 0.09173-0.72989 0.73415-1.1887 1.1859-1.7079 0.55648-0.5461 1.1164-1.0897 1.6259-1.6809-1.211-0.21558-2.4357-0.37377-3.6348-0.64599-0.75109-0.29366-0.93766-1.1434-1.2929-1.7801-0.32674-0.67027-0.63269-1.3506-0.9786-2.0115z" style="fill:none;opacity:.4;stroke-linejoin:round;stroke-width:.99227;stroke:url(#linearGradient3677)"/>
  <path id="path2262" d="m10.5 10.5v-2.0073h3v2.0073h2.0073v3h-2.0073v2.0073h-3v-2.0073h-2.0073v-3h2.0073z" style="color:#000000;fill:url(#radialGradient2878);stroke-linecap:round;stroke-linejoin:round;stroke-width:.98543;stroke:url(#linearGradient2880)"/>
  <path id="path2272" d="m11.5 11.5v-2h1v2h2v1h-2v2.2925h-1v-2.2925h-2v-1h2z" style="fill:none;opacity:.4;stroke:url(#linearGradient5530)"/>
 </g>
</svg>
