<?xml version="1.0" encoding="UTF-8"?>
<!-- Created with Inkscape (http://www.inkscape.org/) -->
<svg id="svg2395" width="16" height="16" version="1.1" xmlns="http://www.w3.org/2000/svg" xmlns:xlink="http://www.w3.org/1999/xlink">
 <defs id="defs2397">
  <linearGradient id="linearGradient2427" x1="-86.129" x2="-93.088" y1="2.0691" y2="31.138" gradientTransform="matrix(.42104 -.10139 .1008 .4235 44.055 -5.0894)" gradientUnits="userSpaceOnUse">
   <stop id="stop2266" style="stop-color:#d7e866" offset="0"/>
   <stop id="stop2268" style="stop-color:#8cab2a" offset="1"/>
  </linearGradient>
  <linearGradient id="linearGradient2431" x1="20.494" x2="20.494" y1="7.044" y2="39.78" gradientTransform="matrix(.41388 0 0 .41629 -1.7222 -1.7776)" gradientUnits="userSpaceOnUse">
   <stop id="stop3402" style="stop-color:#fff" offset="0"/>
   <stop id="stop3404" style="stop-color:#fff;stop-opacity:0" offset="1"/>
  </linearGradient>
 </defs>
 <g id="layer1">
  <path id="path1542" d="m12.262 0.50446c-0.23166-0.023648-0.46198 0.090476-0.58101 0.30958l-5.0714 9.3331-3.2606-2.6077c-0.29044-0.15963-0.65281-0.056939-0.81152 0.2352l-1.4622 1.8882c-0.1587 0.29213-0.051938 0.6565 0.2385 0.81613 0 0 5.9534 4.9457 5.9608 4.9493 0.068071 0.03741 0.13926 0.05624 0.21162 0.06544 0.23638 0.03004 0.47828-0.08166 0.59979-0.30532l6.8395-12.587c0.1587-0.29213 0.05194-0.6565-0.2385-0.81613l-2.1946-1.2113c-0.072611-0.039908-0.15317-0.061804-0.23039-0.069686z" style="fill:url(#linearGradient2427);stroke-linecap:round;stroke-linejoin:round;stroke-width:1.0028;stroke:#699536"/>
  <path id="path2429" d="m12.312 1.6562-5.3125 9.8125a0.15035 0.15035 0 0 1 0 0.03125 0.15035 0.15035 0 0 1-0.03125 0.03125 0.15035 0.15035 0 0 1-0.03125 0 0.15035 0.15035 0 0 1-0.03125 0.03125 0.15035 0.15035 0 0 1-0.03125 0 0.15035 0.15035 0 0 1-0.03125 0 0.15035 0.15035 0 0 1-0.03125-0.03125 0.15035 0.15035 0 0 1-0.03125 0l-3.6562-2.9062c-0.32388 0.40246-0.60092 0.77792-0.96875 1.25 0.1123 0.093077 1.303 1.09 2.625 2.1875 0.6912 0.57379 1.3815 1.1568 1.9062 1.5938 0.26235 0.21848 0.4994 0.39983 0.65625 0.53125 0.050142 0.04201 0.088455 0.06296 0.125 0.09375 0.052555-0.09355 0.10901-0.18055 0.25-0.4375 0.19196-0.34986 0.43971-0.83698 0.75-1.4062 0.62059-1.1385 1.4445-2.6103 2.25-4.0938 0.80552-1.4834 1.5812-2.9751 2.1875-4.0938 0.30316-0.55933 0.56868-1.0087 0.75-1.3438 0.14198-0.26236 0.21072-0.36449 0.25-0.4375-0.05507-0.031347-0.09995-0.061486-0.21875-0.125-0.17189-0.091893-0.37888-0.19988-0.59375-0.3125s-0.43193-0.22715-0.59375-0.3125c-0.06696-0.035318-0.14091-0.037474-0.1875-0.0625z" style="fill:none;opacity:.4;stroke-linecap:round;stroke-width:1.0028;stroke:url(#linearGradient2431)"/>
 </g>
</svg>
