<?xml version="1.0" encoding="UTF-8" standalone="no"?>
<svg
   xmlns:dc="http://purl.org/dc/elements/1.1/"
   xmlns:cc="http://creativecommons.org/ns#"
   xmlns:rdf="http://www.w3.org/1999/02/22-rdf-syntax-ns#"
   xmlns:svg="http://www.w3.org/2000/svg"
   xmlns="http://www.w3.org/2000/svg"
   xmlns:sodipodi="http://sodipodi.sourceforge.net/DTD/sodipodi-0.dtd"
   xmlns:inkscape="http://www.inkscape.org/namespaces/inkscape"
   height="16"
   width="16"
   version="1.1"
   id="svg1327"
   sodipodi:docname="document-open.svg"
   inkscape:version="0.92.4 (5da689c313, 2019-01-14)">
  <metadata
     id="metadata1333">
    <rdf:RDF>
      <cc:Work
         rdf:about="">
        <dc:format>image/svg+xml</dc:format>
        <dc:type
           rdf:resource="http://purl.org/dc/dcmitype/StillImage" />
        <dc:title />
      </cc:Work>
    </rdf:RDF>
  </metadata>
  <defs
     id="defs1331" />
  <sodipodi:namedview
     pagecolor="#ffffff"
     bordercolor="#666666"
     borderopacity="1"
     objecttolerance="10"
     gridtolerance="10"
     guidetolerance="10"
     inkscape:pageopacity="0"
     inkscape:pageshadow="2"
     inkscape:window-width="1294"
     inkscape:window-height="704"
     id="namedview1329"
     showgrid="false"
     inkscape:zoom="1"
     inkscape:cx="-106.31927"
     inkscape:cy="1.515294"
     inkscape:window-x="72"
     inkscape:window-y="27"
     inkscape:window-maximized="1"
     inkscape:current-layer="svg1327">
    <inkscape:grid
       type="xygrid"
       id="grid1878" />
  </sodipodi:namedview>
  <path
     style="opacity:0.6;vector-effect:none;fill:#000000;fill-opacity:1;stroke:#000000;stroke-width:2;stroke-linecap:round;stroke-linejoin:round;stroke-miterlimit:4;stroke-dasharray:none;stroke-dashoffset:0;stroke-opacity:1"
     d="M 4.256787,2.0353163 C 3.388357,2.0805013 2.473955,1.9472323 1.642529,2.2471083 0.991317,2.5649455 1.067245,3.3962401 1.05991,4.0027138 1.04016,6.9518313 1.05441,9.9010854 1.05001,12.850258 c 0.07984,0.482349 0.390904,0.94243 0.911743,1.00415 0.951484,0.154422 1.910903,0.04731 2.875121,0.0853 3.017317,-0.01485 6.036857,0.01171 9.046754,-0.08078 0.571398,0.01517 1.069944,-0.484212 1.014591,-1.060725 0.03934,-2.55727 0.04571,-5.1166659 -0.0035,-7.6737723 C 14.920596,4.4827319 14.277444,4.0502559 13.681104,4.0860976 12.084378,4.020235 10.461314,4.0802903 8.846241,3.9998038 8.154733,3.8682914 7.791976,3.1562907 7.275586,2.7369765 6.928901,2.4737519 6.70606,1.9118352 6.199292,2.034706 5.55179,2.034933 4.904288,2.0341458 4.256787,2.0353163 Z"
     id="path2064"
     inkscape:connector-curvature="0" />
  <path
     style="opacity:1;vector-effect:none;fill:#b3b3b3;fill-opacity:1;stroke:none;stroke-width:0.125;stroke-linecap:round;stroke-linejoin:round;stroke-miterlimit:4;stroke-dasharray:none;stroke-dashoffset:0;stroke-opacity:1"
     d="M 4.256787,2.0353163 C 3.388357,2.0805013 2.473955,1.9472323 1.642529,2.2471083 0.991317,2.5649455 1.067245,3.3962401 1.05991,4.002714 c -0.01975,2.949117 -0.0055,5.898371 -0.0099,8.847544 0.07984,0.482349 0.390904,0.94243 0.911743,1.00415 0.951484,0.154422 1.910903,0.04731 2.875121,0.0853 3.017317,-0.01485 6.036857,0.01171 9.046754,-0.08078 0.571398,0.01517 1.069944,-0.484212 1.014591,-1.060725 0.03934,-2.55727 0.04571,-5.116666 -0.0035,-7.673772 C 14.920599,4.482732 14.277444,4.050256 13.681104,4.086098 12.084378,4.020238 10.461314,4.080298 8.846241,3.999804 8.154733,3.8682914 7.791976,3.1562907 7.275586,2.7369765 6.928901,2.4737519 6.70606,1.9118352 6.199292,2.034706 5.55179,2.034933 4.904288,2.0341458 4.256787,2.0353163 Z"
     id="path2064-7"
     inkscape:connector-curvature="0" />
  <rect
     style="opacity:0.4;vector-effect:none;fill:#000000;fill-opacity:1;stroke:none;stroke-width:2;stroke-linecap:round;stroke-linejoin:round;stroke-miterlimit:4;stroke-dasharray:none;stroke-dashoffset:0;stroke-opacity:1"
     id="rect2081"
     width="10"
     height="11"
     x="4"
     y="5"
     ry="2"
     rx="2" />
  <rect
     style="opacity:1;vector-effect:none;fill:#ffffff;fill-opacity:1;stroke:none;stroke-width:2;stroke-linecap:round;stroke-linejoin:round;stroke-miterlimit:4;stroke-dasharray:none;stroke-dashoffset:0;stroke-opacity:1"
     id="rect2085"
     width="8"
     height="9"
     x="5"
     y="6"
     rx="0"
     ry="1" />
  <rect
     style="opacity:1;vector-effect:none;fill:#a7a7f1;fill-opacity:1;stroke:none;stroke-width:2;stroke-linecap:round;stroke-linejoin:round;stroke-miterlimit:4;stroke-dasharray:none;stroke-dashoffset:0;stroke-opacity:1"
     id="rect2098"
     width="6"
     height="1"
     x="6"
     y="7" />
  <rect
     style="opacity:1;vector-effect:none;fill:#a7a7f1;fill-opacity:1;stroke:none;stroke-width:2;stroke-linecap:round;stroke-linejoin:round;stroke-miterlimit:4;stroke-dasharray:none;stroke-dashoffset:0;stroke-opacity:1"
     id="rect2100"
     width="6"
     height="1"
     x="6"
     y="9" />
  <rect
     style="opacity:1;vector-effect:none;fill:#a7a7f1;fill-opacity:1;stroke:none;stroke-width:2;stroke-linecap:round;stroke-linejoin:round;stroke-miterlimit:4;stroke-dasharray:none;stroke-dashoffset:0;stroke-opacity:1"
     id="rect2102"
     width="3"
     height="1"
     x="6"
     y="11" />
</svg>
