<?xml version="1.0" encoding="UTF-8" standalone="no"?>
<!-- Created with Inkscape (http://www.inkscape.org/) -->

<svg
   xmlns:dc="http://purl.org/dc/elements/1.1/"
   xmlns:cc="http://creativecommons.org/ns#"
   xmlns:rdf="http://www.w3.org/1999/02/22-rdf-syntax-ns#"
   xmlns:svg="http://www.w3.org/2000/svg"
   xmlns="http://www.w3.org/2000/svg"
   xmlns:xlink="http://www.w3.org/1999/xlink"
   xmlns:sodipodi="http://sodipodi.sourceforge.net/DTD/sodipodi-0.dtd"
   xmlns:inkscape="http://www.inkscape.org/namespaces/inkscape"
   id="svg2457"
   width="16"
   height="16"
   version="1.0"
   sodipodi:docname="system-upgrade.svg"
   inkscape:version="0.92.4 (5da689c313, 2019-01-14)">
  <metadata
     id="metadata20">
    <rdf:RDF>
      <cc:Work
         rdf:about="">
        <dc:format>image/svg+xml</dc:format>
        <dc:type
           rdf:resource="http://purl.org/dc/dcmitype/StillImage" />
        <dc:title></dc:title>
      </cc:Work>
    </rdf:RDF>
  </metadata>
  <sodipodi:namedview
     pagecolor="#ffffff"
     bordercolor="#666666"
     borderopacity="1"
     objecttolerance="10"
     gridtolerance="10"
     guidetolerance="10"
     inkscape:pageopacity="0"
     inkscape:pageshadow="2"
     inkscape:window-width="1920"
     inkscape:window-height="1016"
     id="namedview18"
     showgrid="false"
     inkscape:zoom="52.437402"
     inkscape:cx="3.7949862"
     inkscape:cy="3.4231291"
     inkscape:window-x="0"
     inkscape:window-y="27"
     inkscape:window-maximized="1"
     inkscape:current-layer="svg2457"
     showguides="false" />
  <defs
     id="defs2459">
    <linearGradient
       id="linearGradient3260"
       x1="86.133"
       x2="84.639"
       y1="105.1"
       y2="20.895"
       gradientTransform="matrix(.096142 0 0 .096142 1.8469 1.943)"
       gradientUnits="userSpaceOnUse">
      <stop
         id="stop5130"
         style="stop-color:#e5e5e5"
         offset="0" />
      <stop
         id="stop5132"
         style="stop-color:#ababab"
         offset="1" />
    </linearGradient>
    <linearGradient
       id="linearGradient3264"
       x1="21"
       x2="21"
       y2="16.005"
       gradientTransform="translate(-17.058)"
       gradientUnits="userSpaceOnUse">
      <stop
         id="stop3399"
         style="stop-color:#aaa"
         offset="0" />
      <stop
         id="stop3401"
         style="stop-color:#8c8c8c"
         offset="1" />
    </linearGradient>
    <linearGradient
       id="linearGradient3262"
       x1="25"
       x2="25"
       y2="16"
       gradientTransform="translate(-17.058)"
       gradientUnits="userSpaceOnUse">
      <stop
         id="stop3311"
         style="stop-color:#f6f6f6"
         offset="0" />
      <stop
         id="stop3313"
         style="stop-color:#ccc"
         offset="1" />
    </linearGradient>
    <linearGradient
       id="linearGradient3264-7"
       x1="21"
       x2="21"
       y2="16.005"
       gradientTransform="translate(-17.058)"
       gradientUnits="userSpaceOnUse">
      <stop
         id="stop3399-5"
         style="stop-color:#aaa"
         offset="0" />
      <stop
         id="stop3401-3"
         style="stop-color:#8c8c8c"
         offset="1" />
    </linearGradient>
    <linearGradient
       id="linearGradient3262-5"
       x1="25"
       x2="25"
       y2="16"
       gradientTransform="translate(-17.058)"
       gradientUnits="userSpaceOnUse">
      <stop
         id="stop3311-6"
         style="stop-color:#f6f6f6"
         offset="0" />
      <stop
         id="stop3313-2"
         style="stop-color:#ccc"
         offset="1" />
    </linearGradient>
    <linearGradient
       id="linearGradient4441">
      <stop
         id="stop4443"
         style="stop-color:#d5ae7b;stop-opacity:1"
         offset="0" />
      <stop
         id="stop4445"
         style="stop-color:#ad8757;stop-opacity:1"
         offset="0.22222221" />
      <stop
         id="stop4447"
         style="stop-color:#c3a277;stop-opacity:1"
         offset="0.22222221" />
      <stop
         id="stop4449"
         style="stop-color:#dfbe92;stop-opacity:1"
         offset="1" />
    </linearGradient>
    <linearGradient
       id="linearGradient4425">
      <stop
         id="stop4427"
         style="stop-color:#ffffff;stop-opacity:1"
         offset="0" />
      <stop
         id="stop4429"
         style="stop-color:#9d7d53;stop-opacity:1"
         offset="0.50000012" />
      <stop
         id="stop4431"
         style="stop-color:#ffffff;stop-opacity:0.15686275"
         offset="0.50000012" />
      <stop
         id="stop4433"
         style="stop-color:#9d7d53;stop-opacity:1"
         offset="1" />
    </linearGradient>
    <linearGradient
       id="linearGradient4382">
      <stop
         style="stop-color:#cca068;stop-opacity:1"
         offset="0"
         id="stop4384" />
      <stop
         style="stop-color:#f3d1a5;stop-opacity:1"
         offset="1"
         id="stop4386" />
    </linearGradient>
    <linearGradient
       id="linearGradient4265">
      <stop
         id="stop4267"
         style="stop-color:#ffffff;stop-opacity:1"
         offset="0" />
      <stop
         id="stop4269"
         style="stop-color:#ffffff;stop-opacity:0.23529412"
         offset="0.27306253" />
      <stop
         id="stop4271"
         style="stop-color:#ffffff;stop-opacity:0.15686275"
         offset="0.74529552" />
      <stop
         id="stop4273"
         style="stop-color:#ffffff;stop-opacity:0.39215687"
         offset="1" />
    </linearGradient>
    <linearGradient
       id="linearGradient3818">
      <stop
         id="stop3820"
         offset="0"
         style="stop-color:#000000;stop-opacity:1;" />
      <stop
         id="stop3822"
         offset="1"
         style="stop-color:#000000;stop-opacity:0.51485151" />
    </linearGradient>
    <linearGradient
       id="linearGradient3904">
      <stop
         style="stop-color:#104b88;stop-opacity:1;"
         offset="0"
         id="stop3906" />
      <stop
         style="stop-color:#0e7398;stop-opacity:1;"
         offset="1"
         id="stop3908" />
    </linearGradient>
    <linearGradient
       id="linearGradient3804">
      <stop
         id="stop3806"
         offset="0"
         style="stop-color:#ffffff;stop-opacity:1;" />
      <stop
         id="stop3808"
         offset="1"
         style="stop-color:#ffffff;stop-opacity:0;" />
    </linearGradient>
    <linearGradient
       gradientTransform="translate(-433,180.00027)"
       gradientUnits="userSpaceOnUse"
       y2="-175.50027"
       x2="444"
       y1="-178.50027"
       x1="443.5"
       id="linearGradient6750"
       xlink:href="#linearGradient3804" />
    <linearGradient
       gradientUnits="userSpaceOnUse"
       y2="-163.5"
       x2="438"
       y1="-163.5"
       x1="435"
       id="linearGradient6736"
       xlink:href="#linearGradient3804" />
    <linearGradient
       gradientTransform="translate(-1400.9375,-47.937495)"
       gradientUnits="userSpaceOnUse"
       y2="47.937496"
       x2="1407.9375"
       y1="63.937489"
       x1="1407.9375"
       id="linearGradient5956"
       xlink:href="#linearGradient5621" />
    <linearGradient
       id="linearGradient5621">
      <stop
         id="stop5623"
         offset="0"
         style="stop-color:#0b0b0b;stop-opacity:1" />
      <stop
         id="stop5625"
         offset="1"
         style="stop-color:#585858;stop-opacity:1" />
    </linearGradient>
    <linearGradient
       id="linearGradient8589">
      <stop
         offset="0"
         style="stop-color:#fefefe;stop-opacity:1"
         id="stop8591" />
      <stop
         offset="1"
         style="stop-color:#cbcbcb;stop-opacity:1"
         id="stop8593" />
    </linearGradient>
    <radialGradient
       gradientUnits="userSpaceOnUse"
       id="XMLID_8_"
       r="139.55859"
       cy="112.3047"
       cx="102">
      <stop
         offset="0"
         style="stop-color:#b7b8b9;stop-opacity:1"
         id="stop41" />
      <stop
         offset="0.18851049"
         style="stop-color:#ececec;stop-opacity:1"
         id="stop47" />
      <stop
         offset="0.25718147"
         style="stop-color:#fafafa;stop-opacity:0"
         id="stop49" />
      <stop
         offset="0.30111277"
         style="stop-color:#ffffff;stop-opacity:0"
         id="stop51" />
      <stop
         offset="0.53130001"
         style="stop-color:#fafafa;stop-opacity:0"
         id="stop53" />
      <stop
         offset="0.84490001"
         style="stop-color:#ebecec;stop-opacity:0"
         id="stop55" />
      <stop
         offset="1"
         style="stop-color:#e1e2e3;stop-opacity:0"
         id="stop57" />
    </radialGradient>
    <linearGradient
       gradientUnits="userSpaceOnUse"
       y2="-164.00027"
       x2="920"
       y1="-180.00027"
       x1="920"
       id="linearGradient6701"
       xlink:href="#linearGradient3804" />
    <clipPath
       id="clipPath6691"
       clipPathUnits="userSpaceOnUse">
      <path
         style="color:#bebebe;fill:#ffffff;fill-opacity:0.57671958;fill-rule:nonzero;stroke:none;stroke-width:0;marker:none;visibility:visible;display:inline;overflow:visible;enable-background:accumulate"
         d="m 914,-179.00027 8,-1e-5 4,3 0,11 -12,0 z"
         id="path6693" />
    </clipPath>
    <linearGradient
       id="outerBackgroundGradient-4">
      <stop
         id="stop3864-8-6-6"
         offset="0"
         style="stop-color:#f0f0f0;stop-opacity:1;" />
      <stop
         id="stop3866-9-1-7"
         offset="1"
         style="stop-color:#f9f9f9;stop-opacity:1;" />
    </linearGradient>
    <linearGradient
       y2="40.00005"
       x2="144"
       y1="280.00003"
       x1="144"
       gradientTransform="matrix(0.05555556,0,0,0.05714289,-2,-2.1428659)"
       gradientUnits="userSpaceOnUse"
       id="linearGradient3825"
       xlink:href="#outerBackgroundGradient-4" />
    <linearGradient
       y2="14"
       x2="5"
       y1="1"
       x1="5"
       gradientUnits="userSpaceOnUse"
       id="linearGradient3827"
       xlink:href="#linearGradient3804" />
    <linearGradient
       gradientUnits="userSpaceOnUse"
       y2="16"
       x2="8"
       y1="0"
       x1="8"
       id="linearGradient3824"
       xlink:href="#linearGradient3818" />
    <linearGradient
       gradientTransform="matrix(1,0,0,-1,0,16.009618)"
       y2="16"
       x2="8"
       y1="0"
       x1="8"
       gradientUnits="userSpaceOnUse"
       id="linearGradient3866"
       xlink:href="#linearGradient3818" />
    <linearGradient
       gradientTransform="translate(0,0.999522)"
       y2="16"
       x2="8"
       y1="0"
       x1="8"
       gradientUnits="userSpaceOnUse"
       id="linearGradient3881"
       xlink:href="#linearGradient3818" />
    <linearGradient
       y2="40.00005"
       x2="144"
       y1="280.00003"
       x1="144"
       gradientTransform="matrix(0,-0.05555556,0.05714289,0,-3.1428659,15)"
       gradientUnits="userSpaceOnUse"
       id="linearGradient3869"
       xlink:href="#outerBackgroundGradient-4" />
    <linearGradient
       gradientTransform="matrix(0,-1,1,0,-1,13)"
       y2="14"
       x2="5"
       y1="1"
       x1="5"
       gradientUnits="userSpaceOnUse"
       id="linearGradient3871"
       xlink:href="#linearGradient3804" />
    <linearGradient
       y2="1012.0966"
       x2="330"
       y1="995.62781"
       x1="330"
       gradientTransform="matrix(0.5,0,0,0.5,-156.00005,-494.4311)"
       gradientUnits="userSpaceOnUse"
       id="linearGradient4540"
       xlink:href="#linearGradient4228" />
    <linearGradient
       id="linearGradient4228">
      <stop
         id="stop4230"
         offset="0"
         style="stop-color:#ffffff;stop-opacity:1;" />
      <stop
         style="stop-color:#ffffff;stop-opacity:0.85098039;"
         offset="0.22413793"
         id="stop4262" />
      <stop
         id="stop4232"
         offset="1"
         style="stop-color:#ffffff;stop-opacity:0.70253164;" />
    </linearGradient>
    <clipPath
       id="clipPath4069"
       clipPathUnits="userSpaceOnUse">
      <rect
         ry="0"
         y="124"
         x="433"
         height="16"
         width="14"
         id="rect4071"
         style="color:#bebebe;fill:url(#linearGradient4073);fill-opacity:1;fill-rule:nonzero;stroke:none;stroke-width:0;marker:none;visibility:visible;display:inline;overflow:visible;enable-background:accumulate" />
    </clipPath>
    <clipPath
       id="clipPath3186"
       clipPathUnits="userSpaceOnUse">
      <rect
         ry="0"
         y="124"
         x="433"
         height="16"
         width="14"
         id="rect3188"
         style="color:#bebebe;fill:url(#linearGradient4073);fill-opacity:1;fill-rule:nonzero;stroke:none;stroke-width:0;marker:none;visibility:visible;display:inline;overflow:visible;enable-background:accumulate" />
    </clipPath>
    <linearGradient
       gradientTransform="matrix(0,-0.06666667,0.06666667,0,873.69551,-430.4)"
       y2="40.00005"
       x2="144"
       y1="280.00003"
       x1="144"
       gradientUnits="userSpaceOnUse"
       id="linearGradient4097"
       xlink:href="#outerBackgroundGradient" />
    <linearGradient
       id="outerBackgroundGradient">
      <stop
         id="stop3864-8-6"
         offset="0"
         style="stop-color:#b79877;stop-opacity:1;" />
      <stop
         id="stop3866-9-1"
         offset="1"
         style="stop-color:#f7d2a2;stop-opacity:1;" />
    </linearGradient>
    <linearGradient
       xlink:href="#outerBackgroundGradient"
       id="linearGradient3201"
       gradientUnits="userSpaceOnUse"
       gradientTransform="matrix(0,-0.06666667,0.06666667,0,-5.66667,-19.4)"
       x1="144"
       y1="280.00003"
       x2="144"
       y2="40.00005" />
    <linearGradient
       y2="40.00005"
       x2="144"
       y1="239.54547"
       x1="143.99998"
       gradientTransform="matrix(0.06017973,0,0,0.06711209,-0.66519997,-1.162559)"
       gradientUnits="userSpaceOnUse"
       id="linearGradient3924"
       xlink:href="#linearGradient4382" />
    <linearGradient
       y2="1012.0966"
       x2="330"
       y1="995.62781"
       x1="330"
       gradientTransform="matrix(0.5,0,0,0.5,-156.00005,-491.93109)"
       gradientUnits="userSpaceOnUse"
       id="linearGradient3947"
       xlink:href="#linearGradient4228" />
    <linearGradient
       y2="0"
       x2="16"
       y1="16"
       x1="16"
       gradientUnits="userSpaceOnUse"
       id="linearGradient3050"
       xlink:href="#linearGradient3886" />
    <linearGradient
       id="linearGradient3886">
      <stop
         id="stop3888"
         offset="0"
         style="stop-color:#b040c8;stop-opacity:1;" />
      <stop
         id="stop3890"
         offset="1"
         style="stop-color:#ac29c2;stop-opacity:1;" />
    </linearGradient>
    <linearGradient
       y2="0"
       x2="8"
       y1="16"
       x1="8"
       gradientUnits="userSpaceOnUse"
       id="linearGradient3047"
       xlink:href="#linearGradient3904-5"
       gradientTransform="matrix(0,1,-1,0,15,-5)" />
    <linearGradient
       id="linearGradient3904-5">
      <stop
         style="stop-color:#5e2b66;stop-opacity:1;"
         offset="0"
         id="stop3906-7" />
      <stop
         style="stop-color:#61326a;stop-opacity:1;"
         offset="1"
         id="stop3908-4" />
    </linearGradient>
    <linearGradient
       xlink:href="#linearGradient3886"
       id="linearGradient3073"
       gradientUnits="userSpaceOnUse"
       x1="16"
       y1="16"
       x2="16"
       y2="0"
       gradientTransform="matrix(0,1,-1,0,15,-5)" />
    <linearGradient
       y2="0"
       x2="8"
       y1="16"
       x1="8"
       gradientTransform="matrix(0,1,-1,0,15,-4)"
       gradientUnits="userSpaceOnUse"
       id="linearGradient3919"
       xlink:href="#linearGradient3904-5" />
    <linearGradient
       y2="2"
       x2="5"
       y1="2"
       x1="15"
       gradientTransform="matrix(0,1,-1,0,15,-4)"
       gradientUnits="userSpaceOnUse"
       id="linearGradient3932"
       xlink:href="#linearGradient3886" />
    <linearGradient
       y2="2"
       x2="5"
       y1="2"
       x1="15"
       gradientTransform="matrix(0,1,-1,0,15,-5)"
       gradientUnits="userSpaceOnUse"
       id="linearGradient4056"
       xlink:href="#linearGradient3886" />
    <linearGradient
       gradientTransform="matrix(0.29727032,0,0,0.34627842,0.86619387,-0.33683735)"
       gradientUnits="userSpaceOnUse"
       xlink:href="#linearGradient3924-742"
       id="linearGradient3089"
       y2="43"
       x2="23.99999"
       y1="4.999989"
       x1="23.99999" />
    <linearGradient
       id="linearGradient3924-742">
      <stop
         offset="0"
         style="stop-color:#ffffff;stop-opacity:1"
         id="stop3115" />
      <stop
         offset="0.06316455"
         style="stop-color:#ffffff;stop-opacity:0.23529412"
         id="stop3117" />
      <stop
         offset="0.95056331"
         style="stop-color:#ffffff;stop-opacity:0.15686275"
         id="stop3119" />
      <stop
         offset="1"
         style="stop-color:#ffffff;stop-opacity:0.39215687"
         id="stop3121" />
    </linearGradient>
    <radialGradient
       gradientTransform="matrix(0.40120499,0,0,1.1999999,-6.0060239,-91.8)"
       gradientUnits="userSpaceOnUse"
       xlink:href="#linearGradient3818"
       id="radialGradient3994"
       fy="41.5"
       fx="5"
       r="5"
       cy="41.5"
       cx="5" />
    <linearGradient
       gradientTransform="matrix(1.744139,0,0,1.090909,-16.929666,-2.181819)"
       gradientUnits="userSpaceOnUse"
       xlink:href="#linearGradient3703"
       id="linearGradient3920"
       y2="34.999718"
       x2="17.554192"
       y1="46.000275"
       x1="17.554192" />
    <linearGradient
       id="linearGradient3703">
      <stop
         offset="0"
         style="stop-color:#000000;stop-opacity:0"
         id="stop3705" />
      <stop
         offset="0.5"
         style="stop-color:#000000;stop-opacity:1"
         id="stop3711" />
      <stop
         offset="1"
         style="stop-color:#000000;stop-opacity:0"
         id="stop3707" />
    </linearGradient>
    <radialGradient
       gradientTransform="matrix(0.40120499,0,0,1.1999999,41.993979,-91.8)"
       gradientUnits="userSpaceOnUse"
       xlink:href="#linearGradient3818"
       id="radialGradient3917"
       fy="41.5"
       fx="5"
       r="5"
       cy="41.5"
       cx="5" />
    <linearGradient
       gradientTransform="matrix(1.2822251,0,0,1.5572619,-6.0701918,-15.290756)"
       gradientUnits="userSpaceOnUse"
       xlink:href="#linearGradient3199"
       id="linearGradient3406"
       y2="37.27668"
       x2="24.996943"
       y1="15.377745"
       x1="24.822832" />
    <linearGradient
       id="linearGradient3199">
      <stop
         offset="0"
         style="stop-color:#dac196;stop-opacity:1"
         id="stop3201" />
      <stop
         offset="0.23942046"
         style="stop-color:#c7ae8e;stop-opacity:1"
         id="stop3203" />
      <stop
         offset="0.27582464"
         style="stop-color:#dac197;stop-opacity:1"
         id="stop3205" />
      <stop
         offset="1"
         style="stop-color:#b19974;stop-opacity:1"
         id="stop3207" />
    </linearGradient>
    <linearGradient
       gradientUnits="userSpaceOnUse"
       xlink:href="#linearGradient3295"
       id="linearGradient3408"
       y2="45.04248"
       x2="15.464298"
       y1="7.9756851"
       x1="15.464298" />
    <linearGradient
       id="linearGradient3295">
      <stop
         offset="0"
         style="stop-color:#c9af8b;stop-opacity:1"
         id="stop3297" />
      <stop
         offset="0.23942046"
         style="stop-color:#ad8757;stop-opacity:1"
         id="stop3299" />
      <stop
         offset="0.27582464"
         style="stop-color:#c2a57f;stop-opacity:1"
         id="stop3301" />
      <stop
         offset="1"
         style="stop-color:#9d7d53;stop-opacity:1"
         id="stop3303" />
    </linearGradient>
    <linearGradient
       gradientTransform="matrix(1.2822251,0,0,1.1746872,-6.0701918,-5.303168)"
       gradientUnits="userSpaceOnUse"
       xlink:href="#linearGradient3804"
       id="linearGradient3400"
       y2="45.934479"
       x2="43.00663"
       y1="30.554907"
       x1="23.451576" />
    <linearGradient
       gradientUnits="userSpaceOnUse"
       xlink:href="#linearGradient3827-1"
       id="linearGradient3397"
       y2="8"
       x2="26"
       y1="22"
       x1="26" />
    <linearGradient
       id="linearGradient3827-1">
      <stop
         offset="0"
         style="stop-color:#ffffff;stop-opacity:1"
         id="stop3829" />
      <stop
         offset="0.3021296"
         style="stop-color:#ffffff;stop-opacity:1"
         id="stop4295" />
      <stop
         offset="0.34361121"
         style="stop-color:#ffffff;stop-opacity:0.64347827"
         id="stop4293" />
      <stop
         offset="1"
         style="stop-color:#ffffff;stop-opacity:0.39130434"
         id="stop3832" />
    </linearGradient>
    <linearGradient
       gradientTransform="matrix(1.0540541,0,0,0.7027027,-1.2972909,13.635141)"
       gradientUnits="userSpaceOnUse"
       xlink:href="#linearGradient3977"
       id="linearGradient3033"
       y2="43"
       x2="23.99999"
       y1="5.5641499"
       x1="23.99999" />
    <linearGradient
       id="linearGradient3977">
      <stop
         offset="0"
         style="stop-color:#ffffff;stop-opacity:1"
         id="stop3979" />
      <stop
         offset="0.03626217"
         style="stop-color:#ffffff;stop-opacity:0.23529412"
         id="stop3981" />
      <stop
         offset="0.95056331"
         style="stop-color:#ffffff;stop-opacity:0.15686275"
         id="stop3983" />
      <stop
         offset="1"
         style="stop-color:#ffffff;stop-opacity:0.39215687"
         id="stop3985" />
    </linearGradient>
    <linearGradient
       gradientTransform="matrix(1.0540541,0,0,0.21621621,-1.2972909,8.310813)"
       gradientUnits="userSpaceOnUse"
       xlink:href="#linearGradient3878"
       id="linearGradient3855"
       y2="43"
       x2="23.99999"
       y1="7.3472824"
       x1="23.99999" />
    <linearGradient
       id="linearGradient3878">
      <stop
         offset="0"
         style="stop-color:#ffffff;stop-opacity:1"
         id="stop3880" />
      <stop
         offset="0.08389385"
         style="stop-color:#ffffff;stop-opacity:0.23529412"
         id="stop3882" />
      <stop
         offset="0.95056331"
         style="stop-color:#ffffff;stop-opacity:0.15686275"
         id="stop3884" />
      <stop
         offset="1"
         style="stop-color:#ffffff;stop-opacity:0.39215687"
         id="stop3886" />
    </linearGradient>
    <linearGradient
       y2="43"
       x2="23.99999"
       y1="4.999989"
       x1="23.99999"
       gradientTransform="matrix(0.29727032,0,0,0.34627842,-0.13371541,-7.8106793)"
       gradientUnits="userSpaceOnUse"
       id="linearGradient4419"
       xlink:href="#linearGradient3924-742" />
    <linearGradient
       y2="64.545563"
       x2="143.99998"
       y1="207.72729"
       x1="143.99998"
       gradientTransform="matrix(0.06017973,0,0,0.06711209,-1.6651093,-8.6364)"
       gradientUnits="userSpaceOnUse"
       id="linearGradient4421"
       xlink:href="#linearGradient4382" />
    <linearGradient
       y2="43"
       x2="23.99999"
       y1="4.999989"
       x1="23.99999"
       gradientTransform="matrix(0.29729729,0,0,0.32432436,1.864866,-9.2837819)"
       gradientUnits="userSpaceOnUse"
       id="linearGradient4453"
       xlink:href="#linearGradient3924-742" />
    <linearGradient
       x1="24.103895"
       y1="15.168831"
       x2="24.103895"
       y2="32.485161"
       id="linearGradient2536"
       xlink:href="#linearGradient3945"
       gradientUnits="userSpaceOnUse"
       gradientTransform="matrix(0.3280315,0,0,0.3257096,24.444958,-10.722212)" />
    <linearGradient
       id="linearGradient3945">
      <stop
         id="stop3947"
         style="stop-color:#ecf5b6;stop-opacity:1"
         offset="0" />
      <stop
         id="stop3949"
         style="stop-color:#9fba48;stop-opacity:1"
         offset="1" />
    </linearGradient>
    <linearGradient
       x1="18.03083"
       y1="16.407909"
       x2="20.054544"
       y2="24.627615"
       id="linearGradient2929"
       xlink:href="#linearGradient8265-821-176-38-919-66-249"
       gradientUnits="userSpaceOnUse"
       gradientTransform="matrix(0.2966887,0,0,0.3520695,1.8805021,2.118629)" />
    <linearGradient
       id="linearGradient8265-821-176-38-919-66-249">
      <stop
         id="stop2687"
         style="stop-color:#ffffff;stop-opacity:0.2"
         offset="0" />
      <stop
         id="stop2689"
         style="stop-color:#ffffff;stop-opacity:0"
         offset="1" />
    </linearGradient>
    <linearGradient
       x1="126.69791"
       y1="58.583481"
       x2="169.22964"
       y2="238.3999"
       id="linearGradient2932"
       xlink:href="#linearGradient2610"
       gradientUnits="userSpaceOnUse"
       gradientTransform="matrix(0.05489342,0.01385132,0.00257263,0.05248166,-0.71280094,-0.2674109)" />
    <linearGradient
       id="linearGradient2610">
      <stop
         id="stop2612"
         style="stop-color:#f0c178;stop-opacity:1"
         offset="0" />
      <stop
         id="stop2614"
         style="stop-color:#e18941;stop-opacity:1"
         offset="0.5" />
      <stop
         id="stop2616"
         style="stop-color:#ec4f18;stop-opacity:1"
         offset="1" />
    </linearGradient>
    <linearGradient
       x1="10.318256"
       y1="14.992862"
       x2="4.1760364"
       y2="4.0514131"
       id="linearGradient2934"
       xlink:href="#linearGradient2603"
       gradientUnits="userSpaceOnUse"
       gradientTransform="matrix(1.0083043,0,0,1.0006232,-8.2398292e-4,-0.0066209)" />
    <linearGradient
       id="linearGradient2603">
      <stop
         id="stop2605"
         style="stop-color:#bb2b12;stop-opacity:1"
         offset="0" />
      <stop
         id="stop2607"
         style="stop-color:#cd7233;stop-opacity:1"
         offset="1" />
    </linearGradient>
    <linearGradient
       x1="302.85715"
       y1="366.64789"
       x2="302.85715"
       y2="609.50507"
       id="linearGradient2915"
       xlink:href="#linearGradient3703"
       gradientUnits="userSpaceOnUse"
       gradientTransform="matrix(2.774389,0,0,1.969706,-1892.179,-872.8854)" />
    <radialGradient
       cx="605.71429"
       cy="486.64789"
       r="117.14286"
       fx="605.71429"
       fy="486.64789"
       id="radialGradient2917"
       xlink:href="#linearGradient5060"
       gradientUnits="userSpaceOnUse"
       gradientTransform="matrix(2.774389,0,0,1.969706,-1891.633,-872.8854)" />
    <linearGradient
       id="linearGradient5060">
      <stop
         id="stop5062"
         style="stop-color:#000000;stop-opacity:1"
         offset="0" />
      <stop
         id="stop5064"
         style="stop-color:#000000;stop-opacity:0"
         offset="1" />
    </linearGradient>
    <radialGradient
       cx="605.71429"
       cy="486.64789"
       r="117.14286"
       fx="605.71429"
       fy="486.64789"
       id="radialGradient2919"
       xlink:href="#linearGradient5060"
       gradientUnits="userSpaceOnUse"
       gradientTransform="matrix(-2.774389,0,0,1.969706,112.7623,-872.8854)" />
    <clipPath
       clipPathUnits="userSpaceOnUse"
       id="clipPath983">
      <path
         sodipodi:nodetypes="scccssscsss"
         inkscape:connector-curvature="0"
         id="path985"
         d="m 325.09646,237 c -2.80769,0 -3.10979,0.28839 -3.09603,3.10176 V 244 v 3.89824 c -0.0138,2.81337 0.28834,3.10176 3.09603,3.10176 h 5.8075 C 333.71166,251 334,250.71165 334,247.89824 V 244 240.10176 C 334,237.28836 333.71165,237 330.90396,237 Z"
         style="color:#000000;display:inline;overflow:visible;visibility:visible;opacity:1;fill:#46a926;fill-opacity:1;fill-rule:nonzero;stroke:none;stroke-width:2;stroke-miterlimit:4;stroke-dasharray:none;stroke-opacity:1;marker:none;enable-background:accumulate" />
    </clipPath>
    <clipPath
       clipPathUnits="userSpaceOnUse"
       id="clipPath983-3">
      <path
         sodipodi:nodetypes="scccssscsss"
         inkscape:connector-curvature="0"
         id="path985-6"
         d="m 325.09646,237 c -2.80769,0 -3.10979,0.28839 -3.09603,3.10176 V 244 v 3.89824 c -0.0138,2.81337 0.28834,3.10176 3.09603,3.10176 h 5.8075 C 333.71166,251 334,250.71165 334,247.89824 V 244 240.10176 C 334,237.28836 333.71165,237 330.90396,237 Z"
         style="color:#000000;display:inline;overflow:visible;visibility:visible;opacity:1;fill:#46a926;fill-opacity:1;fill-rule:nonzero;stroke:none;stroke-width:2;stroke-miterlimit:4;stroke-dasharray:none;stroke-opacity:1;marker:none;enable-background:accumulate" />
    </clipPath>
    <clipPath
       clipPathUnits="userSpaceOnUse"
       id="clipPath1237">
      <path
         style="opacity:1;fill:url(#linearGradient1241);fill-opacity:1;stroke:none;stroke-width:2;stroke-linecap:round;stroke-linejoin:round;stroke-miterlimit:4;stroke-dasharray:none;stroke-dashoffset:0;stroke-opacity:1"
         d="M 351.93164,62.5 C 365.55326,62.5 367.5,64.44187 367.5,78.05078 V 89.94922 C 367.5,103.55808 365.55326,105.5 351.93164,105.5 H 336.06836 C 322.44674,105.5 320.5,103.55808 320.5,89.94922 V 78.05078 C 320.5,64.44187 322.44674,62.5 336.06836,62.5 Z"
         id="path1239"
         inkscape:connector-curvature="0"
         sodipodi:nodetypes="sssssssss" />
    </clipPath>
    <clipPath
       id="clipPath1025"
       clipPathUnits="userSpaceOnUse">
      <path
         d="M 111.94141,84 C 99.359506,84.145 90.1531,83.713998 82.625,87.867188 c -3.7641,2.0768 -6.751838,5.574737 -8.398438,9.960937 C 72.580062,102.21433 72,107.4241 72,114 v 42 h 160 v -26 c 0,-6.5759 -0.57996,-11.78566 -2.22656,-16.17188 -0.205,-0.5455 -0.47919,-1.03993 -0.74219,-1.54296 -0.1,-0.1848 -0.17844,-0.38051 -0.27344,-0.56641 -1.727,-3.38752 -4.25471,-6.14522 -7.38281,-7.87109 C 213.8463,99.694146 204.64049,100.1454 192.05859,100 H 192 151.66797 L 135.45312,84 h -23.49218 z"
         style="fill:#e3dfd5"
         id="path2-3" />
    </clipPath>
    <clipPath
       id="clipPath1082-3"
       clipPathUnits="userSpaceOnUse">
      <path
         d="M 361.9375,-212 C 507.2348,-212 528,-191.28677 528,-46.125 V 70.125 C 528,215.28618 507.2348,236 361.9375,236 H 214.0625 C 68.7652,236 48,215.28618 48,70.125 V -46.125 C 48,-191.28677 68.7652,-212 214.0625,-212 Z"
         style="fill:#8c59d9"
         id="path5" />
    </clipPath>
    <clipPath
       id="clipPath1082-3-5"
       clipPathUnits="userSpaceOnUse">
      <path
         d="M 361.9375,-212 C 507.2348,-212 528,-191.28677 528,-46.125 V 70.125 C 528,215.28618 507.2348,236 361.9375,236 H 214.0625 C 68.7652,236 48,215.28618 48,70.125 V -46.125 C 48,-191.28677 68.7652,-212 214.0625,-212 Z"
         style="fill:#8c59d9"
         id="path8" />
    </clipPath>
    <clipPath
       id="clipPath1082-3-9"
       clipPathUnits="userSpaceOnUse">
      <path
         d="M 361.9375,-212 C 507.2348,-212 528,-191.28677 528,-46.125 V 70.125 C 528,215.28618 507.2348,236 361.9375,236 H 214.0625 C 68.7652,236 48,215.28618 48,70.125 V -46.125 C 48,-191.28677 68.7652,-212 214.0625,-212 Z"
         style="fill:#8c59d9"
         id="path11" />
    </clipPath>
    <clipPath
       id="clipPath1082-3-3"
       clipPathUnits="userSpaceOnUse">
      <path
         d="M 361.9375,-212 C 507.2348,-212 528,-191.28677 528,-46.125 V 70.125 C 528,215.28618 507.2348,236 361.9375,236 H 214.0625 C 68.7652,236 48,215.28618 48,70.125 V -46.125 C 48,-191.28677 68.7652,-212 214.0625,-212 Z"
         style="fill:#8c59d9"
         id="path14" />
    </clipPath>
    <clipPath
       id="clipPath1082-3-53"
       clipPathUnits="userSpaceOnUse">
      <path
         d="M 361.9375,-212 C 507.2348,-212 528,-191.28677 528,-46.125 V 70.125 C 528,215.28618 507.2348,236 361.9375,236 H 214.0625 C 68.7652,236 48,215.28618 48,70.125 V -46.125 C 48,-191.28677 68.7652,-212 214.0625,-212 Z"
         style="fill:#8c59d9"
         id="path17" />
    </clipPath>
    <clipPath
       id="clipPath1082-3-6"
       clipPathUnits="userSpaceOnUse">
      <path
         d="M 361.9375,-212 C 507.2348,-212 528,-191.28677 528,-46.125 V 70.125 C 528,215.28618 507.2348,236 361.9375,236 H 214.0625 C 68.7652,236 48,215.28618 48,70.125 V -46.125 C 48,-191.28677 68.7652,-212 214.0625,-212 Z"
         style="fill:#8c59d9"
         id="path20" />
    </clipPath>
    <clipPath
       id="clipPath1082-3-91"
       clipPathUnits="userSpaceOnUse">
      <path
         d="M 361.9375,-212 C 507.2348,-212 528,-191.28677 528,-46.125 V 70.125 C 528,215.28618 507.2348,236 361.9375,236 H 214.0625 C 68.7652,236 48,215.28618 48,70.125 V -46.125 C 48,-191.28677 68.7652,-212 214.0625,-212 Z"
         style="fill:#8c59d9"
         id="path23" />
    </clipPath>
    <clipPath
       id="clipPath1025-0"
       clipPathUnits="userSpaceOnUse">
      <path
         style="fill:#8c59d9"
         d="M 329.9375,32 C 475.2348,32 496,52.71323 496,197.875 v 116.25 C 496,459.28618 475.2348,480 329.9375,480 H 182.0625 C 36.7652,480 16,459.28618 16,314.125 V 197.875 C 16,52.71323 36.7652,32 182.0625,32 Z"
         id="path26" />
    </clipPath>
    <clipPath
       id="clipPath4277-8"
       clipPathUnits="userSpaceOnUse">
      <rect
         style="opacity:0.81999972;fill:#88b637"
         width="512"
         height="512"
         x="0"
         y="0"
         ry="1"
         id="rect29" />
    </clipPath>
    <linearGradient
       id="linearGradient3650-7-9">
      <stop
         style="stop-color:#5884f4"
         id="stop4366"
         offset="0" />
      <stop
         id="stop4368"
         offset="1"
         style="stop-color:#80a3fa" />
    </linearGradient>
    <clipPath
       id="clipPath1082-3-36"
       clipPathUnits="userSpaceOnUse">
      <path
         d="M 361.9375,-212 C 507.2348,-212 528,-191.28677 528,-46.125 V 70.125 C 528,215.28618 507.2348,236 361.9375,236 H 214.0625 C 68.7652,236 48,215.28618 48,70.125 V -46.125 C 48,-191.28677 68.7652,-212 214.0625,-212 Z"
         style="fill:#8c59d9"
         id="path35" />
    </clipPath>
    <clipPath
       id="clipPath983-6"
       clipPathUnits="userSpaceOnUse">
      <path
         d="M 115.03125,44 C 42.3826,44 32,54.356615 32,126.9375 v 58.125 C 32,257.64309 42.3826,268 115.03125,268 H 152 V 44 Z"
         style="fill:#4d4d4d"
         id="path38" />
    </clipPath>
    <clipPath
       id="clipPath1082-3-62"
       clipPathUnits="userSpaceOnUse">
      <path
         d="M 361.9375,-212 C 507.2348,-212 528,-191.28677 528,-46.125 V 70.125 C 528,215.28618 507.2348,236 361.9375,236 H 214.0625 C 68.7652,236 48,215.28618 48,70.125 V -46.125 C 48,-191.28677 68.7652,-212 214.0625,-212 Z"
         style="fill:#8c59d9"
         id="path41" />
    </clipPath>
    <clipPath
       id="clipPath949"
       clipPathUnits="userSpaceOnUse">
      <path
         d="M 329.9375,32 C 475.2348,32 496,52.71323 496,197.875 v 116.25 C 496,459.28618 475.2348,480 329.9375,480 H 182.0625 C 36.7652,480 16,459.28618 16,314.125 V 197.875 C 16,52.71323 36.7652,32 182.0625,32 Z"
         style="fill:#eab305"
         id="path44" />
    </clipPath>
    <clipPath
       id="clipPath954"
       clipPathUnits="userSpaceOnUse">
      <path
         d="M 329.9375,32 C 475.2348,32 496,52.71323 496,197.875 v 116.25 C 496,459.28618 475.2348,480 329.9375,480 H 182.0625 C 36.7652,480 16,459.28618 16,314.125 V 197.875 C 16,52.71323 36.7652,32 182.0625,32 Z"
         style="fill:#eab305"
         id="path47" />
    </clipPath>
    <clipPath
       id="clipPath1082-3-8"
       clipPathUnits="userSpaceOnUse">
      <path
         d="M 361.9375,-212 C 507.2348,-212 528,-191.28677 528,-46.125 V 70.125 C 528,215.28618 507.2348,236 361.9375,236 H 214.0625 C 68.7652,236 48,215.28618 48,70.125 V -46.125 C 48,-191.28677 68.7652,-212 214.0625,-212 Z"
         style="fill:#8c59d9"
         id="path50" />
    </clipPath>
    <clipPath
       id="clipPath1082-3-92"
       clipPathUnits="userSpaceOnUse">
      <path
         d="M 361.9375,-212 C 507.2348,-212 528,-191.28677 528,-46.125 V 70.125 C 528,215.28618 507.2348,236 361.9375,236 H 214.0625 C 68.7652,236 48,215.28618 48,70.125 V -46.125 C 48,-191.28677 68.7652,-212 214.0625,-212 Z"
         style="fill:#8c59d9"
         id="path53" />
    </clipPath>
    <clipPath
       id="clipPath1082"
       clipPathUnits="userSpaceOnUse">
      <path
         d="M 361.9375,-212 C 507.2348,-212 528,-191.28677 528,-46.125 V 70.125 C 528,215.28618 507.2348,236 361.9375,236 H 214.0625 C 68.7652,236 48,215.28618 48,70.125 V -46.125 C 48,-191.28677 68.7652,-212 214.0625,-212 Z"
         style="fill:#8c59d9"
         id="path56" />
    </clipPath>
    <clipPath
       id="clipPath1082-3-361"
       clipPathUnits="userSpaceOnUse">
      <path
         d="M 361.9375,-212 C 507.2348,-212 528,-191.28677 528,-46.125 V 70.125 C 528,215.28618 507.2348,236 361.9375,236 H 214.0625 C 68.7652,236 48,215.28618 48,70.125 V -46.125 C 48,-191.28677 68.7652,-212 214.0625,-212 Z"
         style="fill:#8c59d9"
         id="path59" />
    </clipPath>
    <clipPath
       id="clipPath1079"
       clipPathUnits="userSpaceOnUse">
      <circle
         style="fill:url(#linearGradient1083)"
         cx="213.843"
         cy="146"
         r="55"
         transform="scale(-1,1)"
         id="circle62" />
    </clipPath>
    <clipPath
       id="clipPath984"
       clipPathUnits="userSpaceOnUse">
      <circle
         style="fill:url(#linearGradient1083)"
         cx="213.843"
         cy="146"
         r="55"
         transform="scale(-1,1)"
         id="circle65" />
    </clipPath>
    <clipPath
       id="clipPath988"
       clipPathUnits="userSpaceOnUse">
      <circle
         style="fill:url(#linearGradient1083)"
         cx="213.843"
         cy="146"
         r="55"
         transform="scale(-1,1)"
         id="circle68" />
    </clipPath>
    <clipPath
       id="clipPath992"
       clipPathUnits="userSpaceOnUse">
      <circle
         style="fill:url(#linearGradient1083)"
         cx="213.843"
         cy="146"
         r="55"
         transform="scale(-1,1)"
         id="circle71" />
    </clipPath>
    <clipPath
       id="clipPath1082-3-31"
       clipPathUnits="userSpaceOnUse">
      <path
         d="M 361.9375,-212 C 507.2348,-212 528,-191.28677 528,-46.125 V 70.125 C 528,215.28618 507.2348,236 361.9375,236 H 214.0625 C 68.7652,236 48,215.28618 48,70.125 V -46.125 C 48,-191.28677 68.7652,-212 214.0625,-212 Z"
         style="fill:#8c59d9"
         id="path74" />
    </clipPath>
    <clipPath
       id="clipPath1205"
       clipPathUnits="userSpaceOnUse">
      <path
         d="M 115.03125,44 C 42.3826,44 32,54.356615 32,126.9375 v 58.125 c 0,13.772 0.379014,25.29352 1.482422,34.9375 H 270.51758 C 271.62099,210.35602 272,198.8345 272,185.0625 v -58.125 C 272,54.356615 261.6174,44 188.96875,44 Z"
         style="fill:#f1f0e9"
         id="path77" />
    </clipPath>
    <clipPath
       id="clipPath1082-3-4"
       clipPathUnits="userSpaceOnUse">
      <path
         d="M 361.9375,-212 C 507.2348,-212 528,-191.28677 528,-46.125 V 70.125 C 528,215.28618 507.2348,236 361.9375,236 H 214.0625 C 68.7652,236 48,215.28618 48,70.125 V -46.125 C 48,-191.28677 68.7652,-212 214.0625,-212 Z"
         style="fill:#8c59d9"
         id="path80" />
    </clipPath>
    <clipPath
       id="clipPath1082-3-45"
       clipPathUnits="userSpaceOnUse">
      <path
         d="M 361.9375,-212 C 507.2348,-212 528,-191.28677 528,-46.125 V 70.125 C 528,215.28618 507.2348,236 361.9375,236 H 214.0625 C 68.7652,236 48,215.28618 48,70.125 V -46.125 C 48,-191.28677 68.7652,-212 214.0625,-212 Z"
         style="fill:#8c59d9"
         id="path83" />
    </clipPath>
    <clipPath
       id="clipPath1082-3-61"
       clipPathUnits="userSpaceOnUse">
      <path
         d="M 361.9375,-212 C 507.2348,-212 528,-191.28677 528,-46.125 V 70.125 C 528,215.28618 507.2348,236 361.9375,236 H 214.0625 C 68.7652,236 48,215.28618 48,70.125 V -46.125 C 48,-191.28677 68.7652,-212 214.0625,-212 Z"
         style="fill:#8c59d9"
         id="path86" />
    </clipPath>
    <clipPath
       id="clipPath1064"
       clipPathUnits="userSpaceOnUse">
      <path
         style="fill:#a3dbf0"
         d="M 115.03125,44 C 42.3826,44 32,54.356615 32,126.9375 v 58.125 c 0,10.16582 0.217657,19.07051 0.767578,26.9375 3.376331,48.30069 19.790377,56 82.263672,56 h 73.9375 c 62.4733,0 78.88734,-7.69931 82.26367,-56 C 271.78234,204.13301 272,195.22832 272,185.0625 v -58.125 C 272,54.356615 261.6174,44 188.96875,44 Z"
         id="path89" />
    </clipPath>
    <clipPath
       id="clipPath1082-3-32"
       clipPathUnits="userSpaceOnUse">
      <path
         d="M 361.9375,-212 C 507.2348,-212 528,-191.28677 528,-46.125 V 70.125 C 528,215.28618 507.2348,236 361.9375,236 H 214.0625 C 68.7652,236 48,215.28618 48,70.125 V -46.125 C 48,-191.28677 68.7652,-212 214.0625,-212 Z"
         style="fill:#8c59d9"
         id="path92" />
    </clipPath>
    <clipPath
       id="clipPath947"
       clipPathUnits="userSpaceOnUse">
      <path
         d="m 191.43333,45.066672 c 77.49189,0 88.56666,11.047056 88.56666,88.466668 v 62 C 279.99999,272.95263 268.92522,284 191.43333,284 H 112.56666 C 35.074773,284 23.999999,272.95263 23.999999,195.53334 v -62 c 0,-77.419612 11.074774,-88.466668 88.566661,-88.466668 z"
         style="fill:#a4c1f9"
         id="path95" />
    </clipPath>
    <clipPath
       id="clipPath1082-3-55"
       clipPathUnits="userSpaceOnUse">
      <path
         d="M 361.9375,-212 C 507.2348,-212 528,-191.28677 528,-46.125 V 70.125 C 528,215.28618 507.2348,236 361.9375,236 H 214.0625 C 68.7652,236 48,215.28618 48,70.125 V -46.125 C 48,-191.28677 68.7652,-212 214.0625,-212 Z"
         style="fill:#8c59d9"
         id="path98" />
    </clipPath>
    <clipPath
       id="clipPath991"
       clipPathUnits="userSpaceOnUse">
      <path
         d="M 188.96875,44 C 261.6174,44 272,54.356615 272,126.9375 v 58.125 C 272,257.64309 261.6174,268 188.96875,268 h -73.9375 C 42.3826,268 32,257.64309 32,185.0625 v -58.125 C 32,54.356615 42.3826,44 115.03125,44 Z"
         style="fill:#6dc7f1"
         id="path101" />
    </clipPath>
    <clipPath
       id="clipPath978"
       clipPathUnits="userSpaceOnUse">
      <path
         d="M 188.96875,44 C 261.6174,44 272,54.356615 272,126.9375 v 58.125 C 272,257.64309 261.6174,268 188.96875,268 h -73.9375 C 42.3826,268 32,257.64309 32,185.0625 v -58.125 C 32,54.356615 42.3826,44 115.03125,44 Z"
         style="fill:#6dc7f1"
         id="path104" />
    </clipPath>
    <clipPath
       id="clipPath942"
       clipPathUnits="userSpaceOnUse">
      <path
         d="M 188.96875,44 C 261.6174,44 272,54.356615 272,126.9375 v 58.125 C 272,257.64309 261.6174,268 188.96875,268 h -73.9375 C 42.3826,268 32,257.64309 32,185.0625 v -58.125 C 32,54.356615 42.3826,44 115.03125,44 Z"
         style="fill:#46a926"
         id="path107" />
    </clipPath>
    <clipPath
       id="clipPath1082-3-7"
       clipPathUnits="userSpaceOnUse">
      <path
         d="M 361.9375,-212 C 507.2348,-212 528,-191.28677 528,-46.125 V 70.125 C 528,215.28618 507.2348,236 361.9375,236 H 214.0625 C 68.7652,236 48,215.28618 48,70.125 V -46.125 C 48,-191.28677 68.7652,-212 214.0625,-212 Z"
         style="fill:#8c59d9"
         id="path110" />
    </clipPath>
    <radialGradient
       id="radialGradient3322"
       cx="26.617"
       cy="-2.065"
       r="23"
       gradientTransform="matrix(-4.8906e-8,-2.8515,3.7557,0,674.00149,398.26285)"
       gradientUnits="userSpaceOnUse">
      <stop
         id="stop2749"
         offset="0"
         style="stop-color:#d280b9" />
      <stop
         style="stop-color:#b549b5"
         id="stop4269-7"
         offset=".529" />
      <stop
         id="stop2755"
         offset="1"
         style="stop-color:#8940a8" />
    </radialGradient>
    <clipPath
       id="clipPath1082-3-69"
       clipPathUnits="userSpaceOnUse">
      <path
         d="M 361.9375,-212 C 507.2348,-212 528,-191.28677 528,-46.125 V 70.125 C 528,215.28618 507.2348,236 361.9375,236 H 214.0625 C 68.7652,236 48,215.28618 48,70.125 V -46.125 C 48,-191.28677 68.7652,-212 214.0625,-212 Z"
         style="fill:#8c59d9"
         id="path117" />
    </clipPath>
    <clipPath
       id="clipPath1082-3-452"
       clipPathUnits="userSpaceOnUse">
      <path
         d="M 361.9375,-212 C 507.2348,-212 528,-191.28677 528,-46.125 V 70.125 C 528,215.28618 507.2348,236 361.9375,236 H 214.0625 C 68.7652,236 48,215.28618 48,70.125 V -46.125 C 48,-191.28677 68.7652,-212 214.0625,-212 Z"
         style="fill:#8c59d9"
         id="path120" />
    </clipPath>
    <clipPath
       id="clipPath1082-3-74"
       clipPathUnits="userSpaceOnUse">
      <path
         d="M 361.9375,-212 C 507.2348,-212 528,-191.28677 528,-46.125 V 70.125 C 528,215.28618 507.2348,236 361.9375,236 H 214.0625 C 68.7652,236 48,215.28618 48,70.125 V -46.125 C 48,-191.28677 68.7652,-212 214.0625,-212 Z"
         style="fill:#8c59d9"
         id="path123" />
    </clipPath>
    <clipPath
       id="clipPath1032"
       clipPathUnits="userSpaceOnUse">
      <path
         d="M 188.96875,44 C 261.6174,44 272,54.356615 272,126.9375 v 58.125 C 272,257.64309 261.6174,268 188.96875,268 h -73.9375 C 42.3826,268 32,257.64309 32,185.0625 v -58.125 C 32,54.356615 42.3826,44 115.03125,44 Z"
         style="fill:#76c22b"
         id="path126" />
    </clipPath>
    <clipPath
       id="clipPath1082-3-0"
       clipPathUnits="userSpaceOnUse">
      <path
         d="M 361.9375,-212 C 507.2348,-212 528,-191.28677 528,-46.125 V 70.125 C 528,215.28618 507.2348,236 361.9375,236 H 214.0625 C 68.7652,236 48,215.28618 48,70.125 V -46.125 C 48,-191.28677 68.7652,-212 214.0625,-212 Z"
         style="fill:#8c59d9"
         id="path129" />
    </clipPath>
    <clipPath
       id="clipPath1082-3-89"
       clipPathUnits="userSpaceOnUse">
      <path
         d="M 361.9375,-212 C 507.2348,-212 528,-191.28677 528,-46.125 V 70.125 C 528,215.28618 507.2348,236 361.9375,236 H 214.0625 C 68.7652,236 48,215.28618 48,70.125 V -46.125 C 48,-191.28677 68.7652,-212 214.0625,-212 Z"
         style="fill:#8c59d9"
         id="path132" />
    </clipPath>
    <clipPath
       id="clipPath951"
       clipPathUnits="userSpaceOnUse">
      <path
         style="fill:#8c59d9"
         d="M 188.96875,44 C 261.6174,44 272,54.356615 272,126.9375 v 58.125 C 272,257.64309 261.6174,268 188.96875,268 h -73.9375 C 42.3826,268 32,257.64309 32,185.0625 v -58.125 C 32,54.356615 42.3826,44 115.03125,44 Z"
         id="path135" />
    </clipPath>
    <clipPath
       id="clipPath1082-3-64"
       clipPathUnits="userSpaceOnUse">
      <path
         d="M 361.9375,-212 C 507.2348,-212 528,-191.28677 528,-46.125 V 70.125 C 528,215.28618 507.2348,236 361.9375,236 H 214.0625 C 68.7652,236 48,215.28618 48,70.125 V -46.125 C 48,-191.28677 68.7652,-212 214.0625,-212 Z"
         style="fill:#8c59d9"
         id="path138" />
    </clipPath>
    <clipPath
       id="clipPath1082-3-04"
       clipPathUnits="userSpaceOnUse">
      <path
         d="M 361.9375,-212 C 507.2348,-212 528,-191.28677 528,-46.125 V 70.125 C 528,215.28618 507.2348,236 361.9375,236 H 214.0625 C 68.7652,236 48,215.28618 48,70.125 V -46.125 C 48,-191.28677 68.7652,-212 214.0625,-212 Z"
         style="fill:#8c59d9"
         id="path141" />
    </clipPath>
    <clipPath
       id="clipPath1082-3-367"
       clipPathUnits="userSpaceOnUse">
      <path
         d="M 361.9375,-212 C 507.2348,-212 528,-191.28677 528,-46.125 V 70.125 C 528,215.28618 507.2348,236 361.9375,236 H 214.0625 C 68.7652,236 48,215.28618 48,70.125 V -46.125 C 48,-191.28677 68.7652,-212 214.0625,-212 Z"
         style="fill:#8c59d9"
         id="path144" />
    </clipPath>
    <linearGradient
       id="linearGradient4336-3">
      <stop
         style="stop-color:#5884f4"
         id="stop4338-8"
         offset="0" />
      <stop
         id="stop4344-3"
         offset=".278"
         style="stop-color:#5884f4" />
      <stop
         style="stop-color:#2f5fdd"
         id="stop4346-3"
         offset=".278" />
      <stop
         id="stop4350-1"
         offset=".707"
         style="stop-color:#2f5fdd" />
      <stop
         id="stop4348-6"
         offset=".709"
         style="stop-color:#234db8" />
      <stop
         style="stop-color:#234db8"
         id="stop4340-0"
         offset="1" />
    </linearGradient>
    <clipPath
       id="clipPath1082-3-56"
       clipPathUnits="userSpaceOnUse">
      <path
         d="M 361.9375,-212 C 507.2348,-212 528,-191.28677 528,-46.125 V 70.125 C 528,215.28618 507.2348,236 361.9375,236 H 214.0625 C 68.7652,236 48,215.28618 48,70.125 V -46.125 C 48,-191.28677 68.7652,-212 214.0625,-212 Z"
         style="fill:#8c59d9"
         id="path154" />
    </clipPath>
    <linearGradient
       id="linearGradient3797-5">
      <stop
         id="stop3801"
         offset="0"
         style="stop-color:#f7f7f7" />
      <stop
         id="stop3799"
         offset="1"
         style="stop-color:#e6e6e6" />
    </linearGradient>
    <clipPath
       id="clipPath1082-3-3675"
       clipPathUnits="userSpaceOnUse">
      <path
         d="M 361.9375,-212 C 507.2348,-212 528,-191.28677 528,-46.125 V 70.125 C 528,215.28618 507.2348,236 361.9375,236 H 214.0625 C 68.7652,236 48,215.28618 48,70.125 V -46.125 C 48,-191.28677 68.7652,-212 214.0625,-212 Z"
         style="fill:#8c59d9"
         id="path160" />
    </clipPath>
    <clipPath
       id="clipPath977"
       clipPathUnits="userSpaceOnUse">
      <path
         d="M 78.994141,52 C 43.625611,52 40,53.999146 40,89.296875 V 140 H 264 V 108.92188 C 264,73.624145 260.37439,68 225.00586,68 H 138 L 122,52 Z"
         style="fill:#f6531e"
         id="path163" />
    </clipPath>
    <clipPath
       id="clipPath942-3"
       clipPathUnits="userSpaceOnUse">
      <path
         d="m 39.998047,108 v 113.08203 c 0,35.29672 3.623657,38.91992 38.992187,38.91992 h 73.007816 73.00586 c 35.36853,0 38.99414,-3.6232 38.99414,-38.91992 V 108 Z"
         style="fill:url(#linearGradient946)"
         id="path166" />
    </clipPath>
    <linearGradient
       id="linearGradient4226"
       x1="529.655"
       x2="-35.31"
       y1="401.584"
       y2="119.093"
       gradientTransform="matrix(0.11988932,0,0,0.11988589,3.6614303,228.72469)"
       gradientUnits="userSpaceOnUse"
       xlink:href="#linearGradient1674" />
    <linearGradient
       id="linearGradient1674">
      <stop
         id="stop1670"
         offset="0"
         style="stop-color:#fb7c38" />
      <stop
         id="stop1672"
         offset="1"
         style="stop-color:#9b33ae" />
    </linearGradient>
    <filter
       style="color-interpolation-filters:sRGB"
       id="filter965"
       width="1.045"
       height="1.052"
       x="-.02"
       y="-.03">
      <feGaussianBlur
         id="feGaussianBlur967"
         stdDeviation="4.16" />
    </filter>
    <filter
       style="color-interpolation-filters:sRGB"
       id="filter4346"
       width="1.026"
       height="1.022"
       x="-.01"
       y="-.01">
      <feGaussianBlur
         id="feGaussianBlur4348"
         stdDeviation="2.12" />
    </filter>
  </defs>
  <g
     style="display:inline;stroke-width:1.10000002;enable-background:new"
     id="g1600"
     transform="matrix(0.08152174,0,0,0.08152174,-4.3913043,-4.7173915)">
    <path
       style="color:#000000;display:inline;overflow:visible;visibility:visible;opacity:1;fill:#666666;fill-opacity:1;fill-rule:nonzero;stroke:none;stroke-width:23.14119148;stroke-linecap:butt;stroke-linejoin:miter;stroke-miterlimit:4;stroke-dasharray:none;stroke-dashoffset:0;stroke-opacity:1;marker:none;enable-background:accumulate"
       d="m 151.9999,57.875114 c -7.05733,-0.07848 -9.52592,0.18356 -10.51859,8.71694 l -0.37821,3.015534 c -0.87107,5.534459 -1.03759,8.04056 -6.27386,9.396713 -0.35088,0.07843 -0.70118,0.157103 -1.05032,0.240221 -0.0826,0.01702 -0.15552,0.03695 -0.24023,0.05367 l 0.0105,0.0026 c -1.32199,0.318928 -2.62984,0.6731 -3.92531,1.057993 l 0.0131,-0.01534 c -0.21638,0.07389 -0.41353,0.132823 -0.61843,0.196777 -0.19609,0.05995 -0.39234,0.117471 -0.58778,0.178888 -5.26183,1.476065 -6.65393,-0.611843 -10.18893,-4.985855 l -1.83744,-2.42265 c -2.56319,-3.446894 -4.40921,-4.918054 -6.37605,-5.077853 -0.24584,-0.01998 -0.49501,-0.01972 -0.74623,0 -1.75841,0.13798 -3.68608,1.217131 -6.34284,2.790648 -6.151059,3.460697 -8.157749,4.91932 -4.750739,12.805802 l 1.1781,2.800863 c 2.167249,5.629595 3.295069,7.807835 -1.70455,12.174585 l 0.1329,-0.0306 c -1.03335,0.97947 -2.0386,1.98729 -3.01811,3.02065 l 0.0281,-0.13289 c -4.36676,4.99962 -6.54499,3.8718 -12.17459,1.70455 l -2.80087,-1.18067 c -2.46451,-1.06469 -4.30141,-1.59989 -5.767845,-1.64576 -3.226165,-0.10101 -4.658714,2.16766 -7.037951,6.39651 -3.596622,6.07258 -4.606589,8.3413 2.287205,13.46768 l 2.422651,1.83744 c 4.374006,3.53499 6.46192,4.92709 4.985854,10.18892 -0.06147,0.19544 -0.118897,0.3917 -0.178888,0.58778 -0.06403,0.2049 -0.120284,0.40207 -0.19422,0.61843 l 0.01282,-0.0131 c -0.384894,1.29546 -0.739066,2.60331 -1.057993,3.9253 l -0.0026,-0.0105 c -0.01663,0.0847 -0.03657,0.15771 -0.05367,0.24023 -0.08311,0.34915 -0.161791,0.69944 -0.240221,1.05032 -1.356146,5.23628 -3.862247,5.40279 -9.396713,6.27386 l -3.015534,0.37822 c -8.53338,0.99268 -8.79541,3.46126 -8.71694,10.51859 -0.07848,7.05733 0.183554,9.52593 8.71694,10.51859 l 3.015534,0.37821 c 5.534459,0.87107 8.040573,1.03759 9.396713,6.27386 0.07843,0.35089 0.157102,0.70119 0.240221,1.05032 0.01702,0.0826 0.03695,0.15552 0.05367,0.24023 l 0.0026,-0.0105 c 0.318927,1.322 0.673099,2.62984 1.057993,3.92531 l -0.01534,-0.0131 c 0.07393,0.21638 0.132769,0.41353 0.196777,0.61843 0.05995,0.19607 0.117419,0.39235 0.178888,0.58778 1.476059,5.26183 -0.611848,6.65394 -4.985855,10.18893 l -2.42265,1.83743 c -6.893788,5.12638 -5.883826,7.39253 -2.287205,13.46513 3.460697,6.15105 4.919334,8.15775 12.805799,4.75074 l 2.80087,-1.1781 c 5.62957,-2.16725 7.80782,-3.29506 12.17457,1.70455 l -0.0306,-0.1329 c 0.97947,1.03335 1.9873,2.03864 3.02065,3.0181 l -0.1329,-0.0281 c 4.999629,4.36678 3.871809,6.54499 1.70455,12.17459 l -1.18066,2.80086 c -3.40701,7.88646 -1.40032,9.34765 4.750739,12.80837 6.07258,3.59661 8.34131,4.60403 13.46769,-2.28976 l 1.83744,-2.42266 c 3.53498,-4.37403 4.9271,-6.46191 10.18893,-4.98585 0.19544,0.0615 0.39169,0.11894 0.58777,0.17889 0.2049,0.064 0.40206,0.12273 0.61843,0.19678 l -0.0131,-0.0153 c 1.29547,0.38489 2.60331,0.73905 3.9253,1.05798 l -0.0105,0.003 c 0.0846,0.0168 0.1577,0.0366 0.24023,0.0537 0.34914,0.0831 0.69943,0.16178 1.05032,0.24021 5.23626,1.35616 5.40277,3.86227 6.27385,9.39671 l 0.37822,3.01554 c 0.99267,8.53338 3.46125,8.79542 10.51859,8.71694 7.05732,0.0785 9.52592,-0.18356 10.51859,-8.71694 l 0.37821,-3.01554 c 0.87111,-5.53446 1.03758,-8.04057 6.27386,-9.39671 0.35088,-0.0785 0.70119,-0.1571 1.05032,-0.24021 0.0826,-0.0171 0.15552,-0.0368 0.24023,-0.0537 l -0.0105,-0.003 c 1.32201,-0.31893 2.62983,-0.67309 3.92531,-1.05798 l -0.0131,0.0153 c 0.21637,-0.0739 0.41352,-0.13282 0.61844,-0.19678 0.19607,-0.0599 0.39234,-0.11737 0.58777,-0.17889 5.26183,-1.47605 6.65394,0.61184 10.18893,4.98585 l 1.83744,2.42266 c 5.12637,6.89377 7.39253,5.88383 13.46512,2.28719 6.15106,-3.46069 8.15777,-4.91932 4.75074,-12.8058 l -1.1781,-2.80086 c -2.1673,-5.62952 -3.29507,-7.80781 1.70455,-12.17459 l -0.13289,0.0306 c 1.03336,-0.97947 2.03863,-1.9873 3.0181,-3.02065 l -0.0281,0.13289 c 4.36677,-4.99961 6.54499,-3.87181 12.17458,-1.70455 l 2.80086,1.18067 c 7.88647,3.407 9.34509,1.40031 12.80581,-4.75075 3.59661,-6.07259 4.6066,-8.34131 -2.2872,-13.46768 l -2.42266,-1.83744 c -4.37401,-3.53497 -6.46192,-4.92709 -4.98585,-10.18893 0.0615,-0.19542 0.11881,-0.3917 0.17889,-0.58777 0.064,-0.2049 0.12038,-0.40206 0.19421,-0.61843 l -0.0131,0.0131 c 0.38489,-1.29547 0.73906,-2.6033 1.05799,-3.92531 l 0.003,0.0105 c 0.0168,-0.0847 0.0366,-0.15769 0.0537,-0.24023 0.0831,-0.34913 0.16179,-0.69942 0.24022,-1.05032 1.35615,-5.23626 3.86223,-5.40278 9.39671,-6.27385 l 3.01553,-0.37822 c 8.53338,-0.99267 8.79542,-3.46126 8.71694,-10.51859 0.0785,-7.05731 -0.18354,-9.52591 -8.71694,-10.51859 l -3.01553,-0.37822 c -5.53448,-0.87107 -8.04056,-1.03757 -9.39671,-6.27385 -0.0785,-0.35087 -0.15711,-0.70118 -0.24022,-1.05032 -0.0171,-0.0826 -0.0368,-0.15554 -0.0537,-0.24023 l -0.003,0.0105 c -0.31893,-1.32199 -0.67309,-2.62983 -1.05799,-3.92531 l 0.0153,0.0131 c -0.0739,-0.21636 -0.13282,-0.41351 -0.19678,-0.61843 -0.0599,-0.19608 -0.11736,-0.39233 -0.17889,-0.58777 -1.47606,-5.26184 0.61185,-6.65393 4.98585,-10.18893 l 2.42266,-1.83743 c 6.89379,-5.12637 5.88382,-7.39253 2.2872,-13.46512 -2.37924,-4.22885 -3.81176,-6.5 -7.03795,-6.39908 -1.46641,0.0459 -3.30334,0.58363 -5.76786,1.64833 l -2.80086,1.1781 c -5.6295,2.16729 -7.80782,3.29509 -12.17458,-1.70455 l 0.0306,0.1329 c -0.97947,-1.03336 -1.98729,-2.03862 -3.02065,-3.0181 l 0.1329,0.0281 c -4.99961,-4.36676 -3.87182,-6.544994 -1.70455,-12.174589 l 1.18066,-2.800863 c 3.407,-7.886471 1.40032,-9.345097 -4.75074,-12.805802 -3.03631,-1.79831 -5.12223,-2.950441 -7.08907,-2.790648 -1.96684,0.159799 -3.81543,1.630959 -6.37862,5.077853 l -1.83743,2.42265 c -3.53499,4.374004 -4.9271,6.461907 -10.18893,4.985855 -0.19543,-0.06154 -0.39171,-0.118911 -0.58778,-0.178888 -0.20491,-0.06403 -0.40207,-0.120271 -0.61843,-0.19422 l 0.0131,0.01282 c -1.29548,-0.384893 -2.6033,-0.739065 -3.9253,-1.057993 l 0.0105,-0.0026 c -0.0847,-0.01663 -0.15769,-0.03657 -0.24022,-0.05367 -0.34913,-0.08311 -0.69944,-0.16179 -1.05032,-0.24022 -5.23628,-1.356153 -5.40277,-3.862254 -6.27386,-9.396713 l -0.37822,-3.015534 c -0.99237,-8.533425 -3.46097,-8.795461 -10.51829,-8.716985 z m -0.0153,40.553826 c 0.005,-1e-5 0.0105,-1e-5 0.0153,0 6.62763,4e-4 13.03309,1.14479 19.01831,3.24554 a 15.701224,15.701224 0 0 0 7.15039,9.00061 15.701224,15.701224 0 0 0 11.34403,1.6892 c 9.42512,8.10013 16.26362,19.23887 18.8931,32.12056 0.66262,3.24494 -1.81706,6.28185 -5.12897,6.28151 h -16.19699 c -2.31496,1.9e-4 -4.3551,-1.52029 -5.01653,-3.73875 -3.96991,-13.31552 -16.15734,-22.40844 -30.05056,-22.42741 -2.44091,0.0132 -4.87297,0.30799 -7.24495,0.88421 -2.2574,0.54821 -4.60606,-0.45701 -5.76786,-2.46863 l -8.08571,-14.0018 c -1.65244,-2.86364 -0.2689,-6.52304 2.86475,-7.57717 5.86791,-1.97514 12.01428,-2.99086 18.20565,-3.00787 z m -34.42054,13.20958 c 1.78091,0.0835 3.39688,1.06768 4.28819,2.61176 l 8.08572,14.00179 c 1.15856,2.00645 0.86021,4.53582 -0.73344,6.21762 -5.51222,5.81813 -8.59069,13.51849 -8.60704,21.53296 0.009,8.01903 3.08188,15.72662 8.59427,21.55086 1.5924,1.68135 1.89071,4.20922 0.73344,6.21507 l -8.06272,13.96856 c -1.65499,2.8668 -5.52217,3.49671 -8.0014,1.30332 -9.62776,-8.51404 -16.033649,-19.93845 -18.399869,-32.37099 a 15.701224,15.701224 0 0 0 4.20131,-10.66937 15.701224,15.701224 0 0 0 -4.20386,-10.66426 c 2.36106,-12.43818 8.762979,-23.86908 18.392209,-32.38889 1.02029,-0.90274 2.35235,-1.37216 3.71319,-1.30843 z m 69.52852,49.59532 h 16.13053 c 3.31189,-3.2e-4 5.79159,3.03658 5.12896,6.28151 -2.6279,12.87406 -9.4603,24.00843 -18.87777,32.10777 a 15.701224,15.701224 0 0 0 -3.82563,-0.3961 15.701224,15.701224 0 0 0 -7.48006,2.09809 15.701224,15.701224 0 0 0 -7.13505,8.97761 c -5.98691,2.1098 -12.39636,3.26135 -19.02854,3.26853 -0.008,3e-5 -0.0164,3e-5 -0.0255,0 -6.18871,-0.0246 -12.33222,-1.04767 -18.19545,-3.02831 -3.12993,-1.05674 -4.51029,-4.71306 -2.85963,-7.57462 l 8.07294,-13.9839 c 1.1618,-2.01162 3.51044,-3.01684 5.76784,-2.46864 2.37353,0.5766 4.80756,0.87113 7.25007,0.88421 13.8973,-0.0141 26.0897,-9.10798 30.06079,-22.4274 0.66143,-2.21845 2.70155,-3.73895 5.01651,-3.73875 z"
       id="path1590"
       inkscape:connector-curvature="0" />
    <path
       style="color:#000000;display:inline;overflow:visible;visibility:visible;opacity:0.3;fill:#ffffff;fill-opacity:1;fill-rule:nonzero;stroke:none;stroke-width:1.88651025;stroke-linecap:butt;stroke-linejoin:miter;stroke-miterlimit:4;stroke-dasharray:none;stroke-dashoffset:0;stroke-opacity:1;marker:none;enable-background:accumulate"
       d="M 8 0 C 7.4246742 -0.0063978262 7.2235023 0.015281514 7.1425781 0.7109375 L 7.1113281 0.95703125 C 7.040317 1.40821 7.0264792 1.6121003 6.5996094 1.7226562 C 6.571005 1.72905 6.5421344 1.7354116 6.5136719 1.7421875 C 6.5075559 1.7434477 6.500266 1.7467691 6.4941406 1.7480469 C 6.3869957 1.773931 6.2807895 1.8027857 6.1757812 1.8339844 L 6.1777344 1.8320312 C 6.1600947 1.8380549 6.1436569 1.8424426 6.1269531 1.8476562 C 6.1109675 1.8525435 6.0940576 1.8582744 6.078125 1.8632812 C 5.6491715 1.9836126 5.5362262 1.8136083 5.2480469 1.4570312 L 5.0976562 1.2597656 C 4.8887005 0.97876883 4.7384652 0.85873022 4.578125 0.84570312 C 4.5580837 0.84407432 4.538058 0.84409552 4.5175781 0.84570312 C 4.3742295 0.85695149 4.2165837 0.94398978 4 1.0722656 C 3.5613261 1.3190715 3.4010938 1.4628313 3.5488281 1.9199219 C 3.6282172 1.7964449 3.7743497 1.6992205 4 1.5722656 C 4.2165837 1.4439898 4.3742295 1.3569515 4.5175781 1.3457031 C 4.538058 1.3440955 4.5580837 1.3440743 4.578125 1.3457031 C 4.7384652 1.3587302 4.8887005 1.4787688 5.0976562 1.7597656 L 5.2480469 1.9570312 C 5.5362262 2.3136083 5.6491715 2.4836126 6.078125 2.3632812 C 6.0940576 2.3582744 6.1109675 2.3525435 6.1269531 2.3476562 C 6.1436569 2.3424426 6.1600947 2.3380549 6.1777344 2.3320312 L 6.1757812 2.3339844 C 6.2807895 2.3027857 6.3869957 2.273931 6.4941406 2.2480469 C 6.500266 2.2467691 6.5075559 2.2434477 6.5136719 2.2421875 C 6.5421344 2.2354116 6.571005 2.22905 6.5996094 2.2226562 C 7.0264792 2.1121003 7.040317 1.90821 7.1113281 1.4570312 L 7.1425781 1.2109375 C 7.2235023 0.51528151 7.4246742 0.49360217 8 0.5 C 8.575325 0.4936025 8.7765221 0.51527785 8.8574219 1.2109375 L 8.8886719 1.4570312 C 8.9596846 1.90821 8.97352 2.1121003 9.4003906 2.2226562 C 9.428995 2.22905 9.4578664 2.2354122 9.4863281 2.2421875 C 9.4924389 2.2434536 9.4977807 2.2467744 9.5039062 2.2480469 C 9.5039062 2.2480469 9.5058594 2.2480469 9.5058594 2.2480469 C 9.613005 2.273931 9.7192097 2.3027857 9.8242188 2.3339844 L 9.8222656 2.3320312 C 9.8399037 2.3380597 9.8563423 2.3424364 9.8730469 2.3476562 C 9.8890308 2.3525457 9.9059432 2.3582644 9.921875 2.3632812 C 10.350829 2.4836116 10.463775 2.3136077 10.751953 1.9570312 L 10.902344 1.7597656 C 11.111299 1.4787688 11.261535 1.3587302 11.421875 1.3457031 C 11.582215 1.3326765 11.752475 1.4256643 12 1.5722656 C 12.22565 1.6992208 12.371783 1.7964448 12.451172 1.9199219 C 12.598906 1.4628319 12.438674 1.3190721 12 1.0722656 C 11.752475 0.92566426 11.582215 0.83267652 11.421875 0.84570312 C 11.261535 0.85873022 11.111299 0.97876883 10.902344 1.2597656 L 10.751953 1.4570312 C 10.463775 1.8136077 10.350829 1.9836116 9.921875 1.8632812 C 9.9059432 1.8582644 9.8890308 1.8525457 9.8730469 1.8476562 C 9.8563423 1.8424364 9.8399037 1.8380597 9.8222656 1.8320312 L 9.8242188 1.8339844 C 9.7192097 1.8027857 9.613005 1.773931 9.5058594 1.7480469 C 9.5058594 1.7480469 9.5039062 1.7480469 9.5039062 1.7480469 C 9.4977807 1.7467744 9.4924389 1.7434536 9.4863281 1.7421875 C 9.4578664 1.7354122 9.428995 1.72905 9.4003906 1.7226562 C 8.97352 1.6121003 8.9596846 1.40821 8.8886719 0.95703125 L 8.8574219 0.7109375 C 8.7765221 0.015277846 8.575325 -0.0063975001 8 0 z M 3.7949219 3.0761719 C 3.7496426 3.1559484 3.6813211 3.2409339 3.5703125 3.3378906 L 3.5820312 3.3339844 C 3.4977908 3.4138325 3.4157889 3.4977899 3.3359375 3.5820312 L 3.3378906 3.5703125 C 2.9819048 3.9778902 2.8046379 3.8856624 2.3457031 3.7089844 L 2.1171875 3.6132812 C 1.9162764 3.5264859 1.7660307 3.482255 1.6464844 3.4785156 C 1.3834818 3.4702811 1.2662252 3.6552568 1.0722656 4 C 0.86837646 4.3442489 0.78193157 4.5406215 0.92773438 4.7675781 C 0.9665517 4.6866639 1.0113847 4.6027921 1.0722656 4.5 C 1.2662252 4.1552568 1.3834818 3.9702811 1.6464844 3.9785156 C 1.7660307 3.982255 1.9162764 4.0264859 2.1171875 4.1132812 L 2.3457031 4.2089844 C 2.8046379 4.3856624 2.9819048 4.4778902 3.3378906 4.0703125 L 3.3359375 4.0820312 C 3.4157889 3.9977899 3.4977908 3.9138325 3.5820312 3.8339844 L 3.5703125 3.8378906 C 3.898843 3.550946 3.8982648 3.3720687 3.7949219 3.0761719 z M 12.205078 3.0761719 C 12.101735 3.3720686 12.101158 3.5509453 12.429688 3.8378906 L 12.417969 3.8359375 C 12.50221 3.9157864 12.586168 3.9977899 12.666016 4.0820312 L 12.662109 4.0703125 C 13.018095 4.4778919 13.19537 4.3856656 13.654297 4.2089844 L 13.882812 4.1132812 C 14.083724 4.0264851 14.233971 3.9822575 14.353516 3.9785156 C 14.61652 3.9702885 14.733775 4.1552568 14.927734 4.5 C 14.988615 4.6027923 15.033448 4.6866781 15.072266 4.7675781 C 15.218068 4.5406832 15.131623 4.3442495 14.927734 4 C 14.733775 3.6552568 14.61652 3.4702885 14.353516 3.4785156 C 14.233971 3.4822575 14.083724 3.5264851 13.882812 3.6132812 L 13.654297 3.7089844 C 13.19537 3.8856656 13.018095 3.9778919 12.662109 3.5703125 L 12.666016 3.5820312 C 12.586168 3.4977899 12.50221 3.4157864 12.417969 3.3359375 L 12.429688 3.3378906 C 12.318679 3.2409337 12.250357 3.1559485 12.205078 3.0761719 z M 6.3085938 4.2167969 C 6.2181973 4.3468727 6.1945495 4.5196719 6.28125 4.6699219 L 6.9394531 5.8105469 C 7.0341651 5.9745376 7.2261291 6.0564098 7.4101562 6.0117188 C 7.6035242 5.9647443 7.8029659 5.9405292 8.0019531 5.9394531 C 9.1345526 5.9409996 10.127538 6.6840269 10.451172 7.7695312 C 10.505093 7.950384 10.670655 8.0742342 10.859375 8.0742188 L 12.179688 8.0742188 C 12.44968 8.0742465 12.651674 7.82508 12.597656 7.5605469 C 12.58344 7.4909016 12.556259 7.4277396 12.539062 7.359375 C 12.465379 7.4831676 12.338037 7.574235 12.179688 7.5742188 L 10.859375 7.5742188 C 10.670655 7.5742342 10.505093 7.450384 10.451172 7.2695312 C 10.127538 6.1840269 9.1345526 5.4409996 8.0019531 5.4394531 C 7.8029659 5.4405292 7.6035242 5.4647443 7.4101562 5.5117188 C 7.2261291 5.5564098 7.0341651 5.4745376 6.9394531 5.3105469 L 6.3085938 4.2167969 z M 1.8457031 6.1347656 C 1.8413958 6.1488221 1.8371464 6.1627659 1.8320312 6.1777344 L 1.8339844 6.1757812 C 1.8027856 6.2807887 1.773931 6.3889489 1.7480469 6.4960938 C 1.7467744 6.5022196 1.7434536 6.5075619 1.7421875 6.5136719 C 1.7354122 6.5421352 1.72905 6.571005 1.7226562 6.5996094 C 1.6121009 7.02648 1.4082105 7.040317 0.95703125 7.1113281 L 0.7109375 7.1425781 C 0.015281514 7.2235031 -0.0063970109 7.4246742 0 8 C -0.0010947858 8.0984488 0.0040420822 8.172187 0.0078125 8.25 C 0.026076427 7.8730814 0.13432106 7.7096554 0.7109375 7.6425781 L 0.95703125 7.6113281 C 1.4082105 7.540317 1.6121009 7.52648 1.7226562 7.0996094 C 1.72905 7.071005 1.7354122 7.0421352 1.7421875 7.0136719 C 1.7434536 7.0075619 1.7467744 7.0022196 1.7480469 6.9960938 C 1.773931 6.8889489 1.8027856 6.7807887 1.8339844 6.6757812 L 1.8320312 6.6777344 C 1.8380586 6.6600963 1.8424364 6.6436569 1.8476562 6.6269531 C 1.8525468 6.6109683 1.8582701 6.5940576 1.8632812 6.578125 C 1.9198558 6.37645 1.9067485 6.2479153 1.8457031 6.1347656 z M 14.154297 6.1347656 C 14.093252 6.2479153 14.080144 6.3764496 14.136719 6.578125 C 14.141735 6.5940576 14.147461 6.6109683 14.152344 6.6269531 C 14.157558 6.6436586 14.161944 6.6600963 14.167969 6.6777344 L 14.166016 6.6757812 C 14.197215 6.7807903 14.226069 6.8869958 14.251953 6.9941406 L 14.251953 6.9960938 C 14.253239 7.0022181 14.256546 7.0075559 14.257812 7.0136719 C 14.264588 7.0421344 14.270944 7.0710058 14.277344 7.0996094 C 14.387899 7.52648 14.591788 7.540317 15.042969 7.6113281 L 15.289062 7.6425781 C 15.86568 7.7096554 15.973925 7.873082 15.992188 8.25 C 15.995958 8.172187 16.001095 8.0984488 16 8 C 16.006399 7.4246758 15.98472 7.2235031 15.289062 7.1425781 L 15.042969 7.1113281 C 14.591788 7.040317 14.387899 7.02648 14.277344 6.5996094 C 14.270944 6.5710058 14.264588 6.5421344 14.257812 6.5136719 C 14.256546 6.5075559 14.253239 6.5022181 14.251953 6.4960938 L 14.251953 6.4941406 C 14.226069 6.3869958 14.197215 6.2807903 14.166016 6.1757812 L 14.167969 6.1777344 C 14.162856 6.1627659 14.158648 6.1488227 14.154297 6.1347656 z M 6.1699219 6.1855469 C 6.1573237 6.2039481 6.1582874 6.2275624 6.1425781 6.2441406 C 5.6932124 6.7184447 5.440786 7.3466465 5.4394531 8 C 5.4395478 8.0843272 5.454593 8.1667928 5.4628906 8.25 C 5.5195887 7.6889039 5.7514106 7.1570166 6.1425781 6.7441406 C 6.2724952 6.6070374 6.2956197 6.4018505 6.2011719 6.2382812 L 6.1699219 6.1855469 z M 3.4941406 7.2578125 C 3.4596695 7.3823627 3.4148186 7.5034062 3.390625 7.6308594 A 1.2799911 1.2799911 0 0 1 3.7070312 8.2460938 A 1.2799911 1.2799911 0 0 0 3.7324219 8 A 1.2799911 1.2799911 0 0 0 3.4941406 7.2578125 z M 12.535156 9.140625 C 12.293227 10.102539 11.7715 10.940158 11.054688 11.556641 A 1.2799911 1.2799911 0 0 0 10.742188 11.523438 A 1.2799911 1.2799911 0 0 0 10.132812 11.695312 A 1.2799911 1.2799911 0 0 0 9.5507812 12.427734 C 9.0627179 12.599729 8.5406669 12.692774 8 12.693359 C 8 12.693359 7.9980469 12.693359 7.9980469 12.693359 C 7.4935325 12.691354 6.9936057 12.608731 6.515625 12.447266 C 6.4246894 12.416564 6.358569 12.35326 6.3085938 12.28125 L 6.28125 12.328125 C 6.1466853 12.561404 6.2604677 12.861118 6.515625 12.947266 C 6.9936057 13.108731 7.4935325 13.191354 7.9980469 13.193359 C 7.9980469 13.193359 8 13.193359 8 13.193359 C 8.5406669 13.192774 9.0627179 13.099729 9.5507812 12.927734 A 1.2799911 1.2799911 0 0 1 10.132812 12.195312 A 1.2799911 1.2799911 0 0 1 10.742188 12.023438 A 1.2799911 1.2799911 0 0 1 11.054688 12.056641 C 11.822416 11.396368 12.379519 10.488969 12.59375 9.4394531 C 12.616087 9.330068 12.587106 9.2279036 12.535156 9.140625 z M 3.4941406 9.2402344 A 1.2799911 1.2799911 0 0 1 3.390625 9.3691406 C 3.5835234 10.382663 4.1057533 11.313733 4.890625 12.007812 C 5.0927361 12.186621 5.4080511 12.13605 5.5429688 11.902344 L 6.2011719 10.763672 C 6.2836487 10.620718 6.260028 10.45182 6.1699219 10.318359 L 5.5429688 11.402344 C 5.4080511 11.63605 5.0927361 11.686621 4.890625 11.507812 C 4.2039285 10.900552 3.7340784 10.10687 3.4941406 9.2402344 z M 1.8457031 10.365234 C 1.7769078 10.492749 1.6459613 10.599263 1.4570312 10.751953 L 1.2597656 10.902344 C 0.81446493 11.23348 0.7796074 11.423707 0.92773438 11.732422 C 0.99160332 11.63303 1.0885745 11.529645 1.2597656 11.402344 L 1.4570312 11.251953 C 1.8136079 10.963775 1.9836121 10.850829 1.8632812 10.421875 C 1.8582702 10.405943 1.8525435 10.389031 1.8476562 10.373047 C 1.8468665 10.370519 1.8464793 10.367741 1.8457031 10.365234 z M 14.154297 10.365234 C 14.153529 10.367741 14.153133 10.370519 14.152344 10.373047 C 14.147446 10.389031 14.141732 10.405944 14.136719 10.421875 C 14.016387 10.850829 14.186392 10.963776 14.542969 11.251953 L 14.740234 11.402344 C 14.911426 11.529645 15.008397 11.633004 15.072266 11.732422 C 15.220393 11.423652 15.185536 11.233479 14.740234 10.902344 L 14.542969 10.751953 C 14.354039 10.599264 14.223092 10.492749 14.154297 10.365234 z M 3.7949219 13.423828 C 3.7700566 13.495023 3.7432501 13.565289 3.7089844 13.654297 L 3.6132812 13.882812 C 3.4605213 14.236417 3.451797 14.429105 3.5488281 14.580078 C 3.5699679 14.514666 3.578513 14.463293 3.6132812 14.382812 L 3.7089844 14.154297 C 3.8372169 13.821204 3.9145497 13.636277 3.7949219 13.423828 z M 12.205078 13.423828 C 12.08545 13.636279 12.162781 13.821209 12.291016 14.154297 L 12.386719 14.382812 C 12.421387 14.463061 12.428101 14.514821 12.449219 14.580078 C 12.546399 14.429133 12.539549 14.236578 12.386719 13.882812 L 12.291016 13.654297 C 12.256749 13.565291 12.229944 13.495023 12.205078 13.423828 z "
       transform="matrix(12.266667,0,0,12.266667,53.866666,57.866668)"
       id="path831" />
    <path
       style="color:#000000;display:inline;overflow:visible;visibility:visible;opacity:0.2;fill:#050000;fill-opacity:1;fill-rule:nonzero;stroke:none;stroke-width:1.88651025;stroke-linecap:butt;stroke-linejoin:miter;stroke-miterlimit:4;stroke-dasharray:none;stroke-dashoffset:0;stroke-opacity:1;marker:none;enable-background:accumulate"
       d="M 3.5488281 1.4199219 C 3.451797 1.5708382 3.4605213 1.7635816 3.6132812 2.1171875 L 3.7089844 2.3457031 C 3.74325 2.4347106 3.7700567 2.5049767 3.7949219 2.5761719 C 3.9158893 2.3630418 3.837542 2.1796413 3.7089844 1.8457031 L 3.6132812 1.6171875 C 3.578513 1.5367065 3.5699679 1.4853283 3.5488281 1.4199219 z M 12.451172 1.4199219 C 12.430032 1.4853282 12.421487 1.5367066 12.386719 1.6171875 L 12.291016 1.8457031 C 12.162457 2.1796413 12.08411 2.3630417 12.205078 2.5761719 C 12.229943 2.5049767 12.25675 2.4347106 12.291016 2.3457031 L 12.386719 2.1171875 C 12.539478 1.7635821 12.548203 1.5708383 12.451172 1.4199219 z M 7.9980469 2.8066406 C 7.4933156 2.8080273 6.9920341 2.8917178 6.5136719 3.0527344 C 6.2582113 3.1386692 6.1465402 3.436473 6.28125 3.6699219 L 6.3085938 3.7167969 C 6.3586496 3.6447691 6.4226282 3.5833606 6.5136719 3.5527344 C 6.9920341 3.3917175 7.4933156 3.3080273 7.9980469 3.3066406 L 8 3.3066406 C 8.5402959 3.3066732 9.0628557 3.3990557 9.5507812 3.5703125 A 1.2799911 1.2799911 0 0 0 10.132812 4.3046875 A 1.2799911 1.2799911 0 0 0 11.058594 4.4433594 C 11.775989 5.0599024 12.296968 5.896913 12.539062 6.859375 C 12.591012 6.7720962 12.619993 6.6699323 12.597656 6.5605469 C 12.383296 5.5104091 11.826946 4.6036961 11.058594 3.9433594 A 1.2799911 1.2799911 0 0 1 10.132812 3.8046875 A 1.2799911 1.2799911 0 0 1 9.5507812 3.0703125 C 9.0628557 2.8990559 8.5402959 2.8066732 8 2.8066406 L 7.9980469 2.8066406 z M 5.1933594 3.8828125 C 5.0824213 3.8776171 4.9738008 3.9166414 4.890625 3.9902344 C 4.1056334 4.6847841 3.5831027 5.6168773 3.390625 6.6308594 A 1.2799911 1.2799911 0 0 1 3.4941406 6.7578125 C 3.7339122 5.8914758 4.2043035 5.0974822 4.890625 4.4902344 C 4.9738008 4.4166414 5.0824213 4.3776171 5.1933594 4.3828125 C 5.3385423 4.3896196 5.4703076 4.469827 5.5429688 4.5957031 L 6.1699219 5.6855469 C 6.2615115 5.5517686 6.2841993 5.3820721 6.2011719 5.2382812 L 5.5429688 4.0957031 C 5.4703076 3.969827 5.3385423 3.8896196 5.1933594 3.8828125 z M 0.92773438 4.2675781 C 0.77960727 4.5763472 0.81446455 4.7665204 1.2597656 5.0976562 L 1.4570312 5.2480469 C 1.6459612 5.4007366 1.7769077 5.5072512 1.8457031 5.6347656 C 1.8464713 5.6322587 1.8468662 5.6294813 1.8476562 5.6269531 C 1.8525468 5.6109683 1.8582701 5.5940576 1.8632812 5.578125 C 1.9836127 5.1491715 1.8136078 5.0362254 1.4570312 4.7480469 L 1.2597656 4.5976562 C 1.0885743 4.4703546 0.99160334 4.3669965 0.92773438 4.2675781 z M 15.072266 4.2675781 C 15.008397 4.3669695 14.911426 4.4703548 14.740234 4.5976562 L 14.542969 4.7480469 C 14.186393 5.0362262 14.016388 5.1491706 14.136719 5.578125 C 14.141735 5.5940576 14.147461 5.6109683 14.152344 5.6269531 C 14.153133 5.6294815 14.153521 5.6322586 14.154297 5.6347656 C 14.223092 5.5072512 14.354039 5.400737 14.542969 5.2480469 L 14.740234 5.0976562 C 15.185535 4.766521 15.220393 4.5762932 15.072266 4.2675781 z M 3.7070312 7.7460938 A 1.2799911 1.2799911 0 0 1 3.390625 8.3691406 C 3.4147536 8.4959165 3.4598373 8.6163337 3.4941406 8.7402344 A 1.2799911 1.2799911 0 0 0 3.7324219 8 A 1.2799911 1.2799911 0 0 0 3.7070312 7.7460938 z M 0.0078125 7.75 C 0.0040420047 7.8278129 -0.0010946464 7.9015512 0 8 C -0.0063978262 8.5753258 0.015281025 8.7764985 0.7109375 8.8574219 L 0.95703125 8.8886719 C 1.40821 8.959683 1.6121014 8.9735208 1.7226562 9.4003906 C 1.72905 9.4289958 1.7354115 9.4578664 1.7421875 9.4863281 C 1.7434477 9.4924441 1.7467691 9.499734 1.7480469 9.5058594 C 1.773931 9.613005 1.8027856 9.7192105 1.8339844 9.8242188 L 1.8320312 9.8222656 C 1.837146 9.8372355 1.841351 9.8511783 1.8457031 9.8652344 C 1.9067485 9.7520845 1.9198555 9.62355 1.8632812 9.421875 C 1.8582702 9.4059432 1.8525435 9.3890308 1.8476562 9.3730469 C 1.8424382 9.3563431 1.8380582 9.3399053 1.8320312 9.3222656 L 1.8339844 9.3242188 C 1.8027856 9.2192105 1.773931 9.113005 1.7480469 9.0058594 C 1.7467691 8.999734 1.7434477 8.9924441 1.7421875 8.9863281 C 1.7354115 8.9578664 1.72905 8.9289958 1.7226562 8.9003906 C 1.6121014 8.4735208 1.40821 8.459683 0.95703125 8.3886719 L 0.7109375 8.3574219 C 0.13432066 8.290346 0.026076051 8.1269189 0.0078125 7.75 z M 5.4628906 7.75 C 5.454455 7.8334804 5.4396257 7.9153828 5.4394531 8 C 5.4401868 8.6537253 5.6912454 9.2830103 6.140625 9.7578125 C 6.1569523 9.7750519 6.1569584 9.7991586 6.1699219 9.8183594 L 6.2011719 9.7636719 C 6.2955145 9.6001515 6.2704402 9.3948791 6.140625 9.2578125 C 5.749213 8.8442574 5.5189185 8.3118357 5.4628906 7.75 z M 15.992188 7.75 C 15.973924 8.1269187 15.865679 8.2903453 15.289062 8.3574219 L 15.042969 8.3886719 C 14.591788 8.459683 14.387899 8.4735216 14.277344 8.9003906 C 14.27095 8.9289966 14.264587 8.9578664 14.257812 8.9863281 C 14.256546 8.9924396 14.253234 8.9977807 14.251953 9.0039062 L 14.251953 9.0058594 C 14.226069 9.1130058 14.197214 9.2192105 14.166016 9.3242188 L 14.167969 9.3222656 C 14.16195 9.3399045 14.157561 9.3563431 14.152344 9.3730469 C 14.147446 9.3890308 14.141732 9.405944 14.136719 9.421875 C 14.080144 9.6235504 14.093252 9.7520844 14.154297 9.8652344 C 14.158605 9.8511781 14.162861 9.8372348 14.167969 9.8222656 L 14.166016 9.8242188 C 14.197214 9.7192105 14.226069 9.6130058 14.251953 9.5058594 L 14.251953 9.5039062 C 14.253234 9.4977807 14.256546 9.4924396 14.257812 9.4863281 C 14.264587 9.4578664 14.27095 9.4289966 14.277344 9.4003906 C 14.387899 8.9735216 14.591788 8.959683 15.042969 8.8886719 L 15.289062 8.8574219 C 15.984718 8.7764977 16.006398 8.5753258 16 8 C 16.001095 7.9015514 15.995958 7.8278128 15.992188 7.75 z M 10.861328 7.9257812 C 10.672609 7.9257649 10.505093 8.05157 10.451172 8.2324219 C 10.127442 9.3182442 9.1348852 10.059397 8.0019531 10.060547 C 7.8028355 10.059481 7.6036505 10.035287 7.4101562 9.9882812 C 7.2261291 9.943591 7.0341651 10.025462 6.9394531 10.189453 L 6.28125 11.328125 C 6.1946429 11.478266 6.2183428 11.651205 6.3085938 11.78125 L 6.9394531 10.689453 C 7.0341651 10.525462 7.2261291 10.443591 7.4101562 10.488281 C 7.6036505 10.535287 7.8028355 10.559481 8.0019531 10.560547 C 9.1348852 10.559397 10.127442 9.8182442 10.451172 8.7324219 C 10.505093 8.55157 10.672609 8.4257649 10.861328 8.4257812 L 12.175781 8.4257812 C 12.33413 8.425766 12.461473 8.5168326 12.535156 8.640625 C 12.552341 8.5722993 12.579542 8.5090572 12.59375 8.4394531 C 12.647769 8.1749208 12.445772 7.9257552 12.175781 7.9257812 L 10.861328 7.9257812 z M 0.92773438 11.232422 C 0.78193161 11.459317 0.86837651 11.65575 1.0722656 12 C 1.3543877 12.501444 1.4742692 12.664464 2.1171875 12.386719 L 2.3457031 12.291016 C 2.8046355 12.114338 2.9819056 12.022111 3.3378906 12.429688 L 3.3339844 12.417969 C 3.4138325 12.502209 3.4977908 12.584215 3.5820312 12.664062 L 3.5703125 12.662109 C 3.6820726 12.759723 3.7497265 12.843565 3.7949219 12.923828 C 3.8982652 12.627932 3.8988437 12.449055 3.5703125 12.162109 L 3.5820312 12.164062 C 3.4977908 12.084215 3.4138325 12.002209 3.3339844 11.917969 L 3.3378906 11.929688 C 2.9819056 11.522111 2.8046355 11.614338 2.3457031 11.791016 L 2.1171875 11.886719 C 1.4742692 12.164464 1.3543877 12.001444 1.0722656 11.5 C 1.0113847 11.397208 0.96655167 11.313322 0.92773438 11.232422 z M 15.072266 11.232422 C 15.033448 11.313336 14.988615 11.397208 14.927734 11.5 C 14.64561 12.001445 14.525731 12.164463 13.882812 11.886719 L 13.654297 11.791016 C 13.195363 11.614337 13.018096 11.522111 12.662109 11.929688 L 12.664062 11.917969 C 12.584214 12.002209 12.50221 12.086168 12.417969 12.166016 L 12.429688 12.162109 C 12.101157 12.449055 12.101734 12.627933 12.205078 12.923828 C 12.250274 12.843564 12.317928 12.759723 12.429688 12.662109 L 12.417969 12.666016 C 12.50221 12.586168 12.584214 12.502209 12.664062 12.417969 L 12.662109 12.429688 C 13.018096 12.022111 13.195363 12.114337 13.654297 12.291016 L 13.882812 12.386719 C 14.525731 12.664463 14.64561 12.501445 14.927734 12 C 15.131623 11.65575 15.218068 11.459378 15.072266 11.232422 z M 5.8085938 13.599609 C 5.5822021 13.61343 5.4641802 13.775535 5.2480469 14.042969 L 5.0976562 14.240234 C 4.6797448 14.802228 4.4950473 14.720936 4 14.427734 C 3.7743497 14.300779 3.6282172 14.203602 3.5488281 14.080078 C 3.4010938 14.537208 3.5613261 14.680927 4 14.927734 C 4.4950473 15.220936 4.6797448 15.302228 5.0976562 14.740234 L 5.2480469 14.542969 C 5.5362246 14.18639 5.6491715 14.016388 6.078125 14.136719 C 6.0940576 14.141732 6.1109683 14.147457 6.1269531 14.152344 C 6.1436569 14.157561 6.1600955 14.161932 6.1777344 14.167969 L 6.1757812 14.166016 C 6.2807895 14.197214 6.3869958 14.226069 6.4941406 14.251953 C 6.4941406 14.251953 6.4960938 14.251953 6.4960938 14.251953 C 6.5022146 14.253234 6.5075611 14.256546 6.5136719 14.257812 C 6.5421344 14.264587 6.5710042 14.27095 6.5996094 14.277344 C 7.0264784 14.3879 7.0403162 14.591792 7.1113281 15.042969 L 7.1425781 15.289062 C 7.2235023 15.984718 7.4246734 16.006398 8 16 C 8.575325 16.006399 8.7764977 15.984718 8.8574219 15.289062 L 8.8886719 15.042969 C 8.9596863 14.59179 8.97352 14.387899 9.4003906 14.277344 C 9.428995 14.270944 9.4578664 14.264588 9.4863281 14.257812 C 9.4924441 14.256546 9.4977809 14.253239 9.5039062 14.251953 C 9.5039062 14.251953 9.5058594 14.251953 9.5058594 14.251953 C 9.6130058 14.226069 9.7192097 14.197214 9.8242188 14.166016 L 9.8222656 14.167969 C 9.8399045 14.161944 9.8563414 14.157558 9.8730469 14.152344 C 9.8890308 14.147461 9.9059432 14.141734 9.921875 14.136719 C 10.350829 14.016389 10.463775 14.186392 10.751953 14.542969 L 10.902344 14.740234 C 11.320254 15.302227 11.504952 15.220939 12 14.927734 C 12.438855 14.680827 12.597285 14.537634 12.449219 14.080078 C 12.369787 14.203454 12.225526 14.30085 12 14.427734 C 11.504952 14.720939 11.320254 14.802227 10.902344 14.240234 L 10.751953 14.042969 C 10.463775 13.686392 10.350829 13.516389 9.921875 13.636719 C 9.9059432 13.641734 9.8890308 13.647461 9.8730469 13.652344 C 9.8563414 13.657558 9.8399045 13.661944 9.8222656 13.667969 L 9.8242188 13.666016 C 9.7192097 13.697214 9.6130058 13.726069 9.5058594 13.751953 C 9.5058594 13.751953 9.5039062 13.751953 9.5039062 13.751953 C 9.4977809 13.753239 9.4924441 13.756546 9.4863281 13.757812 C 9.4578664 13.764588 9.428995 13.770944 9.4003906 13.777344 C 8.97352 13.887899 8.9596863 14.09179 8.8886719 14.542969 L 8.8574219 14.789062 C 8.7764977 15.484718 8.575325 15.506399 8 15.5 C 7.4246734 15.506398 7.2235023 15.484718 7.1425781 14.789062 L 7.1113281 14.542969 C 7.0403162 14.091792 7.0264784 13.8879 6.5996094 13.777344 C 6.5710042 13.77095 6.5421344 13.764587 6.5136719 13.757812 C 6.5075611 13.756546 6.5022146 13.753234 6.4960938 13.751953 C 6.4960938 13.751953 6.4941406 13.751953 6.4941406 13.751953 C 6.3869958 13.726069 6.2807895 13.697214 6.1757812 13.666016 L 6.1777344 13.667969 C 6.1600955 13.661932 6.1436569 13.657561 6.1269531 13.652344 C 6.1109683 13.647457 6.0940576 13.641732 6.078125 13.636719 C 5.9708866 13.606636 5.8840576 13.595002 5.8085938 13.599609 z "
       transform="matrix(12.266667,0,0,12.266667,53.866666,57.866668)"
       id="path836" />
  </g>
</svg>
