<?xml version="1.0" encoding="UTF-8"?>
<!-- Created with Inkscape (http://www.inkscape.org/) -->
<svg id="svg3334" width="16" height="16" version="1.0" xmlns="http://www.w3.org/2000/svg" xmlns:cc="http://creativecommons.org/ns#" xmlns:dc="http://purl.org/dc/elements/1.1/" xmlns:rdf="http://www.w3.org/1999/02/22-rdf-syntax-ns#" xmlns:xlink="http://www.w3.org/1999/xlink">
 <metadata id="metadata26">
  <rdf:RDF>
   <cc:Work rdf:about="">
    <dc:format>image/svg+xml</dc:format>
    <dc:type rdf:resource="http://purl.org/dc/dcmitype/StillImage"/>
    <dc:title/>
   </cc:Work>
  </rdf:RDF>
 </metadata>
 <defs id="defs3336">
  <linearGradient id="linearGradient2519" x1="-51.786" x2="-51.786" y1="50.786" y2="2.9062" gradientTransform="matrix(.25379 0 0 .30502 19.129 -.68549)" gradientUnits="userSpaceOnUse">
   <stop id="stop3106" style="stop-color:#aaa" offset="0"/>
   <stop id="stop3108" style="stop-color:#c8c8c8" offset="1"/>
  </linearGradient>
  <linearGradient id="linearGradient2517" x1="25.132" x2="25.132" y1=".98521" y2="47.013" gradientTransform="matrix(.31429 0 0 .32593 .45711 -.32225)" gradientUnits="userSpaceOnUse">
   <stop id="stop3602" style="stop-color:#f4f4f4" offset="0"/>
   <stop id="stop3604" style="stop-color:#dbdbdb" offset="1"/>
  </linearGradient>
  <linearGradient id="linearGradient2511" x1="24" x2="24" y1="2" y2="46.017" gradientTransform="matrix(.27273 0 0 .30232 1.4546 .7442)" gradientUnits="userSpaceOnUse">
   <stop id="stop3213" style="stop-color:#fff" offset="0"/>
   <stop id="stop3215" style="stop-color:#fff;stop-opacity:0" offset="1"/>
  </linearGradient>
  <linearGradient id="linearGradient2507" x1="32.892" x2="36.358" y1="8.059" y2="5.4565" gradientTransform="matrix(.3092 0 0 .37669 .47615 .10718)" gradientUnits="userSpaceOnUse">
   <stop id="stop8591" style="stop-color:#fefefe" offset="0"/>
   <stop id="stop8593" style="stop-color:#cbcbcb" offset="1"/>
  </linearGradient>
  <linearGradient id="linearGradient5530" x1="24.139" x2="24.139" y1="7.0479" y2="39.268" gradientTransform="matrix(.20131 0 0 .19992 7.4133 7.3089)" gradientUnits="userSpaceOnUse">
   <stop id="stop3945" style="stop-color:#fff" offset="0"/>
   <stop id="stop3947" style="stop-color:#fff;stop-opacity:0" offset="1"/>
  </linearGradient>
  <radialGradient id="radialGradient3149" cx="69.448" cy="51.695" r="31" gradientTransform="matrix(0 .25031 -.27259 0 25.245 -8.0767)" gradientUnits="userSpaceOnUse">
   <stop id="stop3244-5" style="stop-color:#eef87e" offset="0"/>
   <stop id="stop3246-9" style="stop-color:#cde34f" offset=".26238"/>
   <stop id="stop3248-7" style="stop-color:#93b723" offset=".66094"/>
   <stop id="stop3250-8" style="stop-color:#5a7e0d" offset="1"/>
  </radialGradient>
  <linearGradient id="linearGradient3151" x1="72.422" x2="72.422" y1="124.76" y2="51.244" gradientTransform="matrix(.10408 0 0 .10482 2.8406 2.7754)" gradientUnits="userSpaceOnUse">
   <stop id="stop2492-3" style="stop-color:#365f0e" offset="0"/>
   <stop id="stop2494-8" style="stop-color:#84a718" offset="1"/>
  </linearGradient>
 </defs>
 <g id="layer1">
  <path id="path4160" d="m1.5 0.49997h8.4412c0.44218 0.16179 2.9385 2.1328 3.5588 3.4091 0 3.9062 2.6e-5 7.6847 2.6e-5 11.591h-12v-15z" style="fill:url(#linearGradient2517);stroke-linejoin:round;stroke-width:.99992;stroke:url(#linearGradient2519)"/>
  <path id="path2435" d="m12.5 4.2151v10.285h-10v-13h7.2363" style="fill:none;opacity:.6;stroke:url(#linearGradient2511)"/>
  <path id="path3330" d="m9.2941 0.8409c0.84791 2.8039-0.29412 4.1932-0.29412 4.1932s1.8928-1.2514 4.1714-0.1023c1.9429 0.97981 0.036075-1.008-0.041459-1.129-0.54295-0.8475-2.4224-2.6331-3.1046-2.9302-0.055632-0.024226-0.44382-0.031684-0.73114-0.031684z" style="fill-rule:evenodd;fill:#c1c1c1"/>
  <path id="path4474" d="m9.2941 0.8409c0.98752 0 0.70588 3.181 0.70588 3.181s2.2725-0.50073 3.1714 0.90989c0.16288 0.25561 0.036075-1.008-0.041459-1.129-0.54295-0.8475-2.4224-2.6331-3.1046-2.9302-0.055632-0.024226-0.44382-0.031684-0.73114-0.031684z" style="fill-rule:evenodd;fill:url(#linearGradient2507)"/>
 </g>
 <path id="path2262" d="m10.5 10.5v-2.0073h3v2.0073h2.0073v3h-2.0073v2.0073h-3v-2.0073h-2.0073v-3h2.0073z" style="color:#000000;fill:url(#radialGradient3149);stroke-linecap:round;stroke-linejoin:round;stroke-width:.98543;stroke:url(#linearGradient3151)"/>
 <path id="path2272" d="m11.5 11.5v-2h1v2h2v1h-2v2.2925h-1v-2.2925h-2v-1h2z" style="fill:none;opacity:.4;stroke:url(#linearGradient5530)"/>
</svg>
