<?xml version="1.0" encoding="UTF-8"?>
<!-- Created with Inkscape (http://www.inkscape.org/) -->
<svg id="svg3150" width="16" height="16" version="1.1" xmlns="http://www.w3.org/2000/svg" xmlns:xlink="http://www.w3.org/1999/xlink">
 <defs id="defs3152">
  <linearGradient id="linearGradient3931">
   <stop id="stop3933" style="stop-color:#8d8f8a" offset="0"/>
   <stop id="stop3935" style="stop-color:#c1c1c1" offset="1"/>
  </linearGradient>
  <linearGradient id="linearGradient4547" x1="-53.179" x2="-52.184" y1="16.54" y2="5.3934" gradientTransform="matrix(.30004 0 0 .31205 22.157 -.37413)" gradientUnits="userSpaceOnUse" xlink:href="#linearGradient3931"/>
  <linearGradient id="linearGradient3600">
   <stop id="stop3602" style="stop-color:#f4f4f4" offset="0"/>
   <stop id="stop3604" style="stop-color:#dbdbdb" offset="1"/>
  </linearGradient>
  <linearGradient id="linearGradient4545" x1="25.132" x2="25.132" y1="6.7287" y2="47.013" gradientTransform="matrix(.37156 0 0 .33344 .082453 -.0025171)" gradientUnits="userSpaceOnUse" xlink:href="#linearGradient3600"/>
  <linearGradient id="linearGradient2837" x1="25.132" x2="25.132" y1="6.7287" y2="47.013" gradientTransform="matrix(.37156 0 0 .33344 -5.9175 -4.0025)" gradientUnits="userSpaceOnUse" xlink:href="#linearGradient3600"/>
  <linearGradient id="linearGradient2839" x1="-51.786" x2="-51.786" y1="50.786" y2="2.9062" gradientTransform="matrix(.30004 0 0 .31205 16.157 -4.3741)" gradientUnits="userSpaceOnUse" xlink:href="#linearGradient3931"/>
 </defs>
 <g id="layer1">
  <path id="path2835" d="m0.49997 0.5h9l0.0024 11.002-9.0047 0.0597 0.002347-11.062z" style="fill:url(#linearGradient2837);stroke-linejoin:round;stroke-width:.99525;stroke:url(#linearGradient2839)"/>
  <path id="rect2594" d="m6.5 4.5h9l0.0024 11.002-9.0047 0.0597 0.0023472-11.062z" style="fill:url(#linearGradient4545);stroke-linejoin:round;stroke-width:.99525;stroke:url(#linearGradient4547)"/>
  <path id="path3639" d="m8.5746 6.5299 4.9254 5e-7m-4.9254 6h3.9254m-3.9254-4 2.9254 1.493e-4m-2.9254 1.9999h4.9254m-10.925-8 4.5224 5e-7m-4.5224 6 2.9254 5e-7m-2.9254-4 2.9254 5e-7m-2.9254 2 2.9254 5e-7" style="fill:none;opacity:.2;stroke-linecap:square;stroke-linejoin:round;stroke-width:.995;stroke:#000"/>
 </g>
</svg>
