<?xml version="1.0" encoding="UTF-8" standalone="no"?>
<svg
   xmlns:dc="http://purl.org/dc/elements/1.1/"
   xmlns:cc="http://creativecommons.org/ns#"
   xmlns:rdf="http://www.w3.org/1999/02/22-rdf-syntax-ns#"
   xmlns:svg="http://www.w3.org/2000/svg"
   xmlns="http://www.w3.org/2000/svg"
   xmlns:xlink="http://www.w3.org/1999/xlink"
   xmlns:sodipodi="http://sodipodi.sourceforge.net/DTD/sodipodi-0.dtd"
   xmlns:inkscape="http://www.inkscape.org/namespaces/inkscape"
   width="16"
   height="16"
   version="1"
   id="svg10"
   sodipodi:docname="entry-new.svg"
   inkscape:version="0.92.4 (5da689c313, 2019-01-14)">
  <metadata
     id="metadata16">
    <rdf:RDF>
      <cc:Work
         rdf:about="">
        <dc:format>image/svg+xml</dc:format>
        <dc:type
           rdf:resource="http://purl.org/dc/dcmitype/StillImage" />
      </cc:Work>
    </rdf:RDF>
  </metadata>
  <defs
     id="defs14">
    <linearGradient
       gradientUnits="userSpaceOnUse"
       y2="224.68"
       y1="235.03"
       x2="31.341"
       x1="31.341"
       id="linearGradient4884">
      <stop
         offset="0"
         style="stop-color:#555753"
         id="stop4024-2-8" />
      <stop
         offset="1"
         style="stop-color:#babdb6"
         id="stop4026-8-3" />
    </linearGradient>
    <linearGradient
       gradientUnits="userSpaceOnUse"
       y2="220"
       y1="234"
       x2="33"
       x1="33"
       id="linearGradient3655">
      <stop
         offset="0"
         style="stop-color:#bb2b12"
         id="stop2605" />
      <stop
         offset="1"
         style="stop-color:#cd7233"
         id="stop2607" />
    </linearGradient>
    <linearGradient
       gradientUnits="userSpaceOnUse"
       y2="234"
       y1="221"
       x2="30"
       x1="30"
       id="linearGradient3663">
      <stop
         offset="0"
         style="stop-color:#f0c178"
         id="stop2612" />
      <stop
         offset=".5"
         style="stop-color:#e18941"
         id="stop2614" />
      <stop
         offset="1"
         style="stop-color:#ec4f18"
         id="stop2616" />
    </linearGradient>
    <linearGradient
       gradientTransform="matrix(0,-0.39447799,-0.42344634,0,16.496307,18.346218)"
       gradientUnits="userSpaceOnUse"
       xlink:href="#linearGradient4087-5"
       id="linearGradient3842"
       y2="15.991243"
       x2="20.576487"
       y1="15.991243"
       x1="38.940514" />
    <linearGradient
       id="linearGradient4087-5">
      <stop
         offset="0"
         style="stop-color:#ffffff;stop-opacity:1"
         id="stop4089-8" />
      <stop
         offset="0.51153916"
         style="stop-color:#ffffff;stop-opacity:0.23529412"
         id="stop4091-2" />
      <stop
         offset="0.58522105"
         style="stop-color:#ffffff;stop-opacity:0.15686275"
         id="stop4093-6" />
      <stop
         offset="1"
         style="stop-color:#ffffff;stop-opacity:0.39215687"
         id="stop4095-0" />
    </linearGradient>
    <linearGradient
       id="linearGradient3846">
      <stop
         offset="0"
         style="stop-color:#fff3cb;stop-opacity:1"
         id="stop3848" />
      <stop
         offset="0.26238"
         style="stop-color:#fdde76;stop-opacity:1"
         id="stop3850" />
      <stop
         offset="0.66093999"
         style="stop-color:#f9c440;stop-opacity:1"
         id="stop3852" />
      <stop
         offset="1"
         style="stop-color:#e48b20;stop-opacity:1"
         id="stop3854" />
    </linearGradient>
    <linearGradient
       gradientTransform="matrix(-0.47095072,0,0,0.43873263,21.62465,-3.8158265)"
       gradientUnits="userSpaceOnUse"
       xlink:href="#linearGradient3846"
       id="linearGradient3877"
       y2="33.875889"
       x2="23.731871"
       y1="4.4175272"
       x1="23.731871" />
    <clipPath
       id="clipPath983"
       clipPathUnits="userSpaceOnUse">
      <path
         style="color:#000000;display:inline;overflow:visible;visibility:visible;opacity:1;fill:#46a926;fill-opacity:1;fill-rule:nonzero;stroke:none;stroke-width:2;stroke-miterlimit:4;stroke-dasharray:none;stroke-opacity:1;marker:none;enable-background:accumulate"
         d="m 325.09646,237 c -2.80769,0 -3.10979,0.28839 -3.09603,3.10176 V 244 v 3.89824 c -0.0138,2.81337 0.28834,3.10176 3.09603,3.10176 h 5.8075 C 333.71166,251 334,250.71165 334,247.89824 V 244 240.10176 C 334,237.28836 333.71165,237 330.90396,237 Z"
         id="path985"
         inkscape:connector-curvature="0"
         sodipodi:nodetypes="scccssscsss" />
    </clipPath>
  </defs>
  <sodipodi:namedview
     pagecolor="#ffffff"
     bordercolor="#666666"
     borderopacity="1"
     objecttolerance="10"
     gridtolerance="10"
     guidetolerance="10"
     inkscape:pageopacity="0"
     inkscape:pageshadow="2"
     inkscape:window-width="1920"
     inkscape:window-height="1016"
     id="namedview12"
     showgrid="false"
     inkscape:zoom="14.75"
     inkscape:cx="-22"
     inkscape:cy="8"
     inkscape:window-x="0"
     inkscape:window-y="27"
     inkscape:window-maximized="1"
     inkscape:current-layer="g860" />
  <g
     id="g945"
     transform="translate(-28.203447,-12)">
    <g
       id="g860"
       transform="matrix(-1,0,0,1,72.106894,-0.2)">
      <path
         transform="translate(28.203447,12)"
         inkscape:connector-curvature="0"
         id="path2"
         d="M 5.0007327,5.0007319 3.6750492,6.3264156 7.2236331,9.8749995 H 8.9375003 V 11.75 H 10.8125 v 0.9375 0.9375 h 0.9375 0.9375 v 1.713867 L 12.848633,15.5 H 15.5 Z"
         style="fill:#e8973e;stroke-width:0.9375" />
      <path
         transform="translate(28.203447,12)"
         inkscape:connector-curvature="0"
         id="path4"
         d="M 6.3256838,3.674316 5.0000003,4.9999995 15.5,15.5 v -2.651367 z"
         style="fill:#fdc92b;fill-opacity:1;stroke-width:0.9375" />
      <circle
         transform="translate(28.203447,12)"
         id="circle6"
         r="4.6875"
         cy="5.1874995"
         cx="5.1875"
         style="fill:#fdc92b;fill-opacity:1;stroke-width:0.9375" />
      <circle
         transform="translate(28.203447,12)"
         id="circle8"
         r="1.875"
         cy="4.2499995"
         cx="4.25"
         style="fill:#ffffff;stroke-width:0.9375" />
      <path
         transform="translate(28.203447,12)"
         inkscape:connector-curvature="0"
         id="path891"
         d="M 5.1875003,0.49999951 A 4.6875,4.6875 0 0 0 0.50000031,5.1874995 4.6875,4.6875 0 0 0 0.509155,5.372436 4.6875,4.6875 0 0 1 5.1875003,0.96874951 4.6875,4.6875 0 0 1 9.8640137,5.4584956 4.6875,4.6875 0 0 0 9.8750003,5.1874995 4.6875,4.6875 0 0 0 5.1875003,0.49999951 Z M 9.6662594,7.0167232 A 4.6875,4.6875 0 0 1 9.5472409,7.3664546 L 15.5,13.317383 v -0.46875 z"
         style="opacity:0.3;fill:#ffffff;fill-opacity:1;stroke-width:0.9375" />
      <path
         transform="translate(28.203447,12)"
         inkscape:connector-curvature="0"
         id="path896"
         d="M 0.509155,4.903686 A 4.6875,4.6875 0 0 0 0.5,5.1874995 a 4.6875,4.6875 0 0 0 4.6875,4.6875 4.6875,4.6875 0 0 0 1.7120362,-0.324097 l 0.3240966,0.324097 H 8.9375 v -0.46875 H 7.2236331 L 6.8995365,9.0821528 A 4.6875,4.6875 0 0 1 5.1875003,9.4062495 4.6875,4.6875 0 0 1 0.509155,4.903686 Z m 9.3566897,0.08606 A 4.6875,4.6875 0 0 1 9.5472409,6.4289546 L 9.6662594,6.5479732 A 4.6875,4.6875 0 0 0 9.8750003,5.1874995 4.6875,4.6875 0 0 0 9.8658447,4.989746 Z M 8.9375003,11.28125 V 11.75 H 10.8125 v -0.46875 z m 1.8749997,1.875 V 13.625 H 11.75 12.6875 V 13.15625 H 11.75 Z m 1.875,1.713867 v 0.46875 L 12.848633,15.5 H 15.5 v -0.46875 h -2.651367 z"
         style="opacity:0.2;fill:#000000;fill-opacity:1;stroke-width:0.9375" />
      <g
         id="g849">
        <circle
           inkscape:export-ydpi="96"
           inkscape:export-xdpi="96"
           inkscape:export-filename="/home/stuart/yaru/icons/Suru/16x16/legacy/document-new.png"
           r="4.5"
           transform="rotate(90)"
           cy="-32.703445"
           cx="23.5"
           id="path4980-6-2-7-9-6"
           style="display:inline;opacity:1;fill:#45a925;fill-opacity:1;stroke:none;stroke-width:0.12499999;stroke-linecap:round;stroke-linejoin:round;stroke-miterlimit:4;stroke-dasharray:none;stroke-dashoffset:0;stroke-opacity:1;enable-background:new" />
        <path
           id="rect9617-7-7-9-1-1"
           transform="matrix(-1,0,0,1,43.903447,12.2)"
           d="M 11.033203 8.8007812 C 10.848536 8.8007812 10.699219 8.9186729 10.699219 9.0664062 L 10.699219 10.800781 L 8.9667969 10.800781 C 8.8190635 10.800781 8.6992188 10.948146 8.6992188 11.132812 L 8.6992188 11.466797 C 8.6992188 11.651464 8.8190635 11.800781 8.9667969 11.800781 L 10.699219 11.800781 L 10.699219 13.533203 C 10.699219 13.680936 10.848536 13.800781 11.033203 13.800781 L 11.367188 13.800781 C 11.551854 13.800781 11.699219 13.680936 11.699219 13.533203 L 11.699219 11.800781 L 13.433594 11.800781 C 13.581327 11.800781 13.699219 11.651464 13.699219 11.466797 L 13.699219 11.132812 C 13.699219 10.948146 13.581327 10.800781 13.433594 10.800781 L 11.699219 10.800781 L 11.699219 9.0664062 C 11.699219 8.9186729 11.551854 8.8007812 11.367188 8.8007812 L 11.033203 8.8007812 z "
           style="display:inline;opacity:1;fill:#f4f4f4;fill-opacity:1;stroke:none;stroke-width:0.13333334;stroke-linecap:round;stroke-linejoin:round;stroke-miterlimit:4;stroke-dasharray:none;stroke-dashoffset:0;stroke-opacity:1;enable-background:new" />
      </g>
    </g>
  </g>
</svg>
