<?xml version="1.0" encoding="UTF-8" standalone="no"?>
<svg
   xmlns:dc="http://purl.org/dc/elements/1.1/"
   xmlns:cc="http://creativecommons.org/ns#"
   xmlns:rdf="http://www.w3.org/1999/02/22-rdf-syntax-ns#"
   xmlns:svg="http://www.w3.org/2000/svg"
   xmlns="http://www.w3.org/2000/svg"
   xmlns:sodipodi="http://sodipodi.sourceforge.net/DTD/sodipodi-0.dtd"
   xmlns:inkscape="http://www.inkscape.org/namespaces/inkscape"
   width="16"
   height="16"
   version="1.1"
   id="svg8"
   sodipodi:docname="go-jump.svg"
   inkscape:version="0.92.4 (5da689c313, 2019-01-14)">
  <metadata
     id="metadata14">
    <rdf:RDF>
      <cc:Work
         rdf:about="">
        <dc:format>image/svg+xml</dc:format>
        <dc:type
           rdf:resource="http://purl.org/dc/dcmitype/StillImage" />
      </cc:Work>
    </rdf:RDF>
  </metadata>
  <defs
     id="defs12" />
  <sodipodi:namedview
     pagecolor="#ffffff"
     bordercolor="#666666"
     borderopacity="1"
     objecttolerance="10"
     gridtolerance="10"
     guidetolerance="10"
     inkscape:pageopacity="0"
     inkscape:pageshadow="2"
     inkscape:window-width="1920"
     inkscape:window-height="1016"
     id="namedview10"
     showgrid="false"
     inkscape:zoom="14.75"
     inkscape:cx="8"
     inkscape:cy="8"
     inkscape:window-x="0"
     inkscape:window-y="27"
     inkscape:window-maximized="1"
     inkscape:current-layer="svg8" />
  <g
     fill="#808080"
     color="#000"
     id="g6"
     style="fill:#fb7c38;fill-opacity:1">
    <path
       d="M7 1c-.658 0-1.179.06-1.617.225a1.88 1.88 0 0 0-.998.837c-.416.753-.37 1.674-.385 2.932V15h1V5c.015-1.259.06-2.09.262-2.455.1-.183.212-.287.472-.385C5.994 2.063 6.408 2 7 2h2c.592 0 1.006.063 1.266.16.26.098.371.202.472.385.202.366.247 1.196.262 2.455v4.5h1V4.994c-.015-1.258.03-2.179-.385-2.932a1.88 1.88 0 0 0-.998-.837C10.178 1.06 9.657 1 9 1z"
       font-family="sans-serif"
       font-weight="400"
       overflow="visible"
       id="path2"
       style="fill:#fb7c38;fill-opacity:1" />
    <path
       d="M14 8l-5 .001c.348.76.737 1.535 1.166 2.323.431.78.875 1.534 1.334 2.259.449-.725.889-1.478 1.32-2.26.43-.788.823-1.562 1.18-2.323z"
       overflow="visible"
       id="path4"
       style="fill:#fb7c38;fill-opacity:1" />
  </g>
</svg>
