<?xml version="1.0" encoding="UTF-8" standalone="no"?>
<svg
   xmlns:dc="http://purl.org/dc/elements/1.1/"
   xmlns:cc="http://creativecommons.org/ns#"
   xmlns:rdf="http://www.w3.org/1999/02/22-rdf-syntax-ns#"
   xmlns:svg="http://www.w3.org/2000/svg"
   xmlns="http://www.w3.org/2000/svg"
   xmlns:sodipodi="http://sodipodi.sourceforge.net/DTD/sodipodi-0.dtd"
   xmlns:inkscape="http://www.inkscape.org/namespaces/inkscape"
   height="16"
   width="16"
   version="1.1"
   id="svg1327"
   sodipodi:docname="gtk-open.svg"
   inkscape:version="0.92.4 (5da689c313, 2019-01-14)">
  <metadata
     id="metadata1333">
    <rdf:RDF>
      <cc:Work
         rdf:about="">
        <dc:format>image/svg+xml</dc:format>
        <dc:type
           rdf:resource="http://purl.org/dc/dcmitype/StillImage" />
        <dc:title />
      </cc:Work>
    </rdf:RDF>
  </metadata>
  <defs
     id="defs1331" />
  <sodipodi:namedview
     pagecolor="#ffffff"
     bordercolor="#666666"
     borderopacity="1"
     objecttolerance="10"
     gridtolerance="10"
     guidetolerance="10"
     inkscape:pageopacity="0"
     inkscape:pageshadow="2"
     inkscape:window-width="1920"
     inkscape:window-height="1011"
     id="namedview1329"
     showgrid="false"
     inkscape:zoom="22.627417"
     inkscape:cx="11.224543"
     inkscape:cy="5.6705859"
     inkscape:window-x="0"
     inkscape:window-y="32"
     inkscape:window-maximized="1"
     inkscape:current-layer="svg1327">
    <inkscape:grid
       type="xygrid"
       id="grid1878" />
  </sodipodi:namedview>
  <path
     style="opacity:0.6;fill:#000000;fill-opacity:1;stroke:none;stroke-width:1px;stroke-linecap:butt;stroke-linejoin:miter;stroke-opacity:1"
     d="M 1.5e-7,13 V 3 c 0,-1 1.00000005,-2 2.00000005,-2 h 3.9999999 c 1,0 1,0 2.0000001,1 1,1 1,1 1.9999998,1 h 4 c 1,0 2,1 2,2 v 8 c 0,1 -1,2 -2,2 H 2.0000002 C 1.0000001,15 1.5e-7,14 1.5e-7,13 Z"
     id="path819"
     inkscape:connector-curvature="0"
     sodipodi:nodetypes="cccccccccccc" />
  <path
     sodipodi:nodetypes="cccccccccccc"
     inkscape:connector-curvature="0"
     id="path823"
     d="M 1.0000002,12 V 4 c 0,-1.4971845 0.4971845,-2 1.9999999,-2 h 2.75 c 0.875,0 0.875,0.2857143 1.75,1.1428572 C 8.3750002,4 8.3750002,4 9.2500002,4 H 13 c 1.503906,0 2,0.4983259 2,2 v 6 c 0,1.497768 -0.5,2 -2,2 H 3.0000001 C 1.5000002,14 1.0000002,13.497768 1.0000002,12 Z"
     style="opacity:1;fill:#b3b3b3;fill-opacity:1;stroke:none;stroke-width:0.86602545px;stroke-linecap:butt;stroke-linejoin:miter;stroke-opacity:1" />
  <rect
     style="opacity:0.4;vector-effect:none;fill:#000000;fill-opacity:1;stroke:none;stroke-width:2;stroke-linecap:round;stroke-linejoin:round;stroke-miterlimit:4;stroke-dasharray:none;stroke-dashoffset:0;stroke-opacity:1"
     id="rect2081"
     width="10"
     height="11"
     x="4"
     y="5"
     ry="2"
     rx="2" />
  <rect
     style="opacity:1;vector-effect:none;fill:#ffffff;fill-opacity:1;stroke:none;stroke-width:2;stroke-linecap:round;stroke-linejoin:round;stroke-miterlimit:4;stroke-dasharray:none;stroke-dashoffset:0;stroke-opacity:1"
     id="rect2085"
     width="8"
     height="9"
     x="5"
     y="6"
     rx="0"
     ry="1" />
  <rect
     style="opacity:1;vector-effect:none;fill:#a7a7f1;fill-opacity:1;stroke:none;stroke-width:2;stroke-linecap:round;stroke-linejoin:round;stroke-miterlimit:4;stroke-dasharray:none;stroke-dashoffset:0;stroke-opacity:1"
     id="rect2098"
     width="6"
     height="1"
     x="6"
     y="7" />
  <rect
     style="opacity:1;vector-effect:none;fill:#a7a7f1;fill-opacity:1;stroke:none;stroke-width:2;stroke-linecap:round;stroke-linejoin:round;stroke-miterlimit:4;stroke-dasharray:none;stroke-dashoffset:0;stroke-opacity:1"
     id="rect2100"
     width="6"
     height="1"
     x="6"
     y="9" />
  <rect
     style="opacity:1;vector-effect:none;fill:#a7a7f1;fill-opacity:1;stroke:none;stroke-width:2;stroke-linecap:round;stroke-linejoin:round;stroke-miterlimit:4;stroke-dasharray:none;stroke-dashoffset:0;stroke-opacity:1"
     id="rect2102"
     width="3"
     height="1"
     x="6"
     y="11" />
</svg>
