<?xml version="1.0" encoding="UTF-8" standalone="no"?>
<svg
   xmlns:dc="http://purl.org/dc/elements/1.1/"
   xmlns:cc="http://creativecommons.org/ns#"
   xmlns:rdf="http://www.w3.org/1999/02/22-rdf-syntax-ns#"
   xmlns:svg="http://www.w3.org/2000/svg"
   xmlns="http://www.w3.org/2000/svg"
   xmlns:xlink="http://www.w3.org/1999/xlink"
   xmlns:sodipodi="http://sodipodi.sourceforge.net/DTD/sodipodi-0.dtd"
   xmlns:inkscape="http://www.inkscape.org/namespaces/inkscape"
   width="16"
   height="16"
   version="1.1"
   id="svg4"
   sodipodi:docname="document-print.svg"
   inkscape:version="0.92.4 (5da689c313, 2019-01-14)">
  <metadata
     id="metadata10">
    <rdf:RDF>
      <cc:Work
         rdf:about="">
        <dc:format>image/svg+xml</dc:format>
        <dc:type
           rdf:resource="http://purl.org/dc/dcmitype/StillImage" />
      </cc:Work>
    </rdf:RDF>
  </metadata>
  <defs
     id="defs8">
    <clipPath
       clipPathUnits="userSpaceOnUse"
       id="clipPath1193-6">
      <path
         style="color:#000000;display:inline;overflow:visible;visibility:visible;opacity:1;fill:url(#linearGradient1197);fill-opacity:1;fill-rule:nonzero;stroke:none;stroke-width:1.00000668;stroke-linecap:butt;stroke-linejoin:miter;stroke-miterlimit:4;stroke-dasharray:none;stroke-dashoffset:0;stroke-opacity:1;marker:none;enable-background:accumulate"
         d="m 324,239 c -1.25854,0.0147 -2.08718,0.0598 -2.45312,0.26172 -0.18343,0.10119 -0.28912,0.21275 -0.38672,0.47266 C 321.0626,239.99428 321,240.4076 321,241 v 5 c 0,0.5924 0.0626,1.00571 0.16016,1.26562 0.0976,0.25992 0.20329,0.37146 0.38672,0.47266 0.36594,0.20192 1.19459,0.24702 2.45312,0.26172 h 0.006 6.994 c 1.25853,-0.0147 2.08718,-0.0598 2.45312,-0.26172 0.18343,-0.10119 0.28912,-0.21275 0.38672,-0.47266 C 333.9374,247.00572 334,246.5924 334,246 v -5 c 0,-0.5924 -0.0627,-1.00571 -0.16016,-1.26562 -0.0976,-0.25992 -0.20329,-0.37146 -0.38672,-0.47266 C 333.08718,239.0598 332.25853,239.0147 331,239 Z"
         id="path1195-1"
         inkscape:connector-curvature="0" />
    </clipPath>
    <clipPath
       clipPathUnits="userSpaceOnUse"
       id="clipPath1193-6-3">
      <path
         style="color:#000000;display:inline;overflow:visible;visibility:visible;opacity:1;fill:url(#linearGradient1197);fill-opacity:1;fill-rule:nonzero;stroke:none;stroke-width:1.00000668;stroke-linecap:butt;stroke-linejoin:miter;stroke-miterlimit:4;stroke-dasharray:none;stroke-dashoffset:0;stroke-opacity:1;marker:none;enable-background:accumulate"
         d="m 324,239 c -1.25854,0.0147 -2.08718,0.0598 -2.45312,0.26172 -0.18343,0.10119 -0.28912,0.21275 -0.38672,0.47266 C 321.0626,239.99428 321,240.4076 321,241 v 5 c 0,0.5924 0.0626,1.00571 0.16016,1.26562 0.0976,0.25992 0.20329,0.37146 0.38672,0.47266 0.36594,0.20192 1.19459,0.24702 2.45312,0.26172 h 0.006 6.994 c 1.25853,-0.0147 2.08718,-0.0598 2.45312,-0.26172 0.18343,-0.10119 0.28912,-0.21275 0.38672,-0.47266 C 333.9374,247.00572 334,246.5924 334,246 v -5 c 0,-0.5924 -0.0627,-1.00571 -0.16016,-1.26562 -0.0976,-0.25992 -0.20329,-0.37146 -0.38672,-0.47266 C 333.08718,239.0598 332.25853,239.0147 331,239 Z"
         id="path1195-1-6"
         inkscape:connector-curvature="0" />
    </clipPath>
    <clipPath
       clipPathUnits="userSpaceOnUse"
       id="clipPath1193-6-36">
      <path
         style="color:#000000;display:inline;overflow:visible;visibility:visible;opacity:1;fill:url(#linearGradient1197);fill-opacity:1;fill-rule:nonzero;stroke:none;stroke-width:1.00000668;stroke-linecap:butt;stroke-linejoin:miter;stroke-miterlimit:4;stroke-dasharray:none;stroke-dashoffset:0;stroke-opacity:1;marker:none;enable-background:accumulate"
         d="m 324,239 c -1.25854,0.0147 -2.08718,0.0598 -2.45312,0.26172 -0.18343,0.10119 -0.28912,0.21275 -0.38672,0.47266 C 321.0626,239.99428 321,240.4076 321,241 v 5 c 0,0.5924 0.0626,1.00571 0.16016,1.26562 0.0976,0.25992 0.20329,0.37146 0.38672,0.47266 0.36594,0.20192 1.19459,0.24702 2.45312,0.26172 h 0.006 6.994 c 1.25853,-0.0147 2.08718,-0.0598 2.45312,-0.26172 0.18343,-0.10119 0.28912,-0.21275 0.38672,-0.47266 C 333.9374,247.00572 334,246.5924 334,246 v -5 c 0,-0.5924 -0.0627,-1.00571 -0.16016,-1.26562 -0.0976,-0.25992 -0.20329,-0.37146 -0.38672,-0.47266 C 333.08718,239.0598 332.25853,239.0147 331,239 Z"
         id="path1195-1-7"
         inkscape:connector-curvature="0" />
    </clipPath>
    <linearGradient
       inkscape:collect="always"
       xlink:href="#linearGradient1048"
       id="linearGradient1178"
       gradientUnits="userSpaceOnUse"
       x1="329"
       y1="239"
       x2="329"
       y2="249"
       gradientTransform="matrix(1.0714291,0,0,1,-343.96443,-236.00001)" />
    <linearGradient
       inkscape:collect="always"
       id="linearGradient1048">
      <stop
         style="stop-color:#cdcdcd;stop-opacity:1;"
         offset="0"
         id="stop1044" />
      <stop
         style="stop-color:#d9d9d9;stop-opacity:1"
         offset="1"
         id="stop1046" />
    </linearGradient>
  </defs>
  <sodipodi:namedview
     pagecolor="#ffffff"
     bordercolor="#666666"
     borderopacity="1"
     objecttolerance="10"
     gridtolerance="10"
     guidetolerance="10"
     inkscape:pageopacity="0"
     inkscape:pageshadow="2"
     inkscape:window-width="1920"
     inkscape:window-height="1016"
     id="namedview6"
     showgrid="false"
     inkscape:zoom="52.437499"
     inkscape:cx="8.0000068"
     inkscape:cy="8.0000001"
     inkscape:window-x="0"
     inkscape:window-y="27"
     inkscape:window-maximized="1"
     inkscape:current-layer="svg4" />
  <path
     style="color:#000000;display:inline;overflow:visible;visibility:visible;opacity:1;fill:url(#linearGradient1178);fill-opacity:1;fill-rule:nonzero;stroke:none;stroke-width:1.00000668;stroke-linecap:butt;stroke-linejoin:miter;stroke-miterlimit:4;stroke-dasharray:none;stroke-dashoffset:0;stroke-opacity:1;marker:none;enable-background:accumulate"
     d="M 15.500023,9.9999704 C 15.500023,12.5 14.451863,12.47084 11.749993,12.5 H 4.2500533 c -2.7019,-0.0291 -3.75002996,0 -3.75002996,-2.5000296 v -5.00013 c 0,-2.50002 1.04812996,-2.47087 3.75002996,-2.50002 h 7.4999397 c 2.70187,0.0291 3.75003,0 3.75003,2.50002 z"
     id="path1097"
     inkscape:connector-curvature="0"
     sodipodi:nodetypes="ccccccccc"
     inkscape:export-filename="/home/stuart/yaru/icons/Suru/16x16/legacy/document-print.png"
     inkscape:export-xdpi="96"
     inkscape:export-ydpi="96" />
  <path
     sodipodi:nodetypes="ccccccccc"
     inkscape:connector-curvature="0"
     id="path1010"
     d="M 15.499993,9.9999704 C 15.499993,12.5 14.451833,12.47084 11.749963,12.5 H 4.2500333 c -2.70189,-0.0291 -3.75002996,0 -3.75002996,-2.5000296 v -5.00013 c 0,-2.50002 1.04813996,-2.47087 3.75002996,-2.50002 h 7.4999297 c 2.70187,0.0291 3.75003,0 3.75003,2.50002 z"
     style="color:#000000;display:inline;overflow:visible;visibility:visible;opacity:0.3;fill:none;fill-opacity:1;fill-rule:nonzero;stroke:#000000;stroke-width:1.00000668;stroke-linecap:butt;stroke-linejoin:miter;stroke-miterlimit:4;stroke-dasharray:none;stroke-dashoffset:0;stroke-opacity:1;marker:none;enable-background:accumulate"
     inkscape:export-filename="/home/stuart/yaru/icons/Suru/16x16/legacy/document-print.png"
     inkscape:export-xdpi="96"
     inkscape:export-ydpi="96" />
  <path
     style="display:inline;opacity:0.2;fill:#000000;fill-opacity:1;stroke:none;stroke-width:1;stroke-linecap:round;stroke-linejoin:round;stroke-miterlimit:4;stroke-dasharray:none;stroke-dashoffset:0;stroke-opacity:0.88059698;enable-background:new"
     d="M 0.53321334,9.0000004 V 10 c 0,2.50003 1.04449996,2.4709 3.73437996,2.5 h 7.4648397 c 2.68986,-0.0292 3.73438,3e-5 3.73438,-2.5 V 9.0000004 Z"
     id="rect3279"
     inkscape:connector-curvature="0"
     inkscape:export-filename="/home/stuart/yaru/icons/Suru/16x16/legacy/document-print.png"
     inkscape:export-xdpi="96"
     inkscape:export-ydpi="96" />
  <path
     style="display:inline;opacity:1;fill:#939393;fill-opacity:1;stroke:none;stroke-width:2.95459342;stroke-linecap:round;stroke-linejoin:round;stroke-miterlimit:4;stroke-dasharray:none;stroke-opacity:1;enable-background:new"
     d="m 4.1111433,16 c -1.11111,0 -1.11111,0 -1.11111,-1 l -2e-5,-5 h 9.9999997 l 2e-5,5 c 0,1.00092 0,1 -1.11111,1 z M 3.0000333,5.0000004 v -4 c 0,-1.00000000309763 0,-1.00000000309763 1.11111,-1.00000000309763 h 7.7777797 c 1.11111,0 1.11111,-0.001999996902 1.11111,1.00000000309763 v 4 z"
     id="rect978-0-0"
     inkscape:connector-curvature="0"
     inkscape:export-filename="/home/stuart/yaru/icons/Suru/16x16/legacy/document-print.png"
     inkscape:export-xdpi="96"
     inkscape:export-ydpi="96"
     sodipodi:nodetypes="ssccssscsssscc" />
  <path
     style="display:inline;opacity:1;fill:#faf8f6;fill-opacity:1;stroke:none;stroke-width:2.95459342;stroke-linecap:round;stroke-linejoin:round;stroke-miterlimit:4;stroke-dasharray:none;stroke-opacity:1;enable-background:new"
     d="m 5.1428533,1.0000004 h -1.14284 l -10e-6,4 h 7.9999997 l 10e-6,-4 h -1.14288 z M 4.0000133,11 v 4 h 1.14284 5.7142797 1.14288 v -4 z"
     id="rect980-7-4"
     inkscape:connector-curvature="0"
     inkscape:export-filename="/home/stuart/yaru/icons/Suru/16x16/legacy/document-print.png"
     inkscape:export-xdpi="96"
     inkscape:export-ydpi="96"
     sodipodi:nodetypes="cccccccccccccc" />
  <rect
     style="display:inline;opacity:0.5;fill:#939393;fill-opacity:1;stroke:none;stroke-width:2.95459342;stroke-linecap:round;stroke-linejoin:round;stroke-miterlimit:4;stroke-dasharray:none;stroke-opacity:1;enable-background:new"
     id="rect1052-6-6-5-4"
     width="6"
     height="1"
     x="5.0000439"
     y="12"
     rx="0.19642857"
     ry="0.19444275"
     inkscape:export-filename="/home/stuart/yaru/icons/Suru/16x16/legacy/document-print.png"
     inkscape:export-xdpi="96"
     inkscape:export-ydpi="96" />
  <rect
     style="display:inline;opacity:1;fill:#46a926;fill-opacity:1;stroke:none;stroke-width:0.31032622;stroke-linecap:round;stroke-linejoin:round;stroke-miterlimit:4;stroke-dasharray:none;stroke-opacity:1;enable-background:new"
     id="rect2739-17-4"
     width="1"
     height="1"
     x="12.999983"
     y="7"
     rx="0.39285713"
     ry="0.39285713"
     inkscape:export-filename="/home/stuart/yaru/icons/Suru/16x16/legacy/document-print.png"
     inkscape:export-xdpi="96"
     inkscape:export-ydpi="96" />
  <rect
     style="display:inline;opacity:1;fill:#f34f17;fill-opacity:1;stroke:none;stroke-width:0.31032622;stroke-linecap:round;stroke-linejoin:round;stroke-miterlimit:4;stroke-dasharray:none;stroke-opacity:1;enable-background:new"
     id="rect2739-0-35-6"
     width="1"
     height="1"
     x="12.000013"
     y="7"
     rx="0.39285713"
     ry="0.39285713"
     inkscape:export-filename="/home/stuart/yaru/icons/Suru/16x16/legacy/document-print.png"
     inkscape:export-xdpi="96"
     inkscape:export-ydpi="96" />
  <rect
     style="display:inline;opacity:1;fill:#f22c42;fill-opacity:1;stroke:none;stroke-width:0.31032622;stroke-linecap:round;stroke-linejoin:round;stroke-miterlimit:4;stroke-dasharray:none;stroke-opacity:1;enable-background:new"
     id="rect2739-2-3-5"
     width="1"
     height="1"
     x="11.000013"
     y="7"
     rx="0.39285278"
     ry="0.39285713"
     inkscape:export-filename="/home/stuart/yaru/icons/Suru/16x16/legacy/document-print.png"
     inkscape:export-xdpi="96"
     inkscape:export-ydpi="96" />
  <rect
     style="display:inline;opacity:0.2;fill:#ffffff;fill-opacity:1;stroke:none;stroke-width:1;stroke-linecap:round;stroke-linejoin:round;stroke-miterlimit:4;stroke-dasharray:none;stroke-dashoffset:0;stroke-opacity:0.88059698;enable-background:new"
     id="rect3306"
     width="15"
     height="1"
     x="0.50001335"
     y="8"
     inkscape:export-filename="/home/stuart/yaru/icons/Suru/16x16/legacy/document-print.png"
     inkscape:export-xdpi="96"
     inkscape:export-ydpi="96" />
</svg>
