<?xml version="1.0" encoding="UTF-8" standalone="no"?>
<svg
   xmlns:osb="http://www.openswatchbook.org/uri/2009/osb"
   xmlns:dc="http://purl.org/dc/elements/1.1/"
   xmlns:cc="http://creativecommons.org/ns#"
   xmlns:rdf="http://www.w3.org/1999/02/22-rdf-syntax-ns#"
   xmlns:svg="http://www.w3.org/2000/svg"
   xmlns="http://www.w3.org/2000/svg"
   xmlns:sodipodi="http://sodipodi.sourceforge.net/DTD/sodipodi-0.dtd"
   xmlns:inkscape="http://www.inkscape.org/namespaces/inkscape"
   height="16"
   id="svg7384"
   version="1.1"
   width="16.01465"
   sodipodi:docname="gtk-properties.svg"
   inkscape:version="0.92.4 (5da689c313, 2019-01-14)">
  <sodipodi:namedview
     pagecolor="#ffffff"
     bordercolor="#666666"
     borderopacity="1"
     objecttolerance="10"
     gridtolerance="10"
     guidetolerance="10"
     inkscape:pageopacity="0"
     inkscape:pageshadow="2"
     inkscape:window-width="1920"
     inkscape:window-height="1011"
     id="namedview1020"
     showgrid="false"
     inkscape:zoom="22.627417"
     inkscape:cx="-2.2150132"
     inkscape:cy="8.7030349"
     inkscape:window-x="0"
     inkscape:window-y="32"
     inkscape:window-maximized="1"
     inkscape:current-layer="svg7384"
     showborder="false">
    <inkscape:grid
       type="xygrid"
       id="grid1584" />
  </sodipodi:namedview>
  <metadata
     id="metadata20854">
    <rdf:RDF>
      <cc:Work
         rdf:about="">
        <dc:title />
        <dc:format>image/svg+xml</dc:format>
        <dc:type
           rdf:resource="http://purl.org/dc/dcmitype/StillImage" />
      </cc:Work>
    </rdf:RDF>
  </metadata>
  <defs
     id="defs7386">
    <linearGradient
       id="linearGradient5606"
       osb:paint="solid">
      <stop
         id="stop5608"
         offset="0"
         style="stop-color:#000000;stop-opacity:1;" />
    </linearGradient>
    <linearGradient
       id="linearGradient4526"
       osb:paint="solid">
      <stop
         id="stop4528"
         offset="0"
         style="stop-color:#ffffff;stop-opacity:1;" />
    </linearGradient>
    <linearGradient
       id="linearGradient3600-4"
       osb:paint="gradient">
      <stop
         id="stop3602-7"
         offset="0"
         style="stop-color:#f4f4f4;stop-opacity:1" />
      <stop
         id="stop3604-6"
         offset="1"
         style="stop-color:#dbdbdb;stop-opacity:1" />
    </linearGradient>
  </defs>
  <g
     id="layer9"
     label="status"
     style="display:inline"
     transform="translate(-733.0002,-93)" />
  <g
     id="layer2"
     style="display:inline"
     transform="translate(-492,-460)" />
  <g
     id="layer4"
     style="display:inline"
     transform="translate(-492,-460)" />
  <g
     id="g1812"
     style="display:inline"
     transform="translate(-492,-460)" />
  <g
     id="g6217"
     style="display:inline"
     transform="translate(-492,-460)" />
  <g
     id="layer3"
     style="display:inline;stroke-width:1.13426304;fill:#c8c4b7;fill-opacity:1"
     transform="matrix(0.875,0,0,0.88830965,-429.51282,-407.73081)" />
  <g
     id="g1833"
     style="display:inline"
     transform="translate(-492,-460)" />
  <g
     id="layer1"
     style="display:inline"
     transform="translate(-492,-460)" />
  <g
     id="layer3-3"
     style="display:inline;fill:#808080;fill-opacity:1;stroke-width:1.13426304"
     transform="matrix(0.875,0,0,0.88830965,-409.57532,-404.29331)" />
  <path
     style="color:#000000;font-style:normal;font-variant:normal;font-weight:normal;font-stretch:normal;font-size:medium;line-height:normal;font-family:sans-serif;font-variant-ligatures:normal;font-variant-position:normal;font-variant-caps:normal;font-variant-numeric:normal;font-variant-alternates:normal;font-feature-settings:normal;text-indent:0;text-align:start;text-decoration:none;text-decoration-line:none;text-decoration-style:solid;text-decoration-color:#000000;letter-spacing:normal;word-spacing:normal;text-transform:none;writing-mode:lr-tb;direction:ltr;text-orientation:mixed;dominant-baseline:auto;baseline-shift:baseline;text-anchor:start;white-space:normal;shape-padding:0;clip-rule:nonzero;display:inline;overflow:visible;visibility:visible;opacity:0.6;isolation:auto;mix-blend-mode:normal;color-interpolation:sRGB;color-interpolation-filters:linearRGB;solid-color:#000000;solid-opacity:1;vector-effect:none;fill:#000000;fill-opacity:1;fill-rule:nonzero;stroke:none;stroke-width:2;stroke-linecap:round;stroke-linejoin:round;stroke-miterlimit:4;stroke-dasharray:none;stroke-dashoffset:0;stroke-opacity:1;color-rendering:auto;image-rendering:auto;shape-rendering:auto;text-rendering:auto;enable-background:accumulate"
     d="m 6.8418051,-4.3326041e-4 c -0.552262,5.53e-5 -0.9999448,0.44773820041 -1,1.00000000041 V 1.3530823 C 5.6993387,1.3992964 5.5591436,1.4501674 5.4199301,1.5054262 L 5.2011801,1.2398011 C 4.8437668,0.80819974 4.2015223,0.75445914 3.777352,1.1206605 L 2.0234457,2.6343324 C 1.6114976,2.9898829 1.5594247,3.60955 1.9062582,4.0288636 L 2.0976644,4.2593323 C 2.006226,4.4036881 1.9185372,4.5500676 1.8378988,4.7007386 L 1.5605551,4.6519105 C 1.0123666,4.5541452 0.48989855,4.9229461 0.39844565,5.4722229 l -0.3847657,2.3046876 c -0.089764,0.5401537 0.2715334,1.0520635 0.8105469,1.1484374 l 0.24804695,0.044922 c 0.014739,0.095902 0.032069,0.1919039 0.050781,0.2871094 l 0.056641,0.2773443 C 0.54078025,9.7007765 0.23518065,10.429365 0.56446125,11.00152 L 1.730477,13.019097 c 0.2772041,0.479123 0.8908677,0.641949 1.3691406,0.363281 l 0.3261718,-0.191406 c 0.1057782,0.09315 0.2130113,0.182938 0.3242188,0.269532 l -0.1445312,0.40039 c -0.1857732,0.518242 0.082233,1.089174 0.5996093,1.277344 l 2.1699218,0.787109 c 0.521075,0.189255 1.096671,-0.08146 1.283203,-0.603515 l 0.128906,-0.359375 c 0.140313,0.0042 0.279506,0.02577 0.419922,0.02148 l 0.126953,0.353516 c 0.188807,0.526059 0.77211,0.795276 1.294922,0.597656 L 11.787117,15.12066 c 0.510661,-0.192901 0.772305,-0.759651 0.587891,-1.273438 l -0.113281,-0.30664 0.375044,-0.30273 0.257812,0.150391 c 0.483421,0.285147 1.106792,0.11674 1.38086,-0.373047 l 1.138671,-2.033202 c 0.264835,-0.474899 0.10176,-1.0743738 -0.367187,-1.3496098 l -0.21875,-0.1289063 c 0.03903,-0.1759468 0.07622,-0.352782 0.101563,-0.53125 6e-6,-0.00195 6e-6,-0.00391 0,-0.00586 l 0.24414,-0.042969 c 0.545305,-0.096187 0.908664,-0.6171483 0.810547,-1.1621093 L 15.57032,5.4605042 C 15.47223,4.9176922 14.95316,4.5567926 14.410164,4.6538636 l -0.25,0.044922 c -0.08184,-0.152781 -0.166801,-0.3048729 -0.259765,-0.451172 v -0.00195 L 14.089852,4.0171448 C 14.439058,3.593546 14.381523,2.96764 13.960946,2.6148012 L 12.187508,1.1245667 C 11.762427,0.76875034 11.129029,0.82657094 10.775399,1.2534729 L 10.572274,1.5015199 10.144539,1.3491761 V 0.99956674 C 10.144484,0.44730494 9.6968011,-3.7786041e-4 9.1445391,-4.3326041e-4 Z M 7.8476641,5.0034729 c 1.653966,-0.084136 3.0632429,1.1878858 3.1484379,2.8417969 v 0.00195 C 11.080222,9.5019128 9.8070401,10.911505 8.1523521,10.995661 6.4976621,11.079778 5.0880706,9.8065984 5.0039144,8.1519105 4.9197973,6.4972207 6.1929761,5.0876293 7.8476641,5.0034729 Z"
     id="path2172-5"
     inkscape:connector-curvature="0"
     sodipodi:nodetypes="ccccccccccccccccccccccccccccccccccccccccccccccccccccccccccccccc" />
  <path
     inkscape:connector-curvature="0"
     style="opacity:1;vector-effect:none;fill:#c8c4b7;fill-opacity:1;stroke:none;stroke-width:1.60000002;stroke-linecap:round;stroke-linejoin:round;stroke-miterlimit:4;stroke-dasharray:none;stroke-dashoffset:0;stroke-opacity:1"
     d="M 6.8418051,0.99956674 V 2.1187074 A 6,6 0 0 0 5.1386801,2.7319887 L 4.4316488,1.878473 2.6777426,3.3921448 3.355477,4.2124573 A 6,6 0 0 0 2.4160238,5.8198792 L 1.3847738,5.6362855 1.0000082,7.9409729 2.0078207,8.1226136 a 6,6 0 0 0 0,0.1816406 6,6 0 0 0 0.328125,1.6660156 L 1.4316488,10.50152 h -0.00195 l 1.1660156,2.017577 0.9179688,-0.539061 a 6,6 0 0 0 1.4101562,1.167968 l -0.3769562,1.050781 2.1699219,0.787109 0.376953,-1.054687 a 6,6 0 0 0 1.210938,0.06055 6,6 0 0 0 0.585937,-0.06445 l 0.384766,1.072259 2.1582029,-0.814453 -0.369141,-1.03125 a 6,6 0 0 0 1.414063,-1.169921 l 0.923828,0.542968 1.138672,-2.033202 -0.88086,-0.5175788 A 6,6 0 0 0 13.992196,8.1187073 L 15.000008,7.9390198 14.585946,5.6382386 13.582039,5.8179261 A 6,6 0 0 0 12.63868,4.2046448 L 13.318367,3.3804262 11.54493,1.8901918 10.85157,2.7280824 A 6,6 0 0 0 9.1445391,2.1167543 V 0.99956674 Z m 1.353516,3.00390616 a 4,4 0 0 1 3.7988279,3.7910157 v 0.00195 A 4,4 0 0 1 8.2031331,11.993708 4,4 0 0 1 4.0058676,8.2026917 4,4 0 0 1 7.7949301,4.0054261 a 4,4 0 0 1 0.400391,-0.00195 z"
     id="path2172" />
</svg>
