<?xml version="1.0" encoding="UTF-8" standalone="no"?>
<!-- Created with Inkscape (http://www.inkscape.org/) -->

<svg
   xmlns:dc="http://purl.org/dc/elements/1.1/"
   xmlns:cc="http://creativecommons.org/ns#"
   xmlns:rdf="http://www.w3.org/1999/02/22-rdf-syntax-ns#"
   xmlns:svg="http://www.w3.org/2000/svg"
   xmlns="http://www.w3.org/2000/svg"
   xmlns:sodipodi="http://sodipodi.sourceforge.net/DTD/sodipodi-0.dtd"
   xmlns:inkscape="http://www.inkscape.org/namespaces/inkscape"
   id="svg2528"
   width="16"
   height="16"
   version="1.0"
   sodipodi:docname="process-stop.svg"
   inkscape:version="0.92.4 (5da689c313, 2019-01-14)">
  <metadata
     id="metadata23">
    <rdf:RDF>
      <cc:Work
         rdf:about="">
        <dc:format>image/svg+xml</dc:format>
        <dc:type
           rdf:resource="http://purl.org/dc/dcmitype/StillImage" />
      </cc:Work>
    </rdf:RDF>
  </metadata>
  <sodipodi:namedview
     pagecolor="#ffffff"
     bordercolor="#666666"
     borderopacity="1"
     objecttolerance="10"
     gridtolerance="10"
     guidetolerance="10"
     inkscape:pageopacity="0"
     inkscape:pageshadow="2"
     inkscape:window-width="1920"
     inkscape:window-height="1016"
     id="namedview21"
     showgrid="false"
     inkscape:zoom="14.75"
     inkscape:cx="8"
     inkscape:cy="8"
     inkscape:window-x="0"
     inkscape:window-y="27"
     inkscape:window-maximized="1"
     inkscape:current-layer="g2552" />
  <defs
     id="defs2530">
    <linearGradient
       id="linearGradient2406"
       x1="63.397"
       x2="63.397"
       y1="-12.489"
       y2="5.4676"
       gradientTransform="matrix(.74324 0 0 .74322 -38.23 10.609)"
       gradientUnits="userSpaceOnUse">
      <stop
         id="stop4875"
         style="stop-color:#fff"
         offset="0" />
      <stop
         id="stop4877"
         style="stop-color:#fff;stop-opacity:0"
         offset="1" />
    </linearGradient>
    <linearGradient
       id="linearGradient2411"
       x1="18.379"
       x2="18.379"
       y1="44.98"
       y2="3.0816"
       gradientTransform="matrix(.36857 0 0 .36857 -.84577 -.84577)"
       gradientUnits="userSpaceOnUse">
      <stop
         id="stop2492"
         style="stop-color:#791235"
         offset="0" />
      <stop
         id="stop2494"
         style="stop-color:#dd3b27"
         offset="1" />
    </linearGradient>
    <radialGradient
       id="radialGradient2409"
       cx="23.896"
       cy="3.99"
       r="20.397"
       gradientTransform="matrix(0 .87966 -1.1611 0 12.633 -21.084)"
       gradientUnits="userSpaceOnUse">
      <stop
         id="stop3244"
         style="stop-color:#f8b17e"
         offset="0" />
      <stop
         id="stop3246"
         style="stop-color:#e35d4f"
         offset=".26238" />
      <stop
         id="stop3248"
         style="stop-color:#c6262e"
         offset=".66094" />
      <stop
         id="stop3250"
         style="stop-color:#690b54"
         offset="1" />
    </radialGradient>
  </defs>
  <g
     id="layer1">
    <g
       id="g2552">
      <path
         id="path2555"
         d="M 8,0.5 C 3.8618068,0.5 0.5,3.8617068 0.5,8 c 0,4.138193 3.3617068,7.5 7.5,7.5 4.138193,0 7.5,-3.361707 7.5,-7.5 C 15.5,3.8618068 12.138293,0.5 8,0.5 Z"
         style="fill:#da1636;fill-opacity:1;stroke:none;stroke-width:1.00394094;stroke-linecap:round;stroke-linejoin:round"
         inkscape:connector-curvature="0" />
      <path
         style="opacity:0.3;fill:#ffffff;fill-opacity:1;stroke:none;stroke-width:1.00394094;stroke-linecap:round;stroke-linejoin:round"
         d="m 8,0.50012315 c -4.1381932,0 -7.49984684,3.36155365 -7.49984684,7.49984685 0,0.084468 0.0108958,0.1662603 0.0136752,0.25006 C 0.64721392,4.2283188 3.9462755,1.0002432 8,1.0002432 c 4.053823,0 7.35279,3.2281657 7.486172,7.2497868 0.0028,-0.083802 0.01367,-0.1655892 0.01367,-0.25006 0,-4.1381932 -3.361554,-7.49984685 -7.499847,-7.49984685 z"
         id="path836"
         inkscape:connector-curvature="0" />
      <path
         style="opacity:0.2;fill:#000000;fill-opacity:1;stroke:none;stroke-width:1.00394094;stroke-linecap:round;stroke-linejoin:round"
         d="m 0.51382832,7.74991 c -0.00278,0.083801 -0.0136752,0.1655892 -0.0136752,0.25006 0,4.138193 3.36155368,7.499847 7.49984688,7.499847 4.138193,0 7.499847,-3.361554 7.499847,-7.499847 0,-0.084468 -0.01089,-0.1662603 -0.01367,-0.25006 -0.133386,4.021711 -3.432447,7.249787 -7.486172,7.249787 -4.0538224,0 -7.35279,-3.228166 -7.48617172,-7.249787 z"
         id="path841"
         inkscape:connector-curvature="0" />
    </g>
    <path
       id="path3256"
       d="m 5.2618428,3.9990098 -1.262803,1.262803 2.6053252,2.5920221 c 0.080037,0.081047 0.080037,0.2113808 0,0.2924302 L 3.9990398,10.738287 5.2618428,12.00109 7.8538649,9.4090682 c 0.081046,-0.080037 0.2113808,-0.080037 0.2924302,0 L 10.738317,12.00109 12.00112,10.738287 9.4090982,8.1462651 c -0.080037,-0.081046 -0.080037,-0.2113807 0,-0.2924302 L 12.00112,5.2618128 10.738317,3.9990098 8.1462951,6.5910318 c -0.081046,0.080037 -0.2113807,0.080037 -0.2924302,0 z"
       style="fill:#ffffff;fill-rule:evenodd;stroke-width:1.00024009"
       inkscape:connector-curvature="0" />
  </g>
</svg>
