<?xml version="1.0" encoding="UTF-8" standalone="no"?>
<svg
   xmlns:dc="http://purl.org/dc/elements/1.1/"
   xmlns:cc="http://creativecommons.org/ns#"
   xmlns:rdf="http://www.w3.org/1999/02/22-rdf-syntax-ns#"
   xmlns:svg="http://www.w3.org/2000/svg"
   xmlns="http://www.w3.org/2000/svg"
   xmlns:sodipodi="http://sodipodi.sourceforge.net/DTD/sodipodi-0.dtd"
   xmlns:inkscape="http://www.inkscape.org/namespaces/inkscape"
   width="16"
   height="16"
   version="1.1"
   id="svg7"
   sodipodi:docname="key-enter.svg"
   inkscape:version="0.92.4 (5da689c313, 2019-01-14)">
  <metadata
     id="metadata11">
    <rdf:RDF>
      <cc:Work
         rdf:about="">
        <dc:format>image/svg+xml</dc:format>
        <dc:type
           rdf:resource="http://purl.org/dc/dcmitype/StillImage" />
        <dc:title></dc:title>
      </cc:Work>
    </rdf:RDF>
  </metadata>
  <sodipodi:namedview
     pagecolor="#ffffff"
     bordercolor="#666666"
     borderopacity="1"
     objecttolerance="10"
     gridtolerance="10"
     guidetolerance="10"
     inkscape:pageopacity="0"
     inkscape:pageshadow="2"
     inkscape:window-width="1920"
     inkscape:window-height="1016"
     id="namedview9"
     showgrid="false"
     inkscape:zoom="14.75"
     inkscape:cx="8"
     inkscape:cy="8"
     inkscape:window-x="0"
     inkscape:window-y="27"
     inkscape:window-maximized="1"
     inkscape:current-layer="svg7" />
  <defs
     id="defs3">
    <style
       id="current-color-scheme"
       type="text/css">
   .ColorScheme-Text { color:#444444; } .ColorScheme-Highlight { color:#4285f4; }
  </style>
  </defs>
  <path
     style="fill:#5a5a5a;fill-opacity:1"
     class="ColorScheme-Text"
     d="M 7,1 C 7,1 6,1 6,2 V 6 H 2 C 2,6 1,6 1,7 V 14 C 1,15 2,15 2,15 H 14 C 14,15 15,15 15,14 V 2 C 15,1 14,1 14,1 Z M 11,4 H 12 V 11 H 8 V 12 L 5,10.5 8,9 V 10 H 11 Z"
     id="path5" />
  <path
     style="fill:#ffffff;fill-opacity:1;opacity:0.3"
     d="M 7 1 C 7 1 6 1 6 2 L 6 2.5 C 6 1.5 7 1.5 7 1.5 L 14 1.5 C 14 1.5 15 1.5 15 2.5 L 15 2 C 15 1 14 1 14 1 L 7 1 z M 2 6 C 2 6 1 6 1 7 L 1 7.5 C 1 6.5 2 6.5 2 6.5 L 6 6.5 L 6 6 L 2 6 z M 5.5 10.75 L 5 11 L 8 12.5 L 8 12 L 5.5 10.75 z M 8 11 L 8 11.5 L 12 11.5 L 12 11 L 8 11 z "
     id="path818" />
  <path
     style="fill:currentColor;opacity:0.2"
     d="M 11 3.5 L 11 4 L 12 4 L 12 3.5 L 11 3.5 z M 8 8.5 L 5 10 L 5.5 10.25 L 8 9 L 8 8.5 z M 8 9.5 L 8 10 L 11 10 L 11 9.5 L 8 9.5 z M 1 13.5 L 1 14 C 1 15 2 15 2 15 L 14 15 C 14 15 15 15 15 14 L 15 13.5 C 15 14.5 14 14.5 14 14.5 L 2 14.5 C 2 14.5 1 14.5 1 13.5 z "
     id="path828" />
</svg>
