<?xml version="1.0" encoding="UTF-8"?>
<!-- Created with Inkscape (http://www.inkscape.org/) -->
<svg id="svg2" width="16" height="16" version="1.0" xmlns="http://www.w3.org/2000/svg" xmlns:xlink="http://www.w3.org/1999/xlink">
 <defs id="defs4">
  <linearGradient id="linearGradient6945">
   <stop id="stop6947" style="stop-color:#fff" offset="0"/>
   <stop id="stop6949" style="stop-color:#d3d7cf" offset="1"/>
  </linearGradient>
  <linearGradient id="linearGradient3785" x1="14.125" x2="14.125" y1="79.813" y2="75.499" gradientTransform="matrix(.40675 0 0 .52 .32338 -22.84)" gradientUnits="userSpaceOnUse">
   <stop id="stop6936" style="stop-color:#babdb6" offset="0"/>
   <stop id="stop6938" style="stop-color:#babdb6;stop-opacity:0" offset="1"/>
  </linearGradient>
  <linearGradient id="linearGradient3629" x1="11.887" x2="11.437" y1="-.38282" y2="18.462" gradientTransform="matrix(.99999 0 0 1 -2 -3)" gradientUnits="userSpaceOnUse" xlink:href="#linearGradient6945"/>
  <linearGradient id="linearGradient3743" x1="25.132" x2="25.132" y1="6.7287" y2="47.013" gradientTransform="matrix(.37163 0 0 .33178 -.91993 1.0163)" gradientUnits="userSpaceOnUse">
   <stop id="stop3602-7" style="stop-color:#f4f4f4" offset="0"/>
   <stop id="stop3604-8" style="stop-color:#dbdbdb" offset="1"/>
  </linearGradient>
  <linearGradient id="linearGradient3745" x1="-53.179" x2="-52.184" y1="16.54" y2="5.3934" gradientTransform="matrix(.30009 0 0 .3105 21.159 .64652)" gradientUnits="userSpaceOnUse">
   <stop id="stop3933-4" style="stop-color:#8d8f8a" offset="0"/>
   <stop id="stop3935-3" style="stop-color:#c1c1c1" offset="1"/>
  </linearGradient>
  <radialGradient id="radialGradient3780" cx="13.107" cy="61.48" r="18.5" gradientTransform="matrix(1.3367 0 0 -1.1736 -13.337 88.583)" gradientUnits="userSpaceOnUse" xlink:href="#linearGradient6945"/>
  <radialGradient id="radialGradient3786" cx="13.107" cy="61.48" r="18.5" gradientTransform="matrix(0 1.3366 1.1736 0 -67.789 -8.9358)" gradientUnits="userSpaceOnUse" xlink:href="#linearGradient6945"/>
  <radialGradient id="radialGradient3792" cx="13.107" cy="61.48" r="18.5" gradientTransform="matrix(0 1.3366 -1.1736 0 87.643 -8.9358)" gradientUnits="userSpaceOnUse" xlink:href="#linearGradient6945"/>
 </defs>
 <path id="path2847" d="m15 6-4.5-4.125c-1.5094-1.1344-1.4131-1.4237-2.5-1.375h3.65e-5c-1.169-0.00704-1.2441 0.32512-2.5 1.375l-4.5 4.125c-0.29372 0.25-0.5 0.85578-0.5 1.2977v7.4046c0 0.44194 0.3611 0.79772 0.80965 0.79772h13.381c0.44854 0 0.80965-0.35578 0.80965-0.79772v-7.4046c0-0.44194-0.13595-1.0442-0.49999-1.2977z" style="fill:url(#linearGradient3629);opacity:.3;stroke-width:1px;stroke:#575856"/>
 <g id="layer1" transform="matrix(.99999 0 0 1 -2 -3)">
  <path id="path11060" d="m9.7032 4.5c-0.12827 0-6.2032 5.0713-6.2032 5.194v7.6117c0 0.12269 0.074858 0.19429 0.20312 0.19429h12.594c0.12827 0 0.20312-0.0716 0.20312-0.19429v-7.6117c0-0.12269-6.0749-5.194-6.2032-5.194h-0.5936z" style="fill:none;opacity:.7;stroke-dashoffset:.7;stroke-linejoin:round;stroke-opacity:.99237;stroke:#fff"/>
  <path id="rect2594" d="m5.4988 5.4964 9.0025 3e-6 0.0024 10.948-9.0072 0.0594 0.00235-11.007z" style="fill:url(#linearGradient3743);opacity:.5;stroke-linejoin:round;stroke-width:.99287;stroke:url(#linearGradient3745)"/>
  <path id="path3784" d="m8.8027 11.827-5.7521 5.5729v-7.9998l5.7521 5.5729" style="fill-rule:evenodd;fill:url(#radialGradient3786);opacity:.5"/>
  <path id="path2853" d="m7.5739 11.496h4.9263m-4.9263-1.9901 2.926 1.485e-4m-2.926 3.98h3.9262m-3.9262-5.9702 4.9263 5e-7" style="fill:none;opacity:.2;stroke-linecap:square;stroke-linejoin:round;stroke-width:.99262;stroke:#000"/>
  <path id="path3788" d="m11.051 11.827 5.7521 5.5729v-7.9998l-5.7521 5.5729" style="fill-rule:evenodd;fill:url(#radialGradient3792);opacity:.5"/>
  <path id="path11056" d="m7.272 13.432-4.5081-4.3717 4.2757 4.6593m5.9982 0.07746 4.1983-4.7368-4.5081 4.4492" style="fill-rule:evenodd;fill:#060606;opacity:.7"/>
  <path id="path11054" d="m3 17.744 5.573-5.3522h2.8541l5.573 5.3522h-14z" style="fill-rule:evenodd;fill:url(#radialGradient3780);opacity:.5"/>
  <path id="path11050" d="m2.7639 18.24 5.3602-5.8988h3.7517l5.3602 5.8988-5.3602-5.3788h-3.7517l-5.3602 5.3788z" style="fill-rule:evenodd;fill:#2a2b29;opacity:.7"/>
  <path id="path11052" d="m2.7639 18.251 5.3602-4.8588h3.7517l5.3602 4.8588-5.3602-5.3788h-3.7517l-5.3602 5.3788z" style="fill-rule:evenodd;fill:#fff;opacity:.4"/>
  <path id="path11062" d="m2.7639 16.111v1.6575c0 0.27092 0.1567 0.47125 0.36862 0.47125h13.499c0.21192 0 0.36862-0.20033 0.36862-0.47125v-1.6575h-14.236z" style="fill-rule:evenodd;fill:url(#linearGradient3785);opacity:.55597"/>
 </g>
</svg>
