<?xml version="1.0" encoding="UTF-8"?>
<!-- Created with Inkscape (http://www.inkscape.org/) -->
<svg id="svg3540" width="16" height="16" version="1.0" xmlns="http://www.w3.org/2000/svg" xmlns:xlink="http://www.w3.org/1999/xlink">
 <defs id="defs3542">
  <linearGradient id="linearGradient3378" x1="11.223" x2="11.223" y1="7.001" y2="14.492" gradientUnits="userSpaceOnUse">
   <stop id="stop3374" style="stop-color:#fff" offset="0"/>
   <stop id="stop3376" style="stop-color:#fff;stop-opacity:0" offset="1"/>
  </linearGradient>
  <linearGradient id="linearGradient2581" x1="28.315" x2=".81572" y1="20.71" y2="20.71" gradientTransform="matrix(0 -.21372 -.20965 0 16.377 15.892)" gradientUnits="userSpaceOnUse">
   <stop id="stop2266" style="stop-color:#d7e866" offset="0"/>
   <stop id="stop2268" style="stop-color:#8cab2a" offset="1"/>
  </linearGradient>
  <linearGradient id="linearGradient3296" x1="-21.916" x2="-21.916" y1="3" y2="45.033" gradientTransform="matrix(.36585 0 0 .36585 17.609 -.78049)" gradientUnits="userSpaceOnUse">
   <stop id="stop3774" style="stop-color:#b4b4b4" offset="0"/>
   <stop id="stop3776" style="stop-color:#969696" offset="1"/>
  </linearGradient>
  <linearGradient id="linearGradient3294" x1="12.274" x2="35.391" y1="32.416" y2="14.203" gradientTransform="matrix(0 .42858 -.42858 0 17.9 -2.2858)" gradientUnits="userSpaceOnUse">
   <stop id="stop3265" style="stop-color:#dedbde" offset="0"/>
   <stop id="stop3267" style="stop-color:#e6e6e6" offset=".5"/>
   <stop id="stop3269" style="stop-color:#d2d2d2" offset="1"/>
  </linearGradient>
  <linearGradient id="linearGradient3287" x1="18.776" x2="18.203" y1="4.0378" y2="45.962" gradientTransform="matrix(.17679 0 0 .17679 3.6957 3.5803)" gradientUnits="userSpaceOnUse" xlink:href="#linearGradient6036"/>
  <linearGradient id="linearGradient3320" x1="10.609" x2="9.7298" y1="17.886" y2="20.613" gradientUnits="userSpaceOnUse" spreadMethod="reflect" xlink:href="#linearGradient3519"/>
  <linearGradient id="linearGradient3318" x1="12.372" x2="14.609" y1="16.188" y2="13.462" gradientUnits="userSpaceOnUse" spreadMethod="reflect" xlink:href="#linearGradient3511"/>
  <linearGradient id="linearGradient3316" x1="14.085" x2="16.994" y1="13.046" y2="10.732" gradientUnits="userSpaceOnUse" spreadMethod="reflect" xlink:href="#linearGradient3503"/>
  <linearGradient id="linearGradient3314" x1="17.495" x2="21.047" y1="11.2" y2="9.7956" gradientUnits="userSpaceOnUse" spreadMethod="reflect" xlink:href="#linearGradient3495"/>
  <linearGradient id="linearGradient3312" x1="20.58" x2="24.274" y1="10.775" y2="9.8622" gradientUnits="userSpaceOnUse" spreadMethod="reflect" xlink:href="#linearGradient3487"/>
  <linearGradient id="linearGradient6036">
   <stop id="stop6038" style="stop-color:#fff" offset="0"/>
   <stop id="stop6040" style="stop-color:#fff;stop-opacity:0" offset="1"/>
  </linearGradient>
  <linearGradient id="linearGradient3278" x1="10.502" x2="48.799" y1="3.61" y2="54.698" gradientTransform="matrix(.32832 0 0 .32832 .0063407 -.20805)" gradientUnits="userSpaceOnUse" xlink:href="#linearGradient6036"/>
  <linearGradient id="linearGradient3519">
   <stop id="stop3521" style="stop-color:#fcd9cd" offset="0"/>
   <stop id="stop3523" style="stop-color:#fcd9cd;stop-opacity:0" offset="1"/>
  </linearGradient>
  <linearGradient id="linearGradient3511">
   <stop id="stop3513" style="stop-color:#ebeec7" offset="0"/>
   <stop id="stop3515" style="stop-color:#ebeec7;stop-opacity:0" offset="1"/>
  </linearGradient>
  <linearGradient id="linearGradient3503">
   <stop id="stop3505" style="stop-color:#c4ebdd" offset="0"/>
   <stop id="stop3507" style="stop-color:#c4ebdd;stop-opacity:0" offset="1"/>
  </linearGradient>
  <linearGradient id="linearGradient3495">
   <stop id="stop3497" style="stop-color:#c1cbe4" offset="0"/>
   <stop id="stop3499" style="stop-color:#c1cbe4;stop-opacity:0" offset="1"/>
  </linearGradient>
  <linearGradient id="linearGradient3487">
   <stop id="stop3489" style="stop-color:#e6cde2" offset="0"/>
   <stop id="stop3491" style="stop-color:#e6cde2;stop-opacity:0" offset="1"/>
  </linearGradient>
 </defs>
 <g id="layer1">
  <path id="path2781" d="m15.5 8c0-4.1572-3.3428-7.5-7.5-7.5-4.1572 0-7.5 3.3428-7.5 7.5-8e-7 4.1572 3.3428 7.5 7.5 7.5 4.1572-1e-6 7.5-3.3428 7.5-7.5zm-5 0c0 1.2939-0.99391 2.5-2.5 2.5s-2.5-1.3065-2.5-2.5c0-1.227 1.035-2.5 2.5-2.5 1.4985 0 2.5 1.2056 2.5 2.5z" style="fill:url(#linearGradient3294);stroke:url(#linearGradient3296)"/>
  <path id="path3281" d="m8 4.5c-1.94 0-3.5 1.56-3.5 3.5 0 1.94 1.56 3.5 3.5 3.5 1.94 0 3.5-1.56 3.5-3.5 0-1.94-1.56-3.5-3.5-3.5z" style="fill:none;opacity:.8;stroke:url(#linearGradient3287)"/>
  <g id="g3527" transform="matrix(.33574 0 0 .33574 -.1715 -.39197)">
   <path id="path3296" transform="matrix(.9996 .028243 -.028243 .9996 .69241 -.67083)" d="m15.857 5.7308 4.7681 10.613c1.0354-0.45856 2.1703-0.71875 3.375-0.71875 0.03206 0 0.06178-3.6e-4 0.09375 0l0.01426-11.62c-2.9422-0.070687-5.543 0.65729-8.2511 1.726h1e-6z" style="fill:url(#linearGradient3312);opacity:.8"/>
   <path id="path3308" d="m12.121 7.906 6.931 9.3601c0.91311-0.66976 1.9659-1.1671 3.1426-1.4252 0.03132-0.0069 0.06026-0.01359 0.09157-0.02009l-2.4295-11.395c-2.889 0.56132-5.3195 1.8556-7.7357 3.4797z" style="fill:url(#linearGradient3314);opacity:.8"/>
   <path id="path3310" d="m8.2524 11.647 9.2137 7.1558c0.70865-0.88326 1.5969-1.6361 2.6667-2.19 0.02847-0.01474 0.05469-0.02872 0.08325-0.0431l-5.3502-10.319c-2.6453 1.2899-4.7 3.2018-6.6135 5.3959z" style="fill:url(#linearGradient3316);opacity:.8"/>
   <path id="path3312" d="m5.6329 16.074c7.1748 2.2422 7.8503 7.0315 12.777 1.7541l-7.9097-8.696c-2.2213 1.9306-3.5867 4.3272-4.8671 6.9418z" style="fill:url(#linearGradient3318);opacity:.8"/>
   <path id="path3314" d="m7.1553 13.193c-1.1831 1.752-1.9077 3.6364-2.5251 5.6439l11.339 2.9754c0.21551-0.763 0.51805-1.5148 0.96875-2.2188 0.01729-0.027 0.04496-0.06702 0.0625-0.09375l-9.8447-6.3068z" style="fill:url(#linearGradient3320);opacity:.8"/>
  </g>
  <path id="path3272" d="m8 1.5c-3.6029 0-6.5 2.8971-6.5 6.5 0 3.6029 2.8971 6.5 6.5 6.5 3.6029 0 6.5-2.8971 6.5-6.5 0-3.6029-2.8971-6.5-6.5-6.5z" style="fill:none;opacity:.4;stroke:url(#linearGradient3278)"/>
  <g id="g3297" transform="matrix(-.3508 0 0 -.3508 16.409 16.449)">
   <path id="path3299" transform="matrix(.9996 .028243 -.028243 .9996 .69241 -.67083)" d="m15.857 5.7308 4.7681 10.613c1.0354-0.45856 2.1703-0.71875 3.375-0.71875 0.03206 0 0.06178-3.6e-4 0.09375 0l0.01426-11.62c-2.9422-0.070687-5.543 0.65729-8.2511 1.726h1e-6z" style="fill:url(#linearGradient3312);opacity:.8"/>
   <path id="path3301" d="m12.121 7.906 6.931 9.3601c0.91311-0.66976 1.9659-1.1671 3.1426-1.4252 0.03132-0.0069 0.06026-0.01359 0.09157-0.02009l-2.4295-11.395c-2.889 0.56132-5.3195 1.8556-7.7357 3.4797z" style="fill:url(#linearGradient3314);opacity:.8"/>
   <path id="path3303" d="m8.2524 11.647 9.2137 7.1558c0.70865-0.88326 1.5969-1.6361 2.6667-2.19 0.02847-0.01474 0.05469-0.02872 0.08325-0.0431l-5.3502-10.319c-2.6453 1.2899-4.7 3.2018-6.6135 5.3959z" style="fill:url(#linearGradient3316);opacity:.8"/>
   <path id="path3305" d="m5.6329 16.074c7.1748 2.2422 7.8503 7.0315 12.777 1.7541l-7.9097-8.696c-2.2213 1.9306-3.5867 4.3272-4.8671 6.9418z" style="fill:url(#linearGradient3318);opacity:.8"/>
   <path id="path3307" d="m7.1553 13.193c-1.1831 1.752-1.9077 3.6364-2.5251 5.6439l11.339 2.9754c0.21551-0.763 0.51805-1.5148 0.96875-2.2188 0.01729-0.027 0.04496-0.06702 0.0625-0.09375l-9.8447-6.3068z" style="fill:url(#linearGradient3320);opacity:.8"/>
  </g>
 </g>
 <path id="path3288" d="m15.501 10.5-4.5009 5.0009-4.5-5.0009h2v-4h5v4h2.0009z" style="fill:url(#linearGradient2581);stroke-linecap:round;stroke-linejoin:round;stroke-width:.99829;stroke:#699536"/>
 <path id="path3362" d="m13.323 11.5-2.3228 2.493-2.2941-2.493h0.79407v-4h3v4h0.82284z" style="fill:none;opacity:.4;stroke-linecap:round;stroke-width:.998;stroke:url(#linearGradient3378)"/>
</svg>
