<?xml version="1.0" encoding="UTF-8"?>
<!-- Created with Inkscape (http://www.inkscape.org/) -->
<svg id="svg3068" width="16px" height="16px" version="1.1" xmlns="http://www.w3.org/2000/svg" xmlns:cc="http://creativecommons.org/ns#" xmlns:dc="http://purl.org/dc/elements/1.1/" xmlns:rdf="http://www.w3.org/1999/02/22-rdf-syntax-ns#" xmlns:xlink="http://www.w3.org/1999/xlink">
 <defs id="defs3070">
  <linearGradient id="linearGradient2990" x1="63.397" x2="63.397" y1="-12.489" y2="5.4676" gradientTransform="matrix(.74324 0 0 .74322 -38.23 10.609)" gradientUnits="userSpaceOnUse">
   <stop id="stop4875" style="stop-color:#fff" offset="0"/>
   <stop id="stop4877" style="stop-color:#fff;stop-opacity:0" offset="1"/>
  </linearGradient>
  <linearGradient id="linearGradient2916" x1="3.6967" x2="19.821" y1="16.723" y2="16.723" gradientTransform="matrix(0 .9849 -.91917 0 19.373 -3.5809)" gradientUnits="userSpaceOnUse">
   <stop id="stop3358" style="stop-color:#808080" offset="0"/>
   <stop id="stop3360" style="stop-color:#6d6d6d" offset=".5461"/>
   <stop id="stop3362" style="stop-color:#4f5053" offset="1"/>
  </linearGradient>
  <linearGradient id="linearGradient2918" x1="56.323" x2="72.452" y1="25.883" y2="25.883" gradientTransform="matrix(0 .9849 -.91917 0 30.32 -55.412)" gradientUnits="userSpaceOnUse">
   <stop id="stop3229" style="stop-color:#4d4d4d" offset="0"/>
   <stop id="stop3231" style="stop-color:#333" offset="1"/>
  </linearGradient>
  <linearGradient id="linearGradient3064" x1="17.61" x2="17.61" y1=".99996" y2="23.063" gradientTransform="matrix(.71417 0 0 .71423 -.56941 -.5708)" gradientUnits="userSpaceOnUse">
   <stop id="stop3270-6" style="stop-color:#fff" offset="0"/>
   <stop id="stop3272-6" style="stop-color:#cdcdcd" offset="1"/>
  </linearGradient>
  <linearGradient id="linearGradient3066" x1="12.963" x2="12.963" y1="2.6838" y2="45.326" gradientTransform="matrix(.36854 0 0 .36857 -.84436 -.84577)" gradientUnits="userSpaceOnUse">
   <stop id="stop5026-7" style="stop-color:#808080" offset="0"/>
   <stop id="stop5028-4" style="stop-color:#6d6d6d" offset=".87327"/>
   <stop id="stop5030-1" style="stop-color:#4f5053" offset="1"/>
  </linearGradient>
 </defs>
 <metadata id="metadata3073">
  <rdf:RDF>
   <cc:Work rdf:about="">
    <dc:format>image/svg+xml</dc:format>
    <dc:type rdf:resource="http://purl.org/dc/dcmitype/StillImage"/>
    <dc:title/>
   </cc:Work>
  </rdf:RDF>
 </metadata>
 <g id="layer1">
  <path id="path2555" d="m8 0.50183c-4.1372 0-7.4982 3.3609-7.4982 7.4982 0 4.1372 3.3609 7.4982 7.4982 7.4982 4.1372 0 7.4982-3.3609 7.4982-7.4982 0-4.1372-3.3609-7.4982-7.4982-7.4982z" style="color:#000000;fill:url(#linearGradient3064);stroke-linecap:round;stroke-linejoin:round;stroke-width:1.0037;stroke:url(#linearGradient3066)"/>
  <path id="path3314" d="m7.5008 15.5a6.999 7.4994 0 1 1 0-14.999v7.4994z" style="fill:url(#linearGradient2916);stroke:url(#linearGradient2918)"/>
  <path id="path2463" d="m14.5 7.9998c0 3.59-2.9104 6.5002-6.4999 6.5002-3.5899 0-6.5001-2.9103-6.5001-6.5002 0-3.5898 2.9102-6.4998 6.5001-6.4998 3.5896 0 6.4999 2.91 6.4999 6.4998z" style="fill:none;opacity:.4;stroke:url(#linearGradient2990)"/>
 </g>
</svg>
