<?xml version="1.0" encoding="UTF-8" standalone="no"?>
<svg
   xmlns:dc="http://purl.org/dc/elements/1.1/"
   xmlns:cc="http://creativecommons.org/ns#"
   xmlns:rdf="http://www.w3.org/1999/02/22-rdf-syntax-ns#"
   xmlns:svg="http://www.w3.org/2000/svg"
   xmlns="http://www.w3.org/2000/svg"
   xmlns:sodipodi="http://sodipodi.sourceforge.net/DTD/sodipodi-0.dtd"
   xmlns:inkscape="http://www.inkscape.org/namespaces/inkscape"
   width="16"
   height="16"
   version="1.1"
   id="svg6"
   sodipodi:docname="installed.svg"
   inkscape:version="0.92.4 (5da689c313, 2019-01-14)">
  <metadata
     id="metadata12">
    <rdf:RDF>
      <cc:Work
         rdf:about="">
        <dc:format>image/svg+xml</dc:format>
        <dc:type
           rdf:resource="http://purl.org/dc/dcmitype/StillImage" />
      </cc:Work>
    </rdf:RDF>
  </metadata>
  <defs
     id="defs10" />
  <sodipodi:namedview
     pagecolor="#ffffff"
     bordercolor="#666666"
     borderopacity="1"
     objecttolerance="10"
     gridtolerance="10"
     guidetolerance="10"
     inkscape:pageopacity="0"
     inkscape:pageshadow="2"
     inkscape:window-width="857"
     inkscape:window-height="480"
     id="namedview8"
     showgrid="false"
     inkscape:zoom="14.75"
     inkscape:cx="8"
     inkscape:cy="8"
     inkscape:window-x="0"
     inkscape:window-y="27"
     inkscape:window-maximized="0"
     inkscape:current-layer="svg6" />
  <ellipse
     style="opacity:1;fill:#ffffff;fill-opacity:1;stroke:none;stroke-width:0.40000001;stroke-miterlimit:4;stroke-dasharray:none;stroke-dashoffset:0;stroke-opacity:1"
     id="path822"
     cx="8.1694918"
     cy="8.2711868"
     rx="6.1355934"
     ry="6.5084743" />
  <g
     transform="translate(-212.00006,-280)"
     id="g4">
    <path
       style="fill:#76c22b"
       d="M 5.3261719 0 C 3.6485819 0.0195 2.4196756 -0.040158145 1.4160156 0.51367188 C 0.91418571 0.79053187 0.51838816 1.25887 0.29882812 1.84375 C 0.079268135 2.42863 -3.7007434e-17 3.12319 0 4 L 0 12 C 0 12.87681 0.079248135 13.57137 0.29882812 14.15625 C 0.51838814 14.74113 0.91418569 15.209468 1.4160156 15.486328 C 2.4196756 16.040088 3.6485819 15.98057 5.3261719 16 L 5.3300781 16 L 10.669922 16 L 10.673828 16 C 12.351418 15.9805 13.578371 16.04016 14.582031 15.486328 C 15.083861 15.209468 15.479659 14.74113 15.699219 14.15625 C 15.919203 13.57137 16 12.87681 16 12 L 16 4 C 16 3.12319 15.920752 2.42864 15.701172 1.84375 C 15.481622 1.25887 15.085814 0.79055185 14.583984 0.51367188 C 13.580324 -0.040118135 12.351428 0.01936 10.673828 0 L 10.669922 0 L 8.6660156 0 L 5.3300781 0 L 5.3261719 0 z M 7.59375 3.0078125 L 7.5957031 3.0078125 C 8.8796321 2.930911 10.15576 3.3542504 11.142578 4.1953125 L 12.119141 3.21875 C 12.309851 3.74656 12.490816 4.2976269 12.660156 4.8730469 C 12.825426 5.4451469 12.973256 6.00809 13.103516 6.5625 C 12.544776 6.43656 11.97836 6.2922131 11.40625 6.1269531 C 10.83114 5.9576931 10.283006 5.7749881 9.7597656 5.5800781 L 10.625 4.7128906 C 9.409 3.7029406 7.7091487 3.41119 6.1992188 4.0625 C 4.3304888 4.86859 3.2876687 6.8721044 3.6992188 8.8652344 C 4.1107688 10.858374 5.8632575 12.285156 7.8984375 12.285156 L 7.9042969 12.285156 L 8.4472656 12.248047 L 8.4960938 12.960938 L 8.2558594 12.976562 L 8.2558594 13 L 7.9003906 13 C 5.5306506 13 3.4811531 11.330546 3.0019531 9.0097656 C 2.5227531 6.6889856 3.7420288 4.3468031 5.9179688 3.4082031 C 6.4613354 3.1738177 7.0288914 3.0419943 7.59375 3.0078125 z M 11.623047 10.123047 L 12.216797 10.519531 L 11.875 11.033203 L 11.845703 11.068359 L 11.78125 11.142578 L 11.244141 10.671875 L 11.296875 10.611328 L 11.623047 10.123047 z M 10.787109 11.154297 L 11.257812 11.691406 L 10.957031 11.955078 L 10.919922 11.984375 L 10.658203 12.158203 L 10.261719 11.564453 L 10.503906 11.402344 L 10.787109 11.154297 z M 9.6796875 11.888672 L 9.9941406 12.529297 L 9.8398438 12.607422 L 9.796875 12.625 L 9.2851562 12.800781 L 9.0546875 12.123047 L 9.5371094 11.958984 L 9.6796875 11.888672 z"
       transform="translate(212.00006,280)"
       id="path2" />
  </g>
</svg>
