<?xml version="1.0" encoding="UTF-8" standalone="no"?>
<svg
   xmlns:dc="http://purl.org/dc/elements/1.1/"
   xmlns:cc="http://creativecommons.org/ns#"
   xmlns:rdf="http://www.w3.org/1999/02/22-rdf-syntax-ns#"
   xmlns:svg="http://www.w3.org/2000/svg"
   xmlns="http://www.w3.org/2000/svg"
   xmlns:sodipodi="http://sodipodi.sourceforge.net/DTD/sodipodi-0.dtd"
   xmlns:inkscape="http://www.inkscape.org/namespaces/inkscape"
   width="16"
   height="16"
   version="1.1"
   id="svg7"
   sodipodi:docname="password-generator.svg"
   inkscape:version="0.92.4 (5da689c313, 2019-01-14)">
  <metadata
     id="metadata11">
    <rdf:RDF>
      <cc:Work
         rdf:about="">
        <dc:format>image/svg+xml</dc:format>
        <dc:type
           rdf:resource="http://purl.org/dc/dcmitype/StillImage" />
        <dc:title />
      </cc:Work>
    </rdf:RDF>
  </metadata>
  <sodipodi:namedview
     pagecolor="#ffffff"
     bordercolor="#666666"
     borderopacity="1"
     objecttolerance="10"
     gridtolerance="10"
     guidetolerance="10"
     inkscape:pageopacity="0"
     inkscape:pageshadow="2"
     inkscape:window-width="1920"
     inkscape:window-height="1016"
     id="namedview9"
     showgrid="false"
     inkscape:zoom="59.928571"
     inkscape:cx="4.29559"
     inkscape:cy="8"
     inkscape:window-x="0"
     inkscape:window-y="27"
     inkscape:window-maximized="1"
     inkscape:current-layer="svg7" />
  <defs
     id="defs3">
    <style
       id="current-color-scheme"
       type="text/css">
   .ColorScheme-Text { color:#444444; } .ColorScheme-Highlight { color:#4285f4; }
  </style>
  </defs>
  <ellipse
     ry="1.6936829"
     rx="1.7187128"
     cy="11.502979"
     cx="4.5053639"
     id="ellipse817"
     style="opacity:1;fill:#ffffff;fill-opacity:1;stroke:none;stroke-width:0.99999994;stroke-miterlimit:4;stroke-dasharray:0.99999994, 0.99999994000000003;stroke-dashoffset:0;stroke-opacity:1" />
  <ellipse
     style="opacity:1;fill:#ffffff;fill-opacity:1;stroke:none;stroke-width:0.99999994;stroke-miterlimit:4;stroke-dasharray:0.99999994, 0.99999994000000003;stroke-dashoffset:0;stroke-opacity:1"
     id="path815"
     cx="11.497021"
     cy="4.3611441"
     rx="1.7187128"
     ry="1.6936829" />
  <path
     style="fill:currentColor"
     class="ColorScheme-Text"
     d="M 2.5,1 C 1.669,1 1,1.669 1,2.5 V 13.5 C 1,14.331 1.669,15 2.5,15 H 13.5 C 14.331,15 15,14.331 15,13.5 V 2.5 C 15,1.669 14.331,1 13.5,1 Z M 11.5,3 C 12.328,3 13,3.6716 13,4.5 13,5.3284 12.328,6 11.5,6 10.672,6 10,5.3284 10,4.5 10,3.6716 10.672,3 11.5,3 Z M 4.5,10 C 5.3284,10 6,10.672 6,11.5 6,12.328 5.3284,13 4.5,13 3.6716,13 3,12.328 3,11.5 3,10.672 3.6716,10 4.5,10 Z"
     id="path5" />
  <path
     style="fill:#fffafa;fill-opacity:1;opacity:0.3"
     d="M 2.5 1 C 1.669 1 1 1.669 1 2.5 L 1 3 C 1 2.169 1.669 1.5 2.5 1.5 L 13.5 1.5 C 14.331 1.5 15 2.169 15 3 L 15 2.5 C 15 1.669 14.331 1 13.5 1 L 2.5 1 z M 10.025391 4.75 C 10.011642 4.8315913 10 4.9145023 10 5 C 10 5.8284 10.672 6.5 11.5 6.5 C 12.328 6.5 13 5.8284 13 5 C 13 4.9145023 12.988358 4.8315913 12.974609 4.75 C 12.855143 5.4589589 12.242544 6 11.5 6 C 10.757456 6 10.144857 5.4589589 10.025391 4.75 z M 3.0253906 11.75 C 3.0116489 11.831566 3 11.914544 3 12 C 3 12.828 3.6716 13.5 4.5 13.5 C 5.3284 13.5 6 12.828 6 12 C 6 11.914544 5.9883511 11.831566 5.9746094 11.75 C 5.8552054 12.458737 5.2429023 13 4.5 13 C 3.7570977 13 3.1447946 12.458737 3.0253906 11.75 z "
     id="path818" />
  <path
     style="fill:#0d0d0d;fill-opacity:1;opacity:0.2"
     d="M 11.5 2.5 C 10.672 2.5 10 3.1716 10 4 C 10 4.0854977 10.011642 4.1684087 10.025391 4.25 C 10.144857 3.5410411 10.757456 3 11.5 3 C 12.242544 3 12.855143 3.5410411 12.974609 4.25 C 12.988358 4.1684087 13 4.0854977 13 4 C 13 3.1716 12.328 2.5 11.5 2.5 z M 4.5 9.5 C 3.6716 9.5 3 10.172 3 11 C 3 11.085456 3.0116489 11.168434 3.0253906 11.25 C 3.1447946 10.541263 3.7570977 10 4.5 10 C 5.2429023 10 5.8552054 10.541263 5.9746094 11.25 C 5.9883511 11.168434 6 11.085456 6 11 C 6 10.172 5.3284 9.5 4.5 9.5 z M 1 13 L 1 13.5 C 1 14.331 1.669 15 2.5 15 L 13.5 15 C 14.331 15 15 14.331 15 13.5 L 15 13 C 15 13.831 14.331 14.5 13.5 14.5 L 2.5 14.5 C 1.669 14.5 1 13.831 1 13 z "
     id="path823" />
</svg>
