<?xml version="1.0" encoding="UTF-8" standalone="no"?>
<svg
   xmlns:osb="http://www.openswatchbook.org/uri/2009/osb"
   xmlns:dc="http://purl.org/dc/elements/1.1/"
   xmlns:cc="http://creativecommons.org/ns#"
   xmlns:rdf="http://www.w3.org/1999/02/22-rdf-syntax-ns#"
   xmlns:svg="http://www.w3.org/2000/svg"
   xmlns="http://www.w3.org/2000/svg"
   xmlns:sodipodi="http://sodipodi.sourceforge.net/DTD/sodipodi-0.dtd"
   xmlns:inkscape="http://www.inkscape.org/namespaces/inkscape"
   height="16"
   id="svg7384"
   version="1.1"
   width="16"
   sodipodi:docname="appointment-new.svg"
   inkscape:version="0.92.4 (5da689c313, 2019-01-14)">
  <sodipodi:namedview
     pagecolor="#ffffff"
     bordercolor="#666666"
     borderopacity="1"
     objecttolerance="10"
     gridtolerance="10"
     guidetolerance="10"
     inkscape:pageopacity="0"
     inkscape:pageshadow="2"
     inkscape:window-width="1920"
     inkscape:window-height="1016"
     id="namedview23"
     showgrid="false"
     inkscape:zoom="14.75"
     inkscape:cx="-18.252891"
     inkscape:cy="8"
     inkscape:window-x="0"
     inkscape:window-y="27"
     inkscape:window-maximized="1"
     inkscape:current-layer="svg7384" />
  <metadata
     id="metadata20854">
    <rdf:RDF>
      <cc:Work
         rdf:about="">
        <dc:title></dc:title>
        <dc:format>image/svg+xml</dc:format>
        <dc:type
           rdf:resource="http://purl.org/dc/dcmitype/StillImage" />
      </cc:Work>
    </rdf:RDF>
  </metadata>
  <defs
     id="defs7386">
    <linearGradient
       id="linearGradient5606"
       osb:paint="solid">
      <stop
         id="stop5608"
         offset="0"
         style="stop-color:#000000;stop-opacity:1;" />
    </linearGradient>
    <linearGradient
       id="linearGradient4526"
       osb:paint="solid">
      <stop
         id="stop4528"
         offset="0"
         style="stop-color:#ffffff;stop-opacity:1;" />
    </linearGradient>
    <linearGradient
       id="linearGradient3600-4"
       osb:paint="gradient">
      <stop
         id="stop3602-7"
         offset="0"
         style="stop-color:#f4f4f4;stop-opacity:1" />
      <stop
         id="stop3604-6"
         offset="1"
         style="stop-color:#dbdbdb;stop-opacity:1" />
    </linearGradient>
    <clipPath
       clipPathUnits="userSpaceOnUse"
       id="clipPath983">
      <path
         sodipodi:nodetypes="scccssscsss"
         inkscape:connector-curvature="0"
         id="path985"
         d="m 325.09646,237 c -2.80769,0 -3.10979,0.28839 -3.09603,3.10176 V 244 v 3.89824 c -0.0138,2.81337 0.28834,3.10176 3.09603,3.10176 h 5.8075 C 333.71166,251 334,250.71165 334,247.89824 V 244 240.10176 C 334,237.28836 333.71165,237 330.90396,237 Z"
         style="color:#000000;display:inline;overflow:visible;visibility:visible;opacity:1;fill:#46a926;fill-opacity:1;fill-rule:nonzero;stroke:none;stroke-width:2;stroke-miterlimit:4;stroke-dasharray:none;stroke-opacity:1;marker:none;enable-background:accumulate" />
    </clipPath>
    <clipPath
       clipPathUnits="userSpaceOnUse"
       id="clipPath983-3">
      <path
         sodipodi:nodetypes="scccssscsss"
         inkscape:connector-curvature="0"
         id="path985-6"
         d="m 325.09646,237 c -2.80769,0 -3.10979,0.28839 -3.09603,3.10176 V 244 v 3.89824 c -0.0138,2.81337 0.28834,3.10176 3.09603,3.10176 h 5.8075 C 333.71166,251 334,250.71165 334,247.89824 V 244 240.10176 C 334,237.28836 333.71165,237 330.90396,237 Z"
         style="color:#000000;display:inline;overflow:visible;visibility:visible;opacity:1;fill:#46a926;fill-opacity:1;fill-rule:nonzero;stroke:none;stroke-width:2;stroke-miterlimit:4;stroke-dasharray:none;stroke-opacity:1;marker:none;enable-background:accumulate" />
    </clipPath>
  </defs>
  <g
     id="layer9"
     label="status"
     style="display:inline"
     transform="translate(-833.00024,147)" />
  <g
     id="layer2"
     style="display:inline"
     transform="translate(-592.00004,-220)" />
  <g
     id="layer4"
     style="display:inline"
     transform="translate(-592.00004,-220)" />
  <g
     id="g1812"
     style="display:inline"
     transform="translate(-592.00004,-220)" />
  <g
     id="g6217"
     style="display:inline"
     transform="translate(-592.00004,-220)" />
  <g
     id="layer3"
     style="display:inline"
     transform="translate(-592.00004,-220)" />
  <g
     id="layer1"
     style="display:inline"
     transform="translate(-592.00004,-220)" />
  <path
     style="color:#000000;display:inline;overflow:visible;visibility:visible;fill:#2b898f;fill-opacity:1;fill-rule:nonzero;stroke:none;stroke-width:1.00481653;marker:none;enable-background:accumulate"
     d="m 11.629431,0.50000605 c 3.509605,0 3.887237,0.30899001 3.870032,3.32331005 v 4.17669 4.1766799 c 0.01717,3.01433 -0.360427,3.32332 -3.870032,3.32332 H 4.3700427 C 0.86042709,15.500006 0.5,15.191056 0.5,12.176686 V 8.0000061 3.8233161 C 0.5,0.80895606 0.86043719,0.50000605 4.3700427,0.50000605 Z"
     id="path918"
     inkscape:connector-curvature="0"
     sodipodi:nodetypes="scccssscsss" />
  <path
     sodipodi:nodetypes="cccccccccc"
     inkscape:connector-curvature="0"
     id="path983"
     d="m 0.93208238,5.9999961 v 3 H 1.9417386 v -3 z m 13.12553162,0 v 3 h 1.009656 v -3 z"
     style="color:#000000;display:inline;overflow:visible;visibility:visible;opacity:1;fill:#ffffff;fill-opacity:1;fill-rule:nonzero;stroke:none;stroke-width:24.11559486;stroke-linecap:butt;stroke-linejoin:miter;stroke-miterlimit:4;stroke-dasharray:none;stroke-dashoffset:0;stroke-opacity:1;marker:none;enable-background:accumulate" />
  <path
     style="font-style:normal;font-variant:normal;font-weight:normal;font-stretch:normal;font-size:296.13256836px;line-height:1.25;font-family:Ubuntu;-inkscape-font-specification:'Ubuntu, Normal';text-align:start;letter-spacing:0px;word-spacing:0px;writing-mode:lr-tb;text-anchor:start;display:inline;fill:#ffffff;fill-opacity:1;stroke:none;stroke-width:0.50240827px;stroke-linecap:butt;stroke-linejoin:miter;stroke-opacity:1;enable-background:new"
     d="m 5.2665064,4.3632761 c -0.2143399,0 -0.4149081,0.027 -0.5994834,0.0801 -0.1845854,0.0531 -0.3500579,0.11865 -0.4989115,0.19531 -0.1488537,0.0767 -0.2773627,0.1596 -0.3845377,0.24805 -0.107175,0.0826 -0.1869985,0.15197 -0.2405809,0.21094 l 0.4101728,0.58398 c 0.041699,-0.0354 0.100057,-0.0855 0.1774774,-0.15039 0.077441,-0.0708 0.1728027,-0.13439 0.2859347,-0.19336 0.1131218,-0.0649 0.241641,-0.12079 0.3845376,-0.16797 0.1428967,-0.0472 0.300605,-0.0723 0.4732764,-0.0723 0.1428967,0 0.2772516,0.0212 0.4022874,0.0625 0.1309828,0.0354 0.2439128,0.0951 0.339184,0.17773 0.095211,0.0826 0.1692486,0.18475 0.2228311,0.30859 0.05957,0.12384 0.090667,0.27427 0.090667,0.45118 0,0.16512 -0.033117,0.32132 -0.098643,0.46875 -0.05957,0.14743 -0.1432702,0.29206 -0.2504452,0.43359 -0.1012181,0.13563 -0.219994,0.27449 -0.3569337,0.41602 -0.047858,0.0496 -0.097634,0.10002 -0.1478944,0.15039 -0.087133,0.0873 -0.1778207,0.17594 -0.2721327,0.26562 -0.1786284,0.17691 -0.35969,0.36013 -0.5442653,0.54883 -0.1845752,0.18871 -0.3520368,0.38731 -0.5008905,0.59961 -0.1488536,0.2123 -0.2715268,0.43986 -0.3667879,0.6816395 -0.089355,0.23589 -0.1340924,0.4923704 -0.1340924,0.7695304 v 0.0977 c 0,0.0354 0.00404,0.07 0.010096,0.10547 H 7.418094 V 9.9375156 H 4.5685714 c 0,-0.10025 0.038872,-0.21984 0.1163528,-0.35547 0.083398,-0.1356395 0.1846055,-0.2763995 0.3036844,-0.4238295 0.119089,-0.14743 0.2456494,-0.28818 0.3766422,-0.42382 l 0.3569337,-0.35352 c 0.1786182,-0.17691 0.3557826,-0.35821 0.534411,-0.54102 0.086528,-0.0914 0.170329,-0.18204 0.2484663,-0.27343 0.083196,-0.0973 0.1609695,-0.19566 0.2346643,-0.29297 0.1428967,-0.19461 0.2558267,-0.38742 0.3391839,-0.58203 0.089355,-0.2005 0.1340925,-0.40685 0.1340925,-0.61914 0,-0.54254 -0.1635441,-0.96296 -0.491016,-1.25782 -0.3215251,-0.30075 -0.8063317,-0.45117 -1.4553287,-0.45117 z m 5.3342156,0 c -0.285793,0 -0.54475,0.0482 -0.7769605,0.14258 -0.2322108,0.0885 -0.4308001,0.20996 -0.5975145,0.36328 -0.1607575,0.15333 -0.2853693,0.33266 -0.3746734,0.53906 -0.089355,0.2005 -0.1340924,0.41263 -0.1340924,0.63672 0,0.64279 0.2920632,1.12875 0.8755537,1.45899 -0.032814,0.0198 -0.066536,0.041 -0.098543,0.0625 -0.1020257,0.0682 -0.2006691,0.14521 -0.295799,0.23047 -0.1190889,0.10615 -0.2261731,0.22569 -0.3214341,0.36132 -0.089355,0.13563 -0.1632917,0.28414 -0.2228312,0.44336 -0.053613,0.15333 -0.080873,0.31532 -0.080873,0.48633 0,0.17692 0.033117,0.3659 0.098643,0.5664095 0.065527,0.1946 0.1764879,0.3739404 0.3312884,0.5390604 0.1548106,0.16512 0.3592357,0.30398 0.6152643,0.41602 0.2619755,0.10615 0.5871457,0.1582 0.9741567,0.1582 0.333428,0 0.62743,-0.0443 0.883449,-0.13281 0.256029,-0.0826 0.468268,-0.2002 0.634983,-0.35352 0.172671,-0.15922 0.301181,-0.3424304 0.384527,-0.5488304 0.08935,-0.2122895 0.134103,-0.4417695 0.134103,-0.6894495 -0.0109,-0.65294 -0.311984,-1.14457 -0.901199,-1.47656 h -0.002 c -0.05452,-0.0307 -0.110154,-0.06 -0.169592,-0.0879 0.119078,-0.0767 0.232008,-0.16538 0.339183,-0.26563 0.113132,-0.10025 0.212432,-0.21596 0.295789,-0.3457 0.08935,-0.12973 0.157456,-0.26859 0.205092,-0.41602 0.05361,-0.15332 0.08087,-0.31532 0.08087,-0.48633 0,-0.17692 -0.03695,-0.36011 -0.108467,-0.54882 -0.06553,-0.18871 -0.174519,-0.3584 -0.32932,-0.51172 -0.148853,-0.15922 -0.343576,-0.29038 -0.581733,-0.39063 -0.238168,-0.10026 -0.524385,-0.15039 -0.857813,-0.15039 z m 0,0.68164 h 0.002 c 0.189613,2.4e-4 0.350663,0.0331 0.481171,0.0977 0.130993,0.059 0.238077,0.13611 0.321435,0.23047 0.0834,0.0884 0.143724,0.18486 0.179446,0.29101 0.0417,0.10614 0.06119,0.20451 0.06119,0.29297 0,0.31844 -0.07401,0.57684 -0.222841,0.77735 -0.148844,0.19461 -0.347433,0.36624 -0.597505,0.51367 -0.226254,-0.0531 -0.422914,-0.12443 -0.589629,-0.21289 -0.160757,-0.0884 -0.2912051,-0.18874 -0.3924229,-0.30078 -0.1012181,-0.11205 -0.1771644,-0.23355 -0.2248,-0.36329 -0.047656,-0.12974 -0.070979,-0.25893 -0.070979,-0.38867 0,-0.10615 0.017467,-0.21222 0.053209,-0.31836 0.041699,-0.11205 0.1039744,-0.21232 0.1873316,-0.30078 0.083398,-0.0943 0.1904512,-0.1715 0.3214343,-0.23047 0.136445,-0.0588 0.301392,-0.0877 0.491026,-0.0879 z m -0.347069,2.72461 c 0.238158,0.0531 0.448439,0.11865 0.633014,0.19531 0.190532,0.0708 0.352138,0.15948 0.483131,0.26563 0.136939,0.10615 0.242095,0.22956 0.313548,0.37109 0.07148,0.14154 0.106489,0.30543 0.106489,0.49414 0,0.12384 -0.02332,0.24534 -0.07098,0.36328 -0.04766,0.1179395 -0.119685,0.2240095 -0.214946,0.3183595 -0.09531,0.0885 -0.219862,0.16174 -0.374673,0.22071 -0.148854,0.059 -0.326058,0.0898 -0.528495,0.0898 -0.226253,0 -0.413161,-0.0328 -0.562015,-0.0977 -0.1488431,-0.0649 -0.2715264,-0.14393 -0.3667875,-0.23828 -0.095311,-0.10025 -0.1634027,-0.20826 -0.2050915,-0.3203095 -0.035742,-0.11794 -0.053209,-0.22979 -0.053209,-0.33594 0,-0.30075 0.072089,-0.55914 0.2149457,-0.77734 0.1488536,-0.21819 0.3571862,-0.4014 0.6251183,-0.54883 z"
     id="path987"
     inkscape:connector-curvature="0" />
  <path
     style="color:#000000;display:inline;overflow:visible;visibility:visible;opacity:0.3;fill:#fcfcfc;fill-opacity:1;fill-rule:nonzero;stroke:none;stroke-width:1.00481653;marker:none;enable-background:accumulate"
     d="M 4.3692499,0.5 C 0.85964437,0.5 0.50021556,0.80985871 0.50021556,3.8242188 v 0.5 C 0.50021556,1.3098588 0.85964438,1 4.3692499,1 h 7.2608481 c 3.509606,0 3.886239,0.3098987 3.869034,3.3242188 v -0.5 C 15.516337,0.80989871 15.139704,0.5 11.630098,0.5 Z"
     id="path849"
     inkscape:connector-curvature="0" />
  <path
     style="color:#000000;display:inline;overflow:visible;visibility:visible;opacity:0.2;fill:#000000;fill-opacity:1;fill-rule:nonzero;stroke:none;stroke-width:1.00481653;marker:none;enable-background:accumulate"
     d="m 0.50021556,11.675781 v 0.5 c 0,3.01437 0.35941872,3.324219 3.86903434,3.324219 h 7.2608481 c 3.509606,0 3.886198,-0.309889 3.869034,-3.324219 v -0.5 C 15.516296,14.690111 15.139704,15 11.630098,15 H 4.3692499 C 0.85963429,15 0.50021557,14.690151 0.50021556,11.675781 Z"
     id="path854"
     inkscape:connector-curvature="0" />
  <g
     id="layer1-3"
     transform="matrix(1.2501689,0,0,1.2501689,-18.370946,-1.783277)"
     style="stroke-width:0.82788813;stroke-miterlimit:4;stroke-dasharray:none">
    <g
       id="g930"
       transform="matrix(0.80000038,0,0,0.80000038,5.2838964,2.2139926)"
       style="stroke-width:1.03485966;stroke-miterlimit:4;stroke-dasharray:none">
      <g
         id="g935"
         transform="translate(-0.05363593,-0.250301)"
         style="stroke-width:1.03485966;stroke-miterlimit:4;stroke-dasharray:none">
        <circle
           style="display:inline;opacity:1;fill:#45a925;fill-opacity:1;stroke:none;stroke-width:1.03485966;stroke-linecap:round;stroke-linejoin:round;stroke-miterlimit:4;stroke-dasharray:none;stroke-dashoffset:0;stroke-opacity:1;enable-background:new"
           id="path4980-6-2-7-9-6"
           cx="10.763678"
           cy="-23.316275"
           transform="rotate(90)"
           r="4.5"
           inkscape:export-filename="/home/stuart/yaru/icons/Suru/16x16/legacy/document-new.png"
           inkscape:export-xdpi="96"
           inkscape:export-ydpi="96" />
        <rect
           style="display:inline;opacity:1;fill:#f4f4f4;fill-opacity:1;stroke:none;stroke-width:1.03485966;stroke-linecap:round;stroke-linejoin:round;stroke-miterlimit:4;stroke-dasharray:none;stroke-dashoffset:0;stroke-opacity:1;enable-background:new"
           id="rect9617-7-7-9-1-1"
           width="5"
           height="1"
           x="20.816277"
           y="10.263678"
           rx="0.26666668"
           ry="0.33333334"
           inkscape:export-filename="/home/stuart/yaru/icons/Suru/16x16/legacy/document-new.png"
           inkscape:export-xdpi="96"
           inkscape:export-ydpi="96" />
        <rect
           style="display:inline;opacity:1;fill:#f4f4f4;fill-opacity:1;stroke:none;stroke-width:1.03485966;stroke-linecap:round;stroke-linejoin:round;stroke-miterlimit:4;stroke-dasharray:none;stroke-dashoffset:0;stroke-opacity:1;enable-background:new"
           id="rect9619-5-0-2-2-2"
           width="1"
           height="5"
           x="22.816275"
           y="8.2636776"
           rx="0.33333334"
           ry="0.26666668"
           inkscape:export-filename="/home/stuart/yaru/icons/Suru/16x16/legacy/document-new.png"
           inkscape:export-xdpi="96"
           inkscape:export-ydpi="96" />
      </g>
    </g>
  </g>
</svg>
