<?xml version="1.0" encoding="UTF-8" standalone="no"?>
<svg
   xmlns:dc="http://purl.org/dc/elements/1.1/"
   xmlns:cc="http://creativecommons.org/ns#"
   xmlns:rdf="http://www.w3.org/1999/02/22-rdf-syntax-ns#"
   xmlns:svg="http://www.w3.org/2000/svg"
   xmlns="http://www.w3.org/2000/svg"
   xmlns:sodipodi="http://sodipodi.sourceforge.net/DTD/sodipodi-0.dtd"
   xmlns:inkscape="http://www.inkscape.org/namespaces/inkscape"
   width="16"
   height="15.974"
   version="1.1"
   id="svg8"
   sodipodi:docname="edit-cut.svg"
   inkscape:version="0.92.4 (5da689c313, 2019-01-14)">
  <metadata
     id="metadata14">
    <rdf:RDF>
      <cc:Work
         rdf:about="">
        <dc:format>image/svg+xml</dc:format>
        <dc:type
           rdf:resource="http://purl.org/dc/dcmitype/StillImage" />
      </cc:Work>
    </rdf:RDF>
  </metadata>
  <defs
     id="defs12" />
  <sodipodi:namedview
     pagecolor="#ffffff"
     bordercolor="#666666"
     borderopacity="1"
     objecttolerance="10"
     gridtolerance="10"
     guidetolerance="10"
     inkscape:pageopacity="0"
     inkscape:pageshadow="2"
     inkscape:window-width="1920"
     inkscape:window-height="1016"
     id="namedview10"
     showgrid="false"
     inkscape:zoom="14.774008"
     inkscape:cx="-7.0263897"
     inkscape:cy="7.9870001"
     inkscape:window-x="0"
     inkscape:window-y="27"
     inkscape:window-maximized="1"
     inkscape:current-layer="svg8" />
  <g
     id="g857"
     word-spacing="0"
     letter-spacing="0"
     font-weight="500"
     font-size="33.109"
     text-anchor="middle"
     font-family="Ubuntu"
     fill="#808080">
    <path
       d="M 6.15625 0.48632812 L 6.1523438 0.48828125 C 6.0983437 0.48828125 6.0274531 0.49490625 5.9394531 0.50390625 A 1.78 1.78 0 0 0 5.6445312 0.55859375 A 0.632 0.632 0 0 0 5.4101562 0.66796875 A 0.373 0.373 0 0 0 5.2871094 0.82421875 A 0.447 0.447 0 0 0 5.2519531 1.0253906 C 5.2549531 1.0993906 5.2730625 1.1757187 5.2890625 1.2617188 C 5.6580625 3.3177188 6.00075 5.3804064 6.34375 7.4414062 L 7.1816406 4.3144531 L 6.15625 0.48632812 z "
       id="path865" />
    <path
       d="M 6.671875 8.5957031 L 6.5878906 8.9082031 L 6.1347656 10.599609 A 1.66 1.66 0 0 1 6.0273438 10.900391 A 0.588 0.588 0 0 1 5.859375 11.087891 A 0.514 0.514 0 0 1 5.6230469 11.167969 C 5.3780469 11.190969 5.1720312 11.090344 4.9570312 11.027344 A 1.945 1.945 0 0 0 4.1113281 10.972656 A 1.887 1.887 0 0 0 3.3574219 11.238281 A 2.164 2.164 0 0 0 2.7578125 11.820312 C 2.5918125 12.060314 2.463 12.344828 2.375 12.673828 A 2.784 2.784 0 0 0 2.2773438 13.611328 C 2.3063437 13.909328 2.3818594 14.176063 2.5058594 14.414062 A 1.9 1.9 0 0 0 3.015625 15.029297 C 3.230625 15.200297 3.4862031 15.32725 3.7832031 15.40625 C 4.0812031 15.48625 4.3666719 15.505844 4.6386719 15.464844 C 4.9166719 15.424844 5.1694844 15.334453 5.3964844 15.189453 C 5.6224844 15.045453 5.8193281 14.850469 5.9863281 14.605469 C 6.1553281 14.360469 6.2830937 14.073141 6.3710938 13.744141 L 7.0253906 11.302734 L 7.5 10.541016 L 7.9746094 11.302734 L 8.6289062 13.746094 C 8.7169063 14.075094 8.8456719 14.362422 9.0136719 14.607422 C 9.1816719 14.852422 9.3775156 15.047406 9.6035156 15.191406 C 9.8305156 15.335406 10.083328 15.427797 10.361328 15.466797 C 10.633328 15.507797 10.918797 15.487203 11.216797 15.408203 C 11.513797 15.328203 11.768375 15.20225 11.984375 15.03125 A 1.9 1.9 0 0 0 12.494141 14.416016 C 12.617141 14.178016 12.694656 13.911281 12.722656 13.613281 C 12.745656 13.317281 12.713 13.004781 12.625 12.675781 A 2.712 2.712 0 0 0 12.242188 11.822266 A 2.164 2.164 0 0 0 11.642578 11.240234 A 1.888 1.888 0 0 0 10.888672 10.972656 A 1.945 1.945 0 0 0 10.042969 11.029297 C 9.8289685 11.093297 9.6229531 11.192922 9.3769531 11.169922 A 0.52 0.52 0 0 1 9.140625 11.089844 A 0.588 0.588 0 0 1 8.9726562 10.902344 A 1.656 1.656 0 0 1 8.8652344 10.601562 L 8.4121094 8.9101562 C 8.4309367 8.8055807 8.4463822 8.7003503 8.4648438 8.5957031 L 8.0175781 8.5957031 A 0.525 0.525 0 0 1 7.5 9.0351562 A 0.525 0.525 0 0 1 6.9824219 8.5957031 L 6.671875 8.5957031 z M 4.4609375 11.826172 A 0.888 0.888 0 0 1 4.5019531 11.826172 C 4.5769531 11.830172 4.654375 11.844234 4.734375 11.865234 C 5.052375 11.950234 5.2669531 12.138686 5.3769531 12.429688 C 5.4929531 12.716687 5.4957656 13.066469 5.3847656 13.480469 C 5.2727656 13.900469 5.0936562 14.208297 4.8476562 14.404297 C 4.6076562 14.601297 4.3268125 14.657266 4.0078125 14.572266 A 0.91 0.91 0 0 1 3.3574219 14.005859 C 3.2474219 13.715859 3.2493281 13.358453 3.3613281 12.939453 C 3.4723281 12.525453 3.6477187 12.222297 3.8867188 12.029297 A 0.888 0.888 0 0 1 4.4609375 11.826172 z M 10.498047 11.826172 A 0.888 0.888 0 0 1 11.113281 12.03125 C 11.352281 12.22325 11.527672 12.525453 11.638672 12.939453 C 11.750672 13.358453 11.751578 13.714859 11.642578 14.005859 A 0.91 0.91 0 0 1 10.992188 14.572266 C 10.673186 14.657266 10.393344 14.602297 10.152344 14.404297 C 9.9063435 14.208297 9.7272344 13.900469 9.6152344 13.480469 C 9.5052344 13.066469 9.5070469 12.716686 9.6230469 12.429688 C 9.7330469 12.138686 9.947625 11.950234 10.265625 11.865234 C 10.345625 11.844234 10.423047 11.830172 10.498047 11.826172 z "
       id="path863"
       style="fill:#ed4737;fill-opacity:1" />
    <path
       d="M 6.671875 8.5957031 L 6.9824219 8.5957031 A 0.525 0.525 0 0 1 6.9746094 8.5117188 A 0.525 0.525 0 0 1 7.5 7.9863281 A 0.525 0.525 0 0 1 8.0253906 8.5117188 A 0.525 0.525 0 0 1 8.0175781 8.5957031 L 8.4648438 8.5957031 C 8.8955216 6.1544555 9.2347553 3.6952902 9.7050781 1.2617188 C 9.7210781 1.1767188 9.7391875 1.0974375 9.7421875 1.0234375 A 0.515 0.515 0 0 0 9.7070312 0.82421875 A 0.375 0.375 0 0 0 9.5839844 0.66601562 A 0.63 0.63 0 0 0 9.3496094 0.56054688 A 1.802 1.802 0 0 0 9.0546875 0.50390625 A 2.842 2.842 0 0 0 8.8496094 0.48828125 L 8.84375 0.48632812 L 8.84375 0.48828125 L 8.5195312 1.6875 L 8.5214844 1.6875 L 7.5 5.5019531 L 6.671875 8.5957031 z "
       id="path853" />
  </g>
</svg>
