<?xml version="1.0" encoding="UTF-8" standalone="no"?>
<svg
   xmlns:dc="http://purl.org/dc/elements/1.1/"
   xmlns:cc="http://creativecommons.org/ns#"
   xmlns:rdf="http://www.w3.org/1999/02/22-rdf-syntax-ns#"
   xmlns:svg="http://www.w3.org/2000/svg"
   xmlns="http://www.w3.org/2000/svg"
   xmlns:sodipodi="http://sodipodi.sourceforge.net/DTD/sodipodi-0.dtd"
   xmlns:inkscape="http://www.inkscape.org/namespaces/inkscape"
   width="16"
   height="16"
   version="1.1"
   id="svg8"
   sodipodi:docname="document-new.svg"
   inkscape:version="0.92.4 (5da689c313, 2019-01-14)">
  <metadata
     id="metadata14">
    <rdf:RDF>
      <cc:Work
         rdf:about="">
        <dc:format>image/svg+xml</dc:format>
        <dc:type
           rdf:resource="http://purl.org/dc/dcmitype/StillImage" />
      </cc:Work>
    </rdf:RDF>
  </metadata>
  <defs
     id="defs12" />
  <sodipodi:namedview
     pagecolor="#ffffff"
     bordercolor="#666666"
     borderopacity="1"
     objecttolerance="10"
     gridtolerance="10"
     guidetolerance="10"
     inkscape:pageopacity="0"
     inkscape:pageshadow="2"
     inkscape:window-width="1920"
     inkscape:window-height="1016"
     id="namedview10"
     showgrid="false"
     inkscape:zoom="14.75"
     inkscape:cx="-22.101695"
     inkscape:cy="8"
     inkscape:window-x="0"
     inkscape:window-y="27"
     inkscape:window-maximized="1"
     inkscape:current-layer="svg8" />
  <rect
     style="opacity:1;fill:#ffffff;fill-opacity:1;stroke:none;stroke-width:0.5;stroke-miterlimit:4;stroke-dasharray:none;stroke-opacity:1"
     id="rect816"
     width="10.440678"
     height="9.8983049"
     x="2.7118645"
     y="3.2542372"
     rx="37.6367"
     ry="9.8983049" />
  <g
     fill="#808080"
     color="#000"
     id="g6" />
  <path
     style="display:inline;opacity:1;fill:#45a925;fill-opacity:1;stroke:none;stroke-width:0.02232144;stroke-linecap:round;stroke-linejoin:round;stroke-miterlimit:4;stroke-dasharray:none;stroke-dashoffset:0;stroke-opacity:1;enable-background:new"
     d="M 8 0.5 A 7.5 7.5 0 0 0 0.5 8 A 7.5 7.5 0 0 0 8 15.5 A 7.5 7.5 0 0 0 15.5 8 A 7.5 7.5 0 0 0 8 0.5 z M 7.2851562 3.7148438 L 8.7148438 3.7148438 C 8.9127008 3.7148438 9.0722656 3.8936344 9.0722656 4.1152344 L 9.0722656 6.9277344 L 11.884766 6.9277344 C 12.106366 6.9277344 12.285156 7.0872991 12.285156 7.2851562 L 12.285156 8.7148438 C 12.285156 8.9127008 12.106366 9.0722656 11.884766 9.0722656 L 9.0722656 9.0722656 L 9.0722656 11.884766 C 9.0722656 12.106366 8.9127009 12.285156 8.7148438 12.285156 L 7.2851562 12.285156 C 7.0872992 12.285156 6.9277344 12.106366 6.9277344 11.884766 L 6.9277344 9.0722656 L 4.1152344 9.0722656 C 3.8936344 9.0722656 3.7148438 8.9127009 3.7148438 8.7148438 L 3.7148438 7.2851562 C 3.7148438 7.0872992 3.8936344 6.9277344 4.1152344 6.9277344 L 6.9277344 6.9277344 L 6.9277344 4.1152344 C 6.9277344 3.8936344 7.0872991 3.7148438 7.2851562 3.7148438 z "
     id="path4980-6-2-7-9-0-0-1" />
</svg>
