<?xml version="1.0" encoding="UTF-8" standalone="no"?>
<svg
   xmlns:dc="http://purl.org/dc/elements/1.1/"
   xmlns:cc="http://creativecommons.org/ns#"
   xmlns:rdf="http://www.w3.org/1999/02/22-rdf-syntax-ns#"
   xmlns:svg="http://www.w3.org/2000/svg"
   xmlns="http://www.w3.org/2000/svg"
   xmlns:sodipodi="http://sodipodi.sourceforge.net/DTD/sodipodi-0.dtd"
   xmlns:inkscape="http://www.inkscape.org/namespaces/inkscape"
   height="16"
   width="16"
   version="1.1"
   id="svg4026"
   sodipodi:docname="stock_print.svg"
   inkscape:version="0.92.4 (5da689c313, 2019-01-14)">
  <metadata
     id="metadata4032">
    <rdf:RDF>
      <cc:Work
         rdf:about="">
        <dc:format>image/svg+xml</dc:format>
        <dc:type
           rdf:resource="http://purl.org/dc/dcmitype/StillImage" />
        <dc:title />
      </cc:Work>
    </rdf:RDF>
  </metadata>
  <defs
     id="defs4030" />
  <sodipodi:namedview
     pagecolor="#ffffff"
     bordercolor="#666666"
     borderopacity="1"
     objecttolerance="10"
     gridtolerance="10"
     guidetolerance="10"
     inkscape:pageopacity="0"
     inkscape:pageshadow="2"
     inkscape:window-width="1920"
     inkscape:window-height="1011"
     id="namedview4028"
     showgrid="false"
     inkscape:zoom="22.627417"
     inkscape:cx="-4.1209122"
     inkscape:cy="5.416349"
     inkscape:window-x="0"
     inkscape:window-y="32"
     inkscape:window-maximized="1"
     inkscape:current-layer="svg4026"
     inkscape:snap-global="true">
    <inkscape:grid
       type="xygrid"
       id="grid4626" />
  </sodipodi:namedview>
  <path
     style="opacity:0.6;fill:#000000;fill-opacity:1;stroke:none"
     d="m 4.9999997,-3e-8 c -1.1079999,0 -1.9999999,0.892 -1.9999999,1.99999993 v 2 H 1.9999997 c -1.10799995,0 -1.99999995,0.892 -1.99999995,2 V 11 c 0,1.108 0.892,2 1.99999995,2 h 1.0000001 v 1 c 0,1.108 0.892,2 1.9999999,2 H 11 c 1.108,0 2,-0.892 2,-2 v -1 h 1 c 1.108,0 2,-0.892 2,-2 V 5.9999999 c 0,-1.108 -0.892,-2 -2,-2 h -1 v -2 C 13,0.89199997 12.108,-3e-8 11,-3e-8 Z"
     id="rect822"
     inkscape:connector-curvature="0" />
  <rect
     style="opacity:1;fill:#b3b3b3;fill-opacity:1;stroke:none"
     id="rect829"
     width="14"
     height="7"
     x="0.99999982"
     y="5"
     ry="1" />
  <path
     style="opacity:1;fill:#ffffff;fill-opacity:1;stroke:none"
     d="M 4.9999997,0.99999997 H 11 c 0.554,0 1,0.44599993 1,0.99999993 v 2 H 3.9999998 v -2 c 0,-0.554 0.4459999,-0.99999993 0.9999999,-0.99999993 z"
     id="rect831"
     inkscape:connector-curvature="0"
     sodipodi:nodetypes="sssccss" />
  <rect
     style="opacity:1;fill:#666666;fill-opacity:1;stroke:none"
     id="rect836"
     width="10"
     height="4"
     x="2.9999998"
     y="9"
     ry="0" />
  <path
     style="opacity:1;fill:#ffffff;fill-opacity:1;stroke:none"
     d="M 12,9.9999999 V 14 c 0,0.554 -0.446,1 -1,1 H 4.9999998 c -0.554,0 -1,-0.446 -1,-1 V 9.9999999 Z"
     id="rect838"
     inkscape:connector-curvature="0"
     sodipodi:nodetypes="csssscc" />
  <rect
     style="opacity:1;fill:#666666;fill-opacity:1;stroke:none"
     id="rect841"
     width="10"
     height="1"
     x="2.9999998"
     y="3.9999998"
     ry="0" />
  <path
     inkscape:connector-curvature="0"
     id="path843"
     d="m 4.9999997,11 v 1 H 11 v -1 z"
     style="color:#000000;font-weight:400;line-height:normal;font-family:sans-serif;font-variant-ligatures:normal;font-variant-position:normal;font-variant-caps:normal;font-variant-numeric:normal;font-variant-alternates:normal;font-feature-settings:normal;text-indent:0;text-align:start;text-decoration:none;text-decoration-line:none;text-decoration-style:solid;text-decoration-color:#000000;text-transform:none;text-orientation:mixed;white-space:normal;shape-padding:0;overflow:visible;isolation:auto;mix-blend-mode:normal;fill:#a7a7f1;fill-opacity:1;marker:none" />
  <path
     inkscape:connector-curvature="0"
     id="path845"
     d="m 4.9999997,13 v 1 H 11 v -1 z"
     style="color:#000000;font-weight:400;line-height:normal;font-family:sans-serif;font-variant-ligatures:normal;font-variant-position:normal;font-variant-caps:normal;font-variant-numeric:normal;font-variant-alternates:normal;font-feature-settings:normal;text-indent:0;text-align:start;text-decoration:none;text-decoration-line:none;text-decoration-style:solid;text-decoration-color:#000000;text-transform:none;text-orientation:mixed;white-space:normal;shape-padding:0;overflow:visible;isolation:auto;mix-blend-mode:normal;fill:#a7a7f1;fill-opacity:1;marker:none" />
</svg>
