<?xml version="1.0" encoding="UTF-8" standalone="no"?>
<!-- Created with Inkscape (http://www.inkscape.org/) -->

<svg
   xmlns:svg="http://www.w3.org/2000/svg"
   xmlns="http://www.w3.org/2000/svg"
   xmlns:xlink="http://www.w3.org/1999/xlink"
   version="1.1"
   width="16"
   height="16"
   id="svg3916">
  <defs
     id="defs3918">
    <linearGradient
       x1="18.03083"
       y1="16.407909"
       x2="20.054544"
       y2="24.627615"
       id="linearGradient2929"
       xlink:href="#linearGradient8265-821-176-38-919-66-249"
       gradientUnits="userSpaceOnUse"
       gradientTransform="matrix(0.2966887,0,0,0.3520695,1.8805021,2.118629)" />
    <linearGradient
       id="linearGradient8265-821-176-38-919-66-249">
      <stop
         id="stop2687"
         style="stop-color:#ffffff;stop-opacity:0.2"
         offset="0" />
      <stop
         id="stop2689"
         style="stop-color:#ffffff;stop-opacity:0"
         offset="1" />
    </linearGradient>
    <linearGradient
       x1="126.69791"
       y1="58.583481"
       x2="169.22964"
       y2="238.3999"
       id="linearGradient2932"
       xlink:href="#linearGradient2610"
       gradientUnits="userSpaceOnUse"
       gradientTransform="matrix(0.05489342,0.01385132,0.00257263,0.05248166,-0.71280094,-0.2674109)" />
    <linearGradient
       id="linearGradient2610">
      <stop
         id="stop2612"
         style="stop-color:#f0c178;stop-opacity:1"
         offset="0" />
      <stop
         id="stop2614"
         style="stop-color:#e18941;stop-opacity:1"
         offset="0.5" />
      <stop
         id="stop2616"
         style="stop-color:#ec4f18;stop-opacity:1"
         offset="1" />
    </linearGradient>
    <linearGradient
       x1="10.318256"
       y1="14.992862"
       x2="4.1760364"
       y2="4.0514131"
       id="linearGradient2934"
       xlink:href="#linearGradient2603"
       gradientUnits="userSpaceOnUse"
       gradientTransform="matrix(1.0083043,0,0,1.0006232,-8.2398292e-4,-0.0066209)" />
    <linearGradient
       id="linearGradient2603">
      <stop
         id="stop2605"
         style="stop-color:#bb2b12;stop-opacity:1"
         offset="0" />
      <stop
         id="stop2607"
         style="stop-color:#cd7233;stop-opacity:1"
         offset="1" />
    </linearGradient>
    <linearGradient
       x1="302.85715"
       y1="366.64789"
       x2="302.85715"
       y2="609.50507"
       id="linearGradient2915"
       xlink:href="#linearGradient5048"
       gradientUnits="userSpaceOnUse"
       gradientTransform="matrix(2.774389,0,0,1.969706,-1892.179,-872.8854)" />
    <linearGradient
       id="linearGradient5048">
      <stop
         id="stop5050"
         style="stop-color:#000000;stop-opacity:0"
         offset="0" />
      <stop
         id="stop5056"
         style="stop-color:#000000;stop-opacity:1"
         offset="0.5" />
      <stop
         id="stop5052"
         style="stop-color:#000000;stop-opacity:0"
         offset="1" />
    </linearGradient>
    <radialGradient
       cx="605.71429"
       cy="486.64789"
       r="117.14286"
       fx="605.71429"
       fy="486.64789"
       id="radialGradient2917"
       xlink:href="#linearGradient5060"
       gradientUnits="userSpaceOnUse"
       gradientTransform="matrix(2.774389,0,0,1.969706,-1891.633,-872.8854)" />
    <linearGradient
       id="linearGradient5060">
      <stop
         id="stop5062"
         style="stop-color:#000000;stop-opacity:1"
         offset="0" />
      <stop
         id="stop5064"
         style="stop-color:#000000;stop-opacity:0"
         offset="1" />
    </linearGradient>
    <radialGradient
       cx="605.71429"
       cy="486.64789"
       r="117.14286"
       fx="605.71429"
       fy="486.64789"
       id="radialGradient2919"
       xlink:href="#linearGradient5060"
       gradientUnits="userSpaceOnUse"
       gradientTransform="matrix(-2.774389,0,0,1.969706,112.7623,-872.8854)" />
    <linearGradient
       x1="25"
       y1="0"
       x2="25"
       y2="16.000105"
       id="linearGradient6113"
       xlink:href="#linearGradient3309"
       gradientUnits="userSpaceOnUse"
       gradientTransform="matrix(1.0555344,0,0,1.0555345,-18.44978,-0.44412594)" />
    <linearGradient
       x1="63.9995"
       y1="3.1001"
       x2="63.9995"
       y2="122.8994"
       id="linearGradient3309"
       gradientUnits="userSpaceOnUse">
      <stop
         id="stop3311"
         style="stop-color:#f6f6f6;stop-opacity:1"
         offset="0" />
      <stop
         id="stop3313"
         style="stop-color:#cccccc;stop-opacity:1"
         offset="1" />
    </linearGradient>
    <linearGradient
       x1="21"
       y1="0"
       x2="21"
       y2="16.004715"
       id="linearGradient6115"
       xlink:href="#linearGradient3397"
       gradientUnits="userSpaceOnUse"
       gradientTransform="matrix(1.0555344,0,0,1.0555345,-18.44978,-0.44412594)" />
    <linearGradient
       id="linearGradient3397">
      <stop
         id="stop3399"
         style="stop-color:#aaaaaa;stop-opacity:1"
         offset="0" />
      <stop
         id="stop3401"
         style="stop-color:#8c8c8c;stop-opacity:1"
         offset="1" />
    </linearGradient>
  </defs>
  <g
     id="layer1">
    <g
       transform="matrix(0.3639508,0,0,0.3445682,-0.64485094,-0.385452)"
       id="layer6">
      <g
         transform="matrix(0.02165152,0,0,0.01485743,43.0076,42.68539)"
         id="g2488"
         style="display:inline">
        <rect
           width="1339.6335"
           height="478.35718"
           x="-1559.2523"
           y="-150.69685"
           id="rect2490"
           style="opacity:0.40206185;fill:url(#linearGradient2915);fill-opacity:1;fill-rule:nonzero;stroke:none;stroke-width:1;marker:none;visibility:visible;display:inline;overflow:visible" />
        <path
           d="m -219.61876,-150.68038 c 0,0 0,478.33079 0,478.33079 142.874166,0.90045 345.40022,-107.16966 345.40014,-239.196175 0,-132.026537 -159.436816,-239.134595 -345.40014,-239.134615 z"
           id="path2492"
           style="opacity:0.40206185;fill:url(#radialGradient2917);fill-opacity:1;fill-rule:nonzero;stroke:none;stroke-width:1;marker:none;visibility:visible;display:inline;overflow:visible" />
        <path
           d="m -1559.2523,-150.68038 c 0,0 0,478.33079 0,478.33079 -142.8742,0.90045 -345.4002,-107.16966 -345.4002,-239.196175 0,-132.026537 159.4368,-239.134595 345.4002,-239.134615 z"
           id="path2494"
           style="opacity:0.40206185;fill:url(#radialGradient2919);fill-opacity:1;fill-rule:nonzero;stroke:none;stroke-width:1;marker:none;visibility:visible;display:inline;overflow:visible" />
      </g>
    </g>
    <path
       d="m 0.58764339,1.5215729 c -0.056258,0 -0.104488,0.060345 -0.104488,0.122673 0,4.6045693 0.00337,8.6511921 -6.554e-4,12.8572541 4.70632611,-0.02397 9.41510881,-0.04826 14.12251501,-0.06552 -0.417129,0 -1.112329,-0.07009 -1.102384,-0.940487 0.0035,-3.5970298 0.02296,-7.4083532 0.01078,-10.9808562 l -6.0519478,0 c -0.4774881,0 -1.0962577,-0.9930629 -1.5260835,-0.9930629 l -5.34773331,0 z"
       id="rect2196-1"
       style="fill:#ffffff;fill-opacity:1;stroke:#a8a8a8;stroke-width:0.97899997;stroke-linecap:round;stroke-linejoin:round;stroke-miterlimit:4;stroke-opacity:1;stroke-dasharray:none;display:inline" />
    <path
       d="m 2.5253881,4.5240131 c 0.656364,0 12.4800419,0.031393 12.9890009,0.031393 0,0.615413 -0.02468,9.9580749 -0.05407,9.9580749 -4.558843,0.01775 -11.6593999,-0.01389 -12.9868139,-0.01389 0,-1.161471 0.05188,-7.5853289 0.05188,-9.9755729 z"
       id="rect3086"
       style="fill:url(#linearGradient2932);fill-opacity:1;stroke:url(#linearGradient2934);stroke-width:0.95339239;stroke-linecap:round;stroke-linejoin:round;stroke-miterlimit:4;stroke-opacity:1;stroke-dasharray:none;display:inline" />
    <path
       d="m 2.8354689,4.0000004 c -0.4565886,0 -0.834437,0.4483788 -0.834437,0.9901955 l 0,5.6331121 c 0.00175,0.100774 0.044034,0.21567 0.1112582,0.286057 0.067223,0.07039 0.1531492,0.100083 0.2503311,0.08802 0.00309,9.4e-5 0.00618,9.4e-5 0.00927,0 L 15.722884,8.4888865 c 0.154804,-0.028972 0.275982,-0.1881213 0.278146,-0.3740738 l 0,-3.1246168 c 0,-0.5418167 -0.377849,-0.9901955 -0.834437,-0.9901955 l -12.3311241,0 z"
       id="path2509"
       style="fill:url(#linearGradient2929);fill-opacity:1;fill-rule:evenodd;stroke:none" />
    <path
       d="m 3.4989691,13.999999 0,-8.4999994 11.4999999,0"
       id="path2406"
       style="opacity:0.35;fill:none;stroke:#ffffff;stroke-width:1px;stroke-linecap:butt;stroke-linejoin:miter;stroke-opacity:1" />
    <g
       transform="matrix(0.58738442,0,0,0.5873844,6.3009584,6.3008033)"
       id="layer1-6">
      <g
         id="g2479">
        <path
           d="m 6.8784944,0.08364131 c -0.2622126,0 -0.4617963,0.19958276 -0.4617963,0.46179631 l 0,1.31941808 C 5.8320345,2.0149533 5.3071583,2.2573861 4.8004111,2.5575503 L 3.843833,1.6009721 c -0.1854119,-0.1854129 -0.4742959,-0.1854129 -0.659709,0 L 1.6008224,3.1842739 c -0.185412,0.1854129 -0.185412,0.4742961 0,0.659709 L 2.5574005,4.8005611 C 2.257237,5.307308 2.014804,5.8321843 1.864706,6.4168483 l -1.31941803,0 c -0.26221268,0 -0.4617963,0.1995827 -0.4617963,0.4617963 l 0,2.2430108 c 10e-9,0.2622136 0.19958361,0.4617964 0.4617963,0.4617964 l 1.31941803,0 c 0.1500979,0.5846632 0.3925311,1.1095392 0.6926945,1.6162872 l -0.9565781,0.956578 c -0.185412,0.185413 -0.185412,0.474296 0,0.659709 l 1.5833016,1.583302 c 0.185413,0.185413 0.4742959,0.185413 0.659709,0 l 0.9565781,-0.956579 c 0.5067473,0.300165 1.0316233,0.542598 1.616287,0.692695 l 0,1.319418 c 1e-7,0.262214 0.1995836,0.461796 0.4617963,0.461796 l 2.2430106,0 c 0.2622133,0 0.4617963,-0.199582 0.4617963,-0.461796 l 0,-1.319418 c 0.5846637,-0.150097 1.1095397,-0.39253 1.6162877,-0.692695 l 0.956578,0.956579 c 0.185413,0.185413 0.474296,0.185413 0.659709,0 l 1.583301,-1.583302 c 0.185413,-0.185413 0.185413,-0.474296 0,-0.659709 l -0.956578,-0.956578 c 0.300165,-0.506748 0.542598,-1.031624 0.692695,-1.6162872 l 1.319418,0 c 0.262213,0 0.461796,-0.1995832 0.461796,-0.4617964 l 0,-2.2430108 c 0,-0.2622135 -0.199584,-0.4617963 -0.461796,-0.4617963 l -1.319418,0 C 13.985197,5.8321843 13.742764,5.307308 13.442599,4.8005611 l 0.956578,-0.9565782 c 0.185413,-0.1854129 0.185413,-0.4742959 0,-0.659709 L 12.815876,1.6009721 c -0.185413,-0.1854129 -0.474296,-0.1854129 -0.659709,0 L 11.199589,2.5575503 C 10.692841,2.2573861 10.167965,2.0149533 9.5833013,1.8648557 l 0,-1.31941808 C 9.5833009,0.28322407 9.3837187,0.08364131 9.121505,0.08364131 l -2.2430106,0 z M 7.9999997,5.889081 c 1.16531,0 2.1110693,0.9457589 2.1110693,2.111069 0,1.1653101 -0.9457593,2.111069 -2.1110693,2.111069 -1.16531,0 -2.1110688,-0.9457589 -2.1110688,-2.111069 0,-1.1653101 0.9457588,-2.111069 2.1110688,-2.111069 z"
           id="path2426"
           style="fill:url(#linearGradient6113);fill-opacity:1;fill-rule:nonzero;stroke:url(#linearGradient6115);stroke-width:1.19172406;stroke-linecap:butt;stroke-linejoin:round;stroke-miterlimit:4;stroke-opacity:1;stroke-dasharray:none;stroke-dashoffset:0;marker:none;visibility:visible;display:block;overflow:visible;enable-background:accumulate" />
      </g>
    </g>
  </g>
</svg>
