<?xml version="1.0" encoding="UTF-8" standalone="no"?>
<!-- Created with Inkscape (http://www.inkscape.org/) -->

<svg
   xmlns:dc="http://purl.org/dc/elements/1.1/"
   xmlns:cc="http://creativecommons.org/ns#"
   xmlns:rdf="http://www.w3.org/1999/02/22-rdf-syntax-ns#"
   xmlns:svg="http://www.w3.org/2000/svg"
   xmlns="http://www.w3.org/2000/svg"
   xmlns:xlink="http://www.w3.org/1999/xlink"
   xmlns:sodipodi="http://sodipodi.sourceforge.net/DTD/sodipodi-0.dtd"
   xmlns:inkscape="http://www.inkscape.org/namespaces/inkscape"
   id="svg2415"
   width="16"
   height="16"
   version="1.1"
   sodipodi:docname="media-seek-backward.svg"
   inkscape:version="0.92.4 (5da689c313, 2019-01-14)">
  <metadata
     id="metadata32">
    <rdf:RDF>
      <cc:Work
         rdf:about="">
        <dc:format>image/svg+xml</dc:format>
        <dc:type
           rdf:resource="http://purl.org/dc/dcmitype/StillImage" />
        <dc:title />
      </cc:Work>
    </rdf:RDF>
  </metadata>
  <sodipodi:namedview
     pagecolor="#ffffff"
     bordercolor="#666666"
     borderopacity="1"
     objecttolerance="10"
     gridtolerance="10"
     guidetolerance="10"
     inkscape:pageopacity="0"
     inkscape:pageshadow="2"
     inkscape:window-width="1920"
     inkscape:window-height="1016"
     id="namedview30"
     showgrid="false"
     inkscape:zoom="52.4375"
     inkscape:cx="8"
     inkscape:cy="8"
     inkscape:window-x="0"
     inkscape:window-y="27"
     inkscape:window-maximized="1"
     inkscape:current-layer="svg2415" />
  <defs
     id="defs2417">
    <linearGradient
       id="linearGradient3703">
      <stop
         id="stop3705"
         style="stop-color:#fff"
         offset="0" />
      <stop
         id="stop3707"
         style="stop-color:#fff;stop-opacity:0"
         offset="1" />
    </linearGradient>
    <linearGradient
       id="linearGradient3689"
       x1="1.3633"
       x2="4.5012"
       y1="5.2996"
       y2="11.562"
       gradientTransform="translate(-0.029005)"
       gradientUnits="userSpaceOnUse">
      <stop
         id="stop2858"
         style="stop-color:#eeeeec"
         offset="0" />
      <stop
         id="stop2860"
         style="stop-color:#babdb6"
         offset=".78131" />
      <stop
         id="stop2862"
         style="stop-color:#a1a59b"
         offset="1" />
    </linearGradient>
    <linearGradient
       id="linearGradient3713"
       x1="7.3034"
       x2="10.501"
       y1="5.1798"
       y2="11.682"
       gradientTransform="translate(.97065)"
       gradientUnits="userSpaceOnUse">
      <stop
         id="stop3617"
         style="stop-color:#eeeeec"
         offset="0" />
      <stop
         id="stop3619"
         style="stop-color:#babdb6"
         offset=".6958" />
      <stop
         id="stop3621"
         style="stop-color:#a1a59b"
         offset="1" />
    </linearGradient>
    <linearGradient
       id="linearGradient3721"
       x1="8"
       x2="8"
       y1="4"
       y2="13"
       gradientTransform="translate(.97065)"
       gradientUnits="userSpaceOnUse"
       xlink:href="#linearGradient3703" />
    <linearGradient
       id="linearGradient3725"
       x1="8"
       x2="8"
       y1="4"
       y2="13"
       gradientTransform="translate(-6.029)"
       gradientUnits="userSpaceOnUse"
       xlink:href="#linearGradient3703" />
    <linearGradient
       id="linearGradient3709"
       x1="14.978"
       x2="15.139"
       y1="5.9683"
       y2="15.736"
       gradientTransform="matrix(1 0 0 .88732 .99932 1.3654)"
       gradientUnits="userSpaceOnUse">
      <stop
         id="stop3705-2"
         style="stop-color:#fff"
         offset="0" />
      <stop
         id="stop3707-0"
         style="stop-color:#fff;stop-opacity:0"
         offset="1" />
    </linearGradient>
    <linearGradient
       id="linearGradient2860"
       x1="3.5"
       x2="12.5"
       y1="-14.5"
       y2="-13.5"
       gradientTransform="translate(.48504 -.49932)"
       gradientUnits="userSpaceOnUse">
      <stop
         id="stop3617-0"
         style="stop-color:#eeeeec"
         offset="0" />
      <stop
         id="stop3619-4"
         style="stop-color:#babdb6"
         offset=".6958" />
      <stop
         id="stop3621-2"
         style="stop-color:#a1a59b"
         offset="1" />
    </linearGradient>
  </defs>
  <path
     id="path835"
     style="color:#000000;overflow:visible;fill:#808080;marker:none"
     overflow="visible"
     d="M 8.5139996,3.244 C 7.0299996,3.909 4.205,5.268 0.5,7.619 4.084,9.921 7.0009996,11.322 8.5139996,12 V 8.24 C 11.614999,10.153 14.149999,11.39 15.511999,12 V 3.244 c -1.34,0.6 -3.813,1.809 -6.9979994,3.76 z M 1.119,11.881 c -0.01,0.021 -0.002,10e-4 -0.01,0.017 a 0.67,0.67 0 0 1 -0.018,0.037 l 0.001,-0.001 0.026,-0.052 z"
     inkscape:connector-curvature="0" />
  <path
     style="color:#000000;overflow:visible;fill:#ffffff;marker:none;fill-opacity:1;opacity:0.3"
     d="M 8.5136719 3.2441406 C 7.0296719 3.9091406 4.205 5.2681406 0.5 7.6191406 C 0.64423346 7.7117817 0.76813131 7.7813596 0.91015625 7.8710938 C 4.4024625 5.6869167 7.0879802 4.3830119 8.5136719 3.7441406 L 8.5136719 3.2441406 z M 15.511719 3.2441406 C 14.171719 3.8441406 11.698671 5.0529063 8.5136719 7.0039062 L 8.5136719 7.5039062 C 11.698671 5.5529063 14.171719 4.3441406 15.511719 3.7441406 L 15.511719 3.2441406 z "
     id="path846" />
  <path
     style="color:#000000;overflow:visible;fill:#000000;marker:none;fill-opacity:1;opacity:0.2"
     d="M 0.91015625 7.3710938 C 0.76732699 7.4604228 0.64557433 7.5267667 0.5 7.6191406 C 4.084 9.9211406 7.0006719 11.322 8.5136719 12 L 8.5136719 11.5 C 7.0615606 10.849285 4.2972526 9.5111287 0.91015625 7.3710938 z M 8.5136719 7.7402344 L 8.5136719 8.2402344 C 11.614671 10.153234 14.149719 11.39 15.511719 12 L 15.511719 11.5 C 14.149719 10.89 11.614671 9.6532344 8.5136719 7.7402344 z "
     id="path851" />
</svg>
