<?xml version="1.0" encoding="UTF-8" standalone="no"?>
<svg
   xmlns:dc="http://purl.org/dc/elements/1.1/"
   xmlns:cc="http://creativecommons.org/ns#"
   xmlns:rdf="http://www.w3.org/1999/02/22-rdf-syntax-ns#"
   xmlns:svg="http://www.w3.org/2000/svg"
   xmlns="http://www.w3.org/2000/svg"
   xmlns:xlink="http://www.w3.org/1999/xlink"
   xmlns:sodipodi="http://sodipodi.sourceforge.net/DTD/sodipodi-0.dtd"
   xmlns:inkscape="http://www.inkscape.org/namespaces/inkscape"
   width="16"
   height="16"
   version="1.1"
   id="svg6"
   sodipodi:docname="stock_xfburn-audio-cd.svg"
   inkscape:version="0.92.4 (5da689c313, 2019-01-14)">
  <metadata
     id="metadata12">
    <rdf:RDF>
      <cc:Work
         rdf:about="">
        <dc:format>image/svg+xml</dc:format>
        <dc:type
           rdf:resource="http://purl.org/dc/dcmitype/StillImage" />
        <dc:title></dc:title>
      </cc:Work>
    </rdf:RDF>
  </metadata>
  <defs
     id="defs10">
    <linearGradient
       inkscape:collect="always"
       xlink:href="#linearGradient1048"
       id="linearGradient8588-0-1-5"
       gradientUnits="userSpaceOnUse"
       gradientTransform="matrix(0.31496059,0,0,0.31496072,0.1666654,-77.709954)"
       x1="13.735326"
       y1="249.69423"
       x2="38.099998"
       y2="292.76666" />
    <linearGradient
       inkscape:collect="always"
       id="linearGradient1048">
      <stop
         style="stop-color:#cdcdcd;stop-opacity:1;"
         offset="0"
         id="stop1044" />
      <stop
         style="stop-color:#d9d9d9;stop-opacity:1"
         offset="1"
         id="stop1046" />
    </linearGradient>
  </defs>
  <sodipodi:namedview
     pagecolor="#ffffff"
     bordercolor="#666666"
     borderopacity="1"
     objecttolerance="10"
     gridtolerance="10"
     guidetolerance="10"
     inkscape:pageopacity="0"
     inkscape:pageshadow="2"
     inkscape:window-width="1920"
     inkscape:window-height="1016"
     id="namedview8"
     showgrid="false"
     inkscape:zoom="29.409045"
     inkscape:cx="9.4800595"
     inkscape:cy="7.8201222"
     inkscape:window-x="0"
     inkscape:window-y="27"
     inkscape:window-maximized="1"
     inkscape:current-layer="svg6" />
  <circle
     style="display:inline;opacity:1;fill:url(#linearGradient8588-0-1-5);fill-opacity:1;stroke:none;stroke-width:2.15700388;stroke-linecap:round;stroke-linejoin:round;stroke-miterlimit:4;stroke-dasharray:none;stroke-opacity:1;enable-background:new"
     id="path9498-6-5-6-8"
     cx="7.999999"
     cy="7.9999814"
     r="7.499999" />
  <path
     inkscape:connector-curvature="0"
     style="display:inline;opacity:0.2;fill:#ffffff;fill-opacity:1;stroke:none;stroke-width:0.06696427;stroke-linecap:round;stroke-linejoin:round;stroke-miterlimit:4;stroke-dasharray:none;stroke-opacity:1;enable-background:new"
     d="M 7.9999989,0.50000288 A 7.4999983,7.4999983 0 0 0 0.5,8.0000017 h 7.4999989 z m 0,7.49999882 V 15.5 A 7.4999983,7.4999983 0 0 0 15.499997,8.0000017 Z"
     id="path11042-53-1-6-2-2" />
  <path
     inkscape:connector-curvature="0"
     style="display:inline;opacity:0.02000002;fill:#000000;fill-opacity:1;stroke:none;stroke-width:0.06696427;stroke-linecap:round;stroke-linejoin:round;stroke-miterlimit:4;stroke-dasharray:none;stroke-opacity:1;enable-background:new"
     d="m 13.303305,2.6966949 a 7.4999983,7.4999983 0 0 0 -10.6066015,0 L 7.9999989,8.0000017 Z M 7.9999989,8.0000017 2.6967035,13.303296 a 7.4999983,7.4999983 0 0 0 10.6066015,0 z"
     id="path11042-53-6-27-2-0-2" />
  <path
     style="display:inline;opacity:1;fill:#faf8f6;fill-opacity:1;stroke:none;stroke-width:0.06696427;stroke-linecap:round;stroke-linejoin:round;stroke-miterlimit:4;stroke-dasharray:none;stroke-opacity:1;enable-background:new"
     d="m 5.9541492,0.78454129 a 7.4999983,7.4999983 0 0 0 -0.1361884,0.0461538 7.4999983,7.4999983 0 0 1 0.3626884,-0.0983077 7.4999983,7.4999983 0 0 0 -0.2265,0.0521539 z M 6.5447453,0.64849131 A 7.4999983,7.4999983 0 0 1 6.9142068,0.58710671 7.4999983,7.4999983 0 0 0 6.5447453,0.64849131 Z M 5.4640185,0.95039511 A 7.4999983,7.4999983 0 0 0 5.1133186,1.0843105 7.4999983,7.4999983 0 0 1 5.4640185,0.95039511 Z M 7.2867605,0.53985672 A 7.4999983,7.4999983 0 0 1 7.6590028,0.51562592 7.4999983,7.4999983 0 0 0 7.2867605,0.53985672 Z M 4.7734994,1.2386028 A 7.4999983,7.4999983 0 0 0 4.4364033,1.407595 7.4999983,7.4999983 0 0 1 4.7734994,1.2386028 Z M 8.0350643,0.50574903 A 7.4999983,7.4999983 0 0 1 8.4091181,0.51913363 7.4999983,7.4999983 0 0 0 8.0350643,0.50574903 Z M 4.1152764,1.5942412 A 7.4999983,7.4999983 0 0 0 3.7963418,1.7961527 7.4999983,7.4999983 0 0 1 4.1152764,1.5942412 Z M 8.7819142,0.54652595 A 7.4999983,7.4999983 0 0 1 9.153764,0.59717974 7.4999983,7.4999983 0 0 0 8.7819142,0.54652595 Z M 3.4951303,2.0141604 A 7.4999983,7.4999983 0 0 0 3.1978996,2.2470757 7.4999983,7.4999983 0 0 1 3.4951303,2.0141604 Z M 9.523433,0.66196823 A 7.4999983,7.4999983 0 0 1 9.8857758,0.74885283 7.4999983,7.4999983 0 0 0 9.523433,0.66196823 Z M 2.8119612,2.5900218 a 7.4999983,7.4999983 0 0 0 -0.085038,0.079269 7.4999983,7.4999983 0 0 1 0.085038,-0.079269 z M 2.699692,2.6987141 A 7.4999983,7.4999983 0 0 0 1.5056575,4.2498754 l 6.4951376,3.7499647 z m 5.3011031,5.301126 5.3010899,5.3011369 a 7.4999983,7.4999983 0 0 0 1.194046,-1.551161 z M 10.248118,0.8505182 A 7.4999983,7.4999983 0 0 1 10.60071,0.97335664 7.4999983,7.4999983 0 0 0 10.248118,0.8505182 Z M 10.95022,1.1104335 A 7.4999983,7.4999983 0 0 1 11.290547,1.2687989 7.4999983,7.4999983 0 0 0 10.95022,1.1104335 Z m 0.673073,0.3289038 a 7.4999983,7.4999983 0 0 1 0.123023,0.073039 l 0.0046,-0.00808 a 7.4999983,7.4999983 0 0 0 -0.12745,-0.065308 z m -7.368032,13.0479547 -0.00462,0.0081 a 7.4999983,7.4999983 0 0 0 0.1274654,0.06531 7.4999983,7.4999983 0 0 1 -0.1230231,-0.07304 z m 0.4557807,0.2436 A 7.4999983,7.4999983 0 0 0 5.051357,14.889246 7.4999983,7.4999983 0 0 1 4.7110417,14.730892 Z m 0.6898268,0.295431 a 7.4999983,7.4999983 0 0 0 0.3526038,0.12285 7.4999983,7.4999983 0 0 1 -0.3526038,-0.12285 z m 7.8738435,-1.695865 a 7.4999983,7.4999983 0 0 1 -0.08504,0.07927 7.4999983,7.4999983 0 0 0 0.08504,-0.07927 z M 6.1158376,15.25085 a 7.4999983,7.4999983 0 0 0 0.3623423,0.08689 7.4999983,7.4999983 0 0 1 -0.3623423,-0.08689 z m 6.6878744,-1.498188 a 7.4999983,7.4999983 0 0 1 -0.297219,0.232915 7.4999983,7.4999983 0 0 0 0.297219,-0.232915 z m -5.9558514,1.649884 a 7.4999983,7.4999983 0 0 0 0.37185,0.05065 7.4999983,7.4999983 0 0 1 -0.37185,-0.05065 z m 5.3574214,-1.198961 a 7.4999983,7.4999983 0 0 1 -0.318946,0.201911 7.4999983,7.4999983 0 0 0 0.318946,-0.201911 z m -4.6127753,1.277019 a 7.4999983,7.4999983 0 0 0 0.3740422,0.01338 7.4999983,7.4999983 0 0 1 -0.3740422,-0.01338 z m 3.9727023,-0.888462 a 7.4999983,7.4999983 0 0 1 -0.337096,0.168993 7.4999983,7.4999983 0 0 0 0.337096,-0.168993 z m -3.2225871,0.891923 a 7.4999983,7.4999983 0 0 0 0.3722423,-0.02423 7.4999983,7.4999983 0 0 1 -0.3722423,0.02423 z m 2.5456711,-0.568638 a 7.4999983,7.4999983 0 0 1 -0.350687,0.133904 7.4999983,7.4999983 0 0 0 0.350687,-0.133904 z m -1.800875,0.497169 a 7.4999983,7.4999983 0 0 0 0.36945,-0.06138 7.4999983,7.4999983 0 0 1 -0.36945,0.06138 z m 1.096234,-0.243507 a 7.4999983,7.4999983 0 0 1 -0.3626762,0.09831 7.4999983,7.4999983 0 0 0 0.3626762,-0.09831 z"
     id="path11042-53-6-2-0-6-2-8"
     inkscape:connector-curvature="0" />
  <circle
     style="display:inline;opacity:1;fill:#aea795;fill-opacity:1;stroke:none;stroke-width:0.23886883;stroke-linecap:round;stroke-linejoin:round;stroke-miterlimit:4;stroke-dasharray:none;stroke-dashoffset:0;stroke-opacity:1;enable-background:new"
     id="path7147-9-1-3-9"
     cx="7.999999"
     cy="-7.999999"
     transform="scale(1,-1)"
     r="3.4615378" />
  <circle
     style="display:inline;opacity:1;fill:#faf8f6;fill-opacity:1;stroke:none;stroke-width:0.16483513;stroke-linecap:round;stroke-linejoin:round;stroke-miterlimit:4;stroke-dasharray:none;stroke-dashoffset:0;stroke-opacity:1;enable-background:new"
     id="path7164-3-8-7-7"
     cx="7.999999"
     cy="7.999999"
     r="2.3076921" />
  <circle
     style="display:inline;opacity:1;fill:#4d4d4d;fill-opacity:1;stroke:none;stroke-width:0.28846151;stroke-linecap:round;stroke-linejoin:round;stroke-miterlimit:4;stroke-dasharray:none;stroke-dashoffset:0;stroke-opacity:1;enable-background:new"
     id="path7166-6-7-5-3"
     cx="7.999999"
     cy="7.999999"
     r="1.153846" />
  <path
     style="display:inline;opacity:0.2;fill:#030303;fill-opacity:1;stroke:none;stroke-width:2.15700388;stroke-linecap:round;stroke-linejoin:round;stroke-miterlimit:4;stroke-dasharray:none;stroke-opacity:1;enable-background:new"
     d="M 15.490234 7.7128906 A 7.499999 7.499999 0 0 1 8 15 A 7.499999 7.499999 0 0 1 0.50976562 7.7871094 A 7.499999 7.499999 0 0 0 0.5 8 A 7.499999 7.499999 0 0 0 8 15.5 A 7.499999 7.499999 0 0 0 15.5 8 A 7.499999 7.499999 0 0 0 15.490234 7.7128906 z "
     id="circle861" />
  <path
     style="display:inline;opacity:0.3;fill:#ffffff;fill-opacity:1;stroke:none;stroke-width:2.15700388;stroke-linecap:round;stroke-linejoin:round;stroke-miterlimit:4;stroke-dasharray:none;stroke-opacity:1;enable-background:new"
     d="M 8 0.5 A 7.499999 7.499999 0 0 0 0.5 8 A 7.499999 7.499999 0 0 0 0.50976562 8.2871094 A 7.499999 7.499999 0 0 1 8 1 A 7.499999 7.499999 0 0 1 15.490234 8.2128906 A 7.499999 7.499999 0 0 0 15.5 8 A 7.499999 7.499999 0 0 0 8 0.5 z "
     id="circle865" />
  <path
     d="M 10.8,15.9 C 10.285716,15.9 9.492858,12.935001 9.12857,12.571429 8.765,12.207142 5.8,11.414286 5.8,10.9 5.8,10.385714 8.765,9.592858 9.12857,9.22857 9.492858,8.865 10.285716,5.8999999 10.8,5.8999999 c 0.514286,0 1.307142,2.9650001 1.67143,3.3285701 C 12.835,9.592858 15.8,10.385714 15.8,10.9 c 0,0.514286 -2.965,1.307142 -3.32857,1.671429 C 12.107142,12.935001 11.314286,15.9 10.8,15.9 Z"
     overflow="visible"
     id="path2"
     style="overflow:visible;fill:#fed34d;fill-opacity:1;stroke-width:0.71428579"
     inkscape:connector-curvature="0" />
  <path
     style="overflow:visible;opacity:0.3;fill:#ffffff;fill-opacity:1;stroke-width:0.71428579"
     d="m 10.800367,5.8995485 c -0.514284,0 -1.307587,2.9645555 -1.671875,3.3281255 -0.36357,0.364288 -3.328125,1.157589 -3.328125,1.671875 0,0.0776 0.08137,0.164095 0.197265,0.251953 0.651234,-0.49449 2.822031,-1.112437 3.13086,-1.421875 0.364288,-0.36357 1.157591,-3.3300785 1.671875,-3.3300785 0.514286,0 1.307587,2.9665085 1.671875,3.3300785 0.308792,0.309401 2.477382,0.927414 3.128907,1.421875 0.116042,-0.08793 0.199218,-0.174297 0.199218,-0.251953 0,-0.514286 -2.964555,-1.307587 -3.328125,-1.671875 -0.364288,-0.36357 -1.157589,-3.3281255 -1.671875,-3.3281255 z"
     id="path887"
     inkscape:connector-curvature="0" />
  <path
     style="overflow:visible;opacity:0.2;fill:#090700;fill-opacity:1;stroke-width:0.71428579"
     d="m 5.997632,10.651502 c -0.115434,0.08765 -0.197265,0.170612 -0.197265,0.248047 0,0.514286 2.964555,1.307588 3.328125,1.671875 0.364288,0.363572 1.157591,3.328125 1.671875,3.328125 0.514286,0 1.307587,-2.964553 1.671875,-3.328125 0.36357,-0.364287 3.328125,-1.157589 3.328125,-1.671875 0,-0.07749 -0.08364,-0.160331 -0.199218,-0.248047 -0.652461,0.494365 -2.820235,1.110642 -3.128907,1.419922 -0.364288,0.363572 -1.157589,3.328125 -1.671875,3.328125 -0.514284,0 -1.307587,-2.964553 -1.671875,-3.328125 -0.30871,-0.309319 -2.478697,-0.925526 -3.13086,-1.419922 z"
     id="path892"
     inkscape:connector-curvature="0" />
</svg>
