<?xml version="1.0" encoding="UTF-8" standalone="no"?>
<svg
   xmlns:osb="http://www.openswatchbook.org/uri/2009/osb"
   xmlns:dc="http://purl.org/dc/elements/1.1/"
   xmlns:cc="http://creativecommons.org/ns#"
   xmlns:rdf="http://www.w3.org/1999/02/22-rdf-syntax-ns#"
   xmlns:svg="http://www.w3.org/2000/svg"
   xmlns="http://www.w3.org/2000/svg"
   xmlns:sodipodi="http://sodipodi.sourceforge.net/DTD/sodipodi-0.dtd"
   xmlns:inkscape="http://www.inkscape.org/namespaces/inkscape"
   height="16"
   id="svg7384"
   version="1.1"
   width="16.01465"
   sodipodi:docname="system-run.svg"
   inkscape:version="0.92.4 (5da689c313, 2019-01-14)">
  <sodipodi:namedview
     pagecolor="#ffffff"
     bordercolor="#666666"
     borderopacity="1"
     objecttolerance="10"
     gridtolerance="10"
     guidetolerance="10"
     inkscape:pageopacity="0"
     inkscape:pageshadow="2"
     inkscape:window-width="1294"
     inkscape:window-height="704"
     id="namedview1020"
     showgrid="false"
     inkscape:zoom="1"
     inkscape:cx="11.966801"
     inkscape:cy="4.641649"
     inkscape:window-x="72"
     inkscape:window-y="27"
     inkscape:window-maximized="1"
     inkscape:current-layer="svg7384"
     showborder="true">
    <inkscape:grid
       type="xygrid"
       id="grid1584" />
  </sodipodi:namedview>
  <metadata
     id="metadata20854">
    <rdf:RDF>
      <cc:Work
         rdf:about="">
        <dc:title></dc:title>
        <dc:format>image/svg+xml</dc:format>
        <dc:type
           rdf:resource="http://purl.org/dc/dcmitype/StillImage" />
      </cc:Work>
    </rdf:RDF>
  </metadata>
  <defs
     id="defs7386">
    <linearGradient
       id="linearGradient5606"
       osb:paint="solid">
      <stop
         id="stop5608"
         offset="0"
         style="stop-color:#000000;stop-opacity:1;" />
    </linearGradient>
    <linearGradient
       id="linearGradient4526"
       osb:paint="solid">
      <stop
         id="stop4528"
         offset="0"
         style="stop-color:#ffffff;stop-opacity:1;" />
    </linearGradient>
    <linearGradient
       id="linearGradient3600-4"
       osb:paint="gradient">
      <stop
         id="stop3602-7"
         offset="0"
         style="stop-color:#f4f4f4;stop-opacity:1" />
      <stop
         id="stop3604-6"
         offset="1"
         style="stop-color:#dbdbdb;stop-opacity:1" />
    </linearGradient>
  </defs>
  <path
     style="color:#000000;font-style:normal;font-variant:normal;font-weight:normal;font-stretch:normal;font-size:medium;line-height:normal;font-family:sans-serif;font-variant-ligatures:normal;font-variant-position:normal;font-variant-caps:normal;font-variant-numeric:normal;font-variant-alternates:normal;font-feature-settings:normal;text-indent:0;text-align:start;text-decoration:none;text-decoration-line:none;text-decoration-style:solid;text-decoration-color:#000000;letter-spacing:normal;word-spacing:normal;text-transform:none;writing-mode:lr-tb;direction:ltr;text-orientation:mixed;dominant-baseline:auto;baseline-shift:baseline;text-anchor:start;white-space:normal;shape-padding:0;clip-rule:nonzero;display:inline;overflow:visible;visibility:visible;opacity:0.6;isolation:auto;mix-blend-mode:normal;color-interpolation:sRGB;color-interpolation-filters:linearRGB;solid-color:#000000;solid-opacity:1;vector-effect:none;fill:#000000;fill-opacity:1;fill-rule:nonzero;stroke:none;stroke-width:2;stroke-linecap:round;stroke-linejoin:round;stroke-miterlimit:4;stroke-dasharray:none;stroke-dashoffset:0;stroke-opacity:1;color-rendering:auto;image-rendering:auto;shape-rendering:auto;text-rendering:auto;enable-background:accumulate"
     d="M 5.1308594 0 C 4.7166739 4.140002e-05 4.3809008 0.33581451 4.3808594 0.75 L 4.3808594 1.015625 C 4.2740129 1.0502846 4.1688605 1.0874631 4.0644531 1.1289062 L 3.9003906 0.9296875 C 3.6323379 0.60599501 3.1501507 0.5671531 2.8320312 0.84179688 L 1.5175781 1.9765625 C 1.2086251 2.2432182 1.1695693 2.7070076 1.4296875 3.0214844 L 1.5722656 3.1953125 C 1.5036886 3.3035765 1.4393835 3.4123904 1.3789062 3.5253906 L 1.1699219 3.4902344 C 0.75879139 3.4169123 0.36741602 3.693522 0.29882812 4.1054688 L 0.009765625 5.8339844 C -0.057555315 6.239089 0.21293811 6.6230341 0.6171875 6.6953125 L 0.8046875 6.7285156 C 0.8157419 6.8004436 0.82776328 6.8719569 0.84179688 6.9433594 C 0.85225368 7.0033714 0.86636875 7.0634416 0.87890625 7.1230469 L 0.86914062 7.1269531 L 0.88085938 7.1269531 C 0.88260638 7.1352331 0.88298163 7.1440997 0.88476562 7.1523438 C 0.40559272 7.2768758 0.17687423 7.8228485 0.42382812 8.2519531 L 1.296875 9.765625 C 1.5047725 10.124958 1.9655236 10.246105 2.3242188 10.037109 L 2.5683594 9.8945312 C 2.6476914 9.9643956 2.7290965 10.030759 2.8125 10.095703 L 2.703125 10.396484 C 2.5637988 10.785155 2.766275 11.212393 3.1542969 11.353516 L 4.78125 11.945312 C 5.172046 12.08725 5.6042451 11.883721 5.7441406 11.492188 L 5.8398438 11.222656 C 5.945075 11.225756 6.0489872 11.241491 6.1542969 11.238281 L 6.25 11.503906 C 6.3916011 11.89844 6.8286047 12.099383 7.2207031 11.951172 L 8.0488281 11.638672 L 8.0078125 11.888672 C 7.9629345 12.158724 8.1426276 12.414708 8.4121094 12.462891 L 8.5371094 12.486328 C 8.5444794 12.534278 8.5511919 12.581308 8.5605469 12.628906 C 8.5675169 12.668906 8.5775795 12.708316 8.5859375 12.748047 L 8.5800781 12.751953 L 8.5878906 12.751953 C 8.5890606 12.757453 8.58865 12.762078 8.5898438 12.767578 C 8.2704163 12.850598 8.1185781 13.215903 8.2832031 13.501953 L 8.8652344 14.509766 C 9.0038233 14.749306 9.3097131 14.830727 9.5488281 14.691406 L 9.7128906 14.595703 C 9.7657706 14.642273 9.8194011 14.687173 9.875 14.730469 L 9.8027344 14.931641 C 9.7098544 15.190738 9.844853 15.474283 10.103516 15.568359 L 11.1875 15.962891 C 11.448014 16.057511 11.736821 15.923111 11.830078 15.662109 L 11.892578 15.482422 C 11.962728 15.484522 12.033314 15.494277 12.103516 15.492188 L 12.166016 15.669922 C 12.260416 15.932927 12.553071 16.065598 12.814453 15.966797 L 13.892578 15.560547 C 14.147885 15.464107 14.279698 15.180697 14.1875 14.923828 L 14.140625 14.794922 L 13.798828 15 C 13.886418 14.94742 13.972034 14.890106 14.054688 14.830078 L 14.056641 14.828125 C 14.073631 14.817075 14.091882 14.804036 14.107422 14.791016 C 14.112722 14.786516 14.117737 14.783917 14.123047 14.779297 C 14.190367 14.728467 14.254883 14.6747 14.318359 14.619141 L 14.447266 14.693359 C 14.688954 14.83592 15.00165 14.752679 15.138672 14.507812 L 15.707031 13.490234 C 15.839436 13.252807 15.757891 12.954011 15.523438 12.816406 L 15.414062 12.751953 C 15.433573 12.663983 15.452164 12.575553 15.464844 12.486328 C 15.464847 12.485395 15.464847 12.483422 15.464844 12.482422 L 15.587891 12.462891 C 15.860517 12.414791 16.04124 12.153314 15.992188 11.880859 L 15.785156 10.730469 C 15.736116 10.459089 15.47655 10.279594 15.205078 10.328125 L 15.080078 10.351562 C 15.039158 10.275182 14.997648 10.198142 14.951172 10.125 L 15.044922 10.009766 C 15.21941 9.7980527 15.19074 9.4849967 14.980469 9.3085938 L 14.09375 8.5625 C 13.881229 8.384609 13.565471 8.4154754 13.388672 8.6289062 L 13.294922 8.7402344 L 13.646484 8.9179688 C 13.548844 8.8659188 13.449787 8.8160125 13.347656 8.7734375 C 13.257606 8.7359775 13.165113 8.7055812 13.072266 8.6757812 L 13.072266 8.5 C 13.072239 8.223895 12.848371 8.000028 12.572266 8 L 11.636719 8 C 11.689479 7.700023 11.562449 7.3873569 11.285156 7.2246094 L 11.121094 7.1289062 C 11.150364 6.9969494 11.178256 6.8643154 11.197266 6.7304688 C 11.197271 6.7290288 11.197271 6.7261694 11.197266 6.7246094 L 11.380859 6.6933594 C 11.789829 6.6212154 12.061867 6.230975 11.988281 5.8222656 L 11.677734 4.0957031 C 11.604169 3.688605 11.213877 3.4174331 10.806641 3.4902344 L 10.619141 3.5253906 C 10.557761 3.4108086 10.495502 3.2952682 10.425781 3.1855469 L 10.566406 3.0136719 C 10.828303 2.6959812 10.786121 2.2255596 10.470703 1.9609375 L 9.140625 0.84375 C 8.8218227 0.57689483 8.347247 0.62123829 8.0820312 0.94140625 L 7.9414062 1.109375 L 8.4707031 1.375 C 8.3242411 1.2969179 8.1746911 1.2240227 8.0214844 1.1601562 C 7.8864026 1.1039625 7.7467022 1.0564308 7.6074219 1.0117188 L 7.6074219 0.75 C 7.6073807 0.33581463 7.2716072 4.152002e-05 6.8574219 0 L 5.1308594 0 z M 5.8984375 4.0019531 C 7.0020539 3.9455086 7.942294 4.7947859 7.9980469 5.8984375 C 8.0544914 7.0020539 7.2052141 7.942294 6.1015625 7.9980469 C 4.9979461 8.0544914 4.057706 7.2052141 4.0019531 6.1015625 C 3.9455086 4.9979461 4.7947859 4.057706 5.8984375 4.0019531 z M 11.949219 11.001953 A 1 1 0 0 1 12.998047 11.949219 A 1 1 0 0 1 12.050781 12.998047 A 1 1 0 0 1 11.001953 12.050781 A 1 1 0 0 1 11.949219 11.001953 z "
     id="path2172-5-2" />
  <path
     style="opacity:1;vector-effect:none;fill:#c8c4b7;fill-opacity:1;stroke:none;stroke-width:1.60000014;stroke-linecap:round;stroke-linejoin:round;stroke-miterlimit:4;stroke-dasharray:none;stroke-dashoffset:0;stroke-opacity:1"
     d="M 11.503906 9 L 11.503906 9.4785156 C 11.248472 9.528919 11.002175 9.6178233 10.773438 9.7421875 L 10.470703 9.3769531 L 9.71875 10.025391 L 10.009766 10.376953 C 9.8405791 10.584425 9.7048294 10.817045 9.6074219 11.066406 L 9.1660156 10.988281 L 9 11.974609 L 9.4316406 12.052734 C 9.431245 12.078774 9.431245 12.104819 9.4316406 12.130859 C 9.4443516 12.374607 9.4917016 12.615303 9.5722656 12.845703 L 9.1855469 13.072266 L 9.1835938 13.072266 L 9.6835938 13.9375 L 10.076172 13.707031 C 10.251207 13.903712 10.455411 14.072344 10.681641 14.207031 L 10.519531 14.65625 L 11.451172 14.994141 L 11.611328 14.541016 C 11.783135 14.567666 11.957203 14.576839 12.130859 14.568359 C 12.215239 14.563359 12.299328 14.554266 12.382812 14.541016 L 12.546875 15 L 13.472656 14.650391 L 13.314453 14.208984 C 13.540821 14.073703 13.745032 13.904406 13.919922 13.707031 L 14.316406 13.941406 L 14.802734 13.068359 L 14.425781 12.847656 C 14.515081 12.591225 14.563205 12.322268 14.568359 12.050781 L 15 11.974609 L 14.822266 10.988281 L 14.392578 11.064453 C 14.294748 10.814282 14.158333 10.580984 13.988281 10.373047 L 14.279297 10.021484 L 13.519531 9.3828125 L 13.222656 9.7402344 C 12.993198 9.6163632 12.746232 9.5281143 12.490234 9.4785156 L 12.490234 9 L 11.503906 9 z M 11.898438 10.001953 A 2 2 0 0 1 13.998047 11.898438 A 2 2 0 0 1 12.101562 13.998047 A 2 2 0 0 1 10.001953 12.101562 A 2 2 0 0 1 11.898438 10.001953 z "
     id="path2172-1" />
  <path
     style="opacity:1;vector-effect:none;fill:#c8c4b7;fill-opacity:1;stroke:none;stroke-width:1.60000014;stroke-linecap:round;stroke-linejoin:round;stroke-miterlimit:4;stroke-dasharray:none;stroke-dashoffset:0;stroke-opacity:1"
     d="M 5.171875 1 L 5.171875 1.7988281 A 4.2857145 4.2857156 0 0 0 3.9570312 2.2382812 L 3.4511719 1.6269531 L 2.1992188 2.7089844 L 2.6816406 3.2949219 A 4.2857145 4.2857156 0 0 0 2.0117188 4.4433594 L 1.2753906 4.3125 L 1 5.9589844 L 1.7207031 6.0878906 A 4.2857145 4.2857156 0 0 0 1.7207031 6.2167969 A 4.2857145 4.2857156 0 0 0 1.9550781 7.4082031 L 1.3085938 7.7871094 L 1.3066406 7.7871094 L 2.140625 9.2285156 L 2.7949219 8.84375 A 4.2857145 4.2857156 0 0 0 3.8027344 9.6777344 L 3.5332031 10.427734 L 5.0839844 10.990234 L 5.3535156 10.236328 A 4.2857145 4.2857156 0 0 0 6.2167969 10.279297 A 4.2857145 4.2857156 0 0 0 6.6367188 10.234375 L 6.9101562 11 L 8.453125 10.417969 L 8.1894531 9.6816406 A 4.2857145 4.2857156 0 0 0 9.1992188 8.8457031 L 9.859375 9.234375 L 10.671875 7.78125 L 10.042969 7.4121094 A 4.2857145 4.2857156 0 0 0 10.279297 6.0859375 L 11 5.9570312 L 10.705078 4.3125 L 9.9863281 4.4414062 A 4.2857145 4.2857156 0 0 0 9.3125 3.2890625 L 9.7988281 2.7011719 L 8.53125 1.6367188 L 8.0371094 2.234375 A 4.2857145 4.2857156 0 0 0 6.8183594 1.7988281 L 6.8183594 1 L 5.171875 1 z M 5.8476562 3.0039062 A 3 3 0 0 1 8.9960938 5.8457031 L 8.9960938 5.8476562 A 3 3 0 0 1 6.1523438 8.9960938 A 3 3 0 0 1 3.0039062 6.1523438 A 3 3 0 0 1 5.8476562 3.0039062 z "
     id="path2172" />
  <g
     id="layer9"
     label="status"
     style="display:inline"
     transform="translate(-733.0002,-93)" />
  <g
     id="layer2"
     style="display:inline"
     transform="translate(-492,-460)" />
  <g
     id="layer4"
     style="display:inline"
     transform="translate(-492,-460)" />
  <g
     id="g1812"
     style="display:inline"
     transform="translate(-492,-460)" />
  <g
     id="g6217"
     style="display:inline"
     transform="translate(-492,-460)" />
  <g
     id="layer3"
     style="display:inline;stroke-width:1.13426304;fill:#c8c4b7;fill-opacity:1"
     transform="matrix(0.875,0,0,0.88830965,-429.51282,-407.73081)" />
  <g
     id="g1833"
     style="display:inline"
     transform="translate(-492,-460)" />
  <g
     id="layer1"
     style="display:inline"
     transform="translate(-492,-460)" />
  <g
     id="layer3-3"
     style="display:inline;fill:#808080;fill-opacity:1;stroke-width:1.13426304"
     transform="matrix(0.875,0,0,0.88830965,-409.57532,-404.29331)" />
</svg>
