<?xml version="1.0" encoding="UTF-8"?>
<!-- Created with Inkscape (http://www.inkscape.org/) -->
<svg id="svg3309" width="16" height="16" version="1.0" xmlns="http://www.w3.org/2000/svg" xmlns:xlink="http://www.w3.org/1999/xlink">
 <defs id="defs3311">
  <linearGradient id="linearGradient4994" x1="20.909" x2="20.909" y1="42.125" y2="17.249" gradientTransform="matrix(.33356 0 0 .33166 -.010771 -1.5974)" gradientUnits="userSpaceOnUse">
   <stop id="stop260" style="stop-color:#fafafa" offset="0"/>
   <stop id="stop261" style="stop-color:#bbb" offset="1"/>
  </linearGradient>
  <linearGradient id="linearGradient4990" x1="26.538" x2="29.268" y1="22.765" y2="45.015" gradientTransform="matrix(.31865 0 0 .25604 .34343 1.1475)" gradientUnits="userSpaceOnUse">
   <stop id="stop2202" style="stop-color:#fff" offset="0"/>
   <stop id="stop2204" style="stop-color:#fff;stop-opacity:0" offset="1"/>
  </linearGradient>
  <linearGradient id="linearGradient8046" x1="24.104" x2="24.104" y1="15.169" y2="32.485" gradientTransform="matrix(.32803 0 0 .32571 4.445 4.532)" gradientUnits="userSpaceOnUse">
   <stop id="stop3947" style="stop-color:#ecf5b6" offset="0"/>
   <stop id="stop3949" style="stop-color:#9fba48" offset="1"/>
  </linearGradient>
 </defs>
 <g id="layer1">
  <path id="rect1316" d="m2.6853 3.5616c-0.64058 0-1.1652 0.53036-1.1652 1.1742v4.7838h-0.84288c-0.10089 0-0.17721 0.086185-0.17721 0.18656v2.7939c0 0.10038 0.076316 0 0.17721 0h14.635c0.10089 0 0.18763 0.10038 0.18763 0v-2.7939c0-0.10038-0.08674-0.18656-0.18763-0.18656h-0.8158l0.0028-4.7332c0-0.93518-0.39992-1.2821-1.3043-1.2821l-10.51 0.057295z" style="fill-rule:evenodd;fill:url(#linearGradient4994);stroke-linejoin:round;stroke:#888a85"/>
  <path id="path1331" d="m3 4.5317c-0.3434 0-0.48817 0.0189-0.48817 0.42187l0.075938 5.5465h-1.0878v1h13v-1h-0.9997v-5.2581c0-0.54037-0.021381-0.70231-0.5003-0.70267l-10-0.007606z" style="fill:none;opacity:.4;stroke-linecap:round;stroke:url(#linearGradient4990)"/>
  <path id="path2262" d="m10.5 10.5v-1.9925h3v1.9925h1.9925v3h-1.9925v1.9925h-3v-1.9925h-1.9925v-3h1.9925z" style="fill-rule:evenodd;fill:url(#linearGradient8046);stroke-linejoin:round;stroke-width:1.0151;stroke:#699536"/>
 </g>
</svg>
