<?xml version="1.0" encoding="UTF-8" standalone="no"?>
<svg
   xmlns:osb="http://www.openswatchbook.org/uri/2009/osb"
   xmlns:dc="http://purl.org/dc/elements/1.1/"
   xmlns:cc="http://creativecommons.org/ns#"
   xmlns:rdf="http://www.w3.org/1999/02/22-rdf-syntax-ns#"
   xmlns:svg="http://www.w3.org/2000/svg"
   xmlns="http://www.w3.org/2000/svg"
   xmlns:sodipodi="http://sodipodi.sourceforge.net/DTD/sodipodi-0.dtd"
   xmlns:inkscape="http://www.inkscape.org/namespaces/inkscape"
   width="16"
   height="16"
   version="1.1"
   id="svg15"
   sodipodi:docname="text-x-generic-template.svg"
   inkscape:version="0.92.4 (5da689c313, 2019-01-14)">
  <metadata
     id="metadata19">
    <rdf:RDF>
      <cc:Work
         rdf:about="">
        <dc:format>image/svg+xml</dc:format>
        <dc:type
           rdf:resource="http://purl.org/dc/dcmitype/StillImage" />
        <dc:title />
      </cc:Work>
    </rdf:RDF>
  </metadata>
  <sodipodi:namedview
     pagecolor="#ffffff"
     bordercolor="#666666"
     borderopacity="1"
     objecttolerance="10"
     gridtolerance="10"
     guidetolerance="10"
     inkscape:pageopacity="0"
     inkscape:pageshadow="2"
     inkscape:window-width="1920"
     inkscape:window-height="1016"
     id="namedview17"
     showgrid="true"
     inkscape:zoom="55.933298"
     inkscape:cx="4.0581306"
     inkscape:cy="7.9999948"
     inkscape:window-x="0"
     inkscape:window-y="27"
     inkscape:window-maximized="1"
     inkscape:current-layer="svg15">
    <inkscape:grid
       type="xygrid"
       id="grid837" />
  </sodipodi:namedview>
  <defs
     id="defs9">
    <linearGradient
       id="linearGradient5606"
       osb:paint="solid">
      <stop
         id="stop5608"
         offset="0"
         style="stop-color:#000000" />
    </linearGradient>
    <linearGradient
       id="linearGradient4526"
       osb:paint="solid">
      <stop
         id="stop4528"
         offset="0"
         style="stop-color:#ffffff" />
    </linearGradient>
    <linearGradient
       id="linearGradient3600-4"
       osb:paint="gradient">
      <stop
         id="stop3602-7"
         offset="0"
         style="stop-color:#f4f4f4" />
      <stop
         id="stop3604-6"
         offset="1"
         style="stop-color:#dbdbdb" />
    </linearGradient>
    <clipPath
       clipPathUnits="userSpaceOnUse"
       id="clipPath983">
      <path
         sodipodi:nodetypes="scccssscsss"
         inkscape:connector-curvature="0"
         id="path985"
         d="m 325.09646,237 c -2.80769,0 -3.10979,0.28839 -3.09603,3.10176 V 244 v 3.89824 c -0.0138,2.81337 0.28834,3.10176 3.09603,3.10176 h 5.8075 C 333.71166,251 334,250.71165 334,247.89824 V 244 240.10176 C 334,237.28836 333.71165,237 330.90396,237 Z"
         style="color:#000000;display:inline;overflow:visible;visibility:visible;opacity:1;fill:#46a926;fill-opacity:1;fill-rule:nonzero;stroke:none;stroke-width:2;stroke-miterlimit:4;stroke-dasharray:none;stroke-opacity:1;marker:none;enable-background:accumulate" />
    </clipPath>
    <clipPath
       clipPathUnits="userSpaceOnUse"
       id="clipPath983-3">
      <path
         sodipodi:nodetypes="scccssscsss"
         inkscape:connector-curvature="0"
         id="path985-6"
         d="m 325.09646,237 c -2.80769,0 -3.10979,0.28839 -3.09603,3.10176 V 244 v 3.89824 c -0.0138,2.81337 0.28834,3.10176 3.09603,3.10176 h 5.8075 C 333.71166,251 334,250.71165 334,247.89824 V 244 240.10176 C 334,237.28836 333.71165,237 330.90396,237 Z"
         style="color:#000000;display:inline;overflow:visible;visibility:visible;opacity:1;fill:#46a926;fill-opacity:1;fill-rule:nonzero;stroke:none;stroke-width:2;stroke-miterlimit:4;stroke-dasharray:none;stroke-opacity:1;marker:none;enable-background:accumulate" />
    </clipPath>
  </defs>
  <path
     style="color:#000000;display:inline;overflow:visible;visibility:visible;fill:#e8e8e8;fill-opacity:1;fill-rule:nonzero;stroke:none;stroke-width:1;marker:none;enable-background:accumulate"
     d="m 4.8550578,0.50001048 c -3.04166,0 -3.36894,0.30899 -3.35403,3.32331002 v 4.17669 4.1766795 c -0.0149,3.01433 0.31237,3.32332 3.35403,3.32332 h 6.2914602 c 3.04167,0 3.35404,-0.30895 3.35404,-3.32332 v -4.1766795 -4.17669 c 0,-3.01436002 -0.31238,-3.32331002 -3.35404,-3.32331002 z"
     id="path918"
     inkscape:connector-curvature="0"
     sodipodi:nodetypes="scccssscsss" />
  <path
     inkscape:connector-curvature="0"
     style="display:inline;opacity:1;fill:#f76363;fill-opacity:1;stroke:none;stroke-width:2.61861467;stroke-linecap:round;stroke-linejoin:round;stroke-miterlimit:4;stroke-dasharray:none;stroke-dashoffset:0;stroke-opacity:1;enable-background:new"
     d="m 4.8560278,0.50000048 c -3.04166,0 -3.37038,0.3099 -3.35547,3.32422002 v 0.17578 H 14.500558 v -0.17578 c 0,-3.01436002 -0.31187,-3.32422002 -3.35352,-3.32422002 z"
     id="path923" />
  <path
     style="display:inline;opacity:1;fill:#c8c4b7;fill-opacity:0.99607843;stroke:none;stroke-width:2;stroke-linecap:square;stroke-linejoin:round;stroke-miterlimit:4;stroke-dasharray:none;stroke-dashoffset:0;stroke-opacity:1;enable-background:new"
     d="m 8.0005578,5.5000005 v 0.5 h 5.0000002 v -0.5 z m 0,2 v 0.5 h 5.0000002 v -0.5 z m 1,2 V 10 H 13.000558 V 9.5000005 Z m -6,1.9999995 V 12 H 13.000558 v -0.5 z"
     id="path1078"
     inkscape:connector-curvature="0"
     sodipodi:nodetypes="cccccccccccccccccccc" />
  <g
     id="g3753"
     transform="matrix(0.38461538,0,0,0.38461538,-225.49713,-40.76923)"
     style="color:#bebebe;display:inline;fill:#1463a5;stroke-width:2.5999999;enable-background:new">
    <path
       id="path3751"
       word-spacing="0"
       style="font-weight:400;font-size:17.83300018px;line-height:125%;font-family:'DejaVu Serif';-inkscape-font-specification:'DejaVu Serif';letter-spacing:0;word-spacing:0;overflow:visible;fill:#5d5d5d;fill-opacity:1;stroke-width:2.5999999;marker:none"
       overflow="visible"
       letter-spacing="0"
       font-weight="400"
       font-size="17.833"
       d="m 599.875,119 -4.625,12 h -1.156 v 1 h 3.593 v -1 h -1.343 l 1.093,-3 h 5.469 l 1.063,3 h -1.282 v 1 h 4.594 v -1 H 606 l -4.656,-12 z m 0.281,2.094 2.406,5.906 h -4.781 z"
       inkscape:connector-curvature="0" />
  </g>
  <path
     style="color:#000000;display:inline;overflow:visible;visibility:visible;fill:#000000;fill-opacity:1;fill-rule:nonzero;stroke:none;stroke-width:1;marker:none;enable-background:accumulate;opacity:0.2"
     d="M 1.5019531 11.675781 L 1.5019531 12.175781 C 1.4870531 15.190111 1.8138088 15.5 4.8554688 15.5 L 11.146484 15.5 C 14.188154 15.5 14.5 15.190151 14.5 12.175781 L 14.5 11.675781 C 14.5 14.690151 14.188154 15 11.146484 15 L 4.8554688 15 C 1.8138088 15 1.4870531 14.690111 1.5019531 11.675781 z "
     id="path841" />
  <path
     style="color:#000000;display:inline;overflow:visible;visibility:visible;fill:#fffdfd;fill-opacity:1;fill-rule:nonzero;stroke:none;stroke-width:1;marker:none;enable-background:accumulate;opacity:0.3"
     d="M 4.8554688 0.5 C 1.8138088 0.5 1.4870431 0.80989873 1.5019531 3.8242188 L 1.5019531 4.3242188 C 1.4870431 1.3098988 1.8138088 1 4.8554688 1 L 11.146484 1 C 14.188144 1 14.5 1.3098588 14.5 4.3242188 L 14.5 3.8242188 C 14.5 0.80985873 14.188144 0.5 11.146484 0.5 L 4.8554688 0.5 z "
     id="path845" />
</svg>
