<svg xmlns="http://www.w3.org/2000/svg" width="48" height="48" viewBox="0 0 12.7 12.7"><g transform="translate(0 -284.3)"><path style="opacity:1;vector-effect:none;fill:gray;fill-opacity:1;stroke:none;stroke-width:1.00199997;stroke-linecap:butt;stroke-linejoin:miter;stroke-miterlimit:4;stroke-dasharray:none;stroke-dashoffset:6.5999999;stroke-opacity:1" d="m31.02 5.283-1.06 2.819A17 17 0 0 1 41 24a17 17 0 0 1-11.035 15.908l1.049 2.797A20 20 0 0 0 44 24 20 20 0 0 0 31.02 5.283zm-14.034.012A20 20 0 0 0 4 24a20 20 0 0 0 12.98 18.717l1.06-2.819A17 17 0 0 1 7 24 17 17 0 0 1 18.035 8.092l-1.049-2.797zm10.873 8.41-1.054 2.813A8 8 0 0 1 32 24a8 8 0 0 1-5.191 7.486l1.048 2.801A11 11 0 0 0 35 24a11 11 0 0 0-7.14-10.295zm-7.716.008A11 11 0 0 0 13 24a11 11 0 0 0 7.14 10.295l1.055-2.813A8 8 0 0 1 16 24a8 8 0 0 1 5.191-7.486l-1.048-2.801z" transform="translate(0 284.3) scale(.26458)"/><circle style="opacity:1;vector-effect:none;fill:gray;fill-opacity:1;stroke:none;stroke-width:.26511249;stroke-linecap:butt;stroke-linejoin:miter;stroke-miterlimit:4;stroke-dasharray:none;stroke-dashoffset:6.5999999;stroke-opacity:1" cx="6.35" cy="290.65" r=".529"/></g></svg>