<?xml version="1.0" encoding="UTF-8" standalone="no"?>
<svg
   inkscape:export-ydpi="96"
   inkscape:export-xdpi="96"
   width="400"
   height="300"
   id="svg11300"
   sodipodi:version="0.32"
   inkscape:version="1.4.1 (1:1.4.1+202503302257+93de688d07)"
   sodipodi:docname="preferences-desktop-font.svg"
   inkscape:output_extension="org.inkscape.output.svg.inkscape"
   version="1.0"
   style="display:inline;enable-background:new"
   inkscape:export-filename="C:\Users\sblav\Pictures\vertical oblong template.png"
   xmlns:inkscape="http://www.inkscape.org/namespaces/inkscape"
   xmlns:sodipodi="http://sodipodi.sourceforge.net/DTD/sodipodi-0.dtd"
   xmlns:xlink="http://www.w3.org/1999/xlink"
   xmlns="http://www.w3.org/2000/svg"
   xmlns:svg="http://www.w3.org/2000/svg"
   xmlns:rdf="http://www.w3.org/1999/02/22-rdf-syntax-ns#"
   xmlns:cc="http://creativecommons.org/ns#"
   xmlns:dc="http://purl.org/dc/elements/1.1/">
  <title
     id="title3004">Yaru Icon Theme Template</title>
  <sodipodi:namedview
     stroke="#ef2929"
     fill="#f57900"
     id="base"
     pagecolor="#ffffff"
     bordercolor="#000000"
     borderopacity="0.25490196"
     inkscape:pageopacity="0"
     inkscape:pageshadow="2"
     inkscape:zoom="1.4173073"
     inkscape:cx="182.03533"
     inkscape:cy="138.64319"
     inkscape:current-layer="layer1"
     showgrid="false"
     inkscape:grid-bbox="true"
     inkscape:document-units="px"
     inkscape:showpageshadow="false"
     inkscape:window-width="1870"
     inkscape:window-height="1011"
     inkscape:window-x="0"
     inkscape:window-y="0"
     width="400px"
     height="300px"
     inkscape:snap-nodes="true"
     inkscape:snap-bbox="true"
     gridtolerance="10000"
     inkscape:object-nodes="true"
     inkscape:snap-grids="true"
     showguides="false"
     inkscape:guide-bbox="true"
     inkscape:window-maximized="1"
     inkscape:bbox-paths="true"
     inkscape:snap-bbox-midpoints="true"
     inkscape:snap-global="true"
     inkscape:object-paths="true"
     inkscape:snap-intersection-paths="true"
     inkscape:snap-smooth-nodes="true"
     inkscape:pagecheckerboard="false"
     showborder="false"
     inkscape:document-rotation="0"
     inkscape:deskcolor="#d1d1d1">
    <inkscape:grid
       spacingy="1"
       spacingx="1"
       id="grid5883"
       type="xygrid"
       enabled="true"
       visible="true"
       empspacing="4"
       snapvisiblegridlinesonly="true"
       originx="0"
       originy="0"
       units="px"
       color="#000000"
       opacity="0.14901961"
       empcolor="#000000"
       empopacity="0.30196078" />
    <inkscape:grid
       type="xygrid"
       id="grid11592"
       empspacing="2"
       visible="true"
       enabled="false"
       spacingx="0.5"
       spacingy="0.5"
       color="#ff0000"
       opacity="0.1254902"
       empcolor="#ff0000"
       empopacity="0.25098039"
       snapvisiblegridlinesonly="true"
       originx="0"
       originy="0"
       units="px" />
  </sodipodi:namedview>
  <defs
     id="defs3">
    <linearGradient
       inkscape:collect="always"
       id="linearGradient927">
      <stop
         style="stop-color:#ffffff;stop-opacity:1;"
         offset="0"
         id="stop923" />
      <stop
         id="stop933"
         offset="0.125"
         style="stop-color:#ffffff;stop-opacity:0.09803922" />
      <stop
         id="stop931"
         offset="0.92500001"
         style="stop-color:#ffffff;stop-opacity:0.09803922" />
      <stop
         style="stop-color:#ffffff;stop-opacity:0.49803922"
         offset="1"
         id="stop925" />
    </linearGradient>
    <linearGradient
       inkscape:collect="always"
       xlink:href="#linearGradient927"
       id="linearGradient1692-6"
       x1="321.00031"
       y1="244.00034"
       x2="335.00031"
       y2="244.00034"
       gradientUnits="userSpaceOnUse"
       gradientTransform="rotate(90,328.00032,244.00001)" />
    <linearGradient
       inkscape:collect="always"
       xlink:href="#linearGradient927"
       id="linearGradient1690-9"
       x1="321.99933"
       y1="199.99878"
       x2="341.99939"
       y2="199.99921"
       gradientUnits="userSpaceOnUse"
       gradientTransform="rotate(90,331.99929,199.99999)" />
    <linearGradient
       inkscape:collect="always"
       xlink:href="#linearGradient927"
       id="linearGradient1688-4"
       x1="323"
       y1="148.00002"
       x2="349"
       y2="148.00002"
       gradientUnits="userSpaceOnUse"
       gradientTransform="rotate(90,336.00001,148)" />
    <linearGradient
       inkscape:collect="always"
       xlink:href="#linearGradient927"
       id="linearGradient1686-0"
       x1="323.49994"
       y1="83.999588"
       x2="363.99991"
       y2="83.999176"
       gradientUnits="userSpaceOnUse"
       gradientTransform="rotate(90,344.00003,84.000125)" />
    <filter
       inkscape:collect="always"
       style="color-interpolation-filters:sRGB"
       id="filter58449"
       x="-0.051691593"
       width="1.1033832"
       y="-0.051692927"
       height="1.1033859">
      <feGaussianBlur
         inkscape:collect="always"
         stdDeviation="4.4800539"
         id="feGaussianBlur58451" />
    </filter>
    <filter
       inkscape:collect="always"
       style="color-interpolation-filters:sRGB"
       id="filter58492"
       x="-0.012922898"
       width="1.0258458"
       y="-0.012923232"
       height="1.0258465">
      <feGaussianBlur
         inkscape:collect="always"
         stdDeviation="1.1200135"
         id="feGaussianBlur58494" />
    </filter>
  </defs>
  <metadata
     id="metadata4">
    <rdf:RDF>
      <cc:Work
         rdf:about="">
        <dc:format>image/svg+xml</dc:format>
        <dc:type
           rdf:resource="http://purl.org/dc/dcmitype/StillImage" />
        <dc:creator>
          <cc:Agent>
            <dc:title>Yaru Team, based on the Suru template by Sam Hewitt and original Suru designs by Matthieu James</dc:title>
          </cc:Agent>
        </dc:creator>
        <dc:source />
        <cc:license
           rdf:resource="http://creativecommons.org/licenses/by-sa/4.0/" />
        <dc:title>Yaru Icon Theme Template</dc:title>
        <dc:subject>
          <rdf:Bag />
        </dc:subject>
        <dc:date />
        <dc:rights>
          <cc:Agent>
            <dc:title />
          </cc:Agent>
        </dc:rights>
        <dc:publisher>
          <cc:Agent>
            <dc:title />
          </cc:Agent>
        </dc:publisher>
        <dc:identifier />
        <dc:relation />
        <dc:language />
        <dc:coverage />
        <dc:description />
        <dc:contributor>
          <cc:Agent>
            <dc:title />
          </cc:Agent>
        </dc:contributor>
      </cc:Work>
      <cc:Work
         rdf:about="">
        <dc:format>image/svg+xml</dc:format>
        <dc:type
           rdf:resource="http://purl.org/dc/dcmitype/StillImage" />
      </cc:Work>
      <cc:License
         rdf:about="http://creativecommons.org/licenses/by-sa/4.0/">
        <cc:permits
           rdf:resource="http://creativecommons.org/ns#Reproduction" />
        <cc:permits
           rdf:resource="http://creativecommons.org/ns#Distribution" />
        <cc:requires
           rdf:resource="http://creativecommons.org/ns#Notice" />
        <cc:requires
           rdf:resource="http://creativecommons.org/ns#Attribution" />
        <cc:permits
           rdf:resource="http://creativecommons.org/ns#DerivativeWorks" />
        <cc:requires
           rdf:resource="http://creativecommons.org/ns#ShareAlike" />
      </cc:License>
    </rdf:RDF>
  </metadata>
  <g
     style="display:inline"
     inkscape:groupmode="layer"
     inkscape:label="Icon"
     id="layer1">
    <g
       style="display:none"
       inkscape:label="Baseplate"
       id="layer7"
       inkscape:groupmode="layer">
      <text
         y="-8.2548828"
         xml:space="preserve"
         x="19.006836"
         style="font-style:normal;font-variant:normal;font-weight:normal;font-stretch:normal;line-height:0%;font-family:'DejaVu Sans';-inkscape-font-specification:'DejaVu Sans';display:inline;fill:#000000;fill-opacity:1;stroke:none;enable-background:new"
         inkscape:label="context"
         id="context"><tspan
           style="font-style:normal;font-variant:normal;font-weight:normal;font-stretch:normal;font-size:18px;line-height:1.25;font-family:'DejaVu Sans';-inkscape-font-specification:'DejaVu Sans'"
           y="-8.2548828"
           x="19.006836"
           sodipodi:role="line"
           id="tspan3933">categories</tspan></text>
      <text
         y="-8.2548828"
         xml:space="preserve"
         x="146.48828"
         style="font-style:normal;font-variant:normal;font-weight:bold;font-stretch:normal;line-height:0%;font-family:'DejaVu Sans';-inkscape-font-specification:'DejaVu Sans Bold';text-align:start;writing-mode:lr-tb;text-anchor:start;display:inline;fill:#000000;fill-opacity:1;stroke:none;enable-background:new"
         inkscape:label="icon-name"
         id="icon-name"><tspan
           style="font-style:normal;font-variant:normal;font-weight:bold;font-stretch:normal;font-size:18px;line-height:1.25;font-family:'DejaVu Sans';-inkscape-font-specification:'DejaVu Sans Bold'"
           y="-8.2548828"
           x="146.48828"
           sodipodi:role="line"
           id="tspan3937">preferences-desktop-font</tspan></text>
      <rect
         style="display:inline;overflow:visible;visibility:visible;fill:#cdcdcd;fill-opacity:1;fill-rule:nonzero;stroke:none;stroke-width:2;marker:none;enable-background:accumulate"
         id="rect16x16"
         width="16"
         height="16"
         x="320"
         y="236"
         inkscape:label="16x16" />
      <rect
         style="display:inline;overflow:visible;visibility:visible;fill:#cdcdcd;fill-opacity:1;fill-rule:nonzero;stroke:none;stroke-width:2;marker:none;enable-background:accumulate"
         id="rect24x24"
         width="24"
         height="24"
         x="320"
         y="188"
         inkscape:label="24x24" />
      <rect
         style="display:inline;overflow:visible;visibility:visible;fill:#cdcdcd;fill-opacity:1;fill-rule:nonzero;stroke:none;stroke-width:2;marker:none;enable-background:accumulate"
         id="rect32x32"
         width="32"
         height="32"
         x="320"
         y="132"
         inkscape:label="32x32" />
      <rect
         inkscape:label="48x48"
         y="60"
         x="320"
         height="48"
         width="48"
         id="rect48x48"
         style="display:inline;overflow:visible;visibility:visible;fill:#cdcdcd;fill-opacity:1;fill-rule:nonzero;stroke:none;stroke-width:2;marker:none;enable-background:accumulate" />
      <rect
         style="display:inline;overflow:visible;visibility:visible;fill:#cdcdcd;fill-opacity:1;fill-rule:nonzero;stroke:none;stroke-width:2;marker:none;enable-background:accumulate"
         id="rect3951"
         width="256"
         height="256"
         x="24"
         y="28"
         inkscape:label="48x48" />
    </g>
    <g
       inkscape:groupmode="layer"
       id="layer9"
       inkscape:label="Optional outline for white icons"
       style="display:inline">
      <path
         d="m 86.919922,50 c -8.857955,0 -15.776482,0.216463 -21.302735,1.146484 -5.526251,0.930022 -9.758771,2.618686 -12.808593,5.673828 -3.049823,3.055144 -4.735463,7.292211 -5.664063,12.828125 C 46.215931,75.184353 46,82.117847 46,90.994141 V 156 221.00586 c 0,8.87629 0.215931,15.80979 1.144531,21.3457 0.9286,5.53592 2.61424,9.77298 5.664063,12.82813 3.049822,3.05514 7.282342,4.7438 12.808593,5.67383 C 71.143439,261.78354 78.061967,262 86.919922,262 H 217.07031 c 8.85797,0 15.78719,-0.21666 21.32617,-1.14648 5.53899,-0.92983 9.78412,-2.61734 12.84571,-5.67188 3.06158,-3.05453 4.75515,-7.29524 5.67578,-12.83398 0.92025,-5.53649 1.11352,-12.46904 1.07031,-21.3418 v -0.01 V 156 91.003906 v -0.0098 c 0.0432,-8.872763 -0.15006,-15.805316 -1.07031,-21.341797 -0.92063,-5.538748 -2.6142,-9.779449 -5.67578,-12.833985 -3.06159,-3.054536 -7.30672,-4.742046 -12.84571,-5.671875 C 232.8575,50.216691 225.92828,50 217.07031,50 Z"
         style="baseline-shift:baseline;display:inline;overflow:visible;opacity:0.2;vector-effect:none;marker:none;enable-background:accumulate;stop-color:#000000;stop-opacity:1"
         id="path3" />
    </g>
    <g
       inkscape:groupmode="layer"
       id="layer8"
       inkscape:label="Backgrounds"
       style="display:inline">
      <path
         style="color:#000000;display:inline;overflow:visible;visibility:visible;opacity:0.1;fill:#000000;fill-opacity:1;fill-rule:nonzero;stroke:none;stroke-width:1;marker:none;filter:url(#filter58492);enable-background:accumulate"
         d="m 217.07297,52.99999 c 35.29673,0 39.09461,3.62542 38.92162,38.99353 v 65.00647 65.00648 C 256.16758,257.37459 252.3697,261 217.07297,261 H 86.916218 c -35.29671,0 -38.92161,-3.625 -38.92161,-38.99353 V 156.99999 91.99352 c 0,-35.36853 3.6249,-38.99353 38.92161,-38.99353 z"
         id="rect4158-7"
         inkscape:connector-curvature="0"
         sodipodi:nodetypes="scccssscsss" />
      <path
         style="color:#000000;display:inline;overflow:visible;visibility:visible;opacity:0.2;fill:#000000;fill-opacity:1;fill-rule:nonzero;stroke:none;stroke-width:1;marker:none;filter:url(#filter58449);enable-background:accumulate"
         d="m 217.07297,52.99999 c 35.29673,0 39.09461,3.62542 38.92162,38.99353 v 65.00647 65.00648 C 256.16758,257.37459 252.3697,261 217.07297,261 H 86.916218 c -35.29671,0 -38.92161,-3.625 -38.92161,-38.99353 V 156.99999 91.99352 c 0,-35.36853 3.6249,-38.99353 38.92161,-38.99353 z"
         id="rect4158-1"
         inkscape:connector-curvature="0"
         sodipodi:nodetypes="scccssscsss" />
      <path
         style="color:#000000;display:inline;overflow:visible;visibility:visible;opacity:0.1;fill:#000000;fill-opacity:1;fill-rule:nonzero;stroke:none;stroke-width:1;marker:none;enable-background:accumulate"
         d="m 324.12858,237.00001 c -3.74357,0 -4.14638,0.30899 -4.12803,3.32331 v 4.17669 4.17668 c -0.0183,3.01433 0.38446,3.32332 4.12803,3.32332 h 7.74335 c 3.7436,0 4.12805,-0.30895 4.12805,-3.32332 v -4.17668 -4.17669 c 0,-3.01437 -0.38446,-3.32331 -4.12805,-3.32331 z"
         id="path918-2"
         inkscape:connector-curvature="0"
         sodipodi:nodetypes="scccssscsss" />
      <path
         style="color:#000000;font-style:normal;font-variant:normal;font-weight:normal;font-stretch:normal;font-size:medium;line-height:normal;font-family:sans-serif;font-variant-ligatures:normal;font-variant-position:normal;font-variant-caps:normal;font-variant-numeric:normal;font-variant-alternates:normal;font-feature-settings:normal;text-indent:0;text-align:start;text-decoration:none;text-decoration-line:none;text-decoration-style:solid;text-decoration-color:#000000;letter-spacing:normal;word-spacing:normal;text-transform:none;writing-mode:lr-tb;direction:ltr;text-orientation:mixed;dominant-baseline:auto;baseline-shift:baseline;text-anchor:start;white-space:normal;shape-padding:0;clip-rule:nonzero;display:inline;overflow:visible;visibility:visible;opacity:0.1;isolation:auto;mix-blend-mode:normal;color-interpolation:sRGB;color-interpolation-filters:linearRGB;solid-color:#000000;solid-opacity:1;vector-effect:none;fill:#000000;fill-opacity:1;fill-rule:nonzero;stroke:none;stroke-width:2;stroke-linecap:butt;stroke-linejoin:miter;stroke-miterlimit:4;stroke-dasharray:none;stroke-dashoffset:0;stroke-opacity:1;marker:none;color-rendering:auto;image-rendering:auto;shape-rendering:auto;text-rendering:auto;enable-background:accumulate"
         d="m 327.45294,190.00002 c -1.23214,0 -2.21675,0.0221 -3.07008,0.14143 -0.85335,0.11937 -1.62814,0.35534 -2.21072,0.83968 -0.58258,0.48436 -0.86986,1.13381 -1.01191,1.84586 -0.14203,0.71208 -0.16502,1.53239 -0.15898,2.56202 v 7.61116 3.61425 c -0.006,1.02762 0.0171,1.84735 0.15898,2.55843 0.14203,0.71208 0.42932,1.36152 1.01191,1.84587 0.58259,0.48434 1.35737,0.7203 2.21072,0.83967 0.85333,0.11936 1.83794,0.14144 3.07008,0.14144 h 9.09576 c 1.23214,0 2.21388,-0.022 3.06579,-0.14144 0.8519,-0.11947 1.628,-0.35683 2.20857,-0.84146 0.58058,-0.48464 0.86453,-1.13152 1.00761,-1.84228 0.14307,-0.71077 0.16972,-1.5314 0.16972,-2.56023 v -3.61424 -7.61475 c 0,-1.02883 -0.0266,-1.84946 -0.16972,-2.56023 -0.14308,-0.71075 -0.42703,-1.35765 -1.00761,-1.84227 -0.58057,-0.48465 -1.35665,-0.722 -2.20857,-0.84147 -0.85192,-0.11947 -1.83364,-0.14144 -3.06579,-0.14144 z"
         id="path995"
         inkscape:connector-curvature="0"
         sodipodi:nodetypes="sccccccccssscccscscccss" />
      <path
         style="color:#000000;font-style:normal;font-variant:normal;font-weight:normal;font-stretch:normal;font-size:medium;line-height:normal;font-family:sans-serif;font-variant-ligatures:normal;font-variant-position:normal;font-variant-caps:normal;font-variant-numeric:normal;font-variant-alternates:normal;font-feature-settings:normal;text-indent:0;text-align:start;text-decoration:none;text-decoration-line:none;text-decoration-style:solid;text-decoration-color:#000000;letter-spacing:normal;word-spacing:normal;text-transform:none;writing-mode:lr-tb;direction:ltr;text-orientation:mixed;dominant-baseline:auto;baseline-shift:baseline;text-anchor:start;white-space:normal;shape-padding:0;clip-rule:nonzero;display:inline;overflow:visible;visibility:visible;opacity:0.1;isolation:auto;mix-blend-mode:normal;color-interpolation:sRGB;color-interpolation-filters:linearRGB;solid-color:#000000;solid-opacity:1;vector-effect:none;fill:#000000;fill-opacity:1;fill-rule:nonzero;stroke:none;stroke-width:2;stroke-linecap:butt;stroke-linejoin:miter;stroke-miterlimit:4;stroke-dasharray:none;stroke-dashoffset:0;stroke-opacity:1;marker:none;color-rendering:auto;image-rendering:auto;shape-rendering:auto;text-rendering:auto;enable-background:accumulate"
         d="m 330.30109,134.99951 c -1.63949,0 -2.94082,0.0308 -4.04505,0.19141 -1.10422,0.16064 -2.06697,0.4726 -2.78308,1.09179 -0.71611,0.61919 -1.0805,1.45612 -1.26421,2.41407 -0.18374,0.95795 -0.21537,2.08705 -0.20733,3.51171 V 149 v 6.79648 c -0.009,1.42131 0.0239,2.5495 0.20733,3.50585 0.18371,0.95796 0.5481,1.79488 1.26421,2.41407 0.71611,0.61919 1.67886,0.93115 2.78308,1.09179 1.10423,0.16065 2.40556,0.19141 4.04505,0.19141 h 11.4012 c 1.63949,0 2.93835,-0.0307 4.04054,-0.19141 1.10219,-0.16075 2.06274,-0.47425 2.77633,-1.09375 0.71357,-0.6195 1.07457,-1.45363 1.25969,-2.41015 0.18515,-0.95653 0.22086,-2.08403 0.22086,-3.50781 V 149 142.20263 c 0,-1.42378 -0.0358,-2.55128 -0.22086,-3.50781 -0.18512,-0.95653 -0.54612,-1.79065 -1.25969,-2.41015 -0.71359,-0.61951 -1.67414,-0.933 -2.77633,-1.09375 -1.10219,-0.16076 -2.40105,-0.19141 -4.04054,-0.19141 z"
         id="path999"
         inkscape:connector-curvature="0"
         sodipodi:nodetypes="scscccccscsscccscscscss" />
      <path
         style="color:#000000;font-style:normal;font-variant:normal;font-weight:normal;font-stretch:normal;font-size:medium;line-height:normal;font-family:sans-serif;font-variant-ligatures:normal;font-variant-position:normal;font-variant-caps:normal;font-variant-numeric:normal;font-variant-alternates:normal;font-feature-settings:normal;text-indent:0;text-align:start;text-decoration:none;text-decoration-line:none;text-decoration-style:solid;text-decoration-color:#000000;letter-spacing:normal;word-spacing:normal;text-transform:none;writing-mode:lr-tb;direction:ltr;text-orientation:mixed;dominant-baseline:auto;baseline-shift:baseline;text-anchor:start;white-space:normal;shape-padding:0;clip-rule:nonzero;display:inline;overflow:visible;visibility:visible;opacity:0.1;isolation:auto;mix-blend-mode:normal;color-interpolation:sRGB;color-interpolation-filters:linearRGB;solid-color:#000000;solid-opacity:1;vector-effect:none;fill:#000000;fill-opacity:1;fill-rule:nonzero;stroke:none;stroke-width:2;stroke-linecap:butt;stroke-linejoin:miter;stroke-miterlimit:4;stroke-dasharray:none;stroke-dashoffset:0;stroke-opacity:1;marker:none;color-rendering:auto;image-rendering:auto;shape-rendering:auto;text-rendering:auto;enable-background:accumulate"
         d="m 335.65776,64 c -2.6221,0 -4.68675,0.05009 -6.38561,0.286735 -1.69887,0.236639 -3.08904,0.680503 -4.10735,1.523515 -1.0183,0.843013 -1.55577,1.996072 -1.83828,3.406406 -0.28252,1.410336 -0.33767,3.127346 -0.32482,5.308412 v 10.474816 10.480783 c -0.0127,2.177715 0.0426,3.893853 0.32482,5.302673 0.28251,1.41034 0.81998,2.5634 1.83828,3.40641 1.01831,0.84301 2.40848,1.28688 4.10735,1.52351 1.69888,0.23665 3.76351,0.28674 6.38561,0.28674 h 16.68618 c 2.62213,0 4.68568,-0.05 6.38104,-0.28674 1.69534,-0.23674 3.08126,-0.6821 4.09581,-1.52542 1.01457,-0.84331 1.54885,-1.99555 1.83367,-3.4045 C 364.93929,99.37441 365,97.660878 365,95.480667 V 84.999884 74.519333 c 0,-2.180211 -0.0608,-3.893733 -0.34554,-5.302677 -0.28482,-1.408942 -0.81911,-2.561177 -1.83368,-3.404494 -1.01455,-0.843317 -2.40047,-1.288685 -4.09582,-1.525427 C 357.02962,64.049992 354.96605,64 352.34394,64 Z"
         id="path1020"
         inkscape:connector-curvature="0"
         sodipodi:nodetypes="sccsccccccsscccscsccsss" />
      <path
         style="color:#000000;display:inline;overflow:visible;visibility:visible;fill:#f7f7f7;fill-opacity:1;fill-rule:nonzero;stroke:none;stroke-width:1;marker:none;enable-background:accumulate"
         d="m 335.33517,63.500049 c -10.01116,0 -11.88667,0.90635 -11.83407,9.74838 v 10.75157 10.75181 c -0.0527,8.842031 1.82291,9.748381 11.83407,9.748381 h 17.3308 c 10.00866,0 11.83405,-0.90625 11.83405,-9.748381 v -10.75181 -10.75157 c 0,-8.84213 -1.82539,-9.74838 -11.83406,-9.74838 z"
         id="path964"
         inkscape:connector-curvature="0"
         sodipodi:nodetypes="scccssscsss" />
      <path
         style="color:#000000;display:inline;overflow:visible;visibility:visible;fill:#f7f7f7;fill-opacity:1;fill-rule:nonzero;stroke:none;stroke-width:1;marker:none;enable-background:accumulate"
         d="m 217.06959,51.999694 c 35.2949,0 39.09258,3.62542 38.9196,38.99353 v 65.006466 65.00648 c 0.17298,35.36812 -3.6247,38.99353 -38.9196,38.99353 H 86.919594 c -35.294878,0 -38.919591,-3.625 -38.919591,-38.99353 V 155.99969 90.993224 c 0,-35.36853 3.624713,-38.99353 38.919591,-38.99353 z"
         id="rect4158"
         inkscape:connector-curvature="0"
         sodipodi:nodetypes="scccssscsss" />
      <path
         sodipodi:nodetypes="scccssscsss"
         inkscape:connector-curvature="0"
         id="path914"
         d="m 327.17688,189.49898 c -5.14666,0 -5.70043,0.43263 -5.67521,4.65309 v 4.8484 6.84756 c -0.0253,4.22046 0.52855,4.65307 5.67521,4.65307 h 9.64576 c 5.14665,0 5.67521,-0.43255 5.67521,-4.65307 v -6.84756 -4.8484 c 0,-4.22051 -0.52857,-4.65309 -5.67522,-4.65309 z"
         style="color:#000000;display:inline;overflow:visible;visibility:visible;fill:#f7f7f7;fill-opacity:1;fill-rule:nonzero;stroke:none;stroke-width:1;marker:none;enable-background:accumulate" />
      <path
         style="color:#000000;display:inline;overflow:visible;visibility:visible;fill:#f7f7f7;fill-opacity:1;fill-rule:nonzero;stroke:none;stroke-width:1;marker:none;enable-background:accumulate"
         d="m 324.4056,236.50001 c -3.47604,0 -3.85006,0.30899 -3.83302,3.32331 v 4.17669 4.17668 c -0.017,3.01433 0.35698,3.32332 3.83302,3.32332 h 7.18996 c 3.47605,0 3.83303,-0.30895 3.83303,-3.32332 v -4.17668 -4.17669 c 0,-3.01436 -0.35699,-3.32331 -3.83303,-3.32331 z"
         id="path918"
         inkscape:connector-curvature="0"
         sodipodi:nodetypes="scccssscsss" />
      <path
         style="color:#000000;display:inline;overflow:visible;visibility:visible;fill:#f7f7f7;fill-opacity:1;fill-rule:nonzero;stroke:none;stroke-width:1;marker:none;enable-background:accumulate"
         d="m 330.12726,134.49951 c -6.45163,0 -7.6603,0.58409 -7.62639,6.28227 v 7.21814 7.21741 c -0.034,5.69818 1.17476,6.28227 7.62639,6.28227 h 11.74607 c 6.45003,0 7.62639,-0.58403 7.62639,-6.28227 v -7.21741 -7.21814 c 0,-5.69824 -1.17636,-6.28227 -7.62639,-6.28227 z"
         id="path964-7"
         inkscape:connector-curvature="0"
         sodipodi:nodetypes="scccssscsss" />
    </g>
    <path
       id="path912"
       d="m 338.36597,68.924 c -0.77687,0 -1.44489,0.0541 -2.00423,0.16291 -0.54381,0.10876 -0.94783,0.22526 -1.21197,0.34955 l 0.20967,1.32849 c 0.20199,-0.0777 0.52049,-0.1785 0.95555,-0.30281 0.43504,-0.12429 1.09559,-0.18665 1.98122,-0.18665 0.62149,0 1.11849,0.10114 1.49138,0.30318 0.38844,0.18645 0.6838,0.44297 0.88578,0.76926 0.21753,0.31074 0.35719,0.66808 0.41933,1.07207 0.0621,0.38843 0.0931,0.79207 0.0931,1.21159 v 0.74587 c -0.0622,-0.0311 -0.17865,-0.062 -0.34957,-0.0931 -0.15537,-0.0466 -0.34954,-0.0855 -0.5826,-0.11651 -0.21752,-0.0466 -0.45052,-0.0776 -0.69913,-0.0931 -0.23305,-0.0311 -0.45821,-0.0467 -0.67574,-0.0467 -0.73026,0 -1.40611,0.0699 -2.02761,0.20966 -0.62149,0.13984 -1.15769,0.36537 -1.60828,0.67612 -0.45059,0.29521 -0.80009,0.67571 -1.04868,1.14183 -0.2486,0.46613 -0.37294,1.02548 -0.37294,1.67805 0,0.68364 0.10865,1.26651 0.32618,1.74818 0.23306,0.46612 0.54373,0.85446 0.93217,1.16521 0.40397,0.29521 0.87034,0.51252 1.39862,0.65236 0.5438,0.13984 1.13415,0.21004 1.77119,0.21004 0.49719,0 0.97888,-0.0236 1.445,-0.0702 0.48166,-0.0311 0.91667,-0.0778 1.30511,-0.13991 0.38843,-0.0621 0.73009,-0.11629 1.0253,-0.1629 0.29521,-0.0621 0.52075,-0.11667 0.67612,-0.16327 v -7.5976 c 0,-0.63704 -0.0777,-1.22775 -0.23304,-1.77156 -0.15538,-0.54381 -0.40406,-1.00981 -0.74588,-1.39825 -0.34182,-0.40397 -0.79252,-0.71464 -1.35187,-0.93216 -0.5438,-0.23307 -1.21182,-0.34957 -2.00422,-0.34957 z m 8.63441,6.07541 v 16.4899 h 1.76822 l 0.55143,-0.71173 c 1.10239,0.64306 2.20476,0.94144 3.33012,0.94144 3.30718,0 5.25902,-2.45734 5.25902,-5.81046 0,-3.35311 -1.35493,-5.71879 -4.75397,-5.71879 -1.3091,0 -2.3885,0.32185 -3.33012,0.80414 v -5.9945 z m -8.16833,0.3336 c 0.65257,0 1.16525,0.0467 1.53815,0.13989 0.37289,0.0777 0.64474,0.15536 0.81564,0.23305 v 4.24187 c -0.31075,0.0621 -0.69124,0.11629 -1.14182,0.16291 -0.43506,0.0311 -0.94773,0.0467 -1.53816,0.0467 -0.48166,0 -0.91667,-0.0388 -1.3051,-0.11653 -0.37289,-0.0932 -0.69925,-0.23323 -0.97892,-0.41968 -0.26413,-0.18645 -0.47398,-0.43477 -0.62936,-0.74552 -0.13983,-0.31074 -0.20967,-0.69161 -0.20967,-1.14219 0,-0.51274 0.10867,-0.9246 0.32619,-1.23535 0.21753,-0.31074 0.4972,-0.55122 0.83902,-0.72213 0.34183,-0.18645 0.71485,-0.30332 1.11883,-0.34993 0.40397,-0.0621 0.7923,-0.0931 1.1652,-0.0931 z m 13.63404,7.15341 c 1.97512,0 2.61837,1.42397 2.61837,3.58283 0,2.15884 -1.01046,3.42214 -2.89372,3.42214 -0.91865,0 -1.69964,-0.22952 -2.36566,-0.75776 v -5.62675 c 0.5512,-0.22968 1.63048,-0.62046 2.64101,-0.62046 z m -13.58171,3.13789 c -1.1736,0 -2.25372,0.18387 -3.24032,0.55144 -0.9866,0.36755 -1.83767,0.89641 -2.55343,1.58639 -0.70932,0.68996 -1.26416,1.53465 -1.66395,2.53414 -0.39979,0.99948 -0.59968,2.12797 -0.59968,3.3854 0,0.7867 0.12271,1.50226 0.36775,2.1471 0.24503,0.64483 0.60602,1.19609 1.0832,1.65392 0.47717,0.45784 1.06721,0.81279 1.77007,1.06428 0.70287,0.25148 1.51555,0.37702 2.43767,0.37702 0.43203,0 0.86736,-0.0256 1.30584,-0.0771 0.43848,-0.0451 0.86384,-0.10671 1.27653,-0.18406 0.4127,-0.0838 0.80285,-0.17736 1.1704,-0.28053 0.374,-0.10318 0.71259,-0.20952 1.01566,-0.31914 l 0.59003,-3.04661 h -0.62862 l -0.69653,1.94411 c -0.19989,0.15477 -0.43854,0.30308 -0.71582,0.44493 -0.27727,0.13542 -0.58349,0.25776 -0.9188,0.36739 -0.32887,0.10961 -0.68345,0.19675 -1.06391,0.26123 -0.38045,0.0645 -0.7706,0.0969 -1.17039,0.0969 -0.68998,0 -1.28001,-0.10639 -1.77008,-0.31913 -0.49008,-0.2128 -0.89304,-0.50621 -1.209,-0.88021 -0.31596,-0.38046 -0.54822,-0.83215 -0.69652,-1.35446 -0.14187,-0.52232 -0.213,-1.08958 -0.213,-1.70217 0,-1.13491 0.15187,-2.16346 0.45495,-3.08557 0.30306,-0.92212 0.72202,-1.70883 1.25723,-2.3601 0.54166,-0.65129 1.18325,-1.15098 1.92481,-1.49919 0.74157,-0.35466 1.55104,-0.53214 2.42802,-0.53214 0.61904,0 1.21227,0.0776 1.77972,0.2323 0.56746,0.14832 1.05078,0.36099 1.45057,0.63827 v 1.68324 h 0.629 l 0.43527,-2.83435 c -0.5739,-0.12897 -1.2027,-0.2417 -1.88622,-0.33843 -0.68352,-0.10318 -1.46703,-0.15474 -2.35045,-0.15474 z"
       style="font-style:normal;font-weight:normal;font-size:118.519px;line-height:1000%;font-family:sans-serif;letter-spacing:0px;word-spacing:0px;display:inline;fill:#5d5d5d;fill-opacity:1;stroke:none;stroke-width:0.56295px;stroke-linecap:butt;stroke-linejoin:miter;stroke-opacity:1;enable-background:new"
       inkscape:connector-curvature="0" />
    <g
       inkscape:groupmode="layer"
       id="layer6"
       inkscape:label="Pictograms and folds"
       style="display:inline">
      <path
         inkscape:connector-curvature="0"
         style="font-style:normal;font-weight:normal;font-size:118.519px;line-height:1000%;font-family:sans-serif;letter-spacing:0px;word-spacing:0px;display:inline;fill:#ffffff;fill-opacity:1;stroke:none;stroke-width:0.30024px;stroke-linecap:butt;stroke-linejoin:miter;stroke-opacity:1;enable-background:new"
         d="m 328.79824,193.00001 c -0.41434,0 -0.77062,0.0289 -1.06893,0.0869 -0.29003,0.058 -0.5055,0.12014 -0.64638,0.18643 l 0.11182,0.70852 c 0.10773,-0.0414 0.27759,-0.0952 0.50962,-0.16149 0.23203,-0.0663 0.58432,-0.0996 1.05666,-0.0996 0.33146,0 0.59653,0.054 0.7954,0.1617 0.20717,0.0994 0.36469,0.23626 0.47242,0.41027 0.11601,0.16573 0.19049,0.35632 0.22363,0.57177 0.0332,0.20717 0.0497,0.42244 0.0497,0.64618 v 0.39781 c -0.0332,-0.0166 -0.0953,-0.0331 -0.18643,-0.0497 -0.0829,-0.0249 -0.18642,-0.0456 -0.31072,-0.0621 -0.11601,-0.0249 -0.24027,-0.0414 -0.37286,-0.0497 -0.1243,-0.0166 -0.24438,-0.0249 -0.36041,-0.0249 -0.38947,0 -0.74991,0.0372 -1.08139,0.11182 -0.33146,0.0746 -0.61743,0.19486 -0.85773,0.36059 -0.24032,0.15745 -0.42672,0.36039 -0.55931,0.60898 -0.13258,0.24861 -0.1989,0.54693 -0.1989,0.89496 0,0.36461 0.058,0.67548 0.17397,0.93237 0.12429,0.24859 0.28999,0.45571 0.49715,0.62144 0.21546,0.15744 0.46418,0.27335 0.74594,0.34792 0.29003,0.0746 0.60488,0.11203 0.94463,0.11203 0.26516,0 0.52207,-0.0126 0.77067,-0.0374 0.25689,-0.0166 0.48889,-0.0414 0.69606,-0.0746 0.20716,-0.0331 0.38938,-0.062 0.54683,-0.0869 0.15744,-0.0332 0.27773,-0.0622 0.36059,-0.0871 v -4.05205 c 0,-0.33976 -0.0415,-0.6548 -0.12429,-0.94484 -0.0829,-0.29002 -0.2155,-0.53856 -0.3978,-0.74572 -0.18231,-0.21545 -0.42268,-0.38115 -0.721,-0.49716 C 329.57715,193.06214 329.22088,193 328.79826,193 Z m 4.60501,3.24022 v 8.79462 h 0.94305 l 0.2941,-0.3796 c 0.58794,0.34296 1.17587,0.50211 1.77606,0.50211 1.76383,0 2.80482,-1.31059 2.80482,-3.09891 0,-1.78832 -0.72264,-3.05003 -2.53546,-3.05003 -0.69818,0 -1.27386,0.17166 -1.77606,0.42888 v -3.19707 z m -4.35644,0.17792 c 0.34804,0 0.62147,0.0249 0.82035,0.0746 0.19887,0.0414 0.34385,0.0829 0.435,0.12428 v 2.26233 c -0.16573,0.0332 -0.36866,0.062 -0.60896,0.0869 -0.23203,0.0166 -0.50547,0.0249 -0.82035,0.0249 -0.25689,0 -0.4889,-0.0207 -0.69606,-0.0621 -0.19887,-0.0498 -0.37293,-0.12439 -0.52211,-0.22382 -0.14085,-0.0994 -0.25277,-0.23188 -0.33564,-0.39761 -0.0746,-0.16574 -0.11183,-0.36887 -0.11183,-0.60918 0,-0.27345 0.058,-0.49312 0.17397,-0.65884 0.11601,-0.16573 0.26517,-0.294 0.44747,-0.38516 0.18231,-0.0994 0.38126,-0.16176 0.59671,-0.18662 0.21545,-0.0332 0.42256,-0.0497 0.62144,-0.0497 z m 7.27148,3.81515 c 1.05341,0 1.39648,0.75946 1.39648,1.91084 0,1.15138 -0.53892,1.82514 -1.54334,1.82514 -0.48995,0 -0.90647,-0.1224 -1.26168,-0.40413 v -3.00094 c 0.29397,-0.12248 0.86959,-0.33091 1.40854,-0.33091 z m -7.24357,1.67355 c -0.62592,0 -1.20198,0.0981 -1.72817,0.29409 -0.52618,0.19603 -0.9801,0.47809 -1.36183,0.84607 -0.3783,0.368 -0.67422,0.81848 -0.88744,1.35155 -0.21323,0.53306 -0.31983,1.13493 -0.31983,1.80555 0,0.41957 0.0654,0.80121 0.19613,1.14512 0.13067,0.34391 0.32321,0.63791 0.57771,0.8821 0.25449,0.24416 0.56918,0.43347 0.94403,0.5676 0.37487,0.13413 0.80829,0.20108 1.30008,0.20108 0.23043,0 0.4626,-0.0137 0.69646,-0.0412 0.23387,-0.0241 0.46071,-0.057 0.68083,-0.0982 0.2201,-0.0447 0.42818,-0.0946 0.62421,-0.14962 0.19947,-0.055 0.38004,-0.11174 0.54168,-0.1702 l 0.31468,-1.62486 H 330.318 l -0.37149,1.03686 c -0.1066,0.0825 -0.23388,0.16164 -0.38177,0.2373 -0.14788,0.0722 -0.3112,0.13746 -0.49003,0.19594 -0.17539,0.0585 -0.36451,0.10494 -0.56742,0.13932 -0.2029,0.0344 -0.41098,0.0516 -0.62421,0.0516 -0.36799,0 -0.68267,-0.0567 -0.94404,-0.17021 -0.26137,-0.11349 -0.47627,-0.26997 -0.64479,-0.46944 -0.16852,-0.20291 -0.2924,-0.44381 -0.37149,-0.72237 -0.0757,-0.27857 -0.1136,-0.58111 -0.1136,-0.90783 0,-0.60528 0.081,-1.15384 0.24264,-1.64563 0.16163,-0.49181 0.38508,-0.91137 0.67053,-1.25873 0.28888,-0.34736 0.63107,-0.61385 1.02656,-0.79956 0.3955,-0.18916 0.82723,-0.28381 1.29494,-0.28381 0.33016,0 0.64655,0.0414 0.94919,0.12389 0.30265,0.0791 0.56041,0.19253 0.77363,0.34042 v 0.89772 h 0.33547 l 0.23215,-1.51166 c -0.30608,-0.0688 -0.64144,-0.12889 -1.00599,-0.18049 -0.36454,-0.055 -0.78241,-0.0825 -1.25357,-0.0825 z"
         id="path930" />
      <path
         id="path916"
         d="m 328.79824,192.00004 c -0.41434,0 -0.77062,0.0289 -1.06893,0.0869 -0.29003,0.058 -0.5055,0.12014 -0.64638,0.18643 l 0.11182,0.70852 c 0.10773,-0.0414 0.27759,-0.0952 0.50962,-0.16149 0.23203,-0.0663 0.58432,-0.0996 1.05666,-0.0996 0.33146,0 0.59653,0.054 0.7954,0.1617 0.20717,0.0994 0.36469,0.23626 0.47242,0.41027 0.11601,0.16573 0.19049,0.35632 0.22363,0.57177 0.0332,0.20717 0.0497,0.42244 0.0497,0.64618 v 0.39781 c -0.0332,-0.0166 -0.0953,-0.0331 -0.18643,-0.0497 -0.0829,-0.0249 -0.18642,-0.0456 -0.31072,-0.0621 -0.11601,-0.0249 -0.24027,-0.0414 -0.37286,-0.0497 -0.1243,-0.0166 -0.24438,-0.0249 -0.36041,-0.0249 -0.38947,0 -0.74991,0.0372 -1.08139,0.11182 -0.33146,0.0746 -0.61743,0.19486 -0.85773,0.36059 -0.24032,0.15745 -0.42672,0.36039 -0.55931,0.60898 -0.13258,0.24861 -0.1989,0.54693 -0.1989,0.89496 0,0.36461 0.058,0.67548 0.17397,0.93237 0.12429,0.24859 0.28999,0.45571 0.49715,0.62144 0.21546,0.15744 0.46418,0.27335 0.74594,0.34792 0.29003,0.0746 0.60488,0.11203 0.94463,0.11203 0.26516,0 0.52207,-0.0126 0.77067,-0.0374 0.25689,-0.0166 0.48889,-0.0414 0.69606,-0.0746 0.20716,-0.0331 0.38938,-0.062 0.54683,-0.0869 0.15744,-0.0332 0.27773,-0.0622 0.36059,-0.0871 v -4.05205 c 0,-0.33976 -0.0415,-0.6548 -0.12429,-0.94484 -0.0829,-0.29002 -0.2155,-0.53856 -0.3978,-0.74572 -0.18231,-0.21545 -0.42268,-0.38115 -0.721,-0.49716 -0.29003,-0.1243 -0.6463,-0.18644 -1.06892,-0.18644 z m 4.60501,3.24022 v 8.79462 h 0.94305 l 0.2941,-0.3796 c 0.58794,0.34296 1.17587,0.50211 1.77606,0.50211 1.76383,0 2.80482,-1.31059 2.80482,-3.09891 0,-1.78832 -0.72264,-3.05003 -2.53546,-3.05003 -0.69818,0 -1.27386,0.17166 -1.77606,0.42888 v -3.19707 z m -4.35644,0.17792 c 0.34804,0 0.62147,0.0249 0.82035,0.0746 0.19887,0.0414 0.34385,0.0829 0.435,0.12428 v 2.26233 c -0.16573,0.0332 -0.36866,0.062 -0.60896,0.0869 -0.23203,0.0166 -0.50547,0.0249 -0.82035,0.0249 -0.25689,0 -0.4889,-0.0207 -0.69606,-0.0621 -0.19887,-0.0498 -0.37293,-0.12439 -0.52211,-0.22382 -0.14085,-0.0994 -0.25277,-0.23188 -0.33564,-0.3976 -0.0746,-0.16574 -0.11183,-0.36887 -0.11183,-0.60919 0,-0.27345 0.058,-0.49312 0.17397,-0.65884 0.11601,-0.16573 0.26517,-0.294 0.44747,-0.38516 0.18231,-0.0994 0.38126,-0.16176 0.59671,-0.18662 0.21545,-0.0332 0.42256,-0.0497 0.62144,-0.0497 z m 7.27148,3.81515 c 1.05341,0 1.39648,0.75946 1.39648,1.91084 0,1.15138 -0.53892,1.82514 -1.54334,1.82514 -0.48995,0 -0.90647,-0.1224 -1.26168,-0.40413 v -3.00094 c 0.29397,-0.12248 0.86959,-0.33091 1.40854,-0.33091 z m -7.24357,1.67355 c -0.62592,0 -1.20198,0.0981 -1.72817,0.29409 -0.52618,0.19603 -0.9801,0.47809 -1.36183,0.84607 -0.3783,0.368 -0.67422,0.81848 -0.88744,1.35155 -0.21323,0.53306 -0.31983,1.13493 -0.31983,1.80555 0,0.41957 0.0654,0.80121 0.19613,1.14512 0.13067,0.34391 0.32321,0.63791 0.57771,0.8821 0.25449,0.24416 0.56918,0.43347 0.94403,0.5676 0.37487,0.13413 0.80829,0.20108 1.30008,0.20108 0.23043,0 0.4626,-0.0137 0.69646,-0.0412 0.23387,-0.0241 0.46071,-0.057 0.68083,-0.0982 0.2201,-0.0447 0.42818,-0.0946 0.62421,-0.14962 0.19947,-0.055 0.38004,-0.11174 0.54168,-0.1702 l 0.31468,-1.62486 H 330.318 l -0.37149,1.03686 c -0.1066,0.0825 -0.23388,0.16164 -0.38177,0.2373 -0.14788,0.0722 -0.3112,0.13746 -0.49003,0.19594 -0.17539,0.0585 -0.36451,0.10494 -0.56742,0.13932 -0.2029,0.0344 -0.41098,0.0516 -0.62421,0.0516 -0.36799,0 -0.68267,-0.0567 -0.94404,-0.17021 -0.26137,-0.11349 -0.47627,-0.26997 -0.64479,-0.46944 -0.16852,-0.20291 -0.2924,-0.44381 -0.37149,-0.72237 -0.0757,-0.27857 -0.1136,-0.58111 -0.1136,-0.90783 0,-0.60528 0.081,-1.15384 0.24264,-1.64563 0.16163,-0.49181 0.38508,-0.91137 0.67053,-1.25873 0.28888,-0.34736 0.63107,-0.61385 1.02656,-0.79956 0.3955,-0.18916 0.82723,-0.28381 1.29494,-0.28381 0.33016,0 0.64655,0.0414 0.94919,0.12389 0.30265,0.0791 0.56041,0.19253 0.77363,0.34042 v 0.89772 h 0.33547 l 0.23215,-1.51166 c -0.30608,-0.0688 -0.64144,-0.12889 -1.00599,-0.18049 -0.36454,-0.055 -0.78241,-0.0825 -1.25357,-0.0825 z"
         style="font-style:normal;font-weight:normal;font-size:118.519px;line-height:1000%;font-family:sans-serif;letter-spacing:0px;word-spacing:0px;display:inline;fill:#5d5d5d;fill-opacity:1;stroke:none;stroke-width:0.30024px;stroke-linecap:butt;stroke-linejoin:miter;stroke-opacity:1;enable-background:new"
         inkscape:connector-curvature="0" />
      <path
         inkscape:connector-curvature="0"
         style="font-style:normal;font-weight:normal;font-size:118.519px;line-height:1000%;font-family:sans-serif;letter-spacing:0px;word-spacing:0px;display:inline;fill:#ffffff;fill-opacity:1;stroke:none;stroke-width:0.233706px;stroke-linecap:butt;stroke-linejoin:miter;stroke-opacity:1;enable-background:new"
         d="m 324.88687,240.658 c -0.32252,0 -0.59986,0.0225 -0.83207,0.0677 -0.22575,0.0452 -0.39348,0.0935 -0.50313,0.14512 l 0.087,0.55151 c 0.0838,-0.0322 0.21607,-0.0741 0.39668,-0.12571 0.18061,-0.0516 0.45483,-0.0776 0.82251,-0.0776 0.258,0 0.46434,0.042 0.61914,0.12587 0.16126,0.0774 0.28387,0.1839 0.36772,0.31935 0.0903,0.129 0.14829,0.27736 0.17408,0.44506 0.0259,0.16126 0.0387,0.32883 0.0387,0.50299 v 0.30965 c -0.0258,-0.0129 -0.0742,-0.0258 -0.14511,-0.0387 -0.0645,-0.0194 -0.14511,-0.0355 -0.24187,-0.0483 -0.0903,-0.0194 -0.18702,-0.0322 -0.29023,-0.0387 -0.0968,-0.0129 -0.19022,-0.0194 -0.28055,-0.0194 -0.30316,0 -0.58372,0.029 -0.84174,0.0871 -0.25801,0.0581 -0.48062,0.15167 -0.66766,0.28068 -0.18706,0.12256 -0.33216,0.28053 -0.43536,0.47403 -0.10321,0.19351 -0.15483,0.42573 -0.15483,0.69663 0,0.28382 0.0452,0.5258 0.13541,0.72576 0.0967,0.1935 0.22573,0.35472 0.38698,0.48373 0.16771,0.12255 0.36131,0.21277 0.58064,0.27082 0.22576,0.0581 0.47083,0.0872 0.7353,0.0872 0.20641,0 0.40639,-0.01 0.59989,-0.0291 0.19996,-0.0129 0.38056,-0.0322 0.54182,-0.0581 0.16125,-0.0258 0.30308,-0.0483 0.42563,-0.0676 0.12257,-0.0259 0.21619,-0.0484 0.28069,-0.0678 v -3.15411 c 0,-0.26447 -0.0323,-0.5097 -0.0967,-0.73546 -0.0645,-0.22575 -0.16775,-0.41922 -0.30964,-0.58047 -0.14191,-0.1677 -0.32903,-0.29668 -0.56124,-0.38699 -0.22575,-0.0968 -0.50308,-0.14512 -0.83204,-0.14512 z m 3.58452,1.74378 v 6.84572 h 0.73407 l 0.22892,-0.29549 c 0.45766,0.26697 0.91529,0.39085 1.38248,0.39085 1.37296,0 2.18327,-1.02016 2.18327,-2.41219 0,-1.39202 -0.5625,-2.37414 -1.9736,-2.37414 -0.54346,0 -0.99157,0.13363 -1.38248,0.33385 v -2.4886 z m -3.39105,0.91689 c 0.27091,0 0.48375,0.0194 0.63856,0.0581 0.1548,0.0322 0.26765,0.0645 0.3386,0.0967 v 1.761 c -0.129,0.0259 -0.28696,0.0483 -0.47401,0.0677 -0.18061,0.0129 -0.39346,0.0194 -0.63856,0.0194 -0.19997,0 -0.38056,-0.0162 -0.54181,-0.0484 -0.1548,-0.0387 -0.29029,-0.0968 -0.40641,-0.17422 -0.10964,-0.0774 -0.19676,-0.1805 -0.26126,-0.3095 -0.0581,-0.12901 -0.0871,-0.28713 -0.0871,-0.47417 0,-0.21287 0.0452,-0.38385 0.13542,-0.51284 0.0903,-0.12901 0.2064,-0.22885 0.3483,-0.29981 0.14192,-0.0774 0.29677,-0.12593 0.46449,-0.14527 0.1677,-0.0259 0.32891,-0.0386 0.48372,-0.0386 z m 5.66011,2.19132 c 0.81997,0 1.08701,0.59116 1.08701,1.48738 0,0.89624 -0.41949,1.42069 -1.20133,1.42069 -0.38138,0 -0.70558,-0.0953 -0.98208,-0.31457 v -2.33593 c 0.22882,-0.0953 0.67688,-0.25758 1.0964,-0.25757 z"
         id="path918-6-6-8"
         sodipodi:nodetypes="cccccscccsccccscccscccsccccscccccccccsssccccccccscccscccccsssccs" />
      <path
         inkscape:connector-curvature="0"
         style="font-style:normal;font-weight:normal;font-size:118.519px;line-height:1000%;font-family:sans-serif;letter-spacing:0px;word-spacing:0px;display:inline;fill:#5d5d5d;fill-opacity:1;stroke:none;stroke-width:0.233706px;stroke-linecap:butt;stroke-linejoin:miter;stroke-opacity:1;enable-background:new"
         d="m 324.88687,239.65757 c -0.32252,0 -0.59986,0.0225 -0.83207,0.0677 -0.22575,0.0452 -0.39348,0.0935 -0.50313,0.14512 l 0.087,0.55151 c 0.0838,-0.0322 0.21607,-0.0741 0.39668,-0.12571 0.18061,-0.0516 0.45483,-0.0776 0.82251,-0.0776 0.258,0 0.46434,0.042 0.61914,0.12587 0.16126,0.0774 0.28387,0.1839 0.36772,0.31935 0.0903,0.129 0.14829,0.27736 0.17408,0.44506 0.0259,0.16126 0.0387,0.32883 0.0387,0.50299 v 0.30965 c -0.0258,-0.0129 -0.0742,-0.0258 -0.14511,-0.0387 -0.0645,-0.0194 -0.14511,-0.0355 -0.24187,-0.0483 -0.0903,-0.0194 -0.18702,-0.0322 -0.29023,-0.0387 -0.0968,-0.0129 -0.19022,-0.0194 -0.28055,-0.0194 -0.30316,0 -0.58372,0.029 -0.84174,0.0871 -0.25801,0.0581 -0.48062,0.15167 -0.66766,0.28068 -0.18706,0.12256 -0.33216,0.28053 -0.43536,0.47403 -0.10321,0.19351 -0.15483,0.42573 -0.15483,0.69663 0,0.28382 0.0452,0.5258 0.13541,0.72576 0.0967,0.1935 0.22573,0.35472 0.38698,0.48373 0.16771,0.12255 0.36131,0.21277 0.58064,0.27082 0.22576,0.0581 0.47083,0.0872 0.7353,0.0872 0.20641,0 0.40639,-0.01 0.59989,-0.0291 0.19996,-0.0129 0.38056,-0.0322 0.54182,-0.0581 0.16125,-0.0258 0.30308,-0.0483 0.42563,-0.0676 0.12257,-0.0259 0.21619,-0.0484 0.28069,-0.0678 v -3.15411 c 0,-0.26447 -0.0323,-0.5097 -0.0967,-0.73546 -0.0645,-0.22575 -0.16775,-0.41922 -0.30964,-0.58047 -0.14191,-0.1677 -0.32903,-0.29668 -0.56124,-0.38699 -0.22575,-0.0968 -0.50308,-0.14512 -0.83204,-0.14512 z m 3.58452,1.74378 v 6.84572 h 0.73407 l 0.22892,-0.29549 c 0.45766,0.26697 0.91529,0.39085 1.38248,0.39085 1.37296,0 2.18327,-1.02016 2.18327,-2.41219 0,-1.39202 -0.5625,-2.37414 -1.9736,-2.37414 -0.54346,0 -0.99157,0.13363 -1.38248,0.33385 v -2.4886 z m -3.39105,0.91689 c 0.27091,0 0.48375,0.0194 0.63856,0.0581 0.1548,0.0322 0.26765,0.0645 0.3386,0.0967 v 1.761 c -0.129,0.0259 -0.28696,0.0483 -0.47401,0.0677 -0.18061,0.0129 -0.39346,0.0194 -0.63856,0.0194 -0.19997,0 -0.38056,-0.0162 -0.54181,-0.0484 -0.1548,-0.0387 -0.29029,-0.0968 -0.40641,-0.17422 -0.10964,-0.0774 -0.19676,-0.1805 -0.26126,-0.3095 -0.0581,-0.12901 -0.0871,-0.28713 -0.0871,-0.47417 0,-0.21287 0.0452,-0.38385 0.13542,-0.51284 0.0903,-0.12901 0.2064,-0.22885 0.3483,-0.29981 0.14192,-0.0774 0.29677,-0.12593 0.46449,-0.14527 0.1677,-0.0259 0.32891,-0.0386 0.48372,-0.0386 z m 5.66011,2.19132 c 0.81997,0 1.08701,0.59116 1.08701,1.48738 0,0.89624 -0.41949,1.42069 -1.20133,1.42069 -0.38138,0 -0.70558,-0.0953 -0.98208,-0.31457 v -2.33593 c 0.22882,-0.0953 0.67688,-0.25758 1.0964,-0.25757 z"
         id="path918-6-6"
         sodipodi:nodetypes="cccccscccsccccscccscccsccccscccccccccsssccccccccscccscccccsssccs" />
      <path
         id="path916-6-6"
         d="m 331.99855,139.00001 c -0.51793,0 -0.96328,0.0361 -1.33616,0.10862 -0.36254,0.0725 -0.63188,0.15018 -0.80798,0.23304 l 0.13978,0.88565 c 0.13466,-0.0517 0.34698,-0.119 0.63702,-0.20186 0.29004,-0.0829 0.7304,-0.1245 1.32083,-0.1245 0.41432,0 0.74566,0.0675 0.99425,0.20212 0.25896,0.12425 0.45586,0.29533 0.59052,0.51284 0.14501,0.20716 0.23811,0.4454 0.27954,0.71471 0.0415,0.25897 0.0621,0.52805 0.0621,0.80773 v 0.49726 c -0.0415,-0.0207 -0.11912,-0.0414 -0.23304,-0.0621 -0.10362,-0.0311 -0.23302,-0.057 -0.38839,-0.0776 -0.14502,-0.0311 -0.30034,-0.0517 -0.46608,-0.0621 -0.15537,-0.0207 -0.30547,-0.0311 -0.45051,-0.0311 -0.48684,0 -0.93739,0.0465 -1.35174,0.13978 -0.41432,0.0933 -0.77179,0.24357 -1.07216,0.45073 -0.3004,0.19681 -0.5334,0.45049 -0.69914,0.76123 -0.16572,0.31076 -0.24862,0.68367 -0.24862,1.1187 0,0.45576 0.0725,0.84435 0.21746,1.16546 0.15536,0.31074 0.36249,0.56964 0.62144,0.7768 0.26932,0.1968 0.58022,0.34168 0.93242,0.4349 0.36254,0.0932 0.7561,0.14003 1.18079,0.14003 0.33145,0 0.65259,-0.0157 0.96334,-0.0468 0.32111,-0.0207 0.61111,-0.0517 0.87007,-0.0933 0.25895,-0.0414 0.48672,-0.0775 0.68354,-0.10862 0.1968,-0.0415 0.34716,-0.0777 0.45073,-0.10888 v -5.06505 c 0,-0.4247 -0.0519,-0.8185 -0.15536,-1.18105 -0.10362,-0.36253 -0.26937,-0.6732 -0.49725,-0.93215 -0.22789,-0.26932 -0.52835,-0.47644 -0.90125,-0.62145 C 332.97219,139.07767 332.52685,139 331.99857,139 Z m 5.75626,4.05027 v 10.99327 h 1.17881 l 0.36762,-0.4745 c 0.73493,0.4287 1.46984,0.62764 2.22008,0.62764 2.20478,0 3.50602,-1.63824 3.50602,-3.87364 0,-2.2354 -0.9033,-3.81253 -3.16932,-3.81253 -0.87273,0 -1.59233,0.21457 -2.22008,0.5361 v -3.99634 z m -5.44555,0.2224 c 0.43505,0 0.77684,0.0311 1.02544,0.0932 0.24858,0.0517 0.42981,0.10363 0.54375,0.15535 v 2.82791 c -0.20717,0.0415 -0.46083,0.0775 -0.7612,0.10863 -0.29004,0.0207 -0.63184,0.0311 -1.02544,0.0311 -0.32111,0 -0.61112,-0.0259 -0.87007,-0.0776 -0.24859,-0.0622 -0.46617,-0.15549 -0.65264,-0.27978 -0.17606,-0.12425 -0.31596,-0.28985 -0.41955,-0.497 -0.0933,-0.20717 -0.13979,-0.46109 -0.13979,-0.76149 0,-0.34182 0.0725,-0.6164 0.21746,-0.82355 0.14502,-0.20717 0.33147,-0.3675 0.55934,-0.48145 0.22789,-0.12425 0.47658,-0.2022 0.74589,-0.23328 0.26931,-0.0415 0.5282,-0.0621 0.7768,-0.0621 z m 9.08934,4.76894 c 1.31677,0 1.7456,0.94932 1.7456,2.38855 0,1.43922 -0.67365,2.28142 -1.92917,2.28142 -0.61244,0 -1.13309,-0.153 -1.5771,-0.50516 v -3.75118 c 0.36746,-0.1531 1.08699,-0.41363 1.76067,-0.41363 z m -9.05445,2.09193 c -0.7824,0 -1.50248,0.12263 -2.16021,0.36762 -0.65773,0.24503 -1.22513,0.59761 -1.70229,1.05758 -0.47287,0.46 -0.84277,1.0231 -1.1093,1.68944 -0.26654,0.66632 -0.39979,1.41866 -0.39979,2.25693 0,0.52447 0.0817,1.00152 0.24517,1.4314 0.16333,0.42989 0.40401,0.79739 0.72213,1.10263 0.31812,0.3052 0.71148,0.54183 1.18004,0.7095 0.46859,0.16766 1.01036,0.25135 1.6251,0.25135 0.28804,0 0.57825,-0.0171 0.87057,-0.0515 0.29234,-0.0301 0.57589,-0.0712 0.85104,-0.12275 0.27513,-0.0559 0.53523,-0.11825 0.78026,-0.18703 0.24934,-0.0687 0.47505,-0.13967 0.6771,-0.21275 l 0.39335,-2.03107 h -0.41907 l -0.46436,1.29607 c -0.13325,0.10313 -0.29235,0.20205 -0.47722,0.29663 -0.18485,0.0903 -0.389,0.17182 -0.61253,0.24492 -0.21924,0.0731 -0.45564,0.13118 -0.70928,0.17415 -0.25362,0.043 -0.51372,0.0645 -0.78026,0.0645 -0.45999,0 -0.85334,-0.0709 -1.18005,-0.21276 -0.32671,-0.14186 -0.59534,-0.33746 -0.80599,-0.5868 -0.21065,-0.25364 -0.3655,-0.55476 -0.46436,-0.90296 -0.0946,-0.34821 -0.142,-0.72639 -0.142,-1.13479 0,-0.7566 0.10125,-1.4423 0.3033,-2.05703 0.20204,-0.61477 0.48135,-1.13922 0.83816,-1.57342 0.3611,-0.4342 0.78884,-0.76731 1.2832,-0.99945 0.49438,-0.23645 1.03404,-0.35476 1.61868,-0.35476 0.4127,0 0.80818,0.0517 1.18648,0.15486 0.37831,0.0989 0.70051,0.24067 0.96704,0.42553 v 1.12215 h 0.41934 l 0.29018,-1.88957 c -0.3826,-0.086 -0.8018,-0.16112 -1.25748,-0.22562 -0.45568,-0.0687 -0.97801,-0.10312 -1.56696,-0.10312 z"
         style="font-style:normal;font-weight:normal;font-size:118.519px;line-height:1000%;font-family:sans-serif;letter-spacing:0px;word-spacing:0px;display:inline;fill:#ffffff;fill-opacity:1;stroke:none;stroke-width:0.30024px;stroke-linecap:butt;stroke-linejoin:miter;stroke-opacity:1;enable-background:new"
         inkscape:connector-curvature="0" />
      <path
         id="path916-6"
         d="m 331.99855,137.99956 c -0.51793,0 -0.96328,0.0361 -1.33616,0.10862 -0.36254,0.0725 -0.63188,0.15018 -0.80798,0.23304 l 0.13978,0.88565 c 0.13466,-0.0517 0.34698,-0.119 0.63702,-0.20186 0.29004,-0.0829 0.7304,-0.1245 1.32083,-0.1245 0.41432,0 0.74566,0.0675 0.99425,0.20212 0.25896,0.12425 0.45586,0.29533 0.59052,0.51284 0.14501,0.20716 0.23811,0.4454 0.27954,0.71471 0.0415,0.25897 0.0621,0.52805 0.0621,0.80773 v 0.49726 c -0.0415,-0.0207 -0.11912,-0.0414 -0.23304,-0.0621 -0.10362,-0.0311 -0.23302,-0.057 -0.38839,-0.0776 -0.14502,-0.0311 -0.30034,-0.0517 -0.46608,-0.0621 -0.15537,-0.0207 -0.30547,-0.0311 -0.45051,-0.0311 -0.48684,0 -0.93739,0.0465 -1.35174,0.13978 -0.41432,0.0933 -0.77179,0.24357 -1.07216,0.45073 -0.3004,0.19681 -0.5334,0.45049 -0.69914,0.76123 -0.16572,0.31076 -0.24862,0.68367 -0.24862,1.1187 0,0.45576 0.0725,0.84435 0.21746,1.16546 0.15536,0.31074 0.36249,0.56964 0.62144,0.7768 0.26932,0.1968 0.58022,0.34168 0.93242,0.4349 0.36254,0.0932 0.7561,0.14003 1.18079,0.14003 0.33145,0 0.65259,-0.0157 0.96334,-0.0468 0.32111,-0.0207 0.61111,-0.0517 0.87007,-0.0933 0.25895,-0.0414 0.48672,-0.0775 0.68354,-0.10862 0.1968,-0.0415 0.34716,-0.0777 0.45073,-0.10888 v -5.06505 c 0,-0.4247 -0.0519,-0.8185 -0.15536,-1.18105 -0.10362,-0.36253 -0.26937,-0.6732 -0.49725,-0.93215 -0.22789,-0.26932 -0.52835,-0.47644 -0.90125,-0.62145 -0.36251,-0.15538 -0.80785,-0.23305 -1.33613,-0.23305 z m 5.75626,4.05027 v 10.99327 h 1.17881 l 0.36762,-0.4745 c 0.73493,0.4287 1.46984,0.62764 2.22008,0.62764 2.20478,0 3.50602,-1.63824 3.50602,-3.87364 0,-2.2354 -0.9033,-3.81253 -3.16932,-3.81253 -0.87273,0 -1.59233,0.21457 -2.22008,0.5361 v -3.99634 z m -5.44555,0.2224 c 0.43505,0 0.77684,0.0311 1.02544,0.0932 0.24858,0.0517 0.42981,0.10363 0.54375,0.15535 v 2.82791 c -0.20717,0.0415 -0.46083,0.0775 -0.7612,0.10863 -0.29004,0.0207 -0.63184,0.0311 -1.02544,0.0311 -0.32111,0 -0.61112,-0.0259 -0.87007,-0.0776 -0.24859,-0.0622 -0.46617,-0.15549 -0.65264,-0.27978 -0.17606,-0.12425 -0.31596,-0.28985 -0.41955,-0.497 -0.0933,-0.20717 -0.13979,-0.46109 -0.13979,-0.76149 0,-0.34182 0.0725,-0.6164 0.21746,-0.82355 0.14502,-0.20717 0.33147,-0.3675 0.55934,-0.48145 0.22789,-0.12425 0.47658,-0.2022 0.74589,-0.23328 0.26931,-0.0415 0.5282,-0.0621 0.7768,-0.0621 z m 9.08934,4.76894 c 1.31677,0 1.7456,0.94932 1.7456,2.38855 0,1.43922 -0.67365,2.28142 -1.92917,2.28142 -0.61244,0 -1.13309,-0.153 -1.5771,-0.50516 v -3.75118 c 0.36746,-0.1531 1.08699,-0.41363 1.76067,-0.41363 z m -9.05445,2.09193 c -0.7824,0 -1.50248,0.12263 -2.16021,0.36762 -0.65773,0.24503 -1.22513,0.59761 -1.70229,1.05758 -0.47287,0.46 -0.84277,1.0231 -1.1093,1.68944 -0.26654,0.66632 -0.39979,1.41866 -0.39979,2.25693 0,0.52447 0.0817,1.00152 0.24517,1.4314 0.16333,0.42989 0.40401,0.79739 0.72213,1.10263 0.31812,0.3052 0.71148,0.54183 1.18004,0.7095 0.46859,0.16766 1.01036,0.25135 1.6251,0.25135 0.28804,0 0.57825,-0.0171 0.87057,-0.0515 0.29234,-0.0301 0.57589,-0.0712 0.85104,-0.12275 0.27513,-0.0559 0.53523,-0.11825 0.78026,-0.18703 0.24934,-0.0687 0.47505,-0.13967 0.6771,-0.21275 l 0.39335,-2.03107 h -0.41907 l -0.46436,1.29607 c -0.13325,0.10313 -0.29235,0.20205 -0.47722,0.29663 -0.18485,0.0903 -0.389,0.17182 -0.61253,0.24492 -0.21924,0.0731 -0.45564,0.13118 -0.70928,0.17415 -0.25362,0.043 -0.51372,0.0645 -0.78026,0.0645 -0.45999,0 -0.85334,-0.0709 -1.18005,-0.21276 -0.32671,-0.14186 -0.59534,-0.33746 -0.80599,-0.5868 -0.21065,-0.25364 -0.3655,-0.55476 -0.46436,-0.90296 -0.0946,-0.34821 -0.142,-0.72639 -0.142,-1.13479 0,-0.7566 0.10125,-1.4423 0.3033,-2.05703 0.20204,-0.61477 0.48135,-1.13922 0.83816,-1.57342 0.3611,-0.4342 0.78884,-0.76731 1.2832,-0.99945 0.49438,-0.23645 1.03404,-0.35476 1.61868,-0.35476 0.4127,0 0.80818,0.0517 1.18648,0.15486 0.37831,0.0989 0.70051,0.24067 0.96704,0.42553 v 1.12215 h 0.41934 l 0.29018,-1.88957 c -0.3826,-0.086 -0.8018,-0.16112 -1.25748,-0.22562 -0.45568,-0.0687 -0.97801,-0.10312 -1.56696,-0.10312 z"
         style="font-style:normal;font-weight:normal;font-size:118.519px;line-height:1000%;font-family:sans-serif;letter-spacing:0px;word-spacing:0px;display:inline;fill:#5d5d5d;fill-opacity:1;stroke:none;stroke-width:0.30024px;stroke-linecap:butt;stroke-linejoin:miter;stroke-opacity:1;enable-background:new"
         inkscape:connector-curvature="0" />
    </g>
    <g
       inkscape:groupmode="layer"
       id="layer4"
       inkscape:label="Borders"
       style="display:inline;opacity:1">
      <path
         style="color:#000000;display:inline;overflow:visible;visibility:visible;opacity:0.3;fill:#ffffff;fill-opacity:1;fill-rule:nonzero;stroke:none;stroke-width:1;marker:none;enable-background:accumulate"
         d="m 86.925256,51.999698 c -35.294897,0 -39.092842,3.62603 -38.919861,38.99414 v 2 c -0.172981,-35.36811 3.624964,-38.99414 38.919861,-38.99414 H 217.07474 c 35.2949,0 38.91986,3.62561 38.91986,38.99414 v -2 c 0,-35.36853 -3.62496,-38.99414 -38.91986,-38.99414 z"
         id="path931"
         inkscape:connector-curvature="0"
         sodipodi:nodetypes="sccsscsss" />
      <path
         style="color:#000000;display:inline;overflow:visible;visibility:visible;opacity:0.2;fill:#000000;fill-opacity:1;fill-rule:nonzero;stroke:none;stroke-width:1;marker:none;enable-background:accumulate"
         d="m 86.930655,259.9997 c -35.294899,0 -39.092846,-3.62603 -38.919865,-38.99414 v -2 c -0.172981,35.36811 3.624966,38.99414 38.919865,38.99414 H 217.08014 c 35.2949,0 38.91986,-3.62561 38.91986,-38.99414 v 2 c 0,35.36853 -3.62496,38.99414 -38.91986,38.99414 z"
         id="path931-8"
         inkscape:connector-curvature="0"
         sodipodi:nodetypes="sccsscsss" />
      <path
         style="color:#000000;display:inline;overflow:visible;visibility:visible;opacity:0.4;fill:none;fill-opacity:1;fill-rule:nonzero;stroke:#000000;stroke-width:1;stroke-miterlimit:4;stroke-dasharray:none;stroke-opacity:1;marker:none;enable-background:accumulate"
         d="m 335.33517,63.500047 c -10.01116,0 -11.88667,0.90635 -11.83407,9.74838 V 84 94.75181 c -0.0527,8.84203 1.82291,9.74838 11.83407,9.74838 h 17.3308 c 10.00866,0 11.83405,-0.90625 11.83405,-9.74838 V 84 73.248427 c 0,-8.84213 -1.82539,-9.74838 -11.83406,-9.74838 z"
         id="path958"
         inkscape:connector-curvature="0"
         sodipodi:nodetypes="scccssscsss" />
      <path
         style="color:#000000;display:inline;overflow:visible;visibility:visible;opacity:0.4;fill:none;fill-opacity:1;fill-rule:nonzero;stroke:#000000;stroke-width:1;stroke-miterlimit:4;stroke-dasharray:none;stroke-opacity:1;marker:none;enable-background:accumulate"
         d="m 330.12726,134.49951 c -6.45163,0 -7.6603,0.58409 -7.62639,6.28227 v 7.21814 7.21741 c -0.034,5.69818 1.17476,6.28227 7.62639,6.28227 h 11.74607 c 6.45003,0 7.62639,-0.58403 7.62639,-6.28227 v -7.21741 -7.21814 c 0,-5.69824 -1.17636,-6.28227 -7.62639,-6.28227 z"
         id="path958-1"
         inkscape:connector-curvature="0"
         sodipodi:nodetypes="scccssscsss" />
      <path
         style="color:#000000;display:inline;overflow:visible;visibility:visible;opacity:0.4;fill:none;fill-opacity:1;fill-rule:nonzero;stroke:#000000;stroke-width:1;stroke-miterlimit:4;stroke-dasharray:none;stroke-opacity:1;marker:none;enable-background:accumulate"
         d="m 336.97714,210.5001 c 4.67202,0 5.54727,-0.42296 5.52272,-4.54923 v -6.95032 -4.9513 c 0.0245,-4.12628 -0.8507,-4.54923 -5.52272,-4.54923 h -9.95402 c -4.67085,0 -5.52273,0.42291 -5.52273,4.54923 v 4.9513 6.95032 c 0,4.12632 0.85188,4.54923 5.52273,4.54923 z"
         id="path958-6"
         inkscape:connector-curvature="0"
         sodipodi:nodetypes="scccssscsss" />
      <path
         style="color:#000000;display:inline;overflow:visible;visibility:visible;opacity:0.4;fill:none;fill-opacity:1;fill-rule:nonzero;stroke:#000000;stroke-width:1;stroke-miterlimit:4;stroke-dasharray:none;stroke-opacity:1;marker:none;enable-background:accumulate"
         d="m 331.55494,251.5 c 3.33705,0 3.96221,-0.30212 3.94468,-3.24946 v -4.2505 -4.25059 c 0.0175,-2.94734 -0.60763,-3.24945 -3.94468,-3.24945 h -7.11025 c -3.33622,0 -3.94469,0.30208 -3.94469,3.24945 v 4.25059 4.2505 c 0,2.94738 0.60847,3.24946 3.94469,3.24946 z"
         id="path958-6-0"
         inkscape:connector-curvature="0"
         sodipodi:nodetypes="scccssscsss" />
      <path
         style="font-style:normal;font-weight:normal;font-size:118.519px;line-height:1000%;font-family:sans-serif;letter-spacing:0px;word-spacing:0px;display:inline;fill:#5d5d5d;fill-opacity:1;stroke:none;stroke-width:3.0024px;stroke-linecap:butt;stroke-linejoin:miter;stroke-opacity:1;enable-background:new"
         d="m 121.94982,75.597409 c -4.14331,0 -7.70605,0.28877 -10.68923,0.86883 -2.90031,0.58006 -5.05508,1.2014 -6.4638,1.86433 l 1.1182,7.08525 c 1.07726,-0.41433 2.77598,-0.95203 5.09623,-1.61496 2.32026,-0.66293 5.84315,-0.9955 10.56653,-0.9955 3.31464,0 5.9653,0.53968 7.95408,1.61694 2.07166,0.9944 3.6469,2.36253 4.72416,4.10272 1.16013,1.65733 1.90495,3.56316 2.2364,5.71768 0.33148,2.07165 0.49677,4.22444 0.49677,6.461831 v 3.97803 c -0.33146,-0.16573 -0.95281,-0.33103 -1.86433,-0.49676 -0.82866,-0.2486 -1.86422,-0.45571 -3.10722,-0.62144 -1.16013,-0.2486 -2.4028,-0.41389 -3.72867,-0.49676 -1.24298,-0.16574 -2.44385,-0.24937 -3.60397,-0.24936 -3.89471,0 -7.49926,0.3724 -10.81391,1.11819 -3.31465,0.7458 -6.17439,1.94864 -8.57752,3.60596 -2.40311,1.57446 -4.26712,3.60377 -5.592988,6.08975 -1.32588,2.48599 -1.98904,5.4692 -1.98904,8.94958 0,3.64612 0.57952,6.75479 1.73968,9.32364 1.242978,2.48599 2.899888,4.55711 4.971548,6.21444 2.15452,1.57445 4.64185,2.7335 7.4593,3.47929 2.90032,0.7458 6.04882,1.12019 9.44634,1.12019 2.65172,0 5.22071,-0.12546 7.70669,-0.37406 2.56886,-0.16573 4.88892,-0.41466 6.96057,-0.74613 2.07166,-0.33146 3.89384,-0.62023 5.46831,-0.86883 1.57445,-0.33146 2.77729,-0.62221 3.60596,-0.87082 V 99.338929 c 0,-3.39751 -0.41423,-6.548 -1.24289,-9.44832 -0.82866,-2.90031 -2.15497,-5.38567 -3.97804,-7.45732 -1.82305,-2.15452 -4.22675,-3.81143 -7.20993,-4.97155 -2.90031,-1.24299 -6.46305,-1.86433 -10.68923,-1.86433 z m 46.05019,32.402161 v 87.94616 h 9.43051 l 2.94097,-3.79594 c 5.87942,3.42965 11.75871,5.02103 17.76062,5.02103 17.63827,0 28.04809,-13.10583 28.04809,-30.98908 0,-17.88324 -7.22628,-30.50021 -25.3545,-30.50021 -6.98182,0 -12.73862,1.7165 -17.76063,4.28875 v -31.97071 z m -43.56441,1.77923 c 3.48037,0 6.21466,0.24893 8.20345,0.74612 1.98879,0.41433 3.43858,0.82856 4.35011,1.2429 v 22.62332 c -1.65733,0.33146 -3.68663,0.62024 -6.08976,0.86883 -2.32024,0.16574 -5.05453,0.24937 -8.20345,0.24937 -2.56885,0 -4.88891,-0.20711 -6.96056,-0.62145 -1.9888,-0.49719 -3.72933,-1.24399 -5.22092,-2.23838 -1.40873,-0.9944 -2.52793,-2.31872 -3.35659,-3.97605 -0.74579,-1.65733 -1.11821,-3.68861 -1.11821,-6.09174 0,-2.73458 0.57953,-4.93117 1.73965,-6.58848 1.16013,-1.65733 2.65173,-2.93985 4.47479,-3.85137 1.82306,-0.9944 3.81252,-1.61772 5.96706,-1.86631 2.15451,-0.33147 4.22564,-0.49676 6.21443,-0.49676 z m 72.71486,38.1515 c 10.53398,0 13.96468,7.59453 13.96468,19.10841 0,11.51387 -5.38917,18.25145 -15.43318,18.25145 -4.89952,0 -9.06474,-1.22414 -12.61689,-4.04137 v -30.0094 c 2.93971,-1.22488 8.69592,-3.30909 14.08539,-3.30909 z m -72.4358,16.73544 c -6.25919,0 -12.01984,0.98067 -17.28168,2.94098 -5.26185,1.96029 -9.800938,4.78088 -13.618358,8.46073 -3.78302,3.67985 -6.74212,8.18479 -8.87437,13.51542 -2.13225,5.33062 -3.19826,11.34924 -3.19826,18.0555 0,4.19572 0.65445,8.01209 1.96131,11.4512 1.30686,3.43912 3.23211,6.37917 5.77705,8.82093 2.54494,2.44178 5.69177,4.33487 9.44042,5.67613 3.748638,1.34125 8.082918,2.01078 13.000848,2.01078 2.30421,0 4.62594,-0.13652 6.96452,-0.41166 2.3386,-0.24073 4.60714,-0.56895 6.80818,-0.98164 2.20102,-0.44708 4.28186,-0.94596 6.24214,-1.49621 1.99469,-0.55026 3.80047,-1.1174 5.41685,-1.70205 l 3.1468,-16.24858 h -3.35262 l -3.71481,10.36862 c -1.06613,0.82538 -2.33891,1.61636 -3.81772,2.37296 -1.47882,0.72221 -3.11196,1.37468 -4.9003,1.95933 -1.75395,0.58465 -3.64507,1.04939 -5.67414,1.3933 -2.02908,0.34391 -4.1099,0.51655 -6.24215,0.51655 -3.67985,0 -6.82668,-0.56713 -9.4404,-1.70204 -2.61373,-1.1349 -4.762838,-2.69979 -6.447998,-4.69448 -1.68517,-2.02907 -2.92382,-4.4381 -3.71481,-7.22378 -0.7566,-2.78568 -1.13601,-5.81108 -1.13601,-9.07823 0,-6.05283 0.81001,-11.53846 2.4264,-16.45638 1.61638,-4.91794 3.85079,-9.11371 6.705278,-12.58721 2.88885,-3.47351 6.31072,-6.13852 10.26569,-7.99564 3.95498,-1.89152 8.2722,-2.83806 12.94939,-2.83806 3.30155,0 6.46544,0.41354 9.49186,1.23892 3.02642,0.791 5.60413,1.92527 7.73638,3.40409 v 8.97729 h 3.35461 l 2.32151,-15.11652 c -3.06081,-0.68782 -6.41441,-1.28909 -10.05987,-1.80496 -3.64545,-0.55026 -7.82416,-0.82529 -12.53574,-0.82529 z"
         id="text899"
         inkscape:connector-curvature="0" />
    </g>
    <g
       inkscape:groupmode="layer"
       id="layer5"
       inkscape:label="Highlights"
       style="opacity:0.7">
      <path
         style="display:inline;enable-background:accumulate;opacity:1;color:#000000;overflow:visible;visibility:visible;fill:url(#linearGradient1692-6);fill-opacity:1;fill-rule:nonzero;stroke:none;stroke-width:1;marker:none"
         d="m 324.44531,237 c -1.65302,0 -2.54604,0.12548 -2.91601,0.41406 -0.18499,0.14429 -0.30479,0.33122 -0.39649,0.70313 C 321.0411,238.4891 321,239.03036 321,239.75 v 4.25 4.25 c 0,0.71964 0.0411,1.26082 0.13281,1.63281 0.0917,0.37191 0.2115,0.55884 0.39649,0.70313 0.36997,0.28858 1.26299,0.41406 2.91601,0.41406 h 7.10938 c 1.65343,0 2.55203,-0.12511 2.92383,-0.41406 0.18589,-0.14448 0.30578,-0.33208 0.39648,-0.70313 0.0907,-0.37105 0.129,-0.90979 0.125,-1.6289 v -0.002 V 244 v -4.25195 -0.002 c 0.004,-0.71911 -0.0343,-1.25785 -0.125,-1.6289 -0.0907,-0.37105 -0.21059,-0.55865 -0.39648,-0.70313 C 334.10673,237.12512 333.20812,237 331.55469,237 Z m 5.32813,1.04688 c 1.10767,-3.4e-4 2.21363,0.008 3.32031,0.0449 0.26616,0.0599 0.75737,-0.0208 0.79297,0.3457 0.13405,1.84438 0.0662,3.68774 0.10156,5.53906 -0.0126,1.86745 0.0543,3.67031 -0.10351,5.49805 0.0642,0.42314 -0.43946,0.35577 -0.70313,0.42187 -3.43277,0.0703 -6.87577,0.0589 -10.29883,0.002 -0.22288,-0.0398 -0.55622,-3.2e-4 -0.71093,-0.1875 -0.19863,-1.12995 -0.12696,-2.26946 -0.16016,-3.41992 0.0138,-2.55648 -0.029,-5.10728 0.0898,-7.65625 -0.03,-0.2727 0.10944,-0.49629 0.40039,-0.48829 1.30659,-0.161 2.63265,-0.0636 3.94727,-0.0976 1.10718,0.006 2.21655,-0.002 3.32422,-0.002 z"
         id="path918-6"
         inkscape:connector-curvature="0" />
      <path
         style="color:#000000;display:inline;overflow:visible;visibility:visible;opacity:1;fill:url(#linearGradient1690-9);fill-opacity:1;fill-rule:nonzero;stroke:none;stroke-width:1;marker:none;enable-background:accumulate"
         d="m 327.02383,190.00002 c -2.32027,0 -3.60941,0.15494 -4.20703,0.62109 -0.29882,0.23308 -0.48964,0.54668 -0.625,1.09571 -0.13541,0.54902 -0.19141,1.31764 -0.19141,2.33203 v 4.95163 6.95079 c 0,1.01437 0.056,1.783 0.19141,2.33203 0.13536,0.54903 0.32618,0.86263 0.625,1.09571 0.59762,0.46615 1.88676,0.62109 4.20703,0.62109 h 9.95248 c 2.32085,0 3.61652,-0.15457 4.2168,-0.62109 0.30014,-0.23327 0.49095,-0.54754 0.625,-1.09571 0.13404,-0.54816 0.18764,-1.31623 0.18164,-2.33008 v -6.95274 -4.95359 c 0.006,-1.01386 -0.0476,-1.78191 -0.18164,-2.33008 -0.13406,-0.54817 -0.32486,-0.86244 -0.625,-1.09571 -0.60028,-0.46652 -1.89595,-0.62109 -4.2168,-0.62109 z m 3.95859,1.00977 c 3.01758,-0.01 8.27511,-0.0498 9.23999,0.2949 0.55111,0.0919 0.61303,0.71808 0.67773,1.16601 0.1117,4.30833 0.075,8.6265 0.0508,12.9415 -0.0716,0.99089 0.13687,2.07606 -0.30078,3.01366 -0.34356,0.40964 -0.9694,0.35958 -1.45117,0.45509 -3.95407,0.0823 -7.92944,0.0499 -11.89389,0.0371 -1.16908,-0.0622 -2.37292,0.11291 -3.51758,-0.22266 -0.57935,-0.098 -0.6137,-0.75914 -0.6875,-1.2207 -0.1146,-4.11835 -0.0751,-8.24513 -0.0547,-12.36922 0.0572,-1.06305 -0.0797,-2.16734 0.18164,-3.21485 0.10495,-0.6386 0.8614,-0.66043 1.36719,-0.74023 2.1305,-0.19658 4.24071,-0.10662 6.38828,-0.14062 z"
         id="path914-6"
         inkscape:connector-curvature="0"
         sodipodi:nodetypes="sccscsccsscccccccsscccccccccccccc" />
      <path
         style="color:#000000;display:inline;overflow:visible;visibility:visible;opacity:1;fill:url(#linearGradient1688-4);fill-opacity:1;fill-rule:nonzero;stroke:none;stroke-width:1;marker:none;enable-background:accumulate"
         d="m 330.1271,134.99951 c -3.21072,0 -5.03255,0.19514 -5.9375,0.89844 -0.45247,0.35165 -0.74178,0.83286 -0.93359,1.61718 -0.19176,0.78433 -0.25586,1.85684 -0.25586,3.26368 v 0.002 7.21924 7.21835 0.002 c 0,1.40684 0.0641,2.47935 0.25586,3.26368 0.1918,0.78431 0.48112,1.26553 0.93359,1.61718 0.90496,0.7033 2.72678,0.89844 5.9375,0.89844 h 11.74566 c 3.20992,0 5.02461,-0.19551 5.92578,-0.89844 0.45058,-0.35146 0.73805,-0.83201 0.93164,-1.61718 0.19363,-0.7853 0.26953,-1.86033 0.26953,-3.26768 V 148 140.78271 c 0,-1.40735 -0.0759,-2.48237 -0.26953,-3.26758 -0.19359,-0.78517 -0.48106,-1.26572 -0.93164,-1.61718 -0.90117,-0.70293 -2.71586,-0.89844 -5.92578,-0.89844 z m 5.4979,1.04688 c 3.45647,0.0171 5.91391,-0.0268 9.36104,0.0918 0.8211,0.13276 1.80664,0.14835 2.39062,0.82617 0.67884,1.16473 0.51296,2.58781 0.56446,3.87305 0.0431,6.02893 0.0678,10.06728 -0.0332,16.08798 -0.0775,0.77792 -0.12055,1.67263 -0.67968,2.27539 -0.70249,0.51038 -1.61833,0.59683 -2.45899,0.67383 -4.04742,0.0864 -6.16178,0.0456 -10.23979,0.0606 -2.45188,-0.0199 -4.91402,0.0317 -7.35352,-0.0606 -0.87784,-0.12055 -1.915,-0.14021 -2.56055,-0.83398 -0.64775,-1.02591 -0.50264,-2.30525 -0.56054,-3.46485 -0.035,-5.65575 -0.0351,-9.35527 0,-15.00985 0.0632,-1.22153 -0.10864,-2.57724 0.59179,-3.65235 0.6025,-0.62665 1.55621,-0.63986 2.35938,-0.77344 2.73743,-0.10739 5.48083,-0.0704 8.22656,-0.0918 0.47551,-5.9e-4 -0.0353,-0.001 0.39242,-0.002 z"
         id="path964-7-2"
         inkscape:connector-curvature="0"
         sodipodi:nodetypes="sssscccsssssssscssssscccccccccccccccc" />
      <path
         style="color:#000000;display:inline;overflow:visible;visibility:visible;opacity:1;fill:url(#linearGradient1686-0);fill-opacity:1;fill-rule:nonzero;stroke:none;stroke-width:1;marker:none;enable-background:accumulate"
         d="m 335.33594,64 c -4.99049,0 -7.87051,0.276282 -9.38477,1.453125 -0.75713,0.588421 -1.23761,1.403518 -1.54492,2.660156 -0.3073,1.256638 -0.4173,2.940031 -0.4043,5.132813 V 84 94.753906 c -0.0131,2.19278 0.097,3.876174 0.4043,5.132814 0.30731,1.25663 0.78779,2.07172 1.54492,2.66016 1.51427,1.17683 4.39428,1.45312 9.38477,1.45312 h 17.33008 c 4.98923,0 7.85502,-0.27668 9.36328,-1.45312 0.75412,-0.58824 1.23293,-1.40461 1.54297,-2.66211 C 363.8823,98.62727 364,96.945281 364,94.751953 V 84 73.248047 c 0,-2.193329 -0.1177,-3.875313 -0.42773,-5.132813 -0.31004,-1.257499 -0.78884,-2.073874 -1.54297,-2.662109 C 360.52104,64.276656 357.65526,64 352.66602,64 Z m 2.40234,1.097656 c 6.94737,8.3e-4 9.91063,0.0034 16.84961,0.05469 2.14296,0.08293 4.46431,-0.147701 6.42383,0.93164 1.29609,0.695228 1.54862,2.250325 1.76953,3.564454 0.17551,2.202888 0.0915,4.442228 0.13867,6.669921 0.0227,8.479532 0.077,12.968993 -0.0801,21.447266 -0.16151,1.483233 -0.38135,3.305793 -1.79882,4.142573 -1.6055,0.82871 -3.47551,0.90643 -5.24805,0.95313 -9.49974,0.0678 -15.0243,0.0843 -24.52344,-0.0176 -1.57816,-0.11413 -3.27053,-0.24014 -4.63281,-1.12109 -1.22952,-0.99538 -1.36082,-2.72739 -1.50391,-4.193361 -0.1272,-8.998585 -0.0836,-14.004484 -0.0527,-23.007813 0.0997,-2.381275 -0.24538,-4.900002 0.70508,-7.160156 0.67165,-1.50972 2.46573,-1.859954 3.93945,-2.05664 2.78259,-0.310459 5.62506,-0.16041 8.01366,-0.207014 z"
         id="path964-3"
         inkscape:connector-curvature="0"
         sodipodi:nodetypes="ssscccssssssscsssssccccccccccccccc" />
    </g>
  </g>
</svg>
