<?xml version="1.0" encoding="UTF-8" standalone="no"?>
<svg
   inkscape:export-ydpi="96"
   inkscape:export-xdpi="96"
   width="400"
   height="300"
   id="svg11300"
   sodipodi:version="0.32"
   inkscape:version="1.1.1 (eb90963e84, 2021-10-02)"
   sodipodi:docname="preferences-desktop-online-accounts.svg"
   inkscape:output_extension="org.inkscape.output.svg.inkscape"
   version="1.0"
   style="display:inline;enable-background:new"
   inkscape:export-filename="C:\Users\sblav\Pictures\vertical oblong template.png"
   xmlns:inkscape="http://www.inkscape.org/namespaces/inkscape"
   xmlns:sodipodi="http://sodipodi.sourceforge.net/DTD/sodipodi-0.dtd"
   xmlns:xlink="http://www.w3.org/1999/xlink"
   xmlns="http://www.w3.org/2000/svg"
   xmlns:svg="http://www.w3.org/2000/svg"
   xmlns:rdf="http://www.w3.org/1999/02/22-rdf-syntax-ns#"
   xmlns:cc="http://creativecommons.org/ns#"
   xmlns:dc="http://purl.org/dc/elements/1.1/">
  <title
     id="title3004">Suru Icon Theme Template</title>
  <sodipodi:namedview
     stroke="#ef2929"
     fill="#f57900"
     id="base"
     pagecolor="#ffffff"
     bordercolor="#000000"
     borderopacity="0.25490196"
     inkscape:pageopacity="0"
     inkscape:pageshadow="2"
     inkscape:zoom="1"
     inkscape:cx="383.5"
     inkscape:cy="211"
     inkscape:current-layer="layer7"
     showgrid="false"
     inkscape:grid-bbox="true"
     inkscape:document-units="px"
     inkscape:showpageshadow="false"
     inkscape:window-width="1920"
     inkscape:window-height="1043"
     inkscape:window-x="1920"
     inkscape:window-y="0"
     width="400px"
     height="300px"
     inkscape:snap-nodes="true"
     inkscape:snap-bbox="true"
     gridtolerance="10000"
     inkscape:object-nodes="true"
     inkscape:snap-grids="true"
     showguides="true"
     inkscape:guide-bbox="true"
     inkscape:window-maximized="1"
     inkscape:bbox-paths="true"
     inkscape:snap-bbox-midpoints="true"
     inkscape:snap-global="true"
     inkscape:object-paths="true"
     inkscape:snap-intersection-paths="true"
     inkscape:snap-smooth-nodes="true"
     inkscape:pagecheckerboard="false"
     showborder="false"
     inkscape:document-rotation="0">
    <inkscape:grid
       spacingy="1"
       spacingx="1"
       id="grid5883"
       type="xygrid"
       enabled="true"
       visible="true"
       empspacing="4"
       snapvisiblegridlinesonly="true"
       originx="0"
       originy="0" />
    <inkscape:grid
       type="xygrid"
       id="grid11592"
       empspacing="2"
       visible="true"
       enabled="false"
       spacingx="0.5"
       spacingy="0.5"
       color="#ff0000"
       opacity="0.1254902"
       empcolor="#ff0000"
       empopacity="0.25098039"
       snapvisiblegridlinesonly="true"
       originx="0"
       originy="0" />
  </sodipodi:namedview>
  <defs
     id="defs3">
    <filter
       inkscape:collect="always"
       style="color-interpolation-filters:sRGB"
       id="filter4346"
       x="-0.011351265"
       width="1.0227025"
       y="-0.011357288"
       height="1.0227146">
      <feGaussianBlur
         inkscape:collect="always"
         stdDeviation="2.120027"
         id="feGaussianBlur4348" />
    </filter>
    <linearGradient
       inkscape:collect="always"
       xlink:href="#linearGradient4360"
       id="linearGradient4358"
       x1="88"
       y1="88"
       x2="488"
       y2="488"
       gradientUnits="userSpaceOnUse" />
    <linearGradient
       id="linearGradient4360"
       inkscape:collect="always">
      <stop
         id="stop4362"
         offset="0"
         style="stop-color:#000000;stop-opacity:0.58823532" />
      <stop
         id="stop4366"
         offset="1"
         style="stop-color:#000000;stop-opacity:0.20555556" />
    </linearGradient>
    <filter
       inkscape:collect="always"
       style="color-interpolation-filters:sRGB"
       id="filter4380"
       x="-0.045405058"
       width="1.0908101"
       y="-0.045429151"
       height="1.0908583">
      <feGaussianBlur
         inkscape:collect="always"
         stdDeviation="8.4801079"
         id="feGaussianBlur4382" />
    </filter>
    <linearGradient
       inkscape:collect="always"
       id="linearGradient927">
      <stop
         style="stop-color:#ffffff;stop-opacity:1;"
         offset="0"
         id="stop923" />
      <stop
         id="stop933"
         offset="0.125"
         style="stop-color:#ffffff;stop-opacity:0.09803922" />
      <stop
         id="stop931"
         offset="0.92500001"
         style="stop-color:#ffffff;stop-opacity:0.09803922" />
      <stop
         style="stop-color:#ffffff;stop-opacity:0.49803922"
         offset="1"
         id="stop925" />
    </linearGradient>
    <clipPath
       clipPathUnits="userSpaceOnUse"
       id="clipPath994">
      <path
         style="color:#000000;display:inline;overflow:visible;visibility:visible;fill:#cdcdcd;fill-opacity:1;fill-rule:nonzero;stroke:none;stroke-width:2;stroke-miterlimit:4;stroke-dasharray:none;stroke-opacity:1;marker:none;enable-background:accumulate"
         d="m 335.73108,62 c -8.82418,0 -9.77365,0.90635 -9.7304,9.74838 V 84 96.25162 c -0.0433,8.84203 0.90622,9.74838 9.7304,9.74838 h 16.53919 c 8.82418,0 9.7304,-0.90625 9.7304,-9.74838 V 84 71.74838 C 362.00067,62.90625 361.09445,62 352.27027,62 Z"
         id="path996"
         inkscape:connector-curvature="0"
         sodipodi:nodetypes="scccssscsss" />
    </clipPath>
    <linearGradient
       inkscape:collect="always"
       xlink:href="#linearGradient927"
       id="linearGradient1004"
       x1="344"
       y1="62"
       x2="344"
       y2="106"
       gradientUnits="userSpaceOnUse" />
    <clipPath
       clipPathUnits="userSpaceOnUse"
       id="clipPath971">
      <path
         style="color:#000000;display:inline;overflow:visible;visibility:visible;opacity:1;fill:#46a926;fill-opacity:1;fill-rule:nonzero;stroke:none;stroke-width:2;stroke-miterlimit:4;stroke-dasharray:none;stroke-opacity:1;marker:none;enable-background:accumulate"
         d="m 327.8652,189 c -4.41209,0 -4.88682,0.45318 -4.8652,4.87419 V 200 206.12581 C 322.9783,210.54682 323.45311,211 327.8652,211 h 8.2696 C 340.54689,211 341,210.54688 341,206.12581 V 200 193.87419 C 341,189.45313 340.54688,189 336.13479,189 Z"
         id="path973"
         inkscape:connector-curvature="0"
         sodipodi:nodetypes="scccssscsss" />
    </clipPath>
    <linearGradient
       inkscape:collect="always"
       xlink:href="#linearGradient927"
       id="linearGradient981"
       x1="332"
       y1="189"
       x2="332"
       y2="211"
       gradientUnits="userSpaceOnUse" />
    <clipPath
       clipPathUnits="userSpaceOnUse"
       id="clipPath983">
      <path
         sodipodi:nodetypes="scccssscsss"
         inkscape:connector-curvature="0"
         id="path985"
         d="m 325.09646,237 c -2.80769,0 -3.10979,0.28839 -3.09603,3.10176 V 244 v 3.89824 c -0.0138,2.81337 0.28834,3.10176 3.09603,3.10176 h 5.8075 C 333.71166,251 334,250.71165 334,247.89824 V 244 240.10176 C 334,237.28836 333.71165,237 330.90396,237 Z"
         style="color:#000000;display:inline;overflow:visible;visibility:visible;opacity:1;fill:#46a926;fill-opacity:1;fill-rule:nonzero;stroke:none;stroke-width:2;stroke-miterlimit:4;stroke-dasharray:none;stroke-opacity:1;marker:none;enable-background:accumulate" />
    </clipPath>
    <linearGradient
       inkscape:collect="always"
       xlink:href="#linearGradient927"
       id="linearGradient993"
       x1="328"
       y1="237"
       x2="328"
       y2="251"
       gradientUnits="userSpaceOnUse" />
    <linearGradient
       inkscape:collect="always"
       xlink:href="#linearGradient927"
       id="linearGradient1004-8"
       x1="344"
       y1="62"
       x2="344"
       y2="106"
       gradientUnits="userSpaceOnUse" />
    <clipPath
       clipPathUnits="userSpaceOnUse"
       id="clipPath994-1">
      <path
         style="color:#000000;display:inline;overflow:visible;visibility:visible;fill:#cdcdcd;fill-opacity:1;fill-rule:nonzero;stroke:none;stroke-width:2;stroke-miterlimit:4;stroke-dasharray:none;stroke-opacity:1;marker:none;enable-background:accumulate"
         d="m 335.73108,62 c -8.82418,0 -9.77365,0.90635 -9.7304,9.74838 V 84 96.25162 c -0.0433,8.84203 0.90622,9.74838 9.7304,9.74838 h 16.53919 c 8.82418,0 9.7304,-0.90625 9.7304,-9.74838 V 84 71.74838 C 362.00067,62.90625 361.09445,62 352.27027,62 Z"
         id="path996-8"
         inkscape:connector-curvature="0"
         sodipodi:nodetypes="scccssscsss" />
    </clipPath>
  </defs>
  <metadata
     id="metadata4">
    <rdf:RDF>
      <cc:Work
         rdf:about="">
        <dc:format>image/svg+xml</dc:format>
        <dc:type
           rdf:resource="http://purl.org/dc/dcmitype/StillImage" />
        <dc:creator>
          <cc:Agent>
            <dc:title>Sam Hewitt</dc:title>
          </cc:Agent>
        </dc:creator>
        <dc:source />
        <cc:license
           rdf:resource="http://creativecommons.org/licenses/by-sa/4.0/" />
        <dc:title>Suru Icon Theme Template</dc:title>
        <dc:subject>
          <rdf:Bag />
        </dc:subject>
        <dc:date />
        <dc:rights>
          <cc:Agent>
            <dc:title />
          </cc:Agent>
        </dc:rights>
        <dc:publisher>
          <cc:Agent>
            <dc:title />
          </cc:Agent>
        </dc:publisher>
        <dc:identifier />
        <dc:relation />
        <dc:language />
        <dc:coverage />
        <dc:description />
        <dc:contributor>
          <cc:Agent>
            <dc:title />
          </cc:Agent>
        </dc:contributor>
      </cc:Work>
      <cc:Work
         rdf:about="">
        <dc:format>image/svg+xml</dc:format>
        <dc:type
           rdf:resource="http://purl.org/dc/dcmitype/StillImage" />
      </cc:Work>
      <cc:License
         rdf:about="http://creativecommons.org/licenses/by-sa/4.0/">
        <cc:permits
           rdf:resource="http://creativecommons.org/ns#Reproduction" />
        <cc:permits
           rdf:resource="http://creativecommons.org/ns#Distribution" />
        <cc:requires
           rdf:resource="http://creativecommons.org/ns#Notice" />
        <cc:requires
           rdf:resource="http://creativecommons.org/ns#Attribution" />
        <cc:permits
           rdf:resource="http://creativecommons.org/ns#DerivativeWorks" />
        <cc:requires
           rdf:resource="http://creativecommons.org/ns#ShareAlike" />
      </cc:License>
    </rdf:RDF>
  </metadata>
  <g
     style="display:inline"
     inkscape:groupmode="layer"
     inkscape:label="Icon"
     id="layer1">
    <g
       style="display:none"
       inkscape:label="Baseplate"
       id="layer7"
       inkscape:groupmode="layer">
      <text
         y="-8.2548828"
         xml:space="preserve"
         x="19.006836"
         style="font-style:normal;font-variant:normal;font-weight:normal;font-stretch:normal;line-height:0%;font-family:'DejaVu Sans';-inkscape-font-specification:'DejaVu Sans';display:inline;fill:#000000;fill-opacity:1;stroke:none;enable-background:new"
         inkscape:label="context"
         id="context"><tspan
           style="font-style:normal;font-variant:normal;font-weight:normal;font-stretch:normal;font-size:18px;line-height:1.25;font-family:'DejaVu Sans';-inkscape-font-specification:'DejaVu Sans'"
           y="-8.2548828"
           x="19.006836"
           sodipodi:role="line"
           id="tspan3933">categories</tspan></text>
      <text
         y="-8.2548828"
         xml:space="preserve"
         x="146.48828"
         style="font-style:normal;font-variant:normal;font-weight:bold;font-stretch:normal;line-height:0%;font-family:'DejaVu Sans';-inkscape-font-specification:'DejaVu Sans Bold';text-align:start;writing-mode:lr-tb;text-anchor:start;display:inline;fill:#000000;fill-opacity:1;stroke:none;enable-background:new"
         inkscape:label="icon-name"
         id="icon-name"><tspan
           style="font-style:normal;font-variant:normal;font-weight:bold;font-stretch:normal;font-size:18px;line-height:1.25;font-family:'DejaVu Sans';-inkscape-font-specification:'DejaVu Sans Bold'"
           y="-8.2548828"
           x="146.48828"
           sodipodi:role="line"
           id="tspan3937">preferences-desktop-online-accounts</tspan></text>
      <rect
         style="display:inline;overflow:visible;visibility:visible;fill:#cdcdcd;fill-opacity:1;fill-rule:nonzero;stroke:none;stroke-width:2;marker:none;enable-background:accumulate"
         id="rect16x16"
         width="16"
         height="16"
         x="320"
         y="236"
         inkscape:label="16x16" />
      <rect
         style="display:inline;overflow:visible;visibility:visible;fill:#cdcdcd;fill-opacity:1;fill-rule:nonzero;stroke:none;stroke-width:2;marker:none;enable-background:accumulate"
         id="rect24x24"
         width="24"
         height="24"
         x="320"
         y="188"
         inkscape:label="24x24" />
      <rect
         style="display:inline;overflow:visible;visibility:visible;fill:#cdcdcd;fill-opacity:1;fill-rule:nonzero;stroke:none;stroke-width:2;marker:none;enable-background:accumulate"
         id="rect32x32"
         width="32"
         height="32"
         x="320"
         y="132"
         inkscape:label="32x32" />
      <rect
         inkscape:label="48x48"
         y="60"
         x="320"
         height="48"
         width="48"
         id="rect48x48"
         style="display:inline;overflow:visible;visibility:visible;fill:#cdcdcd;fill-opacity:1;fill-rule:nonzero;stroke:none;stroke-width:2;marker:none;enable-background:accumulate" />
      <rect
         style="display:inline;overflow:visible;visibility:visible;fill:#cdcdcd;fill-opacity:1;fill-rule:nonzero;stroke:none;stroke-width:2;marker:none;enable-background:accumulate"
         id="rect3951"
         width="256"
         height="256"
         x="24"
         y="28"
         inkscape:label="48x48" />
    </g>
    <g
       inkscape:groupmode="layer"
       id="layer8"
       inkscape:label="Backgrounds"
       style="display:inline">
      <path
         style="color:#000000;font-style:normal;font-variant:normal;font-weight:normal;font-stretch:normal;font-size:medium;line-height:normal;font-family:sans-serif;font-variant-ligatures:normal;font-variant-position:normal;font-variant-caps:normal;font-variant-numeric:normal;font-variant-alternates:normal;font-feature-settings:normal;text-indent:0;text-align:start;text-decoration:none;text-decoration-line:none;text-decoration-style:solid;text-decoration-color:#000000;letter-spacing:normal;word-spacing:normal;text-transform:none;writing-mode:lr-tb;direction:ltr;text-orientation:mixed;dominant-baseline:auto;baseline-shift:baseline;text-anchor:start;white-space:normal;shape-padding:0;clip-rule:nonzero;display:inline;overflow:visible;visibility:visible;opacity:0.1;isolation:auto;mix-blend-mode:normal;color-interpolation:sRGB;color-interpolation-filters:linearRGB;solid-color:#000000;solid-opacity:1;vector-effect:none;fill:#000000;fill-opacity:1;fill-rule:nonzero;stroke:none;stroke-width:2;stroke-linecap:butt;stroke-linejoin:miter;stroke-miterlimit:4;stroke-dasharray:none;stroke-dashoffset:0;stroke-opacity:1;marker:none;color-rendering:auto;image-rendering:auto;shape-rendering:auto;text-rendering:auto;enable-background:accumulate"
         d="m 327.24566,189 c -1.28811,0 -2.31744,0.0231 -3.20954,0.14787 -0.8921,0.12479 -1.70209,0.37148 -2.31114,0.87784 -0.60904,0.50637 -0.90937,1.18534 -1.05787,1.92977 -0.14848,0.74444 -0.17251,1.60204 -0.1662,2.67847 v 5.86605 5.86979 c -0.006,1.07433 0.0179,1.93132 0.1662,2.67473 0.14848,0.74444 0.44882,1.4234 1.05787,1.92977 0.60906,0.50636 1.41904,0.75304 2.31114,0.87784 0.8921,0.12479 1.92143,0.14787 3.20954,0.14787 h 9.5096 c 1.2881,0 2.31444,-0.023 3.20505,-0.14787 0.89059,-0.1249 1.70195,-0.37305 2.30889,-0.87972 0.60695,-0.50666 0.9038,-1.18295 1.05337,-1.92602 0.14958,-0.74308 0.17744,-1.60101 0.17744,-2.6766 V 200.5 194.63021 c 0,-1.07559 -0.0278,-1.93352 -0.17744,-2.6766 -0.14957,-0.74307 -0.44642,-1.41936 -1.05337,-1.92602 -0.60694,-0.50667 -1.41828,-0.75482 -2.30889,-0.87972 C 339.06969,189.02297 338.04337,189 336.75526,189 Z"
         id="path995"
         inkscape:connector-curvature="0"
         sodipodi:nodetypes="sccccccccssscccscscccss" />
      <path
         style="color:#000000;font-style:normal;font-variant:normal;font-weight:normal;font-stretch:normal;font-size:medium;line-height:normal;font-family:sans-serif;font-variant-ligatures:normal;font-variant-position:normal;font-variant-caps:normal;font-variant-numeric:normal;font-variant-alternates:normal;font-feature-settings:normal;text-indent:0;text-align:start;text-decoration:none;text-decoration-line:none;text-decoration-style:solid;text-decoration-color:#000000;letter-spacing:normal;word-spacing:normal;text-transform:none;writing-mode:lr-tb;direction:ltr;text-orientation:mixed;dominant-baseline:auto;baseline-shift:baseline;text-anchor:start;white-space:normal;shape-padding:0;clip-rule:nonzero;display:inline;overflow:visible;visibility:visible;opacity:0.1;isolation:auto;mix-blend-mode:normal;color-interpolation:sRGB;color-interpolation-filters:linearRGB;solid-color:#000000;solid-opacity:1;vector-effect:none;fill:#000000;fill-opacity:1;fill-rule:nonzero;stroke:none;stroke-width:2;stroke-linecap:butt;stroke-linejoin:miter;stroke-miterlimit:4;stroke-dasharray:none;stroke-dashoffset:0;stroke-opacity:1;marker:none;color-rendering:auto;image-rendering:auto;shape-rendering:auto;text-rendering:auto;enable-background:accumulate"
         d="m 324.68125,237 c -0.82173,0 -1.48777,0.0139 -2.09812,0.10352 -0.61037,0.0897 -1.22087,0.27628 -1.68744,0.68359 -0.46657,0.4073 -0.68177,0.94323 -0.78345,1.47851 -0.10171,0.53529 -0.11564,1.12048 -0.11165,1.8418 V 244 v 3.89844 c -0.003,0.71816 0.0103,1.30235 0.11165,1.83594 0.10171,0.53528 0.31687,1.07121 0.78345,1.47851 0.46657,0.40731 1.07707,0.59394 1.68744,0.68359 0.61035,0.0897 1.27639,0.10352 2.09812,0.10352 h 6.63813 c 0.82173,0 1.48632,-0.0137 2.0959,-0.10352 0.60958,-0.0898 1.22015,-0.27792 1.6852,-0.68554 0.46504,-0.40762 0.67887,-0.94271 0.78121,-1.47656 C 335.98409,249.20052 336,248.61887 336,247.89844 V 244 241.10156 c 0,-0.72043 -0.016,-1.30208 -0.11831,-1.83594 -0.10228,-0.53385 -0.31617,-1.06894 -0.78121,-1.47656 -0.46505,-0.40762 -1.07562,-0.59578 -1.6852,-0.68554 C 332.8057,237.01375 332.14111,237 331.31938,237 Z"
         id="path997"
         inkscape:connector-curvature="0"
         sodipodi:nodetypes="scscccccccsscscscscscss" />
      <path
         style="color:#000000;font-style:normal;font-variant:normal;font-weight:normal;font-stretch:normal;font-size:medium;line-height:normal;font-family:sans-serif;font-variant-ligatures:normal;font-variant-position:normal;font-variant-caps:normal;font-variant-numeric:normal;font-variant-alternates:normal;font-feature-settings:normal;text-indent:0;text-align:start;text-decoration:none;text-decoration-line:none;text-decoration-style:solid;text-decoration-color:#000000;letter-spacing:normal;word-spacing:normal;text-transform:none;writing-mode:lr-tb;direction:ltr;text-orientation:mixed;dominant-baseline:auto;baseline-shift:baseline;text-anchor:start;white-space:normal;shape-padding:0;clip-rule:nonzero;display:inline;overflow:visible;visibility:visible;opacity:0.1;isolation:auto;mix-blend-mode:normal;color-interpolation:sRGB;color-interpolation-filters:linearRGB;solid-color:#000000;solid-opacity:1;vector-effect:none;fill:#000000;fill-opacity:1;fill-rule:nonzero;stroke:none;stroke-width:2;stroke-linecap:butt;stroke-linejoin:miter;stroke-miterlimit:4;stroke-dasharray:none;stroke-dashoffset:0;stroke-opacity:1;marker:none;color-rendering:auto;image-rendering:auto;shape-rendering:auto;text-rendering:auto;enable-background:accumulate"
         d="m 329.07753,134 c -1.69415,0 -3.03886,0.0308 -4.1799,0.19141 -1.14103,0.16064 -2.13588,0.4726 -2.87586,1.09179 -0.73998,0.61919 -1.11652,1.45612 -1.30636,2.41407 -0.18986,0.95795 -0.22255,2.08705 -0.21424,3.51171 V 149 v 7.79688 c -0.009,1.42131 0.0247,2.5495 0.21424,3.50585 0.18984,0.95796 0.56638,1.79488 1.30636,2.41407 0.73998,0.61919 1.73483,0.93115 2.87586,1.09179 1.14104,0.16065 2.48575,0.19141 4.1799,0.19141 h 13.8484 c 1.69415,0 3.03631,-0.0307 4.17524,-0.19141 1.13893,-0.16075 2.13151,-0.47425 2.86888,-1.09375 0.73736,-0.6195 1.1104,-1.45363 1.30169,-2.41015 0.19132,-0.95653 0.22822,-2.08403 0.22822,-3.50781 V 149 141.20312 c 0,-1.42378 -0.037,-2.55128 -0.22822,-3.50781 -0.19129,-0.95653 -0.56433,-1.79065 -1.30169,-2.41015 -0.73737,-0.61951 -1.72995,-0.933 -2.86888,-1.09375 C 345.96224,134.03065 344.62008,134 342.92593,134 Z"
         id="path999"
         inkscape:connector-curvature="0"
         sodipodi:nodetypes="scscccccscsscccscscscss" />
      <path
         style="color:#000000;font-style:normal;font-variant:normal;font-weight:normal;font-stretch:normal;font-size:medium;line-height:normal;font-family:sans-serif;font-variant-ligatures:normal;font-variant-position:normal;font-variant-caps:normal;font-variant-numeric:normal;font-variant-alternates:normal;font-feature-settings:normal;text-indent:0;text-align:start;text-decoration:none;text-decoration-line:none;text-decoration-style:solid;text-decoration-color:#000000;letter-spacing:normal;word-spacing:normal;text-transform:none;writing-mode:lr-tb;direction:ltr;text-orientation:mixed;dominant-baseline:auto;baseline-shift:baseline;text-anchor:start;white-space:normal;shape-padding:0;clip-rule:nonzero;display:inline;overflow:visible;visibility:visible;opacity:0.1;isolation:auto;mix-blend-mode:normal;color-interpolation:sRGB;color-interpolation-filters:linearRGB;solid-color:#000000;solid-opacity:1;vector-effect:none;fill:#000000;fill-opacity:1;fill-rule:nonzero;stroke:none;stroke-width:2;stroke-linecap:butt;stroke-linejoin:miter;stroke-miterlimit:4;stroke-dasharray:none;stroke-dashoffset:0;stroke-opacity:1;marker:none;color-rendering:auto;image-rendering:auto;shape-rendering:auto;text-rendering:auto;enable-background:accumulate"
         d="m 333.43292,61.500047 c -2.6791,0 -4.78864,0.05118 -6.52443,0.292969 -1.7358,0.241784 -3.15619,0.695299 -4.19664,1.55664 -1.04044,0.861342 -1.58959,2.039471 -1.87824,3.480469 -0.28866,1.440999 -0.34501,3.195341 -0.33188,5.423828 V 85 97.752143 c -0.013,2.225063 0.0435,3.978517 0.33188,5.417967 0.28865,1.441 0.8378,2.61913 1.87824,3.48047 1.04045,0.86134 2.46084,1.31486 4.19664,1.55664 1.73581,0.24179 3.84533,0.29297 6.52443,0.29297 h 21.13588 c 2.67913,0 4.78754,-0.0511 6.51976,-0.29297 1.73219,-0.24189 3.14824,-0.69694 4.18485,-1.55859 1.03662,-0.86165 1.58252,-2.03894 1.87353,-3.47852 0.29102,-1.43957 0.35305,-3.190353 0.35305,-5.417967 V 85 72.248094 c 0,-2.227614 -0.0621,-3.978392 -0.35305,-5.417969 -0.29101,-1.439576 -0.83692,-2.616863 -1.87354,-3.478516 -1.03661,-0.861652 -2.45266,-1.316704 -4.18486,-1.558593 -1.7322,-0.24189 -3.84063,-0.292969 -6.51974,-0.292969 z"
         id="path1020"
         inkscape:connector-curvature="0"
         sodipodi:nodetypes="sccsccccccsscccscsccsss" />
      <path
         style="color:#000000;display:inline;overflow:visible;visibility:visible;opacity:0.1;fill:#000000;fill-opacity:1;fill-rule:nonzero;stroke:none;stroke-width:2;marker:none;filter:url(#filter4346);enable-background:accumulate"
         d="M 141.84323,74 C 71.24979,74 63.65402,81.250835 64,151.98706 V 298 444.01294 C 63.65402,514.74917 71.24979,522 141.84323,522 H 434.15677 C 504.75021,522 513.9371,514.72348 512,444.01294 V 298 151.98706 C 512,81.249993 504.75021,74 434.15677,74 Z"
         id="rect4158-9"
         inkscape:connector-curvature="0"
         sodipodi:nodetypes="scccssscsss"
         transform="matrix(0.5,0,0,0.5,8,7.9996982)" />
      <path
         sodipodi:nodetypes="scccssscsss"
         inkscape:connector-curvature="0"
         id="path4350"
         d="M 141.84323,74 C 71.24979,74 63.65402,81.250835 64,151.98706 V 298 444.01294 C 63.65402,514.74917 71.24979,522 141.84323,522 H 434.15677 C 504.75021,522 513.9371,514.72348 512,444.01294 V 298 151.98706 C 512,81.249993 504.75021,74 434.15677,74 Z"
         style="color:#000000;display:inline;overflow:visible;visibility:visible;opacity:0.1;fill:#000000;fill-opacity:1;fill-rule:nonzero;stroke:none;stroke-width:2;marker:none;filter:url(#filter4380);enable-background:accumulate"
         transform="matrix(0.5,0,0,0.5,8,8)" />
      <path
         style="color:#000000;display:inline;overflow:visible;visibility:visible;opacity:0.1;fill:#000000;fill-opacity:1;fill-rule:nonzero;stroke:none;stroke-width:1.02028775;marker:none;enable-background:accumulate"
         d="m 77.8116,41.999698 c -36.098811,0 -39.983003,3.69016 -39.806081,39.68984 v 74.310162 74.31016 c -0.176922,35.99969 3.70727,39.68984 39.806081,39.68984 h 148.38732 c 36.09881,0 40.77464,-3.70276 39.80608,-39.68984 V 155.9997 81.689538 c 0,-36.00011 -3.70727,-39.68984 -39.80608,-39.68984 z"
         id="rect4158-7"
         inkscape:connector-curvature="0"
         sodipodi:nodetypes="scccssscsss" />
      <path
         style="color:#000000;display:inline;overflow:visible;visibility:visible;fill:#007aa6;fill-opacity:0.94117647;fill-rule:nonzero;stroke:none;stroke-width:1;marker:none;enable-background:accumulate"
         d="m 333.33517,61.500049 c -10.01116,0 -11.88667,0.90635 -11.83407,9.74838 v 12.75157 12.75181 c -0.0527,8.842031 1.82291,9.748381 11.83407,9.748381 h 21.3308 c 10.00866,0 11.83405,-0.90625 11.83405,-9.748381 v -12.75181 -12.75157 c 0,-8.84213 -1.82539,-9.74838 -11.83406,-9.74838 z"
         id="path964"
         inkscape:connector-curvature="0"
         sodipodi:nodetypes="scccssscsss" />
      <path
         style="color:#000000;display:inline;overflow:visible;visibility:visible;fill:#007aa6;fill-opacity:0.94117647;fill-rule:nonzero;stroke:none;stroke-width:1;marker:none;enable-background:accumulate"
         d="m 225.07297,43.999694 c 35.29673,0 39.09461,3.62542 38.92162,38.99353 v 73.006466 73.00648 c 0.17299,35.36812 -3.62489,38.99353 -38.92162,38.99353 H 78.916218 c -35.29671,0 -38.92161,-3.625 -38.92161,-38.99353 V 155.99969 82.993224 c 0,-35.36853 3.6249,-38.99353 38.92161,-38.99353 z"
         id="rect4158"
         inkscape:connector-curvature="0"
         sodipodi:nodetypes="scccssscsss" />
      <path
         sodipodi:nodetypes="scccssscsss"
         inkscape:connector-curvature="0"
         id="path914"
         d="m 327.17649,189.49897 c -5.14666,0 -5.70043,0.43262 -5.67521,4.65309 v 5.84793 5.84794 c -0.0253,4.22046 0.52855,4.65308 5.67521,4.65308 h 9.6464 c 5.14665,0 5.67521,-0.43256 5.67521,-4.65308 v -5.84794 -5.84793 c 0,-4.22051 -0.52857,-4.65309 -5.67522,-4.65309 z"
         style="color:#000000;display:inline;overflow:visible;visibility:visible;fill:#007aa6;fill-opacity:0.94117647;fill-rule:nonzero;stroke:none;stroke-width:0.99999988;marker:none;enable-background:accumulate" />
      <path
         style="color:#000000;display:inline;overflow:visible;visibility:visible;fill:#007aa6;fill-opacity:0.94117647;fill-rule:nonzero;stroke:none;stroke-width:1;marker:none;enable-background:accumulate"
         d="m 324.4056,236.50001 c -3.47604,0 -3.85006,0.30899 -3.83302,3.32331 v 4.17669 4.17668 c -0.017,3.01433 0.35698,3.32332 3.83302,3.32332 h 7.18996 c 3.47605,0 3.83303,-0.30895 3.83303,-3.32332 v -4.17668 -4.17669 c 0,-3.01436 -0.35699,-3.32331 -3.83303,-3.32331 z"
         id="path918"
         inkscape:connector-curvature="0"
         sodipodi:nodetypes="scccssscsss" />
      <path
         style="color:#000000;display:inline;overflow:visible;visibility:visible;fill:#007aa6;fill-opacity:0.94117647;fill-rule:nonzero;stroke:none;stroke-width:1;marker:none;enable-background:accumulate"
         d="m 329.12711,133.5 c -6.45163,0 -7.6603,0.58409 -7.62639,6.28227 v 8.21765 8.21781 c -0.034,5.69818 1.17476,6.28227 7.62639,6.28227 h 13.74651 c 6.45003,0 7.62639,-0.58403 7.62639,-6.28227 v -8.21781 -8.21765 c 0,-5.69824 -1.17636,-6.28227 -7.62639,-6.28227 z"
         id="path964-7"
         inkscape:connector-curvature="0"
         sodipodi:nodetypes="scccssscsss" />
      <path
         style="color:#000000;display:inline;overflow:visible;visibility:visible;opacity:0.05;fill:#ffffff;fill-opacity:1;fill-rule:nonzero;stroke:none;stroke-width:1;marker:none;enable-background:accumulate"
         d="m 39.994141,156 v 8 65.00586 C 39.994141,264.37439 43.619306,268 78.916016,268 H 225.07227 c 35.29673,0 39.09486,-3.62602 38.92187,-38.99414 V 164 156 Z"
         id="rect4158-5"
         inkscape:connector-curvature="0"
         sodipodi:nodetypes="ccssscccc" />
      <g
         aria-label="@"
         transform="matrix(0.80872916,0,0,0.81206497,257.72347,-13.208183)"
         style="font-style:normal;font-weight:normal;font-size:40px;line-height:1.25;font-family:sans-serif;letter-spacing:0px;word-spacing:0px;display:inline;fill:#ffffff;fill-opacity:0.941176;stroke:none;stroke-width:0.964019;enable-background:new"
         id="flowRoot945-3">
        <path
           d="m 115.28164,129.10508 q -1.28,0 -2.12,-0.36 -0.84,-0.36 -1.4,-0.96 -0.88,0.48 -2.12,0.84 -1.24,0.32 -2.48,0.32 -1.92,0 -3.52,-0.6 -1.56,-0.6 -2.72,-1.76 -1.159999,-1.2 -1.799999,-2.92 -0.64,-1.72 -0.64,-4 0,-1.92 0.6,-3.6 0.6,-1.72 1.759999,-2.96 1.2,-1.28 2.88,-2 1.72,-0.72 3.88,-0.72 2.04,0 3.72,0.32 1.72,0.32 2.64,0.64 v 12.24 q 0,1.28 0.44,1.8 0.44,0.52 1.16,0.52 1.04,0 1.8,-0.72 0.8,-0.72 1.28,-1.88 0.52,-1.16 0.76,-2.6 0.24,-1.48 0.24,-3 0,-2.52 -0.88,-4.72 -0.88,-2.24 -2.52,-3.92 -1.64,-1.68 -4,-2.64 -2.32,-0.96 -5.24,-0.96 -2.92,0 -5.36,1 -2.439999,0.96 -4.199999,2.8 -1.76,1.8 -2.76,4.44 -0.96,2.64 -0.96,6 0,3.52 1.04,6.2 1.04,2.64 2.88,4.44 1.88,1.76 4.399999,2.64 2.56,0.92 5.6,0.92 2.36,0 3.88,-0.28 1.56,-0.28 2,-0.44 l 0.4,2.96 q -0.68,0.24 -2.48,0.52 -1.76,0.28 -3.8,0.28 -3.56,0 -6.72,-1.04 -3.159999,-1 -5.519999,-3.12 -2.36,-2.08 -3.76,-5.32 -1.36,-3.28 -1.36,-7.76 0,-4.32 1.36,-7.56 1.36,-3.24 3.64,-5.36 2.32,-2.16 5.319999,-3.24 3.04,-1.08 6.4,-1.08 3.28,0 6.2,1.08 2.92,1.04 5.12,3.08 2.2,2 3.48,4.88 1.28,2.84 1.28,6.44 0,2.72 -0.64,4.8 -0.6,2.08 -1.64,3.52 -1.04,1.4 -2.48,2.12 -1.44,0.72 -3.04,0.72 z m -8,-3.24 q 0.84,0 1.68,-0.16 0.88,-0.2 1.56,-0.56 -0.12,-0.52 -0.16,-1.04 -0.04,-0.52 -0.04,-1 v -9.4 q -0.24,-0.08 -0.92,-0.16 -0.68,-0.08 -1.52,-0.08 -2.84,0 -4.24,1.76 -1.4,1.76 -1.4,4.44 0,2.84 1.36,4.52 1.36,1.68 3.68,1.68 z"
           style="font-style:normal;font-variant:normal;font-weight:normal;font-stretch:normal;font-family:ubuntu;-inkscape-font-specification:ubuntu;fill:#ffffff;fill-opacity:0.941176;stroke-width:0.964019"
           id="path169"
           inkscape:connector-curvature="0" />
      </g>
      <g
         aria-label="@"
         transform="matrix(0.46213095,0,0,0.46403712,286.69912,92.452399)"
         style="font-style:normal;font-weight:normal;font-size:40px;line-height:1.25;font-family:sans-serif;letter-spacing:0px;word-spacing:0px;display:inline;fill:#ffffff;fill-opacity:0.941176;stroke:none;stroke-width:0.964019;enable-background:new"
         id="flowRoot945-3-3">
        <path
           d="m 115.28164,129.10508 q -1.28,0 -2.12,-0.36 -0.84,-0.36 -1.4,-0.96 -0.88,0.48 -2.12,0.84 -1.24,0.32 -2.48,0.32 -1.92,0 -3.52,-0.6 -1.56,-0.6 -2.72,-1.76 -1.159999,-1.2 -1.799999,-2.92 -0.64,-1.72 -0.64,-4 0,-1.92 0.6,-3.6 0.6,-1.72 1.759999,-2.96 1.2,-1.28 2.88,-2 1.72,-0.72 3.88,-0.72 2.04,0 3.72,0.32 1.72,0.32 2.64,0.64 v 12.24 q 0,1.28 0.44,1.8 0.44,0.52 1.16,0.52 1.04,0 1.8,-0.72 0.8,-0.72 1.28,-1.88 0.52,-1.16 0.76,-2.6 0.24,-1.48 0.24,-3 0,-2.52 -0.88,-4.72 -0.88,-2.24 -2.52,-3.92 -1.64,-1.68 -4,-2.64 -2.32,-0.96 -5.24,-0.96 -2.92,0 -5.36,1 -2.439999,0.96 -4.199999,2.8 -1.76,1.8 -2.76,4.44 -0.96,2.64 -0.96,6 0,3.52 1.04,6.2 1.04,2.64 2.88,4.44 1.88,1.76 4.399999,2.64 2.56,0.92 5.6,0.92 2.36,0 3.88,-0.28 1.56,-0.28 2,-0.44 l 0.4,2.96 q -0.68,0.24 -2.48,0.52 -1.76,0.28 -3.8,0.28 -3.56,0 -6.72,-1.04 -3.159999,-1 -5.519999,-3.12 -2.36,-2.08 -3.76,-5.32 -1.36,-3.28 -1.36,-7.76 0,-4.32 1.36,-7.56 1.36,-3.24 3.64,-5.36 2.32,-2.16 5.319999,-3.24 3.04,-1.08 6.4,-1.08 3.28,0 6.2,1.08 2.92,1.04 5.12,3.08 2.2,2 3.48,4.88 1.28,2.84 1.28,6.44 0,2.72 -0.64,4.8 -0.6,2.08 -1.64,3.52 -1.04,1.4 -2.48,2.12 -1.44,0.72 -3.04,0.72 z m -8,-3.24 q 0.84,0 1.68,-0.16 0.88,-0.2 1.56,-0.56 -0.12,-0.52 -0.16,-1.04 -0.04,-0.52 -0.04,-1 v -9.4 q -0.24,-0.08 -0.92,-0.16 -0.68,-0.08 -1.52,-0.08 -2.84,0 -4.24,1.76 -1.4,1.76 -1.4,4.44 0,2.84 1.36,4.52 1.36,1.68 3.68,1.68 z"
           style="font-style:normal;font-variant:normal;font-weight:normal;font-stretch:normal;font-family:ubuntu;-inkscape-font-specification:ubuntu;fill:#ffffff;fill-opacity:0.941176;stroke-width:0.964019"
           id="path169-6"
           inkscape:connector-curvature="0" />
      </g>
      <g
         aria-label="@"
         transform="matrix(0.40436458,0,0,0.40603248,288.86173,151.39585)"
         style="font-style:normal;font-weight:normal;font-size:40px;line-height:1.25;font-family:sans-serif;letter-spacing:0px;word-spacing:0px;display:inline;fill:#ffffff;fill-opacity:0.941176;stroke:none;stroke-width:0.964019;enable-background:new"
         id="flowRoot945-3-3-7">
        <path
           d="m 115.28164,129.10508 q -1.28,0 -2.12,-0.36 -0.84,-0.36 -1.4,-0.96 -0.88,0.48 -2.12,0.84 -1.24,0.32 -2.48,0.32 -1.92,0 -3.52,-0.6 -1.56,-0.6 -2.72,-1.76 -1.159999,-1.2 -1.799999,-2.92 -0.64,-1.72 -0.64,-4 0,-1.92 0.6,-3.6 0.6,-1.72 1.759999,-2.96 1.2,-1.28 2.88,-2 1.72,-0.72 3.88,-0.72 2.04,0 3.72,0.32 1.72,0.32 2.64,0.64 v 12.24 q 0,1.28 0.44,1.8 0.44,0.52 1.16,0.52 1.04,0 1.8,-0.72 0.8,-0.72 1.28,-1.88 0.52,-1.16 0.76,-2.6 0.24,-1.48 0.24,-3 0,-2.52 -0.88,-4.72 -0.88,-2.24 -2.52,-3.92 -1.64,-1.68 -4,-2.64 -2.32,-0.96 -5.24,-0.96 -2.92,0 -5.36,1 -2.439999,0.96 -4.199999,2.8 -1.76,1.8 -2.76,4.44 -0.96,2.64 -0.96,6 0,3.52 1.04,6.2 1.04,2.64 2.88,4.44 1.88,1.76 4.399999,2.64 2.56,0.92 5.6,0.92 2.36,0 3.88,-0.28 1.56,-0.28 2,-0.44 l 0.4,2.96 q -0.68,0.24 -2.48,0.52 -1.76,0.28 -3.8,0.28 -3.56,0 -6.72,-1.04 -3.159999,-1 -5.519999,-3.12 -2.36,-2.08 -3.76,-5.32 -1.36,-3.28 -1.36,-7.76 0,-4.32 1.36,-7.56 1.36,-3.24 3.64,-5.36 2.32,-2.16 5.319999,-3.24 3.04,-1.08 6.4,-1.08 3.28,0 6.2,1.08 2.92,1.04 5.12,3.08 2.2,2 3.48,4.88 1.28,2.84 1.28,6.44 0,2.72 -0.64,4.8 -0.6,2.08 -1.64,3.52 -1.04,1.4 -2.48,2.12 -1.44,0.72 -3.04,0.72 z m -8,-3.24 q 0.84,0 1.68,-0.16 0.88,-0.2 1.56,-0.56 -0.12,-0.52 -0.16,-1.04 -0.04,-0.52 -0.04,-1 v -9.4 q -0.24,-0.08 -0.92,-0.16 -0.68,-0.08 -1.52,-0.08 -2.84,0 -4.24,1.76 -1.4,1.76 -1.4,4.44 0,2.84 1.36,4.52 1.36,1.68 3.68,1.68 z"
           style="font-style:normal;font-variant:normal;font-weight:normal;font-stretch:normal;font-family:ubuntu;-inkscape-font-specification:ubuntu;fill:#ffffff;fill-opacity:0.941176;stroke-width:0.964019"
           id="path169-6-5"
           inkscape:connector-curvature="0" />
      </g>
      <g
         aria-label="@"
         transform="matrix(0.40436458,0,0,0.40603248,284.86172,195.89585)"
         style="font-style:normal;font-weight:normal;font-size:40px;line-height:1.25;font-family:sans-serif;letter-spacing:0px;word-spacing:0px;display:inline;fill:#ffffff;fill-opacity:0.941176;stroke:none;stroke-width:0.964019;enable-background:new"
         id="flowRoot945-3-3-7-3">
        <path
           d="m 114.05385,126.53078 q -1.09714,0 -1.81714,-0.30858 -0.72,-0.30857 -1.2,-0.82285 -0.75429,0.41143 -1.81714,0.72 -1.06286,0.27428 -2.12572,0.27428 -1.64571,0 -3.01714,-0.51428 -1.33714,-0.51429 -2.33143,-1.50857 -0.99429,-1.02858 -1.54286,-2.50286 -0.548571,-1.47429 -0.548571,-3.42857 0,-1.64572 0.514281,-3.08572 0.51429,-1.47428 1.50858,-2.53714 1.02857,-1.09714 2.46857,-1.71429 1.47429,-0.61714 3.32571,-0.61714 1.74858,0 3.18858,0.27429 1.47428,0.27428 2.26285,0.54857 v 10.49143 q 0,1.09714 0.37715,1.54285 0.37714,0.44572 0.99428,0.44572 0.89143,0 1.54286,-0.61714 0.68571,-0.61715 1.09714,-1.61143 0.44572,-0.99429 0.65143,-2.22857 0.20571,-1.26858 0.20571,-2.57143 0,-2.16 -0.75428,-4.04572 -0.75429,-1.92 -2.16,-3.36 -1.40572,-1.44 -3.42857,-2.26285 -1.98857,-0.82286 -4.49143,-0.82286 -2.50286,0 -4.59429,0.85714 -2.09143,0.82286 -3.599999,2.4 -1.508572,1.54286 -2.365714,3.80572 -0.822858,2.26285 -0.822858,5.14285 0,3.01715 0.891429,5.31429 0.891429,2.26286 2.468571,3.80571 1.611431,1.50857 3.771431,2.26286 2.19429,0.78857 4.8,0.78857 2.02286,0 3.32571,-0.24 1.33715,-0.24 1.71429,-0.37714 l 0.34286,2.53714 q -0.58286,0.20572 -2.12572,0.44572 -1.50857,0.24 -3.25714,0.24 -3.05143,0 -5.76,-0.89143 -2.708573,-0.85715 -4.731431,-2.67429 -2.022857,-1.78286 -3.222857,-4.56 -1.165714,-2.81143 -1.165714,-6.65143 0,-3.70285 1.165714,-6.48 1.165715,-2.77714 3.12,-4.59428 1.988572,-1.85143 4.559998,-2.77715 2.60572,-0.92571 5.48572,-0.92571 2.81143,0 5.31428,0.92571 2.50286,0.89143 4.38858,2.64 1.88571,1.71429 2.98285,4.18286 1.09715,2.43429 1.09715,5.52 0,2.33143 -0.54858,4.11429 -0.51428,1.78285 -1.40571,3.01714 -0.89143,1.2 -2.12571,1.81714 -1.23429,0.61715 -2.60572,0.61715 z m -6.85714,-2.77715 q 0.72,0 1.44,-0.13714 0.75428,-0.17143 1.33714,-0.48 -0.10286,-0.44571 -0.13714,-0.89143 -0.0343,-0.44571 -0.0343,-0.85714 v -8.05714 q -0.20571,-0.0686 -0.78857,-0.13715 -0.58286,-0.0686 -1.30286,-0.0686 -2.43428,0 -3.63428,1.50857 -1.2,1.50857 -1.2,3.80572 0,2.43428 1.16571,3.87428 1.16572,1.44 3.15429,1.44 z"
           style="font-style:normal;font-variant:normal;font-weight:normal;font-stretch:normal;font-family:ubuntu;-inkscape-font-specification:ubuntu;fill:#ffffff;fill-opacity:0.941176;stroke-width:0.826302"
           id="path169-6-5-5"
           inkscape:connector-curvature="0" />
      </g>
    </g>
    <g
       inkscape:groupmode="layer"
       id="layer6"
       inkscape:label="Pictograms"
       style="display:inline">
      <g
         aria-label="@"
         transform="matrix(4.3554009,0,0,4.350348,-312.64402,-364.75906)"
         style="font-style:normal;font-weight:normal;font-size:40px;line-height:1.25;font-family:sans-serif;letter-spacing:0px;word-spacing:0px;display:inline;fill:#ffffff;fill-opacity:0.941176;stroke:none;stroke-width:1.02282;enable-background:new"
         id="flowRoot945">
        <path
           d="m 115.28164,129.10508 q -1.28,0 -2.12,-0.36 -0.84,-0.36 -1.4,-0.96 -0.88,0.48 -2.12,0.84 -1.24,0.32 -2.48,0.32 -1.92,0 -3.52,-0.6 -1.56,-0.6 -2.72,-1.76 -1.159999,-1.2 -1.799999,-2.92 -0.64,-1.72 -0.64,-4 0,-1.92 0.6,-3.6 0.6,-1.72 1.759999,-2.96 1.2,-1.28 2.88,-2 1.72,-0.72 3.88,-0.72 2.04,0 3.72,0.32 1.72,0.32 2.64,0.64 v 12.24 q 0,1.28 0.44,1.8 0.44,0.52 1.16,0.52 1.04,0 1.8,-0.72 0.8,-0.72 1.28,-1.88 0.52,-1.16 0.76,-2.6 0.24,-1.48 0.24,-3 0,-2.52 -0.88,-4.72 -0.88,-2.24 -2.52,-3.92 -1.64,-1.68 -4,-2.64 -2.32,-0.96 -5.24,-0.96 -2.92,0 -5.36,1 -2.439999,0.96 -4.199999,2.8 -1.76,1.8 -2.76,4.44 -0.96,2.64 -0.96,6 0,3.52 1.04,6.2 1.04,2.64 2.88,4.44 1.88,1.76 4.399999,2.64 2.56,0.92 5.6,0.92 2.36,0 3.88,-0.28 1.56,-0.28 2,-0.44 l 0.4,2.96 q -0.68,0.24 -2.48,0.52 -1.76,0.28 -3.8,0.28 -3.56,0 -6.72,-1.04 -3.159999,-1 -5.519999,-3.12 -2.36,-2.08 -3.76,-5.32 -1.36,-3.28 -1.36,-7.76 0,-4.32 1.36,-7.56 1.36,-3.24 3.64,-5.36 2.32,-2.16 5.319999,-3.24 3.04,-1.08 6.4,-1.08 3.28,0 6.2,1.08 2.92,1.04 5.12,3.08 2.2,2 3.48,4.88 1.28,2.84 1.28,6.44 0,2.72 -0.64,4.8 -0.6,2.08 -1.64,3.52 -1.04,1.4 -2.48,2.12 -1.44,0.72 -3.04,0.72 z m -8,-3.24 q 0.84,0 1.68,-0.16 0.88,-0.2 1.56,-0.56 -0.12,-0.52 -0.16,-1.04 -0.04,-0.52 -0.04,-1 v -9.4 q -0.24,-0.08 -0.92,-0.16 -0.68,-0.08 -1.52,-0.08 -2.84,0 -4.24,1.76 -1.4,1.76 -1.4,4.44 0,2.84 1.36,4.52 1.36,1.68 3.68,1.68 z"
           style="font-style:normal;font-variant:normal;font-weight:normal;font-stretch:normal;font-family:ubuntu;-inkscape-font-specification:ubuntu;fill:#ffffff;fill-opacity:0.941176;stroke-width:1.02282"
           id="path172"
           inkscape:connector-curvature="0" />
      </g>
    </g>
    <g
       inkscape:groupmode="layer"
       id="layer4"
       inkscape:label="Highlights"
       style="display:inline">
      <path
         style="color:#000000;display:inline;overflow:visible;visibility:visible;opacity:0.3;fill:#ffffff;fill-opacity:1;fill-rule:nonzero;stroke:none;stroke-width:1;marker:none;enable-background:accumulate"
         d="m 78.92188,43.999698 c -35.296728,0 -39.09487,3.62603 -38.92188,38.99414 v 2 c -0.17299,-35.36811 3.625152,-38.99414 38.92188,-38.99414 h 146.15624 c 35.29673,0 38.92188,3.62561 38.92188,38.99414 v -2 c 0,-35.36853 -3.62515,-38.99414 -38.92188,-38.99414 z"
         id="path931"
         inkscape:connector-curvature="0"
         sodipodi:nodetypes="sccsscsss" />
      <path
         style="color:#000000;display:inline;overflow:visible;visibility:visible;opacity:0.2;fill:#000000;fill-opacity:1;fill-rule:nonzero;stroke:none;stroke-width:1;marker:none;enable-background:accumulate"
         d="m 78.92728,267.9997 c -35.296731,0 -39.094875,-3.62603 -38.921885,-38.99414 v -2 c -0.17299,35.36811 3.625154,38.99414 38.921885,38.99414 h 146.15624 c 35.29673,0 38.92188,-3.62561 38.92188,-38.99414 v 2 c 0,35.36853 -3.62515,38.99414 -38.92188,38.99414 z"
         id="path931-8"
         inkscape:connector-curvature="0"
         sodipodi:nodetypes="sccsscsss" />
      <path
         style="color:#000000;display:inline;overflow:visible;visibility:visible;opacity:0.4;fill:none;fill-opacity:1;fill-rule:nonzero;stroke:#000000;stroke-width:1;stroke-miterlimit:4;stroke-dasharray:none;stroke-opacity:1;marker:none;enable-background:accumulate"
         d="m 333.33517,61.500047 c -10.01116,0 -11.88667,0.90635 -11.83407,9.74838 V 84 96.75181 c -0.0527,8.84203 1.82291,9.74838 11.83407,9.74838 h 21.3308 c 10.00866,0 11.83405,-0.90625 11.83405,-9.74838 V 84 71.248427 c 0,-8.84213 -1.82539,-9.74838 -11.83406,-9.74838 z"
         id="path958"
         inkscape:connector-curvature="0"
         sodipodi:nodetypes="scccssscsss" />
      <path
         sodipodi:nodetypes="scccssscsss"
         inkscape:connector-curvature="0"
         id="path990"
         d="m 335.73108,62 c -8.82418,0 -9.77365,0.90635 -9.7304,9.74838 V 84 96.25162 c -0.0433,8.84203 0.90622,9.74838 9.7304,9.74838 h 16.53919 c 8.82418,0 9.7304,-0.90625 9.7304,-9.74838 V 84 71.74838 C 362.00067,62.90625 361.09445,62 352.27027,62 Z"
         style="color:#000000;display:inline;overflow:visible;visibility:visible;opacity:0.7;fill:none;fill-opacity:1;fill-rule:nonzero;stroke:url(#linearGradient1004);stroke-width:1.81354535;stroke-miterlimit:4;stroke-dasharray:none;stroke-opacity:1;marker:none;enable-background:accumulate"
         clip-path="url(#clipPath994)"
         transform="matrix(1.2161948,0,0,1,-74.371693,0)" />
      <path
         style="color:#000000;display:inline;overflow:visible;visibility:visible;opacity:0.4;fill:none;fill-opacity:1;fill-rule:nonzero;stroke:#000000;stroke-width:1;stroke-miterlimit:4;stroke-dasharray:none;stroke-opacity:1;marker:none;enable-background:accumulate"
         d="m 329.12711,133.5 c -6.45163,0 -7.6603,0.58409 -7.62639,6.28227 v 8.21765 8.21781 c -0.034,5.69818 1.17476,6.28227 7.62639,6.28227 h 13.74651 c 6.45003,0 7.62639,-0.58403 7.62639,-6.28227 v -8.21781 -8.21765 c 0,-5.69824 -1.17636,-6.28227 -7.62639,-6.28227 z"
         id="path958-1"
         inkscape:connector-curvature="0"
         sodipodi:nodetypes="scccssscsss" />
      <path
         transform="matrix(0.7733047,0,0,0.63636364,69.98319,94.545454)"
         sodipodi:nodetypes="scccssscsss"
         inkscape:connector-curvature="0"
         id="path990-8"
         d="m 335.73108,62 c -8.82418,0 -9.77365,0.90635 -9.7304,9.74838 V 84 96.25162 c -0.0433,8.84203 0.90622,9.74838 9.7304,9.74838 h 16.53919 c 8.82418,0 9.7304,-0.90625 9.7304,-9.74838 V 84 71.74838 C 362.00067,62.90625 361.09445,62 352.27027,62 Z"
         style="color:#000000;display:inline;overflow:visible;visibility:visible;opacity:0.7;fill:none;fill-opacity:1;fill-rule:nonzero;stroke:url(#linearGradient1004-8);stroke-width:2.8510313;stroke-miterlimit:4;stroke-dasharray:none;stroke-opacity:1;marker:none;enable-background:accumulate"
         clip-path="url(#clipPath994-1)" />
      <path
         sodipodi:nodetypes="scccssscsss"
         inkscape:connector-curvature="0"
         id="path935"
         d="m 327.8652,189 c -4.41209,0 -4.88682,0.45318 -4.8652,4.87419 V 200 206.12581 C 322.9783,210.54682 323.45311,211 327.8652,211 h 8.2696 C 340.54689,211 341,210.54688 341,206.12581 V 200 193.87419 C 341,189.45313 340.54688,189 336.13479,189 Z"
         style="color:#000000;display:inline;overflow:visible;visibility:visible;opacity:0.7;fill:none;fill-opacity:1;fill-rule:nonzero;stroke:url(#linearGradient981);stroke-width:1.99092603;stroke-miterlimit:4;stroke-dasharray:none;stroke-opacity:1;marker:none;enable-background:accumulate"
         clip-path="url(#clipPath971)"
         transform="matrix(1.1051369,0,0,0.91313222,-34.905388,17.373548)" />
      <path
         style="color:#000000;display:inline;overflow:visible;visibility:visible;opacity:0.4;fill:none;fill-opacity:1;fill-rule:nonzero;stroke:#000000;stroke-width:0.97652888;stroke-miterlimit:4;stroke-dasharray:none;stroke-opacity:1;marker:none;enable-background:accumulate"
         d="m 336.98249,210.51174 c 4.67709,0 5.5533,-0.42343 5.52872,-4.55431 v -5.95736 -5.95749 c 0.0245,-4.13088 -0.85163,-4.55431 -5.52872,-4.55431 H 327.017 c -4.67593,0 -5.52873,0.42338 -5.52873,4.55431 v 5.95749 5.95736 c 0,4.13093 0.8528,4.55431 5.52873,4.55431 z"
         id="path958-6"
         inkscape:connector-curvature="0"
         sodipodi:nodetypes="scccssscsss" />
      <path
         style="color:#000000;display:inline;overflow:visible;visibility:visible;opacity:0.7;fill:none;fill-opacity:1;fill-rule:nonzero;stroke:url(#linearGradient993);stroke-width:1.87086594;stroke-miterlimit:4;stroke-dasharray:none;stroke-opacity:1;marker:none;enable-background:accumulate"
         d="m 325.09646,237 c -2.80769,0 -3.10979,0.28839 -3.09603,3.10176 V 244 v 3.89824 c -0.0138,2.81337 0.28834,3.10176 3.09603,3.10176 h 5.8075 C 333.71166,251 334,250.71165 334,247.89824 V 244 240.10176 C 334,237.28836 333.71165,237 330.90396,237 Z"
         id="path937"
         inkscape:connector-curvature="0"
         sodipodi:nodetypes="scccssscsss"
         clip-path="url(#clipPath983)"
         transform="matrix(1.1428116,0,0,1,-46.841891,-4.4414902e-6)" />
      <path
         style="color:#000000;display:inline;overflow:visible;visibility:visible;opacity:0.4;fill:none;fill-opacity:1;fill-rule:nonzero;stroke:#000000;stroke-width:0.97652888;stroke-miterlimit:4;stroke-dasharray:none;stroke-opacity:1;marker:none;enable-background:accumulate"
         d="m 331.52755,251.51174 c 3.31109,0 3.93139,-0.30259 3.91399,-3.25454 v -4.25716 -4.25724 c 0.0174,-2.95195 -0.6029,-3.25453 -3.91399,-3.25453 h -7.05493 c -3.31027,0 -3.914,0.30255 -3.914,3.25453 v 4.25724 4.25716 c 0,2.95199 0.60373,3.25454 3.914,3.25454 z"
         id="path958-6-0"
         inkscape:connector-curvature="0"
         sodipodi:nodetypes="scccssscsss" />
    </g>
  </g>
</svg>
