<?xml version="1.0" encoding="UTF-8" standalone="no"?>
<!-- Created with Inkscape (http://www.inkscape.org/) -->

<svg
   xmlns:dc="http://purl.org/dc/elements/1.1/"
   xmlns:cc="http://creativecommons.org/ns#"
   xmlns:rdf="http://www.w3.org/1999/02/22-rdf-syntax-ns#"
   xmlns:svg="http://www.w3.org/2000/svg"
   xmlns="http://www.w3.org/2000/svg"
   xmlns:xlink="http://www.w3.org/1999/xlink"
   xmlns:sodipodi="http://sodipodi.sourceforge.net/DTD/sodipodi-0.dtd"
   xmlns:inkscape="http://www.inkscape.org/namespaces/inkscape"
   inkscape:export-ydpi="96"
   inkscape:export-xdpi="96"
   width="400"
   height="300"
   id="svg11300"
   sodipodi:version="0.32"
   inkscape:version="0.92.4 (5da689c313, 2019-01-14)"
   sodipodi:docname="amazon-store.svg"
   inkscape:output_extension="org.inkscape.output.svg.inkscape"
   version="1.0"
   style="display:inline;enable-background:new"
   inkscape:export-filename="C:\Users\sblav\Pictures\vertical oblong template.png">
  <title
     id="title3004">Yaru Icon Theme Template</title>
  <sodipodi:namedview
     stroke="#ef2929"
     fill="#f57900"
     id="base"
     pagecolor="#ffffff"
     bordercolor="#000000"
     borderopacity="0.25490196"
     inkscape:pageopacity="0"
     inkscape:pageshadow="2"
     inkscape:zoom="1"
     inkscape:cx="152.0926"
     inkscape:cy="62.914244"
     inkscape:current-layer="layer6"
     showgrid="false"
     inkscape:grid-bbox="true"
     inkscape:document-units="px"
     inkscape:showpageshadow="false"
     inkscape:window-width="1296"
     inkscape:window-height="704"
     inkscape:window-x="70"
     inkscape:window-y="27"
     width="400px"
     height="300px"
     inkscape:snap-nodes="true"
     inkscape:snap-bbox="true"
     gridtolerance="10000"
     inkscape:object-nodes="true"
     inkscape:snap-grids="true"
     showguides="true"
     inkscape:guide-bbox="true"
     inkscape:window-maximized="1"
     inkscape:bbox-paths="true"
     inkscape:snap-bbox-midpoints="true"
     inkscape:snap-global="true"
     inkscape:object-paths="true"
     inkscape:snap-intersection-paths="true"
     inkscape:snap-smooth-nodes="true"
     inkscape:pagecheckerboard="false"
     showborder="false">
    <inkscape:grid
       spacingy="1"
       spacingx="1"
       id="grid5883"
       type="xygrid"
       enabled="true"
       visible="true"
       empspacing="4"
       snapvisiblegridlinesonly="true"
       originx="0"
       originy="0" />
    <inkscape:grid
       type="xygrid"
       id="grid11592"
       empspacing="2"
       visible="true"
       enabled="false"
       spacingx="0.5"
       spacingy="0.5"
       color="#ff0000"
       opacity="0.1254902"
       empcolor="#ff0000"
       empopacity="0.25098039"
       snapvisiblegridlinesonly="true"
       originx="0"
       originy="0" />
  </sodipodi:namedview>
  <defs
     id="defs3">
    <linearGradient
       id="linearGradient36942"
       inkscape:collect="always">
      <stop
         id="stop36938"
         offset="0"
         style="stop-color:#ffffff;stop-opacity:1" />
      <stop
         id="stop36940"
         offset="1"
         style="stop-color:#ffffff;stop-opacity:1" />
    </linearGradient>
    <clipPath
       clipPathUnits="userSpaceOnUse"
       id="clipPath9430">
      <path
         sodipodi:nodetypes="sssssssss"
         inkscape:connector-curvature="0"
         id="path9432"
         d="m 166.0625,-196 h 179.875 C 491.2348,-196 512,-175.28677 512,-30.125 v 148.25 C 512,263.28618 491.2348,284 345.9375,284 H 166.0625 C 20.7652,284 0,263.28618 0,118.125 V -30.125 C 0,-175.28677 20.7652,-196 166.0625,-196 Z"
         style="color:#000000;display:inline;overflow:visible;visibility:visible;fill:#ffffff;fill-opacity:1;fill-rule:nonzero;stroke:none;stroke-width:1;marker:none;enable-background:new" />
    </clipPath>
    <clipPath
       clipPathUnits="userSpaceOnUse"
       id="clipPath1082">
      <path
         sodipodi:nodetypes="sssssssss"
         inkscape:connector-curvature="0"
         id="path1084"
         d="M 361.9375,-212 C 507.2348,-212 528,-191.28677 528,-46.125 V 70.125 C 528,215.28618 507.2348,236 361.9375,236 H 214.0625 C 68.7652,236 48,215.28618 48,70.125 V -46.125 C 48,-191.28677 68.7652,-212 214.0625,-212 Z"
         style="display:inline;opacity:1;fill:#8c59d9;fill-opacity:1;stroke:none;stroke-width:2;stroke-linecap:round;stroke-linejoin:round;stroke-miterlimit:4;stroke-dasharray:none;stroke-dashoffset:0;stroke-opacity:1;enable-background:new" />
    </clipPath>
    <linearGradient
       inkscape:collect="always"
       id="linearGradient927">
      <stop
         style="stop-color:#ffffff;stop-opacity:1;"
         offset="0"
         id="stop923" />
      <stop
         id="stop933"
         offset="0.125"
         style="stop-color:#ffffff;stop-opacity:0.09803922" />
      <stop
         id="stop931"
         offset="0.92500001"
         style="stop-color:#ffffff;stop-opacity:0.09803922" />
      <stop
         style="stop-color:#ffffff;stop-opacity:0.49803922"
         offset="1"
         id="stop925" />
    </linearGradient>
    <clipPath
       clipPathUnits="userSpaceOnUse"
       id="clipPath994">
      <path
         style="color:#000000;display:inline;overflow:visible;visibility:visible;fill:#cdcdcd;fill-opacity:1;fill-rule:nonzero;stroke:none;stroke-width:2;stroke-miterlimit:4;stroke-dasharray:none;stroke-opacity:1;marker:none;enable-background:accumulate"
         d="m 335.73108,62 c -8.82418,0 -9.77365,0.90635 -9.7304,9.74838 V 84 96.25162 c -0.0433,8.84203 0.90622,9.74838 9.7304,9.74838 h 16.53919 c 8.82418,0 9.7304,-0.90625 9.7304,-9.74838 V 84 71.74838 C 362.00067,62.90625 361.09445,62 352.27027,62 Z"
         id="path996"
         inkscape:connector-curvature="0"
         sodipodi:nodetypes="scccssscsss" />
    </clipPath>
    <clipPath
       clipPathUnits="userSpaceOnUse"
       id="clipPath959">
      <path
         style="color:#000000;display:inline;overflow:visible;visibility:visible;opacity:1;fill:#46a926;fill-opacity:1;fill-rule:nonzero;stroke:none;stroke-width:2;stroke-miterlimit:4;stroke-dasharray:none;stroke-opacity:1;marker:none;enable-background:accumulate"
         d="m 330.1929,133.99999 c -5.61538,0 -6.21958,0.57678 -6.19206,6.20352 v 7.79648 7.79648 c -0.0276,5.62673 0.57668,6.20351 6.19206,6.20351 h 11.615 c 5.6154,0 6.19208,-0.5767 6.19208,-6.20351 v -7.79648 -7.79648 c 0,-5.6268 -0.5767,-6.20352 -6.19208,-6.20352 z"
         id="path961"
         inkscape:connector-curvature="0"
         sodipodi:nodetypes="scccssscsss" />
    </clipPath>
    <clipPath
       clipPathUnits="userSpaceOnUse"
       id="clipPath971">
      <path
         style="color:#000000;display:inline;overflow:visible;visibility:visible;opacity:1;fill:#46a926;fill-opacity:1;fill-rule:nonzero;stroke:none;stroke-width:2;stroke-miterlimit:4;stroke-dasharray:none;stroke-opacity:1;marker:none;enable-background:accumulate"
         d="m 327.8652,189 c -4.41209,0 -4.88682,0.45318 -4.8652,4.87419 V 200 206.12581 C 322.9783,210.54682 323.45311,211 327.8652,211 h 8.2696 C 340.54689,211 341,210.54688 341,206.12581 V 200 193.87419 C 341,189.45313 340.54688,189 336.13479,189 Z"
         id="path973"
         inkscape:connector-curvature="0"
         sodipodi:nodetypes="scccssscsss" />
    </clipPath>
    <linearGradient
       id="linearGradient4336-3">
      <stop
         style="stop-color:#5884f4;stop-opacity:1"
         offset="0"
         id="stop4338-8" />
      <stop
         id="stop4344-3"
         offset="0.27800092"
         style="stop-color:#5884f4;stop-opacity:1" />
      <stop
         style="stop-color:#2f5fdd;stop-opacity:1"
         offset="0.27800092"
         id="stop4346-3" />
      <stop
         id="stop4350-1"
         offset="0.70735365"
         style="stop-color:#2f5fdd;stop-opacity:1" />
      <stop
         id="stop4348-6"
         offset="0.70936078"
         style="stop-color:#234db8;stop-opacity:1" />
      <stop
         style="stop-color:#234db8;stop-opacity:1"
         offset="1"
         id="stop4340-0" />
    </linearGradient>
    <clipPath
       clipPathUnits="userSpaceOnUse"
       id="clipPath994-1">
      <path
         style="color:#000000;display:inline;overflow:visible;visibility:visible;fill:#cdcdcd;fill-opacity:1;fill-rule:nonzero;stroke:none;stroke-width:2;stroke-miterlimit:4;stroke-dasharray:none;stroke-opacity:1;marker:none;enable-background:accumulate"
         d="m 335.73108,62 c -8.82418,0 -9.77365,0.90635 -9.7304,9.74838 V 84 96.25162 c -0.0433,8.84203 0.90622,9.74838 9.7304,9.74838 h 16.53919 c 8.82418,0 9.7304,-0.90625 9.7304,-9.74838 V 84 71.74838 C 362.00067,62.90625 361.09445,62 352.27027,62 Z"
         id="path996-8"
         inkscape:connector-curvature="0"
         sodipodi:nodetypes="scccssscsss" />
    </clipPath>
    <linearGradient
       id="linearGradient3797-5">
      <stop
         id="stop3801"
         offset="0"
         style="stop-color:#f7f7f7;stop-opacity:1" />
      <stop
         id="stop3799"
         offset="1"
         style="stop-color:#e6e6e6;stop-opacity:1" />
    </linearGradient>
    <linearGradient
       inkscape:collect="always"
       xlink:href="#linearGradient36942"
       id="linearGradient1686"
       x1="319.99991"
       y1="108.00015"
       x2="367.99991"
       y2="108.00015"
       gradientUnits="userSpaceOnUse"
       gradientTransform="rotate(90,344.00003,84.000119)" />
    <linearGradient
       inkscape:collect="always"
       xlink:href="#linearGradient36942"
       id="linearGradient1688"
       x1="320.00003"
       y1="164.00002"
       x2="352.00003"
       y2="164.00002"
       gradientUnits="userSpaceOnUse"
       gradientTransform="rotate(90,336.00002,148)" />
    <linearGradient
       inkscape:collect="always"
       xlink:href="#linearGradient36942"
       id="linearGradient1690"
       x1="319.9993"
       y1="211.99928"
       x2="343.9993"
       y2="211.99928"
       gradientUnits="userSpaceOnUse"
       gradientTransform="rotate(90,331.99929,199.99999)" />
    <linearGradient
       inkscape:collect="always"
       xlink:href="#linearGradient36942"
       id="linearGradient1692"
       x1="320.00031"
       y1="252.00034"
       x2="336.00031"
       y2="252.00034"
       gradientUnits="userSpaceOnUse"
       gradientTransform="rotate(90,328.00032,244.00001)" />
    <linearGradient
       inkscape:collect="always"
       xlink:href="#linearGradient36942"
       id="linearGradient1694"
       x1="38.309559"
       y1="270.69043"
       x2="263.99759"
       y2="267.99701"
       gradientUnits="userSpaceOnUse"
       gradientTransform="rotate(90,151.9973,155.9997)" />
    <linearGradient
       inkscape:collect="always"
       xlink:href="#linearGradient927"
       id="linearGradient1692-6"
       x1="321.00031"
       y1="244.00034"
       x2="335.00031"
       y2="244.00034"
       gradientUnits="userSpaceOnUse"
       gradientTransform="rotate(90,328.00032,244.00001)" />
    <linearGradient
       inkscape:collect="always"
       xlink:href="#linearGradient927"
       id="linearGradient1690-9"
       x1="320.9993"
       y1="199.99928"
       x2="342.9993"
       y2="199.99928"
       gradientUnits="userSpaceOnUse"
       gradientTransform="rotate(90,331.99929,199.99999)" />
    <linearGradient
       inkscape:collect="always"
       xlink:href="#linearGradient927"
       id="linearGradient1688-4"
       x1="322"
       y1="148.00002"
       x2="350"
       y2="148.00002"
       gradientUnits="userSpaceOnUse"
       gradientTransform="rotate(90,336.00001,148)" />
    <linearGradient
       inkscape:collect="always"
       xlink:href="#linearGradient927"
       id="linearGradient1686-0"
       x1="321.99991"
       y1="84.000153"
       x2="365.99991"
       y2="84.000153"
       gradientUnits="userSpaceOnUse"
       gradientTransform="rotate(90,344.00003,84.000125)" />
    <filter
       inkscape:collect="always"
       style="color-interpolation-filters:sRGB"
       id="filter58449"
       x="-0.047999425"
       width="1.0959988"
       y="-0.048000575"
       height="1.0960012">
      <feGaussianBlur
         inkscape:collect="always"
         stdDeviation="4.4800539"
         id="feGaussianBlur58451" />
    </filter>
    <filter
       inkscape:collect="always"
       style="color-interpolation-filters:sRGB"
       id="filter58492"
       x="-0.011999856"
       width="1.0239997"
       y="-0.012000144"
       height="1.0240003">
      <feGaussianBlur
         inkscape:collect="always"
         stdDeviation="1.1200135"
         id="feGaussianBlur58494" />
    </filter>
    <linearGradient
       id="linearGradient16491">
      <stop
         style="stop-color:#f76363;stop-opacity:1"
         offset="0"
         id="stop16487" />
      <stop
         style="stop-color:#f22c42;stop-opacity:1"
         offset="1"
         id="stop16489" />
    </linearGradient>
    <linearGradient
       inkscape:collect="always"
       xlink:href="#linearGradient1018"
       id="linearGradient2054"
       gradientUnits="userSpaceOnUse"
       x1="184"
       y1="164"
       x2="184"
       y2="268" />
    <linearGradient
       inkscape:collect="always"
       id="linearGradient1018">
      <stop
         id="stop1016"
         offset="0"
         style="stop-color:#37a6e6;stop-opacity:1" />
      <stop
         id="stop1014"
         offset="1"
         style="stop-color:#1a7fd4;stop-opacity:1;" />
    </linearGradient>
    <linearGradient
       inkscape:collect="always"
       xlink:href="#linearGradient1013"
       id="linearGradient1108"
       x1="296"
       y1="-212"
       x2="296"
       y2="202.40001"
       gradientUnits="userSpaceOnUse" />
    <linearGradient
       id="linearGradient1013"
       inkscape:collect="always">
      <stop
         id="stop1005"
         offset="0"
         style="stop-color:#ffffff;stop-opacity:1;" />
      <stop
         style="stop-color:#ffffff;stop-opacity:0.09803922"
         offset="0.13513513"
         id="stop1007" />
      <stop
         style="stop-color:#ffffff;stop-opacity:0"
         offset="1"
         id="stop1009" />
    </linearGradient>
    <clipPath
       clipPathUnits="userSpaceOnUse"
       id="clipPath1082-3">
      <path
         sodipodi:nodetypes="sssssssss"
         inkscape:connector-curvature="0"
         id="path1084-6"
         d="M 361.9375,-212 C 507.2348,-212 528,-191.28677 528,-46.125 V 70.125 C 528,215.28618 507.2348,236 361.9375,236 H 214.0625 C 68.7652,236 48,215.28618 48,70.125 V -46.125 C 48,-191.28677 68.7652,-212 214.0625,-212 Z"
         style="display:inline;opacity:1;fill:#8c59d9;fill-opacity:1;stroke:none;stroke-width:2;stroke-linecap:round;stroke-linejoin:round;stroke-miterlimit:4;stroke-dasharray:none;stroke-dashoffset:0;stroke-opacity:1;enable-background:new" />
    </clipPath>
  </defs>
  <metadata
     id="metadata4">
    <rdf:RDF>
      <cc:Work
         rdf:about="">
        <dc:format>image/svg+xml</dc:format>
        <dc:type
           rdf:resource="http://purl.org/dc/dcmitype/StillImage" />
        <dc:creator>
          <cc:Agent>
            <dc:title>Yaru Team, based on the Suru template by Sam Hewitt and original Suru designs by Matthieu James</dc:title>
          </cc:Agent>
        </dc:creator>
        <dc:source />
        <cc:license
           rdf:resource="http://creativecommons.org/licenses/by-sa/4.0/" />
        <dc:title>Yaru Icon Theme Template</dc:title>
        <dc:subject>
          <rdf:Bag />
        </dc:subject>
        <dc:date />
        <dc:rights>
          <cc:Agent>
            <dc:title />
          </cc:Agent>
        </dc:rights>
        <dc:publisher>
          <cc:Agent>
            <dc:title />
          </cc:Agent>
        </dc:publisher>
        <dc:identifier />
        <dc:relation />
        <dc:language />
        <dc:coverage />
        <dc:description />
        <dc:contributor>
          <cc:Agent>
            <dc:title />
          </cc:Agent>
        </dc:contributor>
      </cc:Work>
      <cc:Work
         rdf:about="">
        <dc:format>image/svg+xml</dc:format>
        <dc:type
           rdf:resource="http://purl.org/dc/dcmitype/StillImage" />
      </cc:Work>
      <cc:License
         rdf:about="http://creativecommons.org/licenses/by-sa/4.0/">
        <cc:permits
           rdf:resource="http://creativecommons.org/ns#Reproduction" />
        <cc:permits
           rdf:resource="http://creativecommons.org/ns#Distribution" />
        <cc:requires
           rdf:resource="http://creativecommons.org/ns#Notice" />
        <cc:requires
           rdf:resource="http://creativecommons.org/ns#Attribution" />
        <cc:permits
           rdf:resource="http://creativecommons.org/ns#DerivativeWorks" />
        <cc:requires
           rdf:resource="http://creativecommons.org/ns#ShareAlike" />
      </cc:License>
    </rdf:RDF>
  </metadata>
  <g
     style="display:inline"
     inkscape:groupmode="layer"
     inkscape:label="Icon"
     id="layer1">
    <g
       style="display:none"
       inkscape:label="Baseplate"
       id="layer7"
       inkscape:groupmode="layer">
      <text
         y="-8.2548828"
         xml:space="preserve"
         x="19.006836"
         style="font-style:normal;font-variant:normal;font-weight:normal;font-stretch:normal;line-height:0%;font-family:'DejaVu Sans';-inkscape-font-specification:'DejaVu Sans';display:inline;fill:#000000;fill-opacity:1;stroke:none;enable-background:new"
         inkscape:label="context"
         id="context"><tspan
           style="font-style:normal;font-variant:normal;font-weight:normal;font-stretch:normal;font-size:18px;line-height:1.25;font-family:'DejaVu Sans';-inkscape-font-specification:'DejaVu Sans'"
           y="-8.2548828"
           x="19.006836"
           sodipodi:role="line"
           id="tspan3933">apps</tspan></text>
      <text
         y="-8.2548828"
         xml:space="preserve"
         x="146.48828"
         style="font-style:normal;font-variant:normal;font-weight:bold;font-stretch:normal;line-height:0%;font-family:'DejaVu Sans';-inkscape-font-specification:'DejaVu Sans Bold';text-align:start;writing-mode:lr-tb;text-anchor:start;display:inline;fill:#000000;fill-opacity:1;stroke:none;enable-background:new"
         inkscape:label="icon-name"
         id="icon-name"><tspan
           style="font-style:normal;font-variant:normal;font-weight:bold;font-stretch:normal;font-size:18px;line-height:1.25;font-family:'DejaVu Sans';-inkscape-font-specification:'DejaVu Sans Bold'"
           y="-8.2548828"
           x="146.48828"
           sodipodi:role="line"
           id="tspan3937">amazon-store</tspan></text>
      <rect
         style="display:inline;overflow:visible;visibility:visible;fill:#cdcdcd;fill-opacity:1;fill-rule:nonzero;stroke:none;stroke-width:2;marker:none;enable-background:accumulate"
         id="rect16x16"
         width="16"
         height="16"
         x="320"
         y="236"
         inkscape:label="16x16" />
      <rect
         style="display:inline;overflow:visible;visibility:visible;fill:#cdcdcd;fill-opacity:1;fill-rule:nonzero;stroke:none;stroke-width:2;marker:none;enable-background:accumulate"
         id="rect24x24"
         width="24"
         height="24"
         x="320"
         y="188"
         inkscape:label="24x24" />
      <rect
         style="display:inline;overflow:visible;visibility:visible;fill:#cdcdcd;fill-opacity:1;fill-rule:nonzero;stroke:none;stroke-width:2;marker:none;enable-background:accumulate"
         id="rect32x32"
         width="32"
         height="32"
         x="320"
         y="132"
         inkscape:label="32x32" />
      <rect
         inkscape:label="48x48"
         y="60"
         x="320"
         height="48"
         width="48"
         id="rect48x48"
         style="display:inline;overflow:visible;visibility:visible;fill:#cdcdcd;fill-opacity:1;fill-rule:nonzero;stroke:none;stroke-width:2;marker:none;enable-background:accumulate" />
      <rect
         style="display:inline;overflow:visible;visibility:visible;fill:#cdcdcd;fill-opacity:1;fill-rule:nonzero;stroke:none;stroke-width:2;marker:none;enable-background:accumulate"
         id="rect3951"
         width="256"
         height="256"
         x="24"
         y="28"
         inkscape:label="48x48" />
    </g>
    <g
       inkscape:groupmode="layer"
       id="layer8"
       inkscape:label="Backgrounds"
       style="display:inline">
      <path
         style="color:#000000;display:inline;overflow:visible;visibility:visible;opacity:0.1;fill:#000000;fill-opacity:1;fill-rule:nonzero;stroke:none;stroke-width:1;marker:none;filter:url(#filter58492);enable-background:accumulate"
         d="m 225.07297,44.99999 c 35.29673,0 39.09461,3.62542 38.92162,38.99353 v 73.00647 73.00648 C 264.16758,265.37459 260.3697,269 225.07297,269 H 78.916218 c -35.29671,0 -38.92161,-3.625 -38.92161,-38.99353 V 156.99999 83.99352 c 0,-35.36853 3.6249,-38.99353 38.92161,-38.99353 z"
         id="rect4158-7"
         inkscape:connector-curvature="0"
         sodipodi:nodetypes="scccssscsss" />
      <path
         style="color:#000000;display:inline;overflow:visible;visibility:visible;opacity:0.2;fill:#000000;fill-opacity:1;fill-rule:nonzero;stroke:none;stroke-width:1;marker:none;filter:url(#filter58449);enable-background:accumulate"
         d="m 225.07297,44.99999 c 35.29673,0 39.09461,3.62542 38.92162,38.99353 v 73.00647 73.00648 C 264.16758,265.37459 260.3697,269 225.07297,269 H 78.916218 c -35.29671,0 -38.92161,-3.625 -38.92161,-38.99353 V 156.99999 83.99352 c 0,-35.36853 3.6249,-38.99353 38.92161,-38.99353 z"
         id="rect4158-1"
         inkscape:connector-curvature="0"
         sodipodi:nodetypes="scccssscsss" />
      <path
         style="color:#000000;display:inline;overflow:visible;visibility:visible;opacity:0.1;fill:#000000;fill-opacity:1;fill-rule:nonzero;stroke:none;stroke-width:1;marker:none;enable-background:accumulate"
         d="m 324.12858,237.00001 c -3.74357,0 -4.14638,0.30899 -4.12803,3.32331 v 4.17669 4.17668 c -0.0183,3.01433 0.38446,3.32332 4.12803,3.32332 h 7.74335 c 3.7436,0 4.12805,-0.30895 4.12805,-3.32332 v -4.17668 -4.17669 c 0,-3.01437 -0.38446,-3.32331 -4.12805,-3.32331 z"
         id="path918-2"
         inkscape:connector-curvature="0"
         sodipodi:nodetypes="scccssscsss" />
      <path
         style="color:#000000;font-style:normal;font-variant:normal;font-weight:normal;font-stretch:normal;font-size:medium;line-height:normal;font-family:sans-serif;font-variant-ligatures:normal;font-variant-position:normal;font-variant-caps:normal;font-variant-numeric:normal;font-variant-alternates:normal;font-feature-settings:normal;text-indent:0;text-align:start;text-decoration:none;text-decoration-line:none;text-decoration-style:solid;text-decoration-color:#000000;letter-spacing:normal;word-spacing:normal;text-transform:none;writing-mode:lr-tb;direction:ltr;text-orientation:mixed;dominant-baseline:auto;baseline-shift:baseline;text-anchor:start;white-space:normal;shape-padding:0;clip-rule:nonzero;display:inline;overflow:visible;visibility:visible;opacity:0.1;isolation:auto;mix-blend-mode:normal;color-interpolation:sRGB;color-interpolation-filters:linearRGB;solid-color:#000000;solid-opacity:1;vector-effect:none;fill:#000000;fill-opacity:1;fill-rule:nonzero;stroke:none;stroke-width:2;stroke-linecap:butt;stroke-linejoin:miter;stroke-miterlimit:4;stroke-dasharray:none;stroke-dashoffset:0;stroke-opacity:1;marker:none;color-rendering:auto;image-rendering:auto;shape-rendering:auto;text-rendering:auto;enable-background:accumulate"
         d="m 326.45275,189.00048 c -1.2321,0 -2.21668,0.0221 -3.06999,0.14144 -0.85332,0.11937 -1.62809,0.35533 -2.21066,0.83967 -0.58256,0.48436 -0.86983,1.13381 -1.01188,1.84587 -0.14202,0.71207 -0.16501,1.53239 -0.15897,2.56202 v 7.61066 4.6143 c -0.006,1.02762 0.0171,1.84735 0.15897,2.55843 0.14203,0.71208 0.42931,1.36152 1.01188,1.84587 0.58258,0.48434 1.35734,0.7203 2.21066,0.83967 0.85331,0.11936 1.83789,0.14144 3.06999,0.14144 h 11.09542 c 1.2321,0 2.21381,-0.022 3.0657,-0.14144 0.85187,-0.11947 1.62795,-0.35683 2.2085,-0.84146 0.58057,-0.48464 0.86451,-1.13152 1.00758,-1.84228 0.14307,-0.71077 0.16972,-1.5314 0.16972,-2.56023 v -4.61429 -7.61425 c 0,-1.02883 -0.0266,-1.84946 -0.16972,-2.56023 -0.14307,-0.71076 -0.42701,-1.35765 -1.00758,-1.84228 -0.58055,-0.48464 -1.35661,-0.722 -2.2085,-0.84147 -0.8519,-0.11947 -1.83359,-0.14144 -3.0657,-0.14144 z"
         id="path995"
         inkscape:connector-curvature="0"
         sodipodi:nodetypes="sccccccccssscccscscccss" />
      <path
         style="color:#000000;font-style:normal;font-variant:normal;font-weight:normal;font-stretch:normal;font-size:medium;line-height:normal;font-family:sans-serif;font-variant-ligatures:normal;font-variant-position:normal;font-variant-caps:normal;font-variant-numeric:normal;font-variant-alternates:normal;font-feature-settings:normal;text-indent:0;text-align:start;text-decoration:none;text-decoration-line:none;text-decoration-style:solid;text-decoration-color:#000000;letter-spacing:normal;word-spacing:normal;text-transform:none;writing-mode:lr-tb;direction:ltr;text-orientation:mixed;dominant-baseline:auto;baseline-shift:baseline;text-anchor:start;white-space:normal;shape-padding:0;clip-rule:nonzero;display:inline;overflow:visible;visibility:visible;opacity:0.1;isolation:auto;mix-blend-mode:normal;color-interpolation:sRGB;color-interpolation-filters:linearRGB;solid-color:#000000;solid-opacity:1;vector-effect:none;fill:#000000;fill-opacity:1;fill-rule:nonzero;stroke:none;stroke-width:2;stroke-linecap:butt;stroke-linejoin:miter;stroke-miterlimit:4;stroke-dasharray:none;stroke-dashoffset:0;stroke-opacity:1;marker:none;color-rendering:auto;image-rendering:auto;shape-rendering:auto;text-rendering:auto;enable-background:accumulate"
         d="m 329.30094,134 c -1.63949,0 -2.94082,0.0308 -4.04505,0.19141 -1.10422,0.16064 -2.06697,0.4726 -2.78308,1.09179 -0.71611,0.61919 -1.0805,1.45612 -1.26421,2.41407 -0.18374,0.95795 -0.21537,2.08705 -0.20733,3.51171 V 149 v 7.79688 c -0.009,1.42131 0.0239,2.5495 0.20733,3.50585 0.18371,0.95796 0.5481,1.79488 1.26421,2.41407 0.71611,0.61919 1.67886,0.93115 2.78308,1.09179 1.10423,0.16065 2.40556,0.19141 4.04505,0.19141 h 13.40164 c 1.63949,0 2.93835,-0.0307 4.04054,-0.19141 1.10219,-0.16075 2.06274,-0.47425 2.77633,-1.09375 0.71357,-0.6195 1.07457,-1.45363 1.25969,-2.41015 C 350.96429,159.34816 351,158.22066 351,156.79688 V 149 141.20312 c 0,-1.42378 -0.0358,-2.55128 -0.22086,-3.50781 -0.18512,-0.95653 -0.54612,-1.79065 -1.25969,-2.41015 -0.71359,-0.61951 -1.67414,-0.933 -2.77633,-1.09375 C 345.64093,134.03065 344.34207,134 342.70258,134 Z"
         id="path999"
         inkscape:connector-curvature="0"
         sodipodi:nodetypes="scscccccscsscccscscscss" />
      <path
         style="color:#000000;font-style:normal;font-variant:normal;font-weight:normal;font-stretch:normal;font-size:medium;line-height:normal;font-family:sans-serif;font-variant-ligatures:normal;font-variant-position:normal;font-variant-caps:normal;font-variant-numeric:normal;font-variant-alternates:normal;font-feature-settings:normal;text-indent:0;text-align:start;text-decoration:none;text-decoration-line:none;text-decoration-style:solid;text-decoration-color:#000000;letter-spacing:normal;word-spacing:normal;text-transform:none;writing-mode:lr-tb;direction:ltr;text-orientation:mixed;dominant-baseline:auto;baseline-shift:baseline;text-anchor:start;white-space:normal;shape-padding:0;clip-rule:nonzero;display:inline;overflow:visible;visibility:visible;opacity:0.1;isolation:auto;mix-blend-mode:normal;color-interpolation:sRGB;color-interpolation-filters:linearRGB;solid-color:#000000;solid-opacity:1;vector-effect:none;fill:#000000;fill-opacity:1;fill-rule:nonzero;stroke:none;stroke-width:2.00000024;stroke-linecap:butt;stroke-linejoin:miter;stroke-miterlimit:4;stroke-dasharray:none;stroke-dashoffset:0;stroke-opacity:1;marker:none;color-rendering:auto;image-rendering:auto;shape-rendering:auto;text-rendering:auto;enable-background:accumulate"
         d="m 333.65776,62 c -2.6221,0 -4.68675,0.05009 -6.38561,0.286735 -1.69887,0.236639 -3.08904,0.680503 -4.10735,1.523515 -1.0183,0.843013 -1.55577,1.996072 -1.83828,3.406406 -0.28252,1.410336 -0.33767,3.127346 -0.32482,5.308412 v 12.474816 12.480783 c -0.0127,2.177715 0.0426,3.893853 0.32482,5.302673 0.28251,1.41034 0.81998,2.5634 1.83828,3.40641 1.01831,0.84301 2.40848,1.28688 4.10735,1.52351 1.69888,0.23665 3.76351,0.28674 6.38561,0.28674 h 20.68618 c 2.62213,0 4.68568,-0.05 6.38104,-0.28674 1.69534,-0.23674 3.08126,-0.6821 4.09581,-1.52542 1.01457,-0.84331 1.54885,-1.99555 1.83367,-3.4045 C 366.93929,101.37441 367,99.660878 367,97.480667 V 84.999884 72.519333 c 0,-2.180211 -0.0608,-3.893733 -0.34554,-5.302677 -0.28482,-1.408942 -0.81911,-2.561177 -1.83368,-3.404494 -1.01455,-0.843317 -2.40047,-1.288685 -4.09582,-1.525427 C 359.02962,62.049992 356.96605,62 354.34394,62 Z"
         id="path1020"
         inkscape:connector-curvature="0"
         sodipodi:nodetypes="sccsccccccsscccscsccsss" />
      <path
         style="color:#000000;display:inline;overflow:visible;visibility:visible;fill:url(#linearGradient1686);fill-opacity:1.0;fill-rule:nonzero;stroke:none;stroke-width:1;marker:none;enable-background:accumulate"
         d="m 333.33517,61.500049 c -10.01116,0 -11.88667,0.90635 -11.83407,9.74838 v 12.75157 12.75181 c -0.0527,8.842031 1.82291,9.748381 11.83407,9.748381 h 21.3308 c 10.00866,0 11.83405,-0.90625 11.83405,-9.748381 v -12.75181 -12.75157 c 0,-8.84213 -1.82539,-9.74838 -11.83406,-9.74838 z"
         id="path964"
         inkscape:connector-curvature="0"
         sodipodi:nodetypes="scccssscsss" />
      <path
         style="color:#000000;display:inline;overflow:visible;visibility:visible;fill:url(#linearGradient1694);fill-opacity:1;fill-rule:nonzero;stroke:none;stroke-width:1;marker:none;enable-background:accumulate"
         d="m 225.07297,43.999694 c 35.29673,0 39.09461,3.62542 38.92162,38.99353 v 73.006466 73.00648 c 0.17299,35.36812 -3.62489,38.99353 -38.92162,38.99353 H 78.916218 c -35.29671,0 -38.92161,-3.625 -38.92161,-38.99353 V 155.99969 82.993224 c 0,-35.36853 3.6249,-38.99353 38.92161,-38.99353 z"
         id="rect4158"
         inkscape:connector-curvature="0"
         sodipodi:nodetypes="scccssscsss" />
      <path
         sodipodi:nodetypes="scccssscsss"
         inkscape:connector-curvature="0"
         id="path914"
         d="m 326.17688,188.49945 c -5.14666,0 -5.70043,0.43262 -5.67521,4.65309 v 5.84793 7.84761 c -0.0253,4.22046 0.52855,4.65307 5.67521,4.65307 h 11.64568 c 5.14665,0 5.67521,-0.43255 5.67521,-4.65307 v -7.84761 -5.84793 c 0,-4.22051 -0.52857,-4.65309 -5.67522,-4.65309 z"
         style="color:#000000;display:inline;overflow:visible;visibility:visible;fill:url(#linearGradient1690);fill-opacity:1.0;fill-rule:nonzero;stroke:none;stroke-width:0.99999988;marker:none;enable-background:accumulate" />
      <path
         style="color:#000000;display:inline;overflow:visible;visibility:visible;fill:url(#linearGradient1692);fill-opacity:1.0;fill-rule:nonzero;stroke:none;stroke-width:1;marker:none;enable-background:accumulate"
         d="m 324.4056,236.50001 c -3.47604,0 -3.85006,0.30899 -3.83302,3.32331 v 4.17669 4.17668 c -0.017,3.01433 0.35698,3.32332 3.83302,3.32332 h 7.18996 c 3.47605,0 3.83303,-0.30895 3.83303,-3.32332 v -4.17668 -4.17669 c 0,-3.01436 -0.35699,-3.32331 -3.83303,-3.32331 z"
         id="path918"
         inkscape:connector-curvature="0"
         sodipodi:nodetypes="scccssscsss" />
      <path
         style="color:#000000;display:inline;overflow:visible;visibility:visible;fill:url(#linearGradient1688);fill-opacity:1.0;fill-rule:nonzero;stroke:none;stroke-width:1;marker:none;enable-background:accumulate"
         d="m 329.12711,133.5 c -6.45163,0 -7.6603,0.58409 -7.62639,6.28227 v 8.21765 8.21781 c -0.034,5.69818 1.17476,6.28227 7.62639,6.28227 h 13.74651 c 6.45003,0 7.62639,-0.58403 7.62639,-6.28227 v -8.21781 -8.21765 c 0,-5.69824 -1.17636,-6.28227 -7.62639,-6.28227 z"
         id="path964-7"
         inkscape:connector-curvature="0"
         sodipodi:nodetypes="scccssscsss" />
    </g>
    <g
       inkscape:groupmode="layer"
       id="layer6"
       inkscape:label="Pictograms and folds"
       style="display:inline">
      <path
         sodipodi:nodetypes="sssssssss"
         inkscape:connector-curvature="0"
         id="path1068"
         d="M 361.9375,-212 C 507.2348,-212 528,-191.28677 528,-46.125 V 70.125 C 528,215.28618 507.2348,236 361.9375,236 H 214.0625 C 68.7652,236 48,215.28618 48,70.125 V -46.125 C 48,-191.28677 68.7652,-212 214.0625,-212 Z"
         style="display:inline;opacity:0.5;fill:none;fill-opacity:1;stroke:url(#linearGradient1108);stroke-width:8;stroke-linecap:round;stroke-linejoin:round;stroke-miterlimit:4;stroke-dasharray:none;stroke-dashoffset:0;stroke-opacity:1;enable-background:new"
         clip-path="url(#clipPath1082-3)"
         transform="matrix(0.5,0,0,0.5,8,150)" />
      <g
         transform="matrix(0.04773998,0,0,0.04773998,329.4677,64.785855)"
         id="g916"
         style="display:inline;stroke-width:5.49271107;enable-background:new">
        <path
           style="fill:#050606;stroke-width:5.49271107"
           inkscape:connector-curvature="0"
           d="m 443.342,337.31 c 0,19.962 0.717,39.804 -0.239,59.766 -0.956,22.711 5.977,42.194 20.32,59.406 1.673,2.032 3.228,4.064 4.661,6.216 5.141,7.77 4.184,13.148 -2.868,19.125 -15.062,12.671 -30.003,25.46 -45.063,38.131 -8.965,7.53 -14.583,7.411 -23.667,0 -12.192,-9.921 -21.755,-22.113 -30.241,-35.143 -2.032,-3.107 -3.108,-2.988 -5.618,-0.598 -15.062,14.702 -30.959,28.329 -51.159,35.143 -31.198,10.638 -62.874,12.312 -94.191,1.195 -30.122,-10.758 -48.171,-32.991 -54.865,-63.949 -7.411,-34.545 -3.586,-67.416 17.69,-96.701 16.137,-22.113 38.489,-35.142 64.188,-43.15 26.536,-8.128 53.908,-11.236 81.4,-13.985 7.77,-0.837 15.42,-1.554 23.189,-2.271 1.912,-0.12 3.586,-0.359 3.466,-2.869 -0.238,-12.67 1.076,-25.58 -1.912,-38.011 -3.825,-15.897 -14.225,-25.221 -30.122,-28.688 -11.355,-2.51 -22.591,-1.793 -33.588,1.913 -16.734,5.737 -27.134,17.332 -31.317,34.544 -2.271,9.443 -6.694,12.79 -15.898,11.833 -19.603,-2.032 -39.206,-4.064 -58.689,-6.096 -8.009,-0.837 -12.192,-6.933 -10.519,-14.703 10.16,-49.605 42.673,-77.456 89.529,-90.246 35.979,-9.801 72.436,-10.399 108.534,-0.239 29.046,8.128 53.431,22.472 67.057,50.92 7.77,16.137 9.563,33.588 9.802,51.04 0.239,22.354 0,44.945 0.12,67.417 -0.12,0 0,0 0,0 z m -92.996,37.294 c 0,-5.977 -0.238,-11.953 0.12,-17.93 0.239,-3.706 -1.076,-5.021 -4.781,-4.662 -9.085,0.836 -18.288,0.956 -27.373,2.151 -15.897,2.032 -31.437,5.977 -44.346,16.017 -18.767,14.703 -22.711,34.784 -19.604,57.375 3.706,26.535 27.373,41.238 52.714,32.393 17.212,-5.977 27.73,-18.646 35.022,-34.545 7.65,-16.135 8.248,-33.467 8.248,-50.799 z"
           id="path909" />
        <path
           style="fill:#f6a61f;stroke-width:5.49271107"
           inkscape:connector-curvature="0"
           d="M 306.119,644.386 C 214.917,643.788 133.038,620.361 59.048,570.994 43.987,560.953 29.643,549.956 16.017,537.884 c -1.195,-1.076 -2.391,-2.151 -3.347,-3.467 -1.315,-1.793 -2.271,-3.944 -0.717,-6.096 1.554,-2.391 4.184,-2.63 6.455,-1.554 5.259,2.51 10.28,5.259 15.419,7.889 47.096,24.862 96.701,42.792 148.697,54.147 47.095,10.28 94.668,15.062 142.959,13.746 68.97,-1.912 135.429,-15.778 199.378,-41.478 3.108,-1.314 6.336,-2.629 9.563,-3.347 4.543,-0.837 9.085,-0.239 11.117,4.662 1.912,4.542 -0.598,8.128 -3.945,10.997 -2.391,2.031 -5.14,3.705 -7.889,5.498 -41.238,26.775 -86.421,43.987 -134.233,54.626 -31.557,7.174 -63.591,10.639 -93.355,10.879 z"
           id="path912" />
        <path
           style="fill:#f6a61f;stroke-width:5.49271107"
           inkscape:connector-curvature="0"
           d="m 536.217,537.884 c -13.746,-0.12 -27.372,1.673 -40.999,3.107 -2.63,0.239 -5.618,0.956 -6.813,-1.912 -1.434,-3.228 1.315,-5.14 3.586,-6.694 16.974,-11.235 35.979,-15.658 55.941,-16.734 13.746,-0.836 27.372,-0.238 40.76,3.825 6.096,1.793 9.084,5.379 8.965,11.595 -0.717,33.229 -11.834,62.156 -35.859,85.704 -0.837,0.837 -1.793,1.554 -2.749,2.271 -2.151,1.555 -4.781,2.988 -7.053,1.076 -2.151,-1.793 -0.956,-4.423 0,-6.574 7.053,-17.571 14.225,-35.022 17.69,-53.789 0.479,-2.391 0.598,-4.781 0.718,-7.053 0.119,-7.77 -2.63,-11.116 -10.28,-13.028 -8.009,-2.153 -16.018,-1.794 -23.907,-1.794 z"
           id="path914-3" />
      </g>
      <g
         style="display:inline;stroke-width:6.99072218;enable-background:new"
         id="g924"
         transform="matrix(0.03750999,0,0,0.03750999,324.58177,132.90317)">
        <path
           id="path918-7"
           d="m 443.342,337.31 c 0,19.962 0.717,39.804 -0.239,59.766 -0.956,22.711 5.977,42.194 20.32,59.406 1.673,2.032 3.228,4.064 4.661,6.216 5.141,7.77 4.184,13.148 -2.868,19.125 -15.062,12.671 -30.003,25.46 -45.063,38.131 -8.965,7.53 -14.583,7.411 -23.667,0 -12.192,-9.921 -21.755,-22.113 -30.241,-35.143 -2.032,-3.107 -3.108,-2.988 -5.618,-0.598 -15.062,14.702 -30.959,28.329 -51.159,35.143 -31.198,10.638 -62.874,12.312 -94.191,1.195 -30.122,-10.758 -48.171,-32.991 -54.865,-63.949 -7.411,-34.545 -3.586,-67.416 17.69,-96.701 16.137,-22.113 38.489,-35.142 64.188,-43.15 26.536,-8.128 53.908,-11.236 81.4,-13.985 7.77,-0.837 15.42,-1.554 23.189,-2.271 1.912,-0.12 3.586,-0.359 3.466,-2.869 -0.238,-12.67 1.076,-25.58 -1.912,-38.011 -3.825,-15.897 -14.225,-25.221 -30.122,-28.688 -11.355,-2.51 -22.591,-1.793 -33.588,1.913 -16.734,5.737 -27.134,17.332 -31.317,34.544 -2.271,9.443 -6.694,12.79 -15.898,11.833 -19.603,-2.032 -39.206,-4.064 -58.689,-6.096 -8.009,-0.837 -12.192,-6.933 -10.519,-14.703 10.16,-49.605 42.673,-77.456 89.529,-90.246 35.979,-9.801 72.436,-10.399 108.534,-0.239 29.046,8.128 53.431,22.472 67.057,50.92 7.77,16.137 9.563,33.588 9.802,51.04 0.239,22.354 0,44.945 0.12,67.417 -0.12,0 0,0 0,0 z m -92.996,37.294 c 0,-5.977 -0.238,-11.953 0.12,-17.93 0.239,-3.706 -1.076,-5.021 -4.781,-4.662 -9.085,0.836 -18.288,0.956 -27.373,2.151 -15.897,2.032 -31.437,5.977 -44.346,16.017 -18.767,14.703 -22.711,34.784 -19.604,57.375 3.706,26.535 27.373,41.238 52.714,32.393 17.212,-5.977 27.73,-18.646 35.022,-34.545 7.65,-16.135 8.248,-33.467 8.248,-50.799 z"
           inkscape:connector-curvature="0"
           style="fill:#050606;stroke-width:6.99072218" />
        <path
           id="path920"
           d="M 306.119,644.386 C 214.917,643.788 133.038,620.361 59.048,570.994 43.987,560.953 29.643,549.956 16.017,537.884 c -1.195,-1.076 -2.391,-2.151 -3.347,-3.467 -1.315,-1.793 -2.271,-3.944 -0.717,-6.096 1.554,-2.391 4.184,-2.63 6.455,-1.554 5.259,2.51 10.28,5.259 15.419,7.889 47.096,24.862 96.701,42.792 148.697,54.147 47.095,10.28 94.668,15.062 142.959,13.746 68.97,-1.912 135.429,-15.778 199.378,-41.478 3.108,-1.314 6.336,-2.629 9.563,-3.347 4.543,-0.837 9.085,-0.239 11.117,4.662 1.912,4.542 -0.598,8.128 -3.945,10.997 -2.391,2.031 -5.14,3.705 -7.889,5.498 -41.238,26.775 -86.421,43.987 -134.233,54.626 -31.557,7.174 -63.591,10.639 -93.355,10.879 z"
           inkscape:connector-curvature="0"
           style="fill:#f6a61f;stroke-width:6.99072218" />
        <path
           id="path922"
           d="m 536.217,537.884 c -13.746,-0.12 -27.372,1.673 -40.999,3.107 -2.63,0.239 -5.618,0.956 -6.813,-1.912 -1.434,-3.228 1.315,-5.14 3.586,-6.694 16.974,-11.235 35.979,-15.658 55.941,-16.734 13.746,-0.836 27.372,-0.238 40.76,3.825 6.096,1.793 9.084,5.379 8.965,11.595 -0.717,33.229 -11.834,62.156 -35.859,85.704 -0.837,0.837 -1.793,1.554 -2.749,2.271 -2.151,1.555 -4.781,2.988 -7.053,1.076 -2.151,-1.793 -0.956,-4.423 0,-6.574 7.053,-17.571 14.225,-35.022 17.69,-53.789 0.479,-2.391 0.598,-4.781 0.718,-7.053 0.119,-7.77 -2.63,-11.116 -10.28,-13.028 -8.009,-2.153 -16.018,-1.794 -23.907,-1.794 z"
           inkscape:connector-curvature="0"
           style="fill:#f6a61f;stroke-width:6.99072218" />
      </g>
      <g
         transform="matrix(0.02727999,0,0,0.02727999,323.69583,189.02064)"
         id="g932"
         style="display:inline;stroke-width:9.61224461;enable-background:new">
        <path
           style="fill:#050606;stroke-width:9.61224461"
           inkscape:connector-curvature="0"
           d="m 443.342,337.31 c 0,19.962 0.717,39.804 -0.239,59.766 -0.956,22.711 5.977,42.194 20.32,59.406 1.673,2.032 3.228,4.064 4.661,6.216 5.141,7.77 4.184,13.148 -2.868,19.125 -15.062,12.671 -30.003,25.46 -45.063,38.131 -8.965,7.53 -14.583,7.411 -23.667,0 -12.192,-9.921 -21.755,-22.113 -30.241,-35.143 -2.032,-3.107 -3.108,-2.988 -5.618,-0.598 -15.062,14.702 -30.959,28.329 -51.159,35.143 -31.198,10.638 -62.874,12.312 -94.191,1.195 -30.122,-10.758 -48.171,-32.991 -54.865,-63.949 -7.411,-34.545 -3.586,-67.416 17.69,-96.701 16.137,-22.113 38.489,-35.142 64.188,-43.15 26.536,-8.128 53.908,-11.236 81.4,-13.985 7.77,-0.837 15.42,-1.554 23.189,-2.271 1.912,-0.12 3.586,-0.359 3.466,-2.869 -0.238,-12.67 1.076,-25.58 -1.912,-38.011 -3.825,-15.897 -14.225,-25.221 -30.122,-28.688 -11.355,-2.51 -22.591,-1.793 -33.588,1.913 -16.734,5.737 -27.134,17.332 -31.317,34.544 -2.271,9.443 -6.694,12.79 -15.898,11.833 -19.603,-2.032 -39.206,-4.064 -58.689,-6.096 -8.009,-0.837 -12.192,-6.933 -10.519,-14.703 10.16,-49.605 42.673,-77.456 89.529,-90.246 35.979,-9.801 72.436,-10.399 108.534,-0.239 29.046,8.128 53.431,22.472 67.057,50.92 7.77,16.137 9.563,33.588 9.802,51.04 0.239,22.354 0,44.945 0.12,67.417 -0.12,0 0,0 0,0 z m -92.996,37.294 c 0,-5.977 -0.238,-11.953 0.12,-17.93 0.239,-3.706 -1.076,-5.021 -4.781,-4.662 -9.085,0.836 -18.288,0.956 -27.373,2.151 -15.897,2.032 -31.437,5.977 -44.346,16.017 -18.767,14.703 -22.711,34.784 -19.604,57.375 3.706,26.535 27.373,41.238 52.714,32.393 17.212,-5.977 27.73,-18.646 35.022,-34.545 7.65,-16.135 8.248,-33.467 8.248,-50.799 z"
           id="path926" />
        <path
           style="fill:#f6a61f;stroke-width:9.61224461"
           inkscape:connector-curvature="0"
           d="M 306.119,644.386 C 214.917,643.788 133.038,620.361 59.048,570.994 43.987,560.953 29.643,549.956 16.017,537.884 c -1.195,-1.076 -2.391,-2.151 -3.347,-3.467 -1.315,-1.793 -2.271,-3.944 -0.717,-6.096 1.554,-2.391 4.184,-2.63 6.455,-1.554 5.259,2.51 10.28,5.259 15.419,7.889 47.096,24.862 96.701,42.792 148.697,54.147 47.095,10.28 94.668,15.062 142.959,13.746 68.97,-1.912 135.429,-15.778 199.378,-41.478 3.108,-1.314 6.336,-2.629 9.563,-3.347 4.543,-0.837 9.085,-0.239 11.117,4.662 1.912,4.542 -0.598,8.128 -3.945,10.997 -2.391,2.031 -5.14,3.705 -7.889,5.498 -41.238,26.775 -86.421,43.987 -134.233,54.626 -31.557,7.174 -63.591,10.639 -93.355,10.879 z"
           id="path928" />
        <path
           style="fill:#f6a61f;stroke-width:9.61224461"
           inkscape:connector-curvature="0"
           d="m 536.217,537.884 c -13.746,-0.12 -27.372,1.673 -40.999,3.107 -2.63,0.239 -5.618,0.956 -6.813,-1.912 -1.434,-3.228 1.315,-5.14 3.586,-6.694 16.974,-11.235 35.979,-15.658 55.941,-16.734 13.746,-0.836 27.372,-0.238 40.76,3.825 6.096,1.793 9.084,5.379 8.965,11.595 -0.717,33.229 -11.834,62.156 -35.859,85.704 -0.837,0.837 -1.793,1.554 -2.749,2.271 -2.151,1.555 -4.781,2.988 -7.053,1.076 -2.151,-1.793 -0.956,-4.423 0,-6.574 7.053,-17.571 14.225,-35.022 17.69,-53.789 0.479,-2.391 0.598,-4.781 0.718,-7.053 0.119,-7.77 -2.63,-11.116 -10.28,-13.028 -8.009,-2.153 -16.018,-1.794 -23.907,-1.794 z"
           id="path930" />
      </g>
      <g
         style="display:inline;stroke-width:15.37959194;enable-background:new"
         id="g940"
         transform="matrix(0.01704999,0,0,0.01704999,322.80989,236.63781)">
        <path
           id="path934"
           d="m 443.342,337.31 c 0,19.962 0.717,39.804 -0.239,59.766 -0.956,22.711 5.977,42.194 20.32,59.406 1.673,2.032 3.228,4.064 4.661,6.216 5.141,7.77 4.184,13.148 -2.868,19.125 -15.062,12.671 -30.003,25.46 -45.063,38.131 -8.965,7.53 -14.583,7.411 -23.667,0 -12.192,-9.921 -21.755,-22.113 -30.241,-35.143 -2.032,-3.107 -3.108,-2.988 -5.618,-0.598 -15.062,14.702 -30.959,28.329 -51.159,35.143 -31.198,10.638 -62.874,12.312 -94.191,1.195 -30.122,-10.758 -48.171,-32.991 -54.865,-63.949 -7.411,-34.545 -3.586,-67.416 17.69,-96.701 16.137,-22.113 38.489,-35.142 64.188,-43.15 26.536,-8.128 53.908,-11.236 81.4,-13.985 7.77,-0.837 15.42,-1.554 23.189,-2.271 1.912,-0.12 3.586,-0.359 3.466,-2.869 -0.238,-12.67 1.076,-25.58 -1.912,-38.011 -3.825,-15.897 -14.225,-25.221 -30.122,-28.688 -11.355,-2.51 -22.591,-1.793 -33.588,1.913 -16.734,5.737 -27.134,17.332 -31.317,34.544 -2.271,9.443 -6.694,12.79 -15.898,11.833 -19.603,-2.032 -39.206,-4.064 -58.689,-6.096 -8.009,-0.837 -12.192,-6.933 -10.519,-14.703 10.16,-49.605 42.673,-77.456 89.529,-90.246 35.979,-9.801 72.436,-10.399 108.534,-0.239 29.046,8.128 53.431,22.472 67.057,50.92 7.77,16.137 9.563,33.588 9.802,51.04 0.239,22.354 0,44.945 0.12,67.417 -0.12,0 0,0 0,0 z m -92.996,37.294 c 0,-5.977 -0.238,-11.953 0.12,-17.93 0.239,-3.706 -1.076,-5.021 -4.781,-4.662 -9.085,0.836 -18.288,0.956 -27.373,2.151 -15.897,2.032 -31.437,5.977 -44.346,16.017 -18.767,14.703 -22.711,34.784 -19.604,57.375 3.706,26.535 27.373,41.238 52.714,32.393 17.212,-5.977 27.73,-18.646 35.022,-34.545 7.65,-16.135 8.248,-33.467 8.248,-50.799 z"
           inkscape:connector-curvature="0"
           style="fill:#050606;stroke-width:15.37959194" />
        <path
           id="path936"
           d="M 306.119,644.386 C 214.917,643.788 133.038,620.361 59.048,570.994 43.987,560.953 29.643,549.956 16.017,537.884 c -1.195,-1.076 -2.391,-2.151 -3.347,-3.467 -1.315,-1.793 -2.271,-3.944 -0.717,-6.096 1.554,-2.391 4.184,-2.63 6.455,-1.554 5.259,2.51 10.28,5.259 15.419,7.889 47.096,24.862 96.701,42.792 148.697,54.147 47.095,10.28 94.668,15.062 142.959,13.746 68.97,-1.912 135.429,-15.778 199.378,-41.478 3.108,-1.314 6.336,-2.629 9.563,-3.347 4.543,-0.837 9.085,-0.239 11.117,4.662 1.912,4.542 -0.598,8.128 -3.945,10.997 -2.391,2.031 -5.14,3.705 -7.889,5.498 -41.238,26.775 -86.421,43.987 -134.233,54.626 -31.557,7.174 -63.591,10.639 -93.355,10.879 z"
           inkscape:connector-curvature="0"
           style="fill:#f6a61f;stroke-width:15.37959194" />
        <path
           id="path938"
           d="m 536.217,537.884 c -13.746,-0.12 -27.372,1.673 -40.999,3.107 -2.63,0.239 -5.618,0.956 -6.813,-1.912 -1.434,-3.228 1.315,-5.14 3.586,-6.694 16.974,-11.235 35.979,-15.658 55.941,-16.734 13.746,-0.836 27.372,-0.238 40.76,3.825 6.096,1.793 9.084,5.379 8.965,11.595 -0.717,33.229 -11.834,62.156 -35.859,85.704 -0.837,0.837 -1.793,1.554 -2.749,2.271 -2.151,1.555 -4.781,2.988 -7.053,1.076 -2.151,-1.793 -0.956,-4.423 0,-6.574 7.053,-17.571 14.225,-35.022 17.69,-53.789 0.479,-2.391 0.598,-4.781 0.718,-7.053 0.119,-7.77 -2.63,-11.116 -10.28,-13.028 -8.009,-2.153 -16.018,-1.794 -23.907,-1.794 z"
           inkscape:connector-curvature="0"
           style="fill:#f6a61f;stroke-width:15.37959194" />
      </g>
      <g
         transform="matrix(0.28558167,0,0,0.28558167,109.29876,-91.48719)"
         id="g845"
         style="display:inline;stroke-width:3.50162554;enable-background:new">
        <path
           inkscape:connector-curvature="0"
           style="fill:#ff9900;fill-opacity:1;fill-rule:evenodd;stroke:none;stroke-width:3.50162554"
           id="path8"
           d="m 222.02642,784.73404 c -34.99948,25.79739 -85.72909,39.56123 -129.406339,39.56123 -61.24255,0 -116.37656,-22.65135 -158.08757,-60.32496 -3.2771,-2.96252 -0.34083,-6.9999 3.59171,-4.69283 45.01431,26.19064 100.67269,41.94697 158.16623,41.94697 38.774689,0 81.429499,-8.02237 120.649899,-24.67006 5.92501,-2.51683 10.87999,3.88009 5.08607,8.17965" />
        <path
           inkscape:connector-curvature="0"
           style="fill:#ff9900;fill-opacity:1;fill-rule:evenodd;stroke:none;stroke-width:3.50162554"
           id="path10"
           d="m 236.57678,768.08635 c -4.45688,-5.71527 -29.57261,-2.70033 -40.84585,-1.36327 -3.43442,0.41947 -3.95874,-2.56925 -0.86517,-4.71905 20.00346,-14.07844 52.82696,-10.01483 56.65462,-5.2958 3.82764,4.74526 -0.99624,37.64741 -19.79373,53.35128 -2.88385,2.41195 -5.63662,1.12734 -4.35198,-2.07113 4.2209,-10.53917 13.68519,-34.16054 9.20211,-39.90203" />
        <path
           inkscape:connector-curvature="0"
           style="fill:#221f1f;fill-rule:evenodd;stroke:none;stroke-width:3.50162554"
           id="path12"
           d="m 196.51744,662.61598 v -13.68519 c 0,-2.07113 1.57301,-3.46062 3.46062,-3.46062 h 61.26875 c 1.96628,0 3.53929,1.41571 3.53929,3.46062 v 11.71893 c -0.0262,1.96626 -1.67788,4.53551 -4.61418,8.59912 l -31.74859,45.32893 c 11.79759,-0.28837 24.25059,1.46814 34.94706,7.49802 2.41195,1.36327 3.06737,3.35575 3.25089,5.32203 v 14.60278 c 0,1.99248 -2.20222,4.32576 -4.5093,3.1198 -18.84992,-9.88376 -43.887,-10.95865 -64.72939,0.10487 -2.12356,1.15354 -4.35199,-1.15354 -4.35199,-3.14602 v -13.86871 c 0,-2.22843 0.0262,-6.02989 2.25463,-9.41186 l 36.78224,-52.74829 h -32.01076 c -1.96626,0 -3.53927,-1.38948 -3.53927,-3.43441" />
        <path
           inkscape:connector-curvature="0"
           style="fill:#221f1f;fill-rule:evenodd;stroke:none;stroke-width:3.50162554"
           id="path14"
           d="m -26.981169,748.00424 h -18.64017 c -1.78273,-0.13107 -3.19845,-1.46813 -3.32954,-3.17224 v -95.66524 c 0,-1.91383 1.59923,-3.43442 3.59171,-3.43442 h 17.38176 c 1.80898,0.0786 3.25089,1.46814 3.38199,3.19845 v 12.50545 h 0.34082 c 4.53551,-12.08598 13.05597,-17.7226 24.53896043,-17.7226 11.66648957,0 18.95476957,5.63662 24.19813957,17.7226 4.5093,-12.08598 14.76008,-17.7226 25.74495,-17.7226 7.81262,0 16.35931,3.22467 21.57646,10.46052 5.89879,8.04857 4.69281,19.74128 4.69281,29.99208 l -0.02621,60.37739 c 0,1.91383 -1.59923,3.46061 -3.59171,3.46061 h -18.61397 c -1.86138,-0.13107 -3.35574,-1.62543 -3.35574,-3.46061 v -50.70338 c 0,-4.03739 0.36702,-14.10466 -0.52434,-17.93233 -1.38949,-6.42311 -5.55797,-8.23209 -10.95865,-8.23209 -4.5093,0 -9.22833,3.01494 -11.14216,7.83885 -1.91383,4.8239 -1.73031,12.89867 -1.73031,18.32557 v 50.70338 c 0,1.91383 -1.59923,3.46061 -3.59171,3.46061 H 4.3479714 c -1.88761,-0.13107 -3.35575997,-1.62543 -3.35575997,-3.46061 l -0.02621,-50.70338 c 0,-10.67025 1.75650997,-26.37415 -11.48298043,-26.37415 -13.39682,0 -12.87248,15.31063 -12.87248,26.37415 v 50.70338 c 0,1.91383 -1.59923,3.46061 -3.59171,3.46061" />
        <path
           inkscape:connector-curvature="0"
           style="fill:#221f1f;fill-rule:evenodd;stroke:none;stroke-width:3.50162554"
           id="path16"
           d="m 317.53439,643.71364 c 27.65877,0 42.62858,23.75246 42.62858,53.95427 0,29.17934 -16.54284,52.32881 -42.62858,52.32881 -27.16066,0 -41.94697,-23.75246 -41.94697,-53.35127 0,-29.78234 14.96983,-52.93181 41.94697,-52.93181 m 0.15729,19.53156 c -13.73761,0 -14.60278,18.71881 -14.60278,30.38532 0,11.69271 -0.18352,36.65114 14.44549,36.65114 14.44548,0 15.12712,-20.13452 15.12712,-32.40403 0,-8.07477 -0.34082,-17.72257 -2.779,-25.3779 -2.09735,-6.65906 -6.26581,-9.25453 -12.19083,-9.25453" />
        <path
           inkscape:connector-curvature="0"
           style="fill:#221f1f;fill-rule:evenodd;stroke:none;stroke-width:3.50162554"
           id="path18"
           d="M 396.02762,748.00424 H 377.4661 c -1.86141,-0.13107 -3.35577,-1.62543 -3.35577,-3.46061 l -0.0262,-95.69149 c 0.1573,-1.75653 1.7041,-3.1198 3.59171,-3.1198 h 17.27691 c 1.62543,0.0786 2.96249,1.17976 3.32954,2.67412 v 14.62899 h 0.3408 c 5.21717,-13.0822 12.53165,-19.32181 25.40412,-19.32181 8.36317,0 16.51662,3.01494 21.75999,11.27324 4.87633,7.65532 4.87633,20.5278 4.87633,29.78233 v 60.22011 c -0.20973,1.67786 -1.75653,3.01492 -3.59169,3.01492 h -18.69262 c -1.70411,-0.13107 -3.11982,-1.38948 -3.30332,-3.01492 v -51.96179 c 0,-10.46052 1.20597,-25.77117 -11.66651,-25.77117 -4.5355,0 -8.70399,3.04117 -10.77512,7.65532 -2.62167,5.84637 -2.96249,11.66651 -2.96249,18.11585 v 51.5161 c -0.0262,1.91383 -1.65166,3.46061 -3.64414,3.46061" />
        <path
           inkscape:connector-curvature="0"
           style="fill:#221f1f;fill-rule:evenodd;stroke:none;stroke-width:3.50162554"
           id="path28"
           d="m 147.67545,702.30829 c 0,7.26206 0.18352,13.31815 -3.48684,19.7675 -2.9625,5.24338 -7.68153,8.46805 -12.89868,8.46805 -7.1572,0 -11.35189,-5.45312 -11.35189,-13.50169 0,-15.8874 14.23574,-18.77125 27.73741,-18.77125 v 4.03739 m 18.79748,45.43378 c -1.23218,1.10111 -3.01494,1.17976 -4.40443,0.4457 -6.18718,-5.1385 -7.3145,-7.52423 -10.69647,-12.42678 -10.22457,10.4343 -17.48665,13.55409 -30.72615,13.55409 -15.70389,0 -27.894719,-9.67401 -27.894719,-29.04824 0,-15.12713 8.179669,-25.43035 19.872379,-30.46398 10.1197,-4.45688 24.25056,-5.24337 35.05191,-6.47556 v -2.41195 c 0,-4.43066 0.34082,-9.67403 -2.28086,-13.50167 -2.25465,-3.43442 -6.60666,-4.85013 -10.46052,-4.85013 -7.10478,0 -13.42302,3.64414 -14.96983,11.19459 -0.3146,1.67789 -1.54678,3.32955 -3.25089,3.4082 l -18.063399,-1.94006 c -1.52058,-0.3408 -3.22467,-1.57301 -2.77898,-3.90629 4.142259,-21.91728 23.962199,-28.52394 41.684769,-28.52394 9.07104,0 20.92105,2.41195 28.07825,9.28076 9.07102,8.46804 8.20587,19.7675 8.20587,32.06321 v 29.04826 c 0,8.73022 3.61792,12.55786 7.02611,17.27691 1.17977,1.67786 1.44194,3.69656 -0.0787,4.95497 -3.80144,3.17225 -10.56539,9.07104 -14.28818,12.37436 l -0.0262,-0.0525" />
        <path
           inkscape:connector-curvature="0"
           style="fill:#221f1f;fill-rule:evenodd;stroke:none;stroke-width:3.50162554"
           id="path30"
           d="m -96.691739,702.30829 c 0,7.26206 0.1835,13.31815 -3.486841,19.7675 -2.96252,5.24338 -7.65533,8.46805 -12.8987,8.46805 -7.1572,0 -11.32567,-5.45312 -11.32567,-13.50169 0,-15.8874 14.23574,-18.77125 27.711211,-18.77125 v 4.03739 m 18.79747,45.43378 c -1.23219,1.10111 -3.01495,1.17976 -4.40444,0.4457 -6.18716,-5.1385 -7.28828,-7.52423 -10.69647,-12.42678 -10.224571,10.4343 -17.460401,13.55409 -30.726141,13.55409 -15.67768,0 -27.89471,-9.67401 -27.89471,-29.04824 0,-15.12713 8.20587,-25.43035 19.87236,-30.46398 10.1197,-4.45688 24.25058,-5.24337 35.051931,-6.47556 v -2.41195 c 0,-4.43066 0.34082,-9.67403 -2.25465,-13.50167 -2.280881,-3.43442 -6.632861,-4.85013 -10.460531,-4.85013 -7.10475,0 -13.44924,3.64414 -14.99603,11.19459 -0.31461,1.67789 -1.5468,3.32955 -3.22467,3.4082 l -18.08962,-1.94006 c -1.52058,-0.3408 -3.19846,-1.57301 -2.77899,-3.90629 4.16848,-21.91728 23.96219,-28.52394 41.68479,-28.52394 9.071011,0 20.921021,2.41195 28.078221,9.28076 9.07104,8.46804 8.20587,19.7675 8.20587,32.06321 v 29.04826 c 0,8.73022 3.61794,12.55786 7.02613,17.27691 1.20597,1.67786 1.46814,3.69656 -0.05244,4.95497 -3.80144,3.17225 -10.56538,9.07104 -14.28819,12.37436 l -0.05242,-0.0525" />
      </g>
      <path
         inkscape:connector-curvature="0"
         style="color:#000000;font-style:normal;font-variant:normal;font-weight:normal;font-stretch:normal;font-size:medium;line-height:normal;font-family:sans-serif;font-variant-ligatures:normal;font-variant-position:normal;font-variant-caps:normal;font-variant-numeric:normal;font-variant-alternates:normal;font-feature-settings:normal;text-indent:0;text-align:start;text-decoration:none;text-decoration-line:none;text-decoration-style:solid;text-decoration-color:#000000;letter-spacing:normal;word-spacing:normal;text-transform:none;writing-mode:lr-tb;direction:ltr;text-orientation:mixed;dominant-baseline:auto;baseline-shift:baseline;text-anchor:start;white-space:normal;shape-padding:0;clip-rule:nonzero;display:inline;overflow:visible;visibility:visible;opacity:1;isolation:auto;mix-blend-mode:normal;color-interpolation:sRGB;color-interpolation-filters:linearRGB;solid-color:#000000;solid-opacity:1;vector-effect:none;fill:url(#linearGradient2054);fill-opacity:1;fill-rule:evenodd;stroke:none;stroke-width:16;stroke-linecap:round;stroke-linejoin:miter;stroke-miterlimit:4;stroke-dasharray:none;stroke-dashoffset:0;stroke-opacity:1;color-rendering:auto;image-rendering:auto;shape-rendering:auto;text-rendering:auto;enable-background:accumulate"
         d="m 80,164 a 8.0008,8.0008 0 1 0 0,16 h 17.22266 l 12.39648,74.38086 -0.44726,0.44726 0.62695,0.62696 L 111.89062,268 h 21.76563 l -6.6543,-6.6543 -0.38476,-2.30664 L 140,245.65625 154.34375,260 l -8,8 h 11.3125 L 160,265.65625 162.34375,268 h 11.3125 l -8,-8 L 180,245.65625 194.34375,260 l -8,8 h 11.3125 L 200,265.65625 202.34375,268 h 11.3125 l -8,-8 L 220,245.65625 234.34375,260 l -7.99023,7.99023 c 4.32064,-0.0122 8.1924,-0.0848 11.58984,-0.27734 L 240,265.65625 l 1.77539,1.77539 c 3.15824,-0.30281 5.86977,-0.75617 8.20899,-1.41602 l 0.84374,-0.84374 L 245.65625,260 260,245.65625 l 3.12891,3.12891 c 0.68361,-4.83432 0.87468,-10.90994 0.86132,-18.43164 L 260,234.34375 245.65625,220 260,205.65625 l 3.99414,3.99414 V 184 H 114.11133 l -3.33399,-20 z m 36.11133,32 h 14.23242 l 4,4 L 120,214.34375 119.00195,213.3457 Z m 33.54492,0 h 20.6875 l 4,4 L 160,214.34375 145.65625,200 Z m 40,0 h 20.6875 l 4,4 L 200,214.34375 185.65625,200 Z m 40,0 h 20.6875 l 4,4 L 240,214.34375 225.65625,200 Z M 140,205.65625 154.34375,220 140,234.34375 125.65625,220 Z m 40,0 L 194.34375,220 180,234.34375 165.65625,220 Z m 40,0 L 234.34375,220 220,234.34375 205.65625,220 Z m -60,20 L 174.34375,240 160,254.34375 145.65625,240 Z m 40,0 L 214.34375,240 200,254.34375 185.65625,240 Z m 40,0 L 254.34375,240 240,254.34375 225.65625,240 Z M 121.26367,226.91992 134.34375,240 125,249.34375 Z"
         id="path964-6" />
    </g>
    <g
       inkscape:groupmode="layer"
       id="layer4"
       inkscape:label="Borders"
       style="display:inline;opacity:1">
      <path
         style="color:#000000;display:inline;overflow:visible;visibility:visible;opacity:0.3;fill:#ffffff;fill-opacity:1;fill-rule:nonzero;stroke:none;stroke-width:1;marker:none;enable-background:accumulate"
         d="m 78.92188,43.999698 c -35.296728,0 -39.09487,3.62603 -38.92188,38.99414 v 2 c -0.17299,-35.36811 3.625152,-38.99414 38.92188,-38.99414 h 146.15624 c 35.29673,0 38.92188,3.62561 38.92188,38.99414 v -2 c 0,-35.36853 -3.62515,-38.99414 -38.92188,-38.99414 z"
         id="path931"
         inkscape:connector-curvature="0"
         sodipodi:nodetypes="sccsscsss" />
      <path
         style="color:#000000;display:inline;overflow:visible;visibility:visible;opacity:0.4;fill:none;fill-opacity:1;fill-rule:nonzero;stroke:#000000;stroke-width:1;stroke-miterlimit:4;stroke-dasharray:none;stroke-opacity:1;marker:none;enable-background:accumulate"
         d="m 333.33517,61.500047 c -10.01116,0 -11.88667,0.90635 -11.83407,9.74838 V 84 96.75181 c -0.0527,8.84203 1.82291,9.74838 11.83407,9.74838 h 21.3308 c 10.00866,0 11.83405,-0.90625 11.83405,-9.74838 V 84 71.248427 c 0,-8.84213 -1.82539,-9.74838 -11.83406,-9.74838 z"
         id="path958"
         inkscape:connector-curvature="0"
         sodipodi:nodetypes="scccssscsss" />
      <path
         style="color:#000000;display:inline;overflow:visible;visibility:visible;opacity:0.4;fill:none;fill-opacity:1;fill-rule:nonzero;stroke:#000000;stroke-width:1;stroke-miterlimit:4;stroke-dasharray:none;stroke-opacity:1;marker:none;enable-background:accumulate"
         d="m 329.12711,133.5 c -6.45163,0 -7.6603,0.58409 -7.62639,6.28227 v 8.21765 8.21781 c -0.034,5.69818 1.17476,6.28227 7.62639,6.28227 h 13.74651 c 6.45003,0 7.62639,-0.58403 7.62639,-6.28227 v -8.21781 -8.21765 c 0,-5.69824 -1.17636,-6.28227 -7.62639,-6.28227 z"
         id="path958-1"
         inkscape:connector-curvature="0"
         sodipodi:nodetypes="scccssscsss" />
      <path
         style="color:#000000;display:inline;overflow:visible;visibility:visible;opacity:0.4;fill:none;fill-opacity:1;fill-rule:nonzero;stroke:#000000;stroke-width:0.99999994;stroke-miterlimit:4;stroke-dasharray:none;stroke-opacity:1;marker:none;enable-background:accumulate"
         d="m 337.97659,211.50015 c 4.67187,0 5.5471,-0.42296 5.52255,-4.54923 v -7.95037 -5.95084 c 0.0245,-4.12627 -0.85068,-4.54923 -5.52255,-4.54923 h -11.95364 c -4.67071,0 -5.52256,0.42291 -5.52256,4.54923 v 5.95084 7.95037 c 0,4.12632 0.85185,4.54923 5.52256,4.54923 z"
         id="path958-6"
         inkscape:connector-curvature="0"
         sodipodi:nodetypes="scccssscsss" />
      <path
         style="color:#000000;display:inline;overflow:visible;visibility:visible;opacity:0.4;fill:none;fill-opacity:1;fill-rule:nonzero;stroke:#000000;stroke-width:1;stroke-miterlimit:4;stroke-dasharray:none;stroke-opacity:1;marker:none;enable-background:accumulate"
         d="m 331.55494,251.5 c 3.33705,0 3.96221,-0.30212 3.94468,-3.24946 v -4.2505 -4.25059 c 0.0175,-2.94734 -0.60763,-3.24945 -3.94468,-3.24945 h -7.11025 c -3.33622,0 -3.94469,0.30208 -3.94469,3.24945 v 4.25059 4.2505 c 0,2.94738 0.60847,3.24946 3.94469,3.24946 z"
         id="path958-6-0"
         inkscape:connector-curvature="0"
         sodipodi:nodetypes="scccssscsss" />
      <path
         style="color:#000000;display:inline;overflow:visible;visibility:visible;opacity:0.2;fill:#000000;fill-opacity:1;fill-rule:nonzero;stroke:none;stroke-width:1;marker:none;enable-background:accumulate"
         d="m 78.92728,267.9997 c -35.296731,0 -39.094875,-3.62603 -38.921885,-38.99414 v -2 c -0.17299,35.36811 3.625154,38.99414 38.921885,38.99414 h 146.15624 c 35.29673,0 38.92188,-3.62561 38.92188,-38.99414 v 2 c 0,35.36853 -3.62515,38.99414 -38.92188,38.99414 z"
         id="path931-8"
         inkscape:connector-curvature="0"
         sodipodi:nodetypes="sccsscsss" />
    </g>
    <g
       inkscape:groupmode="layer"
       id="layer5"
       inkscape:label="Highlights"
       style="display:inline;opacity:0.7">
      <path
         style="color:#000000;display:inline;overflow:visible;visibility:visible;opacity:1;fill:url(#linearGradient1692-6);fill-opacity:1;fill-rule:nonzero;stroke:none;stroke-width:1;marker:none;enable-background:accumulate"
         d="m 324.44531,237 c -1.65302,0 -2.54604,0.12548 -2.91601,0.41406 -0.18499,0.14429 -0.30479,0.33122 -0.39649,0.70313 C 321.0411,238.4891 321,239.03036 321,239.75 v 4.25 4.25 c 0,0.71964 0.0411,1.26082 0.13281,1.63281 0.0917,0.37191 0.2115,0.55884 0.39649,0.70313 0.36997,0.28858 1.26299,0.41406 2.91601,0.41406 h 7.10938 c 1.65343,0 2.55203,-0.12511 2.92383,-0.41406 0.18589,-0.14448 0.30578,-0.33208 0.39648,-0.70313 0.0907,-0.37105 0.129,-0.90979 0.125,-1.6289 v -0.002 V 244 v -4.25195 -0.002 c 0.004,-0.71911 -0.0343,-1.25785 -0.125,-1.6289 -0.0907,-0.37105 -0.21059,-0.55865 -0.39648,-0.70313 C 334.10673,237.12512 333.20812,237 331.55469,237 Z m 5.32813,1.04688 c 1.10767,-3.4e-4 2.21363,0.008 3.32031,0.0449 0.26616,0.0599 0.75737,-0.0208 0.79297,0.3457 0.13405,1.84438 0.0662,3.68774 0.10156,5.53906 -0.0126,1.86745 0.0543,3.67031 -0.10351,5.49805 0.0642,0.42314 -0.43946,0.35577 -0.70313,0.42187 -3.43277,0.0703 -6.87577,0.0589 -10.29883,0.002 -0.22288,-0.0398 -0.55622,-3.2e-4 -0.71093,-0.1875 -0.19863,-1.12995 -0.12696,-2.26946 -0.16016,-3.41992 0.0138,-2.55648 -0.029,-5.10728 0.0898,-7.65625 -0.03,-0.2727 0.10944,-0.49629 0.40039,-0.48829 1.30659,-0.161 2.63265,-0.0636 3.94727,-0.0976 1.10718,0.006 2.21655,-0.002 3.32422,-0.002 z"
         id="path918-6"
         inkscape:connector-curvature="0" />
      <path
         style="color:#000000;display:inline;overflow:visible;visibility:visible;opacity:1;fill:url(#linearGradient1690-9);fill-opacity:1;fill-rule:nonzero;stroke:none;stroke-width:0.99999988;marker:none;enable-background:accumulate"
         d="m 326.02383,189.00048 c -2.32027,0 -3.60941,0.15494 -4.20703,0.62109 -0.29882,0.23308 -0.48964,0.54668 -0.625,1.09571 -0.13541,0.54902 -0.19141,1.31765 -0.19141,2.33203 v 5.95117 7.95084 c 0,1.01437 0.056,1.783 0.19141,2.33203 0.13536,0.54903 0.32618,0.86263 0.625,1.09571 0.59762,0.46615 1.88676,0.62109 4.20703,0.62109 h 11.9524 c 2.32085,0 3.61652,-0.15457 4.2168,-0.62109 0.30014,-0.23327 0.49095,-0.54754 0.625,-1.09571 0.13404,-0.54816 0.18764,-1.31623 0.18164,-2.33008 v -7.95279 -5.95312 c 0.006,-1.01386 -0.0476,-1.78191 -0.18164,-2.33008 -0.13406,-0.54817 -0.32486,-0.86244 -0.625,-1.09571 -0.60028,-0.46652 -1.89595,-0.62109 -4.2168,-0.62109 z m 4.95859,1.00977 c 1.5798,-0.002 4.16014,-3.9e-4 5.73991,0.0117 1.50021,0.0511 3.02236,-0.0712 4.5,0.28321 0.55111,0.0919 0.61303,0.71807 0.67773,1.16601 0.1117,4.30832 0.075,10.62608 0.0508,14.94108 -0.0716,0.99089 0.13687,2.07606 -0.30078,3.01366 -0.34356,0.40964 -0.9694,0.35958 -1.45117,0.45509 -3.95407,0.0823 -9.92936,0.0499 -13.89381,0.0371 -1.16908,-0.0622 -2.37292,0.11291 -3.51758,-0.22266 -0.57935,-0.098 -0.6137,-0.75914 -0.6875,-1.2207 -0.1146,-4.11835 -0.0751,-10.24472 -0.0547,-14.36881 0.0572,-1.06305 -0.0797,-2.16734 0.18164,-3.21485 0.10495,-0.6386 0.8614,-0.66043 1.36719,-0.74023 2.1305,-0.19658 5.24071,-0.10662 7.38828,-0.14062 z"
         id="path914-6"
         inkscape:connector-curvature="0"
         sodipodi:nodetypes="sccscsccsscccccccssccccccccccccccc" />
      <path
         style="color:#000000;display:inline;overflow:visible;visibility:visible;opacity:1;fill:url(#linearGradient1688-4);fill-opacity:1;fill-rule:nonzero;stroke:none;stroke-width:1;marker:none;enable-background:accumulate"
         d="m 329.12695,134 c -3.21072,0 -5.03255,0.19514 -5.9375,0.89844 -0.45247,0.35165 -0.74178,0.83286 -0.93359,1.61718 -0.19176,0.78433 -0.26386,1.85686 -0.25586,3.26368 v 0.002 8.21875 8.21875 0.002 c -0.008,1.40682 0.0641,2.47935 0.25586,3.26368 0.1918,0.78431 0.48112,1.26553 0.93359,1.61718 0.90496,0.7033 2.72678,0.89844 5.9375,0.89844 h 13.7461 c 3.20992,0 5.02461,-0.19551 5.92578,-0.89844 0.45058,-0.35146 0.73805,-0.83201 0.93164,-1.61718 C 349.9241,158.69918 350,157.62415 350,156.2168 V 148 139.7832 c 0,-1.40735 -0.0759,-2.48237 -0.26953,-3.26758 -0.19359,-0.78517 -0.48106,-1.26572 -0.93164,-1.61718 C 347.89766,134.19551 346.08297,134 342.87305,134 Z m 6.49805,1.04688 c 3.45647,0.0171 6.9142,-0.0268 10.36133,0.0918 0.8211,0.13276 1.80664,0.14835 2.39062,0.82617 0.67884,1.16473 0.51296,2.58781 0.56446,3.87305 0.0431,6.02893 0.0678,12.06719 -0.0332,18.08789 -0.0775,0.77792 -0.12055,1.67263 -0.67968,2.27539 -0.70249,0.51038 -1.61833,0.59683 -2.45899,0.67383 -4.04742,0.0864 -8.16222,0.0456 -12.24023,0.0606 -2.45188,-0.0199 -4.91402,0.0317 -7.35352,-0.0606 -0.87784,-0.12055 -1.915,-0.14021 -2.56055,-0.83398 -0.64775,-1.02591 -0.50264,-2.30525 -0.56054,-3.46485 -0.035,-5.65575 -0.0351,-11.35518 0,-17.00976 0.0632,-1.22153 -0.10864,-2.57724 0.59179,-3.65235 0.6025,-0.62665 1.55621,-0.63986 2.35938,-0.77344 2.73743,-0.10739 5.48083,-0.0704 8.22656,-0.0918 0.46403,-2.9e-4 0.92855,-0.002 1.39258,-0.002 z"
         id="path964-7-2"
         inkscape:connector-curvature="0" />
      <path
         style="color:#000000;display:inline;overflow:visible;visibility:visible;opacity:1;fill:url(#linearGradient1686-0);fill-opacity:1;fill-rule:nonzero;stroke:none;stroke-width:1;marker:none;enable-background:accumulate"
         d="m 333.33594,62 c -4.99049,0 -7.87051,0.276282 -9.38477,1.453125 -0.75713,0.588421 -1.23761,1.403518 -1.54492,2.660156 -0.3073,1.256638 -0.4173,2.940031 -0.4043,5.132813 V 84 96.753906 c -0.0131,2.19278 0.097,3.876174 0.4043,5.132814 0.30731,1.25663 0.78779,2.07172 1.54492,2.66016 1.51427,1.17683 4.39428,1.45312 9.38477,1.45312 h 21.33008 c 4.98923,0 7.85502,-0.27668 9.36328,-1.45312 0.75412,-0.58824 1.23293,-1.40461 1.54297,-2.66211 C 365.8823,100.62727 366,98.945281 366,96.751953 V 84 71.248047 c 0,-2.193329 -0.1177,-3.875313 -0.42773,-5.132813 -0.31004,-1.257499 -0.78884,-2.073874 -1.54297,-2.662109 C 362.52104,62.276656 359.65526,62 354.66602,62 Z m 2.40234,1.097656 c 6.94737,8.3e-4 13.91063,0.0034 20.84961,0.05469 2.14296,0.08293 4.46431,-0.147701 6.42383,0.93164 1.29609,0.695228 1.54862,2.250325 1.76953,3.564454 0.17551,2.202888 0.0915,4.442228 0.13867,6.669921 0.0227,8.479532 0.077,16.968993 -0.0801,25.447266 -0.16151,1.483233 -0.38135,3.305793 -1.79882,4.142573 -1.6055,0.82871 -3.47551,0.90643 -5.24805,0.95313 -9.49974,0.0678 -19.0243,0.0843 -28.52344,-0.0176 -1.57816,-0.11413 -3.27053,-0.24014 -4.63281,-1.12109 -1.22952,-0.99538 -1.36082,-2.72739 -1.50391,-4.193361 -0.1272,-8.998585 -0.0836,-18.004484 -0.0527,-27.007813 0.0997,-2.381275 -0.24538,-4.900002 0.70508,-7.160156 0.67165,-1.50972 2.46573,-1.859954 3.93945,-2.05664 2.66168,-0.316582 5.34184,-0.147022 8.01367,-0.207032 z"
         id="path964-3"
         inkscape:connector-curvature="0" />
    </g>
  </g>
</svg>
