<?xml version="1.0" encoding="UTF-8" standalone="no"?>
<!-- Created with Inkscape (http://www.inkscape.org/) -->

<svg
   xmlns:dc="http://purl.org/dc/elements/1.1/"
   xmlns:cc="http://creativecommons.org/ns#"
   xmlns:rdf="http://www.w3.org/1999/02/22-rdf-syntax-ns#"
   xmlns:svg="http://www.w3.org/2000/svg"
   xmlns="http://www.w3.org/2000/svg"
   xmlns:xlink="http://www.w3.org/1999/xlink"
   xmlns:sodipodi="http://sodipodi.sourceforge.net/DTD/sodipodi-0.dtd"
   xmlns:inkscape="http://www.inkscape.org/namespaces/inkscape"
   inkscape:export-ydpi="90.000000"
   inkscape:export-xdpi="90.000000"
   width="400"
   height="300"
   id="svg11300"
   sodipodi:version="0.32"
   inkscape:version="0.92.3 (2405546, 2018-03-11)"
   sodipodi:docname="atom.svg"
   inkscape:output_extension="org.inkscape.output.svg.inkscape"
   version="1.0"
   style="display:inline;enable-background:new"
   inkscape:export-filename="/home/sam/paper-template.png">
  <title
     id="title3004">Paper Icon Theme Template</title>
  <sodipodi:namedview
     stroke="#ef2929"
     fill="#f57900"
     id="base"
     pagecolor="#595959"
     bordercolor="#000000"
     borderopacity="0.25490196"
     inkscape:pageopacity="0"
     inkscape:pageshadow="2"
     inkscape:zoom="11.313708"
     inkscape:cx="340.6231"
     inkscape:cy="72.30153"
     inkscape:current-layer="layer2"
     showgrid="false"
     inkscape:grid-bbox="true"
     inkscape:document-units="px"
     inkscape:showpageshadow="false"
     inkscape:window-width="1294"
     inkscape:window-height="704"
     inkscape:window-x="72"
     inkscape:window-y="27"
     width="400px"
     height="300px"
     inkscape:snap-nodes="true"
     inkscape:snap-bbox="true"
     gridtolerance="10000"
     inkscape:object-nodes="true"
     inkscape:snap-grids="true"
     showguides="true"
     inkscape:guide-bbox="true"
     inkscape:window-maximized="1"
     inkscape:bbox-paths="false"
     inkscape:snap-bbox-midpoints="true"
     inkscape:snap-global="true"
     inkscape:object-paths="false"
     inkscape:snap-intersection-paths="false"
     inkscape:snap-smooth-nodes="true"
     inkscape:pagecheckerboard="false"
     showborder="false"
     inkscape:bbox-nodes="true"
     inkscape:snap-bbox-edge-midpoints="true">
    <inkscape:grid
       spacingy="1"
       spacingx="1"
       id="grid5883"
       type="xygrid"
       enabled="true"
       visible="true"
       empspacing="4"
       snapvisiblegridlinesonly="true"
       originx="0"
       originy="0" />
    <inkscape:grid
       type="xygrid"
       id="grid11592"
       empspacing="2"
       visible="true"
       enabled="false"
       spacingx="0.5"
       spacingy="0.5"
       color="#ff0000"
       opacity="0.1254902"
       empcolor="#ff0000"
       empopacity="0.25098039"
       snapvisiblegridlinesonly="true"
       originx="0"
       originy="0" />
  </sodipodi:namedview>
  <defs
     id="defs3">
    <linearGradient
       inkscape:collect="always"
       id="linearGradient927">
      <stop
         style="stop-color:#ffffff;stop-opacity:1;"
         offset="0"
         id="stop923" />
      <stop
         id="stop933"
         offset="0.125"
         style="stop-color:#ffffff;stop-opacity:0.09803922" />
      <stop
         id="stop931"
         offset="0.92500001"
         style="stop-color:#ffffff;stop-opacity:0.09803922" />
      <stop
         style="stop-color:#ffffff;stop-opacity:0.49803922"
         offset="1"
         id="stop925" />
    </linearGradient>
    <clipPath
       clipPathUnits="userSpaceOnUse"
       id="clipPath9430">
      <path
         sodipodi:nodetypes="sssssssss"
         inkscape:connector-curvature="0"
         id="path9432"
         d="m 166.0625,-196 h 179.875 C 491.2348,-196 512,-175.28677 512,-30.125 v 148.25 C 512,263.28618 491.2348,284 345.9375,284 H 166.0625 C 20.7652,284 0,263.28618 0,118.125 V -30.125 C 0,-175.28677 20.7652,-196 166.0625,-196 Z"
         style="color:#000000;display:inline;overflow:visible;visibility:visible;fill:#ffffff;fill-opacity:1;fill-rule:nonzero;stroke:none;stroke-width:1;marker:none;enable-background:new" />
    </clipPath>
    <linearGradient
       inkscape:collect="always"
       xlink:href="#linearGradient927"
       id="linearGradient929"
       x1="168"
       y1="239"
       x2="168"
       y2="279"
       gradientUnits="userSpaceOnUse"
       gradientTransform="matrix(-1,0,0,1,512,-175)" />
    <linearGradient
       inkscape:collect="always"
       xlink:href="#linearGradient927"
       id="linearGradient965"
       x1="112"
       y1="255"
       x2="112"
       y2="281"
       gradientUnits="userSpaceOnUse"
       gradientTransform="rotate(-180,224,208)" />
    <linearGradient
       inkscape:collect="always"
       xlink:href="#linearGradient927"
       id="linearGradient1006"
       x1="64"
       y1="263"
       x2="64"
       y2="281"
       gradientUnits="userSpaceOnUse"
       gradientTransform="matrix(-1,0,0,1,396,-72)" />
    <linearGradient
       inkscape:collect="always"
       xlink:href="#linearGradient927"
       id="linearGradient1045"
       x1="760"
       y1="254"
       x2="760"
       y2="265"
       gradientUnits="userSpaceOnUse"
       gradientTransform="translate(-432,-16)" />
    <clipPath
       clipPathUnits="userSpaceOnUse"
       id="clipPath1082">
      <path
         sodipodi:nodetypes="sssssssss"
         inkscape:connector-curvature="0"
         id="path1084"
         d="M 361.9375,-212 C 507.2348,-212 528,-191.28677 528,-46.125 V 70.125 C 528,215.28618 507.2348,236 361.9375,236 H 214.0625 C 68.7652,236 48,215.28618 48,70.125 V -46.125 C 48,-191.28677 68.7652,-212 214.0625,-212 Z"
         style="display:inline;opacity:1;fill:#8c59d9;fill-opacity:1;stroke:none;stroke-width:2;stroke-linecap:round;stroke-linejoin:round;stroke-miterlimit:4;stroke-dasharray:none;stroke-dashoffset:0;stroke-opacity:1;enable-background:new" />
    </clipPath>
    <filter
       inkscape:collect="always"
       style="color-interpolation-filters:sRGB"
       id="filter4569"
       x="-0.0116"
       width="1.0232"
       y="-0.012428571"
       height="1.024857">
      <feGaussianBlur
         inkscape:collect="always"
         stdDeviation="1.16"
         id="feGaussianBlur4571" />
    </filter>
    <linearGradient
       inkscape:collect="always"
       xlink:href="#linearGradient973"
       id="linearGradient878"
       x1="228.77844"
       y1="243.01588"
       x2="36.520802"
       y2="132.01587"
       gradientUnits="userSpaceOnUse"
       gradientTransform="matrix(0.5,-0.8660254,-0.8660254,-0.5,211.09996,365.63588)" />
    <linearGradient
       inkscape:collect="always"
       xlink:href="#linearGradient973"
       id="linearGradient880"
       x1="322.28067"
       y1="80.619003"
       x2="358.65375"
       y2="101.61901"
       gradientUnits="userSpaceOnUse"
       gradientTransform="rotate(60,344,84.000001)" />
    <linearGradient
       inkscape:collect="always"
       xlink:href="#linearGradient973"
       id="linearGradient882"
       x1="321.31509"
       y1="145.435"
       x2="345.99683"
       y2="159.685"
       gradientUnits="userSpaceOnUse"
       gradientTransform="rotate(60,336,148)" />
    <linearGradient
       inkscape:collect="always"
       xlink:href="#linearGradient973"
       id="linearGradient884"
       x1="332.90689"
       y1="249.00099"
       x2="320.78256"
       y2="242.00099"
       gradientUnits="userSpaceOnUse"
       gradientTransform="matrix(0.5,-0.8660254,-0.8660254,-0.5,374.87719,649.30633)" />
    <linearGradient
       inkscape:collect="always"
       xlink:href="#linearGradient973"
       id="linearGradient886"
       x1="339.23523"
       y1="208.46808"
       x2="321.04895"
       y2="197.96823"
       gradientUnits="userSpaceOnUse"
       gradientTransform="matrix(0.5,-0.8660254,-0.8660254,-0.5,339.20521,587.52067)" />
    <linearGradient
       inkscape:collect="always"
       xlink:href="#linearGradient1013"
       id="linearGradient1108"
       x1="296"
       y1="-212"
       x2="296"
       y2="236"
       gradientUnits="userSpaceOnUse" />
    <linearGradient
       id="linearGradient1013"
       inkscape:collect="always">
      <stop
         id="stop1005"
         offset="0"
         style="stop-color:#ffffff;stop-opacity:1;" />
      <stop
         style="stop-color:#ffffff;stop-opacity:0.09803922"
         offset="0.125"
         id="stop1007" />
      <stop
         style="stop-color:#000000;stop-opacity:0.09803922"
         offset="0.92500001"
         id="stop1009" />
      <stop
         id="stop1011"
         offset="1"
         style="stop-color:#000000;stop-opacity:0.49803922" />
    </linearGradient>
    <clipPath
       clipPathUnits="userSpaceOnUse"
       id="clipPath1082-3">
      <path
         sodipodi:nodetypes="sssssssss"
         inkscape:connector-curvature="0"
         id="path1084-6"
         d="M 361.9375,-212 C 507.2348,-212 528,-191.28677 528,-46.125 V 70.125 C 528,215.28618 507.2348,236 361.9375,236 H 214.0625 C 68.7652,236 48,215.28618 48,70.125 V -46.125 C 48,-191.28677 68.7652,-212 214.0625,-212 Z"
         style="display:inline;opacity:1;fill:#8c59d9;fill-opacity:1;stroke:none;stroke-width:2;stroke-linecap:round;stroke-linejoin:round;stroke-miterlimit:4;stroke-dasharray:none;stroke-dashoffset:0;stroke-opacity:1;enable-background:new" />
    </clipPath>
    <filter
       inkscape:collect="always"
       style="color-interpolation-filters:sRGB"
       id="filter958"
       x="-0.0232"
       width="1.0464"
       y="-0.024857143"
       height="1.0497143">
      <feGaussianBlur
         inkscape:collect="always"
         stdDeviation="2.32"
         id="feGaussianBlur960" />
    </filter>
    <linearGradient
       id="linearGradient1007"
       inkscape:collect="always">
      <stop
         id="stop1003"
         offset="0"
         style="stop-color:#fdfdfd;stop-opacity:1" />
      <stop
         id="stop1005-3"
         offset="1"
         style="stop-color:#cce6dc;stop-opacity:1" />
    </linearGradient>
    <linearGradient
       inkscape:collect="always"
       id="linearGradient973">
      <stop
         style="stop-color:#abde96;stop-opacity:1"
         offset="0"
         id="stop969" />
      <stop
         style="stop-color:#0ca472;stop-opacity:1"
         offset="1"
         id="stop971" />
    </linearGradient>
    <linearGradient
       inkscape:collect="always"
       xlink:href="#linearGradient1007"
       id="linearGradient197"
       gradientUnits="userSpaceOnUse"
       gradientTransform="matrix(5.7138731,0,0,5.7138731,0.06582103,10.984971)"
       x1="42.590652"
       y1="2.421438"
       x2="42.590652"
       y2="48.335499" />
    <linearGradient
       inkscape:collect="always"
       xlink:href="#linearGradient1007"
       id="linearGradient197-3"
       gradientUnits="userSpaceOnUse"
       gradientTransform="matrix(1.1427748,0,0,1.1427748,313.61322,54.997428)"
       x1="42.590652"
       y1="2.421438"
       x2="42.590652"
       y2="48.335499" />
    <linearGradient
       inkscape:collect="always"
       xlink:href="#linearGradient1007"
       id="linearGradient197-35"
       gradientUnits="userSpaceOnUse"
       gradientTransform="matrix(0.71423425,0,0,0.71423425,317.00781,129.87278)"
       x1="42.590652"
       y1="2.421438"
       x2="42.590652"
       y2="48.335499" />
    <linearGradient
       inkscape:collect="always"
       xlink:href="#c"
       id="linearGradient18421"
       gradientUnits="userSpaceOnUse"
       x1="33128.73"
       y1="24634.709"
       x2="32900.359"
       y2="23592.008"
       gradientTransform="matrix(0.00988118,0,0,0.00988118,0.64906,1.0800152)" />
    <linearGradient
       gradientUnits="userSpaceOnUse"
       y2="104.96"
       x2="384.23099"
       y1="731.18799"
       x1="575.66901"
       id="c">
      <stop
         id="stop3089"
         stop-opacity=".4"
         stop-color="#000f43"
         offset="0"
         style="stop-opacity:0.2" />
      <stop
         id="stop3091"
         stop-opacity=".173"
         stop-color="#001962"
         offset=".485"
         style="stop-opacity:0.15" />
      <stop
         id="stop3093"
         stop-opacity="0"
         stop-color="#002079"
         offset="1" />
    </linearGradient>
    <linearGradient
       inkscape:collect="always"
       xlink:href="#linearGradient1007"
       id="linearGradient2659"
       x1="334.96094"
       y1="238.03711"
       x2="334.96094"
       y2="250.96289"
       gradientUnits="userSpaceOnUse" />
    <linearGradient
       gradientTransform="translate(-322.25332,-238.21392)"
       inkscape:collect="always"
       xlink:href="#linearGradient1007"
       id="linearGradient2659-2"
       x1="334.96094"
       y1="238.03711"
       x2="334.96094"
       y2="250.96289"
       gradientUnits="userSpaceOnUse" />
    <linearGradient
       inkscape:collect="always"
       xlink:href="#c"
       id="linearGradient18421-8"
       gradientUnits="userSpaceOnUse"
       x1="33128.73"
       y1="24634.709"
       x2="32900.359"
       y2="23592.008"
       gradientTransform="matrix(0.00988118,0,0,0.00988118,-321.60426,-237.1339)" />
    <linearGradient
       inkscape:collect="always"
       xlink:href="#c"
       id="linearGradient2695"
       gradientUnits="userSpaceOnUse"
       gradientTransform="matrix(0.00988118,0,0,0.00988118,0.64906,1.0800152)"
       x1="33206.445"
       y1="20675.475"
       x2="32875.059"
       y2="19177.049" />
  </defs>
  <metadata
     id="metadata4">
    <rdf:RDF>
      <cc:Work
         rdf:about="">
        <dc:format>image/svg+xml</dc:format>
        <dc:type
           rdf:resource="http://purl.org/dc/dcmitype/StillImage" />
        <dc:creator>
          <cc:Agent>
            <dc:title>Sam Hewitt</dc:title>
          </cc:Agent>
        </dc:creator>
        <dc:source />
        <cc:license
           rdf:resource="http://creativecommons.org/licenses/by-sa/4.0/" />
        <dc:title>Paper Icon Theme Template</dc:title>
        <dc:subject>
          <rdf:Bag />
        </dc:subject>
        <dc:date />
        <dc:rights>
          <cc:Agent>
            <dc:title />
          </cc:Agent>
        </dc:rights>
        <dc:publisher>
          <cc:Agent>
            <dc:title />
          </cc:Agent>
        </dc:publisher>
        <dc:identifier />
        <dc:relation />
        <dc:language />
        <dc:coverage />
        <dc:description />
        <dc:contributor>
          <cc:Agent>
            <dc:title />
          </cc:Agent>
        </dc:contributor>
      </cc:Work>
      <cc:Work
         rdf:about="">
        <dc:format>image/svg+xml</dc:format>
        <dc:type
           rdf:resource="http://purl.org/dc/dcmitype/StillImage" />
      </cc:Work>
      <cc:License
         rdf:about="http://creativecommons.org/licenses/by-sa/4.0/">
        <cc:permits
           rdf:resource="http://creativecommons.org/ns#Reproduction" />
        <cc:permits
           rdf:resource="http://creativecommons.org/ns#Distribution" />
        <cc:requires
           rdf:resource="http://creativecommons.org/ns#Notice" />
        <cc:requires
           rdf:resource="http://creativecommons.org/ns#Attribution" />
        <cc:permits
           rdf:resource="http://creativecommons.org/ns#DerivativeWorks" />
        <cc:requires
           rdf:resource="http://creativecommons.org/ns#ShareAlike" />
      </cc:License>
    </rdf:RDF>
  </metadata>
  <g
     style="display:inline"
     inkscape:groupmode="layer"
     inkscape:label="Icon"
     id="layer1">
    <g
       style="display:none"
       inkscape:label="Baseplate"
       id="layer7"
       inkscape:groupmode="layer">
      <text
         y="-8.2548828"
         xml:space="preserve"
         x="19.006836"
         style="font-style:normal;font-variant:normal;font-weight:normal;font-stretch:normal;line-height:0%;font-family:'DejaVu Sans';-inkscape-font-specification:'DejaVu Sans';display:inline;fill:#000000;fill-opacity:1;stroke:none;enable-background:new"
         inkscape:label="context"
         id="context"><tspan
           style="font-style:normal;font-variant:normal;font-weight:normal;font-stretch:normal;font-size:18px;line-height:1.25;font-family:'DejaVu Sans';-inkscape-font-specification:'DejaVu Sans'"
           y="-8.2548828"
           x="19.006836"
           sodipodi:role="line"
           id="tspan3933">apps</tspan></text>
      <text
         y="-8.2548828"
         xml:space="preserve"
         x="146.48828"
         style="font-style:normal;font-variant:normal;font-weight:bold;font-stretch:normal;line-height:0%;font-family:'DejaVu Sans';-inkscape-font-specification:'DejaVu Sans Bold';text-align:start;writing-mode:lr-tb;text-anchor:start;display:inline;fill:#000000;fill-opacity:1;stroke:none;enable-background:new"
         inkscape:label="icon-name"
         id="icon-name"><tspan
           style="font-style:normal;font-variant:normal;font-weight:bold;font-stretch:normal;font-size:18px;line-height:1.25;font-family:'DejaVu Sans';-inkscape-font-specification:'DejaVu Sans Bold'"
           y="-8.2548828"
           x="146.48828"
           sodipodi:role="line"
           id="tspan3937">atom</tspan></text>
      <rect
         style="display:inline;overflow:visible;visibility:visible;fill:#cdcdcd;fill-opacity:1;fill-rule:nonzero;stroke:none;stroke-width:2;marker:none;enable-background:accumulate"
         id="rect16x16"
         width="16"
         height="16"
         x="320"
         y="236"
         inkscape:label="16x16" />
      <rect
         style="display:inline;overflow:visible;visibility:visible;fill:#cdcdcd;fill-opacity:1;fill-rule:nonzero;stroke:none;stroke-width:2;marker:none;enable-background:accumulate"
         id="rect24x24"
         width="24"
         height="24"
         x="320"
         y="188"
         inkscape:label="24x24" />
      <rect
         style="display:inline;overflow:visible;visibility:visible;fill:#cdcdcd;fill-opacity:1;fill-rule:nonzero;stroke:none;stroke-width:2;marker:none;enable-background:accumulate"
         id="rect32x32"
         width="32"
         height="32"
         x="320"
         y="132"
         inkscape:label="32x32" />
      <rect
         inkscape:label="48x48"
         y="60"
         x="320"
         height="48"
         width="48"
         id="rect48x48"
         style="display:inline;overflow:visible;visibility:visible;fill:#cdcdcd;fill-opacity:1;fill-rule:nonzero;stroke:none;stroke-width:2;marker:none;enable-background:accumulate" />
      <rect
         style="display:inline;overflow:visible;visibility:visible;fill:#cdcdcd;fill-opacity:1;fill-rule:nonzero;stroke:none;stroke-width:2;marker:none;enable-background:accumulate"
         id="rect3951"
         width="256"
         height="256"
         x="24"
         y="28"
         inkscape:label="48x48"
         inkscape:export-xdpi="96"
         inkscape:export-ydpi="96" />
    </g>
    <g
       inkscape:groupmode="layer"
       id="layer4"
       inkscape:label="Shadows"
       style="display:inline">
      <path
         style="display:inline;opacity:0.2;fill:#000000;fill-opacity:1;stroke:none;stroke-width:2;stroke-linecap:round;stroke-linejoin:round;stroke-miterlimit:4;stroke-dasharray:none;stroke-dashoffset:0;stroke-opacity:1;filter:url(#filter958);enable-background:new"
         d="m 188.96876,45.999995 c 72.64865,0 83.03125,10.356615 83.03125,82.937505 v 58.125 c 0,72.58059 -10.3826,82.9375 -83.03125,82.9375 h -73.9375 C 42.382606,270 32.000006,259.64309 32.000006,187.0625 v -58.125 c 0,-72.58089 10.3826,-82.937505 83.031254,-82.937505 z"
         id="path956"
         inkscape:connector-curvature="0"
         sodipodi:nodetypes="sssssssss" />
      <path
         style="color:#000000;font-style:normal;font-variant:normal;font-weight:normal;font-stretch:normal;font-size:medium;line-height:normal;font-family:sans-serif;font-variant-ligatures:normal;font-variant-position:normal;font-variant-caps:normal;font-variant-numeric:normal;font-variant-alternates:normal;font-feature-settings:normal;text-indent:0;text-align:start;text-decoration:none;text-decoration-line:none;text-decoration-style:solid;text-decoration-color:#000000;letter-spacing:normal;word-spacing:normal;text-transform:none;writing-mode:lr-tb;direction:ltr;text-orientation:mixed;dominant-baseline:auto;baseline-shift:baseline;text-anchor:start;white-space:normal;shape-padding:0;clip-rule:nonzero;display:inline;overflow:visible;visibility:visible;opacity:0.2;isolation:auto;mix-blend-mode:normal;color-interpolation:sRGB;color-interpolation-filters:linearRGB;solid-color:#000000;solid-opacity:1;vector-effect:none;fill:#000000;fill-opacity:1;fill-rule:nonzero;stroke:none;stroke-width:1;stroke-linecap:round;stroke-linejoin:round;stroke-miterlimit:4;stroke-dasharray:none;stroke-dashoffset:0;stroke-opacity:1;color-rendering:auto;image-rendering:auto;shape-rendering:auto;text-rendering:auto;enable-background:accumulate"
         d="m 351.93164,63 c 6.83457,0 10.87325,0.44856 13.24609,2.81836 C 367.55058,68.18816 368,72.22248 368,79.05078 v 11.89844 c 0,6.82827 -0.44942,10.86261 -2.82227,13.23242 C 362.80489,106.55145 358.76621,107 351.93164,107 h -15.86328 c -6.83457,0 -10.87325,-0.44855 -13.24609,-2.81836 C 320.44942,101.81183 320,97.77749 320,90.94922 V 79.05078 c 0,-6.8283 0.44942,-10.86262 2.82227,-13.23242 C 325.19511,63.44856 329.23379,63 336.06836,63 Z"
         id="path907"
         inkscape:connector-curvature="0"
         sodipodi:nodetypes="scsscsscsscss" />
      <path
         style="color:#000000;font-style:normal;font-variant:normal;font-weight:normal;font-stretch:normal;font-size:medium;line-height:normal;font-family:sans-serif;font-variant-ligatures:normal;font-variant-position:normal;font-variant-caps:normal;font-variant-numeric:normal;font-variant-alternates:normal;font-feature-settings:normal;text-indent:0;text-align:start;text-decoration:none;text-decoration-line:none;text-decoration-style:solid;text-decoration-color:#000000;letter-spacing:normal;word-spacing:normal;text-transform:none;writing-mode:lr-tb;direction:ltr;text-orientation:mixed;dominant-baseline:auto;baseline-shift:baseline;text-anchor:start;white-space:normal;shape-padding:0;clip-rule:nonzero;display:inline;overflow:visible;visibility:visible;opacity:0.2;isolation:auto;mix-blend-mode:normal;color-interpolation:sRGB;color-interpolation-filters:linearRGB;solid-color:#000000;solid-opacity:1;vector-effect:none;fill:#000000;fill-opacity:1;fill-rule:nonzero;stroke:none;stroke-width:1;stroke-linecap:round;stroke-linejoin:round;stroke-miterlimit:4;stroke-dasharray:none;stroke-dashoffset:0;stroke-opacity:1;color-rendering:auto;image-rendering:auto;shape-rendering:auto;text-rendering:auto;enable-background:new"
         d="m 341.12109,134 c 4.56431,0 7.30422,0.28679 8.94727,1.92773 1.64305,1.64095 1.93164,4.37931 1.93164,8.93946 v 8.26562 c 0,4.56013 -0.28859,7.29851 -1.93164,8.93946 C 348.42531,163.71321 345.6854,164 341.12109,164 h -10.24218 c -4.5643,0 -7.30422,-0.28679 -8.94727,-1.92773 C 320.28859,160.43132 320,157.69294 320,153.13281 v -8.26562 c 0,-4.56015 0.28859,-7.29851 1.93164,-8.93946 C 323.57469,134.28679 326.31461,134 330.87891,134 Z"
         id="path1011"
         inkscape:connector-curvature="0"
         sodipodi:nodetypes="scsscsscsscss" />
      <path
         style="color:#000000;font-style:normal;font-variant:normal;font-weight:normal;font-stretch:normal;font-size:medium;line-height:normal;font-family:sans-serif;font-variant-ligatures:normal;font-variant-position:normal;font-variant-caps:normal;font-variant-numeric:normal;font-variant-alternates:normal;font-feature-settings:normal;text-indent:0;text-align:start;text-decoration:none;text-decoration-line:none;text-decoration-style:solid;text-decoration-color:#000000;letter-spacing:normal;word-spacing:normal;text-transform:none;writing-mode:lr-tb;direction:ltr;text-orientation:mixed;dominant-baseline:auto;baseline-shift:baseline;text-anchor:start;white-space:normal;shape-padding:0;clip-rule:nonzero;display:inline;overflow:visible;visibility:visible;opacity:0.2;isolation:auto;mix-blend-mode:normal;color-interpolation:sRGB;color-interpolation-filters:linearRGB;solid-color:#000000;solid-opacity:1;vector-effect:none;fill:#000000;fill-opacity:1;fill-rule:nonzero;stroke:none;stroke-width:1;stroke-linecap:round;stroke-linejoin:round;stroke-miterlimit:4;stroke-dasharray:none;stroke-dashoffset:0;stroke-opacity:1;color-rendering:auto;image-rendering:auto;shape-rendering:auto;text-rendering:auto;enable-background:new"
         d="m 335.71484,190 c 3.42917,1e-5 5.52264,0.20591 6.80078,1.48242 1.27815,1.27651 1.48438,3.3669 1.48438,6.79297 v 5.44922 c 0,3.42606 -0.20623,5.51645 -1.48438,6.79297 C 341.23748,211.79409 339.14401,212 335.71484,212 h -7.42968 c -3.42917,0 -5.52263,-0.20591 -6.80079,-1.48242 C 320.20622,209.24106 320,207.15067 320,203.72461 v -5.44922 c 0,-3.42607 0.20622,-5.51646 1.48437,-6.79297 1.27816,-1.27651 3.37162,-1.48243 6.80079,-1.48242 z"
         id="path1013"
         inkscape:connector-curvature="0"
         sodipodi:nodetypes="cssscsscssscc" />
      <path
         style="color:#000000;font-style:normal;font-variant:normal;font-weight:normal;font-stretch:normal;font-size:medium;line-height:normal;font-family:sans-serif;font-variant-ligatures:normal;font-variant-position:normal;font-variant-caps:normal;font-variant-numeric:normal;font-variant-alternates:normal;font-feature-settings:normal;text-indent:0;text-align:start;text-decoration:none;text-decoration-line:none;text-decoration-style:solid;text-decoration-color:#000000;letter-spacing:normal;word-spacing:normal;text-transform:none;writing-mode:lr-tb;direction:ltr;text-orientation:mixed;dominant-baseline:auto;baseline-shift:baseline;text-anchor:start;white-space:normal;shape-padding:0;clip-rule:nonzero;display:inline;overflow:visible;visibility:visible;opacity:0.2;isolation:auto;mix-blend-mode:normal;color-interpolation:sRGB;color-interpolation-filters:linearRGB;solid-color:#000000;solid-opacity:1;vector-effect:none;fill:#000000;fill-opacity:1;fill-rule:nonzero;stroke:none;stroke-width:1;stroke-linecap:round;stroke-linejoin:round;stroke-miterlimit:4;stroke-dasharray:none;stroke-dashoffset:0;stroke-opacity:1;color-rendering:auto;image-rendering:auto;shape-rendering:auto;text-rendering:auto;enable-background:new"
         d="m 325.68945,237 c -2.29403,0 -3.73713,0.12503 -4.65039,1.03711 C 320.12581,238.94919 320,240.3916 320,242.68359 v 3.63282 c 0,2.29198 0.12581,3.7344 1.03906,4.64648 0.91325,0.91208 2.35637,1.03711 4.65039,1.03711 h 4.6211 c 2.29403,0 3.73713,-0.12503 4.65039,-1.03711 0.91325,-0.91208 1.03906,-2.3545 1.03906,-4.64648 v -3.63282 c 0,-2.29199 -0.12581,-3.7344 -1.03906,-4.64648 C 334.04768,237.12503 332.60458,237 330.31055,237 Z"
         id="path1050"
         inkscape:connector-curvature="0"
         sodipodi:nodetypes="scssssscsscss" />
      <path
         sodipodi:nodetypes="sssssssss"
         inkscape:connector-curvature="0"
         id="path4567"
         d="m 188.96876,43.999995 c 72.64865,0 83.03125,10.356615 83.03125,82.937505 v 58.125 c 0,72.58059 -10.3826,82.9375 -83.03125,82.9375 h -73.9375 C 42.382606,268 32.000006,257.64309 32.000006,185.0625 v -58.125 c 0,-72.58089 10.3826,-82.937505 83.031254,-82.937505 z"
         style="display:inline;opacity:0.1;fill:#000000;fill-opacity:1;stroke:none;stroke-width:2;stroke-linecap:round;stroke-linejoin:round;stroke-miterlimit:4;stroke-dasharray:none;stroke-dashoffset:0;stroke-opacity:1;filter:url(#filter4569);enable-background:new" />
    </g>
    <g
       inkscape:groupmode="layer"
       id="layer2"
       inkscape:label="Shape"
       style="display:inline">
      <path
         style="opacity:1;vector-effect:none;fill:url(#linearGradient878);fill-opacity:1;stroke:none;stroke-width:2;stroke-linecap:round;stroke-linejoin:round;stroke-miterlimit:4;stroke-dasharray:none;stroke-dashoffset:0;stroke-opacity:1"
         d="m 188.96873,268.00001 c 72.64864,0 83.03125,-10.35662 83.03125,-82.9375 v -58.125 c -10e-6,-72.580589 -10.38261,-82.937499 -83.03125,-82.937499 h -73.93751 c -72.648642,-1e-5 -83.031243,10.35691 -83.03124,82.937499 l -4e-6,58.125 c 2e-6,72.58088 10.382604,82.9375 83.031254,82.9375 z"
         id="rect877"
         inkscape:connector-curvature="0"
         sodipodi:nodetypes="sssssssss" />
      <path
         sodipodi:nodetypes="sssssssss"
         inkscape:connector-curvature="0"
         id="path888"
         d="m 351.93164,62.500001 c 13.62162,0 15.56835,1.94187 15.56836,15.550782 v 11.89844 C 367.5,103.55808 365.55326,105.5 351.93164,105.5 l -15.86328,1e-5 c -13.62162,0 -15.56836,-1.94193 -15.56837,-15.550786 V 78.05078 c 10e-6,-13.608907 1.94675,-15.550778 15.56837,-15.550778 z"
         style="opacity:1;fill:url(#linearGradient880);fill-opacity:1;stroke:none;stroke-width:2;stroke-linecap:round;stroke-linejoin:round;stroke-miterlimit:4;stroke-dasharray:none;stroke-dashoffset:0;stroke-opacity:1" />
      <path
         sodipodi:nodetypes="sssssssss"
         inkscape:connector-curvature="0"
         id="path942"
         d="m 341.12108,133.5 c 9.0811,0 10.37891,1.29458 10.37892,10.36719 v 8.26562 c 0,9.07258 -1.29782,10.36719 -10.37892,10.36718 l -10.24217,1e-5 c -9.08108,0 -10.37891,-1.29461 -10.37892,-10.36719 l 10e-6,-8.26562 c 0,-9.07261 1.29782,-10.36719 10.37891,-10.36719 z"
         style="opacity:1;fill:url(#linearGradient882);fill-opacity:1;stroke:none;stroke-width:2;stroke-linecap:round;stroke-linejoin:round;stroke-miterlimit:4;stroke-dasharray:none;stroke-dashoffset:0;stroke-opacity:1" />
      <path
         style="opacity:1;fill:url(#linearGradient884);fill-opacity:1;stroke:none;stroke-width:2;stroke-linecap:round;stroke-linejoin:round;stroke-miterlimit:4;stroke-dasharray:none;stroke-dashoffset:0;stroke-opacity:1"
         d="m 330.31054,250.5 c 4.54055,0 5.18946,-0.64729 5.18946,-5.18359 v -3.63282 c 0,-4.53629 -0.64891,-5.18359 -5.18946,-5.18359 h -4.62109 c -4.54053,0 -5.18945,0.6473 -5.18946,5.18359 l 10e-6,3.63282 c 0,4.5363 0.64892,5.18359 5.18946,5.18359 z"
         id="path946"
         inkscape:connector-curvature="0"
         sodipodi:nodetypes="sssssssss" />
      <path
         style="opacity:1;fill:url(#linearGradient886);fill-opacity:1;stroke:none;stroke-width:2;stroke-linecap:round;stroke-linejoin:round;stroke-miterlimit:4;stroke-dasharray:none;stroke-dashoffset:0;stroke-opacity:1"
         d="m 335.71582,210.5 c 6.81081,-1e-5 7.78418,-0.97093 7.78418,-7.7754 v -5.4489 c 0,-6.80444 -0.97337,-7.77539 -7.78418,-7.7754 l -7.43164,1e-5 c -6.8108,0 -7.78418,0.97095 -7.78418,7.77539 v 5.44892 c 10e-6,6.80446 0.97337,7.7754 7.78418,7.77539 z"
         id="path948"
         inkscape:connector-curvature="0"
         sodipodi:nodetypes="sssssssss" />
      <path
         style="opacity:1;vector-effect:none;fill:url(#linearGradient197);fill-opacity:1;stroke:none;stroke-width:3.87175989;stroke-linecap:butt;stroke-linejoin:miter;stroke-miterlimit:4;stroke-dasharray:none;stroke-dashoffset:0;stroke-opacity:1"
         d="m 123.11961,83.499565 c 1.3492,-0.125715 2.72763,-0.103705 4.118,0.06691 5.56144,0.682983 11.32222,3.479973 17.26438,8.023984 3.23419,2.719553 -0.55716,7.67668 -4.02874,5.26745 -5.32522,-4.072221 -10.16708,-6.241374 -14.05032,-6.718265 -3.79836,-0.466467 -6.61506,0.516437 -9.21809,3.035498 -3.80007,5.197937 -4.96727,16.871858 -2.46632,31.403988 6.82114,-1.02986 14.2433,-1.64207 22.15241,-1.7856 5.85842,-7.19868 11.91056,-13.55885 17.92281,-18.80445 11.01448,-9.609942 21.84736,-15.778709 31.5937,-15.936328 1.39234,-0.02236 2.76154,0.0824 4.10685,0.312492 5.7381,0.147549 10.37457,3.800811 12.59953,8.927915 2.27017,5.231281 2.6951,11.879901 1.64052,19.262011 -0.52478,4.49639 -7.30237,3.53971 -6.56204,-0.92627 0.93378,-6.53644 0.3691,-12.14017 -1.17179,-15.690841 -1.54086,-3.55064 -3.44165,-5.044263 -6.81871,-5.044263 -0.19879,-0.0053 -0.3967,-0.02694 -0.59151,-0.06691 -7.0677,-1.308831 -18.45276,3.699573 -30.44422,14.161924 -4.46582,3.89637 -8.99166,8.68113 -13.48116,13.83828 19.36198,0.49658 37.89233,3.69545 52.80868,8.77169 16.2464,5.52889 28.52917,12.94546 32.56462,23.03407 0.0279,0.059 0.0533,0.11832 0.0778,0.17855 1.60504,4.81509 0.9535,9.90215 -1.78558,14.06149 -2.73908,4.15933 -7.30767,7.452 -13.35842,9.94347 -4.0917,1.6808 -6.61383,-4.45715 -2.52214,-6.13795 5.21666,-2.14804 8.59935,-4.82059 10.33409,-7.45483 1.71312,-2.6014 2.02558,-5.12902 1.02671,-8.21368 -2.64519,-6.4634 -13.13953,-13.91864 -28.4801,-19.13924 -15.40168,-5.24142 -35.3282,-8.52616 -55.85534,-8.52616 -0.11004,0 -0.21373,0.0106 -0.32367,0.0123 -5.62197,7.12795 -11.07637,15.01854 -16.02564,23.52509 -0.26717,0.45926 -0.49779,0.9043 -0.75883,1.36149 3.29893,8.36696 7.28619,16.8902 12.03037,25.15444 10.0888,17.57404 21.50134,30.49442 31.30355,37.18484 4.90111,3.34519 9.37623,5.0846 12.8562,5.33441 3.48005,0.24972 5.9197,-0.67997 8.1021,-3.24752 3.86623,-4.66022 5.31101,-14.57349 3.47073,-27.37525 -1.84259,-12.81804 -6.71071,-28.31959 -13.89407,-43.99238 -1.83793,-4.01488 4.17858,-6.77802 6.02634,-2.76764 7.39796,16.14102 12.46133,32.11797 14.42976,45.81141 1.96843,13.69347 1.10952,25.30951 -4.955,32.58695 -0.0106,0.007 -0.0222,0.0141 -0.0336,0.0222 -3.45128,4.06031 -8.44863,5.95157 -13.62625,5.57994 -5.17764,-0.37155 -10.56597,-2.69296 -16.10376,-6.47274 -11.07559,-7.55952 -22.86586,-21.14449 -33.32348,-39.361 -3.93161,-6.84861 -7.41541,-13.85461 -10.40103,-20.82439 -7.33979,14.37957 -11.5178,27.37643 -12.42098,37.11786 -0.54429,5.87032 0.12043,10.50734 1.57355,13.50349 1.43084,2.9501 3.38233,4.42776 6.64013,4.96616 6.76405,0.2007 13.39152,-1.85537 18.80445,-5.92591 3.56253,-2.93375 7.78746,2.67581 3.9841,5.28979 -6.70542,5.04233 -14.94085,7.61448 -23.32422,7.28742 -0.12677,-1.2e-4 -0.2535,-0.007 -0.37949,-0.0222 -5.26402,-0.80991 -9.4618,-4.08841 -11.69537,-8.6936 -2.23365,-4.60522 -2.814122,-10.37907 -2.19852,-17.01887 1.13635,-12.25629 6.51621,-27.71472 15.80243,-44.58383 -2.79334,-7.43001 -4.87274,-14.65086 -6.45043,-21.5721 -7.03409,1.41936 -13.163009,3.28274 -18.000918,5.51298 -5.496665,2.53393 -9.344559,5.51007 -11.293833,8.34761 -1.922723,2.79891 -2.231359,5.26644 -1.004385,8.42574 2.523498,5.03346 6.564806,9.13674 11.617454,11.62862 3.972939,1.94927 1.049036,7.90865 -2.923885,5.95938 -6.410814,-3.16167 -11.602875,-8.36492 -14.764563,-14.77571 -0.04032,-0.0763 -0.07747,-0.15494 -0.111629,-0.23438 -2.024792,-5.06197 -1.229722,-10.44525 1.729782,-14.7534 2.959505,-4.30811 7.776076,-7.75068 13.961041,-10.60191 5.418666,-2.49796 11.990406,-4.50192 19.384766,-6.00403 -2.76605,-15.5693 -2.31132,-28.784661 3.81668,-36.827698 0.0923,-0.122194 0.193,-0.23775 0.30129,-0.345981 2.98342,-2.983398 6.75522,-4.678442 10.80279,-5.055429 z m 8.63776,46.079275 c -5.5319,0.26447 -10.74612,0.7822 -15.62388,1.50657 1.15678,4.84812 2.5952,9.86925 4.35238,15.04357 3.5585,-5.86503 7.37747,-11.31762 11.2715,-16.55014 z m 20.66816,13.02361 c 7.28169,0 13.25797,5.97627 13.25797,13.25797 0,7.2817 -5.97628,13.25797 -13.25797,13.25797 -7.2817,0 -13.24683,-5.97627 -13.24683,-13.25797 0,-7.2817 5.96513,-13.25797 13.24683,-13.25797 z m 0,6.62899 c -3.69973,0 -6.629,2.92925 -6.629,6.62898 0,3.69973 2.92927,6.62898 6.629,6.62898 3.69972,0 6.62898,-2.92925 6.62898,-6.62898 0,-3.69973 -2.92926,-6.62898 -6.62898,-6.62898 z"
         id="rect84-6-8"
         inkscape:connector-curvature="0"
         sodipodi:nodetypes="cccccccccccscccccscscccccccssccccscccccsccccscccccccccscccscccccsscccccccccssssssssss" />
      <path
         style="display:inline;opacity:1;vector-effect:none;fill:url(#linearGradient197-3);fill-opacity:1;stroke:none;stroke-width:0.77435213;stroke-linecap:butt;stroke-linejoin:miter;stroke-miterlimit:4;stroke-dasharray:none;stroke-dashoffset:0;stroke-opacity:1;enable-background:new"
         d="m 338.22399,69.500348 c 0.26984,-0.0251 0.54552,-0.0207 0.8236,0.0134 1.11228,0.1366 2.26444,0.696 3.45287,1.6048 0.64684,0.54391 -0.11143,1.53534 -0.80575,1.05349 -1.06504,-0.81444 -2.03341,-1.24827 -2.81006,-1.34365 -0.75967,-0.0933 -1.32301,0.10329 -1.84362,0.6071 -0.76001,1.03959 -0.99345,3.37437 -0.49326,6.2808 1.36423,-0.20598 2.84866,-0.32842 4.43048,-0.35712 1.17168,-1.43974 2.38211,-2.71177 3.58456,-3.76089 2.2029,-1.92199 4.36948,-3.15575 6.31874,-3.18727 0.27847,-0.004 0.55231,0.0165 0.82137,0.0625 1.14762,0.0295 2.07492,0.76016 2.51991,1.78558 0.45404,1.04626 0.53902,2.37598 0.32811,3.8524 -0.10496,0.89928 -1.46048,0.70795 -1.31241,-0.18525 0.18675,-1.30729 0.0738,-2.42803 -0.23436,-3.13817 -0.30817,-0.71013 -0.68833,-1.00885 -1.36374,-1.00885 -0.0398,-0.001 -0.0793,-0.005 -0.11831,-0.0134 -1.41354,-0.26177 -3.69055,0.73991 -6.08884,2.83238 -0.89316,0.77928 -1.79833,1.73623 -2.69623,2.76766 3.87239,0.0993 7.57846,0.73909 10.56173,1.75434 3.24929,1.10577 5.70584,2.58909 6.51293,4.60681 0.006,0.0118 0.0107,0.0237 0.0156,0.0357 0.32101,0.96302 0.1907,1.98043 -0.35712,2.8123 -0.54781,0.83187 -1.46153,1.4904 -2.67168,1.98869 -0.81834,0.33617 -1.32277,-0.89143 -0.50443,-1.22759 1.04333,-0.4296 1.71987,-0.96411 2.06682,-1.49096 0.34262,-0.52028 0.40512,-1.02581 0.20534,-1.64274 -0.52904,-1.29268 -2.6279,-2.78373 -5.69602,-3.82785 -3.08034,-1.04828 -7.06564,-1.70523 -11.17107,-1.70523 -0.022,0 -0.0427,0.002 -0.0647,0.002 -1.1244,1.42559 -2.21528,3.00371 -3.20513,4.70502 -0.0534,0.0919 -0.0996,0.18086 -0.15177,0.2723 0.65979,1.67339 1.45724,3.37804 2.40608,5.03089 2.01776,3.51481 4.30027,6.09888 6.26071,7.43697 0.98022,0.66903 1.87524,1.01692 2.57124,1.06688 0.69601,0.0499 1.18394,-0.136 1.62042,-0.64951 0.77324,-0.93204 1.0622,-2.91469 0.69414,-5.47505 -0.36851,-2.56361 -1.34214,-5.66392 -2.77881,-8.79847 -0.36759,-0.80298 0.83572,-1.35561 1.20527,-0.55353 1.47959,3.2282 2.49226,6.42359 2.88595,9.16228 0.39369,2.7387 0.2219,5.0619 -0.991,6.51739 -0.002,10e-4 -0.004,0.003 -0.007,0.004 -0.69026,0.81206 -1.68973,1.19032 -2.72525,1.11599 -1.03553,-0.0743 -2.11319,-0.53859 -3.22075,-1.29455 -2.21512,-1.5119 -4.57318,-4.2289 -6.6647,-7.8722 -0.78632,-1.36972 -1.48308,-2.77092 -2.08021,-4.16488 -1.46795,2.87592 -2.30356,5.47529 -2.48419,7.42358 -0.10886,1.17406 0.0241,2.10146 0.31471,2.70069 0.28617,0.59002 0.67646,0.88556 1.32802,0.99324 1.35281,0.0401 2.67831,-0.37108 3.76089,-1.18519 0.71251,-0.58675 1.5575,0.53517 0.79682,1.05796 -1.34108,1.00847 -2.98817,1.5229 -4.66484,1.45749 -0.0254,-3e-5 -0.0507,-0.001 -0.0759,-0.004 -1.0528,-0.16199 -1.89236,-0.81769 -2.33907,-1.73872 -0.44673,-0.92105 -0.56283,-2.07582 -0.43971,-3.40378 0.22727,-2.45126 1.30325,-5.54294 3.16049,-8.91677 -0.55867,-1.486 -0.97455,-2.93017 -1.29009,-4.31442 -1.40681,0.28387 -2.6326,0.65655 -3.60018,1.1026 -1.09933,0.50679 -1.86891,1.10201 -2.25877,1.66952 -0.38454,0.55978 -0.44627,1.05329 -0.20088,1.68515 0.5047,1.00669 1.31297,1.82735 2.3235,2.32572 0.79458,0.38986 0.2098,1.58173 -0.58478,1.19188 -1.28216,-0.63233 -2.32058,-1.67298 -2.95291,-2.95514 -0.008,-0.0153 -0.0155,-0.031 -0.0223,-0.0469 -0.40496,-1.01239 -0.24594,-2.08905 0.34596,-2.95068 0.5919,-0.86162 1.55521,-1.55014 2.7922,-2.12038 1.08374,-0.49959 2.39809,-0.90039 3.87696,-1.20081 -0.55321,-3.11386 -0.46226,-5.75693 0.76334,-7.36554 0.0185,-0.0244 0.0386,-0.0476 0.0602,-0.0692 0.59669,-0.59668 1.35105,-0.93569 2.16056,-1.01109 z m 1.72755,9.21586 c -1.10638,0.0529 -2.14923,0.15644 -3.12478,0.30131 0.23136,0.96963 0.51904,1.97385 0.87048,3.00872 0.7117,-1.17301 1.47549,-2.26353 2.2543,-3.31003 z m 4.13363,2.60472 c 1.45634,0 2.6516,1.19526 2.6516,2.6516 0,1.45634 -1.19526,2.65159 -2.6516,2.65159 -1.45634,0 -2.64937,-1.19525 -2.64937,-2.65159 0,-1.45634 1.19303,-2.6516 2.64937,-2.6516 z m 0,1.3258 c -0.73995,0 -1.3258,0.58585 -1.3258,1.3258 0,0.73994 0.58585,1.32579 1.3258,1.32579 0.73995,0 1.3258,-0.58585 1.3258,-1.32579 0,-0.73995 -0.58585,-1.3258 -1.3258,-1.3258 z"
         id="rect84-6-8-5"
         inkscape:connector-curvature="0"
         sodipodi:nodetypes="cccccccccccscccccscscccccccssccccscccccsccccscccccccccscccscccccsscccccccccssssssssss" />
      <path
         style="display:inline;opacity:1;vector-effect:none;fill:url(#linearGradient197-35);fill-opacity:1;stroke:none;stroke-width:0.48397008;stroke-linecap:butt;stroke-linejoin:miter;stroke-miterlimit:4;stroke-dasharray:none;stroke-dashoffset:0;stroke-opacity:1;enable-background:new"
         d="m 332.38954,138.93711 c 0.16865,-0.0157 0.34095,-0.013 0.51475,0.008 0.69518,0.0854 1.41527,0.43499 2.15804,1.00299 0.40428,0.33995 -0.0696,0.95959 -0.50359,0.65844 -0.66565,-0.50903 -1.27088,-0.78018 -1.75629,-0.83979 -0.47479,-0.0583 -0.82688,0.0646 -1.15226,0.37944 -0.47501,0.64974 -0.62091,2.10898 -0.30829,3.9255 0.85264,-0.12873 1.78041,-0.20526 2.76905,-0.2232 0.7323,-0.89984 1.48882,-1.69486 2.24035,-2.35056 1.37681,-1.20124 2.73092,-1.97234 3.94922,-1.99204 0.17404,-0.003 0.34519,0.0103 0.51335,0.0391 0.71726,0.0184 1.29682,0.4751 1.57494,1.11599 0.28377,0.65391 0.33689,1.48499 0.20507,2.40775 -0.0656,0.56205 -0.9128,0.44247 -0.82026,-0.11578 0.11673,-0.81706 0.0461,-1.51752 -0.14647,-1.96136 -0.19261,-0.44383 -0.43021,-0.63053 -0.85234,-0.63053 -0.0249,-6.6e-4 -0.0496,-0.003 -0.0739,-0.008 -0.88346,-0.16361 -2.30659,0.46244 -3.80553,1.77024 -0.55822,0.48705 -1.12395,1.08514 -1.68514,1.72978 2.42025,0.0621 4.73654,0.46194 6.60108,1.09647 2.03081,0.69111 3.56615,1.61818 4.07058,2.87925 0.003,0.007 0.007,0.0148 0.01,0.0223 0.20063,0.60189 0.11919,1.23777 -0.2232,1.75769 -0.34238,0.51992 -0.91346,0.9315 -1.6698,1.24293 -0.51146,0.2101 -0.82673,-0.55714 -0.31527,-0.76724 0.65208,-0.2685 1.07492,-0.60257 1.29176,-0.93185 0.21414,-0.32518 0.2532,-0.64113 0.12834,-1.02671 -0.33065,-0.80793 -1.64244,-1.73983 -3.56001,-2.39241 -1.92521,-0.65518 -4.41603,-1.06577 -6.98192,-1.06577 -0.0138,0 -0.0267,0.001 -0.0405,0.002 -0.70275,0.89099 -1.38455,1.87732 -2.00321,2.94063 -0.0334,0.0574 -0.0622,0.11304 -0.0949,0.17019 0.41237,1.04587 0.91077,2.11128 1.5038,3.14431 1.2611,2.19675 2.68766,3.8118 3.91294,4.6481 0.61264,0.41815 1.17203,0.63558 1.60703,0.6668 0.435,0.0312 0.73996,-0.085 1.01276,-0.40594 0.48328,-0.58252 0.66388,-1.82168 0.43384,-3.4219 -0.23032,-1.60226 -0.83884,-3.53995 -1.73676,-5.49905 -0.22974,-0.50186 0.52232,-0.84725 0.75329,-0.34596 0.92475,2.01763 1.55767,4.01475 1.80372,5.72643 0.24606,1.71168 0.13869,3.16369 -0.61937,4.07337 -0.001,8.8e-4 -0.003,0.002 -0.004,0.003 -0.43141,0.50753 -1.05608,0.74394 -1.70328,0.69749 -0.64721,-0.0465 -1.32075,-0.33662 -2.01297,-0.80909 -1.38445,-0.94494 -2.85824,-2.64307 -4.16544,-4.92013 -0.49145,-0.85608 -0.92692,-1.73183 -1.30013,-2.60305 -0.91747,1.79745 -1.43972,3.42205 -1.55262,4.63973 -0.068,0.73379 0.015,1.31342 0.19669,1.68794 0.17886,0.36876 0.4228,0.55347 0.83002,0.62077 0.84551,0.0251 1.67394,-0.23192 2.35056,-0.74074 0.44531,-0.36672 0.97343,0.33448 0.49801,0.66123 -0.83818,0.63029 -1.86761,0.95181 -2.91553,0.91092 -0.0158,-1e-5 -0.0317,-8.7e-4 -0.0474,-0.003 -0.65801,-0.10124 -1.18273,-0.51105 -1.46193,-1.0867 -0.2792,-0.57566 -0.35176,-1.29739 -0.27481,-2.12736 0.14204,-1.53204 0.81453,-3.46434 1.9753,-5.57298 -0.34916,-0.92875 -0.60909,-1.83136 -0.8063,-2.69651 -0.87926,0.17742 -1.64538,0.41034 -2.25012,0.68912 -0.68708,0.31674 -1.16807,0.68876 -1.41173,1.04345 -0.24034,0.34986 -0.27892,0.6583 -0.12554,1.05322 0.31543,0.62918 0.8206,1.14209 1.45218,1.45358 0.49662,0.24365 0.13113,0.98858 -0.36549,0.74492 -0.80135,-0.39521 -1.45036,-1.04562 -1.84557,-1.84697 -0.005,-0.01 -0.01,-0.0194 -0.0139,-0.0293 -0.2531,-0.63275 -0.15372,-1.30566 0.21622,-1.84418 0.36994,-0.53851 0.97201,-0.96883 1.74513,-1.32524 0.67733,-0.31224 1.4988,-0.56274 2.4231,-0.7505 -0.34576,-1.94617 -0.28892,-3.59809 0.47708,-4.60347 0.0115,-0.0153 0.0241,-0.0297 0.0377,-0.0432 0.37293,-0.37293 0.84441,-0.58481 1.35035,-0.63193 z m 1.07972,5.75991 c -0.69149,0.0331 -1.34327,0.0978 -1.95299,0.18832 0.1446,0.60602 0.3244,1.23366 0.54405,1.88045 0.44481,-0.73313 0.92218,-1.4147 1.40894,-2.06877 z m 2.58352,1.62795 c 0.91021,0 1.65724,0.74704 1.65724,1.65725 0,0.91021 -0.74703,1.65725 -1.65724,1.65725 -0.91022,0 -1.65586,-0.74704 -1.65586,-1.65725 0,-0.91021 0.74564,-1.65725 1.65586,-1.65725 z m 0,0.82863 c -0.46247,0 -0.82863,0.36615 -0.82863,0.82862 0,0.46247 0.36616,0.82862 0.82863,0.82862 0.46246,0 0.82862,-0.36615 0.82862,-0.82862 0,-0.46247 -0.36616,-0.82862 -0.82862,-0.82862 z"
         id="rect84-6-8-9"
         inkscape:connector-curvature="0"
         sodipodi:nodetypes="cccccccccccscccccscscccccccssccccscccccsccccscccccccccscccscccccsscccccccccssssssssss" />
      <path
         style="display:inline;opacity:1;vector-effect:none;fill:url(#linearGradient2659);fill-opacity:1;stroke:url(#linearGradient2695);stroke-width:1.5;stroke-linecap:butt;stroke-linejoin:round;stroke-miterlimit:6.4000001;stroke-dasharray:none;stroke-dashoffset:0;stroke-opacity:1;enable-background:new"
         d="m 329.47303,193.65617 c 0.11806,-0.011 0.23867,-0.009 0.36033,0.006 0.48663,0.0598 0.99071,0.3045 1.51065,0.70211 0.283,0.23796 -0.0487,0.67172 -0.35251,0.4609 -0.46596,-0.35632 -0.88964,-0.54613 -1.22942,-0.58785 -0.33237,-0.0408 -0.57883,0.0451 -0.8066,0.26561 -0.33251,0.45483 -0.43464,1.47631 -0.2158,2.7479 0.59685,-0.0901 1.2463,-0.14369 1.93836,-0.15625 0.51262,-0.62989 1.04219,-1.18642 1.56827,-1.64542 0.96378,-0.84088 1.91168,-1.38065 2.76449,-1.39444 0.12183,-0.002 0.24164,0.007 0.35935,0.0273 0.50209,0.0129 0.90779,0.33257 1.10248,0.7812 0.19864,0.45775 0.23583,1.03951 0.14355,1.68545 -0.0459,0.39344 -0.63897,0.30973 -0.57418,-0.081 0.0817,-0.57194 0.0323,-1.06227 -0.10254,-1.37296 -0.13483,-0.31069 -0.30115,-0.44138 -0.59664,-0.44138 -0.0174,-4.4e-4 -0.0347,-0.003 -0.0518,-0.006 -0.61844,-0.11452 -1.61464,0.32372 -2.66391,1.23919 -0.39077,0.34094 -0.78678,0.75961 -1.17962,1.21087 1.6942,0.0435 3.31563,0.32336 4.62083,0.76753 1.42159,0.48379 2.49634,1.13275 2.84945,2.01552 0.003,0.005 0.004,0.0103 0.007,0.0156 0.14044,0.42133 0.0834,0.86646 -0.15624,1.2304 -0.23968,0.36395 -0.63943,0.65206 -1.16888,0.87007 -0.35803,0.14707 -0.57872,-0.39 -0.22069,-0.53707 0.45646,-0.18797 0.75245,-0.42181 0.90424,-0.65232 0.1499,-0.22762 0.17725,-0.44879 0.0898,-0.71871 -0.23146,-0.56555 -1.14972,-1.21789 -2.49205,-1.6747 -1.34767,-0.45863 -3.09126,-0.74606 -4.88741,-0.74606 -0.01,0 -0.0187,8.8e-4 -0.0284,8.8e-4 -0.49193,0.62371 -0.9692,1.31415 -1.40226,2.05848 -0.0234,0.0402 -0.0436,0.0791 -0.0664,0.11913 0.28867,0.73212 0.63756,1.47791 1.05268,2.20105 0.88278,1.53775 1.88139,2.6683 2.73911,3.25372 0.42885,0.29271 0.82043,0.44491 1.12493,0.46677 0.30451,0.0219 0.51798,-0.0595 0.70895,-0.28416 0.33829,-0.40778 0.46472,-1.2752 0.30369,-2.39538 -0.16123,-1.12159 -0.5872,-2.47799 -1.21575,-3.84938 -0.16082,-0.35131 0.36563,-0.5931 0.52731,-0.24218 0.64733,1.41236 1.09038,2.81037 1.26262,4.00856 0.17225,1.1982 0.0971,2.21462 -0.43357,2.8514 -8.7e-4,6.2e-4 -0.002,8.8e-4 -0.003,0.002 -0.302,0.35529 -0.73927,0.52078 -1.19231,0.48825 -0.45306,-0.0325 -0.92454,-0.23563 -1.40911,-0.56637 -0.96913,-0.66146 -2.00079,-1.85017 -2.91585,-3.44414 -0.34402,-0.59926 -0.64886,-1.21229 -0.9101,-1.82216 -0.64224,1.25823 -1.00782,2.39547 -1.08685,3.24787 -0.0476,0.51366 0.0105,0.9194 0.13769,1.18157 0.1252,0.25814 0.29595,0.38743 0.58102,0.43454 0.59186,0.0176 1.17177,-0.16235 1.64541,-0.51852 0.31173,-0.25671 0.68141,0.23413 0.34861,0.46286 -0.58673,0.44121 -1.30734,0.66628 -2.0409,0.63766 -0.0111,-10e-6 -0.0222,-6.1e-4 -0.0333,-0.002 -0.46061,-0.0709 -0.82792,-0.35774 -1.02335,-0.7607 -0.19546,-0.40296 -0.24625,-0.90819 -0.19238,-1.48918 0.0994,-1.07244 0.57017,-2.42507 1.38274,-3.90114 -0.24443,-0.65014 -0.42638,-1.28198 -0.56443,-1.88759 -0.61549,0.1242 -1.15178,0.28724 -1.5751,0.4824 -0.48096,0.22171 -0.81766,0.48213 -0.98823,0.73042 -0.16824,0.24491 -0.19525,0.46082 -0.0879,0.73726 0.22081,0.44044 0.57443,0.79948 1.01654,1.01753 0.34764,0.17056 0.0918,0.69201 -0.25584,0.52144 -0.56095,-0.27664 -1.01527,-0.73193 -1.29192,-1.29289 -0.004,-0.007 -0.007,-0.0136 -0.01,-0.0205 -0.17718,-0.44293 -0.1076,-0.91397 0.15136,-1.29095 0.25896,-0.37696 0.68041,-0.67818 1.2216,-0.92768 0.47415,-0.21857 1.04918,-0.39392 1.6962,-0.52535 -0.24204,-1.36234 -0.20225,-2.5187 0.33396,-3.22248 0.008,-0.0107 0.0169,-0.0208 0.0263,-0.0303 0.26106,-0.26105 0.5911,-0.40937 0.94526,-0.44236 z m 0.75581,4.032 c -0.48404,0.0231 -0.94029,0.0684 -1.36711,0.13183 0.10122,0.42422 0.22709,0.86357 0.38084,1.31633 0.31138,-0.5132 0.64554,-0.9903 0.98627,-1.44816 z m 1.8085,1.13959 c 0.63716,0 1.16009,0.52293 1.16009,1.16009 0,0.63716 -0.52293,1.16008 -1.16009,1.16008 -0.63716,0 -1.15912,-0.52292 -1.15912,-1.16008 0,-0.63716 0.52196,-1.16009 1.15912,-1.16009 z m 0,0.58004 c -0.32374,0 -0.58005,0.25631 -0.58005,0.58005 0,0.32373 0.25631,0.58004 0.58005,0.58004 0.32373,0 0.58005,-0.25631 0.58005,-0.58004 0,-0.32374 -0.25632,-0.58005 -0.58005,-0.58005 z"
         id="rect84-6-8-0"
         inkscape:connector-curvature="0"
         sodipodi:nodetypes="cccccccccccscccccscscccccccssccccscccccsccccscccccccccscccscccccsscccccccccssssssssss" />
      <path
         style="display:inline;opacity:1;vector-effect:none;fill:url(#linearGradient2659);fill-opacity:1;stroke:url(#linearGradient18421);stroke-width:1.5;stroke-linecap:butt;stroke-linejoin:round;stroke-miterlimit:6.4000001;stroke-dasharray:none;stroke-dashoffset:0;stroke-opacity:1;enable-background:new"
         d="m 326.19475,238.96888 c 0.0843,-0.008 0.17048,-0.006 0.25738,0.004 0.34759,0.0427 0.70763,0.2175 1.07902,0.5015 0.20214,0.16997 -0.0348,0.47979 -0.2518,0.32922 -0.33282,-0.25452 -0.63544,-0.39009 -0.87814,-0.4199 -0.2374,-0.0292 -0.41344,0.0323 -0.57613,0.18972 -0.23751,0.32487 -0.31046,1.05449 -0.15415,1.96275 0.42632,-0.0644 0.89021,-0.10263 1.38453,-0.1116 0.36615,-0.44992 0.74441,-0.84743 1.12017,-1.17528 0.68841,-0.60062 1.36546,-0.98617 1.97461,-0.99602 0.087,-10e-4 0.1726,0.005 0.25668,0.0195 0.35863,0.009 0.64841,0.23755 0.78747,0.558 0.14188,0.32695 0.16844,0.74249 0.10253,1.20387 -0.0328,0.28103 -0.4564,0.22124 -0.41013,-0.0579 0.0584,-0.40853 0.0231,-0.75876 -0.0732,-0.98068 -0.0963,-0.22191 -0.21511,-0.31526 -0.42617,-0.31526 -0.0124,-3.1e-4 -0.0248,-0.002 -0.037,-0.004 -0.44173,-0.0818 -1.1533,0.23122 -1.90277,0.88512 -0.27911,0.24352 -0.56197,0.54257 -0.84257,0.86489 1.21013,0.031 2.36827,0.23097 3.30054,0.54823 1.0154,0.34556 1.78308,0.80909 2.03529,1.43963 0.002,0.004 0.003,0.007 0.005,0.0112 0.10031,0.30094 0.0596,0.61888 -0.1116,0.87884 -0.17119,0.25996 -0.45673,0.46575 -0.8349,0.62147 -0.25574,0.10505 -0.41337,-0.27857 -0.15764,-0.38362 0.32604,-0.13425 0.53746,-0.30129 0.64588,-0.46593 0.10707,-0.16259 0.1266,-0.32056 0.0642,-0.51335 -0.16532,-0.40397 -0.82122,-0.86992 -1.78,-1.19621 -0.96261,-0.32759 -2.20802,-0.53288 -3.49096,-0.53288 -0.007,0 -0.0134,6.6e-4 -0.0202,7.7e-4 -0.35138,0.44549 -0.69228,0.93866 -1.00161,1.47032 -0.0167,0.0287 -0.0311,0.0565 -0.0474,0.0851 0.20618,0.52293 0.45538,1.05564 0.7519,1.57215 0.63055,1.09838 1.34383,1.9059 1.95647,2.32405 0.30632,0.20908 0.58601,0.31779 0.80351,0.33341 0.2175,0.0156 0.36998,-0.0425 0.50638,-0.20297 0.24164,-0.29127 0.33194,-0.91085 0.21692,-1.71096 -0.11516,-0.80113 -0.41942,-1.76997 -0.86838,-2.74952 -0.11487,-0.25093 0.26116,-0.42363 0.37665,-0.17298 0.46237,1.00881 0.77883,2.00737 0.90186,2.86321 0.12303,0.85585 0.0693,1.58185 -0.30969,2.03669 -6.6e-4,4.4e-4 -0.001,8.8e-4 -0.002,0.001 -0.2157,0.25377 -0.52804,0.37197 -0.85164,0.34874 -0.3236,-0.0232 -0.66037,-0.16831 -1.00648,-0.40454 -0.69223,-0.47247 -1.42912,-1.32154 -2.08272,-2.46007 -0.24573,-0.42804 -0.46346,-0.86591 -0.65007,-1.30152 -0.45873,0.89872 -0.71986,1.71103 -0.77631,2.31986 -0.034,0.3669 0.008,0.65671 0.0984,0.84397 0.0894,0.18438 0.21139,0.27674 0.41501,0.31039 0.42275,0.0125 0.83697,-0.11596 1.17528,-0.37037 0.22265,-0.18336 0.48671,0.16724 0.249,0.33061 -0.41909,0.31515 -0.9338,0.47591 -1.45776,0.45546 -0.008,0 -0.0159,-4.3e-4 -0.0237,-0.001 -0.329,-0.0506 -0.59136,-0.25553 -0.73096,-0.54335 -0.1396,-0.28783 -0.17588,-0.6487 -0.13741,-1.06368 0.071,-0.76602 0.40726,-1.73217 0.98765,-2.78649 -0.17458,-0.46438 -0.30454,-0.91568 -0.40315,-1.34826 -0.43963,0.0887 -0.82269,0.20517 -1.12506,0.34456 -0.34354,0.15837 -0.58403,0.34438 -0.70586,0.52173 -0.12017,0.17493 -0.13946,0.32915 -0.0628,0.52661 0.15771,0.31459 0.4103,0.57104 0.72609,0.72679 0.24831,0.12183 0.0656,0.49429 -0.18275,0.37246 -0.40067,-0.19761 -0.72518,-0.52281 -0.92278,-0.92349 -0.003,-0.005 -0.005,-0.01 -0.007,-0.0146 -0.12655,-0.31638 -0.0769,-0.65283 0.10811,-0.92209 0.18497,-0.26926 0.48601,-0.48442 0.87257,-0.66262 0.33866,-0.15612 0.7494,-0.28137 1.21155,-0.37525 -0.17288,-0.97308 -0.14446,-1.79904 0.23854,-2.30173 0.006,-0.008 0.0121,-0.0149 0.0188,-0.0216 0.18646,-0.18646 0.4222,-0.2924 0.67517,-0.31596 z m 0.53986,2.87995 c -0.34574,0.0165 -0.67163,0.0489 -0.97649,0.0942 0.0723,0.303 0.1622,0.61682 0.27202,0.94022 0.22241,-0.36657 0.46109,-0.70735 0.70447,-1.03439 z m 1.29176,0.81398 c 0.45511,0 0.82862,0.37352 0.82862,0.82862 0,0.45511 -0.37351,0.82863 -0.82862,0.82863 -0.45511,0 -0.82793,-0.37352 -0.82793,-0.82863 0,-0.4551 0.37282,-0.82862 0.82793,-0.82862 z m 0,0.41431 c -0.23123,0 -0.41431,0.18308 -0.41431,0.41431 0,0.23124 0.18308,0.41431 0.41431,0.41431 0.23123,0 0.41431,-0.18307 0.41431,-0.41431 0,-0.23123 -0.18308,-0.41431 -0.41431,-0.41431 z"
         id="rect84-6-8-06"
         inkscape:connector-curvature="0"
         sodipodi:nodetypes="cccccccccccscccccscscccccccssccccscccccsccccscccccccccscccscccccsscccccccccssssssssss" />
      <path
         style="display:inline;opacity:0.07000002;vector-effect:none;fill:#ffffff;fill-opacity:1;stroke:none;stroke-width:3.78067398;stroke-linecap:butt;stroke-linejoin:miter;stroke-miterlimit:4;stroke-dasharray:none;stroke-dashoffset:0;stroke-opacity:1;enable-background:new"
         d="M 100.33006,44.189464 C 40.97801,45.82225 31.99997,59.58052 31.99998,126.93751 v 58.125 c 0,72.58088 10.3826,82.9375 83.03125,82.9375 h 73.9375 c 5.41844,0 10.45005,-0.0683 15.19727,-0.20508 z"
         id="rect2214-7"
         inkscape:connector-curvature="0" />
      <path
         style="display:inline;opacity:0.1;vector-effect:none;fill:#ffffff;fill-opacity:1;stroke:none;stroke-width:3.83789062;stroke-linecap:butt;stroke-linejoin:miter;stroke-miterlimit:4;stroke-dasharray:none;stroke-dashoffset:0;stroke-opacity:1;enable-background:new"
         d="m 115.03123,44.000011 c -72.64865,-1e-5 -83.03126,10.35691 -83.03125,82.937499 v 58.125 c 0,58.59376 6.78708,76.62684 47.61718,81.4043 L 223.69725,45.445323 c -9.60413,-1.077976 -21.06386,-1.445312 -34.72852,-1.445312 z"
         id="rect2214-6-9"
         inkscape:connector-curvature="0" />
      <path
         style="display:inline;opacity:0.07000002;vector-effect:none;fill:#ffffff;fill-opacity:1;stroke:none;stroke-width:0.70887637;stroke-linecap:butt;stroke-linejoin:miter;stroke-miterlimit:4;stroke-dasharray:none;stroke-dashoffset:0;stroke-opacity:1;enable-background:new"
         d="M 333.31189,63.53552 C 322.18338,63.84167 320.5,66.42135 320.5,79.05078 v 10.89844 c 0,13.6089 1.94674,15.55078 15.56836,15.55078 h 13.86328 c 1.01596,0 1.95938,-0.0128 2.84949,-0.0385 z"
         id="rect2214-7-7"
         inkscape:connector-curvature="0" />
      <path
         style="display:inline;opacity:0.1;vector-effect:none;fill:#ffffff;fill-opacity:1;stroke:none;stroke-width:0.71960449;stroke-linecap:butt;stroke-linejoin:miter;stroke-miterlimit:4;stroke-dasharray:none;stroke-dashoffset:0;stroke-opacity:1;enable-background:new"
         d="M 336.06836,63.5 C 322.44674,63.5 320.5,65.44192 320.5,79.05078 v 10.89844 c 0,10.98634 1.27258,14.36753 8.92822,15.26331 L 356.44324,63.771 c -1.80078,-0.20212 -3.94948,-0.271 -6.5116,-0.271 z"
         id="rect2214-6-9-5"
         inkscape:connector-curvature="0" />
      <path
         style="display:inline;opacity:0.07000002;vector-effect:none;fill:#ffffff;fill-opacity:1;stroke:none;stroke-width:0.48946226;stroke-linecap:butt;stroke-linejoin:miter;stroke-miterlimit:4;stroke-dasharray:none;stroke-dashoffset:0;stroke-opacity:1;enable-background:new"
         d="m 328.97563,133.52453 c -7.68397,0.21138 -8.8463,1.99259 -8.8463,10.71291 v 7.52512 c 0,9.39663 1.34418,10.73744 10.74958,10.73744 h 9.57227 c 0.70149,0 1.35291,-0.009 1.9675,-0.0265 z"
         id="rect2214-7-9"
         inkscape:connector-curvature="0" />
      <path
         style="display:inline;opacity:0.1;vector-effect:none;fill:#ffffff;fill-opacity:1;stroke:none;stroke-width:0.49686977;stroke-linecap:butt;stroke-linejoin:miter;stroke-miterlimit:4;stroke-dasharray:none;stroke-dashoffset:0;stroke-opacity:1;enable-background:new"
         d="m 330.87891,133.5 c -9.4054,0 -10.74958,1.34085 -10.74958,10.73744 v 7.52512 c 0,7.5858 0.87868,9.92043 6.16472,10.53895 l 18.65323,-28.61439 C 343.70389,133.54756 342.22026,133.5 340.45118,133.5 Z"
         id="rect2214-6-9-2"
         inkscape:connector-curvature="0" />
    </g>
    <g
       inkscape:groupmode="layer"
       id="layer6"
       inkscape:label="Pictogram"
       style="display:inline" />
    <g
       inkscape:groupmode="layer"
       id="layer5"
       inkscape:label="Border"
       style="display:inline">
      <path
         style="display:inline;opacity:0.5;fill:none;fill-opacity:1;stroke:#000000;stroke-width:1;stroke-linecap:round;stroke-linejoin:round;stroke-miterlimit:4;stroke-dasharray:none;stroke-dashoffset:0;stroke-opacity:1;enable-background:new"
         d="m 341.12109,133.5 c 9.08109,0 10.37891,1.29458 10.37891,10.36719 v 8.26562 c 0,9.07258 -1.29782,10.36719 -10.37891,10.36719 H 330.87891 C 321.79783,162.5 320.5,161.20539 320.5,152.13281 v -8.26562 c 0,-9.07261 1.29783,-10.36719 10.37891,-10.36719 z"
         id="path950"
         inkscape:connector-curvature="0"
         sodipodi:nodetypes="sssssssss" />
      <path
         style="display:inline;opacity:0.5;fill:none;fill-opacity:1;stroke:#000000;stroke-width:1;stroke-linecap:round;stroke-linejoin:round;stroke-miterlimit:4;stroke-dasharray:none;stroke-dashoffset:0;stroke-opacity:1;enable-background:new"
         d="M 351.93164,62.5 C 365.55326,62.5 367.5,64.44187 367.5,78.05078 V 89.94922 C 367.5,103.55808 365.55326,105.5 351.93164,105.5 H 336.06836 C 322.44674,105.5 320.5,103.55808 320.5,89.94922 V 78.05078 C 320.5,64.44187 322.44674,62.5 336.06836,62.5 Z"
         id="path892"
         inkscape:connector-curvature="0"
         sodipodi:nodetypes="sssssssss" />
      <path
         sodipodi:nodetypes="sssssssss"
         inkscape:connector-curvature="0"
         id="path970"
         d="m 335.71582,189.50031 c 6.81081,10e-6 7.78418,0.97093 7.78418,7.77539 v 5.44891 c 0,6.80444 -0.97337,7.77539 -7.78418,7.77539 h -7.43164 c -6.81081,0 -7.78418,-0.97095 -7.78418,-7.77539 v -5.44892 c 0,-6.80446 0.97337,-7.7754 7.78418,-7.77539 z"
         style="display:inline;opacity:0.5;fill:none;fill-opacity:1;stroke:#000000;stroke-width:1;stroke-linecap:round;stroke-linejoin:round;stroke-miterlimit:4;stroke-dasharray:none;stroke-dashoffset:0;stroke-opacity:1;enable-background:new" />
      <path
         sodipodi:nodetypes="sssssssss"
         inkscape:connector-curvature="0"
         id="path1025"
         d="m 330.31054,236.5 c 4.54055,0 5.18946,0.64729 5.18946,5.18359 v 3.63282 c 0,4.53629 -0.64891,5.18359 -5.18946,5.18359 h -4.62109 c -4.54053,0 -5.18945,-0.6473 -5.18945,-5.18359 v -3.63282 c 0,-4.5363 0.64892,-5.18359 5.18946,-5.18359 z"
         style="display:inline;opacity:0.5;fill:none;fill-opacity:1;stroke:#000000;stroke-width:1;stroke-linecap:round;stroke-linejoin:round;stroke-miterlimit:4;stroke-dasharray:none;stroke-dashoffset:0;stroke-opacity:1;enable-background:new" />
    </g>
    <g
       inkscape:groupmode="layer"
       id="layer3"
       inkscape:label="Highlights"
       style="display:inline">
      <path
         style="color:#000000;font-style:normal;font-variant:normal;font-weight:normal;font-stretch:normal;font-size:medium;line-height:normal;font-family:sans-serif;font-variant-ligatures:normal;font-variant-position:normal;font-variant-caps:normal;font-variant-numeric:normal;font-variant-alternates:normal;font-feature-settings:normal;text-indent:0;text-align:start;text-decoration:none;text-decoration-line:none;text-decoration-style:solid;text-decoration-color:#000000;letter-spacing:normal;word-spacing:normal;text-transform:none;writing-mode:lr-tb;direction:ltr;text-orientation:mixed;dominant-baseline:auto;baseline-shift:baseline;text-anchor:start;white-space:normal;shape-padding:0;clip-rule:nonzero;display:inline;overflow:visible;visibility:visible;opacity:0.5;isolation:auto;mix-blend-mode:normal;color-interpolation:sRGB;color-interpolation-filters:linearRGB;solid-color:#000000;solid-opacity:1;vector-effect:none;fill:none;fill-opacity:1;fill-rule:nonzero;stroke:url(#linearGradient929);stroke-width:1;stroke-linecap:round;stroke-linejoin:round;stroke-miterlimit:4;stroke-dasharray:none;stroke-dashoffset:0;stroke-opacity:1;color-rendering:auto;image-rendering:auto;shape-rendering:auto;text-rendering:auto;enable-background:accumulate"
         d="m 351.93164,63.5 h -15.86328 c -6.76329,0 -10.36307,0.55877 -12.18555,2.37891 -1.82247,1.82013 -2.38281,5.4151 -2.38281,12.17187 v 11.89844 c 0,6.75675 0.56034,10.35173 2.38281,12.17187 1.82248,1.82015 5.42226,2.37891 12.18555,2.37891 h 15.86328 c 6.76329,0 10.36307,-0.55876 12.18555,-2.37891 C 365.93966,100.30095 366.5,96.70597 366.5,89.94922 V 78.05078 c 0,-6.75677 -0.56034,-10.35174 -2.38281,-12.17187 C 362.29471,64.05877 358.69493,63.5 351.93164,63.5 Z"
         id="path911"
         inkscape:connector-curvature="0"
         sodipodi:nodetypes="sssssssssssss" />
      <path
         style="color:#000000;font-style:normal;font-variant:normal;font-weight:normal;font-stretch:normal;font-size:medium;line-height:normal;font-family:sans-serif;font-variant-ligatures:normal;font-variant-position:normal;font-variant-caps:normal;font-variant-numeric:normal;font-variant-alternates:normal;font-feature-settings:normal;text-indent:0;text-align:start;text-decoration:none;text-decoration-line:none;text-decoration-style:solid;text-decoration-color:#000000;letter-spacing:normal;word-spacing:normal;text-transform:none;writing-mode:lr-tb;direction:ltr;text-orientation:mixed;dominant-baseline:auto;baseline-shift:baseline;text-anchor:start;white-space:normal;shape-padding:0;clip-rule:nonzero;display:inline;overflow:visible;visibility:visible;opacity:0.5;isolation:auto;mix-blend-mode:normal;color-interpolation:sRGB;color-interpolation-filters:linearRGB;solid-color:#000000;solid-opacity:1;vector-effect:none;fill:none;fill-opacity:1;fill-rule:nonzero;stroke:url(#linearGradient965);stroke-width:1;stroke-linecap:round;stroke-linejoin:round;stroke-miterlimit:4;stroke-dasharray:none;stroke-dashoffset:0;stroke-opacity:1;color-rendering:auto;image-rendering:auto;shape-rendering:auto;text-rendering:auto;enable-background:accumulate"
         d="m 341.12109,161.5 h -10.24218 c -4.49302,0 -6.796,-0.397 -7.88868,-1.48828 -1.09267,-1.09128 -1.49023,-3.39029 -1.49023,-7.87891 v -8.26562 c 0,-4.48861 0.39755,-6.78763 1.49023,-7.87891 1.09268,-1.09128 3.39566,-1.48828 7.88868,-1.48828 h 10.24218 c 4.49303,0 6.796,0.397 7.88868,1.48828 1.09268,1.09128 1.49023,3.3903 1.49023,7.87891 v 8.26562 c 0,4.48862 -0.39756,6.78763 -1.49023,7.87891 -1.09268,1.09128 -3.39565,1.48828 -7.88868,1.48828 z"
         id="path955"
         inkscape:connector-curvature="0"
         sodipodi:nodetypes="sscssssscssss" />
      <path
         style="color:#000000;font-style:normal;font-variant:normal;font-weight:normal;font-stretch:normal;font-size:medium;line-height:normal;font-family:sans-serif;font-variant-ligatures:normal;font-variant-position:normal;font-variant-caps:normal;font-variant-numeric:normal;font-variant-alternates:normal;font-feature-settings:normal;text-indent:0;text-align:start;text-decoration:none;text-decoration-line:none;text-decoration-style:solid;text-decoration-color:#000000;letter-spacing:normal;word-spacing:normal;text-transform:none;writing-mode:lr-tb;direction:ltr;text-orientation:mixed;dominant-baseline:auto;baseline-shift:baseline;text-anchor:start;white-space:normal;shape-padding:0;clip-rule:nonzero;display:inline;overflow:visible;visibility:visible;opacity:0.5;isolation:auto;mix-blend-mode:normal;color-interpolation:sRGB;color-interpolation-filters:linearRGB;solid-color:#000000;solid-opacity:1;vector-effect:none;fill:none;fill-opacity:1;fill-rule:nonzero;stroke:url(#linearGradient1006);stroke-width:1;stroke-linecap:round;stroke-linejoin:round;stroke-miterlimit:4;stroke-dasharray:none;stroke-dashoffset:0;stroke-opacity:1;color-rendering:auto;image-rendering:auto;shape-rendering:auto;text-rendering:auto;enable-background:accumulate"
         d="m 335.71484,190.5 h -7.43164 c -3.35788,0 -5.0105,0.31612 -5.73828,1.04297 -0.72778,0.72685 -1.04492,2.37787 -1.04492,5.73242 v 5.44922 c 0,3.35454 0.31714,5.00557 1.04492,5.73242 0.72778,0.72685 2.38235,1.04297 5.74024,1.04297 h 7.42968 c 3.35789,0 5.01246,-0.31612 5.74024,-1.04297 0.72778,-0.72685 1.04492,-2.37788 1.04492,-5.73242 v -5.44922 c 0,-3.35455 -0.31714,-5.00558 -1.04492,-5.73242 C 340.7273,190.81612 339.07273,190.5 335.71484,190.5 Z"
         id="path974"
         inkscape:connector-curvature="0"
         sodipodi:nodetypes="ssssssssssscs" />
      <path
         style="color:#000000;font-style:normal;font-variant:normal;font-weight:normal;font-stretch:normal;font-size:medium;line-height:normal;font-family:sans-serif;font-variant-ligatures:normal;font-variant-position:normal;font-variant-caps:normal;font-variant-numeric:normal;font-variant-alternates:normal;font-feature-settings:normal;text-indent:0;text-align:start;text-decoration:none;text-decoration-line:none;text-decoration-style:solid;text-decoration-color:#000000;letter-spacing:normal;word-spacing:normal;text-transform:none;writing-mode:lr-tb;direction:ltr;text-orientation:mixed;dominant-baseline:auto;baseline-shift:baseline;text-anchor:start;white-space:normal;shape-padding:0;clip-rule:nonzero;display:inline;overflow:visible;visibility:visible;opacity:0.5;isolation:auto;mix-blend-mode:normal;color-interpolation:sRGB;color-interpolation-filters:linearRGB;solid-color:#000000;solid-opacity:1;vector-effect:none;fill:none;fill-opacity:1;fill-rule:nonzero;stroke:url(#linearGradient1045);stroke-width:1;stroke-linecap:round;stroke-linejoin:round;stroke-miterlimit:4;stroke-dasharray:none;stroke-dashoffset:0;stroke-opacity:1;color-rendering:auto;image-rendering:auto;shape-rendering:auto;text-rendering:auto;enable-background:accumulate"
         d="m 325.68945,237.5 h 4.6211 c 2.22275,0 3.22696,0.23524 3.58984,0.59766 0.36288,0.36241 0.59961,1.36547 0.59961,3.58593 v 3.63282 c 0,2.22046 -0.23673,3.22352 -0.59961,3.58593 -0.36288,0.36242 -1.36709,0.59766 -3.58984,0.59766 h -4.6211 c -2.22274,0 -3.22696,-0.23524 -3.58984,-0.59766 -0.36288,-0.36242 -0.59961,-1.36547 -0.59961,-3.58593 v -3.63282 c 0,-2.22046 0.23673,-3.22352 0.59961,-3.58593 0.36288,-0.36242 1.36709,-0.59766 3.58984,-0.59766 z"
         id="path1035"
         inkscape:connector-curvature="0"
         sodipodi:nodetypes="sscsscssssscs" />
      <path
         sodipodi:nodetypes="sssssssss"
         inkscape:connector-curvature="0"
         id="path1068"
         d="M 361.9375,-212 C 507.2348,-212 528,-191.28677 528,-46.125 V 70.125 C 528,215.28618 507.2348,236 361.9375,236 H 214.0625 C 68.7652,236 48,215.28618 48,70.125 V -46.125 C 48,-191.28677 68.7652,-212 214.0625,-212 Z"
         style="display:inline;opacity:0.4;fill:none;fill-opacity:1;stroke:url(#linearGradient1108);stroke-width:8;stroke-linecap:round;stroke-linejoin:round;stroke-miterlimit:4;stroke-dasharray:none;stroke-dashoffset:0;stroke-opacity:1;enable-background:new"
         clip-path="url(#clipPath1082-3)"
         transform="matrix(0.5,0,0,0.5,8,150)"
         inkscape:export-xdpi="96"
         inkscape:export-ydpi="96" />
    </g>
  </g>
</svg>
