<?xml version="1.0" encoding="UTF-8" standalone="no"?>
<!DOCTYPE svg PUBLIC "-//W3C//DTD SVG 1.1//EN" "http://www.w3.org/Graphics/SVG/1.1/DTD/svg11.dtd">
<svg width="100%" height="100%" viewBox="0 0 400 300" version="1.1" xmlns="http://www.w3.org/2000/svg" xmlns:xlink="http://www.w3.org/1999/xlink" xml:space="preserve" xmlns:serif="http://www.serif.com/" style="fill-rule:evenodd;clip-rule:evenodd;">
    <g id="Icon">
        <g transform="matrix(1,0,0,1,-13.9983,-292)">
            <path d="M356.288,425.996C356.205,425.996 356.132,426.003 356.071,426.011L356.034,426.017L355.997,426.029C354.976,426.334 354.642,427.697 355.45,428.398L355.45,428.4L360.54,433.166L360.546,433.17C360.987,433.562 361.582,433.568 362.054,433.389C362.526,433.209 362.971,432.794 362.995,432.199L362.995,430.834C363.001,429.797 363.02,429.012 362.977,428.379C362.935,427.745 362.834,427.23 362.505,426.826C362.176,426.421 361.676,426.233 361.075,426.14C360.474,426.047 359.723,426.029 358.714,426.008L356.438,426.008C356.39,426.003 356.343,425.996 356.288,425.996ZM349.03,425.998L344.075,426C341.276,426 339.5,426.102 338.356,427.133C338.114,427.352 337.925,427.608 337.768,427.877C337.757,427.897 337.712,427.955 337.657,428.064C337.566,428.245 337.486,428.437 337.419,428.641C337.352,428.842 337.294,429.059 337.245,429.291C337.196,429.521 337.158,429.762 337.126,430.019L337.126,430.021C337.061,430.537 337.026,431.112 337.01,431.758C337.003,432.08 336.999,432.42 337.001,432.781L337.001,449.221C336.999,449.58 337.002,449.919 337.01,450.242C337.026,450.888 337.061,451.464 337.126,451.98C337.158,452.238 337.196,452.479 337.245,452.709C337.342,453.169 337.476,453.576 337.657,453.935C337.838,454.296 338.07,454.611 338.356,454.869C338.5,454.998 338.657,455.112 338.823,455.213C339.156,455.415 339.532,455.563 339.952,455.674L339.952,455.676C341.001,455.951 342.326,456 344.075,456L355.93,456C356.626,456 357.253,455.99 357.821,455.963L357.823,455.963C358.062,455.951 358.281,455.934 358.493,455.916L358.497,455.916C358.503,455.915 358.549,455.912 358.587,455.91L358.6,455.91C358.616,455.909 358.615,455.91 358.634,455.908L358.636,455.908C359.15,455.859 359.61,455.785 360.024,455.678C360.23,455.624 360.43,455.562 360.62,455.486C360.809,455.411 360.985,455.323 361.149,455.224C361.315,455.125 361.471,455.012 361.614,454.885C361.743,454.77 361.855,454.645 361.956,454.519L361.983,454.492L361.999,454.472L362.005,454.464L362.007,454.46L362.015,454.452L362.023,454.439C362.023,454.439 362.031,454.423 362.035,454.415C362.038,454.411 362.044,454.407 362.046,454.403C362.046,454.404 362.039,454.406 362.038,454.407C362.048,454.389 362.056,454.377 362.064,454.361C362.058,454.373 362.054,454.384 362.052,454.388C362.147,454.256 362.24,454.119 362.318,453.968C362.41,453.789 362.49,453.599 362.558,453.4C362.627,453.199 362.684,452.987 362.734,452.761C362.784,452.534 362.825,452.295 362.859,452.042C362.89,451.813 362.913,451.57 362.933,451.323L362.935,451.321L362.935,451.317C362.934,451.336 362.94,451.308 362.945,451.235L362.945,451.233C362.947,451.203 362.949,451.171 362.945,451.227L362.945,451.223C362.986,450.659 363.002,450.034 363.004,449.333L363.004,438.141C362.997,436.58 361.683,435.451 360.736,434.637L360.726,434.629L360.724,434.627L354.013,428.153L354.005,428.147C352.462,426.756 351.211,425.996 349.031,425.996L349.03,425.998Z" style="fill-opacity:0.1;fill-rule:nonzero;"/>
        </g>
        <g transform="matrix(1,0,0,1,-13.9983,-292)">
            <path d="M347.623,426.676C346.459,426.675 345.287,426.741 344.15,426.688C342.509,426.847 340.463,426.373 339.107,427.504C338.325,431.42 338.791,435.454 338.605,439.438C338.686,443.551 338.347,447.703 338.887,451.77C339.371,453.812 341.835,453.176 343.336,453.32C348.844,453.305 354.379,453.527 359.871,453.115C361.589,452.342 360.972,450.043 361.199,448.551C361.189,444.569 361.503,440.459 361.076,436.484C357.986,433.101 354.65,429.896 351.045,427.066C349.943,426.743 348.787,426.676 347.623,426.676Z" style="fill:url(#_Linear1);fill-rule:nonzero;"/>
        </g>
        <g transform="matrix(1,0,0,1,-13.9983,-292)">
            <path d="M356.434,425.5C356.385,425.5 356.335,425.505 356.286,425.511C355.653,425.704 355.438,426.62 355.926,427.05L361.08,431.879C361.61,432.358 362.463,431.949 362.491,431.253L362.491,429.892C362.513,425.678 362.821,425.598 358.827,425.511L356.584,425.511C356.535,425.504 356.484,425.5 356.434,425.5ZM343.799,425.58C338.262,425.58 337.471,426.163 337.5,431.845L337.5,448.235C337.471,453.918 338.508,454.5 344.045,454.5L355.843,454.5C361.34,454.5 362.372,453.92 362.386,448.347L362.386,437.198C362.38,435.941 361.23,434.88 360.299,434.079L360.291,434.073L353.59,427.598C352.08,426.234 351.036,425.581 348.971,425.581L343.799,425.58ZM351.027,428L359.999,437L359.999,450C359.999,450 359.887,451.178 359.551,451.5C359.215,451.821 357.981,451.928 357.981,451.928L342.017,451.928C342.017,451.928 340.784,451.821 340.448,451.5C340.112,451.178 339.999,450 339.999,450L339.981,429.928C339.981,429.928 340.094,428.75 340.43,428.428C340.766,428.107 341.999,428 341.999,428L351.027,428Z" style="fill:url(#_Linear2);fill-rule:nonzero;"/>
        </g>
        <g transform="matrix(1,0,0,1,-13.9983,-292)">
            <path d="M337.499,440L337.499,448.236C337.47,453.919 338.507,454.5 344.044,454.5L355.843,454.5C361.34,454.5 362.372,453.921 362.386,448.348L362.386,440L337.499,440Z" style="fill:white;fill-opacity:0.1;fill-rule:nonzero;"/>
        </g>
        <g transform="matrix(1,0,0,1,-13.9983,-292)">
            <path d="M367.503,353.373C367.37,353.373 367.247,353.386 367.136,353.403L367.057,353.414L366.981,353.438C366.105,353.717 365.587,354.47 365.417,355.231C365.265,355.909 365.428,356.675 365.93,357.282L365.567,356.918L365.557,356.91L365.555,356.907L365.553,356.91C365.27,356.643 364.996,356.386 364.719,356.143L364.717,356.143L364.715,356.139L364.713,356.137L364.707,356.135C364.436,355.897 364.167,355.674 363.897,355.465L363.891,355.461C363.89,355.461 363.885,355.457 363.885,355.457C363.615,355.249 363.342,355.051 363.058,354.869L363.056,354.869L363.054,354.867L363.05,354.865C362.774,354.688 362.49,354.524 362.193,354.377L362.187,354.375C361.891,354.229 361.583,354.099 361.263,353.988L361.259,353.986L361.255,353.986C360.937,353.877 360.606,353.784 360.261,353.711L360.251,353.711C359.909,353.639 359.554,353.584 359.181,353.549L359.179,353.549C358.802,353.513 358.41,353.498 358.001,353.498L349.732,353.498C345.58,353.498 342.866,353.643 341.079,355.33C340.185,356.174 339.659,357.345 339.366,358.795C339.074,360.245 338.99,361.511 339.001,363.752L339.001,389.25C338.99,391.487 339.074,393.253 339.366,394.701C339.659,396.15 340.185,397.321 341.079,398.166C341.3,398.374 341.543,398.564 341.806,398.732L341.81,398.734L341.816,398.738C341.816,398.738 341.827,398.742 341.828,398.742C342.077,398.899 342.342,399.039 342.624,399.16L342.63,399.162C342.631,399.163 342.633,399.165 342.634,399.166L342.636,399.166C342.637,399.166 342.646,399.169 342.648,399.17C342.934,399.29 343.236,399.397 343.554,399.484L343.558,399.484C343.876,399.572 344.21,399.646 344.564,399.707L344.572,399.707C344.924,399.767 345.29,399.813 345.674,399.852L345.68,399.852C346.064,399.89 346.468,399.92 346.893,399.942L346.905,399.942L346.909,399.944C346.909,399.944 346.983,399.943 346.981,399.944C347.817,399.984 350.744,400 349.735,400L366.774,400C370.897,400 373.091,399.858 374.876,398.197C375.769,397.367 376.3,396.213 376.6,394.787C376.901,393.361 376.997,391.626 377.003,389.428L377.003,370.518C376.994,368.616 375.814,367.128 374.681,365.977C374.304,365.594 373.923,365.243 373.571,364.926L373.286,364.668L373.313,364.668L373.302,364.656L373.3,364.656L373.249,364.606C373.969,365.168 374.888,365.219 375.614,364.924C376.394,364.606 377.116,363.879 377.155,362.863L377.155,360.707C377.163,359.079 377.191,358.34 377.128,357.332C377.064,356.323 376.922,355.482 376.391,354.786C375.861,354.089 375.029,353.756 374.106,353.604C373.183,353.452 372.071,353.425 370.583,353.391L367.725,353.391C367.652,353.384 367.581,353.374 367.504,353.373L367.503,353.373ZM342.931,397.25C342.931,397.25 342.932,397.252 342.933,397.252C342.899,397.255 342.864,397.258 342.864,397.258C342.865,397.258 342.898,397.254 342.931,397.25ZM342.899,399.234C342.904,399.234 342.933,399.238 342.964,399.24C342.938,399.239 342.905,399.236 342.905,399.236L342.899,399.234Z" style="fill-opacity:0.1;fill-rule:nonzero;"/>
        </g>
        <g transform="matrix(1,0,0,1,-13.9983,-292)">
            <path d="M339.096,529C338.377,529 337.794,529.014 337.26,529.104C336.726,529.193 336.192,529.38 335.783,529.787C335.375,530.194 335.187,530.73 335.098,531.266C335.009,531.801 334.997,532.386 335,533.107L335,539.898C334.997,540.617 335.009,541.201 335.098,541.734C335.187,542.27 335.375,542.806 335.783,543.213C336.192,543.62 336.726,543.807 337.26,543.896C337.794,543.986 338.377,544 339.096,544L344.904,544C345.623,544 346.205,543.986 346.738,543.896C347.272,543.807 347.806,543.619 348.213,543.211C348.62,542.803 348.807,542.268 348.897,541.734C348.986,541.201 349,540.619 349,539.898L349,533.102C349,532.381 348.986,531.799 348.897,531.266C348.807,530.732 348.62,530.197 348.213,529.789C347.806,529.381 347.272,529.193 346.738,529.104C346.205,529.014 345.623,529 344.904,529L339.096,529Z" style="fill-opacity:0.1;fill-rule:nonzero;"/>
        </g>
        <g transform="matrix(1,0,0,1,-13.9983,-292)">
            <path d="M351.592,354.441C348.405,354.64 345.068,354.181 342.158,355.693C340.227,357.493 340.988,360.47 340.73,362.799C340.641,373.146 340.706,383.493 340.686,393.84C341.173,395.424 342.234,396.95 344.025,397.117C350.624,397.631 357.365,397.256 364.035,397.33C366.963,397.185 369.978,397.555 372.852,396.924C375.644,395.702 375.307,392.075 375.398,389.574C375.516,383.008 375.533,376.441 375.602,369.875C374.205,366.969 371.592,364.986 369.447,362.598C366.8,360.095 364.36,357.261 361.314,355.244C358.244,354.078 354.806,354.563 351.592,354.441Z" style="fill:url(#_Linear3);fill-rule:nonzero;"/>
        </g>
        <g transform="matrix(1,0,0,1,-13.9983,-292)">
            <path d="M367.5,353.375C367.426,353.375 367.353,353.382 367.279,353.393C366.339,353.692 366.019,355.117 366.744,355.787L374.258,363.301C375.044,364.047 376.611,363.41 376.652,362.326L376.652,360.209C376.686,353.651 376.994,353.527 371.057,353.393L367.723,353.393C367.649,353.381 367.574,353.375 367.5,353.375ZM349.23,353.5C340.999,353.5 339.457,354.406 339.5,363.248L339.5,388.752C339.457,397.594 340.999,398.5 349.23,398.5L366.77,398.5C374.942,398.5 376.475,397.598 376.496,388.926L376.496,370.021C376.487,368.066 374.778,366.415 373.395,365.168L373.383,365.158L364.865,356.639C362.621,354.517 361.069,353.5 357.998,353.5L349.23,353.5ZM360.5,357L373,369.5L373,392C373,392 372.833,393.833 372.333,394.333C371.833,394.833 370,395 370,395L346,395C346,395 344.167,394.833 343.667,394.333C343.167,393.833 343,392 343,392L343,360C343,360 343.167,358.167 343.667,357.667C344.167,357.167 346,357 346,357L360.5,357Z" style="fill:url(#_Linear4);fill-rule:nonzero;"/>
        </g>
        <g transform="matrix(1,0,0,1,-13.9983,-292)">
            <path d="M344.904,528.5C345.615,528.5 346.178,528.515 346.656,528.596C347.135,528.676 347.553,528.833 347.863,529.143C348.174,529.452 348.331,529.869 348.41,530.348C348.49,530.827 348.503,531.391 348.5,532.104L348.5,539.898C348.503,540.61 348.49,541.174 348.41,541.652C348.331,542.131 348.174,542.548 347.863,542.857C347.553,543.167 347.135,543.324 346.656,543.404C346.178,543.485 345.615,543.5 344.904,543.5L339.096,543.5C338.385,543.5 337.823,543.485 337.346,543.404C336.868,543.324 336.45,543.167 336.141,542.857C335.831,542.548 335.676,542.131 335.596,541.652C335.516,541.174 335.5,540.61 335.5,539.898L335.5,532.102C335.5,531.39 335.516,530.826 335.596,530.348C335.676,529.869 335.831,529.452 336.141,529.143C336.45,528.833 336.868,528.676 337.346,528.596C337.823,528.515 338.385,528.5 339.096,528.5L344.904,528.5Z" style="fill:url(#_Linear5);fill-rule:nonzero;"/>
        </g>
        <g transform="matrix(1,0,0,1,-13.9983,-292)">
            <path d="M350.135,480.5C351.246,480.5 352.121,480.526 352.842,480.646C353.562,480.767 354.152,480.995 354.584,481.426C355.015,481.856 355.243,482.446 355.363,483.166C355.483,483.887 355.505,484.763 355.5,485.877L355.5,498.125C355.505,499.238 355.483,500.114 355.363,500.834C355.243,501.554 355.015,502.144 354.584,502.574C354.152,503.005 353.562,503.233 352.842,503.354C352.121,503.474 351.246,503.5 350.135,503.5L341.865,503.5C340.753,503.5 339.879,503.474 339.16,503.354C338.441,503.233 337.854,503.005 337.424,502.574C336.993,502.143 336.767,501.556 336.646,500.836C336.526,500.116 336.5,499.239 336.5,498.125L336.5,485.875C336.5,484.761 336.525,483.884 336.646,483.164C336.767,482.444 336.993,481.857 337.424,481.426C337.854,480.995 338.441,480.767 339.16,480.646C339.879,480.526 340.753,480.5 341.865,480.5L350.135,480.5Z" style="fill:url(#_Linear6);fill-rule:nonzero;"/>
        </g>
        <g transform="matrix(1,0,0,1,-13.9983,-292)">
            <path d="M339.096,530C338.407,530 337.912,530.021 337.592,530.074C337.288,530.125 337.209,530.192 337.196,530.205C337.183,530.218 337.121,530.291 337.071,530.594C337.018,530.912 336.998,531.406 337.001,532.096L337.001,539.904C336.998,540.594 337.018,541.089 337.071,541.406C337.121,541.71 337.183,541.782 337.196,541.795C337.209,541.808 337.288,541.875 337.592,541.926C337.912,541.98 338.407,542 339.096,542L344.905,542C345.594,542 346.088,541.979 346.407,541.926C346.711,541.875 346.787,541.807 346.797,541.797C346.809,541.786 346.875,541.711 346.926,541.404C346.98,541.085 347,540.589 347,539.899L347,533L344,530L339.096,530Z" style="fill:url(#_Linear7);fill-rule:nonzero;"/>
        </g>
        <g transform="matrix(1,0,0,1,-13.9983,-292)">
            <path d="M341.866,482C340.777,482 339.965,482.031 339.407,482.125C338.858,482.217 338.61,482.354 338.475,482.488C338.341,482.622 338.209,482.865 338.118,483.412C338.025,483.968 337.996,484.779 338.001,485.869L338.001,498.131C337.996,499.221 338.025,500.033 338.118,500.588C338.209,501.135 338.341,501.378 338.475,501.512C338.61,501.646 338.858,501.783 339.407,501.875C339.965,501.969 340.777,502 341.866,502L350.135,502C351.224,502 352.036,501.969 352.592,501.875C353.139,501.783 353.38,501.648 353.514,501.514C353.648,501.379 353.783,501.137 353.876,500.588C353.969,500.03 354.001,499.216 354.001,498.125L354.001,489L347,482L341.866,482Z" style="fill:url(#_Linear8);fill-rule:nonzero;"/>
        </g>
        <g transform="matrix(1,0,0,1,-13.9983,-292)">
            <path d="M337,492L337,498.125C336.979,502.546 337.454,503 341.866,503L350.135,503C354.547,503 355,502.546 355,498.125L355,492L337,492Z" style="fill:white;fill-opacity:0.1;fill-rule:nonzero;"/>
        </g>
        <g transform="matrix(1,0,0,1,-13.9983,-292)">
            <path d="M336,536L336,539.898C335.987,542.712 336.288,543 339.096,543L344.905,543C347.712,543 348,542.712 348,539.898L348,536L336,536Z" style="fill:white;fill-opacity:0.1;fill-rule:nonzero;"/>
        </g>
        <g transform="matrix(1,0,0,1,-13.9983,-292)">
            <path d="M339.502,376L339.502,388.752C339.459,397.594 341.001,398.5 349.232,398.5L366.772,398.5C374.944,398.5 376.477,397.598 376.498,388.926L376.498,376L339.502,376Z" style="fill:white;fill-opacity:0.1;fill-rule:nonzero;"/>
        </g>
        <g transform="matrix(1,0,0,1,-13.9983,-292)">
            <path d="M356,437.001L344,437.001C342.896,437.001 342,437.896 342,439.001L342,448C342,449.105 342.896,450 344,450L356,450C357.105,450 358,449.105 358,448L358,439.001C358,437.896 357.105,437.001 356,437.001Z" style="fill:rgb(163,62,3);fill-rule:nonzero;"/>
        </g>
        <g transform="matrix(1,0,0,1,-13.9983,-292)">
            <path d="M356,438.001L344,438.001C343.448,438.001 343,438.449 343,439.001L343,448C343,448.552 343.448,449 344,449L356,449C356.552,449 357,448.552 357,448L357,439.001C357,438.449 356.552,438.001 356,438.001Z" style="fill:url(#_Linear9);fill-rule:nonzero;"/>
        </g>
        <g transform="matrix(1,0,0,1,-13.9983,-292)">
            <path d="M356,438.001L344,438.001C343.448,438.001 343,438.449 343,439.001L343,448C343,448.552 343.448,449 344,449L356,449C356.552,449 357,448.552 357,448L357,439.001C357,438.449 356.552,438.001 356,438.001Z" style="fill:url(#_Linear10);fill-rule:nonzero;"/>
        </g>
        <g transform="matrix(1,0,0,1,-13.9983,-292)">
            <path d="M354,440.001L346,440.001C345.448,440.001 345,440.449 345,441.001C345,441.553 345.448,442.001 346,442.001L354,442.001C354.552,442.001 355,441.553 355,441.001C355,440.449 354.552,440.001 354,440.001Z" style="fill:rgb(211,97,24);fill-rule:nonzero;"/>
        </g>
        <g transform="matrix(1,0,0,1,-13.9983,-292)">
            <path d="M354,443.001L349,443.001C348.448,443.001 348,443.449 348,444.001C348,444.553 348.448,445.001 349,445.001L354,445.001C354.552,445.001 355,444.553 355,444.001C355,443.449 354.552,443.001 354,443.001Z" style="fill:url(#_Linear11);fill-rule:nonzero;"/>
        </g>
        <g transform="matrix(1,0,0,1,-13.9983,-292)">
            <path d="M346,445C346.553,445 347,444.553 347,444C347,443.448 346.553,443 346,443C345.448,443 345,443.448 345,444C345,444.553 345.448,445 346,445Z" style="fill:rgb(211,97,24);fill-rule:nonzero;"/>
        </g>
        <g transform="matrix(1,0,0,1,-13.9983,-292)">
            <path d="M354,446.001L349,446.001C348.448,446.001 348,446.449 348,447.001C348,447.553 348.448,448.001 349,448.001L354,448.001C354.552,448.001 355,447.553 355,447.001C355,446.449 354.552,446.001 354,446.001Z" style="fill:url(#_Linear12);fill-rule:nonzero;"/>
        </g>
        <g transform="matrix(1,0,0,1,-13.9983,-292)">
            <path d="M346,448C346.553,448 347,447.553 347,447C347,446.448 346.553,446 346,446C345.448,446 345,446.448 345,447C345,447.553 345.448,448 346,448Z" style="fill:rgb(211,97,24);fill-rule:nonzero;"/>
        </g>
        <g transform="matrix(1,0,0,1,-13.9983,-292)">
            <path d="M344,534L340,534C338.895,534 338,534.896 338,536L338,539C338,540.105 338.895,541 340,541L344,541C345.105,541 346,540.105 346,539L346,536C346,534.896 345.105,534 344,534Z" style="fill:rgb(249,207,181);fill-rule:nonzero;"/>
        </g>
        <g transform="matrix(1,0,0,1,-13.9983,-292)">
            <path d="M339.004,534.006C338.45,534.006 338,534.454 338,535.008L338,540.004C338,540.556 338.448,541.004 339,541.004L345,541.004C345.552,541.004 346,540.557 346,540.004C346.001,538.744 346.001,536.552 346.002,534.997C346.002,534.447 345.558,534.001 345.007,534C343.14,533.998 340.872,534.008 339.004,534.006ZM339.002,535.505C339.001,535.228 339.226,535.004 339.503,535.005L344.503,535.016C344.779,535.017 345.002,535.241 345.002,535.516L345.002,539.517C345.002,539.794 344.778,540.017 344.502,540.017L339.505,540.017C339.228,540.017 339.003,539.792 339.004,539.515C339.008,538.22 339.004,536.381 339.002,535.505Z" style="fill:url(#_Linear13);fill-rule:nonzero;"/>
        </g>
        <g transform="matrix(1,0,0,1,-13.9983,-292)">
            <rect x="342.002" y="536.001" width="2" height="1" style="fill:url(#_Linear14);fill-rule:nonzero;"/>
        </g>
        <g transform="matrix(1,0,0,1,-13.9983,-292)">
            <rect x="342.002" y="538.001" width="2" height="1" style="fill:url(#_Linear15);fill-rule:nonzero;"/>
        </g>
        <g transform="matrix(1,0,0,1,-13.9983,-292)">
            <rect x="340.002" y="536.001" width="1" height="1" style="fill:url(#_Linear16);fill-rule:nonzero;"/>
        </g>
        <g transform="matrix(1,0,0,1,-13.9983,-292)">
            <rect x="340.002" y="538.001" width="1" height="1" style="fill:url(#_Linear17);fill-rule:nonzero;"/>
        </g>
        <g transform="matrix(1,0,0,1,-13.9983,-292)">
            <rect x="344.002" y="536.001" width="1" height="1" style="fill:rgb(240,158,111);fill-rule:nonzero;"/>
        </g>
        <g transform="matrix(1,0,0,1,-13.9983,-292)">
            <rect x="344.002" y="538.001" width="1" height="1" style="fill:rgb(240,158,111);fill-rule:nonzero;"/>
        </g>
        <g transform="matrix(1,0,0,1,-13.9983,-292)">
            <path d="M350,490L342,490C340.896,490 340,490.895 340,492L340,498C340,499.104 340.896,500 342,500L350,500C351.105,500 352,499.104 352,498L352,492C352,490.895 351.105,490 350,490Z" style="fill:rgb(163,62,3);fill-rule:nonzero;"/>
        </g>
        <g transform="matrix(1,0,0,1,-13.9983,-292)">
            <path d="M350,491L342,491C341.448,491 341,491.448 341,492L341,498C341,498.552 341.448,499 342,499L350,499C350.552,499 351,498.552 351,498L351,492C351,491.448 350.552,491 350,491Z" style="fill:url(#_Linear18);fill-rule:nonzero;"/>
        </g>
        <g transform="matrix(1,0,0,1,-13.9983,-292)">
            <path d="M350,491L342,491C341.448,491 341,491.448 341,492L341,498C341,498.552 341.448,499 342,499L350,499C350.552,499 351,498.552 351,498L351,492C351,491.448 350.552,491 350,491Z" style="fill:url(#_Linear19);fill-rule:nonzero;"/>
        </g>
        <g transform="matrix(1,0,0,1,-13.9983,-292)">
            <path d="M349.5,492L342.5,492C342.224,492 342,492.224 342,492.5C342,492.776 342.224,493 342.5,493L349.5,493C349.776,493 350,492.776 350,492.5C350,492.224 349.776,492 349.5,492Z" style="fill:rgb(211,97,24);fill-rule:nonzero;"/>
        </g>
        <g transform="matrix(1,0,0,1,-13.9983,-292)">
            <path d="M349.5,494L344.5,494C344.224,494 344,494.224 344,494.5C344,494.776 344.224,495 344.5,495L349.5,495C349.776,495 350,494.776 350,494.5C350,494.224 349.776,494 349.5,494Z" style="fill:url(#_Linear20);fill-rule:nonzero;"/>
        </g>
        <g transform="matrix(1,0,0,1,-13.9983,-292)">
            <path d="M342.5,495C342.776,495 343,494.776 343,494.5C343,494.224 342.776,494 342.5,494C342.224,494 342,494.224 342,494.5C342,494.776 342.224,495 342.5,495Z" style="fill:rgb(211,97,24);fill-rule:nonzero;"/>
        </g>
        <g transform="matrix(1,0,0,1,-13.9983,-292)">
            <path d="M349.5,496L344.5,496C344.224,496 344,496.224 344,496.5C344,496.776 344.224,497 344.5,497L349.5,497C349.776,497 350,496.776 350,496.5C350,496.224 349.776,496 349.5,496Z" style="fill:url(#_Linear21);fill-rule:nonzero;"/>
        </g>
        <g transform="matrix(1,0,0,1,-13.9983,-292)">
            <path d="M342.5,497C342.776,497 343,496.776 343,496.5C343,496.224 342.776,496 342.5,496C342.224,496 342,496.224 342,496.5C342,496.776 342.224,497 342.5,497Z" style="fill:rgb(211,97,24);fill-rule:nonzero;"/>
        </g>
        <g transform="matrix(1,0,0,1,-13.9983,-292)">
            <path d="M349.232,353.5C345.117,353.5 342.673,353.727 341.264,355.059C340.976,355.33 340.742,355.66 340.535,356.031C340.488,356.115 340.434,356.188 340.391,356.277C340.39,356.278 340.391,356.279 340.391,356.279C340.274,356.521 340.172,356.783 340.082,357.068C339.992,357.354 339.912,357.662 339.846,357.994C339.779,358.326 339.723,358.682 339.678,359.064C339.586,359.829 339.536,360.697 339.514,361.682C339.503,362.174 339.499,362.695 339.502,363.248L339.502,388.752C339.499,389.305 339.503,389.826 339.514,390.318C339.536,391.303 339.586,392.171 339.678,392.936C339.723,393.318 339.779,393.674 339.846,394.006C339.979,394.67 340.158,395.238 340.391,395.723C340.624,396.207 340.911,396.608 341.264,396.941C341.44,397.108 341.632,397.257 341.842,397.391C342.261,397.658 342.751,397.863 343.318,398.02C343.319,398.02 343.319,398.019 343.32,398.02C344.742,398.411 346.661,398.5 349.232,398.5L366.771,398.5C367.793,398.5 368.711,398.485 369.535,398.443C369.876,398.426 370.19,398.401 370.5,398.373C370.565,398.367 370.638,398.366 370.701,398.359C370.702,398.359 370.704,398.36 370.705,398.359C371.436,398.287 372.08,398.179 372.645,398.025C372.927,397.948 373.191,397.86 373.436,397.758C373.68,397.655 373.906,397.538 374.115,397.406C374.324,397.275 374.516,397.129 374.692,396.965C374.847,396.82 374.988,396.657 375.119,396.484C375.136,396.462 375.157,396.445 375.174,396.422C375.175,396.42 375.177,396.418 375.178,396.416C375.322,396.218 375.45,396.001 375.567,395.766C375.684,395.527 375.787,395.269 375.879,394.988C375.971,394.708 376.051,394.406 376.119,394.08C376.188,393.754 376.245,393.404 376.293,393.029C376.336,392.695 376.368,392.332 376.397,391.957C376.4,391.912 376.407,391.872 376.41,391.826C376.411,391.82 376.41,391.813 376.41,391.807C376.469,390.956 376.496,390.002 376.498,388.926L376.498,370.021C376.489,368.066 374.781,366.415 373.397,365.168L373.385,365.158L364.867,356.639C362.623,354.517 361.071,353.5 358,353.5L349.232,353.5Z" style="fill:none;fill-rule:nonzero;stroke:black;stroke-opacity:0.4;stroke-width:1px;"/>
        </g>
        <g transform="matrix(1,0,0,1,-13.9983,-292)">
            <path d="M78.012,373.422C78.01,373.961 78,374.439 78,374.994L78,376.994C77.994,375.734 78.007,374.603 78.012,373.422Z" style="fill:white;fill-opacity:0.3;fill-rule:nonzero;"/>
        </g>
        <g transform="matrix(1,0,0,1,-13.9983,-292)">
            <path d="M367.499,353.375C367.425,353.375 367.352,353.382 367.279,353.393C366.338,353.693 366.019,355.116 366.744,355.786L374.258,363.301C375.044,364.047 376.611,363.41 376.652,362.327L376.652,360.209C376.686,353.651 376.995,353.528 371.058,353.393L367.722,353.393C367.649,353.382 367.573,353.375 367.499,353.375Z" style="fill:none;fill-rule:nonzero;stroke:black;stroke-opacity:0.4;stroke-width:1px;"/>
        </g>
        <g transform="matrix(1,0,0,1,-13.9983,-292)">
            <path d="M349.232,353.5C341.001,353.5 339.459,354.406 339.502,363.248L339.502,388.752C339.459,397.594 341.001,398.5 349.232,398.5L366.771,398.5C374.944,398.5 376.477,397.598 376.498,388.926L376.498,371.022C376.492,369.808 375.831,368.712 375,367.756L375,388.252C375,390.445 374.938,392.123 374.734,393.34C374.53,394.557 374.206,395.264 373.736,395.734C373.267,396.205 372.562,396.53 371.348,396.734C370.133,396.939 368.458,397 366.269,397L349.73,397C347.541,397 345.864,396.939 344.646,396.734C343.428,396.53 342.718,396.205 342.246,395.734C341.774,395.264 341.45,394.558 341.248,393.342C341.046,392.126 340.989,390.448 341,388.256L341,363.744C340.989,361.552 341.046,359.874 341.248,358.658C341.45,357.442 341.774,356.736 342.246,356.266C342.718,355.795 343.43,355.47 344.648,355.266C345.866,355.061 347.541,355 349.73,355L362,355C360.598,353.999 358.201,353.5 356.078,353.5L349.232,353.5Z" style="fill:url(#_Linear22);fill-rule:nonzero;"/>
        </g>
        <g transform="matrix(1,0,0,1,-13.9983,-292)">
            <path d="M367.355,353.877L367.211,353.998C366.922,354.241 366.778,354.747 366.893,355.109C366.9,355.131 366.963,355.203 367.008,355.26C367.064,355.159 367.129,355.067 367.211,354.998L367.355,354.877L370.074,354.902C372.782,354.928 373.584,354.962 374.34,355.088C375.707,355.316 376.018,355.746 376.131,357.562C376.155,357.956 376.162,359.115 376.166,360.199C376.173,358.732 376.165,357.119 376.131,356.562C376.018,354.746 375.707,354.316 374.34,354.088C373.584,353.962 372.782,353.928 370.074,353.902L367.355,353.877Z" style="fill:white;fill-opacity:0.3;fill-rule:nonzero;"/>
        </g>
        <g transform="matrix(1,0,0,1,-13.9983,-292)">
            <path d="M341.866,481C337.454,481 336.979,481.453 337,485.874L337,498.126C336.979,502.547 337.454,503 341.866,503L350.135,503C354.547,503 355,502.547 355,498.126L355,485.874C355,481.453 354.547,481 350.135,481L341.866,481Z" style="fill:none;fill-rule:nonzero;stroke:url(#_Linear23);stroke-width:2px;"/>
        </g>
        <g transform="matrix(1,0,0,1,-13.9983,-292)">
            <path d="M341.866,480.5C340.754,480.5 339.879,480.526 339.159,480.646C338.439,480.767 337.848,480.995 337.417,481.426C336.985,481.856 336.757,482.446 336.637,483.166C336.517,483.887 336.495,484.763 336.501,485.877L336.501,498.125C336.496,499.238 336.517,500.114 336.637,500.834C336.757,501.554 336.985,502.144 337.417,502.574C337.848,503.005 338.439,503.233 339.159,503.354C339.879,503.474 340.754,503.5 341.866,503.5L350.135,503.5C351.247,503.5 352.122,503.474 352.84,503.354C353.559,503.233 354.147,503.005 354.577,502.574C355.007,502.143 355.233,501.556 355.354,500.836C355.475,500.116 355.5,499.239 355.5,498.125L355.5,485.875C355.5,484.761 355.475,483.884 355.354,483.164C355.233,482.444 355.007,481.857 354.577,481.426C354.147,480.995 353.559,480.767 352.84,480.646C352.122,480.526 351.247,480.5 350.135,480.5L341.866,480.5Z" style="fill:none;fill-rule:nonzero;stroke:black;stroke-opacity:0.3;stroke-width:1px;"/>
        </g>
        <g transform="matrix(1,0,0,1,-13.9983,-292)">
            <path d="M339.096,528.5C338.386,528.5 337.823,528.515 337.344,528.596C336.866,528.676 336.447,528.833 336.137,529.143C335.827,529.452 335.67,529.869 335.59,530.348C335.511,530.827 335.497,531.391 335.5,532.104L335.5,539.898C335.497,540.61 335.511,541.174 335.59,541.652C335.67,542.131 335.827,542.548 336.137,542.857C336.447,543.167 336.866,543.324 337.344,543.404C337.823,543.485 338.386,543.5 339.096,543.5L344.905,543.5C345.615,543.5 346.177,543.485 346.655,543.404C347.132,543.324 347.551,543.167 347.86,542.857C348.169,542.548 348.324,542.131 348.405,541.652C348.485,541.174 348.5,540.61 348.5,539.898L348.5,532.102C348.5,531.39 348.485,530.826 348.405,530.348C348.325,529.869 348.169,529.452 347.86,529.143C347.551,528.833 347.132,528.676 346.655,528.596C346.177,528.515 345.615,528.5 344.905,528.5L339.096,528.5Z" style="fill:none;fill-rule:nonzero;stroke:black;stroke-opacity:0.3;stroke-width:1px;"/>
        </g>
        <g transform="matrix(1,0,0,1,-13.9983,-292)">
            <path d="M339.097,529C336.289,529 335.987,529.288 336.001,532.102L336.001,539.898C335.987,542.712 336.289,543 339.097,543L344.904,543C347.712,543 348,542.712 348,539.898L348,532.102C348,529.288 347.712,529 344.904,529L339.097,529Z" style="fill:none;fill-rule:nonzero;stroke:url(#_Linear24);stroke-width:2px;"/>
        </g>
        <g transform="matrix(1,0,0,1,-13.9983,-292)">
            <path d="M356.287,425.492C356.236,425.492 356.186,425.497 356.136,425.504C355.498,425.694 355.281,426.6 355.773,427.025L360.873,431.799C361.406,432.273 362.469,431.868 362.498,431.18L362.498,429.834C362.52,425.667 362.73,425.589 358.701,425.504L356.437,425.504C356.387,425.497 356.337,425.492 356.287,425.492ZM344.074,425.496C341.292,425.496 339.639,425.642 338.687,426.5C338.493,426.675 338.334,426.888 338.195,427.127C338.163,427.181 338.126,427.23 338.097,427.287C338.019,427.443 337.949,427.613 337.888,427.797C337.827,427.981 337.773,428.179 337.728,428.393C337.683,428.607 337.646,428.836 337.615,429.082C337.553,429.575 337.518,430.135 337.503,430.77C337.496,431.087 337.493,431.423 337.495,431.779L337.495,448.221C337.493,448.577 337.496,448.913 337.503,449.23C337.518,449.865 337.553,450.425 337.615,450.918C337.646,451.164 337.683,451.393 337.728,451.607C337.818,452.036 337.94,452.4 338.097,452.713C338.255,453.025 338.449,453.285 338.687,453.5C338.806,453.607 338.936,453.703 339.078,453.789C339.361,453.961 339.692,454.094 340.076,454.195C341.037,454.447 342.336,454.504 344.074,454.504L355.929,454.504C356.62,454.504 357.239,454.493 357.796,454.467C358.027,454.456 358.239,454.44 358.449,454.422C358.492,454.418 358.543,454.418 358.585,454.414L358.587,454.414C359.082,454.367 359.516,454.296 359.898,454.197C360.089,454.147 360.268,454.091 360.433,454.025C360.599,453.959 360.751,453.883 360.892,453.799C361.033,453.714 361.164,453.619 361.283,453.514C361.388,453.42 361.483,453.316 361.572,453.205C361.583,453.191 361.598,453.179 361.609,453.164C361.61,453.163 361.61,453.161 361.611,453.16C361.708,453.032 361.796,452.894 361.875,452.742C361.954,452.588 362.024,452.421 362.086,452.24C362.148,452.059 362.201,451.864 362.248,451.654C362.294,451.444 362.332,451.218 362.365,450.976C362.394,450.761 362.416,450.527 362.435,450.285C362.437,450.256 362.443,450.231 362.445,450.201L362.445,450.189C362.485,449.641 362.502,449.026 362.504,448.332L362.504,437.146C362.498,435.886 361.343,434.821 360.408,434.017L360.4,434.011L353.67,427.519C352.153,426.151 351.103,425.496 349.028,425.496L344.074,425.496Z" style="fill:none;fill-rule:nonzero;stroke:black;stroke-opacity:0.4;stroke-width:0.99px;"/>
        </g>
        <g transform="matrix(1,0,0,1,-13.9983,-292)">
            <path d="M357.168,426.075C356.177,426.11 356.141,426.121 356.141,426.411C356.141,426.513 356.292,426.721 356.6,427.057L359.479,427.057C359.638,427.057 359.788,427.088 359.932,427.133C360.255,427.153 360.577,427.182 360.897,427.237C360.923,427.558 360.927,427.885 360.934,428.212C360.96,428.323 360.979,428.437 360.979,428.557L360.979,431.174C361.234,431.387 361.431,431.543 361.469,431.544C361.92,431.556 361.975,431.255 361.932,428.995C361.878,426.19 361.975,426.317 359.775,426.155C358.906,426.091 357.733,426.055 357.168,426.075ZM346.328,426.112C341.161,426.114 340.436,426.175 339.426,426.688C338.822,426.995 338.387,427.753 338.18,428.86C337.936,430.16 337.941,450.285 338.186,451.36C338.597,453.168 339.246,453.691 341.371,453.924C341.863,453.978 346.006,454.011 350.578,453.997C358.019,453.974 358.969,453.949 359.641,453.757C360.848,453.41 361.317,452.955 361.666,451.794C361.845,451.2 361.878,450.109 361.92,443.51C361.968,435.954 361.967,436.906 361.701,436.358C361.628,436.206 361.363,435.895 360.979,435.483L360.979,439.557C360.979,439.681 360.958,439.799 360.93,439.914C360.955,443.746 360.887,446.59 360.807,450.387C360.901,451.376 360.543,452.597 359.434,452.817C355.255,453.03 351.036,452.978 346.828,453.007C344.735,452.935 342.61,453.14 340.537,452.805C339.329,452.715 339.166,451.373 339.071,450.428C338.895,443.85 338.94,437.146 339.03,430.54C339.115,429.448 338.992,427.882 340.211,427.376C342.577,426.953 344.996,427.154 347.387,427.063C347.998,427.098 347.677,427.078 348.329,427.075C348.388,427.068 348.446,427.057 348.507,427.057L352.099,427.057C351.672,426.748 351.309,426.529 350.931,426.374C350.321,426.123 351.056,426.11 346.328,426.112Z" style="fill:url(#_Linear25);fill-rule:nonzero;"/>
        </g>
        <g transform="matrix(1,0,0,1,-13.9983,-292)">
            <path d="M116.927,338C81.63,338 78.005,341.626 78.005,376.994L78.005,521.006C78.005,536.48 78.698,545.878 82.435,551.555C82.969,552.366 83.565,553.1 84.23,553.766C89.548,559.093 99.278,560 116.927,560L215.083,560C217.138,560 219.071,559.985 220.917,559.955C221.576,559.944 222.178,559.92 222.812,559.904C223.961,559.876 225.104,559.845 226.171,559.799C227.441,559.744 228.68,559.679 229.839,559.594C230.313,559.559 230.774,559.519 231.23,559.479C231.45,559.459 231.679,559.441 231.896,559.42C232.623,559.349 233.331,559.273 234.013,559.186C234.681,559.1 235.323,559.004 235.948,558.9C236.17,558.864 236.38,558.82 236.597,558.781C236.993,558.71 237.388,558.638 237.767,558.559C238.015,558.507 238.254,558.45 238.495,558.395C238.815,558.321 239.132,558.244 239.439,558.164C239.698,558.096 239.95,558.026 240.2,557.953C240.484,557.871 240.762,557.784 241.034,557.695C241.261,557.621 241.487,557.545 241.706,557.467C241.991,557.365 242.268,557.259 242.54,557.148C242.736,557.069 242.934,556.99 243.124,556.906C243.399,556.785 243.662,556.656 243.923,556.525C244.097,556.438 244.278,556.355 244.446,556.264C244.856,556.042 245.252,555.81 245.628,555.562C246.034,555.295 246.423,555.014 246.792,554.715C247.132,554.44 247.451,554.146 247.761,553.842C247.835,553.769 247.907,553.692 247.98,553.617C248.209,553.381 248.431,553.136 248.644,552.883C248.721,552.791 248.799,552.701 248.874,552.607C249.415,551.93 249.902,551.191 250.339,550.387C250.394,550.285 250.447,550.18 250.501,550.076C250.66,549.77 250.811,549.454 250.956,549.129C251.018,548.992 251.081,548.856 251.14,548.715C251.322,548.281 251.497,547.836 251.657,547.369C251.818,546.903 251.964,546.414 252.105,545.914C252.145,545.769 252.185,545.621 252.224,545.473C252.288,545.229 252.347,544.973 252.407,544.721C252.551,544.119 252.683,543.493 252.804,542.844C252.836,542.672 252.871,542.505 252.901,542.33C253.042,541.519 253.169,540.675 253.278,539.789C253.3,539.611 253.318,539.419 253.339,539.238C253.421,538.52 253.495,537.778 253.56,537.01C253.585,536.708 253.609,536.402 253.632,536.092C253.689,535.323 253.738,534.529 253.78,533.711C253.794,533.457 253.811,533.212 253.823,532.953C253.83,532.806 253.832,532.641 253.839,532.492C253.901,531.029 253.941,529.472 253.968,527.852C253.975,527.433 253.981,527.006 253.985,526.576C254.005,524.803 254.015,522.971 254.005,521.006L254.005,420.24C253.961,410.507 245.826,402.285 239.243,396.078L239.194,396.027L198.671,353.619C187.994,343.058 180.613,338 166.005,338L116.927,338ZM213.909,338.09C211.74,340.866 211.524,345.493 214.118,348.002L242.614,378.389C246.338,382.085 253.733,378.957 253.995,373.609C253.994,373.189 253.997,372.748 253.993,372.338C253.992,371.847 253.985,371.385 253.982,370.906C253.62,343.652 249.021,338.716 222.636,338.09L213.909,338.09Z" style="fill-rule:nonzero;"/>
        </g>
        <g transform="matrix(1,0,0,1,-13.9983,-292)">
            <path d="M116.927,337C81.63,337 78.005,340.626 78.005,375.994L78.005,521.006C78.005,536.48 78.698,545.878 82.435,551.555C82.969,552.366 83.565,553.1 84.23,553.766C89.548,559.093 99.278,560 116.927,560L215.083,560C217.138,560 219.071,559.985 220.917,559.955C221.576,559.944 222.178,559.92 222.812,559.904C223.961,559.876 225.104,559.845 226.171,559.799C227.441,559.744 228.68,559.679 229.839,559.594C230.313,559.559 230.774,559.519 231.23,559.479C231.45,559.459 231.679,559.441 231.896,559.42C232.623,559.349 233.331,559.273 234.013,559.186C234.681,559.1 235.323,559.004 235.948,558.9C236.17,558.864 236.38,558.82 236.597,558.781C236.993,558.71 237.388,558.638 237.767,558.559C238.015,558.507 238.254,558.45 238.495,558.395C238.815,558.321 239.132,558.244 239.439,558.164C239.698,558.096 239.95,558.026 240.2,557.953C240.484,557.871 240.762,557.784 241.034,557.695C241.261,557.621 241.487,557.545 241.706,557.467C241.991,557.365 242.268,557.259 242.54,557.148C242.736,557.069 242.934,556.99 243.124,556.906C243.399,556.785 243.662,556.656 243.923,556.525C244.097,556.438 244.278,556.355 244.446,556.264C244.856,556.042 245.252,555.81 245.628,555.562C246.034,555.295 246.423,555.014 246.792,554.715C247.132,554.44 247.451,554.146 247.761,553.842C247.835,553.769 247.907,553.692 247.98,553.617C248.209,553.381 248.431,553.136 248.644,552.883C248.721,552.791 248.799,552.701 248.874,552.607C249.415,551.93 249.902,551.191 250.339,550.387C250.394,550.285 250.447,550.18 250.501,550.076C250.66,549.77 250.811,549.454 250.956,549.129C251.018,548.992 251.081,548.856 251.14,548.715C251.322,548.281 251.497,547.836 251.657,547.369C251.818,546.903 251.964,546.414 252.105,545.914C252.145,545.769 252.185,545.621 252.224,545.473C252.288,545.229 252.347,544.973 252.407,544.721C252.551,544.119 252.683,543.493 252.804,542.844C252.836,542.672 252.871,542.505 252.901,542.33C253.042,541.519 253.169,540.675 253.278,539.789C253.3,539.611 253.318,539.419 253.339,539.238C253.421,538.52 253.495,537.778 253.56,537.01C253.585,536.708 253.609,536.402 253.632,536.092C253.689,535.323 253.738,534.529 253.78,533.711C253.794,533.457 253.811,533.212 253.823,532.953C253.83,532.806 253.832,532.641 253.839,532.492C253.901,531.029 253.941,529.472 253.968,527.852C253.975,527.433 253.981,527.006 253.985,526.576C254.005,524.803 254.015,522.971 254.005,521.006L254.005,419.24C253.961,409.507 245.826,401.285 239.243,395.078L239.194,395.027L198.671,352.619C187.994,342.058 180.613,337 166.005,337L116.927,337ZM214.896,337.09C211.856,339.592 211.175,345.156 214.118,348.002L242.614,378.389C246.343,382.09 253.756,378.949 253.999,373.588C253.999,373.377 253.998,373.169 253.997,372.961C253.997,371.763 253.984,370.632 253.972,369.51C253.569,342.621 248.887,337.713 222.636,337.09L214.896,337.09Z" style="fill-rule:nonzero;"/>
        </g>
        <g transform="matrix(1,0,0,1,-13.9983,-292)">
            <path d="M116.927,336C114.751,336 112.701,336.015 110.759,336.049C81.277,336.577 78.091,341.836 78.091,374.994L78.091,521.006C78.091,554.164 81.277,559.423 110.759,559.951C112.701,559.985 114.751,560 116.927,560L215.083,560C217.138,560 219.071,559.985 220.917,559.955C221.576,559.944 222.178,559.92 222.812,559.904C223.961,559.876 225.104,559.845 226.171,559.799C227.441,559.744 228.68,559.679 229.839,559.594C230.313,559.559 230.774,559.519 231.23,559.479C231.45,559.459 231.679,559.441 231.896,559.42C232.623,559.349 233.331,559.273 234.013,559.186C234.681,559.1 235.323,559.004 235.948,558.9C236.17,558.864 236.38,558.82 236.597,558.781C236.993,558.71 237.388,558.638 237.767,558.559C238.015,558.507 238.254,558.45 238.495,558.395C238.815,558.321 239.132,558.244 239.439,558.164C239.698,558.096 239.95,558.026 240.2,557.953C240.484,557.871 240.762,557.784 241.034,557.695C241.261,557.621 241.487,557.545 241.706,557.467C241.991,557.365 242.268,557.259 242.54,557.148C242.736,557.069 242.934,556.99 243.124,556.906C243.399,556.785 243.662,556.656 243.923,556.525C244.097,556.438 244.278,556.355 244.446,556.264C244.856,556.042 245.252,555.81 245.628,555.562C246.034,555.295 246.423,555.014 246.792,554.715C247.132,554.44 247.451,554.146 247.761,553.842C247.835,553.769 247.907,553.692 247.98,553.617C248.209,553.381 248.431,553.136 248.644,552.883C248.721,552.791 248.799,552.701 248.874,552.607C249.415,551.93 249.902,551.191 250.339,550.387C250.394,550.285 250.447,550.18 250.501,550.076C250.66,549.77 250.811,549.454 250.956,549.129C251.018,548.992 251.081,548.856 251.14,548.715C251.322,548.281 251.497,547.836 251.657,547.369C251.818,546.903 251.964,546.414 252.105,545.914C252.145,545.769 252.185,545.621 252.224,545.473C252.288,545.229 252.347,544.973 252.407,544.721C252.551,544.119 252.683,543.493 252.804,542.844C252.836,542.672 252.871,542.505 252.901,542.33C253.042,541.519 253.169,540.675 253.278,539.789C253.3,539.611 253.318,539.419 253.339,539.238C253.421,538.52 253.495,537.778 253.56,537.01C253.585,536.708 253.609,536.402 253.632,536.092C253.689,535.323 253.738,534.529 253.78,533.711C253.794,533.457 253.811,533.212 253.823,532.953C253.83,532.806 253.832,532.641 253.839,532.492C253.901,531.029 253.941,529.472 253.968,527.852C253.975,527.433 253.981,527.006 253.985,526.576C254.005,524.803 254.015,522.971 254.005,521.006L254.005,418.24C253.961,408.507 245.826,400.285 239.243,394.078L239.194,394.027L198.671,351.619C187.994,341.058 180.613,336 166.005,336L116.927,336ZM216.659,336.09C212.185,337.582 210.669,344.666 214.118,348.002L242.614,378.389C246.348,382.094 253.776,378.942 254.001,373.568C254.049,342.239 250.448,336.75 222.636,336.09L216.659,336.09Z" style="fill:none;fill-rule:nonzero;stroke:black;stroke-opacity:0.1;stroke-width:4px;"/>
        </g>
        <g transform="matrix(1,0,0,1,-13.9983,-292)">
            <path d="M116.927,336C81.63,336 78.005,339.626 78.005,374.994L78.005,521.006C78.005,556.374 81.63,560 116.927,560L215.083,560C250.38,560 254.178,556.374 254.005,521.006L254.005,418.24C253.961,408.507 245.826,400.285 239.243,394.078L239.194,394.027L198.671,351.619C187.994,341.058 180.613,336 166.005,336L116.927,336Z" style="fill:url(#_Linear26);fill-rule:nonzero;"/>
        </g>
        <g transform="matrix(1,0,0,1,-13.9983,-292)">
            <path d="M116.927,336C104.794,336 96.402,336.429 90.614,338.428C88.511,339.154 86.751,340.089 85.28,341.285C85.28,341.286 85.279,341.287 85.278,341.287C84.176,342.185 83.235,343.23 82.435,344.445C82.179,344.833 81.942,345.243 81.714,345.666C81.657,345.773 81.604,345.887 81.548,345.996C81.387,346.31 81.232,346.631 81.085,346.965C81.012,347.131 80.944,347.305 80.874,347.477C80.753,347.773 80.634,348.075 80.523,348.387C80.452,348.585 80.385,348.788 80.318,348.992C80.218,349.296 80.122,349.607 80.03,349.926C79.97,350.135 79.911,350.345 79.855,350.561C79.761,350.914 79.674,351.278 79.589,351.648C79.541,351.857 79.493,352.063 79.448,352.277C79.367,352.665 79.293,353.069 79.22,353.475C79.182,353.686 79.138,353.891 79.103,354.107C78.999,354.733 78.905,355.376 78.82,356.045C78.819,356.046 78.82,356.046 78.82,356.047C78.735,356.704 78.66,357.386 78.591,358.086C78.563,358.369 78.54,358.668 78.515,358.959C78.477,359.394 78.44,359.831 78.407,360.283C78.326,361.4 78.264,362.586 78.21,363.807C78.16,364.953 78.124,366.174 78.095,367.416C78.081,367.997 78.06,368.54 78.05,369.143C78.02,370.996 78.005,372.93 78.005,374.994L78.005,521.006C78.005,523.07 78.02,525.004 78.05,526.857C78.06,527.46 78.081,528.003 78.095,528.584C78.124,529.826 78.16,531.047 78.21,532.193C78.264,533.414 78.326,534.6 78.407,535.717C78.44,536.169 78.477,536.606 78.515,537.041C78.54,537.332 78.563,537.631 78.591,537.914C78.66,538.614 78.735,539.296 78.82,539.953C78.82,539.954 78.819,539.954 78.82,539.955C78.905,540.624 78.999,541.267 79.103,541.893C79.138,542.109 79.182,542.314 79.22,542.525C79.293,542.931 79.367,543.335 79.448,543.723C79.493,543.937 79.541,544.143 79.589,544.352C79.674,544.722 79.761,545.086 79.855,545.439C79.911,545.655 79.97,545.865 80.03,546.074C80.122,546.393 80.218,546.704 80.318,547.008C80.385,547.212 80.452,547.415 80.523,547.613C80.634,547.925 80.753,548.227 80.874,548.523C80.944,548.695 81.012,548.869 81.085,549.035C81.232,549.369 81.387,549.69 81.548,550.004C81.604,550.113 81.657,550.227 81.714,550.334C81.942,550.757 82.179,551.167 82.435,551.555C82.969,552.366 83.565,553.1 84.23,553.766C84.562,554.099 84.911,554.414 85.278,554.713C85.279,554.713 85.28,554.714 85.28,554.715C86.751,555.911 88.511,556.846 90.614,557.572C96.402,559.571 104.794,560 116.927,560L215.083,560C217.14,560 219.068,559.985 220.917,559.955L220.95,559.955C221.596,559.944 222.189,559.92 222.812,559.904C223.269,559.893 223.697,559.876 224.148,559.863C224.821,559.842 225.527,559.827 226.171,559.799C226.178,559.799 226.184,559.797 226.191,559.797C227.443,559.742 228.665,559.68 229.81,559.596C229.82,559.595 229.829,559.594 229.839,559.594C230.313,559.559 230.774,559.519 231.23,559.479C231.241,559.478 231.252,559.478 231.263,559.477C231.473,559.458 231.69,559.44 231.896,559.42C232.623,559.349 233.331,559.273 234.013,559.186C234.681,559.1 235.323,559.004 235.948,558.9C235.95,558.9 235.952,558.899 235.954,558.898C236.174,558.862 236.382,558.82 236.597,558.781C236.993,558.71 237.388,558.638 237.767,558.559C238.005,558.509 238.235,558.454 238.466,558.4C238.476,558.398 238.485,558.397 238.495,558.395C238.815,558.321 239.132,558.244 239.439,558.164C239.691,558.098 239.937,558.03 240.181,557.959C240.187,557.957 240.194,557.955 240.2,557.953C240.484,557.871 240.762,557.784 241.034,557.695C241.261,557.621 241.487,557.545 241.706,557.467C241.856,557.413 241.998,557.355 242.144,557.299C242.276,557.248 242.411,557.201 242.54,557.148C242.551,557.144 242.562,557.139 242.573,557.135C242.759,557.06 242.945,556.985 243.124,556.906C243.291,556.832 243.45,556.752 243.61,556.674C243.715,556.624 243.821,556.576 243.923,556.525C243.93,556.522 243.937,556.517 243.944,556.514C244.112,556.431 244.283,556.351 244.444,556.264C244.445,556.263 244.446,556.264 244.446,556.264C244.856,556.042 245.252,555.81 245.628,555.562C246.408,555.049 247.115,554.476 247.761,553.842C247.762,553.841 247.763,553.839 247.765,553.838C247.836,553.768 247.904,553.695 247.974,553.623C247.976,553.621 247.978,553.619 247.98,553.617C248.209,553.381 248.431,553.136 248.644,552.883C248.721,552.791 248.799,552.701 248.874,552.607C249.415,551.93 249.902,551.191 250.339,550.387C250.394,550.285 250.447,550.18 250.501,550.076C250.66,549.77 250.811,549.454 250.956,549.129C251.017,548.993 251.079,548.858 251.138,548.719C251.138,548.717 251.139,548.716 251.14,548.715C251.322,548.281 251.497,547.836 251.657,547.369C251.818,546.903 251.964,546.414 252.105,545.914C252.105,545.912 252.106,545.91 252.107,545.908C252.147,545.765 252.185,545.619 252.224,545.473C252.26,545.337 252.292,545.194 252.325,545.053C252.353,544.943 252.381,544.832 252.407,544.721C252.408,544.718 252.409,544.715 252.409,544.713C252.552,544.114 252.684,543.49 252.804,542.844C252.83,542.705 252.856,542.567 252.882,542.428C252.888,542.394 252.896,542.363 252.901,542.33C252.902,542.329 252.901,542.329 252.901,542.328C253.042,541.518 253.169,540.674 253.278,539.789C253.284,539.741 253.289,539.69 253.294,539.641C253.31,539.51 253.324,539.371 253.339,539.238C253.341,539.218 253.343,539.196 253.345,539.176C253.424,538.483 253.495,537.769 253.558,537.029C253.558,537.023 253.559,537.016 253.56,537.01C253.585,536.708 253.609,536.402 253.632,536.092C253.689,535.323 253.738,534.529 253.78,533.711C253.788,533.555 253.799,533.4 253.808,533.246C253.813,533.146 253.819,533.054 253.823,532.953C253.824,532.944 253.823,532.935 253.823,532.926C253.829,532.797 253.832,532.659 253.837,532.529C253.838,532.518 253.838,532.504 253.839,532.492C253.901,531.029 253.941,529.472 253.968,527.852L253.968,527.818C253.975,527.41 253.981,526.994 253.985,526.576C254.005,524.803 254.015,522.971 254.005,521.006L254.005,418.24C253.997,416.415 253.704,414.643 253.191,412.928C252.848,411.784 252.408,410.667 251.888,409.574C249.028,403.566 243.769,398.345 239.243,394.078L239.194,394.027L198.671,351.619C187.994,341.058 180.613,336 166.005,336L116.927,336ZM216.659,336.09C212.185,337.582 210.669,344.666 214.118,348.002L242.614,378.389C246.348,382.094 253.776,378.942 254.001,373.568C254.004,371.654 253.991,369.842 253.962,368.115C253.959,367.948 253.953,367.796 253.95,367.631C253.921,366.074 253.878,364.583 253.814,363.174C253.766,362.142 253.709,361.149 253.64,360.193C252.487,344.248 248.092,338.656 233.978,336.832C232.681,336.664 231.303,336.529 229.837,336.42C229.127,336.367 228.395,336.32 227.644,336.279C227.635,336.279 227.625,336.278 227.616,336.277C226.048,336.192 224.392,336.131 222.636,336.09L216.659,336.09ZM133.571,347.945C144.945,347.949 156.202,347.986 167.47,348.191C174.708,347.806 181.336,351.645 186.325,356.6C202.431,372.562 217.733,389.314 233.603,405.51C237.019,409.386 241.866,413.273 241.776,418.91C242.138,448.767 241.931,478.629 241.882,508.488C241.617,518.738 242.278,529.184 240.974,539.453C240.427,541.811 240.441,545.489 237.411,546.104C229.822,547.953 221.9,547.574 214.144,547.801C178.598,547.979 142.715,548.1 107.167,547.664C102.462,547.249 97.287,547.67 93.048,545.279C90.221,541.461 90.939,536.276 90.603,531.795C90.02,483.15 89.9,434.489 90.019,385.822C90.302,375.106 89.525,364.054 91.587,353.385C91.895,350.111 95.443,349.377 98.083,348.975C109.871,347.847 121.864,348.107 133.571,347.945Z" style="fill:url(#_Linear27);fill-rule:nonzero;"/>
        </g>
        <g transform="matrix(1,0,0,1,-13.9983,-292)">
            <path d="M78.005,448L78.005,521.007C77.832,556.375 81.631,560 116.927,560L215.084,560C250.38,560 253.087,556.363 254.005,521.007L254.005,448L78.005,448Z" style="fill:white;fill-opacity:0.1;fill-rule:nonzero;"/>
        </g>
        <g transform="matrix(1,0,0,1,-13.9983,-292)">
            <path d="M78.005,519.006L78.005,521.006C77.832,556.374 81.631,560 116.927,560L215.084,560C250.38,560 253.087,556.362 254.005,521.006L254.005,519.006C253.087,554.362 250.38,558 215.084,558L116.927,558C81.631,558 77.832,554.374 78.005,519.006Z" style="fill-opacity:0.2;fill-rule:nonzero;"/>
        </g>
        <g transform="matrix(1,0,0,1,-13.9983,-292)">
            <path d="M194.005,560L254.005,500L254.005,522.484C253.953,556.48 250.203,560 215.831,560L194.005,560Z" style="fill:white;fill-opacity:0.08;fill-rule:nonzero;"/>
        </g>
        <g transform="matrix(1,0,0,1,-13.9983,-292)">
            <path d="M116.927,336C114.419,336 112.115,336.026 109.915,336.072C108.346,336.106 106.829,336.149 105.409,336.215C104.516,336.256 103.648,336.303 102.812,336.359C102.738,336.364 102.656,336.368 102.583,336.373C102.543,336.376 102.509,336.38 102.47,336.383C101.354,336.462 100.3,336.562 99.282,336.674C99.001,336.705 98.717,336.734 98.442,336.768C98.167,336.801 97.894,336.837 97.626,336.873C97.24,336.925 96.863,336.981 96.491,337.039C96.246,337.078 95.998,337.115 95.759,337.156C95.372,337.223 95.002,337.299 94.632,337.373C94.124,337.475 93.631,337.584 93.153,337.701C92.962,337.748 92.767,337.793 92.581,337.842C92.256,337.928 91.943,338.02 91.632,338.113C91.458,338.166 91.284,338.219 91.114,338.273C90.787,338.379 90.467,338.49 90.155,338.606C90.057,338.642 89.963,338.68 89.866,338.717C88.333,339.311 86.99,340.025 85.821,340.891C85.807,340.902 85.791,340.911 85.776,340.922C80.935,344.535 79.036,350.718 78.357,361.16C78.339,361.424 78.327,361.705 78.312,361.975C78.245,363.115 78.185,364.28 78.144,365.522C78.143,365.551 78.143,365.584 78.142,365.613C78.094,367.053 78.062,368.558 78.042,370.139C78.515,341.175 84.07,338 116.927,338L179.456,338C178.596,337.705 177.71,337.447 176.802,337.217C176.645,337.177 176.49,337.135 176.331,337.098C175.943,337.005 175.55,336.921 175.151,336.84C174.868,336.783 174.579,336.731 174.29,336.68C173.958,336.62 173.628,336.557 173.288,336.506C172.673,336.414 172.045,336.334 171.401,336.268C171.146,336.241 170.882,336.222 170.622,336.199C170.129,336.157 169.627,336.12 169.116,336.092C168.855,336.077 168.595,336.062 168.329,336.051C167.572,336.02 166.804,336 166.005,336L116.927,336Z" style="fill:white;fill-opacity:0.3;fill-rule:nonzero;"/>
        </g>
        <g transform="matrix(1,0,0,1,-13.9983,-292)">
            <path d="M216.659,336.09C215.588,336.447 214.692,337.13 213.987,338L215.083,338C249.234,338 253.723,341.485 253.98,373.74C253.983,373.703 253.991,373.668 253.993,373.631C253.94,355.96 252.835,346.453 246.913,341.453C246.596,341.188 246.268,340.934 245.923,340.693C244.58,339.756 243.01,339.005 241.204,338.397C241.062,338.349 240.928,338.298 240.782,338.252C240.463,338.151 240.126,338.06 239.792,337.967C239.534,337.896 239.278,337.822 239.011,337.756C238.687,337.675 238.354,337.599 238.017,337.525C237.694,337.455 237.364,337.389 237.028,337.324C236.708,337.263 236.388,337.201 236.056,337.145C235.594,337.067 235.114,336.996 234.628,336.928C234.412,336.897 234.206,336.863 233.986,336.834C233.983,336.834 233.981,336.832 233.978,336.832C233.27,336.741 232.533,336.661 231.776,336.588C231.469,336.558 231.147,336.533 230.831,336.506C230.31,336.461 229.783,336.418 229.239,336.381C228.898,336.357 228.551,336.337 228.2,336.316C227.833,336.295 227.451,336.275 227.073,336.256C225.665,336.185 224.208,336.127 222.651,336.09L216.659,336.09Z" style="fill:white;fill-opacity:0.4;fill-rule:nonzero;"/>
        </g>
        <g transform="matrix(1,0,0,1,-13.9983,-292)">
            <path d="M78.017,373.422C78.015,373.961 78.005,374.439 78.005,374.994L78.005,376.994C77.999,375.734 78.012,374.603 78.017,373.422Z" style="fill:white;fill-opacity:0.3;fill-rule:nonzero;"/>
        </g>
        <g transform="matrix(1,0,0,1,-13.9983,-292)">
            <path d="M78.011,519.006L78.011,521.006C78.009,521.448 78.016,521.827 78.015,522.26C78.016,522.719 78.022,523.143 78.025,523.592C78.013,522.104 78.003,520.624 78.011,519.006L78.011,519.006ZM254.005,519.758C253.949,554.39 250.121,558 215.089,558L116.933,558C83.998,558 78.492,554.82 78.042,525.666C78.347,550.54 81.531,557.631 100.218,559.432C100.221,559.432 100.224,559.431 100.228,559.432C100.989,559.505 101.776,559.57 102.589,559.627L102.595,559.627C103.41,559.684 104.25,559.733 105.118,559.775L105.12,559.775C105.7,559.803 106.367,559.812 106.972,559.834C108.18,559.878 109.363,559.928 110.673,559.951L110.677,559.951C112.641,559.986 114.722,560 116.927,560L215.083,560C218.76,560 222.02,559.944 225.044,559.834C227.465,559.745 229.76,559.628 231.796,559.432C251.292,557.554 253.92,549.932 254.001,522.348C254.001,521.886 254.007,521.479 254.005,521.006L254.005,519.758Z" style="fill-opacity:0.2;fill-rule:nonzero;"/>
        </g>
        <g transform="matrix(1,0,0,1,-13.9983,-292)">
            <path d="M169.8,497.256L136.963,522.412C135.446,523.574 136.268,526 138.179,526L142.373,526C145.3,526 148.126,524.929 150.32,522.991L179.436,497.256L169.8,497.256Z" style="fill:rgb(163,62,3);fill-rule:nonzero;"/>
        </g>
        <g transform="matrix(1,0,0,1,-13.9983,-292)">
            <path d="M162.209,497.256L195.046,522.412C196.564,523.574 195.741,526 193.83,526L189.637,526C186.709,526 183.883,524.929 181.689,522.991L152.574,497.256L162.209,497.256Z" style="fill:rgb(163,62,3);fill-rule:nonzero;"/>
        </g>
        <g transform="matrix(1,0,0,1,-13.9983,-292)">
            <rect x="156.005" y="506" width="19.999" height="4.999" style="fill:rgb(163,62,3);fill-rule:nonzero;"/>
        </g>
        <g transform="matrix(1,0,0,1,-13.9983,-292)">
            <path d="M226.005,433C226.005,423.617 218.388,416 209.005,416L123.005,416C113.622,416 106.005,423.617 106.005,433L106.005,489C106.005,498.383 113.622,506 123.005,506L209.005,506C218.388,506 226.005,498.383 226.005,489L226.005,433Z" style="fill:rgb(163,62,3);"/>
        </g>
        <g transform="matrix(1,0,0,1,-13.9983,-292)">
            <path d="M221.005,434C221.005,426.825 215.18,421 208.005,421L124.005,421C116.83,421 111.005,426.825 111.005,434L111.005,488C111.005,495.175 116.83,501 124.005,501L208.005,501C215.18,501 221.005,495.175 221.005,488L221.005,434Z" style="fill:url(#_Linear28);"/>
        </g>
        <g transform="matrix(1,0,0,1,-13.9983,-292)">
            <path d="M221.005,434C221.005,426.825 215.18,421 208.005,421L124.005,421C116.83,421 111.005,426.825 111.005,434L111.005,488C111.005,495.175 116.83,501 124.005,501L208.005,501C215.18,501 221.005,495.175 221.005,488L221.005,434Z" style="fill:url(#_Linear29);"/>
        </g>
        <g transform="matrix(1,0,0,1,-13.9983,-292)">
            <path d="M206.004,431L126.005,431C123.243,431 121.005,433.239 121.005,436C121.005,438.761 123.243,441 126.005,441L206.004,441C208.766,441 211.004,438.761 211.004,436C211.004,433.239 208.766,431 206.004,431Z" style="fill:rgb(211,97,24);fill-rule:nonzero;"/>
        </g>
        <g transform="matrix(1,0,0,1,-13.9983,-292)">
            <path d="M161.005,451L146.005,451C143.243,451 141.005,453.239 141.005,456C141.005,458.761 143.243,461 146.005,461L161.005,461C163.766,461 166.005,458.761 166.005,456C166.005,453.239 163.766,451 161.005,451Z" style="fill:rgb(178,71,15);fill-rule:nonzero;"/>
        </g>
        <g transform="matrix(1,0,0,1,-13.9983,-292)">
            <path d="M126.006,460.997C128.767,460.997 131.006,458.759 131.006,455.998C131.006,453.236 128.767,450.998 126.006,450.998C123.245,450.998 121.006,453.236 121.006,455.998C121.006,458.759 123.245,460.997 126.006,460.997Z" style="fill:rgb(227,113,59);fill-rule:nonzero;"/>
        </g>
        <g transform="matrix(1,0,0,1,-13.9983,-292)">
            <path d="M161.005,466L146.005,466C143.243,466 141.005,468.239 141.005,471C141.005,473.761 143.243,476 146.005,476L161.005,476C163.766,476 166.005,473.761 166.005,471C166.005,468.239 163.766,466 161.005,466Z" style="fill:rgb(178,71,15);fill-rule:nonzero;"/>
        </g>
        <g transform="matrix(1,0,0,1,-13.9983,-292)">
            <path d="M126.006,475.997C128.767,475.997 131.006,473.759 131.006,470.998C131.006,468.236 128.767,465.998 126.006,465.998C123.245,465.998 121.006,468.236 121.006,470.998C121.006,473.759 123.245,475.997 126.006,475.997Z" style="fill:rgb(227,113,59);fill-rule:nonzero;"/>
        </g>
        <g transform="matrix(1,0,0,1,-13.9983,-292)">
            <path d="M161.005,481L146.005,481C143.243,481 141.005,483.238 141.005,485.999C141.005,488.761 143.243,490.999 146.005,490.999L161.005,490.999C163.766,490.999 166.005,488.761 166.005,485.999C166.005,483.238 163.766,481 161.005,481Z" style="fill:rgb(178,71,15);fill-rule:nonzero;"/>
        </g>
        <g transform="matrix(1,0,0,1,-13.9983,-292)">
            <path d="M126.006,490.997C128.767,490.997 131.006,488.759 131.006,485.998C131.006,483.236 128.767,480.998 126.006,480.998C123.245,480.998 121.006,483.236 121.006,485.998C121.006,488.759 123.245,490.997 126.006,490.997Z" style="fill:rgb(227,113,59);fill-rule:nonzero;"/>
        </g>
        <g transform="matrix(1,0,0,1,-13.9983,-292)">
            <path d="M202.004,451L180.005,451C175.034,451 171.005,455.029 171.005,460L171.005,482C171.005,486.97 175.034,491 180.005,491L202.004,491C206.975,491 211.004,486.97 211.004,482L211.004,460C211.004,455.029 206.975,451 202.004,451Z" style="fill:rgb(229,114,60);fill-rule:nonzero;"/>
        </g>
        <g transform="matrix(1,0,0,1,-13.9983,-292)">
            <path d="M201.004,456L181.005,456C178.243,456 176.005,458.239 176.005,461L176.005,481C176.005,483.761 178.243,486 181.005,486L201.004,486C203.766,486 206.004,483.761 206.004,481L206.004,461C206.004,458.239 203.766,456 201.004,456Z" style="fill:url(#_Linear30);fill-rule:nonzero;"/>
        </g>
        <g transform="matrix(1,0,0,1,-13.9983,-292)">
            <path d="M201.004,456L181.005,456C178.243,456 176.005,458.239 176.005,461L176.005,481C176.005,483.761 178.243,486 181.005,486L201.004,486C203.766,486 206.004,483.761 206.004,481L206.004,461C206.004,458.239 203.766,456 201.004,456Z" style="fill:url(#_Linear31);fill-rule:nonzero;"/>
        </g>
        <g transform="matrix(1,0,0,1,-13.9983,-292)">
            <path d="M178.505,483.5L186.004,468.5L196.004,473.5L203.504,458.5" style="fill:none;fill-rule:nonzero;stroke:rgb(180,73,16);stroke-width:5px;stroke-linecap:round;stroke-linejoin:round;"/>
        </g>
        <g transform="matrix(1,0,0,1,-13.9983,-292)">
            <path d="M358.759,386.253L352.192,391.284C351.888,391.516 352.053,392.001 352.435,392.001L353.425,392.001C353.913,392.001 354.384,391.823 354.75,391.5L360.686,386.253L358.759,386.253Z" style="fill:rgb(163,62,3);fill-rule:nonzero;"/>
        </g>
        <g transform="matrix(1,0,0,1,-13.9983,-292)">
            <path d="M357.241,386.253L363.808,391.284C364.112,391.516 363.948,392.001 363.565,392.001L362.575,392.001C362.087,392.001 361.616,391.823 361.251,391.5L355.314,386.253L357.241,386.253Z" style="fill:rgb(163,62,3);fill-rule:nonzero;"/>
        </g>
        <g transform="matrix(1,0,0,1,-13.9983,-292)">
            <rect x="356" y="388.001" width="4" height="1" style="fill:rgb(163,62,3);fill-rule:nonzero;"/>
        </g>
        <g transform="matrix(1,0,0,1,-13.9983,-292)">
            <path d="M370,373C370,371.344 368.656,370 367,370L349,370C347.344,370 346,371.344 346,373L346,385C346,386.656 347.344,388 349,388L367,388C368.656,388 370,386.656 370,385L370,373Z" style="fill:rgb(163,62,3);"/>
        </g>
        <g transform="matrix(1,0,0,1,-13.9983,-292)">
            <path d="M369,373C369,371.896 368.104,371 367,371L349,371C347.896,371 347,371.896 347,373L347,385C347,386.104 347.896,387 349,387L367,387C368.104,387 369,386.104 369,385L369,373Z" style="fill:url(#_Linear32);"/>
        </g>
        <g transform="matrix(1,0,0,1,-13.9983,-292)">
            <path d="M366,373.001L350,373.001C349.448,373.001 349,373.449 349,374.001C349,374.554 349.448,375.001 350,375.001L366,375.001C366.552,375.001 367,374.554 367,374.001C367,373.449 366.552,373.001 366,373.001Z" style="fill:rgb(211,97,24);fill-rule:nonzero;"/>
        </g>
        <g transform="matrix(1,0,0,1,-13.9983,-292)">
            <path d="M357,377.001L354,377.001C353.448,377.001 353,377.449 353,378.001C353,378.554 353.448,379.001 354,379.001L357,379.001C357.552,379.001 358,378.554 358,378.001C358,377.449 357.552,377.001 357,377.001Z" style="fill:url(#_Linear33);fill-rule:nonzero;"/>
        </g>
        <g transform="matrix(1,0,0,1,-13.9983,-292)">
            <path d="M350,379.001C350.553,379.001 351,378.553 351,378.001C351,377.449 350.553,377.001 350,377.001C349.448,377.001 349,377.449 349,378.001C349,378.553 349.448,379.001 350,379.001Z" style="fill:rgb(211,97,24);fill-rule:nonzero;"/>
        </g>
        <g transform="matrix(1,0,0,1,-13.9983,-292)">
            <path d="M357,380.001L354,380.001C353.448,380.001 353,380.449 353,381.001C353,381.554 353.448,382.001 354,382.001L357,382.001C357.552,382.001 358,381.554 358,381.001C358,380.449 357.552,380.001 357,380.001Z" style="fill:url(#_Linear34);fill-rule:nonzero;"/>
        </g>
        <g transform="matrix(1,0,0,1,-13.9983,-292)">
            <path d="M350,382.001C350.553,382.001 351,381.553 351,381.001C351,380.449 350.553,380.001 350,380.001C349.448,380.001 349,380.449 349,381.001C349,381.553 349.448,382.001 350,382.001Z" style="fill:rgb(211,97,24);fill-rule:nonzero;"/>
        </g>
        <g transform="matrix(1,0,0,1,-13.9983,-292)">
            <path d="M357,383.001L354,383.001C353.448,383.001 353,383.449 353,384.001C353,384.554 353.448,385.001 354,385.001L357,385.001C357.552,385.001 358,384.554 358,384.001C358,383.449 357.552,383.001 357,383.001Z" style="fill:url(#_Linear35);fill-rule:nonzero;"/>
        </g>
        <g transform="matrix(1,0,0,1,-13.9983,-292)">
            <path d="M350,385.001C350.553,385.001 351,384.553 351,384.001C351,383.449 350.553,383.001 350,383.001C349.448,383.001 349,383.449 349,384.001C349,384.553 349.448,385.001 350,385.001Z" style="fill:rgb(211,97,24);fill-rule:nonzero;"/>
        </g>
        <g transform="matrix(1,0,0,1,-13.9983,-292)">
            <path d="M365,377.001L361,377.001C359.896,377.001 359,377.897 359,379.001L359,383.001C359,384.106 359.896,385.001 361,385.001L365,385.001C366.105,385.001 367,384.106 367,383.001L367,379.001C367,377.897 366.105,377.001 365,377.001Z" style="fill:rgb(229,114,60);fill-rule:nonzero;"/>
        </g>
        <g transform="matrix(1,0,0,1,-13.9983,-292)">
            <path d="M365,378.001L361,378.001C360.448,378.001 360,378.449 360,379.001L360,383.001C360,383.554 360.448,384.001 361,384.001L365,384.001C365.552,384.001 366,383.554 366,383.001L366,379.001C366,378.449 365.552,378.001 365,378.001Z" style="fill:url(#_Linear36);fill-rule:nonzero;"/>
        </g>
        <g transform="matrix(1,0,0,1,-13.9983,-292)">
            <path d="M365,378.001L361,378.001C360.448,378.001 360,378.449 360,379.001L360,383.001C360,383.554 360.448,384.001 361,384.001L365,384.001C365.552,384.001 366,383.554 366,383.001L366,379.001C366,378.449 365.552,378.001 365,378.001Z" style="fill:url(#_Linear37);fill-rule:nonzero;"/>
        </g>
        <g transform="matrix(1,0,0,1,-13.9983,-292)">
            <path d="M360.5,383.501L362,380.501L364,381.501L365.5,378.501" style="fill:none;fill-rule:nonzero;stroke:rgb(180,73,16);stroke-width:1px;stroke-linecap:round;stroke-linejoin:round;"/>
        </g>
    </g>
    <defs>
        <linearGradient id="_Linear1" x1="0" y1="0" x2="1" y2="0" gradientUnits="userSpaceOnUse" gradientTransform="matrix(7.337,32.151,-32.151,7.337,344.999,424)"><stop offset="0" style="stop-color:rgb(242,242,242);stop-opacity:1"/><stop offset="1" style="stop-color:white;stop-opacity:1"/></linearGradient>
        <linearGradient id="_Linear2" x1="0" y1="0" x2="1" y2="0" gradientUnits="userSpaceOnUse" gradientTransform="matrix(11.208,29.277,-29.277,11.208,343.799,425.58)"><stop offset="0" style="stop-color:rgb(159,61,6);stop-opacity:1"/><stop offset="1" style="stop-color:rgb(231,100,40);stop-opacity:1"/></linearGradient>
        <linearGradient id="_Linear3" x1="0" y1="0" x2="1" y2="0" gradientUnits="userSpaceOnUse" gradientTransform="matrix(16.539,44,-44,16.539,349.731,354)"><stop offset="0" style="stop-color:rgb(242,242,242);stop-opacity:1"/><stop offset="1" style="stop-color:white;stop-opacity:1"/></linearGradient>
        <linearGradient id="_Linear4" x1="0" y1="0" x2="1" y2="0" gradientUnits="userSpaceOnUse" gradientTransform="matrix(17.541,45.502,-45.502,17.541,349.231,352.998)"><stop offset="0" style="stop-color:rgb(159,61,6);stop-opacity:1"/><stop offset="1" style="stop-color:rgb(231,100,40);stop-opacity:1"/></linearGradient>
        <linearGradient id="_Linear5" x1="0" y1="0" x2="1" y2="0" gradientUnits="userSpaceOnUse" gradientTransform="matrix(5.809,15,-15,5.809,339.096,528.5)"><stop offset="0" style="stop-color:rgb(159,61,6);stop-opacity:1"/><stop offset="1" style="stop-color:rgb(231,100,40);stop-opacity:1"/></linearGradient>
        <linearGradient id="_Linear6" x1="0" y1="0" x2="1" y2="0" gradientUnits="userSpaceOnUse" gradientTransform="matrix(8.271,23,-23,8.271,341.865,480.5)"><stop offset="0" style="stop-color:rgb(153,58,3);stop-opacity:1"/><stop offset="1" style="stop-color:rgb(240,105,44);stop-opacity:1"/></linearGradient>
        <linearGradient id="_Linear7" x1="0" y1="0" x2="1" y2="0" gradientUnits="userSpaceOnUse" gradientTransform="matrix(-8,16,-16,-8,346.001,528)"><stop offset="0" style="stop-color:rgb(242,242,242);stop-opacity:1"/><stop offset="1" style="stop-color:white;stop-opacity:1"/></linearGradient>
        <linearGradient id="_Linear8" x1="0" y1="0" x2="1" y2="0" gradientUnits="userSpaceOnUse" gradientTransform="matrix(8,24,-24,8,342,480)"><stop offset="0" style="stop-color:rgb(242,242,242);stop-opacity:1"/><stop offset="1" style="stop-color:white;stop-opacity:1"/></linearGradient>
        <linearGradient id="_Linear9" x1="0" y1="0" x2="1" y2="0" gradientUnits="userSpaceOnUse" gradientTransform="matrix(7.34727e-16,-11.999,11.999,7.34727e-16,354.455,450.001)"><stop offset="0" style="stop-color:rgb(211,97,24);stop-opacity:1"/><stop offset="1" style="stop-color:rgb(240,158,111);stop-opacity:1"/></linearGradient>
        <linearGradient id="_Linear10" x1="0" y1="0" x2="1" y2="0" gradientUnits="userSpaceOnUse" gradientTransform="matrix(-0.661,-10.983,10.983,-0.661,356,449)"><stop offset="0" style="stop-color:white;stop-opacity:0.58"/><stop offset="1" style="stop-color:white;stop-opacity:0.86"/></linearGradient>
        <linearGradient id="_Linear11" x1="0" y1="0" x2="1" y2="0" gradientUnits="userSpaceOnUse" gradientTransform="matrix(3.98225e-15,65.035,-65.035,3.98225e-15,348,411.484)"><stop offset="0" style="stop-color:rgb(163,62,3);stop-opacity:1"/><stop offset="1" style="stop-color:rgb(98,37,2);stop-opacity:1"/></linearGradient>
        <linearGradient id="_Linear12" x1="0" y1="0" x2="1" y2="0" gradientUnits="userSpaceOnUse" gradientTransform="matrix(3.98225e-15,65.035,-65.035,3.98225e-15,348,414.484)"><stop offset="0" style="stop-color:rgb(163,62,3);stop-opacity:1"/><stop offset="1" style="stop-color:rgb(98,37,2);stop-opacity:1"/></linearGradient>
        <linearGradient id="_Linear13" x1="0" y1="0" x2="1" y2="0" gradientUnits="userSpaceOnUse" gradientTransform="matrix(9.81677e-16,16.032,-16.032,9.81677e-16,342.254,529.005)"><stop offset="0" style="stop-color:rgb(163,62,3);stop-opacity:1"/><stop offset="1" style="stop-color:rgb(98,37,2);stop-opacity:1"/></linearGradient>
        <linearGradient id="_Linear14" x1="0" y1="0" x2="1" y2="0" gradientUnits="userSpaceOnUse" gradientTransform="matrix(9.81677e-16,16.032,-16.032,9.81677e-16,340.502,528.001)"><stop offset="0" style="stop-color:rgb(163,62,3);stop-opacity:1"/><stop offset="1" style="stop-color:rgb(98,37,2);stop-opacity:1"/></linearGradient>
        <linearGradient id="_Linear15" x1="0" y1="0" x2="1" y2="0" gradientUnits="userSpaceOnUse" gradientTransform="matrix(9.81677e-16,16.032,-16.032,9.81677e-16,340.502,528.001)"><stop offset="0" style="stop-color:rgb(163,62,3);stop-opacity:1"/><stop offset="1" style="stop-color:rgb(98,37,2);stop-opacity:1"/></linearGradient>
        <linearGradient id="_Linear16" x1="0" y1="0" x2="1" y2="0" gradientUnits="userSpaceOnUse" gradientTransform="matrix(9.81677e-16,16.032,-16.032,9.81677e-16,339.752,528.001)"><stop offset="0" style="stop-color:rgb(163,62,3);stop-opacity:1"/><stop offset="1" style="stop-color:rgb(98,37,2);stop-opacity:1"/></linearGradient>
        <linearGradient id="_Linear17" x1="0" y1="0" x2="1" y2="0" gradientUnits="userSpaceOnUse" gradientTransform="matrix(9.81677e-16,16.032,-16.032,9.81677e-16,339.752,528.001)"><stop offset="0" style="stop-color:rgb(163,62,3);stop-opacity:1"/><stop offset="1" style="stop-color:rgb(98,37,2);stop-opacity:1"/></linearGradient>
        <linearGradient id="_Linear18" x1="0" y1="0" x2="1" y2="0" gradientUnits="userSpaceOnUse" gradientTransform="matrix(3.67394e-16,-6,6,3.67394e-16,347.727,499.5)"><stop offset="0" style="stop-color:rgb(211,97,24);stop-opacity:1"/><stop offset="1" style="stop-color:rgb(240,158,111);stop-opacity:1"/></linearGradient>
        <linearGradient id="_Linear19" x1="0" y1="0" x2="1" y2="0" gradientUnits="userSpaceOnUse" gradientTransform="matrix(3.67394e-16,-6,6,3.67394e-16,348.3,499.5)"><stop offset="0" style="stop-color:white;stop-opacity:0.58"/><stop offset="1" style="stop-color:white;stop-opacity:0.86"/></linearGradient>
        <linearGradient id="_Linear20" x1="0" y1="0" x2="1" y2="0" gradientUnits="userSpaceOnUse" gradientTransform="matrix(1.99109e-15,32.517,-32.517,1.99109e-15,344,478.242)"><stop offset="0" style="stop-color:rgb(163,62,3);stop-opacity:1"/><stop offset="1" style="stop-color:rgb(98,37,2);stop-opacity:1"/></linearGradient>
        <linearGradient id="_Linear21" x1="0" y1="0" x2="1" y2="0" gradientUnits="userSpaceOnUse" gradientTransform="matrix(1.99115e-15,32.518,-32.518,1.99115e-15,344,480.241)"><stop offset="0" style="stop-color:rgb(163,62,3);stop-opacity:1"/><stop offset="1" style="stop-color:rgb(98,37,2);stop-opacity:1"/></linearGradient>
        <linearGradient id="_Linear22" x1="0" y1="0" x2="1" y2="0" gradientUnits="userSpaceOnUse" gradientTransform="matrix(2.69422e-15,44,-44,2.69422e-15,358,354)"><stop offset="0" style="stop-color:white;stop-opacity:0.3"/><stop offset="0.13" style="stop-color:white;stop-opacity:0.03"/><stop offset="0.93" style="stop-color:white;stop-opacity:0.03"/><stop offset="1" style="stop-color:white;stop-opacity:0.15"/></linearGradient>
        <linearGradient id="_Linear23" x1="0" y1="0" x2="1" y2="0" gradientUnits="userSpaceOnUse" gradientTransform="matrix(1.34711e-15,22,-22,1.34711e-15,346,481)"><stop offset="0" style="stop-color:white;stop-opacity:0.3"/><stop offset="0.13" style="stop-color:white;stop-opacity:0.03"/><stop offset="0.93" style="stop-color:white;stop-opacity:0.03"/><stop offset="1" style="stop-color:white;stop-opacity:0.15"/></linearGradient>
        <linearGradient id="_Linear24" x1="0" y1="0" x2="1" y2="0" gradientUnits="userSpaceOnUse" gradientTransform="matrix(8.57253e-16,14,-14,8.57253e-16,342,529)"><stop offset="0" style="stop-color:white;stop-opacity:0.3"/><stop offset="0.13" style="stop-color:white;stop-opacity:0.03"/><stop offset="0.93" style="stop-color:white;stop-opacity:0.03"/><stop offset="1" style="stop-color:white;stop-opacity:0.15"/></linearGradient>
        <linearGradient id="_Linear25" x1="0" y1="0" x2="1" y2="0" gradientUnits="userSpaceOnUse" gradientTransform="matrix(1.71451e-15,28,-28,1.71451e-15,349,426)"><stop offset="0" style="stop-color:white;stop-opacity:0.3"/><stop offset="0.13" style="stop-color:white;stop-opacity:0.03"/><stop offset="0.93" style="stop-color:white;stop-opacity:0.03"/><stop offset="1" style="stop-color:white;stop-opacity:0.15"/></linearGradient>
        <linearGradient id="_Linear26" x1="0" y1="0" x2="1" y2="0" gradientUnits="userSpaceOnUse" gradientTransform="matrix(98.167,221.998,-221.998,98.167,116.927,336)"><stop offset="0" style="stop-color:rgb(242,242,242);stop-opacity:1"/><stop offset="1" style="stop-color:white;stop-opacity:1"/></linearGradient>
        <linearGradient id="_Linear27" x1="0" y1="0" x2="1" y2="0" gradientUnits="userSpaceOnUse" gradientTransform="matrix(-98.156,-224,224,-98.156,215.083,562)"><stop offset="0" style="stop-color:rgb(231,100,40);stop-opacity:1"/><stop offset="1" style="stop-color:rgb(159,61,6);stop-opacity:1"/></linearGradient>
        <linearGradient id="_Linear28" x1="0" y1="0" x2="1" y2="0" gradientUnits="userSpaceOnUse" gradientTransform="matrix(4.89859e-15,-80,80,4.89859e-15,201.005,501)"><stop offset="0" style="stop-color:rgb(211,97,24);stop-opacity:1"/><stop offset="1" style="stop-color:rgb(240,158,111);stop-opacity:1"/></linearGradient>
        <linearGradient id="_Linear29" x1="0" y1="0" x2="1" y2="0" gradientUnits="userSpaceOnUse" gradientTransform="matrix(4.89859e-15,-80,80,4.89859e-15,210.004,501.003)"><stop offset="0" style="stop-color:white;stop-opacity:0.58"/><stop offset="1" style="stop-color:white;stop-opacity:0.86"/></linearGradient>
        <linearGradient id="_Linear30" x1="0" y1="0" x2="1" y2="0" gradientUnits="userSpaceOnUse" gradientTransform="matrix(1.83697e-15,-30,30,1.83697e-15,176.007,486.001)"><stop offset="0" style="stop-color:rgb(179,179,179);stop-opacity:1"/><stop offset="1" style="stop-color:rgb(230,230,230);stop-opacity:1"/></linearGradient>
        <linearGradient id="_Linear31" x1="0" y1="0" x2="1" y2="0" gradientUnits="userSpaceOnUse" gradientTransform="matrix(1.83697e-15,-30,30,1.83697e-15,176.006,485.997)"><stop offset="0" style="stop-color:white;stop-opacity:0.58"/><stop offset="1" style="stop-color:white;stop-opacity:0.86"/></linearGradient>
        <linearGradient id="_Linear32" x1="0" y1="0" x2="1" y2="0" gradientUnits="userSpaceOnUse" gradientTransform="matrix(9.79717e-16,-16,16,9.79717e-16,366.8,387.001)"><stop offset="0" style="stop-color:white;stop-opacity:0.58"/><stop offset="1" style="stop-color:white;stop-opacity:0.86"/></linearGradient>
        <linearGradient id="_Linear33" x1="0" y1="0" x2="1" y2="0" gradientUnits="userSpaceOnUse" gradientTransform="matrix(3.98225e-15,65.035,-65.035,3.98225e-15,353,345.484)"><stop offset="0" style="stop-color:rgb(163,62,3);stop-opacity:1"/><stop offset="1" style="stop-color:rgb(98,37,2);stop-opacity:1"/></linearGradient>
        <linearGradient id="_Linear34" x1="0" y1="0" x2="1" y2="0" gradientUnits="userSpaceOnUse" gradientTransform="matrix(3.98225e-15,65.035,-65.035,3.98225e-15,353,348.484)"><stop offset="0" style="stop-color:rgb(163,62,3);stop-opacity:1"/><stop offset="1" style="stop-color:rgb(98,37,2);stop-opacity:1"/></linearGradient>
        <linearGradient id="_Linear35" x1="0" y1="0" x2="1" y2="0" gradientUnits="userSpaceOnUse" gradientTransform="matrix(3.98225e-15,65.035,-65.035,3.98225e-15,353,351.484)"><stop offset="0" style="stop-color:rgb(163,62,3);stop-opacity:1"/><stop offset="1" style="stop-color:rgb(98,37,2);stop-opacity:1"/></linearGradient>
        <linearGradient id="_Linear36" x1="0" y1="0" x2="1" y2="0" gradientUnits="userSpaceOnUse" gradientTransform="matrix(3.67394e-16,-6,6,3.67394e-16,360.001,384.002)"><stop offset="0" style="stop-color:rgb(179,179,179);stop-opacity:1"/><stop offset="1" style="stop-color:rgb(230,230,230);stop-opacity:1"/></linearGradient>
        <linearGradient id="_Linear37" x1="0" y1="0" x2="1" y2="0" gradientUnits="userSpaceOnUse" gradientTransform="matrix(3.67394e-16,-6,6,3.67394e-16,360,384.001)"><stop offset="0" style="stop-color:white;stop-opacity:0.58"/><stop offset="1" style="stop-color:white;stop-opacity:0.86"/></linearGradient>
    </defs>
</svg>
