<?xml version="1.0" encoding="UTF-8" standalone="no"?>
<!DOCTYPE svg PUBLIC "-//W3C//DTD SVG 1.1//EN" "http://www.w3.org/Graphics/SVG/1.1/DTD/svg11.dtd">
<svg width="100%" height="100%" viewBox="0 0 400 300" version="1.1" xmlns="http://www.w3.org/2000/svg" xmlns:xlink="http://www.w3.org/1999/xlink" xml:space="preserve" xmlns:serif="http://www.serif.com/" style="fill-rule:evenodd;clip-rule:evenodd;">
    <g id="Icon">
        <g transform="matrix(1,0,0,1,-421,-292)">
            <path d="M763.288,425.996C763.205,425.996 763.132,426.003 763.071,426.011L763.034,426.017L762.997,426.029C761.976,426.334 761.642,427.697 762.45,428.398L762.45,428.4L767.54,433.166L767.546,433.17C767.987,433.562 768.582,433.568 769.054,433.389C769.526,433.209 769.971,432.794 769.995,432.199L769.995,430.834C770.001,429.797 770.02,429.012 769.977,428.379C769.935,427.745 769.834,427.23 769.505,426.826C769.176,426.421 768.676,426.233 768.075,426.14C767.474,426.047 766.723,426.029 765.714,426.008L763.438,426.008C763.39,426.003 763.343,425.996 763.288,425.996ZM756.03,425.998L751.075,426C748.276,426 746.5,426.102 745.356,427.133C745.114,427.352 744.925,427.608 744.768,427.877C744.757,427.897 744.712,427.955 744.657,428.064C744.566,428.245 744.486,428.437 744.419,428.641C744.352,428.842 744.294,429.059 744.245,429.291C744.196,429.521 744.158,429.762 744.126,430.019L744.126,430.021C744.061,430.537 744.026,431.112 744.01,431.758C744.003,432.08 743.999,432.42 744.001,432.781L744.001,449.221C743.999,449.58 744.002,449.919 744.01,450.242C744.026,450.888 744.061,451.464 744.126,451.98C744.158,452.238 744.196,452.479 744.245,452.709C744.342,453.169 744.476,453.576 744.657,453.935C744.838,454.296 745.07,454.611 745.356,454.869C745.5,454.998 745.657,455.112 745.823,455.213C746.156,455.415 746.532,455.563 746.952,455.674L746.952,455.676C748.001,455.951 749.326,456 751.075,456L762.93,456C763.626,456 764.253,455.99 764.821,455.963L764.823,455.963C765.062,455.951 765.281,455.934 765.493,455.916L765.497,455.916C765.503,455.915 765.549,455.912 765.587,455.91L765.6,455.91C765.616,455.909 765.615,455.91 765.634,455.908L765.636,455.908C766.15,455.859 766.61,455.785 767.024,455.678C767.23,455.624 767.43,455.562 767.62,455.486C767.809,455.411 767.985,455.323 768.149,455.224C768.315,455.125 768.471,455.012 768.614,454.885C768.743,454.77 768.855,454.645 768.956,454.519L768.983,454.492L768.999,454.472L769.005,454.464L769.007,454.46L769.015,454.452L769.023,454.439C769.023,454.439 769.031,454.423 769.035,454.415C769.038,454.411 769.044,454.407 769.046,454.403C769.046,454.404 769.039,454.406 769.038,454.407C769.048,454.389 769.056,454.377 769.064,454.361C769.058,454.373 769.054,454.384 769.052,454.388C769.147,454.256 769.24,454.119 769.318,453.968C769.41,453.789 769.49,453.599 769.558,453.4C769.627,453.199 769.684,452.987 769.734,452.761C769.784,452.534 769.825,452.295 769.859,452.042C769.89,451.813 769.913,451.57 769.933,451.323L769.935,451.321L769.935,451.317C769.934,451.336 769.94,451.308 769.945,451.235L769.945,451.233C769.947,451.203 769.949,451.171 769.945,451.227L769.945,451.223C769.986,450.659 770.002,450.034 770.004,449.333L770.004,438.141C769.997,436.58 768.683,435.451 767.736,434.637L767.726,434.629L767.724,434.627L761.013,428.153L761.005,428.147C759.462,426.756 758.211,425.996 756.031,425.996L756.03,425.998Z" style="fill-opacity:0.1;fill-rule:nonzero;"/>
        </g>
        <g transform="matrix(1,0,0,1,-421,-292)">
            <path d="M753.813,426.594C751.603,426.681 749.385,426.503 747.201,426.879C745.819,427.103 745.6,428.703 745.598,429.848C745.506,436.469 745.515,443.135 745.592,449.775C745.611,451.019 745.723,452.794 747.203,453.141C749.057,453.58 750.97,453.329 752.857,453.416C757.316,453.373 761.785,453.494 766.226,453.275C767.548,453.183 768.179,451.86 768.236,450.684C768.43,446.122 768.324,441.555 768.353,436.99C767.682,435.651 766.392,434.767 765.41,433.684C763.203,431.588 761.078,429.391 758.748,427.432C757.32,426.361 755.446,426.667 753.812,426.594L753.813,426.594Z" style="fill:url(#_Linear1);fill-rule:nonzero;"/>
        </g>
        <g transform="matrix(1,0,0,1,-421,-292)">
            <path d="M763.434,425.5C763.385,425.5 763.335,425.505 763.286,425.511C762.653,425.704 762.438,426.62 762.926,427.05L768.08,431.879C768.61,432.358 769.463,431.949 769.491,431.253L769.491,429.892C769.513,425.678 769.821,425.598 765.827,425.511L763.584,425.511C763.535,425.504 763.484,425.5 763.434,425.5ZM750.799,425.58C745.262,425.58 744.471,426.163 744.5,431.845L744.5,448.235C744.471,453.918 745.508,454.5 751.045,454.5L762.843,454.5C768.34,454.5 769.372,453.92 769.386,448.347L769.386,437.198C769.38,435.941 768.23,434.88 767.299,434.079L767.291,434.073L760.59,427.598C759.08,426.234 758.036,425.581 755.971,425.581L750.799,425.58ZM758.027,428L766.999,437L766.999,450C766.999,450 766.887,451.178 766.551,451.5C766.215,451.821 764.981,451.928 764.981,451.928L749.017,451.928C749.017,451.928 747.784,451.821 747.448,451.5C747.112,451.178 746.999,450 746.999,450L746.981,429.928C746.981,429.928 747.094,428.75 747.43,428.428C747.766,428.107 748.999,428 748.999,428L758.027,428Z" style="fill:url(#_Linear2);fill-rule:nonzero;"/>
        </g>
        <g transform="matrix(1,0,0,1,-421,-292)">
            <path d="M744.499,440L744.499,448.236C744.47,453.919 745.507,454.5 751.044,454.5L762.843,454.5C768.34,454.5 769.372,453.921 769.386,448.348L769.386,440L744.499,440Z" style="fill:white;fill-opacity:0.1;fill-rule:nonzero;"/>
        </g>
        <g transform="matrix(1,0,0,1,-421,-292)">
            <path d="M774.503,353.373C774.37,353.373 774.247,353.386 774.136,353.403L774.057,353.414L773.981,353.438C773.105,353.717 772.587,354.47 772.417,355.231C772.265,355.909 772.428,356.675 772.93,357.282L772.567,356.918L772.557,356.91L772.555,356.907L772.553,356.91C772.27,356.643 771.996,356.386 771.719,356.143L771.717,356.143L771.715,356.139L771.713,356.137L771.707,356.135C771.436,355.897 771.167,355.674 770.897,355.465L770.891,355.461C770.89,355.461 770.885,355.457 770.885,355.457C770.615,355.249 770.342,355.051 770.058,354.869L770.056,354.869L770.054,354.867L770.05,354.865C769.774,354.688 769.49,354.524 769.193,354.377L769.187,354.375C768.891,354.229 768.583,354.099 768.263,353.988L768.259,353.986L768.255,353.986C767.937,353.877 767.606,353.784 767.261,353.711L767.251,353.711C766.909,353.639 766.554,353.584 766.181,353.549L766.179,353.549C765.802,353.513 765.41,353.498 765.001,353.498L756.732,353.498C752.58,353.498 749.866,353.643 748.079,355.33C747.185,356.174 746.659,357.345 746.366,358.795C746.074,360.245 745.99,361.511 746.001,363.752L746.001,389.25C745.99,391.487 746.074,393.253 746.366,394.701C746.659,396.15 747.185,397.321 748.079,398.166C748.3,398.374 748.543,398.564 748.806,398.732L748.81,398.734L748.816,398.738C748.816,398.738 748.827,398.742 748.828,398.742C749.077,398.899 749.342,399.039 749.624,399.16L749.63,399.162C749.631,399.163 749.633,399.165 749.634,399.166L749.636,399.166C749.637,399.166 749.646,399.169 749.648,399.17C749.934,399.29 750.236,399.397 750.554,399.484L750.558,399.484C750.876,399.572 751.21,399.646 751.564,399.707L751.572,399.707C751.924,399.767 752.29,399.813 752.674,399.852L752.68,399.852C753.064,399.89 753.468,399.92 753.893,399.942L753.905,399.942L753.909,399.944C753.909,399.944 753.983,399.943 753.981,399.944C754.817,399.984 755.726,400 756.735,400L773.774,400C777.897,400 780.09,399.858 781.875,398.197C782.768,397.367 783.299,396.213 783.6,394.787C783.9,393.361 783.997,391.626 784.002,389.427L784.002,370.517C783.993,368.615 782.813,367.128 781.68,365.976C781.303,365.593 780.922,365.243 780.57,364.925L780.285,364.668L780.312,364.668L780.301,364.656L780.299,364.656L780.248,364.605C780.968,365.168 781.888,365.219 782.613,364.924C783.393,364.606 784.115,363.878 784.154,362.863L784.154,360.707C784.162,359.079 784.19,358.34 784.127,357.332C784.063,356.323 783.921,355.482 783.39,354.785C782.86,354.089 782.028,353.756 781.105,353.604C780.182,353.451 779.57,353.425 778.082,353.391L774.725,353.391C774.652,353.384 774.581,353.374 774.504,353.373L774.503,353.373ZM749.931,397.25C749.931,397.25 749.932,397.252 749.933,397.252C749.899,397.255 749.864,397.258 749.864,397.258C749.865,397.258 749.898,397.254 749.931,397.25ZM749.899,399.234C749.904,399.234 749.933,399.238 749.964,399.24C749.938,399.239 749.905,399.236 749.905,399.236L749.899,399.234Z" style="fill-opacity:0.1;fill-rule:nonzero;"/>
        </g>
        <g transform="matrix(1,0,0,1,-421,-292)">
            <path d="M746.096,529C745.377,529 744.794,529.014 744.26,529.104C743.726,529.193 743.192,529.38 742.783,529.787C742.375,530.194 742.187,530.73 742.098,531.266C742.009,531.801 741.997,532.386 742,533.107L742,539.898C741.997,540.617 742.009,541.201 742.098,541.734C742.187,542.27 742.375,542.806 742.783,543.213C743.192,543.62 743.726,543.807 744.26,543.896C744.794,543.986 745.377,544 746.096,544L751.904,544C752.623,544 753.205,543.986 753.738,543.896C754.272,543.807 754.806,543.619 755.213,543.211C755.62,542.803 755.807,542.268 755.897,541.734C755.986,541.201 756,540.619 756,539.898L756,533.102C756,532.381 755.986,531.799 755.897,531.266C755.807,530.732 755.62,530.197 755.213,529.789C754.806,529.381 754.272,529.193 753.738,529.104C753.205,529.014 752.623,529 751.904,529L746.096,529Z" style="fill-opacity:0.1;fill-rule:nonzero;"/>
        </g>
        <g transform="matrix(1,0,0,1,-421,-292)">
            <path d="M761.676,354.606C758.244,354.672 754.81,354.537 751.395,354.783C750.073,355.014 748.653,355.621 748.227,357.022C747.348,359.233 747.734,361.549 747.611,363.875C747.614,373.34 747.528,382.808 747.678,392.272C747.734,394.018 748.27,396.281 750.182,396.893C752.628,397.675 755.23,397.298 757.752,397.428C764.379,397.435 771.021,397.524 777.635,397.32C779.193,397.139 781.177,396.773 781.719,395.057C782.553,392.984 782.311,390.773 782.453,388.596C782.579,382.249 782.483,375.862 782.473,369.498C781.723,367.561 780.005,366.343 778.664,364.863C775.614,361.889 772.726,358.736 769.48,355.971C768.344,355.016 766.877,354.567 765.4,354.631C764.159,354.596 762.917,354.604 761.676,354.606Z" style="fill:url(#_Linear3);fill-rule:nonzero;"/>
        </g>
        <g transform="matrix(1,0,0,1,-421,-292)">
            <path d="M774.5,353.375C774.426,353.375 774.353,353.382 774.279,353.393C773.339,353.692 773.019,355.117 773.744,355.787L781.258,363.301C782.044,364.047 783.611,363.41 783.652,362.326L783.652,360.209C783.686,353.651 783.994,353.527 778.057,353.393L774.723,353.393C774.649,353.381 774.574,353.375 774.5,353.375ZM756.23,353.5C747.999,353.5 746.457,354.406 746.5,363.248L746.5,388.752C746.457,397.594 747.999,398.5 756.23,398.5L773.77,398.5C781.942,398.5 783.475,397.598 783.496,388.926L783.496,370.021C783.487,368.066 781.778,366.415 780.395,365.168L780.383,365.158L771.865,356.639C769.621,354.517 768.069,353.5 764.998,353.5L756.23,353.5ZM767.5,357L780,369.5L780,392C780,392 779.833,393.833 779.333,394.333C778.833,394.833 777,395 777,395L753,395C753,395 751.167,394.833 750.667,394.333C750.167,393.833 750,392 750,392L750,360C750,360 750.167,358.167 750.667,357.667C751.167,357.167 753,357 753,357L767.5,357Z" style="fill:url(#_Linear4);fill-rule:nonzero;"/>
        </g>
        <g transform="matrix(1,0,0,1,-421,-292)">
            <path d="M751.904,528.5C752.615,528.5 753.178,528.515 753.656,528.596C754.135,528.676 754.553,528.833 754.863,529.143C755.174,529.452 755.331,529.869 755.41,530.348C755.49,530.827 755.503,531.391 755.5,532.104L755.5,539.898C755.503,540.61 755.49,541.174 755.41,541.652C755.331,542.131 755.174,542.548 754.863,542.857C754.553,543.167 754.135,543.324 753.656,543.404C753.178,543.485 752.615,543.5 751.904,543.5L746.096,543.5C745.385,543.5 744.823,543.485 744.346,543.404C743.868,543.324 743.45,543.167 743.141,542.857C742.831,542.548 742.676,542.131 742.596,541.652C742.516,541.174 742.5,540.61 742.5,539.898L742.5,532.102C742.5,531.39 742.516,530.826 742.596,530.348C742.676,529.869 742.831,529.452 743.141,529.143C743.45,528.833 743.868,528.676 744.346,528.596C744.823,528.515 745.385,528.5 746.096,528.5L751.904,528.5Z" style="fill:url(#_Linear5);fill-rule:nonzero;"/>
        </g>
        <g transform="matrix(1,0,0,1,-421,-292)">
            <path d="M757.135,480.5C758.246,480.5 759.121,480.526 759.842,480.646C760.562,480.767 761.152,480.995 761.584,481.426C762.015,481.856 762.243,482.446 762.363,483.166C762.483,483.887 762.505,484.763 762.5,485.877L762.5,498.125C762.505,499.238 762.483,500.114 762.363,500.834C762.243,501.554 762.015,502.144 761.584,502.574C761.152,503.005 760.562,503.233 759.842,503.354C759.121,503.474 758.246,503.5 757.135,503.5L748.865,503.5C747.753,503.5 746.879,503.474 746.16,503.354C745.441,503.233 744.854,503.005 744.424,502.574C743.993,502.143 743.767,501.556 743.646,500.836C743.526,500.116 743.5,499.239 743.5,498.125L743.5,485.875C743.5,484.761 743.525,483.884 743.646,483.164C743.767,482.444 743.993,481.857 744.424,481.426C744.854,480.995 745.441,480.767 746.16,480.646C746.879,480.526 747.753,480.5 748.865,480.5L757.135,480.5Z" style="fill:url(#_Linear6);fill-rule:nonzero;"/>
        </g>
        <g transform="matrix(1,0,0,1,-421,-292)">
            <path d="M746.096,530C745.407,530 744.912,530.021 744.592,530.074C744.288,530.125 744.209,530.192 744.196,530.205C744.183,530.218 744.121,530.291 744.071,530.594C744.018,530.912 743.998,531.406 744.001,532.096L744.001,539.904C743.998,540.594 744.018,541.089 744.071,541.406C744.121,541.71 744.183,541.782 744.196,541.795C744.209,541.808 744.288,541.875 744.592,541.926C744.912,541.98 745.407,542 746.096,542L751.905,542C752.594,542 753.088,541.979 753.407,541.926C753.711,541.875 753.787,541.807 753.797,541.797C753.809,541.786 753.875,541.711 753.926,541.404C753.98,541.085 754,540.589 754,539.899L754,533L751,530L746.096,530Z" style="fill:url(#_Linear7);fill-rule:nonzero;"/>
        </g>
        <g transform="matrix(1,0,0,1,-421,-292)">
            <path d="M748.866,482C747.777,482 746.965,482.031 746.407,482.125C745.858,482.217 745.61,482.354 745.475,482.488C745.341,482.622 745.209,482.865 745.118,483.412C745.025,483.968 744.996,484.779 745.001,485.869L745.001,498.131C744.996,499.221 745.025,500.033 745.118,500.588C745.209,501.135 745.341,501.378 745.475,501.512C745.61,501.646 745.858,501.783 746.407,501.875C746.965,501.969 747.777,502 748.866,502L757.135,502C758.224,502 759.036,501.969 759.592,501.875C760.139,501.783 760.38,501.648 760.514,501.514C760.648,501.379 760.783,501.137 760.876,500.588C760.969,500.03 761.001,499.216 761.001,498.125L761.001,489L754,482L748.866,482Z" style="fill:url(#_Linear8);fill-rule:nonzero;"/>
        </g>
        <g transform="matrix(1,0,0,1,-421,-292)">
            <path d="M744,492L744,498.125C743.979,502.546 744.454,503 748.866,503L757.135,503C761.547,503 762,502.546 762,498.125L762,492L744,492Z" style="fill:white;fill-opacity:0.1;fill-rule:nonzero;"/>
        </g>
        <g transform="matrix(1,0,0,1,-421,-292)">
            <path d="M749,529L749,543L751.905,543C754.712,543 755,542.712 755,539.898L755,532.102C755,529.288 754.712,529 751.905,529L749,529Z" style="fill:white;fill-opacity:0.1;fill-rule:nonzero;"/>
        </g>
        <g transform="matrix(1,0,0,1,-421,-292)">
            <path d="M743,536L743,539.898C742.987,542.712 743.288,543 746.096,543L751.905,543C754.712,543 755,542.712 755,539.898L755,536L743,536Z" style="fill:white;fill-opacity:0.1;fill-rule:nonzero;"/>
        </g>
        <g transform="matrix(1,0,0,1,-421,-292)">
            <path d="M753,480.5L753,503.5L757.135,503.5C758.246,503.5 759.122,503.474 759.842,503.354C760.562,503.233 761.152,503.005 761.584,502.574C762.016,502.144 762.244,501.554 762.363,500.834C762.483,500.114 762.505,499.238 762.5,498.125L762.5,485.877C762.505,484.763 762.483,483.887 762.363,483.166C762.244,482.446 762.016,481.856 761.584,481.426C761.152,480.995 760.562,480.767 759.842,480.646C759.122,480.526 758.246,480.5 757.135,480.5L753,480.5Z" style="fill:white;fill-opacity:0.1;fill-rule:nonzero;"/>
        </g>
        <g transform="matrix(1,0,0,1,-421,-292)">
            <path d="M746.501,376L746.501,388.752C746.458,397.594 748,398.5 756.231,398.5L773.77,398.5C781.943,398.5 783.476,397.598 783.497,388.926L783.497,376L746.501,376Z" style="fill:white;fill-opacity:0.1;fill-rule:nonzero;"/>
        </g>
        <g transform="matrix(1,0,0,1,-421,-292)">
            <path d="M754,370C753.448,370 753,370.448 753,371C753,371.552 753.448,372 754,372L760,372C760.553,372 761,371.552 761,371C761,370.448 760.553,370 760,370L754,370ZM754,374C753.448,374 753,374.448 753,375C753,375.552 753.448,376 754,376L760,376C760.553,376 761,375.552 761,375C761,374.448 760.553,374 760,374L754,374ZM754,378C753.448,378 753,378.448 753,379C753,379.552 753.448,380 754,380L760,380C760.553,380 761,379.552 761,379C761,378.448 760.553,378 760,378L754,378ZM754,382C753.448,382 753,382.448 753,383C753,383.552 753.448,384 754,384L776,384C776.553,384 777,383.552 777,383C777,382.448 776.553,382 776,382L754,382ZM754,386C753.448,386 753,386.448 753,387C753,387.552 753.448,388 754,388L776,388C776.553,388 777,387.552 777,387C777,386.448 776.553,386 776,386L754,386ZM754,390C753.448,390 753,390.448 753,391C753,391.552 753.448,392 754,392L770,392C770.553,392 771,391.552 771,391C771,390.448 770.553,390 770,390L754,390Z" style="fill:url(#_Linear9);fill-rule:nonzero;"/>
        </g>
        <g transform="matrix(1,0,0,1,-421,-292)">
            <path d="M747,376L747,388.252C746.957,397.094 747.907,398 756.731,398L773.27,398C782.094,398 783,397.094 783,388.252L783,376L747,376Z" style="fill:white;fill-opacity:0.1;fill-rule:nonzero;"/>
        </g>
        <g transform="matrix(1,0,0,1,-421,-292)">
            <path d="M749.5,437C749.223,437 749,437.224 749,437.5C749,437.776 749.223,438 749.5,438L754.5,438C754.776,438 755,437.776 755,437.5C755,437.224 754.776,437 754.5,437L749.5,437ZM749.5,439C749.223,439 749,439.224 749,439.5C749,439.776 749.223,440 749.5,440L754.5,440C754.776,440 755,439.776 755,439.5C755,439.224 754.776,439 754.5,439L749.5,439ZM749.5,441C749.223,441 749,441.224 749,441.5C749,441.776 749.223,442 749.5,442L754.5,442C754.776,442 755,441.776 755,441.5C755,441.224 754.776,441 754.5,441L749.5,441ZM749.5,443C749.223,443 749,443.224 749,443.5C749,443.776 749.223,444 749.5,444L754.5,444C754.776,444 755,443.776 755,443.5C755,443.224 754.776,443 754.5,443L749.5,443ZM749.5,445C749.223,445 749,445.224 749,445.5C749,445.776 749.223,446 749.5,446L764.5,446C764.776,446 765,445.776 765,445.5C765,445.224 764.776,445 764.5,445L749.5,445ZM749.5,447C749.223,447 749,447.224 749,447.5C749,447.776 749.223,448 749.5,448L764.5,448C764.776,448 765,447.776 765,447.5C765,447.224 764.776,447 764.5,447L749.5,447ZM749.5,449C749.223,449 749,449.224 749,449.5C749,449.776 749.223,450 749.5,450L760.5,450C760.776,450 761,449.776 761,449.5C761,449.224 760.776,449 760.5,449L749.5,449Z" style="fill:url(#_Linear10);fill-rule:nonzero;"/>
        </g>
        <g transform="matrix(1,0,0,1,-421,-292)">
            <path d="M747.5,489C747.224,489 747,489.224 747,489.5C747,489.776 747.224,490 747.5,490L750.5,490C750.777,490 751,489.776 751,489.5C751,489.224 750.777,489 750.5,489L747.5,489ZM747.5,491C747.224,491 747,491.224 747,491.5C747,491.776 747.224,492 747.5,492L750.5,492C750.777,492 751,491.776 751,491.5C751,491.224 750.777,491 750.5,491L747.5,491ZM747.5,493C747.224,493 747,493.224 747,493.5C747,493.776 747.224,494 747.5,494L750.5,494C750.777,494 751,493.776 751,493.5C751,493.224 750.777,493 750.5,493L747.5,493ZM747.5,495C747.224,495 747,495.224 747,495.5C747,495.776 747.224,496 747.5,496L758.5,496C758.777,496 759,495.776 759,495.5C759,495.224 758.777,495 758.5,495L747.5,495ZM747.5,497C747.224,497 747,497.224 747,497.5C747,497.776 747.224,498 747.5,498L758.5,498C758.777,498 759,497.776 759,497.5C759,497.224 758.777,497 758.5,497L747.5,497ZM747.5,499C747.224,499 747,499.224 747,499.5C747,499.776 747.224,500 747.5,500L752.5,500C752.777,500 753,499.776 753,499.5C753,499.224 752.777,499 752.5,499L747.5,499Z" style="fill:url(#_Linear11);fill-rule:nonzero;"/>
        </g>
        <g transform="matrix(1,0,0,1,-421,-292)">
            <path d="M745.5,533C745.224,533 745,533.224 745,533.5C745,533.776 745.224,534 745.5,534L750.5,534C750.777,534 751,533.776 751,533.5C751,533.224 750.777,533 750.5,533L745.5,533ZM745.5,535C745.224,535 745,535.224 745,535.5C745,535.776 745.224,536 745.5,536L752.5,536C752.777,536 753,535.776 753,535.5C753,535.224 752.777,535 752.5,535L745.5,535ZM745.5,537C745.224,537 745,537.224 745,537.5C745,537.776 745.224,538 745.5,538L752.5,538C752.777,538 753,537.776 753,537.5C753,537.224 752.777,537 752.5,537L745.5,537ZM745.5,539C745.224,539 745,539.224 745,539.5C745,539.776 745.224,540 745.5,540L750.5,540C750.777,540 751,539.776 751,539.5C751,539.224 750.777,539 750.5,539L745.5,539Z" style="fill:url(#_Linear12);fill-rule:nonzero;"/>
        </g>
        <g transform="matrix(1,0,0,1,-421,-292)">
            <path d="M756.232,353.5C752.117,353.5 749.673,353.727 748.264,355.059C747.976,355.33 747.742,355.66 747.535,356.031C747.488,356.115 747.434,356.188 747.391,356.277C747.39,356.278 747.391,356.279 747.391,356.279C747.274,356.521 747.172,356.783 747.082,357.068C746.992,357.354 746.912,357.662 746.846,357.994C746.779,358.326 746.723,358.682 746.678,359.064C746.586,359.829 746.536,360.697 746.514,361.682C746.503,362.174 746.499,362.695 746.502,363.248L746.502,388.752C746.499,389.305 746.503,389.826 746.514,390.318C746.536,391.303 746.586,392.171 746.678,392.936C746.723,393.318 746.779,393.674 746.846,394.006C746.979,394.67 747.158,395.238 747.391,395.723C747.624,396.207 747.911,396.608 748.264,396.941C748.44,397.108 748.632,397.257 748.842,397.391C749.261,397.658 749.751,397.863 750.318,398.02C750.319,398.02 750.319,398.019 750.32,398.02C751.742,398.411 753.661,398.5 756.232,398.5L773.771,398.5C774.793,398.5 775.711,398.485 776.535,398.443C776.876,398.426 777.19,398.401 777.5,398.373C777.565,398.367 777.638,398.366 777.701,398.359C777.702,398.359 777.704,398.36 777.705,398.359C778.436,398.287 779.08,398.179 779.645,398.025C779.927,397.948 780.191,397.86 780.436,397.758C780.68,397.655 780.906,397.538 781.115,397.406C781.324,397.275 781.516,397.129 781.692,396.965C781.847,396.82 781.988,396.657 782.119,396.484C782.136,396.462 782.157,396.445 782.174,396.422C782.175,396.42 782.177,396.418 782.178,396.416C782.322,396.218 782.45,396.001 782.567,395.766C782.684,395.527 782.787,395.269 782.879,394.988C782.971,394.708 783.051,394.406 783.119,394.08C783.188,393.754 783.245,393.404 783.293,393.029C783.336,392.695 783.368,392.332 783.397,391.957C783.4,391.912 783.407,391.872 783.41,391.826C783.411,391.82 783.41,391.813 783.41,391.807C783.469,390.956 783.496,390.002 783.498,388.926L783.498,370.021C783.489,368.066 781.781,366.415 780.397,365.168L780.385,365.158L771.867,356.639C769.623,354.517 768.071,353.5 765,353.5L756.232,353.5Z" style="fill:none;fill-rule:nonzero;stroke:black;stroke-opacity:0.4;stroke-width:1px;"/>
        </g>
        <g transform="matrix(1,0,0,1,-421,-292)">
            <path d="M774.499,353.375C774.425,353.375 774.352,353.382 774.279,353.393C773.338,353.693 773.019,355.116 773.744,355.786L781.258,363.301C782.044,364.047 783.611,363.41 783.652,362.327L783.652,360.209C783.686,353.651 783.995,353.528 778.058,353.393L774.722,353.393C774.649,353.382 774.573,353.375 774.499,353.375Z" style="fill:none;fill-rule:nonzero;stroke:black;stroke-opacity:0.4;stroke-width:1px;"/>
        </g>
        <g transform="matrix(1,0,0,1,-421,-292)">
            <path d="M756.232,353.5C748.001,353.5 746.459,354.406 746.502,363.248L746.502,388.752C746.459,397.594 748.001,398.5 756.232,398.5L773.772,398.5C781.944,398.5 783.477,397.598 783.498,388.926L783.498,371.022C783.492,369.808 782.832,368.712 782,367.756L782,388.252C782,390.445 781.939,392.123 781.734,393.34C781.53,394.557 781.206,395.264 780.736,395.734C780.267,396.205 779.562,396.53 778.348,396.734C777.133,396.939 775.458,397 773.27,397L756.73,397C754.542,397 752.865,396.939 751.647,396.734C750.428,396.53 749.718,396.205 749.246,395.734C748.775,395.264 748.45,394.558 748.248,393.342C748.046,392.126 747.989,390.448 748,388.256L748,363.744C747.989,361.552 748.046,359.874 748.248,358.658C748.45,357.442 748.775,356.736 749.246,356.266C749.718,355.795 750.43,355.47 751.648,355.266C752.867,355.061 754.542,355 756.73,355L769,355C767.598,353.999 765.201,353.5 763.078,353.5L756.232,353.5Z" style="fill:url(#_Linear13);fill-rule:nonzero;"/>
        </g>
        <g transform="matrix(1,0,0,1,-421,-292)">
            <path d="M774.356,353.877L774.211,353.998C773.922,354.241 773.778,354.747 773.893,355.109C773.9,355.131 773.963,355.203 774.008,355.26C774.064,355.159 774.129,355.067 774.211,354.998L774.356,354.877L777.074,354.902C779.782,354.928 780.584,354.962 781.34,355.088C782.707,355.316 783.018,355.746 783.131,357.562C783.155,357.956 783.163,359.115 783.166,360.199C783.173,358.732 783.166,357.119 783.131,356.562C783.018,354.746 782.707,354.316 781.34,354.088C780.584,353.962 779.782,353.928 777.074,353.902L774.356,353.877Z" style="fill:white;fill-opacity:0.3;fill-rule:nonzero;"/>
        </g>
        <g transform="matrix(1,0,0,1,-421,-292)">
            <path d="M748.866,481C744.454,481 743.979,481.453 744.001,485.874L744.001,498.126C743.979,502.547 744.454,503 748.866,503L757.135,503C761.547,503 762.001,502.547 762.001,498.126L762.001,485.874C762.001,481.453 761.547,481 757.135,481L748.866,481Z" style="fill:none;fill-rule:nonzero;stroke:url(#_Linear14);stroke-width:2px;"/>
        </g>
        <g transform="matrix(1,0,0,1,-421,-292)">
            <path d="M748.866,480.5C747.754,480.5 746.879,480.526 746.159,480.646C745.439,480.767 744.848,480.995 744.417,481.426C743.985,481.856 743.757,482.446 743.637,483.166C743.517,483.887 743.495,484.763 743.501,485.877L743.501,498.125C743.496,499.238 743.517,500.114 743.637,500.834C743.757,501.554 743.985,502.144 744.417,502.574C744.848,503.005 745.439,503.233 746.159,503.354C746.879,503.474 747.754,503.5 748.866,503.5L757.135,503.5C758.247,503.5 759.122,503.474 759.84,503.354C760.559,503.233 761.147,503.005 761.577,502.574C762.007,502.143 762.233,501.556 762.354,500.836C762.475,500.116 762.5,499.239 762.5,498.125L762.5,485.875C762.5,484.761 762.475,483.884 762.354,483.164C762.233,482.444 762.007,481.857 761.577,481.426C761.147,480.995 760.559,480.767 759.84,480.646C759.122,480.526 758.247,480.5 757.135,480.5L748.866,480.5Z" style="fill:none;fill-rule:nonzero;stroke:black;stroke-opacity:0.3;stroke-width:1px;"/>
        </g>
        <g transform="matrix(1,0,0,1,-421,-292)">
            <path d="M746.096,528.5C745.386,528.5 744.823,528.515 744.344,528.596C743.866,528.676 743.448,528.833 743.137,529.143C742.827,529.452 742.67,529.869 742.59,530.348C742.511,530.827 742.497,531.391 742.501,532.104L742.501,539.898C742.498,540.61 742.511,541.174 742.59,541.652C742.67,542.131 742.827,542.548 743.137,542.857C743.448,543.167 743.866,543.324 744.344,543.404C744.823,543.485 745.386,543.5 746.096,543.5L751.905,543.5C752.615,543.5 753.177,543.485 753.655,543.404C754.132,543.324 754.551,543.167 754.86,542.857C755.169,542.548 755.325,542.131 755.405,541.652C755.485,541.174 755.501,540.61 755.501,539.898L755.501,532.102C755.501,531.39 755.485,530.826 755.405,530.348C755.325,529.869 755.169,529.452 754.86,529.143C754.551,528.833 754.132,528.676 753.655,528.596C753.177,528.515 752.615,528.5 751.905,528.5L746.096,528.5Z" style="fill:none;fill-rule:nonzero;stroke:black;stroke-opacity:0.3;stroke-width:1px;"/>
        </g>
        <g transform="matrix(1,0,0,1,-421,-292)">
            <path d="M746.097,529C743.289,529 742.987,529.288 743.001,532.102L743.001,539.898C742.987,542.712 743.289,543 746.097,543L751.904,543C754.712,543 755,542.712 755,539.898L755,532.102C755,529.288 754.712,529 751.904,529L746.097,529Z" style="fill:none;fill-rule:nonzero;stroke:url(#_Linear15);stroke-width:2px;"/>
        </g>
        <g transform="matrix(1,0,0,1,-421,-292)">
            <path d="M763.287,425.492C763.236,425.492 763.186,425.497 763.136,425.504C762.498,425.694 762.281,426.6 762.773,427.025L767.873,431.799C768.406,432.273 769.469,431.868 769.498,431.18L769.498,429.834C769.52,425.667 769.73,425.589 765.701,425.504L763.437,425.504C763.387,425.497 763.337,425.492 763.287,425.492ZM751.074,425.496C748.292,425.496 746.64,425.642 745.687,426.5C745.493,426.675 745.335,426.888 745.195,427.127C745.163,427.181 745.126,427.23 745.097,427.287C745.019,427.443 744.949,427.613 744.888,427.797C744.827,427.981 744.773,428.179 744.728,428.393C744.683,428.607 744.646,428.836 744.615,429.082C744.553,429.575 744.518,430.135 744.504,430.77C744.497,431.087 744.494,431.423 744.496,431.779L744.496,448.221C744.494,448.577 744.496,448.913 744.504,449.23C744.518,449.865 744.553,450.425 744.615,450.918C744.646,451.164 744.683,451.393 744.728,451.607C744.818,452.036 744.94,452.4 745.097,452.713C745.255,453.025 745.449,453.285 745.687,453.5C745.806,453.607 745.936,453.703 746.078,453.789C746.361,453.961 746.692,454.094 747.076,454.195C748.037,454.447 749.336,454.504 751.074,454.504L762.929,454.504C763.62,454.504 764.239,454.493 764.797,454.467C765.027,454.456 765.24,454.44 765.449,454.422C765.492,454.418 765.543,454.418 765.586,454.414L765.588,454.414C766.082,454.367 766.517,454.296 766.898,454.197C767.089,454.147 767.268,454.091 767.433,454.025C767.599,453.959 767.751,453.883 767.892,453.799C768.034,453.714 768.164,453.619 768.283,453.514C768.388,453.42 768.483,453.316 768.572,453.205C768.583,453.191 768.598,453.179 768.609,453.164C768.61,453.163 768.61,453.161 768.611,453.16C768.708,453.032 768.796,452.894 768.875,452.742C768.954,452.588 769.024,452.421 769.086,452.24C769.148,452.059 769.201,451.864 769.248,451.654C769.294,451.444 769.332,451.218 769.365,450.976C769.394,450.761 769.416,450.527 769.435,450.285C769.437,450.256 769.443,450.231 769.445,450.201C769.446,450.197 769.445,450.193 769.445,450.189C769.485,449.641 769.502,449.026 769.504,448.332L769.504,437.146C769.498,435.886 768.344,434.821 767.408,434.017L767.4,434.011L760.67,427.519C759.153,426.151 758.104,425.496 756.028,425.496L751.074,425.496Z" style="fill:none;fill-rule:nonzero;stroke:black;stroke-opacity:0.4;stroke-width:0.99px;"/>
        </g>
        <g transform="matrix(1,0,0,1,-421,-292)">
            <path d="M764.168,426.075C763.177,426.11 763.141,426.121 763.141,426.411C763.141,426.513 763.292,426.721 763.6,427.057L766.479,427.057C766.638,427.057 766.788,427.088 766.932,427.133C767.255,427.153 767.577,427.182 767.897,427.237C767.923,427.558 767.927,427.885 767.934,428.212C767.96,428.323 767.979,428.437 767.979,428.557L767.979,431.174C768.234,431.387 768.431,431.543 768.469,431.544C768.92,431.556 768.975,431.255 768.932,428.995C768.878,426.19 768.975,426.317 766.775,426.155C765.906,426.091 764.733,426.055 764.168,426.075ZM753.328,426.112C748.161,426.114 747.436,426.175 746.426,426.688C745.822,426.995 745.387,427.753 745.18,428.86C744.936,430.16 744.941,450.285 745.186,451.36C745.597,453.168 746.246,453.691 748.371,453.924C748.863,453.978 753.006,454.011 757.578,453.997C765.019,453.974 765.969,453.949 766.641,453.757C767.848,453.41 768.317,452.955 768.666,451.794C768.845,451.2 768.878,450.109 768.92,443.51C768.968,435.954 768.967,436.906 768.701,436.358C768.628,436.206 768.363,435.895 767.979,435.483L767.979,439.557C767.979,439.681 767.958,439.799 767.93,439.914C767.955,443.746 767.887,446.59 767.807,450.387C767.901,451.376 767.543,452.597 766.434,452.817C762.255,453.03 758.036,452.978 753.828,453.007C751.735,452.935 749.61,453.14 747.537,452.805C746.329,452.715 746.166,451.373 746.071,450.428C745.895,443.85 745.94,437.146 746.03,430.54C746.115,429.448 745.992,427.882 747.211,427.376C749.577,426.953 751.996,427.154 754.387,427.063C754.998,427.098 754.677,427.078 755.329,427.075C755.388,427.068 755.446,427.057 755.507,427.057L759.099,427.057C758.672,426.748 758.309,426.529 757.931,426.374C757.321,426.123 758.056,426.11 753.328,426.112Z" style="fill:url(#_Linear16);fill-rule:nonzero;"/>
        </g>
        <g transform="matrix(1,0,0,1,-421,-292)">
            <path d="M523.927,338C488.63,338 485.005,341.626 485.005,376.994L485.005,521.006C485.005,556.374 488.63,560 523.927,560L622.083,560C657.38,560 661.178,556.374 661.005,521.006L661.005,420.24C660.961,410.507 652.826,402.285 646.243,396.078L646.194,396.027L605.671,353.619C594.994,343.058 587.613,338 573.005,338L523.927,338ZM620.909,338.09C618.74,340.866 618.524,345.493 621.118,348.002L649.614,378.389C653.338,382.084 660.731,378.958 660.995,373.611C660.88,344.027 656.853,338.735 629.636,338.09L620.909,338.09Z" style="fill-rule:nonzero;"/>
        </g>
        <g transform="matrix(1,0,0,1,-421,-292)">
            <path d="M523.927,337C488.63,337 485.005,340.626 485.005,375.994L485.005,521.006C485.005,556.374 488.63,560 523.927,560L622.083,560C657.38,560 661.178,556.374 661.005,521.006L661.005,419.24C660.961,409.507 652.826,401.285 646.243,395.078L646.194,395.027L605.671,352.619C594.994,342.058 587.613,337 573.005,337L523.927,337ZM621.896,337.09C618.856,339.592 618.175,345.156 621.118,348.002L649.614,378.389C653.343,382.089 660.754,378.95 660.999,373.59C660.967,343.141 657.15,337.743 629.636,337.09L621.896,337.09Z" style="fill-rule:nonzero;"/>
        </g>
        <g transform="matrix(1,0,0,1,-421,-292)">
            <path d="M523.927,336C521.751,336 519.701,336.015 517.759,336.049C488.277,336.577 485.091,341.836 485.091,374.994L485.091,521.006C485.091,554.164 488.277,559.423 517.759,559.951C519.701,559.985 521.751,560 523.927,560L622.083,560C624.289,560 626.372,559.986 628.339,559.951C657.839,559.423 661.167,554.163 661.005,521.006L661.005,418.24C660.961,408.507 652.826,400.285 646.243,394.078L646.194,394.027L605.671,351.619C594.994,341.058 587.613,336 573.005,336L523.927,336ZM623.659,336.09C619.185,337.582 617.669,344.666 621.118,348.002L649.614,378.389C653.355,382.102 660.808,378.93 661.005,373.537L661.005,366.346C660.367,341.391 655.239,336.695 629.722,336.09L623.659,336.09Z" style="fill:none;fill-rule:nonzero;stroke:black;stroke-opacity:0.1;stroke-width:4px;"/>
        </g>
        <g transform="matrix(1,0,0,1,-421,-292)">
            <path d="M523.927,336C488.63,336 485.005,339.626 485.005,374.994L485.005,521.006C485.005,556.374 488.63,560 523.927,560L622.083,560C657.38,560 661.178,556.374 661.005,521.006L661.005,418.24C660.961,408.507 652.826,400.285 646.243,394.078L646.194,394.027L605.671,351.619C594.994,341.058 587.613,336 573.005,336L523.927,336Z" style="fill:url(#_Linear17);fill-rule:nonzero;"/>
        </g>
        <g transform="matrix(1,0,0,1,-421,-292)">
            <path d="M523.927,336C488.63,336 485.005,339.626 485.005,374.994L485.005,521.006C485.005,556.374 488.63,560 523.927,560L622.083,560C637.525,560 646.939,559.305 652.628,555.562C653.034,555.295 653.423,555.014 653.792,554.715C656.007,552.919 657.568,550.532 658.657,547.369C660.655,541.571 661.064,533.164 661.005,521.006L661.005,418.24C660.961,408.507 652.826,400.285 646.243,394.078L646.194,394.027L605.671,351.619C594.994,341.058 587.613,336 573.005,336L523.927,336ZM623.659,336.09C619.185,337.582 617.669,344.666 621.118,348.002L649.614,378.389C653.348,382.094 660.776,378.942 661.001,373.568C661.049,342.239 657.448,336.75 629.636,336.09L623.659,336.09ZM540.571,347.945C551.945,347.949 563.202,347.986 574.47,348.191C581.708,347.806 588.336,351.645 593.325,356.6C609.431,372.562 624.733,389.314 640.603,405.51C644.019,409.386 648.866,413.273 648.776,418.91C649.138,448.767 648.931,478.629 648.882,508.488C648.617,518.738 649.278,529.184 647.974,539.453C647.427,541.811 647.441,545.489 644.411,546.104C636.822,547.953 628.9,547.574 621.144,547.801C585.598,547.979 549.715,548.1 514.167,547.664C509.462,547.249 504.287,547.67 500.048,545.279C497.221,541.461 497.939,536.276 497.603,531.795C497.02,483.15 496.9,434.489 497.019,385.822C497.302,375.106 496.525,364.054 498.587,353.385C498.895,350.111 502.443,349.377 505.083,348.975C516.871,347.847 528.864,348.107 540.571,347.945Z" style="fill:url(#_Linear18);fill-rule:nonzero;"/>
        </g>
        <g transform="matrix(1,0,0,1,-421,-292)">
            <path d="M485.005,448L485.005,521.007C484.832,556.375 488.631,560 523.927,560L622.084,560C657.38,560 660.087,556.363 661.005,521.007L661.005,448L485.005,448Z" style="fill:white;fill-opacity:0.1;fill-rule:nonzero;"/>
        </g>
        <g transform="matrix(1,0,0,1,-421,-292)">
            <path d="M485.005,519.006L485.005,521.006C484.832,556.374 488.631,560 523.927,560L622.084,560C657.38,560 660.087,556.362 661.005,521.006L661.005,519.006C660.087,554.362 657.38,558 622.084,558L523.927,558C488.631,558 484.832,554.374 485.005,519.006Z" style="fill-opacity:0.2;fill-rule:nonzero;"/>
        </g>
        <g transform="matrix(1,0,0,1,-421,-292)">
            <path d="M601.005,560L661.005,500L661.005,522.484C660.953,556.48 657.203,560 622.831,560L601.005,560Z" style="fill:white;fill-opacity:0.08;fill-rule:nonzero;"/>
        </g>
        <g transform="matrix(1,0,0,1,-421,-292)">
            <path d="M518.005,416C515.244,416 513.005,418.239 513.005,421C513.005,423.761 515.244,426 518.005,426L548.005,426C550.766,426 553.005,423.761 553.005,421C553.005,418.239 550.766,416 548.005,416L518.005,416ZM574.005,416C567.93,416 563.005,420.925 563.005,427L563.005,455C563.005,461.075 567.93,466 574.005,466L622.005,466C628.08,466 633.005,461.075 633.005,455L633.005,427C633.005,420.925 628.08,416 622.005,416L574.005,416ZM518.005,436C515.244,436 513.005,438.239 513.005,441C513.005,443.761 515.244,446 518.005,446L548.005,446C550.766,446 553.005,443.761 553.005,441C553.005,438.239 550.766,436 548.005,436L518.005,436ZM518.005,456C515.244,456 513.005,458.239 513.005,461C513.005,463.761 515.244,466 518.005,466L548.005,466C550.766,466 553.005,463.761 553.005,461C553.005,458.239 550.766,456 548.005,456L518.005,456ZM518.005,476C515.244,476 513.005,478.239 513.005,481C513.005,483.761 515.244,486 518.005,486L628.005,486C630.766,486 633.005,483.761 633.005,481C633.005,478.239 630.766,476 628.005,476L518.005,476ZM518.005,496C515.244,496 513.005,498.239 513.005,501C513.005,503.761 515.244,506 518.005,506L628.005,506C630.766,506 633.005,503.761 633.005,501C633.005,498.239 630.766,496 628.005,496L518.005,496ZM518.005,516C515.244,516 513.005,518.239 513.005,521C513.005,523.761 515.244,526 518.005,526L598.005,526C600.766,526 603.005,523.761 603.005,521C603.005,518.239 600.766,516 598.005,516L518.005,516Z" style="fill:url(#_Linear19);fill-rule:nonzero;"/>
        </g>
        <g transform="matrix(1,0,0,1,-421,-292)">
            <path d="M623,421L573,421C570.239,421 568,423.239 568,426L568,456C568,458.762 570.239,461 573,461L623,461C625.761,461 628,458.762 628,456L628,426C628,423.239 625.761,421 623,421Z" style="fill:url(#_Linear20);fill-rule:nonzero;"/>
        </g>
        <g transform="matrix(1,0,0,1,-421,-292)">
            <path d="M628.003,456.137L628.003,456L618.66,445.37C615.907,442.238 611.043,442.193 608.232,445.273L603.805,450.124C603.387,450.582 602.657,450.553 602.277,450.064L591.603,436.341C588.631,432.52 582.771,432.796 580.172,436.88L568.005,456C568.005,458.761 570.244,461 573.005,461L623.005,461C625.721,461 627.931,458.835 628.003,456.137Z" style="fill:rgb(4,116,180);"/>
        </g>
        <g transform="matrix(1,0,0,1,-421,-292)">
            <path d="M485.011,519.006L485.011,521.006C485.009,521.448 485.016,521.827 485.015,522.26C485.016,522.719 485.022,523.143 485.025,523.592C485.013,522.104 485.003,520.624 485.011,519.006ZM661.005,519.758C660.95,554.39 657.121,558 622.089,558L523.933,558C490.999,558 485.492,554.82 485.042,525.666C485.347,550.54 488.532,557.631 507.218,559.432C507.221,559.432 507.224,559.431 507.228,559.432C507.989,559.505 508.776,559.57 509.589,559.627L509.595,559.627C510.41,559.684 511.25,559.733 512.118,559.775L512.12,559.775C512.7,559.803 513.368,559.812 513.972,559.834C515.18,559.878 516.363,559.928 517.673,559.951L517.677,559.951C519.641,559.986 521.722,560 523.927,560L622.083,560C625.76,560 629.02,559.944 632.044,559.834C634.465,559.745 636.76,559.628 638.796,559.432C658.292,557.554 660.92,549.932 661.001,522.348C661.001,521.886 661.007,521.479 661.005,521.006L661.005,519.758Z" style="fill-opacity:0.2;fill-rule:nonzero;"/>
        </g>
        <g transform="matrix(1,0,0,1,-421,-292)">
            <path d="M523.927,336C521.419,336 519.115,336.026 516.915,336.072C515.346,336.106 513.829,336.149 512.409,336.215C511.517,336.256 510.648,336.303 509.812,336.359C509.738,336.364 509.656,336.368 509.583,336.373C509.543,336.376 509.509,336.38 509.47,336.383C508.354,336.462 507.3,336.562 506.282,336.674C506.001,336.705 505.717,336.734 505.442,336.768C505.167,336.801 504.895,336.837 504.626,336.873C504.24,336.925 503.863,336.981 503.491,337.039C503.246,337.078 502.998,337.115 502.759,337.156C502.372,337.223 502.002,337.299 501.632,337.373C501.124,337.475 500.631,337.584 500.153,337.701C499.962,337.748 499.767,337.793 499.581,337.842C499.256,337.928 498.943,338.02 498.632,338.113C498.458,338.166 498.284,338.219 498.114,338.273C497.783,338.381 497.457,338.492 497.142,338.609C497.061,338.639 496.983,338.671 496.903,338.701C495.343,339.302 493.98,340.026 492.796,340.906C492.795,340.907 492.794,340.909 492.792,340.91C487.399,344.924 485.655,352.132 485.177,364.83C485.154,365.436 485.136,366.062 485.118,366.693C485.088,367.798 485.06,368.903 485.044,370.088C485.523,341.174 491.09,338 523.927,338L586.456,338C585.596,337.705 584.71,337.447 583.802,337.217C583.645,337.177 583.49,337.135 583.331,337.098C582.943,337.005 582.55,336.921 582.151,336.84C581.868,336.783 581.579,336.731 581.29,336.68C580.958,336.62 580.628,336.557 580.288,336.506C579.673,336.414 579.045,336.334 578.401,336.268C578.146,336.241 577.882,336.222 577.622,336.199C577.129,336.157 576.627,336.12 576.116,336.092C575.855,336.077 575.595,336.062 575.329,336.051C574.572,336.02 573.804,336 573.005,336L523.927,336Z" style="fill:white;fill-opacity:0.3;fill-rule:nonzero;"/>
        </g>
        <g transform="matrix(1,0,0,1,-421,-292)">
            <path d="M623.659,336.09C622.588,336.447 621.692,337.13 620.987,338L622.083,338C656.236,338 660.724,341.485 660.98,373.746C660.983,373.708 660.991,373.671 660.993,373.633C660.94,355.841 659.826,346.321 653.798,341.348C653.737,341.298 653.675,341.248 653.612,341.199C653.343,340.984 653.062,340.78 652.773,340.582C652.621,340.479 652.468,340.379 652.312,340.281C652.108,340.153 651.898,340.03 651.685,339.908C651.447,339.774 651.206,339.639 650.956,339.514C650.814,339.442 650.667,339.374 650.521,339.305C650.189,339.149 649.855,338.997 649.503,338.855C649.456,338.836 649.406,338.818 649.359,338.799C644.761,336.983 638.407,336.298 629.652,336.09L623.659,336.09Z" style="fill:white;fill-opacity:0.4;fill-rule:nonzero;"/>
        </g>
        <g transform="matrix(1,0,0,1,-421,-292)">
            <path d="M485.017,373.541C485.014,374.032 485.005,374.481 485.005,374.994L485.005,376.994C484.999,375.776 485.011,374.68 485.017,373.541Z" style="fill:white;fill-opacity:0.3;fill-rule:nonzero;"/>
        </g>
        <g transform="matrix(1,0,0,1,-421,-292)">
            <path d="M765.2,370C763.985,370 763,370.985 763,372.2L763,377.8C763,379.015 763.985,380 765.2,380L774.8,380C776.015,380 777,379.015 777,377.8L777,372.2C777,370.985 776.015,370 774.8,370L765.2,370Z" style="fill:url(#_Linear21);fill-rule:nonzero;"/>
        </g>
        <g transform="matrix(1,0,0,1,-421,-292)">
            <path d="M774.999,371L764.999,371C764.447,371 763.999,371.448 763.999,372L763.999,378C763.999,378.552 764.447,379 764.999,379L774.999,379C775.551,379 775.999,378.552 775.999,378L775.999,372C775.999,371.448 775.551,371 774.999,371Z" style="fill:url(#_Linear22);fill-rule:nonzero;"/>
        </g>
        <g transform="matrix(1,0,0,1,-421,-292)">
            <path d="M776,378.027L776,378L774.131,375.874C773.58,375.248 772.608,375.238 772.045,375.855L771.16,376.825C771.076,376.916 770.93,376.911 770.854,376.813L768.72,374.068C768.125,373.304 766.953,373.359 766.433,374.176L764,378C764,378.547 764.439,378.991 764.983,379L775.017,379C775.552,378.991 775.985,378.562 776,378.027Z" style="fill:rgb(4,116,180);"/>
        </g>
        <g transform="matrix(1,0,0,1,-421,-292)">
            <path d="M757.54,437C756.689,437 756,437.689 756,438.54L756,442.46C756,443.311 756.689,444 757.54,444L763.46,444C764.311,444 765,443.311 765,442.46L765,438.54C765,437.689 764.311,437 763.46,437L757.54,437Z" style="fill:url(#_Linear23);fill-rule:nonzero;"/>
        </g>
        <g transform="matrix(1,0,0,1,-421,-292)">
            <path d="M763.3,438L757.7,438C757.313,438 757,438.313 757,438.7L757,442.3C757,442.687 757.313,443 757.7,443L763.3,443C763.687,443 764,442.687 764,442.3L764,438.7C764,438.313 763.687,438 763.3,438Z" style="fill:url(#_Linear24);fill-rule:nonzero;"/>
        </g>
        <g transform="matrix(1,0,0,1,-421,-292)">
            <path d="M764.357,442.618L764.357,442.6L763.24,441.217C762.853,440.737 762.123,440.73 761.727,441.203L761.259,441.761C761.2,441.832 761.091,441.827 761.038,441.753L759.773,439.982C759.36,439.403 758.488,439.443 758.129,440.057L756.643,442.6C756.643,442.986 756.956,443.3 757.343,443.3L763.657,443.3C764.038,443.3 764.347,442.996 764.357,442.618Z" style="fill:rgb(4,116,180);"/>
        </g>
        <g transform="matrix(1,0,0,1,-421,-292)">
            <path d="M753.198,489C752.536,489 752,489.536 752,490.198L752,492.802C752,493.464 752.536,494 753.198,494L757.802,494C758.464,494 759,493.464 759,492.802L759,490.198C759,489.536 758.464,489 757.802,489L753.198,489Z" style="fill:url(#_Linear25);fill-rule:nonzero;"/>
        </g>
        <g transform="matrix(1,0,0,1,-421,-292)">
            <path d="M757.456,490L753.544,490C753.244,490 753,490.244 753,490.544L753,492.456C753,492.756 753.244,493 753.544,493L757.456,493C757.756,493 758,492.756 758,492.456L758,490.544C758,490.244 757.756,490 757.456,490Z" style="fill:url(#_Linear26);fill-rule:nonzero;"/>
        </g>
        <g transform="matrix(1,0,0,1,-421,-292)">
            <path d="M757.993,492.829L757.369,492.067C757.068,491.699 756.506,491.694 756.198,492.056L756.005,492.284C755.959,492.338 755.875,492.334 755.834,492.277L755.136,491.315C754.815,490.871 754.143,490.902 753.864,491.374L753.003,492.826C753.044,493.086 753.269,493.284 753.541,493.284L757.455,493.284C757.726,493.284 757.95,493.087 757.993,492.829Z" style="fill:rgb(4,116,180);"/>
        </g>
    </g>
    <defs>
        <linearGradient id="_Linear1" x1="0" y1="0" x2="1" y2="0" gradientUnits="userSpaceOnUse" gradientTransform="matrix(7.336,32.151,-32.151,7.336,752,424)"><stop offset="0" style="stop-color:rgb(242,242,242);stop-opacity:1"/><stop offset="1" style="stop-color:white;stop-opacity:1"/></linearGradient>
        <linearGradient id="_Linear2" x1="0" y1="0" x2="1" y2="0" gradientUnits="userSpaceOnUse" gradientTransform="matrix(-11.032,-29.263,29.263,-11.032,762.844,454.5)"><stop offset="0" style="stop-color:rgb(37,157,210);stop-opacity:1"/><stop offset="1" style="stop-color:rgb(6,93,141);stop-opacity:1"/></linearGradient>
        <linearGradient id="_Linear3" x1="0" y1="0" x2="1" y2="0" gradientUnits="userSpaceOnUse" gradientTransform="matrix(16.539,44,-44,16.539,756.731,354)"><stop offset="0" style="stop-color:rgb(242,242,242);stop-opacity:1"/><stop offset="1" style="stop-color:white;stop-opacity:1"/></linearGradient>
        <linearGradient id="_Linear4" x1="0" y1="0" x2="1" y2="0" gradientUnits="userSpaceOnUse" gradientTransform="matrix(-17.758,-45,45,-17.758,773.772,398.5)"><stop offset="0" style="stop-color:rgb(37,157,210);stop-opacity:1"/><stop offset="1" style="stop-color:rgb(6,93,141);stop-opacity:1"/></linearGradient>
        <linearGradient id="_Linear5" x1="0" y1="0" x2="1" y2="0" gradientUnits="userSpaceOnUse" gradientTransform="matrix(7.637,15.272,-15.272,7.637,745.454,528.364)"><stop offset="0" style="stop-color:rgb(3,105,163);stop-opacity:1"/><stop offset="1" style="stop-color:rgb(4,127,198);stop-opacity:1"/></linearGradient>
        <linearGradient id="_Linear6" x1="0" y1="0" x2="1" y2="0" gradientUnits="userSpaceOnUse" gradientTransform="matrix(12.001,24,-24,12.001,747,480)"><stop offset="0" style="stop-color:rgb(3,105,163);stop-opacity:1"/><stop offset="1" style="stop-color:rgb(4,127,198);stop-opacity:1"/></linearGradient>
        <linearGradient id="_Linear7" x1="0" y1="0" x2="1" y2="0" gradientUnits="userSpaceOnUse" gradientTransform="matrix(-8,16,-16,-8,753.001,528)"><stop offset="0" style="stop-color:rgb(242,242,242);stop-opacity:1"/><stop offset="1" style="stop-color:white;stop-opacity:1"/></linearGradient>
        <linearGradient id="_Linear8" x1="0" y1="0" x2="1" y2="0" gradientUnits="userSpaceOnUse" gradientTransform="matrix(8,24,-24,8,749,480)"><stop offset="0" style="stop-color:rgb(242,242,242);stop-opacity:1"/><stop offset="1" style="stop-color:white;stop-opacity:1"/></linearGradient>
        <linearGradient id="_Linear9" x1="0" y1="0" x2="1" y2="0" gradientUnits="userSpaceOnUse" gradientTransform="matrix(2.44929e-15,40,-40,2.44929e-15,765,358)"><stop offset="0" style="stop-color:rgb(3,105,163);stop-opacity:1"/><stop offset="1" style="stop-color:rgb(4,127,198);stop-opacity:1"/></linearGradient>
        <linearGradient id="_Linear10" x1="0" y1="0" x2="1" y2="0" gradientUnits="userSpaceOnUse" gradientTransform="matrix(1.95129e-15,31.867,-31.867,1.95129e-15,751.329,424.886)"><stop offset="0" style="stop-color:rgb(3,105,163);stop-opacity:1"/><stop offset="1" style="stop-color:rgb(4,127,198);stop-opacity:1"/></linearGradient>
        <linearGradient id="_Linear11" x1="0" y1="0" x2="1" y2="0" gradientUnits="userSpaceOnUse" gradientTransform="matrix(1.22465e-15,20,-20,1.22465e-15,753,484)"><stop offset="0" style="stop-color:rgb(3,105,163);stop-opacity:1"/><stop offset="1" style="stop-color:rgb(4,127,198);stop-opacity:1"/></linearGradient>
        <linearGradient id="_Linear12" x1="0" y1="0" x2="1" y2="0" gradientUnits="userSpaceOnUse" gradientTransform="matrix(7.34788e-16,12,-12,7.34788e-16,749,530)"><stop offset="0" style="stop-color:rgb(3,105,163);stop-opacity:1"/><stop offset="1" style="stop-color:rgb(4,127,198);stop-opacity:1"/></linearGradient>
        <linearGradient id="_Linear13" x1="0" y1="0" x2="1" y2="0" gradientUnits="userSpaceOnUse" gradientTransform="matrix(2.69422e-15,44,-44,2.69422e-15,765,354)"><stop offset="0" style="stop-color:white;stop-opacity:0.3"/><stop offset="0.13" style="stop-color:white;stop-opacity:0.03"/><stop offset="0.93" style="stop-color:white;stop-opacity:0.03"/><stop offset="1" style="stop-color:white;stop-opacity:0.15"/></linearGradient>
        <linearGradient id="_Linear14" x1="0" y1="0" x2="1" y2="0" gradientUnits="userSpaceOnUse" gradientTransform="matrix(1.34711e-15,22,-22,1.34711e-15,753.001,481)"><stop offset="0" style="stop-color:white;stop-opacity:0.3"/><stop offset="0.13" style="stop-color:white;stop-opacity:0.03"/><stop offset="0.93" style="stop-color:white;stop-opacity:0.03"/><stop offset="1" style="stop-color:white;stop-opacity:0.15"/></linearGradient>
        <linearGradient id="_Linear15" x1="0" y1="0" x2="1" y2="0" gradientUnits="userSpaceOnUse" gradientTransform="matrix(8.57253e-16,14,-14,8.57253e-16,749,529)"><stop offset="0" style="stop-color:white;stop-opacity:0.3"/><stop offset="0.13" style="stop-color:white;stop-opacity:0.03"/><stop offset="0.93" style="stop-color:white;stop-opacity:0.03"/><stop offset="1" style="stop-color:white;stop-opacity:0.15"/></linearGradient>
        <linearGradient id="_Linear16" x1="0" y1="0" x2="1" y2="0" gradientUnits="userSpaceOnUse" gradientTransform="matrix(1.71451e-15,28,-28,1.71451e-15,756,426)"><stop offset="0" style="stop-color:white;stop-opacity:0.3"/><stop offset="0.13" style="stop-color:white;stop-opacity:0.03"/><stop offset="0.93" style="stop-color:white;stop-opacity:0.03"/><stop offset="1" style="stop-color:white;stop-opacity:0.15"/></linearGradient>
        <linearGradient id="_Linear17" x1="0" y1="0" x2="1" y2="0" gradientUnits="userSpaceOnUse" gradientTransform="matrix(98.167,221.998,-221.998,98.167,523.927,336)"><stop offset="0" style="stop-color:rgb(242,242,242);stop-opacity:1"/><stop offset="1" style="stop-color:white;stop-opacity:1"/></linearGradient>
        <linearGradient id="_Linear18" x1="0" y1="0" x2="1" y2="0" gradientUnits="userSpaceOnUse" gradientTransform="matrix(-98.156,-224,224,-98.156,622.083,562)"><stop offset="0" style="stop-color:rgb(37,157,210);stop-opacity:1"/><stop offset="1" style="stop-color:rgb(6,93,141);stop-opacity:1"/></linearGradient>
        <linearGradient id="_Linear19" x1="0" y1="0" x2="1" y2="0" gradientUnits="userSpaceOnUse" gradientTransform="matrix(1.22465e-14,200,-200,1.22465e-14,573.005,356)"><stop offset="0" style="stop-color:rgb(3,105,163);stop-opacity:1"/><stop offset="1" style="stop-color:rgb(4,127,198);stop-opacity:1"/></linearGradient>
        <linearGradient id="_Linear20" x1="0" y1="0" x2="1" y2="0" gradientUnits="userSpaceOnUse" gradientTransform="matrix(1.22471e-15,20.001,-20.001,1.22471e-15,628,420.991)"><stop offset="0" style="stop-color:rgb(170,220,247);stop-opacity:1"/><stop offset="1" style="stop-color:rgb(170,220,247);stop-opacity:1"/></linearGradient>
        <linearGradient id="_Linear21" x1="0" y1="0" x2="1" y2="0" gradientUnits="userSpaceOnUse" gradientTransform="matrix(2.44929e-15,40,-40,2.44929e-15,765,358)"><stop offset="0" style="stop-color:rgb(3,105,163);stop-opacity:1"/><stop offset="1" style="stop-color:rgb(4,127,198);stop-opacity:1"/></linearGradient>
        <linearGradient id="_Linear22" x1="0" y1="0" x2="1" y2="0" gradientUnits="userSpaceOnUse" gradientTransform="matrix(2.44929e-16,4,-4,2.44929e-16,775.999,370.998)"><stop offset="0" style="stop-color:rgb(170,220,247);stop-opacity:1"/><stop offset="1" style="stop-color:rgb(170,220,247);stop-opacity:1"/></linearGradient>
        <linearGradient id="_Linear23" x1="0" y1="0" x2="1" y2="0" gradientUnits="userSpaceOnUse" gradientTransform="matrix(1.71451e-15,28,-28,1.71451e-15,757.286,428.6)"><stop offset="0" style="stop-color:rgb(3,105,163);stop-opacity:1"/><stop offset="1" style="stop-color:rgb(4,127,198);stop-opacity:1"/></linearGradient>
        <linearGradient id="_Linear24" x1="0" y1="0" x2="1" y2="0" gradientUnits="userSpaceOnUse" gradientTransform="matrix(1.53081e-16,2.5,-2.5,1.53081e-16,764,437.999)"><stop offset="0" style="stop-color:rgb(170,220,247);stop-opacity:1"/><stop offset="1" style="stop-color:rgb(170,220,247);stop-opacity:1"/></linearGradient>
        <linearGradient id="_Linear25" x1="0" y1="0" x2="1" y2="0" gradientUnits="userSpaceOnUse" gradientTransform="matrix(1.22465e-15,20,-20,1.22465e-15,753,483)"><stop offset="0" style="stop-color:rgb(3,105,163);stop-opacity:1"/><stop offset="1" style="stop-color:rgb(4,127,198);stop-opacity:1"/></linearGradient>
        <linearGradient id="_Linear26" x1="0" y1="0" x2="1" y2="0" gradientUnits="userSpaceOnUse" gradientTransform="matrix(9.18485e-17,1.5,-1.5,9.18485e-17,758,489.999)"><stop offset="0" style="stop-color:rgb(170,220,247);stop-opacity:1"/><stop offset="1" style="stop-color:rgb(170,220,247);stop-opacity:1"/></linearGradient>
    </defs>
</svg>
