<?xml version="1.0" encoding="UTF-8" standalone="no"?>
<!DOCTYPE svg PUBLIC "-//W3C//DTD SVG 1.1//EN" "http://www.w3.org/Graphics/SVG/1.1/DTD/svg11.dtd">
<svg width="100%" height="100%" viewBox="0 0 400 300" version="1.1" xmlns="http://www.w3.org/2000/svg" xmlns:xlink="http://www.w3.org/1999/xlink" xml:space="preserve" xmlns:serif="http://www.serif.com/" style="fill-rule:evenodd;clip-rule:evenodd;">
    <g id="Icon">
        <g transform="matrix(1,0,0,1,-414.005,6)">
            <path d="M756.288,127.996C756.205,127.996 756.132,128.003 756.071,128.011L756.034,128.017L755.997,128.029C754.976,128.334 754.642,129.697 755.45,130.398L755.45,130.4L760.54,135.166L760.546,135.17C760.987,135.562 761.582,135.568 762.054,135.389C762.526,135.209 762.971,134.794 762.995,134.199L762.995,132.834C763.001,131.797 763.02,131.012 762.977,130.379C762.935,129.745 762.834,129.23 762.505,128.826C762.176,128.421 761.676,128.233 761.075,128.14C760.474,128.047 759.723,128.029 758.714,128.008L756.438,128.008C756.39,128.003 756.343,127.996 756.288,127.996ZM749.03,127.998L744.075,128C741.276,128 739.5,128.102 738.356,129.133C738.114,129.352 737.925,129.608 737.768,129.877C737.757,129.897 737.712,129.955 737.657,130.064C737.566,130.245 737.486,130.437 737.419,130.641C737.352,130.842 737.294,131.059 737.245,131.291C737.196,131.521 737.158,131.762 737.126,132.019L737.126,132.021C737.061,132.537 737.026,133.112 737.01,133.758C737.003,134.08 736.999,134.42 737.001,134.781L737.001,151.221C736.999,151.58 737.002,151.919 737.01,152.242C737.026,152.888 737.061,153.464 737.126,153.98C737.158,154.238 737.196,154.479 737.245,154.709C737.342,155.169 737.476,155.576 737.657,155.935C737.838,156.296 738.07,156.611 738.356,156.869C738.5,156.998 738.657,157.112 738.823,157.213C739.156,157.415 739.532,157.563 739.952,157.674L739.952,157.676C741.001,157.951 742.326,158 744.075,158L755.93,158C756.626,158 757.253,157.99 757.821,157.963L757.823,157.963C758.062,157.951 758.281,157.934 758.493,157.916L758.497,157.916C758.503,157.915 758.549,157.912 758.587,157.91L758.6,157.91C758.616,157.909 758.615,157.91 758.634,157.908L758.636,157.908C759.15,157.859 759.61,157.785 760.024,157.678C760.23,157.624 760.43,157.562 760.62,157.486C760.809,157.411 760.985,157.323 761.149,157.224C761.315,157.125 761.471,157.012 761.614,156.885C761.743,156.77 761.855,156.645 761.956,156.519L761.983,156.492L761.999,156.472L762.005,156.464L762.007,156.46L762.015,156.452L762.023,156.439C762.023,156.439 762.031,156.423 762.035,156.415C762.038,156.411 762.044,156.407 762.046,156.403C762.046,156.404 762.039,156.406 762.038,156.407C762.048,156.389 762.056,156.377 762.064,156.361C762.058,156.373 762.054,156.384 762.052,156.388C762.147,156.256 762.24,156.119 762.318,155.968C762.41,155.789 762.49,155.599 762.558,155.4C762.627,155.199 762.684,154.987 762.734,154.761C762.784,154.534 762.825,154.295 762.859,154.042C762.89,153.813 762.913,153.57 762.933,153.323L762.935,153.321L762.935,153.317C762.934,153.336 762.94,153.308 762.945,153.235L762.945,153.233C762.947,153.203 762.949,153.171 762.945,153.227L762.945,153.223C762.986,152.659 763.002,152.034 763.004,151.333L763.004,140.141C762.997,138.58 761.683,137.451 760.736,136.637L760.726,136.629L760.724,136.627L754.013,130.153L754.005,130.147C752.462,128.756 751.211,127.996 749.031,127.996L749.03,127.998Z" style="fill-opacity:0.1;fill-rule:nonzero;"/>
        </g>
        <g transform="matrix(1,0,0,1,-414.005,6)">
            <path d="M744.094,128.609C742.556,128.724 740.839,128.478 739.436,129.215C738.097,130.556 738.773,132.585 738.6,134.277C738.632,140.559 738.389,146.851 738.697,153.127C738.755,154.365 739.745,155.298 740.99,155.293C745.532,155.685 750.108,155.432 754.662,155.455C756.54,155.304 758.46,155.686 760.229,154.932C761.387,153.918 761.17,152.203 761.357,150.814C761.472,146.859 761.519,142.885 761.256,138.937C760.897,137.611 759.481,136.913 758.652,135.892C756.154,133.609 753.897,131.004 751.106,129.072C749.663,128.258 747.891,128.815 746.301,128.617C745.565,128.608 744.83,128.603 744.094,128.609Z" style="fill:url(#_Linear1);fill-rule:nonzero;"/>
        </g>
        <g transform="matrix(1,0,0,1,-414.005,6)">
            <path d="M756.434,127.5C756.385,127.5 756.335,127.505 756.286,127.511C755.653,127.704 755.438,128.62 755.926,129.05L761.08,133.879C761.61,134.358 762.463,133.949 762.491,133.253L762.491,131.892C762.513,127.678 762.821,127.598 758.827,127.511L756.584,127.511C756.535,127.504 756.484,127.5 756.434,127.5ZM743.799,127.58C738.262,127.58 737.471,128.163 737.5,133.845L737.5,150.235C737.471,155.918 738.508,156.5 744.045,156.5L755.843,156.5C761.34,156.5 762.372,155.92 762.386,150.347L762.386,139.198C762.38,137.941 761.23,136.88 760.299,136.079L760.291,136.073L753.59,129.598C752.08,128.234 751.036,127.581 748.971,127.581L743.799,127.58ZM751.027,130L759.999,139L759.999,152C759.999,152 759.887,153.178 759.551,153.5C759.215,153.821 757.981,153.928 757.981,153.928L742.017,153.928C742.017,153.928 740.784,153.821 740.448,153.5C740.112,153.178 739.999,152 739.999,152L739.981,131.928C739.981,131.928 740.094,130.75 740.43,130.428C740.766,130.107 741.999,130 741.999,130L751.027,130Z" style="fill:url(#_Linear2);fill-rule:nonzero;"/>
        </g>
        <g transform="matrix(1,0,0,1,-414.005,6)">
            <path d="M737.499,142L737.499,150.236C737.47,155.919 738.507,156.5 744.044,156.5L755.843,156.5C761.34,156.5 762.372,155.921 762.386,150.348L762.386,142L737.499,142Z" style="fill:white;fill-opacity:0.1;fill-rule:nonzero;"/>
        </g>
        <g transform="matrix(1,0,0,1,-414.005,6)">
            <path d="M767.503,55.373C767.37,55.373 767.247,55.386 767.136,55.403L767.057,55.414L766.981,55.438C766.105,55.717 765.587,56.47 765.417,57.231C765.265,57.909 765.428,58.675 765.93,59.282L765.567,58.918L765.557,58.91L765.555,58.907C765.555,58.907 765.553,58.91 765.553,58.91C765.27,58.643 764.996,58.386 764.719,58.143L764.717,58.143L764.715,58.139L764.713,58.137C764.713,58.137 764.707,58.135 764.707,58.135C764.436,57.897 764.167,57.674 763.897,57.465C763.897,57.465 763.891,57.461 763.891,57.461C763.89,57.461 763.885,57.457 763.885,57.457C763.615,57.249 763.342,57.051 763.058,56.869L763.056,56.869L763.054,56.867C763.054,56.867 763.05,56.865 763.05,56.865C762.774,56.688 762.49,56.524 762.193,56.377C762.193,56.377 762.187,56.375 762.187,56.375C761.891,56.229 761.583,56.099 761.263,55.988L761.259,55.986L761.255,55.986C760.937,55.877 760.606,55.783 760.261,55.711C760.261,55.711 760.252,55.711 760.251,55.711C759.909,55.639 759.554,55.584 759.181,55.549L759.179,55.549C758.802,55.514 758.41,55.498 758.001,55.498L749.732,55.498C745.58,55.498 742.866,55.643 741.079,57.33C740.185,58.174 739.659,59.345 739.366,60.795C739.074,62.245 738.99,63.511 739.001,65.751L739.001,91.25C738.99,93.487 739.074,95.253 739.366,96.701C739.659,98.15 740.185,99.321 741.079,100.166C741.3,100.374 741.543,100.564 741.806,100.732L741.81,100.734L741.816,100.738C741.816,100.738 741.827,100.742 741.828,100.742C742.077,100.899 742.342,101.039 742.624,101.16L742.63,101.162C742.631,101.163 742.633,101.165 742.634,101.166L742.636,101.166C742.637,101.166 742.646,101.169 742.648,101.17C742.934,101.29 743.236,101.397 743.554,101.484L743.558,101.484C743.876,101.572 744.21,101.646 744.564,101.707L744.572,101.707C744.924,101.767 745.29,101.813 745.674,101.852L745.68,101.852C746.064,101.89 746.468,101.92 746.893,101.942L746.905,101.942L746.909,101.944C746.909,101.944 746.983,101.943 746.981,101.944C747.817,101.984 748.726,102 749.735,102L766.774,102C770.897,102 773.091,101.858 774.876,100.197C775.769,99.367 776.3,98.213 776.6,96.787C776.901,95.361 776.997,93.626 777.003,91.428L777.003,72.518C776.994,70.616 775.814,69.128 774.681,67.977C774.304,67.594 773.923,67.243 773.571,66.926L773.286,66.668L773.313,66.668L773.302,66.656L773.3,66.656L773.249,66.606C773.969,67.168 774.888,67.219 775.614,66.924C776.394,66.607 777.116,65.879 777.155,64.863L777.155,62.707C777.163,61.079 777.191,60.34 777.128,59.333C777.064,58.323 776.922,57.482 776.391,56.786C775.861,56.089 775.029,55.757 774.106,55.604C773.183,55.452 772.071,55.425 770.583,55.391L767.725,55.391C767.652,55.384 767.581,55.374 767.504,55.374L767.503,55.373ZM742.931,99.25C742.931,99.25 742.932,99.252 742.933,99.252C742.899,99.255 742.864,99.258 742.864,99.258C742.865,99.258 742.898,99.254 742.931,99.25ZM742.899,101.234C742.904,101.234 742.933,101.238 742.964,101.24C742.938,101.239 742.905,101.236 742.905,101.236L742.899,101.234Z" style="fill-opacity:0.1;fill-rule:nonzero;"/>
        </g>
        <g transform="matrix(1,0,0,1,-414.005,6)">
            <path d="M739.096,231C738.377,231 737.794,231.014 737.26,231.104C736.726,231.193 736.192,231.38 735.783,231.787C735.375,232.194 735.187,232.73 735.098,233.266C735.009,233.801 734.997,234.386 735,235.107L735,241.898C734.997,242.617 735.009,243.201 735.098,243.734C735.187,244.27 735.375,244.806 735.783,245.213C736.192,245.62 736.726,245.807 737.26,245.896C737.794,245.986 738.377,246 739.096,246L744.904,246C745.623,246 746.205,245.986 746.738,245.896C747.272,245.807 747.806,245.619 748.213,245.211C748.62,244.803 748.807,244.268 748.897,243.734C748.986,243.201 749,242.619 749,241.898L749,235.102C749,234.381 748.986,233.799 748.897,233.266C748.807,232.732 748.62,232.197 748.213,231.789C747.806,231.381 747.272,231.193 746.738,231.104C746.205,231.014 745.623,231 744.904,231L739.096,231Z" style="fill-opacity:0.1;fill-rule:nonzero;"/>
        </g>
        <g transform="matrix(1,0,0,1,-414.005,6)">
            <path d="M750.336,56.602C747.64,56.782 744.638,56.155 742.209,57.627C740.234,59.414 740.84,62.317 740.666,64.682C740.62,74.652 740.439,84.629 740.693,94.598C740.803,96.401 741.512,98.633 743.559,99.006C746.131,99.508 748.774,99.232 751.387,99.367C758.049,99.393 764.777,99.524 771.389,99.234C772.997,99.09 774.582,98.16 774.986,96.504C775.595,93.294 775.296,90.036 775.42,86.772C775.453,81.714 775.48,76.657 775.51,71.6C774.445,69.191 772.199,67.607 770.48,65.692C767.586,62.932 764.929,59.881 761.729,57.465C759.961,56.213 757.834,56.78 755.826,56.609C753.996,56.598 752.166,56.599 750.336,56.602Z" style="fill:url(#_Linear3);fill-rule:nonzero;"/>
        </g>
        <g transform="matrix(1,0,0,1,-414.005,6)">
            <path d="M767.5,55.375C767.426,55.375 767.353,55.382 767.279,55.393C766.339,55.692 766.019,57.117 766.744,57.787L774.258,65.301C775.044,66.047 776.611,65.41 776.652,64.326L776.652,62.209C776.686,55.652 776.994,55.527 771.057,55.393L767.723,55.393C767.649,55.381 767.574,55.375 767.5,55.375ZM749.23,55.5C740.999,55.5 739.457,56.406 739.5,65.248L739.5,90.752C739.457,99.594 740.999,100.5 749.23,100.5L766.77,100.5C774.942,100.5 776.475,99.598 776.496,90.926L776.496,72.022C776.487,70.066 774.778,68.415 773.395,67.168L773.383,67.158L764.865,58.639C762.621,56.517 761.069,55.5 757.998,55.5L749.23,55.5ZM760.5,59L773,71.5L773,94C773,94 772.833,95.833 772.333,96.333C771.833,96.833 770,97 770,97L746,97C746,97 744.167,96.833 743.667,96.333C743.167,95.833 743,94 743,94L743,62C743,62 743.167,60.167 743.667,59.667C744.167,59.167 746,59 746,59L760.5,59Z" style="fill:url(#_Linear4);fill-rule:nonzero;"/>
        </g>
        <g transform="matrix(1,0,0,1,-414.005,6)">
            <path d="M744.904,230.5C745.615,230.5 746.178,230.515 746.656,230.596C747.135,230.676 747.553,230.833 747.863,231.143C748.174,231.452 748.331,231.869 748.41,232.348C748.49,232.827 748.503,233.391 748.5,234.104L748.5,241.898C748.503,242.61 748.49,243.174 748.41,243.652C748.331,244.131 748.174,244.548 747.863,244.857C747.553,245.167 747.135,245.324 746.656,245.404C746.178,245.485 745.615,245.5 744.904,245.5L739.096,245.5C738.385,245.5 737.823,245.485 737.346,245.404C736.868,245.324 736.45,245.167 736.141,244.857C735.831,244.548 735.676,244.131 735.596,243.652C735.516,243.174 735.5,242.61 735.5,241.898L735.5,234.102C735.5,233.39 735.516,232.826 735.596,232.348C735.676,231.869 735.831,231.452 736.141,231.143C736.45,230.833 736.868,230.676 737.346,230.596C737.823,230.515 738.385,230.5 739.096,230.5L744.904,230.5Z" style="fill:url(#_Linear5);fill-rule:nonzero;"/>
        </g>
        <g transform="matrix(1,0,0,1,-414.005,6)">
            <path d="M750.135,182.5C751.246,182.5 752.121,182.526 752.842,182.646C753.562,182.767 754.152,182.995 754.584,183.426C755.015,183.856 755.243,184.446 755.363,185.166C755.483,185.887 755.505,186.763 755.5,187.877L755.5,200.125C755.505,201.238 755.483,202.114 755.363,202.834C755.243,203.554 755.015,204.144 754.584,204.574C754.152,205.005 753.562,205.233 752.842,205.354C752.121,205.474 751.246,205.5 750.135,205.5L741.865,205.5C740.753,205.5 739.879,205.474 739.16,205.354C738.441,205.233 737.854,205.005 737.424,204.574C736.993,204.143 736.767,203.556 736.646,202.836C736.526,202.116 736.5,201.239 736.5,200.125L736.5,187.875C736.5,186.761 736.525,185.884 736.646,185.164C736.767,184.444 736.993,183.857 737.424,183.426C737.854,182.995 738.441,182.767 739.16,182.646C739.879,182.526 740.753,182.5 741.865,182.5L750.135,182.5Z" style="fill:url(#_Linear6);fill-rule:nonzero;"/>
        </g>
        <g transform="matrix(1,0,0,1,-414.005,6)">
            <path d="M739.096,232C738.407,232 737.912,232.021 737.592,232.074C737.288,232.125 737.209,232.192 737.196,232.205C737.183,232.218 737.121,232.291 737.071,232.594C737.018,232.912 736.998,233.406 737.001,234.096L737.001,241.904C736.998,242.594 737.018,243.089 737.071,243.406C737.121,243.71 737.183,243.782 737.196,243.795C737.209,243.808 737.288,243.875 737.592,243.926C737.912,243.98 738.407,244 739.096,244L744.905,244C745.594,244 746.088,243.979 746.407,243.926C746.711,243.875 746.787,243.807 746.797,243.797C746.809,243.786 746.875,243.711 746.926,243.404C746.98,243.085 747,242.589 747,241.899L747,235L744,232L739.096,232Z" style="fill:url(#_Linear7);fill-rule:nonzero;"/>
        </g>
        <g transform="matrix(1,0,0,1,-414.005,6)">
            <path d="M741.866,184C740.777,184 739.965,184.031 739.407,184.125C738.858,184.217 738.61,184.354 738.475,184.488C738.341,184.622 738.209,184.865 738.118,185.412C738.025,185.968 737.996,186.779 738.001,187.869L738.001,200.131C737.996,201.221 738.025,202.033 738.118,202.588C738.209,203.135 738.341,203.378 738.475,203.512C738.61,203.646 738.858,203.783 739.407,203.875C739.965,203.969 740.777,204 741.866,204L750.135,204C751.224,204 752.036,203.969 752.592,203.875C753.139,203.783 753.38,203.648 753.514,203.514C753.648,203.379 753.783,203.137 753.876,202.588C753.969,202.03 754.001,201.216 754.001,200.125L754.001,191L747,184L741.866,184Z" style="fill:url(#_Linear8);fill-rule:nonzero;"/>
        </g>
        <g transform="matrix(1,0,0,1,-414.005,6)">
            <path d="M737,194L737,200.125C736.979,204.546 737.454,205 741.866,205L750.135,205C754.547,205 755,204.546 755,200.125L755,194L737,194Z" style="fill:white;fill-opacity:0.1;fill-rule:nonzero;"/>
        </g>
        <g transform="matrix(1,0,0,1,-414.005,6)">
            <path d="M736,238L736,241.898C735.987,244.712 736.288,245 739.096,245L744.905,245C747.712,245 748,244.712 748,241.898L748,238L736,238Z" style="fill:white;fill-opacity:0.1;fill-rule:nonzero;"/>
        </g>
        <g transform="matrix(1,0,0,1,-414.005,6)">
            <path d="M739.502,78L739.502,90.752C739.459,99.594 741.001,100.5 749.232,100.5L766.772,100.5C774.944,100.5 776.477,99.598 776.498,90.926L776.498,78L739.502,78Z" style="fill:white;fill-opacity:0.1;fill-rule:nonzero;"/>
        </g>
        <g transform="matrix(1,0,0,1,-414.005,6)">
            <path d="M753.5,86.503C757.366,86.503 760.5,83.369 760.5,79.503C760.5,75.637 757.366,72.503 753.5,72.503C749.634,72.503 746.5,75.637 746.5,79.503C746.5,83.369 749.634,86.503 753.5,86.503Z" style="fill:url(#_Linear9);fill-rule:nonzero;stroke:rgb(203,133,29);stroke-width:1px;"/>
        </g>
        <g transform="matrix(1,0,0,1,-414.005,6)">
            <path d="M753.5,85.004C756.538,85.004 759,82.542 759,79.504C759,76.467 756.538,74.004 753.5,74.004C750.462,74.004 748,76.467 748,79.504C748,82.542 750.462,85.004 753.5,85.004Z" style="fill:rgb(240,196,111);fill-opacity:0.6;fill-rule:nonzero;"/>
        </g>
        <g transform="matrix(1,0,0,1,-414.005,6)">
            <rect x="758.5" y="76.5" width="11" height="11" style="fill:url(#_Linear10);fill-rule:nonzero;stroke:rgb(135,105,0);stroke-width:1px;stroke-linecap:round;stroke-linejoin:round;"/>
        </g>
        <g transform="matrix(1,0,0,1,-414.005,6)">
            <rect x="760" y="78" width="8" height="8" style="fill:rgb(201,156,0);fill-opacity:0.6;fill-rule:nonzero;"/>
        </g>
        <g transform="matrix(1,0,0,1,-414.005,6)">
            <path d="M761.624,89.452C762.444,90.784 761.486,92.5 759.921,92.5L751.079,92.5C749.515,92.5 748.556,90.784 749.376,89.452L753.797,82.268C754.578,80.999 756.422,80.999 757.203,82.268L761.624,89.452Z" style="fill:url(#_Linear11);fill-rule:nonzero;stroke:rgb(201,156,0);stroke-width:1px;stroke-linecap:round;stroke-linejoin:round;"/>
        </g>
        <g transform="matrix(1,0,0,1,-414.005,6)">
            <path d="M761.331,91.5L749.669,91.5L755.5,82L761.331,91.5Z" style="fill:rgb(245,206,83);fill-opacity:0.6;fill-rule:nonzero;"/>
        </g>
        <g transform="matrix(1,0,0,1,-414.005,6)">
            <path d="M760.43,87.5L769.5,87.5L769.5,76.5L758.5,76.5L758.57,84.5L760.43,87.5Z" style="fill:none;fill-rule:nonzero;stroke:rgb(135,105,0);stroke-width:1px;stroke-linecap:round;stroke-linejoin:round;"/>
        </g>
        <g transform="matrix(1,0,0,1,-414.005,6)">
            <path d="M745.492,237.487L739.992,242.487L745.492,242.487L745.492,237.487Z" style="fill:rgb(247,210,96);fill-rule:nonzero;stroke:rgb(233,185,19);stroke-width:1px;stroke-linejoin:round;"/>
        </g>
        <g transform="matrix(1,0,0,1,-414.005,6)">
            <path d="M745.336,237C745.265,237.027 745.2,237.069 745.148,237.125L739.648,242.125C739.49,242.264 739.437,242.487 739.514,242.683C739.59,242.879 739.782,243.005 739.992,243L745.492,243C745.768,243 745.992,242.776 745.992,242.5L745.992,237.5C746,237.335 745.927,237.177 745.796,237.077C745.664,236.977 745.492,236.948 745.336,237ZM744.992,238.625L744.992,242L741.273,242L744.992,238.625Z" style="fill:rgb(201,156,0);fill-rule:nonzero;"/>
        </g>
        <g transform="matrix(1,0,0,1,-414.005,6)">
            <path d="M739.36,240.845C739,240.531 738.737,240.122 738.602,239.664C738.467,239.206 738.466,238.719 738.598,238.26C738.73,237.801 738.991,237.39 739.349,237.074C739.706,236.758 740.147,236.551 740.619,236.477C741.09,236.403 741.573,236.465 742.011,236.656C742.448,236.847 742.822,237.159 743.089,237.555" style="fill:rgb(240,196,111);fill-rule:nonzero;"/>
        </g>
        <g transform="matrix(1,0,0,1,-414.005,6)">
            <path d="M739.36,240.845C739,240.531 738.737,240.122 738.602,239.664C738.467,239.206 738.466,238.719 738.598,238.26C738.73,237.801 738.991,237.39 739.349,237.074C739.706,236.758 740.147,236.551 740.619,236.477C741.09,236.403 741.573,236.465 742.011,236.656C742.448,236.847 742.822,237.159 743.089,237.555" style="fill:none;fill-rule:nonzero;stroke:rgb(203,133,29);stroke-width:1px;stroke-linecap:round;stroke-linejoin:round;"/>
        </g>
        <g transform="matrix(1,0,0,1,-414.005,6)">
            <path d="M746.992,147.5C749.477,147.5 751.492,145.485 751.492,143C751.492,140.515 749.477,138.5 746.992,138.5C744.507,138.5 742.492,140.515 742.492,143C742.492,145.485 744.507,147.5 746.992,147.5Z" style="fill:url(#_Linear12);fill-rule:nonzero;stroke:rgb(203,133,29);stroke-width:1px;"/>
        </g>
        <g transform="matrix(1,0,0,1,-414.005,6)">
            <path d="M746.991,146C748.648,146 749.991,144.657 749.991,143C749.991,141.343 748.648,140 746.991,140C745.335,140 743.991,141.343 743.991,143C743.991,144.657 745.335,146 746.991,146Z" style="fill:rgb(240,196,111);fill-opacity:0.6;fill-rule:nonzero;"/>
        </g>
        <g transform="matrix(1,0,0,1,-414.005,6)">
            <path d="M756.492,147.5L751.492,147.5C750.94,147.5 750.492,147.052 750.492,146.5L750.492,141.5C750.492,140.948 750.94,140.5 751.492,140.5L756.492,140.5C757.044,140.5 757.492,140.948 757.492,141.5L757.492,146.5C757.492,147.052 757.044,147.5 756.492,147.5Z" style="fill:rgb(201,156,0);fill-rule:nonzero;stroke:rgb(135,105,0);stroke-width:1px;stroke-linecap:round;stroke-linejoin:round;"/>
        </g>
        <g transform="matrix(1,0,0,1,-414.005,6)">
            <path d="M752.456,148.945C752.899,149.61 752.422,150.5 751.624,150.5L744.192,150.5C743.429,150.5 742.947,149.681 743.317,149.014L746.696,142.934C747.059,142.279 747.987,142.242 748.402,142.865L752.456,148.945Z" style="fill:url(#_Linear13);fill-rule:nonzero;stroke:rgb(201,156,0);stroke-width:1px;stroke-linecap:round;stroke-linejoin:round;"/>
        </g>
        <g transform="matrix(1,0,0,1,-414.005,6)">
            <path d="M750.992,149L744.992,149L747.492,144L750.992,149Z" style="fill:rgb(245,206,83);fill-opacity:0.6;fill-rule:nonzero;"/>
        </g>
        <g transform="matrix(1,0,0,1,-414.005,6)">
            <path d="M744.992,197.5C747.477,197.5 749.492,195.485 749.492,193C749.492,190.515 747.477,188.5 744.992,188.5C742.507,188.5 740.492,190.515 740.492,193C740.492,195.485 742.507,197.5 744.992,197.5Z" style="fill:url(#_Linear14);fill-rule:nonzero;stroke:rgb(203,133,29);stroke-width:1px;"/>
        </g>
        <g transform="matrix(1,0,0,1,-414.005,6)">
            <path d="M744.991,196C746.648,196 747.991,194.657 747.991,193C747.991,191.343 746.648,190 744.991,190C743.335,190 741.991,191.343 741.991,193C741.991,194.657 743.335,196 744.991,196Z" style="fill:rgb(240,196,111);fill-opacity:0.6;fill-rule:nonzero;"/>
        </g>
        <g transform="matrix(1,0,0,1,-414.005,6)">
            <path d="M751.492,200.5L740.492,200.5L745.492,191.5L751.492,200.5Z" style="fill:url(#_Linear15);fill-rule:nonzero;stroke:rgb(201,156,0);stroke-width:1px;stroke-linecap:round;stroke-linejoin:round;"/>
        </g>
        <g transform="matrix(1,0,0,1,-414.005,6)">
            <path d="M748.992,199L742.992,199L745.492,194L748.992,199Z" style="fill:rgb(245,206,83);fill-opacity:0.6;fill-rule:nonzero;"/>
        </g>
        <g transform="matrix(1,0,0,1,-414.005,6)">
            <path d="M749.232,55.5C745.117,55.5 742.673,55.727 741.264,57.059C740.976,57.33 740.742,57.661 740.535,58.031C740.488,58.115 740.434,58.188 740.391,58.277C740.39,58.278 740.391,58.279 740.391,58.279C740.274,58.521 740.172,58.783 740.082,59.068C739.992,59.354 739.912,59.662 739.846,59.994C739.779,60.326 739.723,60.682 739.678,61.065C739.586,61.829 739.536,62.697 739.514,63.682C739.503,64.174 739.499,64.695 739.502,65.248L739.502,90.752C739.499,91.305 739.503,91.826 739.514,92.318C739.536,93.303 739.586,94.171 739.678,94.936C739.723,95.318 739.779,95.674 739.846,96.006C739.979,96.67 740.158,97.238 740.391,97.723C740.624,98.208 740.911,98.609 741.264,98.941C741.44,99.108 741.632,99.257 741.842,99.391C742.261,99.658 742.751,99.863 743.318,100.02C743.319,100.02 743.319,100.019 743.32,100.02C744.742,100.411 746.661,100.5 749.232,100.5L766.771,100.5C767.793,100.5 768.711,100.485 769.535,100.443C769.876,100.426 770.19,100.401 770.5,100.373C770.565,100.367 770.638,100.366 770.701,100.359C770.702,100.359 770.704,100.36 770.705,100.359C771.436,100.287 772.08,100.179 772.645,100.025C772.927,99.948 773.191,99.861 773.436,99.758C773.68,99.655 773.906,99.538 774.115,99.406C774.324,99.275 774.516,99.129 774.692,98.965C774.847,98.82 774.988,98.657 775.119,98.484C775.136,98.462 775.157,98.445 775.174,98.422C775.175,98.42 775.177,98.418 775.178,98.416C775.322,98.218 775.45,98.001 775.567,97.766C775.684,97.527 775.787,97.269 775.879,96.988C775.971,96.708 776.051,96.406 776.119,96.08C776.188,95.754 776.245,95.404 776.293,95.029C776.336,94.695 776.368,94.333 776.397,93.957C776.4,93.912 776.407,93.872 776.41,93.826C776.411,93.82 776.41,93.813 776.41,93.807C776.469,92.957 776.496,92.002 776.498,90.926L776.498,72.022C776.489,70.066 774.781,68.415 773.397,67.168L773.385,67.158L764.867,58.639C762.623,56.517 761.071,55.5 758,55.5L749.232,55.5Z" style="fill:none;fill-rule:nonzero;stroke:black;stroke-opacity:0.4;stroke-width:1px;"/>
        </g>
        <g transform="matrix(1,0,0,1,-414.005,6)">
            <path d="M767.499,55.375C767.425,55.375 767.352,55.382 767.279,55.393C766.338,55.693 766.019,57.116 766.744,57.786L774.258,65.301C775.044,66.047 776.611,65.41 776.652,64.327L776.652,62.209C776.686,55.651 776.995,55.528 771.058,55.393L767.722,55.393C767.649,55.382 767.573,55.375 767.499,55.375Z" style="fill:none;fill-rule:nonzero;stroke:black;stroke-opacity:0.4;stroke-width:1px;"/>
        </g>
        <g transform="matrix(1,0,0,1,-414.005,6)">
            <path d="M749.232,55.5C741.001,55.5 739.459,56.406 739.502,65.248L739.502,90.752C739.459,99.594 741.001,100.5 749.232,100.5L766.772,100.5C774.944,100.5 776.477,99.598 776.498,90.926L776.498,73.022C776.492,71.808 775.832,70.712 775,69.756L775,90.252C775,92.445 774.939,94.123 774.734,95.34C774.53,96.557 774.206,97.264 773.736,97.734C773.267,98.205 772.562,98.53 771.348,98.734C770.133,98.939 768.458,99 766.27,99L749.73,99C747.542,99 745.865,98.939 744.647,98.734C743.428,98.53 742.718,98.205 742.246,97.734C741.775,97.264 741.45,96.558 741.248,95.342C741.046,94.126 740.989,92.448 741,90.256L741,65.744C740.989,63.552 741.046,61.874 741.248,60.658C741.45,59.442 741.775,58.736 742.246,58.266C742.718,57.795 743.43,57.47 744.648,57.266C745.867,57.061 747.542,57 749.73,57L762,57C760.598,55.999 758.201,55.5 756.078,55.5L749.232,55.5Z" style="fill:url(#_Linear16);fill-rule:nonzero;"/>
        </g>
        <g transform="matrix(1,0,0,1,-414.005,6)">
            <path d="M767.355,55.877L767.211,55.998C766.922,56.241 766.778,56.747 766.893,57.109C766.9,57.131 766.963,57.203 767.008,57.26C767.064,57.158 767.129,57.067 767.211,56.998L767.355,56.877L770.074,56.902C772.782,56.928 773.584,56.962 774.34,57.088C775.707,57.316 776.018,57.746 776.131,59.563C776.155,59.957 776.162,61.115 776.166,62.199C776.173,60.732 776.165,59.119 776.131,58.563C776.018,56.746 775.707,56.316 774.34,56.088C773.584,55.962 772.782,55.928 770.074,55.902L767.355,55.877Z" style="fill:white;fill-opacity:0.3;fill-rule:nonzero;"/>
        </g>
        <g transform="matrix(1,0,0,1,-414.005,6)">
            <path d="M741.866,183C737.454,183 736.979,183.453 737,187.874L737,200.126C736.979,204.547 737.454,205 741.866,205L750.135,205C754.547,205 755,204.547 755,200.126L755,187.874C755,183.453 754.547,183 750.135,183L741.866,183Z" style="fill:none;fill-rule:nonzero;stroke:url(#_Linear17);stroke-width:2px;"/>
        </g>
        <g transform="matrix(1,0,0,1,-414.005,6)">
            <path d="M741.866,182.5C740.754,182.5 739.879,182.526 739.159,182.646C738.439,182.767 737.848,182.995 737.417,183.426C736.985,183.856 736.757,184.446 736.637,185.166C736.517,185.887 736.495,186.763 736.501,187.877L736.501,200.125C736.496,201.238 736.517,202.114 736.637,202.834C736.757,203.554 736.985,204.144 737.417,204.574C737.848,205.005 738.439,205.233 739.159,205.354C739.879,205.474 740.754,205.5 741.866,205.5L750.135,205.5C751.247,205.5 752.122,205.474 752.84,205.354C753.559,205.233 754.147,205.005 754.577,204.574C755.007,204.143 755.233,203.556 755.354,202.836C755.475,202.116 755.5,201.239 755.5,200.125L755.5,187.875C755.5,186.761 755.475,185.884 755.354,185.164C755.233,184.444 755.007,183.857 754.577,183.426C754.147,182.995 753.559,182.767 752.84,182.646C752.122,182.526 751.247,182.5 750.135,182.5L741.866,182.5Z" style="fill:none;fill-rule:nonzero;stroke:black;stroke-opacity:0.3;stroke-width:1px;"/>
        </g>
        <g transform="matrix(1,0,0,1,-414.005,6)">
            <path d="M739.096,230.5C738.386,230.5 737.823,230.515 737.344,230.596C736.866,230.676 736.447,230.833 736.137,231.143C735.827,231.452 735.67,231.869 735.59,232.348C735.511,232.827 735.497,233.391 735.5,234.104L735.5,241.898C735.497,242.61 735.511,243.174 735.59,243.652C735.67,244.131 735.827,244.548 736.137,244.857C736.447,245.167 736.866,245.324 737.344,245.404C737.823,245.485 738.386,245.5 739.096,245.5L744.905,245.5C745.615,245.5 746.177,245.485 746.655,245.404C747.132,245.324 747.551,245.167 747.86,244.857C748.169,244.548 748.324,244.131 748.405,243.652C748.485,243.174 748.5,242.61 748.5,241.898L748.5,234.102C748.5,233.39 748.485,232.826 748.405,232.348C748.325,231.869 748.169,231.452 747.86,231.143C747.551,230.833 747.132,230.676 746.655,230.596C746.177,230.515 745.615,230.5 744.905,230.5L739.096,230.5Z" style="fill:none;fill-rule:nonzero;stroke:black;stroke-opacity:0.3;stroke-width:1px;"/>
        </g>
        <g transform="matrix(1,0,0,1,-414.005,6)">
            <path d="M739.097,231C736.289,231 735.987,231.288 736.001,234.102L736.001,241.898C735.987,244.712 736.289,245 739.097,245L744.904,245C747.712,245 748,244.712 748,241.898L748,234.102C748,231.288 747.712,231 744.904,231L739.097,231Z" style="fill:none;fill-rule:nonzero;stroke:url(#_Linear18);stroke-width:2px;"/>
        </g>
        <g transform="matrix(1,0,0,1,-414.005,6)">
            <path d="M756.287,127.492C756.236,127.492 756.186,127.497 756.136,127.504C755.498,127.694 755.281,128.6 755.773,129.025L760.873,133.799C761.406,134.273 762.469,133.868 762.498,133.18L762.498,131.834C762.52,127.667 762.73,127.589 758.701,127.504L756.437,127.504C756.387,127.497 756.337,127.492 756.287,127.492ZM744.074,127.496C741.292,127.496 739.64,127.642 738.687,128.5C738.493,128.675 738.335,128.888 738.195,129.127C738.163,129.181 738.126,129.23 738.097,129.287C738.019,129.443 737.949,129.613 737.888,129.797C737.827,129.981 737.773,130.179 737.728,130.393C737.683,130.607 737.646,130.836 737.615,131.082C737.553,131.575 737.518,132.135 737.504,132.77C737.497,133.087 737.494,133.423 737.496,133.779L737.496,150.221C737.494,150.577 737.496,150.913 737.504,151.23C737.518,151.865 737.553,152.425 737.615,152.918C737.646,153.164 737.683,153.393 737.728,153.607C737.818,154.036 737.94,154.4 738.097,154.713C738.255,155.025 738.449,155.285 738.687,155.5C738.806,155.607 738.936,155.703 739.078,155.789C739.361,155.961 739.692,156.094 740.076,156.195C741.037,156.447 742.336,156.504 744.074,156.504L755.929,156.504C756.62,156.504 757.239,156.493 757.797,156.467C758.027,156.456 758.24,156.44 758.449,156.422C758.492,156.418 758.543,156.418 758.586,156.414L758.588,156.414C759.082,156.367 759.517,156.296 759.898,156.197C760.089,156.147 760.268,156.091 760.433,156.025C760.599,155.959 760.751,155.883 760.892,155.799C761.034,155.714 761.164,155.619 761.283,155.514C761.388,155.42 761.483,155.316 761.572,155.205C761.583,155.191 761.598,155.179 761.609,155.164C761.61,155.163 761.61,155.161 761.611,155.16C761.708,155.032 761.796,154.894 761.875,154.742C761.954,154.588 762.024,154.421 762.086,154.24C762.148,154.059 762.201,153.864 762.248,153.654C762.294,153.444 762.332,153.218 762.365,152.976C762.394,152.761 762.416,152.527 762.435,152.285C762.437,152.256 762.443,152.231 762.445,152.201C762.446,152.197 762.445,152.193 762.445,152.189C762.485,151.641 762.502,151.026 762.504,150.332L762.504,139.146C762.498,137.886 761.344,136.821 760.408,136.017L760.4,136.011L753.67,129.519C752.153,128.151 751.104,127.496 749.028,127.496L744.074,127.496Z" style="fill:none;fill-rule:nonzero;stroke:black;stroke-opacity:0.4;stroke-width:0.99px;"/>
        </g>
        <g transform="matrix(1,0,0,1,-414.005,6)">
            <path d="M757.168,128.075C756.177,128.11 756.141,128.121 756.141,128.411C756.141,128.513 756.292,128.721 756.6,129.057L759.479,129.057C759.638,129.057 759.788,129.088 759.932,129.133C760.255,129.153 760.577,129.182 760.897,129.237C760.923,129.558 760.927,129.885 760.934,130.212C760.96,130.323 760.979,130.437 760.979,130.557L760.979,133.174C761.234,133.387 761.431,133.543 761.469,133.544C761.92,133.556 761.975,133.255 761.932,130.995C761.878,128.19 761.975,128.317 759.775,128.155C758.906,128.091 757.733,128.055 757.168,128.075ZM746.328,128.112C741.161,128.114 740.436,128.175 739.426,128.688C738.822,128.995 738.387,129.753 738.18,130.86C737.936,132.16 737.941,152.285 738.186,153.36C738.597,155.168 739.246,155.691 741.371,155.924C741.863,155.978 746.006,156.011 750.578,155.997C758.019,155.974 758.969,155.949 759.641,155.757C760.848,155.41 761.317,154.955 761.666,153.794C761.845,153.2 761.878,152.109 761.92,145.51C761.968,137.954 761.967,138.906 761.701,138.358C761.628,138.206 761.363,137.895 760.979,137.483L760.979,141.557C760.979,141.681 760.958,141.799 760.93,141.914C760.955,145.746 760.887,148.59 760.807,152.387C760.901,153.376 760.543,154.597 759.434,154.817C755.255,155.03 751.036,154.978 746.828,155.007C744.735,154.935 742.61,155.14 740.537,154.805C739.329,154.715 739.166,153.373 739.071,152.428C738.895,145.85 738.94,139.146 739.03,132.54C739.115,131.448 738.992,129.882 740.211,129.376C742.577,128.953 744.996,129.154 747.387,129.063C747.998,129.098 747.677,129.078 748.329,129.075C748.388,129.068 748.446,129.057 748.507,129.057L752.099,129.057C751.672,128.748 751.309,128.529 750.931,128.374C750.321,128.123 751.056,128.11 746.328,128.112Z" style="fill:url(#_Linear19);fill-rule:nonzero;"/>
        </g>
        <g transform="matrix(1,0,0,1,-414.005,6)">
            <path d="M516.927,40C481.63,40 478.005,43.626 478.005,78.994L478.005,223.006C478.005,238.48 478.698,247.878 482.435,253.555C482.968,254.366 483.565,255.1 484.23,255.766C489.548,261.093 499.279,262 516.927,262L615.083,262C617.138,262 619.071,261.985 620.917,261.955C621.576,261.944 622.178,261.92 622.812,261.904C623.961,261.876 625.104,261.845 626.171,261.799C627.441,261.744 628.68,261.679 629.839,261.594C630.313,261.559 630.774,261.519 631.23,261.479C631.45,261.459 631.679,261.441 631.896,261.42C632.623,261.349 633.331,261.273 634.013,261.186C634.681,261.1 635.323,261.004 635.948,260.9C636.17,260.864 636.38,260.82 636.597,260.781C636.993,260.71 637.388,260.638 637.767,260.559C638.015,260.507 638.254,260.45 638.495,260.395C638.815,260.321 639.132,260.244 639.439,260.164C639.698,260.096 639.95,260.026 640.2,259.953C640.484,259.871 640.762,259.784 641.034,259.695C641.261,259.621 641.487,259.545 641.706,259.467C641.991,259.365 642.268,259.259 642.54,259.148C642.736,259.069 642.934,258.99 643.124,258.906C643.399,258.785 643.661,258.656 643.923,258.525C644.097,258.438 644.278,258.355 644.446,258.264C644.856,258.042 645.252,257.81 645.628,257.562C646.034,257.295 646.423,257.014 646.792,256.715C647.132,256.44 647.451,256.146 647.761,255.842C647.835,255.769 647.907,255.692 647.98,255.617C648.209,255.381 648.431,255.136 648.644,254.883C648.721,254.791 648.799,254.701 648.874,254.607C649.415,253.93 649.902,253.191 650.339,252.387C650.394,252.285 650.447,252.18 650.501,252.076C650.66,251.77 650.811,251.454 650.956,251.129C651.018,250.992 651.081,250.856 651.14,250.715C651.322,250.281 651.497,249.836 651.657,249.369C651.818,248.903 651.964,248.414 652.105,247.914C652.145,247.769 652.185,247.621 652.224,247.473C652.288,247.229 652.347,246.973 652.407,246.721C652.551,246.119 652.683,245.493 652.804,244.844C652.836,244.672 652.871,244.505 652.901,244.33C653.042,243.519 653.169,242.675 653.278,241.789C653.3,241.611 653.318,241.419 653.339,241.238C653.421,240.52 653.495,239.778 653.56,239.01C653.585,238.708 653.609,238.402 653.632,238.092C653.689,237.323 653.738,236.529 653.78,235.711C653.794,235.457 653.811,235.212 653.823,234.953C653.83,234.806 653.832,234.641 653.839,234.492C653.901,233.029 653.941,231.472 653.968,229.852C653.975,229.433 653.981,229.006 653.985,228.576C654.005,226.803 654.015,224.971 654.005,223.006L654.005,122.24C653.961,112.507 645.826,104.285 639.243,98.078L639.194,98.027L598.671,55.619C587.994,45.058 580.613,40 566.005,40L516.927,40ZM613.909,40.09C611.74,42.866 611.524,47.493 614.118,50.002L642.614,80.389C646.338,84.085 653.733,80.957 653.995,75.609C653.994,75.189 653.997,74.748 653.993,74.338C653.992,73.847 653.985,73.385 653.982,72.906C653.62,45.652 649.021,40.716 622.636,40.09L613.909,40.09Z" style="fill-rule:nonzero;"/>
        </g>
        <g transform="matrix(1,0,0,1,-414.005,6)">
            <path d="M516.927,39C481.63,39 478.005,42.626 478.005,77.994L478.005,223.006C478.005,238.48 478.698,247.878 482.435,253.555C482.968,254.366 483.565,255.1 484.23,255.766C489.548,261.093 499.279,262 516.927,262L615.083,262C617.138,262 619.071,261.985 620.917,261.955C621.576,261.944 622.178,261.92 622.812,261.904C623.961,261.876 625.104,261.845 626.171,261.799C627.441,261.744 628.68,261.679 629.839,261.594C630.313,261.559 630.774,261.519 631.23,261.479C631.45,261.459 631.679,261.441 631.896,261.42C632.623,261.349 633.331,261.273 634.013,261.186C634.681,261.1 635.323,261.004 635.948,260.9C636.17,260.864 636.38,260.82 636.597,260.781C636.993,260.71 637.388,260.638 637.767,260.559C638.015,260.507 638.254,260.45 638.495,260.395C638.815,260.321 639.132,260.244 639.439,260.164C639.698,260.096 639.95,260.026 640.2,259.953C640.484,259.871 640.762,259.784 641.034,259.695C641.261,259.621 641.487,259.545 641.706,259.467C641.991,259.365 642.268,259.259 642.54,259.148C642.736,259.069 642.934,258.99 643.124,258.906C643.399,258.785 643.661,258.656 643.923,258.525C644.097,258.438 644.278,258.355 644.446,258.264C644.856,258.042 645.252,257.81 645.628,257.562C646.034,257.295 646.423,257.014 646.792,256.715C647.132,256.44 647.451,256.146 647.761,255.842C647.835,255.769 647.907,255.692 647.98,255.617C648.209,255.381 648.431,255.136 648.644,254.883C648.721,254.791 648.799,254.701 648.874,254.607C649.415,253.93 649.902,253.191 650.339,252.387C650.394,252.285 650.447,252.18 650.501,252.076C650.66,251.77 650.811,251.454 650.956,251.129C651.018,250.992 651.081,250.856 651.14,250.715C651.322,250.281 651.497,249.836 651.657,249.369C651.818,248.903 651.964,248.414 652.105,247.914C652.145,247.769 652.185,247.621 652.224,247.473C652.288,247.229 652.347,246.973 652.407,246.721C652.551,246.119 652.683,245.493 652.804,244.844C652.836,244.672 652.871,244.505 652.901,244.33C653.042,243.519 653.169,242.675 653.278,241.789C653.3,241.611 653.318,241.419 653.339,241.238C653.421,240.52 653.495,239.778 653.56,239.01C653.585,238.708 653.609,238.402 653.632,238.092C653.689,237.323 653.738,236.529 653.78,235.711C653.794,235.457 653.811,235.212 653.823,234.953C653.83,234.806 653.832,234.641 653.839,234.492C653.901,233.029 653.941,231.472 653.968,229.852C653.975,229.433 653.981,229.006 653.985,228.576C654.005,226.803 654.015,224.971 654.005,223.006L654.005,121.24C653.961,111.507 645.826,103.285 639.243,97.078L639.194,97.027L598.671,54.619C587.994,44.058 580.613,39 566.005,39L516.927,39ZM614.896,39.09C611.856,41.592 611.175,47.156 614.118,50.002L642.614,80.389C646.343,84.09 653.756,80.949 653.999,75.588C653.999,75.377 653.998,75.169 653.997,74.961C653.997,73.763 653.984,72.632 653.972,71.51C653.569,44.621 648.887,39.713 622.636,39.09L614.896,39.09Z" style="fill-rule:nonzero;"/>
        </g>
        <g transform="matrix(1,0,0,1,-414.005,6)">
            <path d="M516.927,38C514.751,38 512.701,38.015 510.759,38.049C481.277,38.577 478.091,43.836 478.091,76.994L478.091,223.006C478.091,256.164 481.277,261.423 510.759,261.951C512.701,261.985 514.751,262 516.927,262L615.083,262C617.138,262 619.071,261.985 620.917,261.955C621.576,261.944 622.178,261.92 622.812,261.904C623.961,261.876 625.104,261.845 626.171,261.799C627.441,261.744 628.68,261.679 629.839,261.594C630.313,261.559 630.774,261.519 631.23,261.479C631.45,261.459 631.679,261.441 631.896,261.42C632.623,261.349 633.331,261.273 634.013,261.186C634.681,261.1 635.323,261.004 635.948,260.9C636.17,260.864 636.38,260.82 636.597,260.781C636.993,260.71 637.388,260.638 637.767,260.559C638.015,260.507 638.254,260.45 638.495,260.395C638.815,260.321 639.132,260.244 639.439,260.164C639.698,260.096 639.95,260.026 640.2,259.953C640.484,259.871 640.762,259.784 641.034,259.695C641.261,259.621 641.487,259.545 641.706,259.467C641.991,259.365 642.268,259.259 642.54,259.148C642.736,259.069 642.934,258.99 643.124,258.906C643.399,258.785 643.662,258.656 643.923,258.525C644.097,258.438 644.278,258.355 644.446,258.264C644.856,258.042 645.252,257.81 645.628,257.562C646.034,257.295 646.423,257.014 646.792,256.715C647.132,256.44 647.451,256.146 647.761,255.842C647.835,255.769 647.907,255.692 647.98,255.617C648.209,255.381 648.431,255.136 648.644,254.883C648.721,254.791 648.799,254.701 648.874,254.607C649.415,253.93 649.902,253.191 650.339,252.387C650.394,252.285 650.447,252.18 650.501,252.076C650.66,251.77 650.811,251.454 650.956,251.129C651.018,250.992 651.081,250.856 651.14,250.715C651.322,250.281 651.497,249.836 651.657,249.369C651.818,248.903 651.964,248.414 652.105,247.914C652.145,247.769 652.185,247.621 652.224,247.473C652.288,247.229 652.347,246.973 652.407,246.721C652.551,246.119 652.683,245.493 652.804,244.844C652.836,244.672 652.871,244.505 652.901,244.33C653.042,243.519 653.169,242.675 653.278,241.789C653.3,241.611 653.318,241.419 653.339,241.238C653.421,240.52 653.495,239.778 653.56,239.01C653.585,238.708 653.609,238.402 653.632,238.092C653.689,237.323 653.738,236.529 653.78,235.711C653.794,235.457 653.811,235.212 653.823,234.953C653.83,234.806 653.832,234.641 653.839,234.492C653.901,233.029 653.941,231.472 653.968,229.852C653.975,229.433 653.981,229.006 653.985,228.576C654.005,226.803 654.015,224.971 654.005,223.006L654.005,120.24C653.961,110.507 645.826,102.285 639.243,96.078L639.194,96.027L598.671,53.619C587.994,43.058 580.613,38 566.005,38L516.927,38ZM616.659,38.09C612.185,39.582 610.669,46.666 614.118,50.002L642.614,80.389C646.348,84.094 653.776,80.942 654.001,75.568C654.049,44.239 650.448,38.75 622.636,38.09L616.659,38.09Z" style="fill:none;fill-rule:nonzero;stroke:black;stroke-opacity:0.1;stroke-width:4px;"/>
        </g>
        <g transform="matrix(1,0,0,1,-414.005,6)">
            <path d="M516.927,38C481.63,38 478.005,41.626 478.005,76.994L478.005,223.006C478.005,258.374 481.63,262 516.927,262L615.083,262C650.38,262 654.178,258.374 654.005,223.006L654.005,120.24C653.961,110.507 645.826,102.285 639.243,96.078L639.194,96.027L598.671,53.619C587.994,43.058 580.613,38 566.005,38L516.927,38Z" style="fill:url(#_Linear20);fill-rule:nonzero;"/>
        </g>
        <g transform="matrix(1,0,0,1,-414.005,6)">
            <path d="M516.926,38C504.793,38 496.402,38.429 490.614,40.428C488.511,41.154 486.751,42.089 485.28,43.285L485.278,43.287C484.176,44.185 483.235,45.23 482.435,46.445C482.179,46.833 481.942,47.243 481.714,47.666C481.656,47.773 481.604,47.887 481.548,47.996C481.387,48.31 481.232,48.631 481.085,48.965C481.012,49.131 480.944,49.305 480.874,49.477C480.753,49.774 480.634,50.075 480.523,50.387C480.452,50.585 480.384,50.788 480.317,50.992C480.218,51.297 480.122,51.607 480.03,51.926C479.97,52.135 479.911,52.345 479.855,52.561C479.761,52.914 479.673,53.278 479.589,53.648C479.541,53.857 479.493,54.063 479.448,54.277C479.367,54.665 479.293,55.069 479.22,55.475C479.182,55.686 479.138,55.891 479.103,56.107C478.999,56.733 478.905,57.376 478.819,58.045L478.819,58.047C478.735,58.704 478.66,59.386 478.591,60.086C478.563,60.369 478.54,60.668 478.515,60.959C478.477,61.394 478.44,61.832 478.407,62.283C478.326,63.4 478.264,64.586 478.21,65.807C478.16,66.953 478.124,68.174 478.095,69.416C478.081,69.997 478.06,70.54 478.05,71.143C478.02,72.996 478.005,74.93 478.005,76.994L478.005,223.006C478.005,225.07 478.02,227.004 478.05,228.857C478.06,229.46 478.081,230.003 478.095,230.584C478.124,231.826 478.16,233.047 478.21,234.193C478.264,235.414 478.326,236.6 478.407,237.717C478.44,238.169 478.477,238.606 478.515,239.041C478.54,239.332 478.563,239.631 478.591,239.914C478.66,240.614 478.735,241.296 478.819,241.953L478.819,241.955C478.905,242.624 478.999,243.267 479.103,243.893C479.138,244.109 479.182,244.314 479.22,244.525C479.293,244.931 479.367,245.335 479.448,245.723C479.493,245.937 479.541,246.143 479.589,246.352C479.673,246.722 479.761,247.086 479.855,247.439C479.911,247.655 479.97,247.865 480.03,248.074C480.122,248.393 480.218,248.704 480.317,249.008C480.384,249.212 480.452,249.415 480.523,249.613C480.634,249.925 480.753,250.227 480.874,250.523C480.944,250.695 481.012,250.869 481.085,251.035C481.232,251.369 481.387,251.69 481.548,252.004C481.604,252.113 481.656,252.227 481.714,252.334C481.942,252.757 482.179,253.167 482.435,253.555C482.968,254.366 483.565,255.1 484.229,255.766C484.562,256.099 484.911,256.414 485.278,256.713L485.28,256.715C486.751,257.911 488.511,258.846 490.614,259.572C496.402,261.571 504.793,262 516.926,262L615.08,262C617.137,262 619.065,261.985 620.914,261.955L620.947,261.955C621.593,261.944 622.186,261.92 622.809,261.904C623.266,261.893 623.694,261.876 624.144,261.863C624.818,261.842 625.524,261.827 626.168,261.799C626.175,261.799 626.181,261.797 626.187,261.797C627.44,261.742 628.662,261.68 629.806,261.596C629.816,261.595 629.826,261.594 629.836,261.594C630.31,261.559 630.77,261.519 631.226,261.479C631.237,261.478 631.249,261.478 631.26,261.477C631.47,261.458 631.687,261.44 631.892,261.42C632.62,261.349 633.328,261.273 634.009,261.186C634.678,261.1 635.32,261.004 635.945,260.9C635.947,260.9 635.949,260.899 635.951,260.898C636.171,260.862 636.379,260.82 636.593,260.781C636.99,260.71 637.384,260.638 637.763,260.559C638.002,260.509 638.231,260.454 638.463,260.4C638.472,260.398 638.482,260.397 638.492,260.395C638.811,260.321 639.128,260.244 639.435,260.164C639.687,260.098 639.934,260.03 640.177,259.959C640.184,259.957 640.19,259.955 640.197,259.953C640.48,259.871 640.759,259.784 641.031,259.695C641.258,259.621 641.483,259.545 641.703,259.467C641.852,259.413 641.995,259.355 642.14,259.299C642.273,259.248 642.407,259.201 642.537,259.148C642.548,259.144 642.559,259.139 642.57,259.135C642.755,259.06 642.942,258.985 643.121,258.906C643.288,258.832 643.446,258.752 643.607,258.674C643.711,258.624 643.817,258.576 643.919,258.525C643.927,258.522 643.934,258.517 643.941,258.514C644.108,258.431 644.28,258.351 644.441,258.264L644.443,258.264C644.853,258.042 645.248,257.81 645.624,257.562C646.405,257.049 647.111,256.476 647.757,255.842L647.761,255.838C647.832,255.768 647.901,255.695 647.97,255.623C647.972,255.621 647.974,255.619 647.976,255.617C648.206,255.381 648.427,255.136 648.64,254.883C648.717,254.791 648.796,254.701 648.87,254.607C649.412,253.93 649.898,253.191 650.335,252.387C650.391,252.285 650.444,252.18 650.497,252.076C650.656,251.77 650.807,251.454 650.952,251.129C651.013,250.993 651.076,250.858 651.134,250.719L651.136,250.715C651.318,250.281 651.493,249.836 651.654,249.369C651.814,248.903 651.96,248.414 652.101,247.914C652.101,247.912 652.102,247.91 652.103,247.908C652.143,247.765 652.181,247.619 652.22,247.473C652.256,247.337 652.288,247.194 652.322,247.053C652.349,246.943 652.377,246.832 652.404,246.721C652.404,246.718 652.405,246.715 652.406,246.713C652.549,246.114 652.68,245.49 652.8,244.844C652.826,244.705 652.852,244.567 652.878,244.428C652.884,244.394 652.892,244.363 652.898,244.33L652.898,244.328C653.038,243.518 653.165,242.674 653.275,241.789C653.281,241.741 653.285,241.69 653.29,241.641C653.306,241.51 653.32,241.371 653.335,241.238C653.338,241.218 653.339,241.196 653.341,241.176C653.42,240.483 653.491,239.769 653.554,239.029C653.555,239.023 653.555,239.016 653.556,239.01C653.581,238.708 653.605,238.402 653.628,238.092C653.685,237.323 653.734,236.529 653.777,235.711C653.785,235.555 653.795,235.4 653.804,235.246C653.809,235.146 653.815,235.054 653.82,234.953C653.82,234.944 653.819,234.935 653.82,234.926C653.825,234.797 653.828,234.659 653.833,234.529C653.834,234.518 653.835,234.504 653.835,234.492C653.897,233.029 653.938,231.472 653.964,229.852L653.964,229.818C653.971,229.41 653.977,228.994 653.982,228.576C654.001,226.803 654.011,224.971 654.001,223.006L654.001,120.24C653.993,118.415 653.7,116.643 653.187,114.928C652.844,113.784 652.404,112.667 651.884,111.574C649.025,105.566 643.765,100.345 639.24,96.078L639.191,96.027L598.668,53.619C587.992,43.058 580.611,38 566.003,38L516.926,38ZM616.656,38.09C612.182,39.582 610.666,46.666 614.115,50.002L642.611,80.389C646.344,84.094 653.772,80.942 653.997,75.568C654,73.653 653.987,71.842 653.958,70.115C653.955,69.948 653.95,69.796 653.947,69.631C653.917,68.074 653.874,66.583 653.81,65.174C653.763,64.142 653.705,63.149 653.636,62.193C652.483,46.248 648.088,40.657 633.974,38.832C632.678,38.664 631.3,38.529 629.834,38.42C629.124,38.367 628.391,38.32 627.64,38.279C627.632,38.279 627.622,38.278 627.613,38.277C626.045,38.192 624.388,38.132 622.633,38.09L616.656,38.09ZM533.57,49.945C544.944,49.949 556.2,49.986 567.468,50.191C574.706,49.806 581.334,53.645 586.323,58.6C602.428,74.562 617.73,91.314 633.599,107.51C637.015,111.386 641.862,115.273 641.773,120.91C642.135,150.767 641.927,180.629 641.878,210.488C641.614,220.738 642.274,231.184 640.97,241.453C640.423,243.811 640.438,247.489 637.408,248.104C629.819,249.953 621.897,249.574 614.141,249.801C578.596,249.979 542.714,250.1 507.166,249.664C502.462,249.249 497.287,249.67 493.048,247.279C490.22,243.461 490.939,238.276 490.602,233.795C490.02,185.15 489.9,136.489 490.018,87.822C490.301,77.106 489.525,66.054 491.587,55.385C491.895,52.111 495.442,51.377 498.083,50.975C509.87,49.847 521.863,50.107 533.57,49.945Z" style="fill:url(#_Linear21);fill-rule:nonzero;"/>
        </g>
        <g transform="matrix(1,0,0,1,-414.005,6)">
            <path d="M478.005,150L478.005,223.007C477.832,258.375 481.631,262 516.927,262L615.084,262C650.38,262 653.087,258.363 654.005,223.007L654.005,150L478.005,150Z" style="fill:white;fill-opacity:0.1;fill-rule:nonzero;"/>
        </g>
        <g transform="matrix(1,0,0,1,-414.005,6)">
            <path d="M478.005,221.006L478.005,223.006C477.832,258.374 481.631,262 516.927,262L615.084,262C650.38,262 653.087,258.362 654.005,223.006L654.005,221.006C653.087,256.362 650.38,260 615.084,260L516.927,260C481.631,260 477.832,256.374 478.005,221.006Z" style="fill-opacity:0.2;fill-rule:nonzero;"/>
        </g>
        <g transform="matrix(1,0,0,1,-414.005,6)">
            <path d="M594.005,262L654.005,202L654.005,224.484C653.953,258.48 650.203,262 615.831,262L594.005,262Z" style="fill:white;fill-opacity:0.08;fill-rule:nonzero;"/>
        </g>
        <g transform="matrix(1,0,0,1,-414.005,6)">
            <path d="M543.507,190.517C562.837,190.517 578.507,174.847 578.507,155.517C578.507,136.187 562.837,120.517 543.507,120.517C524.177,120.517 508.507,136.187 508.507,155.517C508.507,174.847 524.177,190.517 543.507,190.517Z" style="fill:url(#_Linear22);fill-rule:nonzero;stroke:rgb(203,133,29);stroke-width:5px;"/>
        </g>
        <g transform="matrix(1,0,0,1,-414.005,6)">
            <path d="M543.508,183.021C558.696,183.021 571.008,170.709 571.008,155.521C571.008,140.334 558.696,128.021 543.508,128.021C528.321,128.021 516.008,140.334 516.008,155.521C516.008,170.709 528.321,183.021 543.508,183.021Z" style="fill:rgb(240,196,111);fill-opacity:0.6;fill-rule:nonzero;"/>
        </g>
        <g transform="matrix(1,0,0,1,-414.005,6)">
            <path d="M614.508,195.5L577.508,195.5C572.538,195.5 568.508,191.471 568.508,186.5L568.508,149.5C568.508,144.529 572.538,140.5 577.508,140.5L614.508,140.5C619.479,140.5 623.508,144.529 623.508,149.5L623.508,186.5C623.508,191.471 619.479,195.5 614.508,195.5Z" style="fill:url(#_Linear23);fill-rule:nonzero;stroke:rgb(135,105,0);stroke-width:5px;stroke-linecap:round;stroke-linejoin:round;"/>
        </g>
        <g transform="matrix(1,0,0,1,-414.005,6)">
            <path d="M609.008,148L583.008,148C579.142,148 576.008,151.134 576.008,155L576.008,181C576.008,184.866 579.142,188 583.008,188L609.008,188C612.874,188 616.008,184.866 616.008,181L616.008,155C616.008,151.134 612.874,148 609.008,148Z" style="fill:rgb(201,156,0);fill-opacity:0.6;fill-rule:nonzero;"/>
        </g>
        <g transform="matrix(1,0,0,1,-414.005,6)">
            <path d="M585.067,206.783C588.757,212.78 584.443,220.5 577.402,220.5L529.615,220.5C522.574,220.5 518.259,212.78 521.95,206.783L545.844,167.955C549.358,162.245 557.659,162.245 561.173,167.956L585.067,206.783Z" style="fill:url(#_Linear24);fill-rule:nonzero;stroke:rgb(201,156,0);stroke-width:5px;stroke-linecap:round;stroke-linejoin:round;"/>
        </g>
        <g transform="matrix(1,0,0,1,-414.005,6)">
            <path d="M578.923,209.408C580.559,212.073 578.642,215.5 575.514,215.5L531.503,215.5C528.375,215.5 526.458,212.073 528.094,209.408L550.099,173.554C551.661,171.011 555.356,171.011 556.918,173.554L578.923,209.408Z" style="fill:rgb(245,206,83);fill-opacity:0.6;fill-rule:nonzero;"/>
        </g>
        <g transform="matrix(1,0,0,1,-414.005,6)">
            <path d="M575.519,191.242C577.16,193.89 580.053,195.5 583.168,195.5L614.508,195.5C619.479,195.5 623.508,191.471 623.508,186.5L623.508,149.5C623.508,144.529 619.479,140.5 614.508,140.5L577.588,140.5C572.586,140.5 568.544,144.578 568.588,149.579L568.836,177.979C568.851,179.628 569.318,181.241 570.187,182.643L575.519,191.242Z" style="fill:none;fill-rule:nonzero;stroke:rgb(135,105,0);stroke-width:5px;stroke-linecap:round;stroke-linejoin:round;"/>
        </g>
        <g transform="matrix(1,0,0,1,-414.005,6)">
            <path d="M516.927,38C514.419,38 512.115,38.026 509.915,38.072C508.346,38.106 506.829,38.149 505.409,38.215C504.516,38.256 503.648,38.303 502.812,38.359C502.738,38.364 502.656,38.368 502.583,38.373C502.543,38.376 502.509,38.38 502.47,38.383C501.354,38.462 500.3,38.562 499.282,38.674C499.001,38.705 498.717,38.734 498.442,38.768C498.167,38.801 497.894,38.837 497.626,38.873C497.24,38.926 496.863,38.981 496.491,39.039C496.246,39.078 495.998,39.115 495.759,39.156C495.372,39.223 495.002,39.299 494.632,39.373C494.124,39.475 493.631,39.584 493.153,39.701C492.962,39.748 492.767,39.793 492.581,39.842C492.256,39.928 491.943,40.02 491.632,40.113C491.458,40.166 491.284,40.219 491.114,40.274C490.787,40.379 490.466,40.49 490.155,40.606C490.057,40.642 489.963,40.68 489.866,40.717C488.333,41.311 486.99,42.025 485.821,42.891C485.807,42.902 485.791,42.911 485.776,42.922C480.935,46.536 479.036,52.718 478.356,63.16C478.339,63.424 478.327,63.705 478.312,63.975C478.245,65.115 478.185,66.28 478.144,67.522C478.143,67.551 478.143,67.584 478.142,67.613C478.094,69.053 478.062,70.558 478.042,72.139C478.515,43.175 484.07,40 516.927,40L579.456,40C578.596,39.705 577.71,39.447 576.802,39.217C576.645,39.177 576.49,39.135 576.331,39.098C575.943,39.005 575.55,38.921 575.151,38.84C574.868,38.783 574.579,38.731 574.29,38.68C573.958,38.62 573.628,38.557 573.288,38.506C572.673,38.414 572.045,38.334 571.401,38.268C571.146,38.241 570.882,38.222 570.622,38.199C570.129,38.157 569.627,38.12 569.116,38.092C568.855,38.077 568.595,38.062 568.329,38.051C567.572,38.021 566.804,38 566.005,38L516.927,38Z" style="fill:white;fill-opacity:0.3;fill-rule:nonzero;"/>
        </g>
        <g transform="matrix(1,0,0,1,-414.005,6)">
            <path d="M616.659,38.09C615.588,38.447 614.692,39.13 613.987,40L615.083,40C649.234,40 653.723,43.485 653.98,75.74C653.983,75.703 653.991,75.668 653.993,75.631C653.94,57.96 652.835,48.453 646.913,43.453C646.596,43.188 646.268,42.934 645.923,42.694C644.58,41.756 643.01,41.005 641.204,40.397C641.062,40.349 640.928,40.298 640.782,40.252C640.463,40.151 640.126,40.06 639.792,39.967C639.534,39.896 639.278,39.822 639.011,39.756C638.687,39.675 638.354,39.599 638.017,39.526C637.694,39.455 637.364,39.389 637.028,39.324C636.708,39.263 636.388,39.201 636.056,39.145C635.594,39.067 635.114,38.996 634.628,38.928C634.412,38.897 634.206,38.863 633.986,38.834C633.983,38.834 633.981,38.833 633.978,38.832C633.27,38.741 632.533,38.661 631.776,38.588C631.469,38.558 631.147,38.533 630.831,38.506C630.31,38.462 629.783,38.418 629.239,38.381C628.898,38.357 628.551,38.337 628.2,38.317C627.833,38.295 627.451,38.275 627.073,38.256C625.665,38.185 624.208,38.127 622.651,38.09L616.659,38.09Z" style="fill:white;fill-opacity:0.4;fill-rule:nonzero;"/>
        </g>
        <g transform="matrix(1,0,0,1,-414.005,6)">
            <path d="M478.017,75.422C478.015,75.961 478.005,76.439 478.005,76.994L478.005,78.994C477.999,77.734 478.012,76.603 478.017,75.422Z" style="fill:white;fill-opacity:0.3;fill-rule:nonzero;"/>
        </g>
        <g transform="matrix(1,0,0,1,-414.005,6)">
            <path d="M478.011,221.006L478.011,223.006C478.009,223.448 478.016,223.827 478.015,224.26C478.016,224.719 478.022,225.143 478.025,225.592C478.013,224.104 478.003,222.624 478.011,221.006ZM654.005,221.758C653.949,256.39 650.121,260 615.089,260L516.933,260C483.998,260 478.492,256.82 478.042,227.666C478.347,252.54 481.531,259.631 500.218,261.432C500.221,261.432 500.224,261.431 500.228,261.432C500.989,261.505 501.776,261.57 502.589,261.627L502.595,261.627C503.41,261.684 504.25,261.733 505.118,261.775L505.12,261.775C505.7,261.803 506.367,261.812 506.972,261.834C508.18,261.878 509.363,261.928 510.673,261.951L510.677,261.951C512.641,261.986 514.722,262 516.927,262L615.083,262C618.76,262 622.02,261.944 625.044,261.834C627.465,261.745 629.76,261.628 631.796,261.432C651.292,259.554 653.92,251.932 654.001,224.348C654.001,223.886 654.007,223.479 654.005,223.006L654.005,221.758Z" style="fill-opacity:0.2;fill-rule:nonzero;"/>
        </g>
    </g>
    <defs>
        <linearGradient id="_Linear1" x1="0" y1="0" x2="1" y2="0" gradientUnits="userSpaceOnUse" gradientTransform="matrix(7.336,32.151,-32.151,7.336,745,126)"><stop offset="0" style="stop-color:rgb(242,242,242);stop-opacity:1"/><stop offset="1" style="stop-color:white;stop-opacity:1"/></linearGradient>
        <linearGradient id="_Linear2" x1="0" y1="0" x2="1" y2="0" gradientUnits="userSpaceOnUse" gradientTransform="matrix(-11.906,-29.815,29.815,-11.906,756.975,156.759)"><stop offset="0" style="stop-color:rgb(218,179,49);stop-opacity:1"/><stop offset="1" style="stop-color:rgb(217,156,39);stop-opacity:1"/></linearGradient>
        <linearGradient id="_Linear3" x1="0" y1="0" x2="1" y2="0" gradientUnits="userSpaceOnUse" gradientTransform="matrix(16.539,43.9999,-43.9999,16.539,749.731,56.0001)"><stop offset="0" style="stop-color:rgb(242,242,242);stop-opacity:1"/><stop offset="1" style="stop-color:white;stop-opacity:1"/></linearGradient>
        <linearGradient id="_Linear4" x1="0" y1="0" x2="1" y2="0" gradientUnits="userSpaceOnUse" gradientTransform="matrix(-19.141,-45.7882,45.7882,-19.141,768.445,100.903)"><stop offset="0" style="stop-color:rgb(218,179,49);stop-opacity:1"/><stop offset="1" style="stop-color:rgb(217,156,39);stop-opacity:1"/></linearGradient>
        <linearGradient id="_Linear5" x1="0" y1="0" x2="1" y2="0" gradientUnits="userSpaceOnUse" gradientTransform="matrix(-6.135,-15.443,15.443,-6.135,745.625,245.634)"><stop offset="0" style="stop-color:rgb(218,179,49);stop-opacity:1"/><stop offset="1" style="stop-color:rgb(217,156,39);stop-opacity:1"/></linearGradient>
        <linearGradient id="_Linear6" x1="0" y1="0" x2="1" y2="0" gradientUnits="userSpaceOnUse" gradientTransform="matrix(-9.735,-23.359,23.359,-9.735,751.298,205.705)"><stop offset="0" style="stop-color:rgb(218,179,49);stop-opacity:1"/><stop offset="1" style="stop-color:rgb(217,156,39);stop-opacity:1"/></linearGradient>
        <linearGradient id="_Linear7" x1="0" y1="0" x2="1" y2="0" gradientUnits="userSpaceOnUse" gradientTransform="matrix(-8,16,-16,-8,746.001,230)"><stop offset="0" style="stop-color:rgb(242,242,242);stop-opacity:1"/><stop offset="1" style="stop-color:white;stop-opacity:1"/></linearGradient>
        <linearGradient id="_Linear8" x1="0" y1="0" x2="1" y2="0" gradientUnits="userSpaceOnUse" gradientTransform="matrix(8,24,-24,8,742,182)"><stop offset="0" style="stop-color:rgb(242,242,242);stop-opacity:1"/><stop offset="1" style="stop-color:white;stop-opacity:1"/></linearGradient>
        <linearGradient id="_Linear9" x1="0" y1="0" x2="1" y2="0" gradientUnits="userSpaceOnUse" gradientTransform="matrix(7.89573e-16,-12.8947,12.8947,7.89573e-16,751.658,85.0297)"><stop offset="0" style="stop-color:rgb(240,188,111);stop-opacity:1"/><stop offset="1" style="stop-color:rgb(249,234,181);stop-opacity:1"/></linearGradient>
        <linearGradient id="_Linear10" x1="0" y1="0" x2="1" y2="0" gradientUnits="userSpaceOnUse" gradientTransform="matrix(1.01099e-15,16.5107,-16.5107,1.01099e-15,761.594,76.5008)"><stop offset="0" style="stop-color:rgb(201,156,0);stop-opacity:1"/><stop offset="1" style="stop-color:rgb(135,105,0);stop-opacity:1"/></linearGradient>
        <linearGradient id="_Linear11" x1="0" y1="0" x2="1" y2="0" gradientUnits="userSpaceOnUse" gradientTransform="matrix(7.82733e-16,-12.783,12.783,7.82733e-16,755.585,92.5013)"><stop offset="0" style="stop-color:rgb(245,206,83);stop-opacity:1"/><stop offset="1" style="stop-color:rgb(253,233,169);stop-opacity:1"/></linearGradient>
        <linearGradient id="_Linear12" x1="0" y1="0" x2="1" y2="0" gradientUnits="userSpaceOnUse" gradientTransform="matrix(5.07616e-16,-8.29,8.29,5.07616e-16,745.808,146.553)"><stop offset="0" style="stop-color:rgb(240,188,111);stop-opacity:1"/><stop offset="1" style="stop-color:rgb(249,234,181);stop-opacity:1"/></linearGradient>
        <linearGradient id="_Linear13" x1="0" y1="0" x2="1" y2="0" gradientUnits="userSpaceOnUse" gradientTransform="matrix(5.41906e-16,-8.85,8.85,5.41906e-16,748.051,150.5)"><stop offset="0" style="stop-color:rgb(245,206,83);stop-opacity:1"/><stop offset="1" style="stop-color:rgb(253,233,169);stop-opacity:1"/></linearGradient>
        <linearGradient id="_Linear14" x1="0" y1="0" x2="1" y2="0" gradientUnits="userSpaceOnUse" gradientTransform="matrix(5.07616e-16,-8.29,8.29,5.07616e-16,743.808,196.553)"><stop offset="0" style="stop-color:rgb(240,188,111);stop-opacity:1"/><stop offset="1" style="stop-color:rgb(249,234,181);stop-opacity:1"/></linearGradient>
        <linearGradient id="_Linear15" x1="0" y1="0" x2="1" y2="0" gradientUnits="userSpaceOnUse" gradientTransform="matrix(5.41906e-16,-8.85,8.85,5.41906e-16,746.051,200.5)"><stop offset="0" style="stop-color:rgb(245,206,83);stop-opacity:1"/><stop offset="1" style="stop-color:rgb(253,233,169);stop-opacity:1"/></linearGradient>
        <linearGradient id="_Linear16" x1="0" y1="0" x2="1" y2="0" gradientUnits="userSpaceOnUse" gradientTransform="matrix(2.69422e-15,44,-44,2.69422e-15,758,56)"><stop offset="0" style="stop-color:white;stop-opacity:0.3"/><stop offset="0.13" style="stop-color:white;stop-opacity:0.03"/><stop offset="0.93" style="stop-color:white;stop-opacity:0.03"/><stop offset="1" style="stop-color:white;stop-opacity:0.15"/></linearGradient>
        <linearGradient id="_Linear17" x1="0" y1="0" x2="1" y2="0" gradientUnits="userSpaceOnUse" gradientTransform="matrix(1.34711e-15,22,-22,1.34711e-15,746,183)"><stop offset="0" style="stop-color:white;stop-opacity:0.3"/><stop offset="0.13" style="stop-color:white;stop-opacity:0.03"/><stop offset="0.93" style="stop-color:white;stop-opacity:0.03"/><stop offset="1" style="stop-color:white;stop-opacity:0.15"/></linearGradient>
        <linearGradient id="_Linear18" x1="0" y1="0" x2="1" y2="0" gradientUnits="userSpaceOnUse" gradientTransform="matrix(8.57253e-16,14,-14,8.57253e-16,742,231)"><stop offset="0" style="stop-color:white;stop-opacity:0.3"/><stop offset="0.13" style="stop-color:white;stop-opacity:0.03"/><stop offset="0.93" style="stop-color:white;stop-opacity:0.03"/><stop offset="1" style="stop-color:white;stop-opacity:0.15"/></linearGradient>
        <linearGradient id="_Linear19" x1="0" y1="0" x2="1" y2="0" gradientUnits="userSpaceOnUse" gradientTransform="matrix(1.71451e-15,28,-28,1.71451e-15,749,128)"><stop offset="0" style="stop-color:white;stop-opacity:0.3"/><stop offset="0.13" style="stop-color:white;stop-opacity:0.03"/><stop offset="0.93" style="stop-color:white;stop-opacity:0.03"/><stop offset="1" style="stop-color:white;stop-opacity:0.15"/></linearGradient>
        <linearGradient id="_Linear20" x1="0" y1="0" x2="1" y2="0" gradientUnits="userSpaceOnUse" gradientTransform="matrix(98.167,221.998,-221.998,98.167,516.927,38)"><stop offset="0" style="stop-color:rgb(242,242,242);stop-opacity:1"/><stop offset="1" style="stop-color:white;stop-opacity:1"/></linearGradient>
        <linearGradient id="_Linear21" x1="0" y1="0" x2="1" y2="0" gradientUnits="userSpaceOnUse" gradientTransform="matrix(-98.157,-223.999,223.999,-98.157,615.08,264)"><stop offset="0" style="stop-color:rgb(218,179,49);stop-opacity:1"/><stop offset="1" style="stop-color:rgb(217,156,39);stop-opacity:1"/></linearGradient>
        <linearGradient id="_Linear22" x1="0" y1="0" x2="1" y2="0" gradientUnits="userSpaceOnUse" gradientTransform="matrix(3.94783e-15,-64.473,64.473,3.94783e-15,534.297,183.148)"><stop offset="0" style="stop-color:rgb(240,188,111);stop-opacity:1"/><stop offset="1" style="stop-color:rgb(249,234,181);stop-opacity:1"/></linearGradient>
        <linearGradient id="_Linear23" x1="0" y1="0" x2="1" y2="0" gradientUnits="userSpaceOnUse" gradientTransform="matrix(5.05491e-15,82.553,-82.553,5.05491e-15,583.977,140.504)"><stop offset="0" style="stop-color:rgb(201,156,0);stop-opacity:1"/><stop offset="1" style="stop-color:rgb(135,105,0);stop-opacity:1"/></linearGradient>
        <linearGradient id="_Linear24" x1="0" y1="0" x2="1" y2="0" gradientUnits="userSpaceOnUse" gradientTransform="matrix(3.9136e-15,-63.914,63.914,3.9136e-15,553.935,220.506)"><stop offset="0" style="stop-color:rgb(245,206,83);stop-opacity:1"/><stop offset="1" style="stop-color:rgb(253,233,169);stop-opacity:1"/></linearGradient>
    </defs>
</svg>
