<?xml version="1.0" encoding="UTF-8" standalone="no"?>
<!-- Created with Inkscape (http://www.inkscape.org/) -->

<svg
   xmlns:dc="http://purl.org/dc/elements/1.1/"
   xmlns:cc="http://creativecommons.org/ns#"
   xmlns:rdf="http://www.w3.org/1999/02/22-rdf-syntax-ns#"
   xmlns:svg="http://www.w3.org/2000/svg"
   xmlns="http://www.w3.org/2000/svg"
   xmlns:sodipodi="http://sodipodi.sourceforge.net/DTD/sodipodi-0.dtd"
   xmlns:inkscape="http://www.inkscape.org/namespaces/inkscape"
   inkscape:export-ydpi="96"
   inkscape:export-xdpi="96"
   width="400"
   height="300"
   id="svg11300"
   sodipodi:version="0.32"
   inkscape:version="0.92.4 (5da689c313, 2019-01-14)"
   sodipodi:docname="remmina-panel.svg"
   inkscape:output_extension="org.inkscape.output.svg.inkscape"
   version="1.0"
   style="display:inline;enable-background:new"
   inkscape:export-filename="C:\Users\sblav\Pictures\vertical oblong template.png">
  <title
     id="title3004">Suru Icon Theme Template</title>
  <sodipodi:namedview
     stroke="#ef2929"
     fill="#f57900"
     id="base"
     pagecolor="#ffffff"
     bordercolor="#000000"
     borderopacity="0.25490196"
     inkscape:pageopacity="0"
     inkscape:pageshadow="2"
     inkscape:zoom="1"
     inkscape:cx="280.02842"
     inkscape:cy="199.51935"
     inkscape:current-layer="layer8"
     showgrid="false"
     inkscape:grid-bbox="true"
     inkscape:document-units="px"
     inkscape:showpageshadow="false"
     inkscape:window-width="1296"
     inkscape:window-height="704"
     inkscape:window-x="70"
     inkscape:window-y="27"
     width="400px"
     height="300px"
     inkscape:snap-nodes="true"
     inkscape:snap-bbox="true"
     gridtolerance="10000"
     inkscape:object-nodes="true"
     inkscape:snap-grids="true"
     showguides="true"
     inkscape:guide-bbox="true"
     inkscape:window-maximized="1"
     inkscape:bbox-paths="true"
     inkscape:snap-bbox-midpoints="true"
     inkscape:snap-global="true"
     inkscape:object-paths="true"
     inkscape:snap-intersection-paths="true"
     inkscape:snap-smooth-nodes="true"
     inkscape:pagecheckerboard="false"
     showborder="false">
    <inkscape:grid
       spacingy="1"
       spacingx="1"
       id="grid5883"
       type="xygrid"
       enabled="true"
       visible="true"
       empspacing="4"
       snapvisiblegridlinesonly="true"
       originx="0"
       originy="0" />
    <inkscape:grid
       type="xygrid"
       id="grid11592"
       empspacing="2"
       visible="true"
       enabled="false"
       spacingx="0.5"
       spacingy="0.5"
       color="#ff0000"
       opacity="0.1254902"
       empcolor="#ff0000"
       empopacity="0.25098039"
       snapvisiblegridlinesonly="true"
       originx="0"
       originy="0" />
  </sodipodi:namedview>
  <defs
     id="defs3">
    <linearGradient
       id="linearGradient954">
      <stop
         id="stop950"
         offset="0"
         style="stop-color:#faf8f6;stop-opacity:1" />
      <stop
         id="stop952"
         offset="1"
         style="stop-color:#f1f0e9;stop-opacity:1" />
    </linearGradient>
    <clipPath
       clipPathUnits="userSpaceOnUse"
       id="clipPath9430">
      <path
         sodipodi:nodetypes="sssssssss"
         inkscape:connector-curvature="0"
         id="path9432"
         d="m 166.0625,-196 h 179.875 C 491.2348,-196 512,-175.28677 512,-30.125 v 148.25 C 512,263.28618 491.2348,284 345.9375,284 H 166.0625 C 20.7652,284 0,263.28618 0,118.125 V -30.125 C 0,-175.28677 20.7652,-196 166.0625,-196 Z"
         style="color:#000000;display:inline;overflow:visible;visibility:visible;fill:#ffffff;fill-opacity:1;fill-rule:nonzero;stroke:none;stroke-width:1;marker:none;enable-background:new" />
    </clipPath>
    <clipPath
       clipPathUnits="userSpaceOnUse"
       id="clipPath1082">
      <path
         sodipodi:nodetypes="sssssssss"
         inkscape:connector-curvature="0"
         id="path1084"
         d="M 361.9375,-212 C 507.2348,-212 528,-191.28677 528,-46.125 V 70.125 C 528,215.28618 507.2348,236 361.9375,236 H 214.0625 C 68.7652,236 48,215.28618 48,70.125 V -46.125 C 48,-191.28677 68.7652,-212 214.0625,-212 Z"
         style="display:inline;opacity:1;fill:#8c59d9;fill-opacity:1;stroke:none;stroke-width:2;stroke-linecap:round;stroke-linejoin:round;stroke-miterlimit:4;stroke-dasharray:none;stroke-dashoffset:0;stroke-opacity:1;enable-background:new" />
    </clipPath>
    <clipPath
       clipPathUnits="userSpaceOnUse"
       id="clipPath994">
      <path
         style="color:#000000;display:inline;overflow:visible;visibility:visible;fill:#cdcdcd;fill-opacity:1;fill-rule:nonzero;stroke:none;stroke-width:2;stroke-miterlimit:4;stroke-dasharray:none;stroke-opacity:1;marker:none;enable-background:accumulate"
         d="m 335.73108,62 c -8.82418,0 -9.77365,0.90635 -9.7304,9.74838 V 84 96.25162 c -0.0433,8.84203 0.90622,9.74838 9.7304,9.74838 h 16.53919 c 8.82418,0 9.7304,-0.90625 9.7304,-9.74838 V 84 71.74838 C 362.00067,62.90625 361.09445,62 352.27027,62 Z"
         id="path996"
         inkscape:connector-curvature="0"
         sodipodi:nodetypes="scccssscsss" />
    </clipPath>
    <clipPath
       clipPathUnits="userSpaceOnUse"
       id="clipPath959">
      <path
         style="color:#000000;display:inline;overflow:visible;visibility:visible;opacity:1;fill:#46a926;fill-opacity:1;fill-rule:nonzero;stroke:none;stroke-width:2;stroke-miterlimit:4;stroke-dasharray:none;stroke-opacity:1;marker:none;enable-background:accumulate"
         d="m 330.1929,133.99999 c -5.61538,0 -6.21958,0.57678 -6.19206,6.20352 v 7.79648 7.79648 c -0.0276,5.62673 0.57668,6.20351 6.19206,6.20351 h 11.615 c 5.6154,0 6.19208,-0.5767 6.19208,-6.20351 v -7.79648 -7.79648 c 0,-5.6268 -0.5767,-6.20352 -6.19208,-6.20352 z"
         id="path961"
         inkscape:connector-curvature="0"
         sodipodi:nodetypes="scccssscsss" />
    </clipPath>
    <clipPath
       clipPathUnits="userSpaceOnUse"
       id="clipPath971">
      <path
         style="color:#000000;display:inline;overflow:visible;visibility:visible;opacity:1;fill:#46a926;fill-opacity:1;fill-rule:nonzero;stroke:none;stroke-width:2;stroke-miterlimit:4;stroke-dasharray:none;stroke-opacity:1;marker:none;enable-background:accumulate"
         d="m 327.8652,189 c -4.41209,0 -4.88682,0.45318 -4.8652,4.87419 V 200 206.12581 C 322.9783,210.54682 323.45311,211 327.8652,211 h 8.2696 C 340.54689,211 341,210.54688 341,206.12581 V 200 193.87419 C 341,189.45313 340.54688,189 336.13479,189 Z"
         id="path973"
         inkscape:connector-curvature="0"
         sodipodi:nodetypes="scccssscsss" />
    </clipPath>
    <clipPath
       clipPathUnits="userSpaceOnUse"
       id="clipPath983">
      <path
         sodipodi:nodetypes="scccssscsss"
         inkscape:connector-curvature="0"
         id="path985"
         d="m 325.09646,237 c -2.80769,0 -3.10979,0.28839 -3.09603,3.10176 V 244 v 3.89824 c -0.0138,2.81337 0.28834,3.10176 3.09603,3.10176 h 5.8075 C 333.71166,251 334,250.71165 334,247.89824 V 244 240.10176 C 334,237.28836 333.71165,237 330.90396,237 Z"
         style="color:#000000;display:inline;overflow:visible;visibility:visible;opacity:1;fill:#46a926;fill-opacity:1;fill-rule:nonzero;stroke:none;stroke-width:2;stroke-miterlimit:4;stroke-dasharray:none;stroke-opacity:1;marker:none;enable-background:accumulate" />
    </clipPath>
    <linearGradient
       id="linearGradient4336-3">
      <stop
         style="stop-color:#5884f4;stop-opacity:1"
         offset="0"
         id="stop4338-8" />
      <stop
         id="stop4344-3"
         offset="0.27800092"
         style="stop-color:#5884f4;stop-opacity:1" />
      <stop
         style="stop-color:#2f5fdd;stop-opacity:1"
         offset="0.27800092"
         id="stop4346-3" />
      <stop
         id="stop4350-1"
         offset="0.70735365"
         style="stop-color:#2f5fdd;stop-opacity:1" />
      <stop
         id="stop4348-6"
         offset="0.70936078"
         style="stop-color:#234db8;stop-opacity:1" />
      <stop
         style="stop-color:#234db8;stop-opacity:1"
         offset="1"
         id="stop4340-0" />
    </linearGradient>
    <clipPath
       clipPathUnits="userSpaceOnUse"
       id="clipPath994-1">
      <path
         style="color:#000000;display:inline;overflow:visible;visibility:visible;fill:#cdcdcd;fill-opacity:1;fill-rule:nonzero;stroke:none;stroke-width:2;stroke-miterlimit:4;stroke-dasharray:none;stroke-opacity:1;marker:none;enable-background:accumulate"
         d="m 335.73108,62 c -8.82418,0 -9.77365,0.90635 -9.7304,9.74838 V 84 96.25162 c -0.0433,8.84203 0.90622,9.74838 9.7304,9.74838 h 16.53919 c 8.82418,0 9.7304,-0.90625 9.7304,-9.74838 V 84 71.74838 C 362.00067,62.90625 361.09445,62 352.27027,62 Z"
         id="path996-8"
         inkscape:connector-curvature="0"
         sodipodi:nodetypes="scccssscsss" />
    </clipPath>
    <linearGradient
       id="linearGradient7537">
      <stop
         style="stop-color:#f37e40;stop-opacity:1"
         offset="0"
         id="stop7539" />
      <stop
         style="stop-color:#f34f17;stop-opacity:1"
         offset="1"
         id="stop7541" />
    </linearGradient>
  </defs>
  <metadata
     id="metadata4">
    <rdf:RDF>
      <cc:Work
         rdf:about="">
        <dc:format>image/svg+xml</dc:format>
        <dc:type
           rdf:resource="http://purl.org/dc/dcmitype/StillImage" />
        <dc:creator>
          <cc:Agent>
            <dc:title>Sam Hewitt</dc:title>
          </cc:Agent>
        </dc:creator>
        <dc:source />
        <cc:license
           rdf:resource="http://creativecommons.org/licenses/by-sa/4.0/" />
        <dc:title>Suru Icon Theme Template</dc:title>
        <dc:subject>
          <rdf:Bag />
        </dc:subject>
        <dc:date />
        <dc:rights>
          <cc:Agent>
            <dc:title />
          </cc:Agent>
        </dc:rights>
        <dc:publisher>
          <cc:Agent>
            <dc:title />
          </cc:Agent>
        </dc:publisher>
        <dc:identifier />
        <dc:relation />
        <dc:language />
        <dc:coverage />
        <dc:description />
        <dc:contributor>
          <cc:Agent>
            <dc:title />
          </cc:Agent>
        </dc:contributor>
      </cc:Work>
      <cc:Work
         rdf:about="">
        <dc:format>image/svg+xml</dc:format>
        <dc:type
           rdf:resource="http://purl.org/dc/dcmitype/StillImage" />
      </cc:Work>
      <cc:License
         rdf:about="http://creativecommons.org/licenses/by-sa/4.0/">
        <cc:permits
           rdf:resource="http://creativecommons.org/ns#Reproduction" />
        <cc:permits
           rdf:resource="http://creativecommons.org/ns#Distribution" />
        <cc:requires
           rdf:resource="http://creativecommons.org/ns#Notice" />
        <cc:requires
           rdf:resource="http://creativecommons.org/ns#Attribution" />
        <cc:permits
           rdf:resource="http://creativecommons.org/ns#DerivativeWorks" />
        <cc:requires
           rdf:resource="http://creativecommons.org/ns#ShareAlike" />
      </cc:License>
    </rdf:RDF>
  </metadata>
  <g
     style="display:inline"
     inkscape:groupmode="layer"
     inkscape:label="Icon"
     id="layer1">
    <g
       style="display:none"
       inkscape:label="Baseplate"
       id="layer7"
       inkscape:groupmode="layer"
       sodipodi:insensitive="true">
      <text
         y="-8.2548828"
         xml:space="preserve"
         x="19.006836"
         style="font-style:normal;font-variant:normal;font-weight:normal;font-stretch:normal;line-height:0%;font-family:'DejaVu Sans';-inkscape-font-specification:'DejaVu Sans';display:inline;fill:#000000;fill-opacity:1;stroke:none;enable-background:new"
         inkscape:label="context"
         id="context"><tspan
           style="font-style:normal;font-variant:normal;font-weight:normal;font-stretch:normal;font-size:18px;line-height:1.25;font-family:'DejaVu Sans';-inkscape-font-specification:'DejaVu Sans'"
           y="-8.2548828"
           x="19.006836"
           sodipodi:role="line"
           id="tspan3933">apps</tspan></text>
      <text
         y="-8.2548828"
         xml:space="preserve"
         x="146.48828"
         style="font-style:normal;font-variant:normal;font-weight:bold;font-stretch:normal;line-height:0%;font-family:'DejaVu Sans';-inkscape-font-specification:'DejaVu Sans Bold';text-align:start;writing-mode:lr-tb;text-anchor:start;display:inline;fill:#000000;fill-opacity:1;stroke:none;enable-background:new"
         inkscape:label="icon-name"
         id="icon-name"><tspan
           style="font-style:normal;font-variant:normal;font-weight:bold;font-stretch:normal;font-size:18px;line-height:1.25;font-family:'DejaVu Sans';-inkscape-font-specification:'DejaVu Sans Bold'"
           y="-8.2548828"
           x="146.48828"
           sodipodi:role="line"
           id="tspan3937">remmina-panel</tspan></text>
      <rect
         style="display:inline;overflow:visible;visibility:visible;fill:#cdcdcd;fill-opacity:1;fill-rule:nonzero;stroke:none;stroke-width:2;marker:none;enable-background:accumulate"
         id="rect16x16"
         width="16"
         height="16"
         x="320"
         y="236"
         inkscape:label="16x16" />
      <rect
         style="display:inline;overflow:visible;visibility:visible;fill:#cdcdcd;fill-opacity:1;fill-rule:nonzero;stroke:none;stroke-width:2;marker:none;enable-background:accumulate"
         id="rect24x24"
         width="24"
         height="24"
         x="320"
         y="188"
         inkscape:label="24x24" />
      <rect
         style="display:inline;overflow:visible;visibility:visible;fill:#cdcdcd;fill-opacity:1;fill-rule:nonzero;stroke:none;stroke-width:2;marker:none;enable-background:accumulate"
         id="rect32x32"
         width="32"
         height="32"
         x="320"
         y="132"
         inkscape:label="32x32" />
      <rect
         inkscape:label="48x48"
         y="60"
         x="320"
         height="48"
         width="48"
         id="rect48x48"
         style="display:inline;overflow:visible;visibility:visible;fill:#cdcdcd;fill-opacity:1;fill-rule:nonzero;stroke:none;stroke-width:2;marker:none;enable-background:accumulate" />
      <rect
         style="display:inline;overflow:visible;visibility:visible;fill:#cdcdcd;fill-opacity:1;fill-rule:nonzero;stroke:none;stroke-width:2;marker:none;enable-background:accumulate"
         id="rect3951"
         width="256"
         height="256"
         x="24"
         y="28"
         inkscape:label="48x48" />
    </g>
    <g
       inkscape:groupmode="layer"
       id="layer8"
       inkscape:label="Backgrounds"
       style="display:inline">
      <path
         style="display:inline;opacity:1;fill:#ffffff;fill-opacity:1;stroke:none;stroke-width:1;stroke-linecap:round;stroke-linejoin:round;stroke-miterlimit:4;stroke-dasharray:none;stroke-opacity:1;enable-background:new"
         id="path11042-5"
         r="112"
         cy="156"
         cx="152"
         d=""
         inkscape:connector-curvature="0" />
      <path
         style="opacity:1;fill:#f5f6f7;fill-opacity:1;stroke:none;stroke-width:0.2;stroke-linejoin:bevel;stroke-miterlimit:4;stroke-dasharray:none;stroke-opacity:1"
         d="m 328,236.00002 a 8,8 0 0 0 -8,8 8,8 0 0 0 0.58984,3 8,8 0 0 0 0.0234,0.0508 l 1.74414,-1.02734 A 6,6 0 0 1 322,244.00002 a 6,6 0 0 1 6,-6 6,6 0 0 1 4.50977,2.05273 l 1.74609,-1.02734 A 8,8 0 0 0 333,237.75588 a 8,8 0 0 0 -0.004,-0.002 8,8 0 0 0 -0.47265,-0.3418 8,8 0 0 0 -0.17188,-0.125 8,8 0 0 0 -0.01,-0.006 8,8 0 0 0 -0.37305,-0.21484 8,8 0 0 0 -0.32813,-0.1875 8,8 0 0 0 -0.38867,-0.17774 8,8 0 0 0 -0.32031,-0.14453 8,8 0 0 0 -0.0117,-0.004 8,8 0 0 0 -0.49804,-0.16796 8,8 0 0 0 -0.24805,-0.084 8,8 0 0 0 -0.0117,-0.002 8,8 0 0 0 -0.41602,-0.0957 8,8 0 0 0 -0.37109,-0.082 8,8 0 0 0 -0.60156,-0.0762 8,8 0 0 0 -0.17188,-0.0215 8,8 0 0 0 -0.006,0 A 8,8 0 0 0 328,236.00001 Z m -4,4 v 1.80078 l 2,1.19922 -2,1.19922 v 0.85937 0.94141 l 5,-3 z m 11.38672,0.94922 -1.74414,1.02734 a 6,6 0 0 1 0.35742,2.02344 6,6 0 0 1 -6,6 6,6 0 0 1 -4.50977,-2.05273 l -1.74609,1.02734 a 8,8 0 0 0 1.25586,1.26953 8,8 0 0 0 0.004,0.002 8,8 0 0 0 0.47265,0.3418 8,8 0 0 0 0.18164,0.13086 8,8 0 0 0 0.37305,0.21484 8,8 0 0 0 0.32813,0.1875 8,8 0 0 0 0.38867,0.17774 8,8 0 0 0 0.33203,0.14844 8,8 0 0 0 0.49804,0.16796 8,8 0 0 0 0.25977,0.0859 8,8 0 0 0 0.41602,0.0957 8,8 0 0 0 0.37109,0.082 8,8 0 0 0 0.60156,0.0762 8,8 0 0 0 0.17188,0.0215 8,8 0 0 0 0.006,0 A 8,8 0 0 0 328,252 a 8,8 0 0 0 8,-8 8,8 0 0 0 -0.58984,-3 8,8 0 0 0 -0.0234,-0.0508 z M 332,242.00002 l -5,3 5,3 v -1.80078 l -2,-1.19922 2,-1.19922 v -0.85937 z"
         id="rect5597"
         inkscape:connector-curvature="0" />
      <path
         style="display:inline;opacity:1;fill:#f5f6f7;fill-opacity:1;stroke:none;stroke-width:0.2;stroke-linejoin:bevel;stroke-miterlimit:4;stroke-dasharray:none;stroke-opacity:1;enable-background:new"
         d="m 332,188.00003 a 12,12 0 0 0 -12,12 12,12 0 0 0 0.88476,4.5 12,12 0 0 0 0.0351,0.0762 l 2.61621,-1.54101 A 9,9 0 0 1 323,200.00003 a 9,9 0 0 1 9,-9 9,9 0 0 1 6.76465,3.07909 l 2.61914,-1.54102 a 12,12 0 0 0 -1.88379,-1.9043 12,12 0 0 0 -0.006,-0.003 12,12 0 0 0 -0.70897,-0.5127 12,12 0 0 0 -0.25783,-0.1875 12,12 0 0 0 -0.015,-0.009 12,12 0 0 0 -0.55957,-0.32226 12,12 0 0 0 -0.49219,-0.28125 12,12 0 0 0 -0.58301,-0.26661 12,12 0 0 0 -0.48046,-0.21679 12,12 0 0 0 -0.0176,-0.006 12,12 0 0 0 -0.74706,-0.25194 12,12 0 0 0 -0.37208,-0.126 12,12 0 0 0 -0.0176,-0.003 12,12 0 0 0 -0.62403,-0.14355 12,12 0 0 0 -0.55663,-0.123 12,12 0 0 0 -0.90234,-0.1143 12,12 0 0 0 -0.25782,-0.0323 12,12 0 0 0 -0.009,0 A 12,12 0 0 0 332,188 Z m -6,6 v 2.70117 l 3,1.79883 -3,1.79883 v 1.28905 1.41212 l 7.5,-4.5 z m 17.08008,1.42383 -2.61621,1.54101 a 9,9 0 0 1 0.53613,3.03516 9,9 0 0 1 -9,9 9,9 0 0 1 -6.76466,-3.0791 l -2.61913,1.54102 a 12,12 0 0 0 1.88379,1.90429 12,12 0 0 0 0.006,0.003 12,12 0 0 0 0.70897,0.5127 12,12 0 0 0 0.27246,0.19629 12,12 0 0 0 0.55958,0.32226 12,12 0 0 0 0.49219,0.28125 12,12 0 0 0 0.58301,0.26661 12,12 0 0 0 0.49804,0.22266 12,12 0 0 0 0.74706,0.25194 12,12 0 0 0 0.38966,0.12885 12,12 0 0 0 0.62403,0.14355 12,12 0 0 0 0.55663,0.123 12,12 0 0 0 0.90234,0.1143 12,12 0 0 0 0.25782,0.0323 12,12 0 0 0 0.009,0 A 12,12 0 0 0 332,212 a 12,12 0 0 0 12,-12 12,12 0 0 0 -0.88476,-4.5 12,12 0 0 0 -0.0351,-0.0762 z M 338,197.00003 l -7.5,4.5 7.5,4.5 v -2.70117 l -3,-1.79883 3,-1.79883 v -1.28907 z"
         id="rect5597-3"
         inkscape:connector-curvature="0" />
      <path
         style="display:inline;opacity:1;fill:#f5f6f7;fill-opacity:1;stroke:none;stroke-width:0.2;stroke-linejoin:bevel;stroke-miterlimit:4;stroke-dasharray:none;stroke-opacity:1;enable-background:new"
         d="m 335.99999,132.00005 a 16,15.999967 0 0 0 -16,15.99996 16,15.999967 0 0 0 1.17968,5.99999 16,15.999967 0 0 0 0.0468,0.1016 l 3.48828,-2.05467 a 12,11.999975 0 0 1 -0.71476,-4.04692 12,11.999975 0 0 1 12,-11.99997 12,11.999975 0 0 1 9.01953,4.10544 l 3.49219,-2.05469 a 16,15.999967 0 0 0 -2.51172,-2.53906 16,15.999967 0 0 0 -0.008,-0.004 16,15.999967 0 0 0 -0.9453,-0.6836 16,15.999967 0 0 0 -0.34377,-0.25 16,15.999967 0 0 0 -0.02,-0.012 16,15.999967 0 0 0 -0.74609,-0.42967 16,15.999967 0 0 0 -0.65626,-0.375 16,15.999967 0 0 0 -0.77734,-0.35548 16,15.999967 0 0 0 -0.64062,-0.28906 16,15.999967 0 0 0 -0.0235,-0.008 16,15.999967 0 0 0 -0.99608,-0.33592 16,15.999967 0 0 0 -0.49611,-0.16799 16,15.999967 0 0 0 -0.0235,-0.004 16,15.999967 0 0 0 -0.83204,-0.1914 16,15.999967 0 0 0 -0.74217,-0.164 16,15.999967 0 0 0 -1.20312,-0.1524 16,15.999967 0 0 0 -0.34376,-0.0431 16,15.999967 0 0 0 -0.012,0 16,15.999967 0 0 0 -1.19041,-0.0461 z m -8,7.99998 v 3.60155 l 4,2.39844 -4,2.39843 v 1.71873 1.88283 l 10,-5.99999 z m 22.77344,1.89844 -3.48828,2.05467 a 12,11.999975 0 0 1 0.71484,4.04687 12,11.999975 0 0 1 -12,11.99998 12,11.999975 0 0 1 -9.01955,-4.10546 l -3.49217,2.05469 a 16,15.999967 0 0 0 2.51172,2.53905 16,15.999967 0 0 0 0.008,0.004 16,15.999967 0 0 0 0.94529,0.6836 16,15.999967 0 0 0 0.36328,0.26172 16,15.999967 0 0 0 0.74611,0.42968 16,15.999967 0 0 0 0.65625,0.37499 16,15.999967 0 0 0 0.77735,0.35548 16,15.999967 0 0 0 0.66405,0.29688 16,15.999967 0 0 0 0.99608,0.33592 16,15.999967 0 0 0 0.51955,0.1718 16,15.999967 0 0 0 0.83204,0.1914 16,15.999967 0 0 0 0.74217,0.164 16,15.999967 0 0 0 1.20312,0.1524 16,15.999967 0 0 0 0.34376,0.0431 16,15.999967 0 0 0 0.012,0 16,15.999967 0 0 0 1.19095,0.0468 16,15.999967 0 0 0 16,-15.99997 16,15.999967 0 0 0 -1.17968,-5.99999 16,15.999967 0 0 0 -0.0468,-0.1016 z m -6.77344,2.10155 -10,5.99999 10,5.99999 v -3.60156 l -4,-2.39843 4,-2.39844 v -1.71875 z"
         id="rect5597-3-6"
         inkscape:connector-curvature="0" />
      <path
         style="display:inline;opacity:1;fill:#f5f6f7;fill-opacity:1;stroke:none;stroke-width:0.2;stroke-linejoin:bevel;stroke-miterlimit:4;stroke-dasharray:none;stroke-opacity:1;enable-background:new"
         d="m 344,60.000061 a 24,24.000046 0 0 0 -24,24.000046 24,24.000046 0 0 0 1.76952,9.000025 24,24.000046 0 0 0 0.0702,0.1524 l 5.23242,-3.082034 A 18,18.000034 0 0 1 326,84.000107 a 18,18.000034 0 0 1 18,-18.000034 18,18.000034 0 0 1 13.5293,6.158191 l 5.23828,-3.082046 A 24,24.000046 0 0 0 359,65.267611 a 24,24.000046 0 0 0 -0.012,-0.006 24,24.000046 0 0 0 -1.41794,-1.025402 24,24.000046 0 0 0 -0.51566,-0.375 24,24.000046 0 0 0 -0.03,-0.018 24,24.000046 0 0 0 -1.11914,-0.644522 24,24.000046 0 0 0 -0.98438,-0.562501 24,24.000046 0 0 0 -1.16602,-0.533221 24,24.000046 0 0 0 -0.96092,-0.433581 24,24.000046 0 0 0 -0.0352,-0.012 24,24.000046 0 0 0 -1.49412,-0.503881 24,24.000046 0 0 0 -0.74416,-0.252 24,24.000046 0 0 0 -0.0352,-0.006 24,24.000046 0 0 0 -1.24806,-0.287101 24,24.000046 0 0 0 -1.11326,-0.246 24,24.000046 0 0 0 -1.80468,-0.228601 24,24.000046 0 0 0 -0.51564,-0.0646 24,24.000046 0 0 0 -0.018,0 A 24,24.000046 0 0 0 344,60.000001 Z m -12,12.000023 v 5.40235 l 6,3.597667 -6,3.597667 v 2.578105 2.824245 l 15,-9.000017 z m 34.16016,2.847665 -5.23242,3.082026 A 18,18.000034 0 0 1 362,84.000107 18,18.000034 0 0 1 344,102.00015 18,18.000034 0 0 1 330.47068,95.841937 l -5.23826,3.082046 A 24,24.000046 0 0 0 329,102.73257 a 24,24.000046 0 0 0 0.012,0.006 24,24.000046 0 0 0 1.41794,1.0254 24,24.000046 0 0 0 0.54492,0.39258 24,24.000046 0 0 0 1.11916,0.64452 24,24.000046 0 0 0 0.98438,0.56251 24,24.000046 0 0 0 1.16602,0.53322 24,24.000046 0 0 0 0.99608,0.44532 24,24.000046 0 0 0 1.49412,0.50388 24,24.000046 0 0 0 0.77932,0.2577 24,24.000046 0 0 0 1.24806,0.2871 24,24.000046 0 0 0 1.11326,0.246 24,24.000046 0 0 0 1.80468,0.2286 24,24.000046 0 0 0 0.51564,0.0646 24,24.000046 0 0 0 0.018,0 A 24,24.000046 0 0 0 344,108 24,24.000046 0 0 0 368,83.999947 24,24.000046 0 0 0 366.23048,74.99993 24,24.000046 0 0 0 366.16028,74.847529 Z M 356,78.000095 l -15,9.000018 15,9.000025 v -5.402359 l -6,-3.597666 6,-3.597667 v -2.578145 z"
         id="rect5597-3-7"
         inkscape:connector-curvature="0" />
      <path
         style="display:inline;opacity:1;fill:#f5f6f7;fill-opacity:1;stroke:none;stroke-width:0.2;stroke-linejoin:bevel;stroke-miterlimit:4;stroke-dasharray:none;stroke-opacity:1;enable-background:new"
         d="M 152.00002,28.000227 A 127.99999,127.99973 0 0 0 24.000004,155.99995 a 127.99999,127.99973 0 0 0 9.437439,47.9999 127.99999,127.99973 0 0 0 0.3744,0.8128 l 27.90626,-16.4374 a 95.999994,95.999796 0 0 1 -5.71808,-32.3753 95.999994,95.999796 0 0 1 95.999997,-95.999791 95.999994,95.999796 0 0 1 72.15626,32.843557 l 27.93749,-16.437512 a 127.99999,127.99973 0 0 0 -20.09376,-20.31249 127.99999,127.99973 0 0 0 -0.064,-0.032 127.99999,127.99973 0 0 0 -7.56234,-5.468789 127.99999,127.99973 0 0 0 -2.75019,-1.999995 127.99999,127.99973 0 0 0 -0.16,-0.096 127.99999,127.99973 0 0 0 -5.96875,-3.437433 127.99999,127.99973 0 0 0 -5.25002,-2.999994 127.99999,127.99973 0 0 0 -6.21878,-2.843833 127.99999,127.99973 0 0 0 -5.1249,-2.312422 127.99999,127.99973 0 0 0 -0.18774,-0.064 127.99999,127.99973 0 0 0 -7.96864,-2.687354 127.99999,127.99973 0 0 0 -3.96885,-1.343998 127.99999,127.99973 0 0 0 -0.18773,-0.032 127.99999,127.99973 0 0 0 -6.65632,-1.531197 127.99999,127.99973 0 0 0 -5.93739,-1.311997 127.99999,127.99973 0 0 0 -9.62496,-1.219198 127.99999,127.99973 0 0 0 -2.75008,-0.344532 127.99999,127.99973 0 0 0 -0.096,0 127.99999,127.99973 0 0 0 -9.5233,-0.369066 z M 88.000021,92.000091 v 28.812419 l 31.999999,19.18748 -31.999999,19.18748 v 13.74984 15.06258 l 79.999999,-47.9999 z m 182.187509,15.187489 -27.90624,16.4374 a 95.999994,95.999796 0 0 1 5.71872,32.37497 95.999994,95.999796 0 0 1 -95.99999,95.9998 95.999994,95.999796 0 0 1 -72.156371,-32.84366 L 51.906264,235.5936 a 127.99999,127.99973 0 0 0 20.093758,20.31238 127.99999,127.99973 0 0 0 0.064,0.032 127.99999,127.99973 0 0 0 7.562347,5.46879 127.99999,127.99973 0 0 0 2.906239,2.09376 127.99999,127.99973 0 0 0 5.968853,3.43743 127.99999,127.99973 0 0 0 5.250027,2.99999 127.99999,127.99973 0 0 0 6.218773,2.84384 127.99999,127.99973 0 0 0 5.312429,2.37503 127.99999,127.99973 0 0 0 7.96864,2.68736 127.99999,127.99973 0 0 0 4.15637,1.37439 127.99999,127.99973 0 0 0 6.65632,1.5312 127.99999,127.99973 0 0 0 5.93739,1.312 127.99999,127.99973 0 0 0 9.62495,1.21919 127.99999,127.99973 0 0 0 2.75008,0.34454 127.99999,127.99973 0 0 0 0.096,0 127.99999,127.99973 0 0 0 9.52758,0.3744 127.99999,127.99973 0 0 0 127.99999,-127.99973 127.99999,127.99973 0 0 0 -9.43744,-47.9999 127.99999,127.99973 0 0 0 -0.3744,-0.8128 z m -54.18752,16.81244 -79.99999,47.9999 79.99999,47.9999 V 191.1874 l -31.99999,-19.18748 31.99999,-19.18748 v -13.75005 z"
         id="rect5597-3-5"
         inkscape:connector-curvature="0" />
    </g>
    <g
       inkscape:groupmode="layer"
       id="layer6"
       inkscape:label="Pictograms"
       style="display:inline" />
    <g
       inkscape:groupmode="layer"
       id="layer5"
       inkscape:label="Highlights" />
  </g>
</svg>
