<?xml version="1.0" encoding="UTF-8" standalone="no"?>
<svg
   height="16px"
   viewBox="0 0 16 16"
   width="16px"
   version="1.1"
   id="svg3"
   sodipodi:docname="dbus-symbolic.svg"
   inkscape:version="1.4 (1:1.4+202410161351+e7c3feb100)"
   xmlns:inkscape="http://www.inkscape.org/namespaces/inkscape"
   xmlns:sodipodi="http://sodipodi.sourceforge.net/DTD/sodipodi-0.dtd"
   xmlns="http://www.w3.org/2000/svg"
   xmlns:svg="http://www.w3.org/2000/svg">
  <defs
     id="defs3" />
  <sodipodi:namedview
     id="namedview3"
     pagecolor="#ffffff"
     bordercolor="#000000"
     borderopacity="0.25"
     inkscape:showpageshadow="2"
     inkscape:pageopacity="0.0"
     inkscape:pagecheckerboard="0"
     inkscape:deskcolor="#d1d1d1"
     showgrid="true"
     inkscape:zoom="40.646759"
     inkscape:cx="7.1469413"
     inkscape:cy="9.5333554"
     inkscape:window-width="1860"
     inkscape:window-height="1011"
     inkscape:window-x="0"
     inkscape:window-y="0"
     inkscape:window-maximized="1"
     inkscape:current-layer="svg3">
    <inkscape:grid
       id="grid3"
       units="px"
       originx="0"
       originy="0"
       spacingx="1"
       spacingy="1"
       empcolor="#0099e5"
       empopacity="0.30196078"
       color="#0099e5"
       opacity="0.14901961"
       empspacing="5"
       enabled="true"
       visible="true" />
  </sodipodi:namedview>
  <filter
     id="a"
     height="1"
     width="1"
     x="0"
     y="0">
    <feColorMatrix
       in="SourceGraphic"
       type="matrix"
       values="0 0 0 0 1 0 0 0 0 1 0 0 0 0 1 0 0 0 1 0"
       id="feColorMatrix1" />
  </filter>
  <mask
     id="b">
    <g
       filter="url(#a)"
       id="g1">
      <rect
         fill-opacity="0.170685"
         height="16"
         width="16"
         id="rect1" />
    </g>
  </mask>
  <clipPath
     id="c">
    <rect
       height="152"
       width="192"
       id="rect2" />
  </clipPath>
  <g
     clip-path="url(#c)"
     mask="url(#b)"
     transform="matrix(1 0 0 1 -168 -16)"
     id="g2">
    <path
       d="m 111.730469 76.027344 l -79.699219 -0.070313 l -0.140625 8.210938 l 80.160156 12.03125 z m 0 0"
       id="path2" />
  </g>
  <path
     d="M 5,2 C 4.2447118,3.5569906 4,7 4,7 H 1.5 C 1.222656,7 1,7.222656 1,7.5 1,7.777344 1.222656,8 1.5,8 H 4 13 14.5 C 14.777344,8 15,7.777344 15,7.5 15,7.222656 14.777344,7 14.5,7 H 12 C 12,7 11.587646,3.2734955 11,2 9.2956251,2.4155356 9,3.4533608 8,3.4705021 7,3.4876434 6.6410262,2.4469688 5,2 Z"
     style="fill:#808080;fill-opacity:1"
     id="path4"
     sodipodi:nodetypes="ccsssccssscczc" />
  <path
     d="m 4,8 v 1 3 L 2,11 v 4 h 4 1 3 4 v -4 l -2,1 V 9 8 Z m 1,1 h 3 3 c 0,1.10457 -0.671573,2 -1.5,2 C 8.6715729,11 8,10.10457 8,9 8,10.10457 7.3284271,11 6.5,11 5.6715729,11 5,10.10457 5,9 Z"
     style="fill:#808080;stroke-width:1.99999;paint-order:stroke fill markers"
     id="path32"
     sodipodi:nodetypes="cccccccccccccccccscsc" />
</svg>
