<svg height="16" width="16" xmlns="http://www.w3.org/2000/svg">
    <g color="#000" fill="gray">
        <path d="M5 4v4.5c0 1.25.393 1.759 1.023 2.09.631.33 1.594.41 2.606.41h4.541v1H4.629c-1.052 0-2.153-.044-3.07-.525C.64 10.993 0 10 0 8.5V4h1v4.5c0 1.25.393 1.759 1.023 2.09.631.33 1.594.41 2.606.41h.283C4.354 10.447 4 9.614 4 8.5V4z" style="line-height:normal;font-variant-ligatures:none;font-variant-position:normal;font-variant-caps:normal;font-variant-numeric:normal;font-variant-alternates:normal;font-feature-settings:normal;text-indent:0;text-align:start;text-decoration-line:none;text-decoration-style:solid;text-decoration-color:#000;text-transform:none;shape-padding:0;isolation:auto;mix-blend-mode:normal;marker:none" font-weight="400" font-family="sans-serif" white-space="normal" overflow="visible"/>
        <path d="M11 9l.002 5c.76-.348 1.535-.737 2.323-1.166.78-.431 1.534-.876 2.259-1.334-.725-.449-1.478-.889-2.26-1.32A43.084 43.084 0 0 0 11.002 9z" style="marker:none" overflow="visible"/>
    </g>
</svg>
