<?xml version="1.0" encoding="UTF-8" standalone="no"?>
<svg
   height="16"
   id="svg7384"
   version="1.1"
   width="16"
   sodipodi:docname="share-symbolic.svg"
   inkscape:version="1.2 (1:1.2.1+202207142221+cd75a1ee6d)"
   xmlns:inkscape="http://www.inkscape.org/namespaces/inkscape"
   xmlns:sodipodi="http://sodipodi.sourceforge.net/DTD/sodipodi-0.dtd"
   xmlns="http://www.w3.org/2000/svg"
   xmlns:svg="http://www.w3.org/2000/svg"
   xmlns:rdf="http://www.w3.org/1999/02/22-rdf-syntax-ns#"
   xmlns:cc="http://creativecommons.org/ns#"
   xmlns:dc="http://purl.org/dc/elements/1.1/"
   xmlns:osb="http://www.openswatchbook.org/uri/2009/osb">
  <sodipodi:namedview
     id="namedview21"
     pagecolor="#ffffff"
     bordercolor="#666666"
     borderopacity="1.0"
     inkscape:showpageshadow="2"
     inkscape:pageopacity="0.0"
     inkscape:pagecheckerboard="0"
     inkscape:deskcolor="#d1d1d1"
     showgrid="true"
     inkscape:zoom="29.5"
     inkscape:cx="2.7457627"
     inkscape:cy="9.9661017"
     inkscape:window-width="1920"
     inkscape:window-height="1043"
     inkscape:window-x="0"
     inkscape:window-y="0"
     inkscape:window-maximized="1"
     inkscape:current-layer="svg7384">
    <inkscape:grid
       type="xygrid"
       id="grid250" />
  </sodipodi:namedview>
  <metadata
     id="metadata20854">
    <rdf:RDF>
      <cc:Work
         rdf:about="">
        <dc:title />
        <dc:format>image/svg+xml</dc:format>
        <dc:type
           rdf:resource="http://purl.org/dc/dcmitype/StillImage" />
      </cc:Work>
    </rdf:RDF>
  </metadata>
  <defs
     id="defs7386">
    <linearGradient
       id="linearGradient5606"
       osb:paint="solid">
      <stop
         id="stop5608"
         offset="0"
         style="stop-color:#000000;stop-opacity:1;" />
    </linearGradient>
    <linearGradient
       id="linearGradient4526"
       osb:paint="solid">
      <stop
         id="stop4528"
         offset="0"
         style="stop-color:#ffffff;stop-opacity:1;" />
    </linearGradient>
    <linearGradient
       id="linearGradient3600-4"
       osb:paint="gradient">
      <stop
         id="stop3602-7"
         offset="0"
         style="stop-color:#f4f4f4;stop-opacity:1" />
      <stop
         id="stop3604-6"
         offset="1"
         style="stop-color:#dbdbdb;stop-opacity:1" />
    </linearGradient>
  </defs>
  <path
     id="path491"
     style="color:#000000;font-style:normal;font-variant:normal;font-weight:normal;font-stretch:normal;font-size:medium;line-height:normal;font-family:sans-serif;font-variant-ligatures:normal;font-variant-position:normal;font-variant-caps:normal;font-variant-numeric:normal;font-variant-alternates:normal;font-feature-settings:normal;text-indent:0;text-align:start;text-decoration:none;text-decoration-line:none;text-decoration-style:solid;text-decoration-color:#000000;letter-spacing:normal;word-spacing:normal;text-transform:none;writing-mode:lr-tb;direction:ltr;text-orientation:mixed;dominant-baseline:auto;baseline-shift:baseline;text-anchor:start;white-space:normal;shape-padding:0;clip-rule:nonzero;display:inline;overflow:visible;visibility:visible;isolation:auto;mix-blend-mode:normal;color-interpolation:sRGB;color-interpolation-filters:linearRGB;solid-color:#000000;solid-opacity:1;vector-effect:none;fill:#808080;fill-opacity:1;fill-rule:nonzero;stroke:none;stroke-width:1px;stroke-linecap:round;stroke-linejoin:round;stroke-miterlimit:4;stroke-dasharray:none;stroke-dashoffset:0;stroke-opacity:1;color-rendering:auto;image-rendering:auto;shape-rendering:auto;text-rendering:auto;enable-background:accumulate"
     d="M 8 1 C 7.5417205 1.7249993 7.0968052 2.3969552 6.6660156 3.1777344 C 6.2362661 3.9659136 5.8476597 4.7395808 5.5 5.5 L 7 5.5 L 7 10.001953 L 9 10 L 9 5.5 L 10.5 5.5019531 C 10.14307 4.7411139 9.7503021 3.9663536 9.3203125 3.1777344 C 8.8895329 2.3969052 8.4491096 1.7249993 8 1 z M 4.7871094 7 C 4.1101657 7.00559 3.5365095 7.0481554 3.0273438 7.3027344 C 2.6879047 7.4724638 2.3973382 7.7651762 2.2304688 8.140625 C 2.0635991 8.5160838 2 8.9583315 2 9.5 L 2 10 L 2 11 L 2 11.5 C 2 12.041668 2.063599 12.483915 2.2304688 12.859375 C 2.3973384 13.234825 2.6879044 13.527536 3.0273438 13.697266 C 3.7062324 14.036704 4.500002 14 5.5 14 L 10.5 14 C 11.499998 14 12.293768 14.036704 12.972656 13.697266 C 13.312096 13.527536 13.602661 13.234825 13.769531 12.859375 C 13.936401 12.483915 14.00202 12.041668 14 11.5 L 14 11 L 14 10 L 14 9.5 C 14.002 8.9583315 13.9364 8.5160838 13.769531 8.140625 C 13.602661 7.7651762 13.312096 7.4724638 12.972656 7.3027344 C 12.293769 6.9632953 11.499997 7 10.5 7 L 10 7 L 10 8 L 10.5 8 C 11.499997 8 12.206234 8.0367064 12.527344 8.1972656 C 12.687904 8.2775354 12.772369 8.3598256 12.855469 8.546875 C 12.938599 8.7339144 13 9.041671 13 9.5 L 13 10 L 13 11 L 13 11.5 C 13 11.95833 12.938599 12.266085 12.855469 12.453125 C 12.772369 12.640175 12.687904 12.722464 12.527344 12.802734 C 12.206234 12.963294 11.499998 13 10.5 13 L 5.5 13 C 4.500002 13 3.7937656 12.963304 3.4726562 12.802734 C 3.3120966 12.722434 3.2276612 12.640175 3.1445312 12.453125 C 3.0614314 12.266085 3 11.95833 3 11.5 L 3 11 L 3 10 L 3 9.5 C 3 9.041671 3.0614312 8.7339144 3.1445312 8.546875 C 3.2276612 8.3598256 3.3120968 8.2775653 3.4726562 8.1972656 C 3.7937653 8.0366962 4.500003 8 5.5 8 L 6 8 L 6 7 L 5.5 7 C 5.2500007 7 5.0127571 6.99814 4.7871094 7 z " />
</svg>
