<?xml version="1.0" encoding="UTF-8" standalone="no"?>
<!-- Created with Inkscape (http://www.inkscape.org/) -->

<svg
   width="16"
   height="16"
   viewBox="0 0 4.2333332 4.2333333"
   version="1.1"
   id="svg1"
   inkscape:version="1.4.1 (1:1.4.1+202503302257+93de688d07)"
   sodipodi:docname="text-strikethrough-symbolic.svg"
   xmlns:inkscape="http://www.inkscape.org/namespaces/inkscape"
   xmlns:sodipodi="http://sodipodi.sourceforge.net/DTD/sodipodi-0.dtd"
   xmlns="http://www.w3.org/2000/svg"
   xmlns:svg="http://www.w3.org/2000/svg">
  <sodipodi:namedview
     id="namedview1"
     pagecolor="#ffffff"
     bordercolor="#000000"
     borderopacity="0.25"
     inkscape:showpageshadow="2"
     inkscape:pageopacity="0.0"
     inkscape:pagecheckerboard="0"
     inkscape:deskcolor="#d1d1d1"
     inkscape:document-units="px"
     showgrid="true"
     inkscape:zoom="35.01448"
     inkscape:cx="5.611964"
     inkscape:cy="6.8685869"
     inkscape:window-width="1860"
     inkscape:window-height="1011"
     inkscape:window-x="0"
     inkscape:window-y="0"
     inkscape:window-maximized="1"
     inkscape:current-layer="layer1">
    <inkscape:grid
       id="grid1"
       units="px"
       originx="0"
       originy="0"
       spacingx="0.26458332"
       spacingy="0.26458333"
       empcolor="#0099e5"
       empopacity="0.30196078"
       color="#0099e5"
       opacity="0.14901961"
       empspacing="5"
       enabled="true"
       visible="true" />
  </sodipodi:namedview>
  <defs
     id="defs1" />
  <g
     inkscape:label="Layer 1"
     inkscape:groupmode="layer"
     id="layer1">
    <path
       d="M 1.841748,0.26458333 C 1.7347373,0.49060629 1.6305186,0.71973445 1.5296224,0.95187987 1.4287288,1.1840094 1.3260971,1.4280852 1.2221476,1.6846517 1.135339,1.9054008 1.046261,2.1377879 0.95498045,2.38125 H 3.2731852 C 3.1815196,2.1378023 3.0913186,1.9053984 3.0018839,1.6846517 2.9009904,1.4280852 2.7999456,1.1839988 2.69906,0.95187987 2.5981664,0.71974767 2.4944539,0.49061687 2.3874511,0.26458333 Z M 2.1166666,0.87849937 C 2.1839286,1.0342702 2.2631719,1.2298388 2.354895,1.4650269 2.433471,1.6664966 2.5156624,1.8882519 2.5988077,2.1166667 H 1.6340088 C 1.7166779,1.8889081 1.7979075,1.6683269 1.8737874,1.4696777 1.9655105,1.2375429 2.0463457,1.0403715 2.1166666,0.87849937 Z"
       style="fill:#808080;stroke-width:0.264583"
       id="path3" />
    <path
       d="M 0.85679523,2.6458333 C 0.765834,2.8923782 0.67045496,3.1568644 0.57102457,3.4395833 H 1.1720215 C 1.2148255,3.3174093 1.2573778,3.1953793 1.300179,3.0731974 1.346039,2.9479701 1.412404,2.7741033 1.4552083,2.6458333 Z m 1.89497477,0 c 0.042804,0.1282832 0.1076188,0.3005286 0.153479,0.4227132 0.04586,0.1221846 0.090518,0.2458201 0.1333252,0.3710368 H 3.6623087 C 3.5628761,3.1568644 3.4665418,2.8923782 3.3734374,2.6458333 Z"
       style="fill:#808080;stroke-width:0.264583"
       id="path2" />
  </g>
  <rect
     style="fill:#ff0000;fill-opacity:1;stroke-width:0.529167"
     class="error"
     id="rect1"
     width="3.7041667"
     height="0.26458332"
     x="0.2645832"
     y="2.1166666" />
</svg>
