<svg height="16" width="16" xmlns="http://www.w3.org/2000/svg">
    <g fill="gray">
        <path d="M3.994 0C2.736.015 1.815-.03 1.062.385a1.88 1.88 0 00-.837.998C.06 1.82 0 2.343 0 3v10c0 .658.06 1.179.225 1.617.164.439.461.789.837.996.753.415 1.674.372 2.932.387h8.012c1.258-.015 2.179.03 2.932-.385a1.88 1.88 0 00.837-.998c.165-.438.225-.96.225-1.617V3c0-.658-.06-1.179-.225-1.617a1.875 1.875 0 00-.838-.996C14.185-.028 13.264.015 12.006 0H3.998zM4 1h8c1.259.015 2.09.06 2.455.262.184.1.287.213.385.472.097.26.16.674.16 1.266v10c0 .592-.063 1.006-.16 1.266-.098.26-.202.371-.385.472-.366.202-1.197.247-2.455.262H4c-1.259-.015-2.09-.06-2.455-.262-.184-.1-.287-.213-.385-.472C1.063 14.006 1 13.592 1 13V3c0-.592.063-1.006.16-1.266.098-.26.203-.371.387-.472C1.913 1.06 2.74 1.015 4 1z" style="line-height:normal;font-variant-ligatures:normal;font-variant-position:normal;font-variant-caps:normal;font-variant-numeric:normal;font-variant-alternates:normal;font-feature-settings:normal;text-indent:0;text-align:start;text-decoration-line:none;text-decoration-style:solid;text-decoration-color:#000;text-transform:none;text-orientation:mixed;white-space:normal;shape-padding:0;isolation:auto;mix-blend-mode:normal;solid-color:#000;solid-opacity:1;marker:none" color="#000" font-weight="400" font-family="sans-serif" overflow="visible"/>
        <path d="M9.5 8a.499.499 0 100 1h2c.277 0 .5.223.5.5v.25a.25.25 0 01-.25.25H9.5c-.277 0-.5.223-.5.5v2c0 .277.223.5.5.5H13V9c0-.554-.446-1-1-1h-.5zm.75 3h1.5a.25.25 0 01.25.25v.5a.25.25 0 01-.25.25h-1.5a.25.25 0 01-.25-.25v-.5a.25.25 0 01.25-.25zM10.866 5.148l.986.998a.495.495 0 010 .706.51.51 0 01-.718 0l-.986-.998a.495.495 0 010-.706.51.51 0 01.718 0z"/>
    </g>
</svg>
