<svg xmlns="http://www.w3.org/2000/svg" height="16" width="16">
    <path style="line-height:normal;font-variant-ligatures:normal;font-variant-position:normal;font-variant-caps:normal;font-variant-numeric:normal;font-variant-alternates:normal;font-feature-settings:normal;text-indent:0;text-align:start;text-decoration-line:none;text-decoration-style:solid;text-decoration-color:#000;text-transform:none;text-orientation:mixed;white-space:normal;shape-padding:0;isolation:auto;mix-blend-mode:normal;solid-color:#000;solid-opacity:1" d="M12.07 6.008c-.377.02-.755.065-1.127.135l.37 1.964c.055-.01.113-.01.17-.02a6.5 6.5 0 00-1.926.626c.039-.02.076-.045.115-.065L8.799 6.85c-.68.33-1.315.748-1.885 1.246L8.23 9.602c.004-.005.01-.008.015-.012a6.5 6.5 0 00-1.205 1.394c.018-.027.031-.057.049-.084L5.422 9.793a8.425 8.425 0 00-.988 2.035l1.9.625c.011-.034.03-.065.041-.1a6.5 6.5 0 00-.15.463 6.5 6.5 0 00-.21 1.489c.002-.05-.006-.1-.003-.149l-1.996-.111c-.037.655.018 1.31.134 1.955h3.06A5.5 5.5 0 0116 10.26V6.77c-.197-.089-.39-.188-.594-.261l-.677 1.883.035.013a6.5 6.5 0 00-.578-.185 6.5 6.5 0 00-1.268-.203c.04.002.08-.002.12.002l.165-1.995a8.35 8.35 0 00-1.133-.017z" color="#000" font-weight="400" font-family="sans-serif" overflow="visible" fill="gray"/>
    <path d="M5.459 0A4 4 0 016 2a4 4 0 01-4 4 4 4 0 01-2-.541v2.209l.9.32.381-1.045A5 5 0 002 7a5 5 0 00.709-.057L3.092 8l1.851-.688-.375-1.029a5 5 0 001.121-.916l.942.545.976-1.717-.902-.52a5 5 0 00.287-1.46L8 2.039 7.645.096l-.961.17A5 5 0 006.57 0H5.46z" fill="gray"/>
</svg>
