<svg version="1.1" viewBox="0 0 16 16" xmlns="http://www.w3.org/2000/svg" xmlns:osb="http://www.openswatchbook.org/uri/2009/osb">
 <g transform="translate(-572 -220)">
  <path d="m576.99 220c-1.2582 0.0145-2.1789-0.0306-2.9316 0.38477-0.37637 0.20766-0.67323 0.55938-0.83789 0.99804-0.16467 0.43867-0.22461 0.95958-0.22461 1.6172v10c0 0.65761 0.0599 1.1786 0.22461 1.6172 0.16468 0.43861 0.46153 0.78852 0.83789 0.99609 0.75272 0.41513 1.6735 0.37165 2.9316 0.38672h2e-3 5.0059 4e-3c1.2582-0.0145 2.1789 0.0306 2.9316-0.38477 0.37637-0.20766 0.67322-0.55938 0.83789-0.99804 0.16439-0.43867 0.22447-0.95958 0.22447-1.6172v-10c0-0.65761-0.0599-1.1786-0.22461-1.6172-0.16468-0.43861-0.46153-0.78852-0.83789-0.99609-0.75272-0.41513-1.6736-0.37165-2.9316-0.38672h-2e-3 -5.0059zm6e-3 1h5c1.2586 0.0152 2.0891 0.0599 2.4551 0.26172 0.18342 0.10116 0.28722 0.21286 0.38476 0.47266 0.0973 0.25979 0.16002 0.67323 0.16002 1.2656v10c0 0.59239-0.0626 1.0057-0.16016 1.2656-0.0976 0.25991-0.20135 0.37147-0.38476 0.47266-0.36596 0.20192-1.1966 0.24701-2.4551 0.26172h-4.9941-6e-3c-1.2586-0.0152-2.0891-0.0599-2.4551-0.26172-0.18342-0.10116-0.28722-0.21286-0.38476-0.47266-0.0976-0.25979-0.16016-0.67323-0.16016-1.2656v-10c0-0.59239 0.0626-1.0057 0.16016-1.2656 0.0976-0.25991 0.20135-0.37147 0.38476-0.47266 0.36596-0.20192 1.1966-0.24702 2.4551-0.26172zm2.5 2c-1.3807 0-2.5 1.1193-2.5 2.5s1.1193 2.5 2.5 2.5 2.5-1.1193 2.5-2.5-1.1193-2.5-2.5-2.5zm0 1c0.82843 0 1.5 0.67157 1.5 1.5s-0.67157 1.5-1.5 1.5-1.5-0.67157-1.5-1.5 0.67157-1.5 1.5-1.5zm2.0781 4.9883c-0.10898-0.0129-0.23096 0.01-0.33398 0.0859l-1.3594 1.002c-0.12211-0.0505-0.25288-0.0763-0.38491-0.0761-0.13711 3e-4 -0.27284 0.029-0.39844 0.084l-1.3457-0.99218c-0.20603-0.15201-0.4867-0.0939-0.5918 0.0469l-0.0859 0.11328c-0.12662 0.16964-0.10641 0.49636 0.0996 0.64844l1.3301 0.98242c-5e-3 0.0389-7e-3 0.078-8e-3 0.11719 9.8e-4 0.35628 0.19145 0.68514 0.5 0.86328v1.6366c0 0.277 0.20866 0.5 0.46875 0.5h0.0625c0.26001 0 0.46891-0.223 0.46891-0.5v-1.6348c0.30916-0.17849 0.49972-0.50825 0.5-0.86523 0-0.0451-4e-3 -0.0902-0.01-0.13477l1.332-0.98242c0.20601-0.15208 0.22622-0.47882 0.0996-0.64843l-0.0859-0.11329c-0.0525-0.0704-0.14879-0.11991-0.25782-0.13281z" color="#000000" color-rendering="auto" dominant-baseline="auto" fill="#808080" image-rendering="auto" shape-rendering="auto" solid-color="#000000" style="font-feature-settings:normal;font-variant-alternates:normal;font-variant-caps:normal;font-variant-ligatures:normal;font-variant-numeric:normal;font-variant-position:normal;isolation:auto;mix-blend-mode:normal;shape-padding:0;text-decoration-color:#000000;text-decoration-line:none;text-decoration-style:solid;text-indent:0;text-orientation:mixed;text-transform:none;white-space:normal"/>
 </g>
</svg>
