<svg height="16" width="16" xmlns="http://www.w3.org/2000/svg">
    <g transform="translate(-472 -200)" fill="gray">
        <path d="M475.994 200c-1.258.015-2.179-.03-2.931.385a1.88 1.88 0 00-.838.998c-.165.438-.225.96-.225 1.617v10c0 .658.06 1.179.225 1.617.164.439.461.79.838.998.752.416 1.673.37 2.931.385H484.006c1.258-.015 2.179.03 2.932-.385a1.88 1.88 0 00.838-.998c.164-.438.224-.96.224-1.617v-10c0-.658-.06-1.179-.225-1.617a1.88 1.88 0 00-.837-.998c-.753-.416-1.674-.37-2.932-.385h-8.008zm.006 1h4v14h-4c-1.259-.015-2.09-.06-2.455-.262-.184-.1-.287-.212-.385-.472-.098-.26-.16-.674-.16-1.266v-10c0-.592.062-1.006.16-1.266s.201-.371.385-.472c.366-.202 1.196-.247 2.455-.262zm6 5h4v1h-4zm0 2h4v1h-4z" style="line-height:normal;font-variant-ligatures:normal;font-variant-position:normal;font-variant-caps:normal;font-variant-numeric:normal;font-variant-alternates:normal;font-feature-settings:normal;text-indent:0;text-align:start;text-decoration-line:none;text-decoration-style:solid;text-decoration-color:#000;text-transform:none;text-orientation:mixed;white-space:normal;shape-padding:0;isolation:auto;mix-blend-mode:normal;solid-color:#000;solid-opacity:1;marker:none" color="#000" font-weight="400" font-family="sans-serif" overflow="visible"/>
        <rect height="1" style="marker:none" width="3" x="475" y="205" color="#bebebe" overflow="visible"/>
        <rect height="1" style="marker:none" transform="rotate(90)" width="3" x="204" y="-477" color="#bebebe" overflow="visible"/>
        <rect height="1" style="marker:none" width="3" x="475" y="210" color="#bebebe" overflow="visible"/>
    </g>
</svg>
