<svg version="1.1" viewBox="0 0 16 16" xmlns="http://www.w3.org/2000/svg" xmlns:osb="http://www.openswatchbook.org/uri/2009/osb">
 <g transform="translate(-472 -200)" fill="#808080">
  <path d="m475.99 200c-1.2582 0.0145-2.1789-0.0306-2.9316 0.38477-0.37637 0.20766-0.67323 0.55938-0.83789 0.99804-0.16467 0.43867-0.22461 0.95958-0.22461 1.6172v10c0 0.65761 0.0599 1.1785 0.22461 1.6172 0.16467 0.43866 0.46152 0.79039 0.83789 0.99804 0.75275 0.41532 1.6734 0.3702 2.9316 0.38477h4e-3 8.0039 4e-3c1.2582-0.0145 2.1789 0.0306 2.9316-0.38477 0.37637-0.20766 0.67322-0.55938 0.83789-0.99804 0.16413-0.43867 0.22443-0.95958 0.22443-1.6172v-10c0-0.65761-0.0599-1.1785-0.22461-1.6172-0.16466-0.43866-0.46152-0.79038-0.83789-0.99804-0.75275-0.41534-1.6734-0.37025-2.9316-0.38477h-4e-3 -8.0039zm6e-3 1h4v14h-3.9943-6e-3c-1.2585-0.0147-2.0891-0.0598-2.4551-0.26172-0.18341-0.10119-0.2872-0.21274-0.38476-0.47266-0.0976-0.25989-0.16016-0.67323-0.16016-1.2656v-10c0-0.59239 0.0626-1.0057 0.16016-1.2656 0.0976-0.25991 0.20135-0.37147 0.38476-0.47266 0.36596-0.20191 1.1966-0.24701 2.4551-0.26172zm6 5h4v1h-4zm0 2h4v1h-4z" color="#000000" color-rendering="auto" dominant-baseline="auto" image-rendering="auto" shape-rendering="auto" solid-color="#000000" style="font-feature-settings:normal;font-variant-alternates:normal;font-variant-caps:normal;font-variant-ligatures:normal;font-variant-numeric:normal;font-variant-position:normal;isolation:auto;mix-blend-mode:normal;shape-padding:0;text-decoration-color:#000000;text-decoration-line:none;text-decoration-style:solid;text-indent:0;text-orientation:mixed;text-transform:none;white-space:normal"/>
  <rect x="475" y="205" width="3" height="1" color="#bebebe"/>
  <rect transform="rotate(90)" x="204" y="-477" width="3" height="1" color="#bebebe"/>
  <rect x="475" y="210" width="3" height="1" color="#bebebe"/>
 </g>
</svg>
