<?xml version="1.0" encoding="UTF-8" standalone="no"?>
<!-- Created with Inkscape (http://www.inkscape.org/) -->

<svg
   xmlns:dc="http://purl.org/dc/elements/1.1/"
   xmlns:cc="http://creativecommons.org/ns#"
   xmlns:rdf="http://www.w3.org/1999/02/22-rdf-syntax-ns#"
   xmlns:svg="http://www.w3.org/2000/svg"
   xmlns="http://www.w3.org/2000/svg"
   xmlns:xlink="http://www.w3.org/1999/xlink"
   xmlns:sodipodi="http://sodipodi.sourceforge.net/DTD/sodipodi-0.dtd"
   xmlns:inkscape="http://www.inkscape.org/namespaces/inkscape"
   width="256px"
   height="256px"
   viewBox="0 0 256 256"
   version="1.1"
   id="SVGRoot"
   inkscape:version="0.92.3 (2405546, 2018-03-11)"
   sodipodi:docname="calendar-app.svg">
  <sodipodi:namedview
     id="base"
     pagecolor="#ffffff"
     bordercolor="#666666"
     borderopacity="1.0"
     inkscape:pageopacity="0.0"
     inkscape:pageshadow="2"
     inkscape:zoom="2"
     inkscape:cx="95.590686"
     inkscape:cy="161.12982"
     inkscape:document-units="px"
     inkscape:current-layer="layer2"
     showgrid="false"
     inkscape:window-width="1299"
     inkscape:window-height="704"
     inkscape:window-x="67"
     inkscape:window-y="27"
     inkscape:window-maximized="1"
     inkscape:grid-bbox="true"
     inkscape:snap-bbox="true"
     inkscape:snap-page="true"
     inkscape:bbox-paths="true"
     inkscape:snap-bbox-edge-midpoints="true"
     inkscape:bbox-nodes="true"
     inkscape:snap-bbox-midpoints="true" />
  <defs
     id="defs848">
    <clipPath
       clipPathUnits="userSpaceOnUse"
       id="clipPath1082-3">
      <path
         sodipodi:nodetypes="sssssssss"
         inkscape:connector-curvature="0"
         id="path1084-6"
         d="M 361.9375,-212 C 507.2348,-212 528,-191.28677 528,-46.125 V 70.125 C 528,215.28618 507.2348,236 361.9375,236 H 214.0625 C 68.7652,236 48,215.28618 48,70.125 V -46.125 C 48,-191.28677 68.7652,-212 214.0625,-212 Z"
         style="display:inline;opacity:1;fill:#8c59d9;fill-opacity:1;stroke:none;stroke-width:2;stroke-linecap:round;stroke-linejoin:round;stroke-miterlimit:4;stroke-dasharray:none;stroke-dashoffset:0;stroke-opacity:1;enable-background:new" />
    </clipPath>
    <clipPath
       clipPathUnits="userSpaceOnUse"
       id="clipPath1025">
      <path
         style="opacity:1;fill:#8c59d9;fill-opacity:1;stroke:none;stroke-width:2;stroke-linecap:round;stroke-linejoin:round;stroke-miterlimit:4;stroke-dasharray:none;stroke-dashoffset:0;stroke-opacity:1"
         d="M 329.9375,32 C 475.2348,32 496,52.71323 496,197.875 v 116.25 C 496,459.28618 475.2348,480 329.9375,480 H 182.0625 C 36.7652,480 16,459.28618 16,314.125 V 197.875 C 16,52.71323 36.7652,32 182.0625,32 Z"
         id="path1027"
         inkscape:connector-curvature="0"
         sodipodi:nodetypes="sssssssss" />
    </clipPath>
    <clipPath
       clipPathUnits="userSpaceOnUse"
       id="clipPath4277-8">
      <rect
         style="color:#000000;display:inline;overflow:visible;visibility:visible;opacity:0.81999972;fill:#88b637;fill-opacity:1;fill-rule:nonzero;stroke:none;stroke-width:2;stroke-linecap:butt;stroke-linejoin:miter;stroke-miterlimit:4;stroke-dasharray:none;stroke-dashoffset:0;stroke-opacity:1;marker:none;enable-background:accumulate"
         id="rect4279-6"
         width="512"
         height="512"
         x="5.5999999e-07"
         y="0"
         ry="1" />
    </clipPath>
    <linearGradient
       id="linearGradient3650-7-9">
      <stop
         style="stop-color:#5884f4;stop-opacity:1"
         offset="0"
         id="stop4366" />
      <stop
         id="stop4368"
         offset="1"
         style="stop-color:#80a3fa;stop-opacity:1" />
    </linearGradient>
    <filter
       inkscape:collect="always"
       style="color-interpolation-filters:sRGB"
       id="filter929"
       x="-0.0232"
       width="1.0464"
       y="-0.024857143"
       height="1.0497143">
      <feGaussianBlur
         inkscape:collect="always"
         stdDeviation="2.32"
         id="feGaussianBlur931" />
    </filter>
    <filter
       inkscape:collect="always"
       style="color-interpolation-filters:sRGB"
       id="filter4569"
       x="-0.0116"
       width="1.0232"
       y="-0.012428571"
       height="1.024857">
      <feGaussianBlur
         inkscape:collect="always"
         stdDeviation="1.16"
         id="feGaussianBlur4571" />
    </filter>
    <clipPath
       clipPathUnits="userSpaceOnUse"
       id="clipPath1082-3-3">
      <path
         sodipodi:nodetypes="sssssssss"
         inkscape:connector-curvature="0"
         id="path1084-6-5"
         d="M 361.9375,-212 C 507.2348,-212 528,-191.28677 528,-46.125 V 70.125 C 528,215.28618 507.2348,236 361.9375,236 H 214.0625 C 68.7652,236 48,215.28618 48,70.125 V -46.125 C 48,-191.28677 68.7652,-212 214.0625,-212 Z"
         style="display:inline;opacity:1;fill:#8c59d9;fill-opacity:1;stroke:none;stroke-width:2;stroke-linecap:round;stroke-linejoin:round;stroke-miterlimit:4;stroke-dasharray:none;stroke-dashoffset:0;stroke-opacity:1;enable-background:new" />
    </clipPath>
    <clipPath
       clipPathUnits="userSpaceOnUse"
       id="clipPath1082-3-3-6">
      <path
         sodipodi:nodetypes="sssssssss"
         inkscape:connector-curvature="0"
         id="path1084-6-5-2"
         d="M 361.9375,-212 C 507.2348,-212 528,-191.28677 528,-46.125 V 70.125 C 528,215.28618 507.2348,236 361.9375,236 H 214.0625 C 68.7652,236 48,215.28618 48,70.125 V -46.125 C 48,-191.28677 68.7652,-212 214.0625,-212 Z"
         style="display:inline;opacity:1;fill:#8c59d9;fill-opacity:1;stroke:none;stroke-width:2;stroke-linecap:round;stroke-linejoin:round;stroke-miterlimit:4;stroke-dasharray:none;stroke-dashoffset:0;stroke-opacity:1;enable-background:new" />
    </clipPath>
    <linearGradient
       inkscape:collect="always"
       xlink:href="#linearGradient1013"
       id="linearGradient1108"
       x1="296"
       y1="-212"
       x2="296"
       y2="236"
       gradientUnits="userSpaceOnUse" />
    <linearGradient
       id="linearGradient1013"
       inkscape:collect="always">
      <stop
         id="stop1005"
         offset="0"
         style="stop-color:#ffffff;stop-opacity:1;" />
      <stop
         style="stop-color:#ffffff;stop-opacity:0.09803922"
         offset="0.125"
         id="stop1007" />
      <stop
         style="stop-color:#000000;stop-opacity:0.09803922"
         offset="0.92500001"
         id="stop1009" />
      <stop
         id="stop1011"
         offset="1"
         style="stop-color:#000000;stop-opacity:0.49803922" />
    </linearGradient>
    <clipPath
       clipPathUnits="userSpaceOnUse"
       id="clipPath1082-3-36">
      <path
         sodipodi:nodetypes="sssssssss"
         inkscape:connector-curvature="0"
         id="path1084-6-7"
         d="M 361.9375,-212 C 507.2348,-212 528,-191.28677 528,-46.125 V 70.125 C 528,215.28618 507.2348,236 361.9375,236 H 214.0625 C 68.7652,236 48,215.28618 48,70.125 V -46.125 C 48,-191.28677 68.7652,-212 214.0625,-212 Z"
         style="display:inline;opacity:1;fill:#8c59d9;fill-opacity:1;stroke:none;stroke-width:2;stroke-linecap:round;stroke-linejoin:round;stroke-miterlimit:4;stroke-dasharray:none;stroke-dashoffset:0;stroke-opacity:1;enable-background:new" />
    </clipPath>
    <linearGradient
       inkscape:collect="always"
       xlink:href="#linearGradient4245"
       id="linearGradient4251"
       x1="16"
       y1="304"
       x2="16"
       y2="208"
       gradientUnits="userSpaceOnUse"
       gradientTransform="matrix(0.375,0,0,0.41666666,0,21.333336)" />
    <linearGradient
       inkscape:collect="always"
       id="linearGradient4245">
      <stop
         style="stop-color:#d9d9d9;stop-opacity:1"
         offset="0"
         id="stop4247" />
      <stop
         style="stop-color:#ececec;stop-opacity:1"
         offset="1"
         id="stop4249" />
    </linearGradient>
    <clipPath
       clipPathUnits="userSpaceOnUse"
       id="clipPath949">
      <path
         sodipodi:nodetypes="sssssssss"
         inkscape:connector-curvature="0"
         id="path951"
         d="M 329.9375,32 C 475.2348,32 496,52.71323 496,197.875 v 116.25 C 496,459.28618 475.2348,480 329.9375,480 H 182.0625 C 36.7652,480 16,459.28618 16,314.125 V 197.875 C 16,52.71323 36.7652,32 182.0625,32 Z"
         style="opacity:1;fill:#eab305;fill-opacity:1;stroke:none;stroke-width:4;stroke-linecap:round;stroke-linejoin:round;stroke-miterlimit:4;stroke-dasharray:none;stroke-dashoffset:0;stroke-opacity:1" />
    </clipPath>
    <filter
       inkscape:collect="always"
       style="color-interpolation-filters:sRGB"
       id="filter967"
       x="-0.0071999999"
       width="1.0144"
       y="-0.035999998"
       height="1.072">
      <feGaussianBlur
         inkscape:collect="always"
         stdDeviation="1.44"
         id="feGaussianBlur969" />
    </filter>
    <linearGradient
       inkscape:collect="always"
       xlink:href="#linearGradient4262"
       id="linearGradient4268"
       x1="0"
       y1="258"
       x2="0"
       y2="208"
       gradientUnits="userSpaceOnUse"
       spreadMethod="reflect"
       gradientTransform="matrix(1,0,0,0.83333335,0,42.999994)" />
    <linearGradient
       inkscape:collect="always"
       id="linearGradient4262">
      <stop
         style="stop-color:#000000;stop-opacity:1;"
         offset="0"
         id="stop4264" />
      <stop
         style="stop-color:#000000;stop-opacity:0;"
         offset="1"
         id="stop4266" />
    </linearGradient>
    <clipPath
       clipPathUnits="userSpaceOnUse"
       id="clipPath979">
      <path
         sodipodi:nodetypes="sssssssss"
         inkscape:connector-curvature="0"
         id="path977"
         d="M 329.9375,32 C 475.2348,32 496,52.71323 496,197.875 v 116.25 C 496,459.28618 475.2348,480 329.9375,480 H 182.0625 C 36.7652,480 16,459.28618 16,314.125 V 197.875 C 16,52.71323 36.7652,32 182.0625,32 Z"
         style="opacity:1;fill:#eab305;fill-opacity:1;stroke:none;stroke-width:4;stroke-linecap:round;stroke-linejoin:round;stroke-miterlimit:4;stroke-dasharray:none;stroke-dashoffset:0;stroke-opacity:1" />
    </clipPath>
    <filter
       inkscape:collect="always"
       style="color-interpolation-filters:sRGB"
       id="filter4277"
       x="-0.02775"
       width="1.0555"
       y="-0.1776"
       height="1.3552001">
      <feGaussianBlur
         inkscape:collect="always"
         stdDeviation="5.92"
         id="feGaussianBlur4279" />
    </filter>
    <linearGradient
       gradientTransform="translate(-24,-28.000001)"
       inkscape:collect="always"
       xlink:href="#linearGradient4338-7"
       id="linearGradient933"
       x1="160"
       y1="28"
       x2="160"
       y2="284"
       gradientUnits="userSpaceOnUse" />
    <linearGradient
       inkscape:collect="always"
       id="linearGradient4338-7">
      <stop
         style="stop-color:#2b898f;stop-opacity:1"
         offset="0"
         id="stop4340-2" />
      <stop
         style="stop-color:#5bdbc1;stop-opacity:1"
         offset="1"
         id="stop4342-6" />
    </linearGradient>
  </defs>
  <metadata
     id="metadata851">
    <rdf:RDF>
      <cc:Work
         rdf:about="">
        <dc:format>image/svg+xml</dc:format>
        <dc:type
           rdf:resource="http://purl.org/dc/dcmitype/StillImage" />
        <dc:title />
      </cc:Work>
    </rdf:RDF>
  </metadata>
  <g
     id="layer1"
     inkscape:groupmode="layer"
     inkscape:label="Icon">
    <g
       inkscape:groupmode="layer"
       id="layer8"
       inkscape:label="Baseplate"
       style="display:none">
      <text
         y="-36.254883"
         xml:space="preserve"
         x="-4.9931641"
         style="font-style:normal;font-variant:normal;font-weight:normal;font-stretch:normal;font-size:18.66666603px;line-height:0%;font-family:Ubuntu;-inkscape-font-specification:Ubuntu;display:inline;fill:#000000;fill-opacity:1;stroke:none;enable-background:new"
         inkscape:label="context"
         id="context"><tspan
           style="font-style:normal;font-variant:normal;font-weight:normal;font-stretch:normal;font-size:18.66666603px;line-height:1.25;font-family:Ubuntu;-inkscape-font-specification:Ubuntu"
           y="-36.254883"
           x="-4.9931641"
           sodipodi:role="line"
           id="tspan3933">apps</tspan></text>
      <text
         y="-36.254883"
         xml:space="preserve"
         x="122.48828"
         style="font-style:normal;font-variant:normal;font-weight:bold;font-stretch:normal;font-size:18.66666603px;line-height:0%;font-family:Ubuntu;-inkscape-font-specification:'Ubuntu Bold';text-align:start;writing-mode:lr-tb;text-anchor:start;display:inline;fill:#000000;fill-opacity:1;stroke:none;enable-background:new"
         inkscape:label="icon-name"
         id="icon-name"><tspan
           style="font-style:normal;font-variant:normal;font-weight:bold;font-stretch:normal;font-size:18.66666603px;line-height:1.25;font-family:Ubuntu;-inkscape-font-specification:'Ubuntu Bold'"
           y="-36.254883"
           x="122.48828"
           sodipodi:role="line"
           id="tspan3937">calendar-app</tspan></text>
      <rect
         style="display:inline;overflow:visible;visibility:visible;fill:#cdcdcd;fill-opacity:1;fill-rule:nonzero;stroke:none;stroke-width:2;marker:none;enable-background:accumulate"
         id="rect3951"
         width="256"
         height="256"
         x="0"
         y="0"
         inkscape:label="plate" />
    </g>
    <g
       inkscape:groupmode="layer"
       id="layer7"
       inkscape:label="Shadows"
       sodipodi:insensitive="true">
      <path
         style="display:inline;opacity:0.2;fill:#000000;fill-opacity:1;stroke:none;stroke-width:2;stroke-linecap:round;stroke-linejoin:round;stroke-miterlimit:4;stroke-dasharray:none;stroke-dashoffset:0;stroke-opacity:1;filter:url(#filter929);enable-background:new"
         d="m 164.96876,17.999982 c 72.64865,0 83.03125,10.356615 83.03125,82.937508 v 58.125 c 0,72.58059 -10.3826,82.9375 -83.03125,82.9375 H 91.03125 c -72.64865,0 -83.0312498,-10.35691 -83.0312498,-82.9375 v -58.125 c 0,-72.580893 10.3825998,-82.937508 83.0312498,-82.937508 z"
         id="path927"
         inkscape:connector-curvature="0"
         sodipodi:nodetypes="sssssssss" />
      <path
         sodipodi:nodetypes="sssssssss"
         inkscape:connector-curvature="0"
         id="path4567"
         d="m 164.96876,15.999982 c 72.64865,0 83.03125,10.356615 83.03125,82.937504 v 58.125004 c 0,72.58059 -10.3826,82.9375 -83.03125,82.9375 H 91.03125 c -72.64865,0 -83.0312498,-10.35691 -83.0312498,-82.9375 V 98.937486 c 0,-72.580889 10.3825998,-82.937504 83.0312498,-82.937504 z"
         style="display:inline;opacity:0.1;fill:#000000;fill-opacity:1;stroke:none;stroke-width:2;stroke-linecap:round;stroke-linejoin:round;stroke-miterlimit:4;stroke-dasharray:none;stroke-dashoffset:0;stroke-opacity:1;filter:url(#filter4569);enable-background:new" />
    </g>
    <g
       inkscape:groupmode="layer"
       id="layer6"
       inkscape:label="Shape"
       style="display:inline">
      <path
         style="display:inline;opacity:1;fill:url(#linearGradient933);fill-opacity:1;stroke:none;stroke-width:2;stroke-linecap:round;stroke-linejoin:round;stroke-miterlimit:4;stroke-dasharray:none;stroke-dashoffset:0;stroke-opacity:1;enable-background:new"
         d="M 164.96875,15.999999 C 237.6174,15.999999 248,26.356614 248,98.937499 V 157.0625 C 248,229.64309 237.6174,240 164.96875,240 H 91.03125 C 18.3826,240 8,229.64309 8,157.0625 V 98.937499 c 0,-72.580885 10.3826,-82.9375 83.03125,-82.9375 z"
         id="rect877"
         inkscape:connector-curvature="0"
         sodipodi:nodetypes="sssssssss" />
    </g>
    <g
       inkscape:groupmode="layer"
       id="layer3"
       inkscape:label="Pictogram"
       style="display:inline">
      <path
         inkscape:connector-curvature="0"
         id="path4258"
         d="m 16,210 v 96 h 16 v -96 z m 464,0 v 96 h 16 v -96 z"
         style="color:#000000;display:inline;overflow:visible;visibility:visible;opacity:0.4;fill:url(#linearGradient4268);fill-opacity:1;fill-rule:nonzero;stroke:none;stroke-width:48;stroke-linecap:butt;stroke-linejoin:miter;stroke-miterlimit:4;stroke-dasharray:none;stroke-dashoffset:0;stroke-opacity:1;marker:none;filter:url(#filter4277);enable-background:accumulate"
         transform="scale(0.5)"
         sodipodi:nodetypes="cccccccccc"
         clip-path="url(#clipPath949)" />
      <path
         style="display:inline;opacity:0.07999998;fill:#ffffff;fill-opacity:1;stroke:none;stroke-width:2;stroke-linecap:round;stroke-linejoin:round;stroke-miterlimit:4;stroke-dasharray:none;stroke-dashoffset:0;stroke-opacity:1;enable-background:new"
         d="m 8,128 v 29.0625 C 8,229.64309 18.3826,240 91.03125,240 h 73.9375 C 237.6174,240 248,229.64309 248,157.0625 V 128 Z"
         id="path937"
         inkscape:connector-curvature="0" />
      <path
         clip-path="url(#clipPath949)"
         sodipodi:nodetypes="cccccccccc"
         transform="scale(0.5)"
         style="color:#000000;display:inline;overflow:visible;visibility:visible;opacity:0.1;fill:#000000;fill-opacity:1;fill-rule:nonzero;stroke:none;stroke-width:48;stroke-linecap:butt;stroke-linejoin:miter;stroke-miterlimit:4;stroke-dasharray:none;stroke-dashoffset:0;stroke-opacity:1;marker:none;filter:url(#filter967);enable-background:accumulate"
         d="m 16,210 v 96 h 16 v -96 z m 464,0 v 96 h 16 v -96 z"
         id="path965"
         inkscape:connector-curvature="0" />
      <path
         style="color:#000000;display:inline;overflow:visible;visibility:visible;opacity:1;fill:url(#linearGradient4251);fill-opacity:1;fill-rule:nonzero;stroke:none;stroke-width:24;stroke-linecap:butt;stroke-linejoin:miter;stroke-miterlimit:4;stroke-dasharray:none;stroke-dashoffset:0;stroke-opacity:1;marker:none;enable-background:accumulate"
         d="m 8,104 v 48 h 8 v -48 z m 232,0 v 48 h 8 v -48 z"
         id="rect4243"
         inkscape:connector-curvature="0"
         sodipodi:nodetypes="cccccccccc" />
      <path
         style="color:#000000;display:inline;overflow:visible;visibility:visible;opacity:1;fill:#ffffff;fill-opacity:1;fill-rule:nonzero;stroke:none;stroke-width:24;stroke-linecap:butt;stroke-linejoin:miter;stroke-miterlimit:4;stroke-dasharray:none;stroke-dashoffset:0;stroke-opacity:1;marker:none;enable-background:accumulate"
         d="m 8,104 v 1 h 8 v -1 z m 232,0 v 1 h 8 v -1 z"
         id="path4344"
         inkscape:connector-curvature="0"
         sodipodi:nodetypes="cccccccccc" />
      <path
         style="font-style:normal;font-weight:normal;font-size:149.37759399px;line-height:1000%;font-family:sans-serif;letter-spacing:0px;word-spacing:0px;display:inline;fill:#f9f9f9;fill-opacity:1;stroke:none;stroke-width:3.73443985px;stroke-linecap:butt;stroke-linejoin:miter;stroke-opacity:1;enable-background:new"
         d="m 87.4375,128 c -1.56471,1.54321 -3.10185,3.06848 -4.80664,4.70508 -2.98755,2.88796 -6.1258,5.87575 -9.41211,8.96289 -3.18672,3.08714 -6.1237,6.42275 -8.8125,10.00781 -2.58921,3.58506 -4.73088,7.41897 -6.42383,11.50195 -1.69294,3.98341 -2.53906,8.3156 -2.53906,12.9961 v 2.53906 c 0.0996,0.49793 0.14844,0.84771 0.14844,1.04688 h 59.60351 v -8.51563 H 66.34766 v -0.29883 c 0,-2.39004 0.54714,-4.77988 1.64257,-7.16992 1.19502,-2.48963 2.73875,-4.97912 4.63086,-7.46875 1.9917,-2.58921 4.18418,-5.12756 6.57422,-7.61719 2.48963,-2.58921 5.02798,-5.12951 7.61719,-7.61914 3.08714,-2.98755 6.12378,-5.97534 9.11133,-8.96289 1.34823,-1.34823 2.616,-2.71863 3.82226,-4.10742 z m 65.05469,0 c -1.28646,0.84619 -2.54527,1.762 -3.76953,2.76367 -2.09129,1.69295 -3.98284,3.68415 -5.67578,5.97461 -1.59337,2.19087 -2.88892,4.73118 -3.88477,7.61914 -0.99585,2.78838 -1.49414,5.92468 -1.49414,9.41016 0,4.08299 0.74841,7.86804 2.24219,11.35351 1.59336,3.3859 3.78388,6.37173 6.57226,8.96094 2.88797,2.48963 6.27439,4.43198 10.1582,5.82617 3.98341,1.39419 8.41331,2.0918 13.29297,2.0918 4.87967,0 9.31152,-0.74646 13.29493,-2.24023 3.9834,-1.3942 7.36982,-3.33655 10.1582,-5.82618 2.78838,-2.58921 4.93005,-5.67665 6.42383,-9.26171 1.59336,-3.58507 2.38867,-7.51863 2.38867,-11.80079 0,-4.97925 -1.44407,-9.71007 -4.33203,-14.1914 -2.63061,-4.22777 -7.14674,-7.78144 -13.5,-10.67969 z m 11.46679,1.56836 c 3.3859,1.09544 6.72151,2.14087 10.00782,3.13672 3.38589,0.99585 6.37368,2.34026 8.96289,4.0332 2.68879,1.69295 4.83046,3.88347 6.42383,6.57227 1.69294,2.68879 2.53906,6.17487 2.53906,10.45703 0,2.78838 -0.44749,5.37753 -1.34375,7.76758 -0.89627,2.39004 -2.29148,4.4809 -4.1836,6.27343 -1.79253,1.79253 -4.08271,3.2366 -6.87109,4.33203 -2.6888,0.99586 -5.8759,1.49415 -9.56055,1.49415 -3.68464,0 -6.9206,-0.49829 -9.70898,-1.49415 -2.6888,-1.09543 -4.97898,-2.5395 -6.87109,-4.33203 -1.79254,-1.79253 -3.13694,-3.88339 -4.03321,-6.27343 -0.89626,-2.39005 -1.34375,-4.9792 -1.34375,-7.76758 0,-5.67635 1.39326,-10.50683 4.18164,-14.49024 2.78838,-4.08298 6.72195,-7.31894 11.80078,-9.70898 z"
         id="text926"
         inkscape:connector-curvature="0" />
      <path
         style="font-style:normal;font-weight:normal;font-size:149.37759399px;line-height:1000%;font-family:sans-serif;letter-spacing:0px;word-spacing:0px;display:inline;fill:#ececec;fill-opacity:1;stroke:none;stroke-width:3.73443985px;stroke-linecap:butt;stroke-linejoin:miter;stroke-opacity:1;enable-background:new"
         d="m 81.28516,74 c -3.78424,0 -7.21951,0.49829 -10.30664,1.49414 -3.08714,0.89627 -5.82481,1.99055 -8.21485,3.28516 -2.29046,1.2946 -4.23281,2.63901 -5.82617,4.0332 -1.49378,1.29461 -2.53921,2.29119 -3.13672,2.98828 l 5.07813,6.72266 c 0.59751,-0.59751 1.54328,-1.44363 2.83789,-2.53906 1.2946,-1.09544 2.83832,-2.14283 4.63086,-3.13868 1.89211,-1.09543 4.08263,-2.04121 6.57226,-2.83789 2.48963,-0.79668 5.3289,-1.19531 8.51563,-1.19531 5.67635,0 10.35637,1.54372 14.04101,4.63086 3.78423,2.98755 5.67578,7.96654 5.67578,14.9375 0,3.18672 -0.49829,6.12566 -1.49414,8.81445 -0.99585,2.6888 -2.34025,5.22715 -4.0332,7.61719 -1.69295,2.39004 -3.68415,4.73103 -5.97461,7.02148 -0.69065,0.69066 -1.49255,1.45557 -2.21289,2.16602 h 12.30859 c 1.46671,-1.68864 2.83889,-3.40569 4.09571,-5.1543 2.39004,-3.18672 4.28159,-6.47153 5.67578,-9.85742 1.39419,-3.48548 2.0918,-7.17087 2.0918,-11.05469 0,-8.76348 -2.54031,-15.58517 -7.61915,-20.46484 C 98.9114,76.4895 91.34325,74 81.28516,74 Z m 88.64843,0 c -4.38174,0 -8.41496,0.69761 -12.09961,2.0918 -3.68464,1.2946 -6.86979,3.18615 -9.55859,5.67578 -2.58921,2.39004 -4.63122,5.32702 -6.125,8.8125 -1.49378,3.48548 -2.24023,7.37018 -2.24023,11.65234 0,4.78008 1.09428,9.21194 3.28515,13.29492 2.19087,4.08299 6.32375,7.61792 12.39844,10.60547 -1.05448,0.57118 -2.08585,1.19909 -3.10156,1.86719 h 31.875 c -0.38104,-0.17382 -0.74425,-0.3544 -1.13867,-0.52344 1.89211,-1.19502 3.83447,-2.63908 5.82617,-4.33203 1.9917,-1.69294 3.78359,-3.63335 5.37695,-5.82422 1.59336,-2.29045 2.88892,-4.77995 3.88477,-7.46875 0.99585,-2.78838 1.49414,-5.82697 1.49414,-9.11328 0,-3.38589 -0.59795,-6.67265 -1.79297,-9.85937 -1.09544,-3.18673 -2.88733,-6.02405 -5.37696,-8.51368 -2.39004,-2.48962 -5.47748,-4.48083 -9.26171,-5.97461 C 179.59467,74.79726 175.11202,74 169.93359,74 Z m 0,8.36523 c 3.58507,0 6.62366,0.54715 9.11329,1.64258 2.48962,0.99585 4.48083,2.39107 5.9746,4.1836 1.59337,1.69294 2.73846,3.63334 3.43555,5.82421 0.79668,2.19088 1.19531,4.4322 1.19531,6.72266 0,5.67635 -1.3444,10.40718 -4.0332,14.19141 -2.6888,3.78423 -6.32338,6.97133 -10.9043,9.56054 -5.17842,-1.39419 -9.3621,-2.83825 -12.54882,-4.33203 -3.18673,-1.59336 -5.67622,-3.28754 -7.46875,-5.08008 -1.79254,-1.89211 -3.03728,-3.98298 -3.73438,-6.27343 -0.59751,-2.29046 -0.89648,-4.82881 -0.89648,-7.61719 0,-2.48963 0.39863,-4.88142 1.19531,-7.17188 0.89626,-2.29045 2.14101,-4.28166 3.73437,-5.9746 1.69295,-1.79254 3.78381,-3.18579 6.27344,-4.18164 2.48963,-0.99586 5.37776,-1.49415 8.66406,-1.49415 z"
         id="text933"
         inkscape:connector-curvature="0" />
    </g>
    <g
       inkscape:groupmode="layer"
       id="layer2"
       inkscape:label="Highlight"
       sodipodi:insensitive="true">
      <path
         sodipodi:nodetypes="sssssssss"
         inkscape:connector-curvature="0"
         id="path1068"
         d="M 361.9375,-212 C 507.2348,-212 528,-191.28677 528,-46.125 V 70.125 C 528,215.28618 507.2348,236 361.9375,236 H 214.0625 C 68.7652,236 48,215.28618 48,70.125 V -46.125 C 48,-191.28677 68.7652,-212 214.0625,-212 Z"
         style="display:inline;opacity:0.4;fill:none;fill-opacity:1;stroke:url(#linearGradient1108);stroke-width:8;stroke-linecap:round;stroke-linejoin:round;stroke-miterlimit:4;stroke-dasharray:none;stroke-dashoffset:0;stroke-opacity:1;enable-background:new"
         clip-path="url(#clipPath1082-3-36)"
         transform="matrix(0.5,0,0,0.5,-16,122)" />
    </g>
  </g>
</svg>
