<svg height="16" width="16" xmlns="http://www.w3.org/2000/svg">
    <path d="M8 0a8.162 8.162 0 00-.7.035c-.12.013-.24.027-.359.045-.139.017-.278.038-.416.063a7.97 7.97 0 00-.37.082c-.142.032-.282.067-.42.107-.11.034-.218.07-.325.107a8 8 0 00-.433.16 7.927 7.927 0 00-.319.143c-.132.06-.263.123-.392.19A8 8 0 000 8a8 8 0 004.129 7h.018a8 8 0 003.673.992L8 16c.234-.002.467-.013.7-.035.12-.012.24-.027.359-.045.139-.017.278-.038.416-.062.117-.024.235-.05.351-.078.155-.036.309-.075.461-.12.087-.027.173-.055.258-.086.163-.053.323-.112.482-.175.098-.041.195-.084.291-.13A8 8 0 0015 11.872v-.017a8 8 0 00.992-3.674L16 8a8.162 8.162 0 00-.035-.699 8.036 8.036 0 00-.045-.36 7.992 7.992 0 00-.062-.415 8.1 8.1 0 00-.082-.371 7.96 7.96 0 00-.108-.42 7.986 7.986 0 00-.107-.325 8 8 0 00-.16-.433 8.071 8.071 0 00-.143-.319 8.025 8.025 0 00-.19-.392 8 8 0 00-3.158-3.24l-.015-.002A8 8 0 009.658.178a8.028 8.028 0 00-.69-.113L8.868.049h-.011a7.772 7.772 0 00-.506-.031A7.296 7.296 0 008 0zm0 1a7 7 0 017 7 7 7 0 01-7 7 7 7 0 01-7-7 7 7 0 017-7zm3.578 3.988a.469.469 0 00-.334.086l-3.36 2.002a1.002 1.002 0 00-.782.008l-2.346-.992c-.206-.152-.487-.094-.592.047l-.086.113c-.126.17-.106.496.1.649l2.33.982a1 1 0 00.492.98V11.5c0 .277.208.5.469.5h.062c.26 0 .469-.223.469-.5V8.865a1 1 0 00.49-1l3.332-1.982c.206-.152.226-.479.1-.649l-.086-.113a.377.377 0 00-.258-.133z" style="line-height:normal;font-variant-ligatures:normal;font-variant-position:normal;font-variant-caps:normal;font-variant-numeric:normal;font-variant-alternates:normal;font-feature-settings:normal;text-indent:0;text-align:start;text-decoration-line:none;text-decoration-style:solid;text-decoration-color:#000;text-transform:none;text-orientation:mixed;white-space:normal;shape-padding:0;isolation:auto;mix-blend-mode:normal;solid-color:#000;solid-opacity:1;marker:none" color="#000" font-weight="400" font-family="sans-serif" overflow="visible" fill="gray"/>
</svg>
