<svg height="16" width="16" xmlns="http://www.w3.org/2000/svg">
    <g color="#000" font-weight="400" font-family="sans-serif" fill="gray">
        <path d="M13.969.97l-1.576 1.577c.325.393.603.827.837 1.285l1.801-1.8zm-3.711 3.712L6.5 8.44 3.377 5.316A3.997 3.997 0 003 7c0 .023.005.045.006.068L6.5 10.561l4.408-4.407a3.97 3.97 0 00-.65-1.472z" style="line-height:normal;font-variant-ligatures:normal;font-variant-position:normal;font-variant-caps:normal;font-variant-numeric:normal;font-variant-alternates:normal;font-feature-settings:normal;text-indent:0;text-align:start;text-decoration-line:none;text-decoration-style:solid;text-decoration-color:#000;text-transform:none;text-orientation:mixed;white-space:normal;shape-padding:0;isolation:auto;mix-blend-mode:normal;solid-color:#000;solid-opacity:1;marker:none" overflow="visible"/>
        <path d="M7 1C3.69 1 1 3.69 1 7s2.69 6 6 6a5.97 5.97 0 003.871-1.422l3.275 3.276.708-.707-3.276-3.276A5.97 5.97 0 0013 7.001c0-3.31-2.69-6-6-6zm0 1a5 5 0 015 5 5 5 0 01-5 5 5 5 0 01-5-5 5 5 0 015-5z" style="line-height:normal;font-variant-ligatures:none;font-variant-position:normal;font-variant-caps:normal;font-variant-numeric:normal;font-variant-alternates:normal;font-feature-settings:normal;text-indent:0;text-align:start;text-decoration-line:none;text-decoration-style:solid;text-decoration-color:#000;text-transform:none;white-space:normal;shape-padding:0;isolation:auto;mix-blend-mode:normal;solid-color:#000;solid-opacity:1;marker:none" overflow="visible"/>
    </g>
</svg>
