<svg height="16" width="16" xmlns="http://www.w3.org/2000/svg">
    <g fill="gray">
        <path d="M8 5a3 3 0 00-3 3 3 3 0 003 3 3 3 0 003-3 3 3 0 00-3-3zm0 1.5A1.5 1.5 0 019.5 8 1.5 1.5 0 018 9.5 1.5 1.5 0 016.5 8 1.5 1.5 0 018 6.5z"/>
        <path d="M8 0a8 8 0 00-8 8 8 8 0 008 8 8 8 0 008-8 8 8 0 00-8-8zm0 1a7 7 0 017 7 7 7 0 01-7 7 7 7 0 01-7-7 7 7 0 017-7z"/>
        <path d="M12.503 11.001c-.011 0-.014.019-.021.028l-9.85 2.999c-.986.5-.64 1.496-.158 1.814.596.368 1.263-.004 1.867-.139L12.7 11.94c.333-.094.431-.712.077-.852a.578.578 0 00-.274-.086z"/>
    </g>
</svg>
