<?xml version="1.0" encoding="UTF-8" standalone="no"?>
<svg
   xmlns:dc="http://purl.org/dc/elements/1.1/"
   xmlns:cc="http://creativecommons.org/ns#"
   xmlns:rdf="http://www.w3.org/1999/02/22-rdf-syntax-ns#"
   xmlns:svg="http://www.w3.org/2000/svg"
   xmlns="http://www.w3.org/2000/svg"
   xmlns:sodipodi="http://sodipodi.sourceforge.net/DTD/sodipodi-0.dtd"
   xmlns:inkscape="http://www.inkscape.org/namespaces/inkscape"
   height="16"
   width="16"
   version="1.1"
   id="svg10"
   sodipodi:docname="disk-utility-app-symbolic.svg">
  <metadata
     id="metadata16">
    <rdf:RDF>
      <cc:Work
         rdf:about="">
        <dc:format>image/svg+xml</dc:format>
        <dc:type
           rdf:resource="http://purl.org/dc/dcmitype/StillImage" />
      </cc:Work>
    </rdf:RDF>
  </metadata>
  <defs
     id="defs14" />
  <sodipodi:namedview
     pagecolor="#ffffff"
     bordercolor="#666666"
     borderopacity="1"
     objecttolerance="10"
     gridtolerance="10"
     guidetolerance="10"
     inkscape:pageopacity="0"
     inkscape:pageshadow="2"
     inkscape:window-width="640"
     inkscape:window-height="480"
     id="namedview12" />
  <g
     fill="gray"
     id="g8">
    <path
       d="M8 5a3 3 0 00-3 3 3 3 0 003 3 3 3 0 003-3 3 3 0 00-3-3zm0 1.5A1.5 1.5 0 019.5 8 1.5 1.5 0 018 9.5 1.5 1.5 0 016.5 8 1.5 1.5 0 018 6.5z"
       id="path2" />
    <path
       d="M8 0a8 8 0 00-8 8 8 8 0 008 8 8 8 0 008-8 8 8 0 00-8-8zm0 1a7 7 0 017 7 7 7 0 01-7 7 7 7 0 01-7-7 7 7 0 017-7z"
       id="path4" />
    <path
       d="M12.503 11.001c-.011 0-.014.019-.021.028l-9.85 2.999c-.986.5-.64 1.496-.158 1.814.596.368 1.263-.004 1.867-.139L12.7 11.94c.333-.094.431-.712.077-.852a.578.578 0 00-.274-.086z"
       id="path6" />
  </g>
</svg>
