<?xml version="1.0" encoding="UTF-8" standalone="no"?>
<!-- Created with Inkscape (http://www.inkscape.org/) -->

<svg
   xmlns:dc="http://purl.org/dc/elements/1.1/"
   xmlns:cc="http://creativecommons.org/ns#"
   xmlns:rdf="http://www.w3.org/1999/02/22-rdf-syntax-ns#"
   xmlns:svg="http://www.w3.org/2000/svg"
   xmlns="http://www.w3.org/2000/svg"
   xmlns:xlink="http://www.w3.org/1999/xlink"
   xmlns:sodipodi="http://sodipodi.sourceforge.net/DTD/sodipodi-0.dtd"
   xmlns:inkscape="http://www.inkscape.org/namespaces/inkscape"
   width="256px"
   height="256px"
   viewBox="0 0 256 256"
   version="1.1"
   id="SVGRoot"
   inkscape:version="0.92.3 (2405546, 2018-03-11)"
   sodipodi:docname="documents-app.svg">
  <sodipodi:namedview
     id="base"
     pagecolor="#ffffff"
     bordercolor="#666666"
     borderopacity="1.0"
     inkscape:pageopacity="0.0"
     inkscape:pageshadow="2"
     inkscape:zoom="1.4142136"
     inkscape:cx="43.980814"
     inkscape:cy="157.16155"
     inkscape:document-units="px"
     inkscape:current-layer="layer6"
     showgrid="false"
     inkscape:window-width="1299"
     inkscape:window-height="704"
     inkscape:window-x="67"
     inkscape:window-y="27"
     inkscape:window-maximized="1"
     inkscape:grid-bbox="true"
     inkscape:snap-bbox="true"
     inkscape:snap-page="true"
     inkscape:bbox-paths="true"
     inkscape:snap-bbox-edge-midpoints="true"
     inkscape:bbox-nodes="true"
     inkscape:snap-bbox-midpoints="true" />
  <defs
     id="defs848">
    <clipPath
       clipPathUnits="userSpaceOnUse"
       id="clipPath1082-3">
      <path
         sodipodi:nodetypes="sssssssss"
         inkscape:connector-curvature="0"
         id="path1084-6"
         d="M 361.9375,-212 C 507.2348,-212 528,-191.28677 528,-46.125 V 70.125 C 528,215.28618 507.2348,236 361.9375,236 H 214.0625 C 68.7652,236 48,215.28618 48,70.125 V -46.125 C 48,-191.28677 68.7652,-212 214.0625,-212 Z"
         style="display:inline;opacity:1;fill:#8c59d9;fill-opacity:1;stroke:none;stroke-width:2;stroke-linecap:round;stroke-linejoin:round;stroke-miterlimit:4;stroke-dasharray:none;stroke-dashoffset:0;stroke-opacity:1;enable-background:new" />
    </clipPath>
    <clipPath
       clipPathUnits="userSpaceOnUse"
       id="clipPath1025">
      <path
         style="opacity:1;fill:#8c59d9;fill-opacity:1;stroke:none;stroke-width:2;stroke-linecap:round;stroke-linejoin:round;stroke-miterlimit:4;stroke-dasharray:none;stroke-dashoffset:0;stroke-opacity:1"
         d="M 329.9375,32 C 475.2348,32 496,52.71323 496,197.875 v 116.25 C 496,459.28618 475.2348,480 329.9375,480 H 182.0625 C 36.7652,480 16,459.28618 16,314.125 V 197.875 C 16,52.71323 36.7652,32 182.0625,32 Z"
         id="path1027"
         inkscape:connector-curvature="0"
         sodipodi:nodetypes="sssssssss" />
    </clipPath>
    <clipPath
       clipPathUnits="userSpaceOnUse"
       id="clipPath4277-8">
      <rect
         style="color:#000000;display:inline;overflow:visible;visibility:visible;opacity:0.81999972;fill:#88b637;fill-opacity:1;fill-rule:nonzero;stroke:none;stroke-width:2;stroke-linecap:butt;stroke-linejoin:miter;stroke-miterlimit:4;stroke-dasharray:none;stroke-dashoffset:0;stroke-opacity:1;marker:none;enable-background:accumulate"
         id="rect4279-6"
         width="512"
         height="512"
         x="5.5999999e-07"
         y="0"
         ry="1" />
    </clipPath>
    <linearGradient
       id="linearGradient3650-7-9">
      <stop
         style="stop-color:#5884f4;stop-opacity:1"
         offset="0"
         id="stop4366" />
      <stop
         id="stop4368"
         offset="1"
         style="stop-color:#80a3fa;stop-opacity:1" />
    </linearGradient>
    <filter
       inkscape:collect="always"
       style="color-interpolation-filters:sRGB"
       id="filter929"
       x="-0.0232"
       width="1.0464"
       y="-0.024857143"
       height="1.0497143">
      <feGaussianBlur
         inkscape:collect="always"
         stdDeviation="2.32"
         id="feGaussianBlur931" />
    </filter>
    <filter
       inkscape:collect="always"
       style="color-interpolation-filters:sRGB"
       id="filter4569"
       x="-0.0116"
       width="1.0232"
       y="-0.012428571"
       height="1.024857">
      <feGaussianBlur
         inkscape:collect="always"
         stdDeviation="1.16"
         id="feGaussianBlur4571" />
    </filter>
    <clipPath
       clipPathUnits="userSpaceOnUse"
       id="clipPath1082-3-3">
      <path
         sodipodi:nodetypes="sssssssss"
         inkscape:connector-curvature="0"
         id="path1084-6-5"
         d="M 361.9375,-212 C 507.2348,-212 528,-191.28677 528,-46.125 V 70.125 C 528,215.28618 507.2348,236 361.9375,236 H 214.0625 C 68.7652,236 48,215.28618 48,70.125 V -46.125 C 48,-191.28677 68.7652,-212 214.0625,-212 Z"
         style="display:inline;opacity:1;fill:#8c59d9;fill-opacity:1;stroke:none;stroke-width:2;stroke-linecap:round;stroke-linejoin:round;stroke-miterlimit:4;stroke-dasharray:none;stroke-dashoffset:0;stroke-opacity:1;enable-background:new" />
    </clipPath>
    <clipPath
       clipPathUnits="userSpaceOnUse"
       id="clipPath1082-3-3-6">
      <path
         sodipodi:nodetypes="sssssssss"
         inkscape:connector-curvature="0"
         id="path1084-6-5-2"
         d="M 361.9375,-212 C 507.2348,-212 528,-191.28677 528,-46.125 V 70.125 C 528,215.28618 507.2348,236 361.9375,236 H 214.0625 C 68.7652,236 48,215.28618 48,70.125 V -46.125 C 48,-191.28677 68.7652,-212 214.0625,-212 Z"
         style="display:inline;opacity:1;fill:#8c59d9;fill-opacity:1;stroke:none;stroke-width:2;stroke-linecap:round;stroke-linejoin:round;stroke-miterlimit:4;stroke-dasharray:none;stroke-dashoffset:0;stroke-opacity:1;enable-background:new" />
    </clipPath>
    <linearGradient
       inkscape:collect="always"
       xlink:href="#linearGradient1013"
       id="linearGradient1108"
       x1="296"
       y1="-212"
       x2="296"
       y2="236"
       gradientUnits="userSpaceOnUse" />
    <linearGradient
       id="linearGradient1013"
       inkscape:collect="always">
      <stop
         id="stop1005"
         offset="0"
         style="stop-color:#ffffff;stop-opacity:1;" />
      <stop
         style="stop-color:#ffffff;stop-opacity:0.09803922"
         offset="0.125"
         id="stop1007" />
      <stop
         style="stop-color:#000000;stop-opacity:0.09803922"
         offset="0.92500001"
         id="stop1009" />
      <stop
         id="stop1011"
         offset="1"
         style="stop-color:#000000;stop-opacity:0.49803922" />
    </linearGradient>
    <clipPath
       clipPathUnits="userSpaceOnUse"
       id="clipPath1082-3-36">
      <path
         sodipodi:nodetypes="sssssssss"
         inkscape:connector-curvature="0"
         id="path1084-6-7"
         d="M 361.9375,-212 C 507.2348,-212 528,-191.28677 528,-46.125 V 70.125 C 528,215.28618 507.2348,236 361.9375,236 H 214.0625 C 68.7652,236 48,215.28618 48,70.125 V -46.125 C 48,-191.28677 68.7652,-212 214.0625,-212 Z"
         style="display:inline;opacity:1;fill:#8c59d9;fill-opacity:1;stroke:none;stroke-width:2;stroke-linecap:round;stroke-linejoin:round;stroke-miterlimit:4;stroke-dasharray:none;stroke-dashoffset:0;stroke-opacity:1;enable-background:new" />
    </clipPath>
    <linearGradient
       inkscape:collect="always"
       xlink:href="#linearGradient4285"
       id="linearGradient4291"
       x1="252.43637"
       y1="260.07782"
       x2="346.827"
       y2="354.46844"
       gradientUnits="userSpaceOnUse"
       spreadMethod="reflect" />
    <linearGradient
       inkscape:collect="always"
       id="linearGradient4285">
      <stop
         style="stop-color:#000000;stop-opacity:1;"
         offset="0"
         id="stop4287" />
      <stop
         style="stop-color:#000000;stop-opacity:0;"
         offset="1"
         id="stop4289" />
    </linearGradient>
    <filter
       inkscape:collect="always"
       style="color-interpolation-filters:sRGB"
       id="filter4293"
       x="-0.095998615"
       width="1.1919972"
       y="-0.096001387"
       height="1.1920028">
      <feGaussianBlur
         inkscape:collect="always"
         stdDeviation="10.787499"
         id="feGaussianBlur4295" />
    </filter>
    <filter
       inkscape:collect="always"
       style="color-interpolation-filters:sRGB"
       id="filter4279"
       x="-0.011999827"
       width="1.0239997"
       y="-0.012000173"
       height="1.0240003">
      <feGaussianBlur
         inkscape:collect="always"
         stdDeviation="1.3484374"
         id="feGaussianBlur4281" />
    </filter>
    <linearGradient
       inkscape:collect="always"
       xlink:href="#linearGradient4254"
       id="linearGradient4260"
       x1="140.44914"
       y1="291.43301"
       x2="217.68591"
       y2="214.19624"
       gradientUnits="userSpaceOnUse"
       gradientTransform="matrix(1.0837895,0,0,1.0837895,-21.332268,-37.717605)" />
    <linearGradient
       inkscape:collect="always"
       id="linearGradient4254">
      <stop
         style="stop-color:#ffffff;stop-opacity:1;"
         offset="0"
         id="stop4256" />
      <stop
         style="stop-color:#ffffff;stop-opacity:0.3"
         offset="1"
         id="stop4258" />
    </linearGradient>
    <linearGradient
       inkscape:collect="always"
       xlink:href="#linearGradient4254"
       id="linearGradient4268"
       x1="299.56567"
       y1="298.92688"
       x2="373.3111"
       y2="225.18146"
       gradientUnits="userSpaceOnUse"
       gradientTransform="matrix(1.0837895,0,0,1.0837895,-21.332268,-37.717605)" />
  </defs>
  <metadata
     id="metadata851">
    <rdf:RDF>
      <cc:Work
         rdf:about="">
        <dc:format>image/svg+xml</dc:format>
        <dc:type
           rdf:resource="http://purl.org/dc/dcmitype/StillImage" />
        <dc:title></dc:title>
      </cc:Work>
    </rdf:RDF>
  </metadata>
  <g
     id="layer1"
     inkscape:groupmode="layer"
     inkscape:label="Icon">
    <g
       inkscape:groupmode="layer"
       id="layer8"
       inkscape:label="Baseplate"
       style="display:none">
      <text
         y="-36.254883"
         xml:space="preserve"
         x="-4.9931641"
         style="font-style:normal;font-variant:normal;font-weight:normal;font-stretch:normal;font-size:18.66666603px;line-height:0%;font-family:Ubuntu;-inkscape-font-specification:Ubuntu;display:inline;fill:#000000;fill-opacity:1;stroke:none;enable-background:new"
         inkscape:label="context"
         id="context"><tspan
           style="font-style:normal;font-variant:normal;font-weight:normal;font-stretch:normal;font-size:18.66666603px;line-height:1.25;font-family:Ubuntu;-inkscape-font-specification:Ubuntu"
           y="-36.254883"
           x="-4.9931641"
           sodipodi:role="line"
           id="tspan3933">apps</tspan></text>
      <text
         y="-36.254883"
         xml:space="preserve"
         x="122.48828"
         style="font-style:normal;font-variant:normal;font-weight:bold;font-stretch:normal;font-size:18.66666603px;line-height:0%;font-family:Ubuntu;-inkscape-font-specification:'Ubuntu Bold';text-align:start;writing-mode:lr-tb;text-anchor:start;display:inline;fill:#000000;fill-opacity:1;stroke:none;enable-background:new"
         inkscape:label="icon-name"
         id="icon-name"><tspan
           style="font-style:normal;font-variant:normal;font-weight:bold;font-stretch:normal;font-size:18.66666603px;line-height:1.25;font-family:Ubuntu;-inkscape-font-specification:'Ubuntu Bold'"
           y="-36.254883"
           x="122.48828"
           sodipodi:role="line"
           id="tspan3937">documents-app</tspan></text>
      <rect
         style="display:inline;overflow:visible;visibility:visible;fill:#cdcdcd;fill-opacity:1;fill-rule:nonzero;stroke:none;stroke-width:2;marker:none;enable-background:accumulate"
         id="rect3951"
         width="256"
         height="256"
         x="0"
         y="0"
         inkscape:label="plate" />
    </g>
    <g
       inkscape:groupmode="layer"
       id="layer7"
       inkscape:label="Shadows"
       sodipodi:insensitive="true">
      <path
         style="display:inline;opacity:0.2;fill:#000000;fill-opacity:1;stroke:none;stroke-width:2;stroke-linecap:round;stroke-linejoin:round;stroke-miterlimit:4;stroke-dasharray:none;stroke-dashoffset:0;stroke-opacity:1;filter:url(#filter929);enable-background:new"
         d="m 164.96876,17.999982 c 72.64865,0 83.03125,10.356615 83.03125,82.937508 v 58.125 c 0,72.58059 -10.3826,82.9375 -83.03125,82.9375 H 91.03125 c -72.64865,0 -83.0312498,-10.35691 -83.0312498,-82.9375 v -58.125 c 0,-72.580893 10.3825998,-82.937508 83.0312498,-82.937508 z"
         id="path927"
         inkscape:connector-curvature="0"
         sodipodi:nodetypes="sssssssss" />
      <path
         sodipodi:nodetypes="sssssssss"
         inkscape:connector-curvature="0"
         id="path4567"
         d="m 164.96876,15.999982 c 72.64865,0 83.03125,10.356615 83.03125,82.937504 v 58.125004 c 0,72.58059 -10.3826,82.9375 -83.03125,82.9375 H 91.03125 c -72.64865,0 -83.0312498,-10.35691 -83.0312498,-82.9375 V 98.937486 c 0,-72.580889 10.3825998,-82.937504 83.0312498,-82.937504 z"
         style="display:inline;opacity:0.1;fill:#000000;fill-opacity:1;stroke:none;stroke-width:2;stroke-linecap:round;stroke-linejoin:round;stroke-miterlimit:4;stroke-dasharray:none;stroke-dashoffset:0;stroke-opacity:1;filter:url(#filter4569);enable-background:new" />
    </g>
    <g
       inkscape:groupmode="layer"
       id="layer6"
       inkscape:label="Shape"
       style="display:inline">
      <path
         style="display:inline;opacity:1;fill:#f1f0e9;fill-opacity:1;stroke:none;stroke-width:2;stroke-linecap:round;stroke-linejoin:round;stroke-miterlimit:4;stroke-dasharray:none;stroke-dashoffset:0;stroke-opacity:1;enable-background:new"
         d="M 164.96875,15.999995 C 237.6174,15.999995 248,26.35661 248,98.937495 V 157.0625 C 248,229.64309 237.6174,240 164.96875,240 H 91.031246 C 18.3826,240 8,229.64309 8,157.0625 V 98.937495 c 0,-72.580885 10.3826,-82.9375 83.031246,-82.9375 z"
         id="rect877"
         inkscape:connector-curvature="0"
         sodipodi:nodetypes="sssssssss" />
    </g>
    <g
       inkscape:groupmode="layer"
       id="layer3"
       inkscape:label="Pictogram"
       style="display:inline">
      <path
         style="display:inline;opacity:0.05;fill:#02171f;fill-opacity:1;stroke:none;stroke-width:2;stroke-linecap:round;stroke-linejoin:round;stroke-miterlimit:4;stroke-dasharray:none;stroke-dashoffset:0;stroke-opacity:1;enable-background:new"
         d="M 91.031246,15.999995 C 18.3826,15.999995 8,26.35661 8,98.937495 V 157.0625 C 8,229.64309 18.3826,240 91.031246,240 H 128 V 164.05078 91.949215 15.999995 Z"
         id="path1006"
         inkscape:connector-curvature="0"
         sodipodi:nodetypes="ssssccccs" />
      <g
         transform="translate(-24,-28.000005)"
         style="display:inline;enable-background:new"
         id="g918">
        <path
           style="color:#000000;display:inline;overflow:visible;visibility:visible;opacity:1;fill:#c8c4b7;fill-opacity:0.99607843;fill-rule:nonzero;stroke:none;stroke-width:3.00000024;marker:none;enable-background:accumulate"
           d="M 72,108 V 99.999999 H 216.66665 V 108 Z"
           id="path14979"
           inkscape:connector-curvature="0"
           sodipodi:nodetypes="ccccc" />
        <path
           style="color:#000000;display:inline;overflow:visible;visibility:visible;opacity:1;fill:#aea795;fill-opacity:0.99738566;fill-rule:nonzero;stroke:none;stroke-width:3.00000048;marker:none;enable-background:accumulate"
           d="m 160,124 v -8 h 79.33333 v 8 z"
           id="path4235"
           inkscape:connector-curvature="0"
           sodipodi:nodetypes="ccccc" />
        <path
           sodipodi:nodetypes="ccccc"
           inkscape:connector-curvature="0"
           id="rect4315"
           d="m 72,116 v 64 l 72,5e-5 V 116 Z"
           style="color:#000000;display:inline;overflow:visible;visibility:visible;opacity:1;fill:#c8c4b7;fill-opacity:1;fill-rule:nonzero;stroke:none;stroke-width:3;marker:none;enable-background:accumulate" />
        <path
           sodipodi:nodetypes="ccccc"
           inkscape:connector-curvature="0"
           id="path4631"
           d="m 160,140 v -8 h 40 v 8 z"
           style="color:#000000;display:inline;overflow:visible;visibility:visible;opacity:1;fill:#aea795;fill-opacity:0.99738566;fill-rule:nonzero;stroke:none;stroke-width:3.00000024;marker:none;enable-background:accumulate" />
        <path
           style="color:#000000;display:inline;overflow:visible;visibility:visible;opacity:1;fill:#c8c4b7;fill-opacity:0.99607843;fill-rule:nonzero;stroke:none;stroke-width:3.00000024;marker:none;enable-background:accumulate"
           d="M 160,155.92689 V 148 h 79.33333 v 7.92689 z"
           id="path4633"
           inkscape:connector-curvature="0"
           sodipodi:nodetypes="ccccc" />
        <path
           sodipodi:nodetypes="ccccc"
           inkscape:connector-curvature="0"
           id="path4635"
           d="m 72,212 v -8 h 167.99998 v 8 z"
           style="color:#000000;display:inline;overflow:visible;visibility:visible;opacity:1;fill:#c8c4b7;fill-opacity:0.99607843;fill-rule:nonzero;stroke:none;stroke-width:3.00000024;marker:none;enable-background:accumulate" />
        <path
           sodipodi:nodetypes="ssssscccccc"
           style="color:#000000;display:inline;overflow:visible;visibility:visible;opacity:1;fill:#e7e7df;fill-opacity:1;fill-rule:nonzero;stroke:none;stroke-width:2.25;marker:none;enable-background:accumulate"
           d="m 125.42423,132 c -4.55633,0 -8.25,3.69364 -8.25,8.25 0,4.55635 3.69367,8.25 8.25,8.25 4.55634,0 8.25,-3.69365 8.25,-8.25 0,-4.55636 -3.69365,-8.25 -8.25,-8.25 z M 100.57682,139.43628 84,168 h 37.68961 l -11.01562,-21.11207 -3.10473,5.95094 z"
           id="path4250"
           inkscape:connector-curvature="0" />
        <path
           sodipodi:nodetypes="ccccc"
           inkscape:connector-curvature="0"
           id="path4725"
           d="M 160,171.92689 V 164 h 79.33333 v 7.92689 z"
           style="color:#000000;display:inline;overflow:visible;visibility:visible;opacity:1;fill:#c8c4b7;fill-opacity:0.99607843;fill-rule:nonzero;stroke:none;stroke-width:3.00000024;marker:none;enable-background:accumulate" />
        <path
           style="color:#000000;display:inline;overflow:visible;visibility:visible;opacity:1;fill:#c8c4b7;fill-opacity:0.99607843;fill-rule:nonzero;stroke:none;stroke-width:3.00000024;marker:none;enable-background:accumulate"
           d="m 72,196 v -7.92689 H 239.99999 V 196 Z"
           id="path4727"
           inkscape:connector-curvature="0"
           sodipodi:nodetypes="ccccc" />
        <path
           sodipodi:nodetypes="ccccc"
           inkscape:connector-curvature="0"
           id="path14983"
           d="m 72,228 v -8 h 104 v 8 z"
           style="color:#000000;display:inline;overflow:visible;visibility:visible;opacity:1;fill:#c8c4b7;fill-opacity:0.99607843;fill-rule:nonzero;stroke:none;stroke-width:3.00000024;marker:none;enable-background:accumulate" />
        <path
           sodipodi:nodetypes="ccccc"
           inkscape:connector-curvature="0"
           id="path14977"
           d="m 72,92 v -8 h 167.99998 v 8 z"
           style="color:#000000;display:inline;overflow:visible;visibility:visible;opacity:1;fill:#c8c4b7;fill-opacity:0.99607843;fill-rule:nonzero;stroke:none;stroke-width:3.00000024;marker:none;enable-background:accumulate" />
      </g>
      <g
         id="g4295"
         transform="matrix(0.33899366,-0.33899366,0.33899366,0.33899366,-4.18102,165.42333)"
         style="display:inline;stroke-width:1.0429498;enable-background:new">
        <path
           inkscape:connector-curvature="0"
           id="path4283"
           d="m 402.59658,214.13101 c -0.0574,-0.0429 -0.12197,-0.0718 -0.19498,-0.0934 -2.608,-0.772 -18.88194,-3.53248 -27.48694,-4.66148 -12.7125,-1.668 -27.56759,-2.61728 -39.21823,-2.60466 -3.88355,0.004 -7.41157,0.11464 -10.38432,0.34188 -15.226,1.16301 -35.22173,4.54881 -50.53073,8.5568 -9.541,2.49701 -9.83346,2.54427 -17.21247,2.80925 -9.047,0.32501 -12.61808,-0.1225 -23.79208,-2.9795 -11.15,-2.851 -19.85037,-4.54175 -33.41438,-6.49175 -13.59899,-1.956 -20.24215,-2.37935 -33.30315,-2.12135 -14.096,0.279 -26.42535,1.40271 -41.75835,3.8047 -6.09748,0.95461 -17.31892,2.98787 -18.53471,3.3571 0,0 -0.004,0.001 -0.004,0.001 l -0.001,0.001 c -0.66715,0.2042 -0.68688,0.62249 -0.44211,10.07264 l 0.25676,7.86067 0.99682,0.85129 c 0.54901,0.47 1.60167,1.17003 2.33967,1.55703 3.112,1.633 4.38453,6.83059 6.99154,19.57959 2.877,14.065 4.54005,19.64214 7.94305,26.65214 0.97371,2.00625 2.06271,3.91685 3.25136,5.73933 -10.43519,8.24593 -17.08742,15.02236 -16.24859,17.11085 4.11614,10.24817 19.75965,9.2767 29.11263,-1.13276 0.48346,-0.53807 0.97532,-1.07149 1.4623,-1.60784 0.92355,0.60807 1.86788,1.19489 2.84082,1.75063 4.746,2.711 11.15353,4.4665 19.53154,5.3535 3.77499,0.4 16.78511,0.16903 20.95813,-0.36797 8.39399,-1.087 16.7474,-3.29702 22.51241,-5.95901 12.49999,-5.773 21.83047,-17.88534 27.98948,-36.32934 1.3928,-4.17249 3.52041,-12.30539 4.87018,-18.34797 4.37032,-0.80291 8.85058,-1.5658 13.41737,-2.2875 4.64306,0.73318 9.19585,1.50748 13.6357,2.32457 1.3273,5.90044 3.29591,13.52088 4.58458,17.48569 5.14401,15.82601 12.74839,27.36097 22.26939,33.78098 6.64399,4.48 14.60963,7.20464 26.39263,9.02364 6.98499,1.079 20.84272,1.17485 27.12172,0.19085 7.59978,-1.19163 12.79632,-2.9978 18.22165,-6.5755 0.47688,0.52535 0.95858,1.04789 1.43208,1.57487 9.35298,10.40946 24.99512,11.38232 29.11125,1.13414 0.83753,-2.08522 -5.78935,-8.84395 -16.19641,-17.07241 2.36335,-3.62482 4.39857,-7.65257 5.95901,-11.8933 1.81099,-4.923 2.87227,-8.99523 4.89627,-18.78322 1.921,-9.29001 3.27735,-16.53868 4.23035,-18.38368 0.58199,-1.124 1.55617,-1.96056 4.44316,-3.81156 l 1.84949,-1.18769 0.0206,-0.38033 c 6.2e-4,-1e-5 0.0728,-0.001 0.0728,-0.001 l -0.0124,-1.12452 0.14966,-2.75021 c 0.125,-2.342 0.24761,-4.86951 0.27461,-8.06251 0.0376,-4.57975 -0.002,-5.6035 -0.40367,-5.90408 z m -23.12753,18.764 c 0.54643,0.79932 1.03354,1.60512 1.43345,2.40832 1.60991,3.23541 2.0067,6.97465 2.017,15.03894 a 2.6822779,2.6217047 0 0 0 10e-4,10e-4 c 0.0153,13.37672 -2.24912,23.77872 -7.20984,31.91638 -19.50486,-14.56321 -48.1054,-31.835 -68.2169,-36.4584 -7.39806,-1.70073 -15.75321,-3.42569 -24.6928,-5.14891 36.38891,-4.36254 73.57759,-6.64953 96.66772,-7.7577 z m -18.42762,-13.42149 c -23.84291,3.24193 -54.61551,7.61074 -85.08884,12.51254 0.33209,-0.82495 0.71624,-1.61669 1.18081,-2.36987 2.10391,-3.41091 5.48061,-5.81382 10.08363,-7.98837 11.23948,-5.30991 25.29205,-7.90192 39.31709,-7.93481 12.13543,-0.0285 24.24704,1.86174 34.50731,5.78051 z m -2.85318,72.17811 c 1.26685,1.29064 2.51662,2.59584 3.75802,3.90906 -4.04053,2.23793 -8.65704,3.82947 -13.99681,4.87156 -3.53387,0.69019 -6.15883,0.86823 -13.68923,0.95563 -10.11559,0.11706 -10.96872,0.057 -16.68384,-0.98446 -9.17898,-1.6736 -16.61026,-4.90474 -22.70601,-10.4063 -6.09576,-5.50156 -10.79816,-13.13912 -15.04581,-23.46256 -2.60008,-6.3234 -4.31271,-12.55404 -5.03495,-18.40015 11.92242,2.38085 22.81982,5.09305 31.90541,8.19295 19.96497,6.81183 36.6362,20.18829 51.49322,35.32427 z m -94.49693,-59.28112 c 0.45556,0.39231 0.84537,0.86757 1.18768,1.43209 -3.48304,0.57783 -6.90453,1.16019 -10.32528,1.7465 -3.38557,-0.58017 -6.77164,-1.15541 -10.21819,-1.72728 1.64638,-2.767 4.42919,-3.30217 10.27173,-3.30217 4.62351,0 7.33375,0.3436 9.08406,1.85086 z m -32.68942,-5.4757 c 0.67995,0.73491 1.28188,1.51896 1.80419,2.36713 0.5611,0.91117 1.00993,1.8762 1.37853,2.89437 -31.29677,-5.04729 -62.94396,-9.53344 -87.1841,-12.82284 4.60548,-1.77215 10.06484,-3.32197 15.3465,-4.35667 6.36791,-1.2472 13.05485,-1.8553 19.73749,-1.8742 14.70239,-0.0414 29.38807,2.7435 40.67914,8.17373 3.44964,1.6593 6.19843,3.41376 8.23825,5.61848 z m 4.16994,21.06385 c -0.94086,7.99703 -3.71526,16.44186 -8.34673,25.67728 -3.42867,6.83543 -6.70019,11.68869 -10.54085,15.44262 -7.87446,7.69663 -18.26943,11.73164 -32.3228,12.83932 -14.74994,1.1616 -27.71844,-0.79761 -37.15454,-5.9288 15.9027,-16.88703 33.80578,-32.21705 55.66178,-39.67408 9.29091,-3.16995 20.46328,-5.93724 32.70314,-8.35634 z m -8.8781,-7.30459 c -8.91398,1.71891 -17.24609,3.44012 -24.62552,5.13656 -20.26091,4.65775 -49.13548,22.15247 -68.64803,36.78245 -0.97111,-1.54323 -1.83004,-3.12512 -2.53326,-4.71091 l -0.001,-10e-4 c -3.43058,-7.7347 -4.74336,-15.69469 -4.74936,-27.95653 -0.003,-4.09603 0.0102,-6.38568 0.13593,-8.10508 0.12572,-1.71861 0.41917,-2.92041 0.83207,-4.20426 0.50976,-1.58532 1.30783,-3.17106 2.33554,-4.72189 23.02249,1.09543 60.53797,3.38201 97.254,7.78103 z"
           style="opacity:0.4;fill:url(#linearGradient4291);fill-opacity:1;stroke-width:1.0429498;filter:url(#filter4293)" />
        <path
           style="opacity:0.1;fill:#000000;stroke-width:0.96231776;filter:url(#filter4279)"
           d="m 402.59658,214.13101 c -0.0574,-0.0429 -0.12197,-0.0718 -0.19498,-0.0934 -2.608,-0.772 -18.88194,-3.53248 -27.48694,-4.66148 -12.7125,-1.668 -27.56759,-2.61728 -39.21823,-2.60466 -3.88355,0.004 -7.41157,0.11464 -10.38432,0.34188 -15.226,1.16301 -35.22173,4.54881 -50.53073,8.5568 -9.541,2.49701 -9.83346,2.54427 -17.21247,2.80925 -9.047,0.32501 -12.61808,-0.1225 -23.79208,-2.9795 -11.15,-2.851 -19.85037,-4.54175 -33.41438,-6.49175 -13.59899,-1.956 -20.24215,-2.37935 -33.30315,-2.12135 -14.096,0.279 -26.42535,1.40271 -41.75835,3.8047 -6.09748,0.95461 -17.31892,2.98787 -18.53471,3.3571 0,0 -0.004,0.001 -0.004,0.001 l -0.001,0.001 c -0.66715,0.2042 -0.68688,0.62249 -0.44211,10.07264 l 0.25676,7.86067 0.99682,0.85129 c 0.54901,0.47 1.60167,1.17003 2.33967,1.55703 3.112,1.633 4.38453,6.83059 6.99154,19.57959 2.877,14.065 4.54005,19.64214 7.94305,26.65214 0.97371,2.00625 2.06271,3.91685 3.25136,5.73933 -10.43519,8.24593 -17.08742,15.02236 -16.24859,17.11085 4.11614,10.24817 19.75965,9.2767 29.11263,-1.13276 0.48346,-0.53807 0.97532,-1.07149 1.4623,-1.60784 0.92355,0.60807 1.86788,1.19489 2.84082,1.75063 4.746,2.711 11.15353,4.4665 19.53154,5.3535 3.77499,0.4 16.78511,0.16903 20.95813,-0.36797 8.39399,-1.087 16.7474,-3.29702 22.51241,-5.95901 12.49999,-5.773 21.83047,-17.88534 27.98948,-36.32934 1.3928,-4.17249 3.52041,-12.30539 4.87018,-18.34797 4.37032,-0.80291 8.85058,-1.5658 13.41737,-2.2875 4.64306,0.73318 9.19585,1.50748 13.6357,2.32457 1.3273,5.90044 3.29591,13.52088 4.58458,17.48569 5.14401,15.82601 12.74839,27.36097 22.26939,33.78098 6.64399,4.48 14.60963,7.20464 26.39263,9.02364 6.98499,1.079 20.84272,1.17485 27.12172,0.19085 7.59978,-1.19163 12.79632,-2.9978 18.22165,-6.5755 0.47688,0.52535 0.95858,1.04789 1.43208,1.57487 9.35298,10.40946 24.99512,11.38232 29.11125,1.13414 0.83753,-2.08522 -5.78935,-8.84395 -16.19641,-17.07241 2.36335,-3.62482 4.39857,-7.65257 5.95901,-11.8933 1.81099,-4.923 2.87227,-8.99523 4.89627,-18.78322 1.921,-9.29001 3.27735,-16.53868 4.23035,-18.38368 0.58199,-1.124 1.55617,-1.96056 4.44316,-3.81156 l 1.84949,-1.18769 0.0206,-0.38033 c 6.2e-4,-1e-5 0.0728,-0.001 0.0728,-0.001 l -0.0124,-1.12452 0.14966,-2.75021 c 0.125,-2.342 0.24761,-4.86951 0.27461,-8.06251 0.0376,-4.57975 -0.002,-5.6035 -0.40367,-5.90408 z m -23.12753,18.764 c 0.54643,0.79932 1.03354,1.60512 1.43345,2.40832 1.60991,3.23541 2.0067,6.97465 2.017,15.03894 a 2.6822779,2.6217047 0 0 0 10e-4,10e-4 c 0.0153,13.37672 -2.24912,23.77872 -7.20984,31.91638 -19.50486,-14.56321 -48.1054,-31.835 -68.2169,-36.4584 -7.39806,-1.70073 -15.75321,-3.42569 -24.6928,-5.14891 36.38891,-4.36254 73.57759,-6.64953 96.66772,-7.7577 z m -18.42762,-13.42149 c -23.84291,3.24193 -54.61551,7.61074 -85.08884,12.51254 0.33209,-0.82495 0.71624,-1.61669 1.18081,-2.36987 2.10391,-3.41091 5.48061,-5.81382 10.08363,-7.98837 11.23948,-5.30991 25.29205,-7.90192 39.31709,-7.93481 12.13543,-0.0285 24.24704,1.86174 34.50731,5.78051 z m -2.85318,72.17811 c 1.26685,1.29064 2.51662,2.59584 3.75802,3.90906 -4.04053,2.23793 -8.65704,3.82947 -13.99681,4.87156 -3.53387,0.69019 -6.15883,0.86823 -13.68923,0.95563 -10.11559,0.11706 -10.96872,0.057 -16.68384,-0.98446 -9.17898,-1.6736 -16.61026,-4.90474 -22.70601,-10.4063 -6.09576,-5.50156 -10.79816,-13.13912 -15.04581,-23.46256 -2.60008,-6.3234 -4.31271,-12.55404 -5.03495,-18.40015 11.92242,2.38085 22.81982,5.09305 31.90541,8.19295 19.96497,6.81183 36.6362,20.18829 51.49322,35.32427 z m -94.49693,-59.28112 c 0.45556,0.39231 0.84537,0.86757 1.18768,1.43209 -3.48304,0.57783 -6.90453,1.16019 -10.32528,1.7465 -3.38557,-0.58017 -6.77164,-1.15541 -10.21819,-1.72728 1.64638,-2.767 4.42919,-3.30217 10.27173,-3.30217 4.62351,0 7.33375,0.3436 9.08406,1.85086 z m -32.68942,-5.4757 c 0.67995,0.73491 1.28188,1.51896 1.80419,2.36713 0.5611,0.91117 1.00993,1.8762 1.37853,2.89437 -31.29677,-5.04729 -62.94396,-9.53344 -87.1841,-12.82284 4.60548,-1.77215 10.06484,-3.32197 15.3465,-4.35667 6.36791,-1.2472 13.05485,-1.8553 19.73749,-1.8742 14.70239,-0.0414 29.38807,2.7435 40.67914,8.17373 3.44964,1.6593 6.19843,3.41376 8.23825,5.61848 z m 4.16994,21.06385 c -0.94086,7.99703 -3.71526,16.44186 -8.34673,25.67728 -3.42867,6.83543 -6.70019,11.68869 -10.54085,15.44262 -7.87446,7.69663 -18.26943,11.73164 -32.3228,12.83932 -14.74994,1.1616 -27.71844,-0.79761 -37.15454,-5.9288 15.9027,-16.88703 33.80578,-32.21705 55.66178,-39.67408 9.29091,-3.16995 20.46328,-5.93724 32.70314,-8.35634 z m -8.8781,-7.30459 c -8.91398,1.71891 -17.24609,3.44012 -24.62552,5.13656 -20.26091,4.65775 -49.13548,22.15247 -68.64803,36.78245 -0.97111,-1.54323 -1.83004,-3.12512 -2.53326,-4.71091 l -0.001,-10e-4 c -3.43058,-7.7347 -4.74336,-15.69469 -4.74936,-27.95653 -0.003,-4.09603 0.0102,-6.38568 0.13593,-8.10508 0.12572,-1.71861 0.41917,-2.92041 0.83207,-4.20426 0.50976,-1.58532 1.30783,-3.17106 2.33554,-4.72189 23.02249,1.09543 60.53797,3.38201 97.254,7.78103 z"
           id="path4272"
           inkscape:connector-curvature="0"
           transform="matrix(1.0837895,0,0,1.0837895,-21.332268,-37.717605)" />
        <path
           style="color:#000000;display:inline;overflow:visible;visibility:visible;opacity:1;fill:#636363;fill-opacity:1;fill-rule:nonzero;stroke:none;stroke-width:66.74878693;stroke-linecap:butt;stroke-linejoin:miter;stroke-miterlimit:4;stroke-dasharray:none;stroke-dashoffset:0;stroke-opacity:1;marker:none;enable-background:accumulate"
           d="m 416.31018,192.73042 c 0,0 -147.26638,18.25561 -217.55148,34.41335 -36.82764,8.46625 -99.935182,56.07178 -97.34615,62.51784 4.46103,11.10685 21.41493,10.05312 31.55159,-1.22854 18.80646,-20.93077 40.02902,-40.79638 66.6602,-49.88264 65.50893,-22.35094 216.88742,-26.38224 216.88742,-26.38224 z"
           id="path4282"
           inkscape:connector-curvature="0"
           sodipodi:nodetypes="csssscc" />
        <path
           sodipodi:nodetypes="csssscc"
           inkscape:connector-curvature="0"
           id="path4280"
           d="m 95.898652,192.74234 c 0,0 147.266378,18.25561 217.551488,34.41335 36.82763,8.46625 99.93517,56.07178 97.34614,62.51784 -4.46103,11.10686 -21.41493,10.05312 -31.55159,-1.22854 -18.80646,-20.93076 -40.02902,-40.79638 -66.6602,-49.88264 C 247.07556,216.21141 95.697067,212.18011 95.697067,212.18011 Z"
           style="color:#000000;display:inline;overflow:visible;visibility:visible;opacity:1;fill:#636363;fill-opacity:1;fill-rule:nonzero;stroke:none;stroke-width:66.74878693;stroke-linecap:butt;stroke-linejoin:miter;stroke-miterlimit:4;stroke-dasharray:none;stroke-dashoffset:0;stroke-opacity:1;marker:none;enable-background:accumulate" />
        <path
           style="fill:#3b3b3b;fill-opacity:1;stroke-width:1.0429498"
           d="m 344.0153,184.8556 c -4.20895,0.004 -8.03305,0.12415 -11.25489,0.37044 -16.50178,1.26045 -38.17139,4.92977 -54.76312,9.2736 -10.34044,2.70622 -10.65787,2.75884 -18.65515,3.04603 -9.80505,0.35223 -13.67631,-0.1338 -25.78657,-3.23019 -12.08426,-3.08988 -21.51329,-4.92278 -36.21381,-7.03617 -14.73846,-2.11989 -21.93779,-2.57843 -36.09316,-2.29881 -15.2771,0.30237 -28.63893,1.52021 -45.25668,4.12347 -6.61111,1.03502 -18.783218,3.2399 -20.092436,3.63874 -0.725055,0.22109 -0.746037,0.66677 -0.480509,10.91833 l 0.277298,8.52003 1.081666,0.92291 c 0.595,0.50938 1.736068,1.26764 2.535904,1.68707 3.372757,1.76983 4.750497,7.40345 7.575937,21.22069 3.11806,15.24349 4.9208,21.28817 8.60893,28.88553 4.91499,10.12693 12.38768,18.12678 22.12878,23.69096 5.14367,2.93815 12.08989,4.84077 21.16988,5.80209 4.09131,0.43351 18.19036,0.18404 22.71302,-0.39796 9.09733,-1.17808 18.14991,-3.57324 24.39795,-6.45828 13.54737,-6.25672 23.66047,-19.38475 30.33553,-39.37416 2.03536,-6.0974 5.53221,-20.02767 6.435,-25.63628 1.68313,-10.45749 3.34139,-11.93015 13.45423,-11.93015 10.0218,0 11.74958,1.48754 13.44788,11.58088 0.9559,5.6758 4.30703,19.17482 6.22967,25.09015 5.57502,17.15205 13.81673,29.65383 24.13549,36.61177 7.20069,4.85538 15.83371,7.80809 28.604,9.7795 7.57027,1.16941 22.58844,1.2739 29.39355,0.20745 10.76203,-1.68746 17.07464,-4.4983 25.30819,-11.26548 6.84955,-5.63246 12.8199,-14.45938 16.44735,-24.31753 1.96274,-5.3355 3.11316,-9.74892 5.30675,-20.35705 2.08196,-10.0684 3.55209,-17.9235 4.58494,-19.92309 0.63077,-1.21818 1.68677,-2.12586 4.81567,-4.13195 l 2.00459,-1.287 0.24978,-4.61246 c 0.13547,-2.53823 0.2692,-5.27751 0.29846,-8.73805 0.0466,-5.67255 -0.0169,-6.31312 -0.64985,-6.50061 -2.82652,-0.83669 -20.46339,-3.82704 -29.7894,-5.05064 -13.77767,-1.80776 -29.87802,-2.83744 -42.50487,-2.82378 z m -166.48234,6.86048 c 15.93429,-0.0449 31.85107,2.97349 44.08822,8.85871 4.98491,2.39777 8.61804,4.97853 10.88235,8.6555 2.2643,3.67695 2.96782,8.08954 2.96348,13.74634 -0.009,10.58683 -3.15069,21.79551 -9.44505,34.34682 -3.71597,7.40817 -7.26178,12.66676 -11.42425,16.73523 -8.53425,8.34152 -19.79963,12.71519 -35.03052,13.91568 -16.37668,1.28971 -30.73991,-0.95881 -41.02314,-6.82872 -6.88721,-3.93261 -13.52812,-11.56164 -16.93421,-19.24361 h 0.002 c -3.71861,-8.38335 -5.1415,-17.00934 -5.148,-30.29954 -0.003,-4.43923 0.01,-6.92117 0.14605,-8.78462 0.13626,-1.86262 0.45425,-3.166 0.90175,-4.55741 1.82508,-5.67583 7.02787,-11.35488 13.52832,-15.66838 5.33188,-3.53887 15.51862,-6.96631 25.10284,-8.8439 6.90148,-1.3517 14.14746,-2.01162 21.39003,-2.0321 z m 156.55255,0.64138 c 15.20007,-0.0357 30.37154,2.6982 42.44348,8.4036 6.80473,3.21546 13.57292,9.1753 16.48122,15.01641 1.7448,3.50651 2.17547,7.55918 2.18663,16.29918 a 2.9070246,2.841376 0 0 0 0,0.002 c 0.0216,18.87798 -4.12628,32.30326 -13.49233,41.93968 -6.23627,6.416 -14.07525,10.32844 -24.40855,12.34504 -3.82998,0.74803 -6.67512,0.9425 -14.83649,1.03722 -10.96317,0.12686 -11.88751,0.0597 -18.0815,-1.06897 -9.94808,-1.81382 -18.00312,-5.31565 -24.60964,-11.27819 -6.60652,-5.96253 -11.70197,-14.23828 -16.30553,-25.42672 -3.77388,-9.17809 -5.82859,-18.18073 -5.8804,-26.23532 -0.0353,-5.63599 0.68332,-10.08139 2.96348,-13.7781 2.28019,-3.69669 5.94022,-6.30086 10.92892,-8.65761 12.18124,-5.75483 27.41052,-8.56269 42.61071,-8.59834 z"
           id="path3011"
           inkscape:connector-curvature="0" />
        <path
           style="opacity:0.5;fill:url(#linearGradient4260);fill-opacity:1;stroke-width:1.03110635"
           d="m 177.53201,191.71607 c -7.24258,0.0205 -14.48683,0.6804 -21.38829,2.0321 -9.58424,1.87759 -19.77273,5.30504 -25.1046,8.8439 -6.50045,4.31352 -11.70178,9.99255 -13.52686,15.66838 -0.44749,1.39141 -0.76683,2.6948 -0.90308,4.55741 -0.13633,1.86346 -0.14789,4.34539 -0.1451,8.78462 0.007,13.2902 1.4292,21.91619 5.14781,30.29954 h -0.002 c 3.40609,7.68197 10.04625,15.31101 16.93346,19.24361 10.28322,5.86991 24.64788,8.11843 41.02455,6.82872 15.2309,-1.2005 26.49568,-5.57416 35.02993,-13.91568 4.16247,-4.06847 7.70801,-9.32705 11.42398,-16.73523 6.29436,-12.55131 9.43636,-23.75999 9.44454,-34.34682 0.004,-5.65679 -0.69835,-10.06938 -2.96265,-13.74634 -2.2643,-3.67697 -5.89765,-6.25772 -10.88256,-8.6555 -12.23716,-5.88521 -28.15469,-8.90362 -44.08898,-8.85871 z"
           id="path4259"
           inkscape:connector-curvature="0" />
        <path
           style="opacity:0.5;fill:url(#linearGradient4268);fill-opacity:1;stroke-width:1.03110635"
           d="m 334.08548,192.35746 c -15.20019,0.0357 -30.4286,2.84351 -42.60983,8.59834 -4.9887,2.35675 -8.65002,4.96091 -10.93021,8.65761 -2.28016,3.69671 -2.99801,8.14211 -2.96265,13.7781 0.0518,8.05459 2.10595,17.05723 5.87983,26.23532 4.60356,11.18844 9.69891,19.46419 16.30543,25.42672 6.60652,5.96254 14.66274,9.46437 24.61082,11.27819 6.19399,1.12869 7.11813,1.19583 18.0813,1.06897 8.16137,-0.0947 11.00495,-0.2892 14.83493,-1.03722 10.33329,-2.0166 18.17316,-5.92904 24.40942,-12.34504 9.36606,-9.63642 13.51373,-23.0617 13.4922,-41.93969 a 2.9070246,2.841376 0 0 0 0,-0.002 c -0.0112,-8.74 -0.44252,-12.79268 -2.18732,-16.29918 -2.9083,-5.84112 -9.67613,-11.80095 -16.48086,-15.01641 -12.07194,-5.70541 -27.24299,-8.43929 -42.44306,-8.4036 z"
           id="path4291"
           inkscape:connector-curvature="0" />
        <path
           style="opacity:0.5;fill:#ffffff;stroke-width:1.03110635"
           d="m 206.95237,275.67414 c -6.41044,3.41127 -14.17254,5.36014 -23.87717,6.02156 -16.03837,1.09202 -29.89753,-1.34792 -39.41908,-6.85147 l -0.002,0.002 c -6.09907,-3.52638 -12.59349,-10.90254 -15.7604,-17.90118 a 3.7245728,3.6455441 45 0 0 -0.003,-0.0129 c -3.60542,-7.97407 -5.05339,-16.01772 -5.20107,-29.18983 -0.0508,-4.47959 -0.0582,-6.94433 0.0456,-8.60559 0.0994,-1.59023 0.31481,-2.49282 0.70417,-3.74087 0.14912,-0.47811 0.34312,-0.96799 0.56426,-1.46335 -1.41765,1.86285 -2.46858,3.72031 -3.02255,5.44313 -0.39847,1.23895 -0.622,2.13345 -0.73718,3.70787 -0.12033,1.64473 -0.13796,4.08447 -0.13518,8.51599 0.006,13.03081 1.35228,20.97239 4.83485,28.82361 a 3.645544,3.645544 0 0 1 0.005,0.0142 c 3.05906,6.89079 9.40508,14.11854 15.40203,17.54281 l 0.002,-0.002 c 9.36214,5.34414 23.04888,7.61165 38.92868,6.36107 11.69965,-0.92217 20.57672,-3.69846 27.67149,-8.66532 z"
           id="path4237"
           inkscape:connector-curvature="0" />
        <path
           style="opacity:0.5;fill:#ffffff;stroke-width:1.03110635"
           d="m 374.53886,274.24538 c -4.01013,2.27662 -8.67937,3.88151 -14.34264,4.94016 -3.581,0.66995 -5.94679,0.81581 -14.1163,0.84091 -11.03447,0.0335 -11.15179,0.0304 -17.36049,-1.15212 -9.44444,-1.80008 -16.6439,-5.03337 -22.62915,-10.4446 -6.00368,-5.42787 -10.88249,-13.13968 -15.46649,-24.09249 l 0.002,-0.002 c -3.70073,-8.84811 -5.68355,-17.41535 -5.79364,-24.7715 -0.0624,-4.21199 0.34623,-7.25767 1.34074,-9.67755 -0.66688,0.68136 -1.23909,1.38942 -1.70539,2.1455 -1.64067,2.65993 -2.30877,6.10048 -2.27597,11.32951 0.0469,7.29296 1.93976,15.77024 5.5343,24.51216 h -0.003 c 4.45251,10.82134 9.22632,18.42814 15.13326,23.75927 5.8888,5.31478 13.00008,8.45989 22.34937,10.16481 6.14615,1.11998 6.26194,1.12156 17.20331,0.99495 8.10059,-0.094 10.44834,-0.25792 14.0047,-0.95251 7.53712,-1.47091 13.31565,-3.89576 18.12596,-7.59492 z"
           id="path4246"
           inkscape:connector-curvature="0" />
      </g>
    </g>
    <g
       inkscape:groupmode="layer"
       id="layer2"
       inkscape:label="Highlight"
       sodipodi:insensitive="true">
      <path
         sodipodi:nodetypes="sssssssss"
         inkscape:connector-curvature="0"
         id="path1068"
         d="M 361.9375,-212 C 507.2348,-212 528,-191.28677 528,-46.125 V 70.125 C 528,215.28618 507.2348,236 361.9375,236 H 214.0625 C 68.7652,236 48,215.28618 48,70.125 V -46.125 C 48,-191.28677 68.7652,-212 214.0625,-212 Z"
         style="display:inline;opacity:0.4;fill:none;fill-opacity:1;stroke:url(#linearGradient1108);stroke-width:8;stroke-linecap:round;stroke-linejoin:round;stroke-miterlimit:4;stroke-dasharray:none;stroke-dashoffset:0;stroke-opacity:1;enable-background:new"
         clip-path="url(#clipPath1082-3-36)"
         transform="matrix(0.5,0,0,0.5,-16,122)" />
    </g>
  </g>
</svg>
