<svg height="16" width="16" xmlns="http://www.w3.org/2000/svg">
    <g fill="gray">
        <path d="M4.994 0C3.736.015 2.815-.03 2.063.385a1.88 1.88 0 00-.838.998C1.06 1.82 1 2.343 1 3v10c0 .658.06 1.178.225 1.617.164.439.461.789.838.996.68.376 1.534.371 2.615.38a6 6 0 01-1.192-1.052c-.43-.038-.752-.099-.941-.203-.183-.101-.287-.213-.385-.472C2.063 14.006 2 13.592 2 13V3c0-.592.063-1.006.16-1.266.098-.26.202-.371.385-.472C2.91 1.06 3.74 1.015 5 1h5c1.259.015 2.09.06 2.455.262.184.1.287.213.385.472.097.26.16.674.16 1.266v1.535a6 6 0 011 1.154V3c0-.658-.06-1.179-.225-1.617a1.875 1.875 0 00-.837-.996C12.185-.028 11.264.015 10.006 0H4.998zm8.777 13.627a6 6 0 01-.449.523l.082.084c.153-.173.28-.377.367-.607z" style="line-height:normal;font-variant-ligatures:normal;font-variant-position:normal;font-variant-caps:normal;font-variant-numeric:normal;font-variant-alternates:normal;font-feature-settings:normal;text-indent:0;text-align:start;text-decoration-line:none;text-decoration-style:solid;text-decoration-color:#000;text-transform:none;text-orientation:mixed;white-space:normal;shape-padding:0;isolation:auto;mix-blend-mode:normal;solid-color:#000;solid-opacity:1;marker:none" color="#000" font-weight="400" font-family="sans-serif" overflow="visible"/>
        <path d="M6.857 8c-.264.293-.467.63-.591 1h5.617a2.978 2.978 0 00-.59-1zm-.736 2c-.009.346.04.684.16 1h5.567c.123-.317.194-.653.19-1zm.793 2c.532.56 1.271.929 2.055.94.848.048 1.66-.336 2.238-.94z"/>
        <path d="M9 5c-2.755 0-5 2.245-5 5s2.245 5 5 5 5-2.245 5-5-2.245-5-5-5zm0 1.04A3.954 3.954 0 0112.96 10 3.954 3.954 0 019 13.96 3.952 3.952 0 015.041 10 3.952 3.952 0 019 6.04z" style="line-height:normal;font-variant-ligatures:normal;font-variant-position:normal;font-variant-caps:normal;font-variant-numeric:normal;font-variant-alternates:normal;font-feature-settings:normal;text-indent:0;text-align:start;text-decoration-line:none;text-decoration-style:solid;text-decoration-color:#000;text-transform:none;text-orientation:mixed;white-space:normal;shape-padding:0;isolation:auto;mix-blend-mode:normal;solid-color:#000;solid-opacity:1" color="#000" font-weight="400" font-family="sans-serif" overflow="visible"/>
        <path d="M12.353 12.646l-.707.708 2.5 2.5.707-.708z" style="line-height:normal;font-variant-ligatures:normal;font-variant-position:normal;font-variant-caps:normal;font-variant-numeric:normal;font-variant-alternates:normal;font-feature-settings:normal;text-indent:0;text-align:start;text-decoration-line:none;text-decoration-style:solid;text-decoration-color:#000;text-transform:none;text-orientation:mixed;white-space:normal;shape-padding:0;isolation:auto;mix-blend-mode:normal;solid-color:#000;solid-opacity:1" color="#000" font-weight="400" font-family="sans-serif" overflow="visible" fill-rule="evenodd"/>
    </g>
</svg>
