<svg height="16" width="16" xmlns="http://www.w3.org/2000/svg">
    <g transform="translate(-552 -240)" fill="gray">
        <path d="M556.994 240c-1.258.015-2.179-.03-2.931.385-.19.104-.358.246-.5.416h-.063v.088c-.11.148-.207.311-.275.494-.165.438-.225.96-.225 1.617v10c0 .658.06 1.179.225 1.617.164.439.461.789.838.996.752.415 1.673.372 2.931.387h5.012c1.258-.015 2.179.03 2.932-.385a1.88 1.88 0 00.838-.998c.164-.438.224-.96.224-1.617v-10c0-.658-.06-1.179-.225-1.617a1.992 1.992 0 00-.275-.492v-.09h-.062a1.774 1.774 0 00-.5-.414c-.753-.415-1.674-.372-2.932-.387h-5.008zM554 243h11v10c0 .592-.063 1.006-.16 1.266-.098.26-.201.371-.385.472-.366.202-1.196.247-2.455.262h-5c-1.259-.015-2.09-.06-2.455-.262-.184-.1-.287-.213-.385-.472-.097-.26-.16-.674-.16-1.266z" style="line-height:normal;font-variant-ligatures:normal;font-variant-position:normal;font-variant-caps:normal;font-variant-numeric:normal;font-variant-alternates:normal;font-feature-settings:normal;text-indent:0;text-align:start;text-decoration-line:none;text-decoration-style:solid;text-decoration-color:#000;text-transform:none;text-orientation:mixed;white-space:normal;shape-padding:0;isolation:auto;mix-blend-mode:normal;solid-color:#000;solid-opacity:1;marker:none" color="#000" font-weight="400" font-family="sans-serif" overflow="visible"/>
        <path d="M557 245h1l-2 5h-1z"/>
        <path d="M558 245h-1l2 5h1z"/>
        <rect height=".5" transform="scale(1 -1)" width="2" x="556.5" y="-248.5"/>
        <rect height=".5" width="1.5" x="555" y="249.5"/>
        <rect height=".5" width="1.5" x="558.5" y="249.5"/>
    </g>
</svg>
