<?xml version="1.0" encoding="UTF-8"?>
<svg id="svg7384" width="16" height="16" version="1.1" xmlns="http://www.w3.org/2000/svg" xmlns:cc="http://creativecommons.org/ns#" xmlns:dc="http://purl.org/dc/elements/1.1/" xmlns:osb="http://www.openswatchbook.org/uri/2009/osb" xmlns:rdf="http://www.w3.org/1999/02/22-rdf-syntax-ns#">
 <metadata id="metadata20854">
  <rdf:RDF>
   <cc:Work rdf:about="">
    <dc:title/>
    <dc:format>image/svg+xml</dc:format>
    <dc:type rdf:resource="http://purl.org/dc/dcmitype/StillImage"/>
   </cc:Work>
  </rdf:RDF>
 </metadata>
 <g id="g1833" transform="translate(-572 -240)" fill="#808080">
  <path id="path7742-5" d="m580 240a8 8 0 0 0-8 8 8 8 0 0 0 8 8 8 8 0 0 0 8-8 8 8 0 0 0-8-8zm0 1a7 7 0 0 1 7 7 7 7 0 0 1-7 7 7 7 0 0 1-7-7 7 7 0 0 1 7-7z"/>
  <path id="path7744-6" d="m580.71 245.66q0 1.1898-0.085 2.1671-0.085 0.96317-0.21247 1.9264h-0.82153q-0.12747-0.96318-0.21246-1.9264-0.085-0.97734-0.085-2.1671v-2.6629h1.4164zm0.24079 6.3881q0 0.38244-0.25496 0.66573-0.25495 0.28328-0.69405 0.28328-0.43909 0-0.69405-0.28328-0.25496-0.28329-0.25496-0.66573 0-0.38243 0.25496-0.66572 0.25496-0.28328 0.69405-0.28328 0.4391 0 0.69405 0.28328 0.25496 0.28329 0.25496 0.66572z"/>
 </g>
</svg>
