<?xml version="1.0" encoding="UTF-8"?>
<svg id="svg7384" width="16" height="16" version="1.1" xmlns="http://www.w3.org/2000/svg" xmlns:cc="http://creativecommons.org/ns#" xmlns:dc="http://purl.org/dc/elements/1.1/" xmlns:osb="http://www.openswatchbook.org/uri/2009/osb" xmlns:rdf="http://www.w3.org/1999/02/22-rdf-syntax-ns#">
 <metadata id="metadata20854">
  <rdf:RDF>
   <cc:Work rdf:about="">
    <dc:title/>
    <dc:format>image/svg+xml</dc:format>
    <dc:type rdf:resource="http://purl.org/dc/dcmitype/StillImage"/>
   </cc:Work>
  </rdf:RDF>
 </metadata>
 <g id="g1833" transform="translate(-572,-340)">
  <path id="rect9178-3" d="m579 340c-1.7628 0-2 1-2 1.5s0 1 0.25 1.5h-4.25v5.5s1-0.5 2-0.5c0.5 0 1 0.5 1 1s-0.5 1-1 1c-1 0-2-0.5-2-0.5v5.5h5.5s-0.5-1-0.5-2c0-0.5 0.5-1 1-1s1 0.5 1 1c0 1-0.5 2-0.5 2h5.5v-4.25c0.5 0.25 1 0.25 1.5 0.25 0.54612 0 1.5-0.23269 1.5-2 0-1.7628-1-2-1.5-2s-1 0-1.5 0.25v-4.25h-4.25c0.25-0.5 0.25-1 0.25-1.5 0-0.54612-0.23269-1.5-2-1.5zm0 1c0.5 0 1 0.5 1 1 0 1-0.5 2-0.5 2h0.5v0.0312l4-2e-3v4.4708s1-0.5 2-0.5c0.5 0 1 0.5 1 1s-0.5 1-1 1c-1 0-2-0.5-2-0.5v4.4648h-3.2363c0.23281-0.48826 0.23633-0.97657 0.23633-1.4648 0-0.54612-0.23269-1.5-2-1.5-1.7628 0-2 1-2 1.5 0 0.48827 4e-3 0.97658 0.23633 1.4648h-3.2129v-3.2051c0.4921 0.23834 0.98445 0.24023 1.4766 0.24023 0.54612 0 1.5-0.23269 1.5-2 0-1.7628-1-2-1.5-2-0.49211 0-0.98446 2e-3 -1.4766 0.24023v-3.207l3.9766-0.00195v-0.03125h0.5s-0.5-1-0.5-2c0-0.5 0.5-1 1-1z" fill="#808080"/>
 </g>
</svg>
