<svg height="16" width="16" xmlns="http://www.w3.org/2000/svg">
    <g fill="gray">
        <path d="M4.994 0C3.736.015 2.815-.03 2.062.385a1.88 1.88 0 00-.837.998C1.06 1.822 1 2.343 1 3v10c0 .658.06 1.179.225 1.617.164.439.461.79.837.998.753.416 1.674.37 2.932.385H10.006c1.258-.014 2.179.03 2.932-.385a1.88 1.88 0 00.838-.998c.164-.438.224-.96.224-1.617V3c0-.658-.06-1.178-.225-1.617a1.88 1.88 0 00-.838-.998c-.752-.416-1.673-.37-2.931-.385H4.998zM5 1h5c1.259.015 2.087.06 2.453.262.184.101.29.213.387.472.097.26.16.674.16 1.266v10c0 .592-.063 1.006-.16 1.266-.098.26-.204.371-.387.472-.366.202-1.195.247-2.453.262H5c-1.259-.015-2.087-.06-2.453-.262-.184-.1-.29-.212-.387-.472C2.063 14.006 2 13.592 2 13V3c0-.592.063-1.006.16-1.266.098-.26.203-.371.387-.472C2.913 1.06 3.74 1.015 5 1z" style="line-height:normal;font-variant-ligatures:normal;font-variant-position:normal;font-variant-caps:normal;font-variant-numeric:normal;font-variant-alternates:normal;font-feature-settings:normal;text-indent:0;text-align:start;text-decoration-line:none;text-decoration-style:solid;text-decoration-color:#000;text-transform:none;text-orientation:mixed;white-space:normal;shape-padding:0;isolation:auto;mix-blend-mode:normal;solid-color:#000;solid-opacity:1;marker:none" color="#000" font-weight="400" font-family="sans-serif" overflow="visible"/>
        <path d="M6.25 6a.25.25 0 00-.25.25v5.5c0 .139.112.25.25.25h2.5a.25.25 0 00.25-.25v-5.5A.25.25 0 008.75 6zm.875 4h.75c.07 0 .125.056.125.125v.75c0 .07-.055.125-.125.125h-.75A.125.125 0 017 10.875v-.75c0-.07.056-.125.125-.125zM7 2v1h1V2zm0 2v1h1V4z"/>
    </g>
</svg>
