<?xml version="1.0" encoding="UTF-8" standalone="no"?>
<!-- Created with Inkscape (http://www.inkscape.org/) -->

<svg
   xmlns:dc="http://purl.org/dc/elements/1.1/"
   xmlns:cc="http://creativecommons.org/ns#"
   xmlns:rdf="http://www.w3.org/1999/02/22-rdf-syntax-ns#"
   xmlns:svg="http://www.w3.org/2000/svg"
   xmlns="http://www.w3.org/2000/svg"
   xmlns:xlink="http://www.w3.org/1999/xlink"
   xmlns:sodipodi="http://sodipodi.sourceforge.net/DTD/sodipodi-0.dtd"
   xmlns:inkscape="http://www.inkscape.org/namespaces/inkscape"
   width="256px"
   height="256px"
   viewBox="0 0 256 256"
   version="1.1"
   id="SVGRoot"
   inkscape:version="0.92.3 (2405546, 2018-03-11)"
   sodipodi:docname="firefox.svg">
  <sodipodi:namedview
     id="base"
     pagecolor="#ffffff"
     bordercolor="#666666"
     borderopacity="1.0"
     inkscape:pageopacity="0.0"
     inkscape:pageshadow="2"
     inkscape:zoom="1.4142136"
     inkscape:cx="73.769365"
     inkscape:cy="127.33527"
     inkscape:document-units="px"
     inkscape:current-layer="layer3"
     showgrid="false"
     inkscape:window-width="1299"
     inkscape:window-height="704"
     inkscape:window-x="67"
     inkscape:window-y="27"
     inkscape:window-maximized="1"
     inkscape:grid-bbox="true"
     inkscape:snap-bbox="true"
     inkscape:snap-page="true"
     inkscape:bbox-paths="true"
     inkscape:snap-bbox-edge-midpoints="true"
     inkscape:bbox-nodes="true"
     inkscape:snap-bbox-midpoints="true"
     showguides="false" />
  <defs
     id="defs848">
    <clipPath
       clipPathUnits="userSpaceOnUse"
       id="clipPath1082-3">
      <path
         sodipodi:nodetypes="sssssssss"
         inkscape:connector-curvature="0"
         id="path1084-6"
         d="M 361.9375,-212 C 507.2348,-212 528,-191.28677 528,-46.125 V 70.125 C 528,215.28618 507.2348,236 361.9375,236 H 214.0625 C 68.7652,236 48,215.28618 48,70.125 V -46.125 C 48,-191.28677 68.7652,-212 214.0625,-212 Z"
         style="display:inline;opacity:1;fill:#8c59d9;fill-opacity:1;stroke:none;stroke-width:2;stroke-linecap:round;stroke-linejoin:round;stroke-miterlimit:4;stroke-dasharray:none;stroke-dashoffset:0;stroke-opacity:1;enable-background:new" />
    </clipPath>
    <clipPath
       clipPathUnits="userSpaceOnUse"
       id="clipPath1025">
      <path
         style="opacity:1;fill:#8c59d9;fill-opacity:1;stroke:none;stroke-width:2;stroke-linecap:round;stroke-linejoin:round;stroke-miterlimit:4;stroke-dasharray:none;stroke-dashoffset:0;stroke-opacity:1"
         d="M 329.9375,32 C 475.2348,32 496,52.71323 496,197.875 v 116.25 C 496,459.28618 475.2348,480 329.9375,480 H 182.0625 C 36.7652,480 16,459.28618 16,314.125 V 197.875 C 16,52.71323 36.7652,32 182.0625,32 Z"
         id="path1027"
         inkscape:connector-curvature="0"
         sodipodi:nodetypes="sssssssss" />
    </clipPath>
    <clipPath
       clipPathUnits="userSpaceOnUse"
       id="clipPath4277-8">
      <rect
         style="color:#000000;display:inline;overflow:visible;visibility:visible;opacity:0.81999972;fill:#88b637;fill-opacity:1;fill-rule:nonzero;stroke:none;stroke-width:2;stroke-linecap:butt;stroke-linejoin:miter;stroke-miterlimit:4;stroke-dasharray:none;stroke-dashoffset:0;stroke-opacity:1;marker:none;enable-background:accumulate"
         id="rect4279-6"
         width="512"
         height="512"
         x="5.5999999e-07"
         y="0"
         ry="1" />
    </clipPath>
    <linearGradient
       id="linearGradient3650-7-9">
      <stop
         style="stop-color:#5884f4;stop-opacity:1"
         offset="0"
         id="stop4366" />
      <stop
         id="stop4368"
         offset="1"
         style="stop-color:#80a3fa;stop-opacity:1" />
    </linearGradient>
    <filter
       inkscape:collect="always"
       style="color-interpolation-filters:sRGB"
       id="filter929"
       x="-0.0232"
       width="1.0464"
       y="-0.024857143"
       height="1.0497143">
      <feGaussianBlur
         inkscape:collect="always"
         stdDeviation="2.32"
         id="feGaussianBlur931" />
    </filter>
    <filter
       inkscape:collect="always"
       style="color-interpolation-filters:sRGB"
       id="filter4569"
       x="-0.0116"
       width="1.0232"
       y="-0.012428571"
       height="1.024857">
      <feGaussianBlur
         inkscape:collect="always"
         stdDeviation="1.16"
         id="feGaussianBlur4571" />
    </filter>
    <clipPath
       clipPathUnits="userSpaceOnUse"
       id="clipPath1082-3-3">
      <path
         sodipodi:nodetypes="sssssssss"
         inkscape:connector-curvature="0"
         id="path1084-6-5"
         d="M 361.9375,-212 C 507.2348,-212 528,-191.28677 528,-46.125 V 70.125 C 528,215.28618 507.2348,236 361.9375,236 H 214.0625 C 68.7652,236 48,215.28618 48,70.125 V -46.125 C 48,-191.28677 68.7652,-212 214.0625,-212 Z"
         style="display:inline;opacity:1;fill:#8c59d9;fill-opacity:1;stroke:none;stroke-width:2;stroke-linecap:round;stroke-linejoin:round;stroke-miterlimit:4;stroke-dasharray:none;stroke-dashoffset:0;stroke-opacity:1;enable-background:new" />
    </clipPath>
    <clipPath
       clipPathUnits="userSpaceOnUse"
       id="clipPath1082-3-3-6">
      <path
         sodipodi:nodetypes="sssssssss"
         inkscape:connector-curvature="0"
         id="path1084-6-5-2"
         d="M 361.9375,-212 C 507.2348,-212 528,-191.28677 528,-46.125 V 70.125 C 528,215.28618 507.2348,236 361.9375,236 H 214.0625 C 68.7652,236 48,215.28618 48,70.125 V -46.125 C 48,-191.28677 68.7652,-212 214.0625,-212 Z"
         style="display:inline;opacity:1;fill:#8c59d9;fill-opacity:1;stroke:none;stroke-width:2;stroke-linecap:round;stroke-linejoin:round;stroke-miterlimit:4;stroke-dasharray:none;stroke-dashoffset:0;stroke-opacity:1;enable-background:new" />
    </clipPath>
    <linearGradient
       inkscape:collect="always"
       xlink:href="#linearGradient1013"
       id="linearGradient1108"
       x1="296"
       y1="-212"
       x2="296"
       y2="236"
       gradientUnits="userSpaceOnUse" />
    <linearGradient
       id="linearGradient1013"
       inkscape:collect="always">
      <stop
         id="stop1005"
         offset="0"
         style="stop-color:#ffffff;stop-opacity:1;" />
      <stop
         style="stop-color:#ffffff;stop-opacity:0.09803922"
         offset="0.125"
         id="stop1007" />
      <stop
         style="stop-color:#000000;stop-opacity:0.09803922"
         offset="0.92500001"
         id="stop1009" />
      <stop
         id="stop1011"
         offset="1"
         style="stop-color:#000000;stop-opacity:0.49803922" />
    </linearGradient>
    <clipPath
       clipPathUnits="userSpaceOnUse"
       id="clipPath1082-3-36">
      <path
         sodipodi:nodetypes="sssssssss"
         inkscape:connector-curvature="0"
         id="path1084-6-7"
         d="M 361.9375,-212 C 507.2348,-212 528,-191.28677 528,-46.125 V 70.125 C 528,215.28618 507.2348,236 361.9375,236 H 214.0625 C 68.7652,236 48,215.28618 48,70.125 V -46.125 C 48,-191.28677 68.7652,-212 214.0625,-212 Z"
         style="display:inline;opacity:1;fill:#8c59d9;fill-opacity:1;stroke:none;stroke-width:2;stroke-linecap:round;stroke-linejoin:round;stroke-miterlimit:4;stroke-dasharray:none;stroke-dashoffset:0;stroke-opacity:1;enable-background:new" />
    </clipPath>
    <filter
       inkscape:collect="always"
       style="color-interpolation-filters:sRGB"
       id="filter4995"
       x="-0.097546235"
       width="1.1950926"
       y="-0.094502024"
       height="1.1890039">
      <feGaussianBlur
         inkscape:collect="always"
         stdDeviation="7.1533903"
         id="feGaussianBlur4997" />
    </filter>
    <radialGradient
       id="radial-gradient-99"
       cx="-14480.522"
       cy="-8329.0791"
       fx="-14509.281"
       r="450.875"
       gradientTransform="matrix(0.762,0.034,-0.05,1.12,11560.893,10069.103)"
       gradientUnits="userSpaceOnUse">
      <stop
         offset="0.045"
         stop-color="#ffea00"
         id="stop1351-6" />
      <stop
         offset="0.12"
         stop-color="#ffde00"
         id="stop1353-7" />
      <stop
         offset="0.254"
         stop-color="#ffbf00"
         id="stop1355-9" />
      <stop
         offset="0.429"
         stop-color="#ff8e00"
         id="stop1357-39" />
      <stop
         offset="0.769"
         stop-color="#ff272d"
         id="stop1359-7" />
      <stop
         offset="0.872"
         stop-color="#e0255a"
         id="stop1361-4" />
      <stop
         offset="0.953"
         stop-color="#cc2477"
         id="stop1363-8" />
      <stop
         offset="1"
         stop-color="#c42482"
         id="stop1365-99" />
    </radialGradient>
    <radialGradient
       id="radial-gradient-2-4"
       cx="-7529.6689"
       cy="-7921.6079"
       r="791.229"
       gradientTransform="matrix(1.225,0,0,1.225,9921.963,9899.103)"
       gradientUnits="userSpaceOnUse">
      <stop
         offset="0"
         stop-color="#00ccda"
         id="stop1368-2" />
      <stop
         offset="0.22"
         stop-color="#0083ff"
         id="stop1370-7" />
      <stop
         offset="0.261"
         stop-color="#007af9"
         id="stop1372-4" />
      <stop
         offset="0.33"
         stop-color="#0060e8"
         id="stop1374-26" />
      <stop
         offset="0.333"
         stop-color="#005fe7"
         id="stop1376-07" />
      <stop
         offset="0.438"
         stop-color="#2639ad"
         id="stop1378-4" />
      <stop
         offset="0.522"
         stop-color="#401e84"
         id="stop1380-7" />
      <stop
         offset="0.566"
         stop-color="#4a1475"
         id="stop1382-7" />
    </radialGradient>
    <linearGradient
       inkscape:collect="always"
       xlink:href="#linear-gradient-46-3-1-3"
       id="linearGradient4923"
       gradientUnits="userSpaceOnUse"
       x1="575.66901"
       y1="731.18799"
       x2="384.23099"
       y2="104.96" />
    <linearGradient
       id="linear-gradient-46-3-1-3"
       x1="575.66901"
       y1="731.18799"
       x2="384.23099"
       y2="104.96"
       gradientUnits="userSpaceOnUse">
      <stop
         offset="0"
         stop-color="#000f43"
         stop-opacity="0.4"
         id="stop1385-2-7-9-1" />
      <stop
         offset="0.485"
         stop-color="#001962"
         stop-opacity="0.173"
         id="stop1387-3-6-6-0" />
      <stop
         offset="1"
         stop-color="#002079"
         stop-opacity="0"
         id="stop1389-5-7-6-3" />
    </linearGradient>
    <radialGradient
       id="radial-gradient-3-5"
       cx="-8260.9404"
       cy="-6516.5562"
       r="266.88599"
       gradientTransform="matrix(1.219,0.123,-0.123,1.219,10296.265,9597.23)"
       gradientUnits="userSpaceOnUse">
      <stop
         offset="0.003"
         stop-color="#ffea00"
         id="stop1392-2" />
      <stop
         offset="0.497"
         stop-color="#ff272d"
         id="stop1394-14" />
      <stop
         offset="1"
         stop-color="#c42482"
         id="stop1396-53" />
    </radialGradient>
    <radialGradient
       id="radial-gradient-4-5"
       cx="-8285.0869"
       cy="-6772.4678"
       r="445.67801"
       gradientTransform="matrix(1.219,0.123,-0.123,1.219,10296.265,9597.23)"
       gradientUnits="userSpaceOnUse">
      <stop
         offset="0.003"
         stop-color="#ffe900"
         id="stop1399-9" />
      <stop
         offset="0.157"
         stop-color="#ffaf0e"
         id="stop1401-01" />
      <stop
         offset="0.316"
         stop-color="#ff7a1b"
         id="stop1403-8" />
      <stop
         offset="0.472"
         stop-color="#ff4e26"
         id="stop1405-9" />
      <stop
         offset="0.621"
         stop-color="#ff2c2e"
         id="stop1407-5" />
      <stop
         offset="0.762"
         stop-color="#ff1434"
         id="stop1409-7" />
      <stop
         offset="0.892"
         stop-color="#ff0538"
         id="stop1411-2" />
      <stop
         offset="1"
         stop-color="#ff0039"
         id="stop1413-2" />
    </radialGradient>
    <radialGradient
       id="radial-gradient-5-64"
       cx="-8222.0508"
       cy="-6359.332"
       r="408.95801"
       gradientTransform="matrix(1.219,0.123,-0.123,1.219,10296.265,9597.23)"
       gradientUnits="userSpaceOnUse">
      <stop
         offset="0.003"
         stop-color="#ff272d"
         id="stop1416-2" />
      <stop
         offset="0.497"
         stop-color="#c42482"
         id="stop1418-62" />
      <stop
         offset="0.986"
         stop-color="#620700"
         id="stop1420-51" />
    </radialGradient>
    <radialGradient
       id="radial-gradient-6-7"
       cx="750.18903"
       cy="396.04099"
       fx="778.1665"
       fy="382.2124"
       r="782.17999"
       gradientUnits="userSpaceOnUse">
      <stop
         offset="0.156"
         stop-color="#ffea00"
         id="stop1423-7" />
      <stop
         offset="0.231"
         stop-color="#ffde00"
         id="stop1425-4" />
      <stop
         offset="0.365"
         stop-color="#ffbf00"
         id="stop1427-0" />
      <stop
         offset="0.541"
         stop-color="#ff8e00"
         id="stop1429-3" />
      <stop
         offset="0.763"
         stop-color="#ff272d"
         id="stop1431-5" />
      <stop
         offset="0.796"
         stop-color="#f92433"
         id="stop1433-0" />
      <stop
         offset="0.841"
         stop-color="#e91c45"
         id="stop1435-1" />
      <stop
         offset="0.893"
         stop-color="#cf0e62"
         id="stop1437-6" />
      <stop
         offset="0.935"
         stop-color="#b5007f"
         id="stop1439-02" />
    </radialGradient>
    <radialGradient
       id="radial-gradient-7-8"
       cx="691.33899"
       cy="3.289"
       r="923.61499"
       gradientUnits="userSpaceOnUse">
      <stop
         offset="0.279"
         stop-color="#ffea00"
         id="stop1442-4" />
      <stop
         offset="0.402"
         stop-color="#fd0"
         id="stop1444-0" />
      <stop
         offset="0.63"
         stop-color="#ffba00"
         id="stop1446-1" />
      <stop
         offset="0.856"
         stop-color="#ff9100"
         id="stop1448-6" />
      <stop
         offset="0.933"
         stop-color="#ff6711"
         id="stop1450-2" />
      <stop
         offset="0.994"
         stop-color="#ff4a1d"
         id="stop1452-9" />
    </radialGradient>
    <linearGradient
       inkscape:collect="always"
       xlink:href="#linear-gradient-2-1-2-3-9"
       id="linearGradient4925"
       gradientUnits="userSpaceOnUse"
       gradientTransform="matrix(1.219,0.123,-0.123,1.219,10296.265,9597.23)"
       x1="-8944.6504"
       y1="-6677.7422"
       x2="-8660.2891"
       y2="-6750.2261" />
    <linearGradient
       id="linear-gradient-2-1-2-3-9"
       x1="-8944.6504"
       y1="-6677.7422"
       x2="-8660.2891"
       y2="-6750.2261"
       gradientTransform="matrix(1.219,0.123,-0.123,1.219,10296.265,9597.23)"
       gradientUnits="userSpaceOnUse">
      <stop
         offset="0"
         stop-color="#c42482"
         stop-opacity="0.5"
         id="stop1455-0-6-5-8" />
      <stop
         offset="0.474"
         stop-color="#ff272d"
         stop-opacity="0.5"
         id="stop1457-2-4-6-3" />
      <stop
         offset="0.486"
         stop-color="#ff2c2c"
         stop-opacity="0.513"
         id="stop1459-0-4-8-7" />
      <stop
         offset="0.675"
         stop-color="#ff7a1a"
         stop-opacity="0.72"
         id="stop1461-9-7-1-1" />
      <stop
         offset="0.829"
         stop-color="#ffb20d"
         stop-opacity="0.871"
         id="stop1463-2-7-8-0" />
      <stop
         offset="0.942"
         stop-color="#ffd605"
         stop-opacity="0.964"
         id="stop1465-5-2-0-2" />
      <stop
         offset="1"
         stop-color="#ffe302"
         id="stop1467-0-8-8-8" />
    </linearGradient>
    <linearGradient
       inkscape:collect="always"
       xlink:href="#linear-gradient-3-6-8-0-4"
       id="linearGradient4927"
       gradientUnits="userSpaceOnUse"
       gradientTransform="matrix(0.995,0.1,-0.1,0.995,-173.696,1313.941)"
       x1="245.347"
       y1="-1082.012"
       x2="190.77499"
       y2="-1221.859" />
    <linearGradient
       id="linear-gradient-3-6-8-0-4"
       x1="245.347"
       y1="-1082.012"
       x2="190.77499"
       y2="-1221.859"
       gradientTransform="matrix(0.995,0.1,-0.1,0.995,-173.696,1313.941)"
       gradientUnits="userSpaceOnUse">
      <stop
         offset="0"
         stop-color="#891551"
         stop-opacity="0.6"
         id="stop1470-1-1-3-8" />
      <stop
         offset="1"
         stop-color="#c42482"
         stop-opacity="0"
         id="stop1472-5-6-6-3" />
    </linearGradient>
    <linearGradient
       inkscape:collect="always"
       xlink:href="#linear-gradient-4-4-2-3-8"
       id="linearGradient4929"
       gradientUnits="userSpaceOnUse"
       gradientTransform="matrix(0.995,0.1,-0.1,0.995,305.439,-246.471)"
       x1="22.040001"
       y1="718.82703"
       x2="116.148"
       y2="825.71399" />
    <linearGradient
       id="linear-gradient-4-4-2-3-8"
       x1="22.040001"
       y1="718.82703"
       x2="116.148"
       y2="825.71399"
       gradientTransform="matrix(0.995,0.1,-0.1,0.995,305.439,-246.471)"
       gradientUnits="userSpaceOnUse">
      <stop
         offset="0.005"
         stop-color="#891551"
         stop-opacity="0.5"
         id="stop1475-8-9-0-5" />
      <stop
         offset="0.484"
         stop-color="#ff272d"
         stop-opacity="0.5"
         id="stop1477-5-6-0-2" />
      <stop
         offset="1"
         stop-color="#ff272d"
         stop-opacity="0"
         id="stop1479-7-5-3-4" />
    </linearGradient>
    <linearGradient
       inkscape:collect="always"
       xlink:href="#linear-gradient-5-2-2-9-3"
       id="linearGradient4931"
       gradientUnits="userSpaceOnUse"
       gradientTransform="matrix(0.995,0.1,-0.1,0.995,305.439,-246.471)"
       x1="200.104"
       y1="904.61603"
       x2="200.17101"
       y2="829.83502" />
    <linearGradient
       id="linear-gradient-5-2-2-9-3"
       x1="200.104"
       y1="904.61603"
       x2="200.17101"
       y2="829.83502"
       gradientTransform="matrix(0.995,0.1,-0.1,0.995,305.439,-246.471)"
       gradientUnits="userSpaceOnUse">
      <stop
         offset="0"
         stop-color="#c42482"
         id="stop1482-4-7-7-0" />
      <stop
         offset="0.083"
         stop-color="#c42482"
         stop-opacity="0.81"
         id="stop1484-3-8-6-5" />
      <stop
         offset="0.206"
         stop-color="#c42482"
         stop-opacity="0.565"
         id="stop1486-0-3-3-6" />
      <stop
         offset="0.328"
         stop-color="#c42482"
         stop-opacity="0.362"
         id="stop1488-4-0-5-0" />
      <stop
         offset="0.447"
         stop-color="#c42482"
         stop-opacity="0.204"
         id="stop1490-3-0-7-0" />
      <stop
         offset="0.562"
         stop-color="#c42482"
         stop-opacity="0.091"
         id="stop1492-5-1-6-8" />
      <stop
         offset="0.673"
         stop-color="#c42482"
         stop-opacity="0.023"
         id="stop1494-1-6-3-3" />
      <stop
         offset="0.773"
         stop-color="#c42482"
         stop-opacity="0"
         id="stop1496-5-6-4-7" />
    </linearGradient>
    <linearGradient
       inkscape:collect="always"
       xlink:href="#linear-gradient-6-1-5-1-9"
       id="linearGradient4933"
       gradientUnits="userSpaceOnUse"
       x1="655.53101"
       y1="38.119999"
       x2="961.18701"
       y2="721.61499" />
    <linearGradient
       id="linear-gradient-6-1-5-1-9"
       x1="655.53101"
       y1="38.119999"
       x2="961.18701"
       y2="721.61499"
       gradientUnits="userSpaceOnUse">
      <stop
         offset="0"
         stop-color="#fff14f"
         id="stop1499-2-9-8-0" />
      <stop
         offset="0.268"
         stop-color="#ffee4c"
         id="stop1501-7-6-4-2" />
      <stop
         offset="0.452"
         stop-color="#ffe643"
         id="stop1503-8-6-6-4" />
      <stop
         offset="0.612"
         stop-color="#ffd834"
         id="stop1505-0-8-8-8" />
      <stop
         offset="0.757"
         stop-color="#ffc41e"
         id="stop1507-7-1-0-6" />
      <stop
         offset="0.892"
         stop-color="#ffab02"
         id="stop1509-4-3-4-1" />
      <stop
         offset="0.902"
         stop-color="#ffa900"
         id="stop1511-1-3-8-6" />
      <stop
         offset="0.949"
         stop-color="#ffa000"
         id="stop1513-1-4-9-3" />
      <stop
         offset="1"
         stop-color="#ff9100"
         id="stop1515-6-1-4-9" />
    </linearGradient>
    <linearGradient
       inkscape:collect="always"
       xlink:href="#linear-gradient-7-3-4-7-5"
       id="linearGradient4935"
       gradientUnits="userSpaceOnUse"
       x1="715.88501"
       y1="431.20999"
       x2="571.09802"
       y2="819.96002" />
    <linearGradient
       id="linear-gradient-7-3-4-7-5"
       x1="715.88501"
       y1="431.20999"
       x2="571.09802"
       y2="819.96002"
       gradientUnits="userSpaceOnUse">
      <stop
         offset="0"
         stop-color="#ff8e00"
         id="stop1518-1-7-2-0" />
      <stop
         offset="0.04"
         stop-color="#ff8e00"
         stop-opacity="0.858"
         id="stop1520-6-7-6-7" />
      <stop
         offset="0.084"
         stop-color="#ff8e00"
         stop-opacity="0.729"
         id="stop1522-8-2-6-5" />
      <stop
         offset="0.13"
         stop-color="#ff8e00"
         stop-opacity="0.628"
         id="stop1524-6-5-4-2" />
      <stop
         offset="0.178"
         stop-color="#ff8e00"
         stop-opacity="0.557"
         id="stop1526-1-3-9-6" />
      <stop
         offset="0.227"
         stop-color="#ff8e00"
         stop-opacity="0.514"
         id="stop1528-5-8-3-9" />
      <stop
         offset="0.282"
         stop-color="#ff8e00"
         stop-opacity="0.5"
         id="stop1530-1-9-5-2" />
      <stop
         offset="0.389"
         stop-color="#ff8e00"
         stop-opacity="0.478"
         id="stop1532-2-4-7-0" />
      <stop
         offset="0.524"
         stop-color="#ff8e00"
         stop-opacity="0.416"
         id="stop1534-1-6-8-4" />
      <stop
         offset="0.676"
         stop-color="#ff8e00"
         stop-opacity="0.314"
         id="stop1536-8-7-6-1" />
      <stop
         offset="0.838"
         stop-color="#ff8e00"
         stop-opacity="0.172"
         id="stop1538-5-9-0-0" />
      <stop
         offset="1"
         stop-color="#ff8e00"
         stop-opacity="0"
         id="stop1540-8-6-3-9" />
    </linearGradient>
  </defs>
  <metadata
     id="metadata851">
    <rdf:RDF>
      <cc:Work
         rdf:about="">
        <dc:format>image/svg+xml</dc:format>
        <dc:type
           rdf:resource="http://purl.org/dc/dcmitype/StillImage" />
        <dc:title></dc:title>
      </cc:Work>
    </rdf:RDF>
  </metadata>
  <g
     id="layer1"
     inkscape:groupmode="layer"
     inkscape:label="Icon">
    <g
       inkscape:groupmode="layer"
       id="layer8"
       inkscape:label="Baseplate"
       style="display:none">
      <text
         y="-36.254883"
         xml:space="preserve"
         x="-4.9931641"
         style="font-style:normal;font-variant:normal;font-weight:normal;font-stretch:normal;font-size:18.66666603px;line-height:0%;font-family:Ubuntu;-inkscape-font-specification:Ubuntu;display:inline;fill:#000000;fill-opacity:1;stroke:none;enable-background:new"
         inkscape:label="context"
         id="context"><tspan
           style="font-style:normal;font-variant:normal;font-weight:normal;font-stretch:normal;font-size:18.66666603px;line-height:1.25;font-family:Ubuntu;-inkscape-font-specification:Ubuntu"
           y="-36.254883"
           x="-4.9931641"
           sodipodi:role="line"
           id="tspan3933">apps</tspan></text>
      <text
         y="-36.254883"
         xml:space="preserve"
         x="122.48828"
         style="font-style:normal;font-variant:normal;font-weight:bold;font-stretch:normal;font-size:18.66666603px;line-height:0%;font-family:Ubuntu;-inkscape-font-specification:'Ubuntu Bold';text-align:start;writing-mode:lr-tb;text-anchor:start;display:inline;fill:#000000;fill-opacity:1;stroke:none;enable-background:new"
         inkscape:label="icon-name"
         id="icon-name"><tspan
           style="font-style:normal;font-variant:normal;font-weight:bold;font-stretch:normal;font-size:18.66666603px;line-height:1.25;font-family:Ubuntu;-inkscape-font-specification:'Ubuntu Bold'"
           y="-36.254883"
           x="122.48828"
           sodipodi:role="line"
           id="tspan1120">firefox</tspan></text>
      <rect
         style="display:inline;overflow:visible;visibility:visible;fill:#cdcdcd;fill-opacity:1;fill-rule:nonzero;stroke:none;stroke-width:2;marker:none;enable-background:accumulate"
         id="rect3951"
         width="256"
         height="256"
         x="0"
         y="0"
         inkscape:label="plate" />
    </g>
    <g
       inkscape:groupmode="layer"
       id="layer7"
       inkscape:label="Shadows"
       sodipodi:insensitive="true">
      <path
         style="display:inline;opacity:0.2;fill:#000000;fill-opacity:1;stroke:none;stroke-width:2;stroke-linecap:round;stroke-linejoin:round;stroke-miterlimit:4;stroke-dasharray:none;stroke-dashoffset:0;stroke-opacity:1;filter:url(#filter929);enable-background:new"
         d="m 164.96876,17.999982 c 72.64865,0 83.03125,10.356615 83.03125,82.937508 v 58.125 c 0,72.58059 -10.3826,82.9375 -83.03125,82.9375 H 91.03125 c -72.64865,0 -83.0312498,-10.35691 -83.0312498,-82.9375 v -58.125 c 0,-72.580893 10.3825998,-82.937508 83.0312498,-82.937508 z"
         id="path927"
         inkscape:connector-curvature="0"
         sodipodi:nodetypes="sssssssss" />
      <path
         sodipodi:nodetypes="sssssssss"
         inkscape:connector-curvature="0"
         id="path4567"
         d="m 164.96876,15.999982 c 72.64865,0 83.03125,10.356615 83.03125,82.937504 v 58.125004 c 0,72.58059 -10.3826,82.9375 -83.03125,82.9375 H 91.03125 c -72.64865,0 -83.0312498,-10.35691 -83.0312498,-82.9375 V 98.937486 c 0,-72.580889 10.3825998,-82.937504 83.0312498,-82.937504 z"
         style="display:inline;opacity:0.1;fill:#000000;fill-opacity:1;stroke:none;stroke-width:2;stroke-linecap:round;stroke-linejoin:round;stroke-miterlimit:4;stroke-dasharray:none;stroke-dashoffset:0;stroke-opacity:1;filter:url(#filter4569);enable-background:new" />
    </g>
    <g
       inkscape:groupmode="layer"
       id="layer6"
       inkscape:label="Shape"
       style="display:inline">
      <path
         style="display:inline;opacity:1;fill:#202340;fill-opacity:1;stroke:none;stroke-width:2;stroke-linecap:round;stroke-linejoin:round;stroke-miterlimit:4;stroke-dasharray:none;stroke-dashoffset:0;stroke-opacity:1;enable-background:new"
         d="M 164.96875,16.000005 C 237.6174,16.000005 248,26.35662 248,98.9375 v 58.125 C 248,229.64309 237.6174,240 164.96875,240 H 91.031246 C 18.3826,240 8,229.64309 8,157.0625 V 98.9375 C 8,26.35662 18.3826,16.000005 91.031246,16.000005 Z"
         id="rect877"
         inkscape:connector-curvature="0"
         sodipodi:nodetypes="sssssssss" />
    </g>
    <g
       inkscape:groupmode="layer"
       id="layer3"
       inkscape:label="Pictogram"
       style="display:inline">
      <path
         inkscape:connector-curvature="0"
         id="path1547-7-1-0"
         d="m 158.62324,32.33037 c 0,0 -3.39683,3.878372 -6.89678,10.001384 -0.8719,1.443093 -1.75095,3.136886 -2.61047,4.963125 -0.1694,0.364665 -0.32891,0.753145 -0.49392,1.127931 -0.23815,0.537372 -0.46971,1.066713 -0.6983,1.632906 -6.29506,-1.558818 -12.84286,-2.47081 -19.61599,-2.47081 -19.80762,0 -37.969194,7.063385 -52.133974,18.831824 -0.011,-0.0275 -0.0165,-0.033 -0.033,-0.0643 -0.19031,-0.49227 -0.14576,-0.23321 -0.0754,0.055 -0.68835,0.54232 -1.47406,1.10681 -2.21296,1.66508 -0.37947,-0.38556 -0.63237,-0.52967 -1.08498,-1.09575 -0.22001,-0.27666 -0.48127,-0.68681 -0.71976,-1.02051 -0.31406,-0.43617 -0.61487,-0.82801 -0.94532,-1.353606 -0.16391,-0.261261 -0.35532,-0.655077 -0.52637,-0.945323 -0.44222,-0.756721 -0.89434,-1.510416 -1.34283,-2.438579 -0.011,-0.022 -0.022,2.75e-4 -0.033,-0.011 0,0 -0.011,-0.011 -0.011,-0.011 -0.18151,-0.316812 -0.28326,0.511521 -0.41912,0.333314 -1.08701,-2.553753 -1.74725,-6.647678 -1.58989,-9.550201 0,0 -0.0715,0.0627 -0.0754,0.06435 8.8e-4,-0.0275 -0.011,-0.0682 -0.011,-0.0968 0,0 -2.27523,1.032062 -4.1574,5.360572 -0.28766,0.641326 -0.47797,0.99092 -0.66602,1.353549 0.044,-0.370165 0.1804,-1.084533 0.1397,-1.020511 -0.0275,0.044 -0.0864,0.114405 -0.11825,0.161157 0.005,-0.044 0.0275,-0.205159 0.022,-0.193608 -0.32727,0.553817 -1.17496,1.329403 -1.54694,2.331159 -0.22826,0.662557 -0.52527,1.12133 -0.75199,1.85847 0.0165,-0.321763 0.055,-0.808808 0.011,-0.687528 -0.0561,0.108354 -0.0957,0.23376 -0.15071,0.343764 10e-4,-0.09295 0.0165,-0.343764 0,-0.289862 a 43.587966,43.587966 0 0 0 -2.26669,5.510943 c -0.91925,3.02243 -1.93894,7.09083 -2.2667,12.21434 -0.0644,0.71591 -0.10725,1.14751 -0.11825,1.60068 -0.0385,0.43341 -0.005,0.91314 -0.044,1.29986 -2.40003,2.74043 -4.03332,5.06015 -4.6516,6.26294 -3.10284,4.79466 -6.52579,12.26522 -9.84022,24.08492 a 58.919076,58.919076 0 0 1 5.27465,-9.22788 c -2.75616,6.27382 -5.4296,16.12109 -5.96218,31.29323 a 80.958415,80.958415 0 0 1 2.5675,-9.27084 c -0.47577,10.11694 0.70502,22.66355 7.10084,36.81497 3.79758,8.32376 12.53303,25.22457 33.89298,38.41558 0,0 7.26513,5.41024 19.755694,9.46423 0.9231,0.33497 1.86029,0.66839 2.81458,0.98834 -0.29922,-0.12101 -0.5888,-0.25576 -0.87014,-0.38667 a 89.517426,89.517426 0 0 0 25.62113,3.77068 c 31.15519,0.0275 40.90438,-11.78169 41.59543,-12.66558 0.044,-0.0385 0.0666,-0.0798 0.10726,-0.11826 0.011,-0.011 0.1826,-0.1826 0.1826,-0.1826 0.0897,-0.0858 0.14906,-0.18206 0.23651,-0.26841 0.33387,-0.32672 0.67296,-0.65326 0.98834,-0.99906 -0.0495,0.044 -0.11331,0.0748 -0.16116,0.11825 0.94142,-1.05362 1.75534,-2.12462 2.2882,-3.20129 0.18206,-0.13201 0.35642,-0.27446 0.53683,-0.40812 12.74803,-5.95377 26.20157,-15.35997 28.16718,-29.1877 0.011,-0.0495 0.033,-0.121 0.044,-0.1716 -0.004,0.011 -0.0165,0.044 -0.022,0.055 0.0495,-0.35477 0.17106,-0.68159 0.20406,-1.04202 -0.005,0.0589 -0.1408,0.49337 -0.19306,0.73049 0.28382,-1.64001 0.27831,-3.16582 -0.0858,-4.47966 9.17129,-14.83058 13.18832,-31.42041 10.31292,-49.41609 0,0 0.055,0.81525 0.0968,1.38584 -0.044,-0.26731 -0.15016,-1.25691 -0.15016,-1.25691 0,0 -1.23436,1.58511 -2.82535,3.83514 -0.11055,-1.45107 -0.28491,-2.91435 -0.50492,-4.38302 -0.66096,-4.54945 -1.81667,-9.21931 -3.57729,-13.96539 -8.19187,-23.70134 -25.91121,-42.585904 -25.91121,-49.136779 -1.7043,1.984535 -3.05081,4.93766 -3.81364,8.475952 C 163.47339,43.567706 158.6212,36.471704 158.6212,32.333282 Z"
         style="display:inline;opacity:0.2;fill:#000000;fill-opacity:1;stroke:#000000;stroke-width:5;stroke-linecap:round;stroke-linejoin:round;stroke-miterlimit:4;stroke-dasharray:none;stroke-opacity:1;filter:url(#filter4995);enable-background:new" />
      <g
         style="display:inline;opacity:1;stroke-width:5.41685152;enable-background:new"
         id="g1574"
         transform="matrix(0.18460908,0,0,0.18460908,33.538856,31.975304)">
        <path
           id="path1547"
           style="fill:url(#radial-gradient-99);stroke-width:5.41685152"
           d="m 805.285,93.558 c -23.947,27.884 -35.1,90.639 -10.818,154.256 24.282,63.617 61.5,49.8 84.7,114.673 30.623,85.6 16.369,200.589 16.369,200.589 0,0 36.814,106.609 62.468,-6.633 C 1014.787,343.74 805.285,145.937 805.285,93.558 Z"
           inkscape:connector-curvature="0" />
        <path
           style="fill:url(#radial-gradient-2-4);stroke-width:5.41685152"
           d="m 513.072,976.638 c 245.236,0 443.9,-199.739 443.9,-446.028 C 956.972,284.321 758.308,84.583 513.31,84.583 268.312,84.583 69.65,284.322 69.65,530.61 69.175,777.137 268.073,976.638 513.072,976.638 Z"
           data-name="&lt;Path&gt;"
           id="_Path_"
           inkscape:connector-curvature="0" />
        <path
           id="path1550"
           style="fill:url(#linearGradient4923);stroke-width:5.41685152"
           d="m 845.675,805.636 a 246.888,246.888 0 0 1 -30.123,18.183 704,704 0 0 0 38.3,-62.961 c 9.46,-10.47 18.126,-20.648 25.188,-31.653 3.437,-5.407 7.313,-12.079 11.416,-19.819 24.921,-44.9 52.4,-117.563 53.179,-192.2 v -0.18 c 0.018,-1.837 0.029,-3.675 0.014,-5.515 a 257.6,257.6 0 0 0 -5.712,-55.748 c 0.2,1.431 0.376,2.861 0.556,4.291 -0.221,-1.1 -0.407,-2.212 -0.644,-3.314 0.366,2.034 0.66,4 0.976,5.983 5.094,43.217 1.466,85.372 -16.682,116.45 -0.286,0.454 -0.58,0.879 -0.869,1.323 9.41,-47.234 12.558,-99.387 2.088,-151.6 0,0 -4.187,-25.383 -35.376,-102.441 -17.952,-44.353 -49.833,-80.716 -78,-107.207 -24.69,-30.546 -47.114,-51.045 -59.475,-64.06 -25.821,-27.189 -36.643,-47.569 -41.087,-60.867 -3.853,-1.932 -53.135,-49.807 -57.05,-51.631 -21.511,33.352 -89.162,137.675 -56.981,235.146 14.584,44.172 51.467,90.017 90.067,115.736 1.695,1.936 22.969,25.042 33.086,77.157 10.446,53.842 4.954,95.855 -16.546,157.983 -25.286,54.505 -90.067,108.388 -150.724,113.9 -129.676,11.781 -177.149,-65.108 -177.149,-65.108 46.336,18.525 97.568,14.65 128.724,-4.556 31.4,-19.425 50.394,-33.827 65.81,-28.148 15.2,5.653 27.3,-10.756 16.442,-27.767 a 78.5,78.5 0 0 0 -79.4,-34.573 c -31.433,5.109 -60.226,30.009 -101.412,5.894 a 85.528,85.528 0 0 1 -7.729,-5.062 c -2.715,-1.785 8.826,2.717 6.133,0.688 -8.015,-4.354 -22.2,-13.842 -25.88,-17.217 -0.613,-0.562 6.219,2.179 5.606,1.616 -38.51,-31.712 -33.7,-53.134 -32.49,-66.57 0.969,-10.749 7.964,-24.523 19.751,-30.11 5.693,3.107 9.24,5.479 9.24,5.479 0,0 -2.428,-4.961 -3.741,-7.576 0.46,-0.2 0.9,-0.147 1.358,-0.342 4.664,2.251 14.977,8.1 20.407,11.667 7.072,4.988 9.326,9.436 9.326,9.436 0,0 1.862,-1.025 0.485,-5.375 -0.5,-1.784 -2.647,-7.453 -9.652,-13.174 l 0.438,0.049 a 81.2,81.2 0 0 1 11.867,8.241 c 1.975,-7.181 5.527,-14.679 4.746,-28.092 -0.477,-9.431 -0.257,-11.873 -1.919,-15.515 -1.488,-3.128 0.834,-4.348 3.418,-1.1 a 32.826,32.826 0 0 0 -2.208,-7.4 l 0.022,-0.244 c 3.225,-11.236 68.248,-40.461 72.981,-43.877 a 67.355,67.355 0 0 0 19.132,-20.8 c 3.617,-5.763 6.337,-13.848 7,-26.112 0.355,-8.844 -3.759,-14.734 -69.507,-21.618 -17.981,-1.771 -28.531,-14.8 -34.526,-26.823 -1.094,-2.59 -2.209,-4.937 -3.325,-7.282 a 58,58 0 0 1 -2.558,-8.431 c 10.749,-30.873 28.81,-56.977 55.367,-76.7 1.447,-1.318 -5.782,0.338 -4.336,-0.98 1.687,-1.538 12.706,-5.977 14.787,-6.977 2.542,-1.2 -10.882,-6.9 -22.732,-5.512 -12.069,1.36 -14.632,2.8 -21.073,5.531 2.673,-2.661 11.173,-6.149 9.18,-6.126 -13.011,1.995 -29.179,9.558 -43,18.124 a 10.731,10.731 0 0 1 0.835,-4.348 c -6.441,2.732 -22.26,13.788 -26.865,23.142 a 44.329,44.329 0 0 0 0.266,-5.4 84.483,84.483 0 0 0 -13.195,13.818 l -0.241,0.219 c -37.358,-15.05 -70.233,-16.024 -98.053,-9.276 -6.086,-6.112 -9.059,-1.644 -22.907,-32.069 -0.941,-1.832 0.722,1.809 0,0 -2.278,-5.9 1.389,7.872 0,0 -23.284,18.372 -53.92,39.193 -68.626,53.89 -0.182,0.586 17.156,-4.9 0,0 -6.008,1.716 -5.6,5.281 -6.513,37.5 -0.22,2.443 -0.025,5.179 -0.223,7.378 -11.748,14.968 -19.749,27.643 -22.775,34.211 -15.193,26.18 -31.926,66.992 -48.146,131.551 A 334.364,334.364 0 0 1 110.2,400.365 C 96.712,434.632 83.673,488.443 81.066,571.31 a 483.614,483.614 0 0 1 12.533,-50.66 473.038,473.038 0 0 0 34.74,201.061 c 9.329,22.821 24.76,57.455 51.029,95.4 82.533,86.839 198.945,140.9 327.852,140.9 134.572,10e-4 255.415,-58.878 338.455,-152.375 z"
           inkscape:connector-curvature="0" />
        <path
           id="path1552"
           style="fill:url(#radial-gradient-3-5);stroke-width:5.41685152"
           d="m 746.1,868.708 c 162.87,-18.86 234.969,-186.7 142.381,-190 -83.633,-2.673 -219.527,198.9 -142.381,190 z"
           inkscape:connector-curvature="0" />
        <path
           id="path1554"
           style="fill:url(#radial-gradient-4-5);stroke-width:5.41685152"
           d="m 900.207,644.424 c 112.056,-65.214 82.839,-206.08 82.839,-206.08 0,0 -43.246,50.238 -72.625,130.32 -29.021,79.299 -77.584,115.148 -10.214,75.76 z"
           inkscape:connector-curvature="0" />
        <path
           id="path1556"
           style="fill:url(#radial-gradient-5-64);stroke-width:5.41685152"
           d="m 544.474,952.062 c 156.227,49.851 290.5,-73.22 207.733,-114.32 -75.251,-37.066 -281.883,90.748 -207.733,114.32 z"
           inkscape:connector-curvature="0" />
        <path
           id="path1558"
           style="fill:url(#radial-gradient-6-7);stroke-width:5.41685152"
           d="m 911.849,704.234 c 3.8,-5.363 8.94,-22.535 13.48,-30.211 27.582,-44.523 27.777,-80.023 27.777,-80.836 16.659,-83.219 15.148,-117.2 4.9,-180.043 -8.251,-50.6 -44.322,-123.092 -75.57,-158 -32.2,-35.965 -9.514,-24.247 -40.692,-50.518 C 814.417,174.333 787.921,144.335 773.491,132.271 669.215,45.094 671.571,26.577 673.579,23.42 c -0.339,0.371 -0.837,0.922 -1.472,1.643 C 670.872,20.14 670,16 670,16 c 0,0 -57,57 -69,152 -7.834,62.021 15.383,126.676 49,168 a 381.367,381.367 0 0 0 59,58 v -0.026 c 25.4,36.477 39.38,81.489 39.38,129.909 0,121.244 -98.341,219.531 -219.652,219.531 a 220.455,220.455 0 0 1 -49.134,-5.519 c -57.236,-10.908 -90.288,-39.781 -106.772,-59.382 -9.447,-11.234 -13.464,-19.423 -13.464,-19.423 51.283,18.371 107.986,14.528 142.468,-4.518 34.749,-19.265 55.774,-33.546 72.837,-27.915 16.82,5.606 30.211,-10.667 18.2,-27.536 -11.771,-16.845 -42.4,-40.97 -87.878,-34.286 -34.789,5.067 -66.657,29.76 -112.24,5.845 a 96.313,96.313 0 0 1 -8.554,-5.02 c -3.005,-1.771 9.768,2.695 6.787,0.682 -8.87,-4.318 -24.573,-13.728 -28.643,-17.074 -0.679,-0.557 6.883,2.161 6.2,1.6 -42.621,-31.449 -37.3,-52.693 -35.959,-66.018 1.073,-10.66 8.814,-24.32 21.859,-29.86 6.3,3.081 10.226,5.433 10.226,5.433 0,0 -2.688,-4.92 -4.141,-7.513 0.509,-0.194 0.994,-0.145 1.5,-0.339 5.162,2.232 16.576,8.029 22.586,11.57 7.827,4.947 10.322,9.358 10.322,9.358 0,0 2.061,-1.016 0.536,-5.33 -0.557,-1.769 -2.929,-7.391 -10.682,-13.065 l 0.485,0.049 a 90.851,90.851 0 0 1 13.134,8.173 c 2.186,-7.121 6.118,-14.557 5.253,-27.859 -0.528,-9.352 -0.284,-11.775 -2.124,-15.386 -1.647,-3.1 0.924,-4.312 3.782,-1.088 a 30.038,30.038 0 0 0 -2.444,-7.343 l 0.025,-0.242 c 3.57,-11.143 75.535,-40.125 80.773,-43.513 a 70.31,70.31 0 0 0 21.175,-20.63 c 4,-5.715 7.014,-13.733 7.748,-25.895 0.246,-5.48 -1.441,-9.817 -20.5,-13.965 -11.439,-2.49 -29.136,-4.913 -56.433,-7.474 -19.9,-1.756 -31.577,-14.676 -38.212,-26.6 -1.211,-2.569 -2.445,-4.9 -3.68,-7.222 a 53.108,53.108 0 0 1 -2.831,-8.36 158.47,158.47 0 0 1 61.279,-76.063 c 1.6,-1.308 -6.4,0.335 -4.8,-0.972 1.868,-1.525 14.063,-5.927 16.367,-6.919 2.813,-1.186 -12.044,-6.84 -25.159,-5.466 -13.357,1.349 -16.194,2.776 -23.323,5.486 2.959,-2.639 12.366,-6.1 10.161,-6.075 -14.4,1.978 -32.3,9.479 -47.6,17.973 a 9.676,9.676 0 0 1 0.924,-4.312 c -7.129,2.709 -24.637,13.674 -29.734,22.95 a 39.488,39.488 0 0 0 0.294,-5.354 88.678,88.678 0 0 0 -14.6,13.7 l -0.267,0.218 c -41.347,-14.925 -77.732,-15.891 -108.522,-9.2 -6.736,-6.061 -17.566,-15.226 -32.892,-45.4 -1.041,-1.817 -1.6,3.755 -2.4,1.961 -5.955,-13.813 -9.553,-36.444 -8.962,-52.046 0,0 -12.318,5.614 -22.513,29.06 -1.893,4.215 -3.107,6.54 -4.32,8.865 -0.558,0.678 1.265,-7.7 0.974,-7.244 -1.772,3 -6.356,7.192 -8.371,12.618 -1.384,4.021 -3.325,6.273 -4.564,11.288 l -0.291,0.46 c -0.1,-1.478 0.367,-6.081 0.027,-5.137 a 236.1,236.1 0 0 0 -12.308,29.841 c -5.489,18.046 -11.879,42.61 -12.892,74.565 -0.244,2.423 -0.027,5.136 -0.247,7.317 -13,14.844 -21.858,27.413 -25.207,33.928 C 75.18,329.762 56.66,370.236 38.707,434.259 A 319.143,319.143 0 0 1 67.245,384.27 C 52.316,418.253 37.885,471.618 35,553.8 a 438.522,438.522 0 0 1 13.872,-50.24 c -2.578,54.8 3.805,122.74 38.449,199.393 20.57,45.087 67.921,136.649 183.62,208.1 l -0.01,0.007 c 0,0 39.36,29.3 107.017,51.259 5,1.814 10.065,3.6 15.234,5.333 -1.622,-0.655 -3.191,-1.344 -4.715,-2.052 a 484.883,484.883 0 0 0 138.8,20.4 c 175.18,0.149 226.846,-70.2 226.846,-70.2 0,0 -0.182,0.137 -0.513,0.377 q 3.708,-3.491 7.143,-7.257 c -27.639,26.1 -90.715,27.832 -114.3,25.949 40.223,-11.813 66.691,-21.806 118.175,-41.519 q 9.037,-3.35 18.482,-7.64 c 0.681,-0.3 1.368,-0.625 2.052,-0.936 1.249,-0.582 2.486,-1.132 3.747,-1.744 a 349.205,349.205 0 0 0 70.262,-43.987 c 51.7,-41.3 62.949,-81.557 68.829,-108.1 -0.82,2.544 -3.375,8.475 -5.17,12.316 -13.315,28.482 -42.841,45.959 -74.908,60.948 A 688.993,688.993 0 0 0 890.3,741.773 c 10.467,-10.383 13.733,-26.625 21.549,-37.539 z"
           inkscape:connector-curvature="0" />
        <path
           id="path1560"
           style="fill:url(#radial-gradient-7-8);stroke-width:5.41685152"
           d="m 848.921,802.982 c 21.08,-23.241 40.01,-49.824 54.349,-79.968 36.9,-77.582 93.952,-206.58 49.018,-341.306 C 916.775,275.225 868.016,217 806.107,160.122 705.563,67.756 677.482,26.521 677.482,2 677.482,2 561.393,131.409 611.74,266.381 662.087,401.353 765.2,396.405 833.419,537.255 913.694,703 768.47,883.869 648.375,934.493 c 7.353,-1.633 266.97,-60.383 280.614,-208.882 -0.309,2.731 -6.159,43.803 -80.068,77.371 z"
           inkscape:connector-curvature="0" />
        <path
           id="path1562"
           style="fill:url(#linearGradient4925);stroke-width:5.41685152"
           d="m 512.592,321.373 c 0.393,-8.77 -4.156,-14.66 -76.682,-21.463 -29.839,-2.755 -41.265,-30.334 -44.748,-41.941 -10.61,27.565 -14.991,56.49 -12.636,91.477 1.61,22.92 17.009,47.521 24.37,61.965 0,0 1.636,-2.126 2.391,-2.912 13.861,-14.431 71.936,-36.419 77.392,-39.541 6.014,-3.799 28.903,-20.523 29.913,-47.585 z"
           inkscape:connector-curvature="0" />
        <path
           id="path1564"
           style="fill:url(#linearGradient4927);stroke-width:5.41685152"
           d="m 193.314,158.471 c -1.041,-1.818 -1.6,3.754 -2.4,1.961 -5.955,-13.813 -9.578,-36.2 -8.72,-52.022 0,0 -12.318,5.614 -22.513,29.06 -1.893,4.215 -3.107,6.54 -4.32,8.865 -0.558,0.678 1.265,-7.7 0.974,-7.244 -1.771,3 -6.355,7.192 -8.346,12.375 -1.651,4.239 -3.349,6.515 -4.613,11.772 -0.389,1.429 0.392,-6.323 0.052,-5.379 -23.711,45.825 -28.237,115.114 -25.738,112.184 50.478,-53.9 108.325,-66.683 108.325,-66.683 -6.155,-4.534 -19.528,-17.625 -32.7,-44.889 z"
           inkscape:connector-curvature="0" />
        <path
           id="path1566"
           style="fill:url(#linearGradient4929);stroke-width:5.41685152"
           d="m 384.844,722.1 c -69.724,-29.769 -148.992,-71.755 -146,-167.138 4.075,-125.619 117.145,-100.791 117.145,-100.791 -4.267,1.039 -15.675,9.162 -19.718,17.82 -4.273,10.827 -12.069,35.276 11.551,60.9 37.089,40.192 -76.2,95.356 98.663,199.567 4.41,2.4 -40.991,-1.43 -61.639,-10.358 z"
           inkscape:connector-curvature="0" />
        <path
           id="path1568"
           style="fill:url(#linearGradient4931);stroke-width:5.41685152"
           d="m 360.074,659.5 c 49.442,17.207 107.04,14.189 141.523,-4.858 23.085,-12.851 52.7,-33.434 70.922,-28.353 -15.777,-6.236 -27.726,-9.15 -42.1,-9.862 -2.448,0 -5.382,-0.052 -8.048,-0.32 a 136.228,136.228 0 0 0 -15.757,0.863 c -8.9,0.818 -18.766,6.433 -27.735,5.532 -0.485,-0.049 8.7,-3.774 7.953,-3.605 -4.752,0.991 -9.915,1.205 -15.37,1.881 -3.467,0.386 -6.449,0.82 -9.891,0.963 -102.982,8.733 -190.017,-55.813 -190.017,-55.813 -7.408,24.95 33.166,74.3 88.521,93.572 z"
           inkscape:connector-curvature="0" />
        <path
           id="path1570"
           style="fill:url(#linearGradient4933);stroke-width:5.41685152"
           d="M 848.738,803.646 C 952.9,701.376 1005.6,577.061 983.321,437.627 c 0,0 8.9,71.5 -24.848,144.628 16.213,-71.393 18.1,-160.114 -24.975,-251.988 C 876.005,207.636 781.45,143.109 745.351,116.189 690.656,75.4 667.983,33.87 667.574,25.3 c -16.339,33.477 -65.766,148.2 -5.31,247 56.64,92.564 145.865,120.039 208.328,204.947 115.075,156.42 -21.854,326.399 -21.854,326.399 z"
           inkscape:connector-curvature="0" />
        <path
           id="path1572"
           style="fill:url(#linearGradient4935);stroke-width:5.41685152"
           d="M 833.814,537.551 C 797.412,462.35 751.978,429.55 709,394 c 5,7 6.232,9.473 9,14 37.827,40.316 93.607,138.656 53.11,262.107 C 694.881,902.482 389.967,793.057 358,762.319 370.932,896.808 596.036,961.164 742.6,873.949 826,795 893.468,660.788 833.814,537.551 Z"
           inkscape:connector-curvature="0" />
      </g>
    </g>
    <g
       inkscape:groupmode="layer"
       id="layer2"
       inkscape:label="Highlight"
       sodipodi:insensitive="true">
      <path
         sodipodi:nodetypes="sssssssss"
         inkscape:connector-curvature="0"
         id="path1068"
         d="M 361.9375,-212 C 507.2348,-212 528,-191.28677 528,-46.125 V 70.125 C 528,215.28618 507.2348,236 361.9375,236 H 214.0625 C 68.7652,236 48,215.28618 48,70.125 V -46.125 C 48,-191.28677 68.7652,-212 214.0625,-212 Z"
         style="display:inline;opacity:0.4;fill:none;fill-opacity:1;stroke:url(#linearGradient1108);stroke-width:8;stroke-linecap:round;stroke-linejoin:round;stroke-miterlimit:4;stroke-dasharray:none;stroke-dashoffset:0;stroke-opacity:1;enable-background:new"
         clip-path="url(#clipPath1082-3-36)"
         transform="matrix(0.5,0,0,0.5,-16,122)" />
    </g>
  </g>
</svg>
