<?xml version="1.0" encoding="UTF-8" standalone="no"?>
<!-- Created with Inkscape (http://www.inkscape.org/) -->

<svg
   xmlns:dc="http://purl.org/dc/elements/1.1/"
   xmlns:cc="http://creativecommons.org/ns#"
   xmlns:rdf="http://www.w3.org/1999/02/22-rdf-syntax-ns#"
   xmlns:svg="http://www.w3.org/2000/svg"
   xmlns="http://www.w3.org/2000/svg"
   xmlns:xlink="http://www.w3.org/1999/xlink"
   xmlns:sodipodi="http://sodipodi.sourceforge.net/DTD/sodipodi-0.dtd"
   xmlns:inkscape="http://www.inkscape.org/namespaces/inkscape"
   width="256px"
   height="256px"
   viewBox="0 0 256 256"
   version="1.1"
   id="SVGRoot"
   inkscape:version="0.92.3 (2405546, 2018-03-11)"
   sodipodi:docname="gnome-mahjongg.svg">
  <sodipodi:namedview
     id="base"
     pagecolor="#ffffff"
     bordercolor="#666666"
     borderopacity="1.0"
     inkscape:pageopacity="0.0"
     inkscape:pageshadow="2"
     inkscape:zoom="1.4142136"
     inkscape:cx="95.305131"
     inkscape:cy="98.790502"
     inkscape:document-units="px"
     inkscape:current-layer="layer6"
     showgrid="false"
     inkscape:window-width="1299"
     inkscape:window-height="704"
     inkscape:window-x="67"
     inkscape:window-y="27"
     inkscape:window-maximized="1"
     inkscape:grid-bbox="true"
     inkscape:snap-bbox="true"
     inkscape:snap-page="true"
     inkscape:bbox-paths="true"
     inkscape:snap-bbox-edge-midpoints="true"
     inkscape:bbox-nodes="true"
     inkscape:snap-bbox-midpoints="true" />
  <defs
     id="defs848">
    <clipPath
       clipPathUnits="userSpaceOnUse"
       id="clipPath1082-3">
      <path
         sodipodi:nodetypes="sssssssss"
         inkscape:connector-curvature="0"
         id="path1084-6"
         d="M 361.9375,-212 C 507.2348,-212 528,-191.28677 528,-46.125 V 70.125 C 528,215.28618 507.2348,236 361.9375,236 H 214.0625 C 68.7652,236 48,215.28618 48,70.125 V -46.125 C 48,-191.28677 68.7652,-212 214.0625,-212 Z"
         style="display:inline;opacity:1;fill:#8c59d9;fill-opacity:1;stroke:none;stroke-width:2;stroke-linecap:round;stroke-linejoin:round;stroke-miterlimit:4;stroke-dasharray:none;stroke-dashoffset:0;stroke-opacity:1;enable-background:new" />
    </clipPath>
    <clipPath
       clipPathUnits="userSpaceOnUse"
       id="clipPath1025">
      <path
         style="opacity:1;fill:#8c59d9;fill-opacity:1;stroke:none;stroke-width:2;stroke-linecap:round;stroke-linejoin:round;stroke-miterlimit:4;stroke-dasharray:none;stroke-dashoffset:0;stroke-opacity:1"
         d="M 329.9375,32 C 475.2348,32 496,52.71323 496,197.875 v 116.25 C 496,459.28618 475.2348,480 329.9375,480 H 182.0625 C 36.7652,480 16,459.28618 16,314.125 V 197.875 C 16,52.71323 36.7652,32 182.0625,32 Z"
         id="path1027"
         inkscape:connector-curvature="0"
         sodipodi:nodetypes="sssssssss" />
    </clipPath>
    <clipPath
       clipPathUnits="userSpaceOnUse"
       id="clipPath4277-8">
      <rect
         style="color:#000000;display:inline;overflow:visible;visibility:visible;opacity:0.81999972;fill:#88b637;fill-opacity:1;fill-rule:nonzero;stroke:none;stroke-width:2;stroke-linecap:butt;stroke-linejoin:miter;stroke-miterlimit:4;stroke-dasharray:none;stroke-dashoffset:0;stroke-opacity:1;marker:none;enable-background:accumulate"
         id="rect4279-6"
         width="512"
         height="512"
         x="5.5999999e-07"
         y="0"
         ry="1" />
    </clipPath>
    <linearGradient
       id="linearGradient3650-7-9">
      <stop
         style="stop-color:#5884f4;stop-opacity:1"
         offset="0"
         id="stop4366" />
      <stop
         id="stop4368"
         offset="1"
         style="stop-color:#80a3fa;stop-opacity:1" />
    </linearGradient>
    <filter
       inkscape:collect="always"
       style="color-interpolation-filters:sRGB"
       id="filter929"
       x="-0.0232"
       width="1.0464"
       y="-0.024857143"
       height="1.0497143">
      <feGaussianBlur
         inkscape:collect="always"
         stdDeviation="2.32"
         id="feGaussianBlur931" />
    </filter>
    <filter
       inkscape:collect="always"
       style="color-interpolation-filters:sRGB"
       id="filter4569"
       x="-0.0116"
       width="1.0232"
       y="-0.012428571"
       height="1.024857">
      <feGaussianBlur
         inkscape:collect="always"
         stdDeviation="1.16"
         id="feGaussianBlur4571" />
    </filter>
    <clipPath
       clipPathUnits="userSpaceOnUse"
       id="clipPath1082-3-3">
      <path
         sodipodi:nodetypes="sssssssss"
         inkscape:connector-curvature="0"
         id="path1084-6-5"
         d="M 361.9375,-212 C 507.2348,-212 528,-191.28677 528,-46.125 V 70.125 C 528,215.28618 507.2348,236 361.9375,236 H 214.0625 C 68.7652,236 48,215.28618 48,70.125 V -46.125 C 48,-191.28677 68.7652,-212 214.0625,-212 Z"
         style="display:inline;opacity:1;fill:#8c59d9;fill-opacity:1;stroke:none;stroke-width:2;stroke-linecap:round;stroke-linejoin:round;stroke-miterlimit:4;stroke-dasharray:none;stroke-dashoffset:0;stroke-opacity:1;enable-background:new" />
    </clipPath>
    <clipPath
       clipPathUnits="userSpaceOnUse"
       id="clipPath1082-3-3-6">
      <path
         sodipodi:nodetypes="sssssssss"
         inkscape:connector-curvature="0"
         id="path1084-6-5-2"
         d="M 361.9375,-212 C 507.2348,-212 528,-191.28677 528,-46.125 V 70.125 C 528,215.28618 507.2348,236 361.9375,236 H 214.0625 C 68.7652,236 48,215.28618 48,70.125 V -46.125 C 48,-191.28677 68.7652,-212 214.0625,-212 Z"
         style="display:inline;opacity:1;fill:#8c59d9;fill-opacity:1;stroke:none;stroke-width:2;stroke-linecap:round;stroke-linejoin:round;stroke-miterlimit:4;stroke-dasharray:none;stroke-dashoffset:0;stroke-opacity:1;enable-background:new" />
    </clipPath>
    <linearGradient
       inkscape:collect="always"
       xlink:href="#linearGradient1013"
       id="linearGradient1108"
       x1="296"
       y1="-212"
       x2="296"
       y2="236"
       gradientUnits="userSpaceOnUse" />
    <linearGradient
       id="linearGradient1013"
       inkscape:collect="always">
      <stop
         id="stop1005"
         offset="0"
         style="stop-color:#ffffff;stop-opacity:1;" />
      <stop
         style="stop-color:#ffffff;stop-opacity:0.09803922"
         offset="0.125"
         id="stop1007" />
      <stop
         style="stop-color:#000000;stop-opacity:0.09803922"
         offset="0.92500001"
         id="stop1009" />
      <stop
         id="stop1011"
         offset="1"
         style="stop-color:#000000;stop-opacity:0.49803922" />
    </linearGradient>
    <clipPath
       clipPathUnits="userSpaceOnUse"
       id="clipPath1082-3-36">
      <path
         sodipodi:nodetypes="sssssssss"
         inkscape:connector-curvature="0"
         id="path1084-6-7"
         d="M 361.9375,-212 C 507.2348,-212 528,-191.28677 528,-46.125 V 70.125 C 528,215.28618 507.2348,236 361.9375,236 H 214.0625 C 68.7652,236 48,215.28618 48,70.125 V -46.125 C 48,-191.28677 68.7652,-212 214.0625,-212 Z"
         style="display:inline;opacity:1;fill:#8c59d9;fill-opacity:1;stroke:none;stroke-width:2;stroke-linecap:round;stroke-linejoin:round;stroke-miterlimit:4;stroke-dasharray:none;stroke-dashoffset:0;stroke-opacity:1;enable-background:new" />
    </clipPath>
    <linearGradient
       inkscape:collect="always"
       xlink:href="#linearGradient876"
       id="linearGradient878"
       x1="32"
       y1="156"
       x2="272"
       y2="156"
       gradientUnits="userSpaceOnUse"
       gradientTransform="rotate(60,152.00002,156.00002)" />
    <linearGradient
       inkscape:collect="always"
       id="linearGradient876">
      <stop
         style="stop-color:#1a7fd4;stop-opacity:1;"
         offset="0"
         id="stop872" />
      <stop
         style="stop-color:#37a6e6;stop-opacity:1"
         offset="1"
         id="stop874" />
    </linearGradient>
    <filter
       inkscape:collect="always"
       style="color-interpolation-filters:sRGB"
       id="filter3074"
       x="-0.132"
       width="1.2640001"
       y="-0.11"
       height="1.22">
      <feGaussianBlur
         inkscape:collect="always"
         stdDeviation="6.6"
         id="feGaussianBlur3076" />
    </filter>
    <filter
       inkscape:collect="always"
       style="color-interpolation-filters:sRGB"
       id="filter3084"
       x="-0.0132"
       width="1.0264"
       y="-0.011"
       height="1.022">
      <feGaussianBlur
         inkscape:collect="always"
         stdDeviation="0.66"
         id="feGaussianBlur3086" />
    </filter>
  </defs>
  <metadata
     id="metadata851">
    <rdf:RDF>
      <cc:Work
         rdf:about="">
        <dc:format>image/svg+xml</dc:format>
        <dc:type
           rdf:resource="http://purl.org/dc/dcmitype/StillImage" />
        <dc:title></dc:title>
      </cc:Work>
    </rdf:RDF>
  </metadata>
  <g
     id="layer1"
     inkscape:groupmode="layer"
     inkscape:label="Icon">
    <g
       inkscape:groupmode="layer"
       id="layer8"
       inkscape:label="Baseplate"
       style="display:none">
      <text
         y="-36.254883"
         xml:space="preserve"
         x="-4.9931641"
         style="font-style:normal;font-variant:normal;font-weight:normal;font-stretch:normal;font-size:18.66666603px;line-height:0%;font-family:Ubuntu;-inkscape-font-specification:Ubuntu;display:inline;fill:#000000;fill-opacity:1;stroke:none;enable-background:new"
         inkscape:label="context"
         id="context"><tspan
           style="font-style:normal;font-variant:normal;font-weight:normal;font-stretch:normal;font-size:18.66666603px;line-height:1.25;font-family:Ubuntu;-inkscape-font-specification:Ubuntu"
           y="-36.254883"
           x="-4.9931641"
           sodipodi:role="line"
           id="tspan3933">apps</tspan></text>
      <text
         y="-36.254883"
         xml:space="preserve"
         x="122.48828"
         style="font-style:normal;font-variant:normal;font-weight:bold;font-stretch:normal;font-size:18.66666603px;line-height:0%;font-family:Ubuntu;-inkscape-font-specification:'Ubuntu Bold';text-align:start;writing-mode:lr-tb;text-anchor:start;display:inline;fill:#000000;fill-opacity:1;stroke:none;enable-background:new"
         inkscape:label="icon-name"
         id="icon-name"><tspan
           style="font-style:normal;font-variant:normal;font-weight:bold;font-stretch:normal;font-size:18.66666603px;line-height:1.25;font-family:Ubuntu;-inkscape-font-specification:'Ubuntu Bold'"
           y="-36.254883"
           x="122.48828"
           sodipodi:role="line"
           id="tspan3937">gnome-mahjongg</tspan></text>
      <rect
         style="display:inline;overflow:visible;visibility:visible;fill:#cdcdcd;fill-opacity:1;fill-rule:nonzero;stroke:none;stroke-width:2;marker:none;enable-background:accumulate"
         id="rect3951"
         width="256"
         height="256"
         x="0"
         y="0"
         inkscape:label="plate" />
    </g>
    <g
       inkscape:groupmode="layer"
       id="layer7"
       inkscape:label="Shadows"
       sodipodi:insensitive="true">
      <path
         style="display:inline;opacity:0.2;fill:#000000;fill-opacity:1;stroke:none;stroke-width:2;stroke-linecap:round;stroke-linejoin:round;stroke-miterlimit:4;stroke-dasharray:none;stroke-dashoffset:0;stroke-opacity:1;filter:url(#filter929);enable-background:new"
         d="m 164.96876,17.999982 c 72.64865,0 83.03125,10.356615 83.03125,82.937508 v 58.125 c 0,72.58059 -10.3826,82.9375 -83.03125,82.9375 H 91.03125 c -72.64865,0 -83.0312498,-10.35691 -83.0312498,-82.9375 v -58.125 c 0,-72.580893 10.3825998,-82.937508 83.0312498,-82.937508 z"
         id="path927"
         inkscape:connector-curvature="0"
         sodipodi:nodetypes="sssssssss" />
      <path
         sodipodi:nodetypes="sssssssss"
         inkscape:connector-curvature="0"
         id="path4567"
         d="m 164.96876,15.999982 c 72.64865,0 83.03125,10.356615 83.03125,82.937504 v 58.125004 c 0,72.58059 -10.3826,82.9375 -83.03125,82.9375 H 91.03125 c -72.64865,0 -83.0312498,-10.35691 -83.0312498,-82.9375 V 98.937486 c 0,-72.580889 10.3825998,-82.937504 83.0312498,-82.937504 z"
         style="display:inline;opacity:0.1;fill:#000000;fill-opacity:1;stroke:none;stroke-width:2;stroke-linecap:round;stroke-linejoin:round;stroke-miterlimit:4;stroke-dasharray:none;stroke-dashoffset:0;stroke-opacity:1;filter:url(#filter4569);enable-background:new" />
    </g>
    <g
       inkscape:groupmode="layer"
       id="layer6"
       inkscape:label="Shape"
       style="display:inline">
      <path
         transform="translate(-24,-28)"
         inkscape:export-ydpi="96"
         inkscape:export-xdpi="96"
         sodipodi:nodetypes="sssssssss"
         inkscape:connector-curvature="0"
         id="rect877"
         d="M 188.96875,44.000002 C 261.61739,43.999999 272,54.356621 272,126.9375 v 58.125 C 271.99999,257.64309 261.61739,268 188.96875,268 H 115.03124 C 42.3826,268.00001 32,257.64309 32,185.0625 v -58.125 C 32,54.356619 42.3826,43.999996 115.03125,44 Z"
         style="display:inline;opacity:1;fill:url(#linearGradient878);fill-opacity:1;stroke:none;stroke-width:2;stroke-linecap:round;stroke-linejoin:round;stroke-miterlimit:4;stroke-dasharray:none;stroke-dashoffset:0;stroke-opacity:1;enable-background:new" />
    </g>
    <g
       inkscape:groupmode="layer"
       id="layer3"
       inkscape:label="Pictogram"
       style="display:inline">
      <g
         transform="translate(-24,-28)"
         style="display:inline;opacity:1;enable-background:new"
         id="g16866"
         inkscape:export-filename="/home/stuart/Pictures/gnome-mahjongg.svg.png"
         inkscape:export-xdpi="96"
         inkscape:export-ydpi="96">
        <path
           inkscape:export-ydpi="96"
           inkscape:export-xdpi="96"
           id="rect877-9"
           d="m 32.00002,151.99999 v 33.0625 c 0,72.58059 10.38262,82.93751 83.03125,82.9375 h 73.9375 c 72.64864,0 83.03124,-10.35691 83.03125,-82.9375 v -33.0625 z"
           style="display:inline;opacity:0.05;fill:#ffffff;fill-opacity:1;stroke:none;stroke-width:2;stroke-linecap:round;stroke-linejoin:round;stroke-miterlimit:4;stroke-dasharray:none;stroke-dashoffset:0;stroke-opacity:1;enable-background:new"
           inkscape:connector-curvature="0" />
      </g>
      <g
         transform="translate(-23.99998,-28.000011)"
         style="display:inline;opacity:1;enable-background:new"
         id="g3204"
         inkscape:export-xdpi="96"
         inkscape:export-ydpi="96"
         inkscape:export-filename="/home/stuart/Pictures/gnome-mahjongg.svg.png">
        <rect
           ry="16.941177"
           rx="16"
           y="88.000008"
           x="91.999977"
           height="144"
           width="120"
           id="rect3003-0"
           style="display:inline;opacity:0.4;vector-effect:none;fill:#000000;fill-opacity:1;stroke:none;stroke-width:2.05798316;stroke-linecap:butt;stroke-linejoin:round;stroke-miterlimit:4;stroke-dasharray:none;stroke-dashoffset:0;stroke-opacity:1;filter:url(#filter3074);enable-background:new" />
        <rect
           ry="16.941177"
           rx="16"
           y="83.999985"
           x="92.000015"
           height="144"
           width="120"
           id="rect3003-8"
           style="display:inline;opacity:0.1;vector-effect:none;fill:#000000;fill-opacity:1;stroke:none;stroke-width:2.05798316;stroke-linecap:butt;stroke-linejoin:round;stroke-miterlimit:4;stroke-dasharray:none;stroke-dashoffset:0;stroke-opacity:1;filter:url(#filter3084);enable-background:new" />
        <rect
           ry="16.941177"
           rx="16"
           y="84"
           x="92"
           height="144"
           width="120"
           id="rect3003"
           style="opacity:1;vector-effect:none;fill:#f1f0e9;fill-opacity:1;stroke:none;stroke-width:2.05798316;stroke-linecap:butt;stroke-linejoin:round;stroke-miterlimit:4;stroke-dasharray:none;stroke-dashoffset:0;stroke-opacity:1" />
        <path
           inkscape:connector-curvature="0"
           id="rect2781"
           d="m 150.00167,108.04454 c -2.92759,0.4172 -1.75991,3.84708 -1.99833,5.90192 0.65038,2.21494 -0.77945,2.3497 -2.60243,2.09131 -11.7886,0 -23.57721,0 -35.36581,0 -2.92759,0.41719 -1.75991,3.84707 -1.99832,5.90191 0.30254,3.02233 3.83138,1.86272 5.90197,2.09131 11.35486,0 22.70973,0 34.06459,0 0,2.6644 0,5.32881 0,7.99323 -9.99164,0 -19.98329,0 -29.97493,0 -2.92759,0.41719 -1.75991,3.84707 -1.99833,5.90191 0,10.68864 0,21.37726 0,32.0659 0.4172,2.92756 3.84712,1.75988 5.90199,1.99831 6.80625,0 13.61251,0 20.41878,0 -5.91336,5.9136 -11.8267,11.82721 -17.74005,17.74082 -1.77504,2.36495 1.47599,3.96446 2.7603,5.58599 2.35098,1.92243 4.02584,-1.39253 5.6516,-2.69472 4.99354,-4.99324 9.9871,-9.98645 14.98064,-14.97966 0,8.10739 0,16.21476 0,24.32215 0.4172,2.92756 3.84711,1.75989 5.90198,1.99831 3.02237,-0.30256 1.86274,-3.83135 2.09133,-5.90191 0,-6.90214 0,-13.80427 0,-20.70639 6.00931,6.00922 12.0186,12.01845 18.02789,18.02769 2.40014,1.77564 4.00317,-1.53099 5.6525,-2.82574 1.77504,-2.36495 -1.47599,-3.96446 -2.7603,-5.586 -4.99357,-4.99351 -9.98714,-9.98702 -14.98072,-14.98054 8.01185,0 16.02371,0 24.03556,0 2.92759,-0.4172 1.75992,-3.84708 1.99833,-5.90192 0,-10.68863 0,-21.37727 0,-32.0659 -0.41719,-2.92756 -3.84711,-1.75989 -5.90198,-1.9983 -8.69043,0 -17.38085,0 -26.07128,0 0,-2.66442 0,-5.32883 0,-7.99323 12.65609,0 25.31217,0 37.96824,0 2.92759,-0.41719 1.75992,-3.84707 1.99833,-5.90191 -0.30255,-3.02234 -3.83139,-1.86272 -5.90197,-2.09131 -11.35487,0 -22.70974,0 -34.0646,0 -0.0914,-2.25416 0.19158,-4.54557 -0.15655,-6.7742 -1.13529,-2.00604 -3.94645,-0.953 -5.83843,-1.21903 z m -25.97827,31.9729 c 7.99331,0 15.98662,0 23.97994,0 0,2.6644 0,5.32881 0,7.99322 -7.99332,0 -15.98663,0 -23.97994,0 0,-2.66441 0,-5.32882 0,-7.99322 z m 31.97325,0 c 7.99332,0 15.98663,0 23.97994,0 0,2.6644 0,5.32881 0,7.99322 -7.99331,0 -15.98662,0 -23.97994,0 0,-2.66441 0,-5.32882 0,-7.99322 z m -31.97325,15.98645 c 7.99331,0 15.98662,0 23.97994,0 0,2.6644 0,5.32881 0,7.99322 -7.99332,0 -15.98663,0 -23.97994,0 0,-2.66441 0,-5.32882 0,-7.99322 z m 31.97325,0 c 7.99332,0 15.98663,0 23.97994,0 0,2.6644 0,5.32881 0,7.99322 -7.99331,0 -15.98662,0 -23.97994,0 0,-2.66441 0,-5.32882 0,-7.99322 z"
           style="opacity:0.5;vector-effect:none;fill:#37a6e6;fill-opacity:1;stroke:none;stroke-width:0.99915856;stroke-linecap:butt;stroke-linejoin:round;stroke-miterlimit:4;stroke-dasharray:none;stroke-dashoffset:0;stroke-opacity:1" />
        <path
           inkscape:connector-curvature="0"
           id="rect3003-2"
           d="m 108,84 c -8.864,0 -16,7.556 -16,16.94141 v 1 C 92,92.556 99.136,85 108,85 h 88 c 8.864,0 16,7.556 16,16.94141 v -1 C 212,91.556 204.864,84 196,84 Z"
           style="display:inline;opacity:1;vector-effect:none;fill:#fefefd;fill-opacity:1;stroke:none;stroke-width:2.05798316;stroke-linecap:butt;stroke-linejoin:round;stroke-miterlimit:4;stroke-dasharray:none;stroke-dashoffset:0;stroke-opacity:1;enable-background:new" />
        <path
           sodipodi:nodetypes="cccccccccccccccccccccccccccccccccccccccccccccccccccccccccccccccccccccccccccccccccccccccccccc"
           inkscape:connector-curvature="0"
           id="rect2781-3"
           d="m 153.20541,108.00212 c -1.0812,-0.0208 -2.25714,0.17599 -3.20313,0.043 -1.99698,0.28458 -2.08553,1.97048 -2.01758,3.66602 0.0526,-1.30871 0.42021,-2.43838 2.01758,-2.66602 1.89198,0.26603 4.7026,-0.78729 5.83789,1.21875 0.14058,0.89993 0.16896,1.8108 0.16993,2.72461 0.0232,-1.24956 0.0219,-2.49644 -0.16993,-3.72461 -0.56764,-1.00302 -1.55356,-1.24097 -2.63476,-1.26172 z m -5.1875,5.59571 c -0.006,0.11544 -0.001,0.24117 -0.0137,0.34961 0.0181,0.0617 0.0183,0.10555 0.0332,0.16406 -0.002,-0.16594 -0.0123,-0.341 -0.0195,-0.51367 z m 7.9707,1.45117 c -0.0122,0.66447 -0.019,1.32769 0.008,1.98828 h 34.06446 c 2.02531,0.22359 5.43742,-0.86988 5.86914,1.91016 -0.003,-0.28827 0.004,-0.56393 0.0332,-0.81836 -0.30255,-3.02234 -3.83176,-1.86321 -5.90234,-2.0918 h -34.06446 c -0.0133,-0.32852 -0.007,-0.65849 -0.008,-0.98828 z m -7.9043,0.29297 c -0.27528,0.85118 -1.37109,0.88134 -2.68359,0.69531 h -35.36523 c -1.99734,0.28463 -2.08561,1.97213 -2.01758,3.66797 0.0526,-1.30871 0.4202,-2.44034 2.01758,-2.66797 h 35.36523 c 1.70085,0.24108 3.03742,0.11826 2.68359,-1.69531 z m 47.86524,4.13672 c -0.0278,0.57952 0.007,1.2264 0.0332,1.88476 0.0248,-0.61646 -0.007,-1.26107 -0.0332,-1.88476 z m -87.89844,2.11132 c -0.006,0.11574 -10e-4,0.24093 -0.0137,0.34961 0.007,0.0661 0.0236,0.11951 0.0332,0.18164 -0.002,-0.17119 -0.012,-0.3528 -0.0195,-0.53125 z m 76.67774,10.40039 c -0.92593,0.016 -1.88958,0.12261 -2.66016,0.0332 h -26.07227 v 1 h 26.07227 c 2.05487,0.23841 5.48515,-0.92756 5.90234,2 v -1 c -0.26074,-1.82973 -1.69898,-2.05979 -3.24218,-2.03321 z m -66.69922,0.0332 c -1.99734,0.28462 -2.08561,1.97213 -2.01758,3.66797 0.0526,-1.30871 0.4202,-2.44034 2.01758,-2.66797 h 29.97461 v -1 z m -1.98438,5.53906 c -0.006,0.12053 -0.003,0.25034 -0.0156,0.36328 v 1 c 0.0475,-0.40941 0.0362,-0.8794 0.0156,-1.36328 z m 7.97852,10.44727 v 1 h 23.98047 v -1 z m 31.97265,0 v 1 h 23.98047 v -1 z m -31.97265,15.98828 v 1 h 23.98047 v -1 z m 31.97265,0 v 1 h 23.98047 v -1 z m 31.95899,3.45312 c -0.0264,0.57623 0.007,1.21789 0.0332,1.8711 0.0245,-0.61158 -0.007,-1.25191 -0.0332,-1.8711 z M 142.252,171.99 c -5.58003,5.58026 -12.06032,12.16036 -17.64034,17.74063 -0.50842,0.67738 -0.59726,1.29103 -0.44531,1.86133 0.078,-0.27572 0.22125,-0.56281 0.44531,-0.86133 5.91335,-5.91361 12.72698,-12.82703 18.64034,-18.74063 z m 18.784,0 15.88035,15.98086 c 0.91729,1.15816 2.83099,2.30593 3.20703,3.72852 0.54194,-1.90953 -2.08446,-3.31118 -3.20703,-4.72852 L 162.036,171.99001 Z m -5.05325,27.41446 c -0.0258,0.56626 0.006,1.20027 0.0312,1.84765 0.0223,-0.60622 -0.006,-1.23748 -0.0312,-1.84765 z"
           style="display:inline;opacity:0.7;vector-effect:none;fill:#ffffff;fill-opacity:1;stroke:none;stroke-width:0.99915856;stroke-linecap:butt;stroke-linejoin:round;stroke-miterlimit:4;stroke-dasharray:none;stroke-dashoffset:0;stroke-opacity:1;enable-background:new" />
      </g>
    </g>
    <g
       inkscape:groupmode="layer"
       id="layer2"
       inkscape:label="Highlight"
       sodipodi:insensitive="true">
      <path
         sodipodi:nodetypes="sssssssss"
         inkscape:connector-curvature="0"
         id="path1068"
         d="M 361.9375,-212 C 507.2348,-212 528,-191.28677 528,-46.125 V 70.125 C 528,215.28618 507.2348,236 361.9375,236 H 214.0625 C 68.7652,236 48,215.28618 48,70.125 V -46.125 C 48,-191.28677 68.7652,-212 214.0625,-212 Z"
         style="display:inline;opacity:0.4;fill:none;fill-opacity:1;stroke:url(#linearGradient1108);stroke-width:8;stroke-linecap:round;stroke-linejoin:round;stroke-miterlimit:4;stroke-dasharray:none;stroke-dashoffset:0;stroke-opacity:1;enable-background:new"
         clip-path="url(#clipPath1082-3-36)"
         transform="matrix(0.5,0,0,0.5,-16,122)" />
    </g>
  </g>
</svg>
