<svg version="1.1" viewBox="0 0 16 16" xmlns="http://www.w3.org/2000/svg" xmlns:osb="http://www.openswatchbook.org/uri/2009/osb">
 <path d="m1.6652 7.2641s1.4466-2.1344 4.3351-2.3551v-0.77442c-3.1993 0.25694-5.9698 2.9666-5.9698 2.9666s1.5691 4.5362 5.9698 4.9515v-0.82308c-3.2295-0.40633-4.3351-3.9655-4.3351-3.9655zm4.3351 2.3285v0.75378c-2.4407-0.43513-3.1182-2.9723-3.1182-2.9723s1.1719-1.2982 3.1182-1.5087v0.82713c-1e-3 0-3e-3 -4.5e-4 -4e-3 -4.5e-4 -1.0215-0.12259-1.8195 0.83163-1.8195 0.83163s0.44722 1.6066 1.8233 2.0689m0-6.5926v1.1346c0.0939-0.0073 0.18783-0.01331 0.28227-0.01652 3.6373-0.12259 6.0072 2.9831 6.0072 2.9831s-2.7219 3.3098-5.5577 3.3098c-0.25989 0-0.50321-0.02411-0.73173-0.06454v0.88319c0.19542 0.02481 0.39804 0.03941 0.60947 0.03941 2.6389 0 4.5473-1.3477 6.3951-2.9428 0.30638 0.24537 1.5607 0.84224 1.8185 1.1036-1.757 1.471-5.8518 2.6568-8.1732 2.6568-0.22377 0-0.43867-0.01356-0.6499-0.03394v0.9473h10v-10zm0 2.8654v-0.95647c0.093-0.0065 0.18661-0.01151 0.28227-0.01453 2.6156-0.08215 4.3316 2.2477 4.3316 2.2477s-1.8534 2.5741-3.8407 2.5741c-0.286 0-0.54243-0.04596-0.7732-0.12355v-2.9001c1.0182 0.12304 1.2232 0.57283 1.8354 1.5933l1.3615-1.1481s-0.99388-1.3035-2.6693-1.3035c-0.18224 0-0.35651 0.01279-0.52757 0.03111" fill="#808080" stroke-miterlimit="10" stroke-width="0"/>
</svg>
