<svg version="1.1" viewBox="0 0 16 16" xmlns="http://www.w3.org/2000/svg" xmlns:osb="http://www.openswatchbook.org/uri/2009/osb">
 <g transform="translate(-512 -360)">
  <path d="m520.14 360a7 7 0 0 0-0.49219 8e-3h-6e-3a7 7 0 0 0-6.6328 6.6484 7 7 0 0 0 2e-3 0.69922 7 7 0 0 0 0.0644 0.64258h1.0176a6 6 0 0 1-0.084-0.69336 6 6 0 0 1 5.6856-6.2988h4e-3a6 6 0 0 1 6.2949 5.6875 6 6 0 0 1-0.0801 1.3047h1.0078a7 7 0 0 0 0.0703-1.3555 7 7 0 0 0-6.8516-6.6426zm-0.13867 3.998a3 3 0 0 0-3 3 3 3 0 0 0 0.17578 1h1.709a1.5 1.5 0 0 1-0.38477-1 1.5 1.5 0 0 1 1.5-1.5 1.5 1.5 0 0 1 1.5 1.5 1.5 1.5 0 0 1-0.38477 1h1.7109a3 3 0 0 0 0.17383-1 3 3 0 0 0-3-3zm-8 5v3.006c0.0145 1.2582-0.0306 2.1789 0.38477 2.9316 0.20766 0.37637 0.55938 0.67323 0.99804 0.83789 0.43867 0.16458 0.95958 0.22452 1.6172 0.22452h10c0.65761 0 1.1786-0.0599 1.6172-0.22461 0.43861-0.16468 0.78852-0.46153 0.99609-0.83789 0.41514-0.75272 0.37165-1.6735 0.38672-2.9316v-3.0059zm0.97656 1.0156h14.002c-0.025 1.3114 5e-3 2.5953-0.0664 3.873-0.0258 0.62223-0.59192 1.093-1.2012 1.0566-3.6074 0.0727-7.253 0.0516-10.861 0.0234-0.6505 0.0401-1.5521-0.088-1.7148-0.85156-0.16235-0.90534-0.097-1.8405-0.13868-2.7578-6e-3 -0.44779-0.0135-0.89595-0.0195-1.3438zm5.0234 0.98438v1h4v-1z" fill="#808080"/>
 </g>
</svg>
