<?xml version="1.0" encoding="UTF-8" standalone="no"?>
<svg
   xmlns:dc="http://purl.org/dc/elements/1.1/"
   xmlns:cc="http://creativecommons.org/ns#"
   xmlns:rdf="http://www.w3.org/1999/02/22-rdf-syntax-ns#"
   xmlns:svg="http://www.w3.org/2000/svg"
   xmlns="http://www.w3.org/2000/svg"
   xmlns:sodipodi="http://sodipodi.sourceforge.net/DTD/sodipodi-0.dtd"
   xmlns:inkscape="http://www.inkscape.org/namespaces/inkscape"
   height="16"
   width="16"
   version="1.1"
   id="svg4"
   sodipodi:docname="org.gnome.Lollypop-suggestions-symbolic.svg">
  <metadata
     id="metadata10">
    <rdf:RDF>
      <cc:Work
         rdf:about="">
        <dc:format>image/svg+xml</dc:format>
        <dc:type
           rdf:resource="http://purl.org/dc/dcmitype/StillImage" />
      </cc:Work>
    </rdf:RDF>
  </metadata>
  <defs
     id="defs8" />
  <sodipodi:namedview
     pagecolor="#ffffff"
     bordercolor="#666666"
     borderopacity="1"
     objecttolerance="10"
     gridtolerance="10"
     guidetolerance="10"
     inkscape:pageopacity="0"
     inkscape:pageshadow="2"
     inkscape:window-width="640"
     inkscape:window-height="480"
     id="namedview6" />
  <path
     d="M8 0a6 6 0 00-6 6 6.001 6.001 0 002 4.463v1.285c0 .416.027.77.148 1.115.122.345.389.674.711.85.646.351 1.266.281 2.141.281h2c.875 0 1.495.07 2.14-.281.323-.176.59-.505.712-.85.121-.345.148-.7.148-1.115v-1.283A6 6 0 0014 6a6 6 0 00-6-6zm0 1a5 5 0 015 5 4.998 4.998 0 01-1.008 3H12l-1 1v1.746c0 .243-.04.478-.164.688a1.07 1.07 0 01-.537.435c-.404.151-.799.125-1.299.125H7c-.5 0-.897.026-1.3-.125a1.065 1.065 0 01-.536-.435c-.125-.21-.132-.447-.164-.688V10L4 9h.008A5 5 0 013 6a5 5 0 015-5zM5 15v1h6v-1z"
     style="marker:none"
     color="#000"
     overflow="visible"
     fill="gray"
     id="path2" />
</svg>
