<svg version="1.1" viewBox="0 0 16 16" xmlns="http://www.w3.org/2000/svg" xmlns:osb="http://www.openswatchbook.org/uri/2009/osb">
 <g transform="translate(-652 -340)">
  <path d="m660 340c-3.3137 0-6 2.6863-6 6 3e-3 1.7042 0.7298 3.3268 2 4.4629v1.2852c0 0.41575 0.0268 0.77033 0.14844 1.1152 0.12162 0.34493 0.38808 0.67389 0.71094 0.84961 0.64571 0.35144 1.2656 0.28125 2.1406 0.28125h2c0.875 0 1.4949 0.0702 2.1406-0.28125 0.32285-0.17572 0.58932-0.50468 0.71094-0.84961 0.12162-0.3449 0.14844-0.69948 0.14844-1.1152v-1.2832c1.2707-1.1366 1.9979-2.76 2-4.4648 0-3.3137-2.6863-6-6-6zm0 1c2.7614 0 5 2.2386 5 5-2e-3 1.0827-0.35591 2.1355-1.0078 3h0.00781l-1 1v1.3223 0.42382c0 0.24267-0.0393 0.47748-0.16406 0.6875-0.1248 0.21003-0.33524 0.36006-0.53711 0.43555-0.40372 0.151-0.79883 0.125-1.2988 0.125h-2c-0.5 0-0.89706 0.026-1.3008-0.125-0.20187-0.0755-0.41036-0.22552-0.53516-0.43555-0.12479-0.21002-0.13204-0.44695-0.16406-0.6875v-0.42382-1.3223l-1-1h8e-3c-0.6519-0.8645-1.0056-1.9173-1.0078-3 0-2.7614 2.2386-5 5-5zm-3 14v1h6v-1z" color="#000000" fill="#808080"/>
 </g>
</svg>
