<?xml version="1.0" encoding="UTF-8"?>
<svg id="svg7384" width="16" height="16" version="1.1" xmlns="http://www.w3.org/2000/svg" xmlns:cc="http://creativecommons.org/ns#" xmlns:dc="http://purl.org/dc/elements/1.1/" xmlns:osb="http://www.openswatchbook.org/uri/2009/osb" xmlns:rdf="http://www.w3.org/1999/02/22-rdf-syntax-ns#">
 <metadata id="metadata20854">
  <rdf:RDF>
   <cc:Work rdf:about="">
    <dc:title/>
    <dc:format>image/svg+xml</dc:format>
    <dc:type rdf:resource="http://purl.org/dc/dcmitype/StillImage"/>
   </cc:Work>
  </rdf:RDF>
 </metadata>
 <g id="g1833" transform="translate(-492 -280)" fill="#808080">
  <path id="path2732-8-1-3-8" d="m496.99 280c-1.2582 0.0145-2.1789-0.0306-2.9316 0.38477-0.37637 0.20766-0.67323 0.55938-0.83789 0.99804-0.16467 0.43867-0.22461 0.95958-0.22461 1.6172v9c0 0.65761 0.0599 1.1786 0.22461 1.6172 0.16468 0.43861 0.46153 0.78852 0.83789 0.99609 0.75272 0.41513 1.6735 0.37165 2.9316 0.38672h2e-3 5.0059 4e-3c1.2582-0.0145 2.1789 0.0306 2.9316-0.38477 0.37637-0.20766 0.67322-0.55938 0.83789-0.99804 0.16453-0.43867 0.22447-0.95958 0.22447-1.6172v-9c0-0.65761-0.0599-1.1786-0.22461-1.6172-0.16468-0.43861-0.46153-0.78852-0.83789-0.99609-0.75272-0.41513-1.6736-0.37165-2.9316-0.38672h-2e-3 -5.0059zm6e-3 1h5c1.2586 0.0152 2.0891 0.0599 2.4551 0.26172 0.18342 0.10116 0.28722 0.21286 0.38476 0.47266 0.09741 0.25979 0.16002 0.67323 0.16002 1.2656v9c0 0.59239-0.0626 1.0057-0.16016 1.2656-0.0976 0.25991-0.20135 0.37147-0.38476 0.47266-0.36596 0.20192-1.1966 0.24701-2.4551 0.26172h-4.9941-0.00586c-1.2586-0.0152-2.0891-0.0599-2.4551-0.26172-0.18342-0.10116-0.28722-0.21286-0.38476-0.47266-0.09755-0.25979-0.16016-0.67323-0.16016-1.2656v-9c0-0.59239 0.0626-1.0057 0.16016-1.2656 0.0976-0.25991 0.20331-0.37147 0.38672-0.47266 0.36595-0.20191 1.1946-0.24702 2.4531-0.26172z" color="#000000" color-rendering="auto" dominant-baseline="auto" image-rendering="auto" shape-rendering="auto" solid-color="#000000" style="font-feature-settings:normal;font-variant-alternates:normal;font-variant-caps:normal;font-variant-ligatures:normal;font-variant-numeric:normal;font-variant-position:normal;isolation:auto;mix-blend-mode:normal;shape-padding:0;text-decoration-color:#000000;text-decoration-line:none;text-decoration-style:solid;text-indent:0;text-orientation:mixed;text-transform:none;white-space:normal"/>
  <path id="rect3694-0" d="m495.33 290c-0.18466 0-0.33333 0.1115-0.33333 0.25v2.5c0 0.1385 0.14867 0.25 0.33333 0.25h2.333c0.18466 0 0.33333-0.1115 0.33333-0.25v-2.5c0-0.1385-0.14867-0.25-0.33333-0.25z" opacity=".5"/>
  <rect id="rect3696-8" x="501" y="292" width="3" height="1" rx=".25" ry=".25" opacity=".5"/>
  <rect id="rect3698-8" x="501" y="290" width="3" height="1" rx=".25" ry=".25" opacity=".5"/>
  <rect id="rect6221" x="498.94" y="281" width="1.0625" height="13"/>
 </g>
</svg>
