<svg height="16" width="16" xmlns="http://www.w3.org/2000/svg">
    <g transform="translate(-492 -280)" fill="gray">
        <path d="M496.994 280c-1.258.015-2.179-.03-2.932.385a1.88 1.88 0 00-.837.998c-.165.438-.225.96-.225 1.617v9c0 .658.06 1.179.225 1.617.164.439.461.789.837.996.753.415 1.674.372 2.932.387h5.012c1.258-.015 2.179.03 2.932-.385a1.88 1.88 0 00.838-.998c.164-.438.224-.96.224-1.617v-9c0-.658-.06-1.179-.225-1.617a1.875 1.875 0 00-.837-.996c-.753-.415-1.674-.372-2.932-.387h-5.008zm.006 1h5c1.259.015 2.09.06 2.455.262.184.1.287.213.385.472.097.26.16.674.16 1.266v9c0 .592-.063 1.006-.16 1.266-.098.26-.202.371-.385.472-.366.202-1.196.247-2.455.262h-5c-1.259-.015-2.09-.06-2.455-.262-.184-.1-.287-.213-.385-.472-.097-.26-.16-.674-.16-1.266v-9c0-.592.063-1.006.16-1.266.098-.26.203-.371.387-.472.366-.202 1.194-.247 2.453-.262z" style="line-height:normal;font-variant-ligatures:normal;font-variant-position:normal;font-variant-caps:normal;font-variant-numeric:normal;font-variant-alternates:normal;font-feature-settings:normal;text-indent:0;text-align:start;text-decoration-line:none;text-decoration-style:solid;text-decoration-color:#000;text-transform:none;text-orientation:mixed;white-space:normal;shape-padding:0;isolation:auto;mix-blend-mode:normal;solid-color:#000;solid-opacity:1;marker:none" color="#000" font-weight="400" font-family="sans-serif" overflow="visible"/>
        <path d="M495.334 290c-.185 0-.334.112-.334.25v2.5c0 .139.149.25.334.25h2.333c.184 0 .333-.112.333-.25v-2.5c0-.139-.149-.25-.333-.25z" opacity=".5"/>
        <rect height="1" rx=".25" ry=".25" width="3" x="501" y="292" opacity=".5"/>
        <rect height="1" rx=".25" ry=".25" width="3" x="501" y="290" opacity=".5"/>
        <rect height="13" width="1.063" x="498.938" y="281"/>
    </g>
</svg>
