<svg version="1.1" viewBox="0 0 16 16" xmlns="http://www.w3.org/2000/svg" xmlns:osb="http://www.openswatchbook.org/uri/2009/osb">
 <g transform="translate(-532 -280)" fill="#808080">
  <path d="m539.5 280.99c-1.9213 0-3.8417 0.73249-5.3047 2.1953-2.926 2.9256-2.926 7.6837 0 10.609l0.70703-0.70703c-2.5438-2.5435-2.5438-6.6518 0-9.1953 2.5438-2.5435 6.6515-2.5435 9.1953 0 2.5438 2.5435 2.5438 6.6518 0 9.1953l0.70703 0.70703c2.926-2.9256 2.926-7.6837 0-10.609-1.463-1.4628-3.3834-2.1953-5.3047-2.1953z" color="#000000" color-rendering="auto" dominant-baseline="auto" image-rendering="auto" shape-rendering="auto" solid-color="#000000" style="font-feature-settings:normal;font-variant-alternates:normal;font-variant-caps:normal;font-variant-ligatures:normal;font-variant-numeric:normal;font-variant-position:normal;isolation:auto;mix-blend-mode:normal;shape-padding:0;text-decoration-color:#000000;text-decoration-line:none;text-decoration-style:solid;text-indent:0;text-orientation:mixed;text-transform:none;white-space:normal"/>
  <path d="m539.5 283.99c-1.1526 0-2.3059 0.43498-3.1836 1.3047-1.7555 1.7394-1.7555 4.5809 0 6.3203l0.70507-0.71094c-1.3716-1.359-1.3716-3.5394 0-4.8984 1.3716-1.359 3.5854-1.359 4.957 0 1.3716 1.359 1.3716 3.5394 0 4.8984l0.70507 0.71094c1.7555-1.7394 1.7555-4.5809 0-6.3203-0.87773-0.86971-2.031-1.3047-3.1836-1.3047z" color="#000000" color-rendering="auto" dominant-baseline="auto" image-rendering="auto" shape-rendering="auto" solid-color="#000000" style="font-feature-settings:normal;font-variant-alternates:normal;font-variant-caps:normal;font-variant-ligatures:normal;font-variant-numeric:normal;font-variant-position:normal;isolation:auto;mix-blend-mode:normal;shape-padding:0;text-decoration-color:#000000;text-decoration-line:none;text-decoration-style:solid;text-indent:0;text-orientation:mixed;text-transform:none;white-space:normal"/>
  <path d="m539.5 287a1.5 1.5 0 0 0-1.5 1.5 1.5 1.5 0 0 0 1 1.4121v6.0879h1v-6.0879a1.5 1.5 0 0 0 1-1.4121 1.5 1.5 0 0 0-1.5-1.5z"/>
 </g>
</svg>
