<svg version="1.1" viewBox="0 0 16 16" xmlns="http://www.w3.org/2000/svg" xmlns:osb="http://www.openswatchbook.org/uri/2009/osb">
 <g transform="translate(-512 -180)" fill="#808080">
  <path d="m520 196a8 8 0 0 1-8-8 8 8 0 0 1 8-8 8 8 0 0 1 8 8 8 8 0 0 1-8 8zm0-1a7 7 0 0 0 7-7 7 7 0 0 0-7-7 7 7 0 0 0-7 7 7 7 0 0 0 7 7z"/>
  <path d="m520 183.75c-0.38557 0-0.69018 0.12426-0.91406 0.37305-0.22388 0.24876-0.33594 0.54112-0.33594 0.87695 0 0.33581 0.11206 0.62819 0.33594 0.87695 0.22388 0.24874 0.52849 0.37305 0.91406 0.37305s0.69018-0.12428 0.91406-0.37305c0.22388-0.24876 0.33594-0.54113 0.33594-0.87695s-0.11206-0.62819-0.33594-0.87695c-0.22388-0.24875-0.52849-0.37305-0.91406-0.37305zm-1 3.25v5h2v-5z"/>
 </g>
</svg>
