<svg height="16" width="16" xmlns="http://www.w3.org/2000/svg">
    <g fill="gray">
        <path d="M5.137 1.623a7 7 0 00-.778.406 33.38 33.38 0 00-.062 3.66c.211-.114.448-.185.703-.185.101 0 .2.012.297.031-.05-1.259-.03-2.556.082-3.892zm6.162.207a16.381 16.381 0 01-.203 2.238c.13-.037.263-.064.404-.064.214 0 .416.049.602.13.084-.547.14-1.103.175-1.663a7 7 0 00-.978-.64zM1.986 4.434a7 7 0 00-.457.904c.608.421 1.226.842 1.87 1.254-.823.34-1.614.76-2.39 1.23L1 8c.004.315.028.63.073.941.82-.53 1.675-.97 2.559-1.341A1.466 1.466 0 013.5 7c0-.477.233-.901.586-1.176a69.339 69.339 0 01-2.1-1.39zm12.182.267c-.457.02-.925.03-1.375.057.128.22.207.471.207.742 0 .085-.012.167-.025.248.528-.03 1.08-.043 1.62-.064a7 7 0 00-.427-.983zm-4.07.285c-1.467.167-2.887.415-4.25.784.298.206.516.518.605.878 1.166-.294 2.382-.5 3.64-.648A1.46 1.46 0 0110 5.5c0-.18.038-.353.098-.514zm.4 1.618c-.152.473-.323.94-.512 1.398L10 8c.351 0 .673.127.93.332.18-.441.344-.888.492-1.344a1.49 1.49 0 01-.924-.384zm-4.021.627a1.49 1.49 0 01-.487.882c.82.445 1.661.858 2.526 1.229.037-.352.192-.671.433-.908A29.56 29.56 0 016.477 7.23zm-.891 1.142c-.181.078-.378.123-.586.123-.157 0-.305-.033-.447-.078.134.823.325 1.616.566 2.379.249-.182.552-.293.881-.293.027 0 .052.006.078.008a16.1 16.1 0 01-.492-2.139zm5.9.992c.004.044.014.086.014.131 0 .313-.099.603-.266.844 1.006.293 2.039.505 3.096.629a7 7 0 00.373-.961 17.968 17.968 0 01-3.217-.643zm-2.955.432c-.48.419-1.009.776-1.57 1.066.26.22.445.52.51.864a8.952 8.952 0 001.595-1.073 1.496 1.496 0 01-.535-.857zm-4.004 1.947c-.145.037-.293.088-.435.117-.644.133-1.229.191-1.766.223a7 7 0 00.805.934 13.44 13.44 0 001.162-.176c.133-.028.274-.077.41-.11A1.465 1.465 0 014.5 12c0-.087.013-.172.027-.256zm2.618 1.207a1.5 1.5 0 01-.874.518c.236.402.99 1.792 1.275 2.162l.791-.614c-.258-.334-.983-1.694-1.192-2.066z" style="line-height:normal;font-variant-ligatures:normal;font-variant-position:normal;font-variant-caps:normal;font-variant-numeric:normal;font-variant-alternates:normal;font-feature-settings:normal;text-indent:0;text-align:start;text-decoration-line:none;text-decoration-style:solid;text-decoration-color:#000;text-transform:none;text-orientation:mixed;white-space:normal;shape-padding:0;isolation:auto;mix-blend-mode:normal;solid-color:#000;solid-opacity:1" color="#000" font-weight="400" font-family="sans-serif" overflow="visible" opacity=".5" fill-rule="evenodd"/>
        <path d="M8 0a8 8 0 00-8 8 8 8 0 008 8 8 8 0 008-8 8 8 0 00-8-8zm0 1a7 7 0 017 7 7 7 0 01-7 7 7 7 0 01-7-7 7 7 0 017-7zm3.5 3.504a1 .996 0 00-1 .996 1 .996 0 001 .996 1 .996 0 001-.996 1 .996 0 00-1-.996zM5 6.004A1 .996 0 004 7a1 .996 0 001 .996A1 .996 0 006 7a1 .996 0 00-1-.996zM10 8.5a1 .996 0 00-1 .996 1 .996 0 001 .996 1 .996 0 001-.996 1 .996 0 00-1-.996zm-4 2.504A1 .996 0 005 12a1 .996 0 001 .996A1 .996 0 007 12a1 .996 0 00-1-.996z"/>
    </g>
</svg>
