<svg height="16" width="16" xmlns="http://www.w3.org/2000/svg">
    <g color="#000" fill="gray">
        <path d="M3.994 1c-1.258.015-2.179-.03-2.932.385a1.88 1.88 0 00-.837.998C.06 2.822 0 3.343 0 4v6c0 .658.06 1.179.225 1.617.164.439.461.79.837.998.753.416 1.674.37 2.932.385H12.006c1.258-.014 2.179.03 2.932-.385a1.88 1.88 0 00.838-.998c.164-.438.224-.96.224-1.617V4c0-.658-.06-1.178-.225-1.617a1.88 1.88 0 00-.838-.998c-.752-.416-1.673-.37-2.931-.385H3.998zM4 2h8c1.259.015 2.087.06 2.453.262.184.101.29.213.387.472.097.26.16.674.16 1.266v6c0 .592-.063 1.006-.16 1.266-.098.26-.204.371-.387.472-.366.202-1.195.247-2.453.262H4c-1.259-.015-2.087-.06-2.453-.262-.184-.1-.29-.212-.387-.472C1.063 11.006 1 10.592 1 10V4c0-.592.063-1.006.16-1.266.098-.26.203-.371.387-.472C1.913 2.06 2.74 2.015 4 2z" style="line-height:normal;font-variant-ligatures:normal;font-variant-position:normal;font-variant-caps:normal;font-variant-numeric:normal;font-variant-alternates:normal;font-feature-settings:normal;text-indent:0;text-align:start;text-decoration-line:none;text-decoration-style:solid;text-decoration-color:#000;text-transform:none;text-orientation:mixed;white-space:normal;shape-padding:0;isolation:auto;mix-blend-mode:normal;solid-color:#000;solid-opacity:1;marker:none" font-weight="400" font-family="sans-serif" overflow="visible"/>
        <path d="M6 12h4v1.5c0 1.5.5 1.5 1.5 1.5h.5v1H4v-1h.5c1 0 1.5 0 1.5-1.5zM10.5 1.5H12c2.522.03 3.5 0 3.5 2.5v2.5z" style="marker:none" overflow="visible"/>
        <path d="M9.5 1a.5.5 0 00-.5.5V5c0 .658.06 1.179.225 1.617.164.439.461.79.837.998.753.416 1.674.37 2.932.385A.5.5 0 0013 8h2.5a.5.5 0 00.5-.5V7a.5.5 0 00-.146-.353l-5.5-5.5A.5.5 0 0010 1zm.5 1.207L14.793 7H13c-1.259-.015-2.087-.06-2.453-.262-.184-.1-.29-.212-.387-.472C10.063 6.006 10 5.592 10 5z" style="line-height:normal;font-variant-ligatures:normal;font-variant-position:normal;font-variant-caps:normal;font-variant-numeric:normal;font-variant-alternates:normal;font-feature-settings:normal;text-indent:0;text-align:start;text-decoration-line:none;text-decoration-style:solid;text-decoration-color:#000;text-transform:none;text-orientation:mixed;white-space:normal;shape-padding:0;isolation:auto;mix-blend-mode:normal;solid-color:#000;solid-opacity:1;marker:none" font-weight="400" font-family="sans-serif" overflow="visible"/>
    </g>
</svg>
