<svg height="16" width="16" xmlns="http://www.w3.org/2000/svg">
    <g color="#000" fill="gray" font-family="sans-serif" font-weight="400" white-space="normal">
        <path d="M8.5 0C4.364 0 1 3.364 1 7.5S4.364 15 8.5 15 16 11.636 16 7.5 12.636 0 8.5 0zm0 1C12.096 1 15 3.904 15 7.5S12.096 14 8.5 14A6.492 6.492 0 0 1 2 7.5C2 3.904 4.904 1 8.5 1z" overflow="visible" style="line-height:normal;font-variant-ligatures:normal;font-variant-position:normal;font-variant-caps:normal;font-variant-numeric:normal;font-variant-alternates:normal;font-feature-settings:normal;text-indent:0;text-align:start;text-decoration-line:none;text-decoration-style:solid;text-decoration-color:#000;text-transform:none;text-orientation:mixed;shape-padding:0;isolation:auto;mix-blend-mode:normal"/>
        <path d="M1.5 7v1h14V7z" fill-rule="evenodd" overflow="visible" style="line-height:normal;font-variant-ligatures:normal;font-variant-position:normal;font-variant-caps:normal;font-variant-numeric:normal;font-variant-alternates:normal;font-feature-settings:normal;text-indent:0;text-align:start;text-decoration-line:none;text-decoration-style:solid;text-decoration-color:#000;text-transform:none;text-orientation:mixed;shape-padding:0;isolation:auto;mix-blend-mode:normal"/>
        <path d="M8.854.146l-.708.708c2.075 2.074 3.11 4.52 3.084 6.681-.025 2.197-1.007 4.535-3.084 6.611l.708.708c2.23-2.232 3.347-4.82 3.376-7.307.03-2.487-1.143-5.167-3.376-7.4z" fill-rule="evenodd" overflow="visible" style="line-height:normal;font-variant-ligatures:normal;font-variant-position:normal;font-variant-caps:normal;font-variant-numeric:normal;font-variant-alternates:normal;font-feature-settings:normal;text-indent:0;text-align:start;text-decoration-line:none;text-decoration-style:solid;text-decoration-color:#000;text-transform:none;text-orientation:mixed;shape-padding:0;isolation:auto;mix-blend-mode:normal"/>
        <path d="M8.146.146C5.913 2.38 4.741 5.06 4.77 7.546c.029 2.488 1.145 5.076 3.376 7.308l.708-.708C6.777 12.07 5.795 9.732 5.77 7.536 5.744 5.374 6.78 2.928 8.854.854z" fill-rule="evenodd" overflow="visible" style="line-height:normal;font-variant-ligatures:normal;font-variant-position:normal;font-variant-caps:normal;font-variant-numeric:normal;font-variant-alternates:normal;font-feature-settings:normal;text-indent:0;text-align:start;text-decoration-line:none;text-decoration-style:solid;text-decoration-color:#000;text-transform:none;text-orientation:mixed;shape-padding:0;isolation:auto;mix-blend-mode:normal"/>
    </g>
</svg>
