<?xml version="1.0" encoding="UTF-8" standalone="no"?>
<svg
   xmlns:dc="http://purl.org/dc/elements/1.1/"
   xmlns:cc="http://creativecommons.org/ns#"
   xmlns:rdf="http://www.w3.org/1999/02/22-rdf-syntax-ns#"
   xmlns:svg="http://www.w3.org/2000/svg"
   xmlns="http://www.w3.org/2000/svg"
   xmlns:sodipodi="http://sodipodi.sourceforge.net/DTD/sodipodi-0.dtd"
   xmlns:inkscape="http://www.inkscape.org/namespaces/inkscape"
   height="16"
   width="16"
   version="1.1"
   id="svg8"
   sodipodi:docname="preferences-system-details-symbolic.svg">
  <metadata
     id="metadata14">
    <rdf:RDF>
      <cc:Work
         rdf:about="">
        <dc:format>image/svg+xml</dc:format>
        <dc:type
           rdf:resource="http://purl.org/dc/dcmitype/StillImage" />
      </cc:Work>
    </rdf:RDF>
  </metadata>
  <defs
     id="defs12" />
  <sodipodi:namedview
     pagecolor="#ffffff"
     bordercolor="#666666"
     borderopacity="1"
     objecttolerance="10"
     gridtolerance="10"
     guidetolerance="10"
     inkscape:pageopacity="0"
     inkscape:pageshadow="2"
     inkscape:window-width="640"
     inkscape:window-height="480"
     id="namedview10" />
  <g
     fill="gray"
     id="g6">
    <path
       d="M8 16a8 8 0 01-8-8 8 8 0 018-8 8 8 0 018 8 8 8 0 01-8 8zm0-1a7 7 0 007-7 7 7 0 00-7-7 7 7 0 00-7 7 7 7 0 007 7z"
       id="path2" />
    <path
       d="M8 3.75c-.386 0-.69.124-.914.373A1.269 1.269 0 006.75 5c0 .336.112.628.336.877.224.249.528.373.914.373s.69-.124.914-.373c.224-.249.336-.541.336-.877 0-.336-.112-.628-.336-.877C8.69 3.874 8.386 3.75 8 3.75zM7 7v5h2V7z"
       style="line-height:1000%;-inkscape-font-specification:Ubuntu"
       font-weight="400"
       font-family="Ubuntu"
       letter-spacing="0"
       word-spacing="0"
       id="path4" />
  </g>
</svg>
