<svg version="1.1" viewBox="0 0 16 16" xmlns="http://www.w3.org/2000/svg" xmlns:osb="http://www.openswatchbook.org/uri/2009/osb">
 <g transform="translate(-572 -180)" fill="#808080" shape-rendering="auto">
  <path d="m575.99 181c-1.2582 0.0145-2.1789-0.0306-2.9316 0.38477-0.37637 0.20766-0.67323 0.55938-0.83789 0.99804-0.16467 0.43867-0.22461 0.95958-0.22461 1.6172v3c0 0.65761 0.0599 1.1785 0.22461 1.6172 0.16467 0.43866 0.46152 0.79039 0.83789 0.99804 0.75275 0.41532 1.6734 0.3702 2.9316 0.38477h4e-3 0.95898c-0.0961 0.7495-0.41264 0.94583-0.95703 0.98242v1.0176h1v-3h-0.99423-6e-3c-1.2585-0.0147-2.0891-0.0598-2.4551-0.26172-0.18341-0.10119-0.2872-0.21274-0.38476-0.47266-0.0976-0.2599-0.16016-0.67323-0.16016-1.2656v-3c0-0.59239 0.0626-1.0057 0.16016-1.2656 0.0976-0.25991 0.20135-0.37147 0.38476-0.47266 0.36596-0.20191 1.1966-0.24701 2.4551-0.26172h4c1.2585 0.0147 2.0872 0.0598 2.4531 0.26172 0.18341 0.1012 0.28916 0.21274 0.38672 0.47266 0.0974 0.25991 0.16016 0.67323 0.16016 1.2656h1c0-0.65761-0.0599-1.1785-0.22461-1.6172-0.16466-0.43866-0.46152-0.79038-0.83789-0.99804-0.75275-0.41534-1.6734-0.37025-2.9316-0.38477h-4e-3 -4.0039z" color="#000000" color-rendering="auto" dominant-baseline="auto" image-rendering="auto" solid-color="#000000" style="font-feature-settings:normal;font-variant-alternates:normal;font-variant-caps:normal;font-variant-ligatures:normal;font-variant-numeric:normal;font-variant-position:normal;isolation:auto;mix-blend-mode:normal;shape-padding:0;text-decoration-color:#000000;text-decoration-line:none;text-decoration-style:solid;text-indent:0;text-orientation:mixed;text-transform:none;white-space:normal"/>
  <path d="m580 185v2.0273c-0.38599 0.0266-0.72359 0.0835-1.0352 0.21485-0.31492 0.13272-0.59792 0.37784-0.75586 0.69922-0.15793 0.32138-0.20898 0.68778-0.20898 1.1211v1.875c0 0.43331 0.0511 0.79971 0.20898 1.1211 0.15793 0.32139 0.44094 0.56649 0.75586 0.69922 0.0111 5e-3 0.024 5e-3 0.0352 0.01v-1.8303-0.9375-0.9375c0-0.34793 0.0489-0.56447 0.10547-0.67969 0.0566-0.11522 0.10301-0.1604 0.24609-0.2207 0.28562-0.12038 0.98134-0.15291 2.0117-0.16211h3.2734c1.0304 9e-3 1.7261 0.0417 2.0117 0.16211 0.14308 0.0603 0.18947 0.10548 0.24609 0.2207 0.0566 0.11522 0.10547 0.33176 0.10547 0.67969v0.9375 0.9375 1.8301c0.0112-5e-3 0.024-5e-3 0.0352-0.01 0.31492-0.13272 0.59792-0.37784 0.75586-0.69922 0.15767-0.32092 0.2089-0.68755 0.2089-1.1209v-1.875c0-0.43331-0.0511-0.79971-0.20898-1.1211-0.15794-0.32139-0.44094-0.56649-0.75586-0.69922-0.31157-0.13132-0.64918-0.18822-1.0352-0.21485v-2.0273zm1 1h4v1.0059c-0.12725-5.4e-4 -0.2221-5e-3 -0.35938-6e-3h-2e-3 -3.2773-2e-3c-0.13728 1e-3 -0.23213 5e-3 -0.35938 6e-3zm4.5 3a0.5 0.5 0 0 0-0.5 0.5 0.5 0.5 0 0 0 0.5 0.5 0.5 0.5 0 0 0 0.5-0.5 0.5 0.5 0 0 0-0.5-0.5zm-5.5 2v4h6v-4h-1v3h-4v-3z" color="#000000" color-rendering="auto" dominant-baseline="auto" image-rendering="auto" solid-color="#000000" style="font-feature-settings:normal;font-variant-alternates:normal;font-variant-caps:normal;font-variant-ligatures:normal;font-variant-numeric:normal;font-variant-position:normal;isolation:auto;mix-blend-mode:normal;shape-padding:0;text-decoration-color:#000000;text-decoration-line:none;text-decoration-style:solid;text-indent:0;text-orientation:mixed;text-transform:none;white-space:normal"/>
 </g>
</svg>
