<svg version="1.1" viewBox="0 0 16 16" xmlns="http://www.w3.org/2000/svg" xmlns:osb="http://www.openswatchbook.org/uri/2009/osb">
 <g transform="translate(-552 -180)">
  <path d="m560.64 181.67c-2.159 2e-3 -3.993 1.3312-4.8691 3.2324l-0.061 0.12891-0.1386 0.01c-1.9941 0.14525-3.5723 1.8703-3.5723 3.9688 0 2.1929 1.7161 3.9922 3.8379 3.9922h4.8047 4.4805c1.591 0 2.8769-1.3504 2.8769-2.9883 0-1.242-0.7469-2.2851-1.8047-2.7344l-0.1367-0.0586-0.01-0.14844c-0.1356-2.9931-2.4869-5.4002-5.4043-5.4023zm0 1c2.3676 2e-3 4.2913 1.9522 4.4043 4.4473v0.01l0.051 0.77539 0.7031 0.29688c0.701 0.29774 1.1953 0.97292 1.1953 1.8144 0.01 1.1141-0.8459 1.9883-1.871 1.9883h-4.4786-4.8066c-1.5562 0-2.8379-1.3211-2.8379-2.9922 0-1.597 1.1845-2.8663 2.6445-2.9726l0.7227-0.0508 0.3105-0.66211v-4e-3c0.7282-1.5804 2.2126-2.6488 3.961-2.6504z" color="#000000" color-rendering="auto" fill="#808080" image-rendering="auto" shape-rendering="auto" style="text-decoration-line:none;text-indent:0;text-transform:none"/>
 </g>
</svg>
