<svg height="16" width="16" xmlns="http://www.w3.org/2000/svg">
    <g color="#000" font-weight="400" font-family="sans-serif" fill="gray">
        <path d="M3.994 1c-1.258.015-2.179-.03-2.931.385a1.88 1.88 0 00-.838.998C.06 2.822 0 3.343 0 4v3c0 .658.06 1.179.225 1.617.164.439.461.79.838.998.752.416 1.673.37 2.931.385h.964c-.097.75-.414.946-.958.982V12h1V9H4c-1.259-.015-2.09-.06-2.455-.262-.184-.1-.287-.212-.385-.472C1.062 8.006 1 7.592 1 7V4c0-.592.062-1.006.16-1.266s.201-.371.385-.472C1.91 2.06 2.74 2.015 4 2h4c1.258.015 2.087.06 2.453.262.183.101.29.213.387.472.097.26.16.674.16 1.266h1c0-.658-.06-1.178-.225-1.617a1.88 1.88 0 00-.838-.998C10.185.969 9.264 1.015 8.006 1H3.998z" style="line-height:normal;font-variant-ligatures:normal;font-variant-position:normal;font-variant-caps:normal;font-variant-numeric:normal;font-variant-alternates:normal;font-feature-settings:normal;text-indent:0;text-align:start;text-decoration-line:none;text-decoration-style:solid;text-decoration-color:#000;text-transform:none;text-orientation:mixed;white-space:normal;shape-padding:0;isolation:auto;mix-blend-mode:normal;solid-color:#000;solid-opacity:1;marker:none" overflow="visible"/>
        <path d="M8 5v2.027c-.386.027-.724.084-1.035.215a1.488 1.488 0 00-.756.7c-.158.32-.209.687-.209 1.12v1.876c0 .433.051.8.209 1.12.158.322.44.567.756.7.01.005.024.005.035.01V9.063c0-.348.049-.565.106-.68.056-.115.103-.16.246-.22.285-.121.98-.154 2.011-.163h3.274c1.03.01 1.726.042 2.011.162.144.06.19.106.247.22.056.116.105.333.105.68v3.706c.011-.005.024-.005.035-.01.315-.133.598-.378.756-.7.158-.32.209-.687.209-1.12V9.063c0-.434-.051-.8-.209-1.122a1.488 1.488 0 00-.756-.699c-.311-.131-.649-.188-1.035-.215V5zm1 1h4v1.006c-.127 0-.222-.005-.36-.006H9.36c-.137 0-.232.005-.36.006zm4.5 3a.5.5 0 00-.5.5.5.5 0 00.5.5.5.5 0 00.5-.5.5.5 0 00-.5-.5zM8 11v4h6v-4h-1v3H9v-3z" style="line-height:normal;font-variant-ligatures:normal;font-variant-position:normal;font-variant-caps:normal;font-variant-numeric:normal;font-variant-alternates:normal;font-feature-settings:normal;text-indent:0;text-align:start;text-decoration-line:none;text-decoration-style:solid;text-decoration-color:#000;text-transform:none;text-orientation:mixed;white-space:normal;shape-padding:0;isolation:auto;mix-blend-mode:normal;solid-color:#000;solid-opacity:1;marker:none" overflow="visible"/>
    </g>
</svg>
