<?xml version="1.0" encoding="UTF-8"?>
<svg id="svg7384" width="16" height="16" version="1.1" xmlns="http://www.w3.org/2000/svg" xmlns:cc="http://creativecommons.org/ns#" xmlns:dc="http://purl.org/dc/elements/1.1/" xmlns:osb="http://www.openswatchbook.org/uri/2009/osb" xmlns:rdf="http://www.w3.org/1999/02/22-rdf-syntax-ns#">
 <metadata id="metadata20854">
  <rdf:RDF>
   <cc:Work rdf:about="">
    <dc:title/>
    <dc:format>image/svg+xml</dc:format>
    <dc:type rdf:resource="http://purl.org/dc/dcmitype/StillImage"/>
   </cc:Work>
  </rdf:RDF>
 </metadata>
 <g id="g1833" transform="translate(-652 -280)" fill="#808080">
  <rect id="rect8643" x="663" y="292" width="5" height="1"/>
  <rect id="rect8645" x="665" y="290" width="1" height="5"/>
  <rect id="rect8648" x="665" y="288" width="1" height="1"/>
  <rect id="rect8648-2" x="653" y="288" width="1" height="1"/>
  <rect id="rect8648-45" x="665" y="284" width="1" height="1"/>
  <rect id="rect8648-2-8" x="653" y="284" width="1" height="1"/>
  <rect id="rect8648-6" x="665" y="282" width="1" height="1"/>
  <rect id="rect8648-2-0" x="653" y="282" width="1" height="1"/>
  <rect id="rect8648-2-2" x="653" y="290" width="1" height="1"/>
  <rect id="rect8648-2-6" x="653" y="292" width="1" height="1"/>
  <rect id="rect8648-2-65" x="655" y="292" width="1" height="1"/>
  <rect id="rect8648-2-1" x="657" y="292" width="1" height="1"/>
  <rect id="rect8648-2-9" x="659" y="292" width="1" height="1"/>
  <rect id="rect8648-2-01" x="655" y="282" width="1" height="1"/>
  <rect id="rect8648-2-39" x="657" y="282" width="1" height="1"/>
  <rect id="rect8648-2-50" x="659" y="282" width="1" height="1"/>
  <rect id="rect8648-2-05" x="663" y="282" width="1" height="1"/>
  <rect id="rect8648-2-9-6" x="661" y="292" width="1" height="1"/>
  <rect id="rect8648-2-50-6" x="661" y="282" width="1" height="1"/>
  <rect id="rect8648-45-3" x="665" y="286" width="1" height="1"/>
  <rect id="rect8648-2-8-6" x="653" y="286" width="1" height="1"/>
 </g>
</svg>
