<svg height="16" width="16" xmlns="http://www.w3.org/2000/svg">
    <g transform="translate(-652 -280)" fill="gray">
        <rect height="1" width="5" x="663" y="292"/>
        <rect height="5" width="1" x="665" y="290"/>
        <rect height="1" width="1" x="665" y="288"/>
        <rect height="1" width="1" x="653" y="288"/>
        <rect height="1" width="1" x="665" y="284"/>
        <rect height="1" width="1" x="653" y="284"/>
        <rect height="1" width="1" x="665" y="282"/>
        <rect height="1" width="1" x="653" y="282"/>
        <rect height="1" width="1" x="653" y="290"/>
        <rect height="1" width="1" x="653" y="292"/>
        <rect height="1" width="1" x="655" y="292"/>
        <rect height="1" width="1" x="657" y="292"/>
        <rect height="1" width="1" x="659" y="292"/>
        <rect height="1" width="1" x="655" y="282"/>
        <rect height="1" width="1" x="657" y="282"/>
        <rect height="1" width="1" x="659" y="282"/>
        <rect height="1" width="1" x="663" y="282"/>
        <rect height="1" width="1" x="661" y="292"/>
        <rect height="1" width="1" x="661" y="282"/>
        <rect height="1" width="1" x="665" y="286"/>
        <rect height="1" width="1" x="653" y="286"/>
    </g>
</svg>
