<?xml version="1.0" encoding="UTF-8" standalone="no"?>
<!-- Created with Inkscape (http://www.inkscape.org/) -->

<svg
   xmlns:dc="http://purl.org/dc/elements/1.1/"
   xmlns:cc="http://creativecommons.org/ns#"
   xmlns:rdf="http://www.w3.org/1999/02/22-rdf-syntax-ns#"
   xmlns:svg="http://www.w3.org/2000/svg"
   xmlns="http://www.w3.org/2000/svg"
   xmlns:xlink="http://www.w3.org/1999/xlink"
   xmlns:sodipodi="http://sodipodi.sourceforge.net/DTD/sodipodi-0.dtd"
   xmlns:inkscape="http://www.inkscape.org/namespaces/inkscape"
   width="256px"
   height="256px"
   viewBox="0 0 256 256"
   version="1.1"
   id="SVGRoot"
   inkscape:version="0.92.3 (2405546, 2018-03-11)"
   sodipodi:docname="software-store.svg">
  <sodipodi:namedview
     id="base"
     pagecolor="#ffffff"
     bordercolor="#666666"
     borderopacity="1.0"
     inkscape:pageopacity="0.0"
     inkscape:pageshadow="2"
     inkscape:zoom="1.4142136"
     inkscape:cx="130.33791"
     inkscape:cy="127.33527"
     inkscape:document-units="px"
     inkscape:current-layer="layer6"
     showgrid="false"
     inkscape:window-width="1299"
     inkscape:window-height="704"
     inkscape:window-x="67"
     inkscape:window-y="27"
     inkscape:window-maximized="1"
     inkscape:grid-bbox="true"
     inkscape:snap-bbox="true"
     inkscape:snap-page="true"
     inkscape:bbox-paths="true"
     inkscape:snap-bbox-edge-midpoints="true"
     inkscape:bbox-nodes="true"
     inkscape:snap-bbox-midpoints="true" />
  <defs
     id="defs848">
    <clipPath
       clipPathUnits="userSpaceOnUse"
       id="clipPath1082-3">
      <path
         sodipodi:nodetypes="sssssssss"
         inkscape:connector-curvature="0"
         id="path1084-6"
         d="M 361.9375,-212 C 507.2348,-212 528,-191.28677 528,-46.125 V 70.125 C 528,215.28618 507.2348,236 361.9375,236 H 214.0625 C 68.7652,236 48,215.28618 48,70.125 V -46.125 C 48,-191.28677 68.7652,-212 214.0625,-212 Z"
         style="display:inline;opacity:1;fill:#8c59d9;fill-opacity:1;stroke:none;stroke-width:2;stroke-linecap:round;stroke-linejoin:round;stroke-miterlimit:4;stroke-dasharray:none;stroke-dashoffset:0;stroke-opacity:1;enable-background:new" />
    </clipPath>
    <clipPath
       clipPathUnits="userSpaceOnUse"
       id="clipPath1025">
      <path
         style="opacity:1;fill:#8c59d9;fill-opacity:1;stroke:none;stroke-width:2;stroke-linecap:round;stroke-linejoin:round;stroke-miterlimit:4;stroke-dasharray:none;stroke-dashoffset:0;stroke-opacity:1"
         d="M 329.9375,32 C 475.2348,32 496,52.71323 496,197.875 v 116.25 C 496,459.28618 475.2348,480 329.9375,480 H 182.0625 C 36.7652,480 16,459.28618 16,314.125 V 197.875 C 16,52.71323 36.7652,32 182.0625,32 Z"
         id="path1027"
         inkscape:connector-curvature="0"
         sodipodi:nodetypes="sssssssss" />
    </clipPath>
    <clipPath
       clipPathUnits="userSpaceOnUse"
       id="clipPath4277-8">
      <rect
         style="color:#000000;display:inline;overflow:visible;visibility:visible;opacity:0.81999972;fill:#88b637;fill-opacity:1;fill-rule:nonzero;stroke:none;stroke-width:2;stroke-linecap:butt;stroke-linejoin:miter;stroke-miterlimit:4;stroke-dasharray:none;stroke-dashoffset:0;stroke-opacity:1;marker:none;enable-background:accumulate"
         id="rect4279-6"
         width="512"
         height="512"
         x="5.5999999e-07"
         y="0"
         ry="1" />
    </clipPath>
    <linearGradient
       id="linearGradient3650-7-9">
      <stop
         style="stop-color:#5884f4;stop-opacity:1"
         offset="0"
         id="stop4366" />
      <stop
         id="stop4368"
         offset="1"
         style="stop-color:#80a3fa;stop-opacity:1" />
    </linearGradient>
    <filter
       inkscape:collect="always"
       style="color-interpolation-filters:sRGB"
       id="filter929"
       x="-0.0232"
       width="1.0464"
       y="-0.024857143"
       height="1.0497143">
      <feGaussianBlur
         inkscape:collect="always"
         stdDeviation="2.32"
         id="feGaussianBlur931" />
    </filter>
    <filter
       inkscape:collect="always"
       style="color-interpolation-filters:sRGB"
       id="filter4569"
       x="-0.0116"
       width="1.0232"
       y="-0.012428571"
       height="1.024857">
      <feGaussianBlur
         inkscape:collect="always"
         stdDeviation="1.16"
         id="feGaussianBlur4571" />
    </filter>
    <clipPath
       clipPathUnits="userSpaceOnUse"
       id="clipPath1082-3-3">
      <path
         sodipodi:nodetypes="sssssssss"
         inkscape:connector-curvature="0"
         id="path1084-6-5"
         d="M 361.9375,-212 C 507.2348,-212 528,-191.28677 528,-46.125 V 70.125 C 528,215.28618 507.2348,236 361.9375,236 H 214.0625 C 68.7652,236 48,215.28618 48,70.125 V -46.125 C 48,-191.28677 68.7652,-212 214.0625,-212 Z"
         style="display:inline;opacity:1;fill:#8c59d9;fill-opacity:1;stroke:none;stroke-width:2;stroke-linecap:round;stroke-linejoin:round;stroke-miterlimit:4;stroke-dasharray:none;stroke-dashoffset:0;stroke-opacity:1;enable-background:new" />
    </clipPath>
    <clipPath
       clipPathUnits="userSpaceOnUse"
       id="clipPath1082-3-3-6">
      <path
         sodipodi:nodetypes="sssssssss"
         inkscape:connector-curvature="0"
         id="path1084-6-5-2"
         d="M 361.9375,-212 C 507.2348,-212 528,-191.28677 528,-46.125 V 70.125 C 528,215.28618 507.2348,236 361.9375,236 H 214.0625 C 68.7652,236 48,215.28618 48,70.125 V -46.125 C 48,-191.28677 68.7652,-212 214.0625,-212 Z"
         style="display:inline;opacity:1;fill:#8c59d9;fill-opacity:1;stroke:none;stroke-width:2;stroke-linecap:round;stroke-linejoin:round;stroke-miterlimit:4;stroke-dasharray:none;stroke-dashoffset:0;stroke-opacity:1;enable-background:new" />
    </clipPath>
    <linearGradient
       inkscape:collect="always"
       xlink:href="#linearGradient1013"
       id="linearGradient1108"
       x1="296"
       y1="-212"
       x2="296"
       y2="236"
       gradientUnits="userSpaceOnUse" />
    <linearGradient
       id="linearGradient1013"
       inkscape:collect="always">
      <stop
         id="stop1005"
         offset="0"
         style="stop-color:#ffffff;stop-opacity:1;" />
      <stop
         style="stop-color:#ffffff;stop-opacity:0.09803922"
         offset="0.125"
         id="stop1007" />
      <stop
         style="stop-color:#000000;stop-opacity:0.09803922"
         offset="0.92500001"
         id="stop1009" />
      <stop
         id="stop1011"
         offset="1"
         style="stop-color:#000000;stop-opacity:0.49803922" />
    </linearGradient>
    <clipPath
       clipPathUnits="userSpaceOnUse"
       id="clipPath1082-3-36">
      <path
         sodipodi:nodetypes="sssssssss"
         inkscape:connector-curvature="0"
         id="path1084-6-7"
         d="M 361.9375,-212 C 507.2348,-212 528,-191.28677 528,-46.125 V 70.125 C 528,215.28618 507.2348,236 361.9375,236 H 214.0625 C 68.7652,236 48,215.28618 48,70.125 V -46.125 C 48,-191.28677 68.7652,-212 214.0625,-212 Z"
         style="display:inline;opacity:1;fill:#8c59d9;fill-opacity:1;stroke:none;stroke-width:2;stroke-linecap:round;stroke-linejoin:round;stroke-miterlimit:4;stroke-dasharray:none;stroke-dashoffset:0;stroke-opacity:1;enable-background:new" />
    </clipPath>
    <linearGradient
       gradientTransform="translate(-23.999992,-28.000026)"
       inkscape:collect="always"
       xlink:href="#linearGradient7537"
       id="linearGradient947"
       x1="208"
       y1="284"
       x2="96"
       y2="28"
       gradientUnits="userSpaceOnUse" />
    <linearGradient
       id="linearGradient7537">
      <stop
         style="stop-color:#f37e40;stop-opacity:1"
         offset="0"
         id="stop7539" />
      <stop
         style="stop-color:#f34f17;stop-opacity:1"
         offset="1"
         id="stop7541" />
    </linearGradient>
    <filter
       inkscape:collect="always"
       style="color-interpolation-filters:sRGB"
       id="filter1062"
       x="-0.012133807"
       width="1.0242676"
       y="-0.011869112"
       height="1.0237381">
      <feGaussianBlur
         inkscape:collect="always"
         stdDeviation="0.67258301"
         id="feGaussianBlur1064" />
    </filter>
    <linearGradient
       gradientTransform="translate(-23.999992,-28.000026)"
       inkscape:collect="always"
       xlink:href="#linearGradient1026"
       id="linearGradient1028"
       x1="216"
       y1="84"
       x2="216"
       y2="228"
       gradientUnits="userSpaceOnUse" />
    <linearGradient
       inkscape:collect="always"
       id="linearGradient1026">
      <stop
         style="stop-color:#000000;stop-opacity:0"
         offset="0"
         id="stop1022" />
      <stop
         id="stop1030"
         offset="0.64066887"
         style="stop-color:#000000;stop-opacity:1" />
      <stop
         style="stop-color:#000000;stop-opacity:0;"
         offset="1"
         id="stop1024" />
    </linearGradient>
    <filter
       inkscape:collect="always"
       style="color-interpolation-filters:sRGB"
       id="filter1032"
       x="-0.12133807"
       width="1.2426761"
       y="-0.11869112"
       height="1.2373822">
      <feGaussianBlur
         inkscape:collect="always"
         stdDeviation="6.7258301"
         id="feGaussianBlur1034" />
    </filter>
    <filter
       inkscape:collect="always"
       style="color-interpolation-filters:sRGB"
       id="filter1066"
       x="-0.0070588235"
       width="1.0141176"
       y="-0.039999999"
       height="1.08">
      <feGaussianBlur
         inkscape:collect="always"
         stdDeviation="0.4"
         id="feGaussianBlur1068" />
    </filter>
  </defs>
  <metadata
     id="metadata851">
    <rdf:RDF>
      <cc:Work
         rdf:about="">
        <dc:format>image/svg+xml</dc:format>
        <dc:type
           rdf:resource="http://purl.org/dc/dcmitype/StillImage" />
        <dc:title></dc:title>
      </cc:Work>
    </rdf:RDF>
  </metadata>
  <g
     id="layer1"
     inkscape:groupmode="layer"
     inkscape:label="Icon">
    <g
       inkscape:groupmode="layer"
       id="layer8"
       inkscape:label="Baseplate"
       style="display:none">
      <text
         y="-36.254883"
         xml:space="preserve"
         x="-4.9931641"
         style="font-style:normal;font-variant:normal;font-weight:normal;font-stretch:normal;font-size:18.66666603px;line-height:0%;font-family:Ubuntu;-inkscape-font-specification:Ubuntu;display:inline;fill:#000000;fill-opacity:1;stroke:none;enable-background:new"
         inkscape:label="context"
         id="context"><tspan
           style="font-style:normal;font-variant:normal;font-weight:normal;font-stretch:normal;font-size:18.66666603px;line-height:1.25;font-family:Ubuntu;-inkscape-font-specification:Ubuntu"
           y="-36.254883"
           x="-4.9931641"
           sodipodi:role="line"
           id="tspan3933">apps</tspan></text>
      <text
         y="-36.254883"
         xml:space="preserve"
         x="122.48828"
         style="font-style:normal;font-variant:normal;font-weight:bold;font-stretch:normal;font-size:18.66666603px;line-height:0%;font-family:Ubuntu;-inkscape-font-specification:'Ubuntu Bold';text-align:start;writing-mode:lr-tb;text-anchor:start;display:inline;fill:#000000;fill-opacity:1;stroke:none;enable-background:new"
         inkscape:label="icon-name"
         id="icon-name"><tspan
           style="font-style:normal;font-variant:normal;font-weight:bold;font-stretch:normal;font-size:18.66666603px;line-height:1.25;font-family:Ubuntu;-inkscape-font-specification:'Ubuntu Bold'"
           y="-36.254883"
           x="122.48828"
           sodipodi:role="line"
           id="tspan3937">software-store</tspan></text>
      <rect
         style="display:inline;overflow:visible;visibility:visible;fill:#cdcdcd;fill-opacity:1;fill-rule:nonzero;stroke:none;stroke-width:2;marker:none;enable-background:accumulate"
         id="rect3951"
         width="256"
         height="256"
         x="0"
         y="0"
         inkscape:label="plate" />
    </g>
    <g
       inkscape:groupmode="layer"
       id="layer7"
       inkscape:label="Shadows"
       sodipodi:insensitive="true">
      <path
         style="display:inline;opacity:0.2;fill:#000000;fill-opacity:1;stroke:none;stroke-width:2;stroke-linecap:round;stroke-linejoin:round;stroke-miterlimit:4;stroke-dasharray:none;stroke-dashoffset:0;stroke-opacity:1;filter:url(#filter929);enable-background:new"
         d="m 164.96876,17.999982 c 72.64865,0 83.03125,10.356615 83.03125,82.937508 v 58.125 c 0,72.58059 -10.3826,82.9375 -83.03125,82.9375 H 91.03125 c -72.64865,0 -83.0312498,-10.35691 -83.0312498,-82.9375 v -58.125 c 0,-72.580893 10.3825998,-82.937508 83.0312498,-82.937508 z"
         id="path927"
         inkscape:connector-curvature="0"
         sodipodi:nodetypes="sssssssss" />
      <path
         sodipodi:nodetypes="sssssssss"
         inkscape:connector-curvature="0"
         id="path4567"
         d="m 164.96876,15.999982 c 72.64865,0 83.03125,10.356615 83.03125,82.937504 v 58.125004 c 0,72.58059 -10.3826,82.9375 -83.03125,82.9375 H 91.03125 c -72.64865,0 -83.0312498,-10.35691 -83.0312498,-82.9375 V 98.937486 c 0,-72.580889 10.3825998,-82.937504 83.0312498,-82.937504 z"
         style="display:inline;opacity:0.1;fill:#000000;fill-opacity:1;stroke:none;stroke-width:2;stroke-linecap:round;stroke-linejoin:round;stroke-miterlimit:4;stroke-dasharray:none;stroke-dashoffset:0;stroke-opacity:1;filter:url(#filter4569);enable-background:new" />
    </g>
    <g
       inkscape:groupmode="layer"
       id="layer6"
       inkscape:label="Shape"
       style="display:inline">
      <path
         style="display:inline;opacity:1;fill:url(#linearGradient947);fill-opacity:1;stroke:none;stroke-width:2;stroke-linecap:round;stroke-linejoin:round;stroke-miterlimit:4;stroke-dasharray:none;stroke-dashoffset:0;stroke-opacity:1;enable-background:new"
         d="m 164.96876,15.999974 c 72.64865,0 83.03125,10.356615 83.03125,82.9375 v 58.125006 c 0,72.58059 -10.3826,82.9375 -83.03125,82.9375 h -73.9375 c -72.648652,0 -83.0312517,-10.35691 -83.0312517,-82.9375 V 98.937474 c 0,-72.580885 10.3825997,-82.9375 83.0312517,-82.9375 z"
         id="rect877"
         inkscape:connector-curvature="0"
         sodipodi:nodetypes="sssssssss" />
    </g>
    <g
       inkscape:groupmode="layer"
       id="layer3"
       inkscape:label="Pictogram"
       style="display:inline">
      <path
         style="display:inline;opacity:0.07999998;fill:#ffffff;fill-opacity:1;stroke:none;stroke-width:2;stroke-linecap:round;stroke-linejoin:round;stroke-miterlimit:4;stroke-dasharray:none;stroke-dashoffset:0;stroke-opacity:1;enable-background:new"
         d="m 8.0000083,147.99998 v 9.0625 c 0,72.58059 10.3825997,82.9375 83.0312517,82.9375 h 73.9375 c 72.64865,0 83.03125,-10.35691 83.03125,-82.9375 v -9.0625 z"
         id="path973"
         inkscape:connector-curvature="0"
         sodipodi:nodetypes="csssscc" />
      <path
         sodipodi:nodetypes="cccccccccccccsccccscccccc"
         inkscape:connector-curvature="0"
         id="path1052"
         d="m 116.4961,57.999974 c -4.70996,9.81241 -9.22355,19.756 -13.54101,29.83008 -4.31746,9.94324 -8.7021,20.410486 -13.15039,31.400386 -4.31746,10.9899 -8.76462,22.63342 -13.34375,34.93165 -4.57913,12.16739 -9.48547,25.44636 -14.71875,39.83789 h 25.82031 l 12.36328,-34.73633 66.58984,-2.55078 c 2.09332,5.88745 4.25242,11.90558 6.47657,18.05469 2.22414,6.14911 4.57864,12.55998 7.06445,19.23242 h 14.71875 c -5.36412,-14.12987 -10.33494,-27.27792 -14.91406,-39.44531 -4.57913,-12.29823 -9.09272,-23.87727 -13.54102,-34.73634 -4.31746,-10.9899 -8.63566,-21.521626 -12.95312,-31.595696 -4.31746,-10.07408 -8.89554,-20.148586 -13.73633,-30.22266 h -11.63086 z m 16.85352,15.30859 c 4.97162,11.25157 9.81348,22.69774 14.52344,34.341796 4.70995,11.64406 9.54986,24.20398 14.52148,37.6797 l -56.97265,-1.76564 c 4.0558,-11.38239 8.11216,-22.37134 12.16796,-32.96875 3.34287,-8.56608 6.81711,-16.827926 10.41016,-24.810536 v -0.15235 c 1.7682,-4.13116 3.54701,-8.24465 5.34961,-12.32422 z"
         style="font-style:normal;font-variant:normal;font-weight:300;font-stretch:normal;font-size:196.24819946px;line-height:1000%;font-family:Ubuntu;-inkscape-font-specification:'Ubuntu Light';letter-spacing:0px;word-spacing:0px;display:inline;opacity:0.1;fill:#000000;fill-opacity:1;stroke:none;stroke-width:4.9062047px;stroke-linecap:butt;stroke-linejoin:miter;stroke-opacity:1;filter:url(#filter1062);enable-background:new" />
      <path
         style="font-style:normal;font-variant:normal;font-weight:300;font-stretch:normal;font-size:196.24819946px;line-height:1000%;font-family:Ubuntu;-inkscape-font-specification:'Ubuntu Light';letter-spacing:0px;word-spacing:0px;display:inline;opacity:0.4;fill:url(#linearGradient1028);fill-opacity:1;stroke:none;stroke-width:4.9062047px;stroke-linecap:butt;stroke-linejoin:miter;stroke-opacity:1;filter:url(#filter1032);enable-background:new"
         d="m 116.4961,57.999974 c -4.70996,9.81241 -9.22355,19.756 -13.54101,29.83008 -4.31746,9.94324 -8.7021,20.410486 -13.15039,31.400386 -4.31746,10.9899 -8.76462,22.63342 -13.34375,34.93165 -4.57913,12.16739 -9.48547,25.44636 -14.71875,39.83789 h 25.82031 l 12.36328,-34.73633 66.58984,-2.55078 c 2.09332,5.88745 4.25242,11.90558 6.47657,18.05469 2.22414,6.14911 4.57864,12.55998 7.06445,19.23242 h 14.71875 c -5.36412,-14.12987 -10.33494,-27.27792 -14.91406,-39.44531 -4.57913,-12.29823 -9.09272,-23.87727 -13.54102,-34.73634 -4.31746,-10.9899 -8.63566,-21.521626 -12.95312,-31.595696 -4.31746,-10.07408 -8.89554,-20.148586 -13.73633,-30.22266 h -11.63086 z m 16.85352,15.30859 c 4.97162,11.25157 9.81348,22.69774 14.52344,34.341796 4.70995,11.64406 9.54986,24.20398 14.52148,37.6797 l -56.97265,-1.76564 c 4.0558,-11.38239 8.11216,-22.37134 12.16796,-32.96875 3.34287,-8.56608 6.81711,-16.827926 10.41016,-24.810536 v -0.15235 c 1.7682,-4.13116 3.54701,-8.24465 5.34961,-12.32422 z"
         id="path1020"
         inkscape:connector-curvature="0"
         sodipodi:nodetypes="cccccccccccccsccccscccccc" />
      <path
         style="font-style:normal;font-variant:normal;font-weight:300;font-stretch:normal;font-size:196.24819946px;line-height:1000%;font-family:Ubuntu;-inkscape-font-specification:'Ubuntu Light';letter-spacing:0px;word-spacing:0px;display:inline;fill:#fff9f2;fill-opacity:1;stroke:none;stroke-width:4.9062047px;stroke-linecap:butt;stroke-linejoin:miter;stroke-opacity:1;enable-background:new"
         d="m 116.4961,55.999974 c -4.70996,9.81241 -9.22355,19.756 -13.54101,29.83008 -4.31746,9.94324 -8.7021,20.410486 -13.15039,31.400386 -4.31746,10.9899 -8.76462,22.63342 -13.34375,34.93165 -4.57913,12.16739 -9.48547,25.44636 -14.71875,39.83789 h 25.82031 l 12.36328,-34.73633 66.58984,-2.55078 c 2.09332,5.88745 4.25242,11.90558 6.47657,18.05469 2.22414,6.14911 4.57864,12.55998 7.06445,19.23242 h 14.71875 c -5.36412,-14.12987 -10.33494,-27.27792 -14.91406,-39.44531 -4.57913,-12.29823 -9.09272,-23.87727 -13.54102,-34.73634 -4.31746,-10.9899 -8.63566,-21.521626 -12.95312,-31.595696 -4.31746,-10.07408 -8.89554,-20.148586 -13.73633,-30.22266 h -11.63086 z m 16.85352,15.308594 c 4.97162,11.251566 9.81348,22.697736 14.52344,34.341792 4.70995,11.64406 9.54986,24.20398 14.52148,37.67969 l -56.97265,-1.76563 c 4.0558,-11.38239 8.11216,-22.37134 12.16796,-32.96875 3.34287,-8.56608 6.81711,-16.827926 10.41016,-24.810536 v -0.15235 c 1.7682,-4.13116 3.54701,-8.24465 5.34961,-12.324216 z"
         id="text954"
         inkscape:connector-curvature="0"
         sodipodi:nodetypes="cccccccccccccsccccscccccc" />
      <path
         style="font-style:normal;font-variant:normal;font-weight:300;font-stretch:normal;font-size:196.24819946px;line-height:1000%;font-family:Ubuntu;-inkscape-font-specification:'Ubuntu Light';letter-spacing:0px;word-spacing:0px;display:inline;opacity:0.1;fill:#f34f17;fill-opacity:1;stroke:none;stroke-width:4.9062047px;stroke-linecap:butt;stroke-linejoin:miter;stroke-opacity:1;enable-background:new"
         d="m 139.63087,55.999974 -6.28125,15.308594 2.65039,6.062496 c 4.04432,9.29656 8.00542,18.71768 11.87305,28.279296 4.70995,11.64406 9.54986,24.20398 14.52148,37.67969 v 0 l 14.24609,0.66993 c -3.47794,-9.14525 -6.91882,-17.87803 -10.32031,-26.18165 -4.31746,-10.9899 -8.63566,-21.521626 -12.95312,-31.595696 -4.31746,-10.07408 -8.89554,-20.148586 -13.73633,-30.22266 z m -3.63086,97.356446 30.51562,1.35645 c 2.09332,5.88745 4.25242,11.90558 6.47657,18.05469 2.22414,6.14911 4.57864,12.55998 7.06445,19.23242 h 14.71875 c -5.36412,-14.12987 -10.33494,-27.27792 -14.91406,-39.44531 -0.0699,-0.18767 -0.13914,-0.36735 -0.20899,-0.55469 z"
         id="path972"
         inkscape:connector-curvature="0"
         sodipodi:nodetypes="ccccccccsccccccccc" />
      <rect
         ry="12"
         y="137.99997"
         x="60.000004"
         height="24"
         width="136"
         id="rect1040"
         style="color:#000000;display:inline;overflow:visible;visibility:visible;opacity:0.1;fill:#000000;fill-opacity:1;fill-rule:nonzero;stroke:none;stroke-width:2;stroke-linecap:butt;stroke-linejoin:miter;stroke-miterlimit:4;stroke-dasharray:2, 2;stroke-dashoffset:0;stroke-opacity:1;marker:none;filter:url(#filter1066);enable-background:accumulate"
         rx="12" />
      <rect
         style="color:#000000;display:inline;overflow:visible;visibility:visible;opacity:1;fill:#ffffff;fill-opacity:1;fill-rule:nonzero;stroke:none;stroke-width:2;stroke-linecap:butt;stroke-linejoin:miter;stroke-miterlimit:4;stroke-dasharray:2, 2;stroke-dashoffset:0;stroke-opacity:1;marker:none;enable-background:accumulate"
         id="rect4270"
         width="136"
         height="24"
         x="60.000004"
         y="135.99997"
         ry="12" />
      <path
         style="color:#000000;display:inline;overflow:visible;visibility:visible;opacity:0.2;fill:#f34f17;fill-opacity:1;fill-rule:nonzero;stroke:none;stroke-width:2;stroke-linecap:butt;stroke-linejoin:miter;stroke-miterlimit:4;stroke-dasharray:2, 2;stroke-dashoffset:0;stroke-opacity:1;marker:none;enable-background:accumulate"
         d="m 72.00001,143.99998 c -2.216,0 -4,1.784 -4,4 0,2.216 1.784,4 4,4 h 39.625 32.375 40.375 c 2.00825,0 3.625,-1.61675 3.625,-3.625 v -0.75 c 0,-2.00825 -1.61675,-3.625 -3.625,-3.625 h -40.375 -32.375 z"
         id="rect4272"
         inkscape:connector-curvature="0" />
    </g>
    <g
       inkscape:groupmode="layer"
       id="layer2"
       inkscape:label="Highlight"
       sodipodi:insensitive="true">
      <path
         sodipodi:nodetypes="sssssssss"
         inkscape:connector-curvature="0"
         id="path1068"
         d="M 361.9375,-212 C 507.2348,-212 528,-191.28677 528,-46.125 V 70.125 C 528,215.28618 507.2348,236 361.9375,236 H 214.0625 C 68.7652,236 48,215.28618 48,70.125 V -46.125 C 48,-191.28677 68.7652,-212 214.0625,-212 Z"
         style="display:inline;opacity:0.4;fill:none;fill-opacity:1;stroke:url(#linearGradient1108);stroke-width:8;stroke-linecap:round;stroke-linejoin:round;stroke-miterlimit:4;stroke-dasharray:none;stroke-dashoffset:0;stroke-opacity:1;enable-background:new"
         clip-path="url(#clipPath1082-3-36)"
         transform="matrix(0.5,0,0,0.5,-16,122)" />
    </g>
  </g>
</svg>
