<?xml version="1.0" encoding="UTF-8" standalone="no"?>
<svg
   xmlns:dc="http://purl.org/dc/elements/1.1/"
   xmlns:cc="http://creativecommons.org/ns#"
   xmlns:rdf="http://www.w3.org/1999/02/22-rdf-syntax-ns#"
   xmlns:svg="http://www.w3.org/2000/svg"
   xmlns="http://www.w3.org/2000/svg"
   xmlns:sodipodi="http://sodipodi.sourceforge.net/DTD/sodipodi-0.dtd"
   xmlns:inkscape="http://www.inkscape.org/namespaces/inkscape"
   height="16"
   width="16"
   version="1.1"
   id="svg4"
   sodipodi:docname="software-store-symbolic.svg">
  <metadata
     id="metadata10">
    <rdf:RDF>
      <cc:Work
         rdf:about="">
        <dc:format>image/svg+xml</dc:format>
        <dc:type
           rdf:resource="http://purl.org/dc/dcmitype/StillImage" />
      </cc:Work>
    </rdf:RDF>
  </metadata>
  <defs
     id="defs8" />
  <sodipodi:namedview
     pagecolor="#ffffff"
     bordercolor="#666666"
     borderopacity="1"
     objecttolerance="10"
     gridtolerance="10"
     guidetolerance="10"
     inkscape:pageopacity="0"
     inkscape:pageshadow="2"
     inkscape:window-width="640"
     inkscape:window-height="480"
     id="namedview6" />
  <path
     d="M6.756 1A79.094 79.094 0 005.36 4.07a140.116 140.116 0 00-1.353 3.233c-.21.534-.433 1.133-.649 1.697H2.5a1.497 1.497 0 00-.262 2.973c-.36.969-.721 1.934-1.119 3.027h2.658l1.069-3H11c.361 1.012.862 2.083 1.2 3h2.614c-.41-1.08-.775-2.05-1.14-3.018A1.497 1.497 0 0013.5 9h-.97c-.216-.552-.433-1.118-.645-1.637-.445-1.131-1.334-3.252-1.334-3.252s-.916-2.074-1.414-3.11H7.939zM8 3.5L10 9H5.914L8 3.5zM2.5 10H13.566c.24 0 .434.193.434.434v.132c0 .24-.193.434-.434.434H2.5a.499.499 0 110-1z"
     style="line-height:1000%;-inkscape-font-specification:'Ubuntu Light'"
     font-weight="300"
     font-size="196.248"
     font-family="Ubuntu"
     letter-spacing="0"
     word-spacing="0"
     fill="gray"
     id="path2" />
</svg>
