<svg height="16" width="16" xmlns="http://www.w3.org/2000/svg">
    <path d="M3.994 2c-1.258.015-2.179-.03-2.931.385a1.88 1.88 0 00-.838.998C.06 3.822 0 4.343 0 5v7c0 .658.06 1.179.225 1.617.164.439.461.79.838.998.752.416 1.673.37 2.931.385H12.006c1.258-.014 2.179.03 2.932-.385a1.88 1.88 0 00.838-.998c.164-.438.224-.96.224-1.617V5c0-.658-.06-1.178-.225-1.617a1.88 1.88 0 00-.837-.998c-.753-.416-1.674-.37-2.932-.385H3.998zm2.903 1.092a346.19 346.19 0 015.246.021c.86.147 2.16-.341 2.673.668.256 2.924.07 5.882.13 8.819-.088.38-.185 1.143-.731 1.129-3.537.235-7.092.108-10.635.134-.786-.112-2 .29-2.404-.691-.17-2.466-.089-4.95-.09-7.436.122-.84-.296-2.064.688-2.511 1.689-.212 3.408-.078 5.123-.133zM3.482 4.979a.5.5 0 00-.273.904l1.467 1.1-1.467 1.1c-.534.4.068 1.2.602.8l2-1.5a.5.5 0 000-.8l-2-1.5a.502.502 0 00-.329-.104zM6.01 8.982v1h3v-1z" style="line-height:normal;font-variant-ligatures:normal;font-variant-position:normal;font-variant-caps:normal;font-variant-numeric:normal;font-variant-alternates:normal;font-feature-settings:normal;text-indent:0;text-align:start;text-decoration-line:none;text-decoration-style:solid;text-decoration-color:#000;text-transform:none;text-orientation:mixed;white-space:normal;shape-padding:0;isolation:auto;mix-blend-mode:normal;solid-color:#000;solid-opacity:1;marker:none" color="#000" font-weight="400" font-family="sans-serif" overflow="visible" fill="gray"/>
</svg>
