<svg height="16" width="16" xmlns="http://www.w3.org/2000/svg">
    <g fill="gray">
        <path d="M4.5 0C2.56 0 1 1.533 1 3.438v.124C1 5.468 2.56 7 4.5 7h7C13.439 7 15 5.467 15 3.562v-.124C15 1.532 13.439 0 11.5 0zm6.873 1.004a2.5 2.5 0 012.623 2.367v.002a2.5 2.5 0 01-2.37 2.623 2.5 2.5 0 01-2.622-2.369 2.5 2.5 0 012.369-2.623zM4.5 9A3.492 3.492 0 001 12.5C1 14.439 2.56 16 4.5 16h7c1.939 0 3.5-1.561 3.5-3.5S13.439 9 11.5 9zm-.127 1.004a2.5 2.5 0 012.623 2.367v.002a2.5 2.5 0 01-2.37 2.623 2.5 2.5 0 01-2.622-2.369 2.5 2.5 0 012.369-2.623z"/>
    </g>
</svg>
