<svg version="1.1" viewBox="0 0 16 16" xmlns="http://www.w3.org/2000/svg" xmlns:osb="http://www.openswatchbook.org/uri/2009/osb">
 <g transform="translate(-552 -300)" fill="#808080">
  <path d="m556.5 300c-1.939 0-3.5 1.5331-3.5 3.4375v0.125c0 1.9044 1.561 3.4375 3.5 3.4375h7c1.939 0 3.5-1.5331 3.5-3.4375v-0.125c0-1.9044-1.561-3.4375-3.5-3.4375zm6.873 1.0039a2.5 2.5 0 0 1 2.623 2.3672v2e-3a2.5 2.5 0 0 1-2.3691 2.623 2.5 2.5 0 0 1-2.623-2.3691 2.5 2.5 0 0 1 2.3691-2.623z"/>
  <path d="m556.5 309c-1.939 0-3.5 1.561-3.5 3.5s1.561 3.5 3.5 3.5h7c1.939 0 3.5-1.561 3.5-3.5s-1.561-3.5-3.5-3.5zm-0.12695 1.0039a2.5 2.5 0 0 1 2.623 2.3672v2e-3a2.5 2.5 0 0 1-2.3691 2.623 2.5 2.5 0 0 1-2.623-2.3691 2.5 2.5 0 0 1 2.3691-2.623z"/>
 </g>
</svg>
