<svg viewBox="0 0 24 24" xmlns="http://www.w3.org/2000/svg"><g fill="#fff" color="#000"><path d="m6.541 3.496-4.715 5h-3.072l-.146.238a7.22 7.22 0 0 0-.002 7.524l.146.238h3.074l4.715 5zM9.033 8.29l-.707.706.354.354c1.823 1.823 1.823 4.47 0 6.293l-.354.353.707.707.354-.353c2.177-2.177 2.177-5.53 0-7.707z" style="-inkscape-stroke:none" transform="translate(5.45 -.496)"/><path d="m12.387 5.643-.707.707c1.926 1.926 2.853 4.044 2.853 6.146s-.927 4.22-2.853 6.147l.707.707c2.074-2.074 3.147-4.456 3.147-6.854s-1.073-4.78-3.147-6.853z" opacity=".5" style="-inkscape-stroke:none" transform="translate(5.45 -.496)"/></g></svg>