<svg version="1.1" viewBox="0 0 22 22" xmlns="http://www.w3.org/2000/svg">
 <path d="m9.3873 2c-1.5441 0.35802-2.6682 1.1751-3.3672 2.3122-0.70005 1.1381-0.99007 2.5602-1.0201 4.1643l1.0001 0.02c0.029002-1.4961 0.30402-2.7402 0.87106-3.6602 0.56704-0.92106 1.4111-1.5541 2.7422-1.8641zm3.2262 0-0.22602 0.97206c1.3301 0.31002 2.1751 0.94306 2.7422 1.8641 0.56704 0.92006 0.84206 2.1641 0.87106 3.6602l1.0001-0.02c-0.031002-1.6051-0.32002-3.0272-1.0201-4.1643-0.70005-1.1371-1.8221-1.9541-3.3662-2.3122zm-1.6131 1.9901c-1.5261 0-2.5442 0.78105-3.0722 1.8381-0.52904 1.0571-0.67504 2.3532-0.80105 3.6112-0.12601 1.2581-0.22902 2.4862-0.53304 3.3172-0.15201 0.41503-0.34702 0.72005-0.58804 0.91806-0.24002 0.19801-0.53604 0.31602-1.0061 0.31602v1.0001h12.001v-1.0001c-0.47003 0-0.76505-0.11801-1.0061-0.31602-0.24002-0.19901-0.43603-0.50303-0.58804-0.91806-0.30402-0.83006-0.40703-2.0591-0.53304-3.3172-0.12601-1.2581-0.27202-2.5542-0.80005-3.6112-0.53104-1.0581-1.5481-1.8381-3.0732-1.8381zm0 1.0001c1.2241 0 1.7691 0.46703 2.1781 1.2851s0.57504 2.0221 0.69905 3.2642c0.12401 1.2421 0.20901 2.5162 0.59204 3.5602 0.12601 0.34602 0.36902 0.61004 0.58804 0.89106h-8.1145c0.21901-0.28202 0.46103-0.54504 0.58804-0.89006 0.38303-1.0451 0.46803-2.3202 0.59204-3.5612 0.12401-1.2421 0.29002-2.4462 0.70005-3.2642 0.40703-0.81805 0.95306-1.2851 2.1771-1.2851zm-2.0001 11.001a2.0236 2.0236 0 0 0 4.0473 0z" fill="#fff" stroke-width="1.0001" style="font-feature-settings:normal;font-variant-alternates:normal;font-variant-caps:normal;font-variant-east-asian:normal;font-variant-ligatures:normal;font-variant-numeric:normal;font-variant-position:normal;font-variation-settings:normal;inline-size:0;isolation:auto;mix-blend-mode:normal;shape-margin:0;shape-padding:0;text-decoration-color:#000000;text-decoration-line:none;text-decoration-style:solid;text-indent:0;text-orientation:mixed;text-transform:none;white-space:normal"/>
</svg>
