<svg version="1.1" viewBox="0 0 16 16" xmlns="http://www.w3.org/2000/svg">
 <path d="m1.9707 1a1 1 0 0 0-0.67773 0.29297 1 1 0 0 0 0 1.4141 1 1 0 0 0 1.4141 0l3.1816 3.1816 0.70703-0.70703-3.8887-3.8887a1 1 0 0 0-0.73633-0.29297zm13.1 0.070312-14 14 0.70703 0.70703 4.9727-4.9727c5.0872 4.2576 8.4163 4.1877 9.0352 3.5723l-6.3027-6.3047 6.2949-6.2949-0.70703-0.70703zm-7.7676 4.8184-2.8281 2.8281c0.24195 0.24195 0.4752 0.45778 0.71094 0.68164l2.8125-2.8125-0.69531-0.69727z" fill="#808080"/>
</svg>
