<?xml version="1.0" encoding="UTF-8" standalone="no"?>
<svg
   xmlns:dc="http://purl.org/dc/elements/1.1/"
   xmlns:cc="http://creativecommons.org/ns#"
   xmlns:rdf="http://www.w3.org/1999/02/22-rdf-syntax-ns#"
   xmlns:svg="http://www.w3.org/2000/svg"
   xmlns="http://www.w3.org/2000/svg"
   xmlns:sodipodi="http://sodipodi.sourceforge.net/DTD/sodipodi-0.dtd"
   xmlns:inkscape="http://www.inkscape.org/namespaces/inkscape"
   width="16"
   height="16"
   version="1.1"
   id="svg4"
   sodipodi:docname="face-devilish-symbolic.svg"
   inkscape:version="1.0.2 (e86c870879, 2021-01-15)">
  <metadata
     id="metadata10">
    <rdf:RDF>
      <cc:Work
         rdf:about="">
        <dc:format>image/svg+xml</dc:format>
        <dc:type
           rdf:resource="http://purl.org/dc/dcmitype/StillImage" />
      </cc:Work>
    </rdf:RDF>
  </metadata>
  <defs
     id="defs8" />
  <sodipodi:namedview
     pagecolor="#ffffff"
     bordercolor="#666666"
     borderopacity="1"
     objecttolerance="10"
     gridtolerance="10"
     guidetolerance="10"
     inkscape:pageopacity="0"
     inkscape:pageshadow="2"
     inkscape:window-width="1920"
     inkscape:window-height="1016"
     id="namedview6"
     showgrid="true"
     inkscape:zoom="38.890873"
     inkscape:cx="5.112276"
     inkscape:cy="7.4485667"
     inkscape:window-x="0"
     inkscape:window-y="27"
     inkscape:window-maximized="1"
     inkscape:current-layer="svg4">
    <inkscape:grid
       type="xygrid"
       id="grid1438" />
  </sodipodi:namedview>
  <path
     id="path1523"
     d="M 7.4628906 1 A 7.5 7.5 0 0 0 2.59375 2.828125 C 1.6420957 2.4268659 0.83327639 1.9863823 0.3125 1.53125 L 0.21875 2.125 C 0.18775923 2.3720151 0.30766038 3.4280156 1.125 4.5488281 A 7.5 7.5 0 0 0 0 8.5 A 7.5 7.5 0 0 0 7.5 16 A 7.5 7.5 0 0 0 15 8.5 A 7.5 7.5 0 0 0 13.875 4.5488281 C 14.69234 3.4280156 14.812241 2.3720151 14.78125 2.125 L 14.6875 1.53125 C 14.166724 1.9863823 13.357904 2.4268659 12.40625 2.828125 A 7.5 7.5 0 0 0 7.5 1 A 7.5 7.5 0 0 0 7.4628906 1 z M 7.5 2 A 6.5 6.5 0 0 1 14 8.5 A 6.5 6.5 0 0 1 7.5 15 A 6.5 6.5 0 0 1 1 8.5 A 6.5 6.5 0 0 1 7.5 2 z "
     style="fill:#808080;fill-opacity:1" />
  <path
     d="m -8.835938,11.808592 a 7,7 0 0 0 0.15625,0.0039 7,7 0 0 1 -0.15625,-0.0039 z"
     id="path1519" />
  <path
     d="m -9.716797,11.730462 a 7,7 0 0 0 0.175781,0.02539 7,7 0 0 1 -0.175781,-0.02539 z"
     id="path1517" />
  <path
     d="m -10.152344,11.648432 a 7,7 0 0 0 0.177734,0.03711 7,7 0 0 1 -0.177734,-0.03711 z"
     id="path1515" />
  <path
     d="m -6.583985,11.499994 a 7,7 0 0 1 -0.212891,0.0625 7,7 0 0 0 0.212891,-0.0625 z"
     id="path1513" />
  <path
     d="m -10.994141,11.406244 a 7,7 0 0 0 0.136719,0.04687 7,7 0 0 1 -0.136719,-0.04687 z"
     id="path1511" />
  <path
     d="m -11.458985,11.22265 a 7,7 0 0 0 0.191406,0.08008 7,7 0 0 1 -0.191406,-0.08008 z"
     id="path1509" />
  <path
     d="m -11.617188,11.15039 a 7,7 0 0 0 0.158203,0.07226 7,7 0 0 1 -0.158203,-0.07226 z"
     id="path1507" />
  <path
     d="m -5.222657,10.916015 a 7,7 0 0 1 -0.130859,0.07226 7,7 0 0 0 0.130859,-0.07226 z"
     id="path1505" />
  <path
     d="m -12.226563,10.828125 a 7,7 0 0 0 0.169922,0.09766 7,7 0 0 1 -0.169922,-0.09766 z"
     id="path1503" />
  <path
     d="m -12.623047,10.574219 a 7,7 0 0 0 0.185547,0.123047 7,7 0 0 1 -0.185547,-0.123047 z"
     id="path1501" />
  <path
     d="m -12.773438,10.466797 a 7,7 0 0 0 0.150391,0.107422 7,7 0 0 1 -0.150391,-0.107422 z"
     id="path1499" />
  <path
     d="m -3.050782,9.015625 a 7,7 0 0 1 -0.099609,0.128906 7,7 0 0 0 0.099609,-0.128906 z"
     id="path1497" />
  <path
     d="m -2.679688,8.46875 a 7,7 0 0 1 -0.083984,0.132812 7,7 0 0 0 0.083984,-0.132812 z"
     id="path1495" />
  <path
     d="m -2.457032,8.076172 a 7,7 0 0 1 -0.078125,0.144531 7,7 0 0 0 0.078125,-0.144531 z"
     id="path1493" />
  <path
     d="m -2.246094,7.638672 a 7,7 0 0 1 -0.083985,0.1875 7,7 0 0 0 0.083985,-0.1875 z"
     id="path1491" />
  <path
     d="m -2.09375,7.263672 a 7,7 0 0 1 -0.058594,0.154297 7,7 0 0 0 0.058594,-0.154297 z"
     id="path1489" />
  <path
     d="m -1.94336,6.818359 a 7,7 0 0 1 -0.05664,0.181641 7,7 0 0 0 0.05664,-0.181641 z"
     id="path1487" />
  <path
     d="m -1.712891,5.755859 a 7,7 0 0 1 -0.023438,0.16211 7,7 0 0 0 0.023438,-0.16211 z"
     id="path1485" />
  <path
     d="m -15.626954,5.351562 a 7,7 0 0 0 0.01563,0.181641 7,7 0 0 1 -0.01563,-0.181641 z"
     id="path1483" />
  <path
     d="m -15.640624,5.140625 a 7,7 0 0 0 0.01367,0.210937 7,7 0 0 1 -0.01367,-0.210937 z"
     id="path1481" />
  <path
     d="m -1.648436,4.8125 a 7,7 0 0 1 -0.00391,0.222656 7,7 0 0 0 0.00391,-0.222656 z"
     id="path1479" />
  <path
     d="m 8.595643,1.6721666 a 7,7 0 0 1 0.212891,0.066406 6.925,6.925 0 0 0 -0.212891,-0.066406 z"
     id="path1477" />
  <path
     d="m 5.201112,1.5315416 a 6.992,6.992 0 0 0 -0.216797,0.048828 7,7 0 0 1 0.216797,-0.048828 z"
     id="path1471" />
  <path
     d="m 5.419862,1.4905256 a 6.992,6.992 0 0 0 -0.21875,0.041016 7,7 0 0 1 0.21875,-0.041016 z"
     id="path1469" />
  <path
     d="m 5.640565,1.4553696 a 6.992,6.992 0 0 0 -0.220703,0.035156 7,7 0 0 1 0.220703,-0.035156 z"
     id="path1467" />
  <path
     d="m 5.851503,1.4299786 a 6.992,6.992 0 0 0 -0.210938,0.025391 7,7 0 0 1 0.210938,-0.025391 z"
     id="path1465" />
  <path
     d="m 7.728456,1.4749006 a 7,7 0 0 1 0.4375,0.083984 6.925,6.925 0 0 0 -0.4375,-0.083984 z"
     id="path1463" />
  <path
     d="m 7.28705,1.4182596 a 7,7 0 0 1 0.441406,0.056641 6.925,6.925 0 0 0 -0.441406,-0.056641 z"
     id="path1461" />
  <path
     d="m 6.081972,1.4084896 a 6.992,6.992 0 0 0 -0.210938,0.019531 7,7 0 0 1 0.210938,-0.019531 z"
     id="path1459" />
  <path
     d="m 6.292909,1.3948176 a 6.992,6.992 0 0 0 -0.210937,0.013672 7,7 0 0 1 0.210937,-0.013672 z"
     id="path1457" />
  <path
     d="m 6.621034,1.3870076 a 7,7 0 0 1 0.445312,0.013672 6.925,6.925 0 0 0 -0.445312,-0.013672 z"
     id="path2" />
  <path
     style="display:inline;fill:#808080;fill-opacity:1;stroke:none;stroke-width:1"
     d="m 3,9.0000001 c 1.794392,1.3034499 7.16596,1.3034499 9,0 l -0.02799,0.53125 c -0.03266,0.42971 -0.897186,3.3749999 -4.485981,3.4062499 -3.588777,0.0312 -4.485982,-2.78 -4.485982,-3.3124999 z"
     id="path987" />
  <path
     style="display:inline;fill:#808080;fill-opacity:1;stroke:none"
     d="m 10.00002,5.0000005 c 0.55833,0 1,0.47292 1,1.03125 v 0.96875 c 0,0.55833 -0.44167,1 -1,1 -0.55833,0 -1,-0.44167 -1,-1 v -0.96875 c 0,-0.55833 0.44167,-1.03125 1,-1.03125 z"
     id="path985" />
  <path
     style="display:inline;fill:#808080;fill-opacity:1;stroke:none"
     d="m 4.96875,4.9843755 c 0.55833,0 1.03125,0.47292 1.03125,1.03125 v 0.96875 c 0,0.55833 -0.47292,1 -1.03125,1 -0.55833,0 -1,-0.44167 -1,-1 v -0.96875 c 0,-0.55833 0.44167,-1.03125 1,-1.03125 z"
     id="path983" />
  <circle
     style="fill:#808080;fill-rule:evenodd;stroke-linecap:square"
     id="path1440"
     cx="-32.790546"
     cy="12"
     rx="7.2094526"
     ry="7" />
  <circle
     style="fill:#808080;fill-rule:evenodd;stroke-linecap:square"
     id="circle1443"
     cx="-32.790546"
     cy="12"
     rx="7.2094526"
     ry="7" />
</svg>
