<?xml version="1.0" encoding="UTF-8" standalone="no"?>
<svg
   xmlns:dc="http://purl.org/dc/elements/1.1/"
   xmlns:cc="http://creativecommons.org/ns#"
   xmlns:rdf="http://www.w3.org/1999/02/22-rdf-syntax-ns#"
   xmlns:svg="http://www.w3.org/2000/svg"
   xmlns="http://www.w3.org/2000/svg"
   xmlns:sodipodi="http://sodipodi.sourceforge.net/DTD/sodipodi-0.dtd"
   xmlns:inkscape="http://www.inkscape.org/namespaces/inkscape"
   width="16"
   height="16"
   version="1.1"
   id="svg835"
   sodipodi:docname="face-worried-symbolic.svg"
   inkscape:version="1.0.2 (e86c870879, 2021-01-15)">
  <metadata
     id="metadata841">
    <rdf:RDF>
      <cc:Work
         rdf:about="">
        <dc:format>image/svg+xml</dc:format>
        <dc:type
           rdf:resource="http://purl.org/dc/dcmitype/StillImage" />
      </cc:Work>
    </rdf:RDF>
  </metadata>
  <defs
     id="defs839" />
  <sodipodi:namedview
     pagecolor="#ffffff"
     bordercolor="#666666"
     borderopacity="1"
     objecttolerance="10"
     gridtolerance="10"
     guidetolerance="10"
     inkscape:pageopacity="0"
     inkscape:pageshadow="2"
     inkscape:window-width="1920"
     inkscape:window-height="1016"
     id="namedview837"
     showgrid="false"
     inkscape:zoom="19.445436"
     inkscape:cx="-1.0354741"
     inkscape:cy="4.8087027"
     inkscape:window-x="0"
     inkscape:window-y="27"
     inkscape:window-maximized="1"
     inkscape:current-layer="svg835" />
  <path
     d="m 11.999996,11.845907 c -0.6894,-0.3852 -1.4508,-0.828 -2.2283999,-0.846 -0.5868,0.018 -1.1151,0.5886 -1.3716,0.6273 -0.4878,0.2826 -1.404,0.1764 -1.8,0 -0.8253,-0.3933 -0.8289,-0.612 -1.3887,-0.63 -0.7677,0.0171 -1.6488,0.3636 -2.2113,0.8487 v -0.45 c 0.3798,-0.9774 2.142,-1.8404997 3.6,-0.7839 0.315,0.198 0.3843,0.2403 0.9135,0.3033 0.144,0.0495 0.5328,-0.0306 0.8865,-0.3033 1.4238,-1.0376997 2.9627999,-0.1071 3.5999999,0.783 z"
     id="path1442"
     style="stroke-width:0.999999;fill:#808080;fill-opacity:1" />
  <path
     style="display:inline;fill:#808080;fill-opacity:1;stroke:none"
     d="m 10.000022,5.0000006 c 0.55833,0 1,0.47292 1,1.03125 v 0.96875 c 0,0.5583299 -0.44167,1 -1,1 -0.5583315,0 -1.0000015,-0.4416701 -1.0000015,-1 v -0.96875 c 0,-0.55833 0.44167,-1.03125 1.0000015,-1.03125 z"
     id="path985" />
  <path
     style="display:inline;fill:#808080;fill-opacity:1;stroke:none"
     d="m 4.96875,4.9843756 c 0.55833,0 1.03125,0.47292 1.03125,1.03125 v 0.96875 c 0,0.5583299 -0.47292,1 -1.03125,1 -0.55833,0 -1,-0.4416701 -1,-1 v -0.96875 c 0,-0.55833 0.44167,-1.03125 1,-1.03125 z"
     id="path983" />
  <path
     id="path993"
     style="fill:#808080;fill-opacity:1;fill-rule:evenodd;stroke:none;stroke-width:0.75;stroke-linecap:square;stroke-linejoin:round;stroke-opacity:1"
     d="m 7.4628915,1.0000005 a 7.5,7.5 0 0 0 -7.4628915,7.5000001 7.5,7.5 0 0 0 7.5000005,7.4999994 7.5,7.5 0 0 0 7.5000005,-7.4999994 7.5,7.5 0 0 0 -7.5000005,-7.5000001 7.5,7.5 0 0 0 -0.037109,0 z m 0.03711,1 a 6.5,6.5 0 0 1 6.5000005,6.5000001 6.5,6.5 0 0 1 -6.5000005,6.4999994 6.5,6.5 0 0 1 -6.5000005,-6.4999994 6.5,6.5 0 0 1 6.5000005,-6.5000001 z" />
</svg>
